<?xml version="1.0" encoding="UTF-8" standalone="no"?>
<!DOCTYPE svg PUBLIC "-//W3C//DTD SVG 1.1//EN"
 "http://www.w3.org/Graphics/SVG/1.1/DTD/svg11.dtd">
<!-- Generated by graphviz version 2.43.0 (0)
 -->
<!-- Title: itk::HolderCommand&lt; T &gt; Pages: 1 -->
<svg width="486pt" height="354pt"
 viewBox="0.00 0.00 485.50 354.00" xmlns="http://www.w3.org/2000/svg" xmlns:xlink="http://www.w3.org/1999/xlink">
<g id="graph0" class="graph" transform="scale(1 1) rotate(0) translate(4 350)">
<title>itk::HolderCommand&lt; T &gt;</title>
<polygon fill="white" stroke="transparent" points="-4,4 -4,-350 481.5,-350 481.5,4 -4,4"/>
<!-- Node1 -->
<g id="node1" class="node">
<title>Node1</title>
<g id="a_node1"><a xlink:title="An ITK Command class to hold a object until destruction.">
<polygon fill="#bfbfbf" stroke="black" points="164.5,-0.5 164.5,-19.5 310.5,-19.5 310.5,-0.5 164.5,-0.5"/>
<text text-anchor="middle" x="237.5" y="-7.5" font-family="Helvetica,sans-Serif" font-size="10.00">itk::HolderCommand&lt; T &gt;</text>
</a>
</g>
</g>
<!-- Node2 -->
<g id="node2" class="node">
<title>Node2</title>
<g id="a_node2"><a target="_parent" xlink:href="https://www.itk.org/Doxygen/html/classitk_1_1Command.html" xlink:title=" ">
<polygon fill="white" stroke="black" points="194.5,-57.5 194.5,-76.5 280.5,-76.5 280.5,-57.5 194.5,-57.5"/>
<text text-anchor="middle" x="237.5" y="-64.5" font-family="Helvetica,sans-Serif" font-size="10.00">itk::Command</text>
</a>
</g>
</g>
<!-- Node2&#45;&gt;Node1 -->
<g id="edge1" class="edge">
<title>Node2&#45;&gt;Node1</title>
<path fill="none" stroke="midnightblue" d="M237.5,-47.12C237.5,-37.82 237.5,-27.06 237.5,-19.71"/>
<polygon fill="midnightblue" stroke="midnightblue" points="234,-47.41 237.5,-57.41 241,-47.41 234,-47.41"/>
</g>
<!-- Node3 -->
<g id="node3" class="node">
<title>Node3</title>
<g id="a_node3"><a target="_parent" xlink:href="https://www.itk.org/Doxygen/html/classitk_1_1Object.html" xlink:title=" ">
<polygon fill="white" stroke="black" points="204,-114.5 204,-133.5 271,-133.5 271,-114.5 204,-114.5"/>
<text text-anchor="middle" x="237.5" y="-121.5" font-family="Helvetica,sans-Serif" font-size="10.00">itk::Object</text>
</a>
</g>
</g>
<!-- Node3&#45;&gt;Node2 -->
<g id="edge2" class="edge">
<title>Node3&#45;&gt;Node2</title>
<path fill="none" stroke="midnightblue" d="M237.5,-104.12C237.5,-94.82 237.5,-84.06 237.5,-76.71"/>
<polygon fill="midnightblue" stroke="midnightblue" points="234,-104.41 237.5,-114.41 241,-104.41 234,-104.41"/>
</g>
<!-- Node4 -->
<g id="node4" class="node">
<title>Node4</title>
<g id="a_node4"><a target="_parent" xlink:href="https://www.itk.org/Doxygen/html/classitk_1_1LightObject.html" xlink:title=" ">
<polygon fill="white" stroke="black" points="0,-181.5 0,-200.5 91,-200.5 91,-181.5 0,-181.5"/>
<text text-anchor="middle" x="45.5" y="-188.5" font-family="Helvetica,sans-Serif" font-size="10.00">itk::LightObject</text>
</a>
</g>
</g>
<!-- Node4&#45;&gt;Node3 -->
<g id="edge3" class="edge">
<title>Node4&#45;&gt;Node3</title>
<path fill="none" stroke="midnightblue" d="M80.65,-178.1C118.71,-165.21 178.5,-144.97 212.2,-133.56"/>
<polygon fill="midnightblue" stroke="midnightblue" points="79.35,-174.85 71,-181.37 81.59,-181.48 79.35,-174.85"/>
</g>
<!-- Node5 -->
<g id="node5" class="node">
<title>Node5</title>
<g id="a_node5"><a target="_parent" xlink:href="https://www.itk.org/Doxygen/html/classitk_1_1TimeStamp.html" xlink:title=" ">
<polygon fill="white" stroke="black" points="109.5,-181.5 109.5,-200.5 201.5,-200.5 201.5,-181.5 109.5,-181.5"/>
<text text-anchor="middle" x="155.5" y="-188.5" font-family="Helvetica,sans-Serif" font-size="10.00">itk::TimeStamp</text>
</a>
</g>
</g>
<!-- Node5&#45;&gt;Node3 -->
<g id="edge4" class="edge">
<title>Node5&#45;&gt;Node3</title>
<path fill="none" stroke="#9a32cd" stroke-dasharray="5,2" d="M174.78,-174.71C190.94,-161.91 213.42,-144.09 226.62,-133.63"/>
<polygon fill="#9a32cd" stroke="#9a32cd" points="172.22,-172.28 166.56,-181.23 176.57,-177.76 172.22,-172.28"/>
<text text-anchor="middle" x="227.5" y="-155" font-family="Helvetica,sans-Serif" font-size="10.00"> m_MTime</text>
</g>
<!-- Node6 -->
<g id="node6" class="node">
<title>Node6</title>
<g id="a_node6"><a xlink:title=" ">
<polygon fill="white" stroke="#bfbfbf" points="105.5,-254 105.5,-273 205.5,-273 205.5,-254 105.5,-254"/>
<text text-anchor="middle" x="155.5" y="-261" font-family="Helvetica,sans-Serif" font-size="10.00">std::atomic&lt; T &gt;</text>
</a>
</g>
</g>
<!-- Node6&#45;&gt;Node5 -->
<g id="edge5" class="edge">
<title>Node6&#45;&gt;Node5</title>
<path fill="none" stroke="#9a32cd" stroke-dasharray="5,2" d="M155.5,-243.44C155.5,-229.53 155.5,-211.32 155.5,-200.72"/>
<polygon fill="#9a32cd" stroke="#9a32cd" points="152,-243.86 155.5,-253.86 159,-243.86 152,-243.86"/>
<text text-anchor="middle" x="208.5" y="-222" font-family="Helvetica,sans-Serif" font-size="10.00"> m_GlobalTimeStamp</text>
</g>
<!-- Node7 -->
<g id="node7" class="node">
<title>Node7</title>
<g id="a_node7"><a xlink:title=" ">
<polygon fill="white" stroke="#bfbfbf" points="141,-326.5 141,-345.5 170,-345.5 170,-326.5 141,-326.5"/>
<text text-anchor="middle" x="155.5" y="-333.5" font-family="Helvetica,sans-Serif" font-size="10.00">T</text>
</a>
</g>
</g>
<!-- Node7&#45;&gt;Node6 -->
<g id="edge6" class="edge">
<title>Node7&#45;&gt;Node6</title>
<path fill="none" stroke="#9a32cd" stroke-dasharray="5,2" d="M155.5,-315.94C155.5,-302.03 155.5,-283.82 155.5,-273.22"/>
<polygon fill="#9a32cd" stroke="#9a32cd" points="152,-316.36 155.5,-326.36 159,-316.36 152,-316.36"/>
<text text-anchor="middle" x="164" y="-300" font-family="Helvetica,sans-Serif" font-size="10.00"> ptr</text>
</g>
<!-- Node8 -->
<g id="node8" class="node">
<title>Node8</title>
<g id="a_node8"><a target="_parent" xlink:href="https://www.itk.org/Doxygen/html/classitk_1_1MetaDataDictionary.html" xlink:title=" ">
<polygon fill="white" stroke="black" points="219.5,-181.5 219.5,-200.5 353.5,-200.5 353.5,-181.5 219.5,-181.5"/>
<text text-anchor="middle" x="286.5" y="-188.5" font-family="Helvetica,sans-Serif" font-size="10.00">itk::MetaDataDictionary</text>
</a>
</g>
</g>
<!-- Node8&#45;&gt;Node3 -->
<g id="edge7" class="edge">
<title>Node8&#45;&gt;Node3</title>
<path fill="none" stroke="#9a32cd" stroke-dasharray="5,2" d="M273.61,-172.9C264.09,-160.27 251.52,-143.6 244,-133.63"/>
<polygon fill="#9a32cd" stroke="#9a32cd" points="271.08,-175.36 279.89,-181.23 276.67,-171.14 271.08,-175.36"/>
<text text-anchor="middle" x="324" y="-155" font-family="Helvetica,sans-Serif" font-size="10.00"> m_MetaDataDictionary</text>
</g>
<!-- Node9 -->
<g id="node9" class="node">
<title>Node9</title>
<g id="a_node9"><a xlink:title=" ">
<polygon fill="white" stroke="#bfbfbf" points="383,-181.5 383,-200.5 448,-200.5 448,-181.5 383,-181.5"/>
<text text-anchor="middle" x="415.5" y="-188.5" font-family="Helvetica,sans-Serif" font-size="10.00">std::string</text>
</a>
</g>
</g>
<!-- Node9&#45;&gt;Node3 -->
<g id="edge8" class="edge">
<title>Node9&#45;&gt;Node3</title>
<path fill="none" stroke="#9a32cd" stroke-dasharray="5,2" d="M406.07,-172.43C401.19,-165 394.56,-156.93 386.5,-152 351.18,-130.39 302.92,-125.15 271.01,-124.32"/>
<polygon fill="#9a32cd" stroke="#9a32cd" points="403.17,-174.41 411.28,-181.23 409.19,-170.84 403.17,-174.41"/>
<text text-anchor="middle" x="438" y="-155" font-family="Helvetica,sans-Serif" font-size="10.00"> m_ObjectName</text>
</g>
<!-- Node10 -->
<g id="node10" class="node">
<title>Node10</title>
<g id="a_node10"><a xlink:title=" ">
<polygon fill="white" stroke="#bfbfbf" points="363.5,-248.5 363.5,-278.5 467.5,-278.5 467.5,-248.5 363.5,-248.5"/>
<text text-anchor="start" x="371.5" y="-266.5" font-family="Helvetica,sans-Serif" font-size="10.00">std::basic_string&lt;</text>
<text text-anchor="middle" x="415.5" y="-255.5" font-family="Helvetica,sans-Serif" font-size="10.00"> Char &gt;</text>
</a>
</g>
</g>
<!-- Node10&#45;&gt;Node9 -->
<g id="edge9" class="edge">
<title>Node10&#45;&gt;Node9</title>
<path fill="none" stroke="midnightblue" d="M415.5,-238.09C415.5,-225.21 415.5,-210.2 415.5,-200.89"/>
<polygon fill="midnightblue" stroke="midnightblue" points="412,-238.23 415.5,-248.23 419,-238.23 412,-238.23"/>
</g>
</g>
</svg>
