<?xml version="1.0" encoding="UTF-8" standalone="no"?>
<!DOCTYPE svg PUBLIC "-//W3C//DTD SVG 1.1//EN"
 "http://www.w3.org/Graphics/SVG/1.1/DTD/svg11.dtd">
<!-- Generated by graphviz version 2.43.0 (0)
 -->
<!-- Title: itk::simple::SITK_FINAL Pages: 1 -->
<svg width="1218pt" height="194pt"
 viewBox="0.00 0.00 1218.00 194.00" xmlns="http://www.w3.org/2000/svg" xmlns:xlink="http://www.w3.org/1999/xlink">
<g id="graph0" class="graph" transform="scale(1 1) rotate(0) translate(4 190)">
<title>itk::simple::SITK_FINAL</title>
<polygon fill="white" stroke="transparent" points="-4,4 -4,-190 1214,-190 1214,4 -4,4"/>
<!-- Node1 -->
<g id="node1" class="node">
<title>Node1</title>
<g id="a_node1"><a xlink:title=" ">
<polygon fill="#bfbfbf" stroke="black" points="1080,-113.5 1080,-132.5 1210,-132.5 1210,-113.5 1080,-113.5"/>
<text text-anchor="middle" x="1145" y="-120.5" font-family="Helvetica,sans-Serif" font-size="10.00">itk::simple::SITK_FINAL</text>
</a>
</g>
</g>
<!-- Node2 -->
<g id="node2" class="node">
<title>Node2</title>
<g id="a_node2"><a xlink:href="classitk_1_1simple_1_1LoggerBase.html" target="_top" xlink:title="A base class to handle SimpleITK and ITK messages and logging.">
<polygon fill="white" stroke="black" points="822,-136.5 822,-155.5 953,-155.5 953,-136.5 822,-136.5"/>
<text text-anchor="middle" x="887.5" y="-143.5" font-family="Helvetica,sans-Serif" font-size="10.00">itk::simple::LoggerBase</text>
</a>
</g>
</g>
<!-- Node2&#45;&gt;Node1 -->
<g id="edge1" class="edge">
<title>Node2&#45;&gt;Node1</title>
<path fill="none" stroke="midnightblue" d="M963.5,-139.25C1000.39,-135.93 1044.39,-131.97 1079.71,-128.79"/>
<polygon fill="midnightblue" stroke="midnightblue" points="962.95,-135.78 953.3,-140.17 963.58,-142.76 962.95,-135.78"/>
</g>
<!-- Node3 -->
<g id="node3" class="node">
<title>Node3</title>
<g id="a_node3"><a xlink:href="classitk_1_1simple_1_1ObjectOwnedBase.html" target="_top" xlink:title="An abstract base class to connect this object with the lifetime of another.">
<polygon fill="white" stroke="black" points="621,-140.5 621,-159.5 785,-159.5 785,-140.5 621,-140.5"/>
<text text-anchor="middle" x="703" y="-147.5" font-family="Helvetica,sans-Serif" font-size="10.00">itk::simple::ObjectOwnedBase</text>
</a>
</g>
</g>
<!-- Node3&#45;&gt;Node2 -->
<g id="edge2" class="edge">
<title>Node3&#45;&gt;Node2</title>
<path fill="none" stroke="midnightblue" d="M795.22,-148C804.19,-147.8 813.17,-147.61 821.79,-147.42"/>
<polygon fill="midnightblue" stroke="midnightblue" points="795.03,-144.5 785.11,-148.22 795.18,-151.5 795.03,-144.5"/>
</g>
<!-- Node4 -->
<g id="node4" class="node">
<title>Node4</title>
<g id="a_node4"><a xlink:href="classitk_1_1simple_1_1NonCopyable.html" target="_top" xlink:title="An inheritable class to disable copying of a class.">
<polygon fill="white" stroke="black" points="328,-166.5 328,-185.5 468,-185.5 468,-166.5 328,-166.5"/>
<text text-anchor="middle" x="398" y="-173.5" font-family="Helvetica,sans-Serif" font-size="10.00">itk::simple::NonCopyable</text>
</a>
</g>
</g>
<!-- Node4&#45;&gt;Node3 -->
<g id="edge3" class="edge">
<title>Node4&#45;&gt;Node3</title>
<path fill="none" stroke="midnightblue" d="M478.19,-169.2C522.1,-165.44 576.59,-160.76 620.81,-156.97"/>
<polygon fill="midnightblue" stroke="midnightblue" points="477.8,-165.73 468.13,-170.07 478.4,-172.7 477.8,-165.73"/>
</g>
<!-- Node5 -->
<g id="node5" class="node">
<title>Node5</title>
<g id="a_node5"><a xlink:title=" ">
<polygon fill="white" stroke="#bfbfbf" points="365.5,-116.5 365.5,-135.5 430.5,-135.5 430.5,-116.5 365.5,-116.5"/>
<text text-anchor="middle" x="398" y="-123.5" font-family="Helvetica,sans-Serif" font-size="10.00">std::string</text>
</a>
</g>
</g>
<!-- Node5&#45;&gt;Node3 -->
<g id="edge4" class="edge">
<title>Node5&#45;&gt;Node3</title>
<path fill="none" stroke="#9a32cd" stroke-dasharray="5,2" d="M440.83,-129.31C487.11,-132.98 562.82,-138.98 620.84,-143.57"/>
<polygon fill="#9a32cd" stroke="#9a32cd" points="440.81,-125.8 430.57,-128.5 440.26,-132.78 440.81,-125.8"/>
<text text-anchor="middle" x="544.5" y="-144" font-family="Helvetica,sans-Serif" font-size="10.00"> m_Name</text>
</g>
<!-- Node8 -->
<g id="node8" class="node">
<title>Node8</title>
<g id="a_node8"><a target="_parent" xlink:href="https://www.itk.org/Doxygen/html/classitk_1_1Object.html" xlink:title=" ">
<polygon fill="white" stroke="black" points="669.5,-73.5 669.5,-92.5 736.5,-92.5 736.5,-73.5 669.5,-73.5"/>
<text text-anchor="middle" x="703" y="-80.5" font-family="Helvetica,sans-Serif" font-size="10.00">itk::Object</text>
</a>
</g>
</g>
<!-- Node5&#45;&gt;Node8 -->
<g id="edge13" class="edge">
<title>Node5&#45;&gt;Node8</title>
<path fill="none" stroke="#9a32cd" stroke-dasharray="5,2" d="M440.6,-120.1C501.48,-111.46 613.63,-95.54 669.13,-87.67"/>
<polygon fill="#9a32cd" stroke="#9a32cd" points="439.98,-116.65 430.57,-121.52 440.96,-123.58 439.98,-116.65"/>
<text text-anchor="middle" x="544.5" y="-117" font-family="Helvetica,sans-Serif" font-size="10.00"> m_ObjectName</text>
</g>
<!-- Node6 -->
<g id="node6" class="node">
<title>Node6</title>
<g id="a_node6"><a xlink:title=" ">
<polygon fill="white" stroke="#bfbfbf" points="82,-111 82,-141 186,-141 186,-111 82,-111"/>
<text text-anchor="start" x="90" y="-129" font-family="Helvetica,sans-Serif" font-size="10.00">std::basic_string&lt;</text>
<text text-anchor="middle" x="134" y="-118" font-family="Helvetica,sans-Serif" font-size="10.00"> Char &gt;</text>
</a>
</g>
</g>
<!-- Node6&#45;&gt;Node5 -->
<g id="edge5" class="edge">
<title>Node6&#45;&gt;Node5</title>
<path fill="none" stroke="midnightblue" d="M196.42,-126C249.35,-126 323.63,-126 365.34,-126"/>
<polygon fill="midnightblue" stroke="midnightblue" points="196.14,-122.5 186.14,-126 196.14,-129.5 196.14,-122.5"/>
</g>
<!-- Node7 -->
<g id="node7" class="node">
<title>Node7</title>
<g id="a_node7"><a target="_parent" xlink:href="https://www.itk.org/Doxygen/html/classitk_1_1OutputWindow.html" xlink:title=" ">
<polygon fill="white" stroke="black" points="834,-94.5 834,-113.5 941,-113.5 941,-94.5 834,-94.5"/>
<text text-anchor="middle" x="887.5" y="-101.5" font-family="Helvetica,sans-Serif" font-size="10.00">itk::OutputWindow</text>
</a>
</g>
</g>
<!-- Node7&#45;&gt;Node1 -->
<g id="edge6" class="edge">
<title>Node7&#45;&gt;Node1</title>
<path fill="none" stroke="#9a32cd" stroke-dasharray="5,2" d="M951.71,-106.86C984.62,-108.54 1025.51,-110.95 1062,-114 1067.71,-114.48 1073.64,-115.03 1079.57,-115.61"/>
<polygon fill="#9a32cd" stroke="#9a32cd" points="951.48,-103.34 941.32,-106.33 951.13,-110.33 951.48,-103.34"/>
<text text-anchor="middle" x="1016.5" y="-117" font-family="Helvetica,sans-Serif" font-size="10.00"> m_OutputWindow</text>
</g>
<!-- Node8&#45;&gt;Node7 -->
<g id="edge7" class="edge">
<title>Node8&#45;&gt;Node7</title>
<path fill="none" stroke="midnightblue" d="M746.56,-87.9C772.59,-90.89 806.08,-94.75 833.77,-97.93"/>
<polygon fill="midnightblue" stroke="midnightblue" points="746.96,-84.42 736.63,-86.75 746.16,-91.37 746.96,-84.42"/>
</g>
<!-- Node9 -->
<g id="node9" class="node">
<title>Node9</title>
<g id="a_node9"><a target="_parent" xlink:href="https://www.itk.org/Doxygen/html/classitk_1_1LightObject.html" xlink:title=" ">
<polygon fill="white" stroke="black" points="352.5,-76.5 352.5,-95.5 443.5,-95.5 443.5,-76.5 352.5,-76.5"/>
<text text-anchor="middle" x="398" y="-83.5" font-family="Helvetica,sans-Serif" font-size="10.00">itk::LightObject</text>
</a>
</g>
</g>
<!-- Node9&#45;&gt;Node8 -->
<g id="edge8" class="edge">
<title>Node9&#45;&gt;Node8</title>
<path fill="none" stroke="midnightblue" d="M453.83,-85.46C516.67,-84.83 617.59,-83.84 669.24,-83.32"/>
<polygon fill="midnightblue" stroke="midnightblue" points="453.67,-81.96 443.71,-85.56 453.74,-88.96 453.67,-81.96"/>
</g>
<!-- Node10 -->
<g id="node10" class="node">
<title>Node10</title>
<g id="a_node10"><a target="_parent" xlink:href="https://www.itk.org/Doxygen/html/classitk_1_1TimeStamp.html" xlink:title=" ">
<polygon fill="white" stroke="black" points="352,-38.5 352,-57.5 444,-57.5 444,-38.5 352,-38.5"/>
<text text-anchor="middle" x="398" y="-45.5" font-family="Helvetica,sans-Serif" font-size="10.00">itk::TimeStamp</text>
</a>
</g>
</g>
<!-- Node10&#45;&gt;Node8 -->
<g id="edge9" class="edge">
<title>Node10&#45;&gt;Node8</title>
<path fill="none" stroke="#9a32cd" stroke-dasharray="5,2" d="M454.08,-53.59C495.15,-57.85 552.62,-63.98 603,-70 625.2,-72.65 650.17,-75.94 669.47,-78.54"/>
<polygon fill="#9a32cd" stroke="#9a32cd" points="454.31,-50.1 444.01,-52.55 453.59,-57.06 454.31,-50.1"/>
<text text-anchor="middle" x="544.5" y="-73" font-family="Helvetica,sans-Serif" font-size="10.00"> m_MTime</text>
</g>
<!-- Node11 -->
<g id="node11" class="node">
<title>Node11</title>
<g id="a_node11"><a xlink:title=" ">
<polygon fill="white" stroke="#bfbfbf" points="84,-38.5 84,-57.5 184,-57.5 184,-38.5 84,-38.5"/>
<text text-anchor="middle" x="134" y="-45.5" font-family="Helvetica,sans-Serif" font-size="10.00">std::atomic&lt; T &gt;</text>
</a>
</g>
</g>
<!-- Node11&#45;&gt;Node10 -->
<g id="edge10" class="edge">
<title>Node11&#45;&gt;Node10</title>
<path fill="none" stroke="#9a32cd" stroke-dasharray="5,2" d="M194.49,-48C242.28,-48 308.37,-48 351.88,-48"/>
<polygon fill="#9a32cd" stroke="#9a32cd" points="194.28,-44.5 184.28,-48 194.28,-51.5 194.28,-44.5"/>
<text text-anchor="middle" x="257" y="-51" font-family="Helvetica,sans-Serif" font-size="10.00"> m_GlobalTimeStamp</text>
</g>
<!-- Node12 -->
<g id="node12" class="node">
<title>Node12</title>
<g id="a_node12"><a xlink:title=" ">
<polygon fill="white" stroke="#bfbfbf" points="0,-38.5 0,-57.5 29,-57.5 29,-38.5 0,-38.5"/>
<text text-anchor="middle" x="14.5" y="-45.5" font-family="Helvetica,sans-Serif" font-size="10.00">T</text>
</a>
</g>
</g>
<!-- Node12&#45;&gt;Node11 -->
<g id="edge11" class="edge">
<title>Node12&#45;&gt;Node11</title>
<path fill="none" stroke="#9a32cd" stroke-dasharray="5,2" d="M39.7,-48C52.49,-48 68.67,-48 83.95,-48"/>
<polygon fill="#9a32cd" stroke="#9a32cd" points="39.44,-44.5 29.44,-48 39.44,-51.5 39.44,-44.5"/>
<text text-anchor="middle" x="55.5" y="-51" font-family="Helvetica,sans-Serif" font-size="10.00"> ptr</text>
</g>
<!-- Node13 -->
<g id="node13" class="node">
<title>Node13</title>
<g id="a_node13"><a target="_parent" xlink:href="https://www.itk.org/Doxygen/html/classitk_1_1MetaDataDictionary.html" xlink:title=" ">
<polygon fill="white" stroke="black" points="331,-0.5 331,-19.5 465,-19.5 465,-0.5 331,-0.5"/>
<text text-anchor="middle" x="398" y="-7.5" font-family="Helvetica,sans-Serif" font-size="10.00">itk::MetaDataDictionary</text>
</a>
</g>
</g>
<!-- Node13&#45;&gt;Node8 -->
<g id="edge12" class="edge">
<title>Node13&#45;&gt;Node8</title>
<path fill="none" stroke="#9a32cd" stroke-dasharray="5,2" d="M475.19,-18.21C513.92,-23.42 561.44,-31.4 603,-43 631.21,-50.87 662.31,-64.27 681.99,-73.36"/>
<polygon fill="#9a32cd" stroke="#9a32cd" points="475.41,-14.71 465.04,-16.88 474.5,-21.65 475.41,-14.71"/>
<text text-anchor="middle" x="544.5" y="-46" font-family="Helvetica,sans-Serif" font-size="10.00"> m_MetaDataDictionary</text>
</g>
</g>
</svg>
