<?xml version="1.0" encoding="UTF-8" standalone="no"?>
<!DOCTYPE svg PUBLIC "-//W3C//DTD SVG 1.1//EN"
 "http://www.w3.org/Graphics/SVG/1.1/DTD/svg11.dtd">
<!-- Generated by graphviz version 2.43.0 (0)
 -->
<!-- Title: itk::simple::detail::MemberFunctionFactoryBase Pages: 1 -->
<svg width="1259pt" height="479pt"
 viewBox="0.00 0.00 1259.00 479.00" xmlns="http://www.w3.org/2000/svg" xmlns:xlink="http://www.w3.org/1999/xlink">
<g id="graph0" class="graph" transform="scale(1 1) rotate(0) translate(4 475)">
<title>itk::simple::detail::MemberFunctionFactoryBase</title>
<polygon fill="white" stroke="transparent" points="-4,4 -4,-475 1255,-475 1255,4 -4,4"/>
<!-- Node1 -->
<g id="node1" class="node">
<title>Node1</title>
<g id="a_node1"><a xlink:title="A base class for the MemberFunctionFactory.">
<polygon fill="#bfbfbf" stroke="black" points="0,-228 0,-258 164,-258 164,-228 0,-228"/>
<text text-anchor="start" x="8" y="-246" font-family="Helvetica,sans-Serif" font-size="10.00">itk::simple::detail</text>
<text text-anchor="middle" x="82" y="-235" font-family="Helvetica,sans-Serif" font-size="10.00">::MemberFunctionFactoryBase</text>
</a>
</g>
</g>
<!-- Node2 -->
<g id="node2" class="node">
<title>Node2</title>
<g id="a_node2"><a xlink:href="classitk_1_1simple_1_1detail_1_1MemberFunctionFactoryBase.html" target="_top" xlink:title=" ">
<polygon fill="white" stroke="black" points="340,-273 340,-325 512,-325 512,-273 340,-273"/>
<text text-anchor="start" x="348" y="-313" font-family="Helvetica,sans-Serif" font-size="10.00">itk::simple::detail</text>
<text text-anchor="start" x="348" y="-302" font-family="Helvetica,sans-Serif" font-size="10.00">::MemberFunctionFactoryBase</text>
<text text-anchor="start" x="348" y="-291" font-family="Helvetica,sans-Serif" font-size="10.00">&lt; TMemberFunctionPointer,</text>
<text text-anchor="middle" x="426" y="-280" font-family="Helvetica,sans-Serif" font-size="10.00"> std::pair&lt; unsigned int, int &gt; &gt;</text>
</a>
</g>
</g>
<!-- Node1&#45;&gt;Node2 -->
<g id="edge1" class="edge">
<title>Node1&#45;&gt;Node2</title>
<path fill="none" stroke="orange" stroke-dasharray="5,2" d="M129.82,-261.66C146.1,-267.46 164.63,-273.29 182,-277 233.78,-288.07 292.93,-293.57 339.91,-296.31"/>
<polygon fill="orange" stroke="orange" points="130.6,-258.22 120.01,-258.08 128.2,-264.8 130.6,-258.22"/>
<text text-anchor="start" x="182" y="-319" font-family="Helvetica,sans-Serif" font-size="10.00"> &lt; TMemberFunctionPointer,</text>
<text text-anchor="start" x="182" y="-308" font-family="Helvetica,sans-Serif" font-size="10.00"> std::pair&lt; unsigned int,</text>
<text text-anchor="middle" x="252" y="-297" font-family="Helvetica,sans-Serif" font-size="10.00"> int &gt; &gt;</text>
</g>
<!-- Node8 -->
<g id="node8" class="node">
<title>Node8</title>
<g id="a_node8"><a xlink:href="classitk_1_1simple_1_1detail_1_1MemberFunctionFactoryBase.html" target="_top" xlink:title=" ">
<polygon fill="white" stroke="black" points="537,-198 537,-250 701,-250 701,-198 537,-198"/>
<text text-anchor="start" x="545" y="-238" font-family="Helvetica,sans-Serif" font-size="10.00">itk::simple::detail</text>
<text text-anchor="start" x="545" y="-227" font-family="Helvetica,sans-Serif" font-size="10.00">::MemberFunctionFactoryBase</text>
<text text-anchor="start" x="545" y="-216" font-family="Helvetica,sans-Serif" font-size="10.00">&lt; MemberFunction2Type, std</text>
<text text-anchor="middle" x="619" y="-205" font-family="Helvetica,sans-Serif" font-size="10.00">::pair&lt; unsigned int, int &gt; &gt;</text>
</a>
</g>
</g>
<!-- Node1&#45;&gt;Node8 -->
<g id="edge7" class="edge">
<title>Node1&#45;&gt;Node8</title>
<path fill="none" stroke="orange" stroke-dasharray="5,2" d="M174.53,-239.75C276.38,-236.13 439.41,-230.34 536.86,-226.88"/>
<polygon fill="orange" stroke="orange" points="174.12,-236.26 164.25,-240.11 174.37,-243.26 174.12,-236.26"/>
<text text-anchor="start" x="188" y="-264" font-family="Helvetica,sans-Serif" font-size="10.00"> &lt; MemberFunction2Type,</text>
<text text-anchor="start" x="188" y="-253" font-family="Helvetica,sans-Serif" font-size="10.00"> std::pair&lt; unsigned</text>
<text text-anchor="middle" x="252" y="-242" font-family="Helvetica,sans-Serif" font-size="10.00"> int, int &gt; &gt;</text>
</g>
<!-- Node9 -->
<g id="node9" class="node">
<title>Node9</title>
<g id="a_node9"><a xlink:href="classitk_1_1simple_1_1detail_1_1MemberFunctionFactoryBase.html" target="_top" xlink:title=" ">
<polygon fill="white" stroke="black" points="530,-404 530,-456 708,-456 708,-404 530,-404"/>
<text text-anchor="start" x="538" y="-444" font-family="Helvetica,sans-Serif" font-size="10.00">itk::simple::detail</text>
<text text-anchor="start" x="538" y="-433" font-family="Helvetica,sans-Serif" font-size="10.00">::MemberFunctionFactoryBase</text>
<text text-anchor="start" x="538" y="-422" font-family="Helvetica,sans-Serif" font-size="10.00">&lt; EvaluateMemberFunctionType,</text>
<text text-anchor="middle" x="619" y="-411" font-family="Helvetica,sans-Serif" font-size="10.00"> std::pair&lt; unsigned int, int &gt; &gt;</text>
</a>
</g>
</g>
<!-- Node1&#45;&gt;Node9 -->
<g id="edge9" class="edge">
<title>Node1&#45;&gt;Node9</title>
<path fill="none" stroke="orange" stroke-dasharray="5,2" d="M91.67,-267.72C105.12,-301.98 134.53,-362.85 182,-391 288.71,-454.28 436.63,-452.71 529.8,-443.27"/>
<polygon fill="orange" stroke="orange" points="94.81,-266.13 88,-258.01 88.26,-268.6 94.81,-266.13"/>
<text text-anchor="start" x="182.5" y="-463" font-family="Helvetica,sans-Serif" font-size="10.00"> &lt; EvaluateMemberFunction</text>
<text text-anchor="start" x="182.5" y="-452" font-family="Helvetica,sans-Serif" font-size="10.00">Type, std::pair&lt; unsigned</text>
<text text-anchor="middle" x="252" y="-441" font-family="Helvetica,sans-Serif" font-size="10.00"> int, int &gt; &gt;</text>
</g>
<!-- Node10 -->
<g id="node10" class="node">
<title>Node10</title>
<g id="a_node10"><a xlink:href="classitk_1_1simple_1_1detail_1_1MemberFunctionFactoryBase.html" target="_top" xlink:title=" ">
<polygon fill="white" stroke="black" points="344,-82.5 344,-145.5 508,-145.5 508,-82.5 344,-82.5"/>
<text text-anchor="start" x="352" y="-133.5" font-family="Helvetica,sans-Serif" font-size="10.00">itk::simple::detail</text>
<text text-anchor="start" x="352" y="-122.5" font-family="Helvetica,sans-Serif" font-size="10.00">::MemberFunctionFactoryBase</text>
<text text-anchor="start" x="352" y="-111.5" font-family="Helvetica,sans-Serif" font-size="10.00">&lt; MemberFunctionType, std</text>
<text text-anchor="start" x="352" y="-100.5" font-family="Helvetica,sans-Serif" font-size="10.00">::tuple&lt; unsigned int, int,</text>
<text text-anchor="middle" x="426" y="-89.5" font-family="Helvetica,sans-Serif" font-size="10.00"> unsigned int, int &gt; &gt;</text>
</a>
</g>
</g>
<!-- Node1&#45;&gt;Node10 -->
<g id="edge11" class="edge">
<title>Node1&#45;&gt;Node10</title>
<path fill="none" stroke="orange" stroke-dasharray="5,2" d="M94.95,-218.94C110.57,-190.46 140.87,-144.33 182,-124 231.78,-99.4 294.53,-97.43 343.8,-101.34"/>
<polygon fill="orange" stroke="orange" points="91.81,-217.39 90.22,-227.86 98,-220.67 91.81,-217.39"/>
<text text-anchor="start" x="191" y="-160" font-family="Helvetica,sans-Serif" font-size="10.00"> &lt; MemberFunctionType,</text>
<text text-anchor="start" x="191" y="-149" font-family="Helvetica,sans-Serif" font-size="10.00"> std::tuple&lt; unsigned</text>
<text text-anchor="start" x="191" y="-138" font-family="Helvetica,sans-Serif" font-size="10.00"> int, int, unsigned int,</text>
<text text-anchor="middle" x="252" y="-127" font-family="Helvetica,sans-Serif" font-size="10.00"> int &gt; &gt;</text>
</g>
<!-- Node12 -->
<g id="node12" class="node">
<title>Node12</title>
<g id="a_node12"><a xlink:href="classitk_1_1simple_1_1detail_1_1MemberFunctionFactoryBase.html" target="_top" xlink:title=" ">
<polygon fill="white" stroke="black" points="726,-141 726,-193 890,-193 890,-141 726,-141"/>
<text text-anchor="start" x="734" y="-181" font-family="Helvetica,sans-Serif" font-size="10.00">itk::simple::detail</text>
<text text-anchor="start" x="734" y="-170" font-family="Helvetica,sans-Serif" font-size="10.00">::MemberFunctionFactoryBase</text>
<text text-anchor="start" x="734" y="-159" font-family="Helvetica,sans-Serif" font-size="10.00">&lt; MemberFunctionType, std</text>
<text text-anchor="middle" x="808" y="-148" font-family="Helvetica,sans-Serif" font-size="10.00">::pair&lt; unsigned int, int &gt; &gt;</text>
</a>
</g>
</g>
<!-- Node1&#45;&gt;Node12 -->
<g id="edge13" class="edge">
<title>Node1&#45;&gt;Node12</title>
<path fill="none" stroke="orange" stroke-dasharray="5,2" d="M152.8,-225.57C204.21,-213.47 276.02,-198.12 340,-190 474.48,-172.93 632.24,-168.34 725.68,-167.22"/>
<polygon fill="orange" stroke="orange" points="151.72,-222.22 142.8,-227.94 153.33,-229.04 151.72,-222.22"/>
<text text-anchor="start" x="365" y="-215" font-family="Helvetica,sans-Serif" font-size="10.00"> &lt; MemberFunctionType,</text>
<text text-anchor="start" x="365" y="-204" font-family="Helvetica,sans-Serif" font-size="10.00"> std::pair&lt; unsigned</text>
<text text-anchor="middle" x="426" y="-193" font-family="Helvetica,sans-Serif" font-size="10.00"> int, int &gt; &gt;</text>
</g>
<!-- Node13 -->
<g id="node13" class="node">
<title>Node13</title>
<g id="a_node13"><a xlink:href="classitk_1_1simple_1_1detail_1_1MemberFunctionFactoryBase.html" target="_top" xlink:title=" ">
<polygon fill="white" stroke="black" points="344,-0.5 344,-63.5 508,-63.5 508,-0.5 344,-0.5"/>
<text text-anchor="start" x="352" y="-51.5" font-family="Helvetica,sans-Serif" font-size="10.00">itk::simple::detail</text>
<text text-anchor="start" x="352" y="-40.5" font-family="Helvetica,sans-Serif" font-size="10.00">::MemberFunctionFactoryBase</text>
<text text-anchor="start" x="352" y="-29.5" font-family="Helvetica,sans-Serif" font-size="10.00">&lt; TMemberFunctionPointer,</text>
<text text-anchor="start" x="352" y="-18.5" font-family="Helvetica,sans-Serif" font-size="10.00"> std::tuple&lt; unsigned int,</text>
<text text-anchor="middle" x="426" y="-7.5" font-family="Helvetica,sans-Serif" font-size="10.00"> int, unsigned int, int &gt; &gt;</text>
</a>
</g>
</g>
<!-- Node1&#45;&gt;Node13 -->
<g id="edge15" class="edge">
<title>Node1&#45;&gt;Node13</title>
<path fill="none" stroke="orange" stroke-dasharray="5,2" d="M88.82,-218.12C99.63,-177.92 126.92,-99.4 182,-62 229.03,-30.06 293.25,-23.31 343.86,-24.14"/>
<polygon fill="orange" stroke="orange" points="85.4,-217.37 86.3,-227.93 92.18,-219.11 85.4,-217.37"/>
<text text-anchor="start" x="182" y="-87" font-family="Helvetica,sans-Serif" font-size="10.00"> &lt; TMemberFunctionPointer,</text>
<text text-anchor="start" x="182" y="-76" font-family="Helvetica,sans-Serif" font-size="10.00"> std::tuple&lt; unsigned int,</text>
<text text-anchor="middle" x="252" y="-65" font-family="Helvetica,sans-Serif" font-size="10.00"> int, unsigned int, int &gt; &gt;</text>
</g>
<!-- Node15 -->
<g id="node15" class="node">
<title>Node15</title>
<g id="a_node15"><a xlink:href="classitk_1_1simple_1_1detail_1_1MemberFunctionFactoryBase.html" target="_top" xlink:title=" ">
<polygon fill="white" stroke="black" points="537,-336 537,-388 701,-388 701,-336 537,-336"/>
<text text-anchor="start" x="545" y="-376" font-family="Helvetica,sans-Serif" font-size="10.00">itk::simple::detail</text>
<text text-anchor="start" x="545" y="-365" font-family="Helvetica,sans-Serif" font-size="10.00">::MemberFunctionFactoryBase</text>
<text text-anchor="start" x="545" y="-354" font-family="Helvetica,sans-Serif" font-size="10.00">&lt; MemberFunction1Type, std</text>
<text text-anchor="middle" x="619" y="-343" font-family="Helvetica,sans-Serif" font-size="10.00">::pair&lt; unsigned int, int &gt; &gt;</text>
</a>
</g>
</g>
<!-- Node1&#45;&gt;Node15 -->
<g id="edge18" class="edge">
<title>Node1&#45;&gt;Node15</title>
<path fill="none" stroke="orange" stroke-dasharray="5,2" d="M100.99,-265.96C118.98,-287 148.7,-316.97 182,-331 243.89,-357.08 428.62,-361.92 536.75,-362.42"/>
<polygon fill="orange" stroke="orange" points="103.55,-263.56 94.47,-258.1 98.16,-268.03 103.55,-263.56"/>
<text text-anchor="start" x="188" y="-379" font-family="Helvetica,sans-Serif" font-size="10.00"> &lt; MemberFunction1Type,</text>
<text text-anchor="start" x="188" y="-368" font-family="Helvetica,sans-Serif" font-size="10.00"> std::pair&lt; unsigned</text>
<text text-anchor="middle" x="252" y="-357" font-family="Helvetica,sans-Serif" font-size="10.00"> int, int &gt; &gt;</text>
</g>
<!-- Node3 -->
<g id="node3" class="node">
<title>Node3</title>
<g id="a_node3"><a xlink:href="classitk_1_1simple_1_1detail_1_1MemberFunctionFactory.html" target="_top" xlink:title="A class used to instantiate and generate function object to templated member functions.">
<polygon fill="white" stroke="black" points="727.5,-278.5 727.5,-319.5 888.5,-319.5 888.5,-278.5 727.5,-278.5"/>
<text text-anchor="start" x="735.5" y="-307.5" font-family="Helvetica,sans-Serif" font-size="10.00">itk::simple::detail</text>
<text text-anchor="start" x="735.5" y="-296.5" font-family="Helvetica,sans-Serif" font-size="10.00">::MemberFunctionFactory</text>
<text text-anchor="middle" x="808" y="-285.5" font-family="Helvetica,sans-Serif" font-size="10.00">&lt; TMemberFunctionPointer &gt;</text>
</a>
</g>
</g>
<!-- Node2&#45;&gt;Node3 -->
<g id="edge2" class="edge">
<title>Node2&#45;&gt;Node3</title>
<path fill="none" stroke="darkgreen" d="M522.64,-299C585.79,-299 667.56,-299 727.2,-299"/>
<polygon fill="darkgreen" stroke="darkgreen" points="522.28,-295.5 512.28,-299 522.28,-302.5 522.28,-295.5"/>
</g>
<!-- Node4 -->
<g id="node4" class="node">
<title>Node4</title>
<g id="a_node4"><a xlink:href="classitk_1_1simple_1_1detail_1_1MemberFunctionFactory.html" target="_top" xlink:title=" ">
<polygon fill="white" stroke="black" points="1083.5,-246.5 1083.5,-287.5 1232.5,-287.5 1232.5,-246.5 1083.5,-246.5"/>
<text text-anchor="start" x="1091.5" y="-275.5" font-family="Helvetica,sans-Serif" font-size="10.00">itk::simple::detail</text>
<text text-anchor="start" x="1091.5" y="-264.5" font-family="Helvetica,sans-Serif" font-size="10.00">::MemberFunctionFactory</text>
<text text-anchor="middle" x="1158" y="-253.5" font-family="Helvetica,sans-Serif" font-size="10.00">&lt; MemberFunction2Type &gt;</text>
</a>
</g>
</g>
<!-- Node3&#45;&gt;Node4 -->
<g id="edge3" class="edge">
<title>Node3&#45;&gt;Node4</title>
<path fill="none" stroke="orange" stroke-dasharray="5,2" d="M898.98,-290.73C956.31,-285.45 1029.65,-278.71 1083.47,-273.76"/>
<polygon fill="orange" stroke="orange" points="898.48,-287.26 888.84,-291.66 899.12,-294.23 898.48,-287.26"/>
<text text-anchor="middle" x="977.5" y="-292" font-family="Helvetica,sans-Serif" font-size="10.00"> &lt; MemberFunction2Type &gt;</text>
</g>
<!-- Node5 -->
<g id="node5" class="node">
<title>Node5</title>
<g id="a_node5"><a xlink:href="classitk_1_1simple_1_1detail_1_1MemberFunctionFactory.html" target="_top" xlink:title=" ">
<polygon fill="white" stroke="black" points="1083.5,-314.5 1083.5,-355.5 1232.5,-355.5 1232.5,-314.5 1083.5,-314.5"/>
<text text-anchor="start" x="1091.5" y="-343.5" font-family="Helvetica,sans-Serif" font-size="10.00">itk::simple::detail</text>
<text text-anchor="start" x="1091.5" y="-332.5" font-family="Helvetica,sans-Serif" font-size="10.00">::MemberFunctionFactory</text>
<text text-anchor="middle" x="1158" y="-321.5" font-family="Helvetica,sans-Serif" font-size="10.00">&lt; MemberFunction1Type &gt;</text>
</a>
</g>
</g>
<!-- Node3&#45;&gt;Node5 -->
<g id="edge4" class="edge">
<title>Node3&#45;&gt;Node5</title>
<path fill="none" stroke="orange" stroke-dasharray="5,2" d="M898.98,-308.31C956.31,-314.24 1029.65,-321.83 1083.47,-327.39"/>
<polygon fill="orange" stroke="orange" points="899.15,-304.81 888.84,-307.26 898.42,-311.77 899.15,-304.81"/>
<text text-anchor="middle" x="977.5" y="-326" font-family="Helvetica,sans-Serif" font-size="10.00"> &lt; MemberFunction1Type &gt;</text>
</g>
<!-- Node6 -->
<g id="node6" class="node">
<title>Node6</title>
<g id="a_node6"><a xlink:href="classitk_1_1simple_1_1detail_1_1MemberFunctionFactory.html" target="_top" xlink:title=" ">
<polygon fill="white" stroke="black" points="1065,-398.5 1065,-439.5 1251,-439.5 1251,-398.5 1065,-398.5"/>
<text text-anchor="start" x="1073" y="-427.5" font-family="Helvetica,sans-Serif" font-size="10.00">itk::simple::detail</text>
<text text-anchor="start" x="1073" y="-416.5" font-family="Helvetica,sans-Serif" font-size="10.00">::MemberFunctionFactory</text>
<text text-anchor="middle" x="1158" y="-405.5" font-family="Helvetica,sans-Serif" font-size="10.00">&lt; EvaluateMemberFunctionType &gt;</text>
</a>
</g>
</g>
<!-- Node3&#45;&gt;Node6 -->
<g id="edge5" class="edge">
<title>Node3&#45;&gt;Node6</title>
<path fill="none" stroke="orange" stroke-dasharray="5,2" d="M874.4,-323.03C885.6,-327.07 897.12,-331.19 908,-335 971.4,-357.22 1044.25,-381.67 1094.7,-398.43"/>
<polygon fill="orange" stroke="orange" points="875.27,-319.62 864.68,-319.51 872.89,-326.2 875.27,-319.62"/>
<text text-anchor="start" x="908" y="-395" font-family="Helvetica,sans-Serif" font-size="10.00"> &lt; EvaluateMemberFunction</text>
<text text-anchor="middle" x="977.5" y="-384" font-family="Helvetica,sans-Serif" font-size="10.00">Type &gt;</text>
</g>
<!-- Node7 -->
<g id="node7" class="node">
<title>Node7</title>
<g id="a_node7"><a xlink:href="classitk_1_1simple_1_1detail_1_1MemberFunctionFactory.html" target="_top" xlink:title=" ">
<polygon fill="white" stroke="black" points="1086.5,-171.5 1086.5,-212.5 1229.5,-212.5 1229.5,-171.5 1086.5,-171.5"/>
<text text-anchor="start" x="1094.5" y="-200.5" font-family="Helvetica,sans-Serif" font-size="10.00">itk::simple::detail</text>
<text text-anchor="start" x="1094.5" y="-189.5" font-family="Helvetica,sans-Serif" font-size="10.00">::MemberFunctionFactory</text>
<text text-anchor="middle" x="1158" y="-178.5" font-family="Helvetica,sans-Serif" font-size="10.00">&lt; MemberFunctionType &gt;</text>
</a>
</g>
</g>
<!-- Node3&#45;&gt;Node7 -->
<g id="edge6" class="edge">
<title>Node3&#45;&gt;Node7</title>
<path fill="none" stroke="orange" stroke-dasharray="5,2" d="M871.01,-274.92C883.21,-270.44 895.96,-265.94 908,-262 967.65,-242.51 1036.38,-223.44 1086.5,-210.14"/>
<polygon fill="orange" stroke="orange" points="869.53,-271.73 861.37,-278.49 871.97,-278.3 869.53,-271.73"/>
<text text-anchor="middle" x="977.5" y="-265" font-family="Helvetica,sans-Serif" font-size="10.00"> &lt; MemberFunctionType &gt;</text>
</g>
<!-- Node8&#45;&gt;Node4 -->
<g id="edge8" class="edge">
<title>Node8&#45;&gt;Node4</title>
<path fill="none" stroke="darkgreen" d="M711.29,-220.1C798.14,-217.91 932.23,-218.49 1047,-236 1062.5,-238.36 1078.9,-242.22 1094.18,-246.42"/>
<polygon fill="darkgreen" stroke="darkgreen" points="711.1,-216.6 701.2,-220.37 711.29,-223.6 711.1,-216.6"/>
</g>
<!-- Node9&#45;&gt;Node6 -->
<g id="edge10" class="edge">
<title>Node9&#45;&gt;Node6</title>
<path fill="none" stroke="darkgreen" d="M718.36,-427.99C817.18,-425.96 968.27,-422.87 1064.83,-420.89"/>
<polygon fill="darkgreen" stroke="darkgreen" points="718,-424.49 708.07,-428.2 718.14,-431.49 718,-424.49"/>
</g>
<!-- Node11 -->
<g id="node11" class="node">
<title>Node11</title>
<g id="a_node11"><a xlink:href="classitk_1_1simple_1_1detail_1_1DualMemberFunctionFactory.html" target="_top" xlink:title=" ">
<polygon fill="white" stroke="black" points="1077,-69.5 1077,-110.5 1239,-110.5 1239,-69.5 1077,-69.5"/>
<text text-anchor="start" x="1085" y="-98.5" font-family="Helvetica,sans-Serif" font-size="10.00">itk::simple::detail</text>
<text text-anchor="start" x="1085" y="-87.5" font-family="Helvetica,sans-Serif" font-size="10.00">::DualMemberFunctionFactory</text>
<text text-anchor="middle" x="1158" y="-76.5" font-family="Helvetica,sans-Serif" font-size="10.00">&lt; MemberFunctionType &gt;</text>
</a>
</g>
</g>
<!-- Node10&#45;&gt;Node11 -->
<g id="edge12" class="edge">
<title>Node10&#45;&gt;Node11</title>
<path fill="none" stroke="darkgreen" d="M518.41,-110.99C662.52,-106.26 940.19,-97.13 1076.93,-92.63"/>
<polygon fill="darkgreen" stroke="darkgreen" points="518.14,-107.5 508.26,-111.33 518.37,-114.5 518.14,-107.5"/>
</g>
<!-- Node12&#45;&gt;Node7 -->
<g id="edge14" class="edge">
<title>Node12&#45;&gt;Node7</title>
<path fill="none" stroke="darkgreen" d="M900.44,-173.57C958.58,-177.75 1032.72,-183.07 1086.33,-186.92"/>
<polygon fill="darkgreen" stroke="darkgreen" points="900.38,-170.06 890.15,-172.83 899.87,-177.04 900.38,-170.06"/>
</g>
<!-- Node14 -->
<g id="node14" class="node">
<title>Node14</title>
<g id="a_node14"><a xlink:href="classitk_1_1simple_1_1detail_1_1DualMemberFunctionFactory.html" target="_top" xlink:title="A class used to instantiate and generate function objects of templated member functions with two temp...">
<polygon fill="white" stroke="black" points="727,-30.5 727,-71.5 889,-71.5 889,-30.5 727,-30.5"/>
<text text-anchor="start" x="735" y="-59.5" font-family="Helvetica,sans-Serif" font-size="10.00">itk::simple::detail</text>
<text text-anchor="start" x="735" y="-48.5" font-family="Helvetica,sans-Serif" font-size="10.00">::DualMemberFunctionFactory</text>
<text text-anchor="middle" x="808" y="-37.5" font-family="Helvetica,sans-Serif" font-size="10.00">&lt; TMemberFunctionPointer &gt;</text>
</a>
</g>
</g>
<!-- Node13&#45;&gt;Node14 -->
<g id="edge16" class="edge">
<title>Node13&#45;&gt;Node14</title>
<path fill="none" stroke="darkgreen" d="M518.07,-36.55C581.63,-39.73 665.67,-43.93 726.72,-46.99"/>
<polygon fill="darkgreen" stroke="darkgreen" points="518.22,-33.06 508.05,-36.05 517.87,-40.05 518.22,-33.06"/>
</g>
<!-- Node14&#45;&gt;Node11 -->
<g id="edge17" class="edge">
<title>Node14&#45;&gt;Node11</title>
<path fill="none" stroke="orange" stroke-dasharray="5,2" d="M899.36,-61.13C954.3,-67.28 1023.84,-75.08 1076.83,-81.02"/>
<polygon fill="orange" stroke="orange" points="899.6,-57.63 889.28,-60 898.82,-64.59 899.6,-57.63"/>
<text text-anchor="middle" x="977.5" y="-80" font-family="Helvetica,sans-Serif" font-size="10.00"> &lt; MemberFunctionType &gt;</text>
</g>
<!-- Node15&#45;&gt;Node5 -->
<g id="edge19" class="edge">
<title>Node15&#45;&gt;Node5</title>
<path fill="none" stroke="darkgreen" d="M711.25,-378.13C798.35,-390.65 932.85,-402.45 1047,-380 1071.29,-375.22 1096.98,-365.04 1117.42,-355.56"/>
<polygon fill="darkgreen" stroke="darkgreen" points="711.53,-374.63 701.13,-376.64 710.51,-381.56 711.53,-374.63"/>
</g>
</g>
</svg>
