<?xml version="1.0" encoding="UTF-8" standalone="no"?>
<!DOCTYPE svg PUBLIC "-//W3C//DTD SVG 1.1//EN"
 "http://www.w3.org/Graphics/SVG/1.1/DTD/svg11.dtd">
<!-- Generated by graphviz version 2.43.0 (0)
 -->
<!-- Title: itk::simple::SITK_FINAL Pages: 1 -->
<!--zoomable 221 -->
<svg id="main" version="1.1" xmlns="http://www.w3.org/2000/svg" xmlns:xlink="http://www.w3.org/1999/xlink" xml:space="preserve" onload="init(evt)">
<style type="text/css"><![CDATA[
.edge:hover path { stroke: red; }
.edge:hover polygon { stroke: red; fill: red; }
]]></style>
<script type="text/javascript"><![CDATA[
var edges = document.getElementsByTagName('g');
if (edges && edges.length) {
  for (var i=0;i<edges.length;i++) {
    if (edges[i].id.substr(0,4)=='edge') {
      edges[i].setAttribute('class','edge');
    }
  }
}
]]></script>
        <defs>
                <circle id="rim" cx="0" cy="0" r="7"/>
                <circle id="rim2" cx="0" cy="0" r="3.5"/>
                <g id="zoomPlus">
                        <use xlink:href="#rim" fill="#404040">
                                <set attributeName="fill" to="#808080" begin="zoomplus.mouseover" end="zoomplus.mouseout"/>
                        </use>
                        <path d="M-4,0h8M0,-4v8" fill="none" stroke="white" stroke-width="1.5" pointer-events="none"/>
                </g>
                <g id="zoomMin">
                        <use xlink:href="#rim" fill="#404040">
                                <set attributeName="fill" to="#808080" begin="zoomminus.mouseover" end="zoomminus.mouseout"/>
                        </use>
                        <path d="M-4,0h8" fill="none" stroke="white" stroke-width="1.5" pointer-events="none"/>
                </g>
                <g id="dirArrow">
                        <path fill="none" stroke="white" stroke-width="1.5" d="M0,-3.0v7 M-2.5,-0.5L0,-3.0L2.5,-0.5"/>
                </g>
               <g id="resetDef">
                       <use xlink:href="#rim2" fill="#404040">
                               <set attributeName="fill" to="#808080" begin="reset.mouseover" end="reset.mouseout"/>
                       </use>
               </g>
        </defs>

<script type="text/javascript">
var viewWidth = 2095;
var viewHeight = 221;
var sectionId = 'dynsection-1';
</script>
<script xlink:href="svgpan.js"/>
<svg id="graph" class="graph">
<g id="viewport">
<title>itk::simple::SITK_FINAL</title>
<polygon fill="white" stroke="transparent" points="-4,4 -4,-217 2091,-217 2091,4 -4,4"/>
<!-- Node1 -->
<g id="node1" class="node">
<title>Node1</title>
<g id="a_node1"><a xlink:title=" ">
<polygon fill="#bfbfbf" stroke="black" points="1957,-81.5 1957,-100.5 2087,-100.5 2087,-81.5 1957,-81.5"/>
<text text-anchor="middle" x="2022" y="-88.5" font-family="Helvetica,sans-Serif" font-size="10.00">itk::simple::SITK_FINAL</text>
</a>
</g>
</g>
<!-- Node2 -->
<g id="node2" class="node">
<title>Node2</title>
<g id="a_node2"><a xlink:href="classitk_1_1simple_1_1LoggerBase.html" target="_top" xlink:title="A base class to handle SimpleITK and ITK messages and logging.">
<polygon fill="white" stroke="black" points="1789,-107.5 1789,-126.5 1920,-126.5 1920,-107.5 1789,-107.5"/>
<text text-anchor="middle" x="1854.5" y="-114.5" font-family="Helvetica,sans-Serif" font-size="10.00">itk::simple::LoggerBase</text>
</a>
</g>
</g>
<!-- Node2&#45;&gt;Node1 -->
<g id="edge1" class="edge">
<title>Node2&#45;&gt;Node1</title>
<path fill="none" stroke="midnightblue" d="M1926.09,-105.91C1937.48,-104.12 1949.19,-102.28 1960.32,-100.53"/>
<polygon fill="midnightblue" stroke="midnightblue" points="1925.52,-102.46 1916.19,-107.47 1926.61,-109.37 1925.52,-102.46"/>
</g>
<!-- Node3 -->
<g id="node3" class="node">
<title>Node3</title>
<g id="a_node3"><a xlink:href="classitk_1_1simple_1_1ObjectOwnedBase.html" target="_top" xlink:title="An abstract base class to connect this object with the lifetime of another.">
<polygon fill="white" stroke="black" points="1498,-112.5 1498,-131.5 1662,-131.5 1662,-112.5 1498,-112.5"/>
<text text-anchor="middle" x="1580" y="-119.5" font-family="Helvetica,sans-Serif" font-size="10.00">itk::simple::ObjectOwnedBase</text>
</a>
</g>
</g>
<!-- Node3&#45;&gt;Node2 -->
<g id="edge2" class="edge">
<title>Node3&#45;&gt;Node2</title>
<path fill="none" stroke="midnightblue" d="M1672.13,-120.33C1710.35,-119.63 1753.92,-118.83 1788.77,-118.19"/>
<polygon fill="midnightblue" stroke="midnightblue" points="1671.96,-116.83 1662.02,-120.51 1672.08,-123.83 1671.96,-116.83"/>
</g>
<!-- Node4 -->
<g id="node4" class="node">
<title>Node4</title>
<g id="a_node4"><a xlink:href="classitk_1_1simple_1_1NonCopyable.html" target="_top" xlink:title="An inheritable class to disable copying of a class.">
<polygon fill="white" stroke="black" points="1164,-177.5 1164,-196.5 1304,-196.5 1304,-177.5 1164,-177.5"/>
<text text-anchor="middle" x="1234" y="-184.5" font-family="Helvetica,sans-Serif" font-size="10.00">itk::simple::NonCopyable</text>
</a>
</g>
</g>
<!-- Node4&#45;&gt;Node3 -->
<g id="edge3" class="edge">
<title>Node4&#45;&gt;Node3</title>
<path fill="none" stroke="midnightblue" d="M1314.16,-185.15C1362.64,-182.57 1425.62,-176.61 1480,-163 1509.24,-155.69 1541.11,-141.21 1560.58,-131.57"/>
<polygon fill="midnightblue" stroke="midnightblue" points="1313.85,-181.66 1304.04,-185.65 1314.2,-188.65 1313.85,-181.66"/>
</g>
<!-- Node5 -->
<g id="node5" class="node">
<title>Node5</title>
<g id="a_node5"><a xlink:title=" ">
<polygon fill="white" stroke="#bfbfbf" points="1169.5,-79.5 1169.5,-120.5 1298.5,-120.5 1298.5,-79.5 1169.5,-79.5"/>
<text text-anchor="start" x="1177.5" y="-108.5" font-family="Helvetica,sans-Serif" font-size="10.00">std::multimap&lt; itk</text>
<text text-anchor="start" x="1177.5" y="-97.5" font-family="Helvetica,sans-Serif" font-size="10.00">::Object *, std::function</text>
<text text-anchor="middle" x="1234" y="-86.5" font-family="Helvetica,sans-Serif" font-size="10.00">&lt; void()&gt; &gt;</text>
</a>
</g>
</g>
<!-- Node5&#45;&gt;Node3 -->
<g id="edge4" class="edge">
<title>Node5&#45;&gt;Node3</title>
<path fill="none" stroke="#9a32cd" stroke-dasharray="5,2" d="M1309.03,-104.73C1364.59,-108.29 1440.62,-113.15 1497.84,-116.81"/>
<polygon fill="#9a32cd" stroke="#9a32cd" points="1309.1,-101.23 1298.9,-104.09 1308.65,-108.22 1309.1,-101.23"/>
<text text-anchor="middle" x="1401" y="-119" font-family="Helvetica,sans-Serif" font-size="10.00"> m_ReferencedObjectsCallbacks</text>
</g>
<!-- Node6 -->
<g id="node6" class="node">
<title>Node6</title>
<g id="a_node6"><a xlink:href="https://www.itk.org/Doxygen/html/classitk_1_1Object.html" xlink:title=" ">
<polygon fill="white" stroke="black" points="1013,-62.5 1013,-81.5 1080,-81.5 1080,-62.5 1013,-62.5"/>
<text text-anchor="middle" x="1046.5" y="-69.5" font-family="Helvetica,sans-Serif" font-size="10.00">itk::Object</text>
</a>
</g>
</g>
<!-- Node6&#45;&gt;Node5 -->
<g id="edge5" class="edge">
<title>Node6&#45;&gt;Node5</title>
<path fill="none" stroke="#9a32cd" stroke-dasharray="5,2" d="M1090.23,-78.45C1113.72,-82 1143.32,-86.46 1169.46,-90.41"/>
<polygon fill="#9a32cd" stroke="#9a32cd" points="1090.65,-74.97 1080.24,-76.94 1089.6,-81.89 1090.65,-74.97"/>
<text text-anchor="middle" x="1122" y="-90" font-family="Helvetica,sans-Serif" font-size="10.00"> keys</text>
</g>
<!-- Node20 -->
<g id="node20" class="node">
<title>Node20</title>
<g id="a_node20"><a xlink:href="https://www.itk.org/Doxygen/html/classitk_1_1OutputWindow.html" xlink:title=" ">
<polygon fill="white" stroke="black" points="1347.5,-59.5 1347.5,-78.5 1454.5,-78.5 1454.5,-59.5 1347.5,-59.5"/>
<text text-anchor="middle" x="1401" y="-66.5" font-family="Helvetica,sans-Serif" font-size="10.00">itk::OutputWindow</text>
</a>
</g>
</g>
<!-- Node6&#45;&gt;Node20 -->
<g id="edge26" class="edge">
<title>Node6&#45;&gt;Node20</title>
<path fill="none" stroke="midnightblue" d="M1090.18,-71.14C1112.22,-70.72 1139.55,-70.26 1164,-70 1226.89,-69.33 1299.21,-69.1 1347.04,-69.03"/>
<polygon fill="midnightblue" stroke="midnightblue" points="1090.07,-67.64 1080.14,-71.33 1090.2,-74.64 1090.07,-67.64"/>
</g>
<!-- Node7 -->
<g id="node7" class="node">
<title>Node7</title>
<g id="a_node7"><a xlink:href="https://www.itk.org/Doxygen/html/classitk_1_1LightObject.html" xlink:title=" ">
<polygon fill="white" stroke="black" points="747.5,-0.5 747.5,-19.5 838.5,-19.5 838.5,-0.5 747.5,-0.5"/>
<text text-anchor="middle" x="793" y="-7.5" font-family="Helvetica,sans-Serif" font-size="10.00">itk::LightObject</text>
</a>
</g>
</g>
<!-- Node7&#45;&gt;Node6 -->
<g id="edge6" class="edge">
<title>Node7&#45;&gt;Node6</title>
<path fill="none" stroke="midnightblue" d="M848.84,-13.13C890.05,-16.81 947.36,-24.78 995,-42 1008.62,-46.92 1022.67,-55.62 1032.48,-62.38"/>
<polygon fill="midnightblue" stroke="midnightblue" points="848.98,-9.63 838.72,-12.28 848.39,-16.61 848.98,-9.63"/>
</g>
<!-- Node8 -->
<g id="node8" class="node">
<title>Node8</title>
<g id="a_node8"><a xlink:title=" ">
<polygon fill="white" stroke="#bfbfbf" points="465,-2.5 465,-21.5 572,-21.5 572,-2.5 465,-2.5"/>
<text text-anchor="middle" x="518.5" y="-9.5" font-family="Helvetica,sans-Serif" font-size="10.00">std::atomic&lt; int &gt;</text>
</a>
</g>
</g>
<!-- Node8&#45;&gt;Node7 -->
<g id="edge7" class="edge">
<title>Node8&#45;&gt;Node7</title>
<path fill="none" stroke="#9a32cd" stroke-dasharray="5,2" d="M582.18,-11.54C632.64,-11.17 702.33,-10.66 747.29,-10.33"/>
<polygon fill="#9a32cd" stroke="#9a32cd" points="582.01,-8.04 572.04,-11.61 582.07,-15.04 582.01,-8.04"/>
<text text-anchor="middle" x="659.5" y="-15" font-family="Helvetica,sans-Serif" font-size="10.00"> m_ReferenceCount</text>
</g>
<!-- Node9 -->
<g id="node9" class="node">
<title>Node9</title>
<g id="a_node9"><a xlink:title="STL class.">
<polygon fill="white" stroke="#bfbfbf" points="127,-37.5 127,-56.5 227,-56.5 227,-37.5 127,-37.5"/>
<text text-anchor="middle" x="177" y="-44.5" font-family="Helvetica,sans-Serif" font-size="10.00">std::atomic&lt; T &gt;</text>
</a>
</g>
</g>
<!-- Node9&#45;&gt;Node8 -->
<g id="edge8" class="edge">
<title>Node9&#45;&gt;Node8</title>
<path fill="none" stroke="orange" stroke-dasharray="5,2" d="M207.03,-33.39C221.92,-27.12 240.55,-20.34 258,-17 328.59,-3.5 411.95,-4.88 464.77,-7.84"/>
<polygon fill="orange" stroke="orange" points="205.61,-30.19 197.84,-37.4 208.4,-36.61 205.61,-30.19"/>
<text text-anchor="middle" x="342" y="-20" font-family="Helvetica,sans-Serif" font-size="10.00"> &lt; int &gt;</text>
</g>
<!-- Node18 -->
<g id="node18" class="node">
<title>Node18</title>
<g id="a_node18"><a xlink:href="https://www.itk.org/Doxygen/html/classitk_1_1TimeStamp.html" xlink:title=" ">
<polygon fill="white" stroke="black" points="613.5,-43.5 613.5,-62.5 705.5,-62.5 705.5,-43.5 613.5,-43.5"/>
<text text-anchor="middle" x="659.5" y="-50.5" font-family="Helvetica,sans-Serif" font-size="10.00">itk::TimeStamp</text>
</a>
</g>
</g>
<!-- Node9&#45;&gt;Node18 -->
<g id="edge20" class="edge">
<title>Node9&#45;&gt;Node18</title>
<path fill="none" stroke="#9a32cd" stroke-dasharray="5,2" d="M237.42,-47.74C334.77,-48.96 526.1,-51.35 613.28,-52.44"/>
<polygon fill="#9a32cd" stroke="#9a32cd" points="237.21,-44.24 227.16,-47.61 237.12,-51.24 237.21,-44.24"/>
<text text-anchor="middle" x="342" y="-53" font-family="Helvetica,sans-Serif" font-size="10.00"> m_GlobalTimeStamp</text>
</g>
<!-- Node10 -->
<g id="node10" class="node">
<title>Node10</title>
<g id="a_node10"><a xlink:title=" ">
<polygon fill="white" stroke="#bfbfbf" points="0,-91.5 0,-110.5 29,-110.5 29,-91.5 0,-91.5"/>
<text text-anchor="middle" x="14.5" y="-98.5" font-family="Helvetica,sans-Serif" font-size="10.00">T</text>
</a>
</g>
</g>
<!-- Node10&#45;&gt;Node9 -->
<g id="edge9" class="edge">
<title>Node10&#45;&gt;Node9</title>
<path fill="none" stroke="#9a32cd" stroke-dasharray="5,2" d="M26.96,-83.14C32.23,-76.37 39.09,-69.27 47,-65 71.27,-51.89 101.71,-47.18 126.92,-45.85"/>
<polygon fill="#9a32cd" stroke="#9a32cd" points="24.1,-81.13 21.16,-91.3 29.8,-85.18 24.1,-81.13"/>
<text text-anchor="middle" x="71.5" y="-68" font-family="Helvetica,sans-Serif" font-size="10.00"> ptr</text>
</g>
<!-- Node15 -->
<g id="node15" class="node">
<title>Node15</title>
<g id="a_node15"><a xlink:title="STL class.">
<polygon fill="white" stroke="#bfbfbf" points="126.5,-113.5 126.5,-132.5 227.5,-132.5 227.5,-113.5 126.5,-113.5"/>
<text text-anchor="middle" x="177" y="-120.5" font-family="Helvetica,sans-Serif" font-size="10.00">std::map&lt; K, T &gt;</text>
</a>
</g>
</g>
<!-- Node10&#45;&gt;Node15 -->
<g id="edge16" class="edge">
<title>Node10&#45;&gt;Node15</title>
<path fill="none" stroke="#9a32cd" stroke-dasharray="5,2" d="M39.33,-104.27C62.17,-107.4 97.37,-112.22 126.32,-116.19"/>
<polygon fill="#9a32cd" stroke="#9a32cd" points="39.57,-100.77 29.18,-102.88 38.62,-107.7 39.57,-100.77"/>
<text text-anchor="middle" x="71.5" y="-115" font-family="Helvetica,sans-Serif" font-size="10.00"> elements</text>
</g>
<!-- Node17 -->
<g id="node17" class="node">
<title>Node17</title>
<g id="a_node17"><a xlink:title="STL class.">
<polygon fill="white" stroke="#bfbfbf" points="118,-75.5 118,-94.5 236,-94.5 236,-75.5 118,-75.5"/>
<text text-anchor="middle" x="177" y="-82.5" font-family="Helvetica,sans-Serif" font-size="10.00">std::shared_ptr&lt; T &gt;</text>
</a>
</g>
</g>
<!-- Node10&#45;&gt;Node17 -->
<g id="edge18" class="edge">
<title>Node10&#45;&gt;Node17</title>
<path fill="none" stroke="#9a32cd" stroke-dasharray="5,2" d="M38.29,-87.89C41.15,-86.71 44.09,-85.7 47,-85 69.76,-79.55 95.43,-78.55 117.85,-79.27"/>
<polygon fill="#9a32cd" stroke="#9a32cd" points="36.55,-84.84 29.07,-92.35 39.59,-91.15 36.55,-84.84"/>
<text text-anchor="middle" x="71.5" y="-88" font-family="Helvetica,sans-Serif" font-size="10.00"> ptr</text>
</g>
<!-- Node19 -->
<g id="node19" class="node">
<title>Node19</title>
<g id="a_node19"><a xlink:title="STL class.">
<polygon fill="white" stroke="#bfbfbf" points="114,-177.5 114,-196.5 240,-196.5 240,-177.5 114,-177.5"/>
<text text-anchor="middle" x="177" y="-184.5" font-family="Helvetica,sans-Serif" font-size="10.00">std::multimap&lt; K, T &gt;</text>
</a>
</g>
</g>
<!-- Node10&#45;&gt;Node19 -->
<g id="edge23" class="edge">
<title>Node10&#45;&gt;Node19</title>
<path fill="none" stroke="#9a32cd" stroke-dasharray="5,2" d="M33.43,-117.12C37.72,-120.59 42.39,-124.1 47,-127 56.74,-133.14 120.75,-162.18 154.79,-177.49"/>
<polygon fill="#9a32cd" stroke="#9a32cd" points="35.66,-114.42 25.77,-110.62 31.13,-119.76 35.66,-114.42"/>
<text text-anchor="middle" x="71.5" y="-153" font-family="Helvetica,sans-Serif" font-size="10.00"> elements</text>
</g>
<!-- Node11 -->
<g id="node11" class="node">
<title>Node11</title>
<g id="a_node11"><a xlink:title="STL class.">
<polygon fill="white" stroke="#bfbfbf" points="760.5,-131.5 760.5,-150.5 825.5,-150.5 825.5,-131.5 760.5,-131.5"/>
<text text-anchor="middle" x="793" y="-138.5" font-family="Helvetica,sans-Serif" font-size="10.00">std::string</text>
</a>
</g>
</g>
<!-- Node11&#45;&gt;Node3 -->
<g id="edge24" class="edge">
<title>Node11&#45;&gt;Node3</title>
<path fill="none" stroke="#9a32cd" stroke-dasharray="5,2" d="M835.91,-141.5C943.16,-142.53 1236.25,-143.84 1480,-131 1485.86,-130.69 1491.91,-130.31 1497.99,-129.87"/>
<polygon fill="#9a32cd" stroke="#9a32cd" points="835.86,-138 825.83,-141.4 835.79,-145 835.86,-138"/>
<text text-anchor="middle" x="1122" y="-145" font-family="Helvetica,sans-Serif" font-size="10.00"> m_Name</text>
</g>
<!-- Node11&#45;&gt;Node6 -->
<g id="edge10" class="edge">
<title>Node11&#45;&gt;Node6</title>
<path fill="none" stroke="#9a32cd" stroke-dasharray="5,2" d="M835.51,-132.55C849.05,-129.81 864.16,-126.76 878,-124 929.97,-113.63 945.36,-119.55 995,-101 1008.07,-96.12 1021.72,-88.07 1031.53,-81.69"/>
<polygon fill="#9a32cd" stroke="#9a32cd" points="834.61,-129.16 825.5,-134.58 836,-136.02 834.61,-129.16"/>
<text text-anchor="middle" x="936.5" y="-127" font-family="Helvetica,sans-Serif" font-size="10.00"> m_ObjectName</text>
</g>
<!-- Node12 -->
<g id="node12" class="node">
<title>Node12</title>
<g id="a_node12"><a xlink:title="STL class.">
<polygon fill="white" stroke="#bfbfbf" points="466.5,-128 466.5,-158 570.5,-158 570.5,-128 466.5,-128"/>
<text text-anchor="start" x="474.5" y="-146" font-family="Helvetica,sans-Serif" font-size="10.00">std::basic_string&lt;</text>
<text text-anchor="middle" x="518.5" y="-135" font-family="Helvetica,sans-Serif" font-size="10.00"> char &gt;</text>
</a>
</g>
</g>
<!-- Node12&#45;&gt;Node11 -->
<g id="edge11" class="edge">
<title>Node12&#45;&gt;Node11</title>
<path fill="none" stroke="midnightblue" d="M580.85,-142.55C636.49,-142.14 716.3,-141.56 760.14,-141.23"/>
<polygon fill="midnightblue" stroke="midnightblue" points="580.73,-139.05 570.76,-142.62 580.78,-146.05 580.73,-139.05"/>
</g>
<!-- Node13 -->
<g id="node13" class="node">
<title>Node13</title>
<g id="a_node13"><a xlink:href="https://www.itk.org/Doxygen/html/classitk_1_1MetaDataDictionary.html" xlink:title=" ">
<polygon fill="white" stroke="black" points="726,-85.5 726,-104.5 860,-104.5 860,-85.5 726,-85.5"/>
<text text-anchor="middle" x="793" y="-92.5" font-family="Helvetica,sans-Serif" font-size="10.00">itk::MetaDataDictionary</text>
</a>
</g>
</g>
<!-- Node13&#45;&gt;Node6 -->
<g id="edge12" class="edge">
<title>Node13&#45;&gt;Node6</title>
<path fill="none" stroke="#9a32cd" stroke-dasharray="5,2" d="M870.08,-88.04C917.79,-83.68 976.88,-78.28 1012.85,-74.99"/>
<polygon fill="#9a32cd" stroke="#9a32cd" points="869.72,-84.56 860.08,-88.96 870.36,-91.53 869.72,-84.56"/>
<text text-anchor="middle" x="936.5" y="-90" font-family="Helvetica,sans-Serif" font-size="10.00"> m_MetaDataDictionary</text>
</g>
<!-- Node14 -->
<g id="node14" class="node">
<title>Node14</title>
<g id="a_node14"><a xlink:title=" ">
<polygon fill="white" stroke="#bfbfbf" points="444,-79 444,-109 593,-109 593,-79 444,-79"/>
<text text-anchor="start" x="452" y="-97" font-family="Helvetica,sans-Serif" font-size="10.00">std::shared_ptr&lt; MetaData</text>
<text text-anchor="middle" x="518.5" y="-86" font-family="Helvetica,sans-Serif" font-size="10.00">DictionaryMapType &gt;</text>
</a>
</g>
</g>
<!-- Node14&#45;&gt;Node13 -->
<g id="edge13" class="edge">
<title>Node14&#45;&gt;Node13</title>
<path fill="none" stroke="#9a32cd" stroke-dasharray="5,2" d="M603.34,-94.31C642.65,-94.45 688.82,-94.62 725.65,-94.76"/>
<polygon fill="#9a32cd" stroke="#9a32cd" points="603.26,-90.81 593.24,-94.27 603.23,-97.81 603.26,-90.81"/>
<text text-anchor="middle" x="659.5" y="-98" font-family="Helvetica,sans-Serif" font-size="10.00"> m_Dictionary</text>
</g>
<!-- Node15&#45;&gt;Node14 -->
<g id="edge14" class="edge">
<title>Node15&#45;&gt;Node14</title>
<path fill="none" stroke="#9a32cd" stroke-dasharray="5,2" d="M237.74,-117.9C295.17,-112.99 382.11,-105.57 443.8,-100.3"/>
<polygon fill="#9a32cd" stroke="#9a32cd" points="237.4,-114.41 227.73,-118.75 237.99,-121.39 237.4,-114.41"/>
<text text-anchor="middle" x="342" y="-119" font-family="Helvetica,sans-Serif" font-size="10.00"> ptr</text>
</g>
<!-- Node16 -->
<g id="node16" class="node">
<title>Node16</title>
<g id="a_node16"><a xlink:title=" ">
<polygon fill="white" stroke="#bfbfbf" points="0,-193.5 0,-212.5 29,-212.5 29,-193.5 0,-193.5"/>
<text text-anchor="middle" x="14.5" y="-200.5" font-family="Helvetica,sans-Serif" font-size="10.00">K</text>
</a>
</g>
</g>
<!-- Node16&#45;&gt;Node15 -->
<g id="edge15" class="edge">
<title>Node16&#45;&gt;Node15</title>
<path fill="none" stroke="#9a32cd" stroke-dasharray="5,2" d="M37.87,-189.8C40.91,-188.13 44.01,-186.49 47,-185 68.21,-174.44 74.56,-174.08 96,-164 117.61,-153.85 141.97,-141.18 158.07,-132.64"/>
<polygon fill="#9a32cd" stroke="#9a32cd" points="36.09,-186.79 29.11,-194.77 39.54,-192.88 36.09,-186.79"/>
<text text-anchor="middle" x="71.5" y="-188" font-family="Helvetica,sans-Serif" font-size="10.00"> keys</text>
</g>
<!-- Node16&#45;&gt;Node19 -->
<g id="edge22" class="edge">
<title>Node16&#45;&gt;Node19</title>
<path fill="none" stroke="#9a32cd" stroke-dasharray="5,2" d="M39.31,-201.99C55.36,-201.19 76.98,-199.9 96,-198 101.72,-197.43 107.66,-196.76 113.6,-196.04"/>
<polygon fill="#9a32cd" stroke="#9a32cd" points="39.02,-198.5 29.2,-202.46 39.35,-205.49 39.02,-198.5"/>
<text text-anchor="middle" x="71.5" y="-204" font-family="Helvetica,sans-Serif" font-size="10.00"> keys</text>
</g>
<!-- Node17&#45;&gt;Node14 -->
<g id="edge17" class="edge">
<title>Node17&#45;&gt;Node14</title>
<path fill="none" stroke="orange" stroke-dasharray="5,2" d="M246.16,-85.39C295.99,-85.85 365.21,-86.85 426,-89 431.72,-89.2 437.65,-89.45 443.6,-89.72"/>
<polygon fill="orange" stroke="orange" points="246.17,-81.89 236.14,-85.31 246.11,-88.89 246.17,-81.89"/>
<text text-anchor="middle" x="342" y="-92" font-family="Helvetica,sans-Serif" font-size="10.00"> &lt; MetaDataDictionaryMapType &gt;</text>
</g>
<!-- Node18&#45;&gt;Node6 -->
<g id="edge19" class="edge">
<title>Node18&#45;&gt;Node6</title>
<path fill="none" stroke="#9a32cd" stroke-dasharray="5,2" d="M715.87,-55.73C797.37,-59.75 947.09,-67.14 1012.95,-70.39"/>
<polygon fill="#9a32cd" stroke="#9a32cd" points="715.96,-52.23 705.8,-55.24 715.61,-59.22 715.96,-52.23"/>
<text text-anchor="middle" x="793" y="-66" font-family="Helvetica,sans-Serif" font-size="10.00"> m_MTime</text>
</g>
<!-- Node19&#45;&gt;Node5 -->
<g id="edge21" class="edge">
<title>Node19&#45;&gt;Node5</title>
<path fill="none" stroke="orange" stroke-dasharray="5,2" d="M250.54,-187C319.28,-187 425.42,-187 517.5,-187 517.5,-187 517.5,-187 1047.5,-187 1109.75,-187 1173.58,-146.34 1207.73,-120.62"/>
<polygon fill="orange" stroke="orange" points="250.26,-183.5 240.26,-187 250.26,-190.5 250.26,-183.5"/>
<text text-anchor="start" x="740" y="-201" font-family="Helvetica,sans-Serif" font-size="10.00"> &lt; itk::Object *, std</text>
<text text-anchor="middle" x="793" y="-190" font-family="Helvetica,sans-Serif" font-size="10.00">::function&lt; void()&gt; &gt;</text>
</g>
<!-- Node20&#45;&gt;Node1 -->
<g id="edge25" class="edge">
<title>Node20&#45;&gt;Node1</title>
<path fill="none" stroke="#9a32cd" stroke-dasharray="5,2" d="M1464.84,-71.23C1583.11,-75.44 1837.61,-84.48 1956.87,-88.72"/>
<polygon fill="#9a32cd" stroke="#9a32cd" points="1464.63,-67.72 1454.51,-70.87 1464.38,-74.72 1464.63,-67.72"/>
<text text-anchor="middle" x="1725.5" y="-86" font-family="Helvetica,sans-Serif" font-size="10.00"> m_OutputWindow</text>
</g>
</g>
</svg>
        <g id="navigator" transform="translate(0 0)" fill="#404254">
                <rect fill="#f2f5e9" fill-opacity="0.5" stroke="#606060" stroke-width=".5" x="0" y="0" width="60" height="60"/>
                <use id="zoomplus" xlink:href="#zoomPlus" x="17" y="9" onmousedown="handleZoom(evt,'in')"/>
                <use id="zoomminus" xlink:href="#zoomMin" x="42" y="9" onmousedown="handleZoom(evt,'out')"/>
                <use id="reset" xlink:href="#resetDef" x="30" y="36" onmousedown="handleReset()"/>
                <g id="arrowUp" xlink:href="#dirArrow" transform="translate(30 24)" onmousedown="handlePan(0,-1)">
                  <use xlink:href="#rim" fill="#404040">
                        <set attributeName="fill" to="#808080" begin="arrowUp.mouseover" end="arrowUp.mouseout"/>
                  </use>
                  <path fill="none" stroke="white" stroke-width="1.5" d="M0,-3.0v7 M-2.5,-0.5L0,-3.0L2.5,-0.5"/>
                </g>
                <g id="arrowRight" xlink:href="#dirArrow" transform="rotate(90) translate(36 -43)" onmousedown="handlePan(1,0)">
                  <use xlink:href="#rim" fill="#404040">
                        <set attributeName="fill" to="#808080" begin="arrowRight.mouseover" end="arrowRight.mouseout"/>
                  </use>
                  <path fill="none" stroke="white" stroke-width="1.5" d="M0,-3.0v7 M-2.5,-0.5L0,-3.0L2.5,-0.5"/>
                </g>
                <g id="arrowDown" xlink:href="#dirArrow" transform="rotate(180) translate(-30 -48)" onmousedown="handlePan(0,1)">
                  <use xlink:href="#rim" fill="#404040">
                        <set attributeName="fill" to="#808080" begin="arrowDown.mouseover" end="arrowDown.mouseout"/>
                  </use>
                  <path fill="none" stroke="white" stroke-width="1.5" d="M0,-3.0v7 M-2.5,-0.5L0,-3.0L2.5,-0.5"/>
                </g>
                <g id="arrowLeft" xlink:href="#dirArrow" transform="rotate(270) translate(-36 17)" onmousedown="handlePan(-1,0)">
                  <use xlink:href="#rim" fill="#404040">
                        <set attributeName="fill" to="#808080" begin="arrowLeft.mouseover" end="arrowLeft.mouseout"/>
                  </use>
                  <path fill="none" stroke="white" stroke-width="1.5" d="M0,-3.0v7 M-2.5,-0.5L0,-3.0L2.5,-0.5"/>
                </g>
        </g>
        <svg viewBox="0 0 15 15" width="100%" height="30px" preserveAspectRatio="xMaxYMin meet">
         <g id="arrow_out" transform="scale(0.3 0.3)">
          <a xlink:href="classitk_1_1simple_1_1SITK__FINAL__coll__graph_org.svg" target="_base">
           <rect id="button" ry="5" rx="5" y="6" x="6" height="38" width="38"
                fill="#f2f5e9" fill-opacity="0.5" stroke="#606060" stroke-width="1.0"/>
           <path id="arrow"
             d="M 11.500037,31.436501 C 11.940474,20.09759 22.043105,11.32322 32.158766,21.979434 L 37.068811,17.246167 C 37.068811,17.246167 37.088388,32 37.088388,32 L 22.160133,31.978069 C 22.160133,31.978069 26.997745,27.140456 26.997745,27.140456 C 18.528582,18.264221 13.291696,25.230495 11.500037,31.436501 z"
             style="fill:#404040;"/>
          </a>
         </g>
        </svg>
</svg>
