<?xml version="1.0" encoding="UTF-8" standalone="no"?>
<!DOCTYPE svg PUBLIC "-//W3C//DTD SVG 1.1//EN"
 "http://www.w3.org/Graphics/SVG/1.1/DTD/svg11.dtd">
<!-- Generated by graphviz version 2.43.0 (0)
 -->
<!-- Title: itk::simple::ImageViewer Pages: 1 -->
<svg width="411pt" height="319pt"
 viewBox="0.00 0.00 411.00 319.00" xmlns="http://www.w3.org/2000/svg" xmlns:xlink="http://www.w3.org/1999/xlink">
<g id="graph0" class="graph" transform="scale(1 1) rotate(0) translate(4 315)">
<title>itk::simple::ImageViewer</title>
<polygon fill="white" stroke="transparent" points="-4,4 -4,-315 407,-315 407,4 -4,4"/>
<!-- Node1 -->
<g id="node1" class="node">
<title>Node1</title>
<g id="a_node1"><a xlink:title="Display an image in an external viewer (Fiji by default)">
<polygon fill="#bfbfbf" stroke="black" points="81.5,-0.5 81.5,-19.5 220.5,-19.5 220.5,-0.5 81.5,-0.5"/>
<text text-anchor="middle" x="151" y="-7.5" font-family="Helvetica,sans-Serif" font-size="10.00">itk::simple::ImageViewer</text>
</a>
</g>
</g>
<!-- Node2 -->
<g id="node2" class="node">
<title>Node2</title>
<g id="a_node2"><a xlink:title="STL class.">
<polygon fill="white" stroke="#bfbfbf" points="173.5,-213.5 173.5,-232.5 238.5,-232.5 238.5,-213.5 173.5,-213.5"/>
<text text-anchor="middle" x="206" y="-220.5" font-family="Helvetica,sans-Serif" font-size="10.00">std::string</text>
</a>
</g>
</g>
<!-- Node2&#45;&gt;Node1 -->
<g id="edge1" class="edge">
<title>Node2&#45;&gt;Node1</title>
<path fill="none" stroke="#9a32cd" stroke-dasharray="5,2" d="M215.72,-204.22C233.56,-168.93 266.5,-89.04 230,-38 223.93,-29.51 215.03,-23.66 205.36,-19.64"/>
<polygon fill="#9a32cd" stroke="#9a32cd" points="212.51,-202.81 210.96,-213.3 218.71,-206.07 212.51,-202.81"/>
<text text-anchor="middle" x="324.5" y="-158" font-family="Helvetica,sans-Serif" font-size="10.00"> m_GlobalDefaultApplication</text>
<text text-anchor="middle" x="324.5" y="-147" font-family="Helvetica,sans-Serif" font-size="10.00">m_FileExtension</text>
<text text-anchor="middle" x="324.5" y="-136" font-family="Helvetica,sans-Serif" font-size="10.00">m_Title</text>
<text text-anchor="middle" x="324.5" y="-125" font-family="Helvetica,sans-Serif" font-size="10.00">m_ViewCommand</text>
<text text-anchor="middle" x="324.5" y="-114" font-family="Helvetica,sans-Serif" font-size="10.00">m_GlobalDefaultViewCommand</text>
<text text-anchor="middle" x="324.5" y="-103" font-family="Helvetica,sans-Serif" font-size="10.00">m_CustomCommand</text>
<text text-anchor="middle" x="324.5" y="-92" font-family="Helvetica,sans-Serif" font-size="10.00">m_Application</text>
<text text-anchor="middle" x="324.5" y="-81" font-family="Helvetica,sans-Serif" font-size="10.00">m_GlobalDefaultFileExtension</text>
</g>
<!-- Node4 -->
<g id="node4" class="node">
<title>Node4</title>
<g id="a_node4"><a xlink:title=" ">
<polygon fill="white" stroke="#bfbfbf" points="0,-112.5 0,-131.5 140,-131.5 140,-112.5 0,-112.5"/>
<text text-anchor="middle" x="70" y="-119.5" font-family="Helvetica,sans-Serif" font-size="10.00">std::vector&lt; std::string &gt;</text>
</a>
</g>
</g>
<!-- Node2&#45;&gt;Node4 -->
<g id="edge4" class="edge">
<title>Node2&#45;&gt;Node4</title>
<path fill="none" stroke="#9a32cd" stroke-dasharray="5,2" d="M185.8,-207.29C157.01,-186.34 105.12,-148.56 81.85,-131.62"/>
<polygon fill="#9a32cd" stroke="#9a32cd" points="183.79,-210.16 193.93,-213.21 187.91,-204.5 183.79,-210.16"/>
<text text-anchor="middle" x="190.5" y="-187" font-family="Helvetica,sans-Serif" font-size="10.00"> elements</text>
</g>
<!-- Node3 -->
<g id="node3" class="node">
<title>Node3</title>
<g id="a_node3"><a xlink:title="STL class.">
<polygon fill="white" stroke="#bfbfbf" points="154,-280.5 154,-310.5 258,-310.5 258,-280.5 154,-280.5"/>
<text text-anchor="start" x="162" y="-298.5" font-family="Helvetica,sans-Serif" font-size="10.00">std::basic_string&lt;</text>
<text text-anchor="middle" x="206" y="-287.5" font-family="Helvetica,sans-Serif" font-size="10.00"> char &gt;</text>
</a>
</g>
</g>
<!-- Node3&#45;&gt;Node2 -->
<g id="edge2" class="edge">
<title>Node3&#45;&gt;Node2</title>
<path fill="none" stroke="midnightblue" d="M206,-270.09C206,-257.21 206,-242.2 206,-232.89"/>
<polygon fill="midnightblue" stroke="midnightblue" points="202.5,-270.23 206,-280.23 209.5,-270.23 202.5,-270.23"/>
</g>
<!-- Node4&#45;&gt;Node1 -->
<g id="edge3" class="edge">
<title>Node4&#45;&gt;Node1</title>
<path fill="none" stroke="#9a32cd" stroke-dasharray="5,2" d="M60.82,-103.02C52.97,-84.82 44.95,-56.76 59,-38 65.29,-29.61 74.05,-23.71 83.69,-19.59"/>
<polygon fill="#9a32cd" stroke="#9a32cd" points="57.73,-104.66 65.15,-112.22 64.06,-101.68 57.73,-104.66"/>
<text text-anchor="middle" x="144.5" y="-52" font-family="Helvetica,sans-Serif" font-size="10.00"> m_GlobalDefaultSearchPath</text>
<text text-anchor="middle" x="144.5" y="-41" font-family="Helvetica,sans-Serif" font-size="10.00">m_GlobalDefaultExecutableNames</text>
</g>
<!-- Node5 -->
<g id="node5" class="node">
<title>Node5</title>
<g id="a_node5"><a xlink:title="STL class.">
<polygon fill="white" stroke="#bfbfbf" points="21.5,-213.5 21.5,-232.5 118.5,-232.5 118.5,-213.5 21.5,-213.5"/>
<text text-anchor="middle" x="70" y="-220.5" font-family="Helvetica,sans-Serif" font-size="10.00">std::vector&lt; T &gt;</text>
</a>
</g>
</g>
<!-- Node5&#45;&gt;Node4 -->
<g id="edge5" class="edge">
<title>Node5&#45;&gt;Node4</title>
<path fill="none" stroke="orange" stroke-dasharray="5,2" d="M70,-203.03C70,-181.54 70,-147.47 70,-131.62"/>
<polygon fill="orange" stroke="orange" points="66.5,-203.21 70,-213.21 73.5,-203.21 66.5,-203.21"/>
<text text-anchor="middle" x="107.5" y="-187" font-family="Helvetica,sans-Serif" font-size="10.00"> &lt; std::string &gt;</text>
</g>
<!-- Node6 -->
<g id="node6" class="node">
<title>Node6</title>
<g id="a_node6"><a xlink:title=" ">
<polygon fill="white" stroke="#bfbfbf" points="55.5,-286 55.5,-305 84.5,-305 84.5,-286 55.5,-286"/>
<text text-anchor="middle" x="70" y="-293" font-family="Helvetica,sans-Serif" font-size="10.00">T</text>
</a>
</g>
</g>
<!-- Node6&#45;&gt;Node5 -->
<g id="edge6" class="edge">
<title>Node6&#45;&gt;Node5</title>
<path fill="none" stroke="#9a32cd" stroke-dasharray="5,2" d="M70,-275.44C70,-261.53 70,-243.32 70,-232.72"/>
<polygon fill="#9a32cd" stroke="#9a32cd" points="66.5,-275.86 70,-285.86 73.5,-275.86 66.5,-275.86"/>
<text text-anchor="middle" x="94.5" y="-254" font-family="Helvetica,sans-Serif" font-size="10.00"> elements</text>
</g>
</g>
</svg>
