<?xml version="1.0" encoding="UTF-8" standalone="no"?>
<!DOCTYPE svg PUBLIC "-//W3C//DTD SVG 1.1//EN"
 "http://www.w3.org/Graphics/SVG/1.1/DTD/svg11.dtd">
<!-- Generated by graphviz version 2.43.0 (0)
 -->
<!-- Title: itk::HashImageFilter&lt; TImageType &gt; Pages: 1 -->
<svg width="1739pt" height="111pt"
 viewBox="0.00 0.00 1739.00 110.50" xmlns="http://www.w3.org/2000/svg" xmlns:xlink="http://www.w3.org/1999/xlink">
<g id="graph0" class="graph" transform="scale(1 1) rotate(0) translate(4 106.5)">
<title>itk::HashImageFilter&lt; TImageType &gt;</title>
<polygon fill="white" stroke="transparent" points="-4,4 -4,-106.5 1735,-106.5 1735,4 -4,4"/>
<!-- Node1 -->
<g id="node1" class="node">
<title>Node1</title>
<g id="a_node1"><a xlink:title="Generates a hash string from an image.">
<polygon fill="#bfbfbf" stroke="black" points="1615,-22.5 1615,-52.5 1731,-52.5 1731,-22.5 1615,-22.5"/>
<text text-anchor="start" x="1623" y="-40.5" font-family="Helvetica,sans-Serif" font-size="10.00">itk::HashImageFilter</text>
<text text-anchor="middle" x="1673" y="-29.5" font-family="Helvetica,sans-Serif" font-size="10.00">&lt; TImageType &gt;</text>
</a>
</g>
</g>
<!-- Node2 -->
<g id="node2" class="node">
<title>Node2</title>
<g id="a_node2"><a xlink:href="https://www.itk.org/Doxygen/html/classitk_1_1CastImageFilter.html" xlink:title=" ">
<polygon fill="white" stroke="black" points="1414,-22.5 1414,-52.5 1578,-52.5 1578,-22.5 1414,-22.5"/>
<text text-anchor="start" x="1422" y="-40.5" font-family="Helvetica,sans-Serif" font-size="10.00">itk::CastImageFilter</text>
<text text-anchor="middle" x="1496" y="-29.5" font-family="Helvetica,sans-Serif" font-size="10.00">&lt; TImageType, TImageType &gt;</text>
</a>
</g>
</g>
<!-- Node2&#45;&gt;Node1 -->
<g id="edge1" class="edge">
<title>Node2&#45;&gt;Node1</title>
<path fill="none" stroke="midnightblue" d="M1588.31,-37.5C1597.35,-37.5 1606.34,-37.5 1614.89,-37.5"/>
<polygon fill="midnightblue" stroke="midnightblue" points="1588.1,-34 1578.1,-37.5 1588.1,-41 1588.1,-34"/>
</g>
<!-- Node3 -->
<g id="node3" class="node">
<title>Node3</title>
<g id="a_node3"><a xlink:href="https://www.itk.org/Doxygen/html/classitk_1_1InPlaceImageFilter.html" xlink:title=" ">
<polygon fill="white" stroke="black" points="838,-22.5 838,-52.5 1014,-52.5 1014,-22.5 838,-22.5"/>
<text text-anchor="start" x="846" y="-40.5" font-family="Helvetica,sans-Serif" font-size="10.00">itk::InPlaceImageFilter</text>
<text text-anchor="middle" x="926" y="-29.5" font-family="Helvetica,sans-Serif" font-size="10.00">&lt; TInputImage, TOutputImage &gt;</text>
</a>
</g>
</g>
<!-- Node3&#45;&gt;Node2 -->
<g id="edge2" class="edge">
<title>Node3&#45;&gt;Node2</title>
<path fill="none" stroke="midnightblue" d="M1024.25,-40.3C1026.86,-40.37 1029.45,-40.43 1032,-40.5 1193.74,-44.71 1234.34,-52.02 1396,-45.5 1401.86,-45.26 1407.91,-44.95 1413.99,-44.58"/>
<polygon fill="midnightblue" stroke="midnightblue" points="1024.18,-36.79 1014.09,-40.02 1023.99,-43.79 1024.18,-36.79"/>
</g>
<!-- Node11 -->
<g id="node11" class="node">
<title>Node11</title>
<g id="a_node11"><a xlink:href="https://www.itk.org/Doxygen/html/classitk_1_1CastImageFilter.html" xlink:title=" ">
<polygon fill="white" stroke="black" points="1051,-0.5 1051,-30.5 1227,-30.5 1227,-0.5 1051,-0.5"/>
<text text-anchor="start" x="1059" y="-18.5" font-family="Helvetica,sans-Serif" font-size="10.00">itk::CastImageFilter</text>
<text text-anchor="middle" x="1139" y="-7.5" font-family="Helvetica,sans-Serif" font-size="10.00">&lt; TInputImage, TOutputImage &gt;</text>
</a>
</g>
</g>
<!-- Node3&#45;&gt;Node11 -->
<g id="edge11" class="edge">
<title>Node3&#45;&gt;Node11</title>
<path fill="none" stroke="midnightblue" d="M1024.07,-27.38C1032.99,-26.45 1041.99,-25.51 1050.82,-24.59"/>
<polygon fill="midnightblue" stroke="midnightblue" points="1023.62,-23.91 1014.04,-28.42 1024.35,-30.87 1023.62,-23.91"/>
</g>
<!-- Node4 -->
<g id="node4" class="node">
<title>Node4</title>
<g id="a_node4"><a xlink:href="https://www.itk.org/Doxygen/html/classitk_1_1ImageToImageFilter.html" xlink:title=" ">
<polygon fill="white" stroke="black" points="625,-22.5 625,-52.5 801,-52.5 801,-22.5 625,-22.5"/>
<text text-anchor="start" x="633" y="-40.5" font-family="Helvetica,sans-Serif" font-size="10.00">itk::ImageToImageFilter</text>
<text text-anchor="middle" x="713" y="-29.5" font-family="Helvetica,sans-Serif" font-size="10.00">&lt; TInputImage, TOutputImage &gt;</text>
</a>
</g>
</g>
<!-- Node4&#45;&gt;Node3 -->
<g id="edge3" class="edge">
<title>Node4&#45;&gt;Node3</title>
<path fill="none" stroke="midnightblue" d="M811.07,-37.5C819.99,-37.5 828.99,-37.5 837.82,-37.5"/>
<polygon fill="midnightblue" stroke="midnightblue" points="811.04,-34 801.04,-37.5 811.04,-41 811.04,-34"/>
</g>
<!-- Node5 -->
<g id="node5" class="node">
<title>Node5</title>
<g id="a_node5"><a xlink:href="https://www.itk.org/Doxygen/html/classitk_1_1ImageSource.html" xlink:title=" ">
<polygon fill="white" stroke="black" points="425.5,-54.5 425.5,-84.5 574.5,-84.5 574.5,-54.5 425.5,-54.5"/>
<text text-anchor="start" x="433.5" y="-72.5" font-family="Helvetica,sans-Serif" font-size="10.00">itk::ImageSource&lt; TOutput</text>
<text text-anchor="middle" x="500" y="-61.5" font-family="Helvetica,sans-Serif" font-size="10.00">Image &gt;</text>
</a>
</g>
</g>
<!-- Node5&#45;&gt;Node4 -->
<g id="edge4" class="edge">
<title>Node5&#45;&gt;Node4</title>
<path fill="none" stroke="midnightblue" d="M584.55,-56.83C597.85,-54.81 611.62,-52.72 624.99,-50.7"/>
<polygon fill="midnightblue" stroke="midnightblue" points="583.86,-53.39 574.5,-58.35 584.91,-60.31 583.86,-53.39"/>
</g>
<!-- Node6 -->
<g id="node6" class="node">
<title>Node6</title>
<g id="a_node6"><a xlink:href="https://www.itk.org/Doxygen/html/classitk_1_1ProcessObject.html" xlink:title=" ">
<polygon fill="white" stroke="black" points="251.5,-83 251.5,-102 355.5,-102 355.5,-83 251.5,-83"/>
<text text-anchor="middle" x="303.5" y="-90" font-family="Helvetica,sans-Serif" font-size="10.00">itk::ProcessObject</text>
</a>
</g>
</g>
<!-- Node6&#45;&gt;Node5 -->
<g id="edge5" class="edge">
<title>Node6&#45;&gt;Node5</title>
<path fill="none" stroke="midnightblue" d="M365.57,-85.28C384.48,-83.04 405.52,-80.55 425.19,-78.23"/>
<polygon fill="midnightblue" stroke="midnightblue" points="365.12,-81.81 355.6,-86.46 365.94,-88.76 365.12,-81.81"/>
</g>
<!-- Node7 -->
<g id="node7" class="node">
<title>Node7</title>
<g id="a_node7"><a xlink:href="https://www.itk.org/Doxygen/html/classitk_1_1Object.html" xlink:title=" ">
<polygon fill="white" stroke="black" points="128,-83 128,-102 195,-102 195,-83 128,-83"/>
<text text-anchor="middle" x="161.5" y="-90" font-family="Helvetica,sans-Serif" font-size="10.00">itk::Object</text>
</a>
</g>
</g>
<!-- Node7&#45;&gt;Node6 -->
<g id="edge6" class="edge">
<title>Node7&#45;&gt;Node6</title>
<path fill="none" stroke="midnightblue" d="M205.49,-92.5C219.95,-92.5 236.22,-92.5 251.25,-92.5"/>
<polygon fill="midnightblue" stroke="midnightblue" points="205.32,-89 195.32,-92.5 205.32,-96 205.32,-89"/>
</g>
<!-- Node8 -->
<g id="node8" class="node">
<title>Node8</title>
<g id="a_node8"><a xlink:href="https://www.itk.org/Doxygen/html/classitk_1_1LightObject.html" xlink:title=" ">
<polygon fill="white" stroke="black" points="0,-83 0,-102 91,-102 91,-83 0,-83"/>
<text text-anchor="middle" x="45.5" y="-90" font-family="Helvetica,sans-Serif" font-size="10.00">itk::LightObject</text>
</a>
</g>
</g>
<!-- Node8&#45;&gt;Node7 -->
<g id="edge7" class="edge">
<title>Node8&#45;&gt;Node7</title>
<path fill="none" stroke="midnightblue" d="M101.39,-92.5C110.45,-92.5 119.59,-92.5 127.88,-92.5"/>
<polygon fill="midnightblue" stroke="midnightblue" points="101.23,-89 91.23,-92.5 101.23,-96 101.23,-89"/>
</g>
<!-- Node9 -->
<g id="node9" class="node">
<title>Node9</title>
<g id="a_node9"><a xlink:href="https://www.itk.org/Doxygen/html/structitk_1_1ImageSourceCommon.html" xlink:title=" ">
<polygon fill="white" stroke="black" points="232,-45 232,-64 375,-64 375,-45 232,-45"/>
<text text-anchor="middle" x="303.5" y="-52" font-family="Helvetica,sans-Serif" font-size="10.00">itk::ImageSourceCommon</text>
</a>
</g>
</g>
<!-- Node9&#45;&gt;Node5 -->
<g id="edge8" class="edge">
<title>Node9&#45;&gt;Node5</title>
<path fill="none" stroke="#8b1a1a" d="M385.31,-60.73C398.58,-61.76 412.26,-62.81 425.34,-63.82"/>
<polygon fill="#8b1a1a" stroke="#8b1a1a" points="385.51,-57.24 375.27,-59.96 384.97,-64.22 385.51,-57.24"/>
</g>
<!-- Node10 -->
<g id="node10" class="node">
<title>Node10</title>
<g id="a_node10"><a xlink:href="https://www.itk.org/Doxygen/html/classitk_1_1ImageToImageFilterCommon.html" xlink:title=" ">
<polygon fill="white" stroke="black" points="412,-16 412,-35 588,-35 588,-16 412,-16"/>
<text text-anchor="middle" x="500" y="-23" font-family="Helvetica,sans-Serif" font-size="10.00">itk::ImageToImageFilterCommon</text>
</a>
</g>
</g>
<!-- Node10&#45;&gt;Node4 -->
<g id="edge9" class="edge">
<title>Node10&#45;&gt;Node4</title>
<path fill="none" stroke="#8b1a1a" d="M598.07,-31.02C606.99,-31.53 615.99,-32.04 624.82,-32.54"/>
<polygon fill="#8b1a1a" stroke="#8b1a1a" points="598.22,-27.52 588.04,-30.45 597.83,-34.51 598.22,-27.52"/>
</g>
<!-- Node11&#45;&gt;Node2 -->
<g id="edge10" class="edge">
<title>Node11&#45;&gt;Node2</title>
<path fill="none" stroke="orange" stroke-dasharray="5,2" d="M1237.48,-21.54C1292.86,-24.97 1361.39,-29.22 1413.82,-32.47"/>
<polygon fill="orange" stroke="orange" points="1237.49,-18.04 1227.3,-20.91 1237.06,-25.02 1237.49,-18.04"/>
<text text-anchor="middle" x="1320.5" y="-34.5" font-family="Helvetica,sans-Serif" font-size="10.00"> &lt; TImageType, TImageType &gt;</text>
</g>
</g>
</svg>
