<?xml version="1.0" encoding="UTF-8" standalone="no"?>
<!DOCTYPE svg PUBLIC "-//W3C//DTD SVG 1.1//EN"
 "http://www.w3.org/Graphics/SVG/1.1/DTD/svg11.dtd">
<!-- Generated by graphviz version 2.43.0 (0)
 -->
<!-- Title: itk::simple::ImageFileReader Pages: 1 -->
<!--zoomable 417 -->
<svg id="main" version="1.1" xmlns="http://www.w3.org/2000/svg" xmlns:xlink="http://www.w3.org/1999/xlink" xml:space="preserve" onload="init(evt)">
<style type="text/css"><![CDATA[
.edge:hover path { stroke: red; }
.edge:hover polygon { stroke: red; fill: red; }
]]></style>
<script type="text/javascript"><![CDATA[
var edges = document.getElementsByTagName('g');
if (edges && edges.length) {
  for (var i=0;i<edges.length;i++) {
    if (edges[i].id.substr(0,4)=='edge') {
      edges[i].setAttribute('class','edge');
    }
  }
}
]]></script>
        <defs>
                <circle id="rim" cx="0" cy="0" r="7"/>
                <circle id="rim2" cx="0" cy="0" r="3.5"/>
                <g id="zoomPlus">
                        <use xlink:href="#rim" fill="#404040">
                                <set attributeName="fill" to="#808080" begin="zoomplus.mouseover" end="zoomplus.mouseout"/>
                        </use>
                        <path d="M-4,0h8M0,-4v8" fill="none" stroke="white" stroke-width="1.5" pointer-events="none"/>
                </g>
                <g id="zoomMin">
                        <use xlink:href="#rim" fill="#404040">
                                <set attributeName="fill" to="#808080" begin="zoomminus.mouseover" end="zoomminus.mouseout"/>
                        </use>
                        <path d="M-4,0h8" fill="none" stroke="white" stroke-width="1.5" pointer-events="none"/>
                </g>
                <g id="dirArrow">
                        <path fill="none" stroke="white" stroke-width="1.5" d="M0,-3.0v7 M-2.5,-0.5L0,-3.0L2.5,-0.5"/>
                </g>
               <g id="resetDef">
                       <use xlink:href="#rim2" fill="#404040">
                               <set attributeName="fill" to="#808080" begin="reset.mouseover" end="reset.mouseout"/>
                       </use>
               </g>
        </defs>

<script type="text/javascript">
var viewWidth = 1780;
var viewHeight = 417;
var sectionId = 'dynsection-1';
</script>
<script xlink:href="svgpan.js"/>
<svg id="graph" class="graph">
<g id="viewport">
<title>itk::simple::ImageFileReader</title>
<polygon fill="white" stroke="transparent" points="-4,4 -4,-412.54 1776,-412.54 1776,4 -4,4"/>
<!-- Node1 -->
<g id="node1" class="node">
<title>Node1</title>
<g id="a_node1"><a xlink:title="Read an image file and return a SimpleITK Image.">
<polygon fill="#bfbfbf" stroke="black" points="1615,-15.04 1615,-34.04 1772,-34.04 1772,-15.04 1615,-15.04"/>
<text text-anchor="middle" x="1693.5" y="-22.04" font-family="Helvetica,sans-Serif" font-size="10.00">itk::simple::ImageFileReader</text>
</a>
</g>
</g>
<!-- Node2 -->
<g id="node2" class="node">
<title>Node2</title>
<g id="a_node2"><a xlink:href="classitk_1_1simple_1_1ImageReaderBase.html" target="_top" xlink:title="An abstract base class for image readers.">
<polygon fill="white" stroke="black" points="1414,-44.04 1414,-63.04 1578,-63.04 1578,-44.04 1414,-44.04"/>
<text text-anchor="middle" x="1496" y="-51.04" font-family="Helvetica,sans-Serif" font-size="10.00">itk::simple::ImageReaderBase</text>
</a>
</g>
</g>
<!-- Node2&#45;&gt;Node1 -->
<g id="edge1" class="edge">
<title>Node2&#45;&gt;Node1</title>
<path fill="none" stroke="midnightblue" d="M1571.25,-42.52C1590,-39.74 1609.97,-36.78 1628.18,-34.08"/>
<polygon fill="midnightblue" stroke="midnightblue" points="1570.66,-39.07 1561.28,-44 1571.69,-46 1570.66,-39.07"/>
</g>
<!-- Node3 -->
<g id="node3" class="node">
<title>Node3</title>
<g id="a_node3"><a xlink:href="classitk_1_1simple_1_1ProcessObject.html" target="_top" xlink:title="Base class for SimpleITK classes based on ProcessObject.">
<polygon fill="white" stroke="black" points="1234,-179.04 1234,-198.04 1377,-198.04 1377,-179.04 1234,-179.04"/>
<text text-anchor="middle" x="1305.5" y="-186.04" font-family="Helvetica,sans-Serif" font-size="10.00">itk::simple::ProcessObject</text>
</a>
</g>
</g>
<!-- Node3&#45;&gt;Node2 -->
<g id="edge2" class="edge">
<title>Node3&#45;&gt;Node2</title>
<path fill="none" stroke="midnightblue" d="M1328.2,-172.99C1367.5,-144.85 1449.36,-86.23 1481.57,-63.16"/>
<polygon fill="midnightblue" stroke="midnightblue" points="1326.15,-170.16 1320.06,-178.83 1330.22,-175.85 1326.15,-170.16"/>
</g>
<!-- Node4 -->
<g id="node4" class="node">
<title>Node4</title>
<g id="a_node4"><a xlink:href="classitk_1_1simple_1_1NonCopyable.html" target="_top" xlink:title="An inheritable class to disable copying of a class.">
<polygon fill="white" stroke="black" points="971,-217.04 971,-236.04 1111,-236.04 1111,-217.04 971,-217.04"/>
<text text-anchor="middle" x="1041" y="-224.04" font-family="Helvetica,sans-Serif" font-size="10.00">itk::simple::NonCopyable</text>
</a>
</g>
</g>
<!-- Node4&#45;&gt;Node3 -->
<g id="edge3" class="edge">
<title>Node4&#45;&gt;Node3</title>
<path fill="none" stroke="darkgreen" d="M1121.02,-216.71C1150.82,-212.84 1185,-208.21 1216,-203.54 1227.09,-201.87 1238.95,-199.95 1250.26,-198.05"/>
<polygon fill="darkgreen" stroke="darkgreen" points="1120.56,-213.24 1111.09,-217.99 1121.46,-220.18 1120.56,-213.24"/>
</g>
<!-- Node5 -->
<g id="node5" class="node">
<title>Node5</title>
<g id="a_node5"><a target="_parent" xlink:href="https://www.itk.org/Doxygen/html/classitk_1_1ProcessObject.html" xlink:title=" ">
<polygon fill="white" stroke="black" points="989,-179.04 989,-198.04 1093,-198.04 1093,-179.04 989,-179.04"/>
<text text-anchor="middle" x="1041" y="-186.04" font-family="Helvetica,sans-Serif" font-size="10.00">itk::ProcessObject</text>
</a>
</g>
</g>
<!-- Node5&#45;&gt;Node3 -->
<g id="edge4" class="edge">
<title>Node5&#45;&gt;Node3</title>
<path fill="none" stroke="#9a32cd" stroke-dasharray="5,2" d="M1103.38,-188.54C1142.33,-188.54 1192.87,-188.54 1233.53,-188.54"/>
<polygon fill="#9a32cd" stroke="#9a32cd" points="1103.24,-185.04 1093.24,-188.54 1103.24,-192.04 1103.24,-185.04"/>
<text text-anchor="middle" x="1172.5" y="-191.54" font-family="Helvetica,sans-Serif" font-size="10.00"> m_ActiveProcess</text>
</g>
<!-- Node6 -->
<g id="node6" class="node">
<title>Node6</title>
<g id="a_node6"><a target="_parent" xlink:href="https://www.itk.org/Doxygen/html/classitk_1_1Object.html" xlink:title=" ">
<polygon fill="white" stroke="black" points="696,-317.04 696,-336.04 763,-336.04 763,-317.04 696,-317.04"/>
<text text-anchor="middle" x="729.5" y="-324.04" font-family="Helvetica,sans-Serif" font-size="10.00">itk::Object</text>
</a>
</g>
</g>
<!-- Node6&#45;&gt;Node5 -->
<g id="edge5" class="edge">
<title>Node6&#45;&gt;Node5</title>
<path fill="none" stroke="midnightblue" d="M773.44,-328.51C823.28,-328.36 904.79,-320.21 953,-273.54 974.84,-252.39 949.53,-229.06 971,-207.54 976,-202.52 982.2,-198.8 988.81,-196.04"/>
<polygon fill="midnightblue" stroke="midnightblue" points="773.33,-325.01 763.31,-328.43 773.28,-332.01 773.33,-325.01"/>
</g>
<!-- Node7 -->
<g id="node7" class="node">
<title>Node7</title>
<g id="a_node7"><a target="_parent" xlink:href="https://www.itk.org/Doxygen/html/classitk_1_1LightObject.html" xlink:title=" ">
<polygon fill="white" stroke="black" points="349.5,-389.04 349.5,-408.04 440.5,-408.04 440.5,-389.04 349.5,-389.04"/>
<text text-anchor="middle" x="395" y="-396.04" font-family="Helvetica,sans-Serif" font-size="10.00">itk::LightObject</text>
</a>
</g>
</g>
<!-- Node7&#45;&gt;Node6 -->
<g id="edge6" class="edge">
<title>Node7&#45;&gt;Node6</title>
<path fill="none" stroke="midnightblue" d="M450.56,-395.51C497.87,-391.93 567.85,-384.32 627,-368.54 656.85,-360.57 689.57,-345.87 709.57,-336.15"/>
<polygon fill="midnightblue" stroke="midnightblue" points="450.25,-392.02 440.52,-396.24 450.75,-399.01 450.25,-392.02"/>
</g>
<!-- Node8 -->
<g id="node8" class="node">
<title>Node8</title>
<g id="a_node8"><a target="_parent" xlink:href="https://www.itk.org/Doxygen/html/classitk_1_1TimeStamp.html" xlink:title=" ">
<polygon fill="white" stroke="black" points="349,-262.04 349,-281.04 441,-281.04 441,-262.04 349,-262.04"/>
<text text-anchor="middle" x="395" y="-269.04" font-family="Helvetica,sans-Serif" font-size="10.00">itk::TimeStamp</text>
</a>
</g>
</g>
<!-- Node8&#45;&gt;Node5 -->
<g id="edge13" class="edge">
<title>Node8&#45;&gt;Node5</title>
<path fill="none" stroke="#9a32cd" stroke-dasharray="5,2" d="M451.36,-270.77C552.42,-268.3 772.97,-257.92 953,-214.54 961.34,-212.53 962.85,-210.24 971,-207.54 981.14,-204.18 992.26,-200.93 1002.55,-198.1"/>
<polygon fill="#9a32cd" stroke="#9a32cd" points="451.01,-267.28 441.09,-271.01 451.17,-274.28 451.01,-267.28"/>
<text text-anchor="middle" x="729.5" y="-263.54" font-family="Helvetica,sans-Serif" font-size="10.00"> m_OutputInformationMTime</text>
</g>
<!-- Node8&#45;&gt;Node6 -->
<g id="edge7" class="edge">
<title>Node8&#45;&gt;Node6</title>
<path fill="none" stroke="#9a32cd" stroke-dasharray="5,2" d="M424.8,-285.22C440.72,-292.17 461.06,-300.08 480,-304.54 555.88,-322.41 647.91,-326.03 695.86,-326.6"/>
<polygon fill="#9a32cd" stroke="#9a32cd" points="426.07,-281.95 415.51,-281.05 423.2,-288.34 426.07,-281.95"/>
<text text-anchor="middle" x="553.5" y="-327.54" font-family="Helvetica,sans-Serif" font-size="10.00"> m_MTime</text>
</g>
<!-- Node9 -->
<g id="node9" class="node">
<title>Node9</title>
<g id="a_node9"><a xlink:title=" ">
<polygon fill="white" stroke="#bfbfbf" points="84,-256.04 84,-275.04 184,-275.04 184,-256.04 84,-256.04"/>
<text text-anchor="middle" x="134" y="-263.04" font-family="Helvetica,sans-Serif" font-size="10.00">std::atomic&lt; T &gt;</text>
</a>
</g>
</g>
<!-- Node9&#45;&gt;Node8 -->
<g id="edge8" class="edge">
<title>Node9&#45;&gt;Node8</title>
<path fill="none" stroke="#9a32cd" stroke-dasharray="5,2" d="M194.05,-266.91C241,-267.99 305.71,-269.49 348.65,-270.49"/>
<polygon fill="#9a32cd" stroke="#9a32cd" points="194.1,-263.41 184.02,-266.67 193.94,-270.4 194.1,-263.41"/>
<text text-anchor="middle" x="257" y="-272.54" font-family="Helvetica,sans-Serif" font-size="10.00"> m_GlobalTimeStamp</text>
</g>
<!-- Node10 -->
<g id="node10" class="node">
<title>Node10</title>
<g id="a_node10"><a xlink:title=" ">
<polygon fill="white" stroke="#bfbfbf" points="0,-212.04 0,-231.04 29,-231.04 29,-212.04 0,-212.04"/>
<text text-anchor="middle" x="14.5" y="-219.04" font-family="Helvetica,sans-Serif" font-size="10.00">T</text>
</a>
</g>
</g>
<!-- Node10&#45;&gt;Node9 -->
<g id="edge9" class="edge">
<title>Node10&#45;&gt;Node9</title>
<path fill="none" stroke="#9a32cd" stroke-dasharray="5,2" d="M38.95,-230.32C58.78,-237.75 87.15,-248.37 107.54,-256"/>
<polygon fill="#9a32cd" stroke="#9a32cd" points="40.03,-226.99 29.44,-226.76 37.58,-233.54 40.03,-226.99"/>
<text text-anchor="middle" x="55.5" y="-243.54" font-family="Helvetica,sans-Serif" font-size="10.00"> ptr</text>
</g>
<!-- Node16 -->
<g id="node16" class="node">
<title>Node16</title>
<g id="a_node16"><a xlink:title=" ">
<polygon fill="white" stroke="#bfbfbf" points="344.5,-179.04 344.5,-198.04 445.5,-198.04 445.5,-179.04 344.5,-179.04"/>
<text text-anchor="middle" x="395" y="-186.04" font-family="Helvetica,sans-Serif" font-size="10.00">std::map&lt; K, T &gt;</text>
</a>
</g>
</g>
<!-- Node10&#45;&gt;Node16 -->
<g id="edge19" class="edge">
<title>Node10&#45;&gt;Node16</title>
<path fill="none" stroke="#9a32cd" stroke-dasharray="5,2" d="M39.59,-219.44C100.57,-214.12 261.96,-200.05 344.25,-192.88"/>
<polygon fill="#9a32cd" stroke="#9a32cd" points="39.08,-215.97 29.42,-220.32 39.69,-222.94 39.08,-215.97"/>
<text text-anchor="middle" x="134" y="-218.54" font-family="Helvetica,sans-Serif" font-size="10.00"> elements</text>
</g>
<!-- Node11 -->
<g id="node11" class="node">
<title>Node11</title>
<g id="a_node11"><a target="_parent" xlink:href="https://www.itk.org/Doxygen/html/classitk_1_1MetaDataDictionary.html" xlink:title=" ">
<polygon fill="white" stroke="black" points="328,-351.04 328,-370.04 462,-370.04 462,-351.04 328,-351.04"/>
<text text-anchor="middle" x="395" y="-358.04" font-family="Helvetica,sans-Serif" font-size="10.00">itk::MetaDataDictionary</text>
</a>
</g>
</g>
<!-- Node11&#45;&gt;Node6 -->
<g id="edge10" class="edge">
<title>Node11&#45;&gt;Node6</title>
<path fill="none" stroke="#9a32cd" stroke-dasharray="5,2" d="M472.24,-353.72C517.29,-349.58 575.42,-344.04 627,-338.54 649.94,-336.09 675.75,-333.03 695.61,-330.62"/>
<polygon fill="#9a32cd" stroke="#9a32cd" points="471.9,-350.23 462.26,-354.63 472.53,-357.2 471.9,-350.23"/>
<text text-anchor="middle" x="553.5" y="-356.54" font-family="Helvetica,sans-Serif" font-size="10.00"> m_MetaDataDictionary</text>
</g>
<!-- Node12 -->
<g id="node12" class="node">
<title>Node12</title>
<g id="a_node12"><a xlink:title=" ">
<polygon fill="white" stroke="#bfbfbf" points="362.5,-118.04 362.5,-137.04 427.5,-137.04 427.5,-118.04 362.5,-118.04"/>
<text text-anchor="middle" x="395" y="-125.04" font-family="Helvetica,sans-Serif" font-size="10.00">std::string</text>
</a>
</g>
</g>
<!-- Node12&#45;&gt;Node1 -->
<g id="edge25" class="edge">
<title>Node12&#45;&gt;Node1</title>
<path fill="none" stroke="#9a32cd" stroke-dasharray="5,2" d="M437.57,-120.23C446.55,-116.99 455.34,-112.3 462,-105.54 480.64,-86.6 459.93,-65.94 480,-48.54 564.58,24.78 616.56,-7.54 728.5,-7.54 728.5,-7.54 728.5,-7.54 1497,-7.54 1537.03,-7.54 1581.5,-11.12 1617.9,-14.99"/>
<polygon fill="#9a32cd" stroke="#9a32cd" points="436.37,-116.94 427.84,-123.22 438.42,-123.63 436.37,-116.94"/>
<text text-anchor="middle" x="1172.5" y="-10.54" font-family="Helvetica,sans-Serif" font-size="10.00"> m_FileName</text>
</g>
<!-- Node12&#45;&gt;Node2 -->
<g id="edge24" class="edge">
<title>Node12&#45;&gt;Node2</title>
<path fill="none" stroke="#9a32cd" stroke-dasharray="5,2" d="M437.5,-116.78C445.91,-113.76 454.48,-110.04 462,-105.54 471.44,-99.89 470.08,-93.31 480,-88.54 580.51,-40.19 616.97,-53.54 728.5,-53.54 728.5,-53.54 728.5,-53.54 1306.5,-53.54 1341.68,-53.54 1380.55,-53.54 1413.81,-53.54"/>
<polygon fill="#9a32cd" stroke="#9a32cd" points="436.17,-113.53 427.77,-120 438.37,-120.18 436.17,-113.53"/>
<text text-anchor="middle" x="1041" y="-56.54" font-family="Helvetica,sans-Serif" font-size="10.00"> m_ImageIOName</text>
</g>
<!-- Node12&#45;&gt;Node6 -->
<g id="edge11" class="edge">
<title>Node12&#45;&gt;Node6</title>
<path fill="none" stroke="#9a32cd" stroke-dasharray="5,2" d="M428.8,-141.85C440.87,-148.62 453.62,-157.83 462,-169.54 481.7,-197.06 457,-218.7 480,-243.54 526.69,-293.97 561.84,-269.67 627,-291.54 652.09,-299.96 680.58,-309.81 700.97,-316.91"/>
<polygon fill="#9a32cd" stroke="#9a32cd" points="430.27,-138.67 419.79,-137.14 427.03,-144.87 430.27,-138.67"/>
<text text-anchor="middle" x="553.5" y="-294.54" font-family="Helvetica,sans-Serif" font-size="10.00"> m_ObjectName</text>
</g>
<!-- Node14 -->
<g id="node14" class="node">
<title>Node14</title>
<g id="a_node14"><a xlink:title=" ">
<polygon fill="white" stroke="#bfbfbf" points="645,-173.54 645,-203.54 814,-203.54 814,-173.54 645,-173.54"/>
<text text-anchor="start" x="653" y="-191.54" font-family="Helvetica,sans-Serif" font-size="10.00">std::map&lt; DataObjectIdentifier</text>
<text text-anchor="middle" x="729.5" y="-180.54" font-family="Helvetica,sans-Serif" font-size="10.00">Type, DataObjectPointer &gt;</text>
</a>
</g>
</g>
<!-- Node12&#45;&gt;Node14 -->
<g id="edge15" class="edge">
<title>Node12&#45;&gt;Node14</title>
<path fill="none" stroke="#9a32cd" stroke-dasharray="5,2" d="M437.48,-135.15C489.63,-144.72 580.36,-161.36 646.69,-173.53"/>
<polygon fill="#9a32cd" stroke="#9a32cd" points="438.05,-131.69 427.58,-133.33 436.78,-138.58 438.05,-131.69"/>
<text text-anchor="middle" x="553.5" y="-172.54" font-family="Helvetica,sans-Serif" font-size="10.00"> keys</text>
</g>
<!-- Node18 -->
<g id="node18" class="node">
<title>Node18</title>
<g id="a_node18"><a xlink:title=" ">
<polygon fill="white" stroke="#bfbfbf" points="648.5,-105.54 648.5,-135.54 810.5,-135.54 810.5,-105.54 648.5,-105.54"/>
<text text-anchor="start" x="656.5" y="-123.54" font-family="Helvetica,sans-Serif" font-size="10.00">std::set&lt; DataObjectIdentifier</text>
<text text-anchor="middle" x="729.5" y="-112.54" font-family="Helvetica,sans-Serif" font-size="10.00">Type &gt;</text>
</a>
</g>
</g>
<!-- Node12&#45;&gt;Node18 -->
<g id="edge21" class="edge">
<title>Node12&#45;&gt;Node18</title>
<path fill="none" stroke="#9a32cd" stroke-dasharray="5,2" d="M438.22,-123.96C451.58,-122.98 466.4,-122.05 480,-121.54 536.26,-119.42 599.74,-119.2 648.45,-119.49"/>
<polygon fill="#9a32cd" stroke="#9a32cd" points="437.59,-120.5 427.88,-124.75 438.12,-127.48 437.59,-120.5"/>
<text text-anchor="middle" x="553.5" y="-124.54" font-family="Helvetica,sans-Serif" font-size="10.00"> keys</text>
</g>
<!-- Node13 -->
<g id="node13" class="node">
<title>Node13</title>
<g id="a_node13"><a xlink:title=" ">
<polygon fill="white" stroke="#bfbfbf" points="82,-115.54 82,-145.54 186,-145.54 186,-115.54 82,-115.54"/>
<text text-anchor="start" x="90" y="-133.54" font-family="Helvetica,sans-Serif" font-size="10.00">std::basic_string&lt;</text>
<text text-anchor="middle" x="134" y="-122.54" font-family="Helvetica,sans-Serif" font-size="10.00"> Char &gt;</text>
</a>
</g>
</g>
<!-- Node13&#45;&gt;Node12 -->
<g id="edge12" class="edge">
<title>Node13&#45;&gt;Node12</title>
<path fill="none" stroke="midnightblue" d="M196.32,-129.83C248.51,-129.22 321.37,-128.38 362.49,-127.9"/>
<polygon fill="midnightblue" stroke="midnightblue" points="196.13,-126.33 186.17,-129.95 196.21,-133.33 196.13,-126.33"/>
</g>
<!-- Node14&#45;&gt;Node5 -->
<g id="edge14" class="edge">
<title>Node14&#45;&gt;Node5</title>
<path fill="none" stroke="#9a32cd" stroke-dasharray="5,2" d="M824.53,-188.54C878.48,-188.54 944.13,-188.54 988.68,-188.54"/>
<polygon fill="#9a32cd" stroke="#9a32cd" points="824.26,-185.04 814.26,-188.54 824.26,-192.04 824.26,-185.04"/>
<text text-anchor="middle" x="892.5" y="-202.54" font-family="Helvetica,sans-Serif" font-size="10.00"> m_Inputs</text>
<text text-anchor="middle" x="892.5" y="-191.54" font-family="Helvetica,sans-Serif" font-size="10.00">m_Outputs</text>
</g>
<!-- Node15 -->
<g id="node15" class="node">
<title>Node15</title>
<g id="a_node15"><a target="_parent" xlink:href="https://www.itk.org/Doxygen/html/classitk_1_1SmartPointer.html" xlink:title=" ">
<polygon fill="white" stroke="black" points="334,-224.04 334,-243.04 456,-243.04 456,-224.04 334,-224.04"/>
<text text-anchor="middle" x="395" y="-231.04" font-family="Helvetica,sans-Serif" font-size="10.00">SmartPointer&lt; Self &gt;</text>
</a>
</g>
</g>
<!-- Node15&#45;&gt;Node14 -->
<g id="edge16" class="edge">
<title>Node15&#45;&gt;Node14</title>
<path fill="none" stroke="#9a32cd" stroke-dasharray="5,2" d="M466.24,-229.19C512.17,-225.77 573.38,-220.13 627,-211.54 640.38,-209.39 654.63,-206.53 668.1,-203.56"/>
<polygon fill="#9a32cd" stroke="#9a32cd" points="465.81,-225.71 456.09,-229.93 466.32,-232.7 465.81,-225.71"/>
<text text-anchor="middle" x="553.5" y="-231.54" font-family="Helvetica,sans-Serif" font-size="10.00"> elements</text>
</g>
<!-- Node16&#45;&gt;Node14 -->
<g id="edge17" class="edge">
<title>Node16&#45;&gt;Node14</title>
<path fill="none" stroke="orange" stroke-dasharray="5,2" d="M455.98,-188.54C508.7,-188.54 585.96,-188.54 644.77,-188.54"/>
<polygon fill="orange" stroke="orange" points="455.78,-185.04 445.78,-188.54 455.78,-192.04 455.78,-185.04"/>
<text text-anchor="start" x="484" y="-202.54" font-family="Helvetica,sans-Serif" font-size="10.00"> &lt; DataObjectIdentifierType,</text>
<text text-anchor="middle" x="553.5" y="-191.54" font-family="Helvetica,sans-Serif" font-size="10.00"> DataObjectPointer &gt;</text>
</g>
<!-- Node17 -->
<g id="node17" class="node">
<title>Node17</title>
<g id="a_node17"><a xlink:title=" ">
<polygon fill="white" stroke="#bfbfbf" points="119.5,-77.04 119.5,-96.04 148.5,-96.04 148.5,-77.04 119.5,-77.04"/>
<text text-anchor="middle" x="134" y="-84.04" font-family="Helvetica,sans-Serif" font-size="10.00">K</text>
</a>
</g>
</g>
<!-- Node17&#45;&gt;Node16 -->
<g id="edge18" class="edge">
<title>Node17&#45;&gt;Node16</title>
<path fill="none" stroke="#9a32cd" stroke-dasharray="5,2" d="M158.38,-95.12C167.07,-98.34 177,-102.07 186,-105.54 253.29,-131.49 332.27,-163.41 370.67,-179.03"/>
<polygon fill="#9a32cd" stroke="#9a32cd" points="159.48,-91.79 148.89,-91.61 157.05,-98.36 159.48,-91.79"/>
<text text-anchor="middle" x="257" y="-157.54" font-family="Helvetica,sans-Serif" font-size="10.00"> keys</text>
</g>
<!-- Node19 -->
<g id="node19" class="node">
<title>Node19</title>
<g id="a_node19"><a xlink:title=" ">
<polygon fill="white" stroke="#bfbfbf" points="354,-77.04 354,-96.04 436,-96.04 436,-77.04 354,-77.04"/>
<text text-anchor="middle" x="395" y="-84.04" font-family="Helvetica,sans-Serif" font-size="10.00">std::set&lt; K &gt;</text>
</a>
</g>
</g>
<!-- Node17&#45;&gt;Node19 -->
<g id="edge23" class="edge">
<title>Node17&#45;&gt;Node19</title>
<path fill="none" stroke="#9a32cd" stroke-dasharray="5,2" d="M158.67,-86.54C203.04,-86.54 299.15,-86.54 353.83,-86.54"/>
<polygon fill="#9a32cd" stroke="#9a32cd" points="158.56,-83.04 148.56,-86.54 158.56,-90.04 158.56,-83.04"/>
<text text-anchor="middle" x="257" y="-89.54" font-family="Helvetica,sans-Serif" font-size="10.00"> keys</text>
</g>
<!-- Node18&#45;&gt;Node5 -->
<g id="edge20" class="edge">
<title>Node18&#45;&gt;Node5</title>
<path fill="none" stroke="#9a32cd" stroke-dasharray="5,2" d="M808.93,-137.77C868.47,-150.85 948.13,-168.35 996.67,-179.02"/>
<polygon fill="#9a32cd" stroke="#9a32cd" points="809.32,-134.27 798.8,-135.55 807.82,-141.11 809.32,-134.27"/>
<text text-anchor="middle" x="892.5" y="-171.54" font-family="Helvetica,sans-Serif" font-size="10.00"> m_RequiredInputNames</text>
</g>
<!-- Node19&#45;&gt;Node18 -->
<g id="edge22" class="edge">
<title>Node19&#45;&gt;Node18</title>
<path fill="none" stroke="orange" stroke-dasharray="5,2" d="M446.35,-89.32C493.22,-92.18 564.97,-97.24 627,-104.54 633.91,-105.35 641.07,-106.29 648.24,-107.29"/>
<polygon fill="orange" stroke="orange" points="446.35,-85.81 436.16,-88.71 445.93,-92.8 446.35,-85.81"/>
<text text-anchor="middle" x="553.5" y="-107.54" font-family="Helvetica,sans-Serif" font-size="10.00"> &lt; DataObjectIdentifierType &gt;</text>
</g>
</g>
</svg>
        <g id="navigator" transform="translate(0 0)" fill="#404254">
                <rect fill="#f2f5e9" fill-opacity="0.5" stroke="#606060" stroke-width=".5" x="0" y="0" width="60" height="60"/>
                <use id="zoomplus" xlink:href="#zoomPlus" x="17" y="9" onmousedown="handleZoom(evt,'in')"/>
                <use id="zoomminus" xlink:href="#zoomMin" x="42" y="9" onmousedown="handleZoom(evt,'out')"/>
                <use id="reset" xlink:href="#resetDef" x="30" y="36" onmousedown="handleReset()"/>
                <g id="arrowUp" xlink:href="#dirArrow" transform="translate(30 24)" onmousedown="handlePan(0,-1)">
                  <use xlink:href="#rim" fill="#404040">
                        <set attributeName="fill" to="#808080" begin="arrowUp.mouseover" end="arrowUp.mouseout"/>
                  </use>
                  <path fill="none" stroke="white" stroke-width="1.5" d="M0,-3.0v7 M-2.5,-0.5L0,-3.0L2.5,-0.5"/>
                </g>
                <g id="arrowRight" xlink:href="#dirArrow" transform="rotate(90) translate(36 -43)" onmousedown="handlePan(1,0)">
                  <use xlink:href="#rim" fill="#404040">
                        <set attributeName="fill" to="#808080" begin="arrowRight.mouseover" end="arrowRight.mouseout"/>
                  </use>
                  <path fill="none" stroke="white" stroke-width="1.5" d="M0,-3.0v7 M-2.5,-0.5L0,-3.0L2.5,-0.5"/>
                </g>
                <g id="arrowDown" xlink:href="#dirArrow" transform="rotate(180) translate(-30 -48)" onmousedown="handlePan(0,1)">
                  <use xlink:href="#rim" fill="#404040">
                        <set attributeName="fill" to="#808080" begin="arrowDown.mouseover" end="arrowDown.mouseout"/>
                  </use>
                  <path fill="none" stroke="white" stroke-width="1.5" d="M0,-3.0v7 M-2.5,-0.5L0,-3.0L2.5,-0.5"/>
                </g>
                <g id="arrowLeft" xlink:href="#dirArrow" transform="rotate(270) translate(-36 17)" onmousedown="handlePan(-1,0)">
                  <use xlink:href="#rim" fill="#404040">
                        <set attributeName="fill" to="#808080" begin="arrowLeft.mouseover" end="arrowLeft.mouseout"/>
                  </use>
                  <path fill="none" stroke="white" stroke-width="1.5" d="M0,-3.0v7 M-2.5,-0.5L0,-3.0L2.5,-0.5"/>
                </g>
        </g>
        <svg viewBox="0 0 15 15" width="100%" height="30px" preserveAspectRatio="xMaxYMin meet">
         <g id="arrow_out" transform="scale(0.3 0.3)">
          <a xlink:href="classitk_1_1simple_1_1ImageFileReader__coll__graph_org.svg" target="_base">
           <rect id="button" ry="5" rx="5" y="6" x="6" height="38" width="38"
                fill="#f2f5e9" fill-opacity="0.5" stroke="#606060" stroke-width="1.0"/>
           <path id="arrow"
             d="M 11.500037,31.436501 C 11.940474,20.09759 22.043105,11.32322 32.158766,21.979434 L 37.068811,17.246167 C 37.068811,17.246167 37.088388,32 37.088388,32 L 22.160133,31.978069 C 22.160133,31.978069 26.997745,27.140456 26.997745,27.140456 C 18.528582,18.264221 13.291696,25.230495 11.500037,31.436501 z"
             style="fill:#404040;"/>
          </a>
         </g>
        </svg>
</svg>
