<?xml version="1.0" encoding="UTF-8" standalone="no"?>
<!DOCTYPE svg PUBLIC "-//W3C//DTD SVG 1.1//EN"
 "http://www.w3.org/Graphics/SVG/1.1/DTD/svg11.dtd">
<!-- Generated by graphviz version 2.43.0 (0)
 -->
<!-- Title: itk::simple::ImageViewer Pages: 1 -->
<svg width="235pt" height="240pt"
 viewBox="0.00 0.00 234.50 240.00" xmlns="http://www.w3.org/2000/svg" xmlns:xlink="http://www.w3.org/1999/xlink">
<g id="graph0" class="graph" transform="scale(1 1) rotate(0) translate(4 236)">
<title>itk::simple::ImageViewer</title>
<polygon fill="white" stroke="transparent" points="-4,4 -4,-236 230.5,-236 230.5,4 -4,4"/>
<!-- Node1 -->
<g id="node1" class="node">
<title>Node1</title>
<g id="a_node1"><a xlink:title="Display an image in an external viewer (Fiji by default)">
<polygon fill="#bfbfbf" stroke="black" points="0,-0.5 0,-19.5 139,-19.5 139,-0.5 0,-0.5"/>
<text text-anchor="middle" x="69.5" y="-7.5" font-family="Helvetica,sans-Serif" font-size="10.00">itk::simple::ImageViewer</text>
</a>
</g>
</g>
<!-- Node2 -->
<g id="node2" class="node">
<title>Node2</title>
<g id="a_node2"><a xlink:title=" ">
<polygon fill="white" stroke="#bfbfbf" points="37,-144.5 37,-163.5 102,-163.5 102,-144.5 37,-144.5"/>
<text text-anchor="middle" x="69.5" y="-151.5" font-family="Helvetica,sans-Serif" font-size="10.00">std::string</text>
</a>
</g>
</g>
<!-- Node2&#45;&gt;Node1 -->
<g id="edge1" class="edge">
<title>Node2&#45;&gt;Node1</title>
<path fill="none" stroke="#9a32cd" stroke-dasharray="5,2" d="M69.5,-134.11C69.5,-102.93 69.5,-41.93 69.5,-19.52"/>
<polygon fill="#9a32cd" stroke="#9a32cd" points="66,-134.12 69.5,-144.12 73,-134.12 66,-134.12"/>
<text text-anchor="middle" x="148" y="-118" font-family="Helvetica,sans-Serif" font-size="10.00"> m_Application</text>
<text text-anchor="middle" x="148" y="-107" font-family="Helvetica,sans-Serif" font-size="10.00">m_CustomCommand</text>
<text text-anchor="middle" x="148" y="-96" font-family="Helvetica,sans-Serif" font-size="10.00">m_FileExtension</text>
<text text-anchor="middle" x="148" y="-85" font-family="Helvetica,sans-Serif" font-size="10.00">m_GlobalDefaultApplication</text>
<text text-anchor="middle" x="148" y="-74" font-family="Helvetica,sans-Serif" font-size="10.00">m_GlobalDefaultFileExtension</text>
<text text-anchor="middle" x="148" y="-63" font-family="Helvetica,sans-Serif" font-size="10.00">m_GlobalDefaultViewCommand</text>
<text text-anchor="middle" x="148" y="-52" font-family="Helvetica,sans-Serif" font-size="10.00">m_Title</text>
<text text-anchor="middle" x="148" y="-41" font-family="Helvetica,sans-Serif" font-size="10.00">m_ViewCommand</text>
</g>
<!-- Node3 -->
<g id="node3" class="node">
<title>Node3</title>
<g id="a_node3"><a xlink:title=" ">
<polygon fill="white" stroke="#bfbfbf" points="17.5,-201.5 17.5,-231.5 121.5,-231.5 121.5,-201.5 17.5,-201.5"/>
<text text-anchor="start" x="25.5" y="-219.5" font-family="Helvetica,sans-Serif" font-size="10.00">std::basic_string&lt;</text>
<text text-anchor="middle" x="69.5" y="-208.5" font-family="Helvetica,sans-Serif" font-size="10.00"> Char &gt;</text>
</a>
</g>
</g>
<!-- Node3&#45;&gt;Node2 -->
<g id="edge2" class="edge">
<title>Node3&#45;&gt;Node2</title>
<path fill="none" stroke="midnightblue" d="M69.5,-191.35C69.5,-181.51 69.5,-170.78 69.5,-163.54"/>
<polygon fill="midnightblue" stroke="midnightblue" points="66,-191.47 69.5,-201.47 73,-191.47 66,-191.47"/>
</g>
</g>
</svg>
