<?xml version="1.0" encoding="UTF-8" standalone="no"?>
<!DOCTYPE svg PUBLIC "-//W3C//DTD SVG 1.1//EN"
 "http://www.w3.org/Graphics/SVG/1.1/DTD/svg11.dtd">
<!-- Generated by graphviz version 2.43.0 (0)
 -->
<!-- Title: itk::simple::ImageFileWriter Pages: 1 -->
<svg width="1574pt" height="336pt"
 viewBox="0.00 0.00 1574.00 336.00" xmlns="http://www.w3.org/2000/svg" xmlns:xlink="http://www.w3.org/1999/xlink">
<g id="graph0" class="graph" transform="scale(1 1) rotate(0) translate(4 332)">
<title>itk::simple::ImageFileWriter</title>
<polygon fill="white" stroke="transparent" points="-4,4 -4,-332 1570,-332 1570,4 -4,4"/>
<!-- Node1 -->
<g id="node1" class="node">
<title>Node1</title>
<g id="a_node1"><a xlink:title="Write out a SimpleITK image to the specified file location.">
<polygon fill="#bfbfbf" stroke="black" points="1414,-129.5 1414,-148.5 1566,-148.5 1566,-129.5 1414,-129.5"/>
<text text-anchor="middle" x="1490" y="-136.5" font-family="Helvetica,sans-Serif" font-size="10.00">itk::simple::ImageFileWriter</text>
</a>
</g>
</g>
<!-- Node2 -->
<g id="node2" class="node">
<title>Node2</title>
<g id="a_node2"><a xlink:href="classitk_1_1simple_1_1ProcessObject.html" target="_top" xlink:title="Base class for SimpleITK classes based on ProcessObject.">
<polygon fill="white" stroke="black" points="1234,-176.5 1234,-195.5 1377,-195.5 1377,-176.5 1234,-176.5"/>
<text text-anchor="middle" x="1305.5" y="-183.5" font-family="Helvetica,sans-Serif" font-size="10.00">itk::simple::ProcessObject</text>
</a>
</g>
</g>
<!-- Node2&#45;&gt;Node1 -->
<g id="edge1" class="edge">
<title>Node2&#45;&gt;Node1</title>
<path fill="none" stroke="midnightblue" d="M1353.44,-173.91C1384.03,-166.03 1423.39,-155.9 1451.81,-148.58"/>
<polygon fill="midnightblue" stroke="midnightblue" points="1352.24,-170.61 1343.43,-176.49 1353.99,-177.38 1352.24,-170.61"/>
</g>
<!-- Node3 -->
<g id="node3" class="node">
<title>Node3</title>
<g id="a_node3"><a xlink:href="classitk_1_1simple_1_1NonCopyable.html" target="_top" xlink:title="An inheritable class to disable copying of a class.">
<polygon fill="white" stroke="black" points="971,-214.5 971,-233.5 1111,-233.5 1111,-214.5 971,-214.5"/>
<text text-anchor="middle" x="1041" y="-221.5" font-family="Helvetica,sans-Serif" font-size="10.00">itk::simple::NonCopyable</text>
</a>
</g>
</g>
<!-- Node3&#45;&gt;Node2 -->
<g id="edge2" class="edge">
<title>Node3&#45;&gt;Node2</title>
<path fill="none" stroke="darkgreen" d="M1121.02,-214.17C1150.82,-210.31 1185,-205.67 1216,-201 1227.09,-199.33 1238.95,-197.41 1250.26,-195.52"/>
<polygon fill="darkgreen" stroke="darkgreen" points="1120.56,-210.7 1111.09,-215.46 1121.46,-217.65 1120.56,-210.7"/>
</g>
<!-- Node4 -->
<g id="node4" class="node">
<title>Node4</title>
<g id="a_node4"><a target="_parent" xlink:href="https://www.itk.org/Doxygen/html/classitk_1_1ProcessObject.html" xlink:title=" ">
<polygon fill="white" stroke="black" points="989,-176.5 989,-195.5 1093,-195.5 1093,-176.5 989,-176.5"/>
<text text-anchor="middle" x="1041" y="-183.5" font-family="Helvetica,sans-Serif" font-size="10.00">itk::ProcessObject</text>
</a>
</g>
</g>
<!-- Node4&#45;&gt;Node2 -->
<g id="edge3" class="edge">
<title>Node4&#45;&gt;Node2</title>
<path fill="none" stroke="#9a32cd" stroke-dasharray="5,2" d="M1103.38,-186C1142.33,-186 1192.87,-186 1233.53,-186"/>
<polygon fill="#9a32cd" stroke="#9a32cd" points="1103.24,-182.5 1093.24,-186 1103.24,-189.5 1103.24,-182.5"/>
<text text-anchor="middle" x="1172.5" y="-189" font-family="Helvetica,sans-Serif" font-size="10.00"> m_ActiveProcess</text>
</g>
<!-- Node5 -->
<g id="node5" class="node">
<title>Node5</title>
<g id="a_node5"><a target="_parent" xlink:href="https://www.itk.org/Doxygen/html/classitk_1_1Object.html" xlink:title=" ">
<polygon fill="white" stroke="black" points="696,-232.5 696,-251.5 763,-251.5 763,-232.5 696,-232.5"/>
<text text-anchor="middle" x="729.5" y="-239.5" font-family="Helvetica,sans-Serif" font-size="10.00">itk::Object</text>
</a>
</g>
</g>
<!-- Node5&#45;&gt;Node4 -->
<g id="edge4" class="edge">
<title>Node5&#45;&gt;Node4</title>
<path fill="none" stroke="midnightblue" d="M773.03,-234.31C829.3,-224.12 928.41,-206.19 988.75,-195.27"/>
<polygon fill="midnightblue" stroke="midnightblue" points="772.25,-230.89 763.04,-236.11 773.5,-237.78 772.25,-230.89"/>
</g>
<!-- Node6 -->
<g id="node6" class="node">
<title>Node6</title>
<g id="a_node6"><a target="_parent" xlink:href="https://www.itk.org/Doxygen/html/classitk_1_1LightObject.html" xlink:title=" ">
<polygon fill="white" stroke="black" points="349.5,-227.5 349.5,-246.5 440.5,-246.5 440.5,-227.5 349.5,-227.5"/>
<text text-anchor="middle" x="395" y="-234.5" font-family="Helvetica,sans-Serif" font-size="10.00">itk::LightObject</text>
</a>
</g>
</g>
<!-- Node6&#45;&gt;Node5 -->
<g id="edge5" class="edge">
<title>Node6&#45;&gt;Node5</title>
<path fill="none" stroke="midnightblue" d="M451.2,-237.83C521,-238.88 638.94,-240.65 695.85,-241.51"/>
<polygon fill="midnightblue" stroke="midnightblue" points="450.89,-234.33 440.84,-237.67 450.79,-241.32 450.89,-234.33"/>
</g>
<!-- Node7 -->
<g id="node7" class="node">
<title>Node7</title>
<g id="a_node7"><a target="_parent" xlink:href="https://www.itk.org/Doxygen/html/classitk_1_1TimeStamp.html" xlink:title=" ">
<polygon fill="white" stroke="black" points="349,-303.5 349,-322.5 441,-322.5 441,-303.5 349,-303.5"/>
<text text-anchor="middle" x="395" y="-310.5" font-family="Helvetica,sans-Serif" font-size="10.00">itk::TimeStamp</text>
</a>
</g>
</g>
<!-- Node7&#45;&gt;Node4 -->
<g id="edge12" class="edge">
<title>Node7&#45;&gt;Node4</title>
<path fill="none" stroke="#9a32cd" stroke-dasharray="5,2" d="M451.36,-319.89C498.34,-324.5 567.4,-328.34 627,-320 776.22,-299.13 827.09,-309.76 953,-227 963.56,-220.06 960.41,-211.89 971,-205 976.94,-201.14 983.65,-198.05 990.5,-195.59"/>
<polygon fill="#9a32cd" stroke="#9a32cd" points="451.7,-316.41 441.39,-318.87 450.98,-323.37 451.7,-316.41"/>
<text text-anchor="middle" x="729.5" y="-320" font-family="Helvetica,sans-Serif" font-size="10.00"> m_OutputInformationMTime</text>
</g>
<!-- Node7&#45;&gt;Node5 -->
<g id="edge6" class="edge">
<title>Node7&#45;&gt;Node5</title>
<path fill="none" stroke="#9a32cd" stroke-dasharray="5,2" d="M451.33,-308.92C498.57,-304.59 568.01,-296.2 627,-281 655.7,-273.6 687.37,-260.61 707.58,-251.67"/>
<polygon fill="#9a32cd" stroke="#9a32cd" points="450.96,-305.44 441.31,-309.81 451.58,-312.41 450.96,-305.44"/>
<text text-anchor="middle" x="553.5" y="-308" font-family="Helvetica,sans-Serif" font-size="10.00"> m_MTime</text>
</g>
<!-- Node8 -->
<g id="node8" class="node">
<title>Node8</title>
<g id="a_node8"><a xlink:title=" ">
<polygon fill="white" stroke="#bfbfbf" points="84,-256.5 84,-275.5 184,-275.5 184,-256.5 84,-256.5"/>
<text text-anchor="middle" x="134" y="-263.5" font-family="Helvetica,sans-Serif" font-size="10.00">std::atomic&lt; T &gt;</text>
</a>
</g>
</g>
<!-- Node8&#45;&gt;Node7 -->
<g id="edge7" class="edge">
<title>Node8&#45;&gt;Node7</title>
<path fill="none" stroke="#9a32cd" stroke-dasharray="5,2" d="M194.05,-276.72C241,-285.24 305.71,-296.98 348.65,-304.77"/>
<polygon fill="#9a32cd" stroke="#9a32cd" points="194.48,-273.24 184.02,-274.9 193.23,-280.12 194.48,-273.24"/>
<text text-anchor="middle" x="257" y="-299" font-family="Helvetica,sans-Serif" font-size="10.00"> m_GlobalTimeStamp</text>
</g>
<!-- Node9 -->
<g id="node9" class="node">
<title>Node9</title>
<g id="a_node9"><a xlink:title=" ">
<polygon fill="white" stroke="#bfbfbf" points="0,-89.5 0,-108.5 29,-108.5 29,-89.5 0,-89.5"/>
<text text-anchor="middle" x="14.5" y="-96.5" font-family="Helvetica,sans-Serif" font-size="10.00">T</text>
</a>
</g>
</g>
<!-- Node9&#45;&gt;Node8 -->
<g id="edge8" class="edge">
<title>Node9&#45;&gt;Node8</title>
<path fill="none" stroke="#9a32cd" stroke-dasharray="5,2" d="M26.93,-117.25C39.87,-137.69 61.78,-171.68 82,-200 96.64,-220.51 114.94,-243.63 125.16,-256.33"/>
<polygon fill="#9a32cd" stroke="#9a32cd" points="29.79,-115.23 21.5,-108.63 23.87,-118.96 29.79,-115.23"/>
<text text-anchor="middle" x="55.5" y="-176" font-family="Helvetica,sans-Serif" font-size="10.00"> ptr</text>
</g>
<!-- Node15 -->
<g id="node15" class="node">
<title>Node15</title>
<g id="a_node15"><a xlink:title=" ">
<polygon fill="white" stroke="#bfbfbf" points="344.5,-73.5 344.5,-92.5 445.5,-92.5 445.5,-73.5 344.5,-73.5"/>
<text text-anchor="middle" x="395" y="-80.5" font-family="Helvetica,sans-Serif" font-size="10.00">std::map&lt; K, T &gt;</text>
</a>
</g>
</g>
<!-- Node9&#45;&gt;Node15 -->
<g id="edge18" class="edge">
<title>Node9&#45;&gt;Node15</title>
<path fill="none" stroke="#9a32cd" stroke-dasharray="5,2" d="M39.59,-97.98C100.57,-95.4 261.96,-88.58 344.25,-85.1"/>
<polygon fill="#9a32cd" stroke="#9a32cd" points="39.26,-94.49 29.42,-98.41 39.56,-101.49 39.26,-94.49"/>
<text text-anchor="middle" x="134" y="-99" font-family="Helvetica,sans-Serif" font-size="10.00"> elements</text>
</g>
<!-- Node10 -->
<g id="node10" class="node">
<title>Node10</title>
<g id="a_node10"><a target="_parent" xlink:href="https://www.itk.org/Doxygen/html/classitk_1_1MetaDataDictionary.html" xlink:title=" ">
<polygon fill="white" stroke="black" points="328,-265.5 328,-284.5 462,-284.5 462,-265.5 328,-265.5"/>
<text text-anchor="middle" x="395" y="-272.5" font-family="Helvetica,sans-Serif" font-size="10.00">itk::MetaDataDictionary</text>
</a>
</g>
</g>
<!-- Node10&#45;&gt;Node5 -->
<g id="edge9" class="edge">
<title>Node10&#45;&gt;Node5</title>
<path fill="none" stroke="#9a32cd" stroke-dasharray="5,2" d="M472.22,-267.99C517.26,-263.79 575.39,-258.25 627,-253 649.92,-250.67 675.74,-247.87 695.6,-245.68"/>
<polygon fill="#9a32cd" stroke="#9a32cd" points="471.87,-264.51 462.24,-268.92 472.52,-271.48 471.87,-264.51"/>
<text text-anchor="middle" x="553.5" y="-269" font-family="Helvetica,sans-Serif" font-size="10.00"> m_MetaDataDictionary</text>
</g>
<!-- Node11 -->
<g id="node11" class="node">
<title>Node11</title>
<g id="a_node11"><a xlink:title=" ">
<polygon fill="white" stroke="#bfbfbf" points="362.5,-138.5 362.5,-157.5 427.5,-157.5 427.5,-138.5 362.5,-138.5"/>
<text text-anchor="middle" x="395" y="-145.5" font-family="Helvetica,sans-Serif" font-size="10.00">std::string</text>
</a>
</g>
</g>
<!-- Node11&#45;&gt;Node1 -->
<g id="edge23" class="edge">
<title>Node11&#45;&gt;Node1</title>
<path fill="none" stroke="#9a32cd" stroke-dasharray="5,2" d="M437.44,-141.23C500.22,-131.57 623.27,-115 728.5,-115 728.5,-115 728.5,-115 1306.5,-115 1353,-115 1405.59,-122.75 1442.34,-129.45"/>
<polygon fill="#9a32cd" stroke="#9a32cd" points="436.87,-137.77 427.53,-142.77 437.95,-144.69 436.87,-137.77"/>
<text text-anchor="middle" x="1041" y="-140" font-family="Helvetica,sans-Serif" font-size="10.00"> m_Compressor</text>
<text text-anchor="middle" x="1041" y="-129" font-family="Helvetica,sans-Serif" font-size="10.00">m_FileName</text>
<text text-anchor="middle" x="1041" y="-118" font-family="Helvetica,sans-Serif" font-size="10.00">m_ImageIOName</text>
</g>
<!-- Node11&#45;&gt;Node5 -->
<g id="edge10" class="edge">
<title>Node11&#45;&gt;Node5</title>
<path fill="none" stroke="#9a32cd" stroke-dasharray="5,2" d="M437.81,-153.97C504.37,-163.48 627,-181 627,-181 639.7,-189.3 633.31,-200.34 645,-210 659.6,-222.07 679.25,-229.9 695.82,-234.79"/>
<polygon fill="#9a32cd" stroke="#9a32cd" points="438.03,-150.47 427.64,-152.52 437.04,-157.4 438.03,-150.47"/>
<text text-anchor="middle" x="553.5" y="-184" font-family="Helvetica,sans-Serif" font-size="10.00"> m_ObjectName</text>
</g>
<!-- Node13 -->
<g id="node13" class="node">
<title>Node13</title>
<g id="a_node13"><a xlink:title=" ">
<polygon fill="white" stroke="#bfbfbf" points="645,-43 645,-73 814,-73 814,-43 645,-43"/>
<text text-anchor="start" x="653" y="-61" font-family="Helvetica,sans-Serif" font-size="10.00">std::map&lt; DataObjectIdentifier</text>
<text text-anchor="middle" x="729.5" y="-50" font-family="Helvetica,sans-Serif" font-size="10.00">Type, DataObjectPointer &gt;</text>
</a>
</g>
</g>
<!-- Node11&#45;&gt;Node13 -->
<g id="edge14" class="edge">
<title>Node11&#45;&gt;Node13</title>
<path fill="none" stroke="#9a32cd" stroke-dasharray="5,2" d="M418.2,-132.49C442.49,-115.53 478.26,-90.67 480,-90 495.31,-84.13 578.76,-74.08 644.79,-66.8"/>
<polygon fill="#9a32cd" stroke="#9a32cd" points="416.04,-129.72 409.85,-138.32 420.05,-135.46 416.04,-129.72"/>
<text text-anchor="middle" x="553.5" y="-93" font-family="Helvetica,sans-Serif" font-size="10.00"> keys</text>
</g>
<!-- Node17 -->
<g id="node17" class="node">
<title>Node17</title>
<g id="a_node17"><a xlink:title=" ">
<polygon fill="white" stroke="#bfbfbf" points="648.5,-171 648.5,-201 810.5,-201 810.5,-171 648.5,-171"/>
<text text-anchor="start" x="656.5" y="-189" font-family="Helvetica,sans-Serif" font-size="10.00">std::set&lt; DataObjectIdentifier</text>
<text text-anchor="middle" x="729.5" y="-178" font-family="Helvetica,sans-Serif" font-size="10.00">Type &gt;</text>
</a>
</g>
</g>
<!-- Node11&#45;&gt;Node17 -->
<g id="edge20" class="edge">
<title>Node11&#45;&gt;Node17</title>
<path fill="none" stroke="#9a32cd" stroke-dasharray="5,2" d="M437.71,-143.91C484.27,-140.32 561.67,-137.32 627,-149 650.82,-153.26 676.4,-162.62 695.93,-170.86"/>
<polygon fill="#9a32cd" stroke="#9a32cd" points="437.38,-140.42 427.7,-144.72 437.95,-147.4 437.38,-140.42"/>
<text text-anchor="middle" x="553.5" y="-152" font-family="Helvetica,sans-Serif" font-size="10.00"> keys</text>
</g>
<!-- Node12 -->
<g id="node12" class="node">
<title>Node12</title>
<g id="a_node12"><a xlink:title=" ">
<polygon fill="white" stroke="#bfbfbf" points="82,-161 82,-191 186,-191 186,-161 82,-161"/>
<text text-anchor="start" x="90" y="-179" font-family="Helvetica,sans-Serif" font-size="10.00">std::basic_string&lt;</text>
<text text-anchor="middle" x="134" y="-168" font-family="Helvetica,sans-Serif" font-size="10.00"> Char &gt;</text>
</a>
</g>
</g>
<!-- Node12&#45;&gt;Node11 -->
<g id="edge11" class="edge">
<title>Node12&#45;&gt;Node11</title>
<path fill="none" stroke="midnightblue" d="M196.19,-172.39C229.84,-170.08 272.3,-166.64 310,-162 327.31,-159.87 346.51,-156.73 362.18,-153.96"/>
<polygon fill="midnightblue" stroke="midnightblue" points="195.78,-168.91 186.04,-173.07 196.25,-175.89 195.78,-168.91"/>
</g>
<!-- Node13&#45;&gt;Node4 -->
<g id="edge13" class="edge">
<title>Node13&#45;&gt;Node4</title>
<path fill="none" stroke="#9a32cd" stroke-dasharray="5,2" d="M776.4,-76.98C843.53,-104.75 966.02,-155.41 1016.89,-176.44"/>
<polygon fill="#9a32cd" stroke="#9a32cd" points="777.49,-73.65 766.91,-73.06 774.82,-80.12 777.49,-73.65"/>
<text text-anchor="middle" x="892.5" y="-163" font-family="Helvetica,sans-Serif" font-size="10.00"> m_Inputs</text>
<text text-anchor="middle" x="892.5" y="-152" font-family="Helvetica,sans-Serif" font-size="10.00">m_Outputs</text>
</g>
<!-- Node14 -->
<g id="node14" class="node">
<title>Node14</title>
<g id="a_node14"><a target="_parent" xlink:href="https://www.itk.org/Doxygen/html/classitk_1_1SmartPointer.html" xlink:title=" ">
<polygon fill="white" stroke="black" points="334,-0.5 334,-19.5 456,-19.5 456,-0.5 334,-0.5"/>
<text text-anchor="middle" x="395" y="-7.5" font-family="Helvetica,sans-Serif" font-size="10.00">SmartPointer&lt; Self &gt;</text>
</a>
</g>
</g>
<!-- Node14&#45;&gt;Node13 -->
<g id="edge15" class="edge">
<title>Node14&#45;&gt;Node13</title>
<path fill="none" stroke="#9a32cd" stroke-dasharray="5,2" d="M466.57,-8.96C512.64,-9.5 573.87,-12.55 627,-23 649.31,-27.39 673.41,-35.54 692.52,-42.88"/>
<polygon fill="#9a32cd" stroke="#9a32cd" points="466.42,-5.46 456.39,-8.88 466.36,-12.46 466.42,-5.46"/>
<text text-anchor="middle" x="553.5" y="-26" font-family="Helvetica,sans-Serif" font-size="10.00"> elements</text>
</g>
<!-- Node15&#45;&gt;Node13 -->
<g id="edge16" class="edge">
<title>Node15&#45;&gt;Node13</title>
<path fill="none" stroke="orange" stroke-dasharray="5,2" d="M420.55,-68.53C436.81,-59.81 458.94,-49.54 480,-45 534.69,-33.21 597.64,-36.67 646.49,-42.97"/>
<polygon fill="orange" stroke="orange" points="418.76,-65.52 411.71,-73.43 422.15,-71.64 418.76,-65.52"/>
<text text-anchor="start" x="484" y="-59" font-family="Helvetica,sans-Serif" font-size="10.00"> &lt; DataObjectIdentifierType,</text>
<text text-anchor="middle" x="553.5" y="-48" font-family="Helvetica,sans-Serif" font-size="10.00"> DataObjectPointer &gt;</text>
</g>
<!-- Node16 -->
<g id="node16" class="node">
<title>Node16</title>
<g id="a_node16"><a xlink:title=" ">
<polygon fill="white" stroke="#bfbfbf" points="119.5,-117.5 119.5,-136.5 148.5,-136.5 148.5,-117.5 119.5,-117.5"/>
<text text-anchor="middle" x="134" y="-124.5" font-family="Helvetica,sans-Serif" font-size="10.00">K</text>
</a>
</g>
</g>
<!-- Node16&#45;&gt;Node15 -->
<g id="edge17" class="edge">
<title>Node16&#45;&gt;Node15</title>
<path fill="none" stroke="#9a32cd" stroke-dasharray="5,2" d="M158.63,-122.99C200.54,-115.87 288.69,-100.89 344.42,-91.42"/>
<polygon fill="#9a32cd" stroke="#9a32cd" points="157.83,-119.57 148.56,-124.7 159.01,-126.47 157.83,-119.57"/>
<text text-anchor="middle" x="257" y="-119" font-family="Helvetica,sans-Serif" font-size="10.00"> keys</text>
</g>
<!-- Node18 -->
<g id="node18" class="node">
<title>Node18</title>
<g id="a_node18"><a xlink:title=" ">
<polygon fill="white" stroke="#bfbfbf" points="354,-183.5 354,-202.5 436,-202.5 436,-183.5 354,-183.5"/>
<text text-anchor="middle" x="395" y="-190.5" font-family="Helvetica,sans-Serif" font-size="10.00">std::set&lt; K &gt;</text>
</a>
</g>
</g>
<!-- Node16&#45;&gt;Node18 -->
<g id="edge22" class="edge">
<title>Node16&#45;&gt;Node18</title>
<path fill="none" stroke="#9a32cd" stroke-dasharray="5,2" d="M158.25,-132.93C203.09,-144.35 301.86,-169.52 356.24,-183.38"/>
<polygon fill="#9a32cd" stroke="#9a32cd" points="159.11,-129.53 148.56,-130.46 157.39,-136.32 159.11,-129.53"/>
<text text-anchor="middle" x="257" y="-173" font-family="Helvetica,sans-Serif" font-size="10.00"> keys</text>
</g>
<!-- Node17&#45;&gt;Node4 -->
<g id="edge19" class="edge">
<title>Node17&#45;&gt;Node4</title>
<path fill="none" stroke="#9a32cd" stroke-dasharray="5,2" d="M820.66,-186C875.38,-186 943.22,-186 988.85,-186"/>
<polygon fill="#9a32cd" stroke="#9a32cd" points="820.61,-182.5 810.61,-186 820.61,-189.5 820.61,-182.5"/>
<text text-anchor="middle" x="892.5" y="-189" font-family="Helvetica,sans-Serif" font-size="10.00"> m_RequiredInputNames</text>
</g>
<!-- Node18&#45;&gt;Node17 -->
<g id="edge21" class="edge">
<title>Node18&#45;&gt;Node17</title>
<path fill="none" stroke="orange" stroke-dasharray="5,2" d="M446.18,-193.7C457.31,-193.82 469.06,-193.93 480,-194 545.33,-194.39 561.72,-196.57 627,-194 633.98,-193.73 641.22,-193.35 648.47,-192.9"/>
<polygon fill="orange" stroke="orange" points="446.2,-190.2 436.16,-193.58 446.12,-197.19 446.2,-190.2"/>
<text text-anchor="middle" x="553.5" y="-199" font-family="Helvetica,sans-Serif" font-size="10.00"> &lt; DataObjectIdentifierType &gt;</text>
</g>
</g>
</svg>
