<?xml version="1.0" encoding="UTF-8" standalone="no"?>
<!DOCTYPE svg PUBLIC "-//W3C//DTD SVG 1.1//EN"
 "http://www.w3.org/Graphics/SVG/1.1/DTD/svg11.dtd">
<!-- Generated by graphviz version 2.43.0 (0)
 -->
<!-- Title: itk::simple::TriangleThresholdImageFilter Pages: 1 -->
<svg width="169pt" height="207pt"
 viewBox="0.00 0.00 169.00 207.00" xmlns="http://www.w3.org/2000/svg" xmlns:xlink="http://www.w3.org/1999/xlink">
<g id="graph0" class="graph" transform="scale(1 1) rotate(0) translate(4 203)">
<title>itk::simple::TriangleThresholdImageFilter</title>
<polygon fill="white" stroke="transparent" points="-4,4 -4,-203 165,-203 165,4 -4,4"/>
<!-- Node1 -->
<g id="node1" class="node">
<title>Node1</title>
<g id="a_node1"><a xlink:title="Threshold an image using the Triangle Threshold.">
<polygon fill="#bfbfbf" stroke="black" points="0,-0.5 0,-30.5 161,-30.5 161,-0.5 0,-0.5"/>
<text text-anchor="start" x="8" y="-18.5" font-family="Helvetica,sans-Serif" font-size="10.00">itk::simple::TriangleThreshold</text>
<text text-anchor="middle" x="80.5" y="-7.5" font-family="Helvetica,sans-Serif" font-size="10.00">ImageFilter</text>
</a>
</g>
</g>
<!-- Node2 -->
<g id="node2" class="node">
<title>Node2</title>
<g id="a_node2"><a xlink:href="classitk_1_1simple_1_1ImageFilter.html" target="_top" xlink:title="The base interface for SimpleITK filters that take one input image.">
<polygon fill="white" stroke="black" points="15.5,-67.5 15.5,-86.5 145.5,-86.5 145.5,-67.5 15.5,-67.5"/>
<text text-anchor="middle" x="80.5" y="-74.5" font-family="Helvetica,sans-Serif" font-size="10.00">itk::simple::ImageFilter</text>
</a>
</g>
</g>
<!-- Node2&#45;&gt;Node1 -->
<g id="edge1" class="edge">
<title>Node2&#45;&gt;Node1</title>
<path fill="none" stroke="midnightblue" d="M80.5,-57.23C80.5,-48.59 80.5,-38.5 80.5,-30.52"/>
<polygon fill="midnightblue" stroke="midnightblue" points="77,-57.48 80.5,-67.48 84,-57.48 77,-57.48"/>
</g>
<!-- Node3 -->
<g id="node3" class="node">
<title>Node3</title>
<g id="a_node3"><a xlink:href="classitk_1_1simple_1_1ProcessObject.html" target="_top" xlink:title="Base class for SimpleITK classes based on ProcessObject.">
<polygon fill="white" stroke="black" points="9,-123.5 9,-142.5 152,-142.5 152,-123.5 9,-123.5"/>
<text text-anchor="middle" x="80.5" y="-130.5" font-family="Helvetica,sans-Serif" font-size="10.00">itk::simple::ProcessObject</text>
</a>
</g>
</g>
<!-- Node3&#45;&gt;Node2 -->
<g id="edge2" class="edge">
<title>Node3&#45;&gt;Node2</title>
<path fill="none" stroke="midnightblue" d="M80.5,-112.8C80.5,-103.91 80.5,-93.78 80.5,-86.75"/>
<polygon fill="midnightblue" stroke="midnightblue" points="77,-113.08 80.5,-123.08 84,-113.08 77,-113.08"/>
</g>
<!-- Node4 -->
<g id="node4" class="node">
<title>Node4</title>
<g id="a_node4"><a xlink:href="classitk_1_1simple_1_1NonCopyable.html" target="_top" xlink:title="An inheritable class to disable copying of a class.">
<polygon fill="white" stroke="black" points="10.5,-179.5 10.5,-198.5 150.5,-198.5 150.5,-179.5 10.5,-179.5"/>
<text text-anchor="middle" x="80.5" y="-186.5" font-family="Helvetica,sans-Serif" font-size="10.00">itk::simple::NonCopyable</text>
</a>
</g>
</g>
<!-- Node4&#45;&gt;Node3 -->
<g id="edge3" class="edge">
<title>Node4&#45;&gt;Node3</title>
<path fill="none" stroke="darkgreen" d="M80.5,-168.8C80.5,-159.91 80.5,-149.78 80.5,-142.75"/>
<polygon fill="darkgreen" stroke="darkgreen" points="77,-169.08 80.5,-179.08 84,-169.08 77,-169.08"/>
</g>
</g>
</svg>
