<?xml version="1.0" encoding="UTF-8" standalone="no"?>
<!DOCTYPE svg PUBLIC "-//W3C//DTD SVG 1.1//EN"
 "http://www.w3.org/Graphics/SVG/1.1/DTD/svg11.dtd">
<!-- Generated by graphviz version 2.43.0 (0)
 -->
<!-- Title: itk::simple::DICOMOrientImageFilter Pages: 1 -->
<!--zoomable 336 -->
<svg id="main" version="1.1" xmlns="http://www.w3.org/2000/svg" xmlns:xlink="http://www.w3.org/1999/xlink" xml:space="preserve" onload="init(evt)">
<style type="text/css"><![CDATA[
.edge:hover path { stroke: red; }
.edge:hover polygon { stroke: red; fill: red; }
]]></style>
<script type="text/javascript"><![CDATA[
var edges = document.getElementsByTagName('g');
if (edges && edges.length) {
  for (var i=0;i<edges.length;i++) {
    if (edges[i].id.substr(0,4)=='edge') {
      edges[i].setAttribute('class','edge');
    }
  }
}
]]></script>
        <defs>
                <circle id="rim" cx="0" cy="0" r="7"/>
                <circle id="rim2" cx="0" cy="0" r="3.5"/>
                <g id="zoomPlus">
                        <use xlink:href="#rim" fill="#404040">
                                <set attributeName="fill" to="#808080" begin="zoomplus.mouseover" end="zoomplus.mouseout"/>
                        </use>
                        <path d="M-4,0h8M0,-4v8" fill="none" stroke="white" stroke-width="1.5" pointer-events="none"/>
                </g>
                <g id="zoomMin">
                        <use xlink:href="#rim" fill="#404040">
                                <set attributeName="fill" to="#808080" begin="zoomminus.mouseover" end="zoomminus.mouseout"/>
                        </use>
                        <path d="M-4,0h8" fill="none" stroke="white" stroke-width="1.5" pointer-events="none"/>
                </g>
                <g id="dirArrow">
                        <path fill="none" stroke="white" stroke-width="1.5" d="M0,-3.0v7 M-2.5,-0.5L0,-3.0L2.5,-0.5"/>
                </g>
               <g id="resetDef">
                       <use xlink:href="#rim2" fill="#404040">
                               <set attributeName="fill" to="#808080" begin="reset.mouseover" end="reset.mouseout"/>
                       </use>
               </g>
        </defs>

<script type="text/javascript">
var viewWidth = 1804;
var viewHeight = 336;
var sectionId = 'dynsection-1';
</script>
<script xlink:href="svgpan.js"/>
<svg id="graph" class="graph">
<g id="viewport">
<title>itk::simple::DICOMOrientImageFilter</title>
<polygon fill="white" stroke="transparent" points="-4,4 -4,-332 1800,-332 1800,4 -4,4"/>
<!-- Node1 -->
<g id="node1" class="node">
<title>Node1</title>
<g id="a_node1"><a xlink:title="Permute axes and flip images as needed to obtain an approximation to the desired orientation.">
<polygon fill="#bfbfbf" stroke="black" points="1658,-118 1658,-148 1796,-148 1796,-118 1658,-118"/>
<text text-anchor="start" x="1666" y="-136" font-family="Helvetica,sans-Serif" font-size="10.00">itk::simple::DICOMOrient</text>
<text text-anchor="middle" x="1727" y="-125" font-family="Helvetica,sans-Serif" font-size="10.00">ImageFilter</text>
</a>
</g>
</g>
<!-- Node2 -->
<g id="node2" class="node">
<title>Node2</title>
<g id="a_node2"><a xlink:href="classitk_1_1simple_1_1ImageFilter.html" target="_top" xlink:title="The base interface for SimpleITK filters that take one input image.">
<polygon fill="white" stroke="black" points="1491,-153.5 1491,-172.5 1621,-172.5 1621,-153.5 1491,-153.5"/>
<text text-anchor="middle" x="1556" y="-160.5" font-family="Helvetica,sans-Serif" font-size="10.00">itk::simple::ImageFilter</text>
</a>
</g>
</g>
<!-- Node2&#45;&gt;Node1 -->
<g id="edge1" class="edge">
<title>Node2&#45;&gt;Node1</title>
<path fill="none" stroke="midnightblue" d="M1620.89,-151.66C1632.92,-149.52 1645.56,-147.28 1657.72,-145.12"/>
<polygon fill="midnightblue" stroke="midnightblue" points="1620.17,-148.23 1610.94,-153.43 1621.4,-155.12 1620.17,-148.23"/>
</g>
<!-- Node3 -->
<g id="node3" class="node">
<title>Node3</title>
<g id="a_node3"><a xlink:href="classitk_1_1simple_1_1ProcessObject.html" target="_top" xlink:title="Base class for SimpleITK classes based on ProcessObject.">
<polygon fill="white" stroke="black" points="1311,-163.5 1311,-182.5 1454,-182.5 1454,-163.5 1311,-163.5"/>
<text text-anchor="middle" x="1382.5" y="-170.5" font-family="Helvetica,sans-Serif" font-size="10.00">itk::simple::ProcessObject</text>
</a>
</g>
</g>
<!-- Node3&#45;&gt;Node2 -->
<g id="edge2" class="edge">
<title>Node3&#45;&gt;Node2</title>
<path fill="none" stroke="midnightblue" d="M1464.23,-168.29C1473.12,-167.77 1482.09,-167.25 1490.74,-166.75"/>
<polygon fill="midnightblue" stroke="midnightblue" points="1464.03,-164.8 1454.25,-168.87 1464.43,-171.79 1464.03,-164.8"/>
</g>
<!-- Node4 -->
<g id="node4" class="node">
<title>Node4</title>
<g id="a_node4"><a xlink:href="classitk_1_1simple_1_1NonCopyable.html" target="_top" xlink:title="An inheritable class to disable copying of a class.">
<polygon fill="white" stroke="black" points="971,-201.5 971,-220.5 1111,-220.5 1111,-201.5 971,-201.5"/>
<text text-anchor="middle" x="1041" y="-208.5" font-family="Helvetica,sans-Serif" font-size="10.00">itk::simple::NonCopyable</text>
</a>
</g>
</g>
<!-- Node4&#45;&gt;Node3 -->
<g id="edge3" class="edge">
<title>Node4&#45;&gt;Node3</title>
<path fill="none" stroke="darkgreen" d="M1121.14,-205.31C1170.64,-201.36 1235.66,-195.48 1293,-188 1304.74,-186.47 1317.32,-184.52 1329.19,-182.55"/>
<polygon fill="darkgreen" stroke="darkgreen" points="1120.83,-201.82 1111.14,-206.1 1121.38,-208.8 1120.83,-201.82"/>
</g>
<!-- Node5 -->
<g id="node5" class="node">
<title>Node5</title>
<g id="a_node5"><a target="_parent" xlink:href="https://www.itk.org/Doxygen/html/classitk_1_1ProcessObject.html" xlink:title=" ">
<polygon fill="white" stroke="black" points="989,-163.5 989,-182.5 1093,-182.5 1093,-163.5 989,-163.5"/>
<text text-anchor="middle" x="1041" y="-170.5" font-family="Helvetica,sans-Serif" font-size="10.00">itk::ProcessObject</text>
</a>
</g>
</g>
<!-- Node5&#45;&gt;Node3 -->
<g id="edge4" class="edge">
<title>Node5&#45;&gt;Node3</title>
<path fill="none" stroke="#9a32cd" stroke-dasharray="5,2" d="M1103.39,-173C1161.82,-173 1249.69,-173 1310.97,-173"/>
<polygon fill="#9a32cd" stroke="#9a32cd" points="1103.19,-169.5 1093.19,-173 1103.19,-176.5 1103.19,-169.5"/>
<text text-anchor="middle" x="1211" y="-176" font-family="Helvetica,sans-Serif" font-size="10.00"> m_ActiveProcess</text>
</g>
<!-- Node6 -->
<g id="node6" class="node">
<title>Node6</title>
<g id="a_node6"><a target="_parent" xlink:href="https://www.itk.org/Doxygen/html/classitk_1_1Object.html" xlink:title=" ">
<polygon fill="white" stroke="black" points="696,-232.5 696,-251.5 763,-251.5 763,-232.5 696,-232.5"/>
<text text-anchor="middle" x="729.5" y="-239.5" font-family="Helvetica,sans-Serif" font-size="10.00">itk::Object</text>
</a>
</g>
</g>
<!-- Node6&#45;&gt;Node5 -->
<g id="edge5" class="edge">
<title>Node6&#45;&gt;Node5</title>
<path fill="none" stroke="midnightblue" d="M773.15,-232.49C832.2,-219.33 938.27,-195.68 997.34,-182.51"/>
<polygon fill="midnightblue" stroke="midnightblue" points="772.04,-229.15 763.04,-234.75 773.56,-235.99 772.04,-229.15"/>
</g>
<!-- Node7 -->
<g id="node7" class="node">
<title>Node7</title>
<g id="a_node7"><a target="_parent" xlink:href="https://www.itk.org/Doxygen/html/classitk_1_1LightObject.html" xlink:title=" ">
<polygon fill="white" stroke="black" points="349.5,-227.5 349.5,-246.5 440.5,-246.5 440.5,-227.5 349.5,-227.5"/>
<text text-anchor="middle" x="395" y="-234.5" font-family="Helvetica,sans-Serif" font-size="10.00">itk::LightObject</text>
</a>
</g>
</g>
<!-- Node7&#45;&gt;Node6 -->
<g id="edge6" class="edge">
<title>Node7&#45;&gt;Node6</title>
<path fill="none" stroke="midnightblue" d="M451.2,-237.83C521,-238.88 638.94,-240.65 695.85,-241.51"/>
<polygon fill="midnightblue" stroke="midnightblue" points="450.89,-234.33 440.84,-237.67 450.79,-241.32 450.89,-234.33"/>
</g>
<!-- Node8 -->
<g id="node8" class="node">
<title>Node8</title>
<g id="a_node8"><a target="_parent" xlink:href="https://www.itk.org/Doxygen/html/classitk_1_1TimeStamp.html" xlink:title=" ">
<polygon fill="white" stroke="black" points="349,-303.5 349,-322.5 441,-322.5 441,-303.5 349,-303.5"/>
<text text-anchor="middle" x="395" y="-310.5" font-family="Helvetica,sans-Serif" font-size="10.00">itk::TimeStamp</text>
</a>
</g>
</g>
<!-- Node8&#45;&gt;Node5 -->
<g id="edge13" class="edge">
<title>Node8&#45;&gt;Node5</title>
<path fill="none" stroke="#9a32cd" stroke-dasharray="5,2" d="M451.41,-320.2C498.41,-324.99 567.48,-328.92 627,-320 776.88,-297.53 832.22,-311.54 953,-220 964.79,-211.06 959.08,-200.76 971,-192 976.31,-188.1 982.37,-185 988.66,-182.53"/>
<polygon fill="#9a32cd" stroke="#9a32cd" points="451.75,-316.71 441.43,-319.13 451,-323.67 451.75,-316.71"/>
<text text-anchor="middle" x="729.5" y="-320" font-family="Helvetica,sans-Serif" font-size="10.00"> m_OutputInformationMTime</text>
</g>
<!-- Node8&#45;&gt;Node6 -->
<g id="edge7" class="edge">
<title>Node8&#45;&gt;Node6</title>
<path fill="none" stroke="#9a32cd" stroke-dasharray="5,2" d="M451.33,-308.92C498.57,-304.59 568.01,-296.2 627,-281 655.7,-273.6 687.37,-260.61 707.58,-251.67"/>
<polygon fill="#9a32cd" stroke="#9a32cd" points="450.96,-305.44 441.31,-309.81 451.58,-312.41 450.96,-305.44"/>
<text text-anchor="middle" x="553.5" y="-308" font-family="Helvetica,sans-Serif" font-size="10.00"> m_MTime</text>
</g>
<!-- Node9 -->
<g id="node9" class="node">
<title>Node9</title>
<g id="a_node9"><a xlink:title=" ">
<polygon fill="white" stroke="#bfbfbf" points="84,-256.5 84,-275.5 184,-275.5 184,-256.5 84,-256.5"/>
<text text-anchor="middle" x="134" y="-263.5" font-family="Helvetica,sans-Serif" font-size="10.00">std::atomic&lt; T &gt;</text>
</a>
</g>
</g>
<!-- Node9&#45;&gt;Node8 -->
<g id="edge8" class="edge">
<title>Node9&#45;&gt;Node8</title>
<path fill="none" stroke="#9a32cd" stroke-dasharray="5,2" d="M194.05,-276.72C241,-285.24 305.71,-296.98 348.65,-304.77"/>
<polygon fill="#9a32cd" stroke="#9a32cd" points="194.48,-273.24 184.02,-274.9 193.23,-280.12 194.48,-273.24"/>
<text text-anchor="middle" x="257" y="-299" font-family="Helvetica,sans-Serif" font-size="10.00"> m_GlobalTimeStamp</text>
</g>
<!-- Node10 -->
<g id="node10" class="node">
<title>Node10</title>
<g id="a_node10"><a xlink:title=" ">
<polygon fill="white" stroke="#bfbfbf" points="0,-89.5 0,-108.5 29,-108.5 29,-89.5 0,-89.5"/>
<text text-anchor="middle" x="14.5" y="-96.5" font-family="Helvetica,sans-Serif" font-size="10.00">T</text>
</a>
</g>
</g>
<!-- Node10&#45;&gt;Node9 -->
<g id="edge9" class="edge">
<title>Node10&#45;&gt;Node9</title>
<path fill="none" stroke="#9a32cd" stroke-dasharray="5,2" d="M26.93,-117.25C39.87,-137.69 61.78,-171.68 82,-200 96.64,-220.51 114.94,-243.63 125.16,-256.33"/>
<polygon fill="#9a32cd" stroke="#9a32cd" points="29.79,-115.23 21.5,-108.63 23.87,-118.96 29.79,-115.23"/>
<text text-anchor="middle" x="55.5" y="-176" font-family="Helvetica,sans-Serif" font-size="10.00"> ptr</text>
</g>
<!-- Node16 -->
<g id="node16" class="node">
<title>Node16</title>
<g id="a_node16"><a xlink:title=" ">
<polygon fill="white" stroke="#bfbfbf" points="344.5,-73.5 344.5,-92.5 445.5,-92.5 445.5,-73.5 344.5,-73.5"/>
<text text-anchor="middle" x="395" y="-80.5" font-family="Helvetica,sans-Serif" font-size="10.00">std::map&lt; K, T &gt;</text>
</a>
</g>
</g>
<!-- Node10&#45;&gt;Node16 -->
<g id="edge19" class="edge">
<title>Node10&#45;&gt;Node16</title>
<path fill="none" stroke="#9a32cd" stroke-dasharray="5,2" d="M39.59,-97.98C100.57,-95.4 261.96,-88.58 344.25,-85.1"/>
<polygon fill="#9a32cd" stroke="#9a32cd" points="39.26,-94.49 29.42,-98.41 39.56,-101.49 39.26,-94.49"/>
<text text-anchor="middle" x="134" y="-99" font-family="Helvetica,sans-Serif" font-size="10.00"> elements</text>
</g>
<!-- Node11 -->
<g id="node11" class="node">
<title>Node11</title>
<g id="a_node11"><a target="_parent" xlink:href="https://www.itk.org/Doxygen/html/classitk_1_1MetaDataDictionary.html" xlink:title=" ">
<polygon fill="white" stroke="black" points="328,-265.5 328,-284.5 462,-284.5 462,-265.5 328,-265.5"/>
<text text-anchor="middle" x="395" y="-272.5" font-family="Helvetica,sans-Serif" font-size="10.00">itk::MetaDataDictionary</text>
</a>
</g>
</g>
<!-- Node11&#45;&gt;Node6 -->
<g id="edge10" class="edge">
<title>Node11&#45;&gt;Node6</title>
<path fill="none" stroke="#9a32cd" stroke-dasharray="5,2" d="M472.22,-267.99C517.26,-263.79 575.39,-258.25 627,-253 649.92,-250.67 675.74,-247.87 695.6,-245.68"/>
<polygon fill="#9a32cd" stroke="#9a32cd" points="471.87,-264.51 462.24,-268.92 472.52,-271.48 471.87,-264.51"/>
<text text-anchor="middle" x="553.5" y="-269" font-family="Helvetica,sans-Serif" font-size="10.00"> m_MetaDataDictionary</text>
</g>
<!-- Node12 -->
<g id="node12" class="node">
<title>Node12</title>
<g id="a_node12"><a xlink:title=" ">
<polygon fill="white" stroke="#bfbfbf" points="362.5,-138.5 362.5,-157.5 427.5,-157.5 427.5,-138.5 362.5,-138.5"/>
<text text-anchor="middle" x="395" y="-145.5" font-family="Helvetica,sans-Serif" font-size="10.00">std::string</text>
</a>
</g>
</g>
<!-- Node12&#45;&gt;Node1 -->
<g id="edge24" class="edge">
<title>Node12&#45;&gt;Node1</title>
<path fill="none" stroke="#9a32cd" stroke-dasharray="5,2" d="M437.44,-141.23C500.22,-131.57 623.27,-115 728.5,-115 728.5,-115 728.5,-115 1557,-115 1590.34,-115 1627.18,-118.51 1657.93,-122.43"/>
<polygon fill="#9a32cd" stroke="#9a32cd" points="436.87,-137.77 427.53,-142.77 437.95,-144.69 436.87,-137.77"/>
<text text-anchor="middle" x="1211" y="-118" font-family="Helvetica,sans-Serif" font-size="10.00"> m_DesiredCoordinateOrientation</text>
</g>
<!-- Node12&#45;&gt;Node6 -->
<g id="edge11" class="edge">
<title>Node12&#45;&gt;Node6</title>
<path fill="none" stroke="#9a32cd" stroke-dasharray="5,2" d="M437.81,-153.97C504.37,-163.48 627,-181 627,-181 636.71,-185.5 636.23,-190.86 645,-197 665.1,-211.07 690.09,-224 707.47,-232.36"/>
<polygon fill="#9a32cd" stroke="#9a32cd" points="438.03,-150.47 427.64,-152.52 437.04,-157.4 438.03,-150.47"/>
<text text-anchor="middle" x="553.5" y="-184" font-family="Helvetica,sans-Serif" font-size="10.00"> m_ObjectName</text>
</g>
<!-- Node14 -->
<g id="node14" class="node">
<title>Node14</title>
<g id="a_node14"><a xlink:title=" ">
<polygon fill="white" stroke="#bfbfbf" points="645,-43 645,-73 814,-73 814,-43 645,-43"/>
<text text-anchor="start" x="653" y="-61" font-family="Helvetica,sans-Serif" font-size="10.00">std::map&lt; DataObjectIdentifier</text>
<text text-anchor="middle" x="729.5" y="-50" font-family="Helvetica,sans-Serif" font-size="10.00">Type, DataObjectPointer &gt;</text>
</a>
</g>
</g>
<!-- Node12&#45;&gt;Node14 -->
<g id="edge15" class="edge">
<title>Node12&#45;&gt;Node14</title>
<path fill="none" stroke="#9a32cd" stroke-dasharray="5,2" d="M418.2,-132.49C442.49,-115.53 478.26,-90.67 480,-90 495.31,-84.13 578.76,-74.08 644.79,-66.8"/>
<polygon fill="#9a32cd" stroke="#9a32cd" points="416.04,-129.72 409.85,-138.32 420.05,-135.46 416.04,-129.72"/>
<text text-anchor="middle" x="553.5" y="-93" font-family="Helvetica,sans-Serif" font-size="10.00"> keys</text>
</g>
<!-- Node18 -->
<g id="node18" class="node">
<title>Node18</title>
<g id="a_node18"><a xlink:title=" ">
<polygon fill="white" stroke="#bfbfbf" points="648.5,-158 648.5,-188 810.5,-188 810.5,-158 648.5,-158"/>
<text text-anchor="start" x="656.5" y="-176" font-family="Helvetica,sans-Serif" font-size="10.00">std::set&lt; DataObjectIdentifier</text>
<text text-anchor="middle" x="729.5" y="-165" font-family="Helvetica,sans-Serif" font-size="10.00">Type &gt;</text>
</a>
</g>
</g>
<!-- Node12&#45;&gt;Node18 -->
<g id="edge21" class="edge">
<title>Node12&#45;&gt;Node18</title>
<path fill="none" stroke="#9a32cd" stroke-dasharray="5,2" d="M437.79,-145.34C484.19,-143.04 561.24,-141.19 627,-149 642.82,-150.88 659.76,-154.3 675.18,-157.99"/>
<polygon fill="#9a32cd" stroke="#9a32cd" points="437.33,-141.85 427.52,-145.88 437.69,-148.85 437.33,-141.85"/>
<text text-anchor="middle" x="553.5" y="-152" font-family="Helvetica,sans-Serif" font-size="10.00"> keys</text>
</g>
<!-- Node13 -->
<g id="node13" class="node">
<title>Node13</title>
<g id="a_node13"><a xlink:title=" ">
<polygon fill="white" stroke="#bfbfbf" points="82,-161 82,-191 186,-191 186,-161 82,-161"/>
<text text-anchor="start" x="90" y="-179" font-family="Helvetica,sans-Serif" font-size="10.00">std::basic_string&lt;</text>
<text text-anchor="middle" x="134" y="-168" font-family="Helvetica,sans-Serif" font-size="10.00"> Char &gt;</text>
</a>
</g>
</g>
<!-- Node13&#45;&gt;Node12 -->
<g id="edge12" class="edge">
<title>Node13&#45;&gt;Node12</title>
<path fill="none" stroke="midnightblue" d="M196.19,-172.39C229.84,-170.08 272.3,-166.64 310,-162 327.31,-159.87 346.51,-156.73 362.18,-153.96"/>
<polygon fill="midnightblue" stroke="midnightblue" points="195.78,-168.91 186.04,-173.07 196.25,-175.89 195.78,-168.91"/>
</g>
<!-- Node14&#45;&gt;Node5 -->
<g id="edge14" class="edge">
<title>Node14&#45;&gt;Node5</title>
<path fill="none" stroke="#9a32cd" stroke-dasharray="5,2" d="M780.45,-76.56C847.25,-101.38 963.19,-144.46 1014.41,-163.49"/>
<polygon fill="#9a32cd" stroke="#9a32cd" points="781.55,-73.24 770.96,-73.03 779.12,-79.8 781.55,-73.24"/>
<text text-anchor="middle" x="892.5" y="-154" font-family="Helvetica,sans-Serif" font-size="10.00"> m_Inputs</text>
<text text-anchor="middle" x="892.5" y="-143" font-family="Helvetica,sans-Serif" font-size="10.00">m_Outputs</text>
</g>
<!-- Node15 -->
<g id="node15" class="node">
<title>Node15</title>
<g id="a_node15"><a target="_parent" xlink:href="https://www.itk.org/Doxygen/html/classitk_1_1SmartPointer.html" xlink:title=" ">
<polygon fill="white" stroke="black" points="334,-0.5 334,-19.5 456,-19.5 456,-0.5 334,-0.5"/>
<text text-anchor="middle" x="395" y="-7.5" font-family="Helvetica,sans-Serif" font-size="10.00">SmartPointer&lt; Self &gt;</text>
</a>
</g>
</g>
<!-- Node15&#45;&gt;Node14 -->
<g id="edge16" class="edge">
<title>Node15&#45;&gt;Node14</title>
<path fill="none" stroke="#9a32cd" stroke-dasharray="5,2" d="M466.57,-8.96C512.64,-9.5 573.87,-12.55 627,-23 649.31,-27.39 673.41,-35.54 692.52,-42.88"/>
<polygon fill="#9a32cd" stroke="#9a32cd" points="466.42,-5.46 456.39,-8.88 466.36,-12.46 466.42,-5.46"/>
<text text-anchor="middle" x="553.5" y="-26" font-family="Helvetica,sans-Serif" font-size="10.00"> elements</text>
</g>
<!-- Node16&#45;&gt;Node14 -->
<g id="edge17" class="edge">
<title>Node16&#45;&gt;Node14</title>
<path fill="none" stroke="orange" stroke-dasharray="5,2" d="M420.55,-68.53C436.81,-59.81 458.94,-49.54 480,-45 534.69,-33.21 597.64,-36.67 646.49,-42.97"/>
<polygon fill="orange" stroke="orange" points="418.76,-65.52 411.71,-73.43 422.15,-71.64 418.76,-65.52"/>
<text text-anchor="start" x="484" y="-59" font-family="Helvetica,sans-Serif" font-size="10.00"> &lt; DataObjectIdentifierType,</text>
<text text-anchor="middle" x="553.5" y="-48" font-family="Helvetica,sans-Serif" font-size="10.00"> DataObjectPointer &gt;</text>
</g>
<!-- Node17 -->
<g id="node17" class="node">
<title>Node17</title>
<g id="a_node17"><a xlink:title=" ">
<polygon fill="white" stroke="#bfbfbf" points="119.5,-117.5 119.5,-136.5 148.5,-136.5 148.5,-117.5 119.5,-117.5"/>
<text text-anchor="middle" x="134" y="-124.5" font-family="Helvetica,sans-Serif" font-size="10.00">K</text>
</a>
</g>
</g>
<!-- Node17&#45;&gt;Node16 -->
<g id="edge18" class="edge">
<title>Node17&#45;&gt;Node16</title>
<path fill="none" stroke="#9a32cd" stroke-dasharray="5,2" d="M158.63,-122.99C200.54,-115.87 288.69,-100.89 344.42,-91.42"/>
<polygon fill="#9a32cd" stroke="#9a32cd" points="157.83,-119.57 148.56,-124.7 159.01,-126.47 157.83,-119.57"/>
<text text-anchor="middle" x="257" y="-119" font-family="Helvetica,sans-Serif" font-size="10.00"> keys</text>
</g>
<!-- Node19 -->
<g id="node19" class="node">
<title>Node19</title>
<g id="a_node19"><a xlink:title=" ">
<polygon fill="white" stroke="#bfbfbf" points="354,-183.5 354,-202.5 436,-202.5 436,-183.5 354,-183.5"/>
<text text-anchor="middle" x="395" y="-190.5" font-family="Helvetica,sans-Serif" font-size="10.00">std::set&lt; K &gt;</text>
</a>
</g>
</g>
<!-- Node17&#45;&gt;Node19 -->
<g id="edge23" class="edge">
<title>Node17&#45;&gt;Node19</title>
<path fill="none" stroke="#9a32cd" stroke-dasharray="5,2" d="M158.25,-132.93C203.09,-144.35 301.86,-169.52 356.24,-183.38"/>
<polygon fill="#9a32cd" stroke="#9a32cd" points="159.11,-129.53 148.56,-130.46 157.39,-136.32 159.11,-129.53"/>
<text text-anchor="middle" x="257" y="-173" font-family="Helvetica,sans-Serif" font-size="10.00"> keys</text>
</g>
<!-- Node18&#45;&gt;Node5 -->
<g id="edge20" class="edge">
<title>Node18&#45;&gt;Node5</title>
<path fill="none" stroke="#9a32cd" stroke-dasharray="5,2" d="M820.66,-173C875.38,-173 943.22,-173 988.85,-173"/>
<polygon fill="#9a32cd" stroke="#9a32cd" points="820.61,-169.5 810.61,-173 820.61,-176.5 820.61,-169.5"/>
<text text-anchor="middle" x="892.5" y="-176" font-family="Helvetica,sans-Serif" font-size="10.00"> m_RequiredInputNames</text>
</g>
<!-- Node19&#45;&gt;Node18 -->
<g id="edge22" class="edge">
<title>Node19&#45;&gt;Node18</title>
<path fill="none" stroke="orange" stroke-dasharray="5,2" d="M446.18,-193.7C457.31,-193.82 469.06,-193.93 480,-194 545.33,-194.39 562.01,-200.65 627,-194 639.71,-192.7 653.18,-190.5 666,-188.01"/>
<polygon fill="orange" stroke="orange" points="446.2,-190.2 436.16,-193.58 446.12,-197.19 446.2,-190.2"/>
<text text-anchor="middle" x="553.5" y="-201" font-family="Helvetica,sans-Serif" font-size="10.00"> &lt; DataObjectIdentifierType &gt;</text>
</g>
</g>
</svg>
        <g id="navigator" transform="translate(0 0)" fill="#404254">
                <rect fill="#f2f5e9" fill-opacity="0.5" stroke="#606060" stroke-width=".5" x="0" y="0" width="60" height="60"/>
                <use id="zoomplus" xlink:href="#zoomPlus" x="17" y="9" onmousedown="handleZoom(evt,'in')"/>
                <use id="zoomminus" xlink:href="#zoomMin" x="42" y="9" onmousedown="handleZoom(evt,'out')"/>
                <use id="reset" xlink:href="#resetDef" x="30" y="36" onmousedown="handleReset()"/>
                <g id="arrowUp" xlink:href="#dirArrow" transform="translate(30 24)" onmousedown="handlePan(0,-1)">
                  <use xlink:href="#rim" fill="#404040">
                        <set attributeName="fill" to="#808080" begin="arrowUp.mouseover" end="arrowUp.mouseout"/>
                  </use>
                  <path fill="none" stroke="white" stroke-width="1.5" d="M0,-3.0v7 M-2.5,-0.5L0,-3.0L2.5,-0.5"/>
                </g>
                <g id="arrowRight" xlink:href="#dirArrow" transform="rotate(90) translate(36 -43)" onmousedown="handlePan(1,0)">
                  <use xlink:href="#rim" fill="#404040">
                        <set attributeName="fill" to="#808080" begin="arrowRight.mouseover" end="arrowRight.mouseout"/>
                  </use>
                  <path fill="none" stroke="white" stroke-width="1.5" d="M0,-3.0v7 M-2.5,-0.5L0,-3.0L2.5,-0.5"/>
                </g>
                <g id="arrowDown" xlink:href="#dirArrow" transform="rotate(180) translate(-30 -48)" onmousedown="handlePan(0,1)">
                  <use xlink:href="#rim" fill="#404040">
                        <set attributeName="fill" to="#808080" begin="arrowDown.mouseover" end="arrowDown.mouseout"/>
                  </use>
                  <path fill="none" stroke="white" stroke-width="1.5" d="M0,-3.0v7 M-2.5,-0.5L0,-3.0L2.5,-0.5"/>
                </g>
                <g id="arrowLeft" xlink:href="#dirArrow" transform="rotate(270) translate(-36 17)" onmousedown="handlePan(-1,0)">
                  <use xlink:href="#rim" fill="#404040">
                        <set attributeName="fill" to="#808080" begin="arrowLeft.mouseover" end="arrowLeft.mouseout"/>
                  </use>
                  <path fill="none" stroke="white" stroke-width="1.5" d="M0,-3.0v7 M-2.5,-0.5L0,-3.0L2.5,-0.5"/>
                </g>
        </g>
        <svg viewBox="0 0 15 15" width="100%" height="30px" preserveAspectRatio="xMaxYMin meet">
         <g id="arrow_out" transform="scale(0.3 0.3)">
          <a xlink:href="classitk_1_1simple_1_1DICOMOrientImageFilter__coll__graph_org.svg" target="_base">
           <rect id="button" ry="5" rx="5" y="6" x="6" height="38" width="38"
                fill="#f2f5e9" fill-opacity="0.5" stroke="#606060" stroke-width="1.0"/>
           <path id="arrow"
             d="M 11.500037,31.436501 C 11.940474,20.09759 22.043105,11.32322 32.158766,21.979434 L 37.068811,17.246167 C 37.068811,17.246167 37.088388,32 37.088388,32 L 22.160133,31.978069 C 22.160133,31.978069 26.997745,27.140456 26.997745,27.140456 C 18.528582,18.264221 13.291696,25.230495 11.500037,31.436501 z"
             style="fill:#404040;"/>
          </a>
         </g>
        </svg>
</svg>
