<?xml version="1.0" encoding="UTF-8" standalone="no"?>
<!DOCTYPE svg PUBLIC "-//W3C//DTD SVG 1.1//EN"
 "http://www.w3.org/Graphics/SVG/1.1/DTD/svg11.dtd">
<!-- Generated by graphviz version 2.43.0 (0)
 -->
<!-- Title: itk::simple::Transform Pages: 1 -->
<!--zoomable 652 -->
<svg id="main" version="1.1" xmlns="http://www.w3.org/2000/svg" xmlns:xlink="http://www.w3.org/1999/xlink" xml:space="preserve" onload="init(evt)">
<style type="text/css"><![CDATA[
.edge:hover path { stroke: red; }
.edge:hover polygon { stroke: red; fill: red; }
]]></style>
<script type="text/javascript"><![CDATA[
var edges = document.getElementsByTagName('g');
if (edges && edges.length) {
  for (var i=0;i<edges.length;i++) {
    if (edges[i].id.substr(0,4)=='edge') {
      edges[i].setAttribute('class','edge');
    }
  }
}
]]></script>
        <defs>
                <circle id="rim" cx="0" cy="0" r="7"/>
                <circle id="rim2" cx="0" cy="0" r="3.5"/>
                <g id="zoomPlus">
                        <use xlink:href="#rim" fill="#404040">
                                <set attributeName="fill" to="#808080" begin="zoomplus.mouseover" end="zoomplus.mouseout"/>
                        </use>
                        <path d="M-4,0h8M0,-4v8" fill="none" stroke="white" stroke-width="1.5" pointer-events="none"/>
                </g>
                <g id="zoomMin">
                        <use xlink:href="#rim" fill="#404040">
                                <set attributeName="fill" to="#808080" begin="zoomminus.mouseover" end="zoomminus.mouseout"/>
                        </use>
                        <path d="M-4,0h8" fill="none" stroke="white" stroke-width="1.5" pointer-events="none"/>
                </g>
                <g id="dirArrow">
                        <path fill="none" stroke="white" stroke-width="1.5" d="M0,-3.0v7 M-2.5,-0.5L0,-3.0L2.5,-0.5"/>
                </g>
               <g id="resetDef">
                       <use xlink:href="#rim2" fill="#404040">
                               <set attributeName="fill" to="#808080" begin="reset.mouseover" end="reset.mouseout"/>
                       </use>
               </g>
        </defs>

<script type="text/javascript">
var viewWidth = 343;
var viewHeight = 652;
var sectionId = 'dynsection-0';
</script>
<script xlink:href="svgpan.js"/>
<svg id="graph" class="graph">
<g id="viewport">
<title>itk::simple::Transform</title>
<polygon fill="white" stroke="transparent" points="-4,4 -4,-648 339,-648 339,4 -4,4"/>
<!-- Node1 -->
<g id="node1" class="node">
<title>Node1</title>
<g id="a_node1"><a xlink:title="A simplified wrapper around a variety of ITK transforms.">
<polygon fill="#bfbfbf" stroke="black" points="0,-328.5 0,-347.5 123,-347.5 123,-328.5 0,-328.5"/>
<text text-anchor="middle" x="61.5" y="-335.5" font-family="Helvetica,sans-Serif" font-size="10.00">itk::simple::Transform</text>
</a>
</g>
</g>
<!-- Node2 -->
<g id="node2" class="node">
<title>Node2</title>
<g id="a_node2"><a xlink:href="classitk_1_1simple_1_1AffineTransform.html" target="_top" xlink:title="An affine transformation about a fixed center with translation for a 2D or 3D coordinate.">
<polygon fill="white" stroke="black" points="171,-624.5 171,-643.5 323,-643.5 323,-624.5 171,-624.5"/>
<text text-anchor="middle" x="247" y="-631.5" font-family="Helvetica,sans-Serif" font-size="10.00">itk::simple::AffineTransform</text>
</a>
</g>
</g>
<!-- Node1&#45;&gt;Node2 -->
<g id="edge1" class="edge">
<title>Node1&#45;&gt;Node2</title>
<path fill="none" stroke="midnightblue" d="M63.12,-357.66C65.86,-408.55 80.53,-545.44 159,-615 163.28,-618.79 168.14,-621.89 173.32,-624.41"/>
<polygon fill="midnightblue" stroke="midnightblue" points="66.62,-357.5 62.69,-347.66 59.63,-357.8 66.62,-357.5"/>
</g>
<!-- Node3 -->
<g id="node3" class="node">
<title>Node3</title>
<g id="a_node3"><a xlink:href="classitk_1_1simple_1_1BSplineTransform.html" target="_top" xlink:title="A deformable transform over a bounded spatial domain using a BSpline representation for a 2D or 3D co...">
<polygon fill="white" stroke="black" points="167,-586.5 167,-605.5 327,-605.5 327,-586.5 167,-586.5"/>
<text text-anchor="middle" x="247" y="-593.5" font-family="Helvetica,sans-Serif" font-size="10.00">itk::simple::BSplineTransform</text>
</a>
</g>
</g>
<!-- Node1&#45;&gt;Node3 -->
<g id="edge2" class="edge">
<title>Node1&#45;&gt;Node3</title>
<path fill="none" stroke="midnightblue" d="M64.36,-357.71C69.8,-403.72 89.96,-518.73 159,-577 163.49,-580.79 168.56,-583.87 173.95,-586.38"/>
<polygon fill="midnightblue" stroke="midnightblue" points="67.82,-357.14 63.27,-347.57 60.86,-357.89 67.82,-357.14"/>
</g>
<!-- Node4 -->
<g id="node4" class="node">
<title>Node4</title>
<g id="a_node4"><a xlink:href="classitk_1_1simple_1_1ComposeScaleSkewVersor3DTransform.html" target="_top" xlink:title="This transform applies a versor rotation and translation &amp; scale/skew to the space.">
<polygon fill="white" stroke="black" points="174,-537 174,-567 320,-567 320,-537 174,-537"/>
<text text-anchor="start" x="182" y="-555" font-family="Helvetica,sans-Serif" font-size="10.00">itk::simple::ComposeScale</text>
<text text-anchor="middle" x="247" y="-544" font-family="Helvetica,sans-Serif" font-size="10.00">SkewVersor3DTransform</text>
</a>
</g>
</g>
<!-- Node1&#45;&gt;Node4 -->
<g id="edge3" class="edge">
<title>Node1&#45;&gt;Node4</title>
<path fill="none" stroke="midnightblue" d="M66.92,-357.43C76.65,-395.76 103.62,-481.36 159,-527 163.73,-530.9 169.04,-534.19 174.64,-536.97"/>
<polygon fill="midnightblue" stroke="midnightblue" points="70.28,-356.44 64.53,-347.54 63.47,-358.09 70.28,-356.44"/>
</g>
<!-- Node5 -->
<g id="node5" class="node">
<title>Node5</title>
<g id="a_node5"><a xlink:href="classitk_1_1simple_1_1CompositeTransform.html" target="_top" xlink:title="This class contains a stack of transforms and concatenates them by composition.">
<polygon fill="white" stroke="black" points="159,-498.5 159,-517.5 335,-517.5 335,-498.5 159,-498.5"/>
<text text-anchor="middle" x="247" y="-505.5" font-family="Helvetica,sans-Serif" font-size="10.00">itk::simple::CompositeTransform</text>
</a>
</g>
</g>
<!-- Node1&#45;&gt;Node5 -->
<g id="edge4" class="edge">
<title>Node1&#45;&gt;Node5</title>
<path fill="none" stroke="midnightblue" d="M69.2,-357.34C81.53,-389.96 111.07,-455.6 159,-489 164.58,-492.89 170.81,-496 177.31,-498.49"/>
<polygon fill="midnightblue" stroke="midnightblue" points="72.38,-355.84 65.67,-347.64 65.8,-358.24 72.38,-355.84"/>
</g>
<!-- Node6 -->
<g id="node6" class="node">
<title>Node6</title>
<g id="a_node6"><a xlink:href="classitk_1_1simple_1_1DisplacementFieldTransform.html" target="_top" xlink:title="A dense deformable transform over a bounded spatial domain for 2D or 3D coordinates space.">
<polygon fill="white" stroke="black" points="176,-449 176,-479 318,-479 318,-449 176,-449"/>
<text text-anchor="start" x="184" y="-467" font-family="Helvetica,sans-Serif" font-size="10.00">itk::simple::Displacement</text>
<text text-anchor="middle" x="247" y="-456" font-family="Helvetica,sans-Serif" font-size="10.00">FieldTransform</text>
</a>
</g>
</g>
<!-- Node1&#45;&gt;Node6 -->
<g id="edge5" class="edge">
<title>Node1&#45;&gt;Node6</title>
<path fill="none" stroke="midnightblue" d="M74.99,-356.06C91.6,-378.73 123.07,-417.27 159,-439 165.32,-442.82 172.25,-446.08 179.36,-448.86"/>
<polygon fill="midnightblue" stroke="midnightblue" points="77.66,-353.78 69,-347.68 71.97,-357.85 77.66,-353.78"/>
</g>
<!-- Node7 -->
<g id="node7" class="node">
<title>Node7</title>
<g id="a_node7"><a xlink:href="classitk_1_1simple_1_1Euler2DTransform.html" target="_top" xlink:title="A rigid 2D transform with rotation in radians around a fixed center with translation.">
<polygon fill="white" stroke="black" points="166.5,-410.5 166.5,-429.5 327.5,-429.5 327.5,-410.5 166.5,-410.5"/>
<text text-anchor="middle" x="247" y="-417.5" font-family="Helvetica,sans-Serif" font-size="10.00">itk::simple::Euler2DTransform</text>
</a>
</g>
</g>
<!-- Node1&#45;&gt;Node7 -->
<g id="edge6" class="edge">
<title>Node1&#45;&gt;Node7</title>
<path fill="none" stroke="midnightblue" d="M82.21,-353.98C100.91,-368.35 130.32,-388.99 159,-401 168.13,-404.82 178.13,-407.92 187.99,-410.42"/>
<polygon fill="midnightblue" stroke="midnightblue" points="84.21,-351.1 74.18,-347.68 79.89,-356.61 84.21,-351.1"/>
</g>
<!-- Node8 -->
<g id="node8" class="node">
<title>Node8</title>
<g id="a_node8"><a xlink:href="classitk_1_1simple_1_1Euler3DTransform.html" target="_top" xlink:title="A rigid 3D transform with rotation in radians around a fixed center with translation.">
<polygon fill="white" stroke="black" points="166.5,-372.5 166.5,-391.5 327.5,-391.5 327.5,-372.5 166.5,-372.5"/>
<text text-anchor="middle" x="247" y="-379.5" font-family="Helvetica,sans-Serif" font-size="10.00">itk::simple::Euler3DTransform</text>
</a>
</g>
</g>
<!-- Node1&#45;&gt;Node8 -->
<g id="edge7" class="edge">
<title>Node1&#45;&gt;Node8</title>
<path fill="none" stroke="midnightblue" d="M107.88,-350.14C123.99,-354.35 142.27,-359.01 159,-363 172.53,-366.23 187.3,-369.54 200.77,-372.47"/>
<polygon fill="midnightblue" stroke="midnightblue" points="108.73,-346.74 98.16,-347.59 106.95,-353.51 108.73,-346.74"/>
</g>
<!-- Node9 -->
<g id="node9" class="node">
<title>Node9</title>
<g id="a_node9"><a xlink:href="classitk_1_1simple_1_1ScaleSkewVersor3DTransform.html" target="_top" xlink:title="A over parameterized 3D Affine transform composed of the addition of a versor rotation matrix,...">
<polygon fill="white" stroke="black" points="165.5,-323 165.5,-353 328.5,-353 328.5,-323 165.5,-323"/>
<text text-anchor="start" x="173.5" y="-341" font-family="Helvetica,sans-Serif" font-size="10.00">itk::simple::ScaleSkewVersor3</text>
<text text-anchor="middle" x="247" y="-330" font-family="Helvetica,sans-Serif" font-size="10.00">DTransform</text>
</a>
</g>
</g>
<!-- Node1&#45;&gt;Node9 -->
<g id="edge8" class="edge">
<title>Node1&#45;&gt;Node9</title>
<path fill="none" stroke="midnightblue" d="M133.36,-338C143.78,-338 154.58,-338 165.18,-338"/>
<polygon fill="midnightblue" stroke="midnightblue" points="133.09,-334.5 123.09,-338 133.09,-341.5 133.09,-334.5"/>
</g>
<!-- Node10 -->
<g id="node10" class="node">
<title>Node10</title>
<g id="a_node10"><a xlink:href="classitk_1_1simple_1_1ScaleTransform.html" target="_top" xlink:title="A 2D or 3D anisotropic scale of coordinate space around a fixed center.">
<polygon fill="white" stroke="black" points="172.5,-284.5 172.5,-303.5 321.5,-303.5 321.5,-284.5 172.5,-284.5"/>
<text text-anchor="middle" x="247" y="-291.5" font-family="Helvetica,sans-Serif" font-size="10.00">itk::simple::ScaleTransform</text>
</a>
</g>
</g>
<!-- Node1&#45;&gt;Node10 -->
<g id="edge9" class="edge">
<title>Node1&#45;&gt;Node10</title>
<path fill="none" stroke="midnightblue" d="M109.99,-326.01C125.59,-322.12 143.02,-317.82 159,-314 173.62,-310.5 189.65,-306.78 203.93,-303.51"/>
<polygon fill="midnightblue" stroke="midnightblue" points="108.89,-322.68 100.04,-328.5 110.59,-329.47 108.89,-322.68"/>
</g>
<!-- Node11 -->
<g id="node11" class="node">
<title>Node11</title>
<g id="a_node11"><a xlink:href="classitk_1_1simple_1_1ScaleVersor3DTransform.html" target="_top" xlink:title="A parameterized 3D transform composed of the addition of a versor rotation matrix and a scale matrix ...">
<polygon fill="white" stroke="black" points="178.5,-235 178.5,-265 315.5,-265 315.5,-235 178.5,-235"/>
<text text-anchor="start" x="186.5" y="-253" font-family="Helvetica,sans-Serif" font-size="10.00">itk::simple::ScaleVersor3</text>
<text text-anchor="middle" x="247" y="-242" font-family="Helvetica,sans-Serif" font-size="10.00">DTransform</text>
</a>
</g>
</g>
<!-- Node1&#45;&gt;Node11 -->
<g id="edge10" class="edge">
<title>Node1&#45;&gt;Node11</title>
<path fill="none" stroke="midnightblue" d="M82.71,-322.22C101.55,-308.15 130.89,-287.86 159,-275 167.15,-271.27 175.98,-267.97 184.79,-265.08"/>
<polygon fill="midnightblue" stroke="midnightblue" points="80.45,-319.54 74.6,-328.37 84.68,-325.12 80.45,-319.54"/>
</g>
<!-- Node12 -->
<g id="node12" class="node">
<title>Node12</title>
<g id="a_node12"><a xlink:href="classitk_1_1simple_1_1Similarity2DTransform.html" target="_top" xlink:title="A similarity 2D transform with rotation in radians and isotropic scaling around a fixed center with t...">
<polygon fill="white" stroke="black" points="183,-186 183,-216 311,-216 311,-186 183,-186"/>
<text text-anchor="start" x="191" y="-204" font-family="Helvetica,sans-Serif" font-size="10.00">itk::simple::Similarity2</text>
<text text-anchor="middle" x="247" y="-193" font-family="Helvetica,sans-Serif" font-size="10.00">DTransform</text>
</a>
</g>
</g>
<!-- Node1&#45;&gt;Node12 -->
<g id="edge11" class="edge">
<title>Node1&#45;&gt;Node12</title>
<path fill="none" stroke="midnightblue" d="M73.59,-319.4C89.41,-294.45 120.84,-250.44 159,-226 166.28,-221.34 174.44,-217.52 182.78,-214.41"/>
<polygon fill="midnightblue" stroke="midnightblue" points="70.4,-317.89 68.13,-328.24 76.36,-321.57 70.4,-317.89"/>
</g>
<!-- Node13 -->
<g id="node13" class="node">
<title>Node13</title>
<g id="a_node13"><a xlink:href="classitk_1_1simple_1_1Similarity3DTransform.html" target="_top" xlink:title="A similarity 3D transform with rotation as a versor, and isotropic scaling around a fixed center with...">
<polygon fill="white" stroke="black" points="183,-137 183,-167 311,-167 311,-137 183,-137"/>
<text text-anchor="start" x="191" y="-155" font-family="Helvetica,sans-Serif" font-size="10.00">itk::simple::Similarity3</text>
<text text-anchor="middle" x="247" y="-144" font-family="Helvetica,sans-Serif" font-size="10.00">DTransform</text>
</a>
</g>
</g>
<!-- Node1&#45;&gt;Node13 -->
<g id="edge12" class="edge">
<title>Node1&#45;&gt;Node13</title>
<path fill="none" stroke="midnightblue" d="M68.74,-318.67C80.69,-284.77 110.04,-214.63 159,-177 166.1,-171.54 174.35,-167.27 182.89,-163.94"/>
<polygon fill="midnightblue" stroke="midnightblue" points="65.37,-317.72 65.47,-328.31 72,-319.97 65.37,-317.72"/>
</g>
<!-- Node14 -->
<g id="node14" class="node">
<title>Node14</title>
<g id="a_node14"><a xlink:href="classitk_1_1simple_1_1TranslationTransform.html" target="_top" xlink:title="Translation of a 2D or 3D coordinate space.">
<polygon fill="white" stroke="black" points="183,-88 183,-118 311,-118 311,-88 183,-88"/>
<text text-anchor="start" x="191" y="-106" font-family="Helvetica,sans-Serif" font-size="10.00">itk::simple::Translation</text>
<text text-anchor="middle" x="247" y="-95" font-family="Helvetica,sans-Serif" font-size="10.00">Transform</text>
</a>
</g>
</g>
<!-- Node1&#45;&gt;Node14 -->
<g id="edge13" class="edge">
<title>Node1&#45;&gt;Node14</title>
<path fill="none" stroke="midnightblue" d="M65.85,-318.43C74.01,-276.95 98.79,-179.74 159,-128 165.91,-122.06 174.16,-117.53 182.78,-114.07"/>
<polygon fill="midnightblue" stroke="midnightblue" points="62.4,-317.89 64.02,-328.36 69.28,-319.16 62.4,-317.89"/>
</g>
<!-- Node15 -->
<g id="node15" class="node">
<title>Node15</title>
<g id="a_node15"><a xlink:href="classitk_1_1simple_1_1VersorRigid3DTransform.html" target="_top" xlink:title="A rotation as a versor around a fixed center with translation of a 3D coordinate space.">
<polygon fill="white" stroke="black" points="179,-39 179,-69 315,-69 315,-39 179,-39"/>
<text text-anchor="start" x="187" y="-57" font-family="Helvetica,sans-Serif" font-size="10.00">itk::simple::VersorRigid3</text>
<text text-anchor="middle" x="247" y="-46" font-family="Helvetica,sans-Serif" font-size="10.00">DTransform</text>
</a>
</g>
</g>
<!-- Node1&#45;&gt;Node15 -->
<g id="edge14" class="edge">
<title>Node1&#45;&gt;Node15</title>
<path fill="none" stroke="midnightblue" d="M63.96,-318.28C68.6,-270.08 87.29,-145.4 159,-79 164.77,-73.66 171.6,-69.45 178.86,-66.14"/>
<polygon fill="midnightblue" stroke="midnightblue" points="60.46,-318.07 63.09,-328.33 67.44,-318.67 60.46,-318.07"/>
</g>
<!-- Node16 -->
<g id="node16" class="node">
<title>Node16</title>
<g id="a_node16"><a xlink:href="classitk_1_1simple_1_1VersorTransform.html" target="_top" xlink:title="A 3D rotation transform with rotation as a versor around a fixed center.">
<polygon fill="white" stroke="black" points="170,-0.5 170,-19.5 324,-19.5 324,-0.5 170,-0.5"/>
<text text-anchor="middle" x="247" y="-7.5" font-family="Helvetica,sans-Serif" font-size="10.00">itk::simple::VersorTransform</text>
</a>
</g>
</g>
<!-- Node1&#45;&gt;Node16 -->
<g id="edge15" class="edge">
<title>Node1&#45;&gt;Node16</title>
<path fill="none" stroke="midnightblue" d="M62.37,-318.44C63.15,-263.99 73.18,-109.4 159,-30 163.55,-25.79 168.8,-22.41 174.43,-19.7"/>
<polygon fill="midnightblue" stroke="midnightblue" points="58.87,-318.46 62.33,-328.48 65.87,-318.5 58.87,-318.46"/>
</g>
</g>
</svg>
        <g id="navigator" transform="translate(0 0)" fill="#404254">
                <rect fill="#f2f5e9" fill-opacity="0.5" stroke="#606060" stroke-width=".5" x="0" y="0" width="60" height="60"/>
                <use id="zoomplus" xlink:href="#zoomPlus" x="17" y="9" onmousedown="handleZoom(evt,'in')"/>
                <use id="zoomminus" xlink:href="#zoomMin" x="42" y="9" onmousedown="handleZoom(evt,'out')"/>
                <use id="reset" xlink:href="#resetDef" x="30" y="36" onmousedown="handleReset()"/>
                <g id="arrowUp" xlink:href="#dirArrow" transform="translate(30 24)" onmousedown="handlePan(0,-1)">
                  <use xlink:href="#rim" fill="#404040">
                        <set attributeName="fill" to="#808080" begin="arrowUp.mouseover" end="arrowUp.mouseout"/>
                  </use>
                  <path fill="none" stroke="white" stroke-width="1.5" d="M0,-3.0v7 M-2.5,-0.5L0,-3.0L2.5,-0.5"/>
                </g>
                <g id="arrowRight" xlink:href="#dirArrow" transform="rotate(90) translate(36 -43)" onmousedown="handlePan(1,0)">
                  <use xlink:href="#rim" fill="#404040">
                        <set attributeName="fill" to="#808080" begin="arrowRight.mouseover" end="arrowRight.mouseout"/>
                  </use>
                  <path fill="none" stroke="white" stroke-width="1.5" d="M0,-3.0v7 M-2.5,-0.5L0,-3.0L2.5,-0.5"/>
                </g>
                <g id="arrowDown" xlink:href="#dirArrow" transform="rotate(180) translate(-30 -48)" onmousedown="handlePan(0,1)">
                  <use xlink:href="#rim" fill="#404040">
                        <set attributeName="fill" to="#808080" begin="arrowDown.mouseover" end="arrowDown.mouseout"/>
                  </use>
                  <path fill="none" stroke="white" stroke-width="1.5" d="M0,-3.0v7 M-2.5,-0.5L0,-3.0L2.5,-0.5"/>
                </g>
                <g id="arrowLeft" xlink:href="#dirArrow" transform="rotate(270) translate(-36 17)" onmousedown="handlePan(-1,0)">
                  <use xlink:href="#rim" fill="#404040">
                        <set attributeName="fill" to="#808080" begin="arrowLeft.mouseover" end="arrowLeft.mouseout"/>
                  </use>
                  <path fill="none" stroke="white" stroke-width="1.5" d="M0,-3.0v7 M-2.5,-0.5L0,-3.0L2.5,-0.5"/>
                </g>
        </g>
        <svg viewBox="0 0 15 15" width="100%" height="30px" preserveAspectRatio="xMaxYMin meet">
         <g id="arrow_out" transform="scale(0.3 0.3)">
          <a xlink:href="classitk_1_1simple_1_1Transform__inherit__graph_org.svg" target="_base">
           <rect id="button" ry="5" rx="5" y="6" x="6" height="38" width="38"
                fill="#f2f5e9" fill-opacity="0.5" stroke="#606060" stroke-width="1.0"/>
           <path id="arrow"
             d="M 11.500037,31.436501 C 11.940474,20.09759 22.043105,11.32322 32.158766,21.979434 L 37.068811,17.246167 C 37.068811,17.246167 37.088388,32 37.088388,32 L 22.160133,31.978069 C 22.160133,31.978069 26.997745,27.140456 26.997745,27.140456 C 18.528582,18.264221 13.291696,25.230495 11.500037,31.436501 z"
             style="fill:#404040;"/>
          </a>
         </g>
        </svg>
</svg>
