<?xml version="1.0" encoding="UTF-8" standalone="no"?>
<!DOCTYPE svg PUBLIC "-//W3C//DTD SVG 1.1//EN"
 "http://www.w3.org/Graphics/SVG/1.1/DTD/svg11.dtd">
<!-- Generated by graphviz version 2.43.0 (0)
 -->
<!-- Title: itk::simple::ImageFilter Pages: 1 -->
<svg width="3090pt" height="576pt"
 viewBox="0.00 0.00 3090.00 575.50" xmlns="http://www.w3.org/2000/svg" xmlns:xlink="http://www.w3.org/1999/xlink">
<g id="graph0" class="graph" transform="scale(1 1) rotate(0) translate(4 571.5)">
<title>itk::simple::ImageFilter</title>
<polygon fill="white" stroke="transparent" points="-4,4 -4,-571.5 3086,-571.5 3086,4 -4,4"/>
<!-- Node1 -->
<g id="node1" class="node">
<title>Node1</title>
<g id="a_node1"><a xlink:title="The base interface for SimpleITK filters that take one input image.">
<polygon fill="#bfbfbf" stroke="black" points="2952,-212.5 2952,-231.5 3082,-231.5 3082,-212.5 2952,-212.5"/>
<text text-anchor="middle" x="3017" y="-219.5" font-family="Helvetica,sans-Serif" font-size="10.00">itk::simple::ImageFilter</text>
</a>
</g>
</g>
<!-- Node2 -->
<g id="node2" class="node">
<title>Node2</title>
<g id="a_node2"><a xlink:href="classitk_1_1simple_1_1ProcessObject.html" target="_top" xlink:title="Base class for SimpleITK classes based on ProcessObject.">
<polygon fill="white" stroke="black" points="2772,-212.5 2772,-231.5 2915,-231.5 2915,-212.5 2772,-212.5"/>
<text text-anchor="middle" x="2843.5" y="-219.5" font-family="Helvetica,sans-Serif" font-size="10.00">itk::simple::ProcessObject</text>
</a>
</g>
</g>
<!-- Node2&#45;&gt;Node1 -->
<g id="edge1" class="edge">
<title>Node2&#45;&gt;Node1</title>
<path fill="none" stroke="midnightblue" d="M2925.52,-222C2934.32,-222 2943.18,-222 2951.74,-222"/>
<polygon fill="midnightblue" stroke="midnightblue" points="2925.25,-218.5 2915.25,-222 2925.25,-225.5 2925.25,-218.5"/>
</g>
<!-- Node3 -->
<g id="node3" class="node">
<title>Node3</title>
<g id="a_node3"><a xlink:href="classitk_1_1simple_1_1NonCopyable.html" target="_top" xlink:title="An inheritable class to disable copying of a class.">
<polygon fill="white" stroke="black" points="1463,-197.5 1463,-216.5 1603,-216.5 1603,-197.5 1463,-197.5"/>
<text text-anchor="middle" x="1533" y="-204.5" font-family="Helvetica,sans-Serif" font-size="10.00">itk::simple::NonCopyable</text>
</a>
</g>
</g>
<!-- Node3&#45;&gt;Node2 -->
<g id="edge2" class="edge">
<title>Node3&#45;&gt;Node2</title>
<path fill="none" stroke="darkgreen" d="M1613.07,-212.39C1682.97,-216.69 1787.72,-222 1879,-222 1879,-222 1879,-222 2569.5,-222 2638.22,-222 2716.68,-222 2771.79,-222"/>
<polygon fill="darkgreen" stroke="darkgreen" points="1613.22,-208.9 1603.02,-211.77 1612.78,-215.88 1613.22,-208.9"/>
</g>
<!-- Node7 -->
<g id="node7" class="node">
<title>Node7</title>
<g id="a_node7"><a xlink:href="classitk_1_1simple_1_1ObjectOwnedBase.html" target="_top" xlink:title="An abstract base class to connect this object with the lifetime of another.">
<polygon fill="white" stroke="black" points="1798,-171.5 1798,-190.5 1962,-190.5 1962,-171.5 1798,-171.5"/>
<text text-anchor="middle" x="1880" y="-178.5" font-family="Helvetica,sans-Serif" font-size="10.00">itk::simple::ObjectOwnedBase</text>
</a>
</g>
</g>
<!-- Node3&#45;&gt;Node7 -->
<g id="edge7" class="edge">
<title>Node3&#45;&gt;Node7</title>
<path fill="none" stroke="midnightblue" d="M1613.5,-201.01C1668.79,-196.84 1742.26,-191.3 1797.9,-187.11"/>
<polygon fill="midnightblue" stroke="midnightblue" points="1613.11,-197.53 1603.4,-201.77 1613.64,-204.51 1613.11,-197.53"/>
</g>
<!-- Node4 -->
<g id="node4" class="node">
<title>Node4</title>
<g id="a_node4"><a xlink:title=" ">
<polygon fill="white" stroke="#bfbfbf" points="2475,-163 2475,-193 2662,-193 2662,-163 2475,-163"/>
<text text-anchor="start" x="2483" y="-181" font-family="Helvetica,sans-Serif" font-size="10.00">std::list&lt; itk::simple</text>
<text text-anchor="middle" x="2568.5" y="-170" font-family="Helvetica,sans-Serif" font-size="10.00">::ProcessObject::EventCommand &gt;</text>
</a>
</g>
</g>
<!-- Node4&#45;&gt;Node2 -->
<g id="edge3" class="edge">
<title>Node4&#45;&gt;Node2</title>
<path fill="none" stroke="#9a32cd" stroke-dasharray="5,2" d="M2672.52,-185.43C2699.19,-188.23 2727.78,-191.99 2754,-197 2774.07,-200.84 2796.2,-207.09 2813.3,-212.38"/>
<polygon fill="#9a32cd" stroke="#9a32cd" points="2672.7,-181.94 2662.4,-184.41 2671.99,-188.9 2672.7,-181.94"/>
<text text-anchor="middle" x="2717" y="-200" font-family="Helvetica,sans-Serif" font-size="10.00"> m_Commands</text>
</g>
<!-- Node5 -->
<g id="node5" class="node">
<title>Node5</title>
<g id="a_node5"><a xlink:href="structitk_1_1simple_1_1ProcessObject_1_1EventCommand.html" target="_top" xlink:title=" ">
<polygon fill="white" stroke="black" points="2247,-163 2247,-193 2390,-193 2390,-163 2247,-163"/>
<text text-anchor="start" x="2255" y="-181" font-family="Helvetica,sans-Serif" font-size="10.00">itk::simple::ProcessObject</text>
<text text-anchor="middle" x="2318.5" y="-170" font-family="Helvetica,sans-Serif" font-size="10.00">::EventCommand</text>
</a>
</g>
</g>
<!-- Node5&#45;&gt;Node4 -->
<g id="edge4" class="edge">
<title>Node5&#45;&gt;Node4</title>
<path fill="none" stroke="#9a32cd" stroke-dasharray="5,2" d="M2400.29,-178C2424.12,-178 2450.38,-178 2474.89,-178"/>
<polygon fill="#9a32cd" stroke="#9a32cd" points="2400.23,-174.5 2390.23,-178 2400.23,-181.5 2400.23,-174.5"/>
<text text-anchor="middle" x="2432.5" y="-181" font-family="Helvetica,sans-Serif" font-size="10.00"> elements</text>
</g>
<!-- Node6 -->
<g id="node6" class="node">
<title>Node6</title>
<g id="a_node6"><a xlink:href="classitk_1_1simple_1_1Command.html" target="_top" xlink:title="An implementation of the Command design pattern for callback.">
<polygon fill="white" stroke="black" points="1999,-169.5 1999,-188.5 2124,-188.5 2124,-169.5 1999,-169.5"/>
<text text-anchor="middle" x="2061.5" y="-176.5" font-family="Helvetica,sans-Serif" font-size="10.00">itk::simple::Command</text>
</a>
</g>
</g>
<!-- Node6&#45;&gt;Node5 -->
<g id="edge5" class="edge">
<title>Node6&#45;&gt;Node5</title>
<path fill="none" stroke="#9a32cd" stroke-dasharray="5,2" d="M2134.43,-178.72C2169.63,-178.58 2211.85,-178.41 2246.88,-178.28"/>
<polygon fill="#9a32cd" stroke="#9a32cd" points="2134.21,-175.22 2124.23,-178.76 2134.24,-182.22 2134.21,-175.22"/>
<text text-anchor="middle" x="2185.5" y="-181" font-family="Helvetica,sans-Serif" font-size="10.00"> m_Command</text>
</g>
<!-- Node7&#45;&gt;Node6 -->
<g id="edge6" class="edge">
<title>Node7&#45;&gt;Node6</title>
<path fill="none" stroke="midnightblue" d="M1972.25,-179.98C1981.27,-179.88 1990.26,-179.78 1998.87,-179.69"/>
<polygon fill="midnightblue" stroke="midnightblue" points="1972.05,-176.49 1962.09,-180.1 1972.12,-183.48 1972.05,-176.49"/>
</g>
<!-- Node8 -->
<g id="node8" class="node">
<title>Node8</title>
<g id="a_node8"><a xlink:title=" ">
<polygon fill="white" stroke="#bfbfbf" points="1468.5,-109.5 1468.5,-150.5 1597.5,-150.5 1597.5,-109.5 1468.5,-109.5"/>
<text text-anchor="start" x="1476.5" y="-138.5" font-family="Helvetica,sans-Serif" font-size="10.00">std::multimap&lt; itk</text>
<text text-anchor="start" x="1476.5" y="-127.5" font-family="Helvetica,sans-Serif" font-size="10.00">::Object *, std::function</text>
<text text-anchor="middle" x="1533" y="-116.5" font-family="Helvetica,sans-Serif" font-size="10.00">&lt; void()&gt; &gt;</text>
</a>
</g>
</g>
<!-- Node8&#45;&gt;Node7 -->
<g id="edge8" class="edge">
<title>Node8&#45;&gt;Node7</title>
<path fill="none" stroke="#9a32cd" stroke-dasharray="5,2" d="M1607.7,-140.89C1669.14,-149.98 1755.8,-162.79 1814.52,-171.47"/>
<polygon fill="#9a32cd" stroke="#9a32cd" points="1608.08,-137.41 1597.68,-139.41 1607.06,-144.34 1608.08,-137.41"/>
<text text-anchor="middle" x="1701" y="-168" font-family="Helvetica,sans-Serif" font-size="10.00"> m_ReferencedObjectsCallbacks</text>
</g>
<!-- Node9 -->
<g id="node9" class="node">
<title>Node9</title>
<g id="a_node9"><a xlink:href="https://www.itk.org/Doxygen/html/classitk_1_1Object.html" xlink:title=" ">
<polygon fill="white" stroke="black" points="1166,-191.5 1166,-210.5 1233,-210.5 1233,-191.5 1166,-191.5"/>
<text text-anchor="middle" x="1199.5" y="-198.5" font-family="Helvetica,sans-Serif" font-size="10.00">itk::Object</text>
</a>
</g>
</g>
<!-- Node9&#45;&gt;Node8 -->
<g id="edge9" class="edge">
<title>Node9&#45;&gt;Node8</title>
<path fill="none" stroke="#9a32cd" stroke-dasharray="5,2" d="M1243.32,-191.83C1300.45,-179.59 1402.07,-157.83 1468.23,-143.66"/>
<polygon fill="#9a32cd" stroke="#9a32cd" points="1242.24,-188.48 1233.19,-194 1243.7,-195.33 1242.24,-188.48"/>
<text text-anchor="middle" x="1373" y="-181" font-family="Helvetica,sans-Serif" font-size="10.00"> keys</text>
</g>
<!-- Node24 -->
<g id="node24" class="node">
<title>Node24</title>
<g id="a_node24"><a xlink:href="https://www.itk.org/Doxygen/html/classitk_1_1ProcessObject.html" xlink:title=" ">
<polygon fill="white" stroke="black" points="1481,-242.5 1481,-261.5 1585,-261.5 1585,-242.5 1481,-242.5"/>
<text text-anchor="middle" x="1533" y="-249.5" font-family="Helvetica,sans-Serif" font-size="10.00">itk::ProcessObject</text>
</a>
</g>
</g>
<!-- Node9&#45;&gt;Node24 -->
<g id="edge32" class="edge">
<title>Node9&#45;&gt;Node24</title>
<path fill="none" stroke="midnightblue" d="M1243.39,-201.57C1292.4,-202.94 1374.75,-207.44 1444,-222 1466.59,-226.75 1491.4,-235.55 1508.9,-242.4"/>
<polygon fill="midnightblue" stroke="midnightblue" points="1243.25,-198.06 1233.16,-201.31 1243.07,-205.06 1243.25,-198.06"/>
</g>
<!-- Node10 -->
<g id="node10" class="node">
<title>Node10</title>
<g id="a_node10"><a xlink:href="https://www.itk.org/Doxygen/html/classitk_1_1LightObject.html" xlink:title=" ">
<polygon fill="white" stroke="black" points="797.5,-166.5 797.5,-185.5 888.5,-185.5 888.5,-166.5 797.5,-166.5"/>
<text text-anchor="middle" x="843" y="-173.5" font-family="Helvetica,sans-Serif" font-size="10.00">itk::LightObject</text>
</a>
</g>
</g>
<!-- Node10&#45;&gt;Node9 -->
<g id="edge10" class="edge">
<title>Node10&#45;&gt;Node9</title>
<path fill="none" stroke="midnightblue" d="M899.06,-177.34C950.37,-178.89 1028.97,-182.04 1097,-188 1120.01,-190.02 1145.82,-193.34 1165.66,-196.12"/>
<polygon fill="midnightblue" stroke="midnightblue" points="898.96,-173.84 888.86,-177.04 898.75,-180.84 898.96,-173.84"/>
</g>
<!-- Node11 -->
<g id="node11" class="node">
<title>Node11</title>
<g id="a_node11"><a xlink:title=" ">
<polygon fill="white" stroke="#bfbfbf" points="465,-162.5 465,-181.5 572,-181.5 572,-162.5 465,-162.5"/>
<text text-anchor="middle" x="518.5" y="-169.5" font-family="Helvetica,sans-Serif" font-size="10.00">std::atomic&lt; int &gt;</text>
</a>
</g>
</g>
<!-- Node11&#45;&gt;Node10 -->
<g id="edge11" class="edge">
<title>Node11&#45;&gt;Node10</title>
<path fill="none" stroke="#9a32cd" stroke-dasharray="5,2" d="M582.27,-172.78C645.49,-173.56 741.42,-174.75 797.29,-175.45"/>
<polygon fill="#9a32cd" stroke="#9a32cd" points="582.08,-169.28 572.03,-172.65 581.99,-176.28 582.08,-169.28"/>
<text text-anchor="middle" x="684.5" y="-177" font-family="Helvetica,sans-Serif" font-size="10.00"> m_ReferenceCount</text>
</g>
<!-- Node12 -->
<g id="node12" class="node">
<title>Node12</title>
<g id="a_node12"><a xlink:title="STL class.">
<polygon fill="white" stroke="#bfbfbf" points="127,-162.5 127,-181.5 227,-181.5 227,-162.5 127,-162.5"/>
<text text-anchor="middle" x="177" y="-169.5" font-family="Helvetica,sans-Serif" font-size="10.00">std::atomic&lt; T &gt;</text>
</a>
</g>
</g>
<!-- Node12&#45;&gt;Node11 -->
<g id="edge12" class="edge">
<title>Node12&#45;&gt;Node11</title>
<path fill="none" stroke="orange" stroke-dasharray="5,2" d="M237.39,-172C301.7,-172 403.34,-172 464.88,-172"/>
<polygon fill="orange" stroke="orange" points="237,-168.5 227,-172 237,-175.5 237,-168.5"/>
<text text-anchor="middle" x="342" y="-175" font-family="Helvetica,sans-Serif" font-size="10.00"> &lt; int &gt;</text>
</g>
<!-- Node21 -->
<g id="node21" class="node">
<title>Node21</title>
<g id="a_node21"><a xlink:href="https://www.itk.org/Doxygen/html/classitk_1_1TimeStamp.html" xlink:title=" ">
<polygon fill="white" stroke="black" points="797,-208.5 797,-227.5 889,-227.5 889,-208.5 797,-208.5"/>
<text text-anchor="middle" x="843" y="-215.5" font-family="Helvetica,sans-Serif" font-size="10.00">itk::TimeStamp</text>
</a>
</g>
</g>
<!-- Node12&#45;&gt;Node21 -->
<g id="edge24" class="edge">
<title>Node12&#45;&gt;Node21</title>
<path fill="none" stroke="#9a32cd" stroke-dasharray="5,2" d="M233.12,-183.32C241.43,-184.74 249.92,-186.03 258,-187 457.86,-210.93 698.41,-216.39 796.76,-217.63"/>
<polygon fill="#9a32cd" stroke="#9a32cd" points="233.57,-179.85 223.11,-181.54 232.34,-186.74 233.57,-179.85"/>
<text text-anchor="middle" x="518.5" y="-214" font-family="Helvetica,sans-Serif" font-size="10.00"> m_GlobalTimeStamp</text>
</g>
<!-- Node28 -->
<g id="node28" class="node">
<title>Node28</title>
<g id="a_node28"><a xlink:title=" ">
<polygon fill="white" stroke="#bfbfbf" points="617.5,-126.5 617.5,-145.5 751.5,-145.5 751.5,-126.5 617.5,-126.5"/>
<text text-anchor="middle" x="684.5" y="-133.5" font-family="Helvetica,sans-Serif" font-size="10.00">std::atomic&lt; uint32_t &gt;</text>
</a>
</g>
</g>
<!-- Node12&#45;&gt;Node28 -->
<g id="edge41" class="edge">
<title>Node12&#45;&gt;Node28</title>
<path fill="none" stroke="orange" stroke-dasharray="5,2" d="M233.11,-160.65C241.42,-159.24 249.92,-157.95 258,-157 384.52,-142.09 533.42,-137.73 617.3,-136.48"/>
<polygon fill="orange" stroke="orange" points="232.34,-157.24 223.11,-162.43 233.56,-164.13 232.34,-157.24"/>
<text text-anchor="middle" x="342" y="-160" font-family="Helvetica,sans-Serif" font-size="10.00"> &lt; uint32_t &gt;</text>
</g>
<!-- Node13 -->
<g id="node13" class="node">
<title>Node13</title>
<g id="a_node13"><a xlink:title=" ">
<polygon fill="white" stroke="#bfbfbf" points="0,-141.5 0,-160.5 29,-160.5 29,-141.5 0,-141.5"/>
<text text-anchor="middle" x="14.5" y="-148.5" font-family="Helvetica,sans-Serif" font-size="10.00">T</text>
</a>
</g>
</g>
<!-- Node13&#45;&gt;Node12 -->
<g id="edge13" class="edge">
<title>Node13&#45;&gt;Node12</title>
<path fill="none" stroke="#9a32cd" stroke-dasharray="5,2" d="M39.37,-154.12C62.31,-157.12 97.67,-161.75 126.68,-165.55"/>
<polygon fill="#9a32cd" stroke="#9a32cd" points="39.55,-150.62 29.18,-152.79 38.65,-157.56 39.55,-150.62"/>
<text text-anchor="middle" x="71.5" y="-164" font-family="Helvetica,sans-Serif" font-size="10.00"> ptr</text>
</g>
<!-- Node18 -->
<g id="node18" class="node">
<title>Node18</title>
<g id="a_node18"><a xlink:title="STL class.">
<polygon fill="white" stroke="#bfbfbf" points="126.5,-296.5 126.5,-315.5 227.5,-315.5 227.5,-296.5 126.5,-296.5"/>
<text text-anchor="middle" x="177" y="-303.5" font-family="Helvetica,sans-Serif" font-size="10.00">std::map&lt; K, T &gt;</text>
</a>
</g>
</g>
<!-- Node13&#45;&gt;Node18 -->
<g id="edge20" class="edge">
<title>Node13&#45;&gt;Node18</title>
<path fill="none" stroke="#9a32cd" stroke-dasharray="5,2" d="M21.57,-170.46C26.6,-184.03 34.9,-201.81 47,-214 64.22,-231.36 75.61,-225.51 96,-239 122.89,-256.79 151.07,-282.23 165.74,-296.09"/>
<polygon fill="#9a32cd" stroke="#9a32cd" points="24.77,-169.01 18.22,-160.68 18.14,-171.27 24.77,-169.01"/>
<text text-anchor="middle" x="71.5" y="-242" font-family="Helvetica,sans-Serif" font-size="10.00"> elements</text>
</g>
<!-- Node20 -->
<g id="node20" class="node">
<title>Node20</title>
<g id="a_node20"><a xlink:title="STL class.">
<polygon fill="white" stroke="#bfbfbf" points="118,-218.5 118,-237.5 236,-237.5 236,-218.5 118,-218.5"/>
<text text-anchor="middle" x="177" y="-225.5" font-family="Helvetica,sans-Serif" font-size="10.00">std::shared_ptr&lt; T &gt;</text>
</a>
</g>
</g>
<!-- Node13&#45;&gt;Node20 -->
<g id="edge22" class="edge">
<title>Node13&#45;&gt;Node20</title>
<path fill="none" stroke="#9a32cd" stroke-dasharray="5,2" d="M33.92,-167.05C38.06,-170.25 42.56,-173.41 47,-176 78.83,-194.52 118.51,-209.43 145.4,-218.46"/>
<polygon fill="#9a32cd" stroke="#9a32cd" points="35.98,-164.22 26.02,-160.61 31.56,-169.64 35.98,-164.22"/>
<text text-anchor="middle" x="71.5" y="-202" font-family="Helvetica,sans-Serif" font-size="10.00"> ptr</text>
</g>
<!-- Node22 -->
<g id="node22" class="node">
<title>Node22</title>
<g id="a_node22"><a xlink:title="STL class.">
<polygon fill="white" stroke="#bfbfbf" points="114,-124.5 114,-143.5 240,-143.5 240,-124.5 114,-124.5"/>
<text text-anchor="middle" x="177" y="-131.5" font-family="Helvetica,sans-Serif" font-size="10.00">std::multimap&lt; K, T &gt;</text>
</a>
</g>
</g>
<!-- Node13&#45;&gt;Node22 -->
<g id="edge27" class="edge">
<title>Node13&#45;&gt;Node22</title>
<path fill="none" stroke="#9a32cd" stroke-dasharray="5,2" d="M38.36,-138.75C41.2,-137.63 44.12,-136.67 47,-136 68.48,-130.97 92.53,-129.52 113.99,-129.63"/>
<polygon fill="#9a32cd" stroke="#9a32cd" points="36.8,-135.61 29.14,-142.93 39.69,-141.98 36.8,-135.61"/>
<text text-anchor="middle" x="71.5" y="-139" font-family="Helvetica,sans-Serif" font-size="10.00"> elements</text>
</g>
<!-- Node23 -->
<g id="node23" class="node">
<title>Node23</title>
<g id="a_node23"><a xlink:title="STL class.">
<polygon fill="white" stroke="#bfbfbf" points="301.5,-1.5 301.5,-20.5 382.5,-20.5 382.5,-1.5 301.5,-1.5"/>
<text text-anchor="middle" x="342" y="-8.5" font-family="Helvetica,sans-Serif" font-size="10.00">std::list&lt; T &gt;</text>
</a>
</g>
</g>
<!-- Node13&#45;&gt;Node23 -->
<g id="edge30" class="edge">
<title>Node13&#45;&gt;Node23</title>
<path fill="none" stroke="#9a32cd" stroke-dasharray="5,2" d="M19.35,-131.33C23.48,-115.44 31.64,-93.69 47,-81 121.2,-19.65 240.09,-10.29 301.47,-9.9"/>
<polygon fill="#9a32cd" stroke="#9a32cd" points="15.9,-130.68 17.09,-141.21 22.73,-132.24 15.9,-130.68"/>
<text text-anchor="middle" x="71.5" y="-84" font-family="Helvetica,sans-Serif" font-size="10.00"> elements</text>
</g>
<!-- Node30 -->
<g id="node30" class="node">
<title>Node30</title>
<g id="a_node30"><a xlink:title="STL class.">
<polygon fill="white" stroke="#bfbfbf" points="128.5,-77.5 128.5,-96.5 225.5,-96.5 225.5,-77.5 128.5,-77.5"/>
<text text-anchor="middle" x="177" y="-84.5" font-family="Helvetica,sans-Serif" font-size="10.00">std::vector&lt; T &gt;</text>
</a>
</g>
</g>
<!-- Node13&#45;&gt;Node30 -->
<g id="edge44" class="edge">
<title>Node13&#45;&gt;Node30</title>
<path fill="none" stroke="#9a32cd" stroke-dasharray="5,2" d="M27.02,-132.92C32.3,-126 39.15,-118.66 47,-114 71.49,-99.45 102.67,-92.67 128.24,-89.54"/>
<polygon fill="#9a32cd" stroke="#9a32cd" points="24.07,-131.02 21.2,-141.22 29.8,-135.04 24.07,-131.02"/>
<text text-anchor="middle" x="71.5" y="-117" font-family="Helvetica,sans-Serif" font-size="10.00"> elements</text>
</g>
<!-- Node14 -->
<g id="node14" class="node">
<title>Node14</title>
<g id="a_node14"><a xlink:title="STL class.">
<polygon fill="white" stroke="#bfbfbf" points="810.5,-383.5 810.5,-402.5 875.5,-402.5 875.5,-383.5 810.5,-383.5"/>
<text text-anchor="middle" x="843" y="-390.5" font-family="Helvetica,sans-Serif" font-size="10.00">std::string</text>
</a>
</g>
</g>
<!-- Node14&#45;&gt;Node7 -->
<g id="edge28" class="edge">
<title>Node14&#45;&gt;Node7</title>
<path fill="none" stroke="#9a32cd" stroke-dasharray="5,2" d="M885.93,-396.77C984.7,-404.5 1239.07,-417.74 1444,-371 1617.55,-331.42 1807.92,-223.37 1863.17,-190.57"/>
<polygon fill="#9a32cd" stroke="#9a32cd" points="886.02,-393.26 875.77,-395.95 885.45,-400.24 886.02,-393.26"/>
<text text-anchor="middle" x="1373" y="-396" font-family="Helvetica,sans-Serif" font-size="10.00"> m_Name</text>
</g>
<!-- Node14&#45;&gt;Node9 -->
<g id="edge14" class="edge">
<title>Node14&#45;&gt;Node9</title>
<path fill="none" stroke="#9a32cd" stroke-dasharray="5,2" d="M863.19,-377.05C879.67,-363.85 904.43,-345.2 928,-332 998.94,-292.28 1035.43,-315.09 1097,-262 1108.78,-251.85 1103.04,-241.93 1115,-232 1129.51,-219.95 1149.16,-212.34 1165.75,-207.68"/>
<polygon fill="#9a32cd" stroke="#9a32cd" points="860.93,-374.37 855.37,-383.39 865.34,-379.8 860.93,-374.37"/>
<text text-anchor="middle" x="1012.5" y="-335" font-family="Helvetica,sans-Serif" font-size="10.00"> m_ObjectName</text>
</g>
<!-- Node25 -->
<g id="node25" class="node">
<title>Node25</title>
<g id="a_node25"><a xlink:title=" ">
<polygon fill="white" stroke="#bfbfbf" points="1118.5,-422 1118.5,-452 1280.5,-452 1280.5,-422 1118.5,-422"/>
<text text-anchor="start" x="1126.5" y="-440" font-family="Helvetica,sans-Serif" font-size="10.00">std::set&lt; DataObjectIdentifier</text>
<text text-anchor="middle" x="1199.5" y="-429" font-family="Helvetica,sans-Serif" font-size="10.00">Type &gt;</text>
</a>
</g>
</g>
<!-- Node14&#45;&gt;Node25 -->
<g id="edge34" class="edge">
<title>Node14&#45;&gt;Node25</title>
<path fill="none" stroke="#9a32cd" stroke-dasharray="5,2" d="M885.51,-398.51C899.05,-400.29 914.16,-402.25 928,-404 991.95,-412.09 1064.45,-420.91 1118.29,-427.4"/>
<polygon fill="#9a32cd" stroke="#9a32cd" points="885.87,-395.03 875.5,-397.19 884.96,-401.97 885.87,-395.03"/>
<text text-anchor="middle" x="1012.5" y="-427" font-family="Helvetica,sans-Serif" font-size="10.00"> keys</text>
</g>
<!-- Node27 -->
<g id="node27" class="node">
<title>Node27</title>
<g id="a_node27"><a xlink:title=" ">
<polygon fill="white" stroke="#bfbfbf" points="1115,-285 1115,-315 1284,-315 1284,-285 1115,-285"/>
<text text-anchor="start" x="1123" y="-303" font-family="Helvetica,sans-Serif" font-size="10.00">std::map&lt; DataObjectIdentifier</text>
<text text-anchor="middle" x="1199.5" y="-292" font-family="Helvetica,sans-Serif" font-size="10.00">Type, bool &gt;</text>
</a>
</g>
</g>
<!-- Node14&#45;&gt;Node27 -->
<g id="edge38" class="edge">
<title>Node14&#45;&gt;Node27</title>
<path fill="none" stroke="#9a32cd" stroke-dasharray="5,2" d="M881.65,-380.45C896.03,-376.01 912.65,-371.31 928,-368 1002.1,-352.03 1024.07,-365.68 1097,-345 1122.78,-337.69 1150.49,-325.05 1170.43,-315.03"/>
<polygon fill="#9a32cd" stroke="#9a32cd" points="880.59,-377.11 872.1,-383.45 882.69,-383.79 880.59,-377.11"/>
<text text-anchor="middle" x="1012.5" y="-371" font-family="Helvetica,sans-Serif" font-size="10.00"> keys</text>
</g>
<!-- Node31 -->
<g id="node31" class="node">
<title>Node31</title>
<g id="a_node31"><a xlink:title=" ">
<polygon fill="white" stroke="#bfbfbf" points="1115,-483 1115,-513 1284,-513 1284,-483 1115,-483"/>
<text text-anchor="start" x="1123" y="-501" font-family="Helvetica,sans-Serif" font-size="10.00">std::map&lt; DataObjectIdentifier</text>
<text text-anchor="middle" x="1199.5" y="-490" font-family="Helvetica,sans-Serif" font-size="10.00">Type, DataObjectPointer &gt;</text>
</a>
</g>
</g>
<!-- Node14&#45;&gt;Node31 -->
<g id="edge48" class="edge">
<title>Node14&#45;&gt;Node31</title>
<path fill="none" stroke="#9a32cd" stroke-dasharray="5,2" d="M867.41,-408.2C883.8,-418.24 906.52,-430.97 928,-439 988.67,-461.69 1060.41,-476.84 1114.77,-486.1"/>
<polygon fill="#9a32cd" stroke="#9a32cd" points="868.89,-405 858.56,-402.66 865.18,-410.93 868.89,-405"/>
<text text-anchor="middle" x="1012.5" y="-485" font-family="Helvetica,sans-Serif" font-size="10.00"> keys</text>
</g>
<!-- Node15 -->
<g id="node15" class="node">
<title>Node15</title>
<g id="a_node15"><a xlink:title="STL class.">
<polygon fill="white" stroke="#bfbfbf" points="466.5,-378 466.5,-408 570.5,-408 570.5,-378 466.5,-378"/>
<text text-anchor="start" x="474.5" y="-396" font-family="Helvetica,sans-Serif" font-size="10.00">std::basic_string&lt;</text>
<text text-anchor="middle" x="518.5" y="-385" font-family="Helvetica,sans-Serif" font-size="10.00"> char &gt;</text>
</a>
</g>
</g>
<!-- Node15&#45;&gt;Node14 -->
<g id="edge15" class="edge">
<title>Node15&#45;&gt;Node14</title>
<path fill="none" stroke="midnightblue" d="M580.8,-393C649.14,-393 757.02,-393 810.2,-393"/>
<polygon fill="midnightblue" stroke="midnightblue" points="580.6,-389.5 570.6,-393 580.6,-396.5 580.6,-389.5"/>
</g>
<!-- Node16 -->
<g id="node16" class="node">
<title>Node16</title>
<g id="a_node16"><a xlink:href="https://www.itk.org/Doxygen/html/classitk_1_1MetaDataDictionary.html" xlink:title=" ">
<polygon fill="white" stroke="black" points="776,-252.5 776,-271.5 910,-271.5 910,-252.5 776,-252.5"/>
<text text-anchor="middle" x="843" y="-259.5" font-family="Helvetica,sans-Serif" font-size="10.00">itk::MetaDataDictionary</text>
</a>
</g>
</g>
<!-- Node16&#45;&gt;Node9 -->
<g id="edge16" class="edge">
<title>Node16&#45;&gt;Node9</title>
<path fill="none" stroke="#9a32cd" stroke-dasharray="5,2" d="M909.33,-250.76C985.28,-237.69 1107.64,-216.63 1165.78,-206.63"/>
<polygon fill="#9a32cd" stroke="#9a32cd" points="908.65,-247.32 899.39,-252.47 909.84,-254.22 908.65,-247.32"/>
<text text-anchor="middle" x="1012.5" y="-250" font-family="Helvetica,sans-Serif" font-size="10.00"> m_MetaDataDictionary</text>
</g>
<!-- Node17 -->
<g id="node17" class="node">
<title>Node17</title>
<g id="a_node17"><a xlink:title=" ">
<polygon fill="white" stroke="#bfbfbf" points="444,-248 444,-278 593,-278 593,-248 444,-248"/>
<text text-anchor="start" x="452" y="-266" font-family="Helvetica,sans-Serif" font-size="10.00">std::shared_ptr&lt; MetaData</text>
<text text-anchor="middle" x="518.5" y="-255" font-family="Helvetica,sans-Serif" font-size="10.00">DictionaryMapType &gt;</text>
</a>
</g>
</g>
<!-- Node17&#45;&gt;Node16 -->
<g id="edge17" class="edge">
<title>Node17&#45;&gt;Node16</title>
<path fill="none" stroke="#9a32cd" stroke-dasharray="5,2" d="M603.29,-262.74C657.07,-262.57 725.93,-262.36 775.86,-262.21"/>
<polygon fill="#9a32cd" stroke="#9a32cd" points="603.07,-259.24 593.08,-262.77 603.09,-266.24 603.07,-259.24"/>
<text text-anchor="middle" x="684.5" y="-265" font-family="Helvetica,sans-Serif" font-size="10.00"> m_Dictionary</text>
</g>
<!-- Node18&#45;&gt;Node17 -->
<g id="edge18" class="edge">
<title>Node18&#45;&gt;Node17</title>
<path fill="none" stroke="#9a32cd" stroke-dasharray="5,2" d="M214.55,-293.2C228.04,-288.97 243.57,-284.66 258,-282 320.08,-270.56 391.72,-265.95 443.97,-264.12"/>
<polygon fill="#9a32cd" stroke="#9a32cd" points="213.11,-289.99 204.67,-296.4 215.26,-296.65 213.11,-289.99"/>
<text text-anchor="middle" x="342" y="-285" font-family="Helvetica,sans-Serif" font-size="10.00"> ptr</text>
</g>
<!-- Node18&#45;&gt;Node27 -->
<g id="edge39" class="edge">
<title>Node18&#45;&gt;Node27</title>
<path fill="none" stroke="orange" stroke-dasharray="5,2" d="M237.77,-305.65C411.11,-304.63 914.37,-301.67 1114.75,-300.49"/>
<polygon fill="orange" stroke="orange" points="237.54,-302.15 227.57,-305.71 237.59,-309.15 237.54,-302.15"/>
<text text-anchor="start" x="615" y="-317" font-family="Helvetica,sans-Serif" font-size="10.00"> &lt; DataObjectIdentifierType,</text>
<text text-anchor="middle" x="684.5" y="-306" font-family="Helvetica,sans-Serif" font-size="10.00"> bool &gt;</text>
</g>
<!-- Node18&#45;&gt;Node31 -->
<g id="edge49" class="edge">
<title>Node18&#45;&gt;Node31</title>
<path fill="none" stroke="orange" stroke-dasharray="5,2" d="M209.63,-319.52C259.4,-340.75 359.06,-383.08 444,-418 517.97,-448.41 532.78,-468.35 611,-485 748.9,-514.35 787.04,-494.07 928,-497 990.56,-498.3 1061.28,-498.52 1114.72,-498.43"/>
<polygon fill="orange" stroke="orange" points="210.94,-316.28 200.37,-315.57 208.19,-322.71 210.94,-316.28"/>
<text text-anchor="start" x="615" y="-515" font-family="Helvetica,sans-Serif" font-size="10.00"> &lt; DataObjectIdentifierType,</text>
<text text-anchor="middle" x="684.5" y="-504" font-family="Helvetica,sans-Serif" font-size="10.00"> DataObjectPointer &gt;</text>
</g>
<!-- Node19 -->
<g id="node19" class="node">
<title>Node19</title>
<g id="a_node19"><a xlink:title=" ">
<polygon fill="white" stroke="#bfbfbf" points="0,-296.5 0,-315.5 29,-315.5 29,-296.5 0,-296.5"/>
<text text-anchor="middle" x="14.5" y="-303.5" font-family="Helvetica,sans-Serif" font-size="10.00">K</text>
</a>
</g>
</g>
<!-- Node19&#45;&gt;Node18 -->
<g id="edge19" class="edge">
<title>Node19&#45;&gt;Node18</title>
<path fill="none" stroke="#9a32cd" stroke-dasharray="5,2" d="M39.33,-306C62.17,-306 97.37,-306 126.32,-306"/>
<polygon fill="#9a32cd" stroke="#9a32cd" points="39.18,-302.5 29.18,-306 39.18,-309.5 39.18,-302.5"/>
<text text-anchor="middle" x="71.5" y="-309" font-family="Helvetica,sans-Serif" font-size="10.00"> keys</text>
</g>
<!-- Node19&#45;&gt;Node22 -->
<g id="edge26" class="edge">
<title>Node19&#45;&gt;Node22</title>
<path fill="none" stroke="#9a32cd" stroke-dasharray="5,2" d="M37.74,-293.18C58.91,-280.52 88.6,-261.46 96,-250 119.78,-213.16 84.81,-185.72 114,-153 117.45,-149.14 121.66,-146.05 126.25,-143.58"/>
<polygon fill="#9a32cd" stroke="#9a32cd" points="35.84,-290.23 29.01,-298.33 39.4,-296.26 35.84,-290.23"/>
<text text-anchor="middle" x="71.5" y="-289" font-family="Helvetica,sans-Serif" font-size="10.00"> keys</text>
</g>
<!-- Node26 -->
<g id="node26" class="node">
<title>Node26</title>
<g id="a_node26"><a xlink:title="STL class.">
<polygon fill="white" stroke="#bfbfbf" points="301,-522.5 301,-541.5 383,-541.5 383,-522.5 301,-522.5"/>
<text text-anchor="middle" x="342" y="-529.5" font-family="Helvetica,sans-Serif" font-size="10.00">std::set&lt; K &gt;</text>
</a>
</g>
</g>
<!-- Node19&#45;&gt;Node26 -->
<g id="edge36" class="edge">
<title>Node19&#45;&gt;Node26</title>
<path fill="none" stroke="#9a32cd" stroke-dasharray="5,2" d="M29.39,-323.5C63.42,-364.98 155.63,-469.46 258,-518 271.2,-524.26 286.76,-527.77 300.81,-529.71"/>
<polygon fill="#9a32cd" stroke="#9a32cd" points="32.05,-321.21 23.04,-315.64 26.61,-325.62 32.05,-321.21"/>
<text text-anchor="middle" x="71.5" y="-395" font-family="Helvetica,sans-Serif" font-size="10.00"> keys</text>
</g>
<!-- Node20&#45;&gt;Node17 -->
<g id="edge21" class="edge">
<title>Node20&#45;&gt;Node17</title>
<path fill="none" stroke="orange" stroke-dasharray="5,2" d="M246.29,-231.99C296.19,-235.28 365.43,-240.61 426,-248 431.75,-248.7 437.7,-249.5 443.66,-250.36"/>
<polygon fill="orange" stroke="orange" points="246.47,-228.5 236.26,-231.34 246.01,-235.48 246.47,-228.5"/>
<text text-anchor="middle" x="342" y="-251" font-family="Helvetica,sans-Serif" font-size="10.00"> &lt; MetaDataDictionaryMapType &gt;</text>
</g>
<!-- Node21&#45;&gt;Node9 -->
<g id="edge23" class="edge">
<title>Node21&#45;&gt;Node9</title>
<path fill="none" stroke="#9a32cd" stroke-dasharray="5,2" d="M886.2,-205.92C899.46,-202.67 914.24,-199.62 928,-198 1013.36,-187.98 1114.91,-193.82 1165.88,-197.96"/>
<polygon fill="#9a32cd" stroke="#9a32cd" points="885.22,-202.56 876.39,-208.42 886.95,-209.34 885.22,-202.56"/>
<text text-anchor="middle" x="1012.5" y="-201" font-family="Helvetica,sans-Serif" font-size="10.00"> m_MTime</text>
</g>
<!-- Node21&#45;&gt;Node24 -->
<g id="edge50" class="edge">
<title>Node21&#45;&gt;Node24</title>
<path fill="none" stroke="#9a32cd" stroke-dasharray="5,2" d="M879.12,-230.8C893.98,-235.61 911.62,-240.5 928,-243 984.68,-251.65 1386.67,-248.96 1444,-250 1455.92,-250.22 1468.74,-250.49 1480.82,-250.76"/>
<polygon fill="#9a32cd" stroke="#9a32cd" points="879.91,-227.38 869.32,-227.53 877.69,-234.02 879.91,-227.38"/>
<text text-anchor="middle" x="1199.5" y="-252" font-family="Helvetica,sans-Serif" font-size="10.00"> m_OutputInformationMTime</text>
</g>
<!-- Node22&#45;&gt;Node8 -->
<g id="edge25" class="edge">
<title>Node22&#45;&gt;Node8</title>
<path fill="none" stroke="orange" stroke-dasharray="5,2" d="M250.24,-125.34C426.64,-105.12 893.51,-57.24 1284,-67 1355.18,-68.78 1376.07,-53.67 1444,-75 1467.03,-82.23 1490.06,-96.96 1506.78,-109.36"/>
<polygon fill="orange" stroke="orange" points="249.83,-121.86 240.3,-126.48 250.63,-128.81 249.83,-121.86"/>
<text text-anchor="start" x="790" y="-93" font-family="Helvetica,sans-Serif" font-size="10.00"> &lt; itk::Object *, std</text>
<text text-anchor="middle" x="843" y="-82" font-family="Helvetica,sans-Serif" font-size="10.00">::function&lt; void()&gt; &gt;</text>
</g>
<!-- Node23&#45;&gt;Node4 -->
<g id="edge29" class="edge">
<title>Node23&#45;&gt;Node4</title>
<path fill="none" stroke="orange" stroke-dasharray="5,2" d="M392.73,-8.39C459.03,-5.13 580.06,0 683.5,0 683.5,0 683.5,0 2319.5,0 2430.8,0 2526.38,-119.78 2557.14,-162.82"/>
<polygon fill="orange" stroke="orange" points="392.38,-4.9 382.57,-8.89 392.73,-11.89 392.38,-4.9"/>
<text text-anchor="start" x="1462" y="-14" font-family="Helvetica,sans-Serif" font-size="10.00"> &lt; itk::simple::ProcessObject</text>
<text text-anchor="middle" x="1533" y="-3" font-family="Helvetica,sans-Serif" font-size="10.00">::EventCommand &gt;</text>
</g>
<!-- Node24&#45;&gt;Node2 -->
<g id="edge31" class="edge">
<title>Node24&#45;&gt;Node2</title>
<path fill="none" stroke="#9a32cd" stroke-dasharray="5,2" d="M1552.28,-268.19C1601.37,-309.94 1741.71,-418 1879,-418 1879,-418 1879,-418 2569.5,-418 2698.74,-418 2808.71,-271.27 2836,-231.72"/>
<polygon fill="#9a32cd" stroke="#9a32cd" points="1554.55,-265.53 1544.69,-261.64 1549.98,-270.83 1554.55,-265.53"/>
<text text-anchor="middle" x="2185.5" y="-421" font-family="Helvetica,sans-Serif" font-size="10.00"> m_ActiveProcess</text>
</g>
<!-- Node25&#45;&gt;Node24 -->
<g id="edge33" class="edge">
<title>Node25&#45;&gt;Node24</title>
<path fill="none" stroke="#9a32cd" stroke-dasharray="5,2" d="M1213.45,-412.71C1229.98,-384.3 1261.37,-338.19 1302,-315 1357.52,-283.3 1382.8,-310.5 1444,-292 1469.54,-284.28 1497.3,-270.72 1514.67,-261.55"/>
<polygon fill="#9a32cd" stroke="#9a32cd" points="1210.3,-411.18 1208.43,-421.61 1216.39,-414.62 1210.3,-411.18"/>
<text text-anchor="middle" x="1373" y="-318" font-family="Helvetica,sans-Serif" font-size="10.00"> m_RequiredInputNames</text>
</g>
<!-- Node26&#45;&gt;Node25 -->
<g id="edge35" class="edge">
<title>Node26&#45;&gt;Node25</title>
<path fill="none" stroke="orange" stroke-dasharray="5,2" d="M388.44,-519.98C441.45,-506.46 531.93,-484.98 611,-474 791.18,-448.97 1004.83,-440.86 1118.3,-438.24"/>
<polygon fill="orange" stroke="orange" points="387.49,-516.61 378.67,-522.49 389.23,-523.39 387.49,-516.61"/>
<text text-anchor="middle" x="684.5" y="-477" font-family="Helvetica,sans-Serif" font-size="10.00"> &lt; DataObjectIdentifierType &gt;</text>
</g>
<!-- Node27&#45;&gt;Node24 -->
<g id="edge37" class="edge">
<title>Node27&#45;&gt;Node24</title>
<path fill="none" stroke="#9a32cd" stroke-dasharray="5,2" d="M1253.84,-281.96C1269.22,-277.38 1286.14,-272.93 1302,-270 1362.85,-258.75 1434.03,-254.53 1480.9,-252.94"/>
<polygon fill="#9a32cd" stroke="#9a32cd" points="1252.52,-278.7 1243.98,-284.97 1254.56,-285.4 1252.52,-278.7"/>
<text text-anchor="start" x="1302" y="-284" font-family="Helvetica,sans-Serif" font-size="10.00"> m_CachedInputReleaseData</text>
<text text-anchor="middle" x="1373" y="-273" font-family="Helvetica,sans-Serif" font-size="10.00">Flags</text>
</g>
<!-- Node28&#45;&gt;Node24 -->
<g id="edge40" class="edge">
<title>Node28&#45;&gt;Node24</title>
<path fill="none" stroke="#9a32cd" stroke-dasharray="5,2" d="M761.9,-140.19C844.56,-144.92 980.23,-153.24 1097,-163 1180.25,-169.96 1200.94,-173.11 1284,-182 1355.15,-189.62 1382.57,-163.29 1444,-200 1456.06,-207.21 1450.9,-217.38 1462,-226 1471.21,-233.16 1482.6,-238.5 1493.49,-242.41"/>
<polygon fill="#9a32cd" stroke="#9a32cd" points="762.02,-136.7 751.84,-139.62 761.62,-143.68 762.02,-136.7"/>
<text text-anchor="middle" x="1012.5" y="-166" font-family="Helvetica,sans-Serif" font-size="10.00"> m_Progress</text>
</g>
<!-- Node29 -->
<g id="node29" class="node">
<title>Node29</title>
<g id="a_node29"><a xlink:title=" ">
<polygon fill="white" stroke="#bfbfbf" points="928,-83 928,-113 1097,-113 1097,-83 928,-83"/>
<text text-anchor="start" x="936" y="-101" font-family="Helvetica,sans-Serif" font-size="10.00">std::vector&lt; DataObjectPointer</text>
<text text-anchor="middle" x="1012.5" y="-90" font-family="Helvetica,sans-Serif" font-size="10.00">Map::iterator &gt;</text>
</a>
</g>
</g>
<!-- Node29&#45;&gt;Node24 -->
<g id="edge42" class="edge">
<title>Node29&#45;&gt;Node24</title>
<path fill="none" stroke="#9a32cd" stroke-dasharray="5,2" d="M1090.14,-81.23C1186.37,-65.1 1350.17,-54.79 1444,-145 1470.58,-170.56 1437.77,-198.2 1462,-226 1468.39,-233.33 1477.04,-238.6 1486.08,-242.38"/>
<polygon fill="#9a32cd" stroke="#9a32cd" points="1089.44,-77.79 1080.19,-82.96 1090.64,-84.69 1089.44,-77.79"/>
<text text-anchor="middle" x="1199.5" y="-92" font-family="Helvetica,sans-Serif" font-size="10.00"> m_IndexedOutputs</text>
<text text-anchor="middle" x="1199.5" y="-81" font-family="Helvetica,sans-Serif" font-size="10.00">m_IndexedInputs</text>
</g>
<!-- Node30&#45;&gt;Node29 -->
<g id="edge43" class="edge">
<title>Node30&#45;&gt;Node29</title>
<path fill="none" stroke="orange" stroke-dasharray="5,2" d="M235.85,-82.96C243.3,-82.56 250.83,-82.22 258,-82 332.63,-79.67 351.34,-80.98 426,-82 604.7,-84.44 813.99,-91.07 927.65,-94.99"/>
<polygon fill="orange" stroke="orange" points="235.57,-79.47 225.78,-83.52 235.96,-86.45 235.57,-79.47"/>
<text text-anchor="start" x="456" y="-100" font-family="Helvetica,sans-Serif" font-size="10.00"> &lt; DataObjectPointerMap</text>
<text text-anchor="middle" x="518.5" y="-89" font-family="Helvetica,sans-Serif" font-size="10.00">::iterator &gt;</text>
</g>
<!-- Node31&#45;&gt;Node24 -->
<g id="edge45" class="edge">
<title>Node31&#45;&gt;Node24</title>
<path fill="none" stroke="#9a32cd" stroke-dasharray="5,2" d="M1266.02,-477.85C1272.86,-473.53 1279.09,-468.31 1284,-462 1315.21,-421.85 1266.09,-385.01 1302,-349 1347.15,-303.73 1385.88,-352.65 1444,-326 1478.11,-310.36 1509.58,-277.78 1523.89,-261.58"/>
<polygon fill="#9a32cd" stroke="#9a32cd" points="1264.11,-474.91 1257.09,-482.85 1267.52,-481.02 1264.11,-474.91"/>
<text text-anchor="middle" x="1373" y="-363" font-family="Helvetica,sans-Serif" font-size="10.00"> m_Outputs</text>
<text text-anchor="middle" x="1373" y="-352" font-family="Helvetica,sans-Serif" font-size="10.00">m_Inputs</text>
</g>
<!-- Node32 -->
<g id="node32" class="node">
<title>Node32</title>
<g id="a_node32"><a xlink:href="https://www.itk.org/Doxygen/html/classitk_1_1SmartPointer.html" xlink:title=" ">
<polygon fill="white" stroke="black" points="789.5,-537 789.5,-567 896.5,-567 896.5,-537 789.5,-537"/>
<text text-anchor="start" x="797.5" y="-555" font-family="Helvetica,sans-Serif" font-size="10.00">itk::SmartPointer&lt;</text>
<text text-anchor="middle" x="843" y="-544" font-family="Helvetica,sans-Serif" font-size="10.00"> Self &gt;</text>
</a>
</g>
</g>
<!-- Node32&#45;&gt;Node31 -->
<g id="edge46" class="edge">
<title>Node32&#45;&gt;Node31</title>
<path fill="none" stroke="#9a32cd" stroke-dasharray="5,2" d="M906.96,-547.98C958.39,-544.05 1032.8,-536.89 1097,-525 1113.85,-521.88 1132.02,-517.41 1148.25,-513"/>
<polygon fill="#9a32cd" stroke="#9a32cd" points="906.38,-544.51 896.67,-548.75 906.9,-551.5 906.38,-544.51"/>
<text text-anchor="middle" x="1012.5" y="-549" font-family="Helvetica,sans-Serif" font-size="10.00"> elements</text>
</g>
<!-- Node33 -->
<g id="node33" class="node">
<title>Node33</title>
<g id="a_node33"><a xlink:href="https://www.itk.org/Doxygen/html/classitk_1_1SmartPointer.html" xlink:title=" ">
<polygon fill="white" stroke="black" points="465,-537 465,-567 572,-567 572,-537 465,-537"/>
<text text-anchor="start" x="473" y="-555" font-family="Helvetica,sans-Serif" font-size="10.00">itk::SmartPointer&lt;</text>
<text text-anchor="middle" x="518.5" y="-544" font-family="Helvetica,sans-Serif" font-size="10.00"> TObjectType &gt;</text>
</a>
</g>
</g>
<!-- Node33&#45;&gt;Node32 -->
<g id="edge47" class="edge">
<title>Node33&#45;&gt;Node32</title>
<path fill="none" stroke="orange" stroke-dasharray="5,2" d="M582.2,-552C642.56,-552 732.81,-552 789.49,-552"/>
<polygon fill="orange" stroke="orange" points="582.03,-548.5 572.03,-552 582.03,-555.5 582.03,-548.5"/>
<text text-anchor="middle" x="684.5" y="-555" font-family="Helvetica,sans-Serif" font-size="10.00"> &lt; Self &gt;</text>
</g>
</g>
</svg>
