<?xml version="1.0" encoding="UTF-8" standalone="no"?>
<!DOCTYPE svg PUBLIC "-//W3C//DTD SVG 1.1//EN"
 "http://www.w3.org/Graphics/SVG/1.1/DTD/svg11.dtd">
<!-- Generated by graphviz version 2.43.0 (0)
 -->
<!-- Title: itk::simple::CurvatureAnisotropicDiffusionImageFilter Pages: 1 -->
<svg width="185pt" height="207pt"
 viewBox="0.00 0.00 185.00 207.00" xmlns="http://www.w3.org/2000/svg" xmlns:xlink="http://www.w3.org/1999/xlink">
<g id="graph0" class="graph" transform="scale(1 1) rotate(0) translate(4 203)">
<title>itk::simple::CurvatureAnisotropicDiffusionImageFilter</title>
<polygon fill="white" stroke="transparent" points="-4,4 -4,-203 181,-203 181,4 -4,4"/>
<!-- Node1 -->
<g id="node1" class="node">
<title>Node1</title>
<g id="a_node1"><a xlink:title=" ">
<polygon fill="#bfbfbf" stroke="black" points="0,-0.5 0,-30.5 177,-30.5 177,-0.5 0,-0.5"/>
<text text-anchor="start" x="8" y="-18.5" font-family="Helvetica,sans-Serif" font-size="10.00">itk::simple::CurvatureAnisotropic</text>
<text text-anchor="middle" x="88.5" y="-7.5" font-family="Helvetica,sans-Serif" font-size="10.00">DiffusionImageFilter</text>
</a>
</g>
</g>
<!-- Node2 -->
<g id="node2" class="node">
<title>Node2</title>
<g id="a_node2"><a xlink:href="classitk_1_1simple_1_1ImageFilter.html" target="_top" xlink:title="The base interface for SimpleITK filters that take one input image.">
<polygon fill="white" stroke="black" points="23.5,-67.5 23.5,-86.5 153.5,-86.5 153.5,-67.5 23.5,-67.5"/>
<text text-anchor="middle" x="88.5" y="-74.5" font-family="Helvetica,sans-Serif" font-size="10.00">itk::simple::ImageFilter</text>
</a>
</g>
</g>
<!-- Node2&#45;&gt;Node1 -->
<g id="edge1" class="edge">
<title>Node2&#45;&gt;Node1</title>
<path fill="none" stroke="midnightblue" d="M88.5,-57.23C88.5,-48.59 88.5,-38.5 88.5,-30.52"/>
<polygon fill="midnightblue" stroke="midnightblue" points="85,-57.48 88.5,-67.48 92,-57.48 85,-57.48"/>
</g>
<!-- Node3 -->
<g id="node3" class="node">
<title>Node3</title>
<g id="a_node3"><a xlink:href="classitk_1_1simple_1_1ProcessObject.html" target="_top" xlink:title="Base class for SimpleITK classes based on ProcessObject.">
<polygon fill="white" stroke="black" points="17,-123.5 17,-142.5 160,-142.5 160,-123.5 17,-123.5"/>
<text text-anchor="middle" x="88.5" y="-130.5" font-family="Helvetica,sans-Serif" font-size="10.00">itk::simple::ProcessObject</text>
</a>
</g>
</g>
<!-- Node3&#45;&gt;Node2 -->
<g id="edge2" class="edge">
<title>Node3&#45;&gt;Node2</title>
<path fill="none" stroke="midnightblue" d="M88.5,-112.8C88.5,-103.91 88.5,-93.78 88.5,-86.75"/>
<polygon fill="midnightblue" stroke="midnightblue" points="85,-113.08 88.5,-123.08 92,-113.08 85,-113.08"/>
</g>
<!-- Node4 -->
<g id="node4" class="node">
<title>Node4</title>
<g id="a_node4"><a xlink:href="classitk_1_1simple_1_1NonCopyable.html" target="_top" xlink:title="An inheritable class to disable copying of a class.">
<polygon fill="white" stroke="black" points="18.5,-179.5 18.5,-198.5 158.5,-198.5 158.5,-179.5 18.5,-179.5"/>
<text text-anchor="middle" x="88.5" y="-186.5" font-family="Helvetica,sans-Serif" font-size="10.00">itk::simple::NonCopyable</text>
</a>
</g>
</g>
<!-- Node4&#45;&gt;Node3 -->
<g id="edge3" class="edge">
<title>Node4&#45;&gt;Node3</title>
<path fill="none" stroke="darkgreen" d="M88.5,-168.8C88.5,-159.91 88.5,-149.78 88.5,-142.75"/>
<polygon fill="darkgreen" stroke="darkgreen" points="85,-169.08 88.5,-179.08 92,-169.08 85,-169.08"/>
</g>
</g>
</svg>
