<?xml version="1.0" encoding="UTF-8" standalone="no"?>
<!DOCTYPE svg PUBLIC "-//W3C//DTD SVG 1.1//EN"
 "http://www.w3.org/Graphics/SVG/1.1/DTD/svg11.dtd">
<!-- Generated by graphviz version 2.43.0 (0)
 -->
<!-- Title: itk::simple::ImageFileReader Pages: 1 -->
<svg width="172pt" height="196pt"
 viewBox="0.00 0.00 172.00 196.00" xmlns="http://www.w3.org/2000/svg" xmlns:xlink="http://www.w3.org/1999/xlink">
<g id="graph0" class="graph" transform="scale(1 1) rotate(0) translate(4 192)">
<title>itk::simple::ImageFileReader</title>
<polygon fill="white" stroke="transparent" points="-4,4 -4,-192 168,-192 168,4 -4,4"/>
<!-- Node1 -->
<g id="node1" class="node">
<title>Node1</title>
<g id="a_node1"><a xlink:title="Read an image file and return a SimpleITK Image.">
<polygon fill="#bfbfbf" stroke="black" points="3.5,-0.5 3.5,-19.5 160.5,-19.5 160.5,-0.5 3.5,-0.5"/>
<text text-anchor="middle" x="82" y="-7.5" font-family="Helvetica,sans-Serif" font-size="10.00">itk::simple::ImageFileReader</text>
</a>
</g>
</g>
<!-- Node2 -->
<g id="node2" class="node">
<title>Node2</title>
<g id="a_node2"><a xlink:href="classitk_1_1simple_1_1ImageReaderBase.html" target="_top" xlink:title="An abstract base class for image readers.">
<polygon fill="white" stroke="black" points="0,-56.5 0,-75.5 164,-75.5 164,-56.5 0,-56.5"/>
<text text-anchor="middle" x="82" y="-63.5" font-family="Helvetica,sans-Serif" font-size="10.00">itk::simple::ImageReaderBase</text>
</a>
</g>
</g>
<!-- Node2&#45;&gt;Node1 -->
<g id="edge1" class="edge">
<title>Node2&#45;&gt;Node1</title>
<path fill="none" stroke="midnightblue" d="M82,-45.8C82,-36.91 82,-26.78 82,-19.75"/>
<polygon fill="midnightblue" stroke="midnightblue" points="78.5,-46.08 82,-56.08 85.5,-46.08 78.5,-46.08"/>
</g>
<!-- Node3 -->
<g id="node3" class="node">
<title>Node3</title>
<g id="a_node3"><a xlink:href="classitk_1_1simple_1_1ProcessObject.html" target="_top" xlink:title="Base class for SimpleITK classes based on ProcessObject.">
<polygon fill="white" stroke="black" points="10.5,-112.5 10.5,-131.5 153.5,-131.5 153.5,-112.5 10.5,-112.5"/>
<text text-anchor="middle" x="82" y="-119.5" font-family="Helvetica,sans-Serif" font-size="10.00">itk::simple::ProcessObject</text>
</a>
</g>
</g>
<!-- Node3&#45;&gt;Node2 -->
<g id="edge2" class="edge">
<title>Node3&#45;&gt;Node2</title>
<path fill="none" stroke="midnightblue" d="M82,-101.8C82,-92.91 82,-82.78 82,-75.75"/>
<polygon fill="midnightblue" stroke="midnightblue" points="78.5,-102.08 82,-112.08 85.5,-102.08 78.5,-102.08"/>
</g>
<!-- Node4 -->
<g id="node4" class="node">
<title>Node4</title>
<g id="a_node4"><a xlink:href="classitk_1_1simple_1_1NonCopyable.html" target="_top" xlink:title="An inheritable class to disable copying of a class.">
<polygon fill="white" stroke="black" points="12,-168.5 12,-187.5 152,-187.5 152,-168.5 12,-168.5"/>
<text text-anchor="middle" x="82" y="-175.5" font-family="Helvetica,sans-Serif" font-size="10.00">itk::simple::NonCopyable</text>
</a>
</g>
</g>
<!-- Node4&#45;&gt;Node3 -->
<g id="edge3" class="edge">
<title>Node4&#45;&gt;Node3</title>
<path fill="none" stroke="darkgreen" d="M82,-157.8C82,-148.91 82,-138.78 82,-131.75"/>
<polygon fill="darkgreen" stroke="darkgreen" points="78.5,-158.08 82,-168.08 85.5,-158.08 78.5,-158.08"/>
</g>
</g>
</svg>
