<?xml version="1.0" encoding="UTF-8" standalone="no"?>
<!DOCTYPE svg PUBLIC "-//W3C//DTD SVG 1.1//EN"
 "http://www.w3.org/Graphics/SVG/1.1/DTD/svg11.dtd">
<!-- Generated by graphviz version 2.43.0 (0)
 -->
<!-- Title: itk::simple::Command Pages: 1 -->
<svg width="251pt" height="220pt"
 viewBox="0.00 0.00 251.00 220.00" xmlns="http://www.w3.org/2000/svg" xmlns:xlink="http://www.w3.org/1999/xlink">
<g id="graph0" class="graph" transform="scale(1 1) rotate(0) translate(4 216)">
<title>itk::simple::Command</title>
<polygon fill="white" stroke="transparent" points="-4,4 -4,-216 247,-216 247,4 -4,4"/>
<!-- Node1 -->
<g id="node1" class="node">
<title>Node1</title>
<g id="a_node1"><a xlink:title="An implementation of the Command design pattern for callback.">
<polygon fill="#bfbfbf" stroke="black" points="23.5,-0.5 23.5,-19.5 148.5,-19.5 148.5,-0.5 23.5,-0.5"/>
<text text-anchor="middle" x="86" y="-7.5" font-family="Helvetica,sans-Serif" font-size="10.00">itk::simple::Command</text>
</a>
</g>
</g>
<!-- Node2 -->
<g id="node2" class="node">
<title>Node2</title>
<g id="a_node2"><a xlink:href="classitk_1_1simple_1_1ObjectOwnedBase.html" target="_top" xlink:title="An abstract base class to connect this object with the lifetime of another.">
<polygon fill="white" stroke="black" points="4,-57.5 4,-76.5 168,-76.5 168,-57.5 4,-57.5"/>
<text text-anchor="middle" x="86" y="-64.5" font-family="Helvetica,sans-Serif" font-size="10.00">itk::simple::ObjectOwnedBase</text>
</a>
</g>
</g>
<!-- Node2&#45;&gt;Node1 -->
<g id="edge1" class="edge">
<title>Node2&#45;&gt;Node1</title>
<path fill="none" stroke="midnightblue" d="M86,-47.12C86,-37.82 86,-27.06 86,-19.71"/>
<polygon fill="midnightblue" stroke="midnightblue" points="82.5,-47.41 86,-57.41 89.5,-47.41 82.5,-47.41"/>
</g>
<!-- Node3 -->
<g id="node3" class="node">
<title>Node3</title>
<g id="a_node3"><a xlink:href="classitk_1_1simple_1_1NonCopyable.html" target="_top" xlink:title="An inheritable class to disable copying of a class.">
<polygon fill="white" stroke="black" points="0,-124.5 0,-143.5 140,-143.5 140,-124.5 0,-124.5"/>
<text text-anchor="middle" x="70" y="-131.5" font-family="Helvetica,sans-Serif" font-size="10.00">itk::simple::NonCopyable</text>
</a>
</g>
</g>
<!-- Node3&#45;&gt;Node2 -->
<g id="edge2" class="edge">
<title>Node3&#45;&gt;Node2</title>
<path fill="none" stroke="midnightblue" d="M74.57,-114.41C77.63,-101.99 81.52,-86.22 83.88,-76.63"/>
<polygon fill="midnightblue" stroke="midnightblue" points="71.15,-113.69 72.16,-124.23 77.95,-115.36 71.15,-113.69"/>
</g>
<!-- Node4 -->
<g id="node4" class="node">
<title>Node4</title>
<g id="a_node4"><a xlink:title=" ">
<polygon fill="white" stroke="#bfbfbf" points="158.5,-124.5 158.5,-143.5 223.5,-143.5 223.5,-124.5 158.5,-124.5"/>
<text text-anchor="middle" x="191" y="-131.5" font-family="Helvetica,sans-Serif" font-size="10.00">std::string</text>
</a>
</g>
</g>
<!-- Node4&#45;&gt;Node2 -->
<g id="edge3" class="edge">
<title>Node4&#45;&gt;Node2</title>
<path fill="none" stroke="#9a32cd" stroke-dasharray="5,2" d="M168.29,-118.94C147.5,-106.07 117.38,-87.43 99.94,-76.63"/>
<polygon fill="#9a32cd" stroke="#9a32cd" points="166.49,-121.95 176.84,-124.23 170.18,-115.99 166.49,-121.95"/>
<text text-anchor="middle" x="168" y="-98" font-family="Helvetica,sans-Serif" font-size="10.00"> m_Name</text>
</g>
<!-- Node5 -->
<g id="node5" class="node">
<title>Node5</title>
<g id="a_node5"><a xlink:title=" ">
<polygon fill="white" stroke="#bfbfbf" points="139,-181.5 139,-211.5 243,-211.5 243,-181.5 139,-181.5"/>
<text text-anchor="start" x="147" y="-199.5" font-family="Helvetica,sans-Serif" font-size="10.00">std::basic_string&lt;</text>
<text text-anchor="middle" x="191" y="-188.5" font-family="Helvetica,sans-Serif" font-size="10.00"> Char &gt;</text>
</a>
</g>
</g>
<!-- Node5&#45;&gt;Node4 -->
<g id="edge4" class="edge">
<title>Node5&#45;&gt;Node4</title>
<path fill="none" stroke="midnightblue" d="M191,-171.35C191,-161.51 191,-150.78 191,-143.54"/>
<polygon fill="midnightblue" stroke="midnightblue" points="187.5,-171.47 191,-181.47 194.5,-171.47 187.5,-171.47"/>
</g>
</g>
</svg>
