<?xml version="1.0" encoding="UTF-8" standalone="no"?>
<!DOCTYPE svg PUBLIC "-//W3C//DTD SVG 1.1//EN"
 "http://www.w3.org/Graphics/SVG/1.1/DTD/svg11.dtd">
<!-- Generated by graphviz version 2.43.0 (0)
 -->
<!-- Title: itk::simple::ResampleImageFilter Pages: 1 -->
<svg width="1809pt" height="308pt"
 viewBox="0.00 0.00 1809.00 308.00" xmlns="http://www.w3.org/2000/svg" xmlns:xlink="http://www.w3.org/1999/xlink">
<g id="graph0" class="graph" transform="scale(1 1) rotate(0) translate(4 304)">
<title>itk::simple::ResampleImageFilter</title>
<polygon fill="white" stroke="transparent" points="-4,4 -4,-304 1805,-304 1805,4 -4,4"/>
<!-- Node1 -->
<g id="node1" class="node">
<title>Node1</title>
<g id="a_node1"><a xlink:title="Resample an image via a coordinate transform.">
<polygon fill="#bfbfbf" stroke="black" points="1647,-171 1647,-201 1801,-201 1801,-171 1647,-171"/>
<text text-anchor="start" x="1655" y="-189" font-family="Helvetica,sans-Serif" font-size="10.00">itk::simple::ResampleImage</text>
<text text-anchor="middle" x="1724" y="-178" font-family="Helvetica,sans-Serif" font-size="10.00">Filter</text>
</a>
</g>
</g>
<!-- Node2 -->
<g id="node2" class="node">
<title>Node2</title>
<g id="a_node2"><a xlink:href="classitk_1_1simple_1_1ImageFilter.html" target="_top" xlink:title="The base interface for SimpleITK filters that take one input image.">
<polygon fill="white" stroke="black" points="1414,-201.5 1414,-220.5 1544,-220.5 1544,-201.5 1414,-201.5"/>
<text text-anchor="middle" x="1479" y="-208.5" font-family="Helvetica,sans-Serif" font-size="10.00">itk::simple::ImageFilter</text>
</a>
</g>
</g>
<!-- Node2&#45;&gt;Node1 -->
<g id="edge1" class="edge">
<title>Node2&#45;&gt;Node1</title>
<path fill="none" stroke="midnightblue" d="M1554.34,-203.35C1583.65,-200.34 1617.31,-196.87 1646.8,-193.84"/>
<polygon fill="midnightblue" stroke="midnightblue" points="1553.75,-199.89 1544.16,-204.4 1554.47,-206.86 1553.75,-199.89"/>
</g>
<!-- Node3 -->
<g id="node3" class="node">
<title>Node3</title>
<g id="a_node3"><a xlink:href="classitk_1_1simple_1_1ProcessObject.html" target="_top" xlink:title="Base class for SimpleITK classes based on ProcessObject.">
<polygon fill="white" stroke="black" points="1234,-201.5 1234,-220.5 1377,-220.5 1377,-201.5 1234,-201.5"/>
<text text-anchor="middle" x="1305.5" y="-208.5" font-family="Helvetica,sans-Serif" font-size="10.00">itk::simple::ProcessObject</text>
</a>
</g>
</g>
<!-- Node3&#45;&gt;Node2 -->
<g id="edge2" class="edge">
<title>Node3&#45;&gt;Node2</title>
<path fill="none" stroke="midnightblue" d="M1387.52,-211C1396.32,-211 1405.18,-211 1413.74,-211"/>
<polygon fill="midnightblue" stroke="midnightblue" points="1387.25,-207.5 1377.25,-211 1387.25,-214.5 1387.25,-207.5"/>
</g>
<!-- Node4 -->
<g id="node4" class="node">
<title>Node4</title>
<g id="a_node4"><a xlink:href="classitk_1_1simple_1_1NonCopyable.html" target="_top" xlink:title="An inheritable class to disable copying of a class.">
<polygon fill="white" stroke="black" points="971,-220.5 971,-239.5 1111,-239.5 1111,-220.5 971,-220.5"/>
<text text-anchor="middle" x="1041" y="-227.5" font-family="Helvetica,sans-Serif" font-size="10.00">itk::simple::NonCopyable</text>
</a>
</g>
</g>
<!-- Node4&#45;&gt;Node3 -->
<g id="edge3" class="edge">
<title>Node4&#45;&gt;Node3</title>
<path fill="none" stroke="darkgreen" d="M1121.71,-224.23C1157.46,-221.64 1199.28,-218.62 1233.88,-216.11"/>
<polygon fill="darkgreen" stroke="darkgreen" points="1121.03,-220.77 1111.31,-224.98 1121.54,-227.75 1121.03,-220.77"/>
</g>
<!-- Node5 -->
<g id="node5" class="node">
<title>Node5</title>
<g id="a_node5"><a target="_parent" xlink:href="https://www.itk.org/Doxygen/html/classitk_1_1ProcessObject.html" xlink:title=" ">
<polygon fill="white" stroke="black" points="989,-182.5 989,-201.5 1093,-201.5 1093,-182.5 989,-182.5"/>
<text text-anchor="middle" x="1041" y="-189.5" font-family="Helvetica,sans-Serif" font-size="10.00">itk::ProcessObject</text>
</a>
</g>
</g>
<!-- Node5&#45;&gt;Node3 -->
<g id="edge4" class="edge">
<title>Node5&#45;&gt;Node3</title>
<path fill="none" stroke="#9a32cd" stroke-dasharray="5,2" d="M1103.1,-195.46C1136.48,-197.45 1178.53,-200.12 1216,-203 1221.85,-203.45 1227.9,-203.94 1233.99,-204.45"/>
<polygon fill="#9a32cd" stroke="#9a32cd" points="1103.23,-191.96 1093.04,-194.86 1102.81,-198.95 1103.23,-191.96"/>
<text text-anchor="middle" x="1172.5" y="-206" font-family="Helvetica,sans-Serif" font-size="10.00"> m_ActiveProcess</text>
</g>
<!-- Node6 -->
<g id="node6" class="node">
<title>Node6</title>
<g id="a_node6"><a target="_parent" xlink:href="https://www.itk.org/Doxygen/html/classitk_1_1Object.html" xlink:title=" ">
<polygon fill="white" stroke="black" points="696,-208.5 696,-227.5 763,-227.5 763,-208.5 696,-208.5"/>
<text text-anchor="middle" x="729.5" y="-215.5" font-family="Helvetica,sans-Serif" font-size="10.00">itk::Object</text>
</a>
</g>
</g>
<!-- Node6&#45;&gt;Node5 -->
<g id="edge5" class="edge">
<title>Node6&#45;&gt;Node5</title>
<path fill="none" stroke="midnightblue" d="M773.03,-214.43C829.3,-209.7 928.41,-201.37 988.75,-196.31"/>
<polygon fill="midnightblue" stroke="midnightblue" points="772.71,-210.94 763.04,-215.27 773.29,-217.92 772.71,-210.94"/>
</g>
<!-- Node7 -->
<g id="node7" class="node">
<title>Node7</title>
<g id="a_node7"><a target="_parent" xlink:href="https://www.itk.org/Doxygen/html/classitk_1_1LightObject.html" xlink:title=" ">
<polygon fill="white" stroke="black" points="349.5,-234.5 349.5,-253.5 440.5,-253.5 440.5,-234.5 349.5,-234.5"/>
<text text-anchor="middle" x="395" y="-241.5" font-family="Helvetica,sans-Serif" font-size="10.00">itk::LightObject</text>
</a>
</g>
</g>
<!-- Node7&#45;&gt;Node6 -->
<g id="edge6" class="edge">
<title>Node7&#45;&gt;Node6</title>
<path fill="none" stroke="midnightblue" d="M451.01,-241.55C497.85,-239.26 566.91,-235.37 627,-230 649.98,-227.95 675.79,-224.88 695.64,-222.37"/>
<polygon fill="midnightblue" stroke="midnightblue" points="450.59,-238.07 440.77,-242.05 450.93,-245.06 450.59,-238.07"/>
</g>
<!-- Node8 -->
<g id="node8" class="node">
<title>Node8</title>
<g id="a_node8"><a target="_parent" xlink:href="https://www.itk.org/Doxygen/html/classitk_1_1TimeStamp.html" xlink:title=" ">
<polygon fill="white" stroke="black" points="349,-272.5 349,-291.5 441,-291.5 441,-272.5 349,-272.5"/>
<text text-anchor="middle" x="395" y="-279.5" font-family="Helvetica,sans-Serif" font-size="10.00">itk::TimeStamp</text>
</a>
</g>
</g>
<!-- Node8&#45;&gt;Node5 -->
<g id="edge13" class="edge">
<title>Node8&#45;&gt;Node5</title>
<path fill="none" stroke="#9a32cd" stroke-dasharray="5,2" d="M451.48,-286.52C460.98,-287.14 470.77,-287.67 480,-288 692.31,-295.57 750.9,-284.5 953,-219 961.33,-216.3 962.76,-213.95 971,-211 980.71,-207.53 991.38,-204.31 1001.36,-201.55"/>
<polygon fill="#9a32cd" stroke="#9a32cd" points="451.52,-283.02 441.31,-285.83 451.05,-290 451.52,-283.02"/>
<text text-anchor="middle" x="729.5" y="-292" font-family="Helvetica,sans-Serif" font-size="10.00"> m_OutputInformationMTime</text>
</g>
<!-- Node8&#45;&gt;Node6 -->
<g id="edge7" class="edge">
<title>Node8&#45;&gt;Node6</title>
<path fill="none" stroke="#9a32cd" stroke-dasharray="5,2" d="M451.08,-276.56C498.15,-271.33 567.5,-262.25 627,-249 652.54,-243.31 680.97,-234.4 701.24,-227.58"/>
<polygon fill="#9a32cd" stroke="#9a32cd" points="450.65,-273.08 441.09,-277.64 451.41,-280.04 450.65,-273.08"/>
<text text-anchor="middle" x="553.5" y="-276" font-family="Helvetica,sans-Serif" font-size="10.00"> m_MTime</text>
</g>
<!-- Node9 -->
<g id="node9" class="node">
<title>Node9</title>
<g id="a_node9"><a xlink:title=" ">
<polygon fill="white" stroke="#bfbfbf" points="84,-228.5 84,-247.5 184,-247.5 184,-228.5 84,-228.5"/>
<text text-anchor="middle" x="134" y="-235.5" font-family="Helvetica,sans-Serif" font-size="10.00">std::atomic&lt; T &gt;</text>
</a>
</g>
</g>
<!-- Node9&#45;&gt;Node8 -->
<g id="edge8" class="edge">
<title>Node9&#45;&gt;Node8</title>
<path fill="none" stroke="#9a32cd" stroke-dasharray="5,2" d="M194.05,-248.03C241,-256.01 305.71,-267 348.65,-274.3"/>
<polygon fill="#9a32cd" stroke="#9a32cd" points="194.47,-244.55 184.02,-246.33 193.29,-251.45 194.47,-244.55"/>
<text text-anchor="middle" x="257" y="-270" font-family="Helvetica,sans-Serif" font-size="10.00"> m_GlobalTimeStamp</text>
</g>
<!-- Node10 -->
<g id="node10" class="node">
<title>Node10</title>
<g id="a_node10"><a xlink:title=" ">
<polygon fill="white" stroke="#bfbfbf" points="0,-18.5 0,-37.5 29,-37.5 29,-18.5 0,-18.5"/>
<text text-anchor="middle" x="14.5" y="-25.5" font-family="Helvetica,sans-Serif" font-size="10.00">T</text>
</a>
</g>
</g>
<!-- Node10&#45;&gt;Node9 -->
<g id="edge9" class="edge">
<title>Node10&#45;&gt;Node9</title>
<path fill="none" stroke="#9a32cd" stroke-dasharray="5,2" d="M22.51,-47.24C33.34,-75.9 55.66,-131.05 82,-174 94.63,-194.59 112.97,-216.06 123.88,-228.16"/>
<polygon fill="#9a32cd" stroke="#9a32cd" points="25.71,-45.78 18.94,-37.63 19.14,-48.22 25.71,-45.78"/>
<text text-anchor="middle" x="55.5" y="-143" font-family="Helvetica,sans-Serif" font-size="10.00"> ptr</text>
</g>
<!-- Node16 -->
<g id="node16" class="node">
<title>Node16</title>
<g id="a_node16"><a xlink:title=" ">
<polygon fill="white" stroke="#bfbfbf" points="344.5,-0.5 344.5,-19.5 445.5,-19.5 445.5,-0.5 344.5,-0.5"/>
<text text-anchor="middle" x="395" y="-7.5" font-family="Helvetica,sans-Serif" font-size="10.00">std::map&lt; K, T &gt;</text>
</a>
</g>
</g>
<!-- Node10&#45;&gt;Node16 -->
<g id="edge19" class="edge">
<title>Node10&#45;&gt;Node16</title>
<path fill="none" stroke="#9a32cd" stroke-dasharray="5,2" d="M39.59,-26.85C100.57,-23.95 261.96,-16.28 344.25,-12.37"/>
<polygon fill="#9a32cd" stroke="#9a32cd" points="39.24,-23.37 29.42,-27.34 39.57,-30.36 39.24,-23.37"/>
<text text-anchor="middle" x="134" y="-28" font-family="Helvetica,sans-Serif" font-size="10.00"> elements</text>
</g>
<!-- Node11 -->
<g id="node11" class="node">
<title>Node11</title>
<g id="a_node11"><a target="_parent" xlink:href="https://www.itk.org/Doxygen/html/classitk_1_1MetaDataDictionary.html" xlink:title=" ">
<polygon fill="white" stroke="black" points="328,-196.5 328,-215.5 462,-215.5 462,-196.5 328,-196.5"/>
<text text-anchor="middle" x="395" y="-203.5" font-family="Helvetica,sans-Serif" font-size="10.00">itk::MetaDataDictionary</text>
</a>
</g>
</g>
<!-- Node11&#45;&gt;Node6 -->
<g id="edge10" class="edge">
<title>Node11&#45;&gt;Node6</title>
<path fill="none" stroke="#9a32cd" stroke-dasharray="5,2" d="M472.27,-208.75C542.84,-211.3 644.37,-214.96 695.87,-216.82"/>
<polygon fill="#9a32cd" stroke="#9a32cd" points="472.21,-205.25 462.09,-208.39 471.96,-212.24 472.21,-205.25"/>
<text text-anchor="middle" x="553.5" y="-218" font-family="Helvetica,sans-Serif" font-size="10.00"> m_MetaDataDictionary</text>
</g>
<!-- Node12 -->
<g id="node12" class="node">
<title>Node12</title>
<g id="a_node12"><a xlink:title=" ">
<polygon fill="white" stroke="#bfbfbf" points="362.5,-140.5 362.5,-159.5 427.5,-159.5 427.5,-140.5 362.5,-140.5"/>
<text text-anchor="middle" x="395" y="-147.5" font-family="Helvetica,sans-Serif" font-size="10.00">std::string</text>
</a>
</g>
</g>
<!-- Node12&#45;&gt;Node6 -->
<g id="edge11" class="edge">
<title>Node12&#45;&gt;Node6</title>
<path fill="none" stroke="#9a32cd" stroke-dasharray="5,2" d="M437.79,-157.75C484.12,-166.42 561.02,-181.1 627,-195 649.98,-199.84 675.8,-205.7 695.64,-210.29"/>
<polygon fill="#9a32cd" stroke="#9a32cd" points="438.3,-154.28 427.82,-155.88 437.01,-161.16 438.3,-154.28"/>
<text text-anchor="middle" x="553.5" y="-198" font-family="Helvetica,sans-Serif" font-size="10.00"> m_ObjectName</text>
</g>
<!-- Node14 -->
<g id="node14" class="node">
<title>Node14</title>
<g id="a_node14"><a xlink:title=" ">
<polygon fill="white" stroke="#bfbfbf" points="645,-60 645,-90 814,-90 814,-60 645,-60"/>
<text text-anchor="start" x="653" y="-78" font-family="Helvetica,sans-Serif" font-size="10.00">std::map&lt; DataObjectIdentifier</text>
<text text-anchor="middle" x="729.5" y="-67" font-family="Helvetica,sans-Serif" font-size="10.00">Type, DataObjectPointer &gt;</text>
</a>
</g>
</g>
<!-- Node12&#45;&gt;Node14 -->
<g id="edge15" class="edge">
<title>Node12&#45;&gt;Node14</title>
<path fill="none" stroke="#9a32cd" stroke-dasharray="5,2" d="M437.54,-140.63C493.78,-127.94 594.79,-105.16 661.74,-90.06"/>
<polygon fill="#9a32cd" stroke="#9a32cd" points="436.57,-137.26 427.58,-142.88 438.11,-144.09 436.57,-137.26"/>
<text text-anchor="middle" x="553.5" y="-133" font-family="Helvetica,sans-Serif" font-size="10.00"> keys</text>
</g>
<!-- Node18 -->
<g id="node18" class="node">
<title>Node18</title>
<g id="a_node18"><a xlink:title=" ">
<polygon fill="white" stroke="#bfbfbf" points="648.5,-135 648.5,-165 810.5,-165 810.5,-135 648.5,-135"/>
<text text-anchor="start" x="656.5" y="-153" font-family="Helvetica,sans-Serif" font-size="10.00">std::set&lt; DataObjectIdentifier</text>
<text text-anchor="middle" x="729.5" y="-142" font-family="Helvetica,sans-Serif" font-size="10.00">Type &gt;</text>
</a>
</g>
</g>
<!-- Node12&#45;&gt;Node18 -->
<g id="edge21" class="edge">
<title>Node12&#45;&gt;Node18</title>
<path fill="none" stroke="#9a32cd" stroke-dasharray="5,2" d="M437.89,-150C490.57,-150 582.11,-150 648.41,-150"/>
<polygon fill="#9a32cd" stroke="#9a32cd" points="437.58,-146.5 427.58,-150 437.58,-153.5 437.58,-146.5"/>
<text text-anchor="middle" x="553.5" y="-153" font-family="Helvetica,sans-Serif" font-size="10.00"> keys</text>
</g>
<!-- Node13 -->
<g id="node13" class="node">
<title>Node13</title>
<g id="a_node13"><a xlink:title=" ">
<polygon fill="white" stroke="#bfbfbf" points="82,-135 82,-165 186,-165 186,-135 82,-135"/>
<text text-anchor="start" x="90" y="-153" font-family="Helvetica,sans-Serif" font-size="10.00">std::basic_string&lt;</text>
<text text-anchor="middle" x="134" y="-142" font-family="Helvetica,sans-Serif" font-size="10.00"> Char &gt;</text>
</a>
</g>
</g>
<!-- Node13&#45;&gt;Node12 -->
<g id="edge12" class="edge">
<title>Node13&#45;&gt;Node12</title>
<path fill="none" stroke="midnightblue" d="M196.32,-150C248.51,-150 321.37,-150 362.49,-150"/>
<polygon fill="midnightblue" stroke="midnightblue" points="196.17,-146.5 186.17,-150 196.17,-153.5 196.17,-146.5"/>
</g>
<!-- Node14&#45;&gt;Node5 -->
<g id="edge14" class="edge">
<title>Node14&#45;&gt;Node5</title>
<path fill="none" stroke="#9a32cd" stroke-dasharray="5,2" d="M810.23,-92.44C853.46,-103.25 907.25,-118.92 953,-139 980.69,-151.16 1010.21,-170.72 1026.75,-182.37"/>
<polygon fill="#9a32cd" stroke="#9a32cd" points="810.88,-88.99 800.33,-90 809.2,-95.79 810.88,-88.99"/>
<text text-anchor="middle" x="892.5" y="-153" font-family="Helvetica,sans-Serif" font-size="10.00"> m_Inputs</text>
<text text-anchor="middle" x="892.5" y="-142" font-family="Helvetica,sans-Serif" font-size="10.00">m_Outputs</text>
</g>
<!-- Node15 -->
<g id="node15" class="node">
<title>Node15</title>
<g id="a_node15"><a target="_parent" xlink:href="https://www.itk.org/Doxygen/html/classitk_1_1SmartPointer.html" xlink:title=" ">
<polygon fill="white" stroke="black" points="334,-38.5 334,-57.5 456,-57.5 456,-38.5 334,-38.5"/>
<text text-anchor="middle" x="395" y="-45.5" font-family="Helvetica,sans-Serif" font-size="10.00">SmartPointer&lt; Self &gt;</text>
</a>
</g>
</g>
<!-- Node15&#45;&gt;Node14 -->
<g id="edge16" class="edge">
<title>Node15&#45;&gt;Node14</title>
<path fill="none" stroke="#9a32cd" stroke-dasharray="5,2" d="M466.24,-43.84C512.17,-42.21 573.38,-42.12 627,-49 644.5,-51.24 663.31,-55.52 679.93,-59.97"/>
<polygon fill="#9a32cd" stroke="#9a32cd" points="465.95,-40.34 456.09,-44.23 466.22,-47.34 465.95,-40.34"/>
<text text-anchor="middle" x="553.5" y="-52" font-family="Helvetica,sans-Serif" font-size="10.00"> elements</text>
</g>
<!-- Node16&#45;&gt;Node14 -->
<g id="edge17" class="edge">
<title>Node16&#45;&gt;Node14</title>
<path fill="none" stroke="orange" stroke-dasharray="5,2" d="M455.81,-3.98C503.17,-1.07 570.51,-1.08 627,-17 657.86,-25.7 689.29,-45.75 708.83,-59.83"/>
<polygon fill="orange" stroke="orange" points="455.46,-0.5 445.72,-4.66 455.93,-7.48 455.46,-0.5"/>
<text text-anchor="start" x="484" y="-31" font-family="Helvetica,sans-Serif" font-size="10.00"> &lt; DataObjectIdentifierType,</text>
<text text-anchor="middle" x="553.5" y="-20" font-family="Helvetica,sans-Serif" font-size="10.00"> DataObjectPointer &gt;</text>
</g>
<!-- Node17 -->
<g id="node17" class="node">
<title>Node17</title>
<g id="a_node17"><a xlink:title=" ">
<polygon fill="white" stroke="#bfbfbf" points="119.5,-57.5 119.5,-76.5 148.5,-76.5 148.5,-57.5 119.5,-57.5"/>
<text text-anchor="middle" x="134" y="-64.5" font-family="Helvetica,sans-Serif" font-size="10.00">K</text>
</a>
</g>
</g>
<!-- Node17&#45;&gt;Node16 -->
<g id="edge18" class="edge">
<title>Node17&#45;&gt;Node16</title>
<path fill="none" stroke="#9a32cd" stroke-dasharray="5,2" d="M158.47,-61.84C201.89,-52.28 295.36,-31.71 350.61,-19.55"/>
<polygon fill="#9a32cd" stroke="#9a32cd" points="157.57,-58.45 148.56,-64.02 159.08,-65.28 157.57,-58.45"/>
<text text-anchor="middle" x="257" y="-55" font-family="Helvetica,sans-Serif" font-size="10.00"> keys</text>
</g>
<!-- Node19 -->
<g id="node19" class="node">
<title>Node19</title>
<g id="a_node19"><a xlink:title=" ">
<polygon fill="white" stroke="#bfbfbf" points="354,-76.5 354,-95.5 436,-95.5 436,-76.5 354,-76.5"/>
<text text-anchor="middle" x="395" y="-83.5" font-family="Helvetica,sans-Serif" font-size="10.00">std::set&lt; K &gt;</text>
</a>
</g>
</g>
<!-- Node17&#45;&gt;Node19 -->
<g id="edge23" class="edge">
<title>Node17&#45;&gt;Node19</title>
<path fill="none" stroke="#9a32cd" stroke-dasharray="5,2" d="M158.67,-68.74C203.04,-71.99 299.15,-79.04 353.83,-83.05"/>
<polygon fill="#9a32cd" stroke="#9a32cd" points="158.79,-65.24 148.56,-67.99 158.28,-72.22 158.79,-65.24"/>
<text text-anchor="middle" x="257" y="-83" font-family="Helvetica,sans-Serif" font-size="10.00"> keys</text>
</g>
<!-- Node18&#45;&gt;Node5 -->
<g id="edge20" class="edge">
<title>Node18&#45;&gt;Node5</title>
<path fill="none" stroke="#9a32cd" stroke-dasharray="5,2" d="M820.66,-162.24C875.38,-169.66 943.22,-178.87 988.85,-185.06"/>
<polygon fill="#9a32cd" stroke="#9a32cd" points="820.99,-158.75 810.61,-160.87 820.04,-165.68 820.99,-158.75"/>
<text text-anchor="middle" x="892.5" y="-183" font-family="Helvetica,sans-Serif" font-size="10.00"> m_RequiredInputNames</text>
</g>
<!-- Node19&#45;&gt;Node18 -->
<g id="edge22" class="edge">
<title>Node19&#45;&gt;Node18</title>
<path fill="none" stroke="orange" stroke-dasharray="5,2" d="M446.23,-75.01C494.3,-66.85 568.03,-60.58 627,-83 637,-86.8 636.4,-92.63 645,-99 662.88,-112.24 684.33,-125.29 701.01,-134.87"/>
<polygon fill="orange" stroke="orange" points="445.6,-71.57 436.37,-76.77 446.83,-78.46 445.6,-71.57"/>
<text text-anchor="middle" x="553.5" y="-86" font-family="Helvetica,sans-Serif" font-size="10.00"> &lt; DataObjectIdentifierType &gt;</text>
</g>
<!-- Node20 -->
<g id="node20" class="node">
<title>Node20</title>
<g id="a_node20"><a xlink:href="classitk_1_1simple_1_1Transform.html" target="_top" xlink:title="A simplified wrapper around a variety of ITK transforms.">
<polygon fill="white" stroke="black" points="1417.5,-163.5 1417.5,-182.5 1540.5,-182.5 1540.5,-163.5 1417.5,-163.5"/>
<text text-anchor="middle" x="1479" y="-170.5" font-family="Helvetica,sans-Serif" font-size="10.00">itk::simple::Transform</text>
</a>
</g>
</g>
<!-- Node20&#45;&gt;Node1 -->
<g id="edge24" class="edge">
<title>Node20&#45;&gt;Node1</title>
<path fill="none" stroke="#9a32cd" stroke-dasharray="5,2" d="M1550.59,-176.07C1575.39,-177.22 1603.43,-178.58 1629,-180 1634.8,-180.32 1640.79,-180.67 1646.82,-181.03"/>
<polygon fill="#9a32cd" stroke="#9a32cd" points="1550.7,-172.57 1540.55,-175.61 1550.38,-179.57 1550.7,-172.57"/>
<text text-anchor="middle" x="1595.5" y="-183" font-family="Helvetica,sans-Serif" font-size="10.00"> m_Transform</text>
</g>
</g>
</svg>
