<?xml version="1.0" encoding="UTF-8" standalone="no"?>
<!DOCTYPE svg PUBLIC "-//W3C//DTD SVG 1.1//EN"
 "http://www.w3.org/Graphics/SVG/1.1/DTD/svg11.dtd">
<!-- Generated by graphviz version 2.43.0 (0)
 -->
<!-- Title: itk::simple::detail::MemberFunctionFactoryBase&lt; TMemberFunctionPointer, TKey, TArity &gt; Pages: 1 -->
<!--zoomable 144 -->
<svg id="main" version="1.1" xmlns="http://www.w3.org/2000/svg" xmlns:xlink="http://www.w3.org/1999/xlink" xml:space="preserve" onload="init(evt)">
<style type="text/css"><![CDATA[
.edge:hover path { stroke: red; }
.edge:hover polygon { stroke: red; fill: red; }
]]></style>
<script type="text/javascript"><![CDATA[
var edges = document.getElementsByTagName('g');
if (edges && edges.length) {
  for (var i=0;i<edges.length;i++) {
    if (edges[i].id.substr(0,4)=='edge') {
      edges[i].setAttribute('class','edge');
    }
  }
}
]]></script>
        <defs>
                <circle id="rim" cx="0" cy="0" r="7"/>
                <circle id="rim2" cx="0" cy="0" r="3.5"/>
                <g id="zoomPlus">
                        <use xlink:href="#rim" fill="#404040">
                                <set attributeName="fill" to="#808080" begin="zoomplus.mouseover" end="zoomplus.mouseout"/>
                        </use>
                        <path d="M-4,0h8M0,-4v8" fill="none" stroke="white" stroke-width="1.5" pointer-events="none"/>
                </g>
                <g id="zoomMin">
                        <use xlink:href="#rim" fill="#404040">
                                <set attributeName="fill" to="#808080" begin="zoomminus.mouseover" end="zoomminus.mouseout"/>
                        </use>
                        <path d="M-4,0h8" fill="none" stroke="white" stroke-width="1.5" pointer-events="none"/>
                </g>
                <g id="dirArrow">
                        <path fill="none" stroke="white" stroke-width="1.5" d="M0,-3.0v7 M-2.5,-0.5L0,-3.0L2.5,-0.5"/>
                </g>
               <g id="resetDef">
                       <use xlink:href="#rim2" fill="#404040">
                               <set attributeName="fill" to="#808080" begin="reset.mouseover" end="reset.mouseout"/>
                       </use>
               </g>
        </defs>

<script type="text/javascript">
var viewWidth = 719;
var viewHeight = 144;
var sectionId = 'dynsection-0';
</script>
<script xlink:href="svgpan.js"/>
<svg id="graph" class="graph">
<g id="viewport">
<title>itk::simple::detail::MemberFunctionFactoryBase&lt; TMemberFunctionPointer, TKey, TArity &gt;</title>
<polygon fill="white" stroke="transparent" points="-4,4 -4,-139.5 715,-139.5 715,4 -4,4"/>
<!-- Node1 -->
<g id="node1" class="node">
<title>Node1</title>
<g id="a_node1"><a xlink:title="A base class for the MemberFunctionFactory.">
<polygon fill="#bfbfbf" stroke="black" points="0,-38.5 0,-90.5 164,-90.5 164,-38.5 0,-38.5"/>
<text text-anchor="start" x="8" y="-78.5" font-family="Helvetica,sans-Serif" font-size="10.00">itk::simple::detail</text>
<text text-anchor="start" x="8" y="-67.5" font-family="Helvetica,sans-Serif" font-size="10.00">::MemberFunctionFactoryBase</text>
<text text-anchor="start" x="8" y="-56.5" font-family="Helvetica,sans-Serif" font-size="10.00">&lt; TMemberFunctionPointer,</text>
<text text-anchor="middle" x="82" y="-45.5" font-family="Helvetica,sans-Serif" font-size="10.00"> TKey, TArity &gt;</text>
</a>
</g>
</g>
<!-- Node2 -->
<g id="node2" class="node">
<title>Node2</title>
<g id="a_node2"><a xlink:href="classitk_1_1simple_1_1detail_1_1MemberFunctionFactoryBase.html" target="_top" xlink:title=" ">
<polygon fill="white" stroke="black" points="344,-72 344,-135 508,-135 508,-72 344,-72"/>
<text text-anchor="start" x="352" y="-123" font-family="Helvetica,sans-Serif" font-size="10.00">itk::simple::detail</text>
<text text-anchor="start" x="352" y="-112" font-family="Helvetica,sans-Serif" font-size="10.00">::MemberFunctionFactoryBase</text>
<text text-anchor="start" x="352" y="-101" font-family="Helvetica,sans-Serif" font-size="10.00">&lt; TMemberFunctionPointer,</text>
<text text-anchor="start" x="352" y="-90" font-family="Helvetica,sans-Serif" font-size="10.00"> std::tuple&lt; unsigned int,</text>
<text text-anchor="middle" x="426" y="-79" font-family="Helvetica,sans-Serif" font-size="10.00"> int, unsigned int, int &gt; &gt;</text>
</a>
</g>
</g>
<!-- Node1&#45;&gt;Node2 -->
<g id="edge1" class="edge">
<title>Node1&#45;&gt;Node2</title>
<path fill="none" stroke="orange" stroke-dasharray="5,2" d="M174.09,-74.89C226.94,-80.91 292.91,-88.44 343.94,-94.26"/>
<polygon fill="orange" stroke="orange" points="174.38,-71.4 164.05,-73.74 173.59,-78.35 174.38,-71.4"/>
<text text-anchor="start" x="182" y="-115.5" font-family="Helvetica,sans-Serif" font-size="10.00"> &lt; TMemberFunctionPointer,</text>
<text text-anchor="start" x="182" y="-104.5" font-family="Helvetica,sans-Serif" font-size="10.00"> std::tuple&lt; unsigned int,</text>
<text text-anchor="middle" x="252" y="-93.5" font-family="Helvetica,sans-Serif" font-size="10.00"> int, unsigned int, int &gt; &gt;</text>
</g>
<!-- Node4 -->
<g id="node4" class="node">
<title>Node4</title>
<g id="a_node4"><a xlink:href="classitk_1_1simple_1_1detail_1_1MemberFunctionFactoryBase.html" target="_top" xlink:title=" ">
<polygon fill="white" stroke="black" points="340,-0.5 340,-52.5 512,-52.5 512,-0.5 340,-0.5"/>
<text text-anchor="start" x="348" y="-40.5" font-family="Helvetica,sans-Serif" font-size="10.00">itk::simple::detail</text>
<text text-anchor="start" x="348" y="-29.5" font-family="Helvetica,sans-Serif" font-size="10.00">::MemberFunctionFactoryBase</text>
<text text-anchor="start" x="348" y="-18.5" font-family="Helvetica,sans-Serif" font-size="10.00">&lt; TMemberFunctionPointer,</text>
<text text-anchor="middle" x="426" y="-7.5" font-family="Helvetica,sans-Serif" font-size="10.00"> std::pair&lt; unsigned int, int &gt; &gt;</text>
</a>
</g>
</g>
<!-- Node1&#45;&gt;Node4 -->
<g id="edge3" class="edge">
<title>Node1&#45;&gt;Node4</title>
<path fill="none" stroke="orange" stroke-dasharray="5,2" d="M174.25,-43.68C176.86,-43.26 179.45,-42.87 182,-42.5 234.11,-35.04 293,-31.05 339.76,-28.92"/>
<polygon fill="orange" stroke="orange" points="173.39,-40.28 164.13,-45.43 174.57,-47.18 173.39,-40.28"/>
<text text-anchor="start" x="182" y="-67.5" font-family="Helvetica,sans-Serif" font-size="10.00"> &lt; TMemberFunctionPointer,</text>
<text text-anchor="start" x="182" y="-56.5" font-family="Helvetica,sans-Serif" font-size="10.00"> std::pair&lt; unsigned int,</text>
<text text-anchor="middle" x="252" y="-45.5" font-family="Helvetica,sans-Serif" font-size="10.00"> int &gt; &gt;</text>
</g>
<!-- Node3 -->
<g id="node3" class="node">
<title>Node3</title>
<g id="a_node3"><a xlink:href="classitk_1_1simple_1_1detail_1_1DualMemberFunctionFactory.html" target="_top" xlink:title="A class used to instantiate and generate function objects of templated member functions with two temp...">
<polygon fill="white" stroke="black" points="549,-83 549,-124 711,-124 711,-83 549,-83"/>
<text text-anchor="start" x="557" y="-112" font-family="Helvetica,sans-Serif" font-size="10.00">itk::simple::detail</text>
<text text-anchor="start" x="557" y="-101" font-family="Helvetica,sans-Serif" font-size="10.00">::DualMemberFunctionFactory</text>
<text text-anchor="middle" x="630" y="-90" font-family="Helvetica,sans-Serif" font-size="10.00">&lt; TMemberFunctionPointer &gt;</text>
</a>
</g>
</g>
<!-- Node2&#45;&gt;Node3 -->
<g id="edge2" class="edge">
<title>Node2&#45;&gt;Node3</title>
<path fill="none" stroke="darkgreen" d="M518.39,-103.5C528.56,-103.5 538.85,-103.5 548.86,-103.5"/>
<polygon fill="darkgreen" stroke="darkgreen" points="518.29,-100 508.29,-103.5 518.29,-107 518.29,-100"/>
</g>
<!-- Node5 -->
<g id="node5" class="node">
<title>Node5</title>
<g id="a_node5"><a xlink:href="classitk_1_1simple_1_1detail_1_1MemberFunctionFactory.html" target="_top" xlink:title="A class used to instantiate and generate function object to templated member functions.">
<polygon fill="white" stroke="black" points="549.5,-6 549.5,-47 710.5,-47 710.5,-6 549.5,-6"/>
<text text-anchor="start" x="557.5" y="-35" font-family="Helvetica,sans-Serif" font-size="10.00">itk::simple::detail</text>
<text text-anchor="start" x="557.5" y="-24" font-family="Helvetica,sans-Serif" font-size="10.00">::MemberFunctionFactory</text>
<text text-anchor="middle" x="630" y="-13" font-family="Helvetica,sans-Serif" font-size="10.00">&lt; TMemberFunctionPointer &gt;</text>
</a>
</g>
</g>
<!-- Node4&#45;&gt;Node5 -->
<g id="edge4" class="edge">
<title>Node4&#45;&gt;Node5</title>
<path fill="none" stroke="darkgreen" d="M522.31,-26.5C531.41,-26.5 540.57,-26.5 549.49,-26.5"/>
<polygon fill="darkgreen" stroke="darkgreen" points="522.08,-23 512.08,-26.5 522.08,-30 522.08,-23"/>
</g>
</g>
</svg>
        <g id="navigator" transform="translate(0 0)" fill="#404254">
                <rect fill="#f2f5e9" fill-opacity="0.5" stroke="#606060" stroke-width=".5" x="0" y="0" width="60" height="60"/>
                <use id="zoomplus" xlink:href="#zoomPlus" x="17" y="9" onmousedown="handleZoom(evt,'in')"/>
                <use id="zoomminus" xlink:href="#zoomMin" x="42" y="9" onmousedown="handleZoom(evt,'out')"/>
                <use id="reset" xlink:href="#resetDef" x="30" y="36" onmousedown="handleReset()"/>
                <g id="arrowUp" xlink:href="#dirArrow" transform="translate(30 24)" onmousedown="handlePan(0,-1)">
                  <use xlink:href="#rim" fill="#404040">
                        <set attributeName="fill" to="#808080" begin="arrowUp.mouseover" end="arrowUp.mouseout"/>
                  </use>
                  <path fill="none" stroke="white" stroke-width="1.5" d="M0,-3.0v7 M-2.5,-0.5L0,-3.0L2.5,-0.5"/>
                </g>
                <g id="arrowRight" xlink:href="#dirArrow" transform="rotate(90) translate(36 -43)" onmousedown="handlePan(1,0)">
                  <use xlink:href="#rim" fill="#404040">
                        <set attributeName="fill" to="#808080" begin="arrowRight.mouseover" end="arrowRight.mouseout"/>
                  </use>
                  <path fill="none" stroke="white" stroke-width="1.5" d="M0,-3.0v7 M-2.5,-0.5L0,-3.0L2.5,-0.5"/>
                </g>
                <g id="arrowDown" xlink:href="#dirArrow" transform="rotate(180) translate(-30 -48)" onmousedown="handlePan(0,1)">
                  <use xlink:href="#rim" fill="#404040">
                        <set attributeName="fill" to="#808080" begin="arrowDown.mouseover" end="arrowDown.mouseout"/>
                  </use>
                  <path fill="none" stroke="white" stroke-width="1.5" d="M0,-3.0v7 M-2.5,-0.5L0,-3.0L2.5,-0.5"/>
                </g>
                <g id="arrowLeft" xlink:href="#dirArrow" transform="rotate(270) translate(-36 17)" onmousedown="handlePan(-1,0)">
                  <use xlink:href="#rim" fill="#404040">
                        <set attributeName="fill" to="#808080" begin="arrowLeft.mouseover" end="arrowLeft.mouseout"/>
                  </use>
                  <path fill="none" stroke="white" stroke-width="1.5" d="M0,-3.0v7 M-2.5,-0.5L0,-3.0L2.5,-0.5"/>
                </g>
        </g>
        <svg viewBox="0 0 15 15" width="100%" height="30px" preserveAspectRatio="xMaxYMin meet">
         <g id="arrow_out" transform="scale(0.3 0.3)">
          <a xlink:href="classitk_1_1simple_1_1detail_1_1MemberFunctionFactoryBase__inherit__graph_org.svg" target="_base">
           <rect id="button" ry="5" rx="5" y="6" x="6" height="38" width="38"
                fill="#f2f5e9" fill-opacity="0.5" stroke="#606060" stroke-width="1.0"/>
           <path id="arrow"
             d="M 11.500037,31.436501 C 11.940474,20.09759 22.043105,11.32322 32.158766,21.979434 L 37.068811,17.246167 C 37.068811,17.246167 37.088388,32 37.088388,32 L 22.160133,31.978069 C 22.160133,31.978069 26.997745,27.140456 26.997745,27.140456 C 18.528582,18.264221 13.291696,25.230495 11.500037,31.436501 z"
             style="fill:#404040;"/>
          </a>
         </g>
        </svg>
</svg>
