<?xml version="1.0" encoding="UTF-8" standalone="no"?>
<!DOCTYPE svg PUBLIC "-//W3C//DTD SVG 1.1//EN"
 "http://www.w3.org/Graphics/SVG/1.1/DTD/svg11.dtd">
<!-- Generated by graphviz version 2.43.0 (0)
 -->
<!-- Title: itk::simple::ImageReaderBase Pages: 1 -->
<svg width="3124pt" height="611pt"
 viewBox="0.00 0.00 3124.00 610.98" xmlns="http://www.w3.org/2000/svg" xmlns:xlink="http://www.w3.org/1999/xlink">
<g id="graph0" class="graph" transform="scale(1 1) rotate(0) translate(4 606.98)">
<title>itk::simple::ImageReaderBase</title>
<polygon fill="white" stroke="transparent" points="-4,4 -4,-606.98 3120,-606.98 3120,4 -4,4"/>
<!-- Node1 -->
<g id="node1" class="node">
<title>Node1</title>
<g id="a_node1"><a xlink:title="An abstract base class for image readers.">
<polygon fill="#bfbfbf" stroke="black" points="2952,-370.48 2952,-389.48 3116,-389.48 3116,-370.48 2952,-370.48"/>
<text text-anchor="middle" x="3034" y="-377.48" font-family="Helvetica,sans-Serif" font-size="10.00">itk::simple::ImageReaderBase</text>
</a>
</g>
</g>
<!-- Node2 -->
<g id="node2" class="node">
<title>Node2</title>
<g id="a_node2"><a xlink:href="classitk_1_1simple_1_1ProcessObject.html" target="_top" xlink:title="Base class for SimpleITK classes based on ProcessObject.">
<polygon fill="white" stroke="black" points="2772,-408.48 2772,-427.48 2915,-427.48 2915,-408.48 2772,-408.48"/>
<text text-anchor="middle" x="2843.5" y="-415.48" font-family="Helvetica,sans-Serif" font-size="10.00">itk::simple::ProcessObject</text>
</a>
</g>
</g>
<!-- Node2&#45;&gt;Node1 -->
<g id="edge1" class="edge">
<title>Node2&#45;&gt;Node1</title>
<path fill="none" stroke="midnightblue" d="M2902.09,-406.38C2928.9,-400.97 2960.4,-394.62 2985.78,-389.51"/>
<polygon fill="midnightblue" stroke="midnightblue" points="2901.18,-402.99 2892.07,-408.4 2902.56,-409.85 2901.18,-402.99"/>
</g>
<!-- Node3 -->
<g id="node3" class="node">
<title>Node3</title>
<g id="a_node3"><a xlink:href="classitk_1_1simple_1_1NonCopyable.html" target="_top" xlink:title="An inheritable class to disable copying of a class.">
<polygon fill="white" stroke="black" points="1463,-427.48 1463,-446.48 1603,-446.48 1603,-427.48 1463,-427.48"/>
<text text-anchor="middle" x="1533" y="-434.48" font-family="Helvetica,sans-Serif" font-size="10.00">itk::simple::NonCopyable</text>
</a>
</g>
</g>
<!-- Node3&#45;&gt;Node2 -->
<g id="edge2" class="edge">
<title>Node3&#45;&gt;Node2</title>
<path fill="none" stroke="darkgreen" d="M1613.12,-436.98C1683.04,-436.98 1787.8,-436.98 1879,-436.98 1879,-436.98 1879,-436.98 2569.5,-436.98 2638.39,-436.98 2716.82,-430.89 2771.89,-425.6"/>
<polygon fill="darkgreen" stroke="darkgreen" points="1613.06,-433.49 1603.06,-436.98 1613.06,-440.49 1613.06,-433.49"/>
</g>
<!-- Node7 -->
<g id="node7" class="node">
<title>Node7</title>
<g id="a_node7"><a xlink:href="classitk_1_1simple_1_1ObjectOwnedBase.html" target="_top" xlink:title="An abstract base class to connect this object with the lifetime of another.">
<polygon fill="white" stroke="black" points="1798,-485.48 1798,-504.48 1962,-504.48 1962,-485.48 1798,-485.48"/>
<text text-anchor="middle" x="1880" y="-492.48" font-family="Helvetica,sans-Serif" font-size="10.00">itk::simple::ObjectOwnedBase</text>
</a>
</g>
</g>
<!-- Node3&#45;&gt;Node7 -->
<g id="edge7" class="edge">
<title>Node3&#45;&gt;Node7</title>
<path fill="none" stroke="midnightblue" d="M1600.64,-448.19C1665.05,-459.02 1761.59,-475.25 1822.39,-485.47"/>
<polygon fill="midnightblue" stroke="midnightblue" points="1601.03,-444.7 1590.58,-446.5 1599.86,-451.61 1601.03,-444.7"/>
</g>
<!-- Node4 -->
<g id="node4" class="node">
<title>Node4</title>
<g id="a_node4"><a xlink:title=" ">
<polygon fill="white" stroke="#bfbfbf" points="2475,-479.98 2475,-509.98 2662,-509.98 2662,-479.98 2475,-479.98"/>
<text text-anchor="start" x="2483" y="-497.98" font-family="Helvetica,sans-Serif" font-size="10.00">std::list&lt; itk::simple</text>
<text text-anchor="middle" x="2568.5" y="-486.98" font-family="Helvetica,sans-Serif" font-size="10.00">::ProcessObject::EventCommand &gt;</text>
</a>
</g>
</g>
<!-- Node4&#45;&gt;Node2 -->
<g id="edge3" class="edge">
<title>Node4&#45;&gt;Node2</title>
<path fill="none" stroke="#9a32cd" stroke-dasharray="5,2" d="M2651.29,-477.75C2683.53,-470.37 2720.74,-461.11 2754,-450.98 2776.43,-444.16 2801.42,-434.66 2819.11,-427.61"/>
<polygon fill="#9a32cd" stroke="#9a32cd" points="2650.43,-474.36 2641.46,-479.98 2651.98,-481.18 2650.43,-474.36"/>
<text text-anchor="middle" x="2717" y="-472.98" font-family="Helvetica,sans-Serif" font-size="10.00"> m_Commands</text>
</g>
<!-- Node5 -->
<g id="node5" class="node">
<title>Node5</title>
<g id="a_node5"><a xlink:href="structitk_1_1simple_1_1ProcessObject_1_1EventCommand.html" target="_top" xlink:title=" ">
<polygon fill="white" stroke="black" points="2247,-479.98 2247,-509.98 2390,-509.98 2390,-479.98 2247,-479.98"/>
<text text-anchor="start" x="2255" y="-497.98" font-family="Helvetica,sans-Serif" font-size="10.00">itk::simple::ProcessObject</text>
<text text-anchor="middle" x="2318.5" y="-486.98" font-family="Helvetica,sans-Serif" font-size="10.00">::EventCommand</text>
</a>
</g>
</g>
<!-- Node5&#45;&gt;Node4 -->
<g id="edge4" class="edge">
<title>Node5&#45;&gt;Node4</title>
<path fill="none" stroke="#9a32cd" stroke-dasharray="5,2" d="M2400.29,-494.98C2424.12,-494.98 2450.38,-494.98 2474.89,-494.98"/>
<polygon fill="#9a32cd" stroke="#9a32cd" points="2400.23,-491.49 2390.23,-494.98 2400.23,-498.49 2400.23,-491.49"/>
<text text-anchor="middle" x="2432.5" y="-497.98" font-family="Helvetica,sans-Serif" font-size="10.00"> elements</text>
</g>
<!-- Node6 -->
<g id="node6" class="node">
<title>Node6</title>
<g id="a_node6"><a xlink:href="classitk_1_1simple_1_1Command.html" target="_top" xlink:title="An implementation of the Command design pattern for callback.">
<polygon fill="white" stroke="black" points="1999,-485.48 1999,-504.48 2124,-504.48 2124,-485.48 1999,-485.48"/>
<text text-anchor="middle" x="2061.5" y="-492.48" font-family="Helvetica,sans-Serif" font-size="10.00">itk::simple::Command</text>
</a>
</g>
</g>
<!-- Node6&#45;&gt;Node5 -->
<g id="edge5" class="edge">
<title>Node6&#45;&gt;Node5</title>
<path fill="none" stroke="#9a32cd" stroke-dasharray="5,2" d="M2134.43,-494.98C2169.63,-494.98 2211.85,-494.98 2246.88,-494.98"/>
<polygon fill="#9a32cd" stroke="#9a32cd" points="2134.23,-491.49 2124.23,-494.98 2134.23,-498.49 2134.23,-491.49"/>
<text text-anchor="middle" x="2185.5" y="-497.98" font-family="Helvetica,sans-Serif" font-size="10.00"> m_Command</text>
</g>
<!-- Node7&#45;&gt;Node6 -->
<g id="edge6" class="edge">
<title>Node7&#45;&gt;Node6</title>
<path fill="none" stroke="midnightblue" d="M1972.25,-494.98C1981.27,-494.98 1990.26,-494.98 1998.87,-494.98"/>
<polygon fill="midnightblue" stroke="midnightblue" points="1972.09,-491.49 1962.09,-494.98 1972.08,-498.49 1972.09,-491.49"/>
</g>
<!-- Node8 -->
<g id="node8" class="node">
<title>Node8</title>
<g id="a_node8"><a xlink:title=" ">
<polygon fill="white" stroke="#bfbfbf" points="1468.5,-465.48 1468.5,-506.48 1597.5,-506.48 1597.5,-465.48 1468.5,-465.48"/>
<text text-anchor="start" x="1476.5" y="-494.48" font-family="Helvetica,sans-Serif" font-size="10.00">std::multimap&lt; itk</text>
<text text-anchor="start" x="1476.5" y="-483.48" font-family="Helvetica,sans-Serif" font-size="10.00">::Object *, std::function</text>
<text text-anchor="middle" x="1533" y="-472.48" font-family="Helvetica,sans-Serif" font-size="10.00">&lt; void()&gt; &gt;</text>
</a>
</g>
</g>
<!-- Node8&#45;&gt;Node7 -->
<g id="edge8" class="edge">
<title>Node8&#45;&gt;Node7</title>
<path fill="none" stroke="#9a32cd" stroke-dasharray="5,2" d="M1607.85,-487.91C1663.65,-489.37 1740.19,-491.36 1797.73,-492.86"/>
<polygon fill="#9a32cd" stroke="#9a32cd" points="1607.77,-484.41 1597.68,-487.65 1607.59,-491.41 1607.77,-484.41"/>
<text text-anchor="middle" x="1701" y="-494.98" font-family="Helvetica,sans-Serif" font-size="10.00"> m_ReferencedObjectsCallbacks</text>
</g>
<!-- Node9 -->
<g id="node9" class="node">
<title>Node9</title>
<g id="a_node9"><a xlink:href="https://www.itk.org/Doxygen/html/classitk_1_1Object.html" xlink:title=" ">
<polygon fill="white" stroke="black" points="1166,-200.48 1166,-219.48 1233,-219.48 1233,-200.48 1166,-200.48"/>
<text text-anchor="middle" x="1199.5" y="-207.48" font-family="Helvetica,sans-Serif" font-size="10.00">itk::Object</text>
</a>
</g>
</g>
<!-- Node9&#45;&gt;Node8 -->
<g id="edge9" class="edge">
<title>Node9&#45;&gt;Node8</title>
<path fill="none" stroke="#9a32cd" stroke-dasharray="5,2" d="M1242.9,-214.64C1258.11,-218.5 1273.96,-225.46 1284,-237.98 1332.08,-297.96 1253.79,-350.12 1302,-409.98 1323.13,-436.23 1407.93,-459.4 1468.41,-473.06"/>
<polygon fill="#9a32cd" stroke="#9a32cd" points="1243.58,-211.21 1233.07,-212.53 1242.11,-218.05 1243.58,-211.21"/>
<text text-anchor="middle" x="1373" y="-468.98" font-family="Helvetica,sans-Serif" font-size="10.00"> keys</text>
</g>
<!-- Node24 -->
<g id="node24" class="node">
<title>Node24</title>
<g id="a_node24"><a xlink:href="https://www.itk.org/Doxygen/html/classitk_1_1ProcessObject.html" xlink:title=" ">
<polygon fill="white" stroke="black" points="1481,-216.48 1481,-235.48 1585,-235.48 1585,-216.48 1481,-216.48"/>
<text text-anchor="middle" x="1533" y="-223.48" font-family="Helvetica,sans-Serif" font-size="10.00">itk::ProcessObject</text>
</a>
</g>
</g>
<!-- Node9&#45;&gt;Node24 -->
<g id="edge32" class="edge">
<title>Node9&#45;&gt;Node24</title>
<path fill="none" stroke="midnightblue" d="M1243.22,-212.05C1304.06,-214.98 1415.5,-220.36 1480.72,-223.51"/>
<polygon fill="midnightblue" stroke="midnightblue" points="1243.35,-208.55 1233.19,-211.56 1243.01,-215.54 1243.35,-208.55"/>
</g>
<!-- Node10 -->
<g id="node10" class="node">
<title>Node10</title>
<g id="a_node10"><a xlink:href="https://www.itk.org/Doxygen/html/classitk_1_1LightObject.html" xlink:title=" ">
<polygon fill="white" stroke="black" points="797.5,-152.48 797.5,-171.48 888.5,-171.48 888.5,-152.48 797.5,-152.48"/>
<text text-anchor="middle" x="843" y="-159.48" font-family="Helvetica,sans-Serif" font-size="10.00">itk::LightObject</text>
</a>
</g>
</g>
<!-- Node10&#45;&gt;Node9 -->
<g id="edge10" class="edge">
<title>Node10&#45;&gt;Node9</title>
<path fill="none" stroke="midnightblue" d="M898.69,-169.39C973.42,-179.51 1105.08,-197.34 1165.95,-205.58"/>
<polygon fill="midnightblue" stroke="midnightblue" points="898.92,-165.89 888.54,-168.02 897.98,-172.83 898.92,-165.89"/>
</g>
<!-- Node11 -->
<g id="node11" class="node">
<title>Node11</title>
<g id="a_node11"><a xlink:title=" ">
<polygon fill="white" stroke="#bfbfbf" points="465,-146.48 465,-165.48 572,-165.48 572,-146.48 465,-146.48"/>
<text text-anchor="middle" x="518.5" y="-153.48" font-family="Helvetica,sans-Serif" font-size="10.00">std::atomic&lt; int &gt;</text>
</a>
</g>
</g>
<!-- Node11&#45;&gt;Node10 -->
<g id="edge11" class="edge">
<title>Node11&#45;&gt;Node10</title>
<path fill="none" stroke="#9a32cd" stroke-dasharray="5,2" d="M582.27,-157.15C645.49,-158.33 741.42,-160.11 797.29,-161.15"/>
<polygon fill="#9a32cd" stroke="#9a32cd" points="582.1,-153.65 572.03,-156.96 581.97,-160.65 582.1,-153.65"/>
<text text-anchor="middle" x="684.5" y="-163.98" font-family="Helvetica,sans-Serif" font-size="10.00"> m_ReferenceCount</text>
</g>
<!-- Node12 -->
<g id="node12" class="node">
<title>Node12</title>
<g id="a_node12"><a xlink:title="STL class.">
<polygon fill="white" stroke="#bfbfbf" points="127,-120.48 127,-139.48 227,-139.48 227,-120.48 127,-120.48"/>
<text text-anchor="middle" x="177" y="-127.48" font-family="Helvetica,sans-Serif" font-size="10.00">std::atomic&lt; T &gt;</text>
</a>
</g>
</g>
<!-- Node12&#45;&gt;Node11 -->
<g id="edge12" class="edge">
<title>Node12&#45;&gt;Node11</title>
<path fill="none" stroke="orange" stroke-dasharray="5,2" d="M236.99,-134.5C301.28,-139.43 403.21,-147.23 464.88,-151.96"/>
<polygon fill="orange" stroke="orange" points="237.24,-131.01 227,-133.74 236.71,-137.99 237.24,-131.01"/>
<text text-anchor="middle" x="342" y="-151.98" font-family="Helvetica,sans-Serif" font-size="10.00"> &lt; int &gt;</text>
</g>
<!-- Node21 -->
<g id="node21" class="node">
<title>Node21</title>
<g id="a_node21"><a xlink:href="https://www.itk.org/Doxygen/html/classitk_1_1TimeStamp.html" xlink:title=" ">
<polygon fill="white" stroke="black" points="797,-69.48 797,-88.48 889,-88.48 889,-69.48 797,-69.48"/>
<text text-anchor="middle" x="843" y="-76.48" font-family="Helvetica,sans-Serif" font-size="10.00">itk::TimeStamp</text>
</a>
</g>
</g>
<!-- Node12&#45;&gt;Node21 -->
<g id="edge24" class="edge">
<title>Node12&#45;&gt;Node21</title>
<path fill="none" stroke="#9a32cd" stroke-dasharray="5,2" d="M227.19,-118.32C237.33,-116.26 247.97,-114.34 258,-112.98 457.53,-86.04 698.26,-80.44 796.71,-79.28"/>
<polygon fill="#9a32cd" stroke="#9a32cd" points="226.33,-114.92 217.26,-120.41 227.77,-121.77 226.33,-114.92"/>
<text text-anchor="middle" x="518.5" y="-96.98" font-family="Helvetica,sans-Serif" font-size="10.00"> m_GlobalTimeStamp</text>
</g>
<!-- Node28 -->
<g id="node28" class="node">
<title>Node28</title>
<g id="a_node28"><a xlink:title=" ">
<polygon fill="white" stroke="#bfbfbf" points="617.5,-108.48 617.5,-127.48 751.5,-127.48 751.5,-108.48 617.5,-108.48"/>
<text text-anchor="middle" x="684.5" y="-115.48" font-family="Helvetica,sans-Serif" font-size="10.00">std::atomic&lt; uint32_t &gt;</text>
</a>
</g>
</g>
<!-- Node12&#45;&gt;Node28 -->
<g id="edge41" class="edge">
<title>Node12&#45;&gt;Node28</title>
<path fill="none" stroke="orange" stroke-dasharray="5,2" d="M237.21,-123.46C244.21,-122.87 251.26,-122.35 258,-121.98 385.06,-115.05 533.77,-115.64 617.47,-116.76"/>
<polygon fill="orange" stroke="orange" points="236.67,-119.99 227.02,-124.38 237.3,-126.97 236.67,-119.99"/>
<text text-anchor="middle" x="342" y="-124.98" font-family="Helvetica,sans-Serif" font-size="10.00"> &lt; uint32_t &gt;</text>
</g>
<!-- Node13 -->
<g id="node13" class="node">
<title>Node13</title>
<g id="a_node13"><a xlink:title=" ">
<polygon fill="white" stroke="#bfbfbf" points="0,-216.48 0,-235.48 29,-235.48 29,-216.48 0,-216.48"/>
<text text-anchor="middle" x="14.5" y="-223.48" font-family="Helvetica,sans-Serif" font-size="10.00">T</text>
</a>
</g>
</g>
<!-- Node13&#45;&gt;Node12 -->
<g id="edge13" class="edge">
<title>Node13&#45;&gt;Node12</title>
<path fill="none" stroke="#9a32cd" stroke-dasharray="5,2" d="M35.15,-210.34C39.01,-207.46 43.08,-204.56 47,-201.98 84.54,-177.38 131.04,-152.77 156.7,-139.66"/>
<polygon fill="#9a32cd" stroke="#9a32cd" points="32.98,-207.59 27.18,-216.46 37.24,-213.15 32.98,-207.59"/>
<text text-anchor="middle" x="71.5" y="-204.98" font-family="Helvetica,sans-Serif" font-size="10.00"> ptr</text>
</g>
<!-- Node18 -->
<g id="node18" class="node">
<title>Node18</title>
<g id="a_node18"><a xlink:title="STL class.">
<polygon fill="white" stroke="#bfbfbf" points="126.5,-283.48 126.5,-302.48 227.5,-302.48 227.5,-283.48 126.5,-283.48"/>
<text text-anchor="middle" x="177" y="-290.48" font-family="Helvetica,sans-Serif" font-size="10.00">std::map&lt; K, T &gt;</text>
</a>
</g>
</g>
<!-- Node13&#45;&gt;Node18 -->
<g id="edge20" class="edge">
<title>Node13&#45;&gt;Node18</title>
<path fill="none" stroke="#9a32cd" stroke-dasharray="5,2" d="M38.61,-235.63C69.19,-248.4 122.78,-270.77 153.21,-283.47"/>
<polygon fill="#9a32cd" stroke="#9a32cd" points="39.76,-232.32 29.18,-231.7 37.06,-238.78 39.76,-232.32"/>
<text text-anchor="middle" x="71.5" y="-261.98" font-family="Helvetica,sans-Serif" font-size="10.00"> elements</text>
</g>
<!-- Node20 -->
<g id="node20" class="node">
<title>Node20</title>
<g id="a_node20"><a xlink:title="STL class.">
<polygon fill="white" stroke="#bfbfbf" points="118,-198.48 118,-217.48 236,-217.48 236,-198.48 118,-198.48"/>
<text text-anchor="middle" x="177" y="-205.48" font-family="Helvetica,sans-Serif" font-size="10.00">std::shared_ptr&lt; T &gt;</text>
</a>
</g>
</g>
<!-- Node13&#45;&gt;Node20 -->
<g id="edge22" class="edge">
<title>Node13&#45;&gt;Node20</title>
<path fill="none" stroke="#9a32cd" stroke-dasharray="5,2" d="M39.27,-223.32C59.94,-221 90.75,-217.55 117.89,-214.5"/>
<polygon fill="#9a32cd" stroke="#9a32cd" points="38.73,-219.86 29.18,-224.45 39.51,-226.81 38.73,-219.86"/>
<text text-anchor="middle" x="71.5" y="-224.98" font-family="Helvetica,sans-Serif" font-size="10.00"> ptr</text>
</g>
<!-- Node22 -->
<g id="node22" class="node">
<title>Node22</title>
<g id="a_node22"><a xlink:title="STL class.">
<polygon fill="white" stroke="#bfbfbf" points="114,-496.48 114,-515.48 240,-515.48 240,-496.48 114,-496.48"/>
<text text-anchor="middle" x="177" y="-503.48" font-family="Helvetica,sans-Serif" font-size="10.00">std::multimap&lt; K, T &gt;</text>
</a>
</g>
</g>
<!-- Node13&#45;&gt;Node22 -->
<g id="edge27" class="edge">
<title>Node13&#45;&gt;Node22</title>
<path fill="none" stroke="#9a32cd" stroke-dasharray="5,2" d="M17.53,-245.8C21.52,-281.39 31.38,-354.3 47,-373.98 61.95,-392.83 81.05,-378.13 96,-396.98 119.99,-427.25 88.97,-452.58 114,-481.98 119.39,-488.31 126.65,-492.98 134.3,-496.42"/>
<polygon fill="#9a32cd" stroke="#9a32cd" points="20.99,-245.23 16.44,-235.67 14.03,-245.98 20.99,-245.23"/>
<text text-anchor="middle" x="71.5" y="-399.98" font-family="Helvetica,sans-Serif" font-size="10.00"> elements</text>
</g>
<!-- Node23 -->
<g id="node23" class="node">
<title>Node23</title>
<g id="a_node23"><a xlink:title="STL class.">
<polygon fill="white" stroke="#bfbfbf" points="301.5,-496.48 301.5,-515.48 382.5,-515.48 382.5,-496.48 301.5,-496.48"/>
<text text-anchor="middle" x="342" y="-503.48" font-family="Helvetica,sans-Serif" font-size="10.00">std::list&lt; T &gt;</text>
</a>
</g>
</g>
<!-- Node13&#45;&gt;Node23 -->
<g id="edge30" class="edge">
<title>Node13&#45;&gt;Node23</title>
<path fill="none" stroke="#9a32cd" stroke-dasharray="5,2" d="M26.36,-244.27C32.11,-253.47 39.51,-264.63 47,-273.98 52.27,-280.56 250.54,-488.06 258,-491.98 271.19,-498.93 287.05,-502.56 301.35,-504.42"/>
<polygon fill="#9a32cd" stroke="#9a32cd" points="29.24,-242.26 21.04,-235.55 23.26,-245.91 29.24,-242.26"/>
<text text-anchor="middle" x="71.5" y="-325.98" font-family="Helvetica,sans-Serif" font-size="10.00"> elements</text>
</g>
<!-- Node30 -->
<g id="node30" class="node">
<title>Node30</title>
<g id="a_node30"><a xlink:title="STL class.">
<polygon fill="white" stroke="#bfbfbf" points="128.5,-53.48 128.5,-72.48 225.5,-72.48 225.5,-53.48 128.5,-53.48"/>
<text text-anchor="middle" x="177" y="-60.48" font-family="Helvetica,sans-Serif" font-size="10.00">std::vector&lt; T &gt;</text>
</a>
</g>
</g>
<!-- Node13&#45;&gt;Node30 -->
<g id="edge44" class="edge">
<title>Node13&#45;&gt;Node30</title>
<path fill="none" stroke="#9a32cd" stroke-dasharray="5,2" d="M21.34,-206.61C26.44,-191.9 34.94,-171.76 47,-156.98 78.54,-118.35 129.51,-87.57 156.98,-72.7"/>
<polygon fill="#9a32cd" stroke="#9a32cd" points="17.98,-205.61 18.22,-216.21 24.64,-207.78 17.98,-205.61"/>
<text text-anchor="middle" x="71.5" y="-159.98" font-family="Helvetica,sans-Serif" font-size="10.00"> elements</text>
</g>
<!-- Node14 -->
<g id="node14" class="node">
<title>Node14</title>
<g id="a_node14"><a xlink:title="STL class.">
<polygon fill="white" stroke="#bfbfbf" points="810.5,-369.48 810.5,-388.48 875.5,-388.48 875.5,-369.48 810.5,-369.48"/>
<text text-anchor="middle" x="843" y="-376.48" font-family="Helvetica,sans-Serif" font-size="10.00">std::string</text>
</a>
</g>
</g>
<!-- Node14&#45;&gt;Node1 -->
<g id="edge51" class="edge">
<title>Node14&#45;&gt;Node1</title>
<path fill="none" stroke="#9a32cd" stroke-dasharray="5,2" d="M885.77,-376.46C975.01,-371.29 1190.87,-359.98 1372,-359.98 1372,-359.98 1372,-359.98 2844.5,-359.98 2887.94,-359.98 2936.7,-365.3 2973.74,-370.45"/>
<polygon fill="#9a32cd" stroke="#9a32cd" points="885.31,-372.98 875.53,-377.06 885.72,-379.97 885.31,-372.98"/>
<text text-anchor="middle" x="2061.5" y="-362.98" font-family="Helvetica,sans-Serif" font-size="10.00"> m_ImageIOName</text>
</g>
<!-- Node14&#45;&gt;Node7 -->
<g id="edge28" class="edge">
<title>Node14&#45;&gt;Node7</title>
<path fill="none" stroke="#9a32cd" stroke-dasharray="5,2" d="M857.89,-396.44C873.07,-414.15 899.11,-440.8 928,-453.98 1202.46,-579.28 1302.39,-523.69 1604,-515.98 1682.3,-513.98 1701.96,-513.7 1780,-506.98 1788.19,-506.28 1796.75,-505.42 1805.27,-504.5"/>
<polygon fill="#9a32cd" stroke="#9a32cd" points="860.42,-394.01 851.34,-388.55 855.04,-398.48 860.42,-394.01"/>
<text text-anchor="middle" x="1373" y="-535.98" font-family="Helvetica,sans-Serif" font-size="10.00"> m_Name</text>
</g>
<!-- Node14&#45;&gt;Node9 -->
<g id="edge14" class="edge">
<title>Node14&#45;&gt;Node9</title>
<path fill="none" stroke="#9a32cd" stroke-dasharray="5,2" d="M858.36,-361.45C873.77,-343.81 899.84,-317.11 928,-301.98 996.19,-265.37 1031.6,-301.38 1097,-259.98 1107.67,-253.23 1104.6,-245.16 1115,-237.98 1130.1,-227.56 1149.39,-220.76 1165.62,-216.47"/>
<polygon fill="#9a32cd" stroke="#9a32cd" points="855.51,-359.41 851.7,-369.3 860.84,-363.94 855.51,-359.41"/>
<text text-anchor="middle" x="1012.5" y="-304.98" font-family="Helvetica,sans-Serif" font-size="10.00"> m_ObjectName</text>
</g>
<!-- Node25 -->
<g id="node25" class="node">
<title>Node25</title>
<g id="a_node25"><a xlink:title=" ">
<polygon fill="white" stroke="#bfbfbf" points="1118.5,-388.98 1118.5,-418.98 1280.5,-418.98 1280.5,-388.98 1118.5,-388.98"/>
<text text-anchor="start" x="1126.5" y="-406.98" font-family="Helvetica,sans-Serif" font-size="10.00">std::set&lt; DataObjectIdentifier</text>
<text text-anchor="middle" x="1199.5" y="-395.98" font-family="Helvetica,sans-Serif" font-size="10.00">Type &gt;</text>
</a>
</g>
</g>
<!-- Node14&#45;&gt;Node25 -->
<g id="edge34" class="edge">
<title>Node14&#45;&gt;Node25</title>
<path fill="none" stroke="#9a32cd" stroke-dasharray="5,2" d="M885.86,-381.94C942.87,-385.96 1046.06,-393.23 1118.25,-398.33"/>
<polygon fill="#9a32cd" stroke="#9a32cd" points="885.99,-378.44 875.77,-381.23 885.5,-385.42 885.99,-378.44"/>
<text text-anchor="middle" x="1012.5" y="-398.98" font-family="Helvetica,sans-Serif" font-size="10.00"> keys</text>
</g>
<!-- Node27 -->
<g id="node27" class="node">
<title>Node27</title>
<g id="a_node27"><a xlink:title=" ">
<polygon fill="white" stroke="#bfbfbf" points="1115,-437.98 1115,-467.98 1284,-467.98 1284,-437.98 1115,-437.98"/>
<text text-anchor="start" x="1123" y="-455.98" font-family="Helvetica,sans-Serif" font-size="10.00">std::map&lt; DataObjectIdentifier</text>
<text text-anchor="middle" x="1199.5" y="-444.98" font-family="Helvetica,sans-Serif" font-size="10.00">Type, bool &gt;</text>
</a>
</g>
</g>
<!-- Node14&#45;&gt;Node27 -->
<g id="edge38" class="edge">
<title>Node14&#45;&gt;Node27</title>
<path fill="none" stroke="#9a32cd" stroke-dasharray="5,2" d="M877.78,-392.1C892.96,-397.61 911.19,-403.72 928,-407.98 989.83,-423.68 1061.05,-435.28 1114.88,-442.76"/>
<polygon fill="#9a32cd" stroke="#9a32cd" points="878.89,-388.78 868.3,-388.59 876.46,-395.34 878.89,-388.78"/>
<text text-anchor="middle" x="1012.5" y="-441.98" font-family="Helvetica,sans-Serif" font-size="10.00"> keys</text>
</g>
<!-- Node31 -->
<g id="node31" class="node">
<title>Node31</title>
<g id="a_node31"><a xlink:title=" ">
<polygon fill="white" stroke="#bfbfbf" points="1115,-246.98 1115,-276.98 1284,-276.98 1284,-246.98 1115,-246.98"/>
<text text-anchor="start" x="1123" y="-264.98" font-family="Helvetica,sans-Serif" font-size="10.00">std::map&lt; DataObjectIdentifier</text>
<text text-anchor="middle" x="1199.5" y="-253.98" font-family="Helvetica,sans-Serif" font-size="10.00">Type, DataObjectPointer &gt;</text>
</a>
</g>
</g>
<!-- Node14&#45;&gt;Node31 -->
<g id="edge48" class="edge">
<title>Node14&#45;&gt;Node31</title>
<path fill="none" stroke="#9a32cd" stroke-dasharray="5,2" d="M868.66,-364.35C884.96,-355.33 907.1,-344.33 928,-337.98 1000.54,-315.97 1024.77,-337.98 1097,-314.98 1125.41,-305.94 1155.38,-289.3 1175.32,-277.07"/>
<polygon fill="#9a32cd" stroke="#9a32cd" points="866.76,-361.4 859.79,-369.37 870.21,-367.49 866.76,-361.4"/>
<text text-anchor="middle" x="1012.5" y="-340.98" font-family="Helvetica,sans-Serif" font-size="10.00"> keys</text>
</g>
<!-- Node15 -->
<g id="node15" class="node">
<title>Node15</title>
<g id="a_node15"><a xlink:title="STL class.">
<polygon fill="white" stroke="#bfbfbf" points="466.5,-363.98 466.5,-393.98 570.5,-393.98 570.5,-363.98 466.5,-363.98"/>
<text text-anchor="start" x="474.5" y="-381.98" font-family="Helvetica,sans-Serif" font-size="10.00">std::basic_string&lt;</text>
<text text-anchor="middle" x="518.5" y="-370.98" font-family="Helvetica,sans-Serif" font-size="10.00"> char &gt;</text>
</a>
</g>
</g>
<!-- Node15&#45;&gt;Node14 -->
<g id="edge15" class="edge">
<title>Node15&#45;&gt;Node14</title>
<path fill="none" stroke="midnightblue" d="M580.8,-378.98C649.14,-378.98 757.02,-378.98 810.2,-378.98"/>
<polygon fill="midnightblue" stroke="midnightblue" points="580.6,-375.49 570.6,-378.98 580.6,-382.49 580.6,-375.49"/>
</g>
<!-- Node16 -->
<g id="node16" class="node">
<title>Node16</title>
<g id="a_node16"><a xlink:href="https://www.itk.org/Doxygen/html/classitk_1_1MetaDataDictionary.html" xlink:title=" ">
<polygon fill="white" stroke="black" points="776,-193.48 776,-212.48 910,-212.48 910,-193.48 776,-193.48"/>
<text text-anchor="middle" x="843" y="-200.48" font-family="Helvetica,sans-Serif" font-size="10.00">itk::MetaDataDictionary</text>
</a>
</g>
</g>
<!-- Node16&#45;&gt;Node9 -->
<g id="edge16" class="edge">
<title>Node16&#45;&gt;Node9</title>
<path fill="none" stroke="#9a32cd" stroke-dasharray="5,2" d="M920.3,-204.49C996.53,-206 1110.15,-208.24 1165.63,-209.34"/>
<polygon fill="#9a32cd" stroke="#9a32cd" points="920.33,-200.99 910.26,-204.29 920.19,-207.99 920.33,-200.99"/>
<text text-anchor="middle" x="1012.5" y="-209.98" font-family="Helvetica,sans-Serif" font-size="10.00"> m_MetaDataDictionary</text>
</g>
<!-- Node17 -->
<g id="node17" class="node">
<title>Node17</title>
<g id="a_node17"><a xlink:title=" ">
<polygon fill="white" stroke="#bfbfbf" points="444,-184.98 444,-214.98 593,-214.98 593,-184.98 444,-184.98"/>
<text text-anchor="start" x="452" y="-202.98" font-family="Helvetica,sans-Serif" font-size="10.00">std::shared_ptr&lt; MetaData</text>
<text text-anchor="middle" x="518.5" y="-191.98" font-family="Helvetica,sans-Serif" font-size="10.00">DictionaryMapType &gt;</text>
</a>
</g>
</g>
<!-- Node17&#45;&gt;Node16 -->
<g id="edge17" class="edge">
<title>Node17&#45;&gt;Node16</title>
<path fill="none" stroke="#9a32cd" stroke-dasharray="5,2" d="M603.29,-200.76C657.07,-201.26 725.93,-201.91 775.86,-202.37"/>
<polygon fill="#9a32cd" stroke="#9a32cd" points="603.12,-197.26 593.08,-200.67 603.05,-204.26 603.12,-197.26"/>
<text text-anchor="middle" x="684.5" y="-204.98" font-family="Helvetica,sans-Serif" font-size="10.00"> m_Dictionary</text>
</g>
<!-- Node18&#45;&gt;Node17 -->
<g id="edge18" class="edge">
<title>Node18&#45;&gt;Node17</title>
<path fill="none" stroke="#9a32cd" stroke-dasharray="5,2" d="M217.11,-280.36C230.08,-276.28 244.63,-271.82 258,-267.98 325.82,-248.51 404.25,-228.27 456.98,-214.99"/>
<polygon fill="#9a32cd" stroke="#9a32cd" points="216.01,-277.04 207.53,-283.39 218.12,-283.71 216.01,-277.04"/>
<text text-anchor="middle" x="342" y="-270.98" font-family="Helvetica,sans-Serif" font-size="10.00"> ptr</text>
</g>
<!-- Node18&#45;&gt;Node27 -->
<g id="edge39" class="edge">
<title>Node18&#45;&gt;Node27</title>
<path fill="none" stroke="orange" stroke-dasharray="5,2" d="M203.96,-308.03C216.84,-316.86 231.44,-329.18 240,-343.98 264.15,-385.73 221.45,-419.53 258,-450.98 322.01,-506.07 896.75,-473.43 1114.97,-458.88"/>
<polygon fill="orange" stroke="orange" points="205.71,-304.99 195.41,-302.49 201.9,-310.87 205.71,-304.99"/>
<text text-anchor="start" x="615" y="-494.98" font-family="Helvetica,sans-Serif" font-size="10.00"> &lt; DataObjectIdentifierType,</text>
<text text-anchor="middle" x="684.5" y="-483.98" font-family="Helvetica,sans-Serif" font-size="10.00"> bool &gt;</text>
</g>
<!-- Node18&#45;&gt;Node31 -->
<g id="edge49" class="edge">
<title>Node18&#45;&gt;Node31</title>
<path fill="none" stroke="orange" stroke-dasharray="5,2" d="M237.83,-291.57C362.73,-288.56 660.35,-281.15 910,-272.98 979.01,-270.73 1057.28,-267.71 1114.87,-265.41"/>
<polygon fill="orange" stroke="orange" points="237.62,-288.07 227.71,-291.81 237.79,-295.07 237.62,-288.07"/>
<text text-anchor="start" x="615" y="-294.98" font-family="Helvetica,sans-Serif" font-size="10.00"> &lt; DataObjectIdentifierType,</text>
<text text-anchor="middle" x="684.5" y="-283.98" font-family="Helvetica,sans-Serif" font-size="10.00"> DataObjectPointer &gt;</text>
</g>
<!-- Node19 -->
<g id="node19" class="node">
<title>Node19</title>
<g id="a_node19"><a xlink:title=" ">
<polygon fill="white" stroke="#bfbfbf" points="0,-420.48 0,-439.48 29,-439.48 29,-420.48 0,-420.48"/>
<text text-anchor="middle" x="14.5" y="-427.48" font-family="Helvetica,sans-Serif" font-size="10.00">K</text>
</a>
</g>
</g>
<!-- Node19&#45;&gt;Node18 -->
<g id="edge19" class="edge">
<title>Node19&#45;&gt;Node18</title>
<path fill="none" stroke="#9a32cd" stroke-dasharray="5,2" d="M20.71,-410.5C25.48,-395.86 33.83,-376.15 47,-362.98 64.02,-345.98 74.72,-351.2 96,-339.98 118.94,-327.89 144.67,-312.42 160.6,-302.6"/>
<polygon fill="#9a32cd" stroke="#9a32cd" points="17.35,-409.52 17.85,-420.1 24.06,-411.51 17.35,-409.52"/>
<text text-anchor="middle" x="71.5" y="-365.98" font-family="Helvetica,sans-Serif" font-size="10.00"> keys</text>
</g>
<!-- Node19&#45;&gt;Node22 -->
<g id="edge26" class="edge">
<title>Node19&#45;&gt;Node22</title>
<path fill="none" stroke="#9a32cd" stroke-dasharray="5,2" d="M38.11,-442.89C57.84,-453.91 87.38,-469.86 114,-481.98 125.34,-487.15 138.15,-492.23 149.17,-496.38"/>
<polygon fill="#9a32cd" stroke="#9a32cd" points="39.7,-439.77 29.27,-437.91 36.27,-445.87 39.7,-439.77"/>
<text text-anchor="middle" x="71.5" y="-474.98" font-family="Helvetica,sans-Serif" font-size="10.00"> keys</text>
</g>
<!-- Node26 -->
<g id="node26" class="node">
<title>Node26</title>
<g id="a_node26"><a xlink:title="STL class.">
<polygon fill="white" stroke="#bfbfbf" points="301,-422.48 301,-441.48 383,-441.48 383,-422.48 301,-422.48"/>
<text text-anchor="middle" x="342" y="-429.48" font-family="Helvetica,sans-Serif" font-size="10.00">std::set&lt; K &gt;</text>
</a>
</g>
</g>
<!-- Node19&#45;&gt;Node26 -->
<g id="edge36" class="edge">
<title>Node19&#45;&gt;Node26</title>
<path fill="none" stroke="#9a32cd" stroke-dasharray="5,2" d="M39.28,-430.13C94.59,-430.47 232.36,-431.32 300.92,-431.74"/>
<polygon fill="#9a32cd" stroke="#9a32cd" points="39.09,-426.63 29.07,-430.07 39.05,-433.63 39.09,-426.63"/>
<text text-anchor="middle" x="71.5" y="-432.98" font-family="Helvetica,sans-Serif" font-size="10.00"> keys</text>
</g>
<!-- Node20&#45;&gt;Node17 -->
<g id="edge21" class="edge">
<title>Node20&#45;&gt;Node17</title>
<path fill="none" stroke="orange" stroke-dasharray="5,2" d="M246.41,-206.37C303.68,-205.02 385.24,-203.1 443.92,-201.72"/>
<polygon fill="orange" stroke="orange" points="246.28,-202.88 236.36,-206.61 246.44,-209.87 246.28,-202.88"/>
<text text-anchor="middle" x="342" y="-208.98" font-family="Helvetica,sans-Serif" font-size="10.00"> &lt; MetaDataDictionaryMapType &gt;</text>
</g>
<!-- Node21&#45;&gt;Node9 -->
<g id="edge23" class="edge">
<title>Node21&#45;&gt;Node9</title>
<path fill="none" stroke="#9a32cd" stroke-dasharray="5,2" d="M864.9,-94.4C881.27,-105.71 905.03,-120.51 928,-128.98 999.5,-155.36 1024.7,-133.89 1097,-157.98 1129.31,-168.75 1164.02,-188.52 1183.32,-200.34"/>
<polygon fill="#9a32cd" stroke="#9a32cd" points="866.81,-91.46 856.63,-88.54 862.77,-97.17 866.81,-91.46"/>
<text text-anchor="middle" x="1012.5" y="-160.98" font-family="Helvetica,sans-Serif" font-size="10.00"> m_MTime</text>
</g>
<!-- Node21&#45;&gt;Node24 -->
<g id="edge50" class="edge">
<title>Node21&#45;&gt;Node24</title>
<path fill="none" stroke="#9a32cd" stroke-dasharray="5,2" d="M899.54,-75.09C1029.96,-66.91 1351.73,-52.7 1444,-103.98 1490.57,-129.87 1518.8,-191.97 1528.35,-216.13"/>
<polygon fill="#9a32cd" stroke="#9a32cd" points="899.13,-71.61 889.38,-75.74 899.58,-78.59 899.13,-71.61"/>
<text text-anchor="middle" x="1199.5" y="-74.98" font-family="Helvetica,sans-Serif" font-size="10.00"> m_OutputInformationMTime</text>
</g>
<!-- Node22&#45;&gt;Node8 -->
<g id="edge25" class="edge">
<title>Node22&#45;&gt;Node8</title>
<path fill="none" stroke="orange" stroke-dasharray="5,2" d="M250.37,-516.39C252.94,-516.61 255.49,-516.81 258,-516.98 332.49,-522.08 351.34,-518.03 426,-516.98 822.63,-511.43 1299.02,-494.67 1468.43,-488.39"/>
<polygon fill="orange" stroke="orange" points="250.66,-512.9 240.37,-515.4 249.97,-519.86 250.66,-512.9"/>
<text text-anchor="start" x="790" y="-522.98" font-family="Helvetica,sans-Serif" font-size="10.00"> &lt; itk::Object *, std</text>
<text text-anchor="middle" x="843" y="-511.98" font-family="Helvetica,sans-Serif" font-size="10.00">::function&lt; void()&gt; &gt;</text>
</g>
<!-- Node23&#45;&gt;Node4 -->
<g id="edge29" class="edge">
<title>Node23&#45;&gt;Node4</title>
<path fill="none" stroke="orange" stroke-dasharray="5,2" d="M378.19,-519.04C439.37,-540.52 569.68,-580.98 683.5,-580.98 683.5,-580.98 683.5,-580.98 2319.5,-580.98 2404.95,-580.98 2498.26,-534.85 2542.09,-510.16"/>
<polygon fill="orange" stroke="orange" points="379.23,-515.69 368.63,-515.64 376.88,-522.29 379.23,-515.69"/>
<text text-anchor="start" x="1462" y="-594.98" font-family="Helvetica,sans-Serif" font-size="10.00"> &lt; itk::simple::ProcessObject</text>
<text text-anchor="middle" x="1533" y="-583.98" font-family="Helvetica,sans-Serif" font-size="10.00">::EventCommand &gt;</text>
</g>
<!-- Node24&#45;&gt;Node2 -->
<g id="edge31" class="edge">
<title>Node24&#45;&gt;Node2</title>
<path fill="none" stroke="#9a32cd" stroke-dasharray="5,2" d="M1563.37,-239.69C1653.81,-280.59 1937.01,-398.98 2184.5,-398.98 2184.5,-398.98 2184.5,-398.98 2569.5,-398.98 2638.39,-398.98 2716.82,-405.08 2771.89,-410.37"/>
<polygon fill="#9a32cd" stroke="#9a32cd" points="1564.81,-236.5 1554.26,-235.53 1561.9,-242.87 1564.81,-236.5"/>
<text text-anchor="middle" x="2185.5" y="-401.98" font-family="Helvetica,sans-Serif" font-size="10.00"> m_ActiveProcess</text>
</g>
<!-- Node25&#45;&gt;Node24 -->
<g id="edge33" class="edge">
<title>Node25&#45;&gt;Node24</title>
<path fill="none" stroke="#9a32cd" stroke-dasharray="5,2" d="M1214.62,-380.08C1231.73,-353.44 1263.14,-311.31 1302,-289.98 1358.05,-259.22 1382.89,-285.77 1444,-266.98 1469.78,-259.06 1497.71,-245.03 1515.03,-235.61"/>
<polygon fill="#9a32cd" stroke="#9a32cd" points="1211.51,-378.46 1209.18,-388.8 1217.44,-382.17 1211.51,-378.46"/>
<text text-anchor="middle" x="1373" y="-292.98" font-family="Helvetica,sans-Serif" font-size="10.00"> m_RequiredInputNames</text>
</g>
<!-- Node26&#45;&gt;Node25 -->
<g id="edge35" class="edge">
<title>Node26&#45;&gt;Node25</title>
<path fill="none" stroke="orange" stroke-dasharray="5,2" d="M393.3,-433.54C556.63,-438.46 1063.6,-452.79 1097,-441.98 1106.39,-438.95 1106.15,-433.35 1115,-428.98 1122.6,-425.24 1130.87,-421.93 1139.15,-419.06"/>
<polygon fill="orange" stroke="orange" points="393.14,-430.03 383.04,-433.23 392.93,-437.03 393.14,-430.03"/>
<text text-anchor="middle" x="684.5" y="-444.98" font-family="Helvetica,sans-Serif" font-size="10.00"> &lt; DataObjectIdentifierType &gt;</text>
</g>
<!-- Node27&#45;&gt;Node24 -->
<g id="edge37" class="edge">
<title>Node27&#45;&gt;Node24</title>
<path fill="none" stroke="#9a32cd" stroke-dasharray="5,2" d="M1279.74,-432.39C1281.21,-431.31 1282.63,-430.18 1284,-428.98 1298.98,-415.89 1288.92,-402.98 1302,-387.98 1350.66,-332.21 1384.1,-344.46 1444,-300.98 1473.73,-279.41 1505.92,-250.36 1521.87,-235.54"/>
<polygon fill="#9a32cd" stroke="#9a32cd" points="1277.46,-429.69 1270.86,-437.98 1281.19,-435.62 1277.46,-429.69"/>
<text text-anchor="start" x="1302" y="-401.98" font-family="Helvetica,sans-Serif" font-size="10.00"> m_CachedInputReleaseData</text>
<text text-anchor="middle" x="1373" y="-390.98" font-family="Helvetica,sans-Serif" font-size="10.00">Flags</text>
</g>
<!-- Node28&#45;&gt;Node24 -->
<g id="edge40" class="edge">
<title>Node28&#45;&gt;Node24</title>
<path fill="none" stroke="#9a32cd" stroke-dasharray="5,2" d="M761.89,-117.19C809.63,-116.74 872.4,-116.21 928,-115.98 1003.11,-115.68 1022.46,-106.71 1097,-115.98 1254.31,-135.57 1436.4,-193.53 1504.47,-216.47"/>
<polygon fill="#9a32cd" stroke="#9a32cd" points="761.59,-113.7 751.63,-117.29 761.66,-120.7 761.59,-113.7"/>
<text text-anchor="middle" x="1012.5" y="-118.98" font-family="Helvetica,sans-Serif" font-size="10.00"> m_Progress</text>
</g>
<!-- Node29 -->
<g id="node29" class="node">
<title>Node29</title>
<g id="a_node29"><a xlink:title=" ">
<polygon fill="white" stroke="#bfbfbf" points="928,-5.98 928,-35.98 1097,-35.98 1097,-5.98 928,-5.98"/>
<text text-anchor="start" x="936" y="-23.98" font-family="Helvetica,sans-Serif" font-size="10.00">std::vector&lt; DataObjectPointer</text>
<text text-anchor="middle" x="1012.5" y="-12.98" font-family="Helvetica,sans-Serif" font-size="10.00">Map::iterator &gt;</text>
</a>
</g>
</g>
<!-- Node29&#45;&gt;Node24 -->
<g id="edge42" class="edge">
<title>Node29&#45;&gt;Node24</title>
<path fill="none" stroke="#9a32cd" stroke-dasharray="5,2" d="M1107.11,-5.29C1201.28,5.16 1346.19,6.03 1444,-64.98 1498.39,-104.47 1522.9,-188.24 1529.84,-216.47"/>
<polygon fill="#9a32cd" stroke="#9a32cd" points="1106.55,-1.83 1097.02,-6.46 1107.36,-8.78 1106.55,-1.83"/>
<text text-anchor="middle" x="1199.5" y="-19.98" font-family="Helvetica,sans-Serif" font-size="10.00"> m_IndexedOutputs</text>
<text text-anchor="middle" x="1199.5" y="-8.98" font-family="Helvetica,sans-Serif" font-size="10.00">m_IndexedInputs</text>
</g>
<!-- Node30&#45;&gt;Node29 -->
<g id="edge43" class="edge">
<title>Node30&#45;&gt;Node29</title>
<path fill="none" stroke="orange" stroke-dasharray="5,2" d="M235.49,-60.09C379.96,-52.81 758.69,-33.72 927.83,-25.2"/>
<polygon fill="orange" stroke="orange" points="235.31,-56.59 225.5,-60.59 235.67,-63.58 235.31,-56.59"/>
<text text-anchor="start" x="456" y="-63.98" font-family="Helvetica,sans-Serif" font-size="10.00"> &lt; DataObjectPointerMap</text>
<text text-anchor="middle" x="518.5" y="-52.98" font-family="Helvetica,sans-Serif" font-size="10.00">::iterator &gt;</text>
</g>
<!-- Node31&#45;&gt;Node24 -->
<g id="edge45" class="edge">
<title>Node31&#45;&gt;Node24</title>
<path fill="none" stroke="#9a32cd" stroke-dasharray="5,2" d="M1294.23,-245.99C1296.85,-245.64 1299.44,-245.3 1302,-244.98 1363.23,-237.34 1434.02,-232.02 1480.72,-228.99"/>
<polygon fill="#9a32cd" stroke="#9a32cd" points="1293.47,-242.57 1284.06,-247.42 1294.45,-249.5 1293.47,-242.57"/>
<text text-anchor="middle" x="1373" y="-258.98" font-family="Helvetica,sans-Serif" font-size="10.00"> m_Outputs</text>
<text text-anchor="middle" x="1373" y="-247.98" font-family="Helvetica,sans-Serif" font-size="10.00">m_Inputs</text>
</g>
<!-- Node32 -->
<g id="node32" class="node">
<title>Node32</title>
<g id="a_node32"><a xlink:href="https://www.itk.org/Doxygen/html/classitk_1_1SmartPointer.html" xlink:title=" ">
<polygon fill="white" stroke="black" points="789.5,-232.98 789.5,-262.98 896.5,-262.98 896.5,-232.98 789.5,-232.98"/>
<text text-anchor="start" x="797.5" y="-250.98" font-family="Helvetica,sans-Serif" font-size="10.00">itk::SmartPointer&lt;</text>
<text text-anchor="middle" x="843" y="-239.98" font-family="Helvetica,sans-Serif" font-size="10.00"> Self &gt;</text>
</a>
</g>
</g>
<!-- Node32&#45;&gt;Node31 -->
<g id="edge46" class="edge">
<title>Node32&#45;&gt;Node31</title>
<path fill="none" stroke="#9a32cd" stroke-dasharray="5,2" d="M907.13,-245.49C914.17,-245.28 921.24,-245.11 928,-244.98 1003.1,-243.64 1022.15,-238.76 1097,-244.98 1103.14,-245.5 1109.47,-246.18 1115.83,-246.98"/>
<polygon fill="#9a32cd" stroke="#9a32cd" points="906.75,-242 896.87,-245.81 906.97,-248.99 906.75,-242"/>
<text text-anchor="middle" x="1012.5" y="-247.98" font-family="Helvetica,sans-Serif" font-size="10.00"> elements</text>
</g>
<!-- Node33 -->
<g id="node33" class="node">
<title>Node33</title>
<g id="a_node33"><a xlink:href="https://www.itk.org/Doxygen/html/classitk_1_1SmartPointer.html" xlink:title=" ">
<polygon fill="white" stroke="black" points="465,-233.98 465,-263.98 572,-263.98 572,-233.98 465,-233.98"/>
<text text-anchor="start" x="473" y="-251.98" font-family="Helvetica,sans-Serif" font-size="10.00">itk::SmartPointer&lt;</text>
<text text-anchor="middle" x="518.5" y="-240.98" font-family="Helvetica,sans-Serif" font-size="10.00"> TObjectType &gt;</text>
</a>
</g>
</g>
<!-- Node33&#45;&gt;Node32 -->
<g id="edge47" class="edge">
<title>Node33&#45;&gt;Node32</title>
<path fill="none" stroke="orange" stroke-dasharray="5,2" d="M582.2,-248.79C642.56,-248.6 732.81,-248.32 789.49,-248.15"/>
<polygon fill="orange" stroke="orange" points="582.02,-245.29 572.03,-248.82 582.04,-252.29 582.02,-245.29"/>
<text text-anchor="middle" x="684.5" y="-250.98" font-family="Helvetica,sans-Serif" font-size="10.00"> &lt; Self &gt;</text>
</g>
</g>
</svg>
