<?xml version="1.0" encoding="UTF-8" standalone="no"?>
<!DOCTYPE svg PUBLIC "-//W3C//DTD SVG 1.1//EN"
 "http://www.w3.org/Graphics/SVG/1.1/DTD/svg11.dtd">
<!-- Generated by graphviz version 2.43.0 (0)
 -->
<!-- Title: itk::HashImageFilter&lt; TImageType &gt; Pages: 1 -->
<!--zoomable 302 -->
<svg id="main" version="1.1" xmlns="http://www.w3.org/2000/svg" xmlns:xlink="http://www.w3.org/1999/xlink" xml:space="preserve" onload="init(evt)">
<style type="text/css"><![CDATA[
.edge:hover path { stroke: red; }
.edge:hover polygon { stroke: red; fill: red; }
]]></style>
<script type="text/javascript"><![CDATA[
var edges = document.getElementsByTagName('g');
if (edges && edges.length) {
  for (var i=0;i<edges.length;i++) {
    if (edges[i].id.substr(0,4)=='edge') {
      edges[i].setAttribute('class','edge');
    }
  }
}
]]></script>
        <defs>
                <circle id="rim" cx="0" cy="0" r="7"/>
                <circle id="rim2" cx="0" cy="0" r="3.5"/>
                <g id="zoomPlus">
                        <use xlink:href="#rim" fill="#404040">
                                <set attributeName="fill" to="#808080" begin="zoomplus.mouseover" end="zoomplus.mouseout"/>
                        </use>
                        <path d="M-4,0h8M0,-4v8" fill="none" stroke="white" stroke-width="1.5" pointer-events="none"/>
                </g>
                <g id="zoomMin">
                        <use xlink:href="#rim" fill="#404040">
                                <set attributeName="fill" to="#808080" begin="zoomminus.mouseover" end="zoomminus.mouseout"/>
                        </use>
                        <path d="M-4,0h8" fill="none" stroke="white" stroke-width="1.5" pointer-events="none"/>
                </g>
                <g id="dirArrow">
                        <path fill="none" stroke="white" stroke-width="1.5" d="M0,-3.0v7 M-2.5,-0.5L0,-3.0L2.5,-0.5"/>
                </g>
               <g id="resetDef">
                       <use xlink:href="#rim2" fill="#404040">
                               <set attributeName="fill" to="#808080" begin="reset.mouseover" end="reset.mouseout"/>
                       </use>
               </g>
        </defs>

<script type="text/javascript">
var viewWidth = 2562;
var viewHeight = 302;
var sectionId = 'dynsection-1';
</script>
<script xlink:href="svgpan.js"/>
<svg id="graph" class="graph">
<g id="viewport">
<title>itk::HashImageFilter&lt; TImageType &gt;</title>
<polygon fill="white" stroke="transparent" points="-4,4 -4,-298 2558,-298 2558,4 -4,4"/>
<!-- Node1 -->
<g id="node1" class="node">
<title>Node1</title>
<g id="a_node1"><a xlink:title="Generates a hash string from an image.">
<polygon fill="#bfbfbf" stroke="black" points="2438,-83 2438,-113 2554,-113 2554,-83 2438,-83"/>
<text text-anchor="start" x="2446" y="-101" font-family="Helvetica,sans-Serif" font-size="10.00">itk::HashImageFilter</text>
<text text-anchor="middle" x="2496" y="-90" font-family="Helvetica,sans-Serif" font-size="10.00">&lt; TImageType &gt;</text>
</a>
</g>
</g>
<!-- Node2 -->
<g id="node2" class="node">
<title>Node2</title>
<g id="a_node2"><a target="_parent" xlink:href="https://www.itk.org/Doxygen/html/classitk_1_1CastImageFilter.html" xlink:title=" ">
<polygon fill="white" stroke="black" points="2153,-114 2153,-144 2317,-144 2317,-114 2153,-114"/>
<text text-anchor="start" x="2161" y="-132" font-family="Helvetica,sans-Serif" font-size="10.00">itk::CastImageFilter</text>
<text text-anchor="middle" x="2235" y="-121" font-family="Helvetica,sans-Serif" font-size="10.00">&lt; TImageType, TImageType &gt;</text>
</a>
</g>
</g>
<!-- Node2&#45;&gt;Node1 -->
<g id="edge1" class="edge">
<title>Node2&#45;&gt;Node1</title>
<path fill="none" stroke="midnightblue" d="M2327.48,-118.05C2364.24,-113.65 2405.48,-108.71 2437.85,-104.84"/>
<polygon fill="midnightblue" stroke="midnightblue" points="2326.75,-114.61 2317.24,-119.28 2327.58,-121.56 2326.75,-114.61"/>
</g>
<!-- Node3 -->
<g id="node3" class="node">
<title>Node3</title>
<g id="a_node3"><a target="_parent" xlink:href="https://www.itk.org/Doxygen/html/classitk_1_1InPlaceImageFilter.html" xlink:title=" ">
<polygon fill="white" stroke="black" points="1577,-109 1577,-139 1753,-139 1753,-109 1577,-109"/>
<text text-anchor="start" x="1585" y="-127" font-family="Helvetica,sans-Serif" font-size="10.00">itk::InPlaceImageFilter</text>
<text text-anchor="middle" x="1665" y="-116" font-family="Helvetica,sans-Serif" font-size="10.00">&lt; TInputImage, TOutputImage &gt;</text>
</a>
</g>
</g>
<!-- Node3&#45;&gt;Node2 -->
<g id="edge2" class="edge">
<title>Node3&#45;&gt;Node2</title>
<path fill="none" stroke="midnightblue" d="M1763.25,-126.8C1765.86,-126.87 1768.45,-126.93 1771,-127 1932.74,-131.21 1973.23,-134.45 2135,-132 2140.85,-131.91 2146.89,-131.79 2152.96,-131.66"/>
<polygon fill="midnightblue" stroke="midnightblue" points="1763.18,-123.29 1753.09,-126.52 1762.99,-130.29 1763.18,-123.29"/>
</g>
<!-- Node23 -->
<g id="node23" class="node">
<title>Node23</title>
<g id="a_node23"><a target="_parent" xlink:href="https://www.itk.org/Doxygen/html/classitk_1_1CastImageFilter.html" xlink:title=" ">
<polygon fill="white" stroke="black" points="1790,-87 1790,-117 1966,-117 1966,-87 1790,-87"/>
<text text-anchor="start" x="1798" y="-105" font-family="Helvetica,sans-Serif" font-size="10.00">itk::CastImageFilter</text>
<text text-anchor="middle" x="1878" y="-94" font-family="Helvetica,sans-Serif" font-size="10.00">&lt; TInputImage, TOutputImage &gt;</text>
</a>
</g>
</g>
<!-- Node3&#45;&gt;Node23 -->
<g id="edge28" class="edge">
<title>Node3&#45;&gt;Node23</title>
<path fill="none" stroke="midnightblue" d="M1763.07,-113.88C1771.99,-112.95 1780.99,-112.01 1789.82,-111.09"/>
<polygon fill="midnightblue" stroke="midnightblue" points="1762.62,-110.41 1753.04,-114.92 1763.35,-117.37 1762.62,-110.41"/>
</g>
<!-- Node4 -->
<g id="node4" class="node">
<title>Node4</title>
<g id="a_node4"><a target="_parent" xlink:href="https://www.itk.org/Doxygen/html/classitk_1_1ImageToImageFilter.html" xlink:title=" ">
<polygon fill="white" stroke="black" points="1364,-109 1364,-139 1540,-139 1540,-109 1364,-109"/>
<text text-anchor="start" x="1372" y="-127" font-family="Helvetica,sans-Serif" font-size="10.00">itk::ImageToImageFilter</text>
<text text-anchor="middle" x="1452" y="-116" font-family="Helvetica,sans-Serif" font-size="10.00">&lt; TInputImage, TOutputImage &gt;</text>
</a>
</g>
</g>
<!-- Node4&#45;&gt;Node3 -->
<g id="edge3" class="edge">
<title>Node4&#45;&gt;Node3</title>
<path fill="none" stroke="midnightblue" d="M1550.07,-124C1558.99,-124 1567.99,-124 1576.82,-124"/>
<polygon fill="midnightblue" stroke="midnightblue" points="1550.04,-120.5 1540.04,-124 1550.04,-127.5 1550.04,-120.5"/>
</g>
<!-- Node5 -->
<g id="node5" class="node">
<title>Node5</title>
<g id="a_node5"><a target="_parent" xlink:href="https://www.itk.org/Doxygen/html/classitk_1_1ImageSource.html" xlink:title=" ">
<polygon fill="white" stroke="black" points="1164.5,-141 1164.5,-171 1313.5,-171 1313.5,-141 1164.5,-141"/>
<text text-anchor="start" x="1172.5" y="-159" font-family="Helvetica,sans-Serif" font-size="10.00">itk::ImageSource&lt; TOutput</text>
<text text-anchor="middle" x="1239" y="-148" font-family="Helvetica,sans-Serif" font-size="10.00">Image &gt;</text>
</a>
</g>
</g>
<!-- Node5&#45;&gt;Node4 -->
<g id="edge4" class="edge">
<title>Node5&#45;&gt;Node4</title>
<path fill="none" stroke="midnightblue" d="M1323.55,-143.33C1336.85,-141.31 1350.62,-139.22 1363.99,-137.2"/>
<polygon fill="midnightblue" stroke="midnightblue" points="1322.86,-139.89 1313.5,-144.85 1323.91,-146.81 1322.86,-139.89"/>
</g>
<!-- Node6 -->
<g id="node6" class="node">
<title>Node6</title>
<g id="a_node6"><a target="_parent" xlink:href="https://www.itk.org/Doxygen/html/classitk_1_1ProcessObject.html" xlink:title=" ">
<polygon fill="white" stroke="black" points="990.5,-168.5 990.5,-187.5 1094.5,-187.5 1094.5,-168.5 990.5,-168.5"/>
<text text-anchor="middle" x="1042.5" y="-175.5" font-family="Helvetica,sans-Serif" font-size="10.00">itk::ProcessObject</text>
</a>
</g>
</g>
<!-- Node6&#45;&gt;Node5 -->
<g id="edge5" class="edge">
<title>Node6&#45;&gt;Node5</title>
<path fill="none" stroke="midnightblue" d="M1104.57,-171.09C1123.48,-168.95 1144.52,-166.57 1164.19,-164.35"/>
<polygon fill="midnightblue" stroke="midnightblue" points="1104.15,-167.62 1094.6,-172.22 1104.93,-174.57 1104.15,-167.62"/>
</g>
<!-- Node7 -->
<g id="node7" class="node">
<title>Node7</title>
<g id="a_node7"><a target="_parent" xlink:href="https://www.itk.org/Doxygen/html/classitk_1_1Object.html" xlink:title=" ">
<polygon fill="white" stroke="black" points="696,-208.5 696,-227.5 763,-227.5 763,-208.5 696,-208.5"/>
<text text-anchor="middle" x="729.5" y="-215.5" font-family="Helvetica,sans-Serif" font-size="10.00">itk::Object</text>
</a>
</g>
</g>
<!-- Node7&#45;&gt;Node6 -->
<g id="edge6" class="edge">
<title>Node7&#45;&gt;Node6</title>
<path fill="none" stroke="midnightblue" d="M773.25,-212.5C829.88,-205.22 929.68,-192.38 990.28,-184.59"/>
<polygon fill="midnightblue" stroke="midnightblue" points="772.67,-209.05 763.19,-213.79 773.56,-215.99 772.67,-209.05"/>
</g>
<!-- Node8 -->
<g id="node8" class="node">
<title>Node8</title>
<g id="a_node8"><a target="_parent" xlink:href="https://www.itk.org/Doxygen/html/classitk_1_1LightObject.html" xlink:title=" ">
<polygon fill="white" stroke="black" points="349.5,-234.5 349.5,-253.5 440.5,-253.5 440.5,-234.5 349.5,-234.5"/>
<text text-anchor="middle" x="395" y="-241.5" font-family="Helvetica,sans-Serif" font-size="10.00">itk::LightObject</text>
</a>
</g>
</g>
<!-- Node8&#45;&gt;Node7 -->
<g id="edge7" class="edge">
<title>Node8&#45;&gt;Node7</title>
<path fill="none" stroke="midnightblue" d="M450.99,-241.1C497.82,-238.47 566.88,-234.21 627,-229 649.96,-227.01 675.77,-224.21 695.62,-221.93"/>
<polygon fill="midnightblue" stroke="midnightblue" points="450.55,-237.62 440.76,-241.67 450.94,-244.61 450.55,-237.62"/>
</g>
<!-- Node9 -->
<g id="node9" class="node">
<title>Node9</title>
<g id="a_node9"><a target="_parent" xlink:href="https://www.itk.org/Doxygen/html/classitk_1_1TimeStamp.html" xlink:title=" ">
<polygon fill="white" stroke="black" points="349,-272.5 349,-291.5 441,-291.5 441,-272.5 349,-272.5"/>
<text text-anchor="middle" x="395" y="-279.5" font-family="Helvetica,sans-Serif" font-size="10.00">itk::TimeStamp</text>
</a>
</g>
</g>
<!-- Node9&#45;&gt;Node6 -->
<g id="edge14" class="edge">
<title>Node9&#45;&gt;Node6</title>
<path fill="none" stroke="#9a32cd" stroke-dasharray="5,2" d="M451.57,-287.05C498.49,-290.33 567.36,-292.86 627,-286 774.8,-269 810.35,-252.26 953,-210 975.09,-203.46 999.69,-194.41 1017.34,-187.61"/>
<polygon fill="#9a32cd" stroke="#9a32cd" points="451.55,-283.54 441.32,-286.29 451.04,-290.52 451.55,-283.54"/>
<text text-anchor="middle" x="729.5" y="-286" font-family="Helvetica,sans-Serif" font-size="10.00"> m_OutputInformationMTime</text>
</g>
<!-- Node9&#45;&gt;Node7 -->
<g id="edge8" class="edge">
<title>Node9&#45;&gt;Node7</title>
<path fill="none" stroke="#9a32cd" stroke-dasharray="5,2" d="M451.04,-276.12C498.09,-270.56 567.44,-261.12 627,-248 651.94,-242.51 679.72,-234.13 699.91,-227.63"/>
<polygon fill="#9a32cd" stroke="#9a32cd" points="450.59,-272.65 441.06,-277.28 451.39,-279.6 450.59,-272.65"/>
<text text-anchor="middle" x="553.5" y="-274" font-family="Helvetica,sans-Serif" font-size="10.00"> m_MTime</text>
</g>
<!-- Node10 -->
<g id="node10" class="node">
<title>Node10</title>
<g id="a_node10"><a xlink:title=" ">
<polygon fill="white" stroke="#bfbfbf" points="84,-228.5 84,-247.5 184,-247.5 184,-228.5 84,-228.5"/>
<text text-anchor="middle" x="134" y="-235.5" font-family="Helvetica,sans-Serif" font-size="10.00">std::atomic&lt; T &gt;</text>
</a>
</g>
</g>
<!-- Node10&#45;&gt;Node9 -->
<g id="edge9" class="edge">
<title>Node10&#45;&gt;Node9</title>
<path fill="none" stroke="#9a32cd" stroke-dasharray="5,2" d="M194.05,-248.03C241,-256.01 305.71,-267 348.65,-274.3"/>
<polygon fill="#9a32cd" stroke="#9a32cd" points="194.47,-244.55 184.02,-246.33 193.29,-251.45 194.47,-244.55"/>
<text text-anchor="middle" x="257" y="-269" font-family="Helvetica,sans-Serif" font-size="10.00"> m_GlobalTimeStamp</text>
</g>
<!-- Node11 -->
<g id="node11" class="node">
<title>Node11</title>
<g id="a_node11"><a xlink:title=" ">
<polygon fill="white" stroke="#bfbfbf" points="0,-18.5 0,-37.5 29,-37.5 29,-18.5 0,-18.5"/>
<text text-anchor="middle" x="14.5" y="-25.5" font-family="Helvetica,sans-Serif" font-size="10.00">T</text>
</a>
</g>
</g>
<!-- Node11&#45;&gt;Node10 -->
<g id="edge10" class="edge">
<title>Node11&#45;&gt;Node10</title>
<path fill="none" stroke="#9a32cd" stroke-dasharray="5,2" d="M22.45,-47.4C33.19,-76.3 55.4,-131.87 82,-175 94.56,-195.36 112.93,-216.46 123.85,-228.34"/>
<polygon fill="#9a32cd" stroke="#9a32cd" points="25.62,-45.9 18.9,-37.71 19.05,-48.31 25.62,-45.9"/>
<text text-anchor="middle" x="55.5" y="-143" font-family="Helvetica,sans-Serif" font-size="10.00"> ptr</text>
</g>
<!-- Node17 -->
<g id="node17" class="node">
<title>Node17</title>
<g id="a_node17"><a xlink:title=" ">
<polygon fill="white" stroke="#bfbfbf" points="344.5,-0.5 344.5,-19.5 445.5,-19.5 445.5,-0.5 344.5,-0.5"/>
<text text-anchor="middle" x="395" y="-7.5" font-family="Helvetica,sans-Serif" font-size="10.00">std::map&lt; K, T &gt;</text>
</a>
</g>
</g>
<!-- Node11&#45;&gt;Node17 -->
<g id="edge20" class="edge">
<title>Node11&#45;&gt;Node17</title>
<path fill="none" stroke="#9a32cd" stroke-dasharray="5,2" d="M39.59,-26.85C100.57,-23.95 261.96,-16.28 344.25,-12.37"/>
<polygon fill="#9a32cd" stroke="#9a32cd" points="39.24,-23.37 29.42,-27.34 39.57,-30.36 39.24,-23.37"/>
<text text-anchor="middle" x="134" y="-28" font-family="Helvetica,sans-Serif" font-size="10.00"> elements</text>
</g>
<!-- Node12 -->
<g id="node12" class="node">
<title>Node12</title>
<g id="a_node12"><a target="_parent" xlink:href="https://www.itk.org/Doxygen/html/classitk_1_1MetaDataDictionary.html" xlink:title=" ">
<polygon fill="white" stroke="black" points="328,-196.5 328,-215.5 462,-215.5 462,-196.5 328,-196.5"/>
<text text-anchor="middle" x="395" y="-203.5" font-family="Helvetica,sans-Serif" font-size="10.00">itk::MetaDataDictionary</text>
</a>
</g>
</g>
<!-- Node12&#45;&gt;Node7 -->
<g id="edge11" class="edge">
<title>Node12&#45;&gt;Node7</title>
<path fill="none" stroke="#9a32cd" stroke-dasharray="5,2" d="M472.27,-208.75C542.84,-211.3 644.37,-214.96 695.87,-216.82"/>
<polygon fill="#9a32cd" stroke="#9a32cd" points="472.21,-205.25 462.09,-208.39 471.96,-212.24 472.21,-205.25"/>
<text text-anchor="middle" x="553.5" y="-217" font-family="Helvetica,sans-Serif" font-size="10.00"> m_MetaDataDictionary</text>
</g>
<!-- Node13 -->
<g id="node13" class="node">
<title>Node13</title>
<g id="a_node13"><a xlink:title=" ">
<polygon fill="white" stroke="#bfbfbf" points="362.5,-140.5 362.5,-159.5 427.5,-159.5 427.5,-140.5 362.5,-140.5"/>
<text text-anchor="middle" x="395" y="-147.5" font-family="Helvetica,sans-Serif" font-size="10.00">std::string</text>
</a>
</g>
</g>
<!-- Node13&#45;&gt;Node7 -->
<g id="edge12" class="edge">
<title>Node13&#45;&gt;Node7</title>
<path fill="none" stroke="#9a32cd" stroke-dasharray="5,2" d="M437.83,-157.4C484.18,-165.73 561.11,-179.94 627,-194 650.02,-198.91 675.84,-205.02 695.67,-209.85"/>
<polygon fill="#9a32cd" stroke="#9a32cd" points="438.31,-153.93 427.85,-155.61 437.08,-160.82 438.31,-153.93"/>
<text text-anchor="middle" x="553.5" y="-197" font-family="Helvetica,sans-Serif" font-size="10.00"> m_ObjectName</text>
</g>
<!-- Node15 -->
<g id="node15" class="node">
<title>Node15</title>
<g id="a_node15"><a xlink:title=" ">
<polygon fill="white" stroke="#bfbfbf" points="645,-60 645,-90 814,-90 814,-60 645,-60"/>
<text text-anchor="start" x="653" y="-78" font-family="Helvetica,sans-Serif" font-size="10.00">std::map&lt; DataObjectIdentifier</text>
<text text-anchor="middle" x="729.5" y="-67" font-family="Helvetica,sans-Serif" font-size="10.00">Type, DataObjectPointer &gt;</text>
</a>
</g>
</g>
<!-- Node13&#45;&gt;Node15 -->
<g id="edge16" class="edge">
<title>Node13&#45;&gt;Node15</title>
<path fill="none" stroke="#9a32cd" stroke-dasharray="5,2" d="M437.54,-140.63C493.78,-127.94 594.79,-105.16 661.74,-90.06"/>
<polygon fill="#9a32cd" stroke="#9a32cd" points="436.57,-137.26 427.58,-142.88 438.11,-144.09 436.57,-137.26"/>
<text text-anchor="middle" x="553.5" y="-132" font-family="Helvetica,sans-Serif" font-size="10.00"> keys</text>
</g>
<!-- Node19 -->
<g id="node19" class="node">
<title>Node19</title>
<g id="a_node19"><a xlink:title=" ">
<polygon fill="white" stroke="#bfbfbf" points="648.5,-135 648.5,-165 810.5,-165 810.5,-135 648.5,-135"/>
<text text-anchor="start" x="656.5" y="-153" font-family="Helvetica,sans-Serif" font-size="10.00">std::set&lt; DataObjectIdentifier</text>
<text text-anchor="middle" x="729.5" y="-142" font-family="Helvetica,sans-Serif" font-size="10.00">Type &gt;</text>
</a>
</g>
</g>
<!-- Node13&#45;&gt;Node19 -->
<g id="edge22" class="edge">
<title>Node13&#45;&gt;Node19</title>
<path fill="none" stroke="#9a32cd" stroke-dasharray="5,2" d="M437.89,-150C490.57,-150 582.11,-150 648.41,-150"/>
<polygon fill="#9a32cd" stroke="#9a32cd" points="437.58,-146.5 427.58,-150 437.58,-153.5 437.58,-146.5"/>
<text text-anchor="middle" x="553.5" y="-153" font-family="Helvetica,sans-Serif" font-size="10.00"> keys</text>
</g>
<!-- Node14 -->
<g id="node14" class="node">
<title>Node14</title>
<g id="a_node14"><a xlink:title=" ">
<polygon fill="white" stroke="#bfbfbf" points="82,-135 82,-165 186,-165 186,-135 82,-135"/>
<text text-anchor="start" x="90" y="-153" font-family="Helvetica,sans-Serif" font-size="10.00">std::basic_string&lt;</text>
<text text-anchor="middle" x="134" y="-142" font-family="Helvetica,sans-Serif" font-size="10.00"> Char &gt;</text>
</a>
</g>
</g>
<!-- Node14&#45;&gt;Node13 -->
<g id="edge13" class="edge">
<title>Node14&#45;&gt;Node13</title>
<path fill="none" stroke="midnightblue" d="M196.32,-150C248.51,-150 321.37,-150 362.49,-150"/>
<polygon fill="midnightblue" stroke="midnightblue" points="196.17,-146.5 186.17,-150 196.17,-153.5 196.17,-146.5"/>
</g>
<!-- Node15&#45;&gt;Node6 -->
<g id="edge15" class="edge">
<title>Node15&#45;&gt;Node6</title>
<path fill="none" stroke="#9a32cd" stroke-dasharray="5,2" d="M824.11,-84.41C866.43,-92.26 915.29,-106.64 953,-133 964.52,-141.05 959.51,-150.9 971,-159 976.8,-163.09 983.44,-166.3 990.27,-168.82"/>
<polygon fill="#9a32cd" stroke="#9a32cd" points="824.52,-80.93 814.07,-82.65 823.31,-87.82 824.52,-80.93"/>
<text text-anchor="middle" x="892.5" y="-147" font-family="Helvetica,sans-Serif" font-size="10.00"> m_Inputs</text>
<text text-anchor="middle" x="892.5" y="-136" font-family="Helvetica,sans-Serif" font-size="10.00">m_Outputs</text>
</g>
<!-- Node16 -->
<g id="node16" class="node">
<title>Node16</title>
<g id="a_node16"><a target="_parent" xlink:href="https://www.itk.org/Doxygen/html/classitk_1_1SmartPointer.html" xlink:title=" ">
<polygon fill="white" stroke="black" points="334,-38.5 334,-57.5 456,-57.5 456,-38.5 334,-38.5"/>
<text text-anchor="middle" x="395" y="-45.5" font-family="Helvetica,sans-Serif" font-size="10.00">SmartPointer&lt; Self &gt;</text>
</a>
</g>
</g>
<!-- Node16&#45;&gt;Node15 -->
<g id="edge17" class="edge">
<title>Node16&#45;&gt;Node15</title>
<path fill="none" stroke="#9a32cd" stroke-dasharray="5,2" d="M466.24,-43.84C512.17,-42.21 573.38,-42.12 627,-49 644.5,-51.24 663.31,-55.52 679.93,-59.97"/>
<polygon fill="#9a32cd" stroke="#9a32cd" points="465.95,-40.34 456.09,-44.23 466.22,-47.34 465.95,-40.34"/>
<text text-anchor="middle" x="553.5" y="-52" font-family="Helvetica,sans-Serif" font-size="10.00"> elements</text>
</g>
<!-- Node17&#45;&gt;Node15 -->
<g id="edge18" class="edge">
<title>Node17&#45;&gt;Node15</title>
<path fill="none" stroke="orange" stroke-dasharray="5,2" d="M455.81,-3.98C503.17,-1.07 570.51,-1.08 627,-17 657.86,-25.7 689.29,-45.75 708.83,-59.83"/>
<polygon fill="orange" stroke="orange" points="455.46,-0.5 445.72,-4.66 455.93,-7.48 455.46,-0.5"/>
<text text-anchor="start" x="484" y="-31" font-family="Helvetica,sans-Serif" font-size="10.00"> &lt; DataObjectIdentifierType,</text>
<text text-anchor="middle" x="553.5" y="-20" font-family="Helvetica,sans-Serif" font-size="10.00"> DataObjectPointer &gt;</text>
</g>
<!-- Node18 -->
<g id="node18" class="node">
<title>Node18</title>
<g id="a_node18"><a xlink:title=" ">
<polygon fill="white" stroke="#bfbfbf" points="119.5,-57.5 119.5,-76.5 148.5,-76.5 148.5,-57.5 119.5,-57.5"/>
<text text-anchor="middle" x="134" y="-64.5" font-family="Helvetica,sans-Serif" font-size="10.00">K</text>
</a>
</g>
</g>
<!-- Node18&#45;&gt;Node17 -->
<g id="edge19" class="edge">
<title>Node18&#45;&gt;Node17</title>
<path fill="none" stroke="#9a32cd" stroke-dasharray="5,2" d="M158.47,-61.84C201.89,-52.28 295.36,-31.71 350.61,-19.55"/>
<polygon fill="#9a32cd" stroke="#9a32cd" points="157.57,-58.45 148.56,-64.02 159.08,-65.28 157.57,-58.45"/>
<text text-anchor="middle" x="257" y="-55" font-family="Helvetica,sans-Serif" font-size="10.00"> keys</text>
</g>
<!-- Node20 -->
<g id="node20" class="node">
<title>Node20</title>
<g id="a_node20"><a xlink:title=" ">
<polygon fill="white" stroke="#bfbfbf" points="354,-76.5 354,-95.5 436,-95.5 436,-76.5 354,-76.5"/>
<text text-anchor="middle" x="395" y="-83.5" font-family="Helvetica,sans-Serif" font-size="10.00">std::set&lt; K &gt;</text>
</a>
</g>
</g>
<!-- Node18&#45;&gt;Node20 -->
<g id="edge24" class="edge">
<title>Node18&#45;&gt;Node20</title>
<path fill="none" stroke="#9a32cd" stroke-dasharray="5,2" d="M158.67,-68.74C203.04,-71.99 299.15,-79.04 353.83,-83.05"/>
<polygon fill="#9a32cd" stroke="#9a32cd" points="158.79,-65.24 148.56,-67.99 158.28,-72.22 158.79,-65.24"/>
<text text-anchor="middle" x="257" y="-83" font-family="Helvetica,sans-Serif" font-size="10.00"> keys</text>
</g>
<!-- Node19&#45;&gt;Node6 -->
<g id="edge21" class="edge">
<title>Node19&#45;&gt;Node6</title>
<path fill="none" stroke="#9a32cd" stroke-dasharray="5,2" d="M820.73,-158.12C875.91,-163.09 944.48,-169.26 990.43,-173.4"/>
<polygon fill="#9a32cd" stroke="#9a32cd" points="820.86,-154.62 810.59,-157.21 820.24,-161.59 820.86,-154.62"/>
<text text-anchor="middle" x="892.5" y="-172" font-family="Helvetica,sans-Serif" font-size="10.00"> m_RequiredInputNames</text>
</g>
<!-- Node20&#45;&gt;Node19 -->
<g id="edge23" class="edge">
<title>Node20&#45;&gt;Node19</title>
<path fill="none" stroke="orange" stroke-dasharray="5,2" d="M446.23,-75.01C494.3,-66.85 568.03,-60.58 627,-83 637,-86.8 636.4,-92.63 645,-99 662.88,-112.24 684.33,-125.29 701.01,-134.87"/>
<polygon fill="orange" stroke="orange" points="445.6,-71.57 436.37,-76.77 446.83,-78.46 445.6,-71.57"/>
<text text-anchor="middle" x="553.5" y="-86" font-family="Helvetica,sans-Serif" font-size="10.00"> &lt; DataObjectIdentifierType &gt;</text>
</g>
<!-- Node21 -->
<g id="node21" class="node">
<title>Node21</title>
<g id="a_node21"><a target="_parent" xlink:href="https://www.itk.org/Doxygen/html/structitk_1_1ImageSourceCommon.html" xlink:title=" ">
<polygon fill="white" stroke="black" points="971,-130.5 971,-149.5 1114,-149.5 1114,-130.5 971,-130.5"/>
<text text-anchor="middle" x="1042.5" y="-137.5" font-family="Helvetica,sans-Serif" font-size="10.00">itk::ImageSourceCommon</text>
</a>
</g>
</g>
<!-- Node21&#45;&gt;Node5 -->
<g id="edge25" class="edge">
<title>Node21&#45;&gt;Node5</title>
<path fill="none" stroke="#8b1a1a" d="M1124.31,-146.65C1137.58,-147.74 1151.26,-148.86 1164.34,-149.94"/>
<polygon fill="#8b1a1a" stroke="#8b1a1a" points="1124.52,-143.15 1114.27,-145.82 1123.95,-150.13 1124.52,-143.15"/>
</g>
<!-- Node22 -->
<g id="node22" class="node">
<title>Node22</title>
<g id="a_node22"><a target="_parent" xlink:href="https://www.itk.org/Doxygen/html/classitk_1_1ImageToImageFilterCommon.html" xlink:title=" ">
<polygon fill="white" stroke="black" points="1151,-102.5 1151,-121.5 1327,-121.5 1327,-102.5 1151,-102.5"/>
<text text-anchor="middle" x="1239" y="-109.5" font-family="Helvetica,sans-Serif" font-size="10.00">itk::ImageToImageFilterCommon</text>
</a>
</g>
</g>
<!-- Node22&#45;&gt;Node4 -->
<g id="edge26" class="edge">
<title>Node22&#45;&gt;Node4</title>
<path fill="none" stroke="#8b1a1a" d="M1337.07,-117.52C1345.99,-118.03 1354.99,-118.54 1363.82,-119.04"/>
<polygon fill="#8b1a1a" stroke="#8b1a1a" points="1337.22,-114.02 1327.04,-116.95 1336.83,-121.01 1337.22,-114.02"/>
</g>
<!-- Node23&#45;&gt;Node2 -->
<g id="edge27" class="edge">
<title>Node23&#45;&gt;Node2</title>
<path fill="none" stroke="orange" stroke-dasharray="5,2" d="M1976.14,-109.06C2023.98,-112.57 2082.52,-116.93 2135,-121 2140.85,-121.45 2146.88,-121.93 2152.96,-122.41"/>
<polygon fill="orange" stroke="orange" points="1976.33,-105.56 1966.1,-108.32 1975.82,-112.54 1976.33,-105.56"/>
<text text-anchor="middle" x="2059.5" y="-124" font-family="Helvetica,sans-Serif" font-size="10.00"> &lt; TImageType, TImageType &gt;</text>
</g>
<!-- Node24 -->
<g id="node24" class="node">
<title>Node24</title>
<g id="a_node24"><a target="_parent" xlink:href="https://www.itk.org/Doxygen/html/classHashFunction.html" xlink:title=" ">
<polygon fill="white" stroke="black" points="2193.5,-75.5 2193.5,-94.5 2276.5,-94.5 2276.5,-75.5 2193.5,-75.5"/>
<text text-anchor="middle" x="2235" y="-82.5" font-family="Helvetica,sans-Serif" font-size="10.00">HashFunction</text>
</a>
</g>
</g>
<!-- Node24&#45;&gt;Node1 -->
<g id="edge29" class="edge">
<title>Node24&#45;&gt;Node1</title>
<path fill="none" stroke="#9a32cd" stroke-dasharray="5,2" d="M2286.8,-87.55C2330.17,-89.73 2392.5,-92.86 2437.65,-95.12"/>
<polygon fill="#9a32cd" stroke="#9a32cd" points="2286.92,-84.05 2276.75,-87.05 2286.57,-91.04 2286.92,-84.05"/>
<text text-anchor="middle" x="2377.5" y="-98" font-family="Helvetica,sans-Serif" font-size="10.00"> m_HashFunction</text>
</g>
</g>
</svg>
        <g id="navigator" transform="translate(0 0)" fill="#404254">
                <rect fill="#f2f5e9" fill-opacity="0.5" stroke="#606060" stroke-width=".5" x="0" y="0" width="60" height="60"/>
                <use id="zoomplus" xlink:href="#zoomPlus" x="17" y="9" onmousedown="handleZoom(evt,'in')"/>
                <use id="zoomminus" xlink:href="#zoomMin" x="42" y="9" onmousedown="handleZoom(evt,'out')"/>
                <use id="reset" xlink:href="#resetDef" x="30" y="36" onmousedown="handleReset()"/>
                <g id="arrowUp" xlink:href="#dirArrow" transform="translate(30 24)" onmousedown="handlePan(0,-1)">
                  <use xlink:href="#rim" fill="#404040">
                        <set attributeName="fill" to="#808080" begin="arrowUp.mouseover" end="arrowUp.mouseout"/>
                  </use>
                  <path fill="none" stroke="white" stroke-width="1.5" d="M0,-3.0v7 M-2.5,-0.5L0,-3.0L2.5,-0.5"/>
                </g>
                <g id="arrowRight" xlink:href="#dirArrow" transform="rotate(90) translate(36 -43)" onmousedown="handlePan(1,0)">
                  <use xlink:href="#rim" fill="#404040">
                        <set attributeName="fill" to="#808080" begin="arrowRight.mouseover" end="arrowRight.mouseout"/>
                  </use>
                  <path fill="none" stroke="white" stroke-width="1.5" d="M0,-3.0v7 M-2.5,-0.5L0,-3.0L2.5,-0.5"/>
                </g>
                <g id="arrowDown" xlink:href="#dirArrow" transform="rotate(180) translate(-30 -48)" onmousedown="handlePan(0,1)">
                  <use xlink:href="#rim" fill="#404040">
                        <set attributeName="fill" to="#808080" begin="arrowDown.mouseover" end="arrowDown.mouseout"/>
                  </use>
                  <path fill="none" stroke="white" stroke-width="1.5" d="M0,-3.0v7 M-2.5,-0.5L0,-3.0L2.5,-0.5"/>
                </g>
                <g id="arrowLeft" xlink:href="#dirArrow" transform="rotate(270) translate(-36 17)" onmousedown="handlePan(-1,0)">
                  <use xlink:href="#rim" fill="#404040">
                        <set attributeName="fill" to="#808080" begin="arrowLeft.mouseover" end="arrowLeft.mouseout"/>
                  </use>
                  <path fill="none" stroke="white" stroke-width="1.5" d="M0,-3.0v7 M-2.5,-0.5L0,-3.0L2.5,-0.5"/>
                </g>
        </g>
        <svg viewBox="0 0 15 15" width="100%" height="30px" preserveAspectRatio="xMaxYMin meet">
         <g id="arrow_out" transform="scale(0.3 0.3)">
          <a xlink:href="classitk_1_1HashImageFilter__coll__graph_org.svg" target="_base">
           <rect id="button" ry="5" rx="5" y="6" x="6" height="38" width="38"
                fill="#f2f5e9" fill-opacity="0.5" stroke="#606060" stroke-width="1.0"/>
           <path id="arrow"
             d="M 11.500037,31.436501 C 11.940474,20.09759 22.043105,11.32322 32.158766,21.979434 L 37.068811,17.246167 C 37.068811,17.246167 37.088388,32 37.088388,32 L 22.160133,31.978069 C 22.160133,31.978069 26.997745,27.140456 26.997745,27.140456 C 18.528582,18.264221 13.291696,25.230495 11.500037,31.436501 z"
             style="fill:#404040;"/>
          </a>
         </g>
        </svg>
</svg>
