<?xml version="1.0" encoding="UTF-8" standalone="no"?>
<!DOCTYPE svg PUBLIC "-//W3C//DTD SVG 1.1//EN"
 "http://www.w3.org/Graphics/SVG/1.1/DTD/svg11.dtd">
<!-- Generated by graphviz version 2.43.0 (0)
 -->
<!-- Title: itk::simple::FunctionCommand Pages: 1 -->
<svg width="251pt" height="277pt"
 viewBox="0.00 0.00 251.00 277.00" xmlns="http://www.w3.org/2000/svg" xmlns:xlink="http://www.w3.org/1999/xlink">
<g id="graph0" class="graph" transform="scale(1 1) rotate(0) translate(4 273)">
<title>itk::simple::FunctionCommand</title>
<polygon fill="white" stroke="transparent" points="-4,4 -4,-273 247,-273 247,4 -4,4"/>
<!-- Node1 -->
<g id="node1" class="node">
<title>Node1</title>
<g id="a_node1"><a xlink:title="A Command class which allows setting an external function, or member function.">
<polygon fill="#bfbfbf" stroke="black" points="3,-0.5 3,-19.5 169,-19.5 169,-0.5 3,-0.5"/>
<text text-anchor="middle" x="86" y="-7.5" font-family="Helvetica,sans-Serif" font-size="10.00">itk::simple::FunctionCommand</text>
</a>
</g>
</g>
<!-- Node2 -->
<g id="node2" class="node">
<title>Node2</title>
<g id="a_node2"><a xlink:href="classitk_1_1simple_1_1Command.html" target="_top" xlink:title="An implementation of the Command design pattern for callback.">
<polygon fill="white" stroke="black" points="23.5,-57.5 23.5,-76.5 148.5,-76.5 148.5,-57.5 23.5,-57.5"/>
<text text-anchor="middle" x="86" y="-64.5" font-family="Helvetica,sans-Serif" font-size="10.00">itk::simple::Command</text>
</a>
</g>
</g>
<!-- Node2&#45;&gt;Node1 -->
<g id="edge1" class="edge">
<title>Node2&#45;&gt;Node1</title>
<path fill="none" stroke="midnightblue" d="M86,-47.12C86,-37.82 86,-27.06 86,-19.71"/>
<polygon fill="midnightblue" stroke="midnightblue" points="82.5,-47.41 86,-57.41 89.5,-47.41 82.5,-47.41"/>
</g>
<!-- Node3 -->
<g id="node3" class="node">
<title>Node3</title>
<g id="a_node3"><a xlink:href="classitk_1_1simple_1_1ObjectOwnedBase.html" target="_top" xlink:title="An abstract base class to connect this object with the lifetime of another.">
<polygon fill="white" stroke="black" points="4,-114.5 4,-133.5 168,-133.5 168,-114.5 4,-114.5"/>
<text text-anchor="middle" x="86" y="-121.5" font-family="Helvetica,sans-Serif" font-size="10.00">itk::simple::ObjectOwnedBase</text>
</a>
</g>
</g>
<!-- Node3&#45;&gt;Node2 -->
<g id="edge2" class="edge">
<title>Node3&#45;&gt;Node2</title>
<path fill="none" stroke="midnightblue" d="M86,-104.12C86,-94.82 86,-84.06 86,-76.71"/>
<polygon fill="midnightblue" stroke="midnightblue" points="82.5,-104.41 86,-114.41 89.5,-104.41 82.5,-104.41"/>
</g>
<!-- Node4 -->
<g id="node4" class="node">
<title>Node4</title>
<g id="a_node4"><a xlink:href="classitk_1_1simple_1_1NonCopyable.html" target="_top" xlink:title="An inheritable class to disable copying of a class.">
<polygon fill="white" stroke="black" points="0,-181.5 0,-200.5 140,-200.5 140,-181.5 0,-181.5"/>
<text text-anchor="middle" x="70" y="-188.5" font-family="Helvetica,sans-Serif" font-size="10.00">itk::simple::NonCopyable</text>
</a>
</g>
</g>
<!-- Node4&#45;&gt;Node3 -->
<g id="edge3" class="edge">
<title>Node4&#45;&gt;Node3</title>
<path fill="none" stroke="midnightblue" d="M74.57,-171.41C77.63,-158.99 81.52,-143.22 83.88,-133.63"/>
<polygon fill="midnightblue" stroke="midnightblue" points="71.15,-170.69 72.16,-181.23 77.95,-172.36 71.15,-170.69"/>
</g>
<!-- Node5 -->
<g id="node5" class="node">
<title>Node5</title>
<g id="a_node5"><a xlink:title=" ">
<polygon fill="white" stroke="#bfbfbf" points="158.5,-181.5 158.5,-200.5 223.5,-200.5 223.5,-181.5 158.5,-181.5"/>
<text text-anchor="middle" x="191" y="-188.5" font-family="Helvetica,sans-Serif" font-size="10.00">std::string</text>
</a>
</g>
</g>
<!-- Node5&#45;&gt;Node3 -->
<g id="edge4" class="edge">
<title>Node5&#45;&gt;Node3</title>
<path fill="none" stroke="#9a32cd" stroke-dasharray="5,2" d="M168.29,-175.94C147.5,-163.07 117.38,-144.43 99.94,-133.63"/>
<polygon fill="#9a32cd" stroke="#9a32cd" points="166.49,-178.95 176.84,-181.23 170.18,-172.99 166.49,-178.95"/>
<text text-anchor="middle" x="168" y="-155" font-family="Helvetica,sans-Serif" font-size="10.00"> m_Name</text>
</g>
<!-- Node6 -->
<g id="node6" class="node">
<title>Node6</title>
<g id="a_node6"><a xlink:title=" ">
<polygon fill="white" stroke="#bfbfbf" points="139,-238.5 139,-268.5 243,-268.5 243,-238.5 139,-238.5"/>
<text text-anchor="start" x="147" y="-256.5" font-family="Helvetica,sans-Serif" font-size="10.00">std::basic_string&lt;</text>
<text text-anchor="middle" x="191" y="-245.5" font-family="Helvetica,sans-Serif" font-size="10.00"> Char &gt;</text>
</a>
</g>
</g>
<!-- Node6&#45;&gt;Node5 -->
<g id="edge5" class="edge">
<title>Node6&#45;&gt;Node5</title>
<path fill="none" stroke="midnightblue" d="M191,-228.35C191,-218.51 191,-207.78 191,-200.54"/>
<polygon fill="midnightblue" stroke="midnightblue" points="187.5,-228.47 191,-238.47 194.5,-228.47 187.5,-228.47"/>
</g>
</g>
</svg>
