<?xml version="1.0" encoding="UTF-8" standalone="no"?>
<!DOCTYPE svg PUBLIC "-//W3C//DTD SVG 1.1//EN"
 "http://www.w3.org/Graphics/SVG/1.1/DTD/svg11.dtd">
<!-- Generated by graphviz version 2.43.0 (0)
 -->
<!-- Title: itk::simple::ImageRegistrationMethod Pages: 1 -->
<!--zoomable 331 -->
<svg id="main" version="1.1" xmlns="http://www.w3.org/2000/svg" xmlns:xlink="http://www.w3.org/1999/xlink" xml:space="preserve" onload="init(evt)">
<style type="text/css"><![CDATA[
.edge:hover path { stroke: red; }
.edge:hover polygon { stroke: red; fill: red; }
]]></style>
<script type="text/javascript"><![CDATA[
var edges = document.getElementsByTagName('g');
if (edges && edges.length) {
  for (var i=0;i<edges.length;i++) {
    if (edges[i].id.substr(0,4)=='edge') {
      edges[i].setAttribute('class','edge');
    }
  }
}
]]></script>
        <defs>
                <circle id="rim" cx="0" cy="0" r="7"/>
                <circle id="rim2" cx="0" cy="0" r="3.5"/>
                <g id="zoomPlus">
                        <use xlink:href="#rim" fill="#404040">
                                <set attributeName="fill" to="#808080" begin="zoomplus.mouseover" end="zoomplus.mouseout"/>
                        </use>
                        <path d="M-4,0h8M0,-4v8" fill="none" stroke="white" stroke-width="1.5" pointer-events="none"/>
                </g>
                <g id="zoomMin">
                        <use xlink:href="#rim" fill="#404040">
                                <set attributeName="fill" to="#808080" begin="zoomminus.mouseover" end="zoomminus.mouseout"/>
                        </use>
                        <path d="M-4,0h8" fill="none" stroke="white" stroke-width="1.5" pointer-events="none"/>
                </g>
                <g id="dirArrow">
                        <path fill="none" stroke="white" stroke-width="1.5" d="M0,-3.0v7 M-2.5,-0.5L0,-3.0L2.5,-0.5"/>
                </g>
               <g id="resetDef">
                       <use xlink:href="#rim2" fill="#404040">
                               <set attributeName="fill" to="#808080" begin="reset.mouseover" end="reset.mouseout"/>
                       </use>
               </g>
        </defs>

<script type="text/javascript">
var viewWidth = 1747;
var viewHeight = 331;
var sectionId = 'dynsection-1';
</script>
<script xlink:href="svgpan.js"/>
<svg id="graph" class="graph">
<g id="viewport">
<title>itk::simple::ImageRegistrationMethod</title>
<polygon fill="white" stroke="transparent" points="-4,4 -4,-327 1743,-327 1743,4 -4,4"/>
<!-- Node1 -->
<g id="node1" class="node">
<title>Node1</title>
<g id="a_node1"><a xlink:title="An interface method to the modular ITKv4 registration framework.">
<polygon fill="#bfbfbf" stroke="black" points="1575,-69 1575,-99 1739,-99 1739,-69 1575,-69"/>
<text text-anchor="start" x="1583" y="-87" font-family="Helvetica,sans-Serif" font-size="10.00">itk::simple::ImageRegistration</text>
<text text-anchor="middle" x="1657" y="-76" font-family="Helvetica,sans-Serif" font-size="10.00">Method</text>
</a>
</g>
</g>
<!-- Node2 -->
<g id="node2" class="node">
<title>Node2</title>
<g id="a_node2"><a xlink:href="classitk_1_1simple_1_1ProcessObject.html" target="_top" xlink:title="Base class for SimpleITK classes based on ProcessObject.">
<polygon fill="white" stroke="black" points="1257,-199.5 1257,-218.5 1400,-218.5 1400,-199.5 1257,-199.5"/>
<text text-anchor="middle" x="1328.5" y="-206.5" font-family="Helvetica,sans-Serif" font-size="10.00">itk::simple::ProcessObject</text>
</a>
</g>
</g>
<!-- Node2&#45;&gt;Node1 -->
<g id="edge1" class="edge">
<title>Node2&#45;&gt;Node1</title>
<path fill="none" stroke="midnightblue" d="M1363.89,-195.86C1408.45,-178.84 1488.53,-148.23 1557,-122 1576.6,-114.49 1598.37,-106.13 1616.5,-99.17"/>
<polygon fill="midnightblue" stroke="midnightblue" points="1362.51,-192.65 1354.42,-199.48 1365.01,-199.18 1362.51,-192.65"/>
</g>
<!-- Node3 -->
<g id="node3" class="node">
<title>Node3</title>
<g id="a_node3"><a xlink:href="classitk_1_1simple_1_1NonCopyable.html" target="_top" xlink:title="An inheritable class to disable copying of a class.">
<polygon fill="white" stroke="black" points="982.5,-237.5 982.5,-256.5 1122.5,-256.5 1122.5,-237.5 982.5,-237.5"/>
<text text-anchor="middle" x="1052.5" y="-244.5" font-family="Helvetica,sans-Serif" font-size="10.00">itk::simple::NonCopyable</text>
</a>
</g>
</g>
<!-- Node3&#45;&gt;Node2 -->
<g id="edge2" class="edge">
<title>Node3&#45;&gt;Node2</title>
<path fill="none" stroke="darkgreen" d="M1132.77,-237.96C1165.68,-234 1204.23,-229.1 1239,-224 1250.26,-222.35 1262.29,-220.42 1273.74,-218.51"/>
<polygon fill="darkgreen" stroke="darkgreen" points="1132.26,-234.49 1122.75,-239.16 1133.09,-241.44 1132.26,-234.49"/>
</g>
<!-- Node4 -->
<g id="node4" class="node">
<title>Node4</title>
<g id="a_node4"><a target="_parent" xlink:href="https://www.itk.org/Doxygen/html/classitk_1_1ProcessObject.html" xlink:title=" ">
<polygon fill="white" stroke="black" points="1000.5,-199.5 1000.5,-218.5 1104.5,-218.5 1104.5,-199.5 1000.5,-199.5"/>
<text text-anchor="middle" x="1052.5" y="-206.5" font-family="Helvetica,sans-Serif" font-size="10.00">itk::ProcessObject</text>
</a>
</g>
</g>
<!-- Node4&#45;&gt;Node2 -->
<g id="edge3" class="edge">
<title>Node4&#45;&gt;Node2</title>
<path fill="none" stroke="#9a32cd" stroke-dasharray="5,2" d="M1114.83,-209C1156.94,-209 1212.94,-209 1256.9,-209"/>
<polygon fill="#9a32cd" stroke="#9a32cd" points="1114.72,-205.5 1104.72,-209 1114.72,-212.5 1114.72,-205.5"/>
<text text-anchor="middle" x="1195.5" y="-212" font-family="Helvetica,sans-Serif" font-size="10.00"> m_ActiveProcess</text>
</g>
<!-- Node5 -->
<g id="node5" class="node">
<title>Node5</title>
<g id="a_node5"><a target="_parent" xlink:href="https://www.itk.org/Doxygen/html/classitk_1_1Object.html" xlink:title=" ">
<polygon fill="white" stroke="black" points="696,-199.5 696,-218.5 763,-218.5 763,-199.5 696,-199.5"/>
<text text-anchor="middle" x="729.5" y="-206.5" font-family="Helvetica,sans-Serif" font-size="10.00">itk::Object</text>
</a>
</g>
</g>
<!-- Node5&#45;&gt;Node4 -->
<g id="edge4" class="edge">
<title>Node5&#45;&gt;Node4</title>
<path fill="none" stroke="midnightblue" d="M773.1,-209C831.84,-209 937.57,-209 1000.47,-209"/>
<polygon fill="midnightblue" stroke="midnightblue" points="773.05,-205.5 763.05,-209 773.05,-212.5 773.05,-205.5"/>
</g>
<!-- Node6 -->
<g id="node6" class="node">
<title>Node6</title>
<g id="a_node6"><a target="_parent" xlink:href="https://www.itk.org/Doxygen/html/classitk_1_1LightObject.html" xlink:title=" ">
<polygon fill="white" stroke="black" points="349.5,-225.5 349.5,-244.5 440.5,-244.5 440.5,-225.5 349.5,-225.5"/>
<text text-anchor="middle" x="395" y="-232.5" font-family="Helvetica,sans-Serif" font-size="10.00">itk::LightObject</text>
</a>
</g>
</g>
<!-- Node6&#45;&gt;Node5 -->
<g id="edge5" class="edge">
<title>Node6&#45;&gt;Node5</title>
<path fill="none" stroke="midnightblue" d="M450.99,-232.1C497.82,-229.47 566.88,-225.21 627,-220 649.96,-218.01 675.77,-215.21 695.62,-212.93"/>
<polygon fill="midnightblue" stroke="midnightblue" points="450.55,-228.62 440.76,-232.67 450.94,-235.61 450.55,-228.62"/>
</g>
<!-- Node7 -->
<g id="node7" class="node">
<title>Node7</title>
<g id="a_node7"><a target="_parent" xlink:href="https://www.itk.org/Doxygen/html/classitk_1_1TimeStamp.html" xlink:title=" ">
<polygon fill="white" stroke="black" points="349,-301.5 349,-320.5 441,-320.5 441,-301.5 349,-301.5"/>
<text text-anchor="middle" x="395" y="-308.5" font-family="Helvetica,sans-Serif" font-size="10.00">itk::TimeStamp</text>
</a>
</g>
</g>
<!-- Node7&#45;&gt;Node4 -->
<g id="edge12" class="edge">
<title>Node7&#45;&gt;Node4</title>
<path fill="none" stroke="#9a32cd" stroke-dasharray="5,2" d="M451.51,-314.99C498.38,-317.58 567.22,-319.54 627,-314 773.77,-300.39 828.57,-332.03 953,-253 964.56,-245.66 959.62,-235.61 971,-228 979.71,-222.17 990,-218.13 1000.26,-215.32"/>
<polygon fill="#9a32cd" stroke="#9a32cd" points="451.45,-311.48 441.26,-314.4 451.04,-318.47 451.45,-311.48"/>
<text text-anchor="middle" x="729.5" y="-315" font-family="Helvetica,sans-Serif" font-size="10.00"> m_OutputInformationMTime</text>
</g>
<!-- Node7&#45;&gt;Node5 -->
<g id="edge6" class="edge">
<title>Node7&#45;&gt;Node5</title>
<path fill="none" stroke="#9a32cd" stroke-dasharray="5,2" d="M451.51,-305.02C517.67,-297.67 620.23,-285.5 627,-280 645.65,-264.84 627.14,-245.09 645,-229 658.73,-216.63 678.75,-211.55 695.75,-209.6"/>
<polygon fill="#9a32cd" stroke="#9a32cd" points="450.78,-301.58 441.22,-306.15 451.55,-308.53 450.78,-301.58"/>
<text text-anchor="middle" x="553.5" y="-304" font-family="Helvetica,sans-Serif" font-size="10.00"> m_MTime</text>
</g>
<!-- Node8 -->
<g id="node8" class="node">
<title>Node8</title>
<g id="a_node8"><a xlink:title=" ">
<polygon fill="white" stroke="#bfbfbf" points="84,-275.5 84,-294.5 184,-294.5 184,-275.5 84,-275.5"/>
<text text-anchor="middle" x="134" y="-282.5" font-family="Helvetica,sans-Serif" font-size="10.00">std::atomic&lt; T &gt;</text>
</a>
</g>
</g>
<!-- Node8&#45;&gt;Node7 -->
<g id="edge7" class="edge">
<title>Node8&#45;&gt;Node7</title>
<path fill="none" stroke="#9a32cd" stroke-dasharray="5,2" d="M194.05,-290.93C241,-295.64 305.71,-302.14 348.65,-306.45"/>
<polygon fill="#9a32cd" stroke="#9a32cd" points="194.32,-287.44 184.02,-289.92 193.62,-294.4 194.32,-287.44"/>
<text text-anchor="middle" x="257" y="-304" font-family="Helvetica,sans-Serif" font-size="10.00"> m_GlobalTimeStamp</text>
</g>
<!-- Node9 -->
<g id="node9" class="node">
<title>Node9</title>
<g id="a_node9"><a xlink:title=" ">
<polygon fill="white" stroke="#bfbfbf" points="0,-34.5 0,-53.5 29,-53.5 29,-34.5 0,-34.5"/>
<text text-anchor="middle" x="14.5" y="-41.5" font-family="Helvetica,sans-Serif" font-size="10.00">T</text>
</a>
</g>
</g>
<!-- Node9&#45;&gt;Node8 -->
<g id="edge8" class="edge">
<title>Node9&#45;&gt;Node8</title>
<path fill="none" stroke="#9a32cd" stroke-dasharray="5,2" d="M19.04,-63.84C26.27,-100.45 45.2,-180.06 82,-237 92.03,-252.52 108.13,-266.53 119.55,-275.36"/>
<polygon fill="#9a32cd" stroke="#9a32cd" points="22.4,-62.73 17.1,-53.55 15.52,-64.03 22.4,-62.73"/>
<text text-anchor="middle" x="55.5" y="-206" font-family="Helvetica,sans-Serif" font-size="10.00"> ptr</text>
</g>
<!-- Node15 -->
<g id="node15" class="node">
<title>Node15</title>
<g id="a_node15"><a xlink:title=" ">
<polygon fill="white" stroke="#bfbfbf" points="344.5,-0.5 344.5,-19.5 445.5,-19.5 445.5,-0.5 344.5,-0.5"/>
<text text-anchor="middle" x="395" y="-7.5" font-family="Helvetica,sans-Serif" font-size="10.00">std::map&lt; K, T &gt;</text>
</a>
</g>
</g>
<!-- Node9&#45;&gt;Node15 -->
<g id="edge18" class="edge">
<title>Node9&#45;&gt;Node15</title>
<path fill="none" stroke="#9a32cd" stroke-dasharray="5,2" d="M39.59,-41.84C100.57,-36.36 261.96,-21.86 344.25,-14.47"/>
<polygon fill="#9a32cd" stroke="#9a32cd" points="39.07,-38.37 29.42,-42.75 39.69,-45.34 39.07,-38.37"/>
<text text-anchor="middle" x="134" y="-41" font-family="Helvetica,sans-Serif" font-size="10.00"> elements</text>
</g>
<!-- Node10 -->
<g id="node10" class="node">
<title>Node10</title>
<g id="a_node10"><a target="_parent" xlink:href="https://www.itk.org/Doxygen/html/classitk_1_1MetaDataDictionary.html" xlink:title=" ">
<polygon fill="white" stroke="black" points="328,-187.5 328,-206.5 462,-206.5 462,-187.5 328,-187.5"/>
<text text-anchor="middle" x="395" y="-194.5" font-family="Helvetica,sans-Serif" font-size="10.00">itk::MetaDataDictionary</text>
</a>
</g>
</g>
<!-- Node10&#45;&gt;Node5 -->
<g id="edge9" class="edge">
<title>Node10&#45;&gt;Node5</title>
<path fill="none" stroke="#9a32cd" stroke-dasharray="5,2" d="M472.27,-199.75C542.84,-202.3 644.37,-205.96 695.87,-207.82"/>
<polygon fill="#9a32cd" stroke="#9a32cd" points="472.21,-196.25 462.09,-199.39 471.96,-203.24 472.21,-196.25"/>
<text text-anchor="middle" x="553.5" y="-208" font-family="Helvetica,sans-Serif" font-size="10.00"> m_MetaDataDictionary</text>
</g>
<!-- Node11 -->
<g id="node11" class="node">
<title>Node11</title>
<g id="a_node11"><a xlink:title=" ">
<polygon fill="white" stroke="#bfbfbf" points="362.5,-106.5 362.5,-125.5 427.5,-125.5 427.5,-106.5 362.5,-106.5"/>
<text text-anchor="middle" x="395" y="-113.5" font-family="Helvetica,sans-Serif" font-size="10.00">std::string</text>
</a>
</g>
</g>
<!-- Node11&#45;&gt;Node1 -->
<g id="edge26" class="edge">
<title>Node11&#45;&gt;Node1</title>
<path fill="none" stroke="#9a32cd" stroke-dasharray="5,2" d="M437.95,-114.34C501.01,-112 623.97,-108 728.5,-108 728.5,-108 728.5,-108 1329.5,-108 1413.33,-108 1508.95,-100.03 1574.94,-93.28"/>
<polygon fill="#9a32cd" stroke="#9a32cd" points="437.49,-110.86 427.63,-114.73 437.75,-117.85 437.49,-110.86"/>
<text text-anchor="middle" x="1052.5" y="-111" font-family="Helvetica,sans-Serif" font-size="10.00"> m_StopConditionDescription</text>
</g>
<!-- Node11&#45;&gt;Node5 -->
<g id="edge10" class="edge">
<title>Node11&#45;&gt;Node5</title>
<path fill="none" stroke="#9a32cd" stroke-dasharray="5,2" d="M437.93,-118.37C494.83,-121.98 593.25,-129.76 627,-142 663.72,-155.31 700.38,-184.37 717.88,-199.47"/>
<polygon fill="#9a32cd" stroke="#9a32cd" points="438.02,-114.86 427.82,-117.74 437.58,-121.85 438.02,-114.86"/>
<text text-anchor="middle" x="553.5" y="-145" font-family="Helvetica,sans-Serif" font-size="10.00"> m_ObjectName</text>
</g>
<!-- Node13 -->
<g id="node13" class="node">
<title>Node13</title>
<g id="a_node13"><a xlink:title=" ">
<polygon fill="white" stroke="#bfbfbf" points="645,-41 645,-71 814,-71 814,-41 645,-41"/>
<text text-anchor="start" x="653" y="-59" font-family="Helvetica,sans-Serif" font-size="10.00">std::map&lt; DataObjectIdentifier</text>
<text text-anchor="middle" x="729.5" y="-48" font-family="Helvetica,sans-Serif" font-size="10.00">Type, DataObjectPointer &gt;</text>
</a>
</g>
</g>
<!-- Node11&#45;&gt;Node13 -->
<g id="edge14" class="edge">
<title>Node11&#45;&gt;Node13</title>
<path fill="none" stroke="#9a32cd" stroke-dasharray="5,2" d="M425.16,-102.33C441.04,-95.45 461.23,-87.62 480,-83 534.04,-69.7 596.31,-62.95 644.99,-59.53"/>
<polygon fill="#9a32cd" stroke="#9a32cd" points="423.6,-99.19 415.88,-106.45 426.44,-105.59 423.6,-99.19"/>
<text text-anchor="middle" x="553.5" y="-86" font-family="Helvetica,sans-Serif" font-size="10.00"> keys</text>
</g>
<!-- Node17 -->
<g id="node17" class="node">
<title>Node17</title>
<g id="a_node17"><a xlink:title=" ">
<polygon fill="white" stroke="#bfbfbf" points="648.5,-238 648.5,-268 810.5,-268 810.5,-238 648.5,-238"/>
<text text-anchor="start" x="656.5" y="-256" font-family="Helvetica,sans-Serif" font-size="10.00">std::set&lt; DataObjectIdentifier</text>
<text text-anchor="middle" x="729.5" y="-245" font-family="Helvetica,sans-Serif" font-size="10.00">Type &gt;</text>
</a>
</g>
</g>
<!-- Node11&#45;&gt;Node17 -->
<g id="edge20" class="edge">
<title>Node11&#45;&gt;Node17</title>
<path fill="none" stroke="#9a32cd" stroke-dasharray="5,2" d="M424.26,-130.15C440.3,-137.74 460.93,-146.79 480,-153 543.58,-173.69 575.62,-142.22 627,-185 642.92,-198.26 629.6,-214.14 645,-228 649.27,-231.85 654.12,-235.1 659.27,-237.86"/>
<polygon fill="#9a32cd" stroke="#9a32cd" points="425.45,-126.84 414.92,-125.65 422.41,-133.14 425.45,-126.84"/>
<text text-anchor="middle" x="553.5" y="-188" font-family="Helvetica,sans-Serif" font-size="10.00"> keys</text>
</g>
<!-- Node12 -->
<g id="node12" class="node">
<title>Node12</title>
<g id="a_node12"><a xlink:title=" ">
<polygon fill="white" stroke="#bfbfbf" points="82,-101 82,-131 186,-131 186,-101 82,-101"/>
<text text-anchor="start" x="90" y="-119" font-family="Helvetica,sans-Serif" font-size="10.00">std::basic_string&lt;</text>
<text text-anchor="middle" x="134" y="-108" font-family="Helvetica,sans-Serif" font-size="10.00"> Char &gt;</text>
</a>
</g>
</g>
<!-- Node12&#45;&gt;Node11 -->
<g id="edge11" class="edge">
<title>Node12&#45;&gt;Node11</title>
<path fill="none" stroke="midnightblue" d="M196.32,-116C248.51,-116 321.37,-116 362.49,-116"/>
<polygon fill="midnightblue" stroke="midnightblue" points="196.17,-112.5 186.17,-116 196.17,-119.5 196.17,-112.5"/>
</g>
<!-- Node13&#45;&gt;Node4 -->
<g id="edge13" class="edge">
<title>Node13&#45;&gt;Node4</title>
<path fill="none" stroke="#9a32cd" stroke-dasharray="5,2" d="M771.49,-75.54C841.02,-108.68 979.56,-174.71 1031.35,-199.39"/>
<polygon fill="#9a32cd" stroke="#9a32cd" points="772.69,-72.23 762.16,-71.09 769.68,-78.55 772.69,-72.23"/>
<text text-anchor="middle" x="892.5" y="-173" font-family="Helvetica,sans-Serif" font-size="10.00"> m_Inputs</text>
<text text-anchor="middle" x="892.5" y="-162" font-family="Helvetica,sans-Serif" font-size="10.00">m_Outputs</text>
</g>
<!-- Node14 -->
<g id="node14" class="node">
<title>Node14</title>
<g id="a_node14"><a target="_parent" xlink:href="https://www.itk.org/Doxygen/html/classitk_1_1SmartPointer.html" xlink:title=" ">
<polygon fill="white" stroke="black" points="334,-38.5 334,-57.5 456,-57.5 456,-38.5 334,-38.5"/>
<text text-anchor="middle" x="395" y="-45.5" font-family="Helvetica,sans-Serif" font-size="10.00">SmartPointer&lt; Self &gt;</text>
</a>
</g>
</g>
<!-- Node14&#45;&gt;Node13 -->
<g id="edge15" class="edge">
<title>Node14&#45;&gt;Node13</title>
<path fill="none" stroke="#9a32cd" stroke-dasharray="5,2" d="M466.45,-47.13C512.21,-46.85 573.16,-47.03 627,-49 632.83,-49.21 638.83,-49.49 644.89,-49.8"/>
<polygon fill="#9a32cd" stroke="#9a32cd" points="466.31,-43.63 456.33,-47.2 466.36,-50.63 466.31,-43.63"/>
<text text-anchor="middle" x="553.5" y="-52" font-family="Helvetica,sans-Serif" font-size="10.00"> elements</text>
</g>
<!-- Node15&#45;&gt;Node13 -->
<g id="edge16" class="edge">
<title>Node15&#45;&gt;Node13</title>
<path fill="none" stroke="orange" stroke-dasharray="5,2" d="M455.58,-8.69C502.55,-8.71 569.48,-11.08 627,-22 648.91,-26.16 672.58,-33.89 691.55,-40.93"/>
<polygon fill="orange" stroke="orange" points="455.57,-5.19 445.58,-8.72 455.59,-12.19 455.57,-5.19"/>
<text text-anchor="start" x="484" y="-36" font-family="Helvetica,sans-Serif" font-size="10.00"> &lt; DataObjectIdentifierType,</text>
<text text-anchor="middle" x="553.5" y="-25" font-family="Helvetica,sans-Serif" font-size="10.00"> DataObjectPointer &gt;</text>
</g>
<!-- Node16 -->
<g id="node16" class="node">
<title>Node16</title>
<g id="a_node16"><a xlink:title=" ">
<polygon fill="white" stroke="#bfbfbf" points="119.5,-208.5 119.5,-227.5 148.5,-227.5 148.5,-208.5 119.5,-208.5"/>
<text text-anchor="middle" x="134" y="-215.5" font-family="Helvetica,sans-Serif" font-size="10.00">K</text>
</a>
</g>
</g>
<!-- Node16&#45;&gt;Node15 -->
<g id="edge17" class="edge">
<title>Node16&#45;&gt;Node15</title>
<path fill="none" stroke="#9a32cd" stroke-dasharray="5,2" d="M151.42,-200.99C194.18,-156.85 307.07,-41.2 328,-29 334.59,-25.16 342.02,-22.05 349.44,-19.55"/>
<polygon fill="#9a32cd" stroke="#9a32cd" points="148.73,-198.74 144.3,-208.36 153.76,-203.61 148.73,-198.74"/>
<text text-anchor="middle" x="257" y="-148" font-family="Helvetica,sans-Serif" font-size="10.00"> keys</text>
</g>
<!-- Node18 -->
<g id="node18" class="node">
<title>Node18</title>
<g id="a_node18"><a xlink:title=" ">
<polygon fill="white" stroke="#bfbfbf" points="354,-263.5 354,-282.5 436,-282.5 436,-263.5 354,-263.5"/>
<text text-anchor="middle" x="395" y="-270.5" font-family="Helvetica,sans-Serif" font-size="10.00">std::set&lt; K &gt;</text>
</a>
</g>
</g>
<!-- Node16&#45;&gt;Node18 -->
<g id="edge22" class="edge">
<title>Node16&#45;&gt;Node18</title>
<path fill="none" stroke="#9a32cd" stroke-dasharray="5,2" d="M158.39,-222.97C202.63,-232.36 299.03,-252.83 353.83,-264.47"/>
<polygon fill="#9a32cd" stroke="#9a32cd" points="159.07,-219.53 148.56,-220.88 157.62,-226.38 159.07,-219.53"/>
<text text-anchor="middle" x="257" y="-256" font-family="Helvetica,sans-Serif" font-size="10.00"> keys</text>
</g>
<!-- Node17&#45;&gt;Node4 -->
<g id="edge19" class="edge">
<title>Node17&#45;&gt;Node4</title>
<path fill="none" stroke="#9a32cd" stroke-dasharray="5,2" d="M820.7,-240.99C861.16,-235.56 909.49,-229.03 953,-223 968.4,-220.87 985.14,-218.5 1000.39,-216.34"/>
<polygon fill="#9a32cd" stroke="#9a32cd" points="820.04,-237.55 810.59,-242.34 820.97,-244.48 820.04,-237.55"/>
<text text-anchor="middle" x="892.5" y="-241" font-family="Helvetica,sans-Serif" font-size="10.00"> m_RequiredInputNames</text>
</g>
<!-- Node18&#45;&gt;Node17 -->
<g id="edge21" class="edge">
<title>Node18&#45;&gt;Node17</title>
<path fill="none" stroke="orange" stroke-dasharray="5,2" d="M446.38,-269.97C499.94,-266.75 585.43,-261.61 648.27,-257.83"/>
<polygon fill="orange" stroke="orange" points="445.88,-266.49 436.11,-270.59 446.3,-273.48 445.88,-266.49"/>
<text text-anchor="middle" x="553.5" y="-270" font-family="Helvetica,sans-Serif" font-size="10.00"> &lt; DataObjectIdentifierType &gt;</text>
</g>
<!-- Node19 -->
<g id="node19" class="node">
<title>Node19</title>
<g id="a_node19"><a xlink:href="classitk_1_1simple_1_1Transform.html" target="_top" xlink:title="A simplified wrapper around a variety of ITK transforms.">
<polygon fill="white" stroke="black" points="1267,-50.5 1267,-69.5 1390,-69.5 1390,-50.5 1267,-50.5"/>
<text text-anchor="middle" x="1328.5" y="-57.5" font-family="Helvetica,sans-Serif" font-size="10.00">itk::simple::Transform</text>
</a>
</g>
</g>
<!-- Node19&#45;&gt;Node1 -->
<g id="edge23" class="edge">
<title>Node19&#45;&gt;Node1</title>
<path fill="none" stroke="#9a32cd" stroke-dasharray="5,2" d="M1400.32,-56.25C1445.34,-54.87 1504.77,-54.9 1557,-61 1571.46,-62.69 1586.88,-65.68 1601.14,-68.95"/>
<polygon fill="#9a32cd" stroke="#9a32cd" points="1399.95,-52.76 1390.07,-56.6 1400.19,-59.76 1399.95,-52.76"/>
<text text-anchor="middle" x="1487.5" y="-86" font-family="Helvetica,sans-Serif" font-size="10.00"> m_FixedInitialTransform</text>
<text text-anchor="middle" x="1487.5" y="-75" font-family="Helvetica,sans-Serif" font-size="10.00">m_InitialTransform</text>
<text text-anchor="middle" x="1487.5" y="-64" font-family="Helvetica,sans-Serif" font-size="10.00">m_MovingInitialTransform</text>
</g>
<!-- Node20 -->
<g id="node20" class="node">
<title>Node20</title>
<g id="a_node20"><a xlink:href="classitk_1_1simple_1_1Image.html" target="_top" xlink:title="The Image class for SimpleITK.">
<polygon fill="white" stroke="black" points="1276,-5.5 1276,-24.5 1381,-24.5 1381,-5.5 1276,-5.5"/>
<text text-anchor="middle" x="1328.5" y="-12.5" font-family="Helvetica,sans-Serif" font-size="10.00">itk::simple::Image</text>
</a>
</g>
</g>
<!-- Node20&#45;&gt;Node1 -->
<g id="edge24" class="edge">
<title>Node20&#45;&gt;Node1</title>
<path fill="none" stroke="#9a32cd" stroke-dasharray="5,2" d="M1391.43,-11.5C1437.91,-10.61 1502.62,-13.11 1557,-29 1586.06,-37.49 1615.99,-55.67 1635.22,-68.81"/>
<polygon fill="#9a32cd" stroke="#9a32cd" points="1391.12,-8.01 1381.21,-11.76 1391.29,-15.01 1391.12,-8.01"/>
<text text-anchor="middle" x="1487.5" y="-43" font-family="Helvetica,sans-Serif" font-size="10.00"> m_MetricFixedMaskImage</text>
<text text-anchor="middle" x="1487.5" y="-32" font-family="Helvetica,sans-Serif" font-size="10.00">m_MetricMovingMaskImage</text>
</g>
<!-- Node21 -->
<g id="node21" class="node">
<title>Node21</title>
<g id="a_node21"><a xlink:href="classitk_1_1simple_1_1PimpleImageBase.html" target="_top" xlink:title="Private implementation idiom image base class.">
<polygon fill="white" stroke="black" points="971,-5.5 971,-24.5 1134,-24.5 1134,-5.5 971,-5.5"/>
<text text-anchor="middle" x="1052.5" y="-12.5" font-family="Helvetica,sans-Serif" font-size="10.00">itk::simple::PimpleImageBase</text>
</a>
</g>
</g>
<!-- Node21&#45;&gt;Node20 -->
<g id="edge25" class="edge">
<title>Node21&#45;&gt;Node20</title>
<path fill="none" stroke="#9a32cd" stroke-dasharray="5,2" d="M1144.3,-15C1188.01,-15 1238.81,-15 1275.82,-15"/>
<polygon fill="#9a32cd" stroke="#9a32cd" points="1144.23,-11.5 1134.23,-15 1144.23,-18.5 1144.23,-11.5"/>
<text text-anchor="middle" x="1195.5" y="-18" font-family="Helvetica,sans-Serif" font-size="10.00"> m_PimpleImage</text>
</g>
</g>
</svg>
        <g id="navigator" transform="translate(0 0)" fill="#404254">
                <rect fill="#f2f5e9" fill-opacity="0.5" stroke="#606060" stroke-width=".5" x="0" y="0" width="60" height="60"/>
                <use id="zoomplus" xlink:href="#zoomPlus" x="17" y="9" onmousedown="handleZoom(evt,'in')"/>
                <use id="zoomminus" xlink:href="#zoomMin" x="42" y="9" onmousedown="handleZoom(evt,'out')"/>
                <use id="reset" xlink:href="#resetDef" x="30" y="36" onmousedown="handleReset()"/>
                <g id="arrowUp" xlink:href="#dirArrow" transform="translate(30 24)" onmousedown="handlePan(0,-1)">
                  <use xlink:href="#rim" fill="#404040">
                        <set attributeName="fill" to="#808080" begin="arrowUp.mouseover" end="arrowUp.mouseout"/>
                  </use>
                  <path fill="none" stroke="white" stroke-width="1.5" d="M0,-3.0v7 M-2.5,-0.5L0,-3.0L2.5,-0.5"/>
                </g>
                <g id="arrowRight" xlink:href="#dirArrow" transform="rotate(90) translate(36 -43)" onmousedown="handlePan(1,0)">
                  <use xlink:href="#rim" fill="#404040">
                        <set attributeName="fill" to="#808080" begin="arrowRight.mouseover" end="arrowRight.mouseout"/>
                  </use>
                  <path fill="none" stroke="white" stroke-width="1.5" d="M0,-3.0v7 M-2.5,-0.5L0,-3.0L2.5,-0.5"/>
                </g>
                <g id="arrowDown" xlink:href="#dirArrow" transform="rotate(180) translate(-30 -48)" onmousedown="handlePan(0,1)">
                  <use xlink:href="#rim" fill="#404040">
                        <set attributeName="fill" to="#808080" begin="arrowDown.mouseover" end="arrowDown.mouseout"/>
                  </use>
                  <path fill="none" stroke="white" stroke-width="1.5" d="M0,-3.0v7 M-2.5,-0.5L0,-3.0L2.5,-0.5"/>
                </g>
                <g id="arrowLeft" xlink:href="#dirArrow" transform="rotate(270) translate(-36 17)" onmousedown="handlePan(-1,0)">
                  <use xlink:href="#rim" fill="#404040">
                        <set attributeName="fill" to="#808080" begin="arrowLeft.mouseover" end="arrowLeft.mouseout"/>
                  </use>
                  <path fill="none" stroke="white" stroke-width="1.5" d="M0,-3.0v7 M-2.5,-0.5L0,-3.0L2.5,-0.5"/>
                </g>
        </g>
        <svg viewBox="0 0 15 15" width="100%" height="30px" preserveAspectRatio="xMaxYMin meet">
         <g id="arrow_out" transform="scale(0.3 0.3)">
          <a xlink:href="classitk_1_1simple_1_1ImageRegistrationMethod__coll__graph_org.svg" target="_base">
           <rect id="button" ry="5" rx="5" y="6" x="6" height="38" width="38"
                fill="#f2f5e9" fill-opacity="0.5" stroke="#606060" stroke-width="1.0"/>
           <path id="arrow"
             d="M 11.500037,31.436501 C 11.940474,20.09759 22.043105,11.32322 32.158766,21.979434 L 37.068811,17.246167 C 37.068811,17.246167 37.088388,32 37.088388,32 L 22.160133,31.978069 C 22.160133,31.978069 26.997745,27.140456 26.997745,27.140456 C 18.528582,18.264221 13.291696,25.230495 11.500037,31.436501 z"
             style="fill:#404040;"/>
          </a>
         </g>
        </svg>
</svg>
