<?xml version="1.0" encoding="UTF-8" standalone="no"?>
<!DOCTYPE svg PUBLIC "-//W3C//DTD SVG 1.1//EN"
 "http://www.w3.org/Graphics/SVG/1.1/DTD/svg11.dtd">
<!-- Generated by graphviz version 2.43.0 (0)
 -->
<!-- Title: itk::HashImageFilter&lt; TImageType &gt; Pages: 1 -->
<svg width="3045pt" height="477pt"
 viewBox="0.00 0.00 3045.00 476.50" xmlns="http://www.w3.org/2000/svg" xmlns:xlink="http://www.w3.org/1999/xlink">
<g id="graph0" class="graph" transform="scale(1 1) rotate(0) translate(4 472.5)">
<title>itk::HashImageFilter&lt; TImageType &gt;</title>
<polygon fill="white" stroke="transparent" points="-4,4 -4,-472.5 3041,-472.5 3041,4 -4,4"/>
<!-- Node1 -->
<g id="node1" class="node">
<title>Node1</title>
<g id="a_node1"><a xlink:title="Generates a hash string from an image.">
<polygon fill="#bfbfbf" stroke="black" points="2921,-178.5 2921,-208.5 3037,-208.5 3037,-178.5 2921,-178.5"/>
<text text-anchor="start" x="2929" y="-196.5" font-family="Helvetica,sans-Serif" font-size="10.00">itk::HashImageFilter</text>
<text text-anchor="middle" x="2979" y="-185.5" font-family="Helvetica,sans-Serif" font-size="10.00">&lt; TImageType &gt;</text>
</a>
</g>
</g>
<!-- Node2 -->
<g id="node2" class="node">
<title>Node2</title>
<g id="a_node2"><a xlink:href="https://www.itk.org/Doxygen/html/classitk_1_1CastImageFilter.html" xlink:title=" ">
<polygon fill="white" stroke="black" points="2636,-209.5 2636,-239.5 2800,-239.5 2800,-209.5 2636,-209.5"/>
<text text-anchor="start" x="2644" y="-227.5" font-family="Helvetica,sans-Serif" font-size="10.00">itk::CastImageFilter</text>
<text text-anchor="middle" x="2718" y="-216.5" font-family="Helvetica,sans-Serif" font-size="10.00">&lt; TImageType, TImageType &gt;</text>
</a>
</g>
</g>
<!-- Node2&#45;&gt;Node1 -->
<g id="edge1" class="edge">
<title>Node2&#45;&gt;Node1</title>
<path fill="none" stroke="midnightblue" d="M2810.48,-213.55C2847.24,-209.15 2888.48,-204.21 2920.85,-200.34"/>
<polygon fill="midnightblue" stroke="midnightblue" points="2809.75,-210.11 2800.24,-214.78 2810.58,-217.06 2809.75,-210.11"/>
</g>
<!-- Node3 -->
<g id="node3" class="node">
<title>Node3</title>
<g id="a_node3"><a xlink:href="https://www.itk.org/Doxygen/html/classitk_1_1InPlaceImageFilter.html" xlink:title=" ">
<polygon fill="white" stroke="black" points="2060,-204.5 2060,-234.5 2236,-234.5 2236,-204.5 2060,-204.5"/>
<text text-anchor="start" x="2068" y="-222.5" font-family="Helvetica,sans-Serif" font-size="10.00">itk::InPlaceImageFilter</text>
<text text-anchor="middle" x="2148" y="-211.5" font-family="Helvetica,sans-Serif" font-size="10.00">&lt; TInputImage, TOutputImage &gt;</text>
</a>
</g>
</g>
<!-- Node3&#45;&gt;Node2 -->
<g id="edge2" class="edge">
<title>Node3&#45;&gt;Node2</title>
<path fill="none" stroke="midnightblue" d="M2246.25,-222.3C2248.86,-222.37 2251.45,-222.43 2254,-222.5 2415.74,-226.71 2456.23,-229.95 2618,-227.5 2623.85,-227.41 2629.89,-227.29 2635.96,-227.16"/>
<polygon fill="midnightblue" stroke="midnightblue" points="2246.18,-218.79 2236.09,-222.02 2245.99,-225.79 2246.18,-218.79"/>
</g>
<!-- Node31 -->
<g id="node31" class="node">
<title>Node31</title>
<g id="a_node31"><a xlink:href="https://www.itk.org/Doxygen/html/classitk_1_1CastImageFilter.html" xlink:title=" ">
<polygon fill="white" stroke="black" points="2273,-182.5 2273,-212.5 2449,-212.5 2449,-182.5 2273,-182.5"/>
<text text-anchor="start" x="2281" y="-200.5" font-family="Helvetica,sans-Serif" font-size="10.00">itk::CastImageFilter</text>
<text text-anchor="middle" x="2361" y="-189.5" font-family="Helvetica,sans-Serif" font-size="10.00">&lt; TInputImage, TOutputImage &gt;</text>
</a>
</g>
</g>
<!-- Node3&#45;&gt;Node31 -->
<g id="edge43" class="edge">
<title>Node3&#45;&gt;Node31</title>
<path fill="none" stroke="midnightblue" d="M2246.07,-209.38C2254.99,-208.45 2263.99,-207.51 2272.82,-206.59"/>
<polygon fill="midnightblue" stroke="midnightblue" points="2245.62,-205.91 2236.04,-210.42 2246.35,-212.87 2245.62,-205.91"/>
</g>
<!-- Node4 -->
<g id="node4" class="node">
<title>Node4</title>
<g id="a_node4"><a xlink:href="https://www.itk.org/Doxygen/html/classitk_1_1ImageToImageFilter.html" xlink:title=" ">
<polygon fill="white" stroke="black" points="1847,-204.5 1847,-234.5 2023,-234.5 2023,-204.5 1847,-204.5"/>
<text text-anchor="start" x="1855" y="-222.5" font-family="Helvetica,sans-Serif" font-size="10.00">itk::ImageToImageFilter</text>
<text text-anchor="middle" x="1935" y="-211.5" font-family="Helvetica,sans-Serif" font-size="10.00">&lt; TInputImage, TOutputImage &gt;</text>
</a>
</g>
</g>
<!-- Node4&#45;&gt;Node3 -->
<g id="edge3" class="edge">
<title>Node4&#45;&gt;Node3</title>
<path fill="none" stroke="midnightblue" d="M2033.07,-219.5C2041.99,-219.5 2050.99,-219.5 2059.82,-219.5"/>
<polygon fill="midnightblue" stroke="midnightblue" points="2033.04,-216 2023.04,-219.5 2033.04,-223 2033.04,-216"/>
</g>
<!-- Node5 -->
<g id="node5" class="node">
<title>Node5</title>
<g id="a_node5"><a xlink:href="https://www.itk.org/Doxygen/html/classitk_1_1ImageSource.html" xlink:title=" ">
<polygon fill="white" stroke="black" points="1647.5,-236.5 1647.5,-266.5 1796.5,-266.5 1796.5,-236.5 1647.5,-236.5"/>
<text text-anchor="start" x="1655.5" y="-254.5" font-family="Helvetica,sans-Serif" font-size="10.00">itk::ImageSource&lt; TOutput</text>
<text text-anchor="middle" x="1722" y="-243.5" font-family="Helvetica,sans-Serif" font-size="10.00">Image &gt;</text>
</a>
</g>
</g>
<!-- Node5&#45;&gt;Node4 -->
<g id="edge4" class="edge">
<title>Node5&#45;&gt;Node4</title>
<path fill="none" stroke="midnightblue" d="M1806.55,-238.83C1819.85,-236.81 1833.62,-234.72 1846.99,-232.7"/>
<polygon fill="midnightblue" stroke="midnightblue" points="1805.86,-235.39 1796.5,-240.35 1806.91,-242.31 1805.86,-235.39"/>
</g>
<!-- Node6 -->
<g id="node6" class="node">
<title>Node6</title>
<g id="a_node6"><a xlink:href="https://www.itk.org/Doxygen/html/classitk_1_1ProcessObject.html" xlink:title=" ">
<polygon fill="white" stroke="black" points="1473.5,-264 1473.5,-283 1577.5,-283 1577.5,-264 1473.5,-264"/>
<text text-anchor="middle" x="1525.5" y="-271" font-family="Helvetica,sans-Serif" font-size="10.00">itk::ProcessObject</text>
</a>
</g>
</g>
<!-- Node6&#45;&gt;Node5 -->
<g id="edge5" class="edge">
<title>Node6&#45;&gt;Node5</title>
<path fill="none" stroke="midnightblue" d="M1587.57,-266.59C1606.48,-264.45 1627.52,-262.07 1647.19,-259.85"/>
<polygon fill="midnightblue" stroke="midnightblue" points="1587.15,-263.12 1577.6,-267.72 1587.93,-270.07 1587.15,-263.12"/>
</g>
<!-- Node7 -->
<g id="node7" class="node">
<title>Node7</title>
<g id="a_node7"><a xlink:href="https://www.itk.org/Doxygen/html/classitk_1_1Object.html" xlink:title=" ">
<polygon fill="white" stroke="black" points="1158,-264 1158,-283 1225,-283 1225,-264 1158,-264"/>
<text text-anchor="middle" x="1191.5" y="-271" font-family="Helvetica,sans-Serif" font-size="10.00">itk::Object</text>
</a>
</g>
</g>
<!-- Node7&#45;&gt;Node6 -->
<g id="edge6" class="edge">
<title>Node7&#45;&gt;Node6</title>
<path fill="none" stroke="midnightblue" d="M1235.3,-273.5C1296.33,-273.5 1408.16,-273.5 1473.43,-273.5"/>
<polygon fill="midnightblue" stroke="midnightblue" points="1235.24,-270 1225.24,-273.5 1235.24,-277 1235.24,-270"/>
</g>
<!-- Node8 -->
<g id="node8" class="node">
<title>Node8</title>
<g id="a_node8"><a xlink:href="https://www.itk.org/Doxygen/html/classitk_1_1LightObject.html" xlink:title=" ">
<polygon fill="white" stroke="black" points="789.5,-285 789.5,-304 880.5,-304 880.5,-285 789.5,-285"/>
<text text-anchor="middle" x="835" y="-292" font-family="Helvetica,sans-Serif" font-size="10.00">itk::LightObject</text>
</a>
</g>
</g>
<!-- Node8&#45;&gt;Node7 -->
<g id="edge7" class="edge">
<title>Node8&#45;&gt;Node7</title>
<path fill="none" stroke="midnightblue" d="M890.69,-291.26C965.42,-286.83 1097.08,-279.03 1157.95,-275.43"/>
<polygon fill="midnightblue" stroke="midnightblue" points="890.31,-287.78 880.54,-291.86 890.73,-294.76 890.31,-287.78"/>
</g>
<!-- Node9 -->
<g id="node9" class="node">
<title>Node9</title>
<g id="a_node9"><a xlink:title=" ">
<polygon fill="white" stroke="#bfbfbf" points="457,-287 457,-306 564,-306 564,-287 457,-287"/>
<text text-anchor="middle" x="510.5" y="-294" font-family="Helvetica,sans-Serif" font-size="10.00">std::atomic&lt; int &gt;</text>
</a>
</g>
</g>
<!-- Node9&#45;&gt;Node8 -->
<g id="edge8" class="edge">
<title>Node9&#45;&gt;Node8</title>
<path fill="none" stroke="#9a32cd" stroke-dasharray="5,2" d="M574.27,-296.11C637.49,-295.72 733.42,-295.12 789.29,-294.78"/>
<polygon fill="#9a32cd" stroke="#9a32cd" points="574.01,-292.61 564.03,-296.17 574.05,-299.61 574.01,-292.61"/>
<text text-anchor="middle" x="676.5" y="-298.5" font-family="Helvetica,sans-Serif" font-size="10.00"> m_ReferenceCount</text>
</g>
<!-- Node10 -->
<g id="node10" class="node">
<title>Node10</title>
<g id="a_node10"><a xlink:title="STL class.">
<polygon fill="white" stroke="#bfbfbf" points="123,-315 123,-334 223,-334 223,-315 123,-315"/>
<text text-anchor="middle" x="173" y="-322" font-family="Helvetica,sans-Serif" font-size="10.00">std::atomic&lt; T &gt;</text>
</a>
</g>
</g>
<!-- Node10&#45;&gt;Node9 -->
<g id="edge9" class="edge">
<title>Node10&#45;&gt;Node9</title>
<path fill="none" stroke="orange" stroke-dasharray="5,2" d="M233.22,-318.98C238.89,-318.47 244.55,-317.97 250,-317.5 321.6,-311.31 404.36,-304.71 456.8,-300.59"/>
<polygon fill="orange" stroke="orange" points="232.7,-315.51 223.05,-319.9 233.33,-322.49 232.7,-315.51"/>
<text text-anchor="middle" x="334" y="-320.5" font-family="Helvetica,sans-Serif" font-size="10.00"> &lt; int &gt;</text>
</g>
<!-- Node19 -->
<g id="node19" class="node">
<title>Node19</title>
<g id="a_node19"><a xlink:href="https://www.itk.org/Doxygen/html/classitk_1_1TimeStamp.html" xlink:title=" ">
<polygon fill="white" stroke="black" points="789,-333 789,-352 881,-352 881,-333 789,-333"/>
<text text-anchor="middle" x="835" y="-340" font-family="Helvetica,sans-Serif" font-size="10.00">itk::TimeStamp</text>
</a>
</g>
</g>
<!-- Node10&#45;&gt;Node19 -->
<g id="edge21" class="edge">
<title>Node10&#45;&gt;Node19</title>
<path fill="none" stroke="#9a32cd" stroke-dasharray="5,2" d="M233.22,-327.78C238.89,-328.05 244.55,-328.29 250,-328.5 450.91,-336.19 690.88,-340.37 788.92,-341.86"/>
<polygon fill="#9a32cd" stroke="#9a32cd" points="233.21,-324.28 223.05,-327.29 232.87,-331.27 233.21,-324.28"/>
<text text-anchor="middle" x="510.5" y="-340.5" font-family="Helvetica,sans-Serif" font-size="10.00"> m_GlobalTimeStamp</text>
</g>
<!-- Node23 -->
<g id="node23" class="node">
<title>Node23</title>
<g id="a_node23"><a xlink:title=" ">
<polygon fill="white" stroke="#bfbfbf" points="609.5,-372 609.5,-391 743.5,-391 743.5,-372 609.5,-372"/>
<text text-anchor="middle" x="676.5" y="-379" font-family="Helvetica,sans-Serif" font-size="10.00">std::atomic&lt; uint32_t &gt;</text>
</a>
</g>
</g>
<!-- Node10&#45;&gt;Node23 -->
<g id="edge30" class="edge">
<title>Node10&#45;&gt;Node23</title>
<path fill="none" stroke="orange" stroke-dasharray="5,2" d="M201.02,-338.53C215.21,-345.2 233.12,-352.57 250,-356.5 374.51,-385.47 524.73,-386.73 609.27,-384.48"/>
<polygon fill="orange" stroke="orange" points="202.37,-335.29 191.84,-334.06 199.31,-341.59 202.37,-335.29"/>
<text text-anchor="middle" x="334" y="-382.5" font-family="Helvetica,sans-Serif" font-size="10.00"> &lt; uint32_t &gt;</text>
</g>
<!-- Node11 -->
<g id="node11" class="node">
<title>Node11</title>
<g id="a_node11"><a xlink:title=" ">
<polygon fill="white" stroke="#bfbfbf" points="0,-279 0,-298 29,-298 29,-279 0,-279"/>
<text text-anchor="middle" x="14.5" y="-286" font-family="Helvetica,sans-Serif" font-size="10.00">T</text>
</a>
</g>
</g>
<!-- Node11&#45;&gt;Node10 -->
<g id="edge10" class="edge">
<title>Node11&#45;&gt;Node10</title>
<path fill="none" stroke="#9a32cd" stroke-dasharray="5,2" d="M39.17,-293.95C63.36,-299.51 101.42,-308.26 130.61,-314.98"/>
<polygon fill="#9a32cd" stroke="#9a32cd" points="39.64,-290.46 29.11,-291.63 38.08,-297.28 39.64,-290.46"/>
<text text-anchor="middle" x="71.5" y="-309.5" font-family="Helvetica,sans-Serif" font-size="10.00"> ptr</text>
</g>
<!-- Node16 -->
<g id="node16" class="node">
<title>Node16</title>
<g id="a_node16"><a xlink:title="STL class.">
<polygon fill="white" stroke="#bfbfbf" points="122.5,-150 122.5,-169 223.5,-169 223.5,-150 122.5,-150"/>
<text text-anchor="middle" x="173" y="-157" font-family="Helvetica,sans-Serif" font-size="10.00">std::map&lt; K, T &gt;</text>
</a>
</g>
</g>
<!-- Node11&#45;&gt;Node16 -->
<g id="edge17" class="edge">
<title>Node11&#45;&gt;Node16</title>
<path fill="none" stroke="#9a32cd" stroke-dasharray="5,2" d="M29.48,-271.03C34.71,-264.91 40.88,-258.16 47,-252.5 83.76,-218.54 132.67,-185.1 156.97,-169.16"/>
<polygon fill="#9a32cd" stroke="#9a32cd" points="26.71,-268.9 23.02,-278.83 32.09,-273.37 26.71,-268.9"/>
<text text-anchor="middle" x="71.5" y="-255.5" font-family="Helvetica,sans-Serif" font-size="10.00"> elements</text>
</g>
<!-- Node18 -->
<g id="node18" class="node">
<title>Node18</title>
<g id="a_node18"><a xlink:title="STL class.">
<polygon fill="white" stroke="#bfbfbf" points="114,-255 114,-274 232,-274 232,-255 114,-255"/>
<text text-anchor="middle" x="173" y="-262" font-family="Helvetica,sans-Serif" font-size="10.00">std::shared_ptr&lt; T &gt;</text>
</a>
</g>
</g>
<!-- Node11&#45;&gt;Node18 -->
<g id="edge19" class="edge">
<title>Node11&#45;&gt;Node18</title>
<path fill="none" stroke="#9a32cd" stroke-dasharray="5,2" d="M38.78,-277.98C41.51,-277.02 44.29,-276.16 47,-275.5 68.48,-270.25 92.58,-267.44 113.84,-265.95"/>
<polygon fill="#9a32cd" stroke="#9a32cd" points="37.31,-274.8 29.31,-281.74 39.89,-281.31 37.31,-274.8"/>
<text text-anchor="middle" x="71.5" y="-278.5" font-family="Helvetica,sans-Serif" font-size="10.00"> ptr</text>
</g>
<!-- Node25 -->
<g id="node25" class="node">
<title>Node25</title>
<g id="a_node25"><a xlink:title="STL class.">
<polygon fill="white" stroke="#bfbfbf" points="124.5,-399 124.5,-418 221.5,-418 221.5,-399 124.5,-399"/>
<text text-anchor="middle" x="173" y="-406" font-family="Helvetica,sans-Serif" font-size="10.00">std::vector&lt; T &gt;</text>
</a>
</g>
</g>
<!-- Node11&#45;&gt;Node25 -->
<g id="edge33" class="edge">
<title>Node11&#45;&gt;Node25</title>
<path fill="none" stroke="#9a32cd" stroke-dasharray="5,2" d="M30.93,-305.96C35.86,-311.18 41.47,-316.77 47,-321.5 83.75,-352.98 131.83,-383.91 156.27,-398.99"/>
<polygon fill="#9a32cd" stroke="#9a32cd" points="33.19,-303.25 23.85,-298.24 28.03,-307.98 33.19,-303.25"/>
<text text-anchor="middle" x="71.5" y="-359.5" font-family="Helvetica,sans-Serif" font-size="10.00"> elements</text>
</g>
<!-- Node12 -->
<g id="node12" class="node">
<title>Node12</title>
<g id="a_node12"><a xlink:title="STL class.">
<polygon fill="white" stroke="#bfbfbf" points="802.5,-188 802.5,-207 867.5,-207 867.5,-188 802.5,-188"/>
<text text-anchor="middle" x="835" y="-195" font-family="Helvetica,sans-Serif" font-size="10.00">std::string</text>
</a>
</g>
</g>
<!-- Node12&#45;&gt;Node7 -->
<g id="edge11" class="edge">
<title>Node12&#45;&gt;Node7</title>
<path fill="none" stroke="#9a32cd" stroke-dasharray="5,2" d="M877.71,-202.04C928.23,-208.04 1015.68,-220.06 1089,-238.5 1116.12,-245.32 1146.3,-256.16 1166.65,-263.97"/>
<polygon fill="#9a32cd" stroke="#9a32cd" points="877.85,-198.53 867.51,-200.85 877.04,-205.48 877.85,-198.53"/>
<text text-anchor="middle" x="1004.5" y="-241.5" font-family="Helvetica,sans-Serif" font-size="10.00"> m_ObjectName</text>
</g>
<!-- Node20 -->
<g id="node20" class="node">
<title>Node20</title>
<g id="a_node20"><a xlink:title=" ">
<polygon fill="white" stroke="#bfbfbf" points="1110.5,-118.5 1110.5,-148.5 1272.5,-148.5 1272.5,-118.5 1110.5,-118.5"/>
<text text-anchor="start" x="1118.5" y="-136.5" font-family="Helvetica,sans-Serif" font-size="10.00">std::set&lt; DataObjectIdentifier</text>
<text text-anchor="middle" x="1191.5" y="-125.5" font-family="Helvetica,sans-Serif" font-size="10.00">Type &gt;</text>
</a>
</g>
</g>
<!-- Node12&#45;&gt;Node20 -->
<g id="edge23" class="edge">
<title>Node12&#45;&gt;Node20</title>
<path fill="none" stroke="#9a32cd" stroke-dasharray="5,2" d="M877.73,-186.93C891.18,-183.7 906.18,-180.27 920,-177.5 983.68,-164.76 1056.36,-153.09 1110.33,-144.98"/>
<polygon fill="#9a32cd" stroke="#9a32cd" points="876.68,-183.59 867.79,-189.36 878.34,-190.39 876.68,-183.59"/>
<text text-anchor="middle" x="1004.5" y="-180.5" font-family="Helvetica,sans-Serif" font-size="10.00"> keys</text>
</g>
<!-- Node22 -->
<g id="node22" class="node">
<title>Node22</title>
<g id="a_node22"><a xlink:title=" ">
<polygon fill="white" stroke="#bfbfbf" points="1107,-177.5 1107,-207.5 1276,-207.5 1276,-177.5 1107,-177.5"/>
<text text-anchor="start" x="1115" y="-195.5" font-family="Helvetica,sans-Serif" font-size="10.00">std::map&lt; DataObjectIdentifier</text>
<text text-anchor="middle" x="1191.5" y="-184.5" font-family="Helvetica,sans-Serif" font-size="10.00">Type, bool &gt;</text>
</a>
</g>
</g>
<!-- Node12&#45;&gt;Node22 -->
<g id="edge27" class="edge">
<title>Node12&#45;&gt;Node22</title>
<path fill="none" stroke="#9a32cd" stroke-dasharray="5,2" d="M877.5,-195.16C891.05,-194.5 906.16,-193.85 920,-193.5 982.56,-191.9 1053.28,-191.69 1106.71,-191.86"/>
<polygon fill="#9a32cd" stroke="#9a32cd" points="877.31,-191.67 867.5,-195.67 877.67,-198.66 877.31,-191.67"/>
<text text-anchor="middle" x="1004.5" y="-196.5" font-family="Helvetica,sans-Serif" font-size="10.00"> keys</text>
</g>
<!-- Node26 -->
<g id="node26" class="node">
<title>Node26</title>
<g id="a_node26"><a xlink:title=" ">
<polygon fill="white" stroke="#bfbfbf" points="1107,-43.5 1107,-73.5 1276,-73.5 1276,-43.5 1107,-43.5"/>
<text text-anchor="start" x="1115" y="-61.5" font-family="Helvetica,sans-Serif" font-size="10.00">std::map&lt; DataObjectIdentifier</text>
<text text-anchor="middle" x="1191.5" y="-50.5" font-family="Helvetica,sans-Serif" font-size="10.00">Type, DataObjectPointer &gt;</text>
</a>
</g>
</g>
<!-- Node12&#45;&gt;Node26 -->
<g id="edge37" class="edge">
<title>Node12&#45;&gt;Node26</title>
<path fill="none" stroke="#9a32cd" stroke-dasharray="5,2" d="M853.62,-181.19C869.78,-167.01 894.95,-146.87 920,-134.5 979.59,-105.07 1052.37,-85.44 1107.43,-73.51"/>
<polygon fill="#9a32cd" stroke="#9a32cd" points="851.15,-178.7 846.04,-187.98 855.82,-183.91 851.15,-178.7"/>
<text text-anchor="middle" x="1004.5" y="-137.5" font-family="Helvetica,sans-Serif" font-size="10.00"> keys</text>
</g>
<!-- Node13 -->
<g id="node13" class="node">
<title>Node13</title>
<g id="a_node13"><a xlink:title="STL class.">
<polygon fill="white" stroke="#bfbfbf" points="458.5,-188.5 458.5,-218.5 562.5,-218.5 562.5,-188.5 458.5,-188.5"/>
<text text-anchor="start" x="466.5" y="-206.5" font-family="Helvetica,sans-Serif" font-size="10.00">std::basic_string&lt;</text>
<text text-anchor="middle" x="510.5" y="-195.5" font-family="Helvetica,sans-Serif" font-size="10.00"> char &gt;</text>
</a>
</g>
</g>
<!-- Node13&#45;&gt;Node12 -->
<g id="edge12" class="edge">
<title>Node13&#45;&gt;Node12</title>
<path fill="none" stroke="midnightblue" d="M572.8,-202.36C641.14,-201.09 749.02,-199.08 802.2,-198.09"/>
<polygon fill="midnightblue" stroke="midnightblue" points="572.53,-198.86 562.6,-202.55 572.66,-205.86 572.53,-198.86"/>
</g>
<!-- Node14 -->
<g id="node14" class="node">
<title>Node14</title>
<g id="a_node14"><a xlink:href="https://www.itk.org/Doxygen/html/classitk_1_1MetaDataDictionary.html" xlink:title=" ">
<polygon fill="white" stroke="black" points="768,-244 768,-263 902,-263 902,-244 768,-244"/>
<text text-anchor="middle" x="835" y="-251" font-family="Helvetica,sans-Serif" font-size="10.00">itk::MetaDataDictionary</text>
</a>
</g>
</g>
<!-- Node14&#45;&gt;Node7 -->
<g id="edge13" class="edge">
<title>Node14&#45;&gt;Node7</title>
<path fill="none" stroke="#9a32cd" stroke-dasharray="5,2" d="M912.27,-254.2C962.53,-255.09 1029.76,-257.07 1089,-261.5 1112,-263.22 1137.82,-266.29 1157.66,-268.89"/>
<polygon fill="#9a32cd" stroke="#9a32cd" points="912.19,-250.7 902.14,-254.04 912.08,-257.7 912.19,-250.7"/>
<text text-anchor="middle" x="1004.5" y="-264.5" font-family="Helvetica,sans-Serif" font-size="10.00"> m_MetaDataDictionary</text>
</g>
<!-- Node15 -->
<g id="node15" class="node">
<title>Node15</title>
<g id="a_node15"><a xlink:title=" ">
<polygon fill="white" stroke="#bfbfbf" points="436,-237.5 436,-267.5 585,-267.5 585,-237.5 436,-237.5"/>
<text text-anchor="start" x="444" y="-255.5" font-family="Helvetica,sans-Serif" font-size="10.00">std::shared_ptr&lt; MetaData</text>
<text text-anchor="middle" x="510.5" y="-244.5" font-family="Helvetica,sans-Serif" font-size="10.00">DictionaryMapType &gt;</text>
</a>
</g>
</g>
<!-- Node15&#45;&gt;Node14 -->
<g id="edge14" class="edge">
<title>Node15&#45;&gt;Node14</title>
<path fill="none" stroke="#9a32cd" stroke-dasharray="5,2" d="M595.29,-252.76C649.07,-252.93 717.93,-253.14 767.86,-253.29"/>
<polygon fill="#9a32cd" stroke="#9a32cd" points="595.09,-249.26 585.08,-252.73 595.07,-256.26 595.09,-249.26"/>
<text text-anchor="middle" x="676.5" y="-255.5" font-family="Helvetica,sans-Serif" font-size="10.00"> m_Dictionary</text>
</g>
<!-- Node16&#45;&gt;Node15 -->
<g id="edge15" class="edge">
<title>Node16&#45;&gt;Node15</title>
<path fill="none" stroke="#9a32cd" stroke-dasharray="5,2" d="M218.05,-171.71C279.11,-188.64 389.39,-219.21 455.38,-237.5"/>
<polygon fill="#9a32cd" stroke="#9a32cd" points="218.9,-168.31 208.33,-169.02 217.03,-175.06 218.9,-168.31"/>
<text text-anchor="middle" x="334" y="-227.5" font-family="Helvetica,sans-Serif" font-size="10.00"> ptr</text>
</g>
<!-- Node16&#45;&gt;Node22 -->
<g id="edge28" class="edge">
<title>Node16&#45;&gt;Node22</title>
<path fill="none" stroke="orange" stroke-dasharray="5,2" d="M233.76,-160.52C338.38,-162.37 561.57,-166.65 750,-172.5 817.58,-174.6 834.46,-175.53 902,-178.5 971.01,-181.54 1049.28,-185.36 1106.87,-188.24"/>
<polygon fill="orange" stroke="orange" points="233.76,-157.02 223.7,-160.34 233.64,-164.01 233.76,-157.02"/>
<text text-anchor="start" x="607" y="-186.5" font-family="Helvetica,sans-Serif" font-size="10.00"> &lt; DataObjectIdentifierType,</text>
<text text-anchor="middle" x="676.5" y="-175.5" font-family="Helvetica,sans-Serif" font-size="10.00"> bool &gt;</text>
</g>
<!-- Node16&#45;&gt;Node26 -->
<g id="edge38" class="edge">
<title>Node16&#45;&gt;Node26</title>
<path fill="none" stroke="orange" stroke-dasharray="5,2" d="M233.73,-152.39C386.08,-134.31 786.5,-87.2 920,-75.5 982.58,-70.01 1053.45,-65.63 1106.95,-62.68"/>
<polygon fill="orange" stroke="orange" points="233.14,-148.93 223.63,-153.59 233.97,-155.88 233.14,-148.93"/>
<text text-anchor="start" x="607" y="-123.5" font-family="Helvetica,sans-Serif" font-size="10.00"> &lt; DataObjectIdentifierType,</text>
<text text-anchor="middle" x="676.5" y="-112.5" font-family="Helvetica,sans-Serif" font-size="10.00"> DataObjectPointer &gt;</text>
</g>
<!-- Node17 -->
<g id="node17" class="node">
<title>Node17</title>
<g id="a_node17"><a xlink:title=" ">
<polygon fill="white" stroke="#bfbfbf" points="0,-120 0,-139 29,-139 29,-120 0,-120"/>
<text text-anchor="middle" x="14.5" y="-127" font-family="Helvetica,sans-Serif" font-size="10.00">K</text>
</a>
</g>
</g>
<!-- Node17&#45;&gt;Node16 -->
<g id="edge16" class="edge">
<title>Node17&#45;&gt;Node16</title>
<path fill="none" stroke="#9a32cd" stroke-dasharray="5,2" d="M39.19,-134.04C61.16,-138.25 94.54,-144.65 122.35,-149.98"/>
<polygon fill="#9a32cd" stroke="#9a32cd" points="39.59,-130.56 29.11,-132.11 38.28,-137.43 39.59,-130.56"/>
<text text-anchor="middle" x="71.5" y="-147.5" font-family="Helvetica,sans-Serif" font-size="10.00"> keys</text>
</g>
<!-- Node21 -->
<g id="node21" class="node">
<title>Node21</title>
<g id="a_node21"><a xlink:title="STL class.">
<polygon fill="white" stroke="#bfbfbf" points="293,-78 293,-97 375,-97 375,-78 293,-78"/>
<text text-anchor="middle" x="334" y="-85" font-family="Helvetica,sans-Serif" font-size="10.00">std::set&lt; K &gt;</text>
</a>
</g>
</g>
<!-- Node17&#45;&gt;Node21 -->
<g id="edge25" class="edge">
<title>Node17&#45;&gt;Node21</title>
<path fill="none" stroke="#9a32cd" stroke-dasharray="5,2" d="M39.1,-123.15C41.75,-122.54 44.43,-121.98 47,-121.5 134.02,-105.35 237.43,-95.28 292.96,-90.6"/>
<polygon fill="#9a32cd" stroke="#9a32cd" points="38.08,-119.8 29.21,-125.6 39.76,-126.59 38.08,-119.8"/>
<text text-anchor="middle" x="71.5" y="-124.5" font-family="Helvetica,sans-Serif" font-size="10.00"> keys</text>
</g>
<!-- Node18&#45;&gt;Node15 -->
<g id="edge18" class="edge">
<title>Node18&#45;&gt;Node15</title>
<path fill="none" stroke="orange" stroke-dasharray="5,2" d="M242.27,-262.06C298.5,-260.05 378.06,-257.2 435.74,-255.14"/>
<polygon fill="orange" stroke="orange" points="241.93,-258.57 232.06,-262.42 242.18,-265.56 241.93,-258.57"/>
<text text-anchor="middle" x="334" y="-264.5" font-family="Helvetica,sans-Serif" font-size="10.00"> &lt; MetaDataDictionaryMapType &gt;</text>
</g>
<!-- Node19&#45;&gt;Node6 -->
<g id="edge39" class="edge">
<title>Node19&#45;&gt;Node6</title>
<path fill="none" stroke="#9a32cd" stroke-dasharray="5,2" d="M891.53,-341.41C942.84,-340.08 1021.17,-337.26 1089,-331.5 1243.9,-318.33 1282.1,-309.43 1436,-287.5 1448.01,-285.79 1460.92,-283.82 1473.06,-281.91"/>
<polygon fill="#9a32cd" stroke="#9a32cd" points="891.23,-337.91 881.32,-341.66 891.4,-344.91 891.23,-337.91"/>
<text text-anchor="middle" x="1191.5" y="-332.5" font-family="Helvetica,sans-Serif" font-size="10.00"> m_OutputInformationMTime</text>
</g>
<!-- Node19&#45;&gt;Node7 -->
<g id="edge20" class="edge">
<title>Node19&#45;&gt;Node7</title>
<path fill="none" stroke="#9a32cd" stroke-dasharray="5,2" d="M878.66,-330.26C891.84,-326.77 906.45,-323.19 920,-320.5 994.36,-305.76 1014.47,-311.35 1089,-297.5 1112.14,-293.2 1137.96,-287.08 1157.76,-282.09"/>
<polygon fill="#9a32cd" stroke="#9a32cd" points="877.64,-326.91 868.9,-332.9 879.47,-333.67 877.64,-326.91"/>
<text text-anchor="middle" x="1004.5" y="-323.5" font-family="Helvetica,sans-Serif" font-size="10.00"> m_MTime</text>
</g>
<!-- Node20&#45;&gt;Node6 -->
<g id="edge22" class="edge">
<title>Node20&#45;&gt;Node6</title>
<path fill="none" stroke="#9a32cd" stroke-dasharray="5,2" d="M1282.79,-136.43C1333.75,-142.69 1395.2,-158.64 1436,-197.5 1455.24,-215.82 1434.82,-236.12 1454,-254.5 1459.49,-259.76 1466.28,-263.6 1473.46,-266.4"/>
<polygon fill="#9a32cd" stroke="#9a32cd" points="1283.07,-132.94 1272.74,-135.3 1282.29,-139.9 1283.07,-132.94"/>
<text text-anchor="middle" x="1365" y="-200.5" font-family="Helvetica,sans-Serif" font-size="10.00"> m_RequiredInputNames</text>
</g>
<!-- Node21&#45;&gt;Node20 -->
<g id="edge24" class="edge">
<title>Node21&#45;&gt;Node20</title>
<path fill="none" stroke="orange" stroke-dasharray="5,2" d="M385.72,-86.03C439.61,-84.54 527.31,-82.35 603,-81.5 668.33,-80.77 684.78,-77.66 750,-81.5 876.46,-88.94 1022.28,-108.29 1110.37,-121.17"/>
<polygon fill="orange" stroke="orange" points="385.3,-82.54 375.4,-86.31 385.5,-89.53 385.3,-82.54"/>
<text text-anchor="middle" x="676.5" y="-84.5" font-family="Helvetica,sans-Serif" font-size="10.00"> &lt; DataObjectIdentifierType &gt;</text>
</g>
<!-- Node22&#45;&gt;Node6 -->
<g id="edge26" class="edge">
<title>Node22&#45;&gt;Node6</title>
<path fill="none" stroke="#9a32cd" stroke-dasharray="5,2" d="M1282.79,-209.55C1329.04,-219.13 1385.99,-232.22 1436,-247.5 1444.21,-250.01 1445.84,-251.82 1454,-254.5 1464.36,-257.9 1475.71,-261.16 1486.23,-263.99"/>
<polygon fill="#9a32cd" stroke="#9a32cd" points="1283.29,-206.08 1272.79,-207.5 1281.88,-212.94 1283.29,-206.08"/>
<text text-anchor="start" x="1294" y="-261.5" font-family="Helvetica,sans-Serif" font-size="10.00"> m_CachedInputReleaseData</text>
<text text-anchor="middle" x="1365" y="-250.5" font-family="Helvetica,sans-Serif" font-size="10.00">Flags</text>
</g>
<!-- Node23&#45;&gt;Node6 -->
<g id="edge29" class="edge">
<title>Node23&#45;&gt;Node6</title>
<path fill="none" stroke="#9a32cd" stroke-dasharray="5,2" d="M753.81,-380.24C867.88,-377.57 1089.44,-369.38 1276,-344.5 1347.97,-334.9 1366.73,-333.27 1436,-311.5 1460.57,-303.78 1487.6,-291.6 1505.25,-283.11"/>
<polygon fill="#9a32cd" stroke="#9a32cd" points="753.69,-376.74 743.78,-380.46 753.85,-383.74 753.69,-376.74"/>
<text text-anchor="middle" x="1004.5" y="-376.5" font-family="Helvetica,sans-Serif" font-size="10.00"> m_Progress</text>
</g>
<!-- Node24 -->
<g id="node24" class="node">
<title>Node24</title>
<g id="a_node24"><a xlink:title=" ">
<polygon fill="white" stroke="#bfbfbf" points="920,-412.5 920,-442.5 1089,-442.5 1089,-412.5 920,-412.5"/>
<text text-anchor="start" x="928" y="-430.5" font-family="Helvetica,sans-Serif" font-size="10.00">std::vector&lt; DataObjectPointer</text>
<text text-anchor="middle" x="1004.5" y="-419.5" font-family="Helvetica,sans-Serif" font-size="10.00">Map::iterator &gt;</text>
</a>
</g>
</g>
<!-- Node24&#45;&gt;Node6 -->
<g id="edge31" class="edge">
<title>Node24&#45;&gt;Node6</title>
<path fill="none" stroke="#9a32cd" stroke-dasharray="5,2" d="M1099.19,-442.19C1190.99,-451.83 1331.9,-453.55 1436,-395.5 1482.62,-369.5 1511.14,-307.47 1520.8,-283.34"/>
<polygon fill="#9a32cd" stroke="#9a32cd" points="1099.4,-438.69 1089.08,-441.08 1098.63,-445.65 1099.4,-438.69"/>
<text text-anchor="middle" x="1191.5" y="-460.5" font-family="Helvetica,sans-Serif" font-size="10.00"> m_IndexedOutputs</text>
<text text-anchor="middle" x="1191.5" y="-449.5" font-family="Helvetica,sans-Serif" font-size="10.00">m_IndexedInputs</text>
</g>
<!-- Node25&#45;&gt;Node24 -->
<g id="edge32" class="edge">
<title>Node25&#45;&gt;Node24</title>
<path fill="none" stroke="orange" stroke-dasharray="5,2" d="M231.97,-409.83C376.23,-413.13 751.84,-421.74 919.99,-425.59"/>
<polygon fill="orange" stroke="orange" points="231.65,-406.32 221.58,-409.59 231.49,-413.32 231.65,-406.32"/>
<text text-anchor="start" x="448" y="-431.5" font-family="Helvetica,sans-Serif" font-size="10.00"> &lt; DataObjectPointerMap</text>
<text text-anchor="middle" x="510.5" y="-420.5" font-family="Helvetica,sans-Serif" font-size="10.00">::iterator &gt;</text>
</g>
<!-- Node26&#45;&gt;Node6 -->
<g id="edge34" class="edge">
<title>Node26&#45;&gt;Node6</title>
<path fill="none" stroke="#9a32cd" stroke-dasharray="5,2" d="M1286.28,-54.79C1337.81,-58.05 1398.66,-71.55 1436,-112.5 1478.86,-159.51 1412.2,-206.54 1454,-254.5 1459.16,-260.43 1465.96,-264.59 1473.3,-267.51"/>
<polygon fill="#9a32cd" stroke="#9a32cd" points="1286.27,-51.28 1276.11,-54.26 1285.91,-58.27 1286.27,-51.28"/>
<text text-anchor="middle" x="1365" y="-126.5" font-family="Helvetica,sans-Serif" font-size="10.00"> m_Outputs</text>
<text text-anchor="middle" x="1365" y="-115.5" font-family="Helvetica,sans-Serif" font-size="10.00">m_Inputs</text>
</g>
<!-- Node27 -->
<g id="node27" class="node">
<title>Node27</title>
<g id="a_node27"><a xlink:href="https://www.itk.org/Doxygen/html/classitk_1_1SmartPointer.html" xlink:title=" ">
<polygon fill="white" stroke="black" points="781.5,-0.5 781.5,-30.5 888.5,-30.5 888.5,-0.5 781.5,-0.5"/>
<text text-anchor="start" x="789.5" y="-18.5" font-family="Helvetica,sans-Serif" font-size="10.00">itk::SmartPointer&lt;</text>
<text text-anchor="middle" x="835" y="-7.5" font-family="Helvetica,sans-Serif" font-size="10.00"> Self &gt;</text>
</a>
</g>
</g>
<!-- Node27&#45;&gt;Node26 -->
<g id="edge35" class="edge">
<title>Node27&#45;&gt;Node26</title>
<path fill="none" stroke="#9a32cd" stroke-dasharray="5,2" d="M898.93,-9.06C950.54,-5.37 1025.21,-3.69 1089,-16.5 1114.99,-21.72 1142.68,-33.65 1162.56,-43.47"/>
<polygon fill="#9a32cd" stroke="#9a32cd" points="898.63,-5.57 888.93,-9.82 899.16,-12.55 898.63,-5.57"/>
<text text-anchor="middle" x="1004.5" y="-19.5" font-family="Helvetica,sans-Serif" font-size="10.00"> elements</text>
</g>
<!-- Node28 -->
<g id="node28" class="node">
<title>Node28</title>
<g id="a_node28"><a xlink:href="https://www.itk.org/Doxygen/html/classitk_1_1SmartPointer.html" xlink:title=" ">
<polygon fill="white" stroke="black" points="457,-0.5 457,-30.5 564,-30.5 564,-0.5 457,-0.5"/>
<text text-anchor="start" x="465" y="-18.5" font-family="Helvetica,sans-Serif" font-size="10.00">itk::SmartPointer&lt;</text>
<text text-anchor="middle" x="510.5" y="-7.5" font-family="Helvetica,sans-Serif" font-size="10.00"> TObjectType &gt;</text>
</a>
</g>
</g>
<!-- Node28&#45;&gt;Node27 -->
<g id="edge36" class="edge">
<title>Node28&#45;&gt;Node27</title>
<path fill="none" stroke="orange" stroke-dasharray="5,2" d="M574.2,-15.5C634.56,-15.5 724.81,-15.5 781.49,-15.5"/>
<polygon fill="orange" stroke="orange" points="574.03,-12 564.03,-15.5 574.03,-19 574.03,-12"/>
<text text-anchor="middle" x="676.5" y="-18.5" font-family="Helvetica,sans-Serif" font-size="10.00"> &lt; Self &gt;</text>
</g>
<!-- Node29 -->
<g id="node29" class="node">
<title>Node29</title>
<g id="a_node29"><a xlink:href="https://www.itk.org/Doxygen/html/structitk_1_1ImageSourceCommon.html" xlink:title=" ">
<polygon fill="white" stroke="black" points="1454,-226 1454,-245 1597,-245 1597,-226 1454,-226"/>
<text text-anchor="middle" x="1525.5" y="-233" font-family="Helvetica,sans-Serif" font-size="10.00">itk::ImageSourceCommon</text>
</a>
</g>
</g>
<!-- Node29&#45;&gt;Node5 -->
<g id="edge40" class="edge">
<title>Node29&#45;&gt;Node5</title>
<path fill="none" stroke="#8b1a1a" d="M1607.31,-242.15C1620.58,-243.24 1634.26,-244.36 1647.34,-245.44"/>
<polygon fill="#8b1a1a" stroke="#8b1a1a" points="1607.52,-238.65 1597.27,-241.32 1606.95,-245.63 1607.52,-238.65"/>
</g>
<!-- Node30 -->
<g id="node30" class="node">
<title>Node30</title>
<g id="a_node30"><a xlink:href="https://www.itk.org/Doxygen/html/classitk_1_1ImageToImageFilterCommon.html" xlink:title=" ">
<polygon fill="white" stroke="black" points="1634,-198 1634,-217 1810,-217 1810,-198 1634,-198"/>
<text text-anchor="middle" x="1722" y="-205" font-family="Helvetica,sans-Serif" font-size="10.00">itk::ImageToImageFilterCommon</text>
</a>
</g>
</g>
<!-- Node30&#45;&gt;Node4 -->
<g id="edge41" class="edge">
<title>Node30&#45;&gt;Node4</title>
<path fill="none" stroke="#8b1a1a" d="M1820.07,-213.02C1828.99,-213.53 1837.99,-214.04 1846.82,-214.54"/>
<polygon fill="#8b1a1a" stroke="#8b1a1a" points="1820.22,-209.52 1810.04,-212.45 1819.83,-216.51 1820.22,-209.52"/>
</g>
<!-- Node31&#45;&gt;Node2 -->
<g id="edge42" class="edge">
<title>Node31&#45;&gt;Node2</title>
<path fill="none" stroke="orange" stroke-dasharray="5,2" d="M2459.14,-204.56C2506.98,-208.07 2565.52,-212.43 2618,-216.5 2623.85,-216.95 2629.88,-217.43 2635.96,-217.91"/>
<polygon fill="orange" stroke="orange" points="2459.33,-201.06 2449.1,-203.82 2458.82,-208.04 2459.33,-201.06"/>
<text text-anchor="middle" x="2542.5" y="-219.5" font-family="Helvetica,sans-Serif" font-size="10.00"> &lt; TImageType, TImageType &gt;</text>
</g>
<!-- Node32 -->
<g id="node32" class="node">
<title>Node32</title>
<g id="a_node32"><a xlink:href="https://www.itk.org/Doxygen/html/classHashFunction.html" xlink:title=" ">
<polygon fill="white" stroke="black" points="2676.5,-171 2676.5,-190 2759.5,-190 2759.5,-171 2676.5,-171"/>
<text text-anchor="middle" x="2718" y="-178" font-family="Helvetica,sans-Serif" font-size="10.00">HashFunction</text>
</a>
</g>
</g>
<!-- Node32&#45;&gt;Node1 -->
<g id="edge44" class="edge">
<title>Node32&#45;&gt;Node1</title>
<path fill="none" stroke="#9a32cd" stroke-dasharray="5,2" d="M2769.8,-183.05C2813.17,-185.23 2875.5,-188.36 2920.65,-190.62"/>
<polygon fill="#9a32cd" stroke="#9a32cd" points="2769.92,-179.55 2759.75,-182.55 2769.57,-186.54 2769.92,-179.55"/>
<text text-anchor="middle" x="2860.5" y="-193.5" font-family="Helvetica,sans-Serif" font-size="10.00"> m_HashFunction</text>
</g>
</g>
</svg>
