<?xml version="1.0" encoding="UTF-8" standalone="no"?>
<!DOCTYPE svg PUBLIC "-//W3C//DTD SVG 1.1//EN"
 "http://www.w3.org/Graphics/SVG/1.1/DTD/svg11.dtd">
<!-- Generated by graphviz version 2.43.0 (0)
 -->
<!-- Title: itk::simple::ImageSeriesReader Pages: 1 -->
<svg width="1800pt" height="340pt"
 viewBox="0.00 0.00 1800.00 339.54" xmlns="http://www.w3.org/2000/svg" xmlns:xlink="http://www.w3.org/1999/xlink">
<g id="graph0" class="graph" transform="scale(1 1) rotate(0) translate(4 335.54)">
<title>itk::simple::ImageSeriesReader</title>
<polygon fill="white" stroke="transparent" points="-4,4 -4,-335.54 1796,-335.54 1796,4 -4,4"/>
<!-- Node1 -->
<g id="node1" class="node">
<title>Node1</title>
<g id="a_node1"><a xlink:title="Read series of image files into a SimpleITK image.">
<polygon fill="#bfbfbf" stroke="black" points="1657,-200.54 1657,-230.54 1792,-230.54 1792,-200.54 1657,-200.54"/>
<text text-anchor="start" x="1665" y="-218.54" font-family="Helvetica,sans-Serif" font-size="10.00">itk::simple::ImageSeries</text>
<text text-anchor="middle" x="1724.5" y="-207.54" font-family="Helvetica,sans-Serif" font-size="10.00">Reader</text>
</a>
</g>
</g>
<!-- Node2 -->
<g id="node2" class="node">
<title>Node2</title>
<g id="a_node2"><a xlink:href="classitk_1_1simple_1_1ImageReaderBase.html" target="_top" xlink:title="An abstract base class for image readers.">
<polygon fill="white" stroke="black" points="1456,-177.04 1456,-196.04 1620,-196.04 1620,-177.04 1456,-177.04"/>
<text text-anchor="middle" x="1538" y="-184.04" font-family="Helvetica,sans-Serif" font-size="10.00">itk::simple::ImageReaderBase</text>
</a>
</g>
</g>
<!-- Node2&#45;&gt;Node1 -->
<g id="edge1" class="edge">
<title>Node2&#45;&gt;Node1</title>
<path fill="none" stroke="midnightblue" d="M1609.68,-197.65C1625.14,-200.08 1641.45,-202.65 1656.75,-205.05"/>
<polygon fill="midnightblue" stroke="midnightblue" points="1610.09,-194.17 1599.67,-196.08 1609,-201.09 1610.09,-194.17"/>
</g>
<!-- Node3 -->
<g id="node3" class="node">
<title>Node3</title>
<g id="a_node3"><a xlink:href="classitk_1_1simple_1_1ProcessObject.html" target="_top" xlink:title="Base class for SimpleITK classes based on ProcessObject.">
<polygon fill="white" stroke="black" points="1234,-139.04 1234,-158.04 1377,-158.04 1377,-139.04 1234,-139.04"/>
<text text-anchor="middle" x="1305.5" y="-146.04" font-family="Helvetica,sans-Serif" font-size="10.00">itk::simple::ProcessObject</text>
</a>
</g>
</g>
<!-- Node3&#45;&gt;Node2 -->
<g id="edge2" class="edge">
<title>Node3&#45;&gt;Node2</title>
<path fill="none" stroke="midnightblue" d="M1374.47,-159.75C1407.72,-165.23 1447.32,-171.76 1479.11,-177"/>
<polygon fill="midnightblue" stroke="midnightblue" points="1374.8,-156.26 1364.37,-158.08 1373.66,-163.16 1374.8,-156.26"/>
</g>
<!-- Node4 -->
<g id="node4" class="node">
<title>Node4</title>
<g id="a_node4"><a xlink:href="classitk_1_1simple_1_1NonCopyable.html" target="_top" xlink:title="An inheritable class to disable copying of a class.">
<polygon fill="white" stroke="black" points="971,-131.04 971,-150.04 1111,-150.04 1111,-131.04 971,-131.04"/>
<text text-anchor="middle" x="1041" y="-138.04" font-family="Helvetica,sans-Serif" font-size="10.00">itk::simple::NonCopyable</text>
</a>
</g>
</g>
<!-- Node4&#45;&gt;Node3 -->
<g id="edge3" class="edge">
<title>Node4&#45;&gt;Node3</title>
<path fill="none" stroke="darkgreen" d="M1121.71,-142.97C1157.46,-144.06 1199.28,-145.34 1233.88,-146.39"/>
<polygon fill="darkgreen" stroke="darkgreen" points="1121.41,-139.46 1111.31,-142.65 1121.2,-146.46 1121.41,-139.46"/>
</g>
<!-- Node5 -->
<g id="node5" class="node">
<title>Node5</title>
<g id="a_node5"><a target="_parent" xlink:href="https://www.itk.org/Doxygen/html/classitk_1_1ProcessObject.html" xlink:title=" ">
<polygon fill="white" stroke="black" points="989,-221.04 989,-240.04 1093,-240.04 1093,-221.04 989,-221.04"/>
<text text-anchor="middle" x="1041" y="-228.04" font-family="Helvetica,sans-Serif" font-size="10.00">itk::ProcessObject</text>
</a>
</g>
</g>
<!-- Node5&#45;&gt;Node1 -->
<g id="edge25" class="edge">
<title>Node5&#45;&gt;Node1</title>
<path fill="none" stroke="#9a32cd" stroke-dasharray="5,2" d="M1103.22,-229.19C1230.91,-226.38 1524.7,-219.92 1656.9,-217.01"/>
<polygon fill="#9a32cd" stroke="#9a32cd" points="1103.14,-225.7 1093.22,-229.41 1103.3,-232.69 1103.14,-225.7"/>
<text text-anchor="middle" x="1416.5" y="-225.54" font-family="Helvetica,sans-Serif" font-size="10.00"> m_Filter</text>
</g>
<!-- Node5&#45;&gt;Node3 -->
<g id="edge4" class="edge">
<title>Node5&#45;&gt;Node3</title>
<path fill="none" stroke="#9a32cd" stroke-dasharray="5,2" d="M1082.34,-217.94C1135.18,-201.43 1226.67,-172.85 1274.07,-158.05"/>
<polygon fill="#9a32cd" stroke="#9a32cd" points="1081.13,-214.65 1072.63,-220.98 1083.21,-221.33 1081.13,-214.65"/>
<text text-anchor="middle" x="1172.5" y="-205.54" font-family="Helvetica,sans-Serif" font-size="10.00"> m_ActiveProcess</text>
</g>
<!-- Node6 -->
<g id="node6" class="node">
<title>Node6</title>
<g id="a_node6"><a target="_parent" xlink:href="https://www.itk.org/Doxygen/html/classitk_1_1Object.html" xlink:title=" ">
<polygon fill="white" stroke="black" points="696,-236.04 696,-255.04 763,-255.04 763,-236.04 696,-236.04"/>
<text text-anchor="middle" x="729.5" y="-243.04" font-family="Helvetica,sans-Serif" font-size="10.00">itk::Object</text>
</a>
</g>
</g>
<!-- Node6&#45;&gt;Node5 -->
<g id="edge5" class="edge">
<title>Node6&#45;&gt;Node5</title>
<path fill="none" stroke="midnightblue" d="M773.03,-243.48C829.3,-240.75 928.41,-235.95 988.75,-233.03"/>
<polygon fill="midnightblue" stroke="midnightblue" points="772.86,-239.99 763.04,-243.97 773.19,-246.98 772.86,-239.99"/>
</g>
<!-- Node7 -->
<g id="node7" class="node">
<title>Node7</title>
<g id="a_node7"><a target="_parent" xlink:href="https://www.itk.org/Doxygen/html/classitk_1_1LightObject.html" xlink:title=" ">
<polygon fill="white" stroke="black" points="349.5,-231.04 349.5,-250.04 440.5,-250.04 440.5,-231.04 349.5,-231.04"/>
<text text-anchor="middle" x="395" y="-238.04" font-family="Helvetica,sans-Serif" font-size="10.00">itk::LightObject</text>
</a>
</g>
</g>
<!-- Node7&#45;&gt;Node6 -->
<g id="edge6" class="edge">
<title>Node7&#45;&gt;Node6</title>
<path fill="none" stroke="midnightblue" d="M451.2,-241.37C521,-242.42 638.94,-244.2 695.85,-245.05"/>
<polygon fill="midnightblue" stroke="midnightblue" points="450.89,-237.87 440.84,-241.22 450.79,-244.87 450.89,-237.87"/>
</g>
<!-- Node8 -->
<g id="node8" class="node">
<title>Node8</title>
<g id="a_node8"><a target="_parent" xlink:href="https://www.itk.org/Doxygen/html/classitk_1_1TimeStamp.html" xlink:title=" ">
<polygon fill="white" stroke="black" points="349,-307.04 349,-326.04 441,-326.04 441,-307.04 349,-307.04"/>
<text text-anchor="middle" x="395" y="-314.04" font-family="Helvetica,sans-Serif" font-size="10.00">itk::TimeStamp</text>
</a>
</g>
</g>
<!-- Node8&#45;&gt;Node5 -->
<g id="edge13" class="edge">
<title>Node8&#45;&gt;Node5</title>
<path fill="none" stroke="#9a32cd" stroke-dasharray="5,2" d="M451.47,-321.82C460.98,-322.54 470.77,-323.16 480,-323.54 545.28,-326.26 562.05,-330.63 627,-323.54 774.51,-307.45 808.43,-284.95 953,-251.54 968.74,-247.9 986.06,-243.76 1001.06,-240.11"/>
<polygon fill="#9a32cd" stroke="#9a32cd" points="451.54,-318.32 441.3,-321.01 450.99,-325.29 451.54,-318.32"/>
<text text-anchor="middle" x="729.5" y="-323.54" font-family="Helvetica,sans-Serif" font-size="10.00"> m_OutputInformationMTime</text>
</g>
<!-- Node8&#45;&gt;Node6 -->
<g id="edge7" class="edge">
<title>Node8&#45;&gt;Node6</title>
<path fill="none" stroke="#9a32cd" stroke-dasharray="5,2" d="M451.33,-312.46C498.57,-308.13 568.01,-299.75 627,-284.54 655.7,-277.15 687.37,-264.15 707.58,-255.21"/>
<polygon fill="#9a32cd" stroke="#9a32cd" points="450.96,-308.98 441.31,-313.35 451.58,-315.95 450.96,-308.98"/>
<text text-anchor="middle" x="553.5" y="-311.54" font-family="Helvetica,sans-Serif" font-size="10.00"> m_MTime</text>
</g>
<!-- Node9 -->
<g id="node9" class="node">
<title>Node9</title>
<g id="a_node9"><a xlink:title=" ">
<polygon fill="white" stroke="#bfbfbf" points="84,-264.04 84,-283.04 184,-283.04 184,-264.04 84,-264.04"/>
<text text-anchor="middle" x="134" y="-271.04" font-family="Helvetica,sans-Serif" font-size="10.00">std::atomic&lt; T &gt;</text>
</a>
</g>
</g>
<!-- Node9&#45;&gt;Node8 -->
<g id="edge8" class="edge">
<title>Node9&#45;&gt;Node8</title>
<path fill="none" stroke="#9a32cd" stroke-dasharray="5,2" d="M194.05,-283.35C241,-291.14 305.71,-301.88 348.65,-309.01"/>
<polygon fill="#9a32cd" stroke="#9a32cd" points="194.46,-279.87 184.02,-281.68 193.31,-286.77 194.46,-279.87"/>
<text text-anchor="middle" x="257" y="-303.54" font-family="Helvetica,sans-Serif" font-size="10.00"> m_GlobalTimeStamp</text>
</g>
<!-- Node10 -->
<g id="node10" class="node">
<title>Node10</title>
<g id="a_node10"><a xlink:title=" ">
<polygon fill="white" stroke="#bfbfbf" points="0,-98.04 0,-117.04 29,-117.04 29,-98.04 0,-98.04"/>
<text text-anchor="middle" x="14.5" y="-105.04" font-family="Helvetica,sans-Serif" font-size="10.00">T</text>
</a>
</g>
</g>
<!-- Node10&#45;&gt;Node9 -->
<g id="edge9" class="edge">
<title>Node10&#45;&gt;Node9</title>
<path fill="none" stroke="#9a32cd" stroke-dasharray="5,2" d="M28.44,-125.82C53.35,-161.01 107.18,-237.06 126.19,-263.92"/>
<polygon fill="#9a32cd" stroke="#9a32cd" points="31.13,-123.57 22.5,-117.43 25.42,-127.61 31.13,-123.57"/>
<text text-anchor="middle" x="55.5" y="-179.54" font-family="Helvetica,sans-Serif" font-size="10.00"> ptr</text>
</g>
<!-- Node16 -->
<g id="node16" class="node">
<title>Node16</title>
<g id="a_node16"><a xlink:title=" ">
<polygon fill="white" stroke="#bfbfbf" points="344.5,-7.04 344.5,-26.04 445.5,-26.04 445.5,-7.04 344.5,-7.04"/>
<text text-anchor="middle" x="395" y="-14.04" font-family="Helvetica,sans-Serif" font-size="10.00">std::map&lt; K, T &gt;</text>
</a>
</g>
</g>
<!-- Node10&#45;&gt;Node16 -->
<g id="edge19" class="edge">
<title>Node10&#45;&gt;Node16</title>
<path fill="none" stroke="#9a32cd" stroke-dasharray="5,2" d="M39.37,-110.42C92.71,-115.58 223.66,-121.13 310,-64.54 322.69,-56.23 315.9,-44.7 328,-35.54 333.13,-31.66 339.04,-28.57 345.16,-26.11"/>
<polygon fill="#9a32cd" stroke="#9a32cd" points="39.52,-106.91 29.21,-109.34 38.79,-113.88 39.52,-106.91"/>
<text text-anchor="middle" x="134" y="-116.54" font-family="Helvetica,sans-Serif" font-size="10.00"> elements</text>
</g>
<!-- Node11 -->
<g id="node11" class="node">
<title>Node11</title>
<g id="a_node11"><a target="_parent" xlink:href="https://www.itk.org/Doxygen/html/classitk_1_1MetaDataDictionary.html" xlink:title=" ">
<polygon fill="white" stroke="black" points="328,-269.04 328,-288.04 462,-288.04 462,-269.04 328,-269.04"/>
<text text-anchor="middle" x="395" y="-276.04" font-family="Helvetica,sans-Serif" font-size="10.00">itk::MetaDataDictionary</text>
</a>
</g>
</g>
<!-- Node11&#45;&gt;Node6 -->
<g id="edge10" class="edge">
<title>Node11&#45;&gt;Node6</title>
<path fill="none" stroke="#9a32cd" stroke-dasharray="5,2" d="M472.22,-271.53C517.26,-267.33 575.39,-261.8 627,-256.54 649.92,-254.21 675.74,-251.41 695.6,-249.22"/>
<polygon fill="#9a32cd" stroke="#9a32cd" points="471.87,-268.05 462.24,-272.46 472.52,-275.02 471.87,-268.05"/>
<text text-anchor="middle" x="553.5" y="-272.54" font-family="Helvetica,sans-Serif" font-size="10.00"> m_MetaDataDictionary</text>
</g>
<!-- Node12 -->
<g id="node12" class="node">
<title>Node12</title>
<g id="a_node12"><a xlink:title=" ">
<polygon fill="white" stroke="#bfbfbf" points="362.5,-164.04 362.5,-183.04 427.5,-183.04 427.5,-164.04 362.5,-164.04"/>
<text text-anchor="middle" x="395" y="-171.04" font-family="Helvetica,sans-Serif" font-size="10.00">std::string</text>
</a>
</g>
</g>
<!-- Node12&#45;&gt;Node2 -->
<g id="edge24" class="edge">
<title>Node12&#45;&gt;Node2</title>
<path fill="none" stroke="#9a32cd" stroke-dasharray="5,2" d="M437.94,-176.23C500.98,-180.04 623.92,-186.54 728.5,-186.54 728.5,-186.54 728.5,-186.54 1306.5,-186.54 1356.12,-186.54 1411.75,-186.54 1455.93,-186.54"/>
<polygon fill="#9a32cd" stroke="#9a32cd" points="437.81,-172.72 427.62,-175.6 437.38,-179.71 437.81,-172.72"/>
<text text-anchor="middle" x="1041" y="-189.54" font-family="Helvetica,sans-Serif" font-size="10.00"> m_ImageIOName</text>
</g>
<!-- Node12&#45;&gt;Node6 -->
<g id="edge11" class="edge">
<title>Node12&#45;&gt;Node6</title>
<path fill="none" stroke="#9a32cd" stroke-dasharray="5,2" d="M436.59,-185.91C450.31,-189.89 465.76,-194.14 480,-197.54 500.78,-202.51 633.43,-227.64 695.96,-239.42"/>
<polygon fill="#9a32cd" stroke="#9a32cd" points="437.53,-182.54 426.94,-183.08 435.55,-189.26 437.53,-182.54"/>
<text text-anchor="middle" x="553.5" y="-227.54" font-family="Helvetica,sans-Serif" font-size="10.00"> m_ObjectName</text>
</g>
<!-- Node14 -->
<g id="node14" class="node">
<title>Node14</title>
<g id="a_node14"><a xlink:title=" ">
<polygon fill="white" stroke="#bfbfbf" points="645,-78.54 645,-108.54 814,-108.54 814,-78.54 645,-78.54"/>
<text text-anchor="start" x="653" y="-96.54" font-family="Helvetica,sans-Serif" font-size="10.00">std::map&lt; DataObjectIdentifier</text>
<text text-anchor="middle" x="729.5" y="-85.54" font-family="Helvetica,sans-Serif" font-size="10.00">Type, DataObjectPointer &gt;</text>
</a>
</g>
</g>
<!-- Node12&#45;&gt;Node14 -->
<g id="edge15" class="edge">
<title>Node12&#45;&gt;Node14</title>
<path fill="none" stroke="#9a32cd" stroke-dasharray="5,2" d="M422.04,-159.21C438.27,-150.85 459.84,-140.76 480,-134.54 510.08,-125.27 584.95,-113.45 644.7,-104.89"/>
<polygon fill="#9a32cd" stroke="#9a32cd" points="420.37,-156.14 413.15,-163.89 423.63,-162.33 420.37,-156.14"/>
<text text-anchor="middle" x="553.5" y="-137.54" font-family="Helvetica,sans-Serif" font-size="10.00"> keys</text>
</g>
<!-- Node18 -->
<g id="node18" class="node">
<title>Node18</title>
<g id="a_node18"><a xlink:title=" ">
<polygon fill="white" stroke="#bfbfbf" points="648.5,-127.54 648.5,-157.54 810.5,-157.54 810.5,-127.54 648.5,-127.54"/>
<text text-anchor="start" x="656.5" y="-145.54" font-family="Helvetica,sans-Serif" font-size="10.00">std::set&lt; DataObjectIdentifier</text>
<text text-anchor="middle" x="729.5" y="-134.54" font-family="Helvetica,sans-Serif" font-size="10.00">Type &gt;</text>
</a>
</g>
</g>
<!-- Node12&#45;&gt;Node18 -->
<g id="edge21" class="edge">
<title>Node12&#45;&gt;Node18</title>
<path fill="none" stroke="#9a32cd" stroke-dasharray="5,2" d="M437.79,-167.02C451.24,-165.07 466.23,-163.05 480,-161.54 536.13,-155.39 599.61,-150.58 648.36,-147.33"/>
<polygon fill="#9a32cd" stroke="#9a32cd" points="437.23,-163.57 427.85,-168.49 438.25,-170.49 437.23,-163.57"/>
<text text-anchor="middle" x="553.5" y="-164.54" font-family="Helvetica,sans-Serif" font-size="10.00"> keys</text>
</g>
<!-- Node13 -->
<g id="node13" class="node">
<title>Node13</title>
<g id="a_node13"><a xlink:title=" ">
<polygon fill="white" stroke="#bfbfbf" points="82,-158.54 82,-188.54 186,-188.54 186,-158.54 82,-158.54"/>
<text text-anchor="start" x="90" y="-176.54" font-family="Helvetica,sans-Serif" font-size="10.00">std::basic_string&lt;</text>
<text text-anchor="middle" x="134" y="-165.54" font-family="Helvetica,sans-Serif" font-size="10.00"> Char &gt;</text>
</a>
</g>
</g>
<!-- Node13&#45;&gt;Node12 -->
<g id="edge12" class="edge">
<title>Node13&#45;&gt;Node12</title>
<path fill="none" stroke="midnightblue" d="M196.32,-173.54C248.51,-173.54 321.37,-173.54 362.49,-173.54"/>
<polygon fill="midnightblue" stroke="midnightblue" points="196.17,-170.04 186.17,-173.54 196.17,-177.04 196.17,-170.04"/>
</g>
<!-- Node14&#45;&gt;Node5 -->
<g id="edge14" class="edge">
<title>Node14&#45;&gt;Node5</title>
<path fill="none" stroke="#9a32cd" stroke-dasharray="5,2" d="M824.34,-95.98C868.26,-101.77 918.39,-115.71 953,-147.54 971.62,-164.67 953.81,-182.99 971,-201.54 979.21,-210.41 990.57,-216.66 1001.69,-221.02"/>
<polygon fill="#9a32cd" stroke="#9a32cd" points="824.55,-92.48 814.2,-94.77 823.72,-99.43 824.55,-92.48"/>
<text text-anchor="middle" x="892.5" y="-161.54" font-family="Helvetica,sans-Serif" font-size="10.00"> m_Inputs</text>
<text text-anchor="middle" x="892.5" y="-150.54" font-family="Helvetica,sans-Serif" font-size="10.00">m_Outputs</text>
</g>
<!-- Node15 -->
<g id="node15" class="node">
<title>Node15</title>
<g id="a_node15"><a target="_parent" xlink:href="https://www.itk.org/Doxygen/html/classitk_1_1SmartPointer.html" xlink:title=" ">
<polygon fill="white" stroke="black" points="334,-83.04 334,-102.04 456,-102.04 456,-83.04 334,-83.04"/>
<text text-anchor="middle" x="395" y="-90.04" font-family="Helvetica,sans-Serif" font-size="10.00">SmartPointer&lt; Self &gt;</text>
</a>
</g>
</g>
<!-- Node15&#45;&gt;Node14 -->
<g id="edge16" class="edge">
<title>Node15&#45;&gt;Node14</title>
<path fill="none" stroke="#9a32cd" stroke-dasharray="5,2" d="M466.38,-92.75C518.57,-92.91 589.9,-93.13 644.98,-93.29"/>
<polygon fill="#9a32cd" stroke="#9a32cd" points="466.22,-89.25 456.21,-92.72 466.2,-96.25 466.22,-89.25"/>
<text text-anchor="middle" x="553.5" y="-96.54" font-family="Helvetica,sans-Serif" font-size="10.00"> elements</text>
</g>
<!-- Node16&#45;&gt;Node14 -->
<g id="edge17" class="edge">
<title>Node16&#45;&gt;Node14</title>
<path fill="none" stroke="orange" stroke-dasharray="5,2" d="M454.55,-5.5C502.3,1.04 570.81,4.75 627,-14.54 663.75,-27.16 697.43,-59.12 715.24,-78.3"/>
<polygon fill="orange" stroke="orange" points="453.78,-2.08 444.38,-6.98 454.78,-9 453.78,-2.08"/>
<text text-anchor="start" x="484" y="-28.54" font-family="Helvetica,sans-Serif" font-size="10.00"> &lt; DataObjectIdentifierType,</text>
<text text-anchor="middle" x="553.5" y="-17.54" font-family="Helvetica,sans-Serif" font-size="10.00"> DataObjectPointer &gt;</text>
</g>
<!-- Node17 -->
<g id="node17" class="node">
<title>Node17</title>
<g id="a_node17"><a xlink:title=" ">
<polygon fill="white" stroke="#bfbfbf" points="119.5,-29.04 119.5,-48.04 148.5,-48.04 148.5,-29.04 119.5,-29.04"/>
<text text-anchor="middle" x="134" y="-36.04" font-family="Helvetica,sans-Serif" font-size="10.00">K</text>
</a>
</g>
</g>
<!-- Node17&#45;&gt;Node16 -->
<g id="edge18" class="edge">
<title>Node17&#45;&gt;Node16</title>
<path fill="none" stroke="#9a32cd" stroke-dasharray="5,2" d="M158.89,-34.59C172.15,-32.53 188.95,-30.11 204,-28.54 251.5,-23.61 305.92,-20.42 344.3,-18.58"/>
<polygon fill="#9a32cd" stroke="#9a32cd" points="158.03,-31.19 148.71,-36.22 159.13,-38.1 158.03,-31.19"/>
<text text-anchor="middle" x="257" y="-31.54" font-family="Helvetica,sans-Serif" font-size="10.00"> keys</text>
</g>
<!-- Node19 -->
<g id="node19" class="node">
<title>Node19</title>
<g id="a_node19"><a xlink:title=" ">
<polygon fill="white" stroke="#bfbfbf" points="354,-45.04 354,-64.04 436,-64.04 436,-45.04 354,-45.04"/>
<text text-anchor="middle" x="395" y="-52.04" font-family="Helvetica,sans-Serif" font-size="10.00">std::set&lt; K &gt;</text>
</a>
</g>
</g>
<!-- Node17&#45;&gt;Node19 -->
<g id="edge23" class="edge">
<title>Node17&#45;&gt;Node19</title>
<path fill="none" stroke="#9a32cd" stroke-dasharray="5,2" d="M158.67,-40C203.04,-42.75 299.15,-48.68 353.83,-52.06"/>
<polygon fill="#9a32cd" stroke="#9a32cd" points="158.76,-36.5 148.56,-39.38 158.33,-43.49 158.76,-36.5"/>
<text text-anchor="middle" x="257" y="-52.54" font-family="Helvetica,sans-Serif" font-size="10.00"> keys</text>
</g>
<!-- Node18&#45;&gt;Node5 -->
<g id="edge20" class="edge">
<title>Node18&#45;&gt;Node5</title>
<path fill="none" stroke="#9a32cd" stroke-dasharray="5,2" d="M793,-160.31C857.42,-178.63 955.44,-206.5 1006.47,-221.01"/>
<polygon fill="#9a32cd" stroke="#9a32cd" points="793.93,-156.94 783.35,-157.57 792.01,-163.67 793.93,-156.94"/>
<text text-anchor="middle" x="892.5" y="-207.54" font-family="Helvetica,sans-Serif" font-size="10.00"> m_RequiredInputNames</text>
</g>
<!-- Node19&#45;&gt;Node18 -->
<g id="edge22" class="edge">
<title>Node19&#45;&gt;Node18</title>
<path fill="none" stroke="orange" stroke-dasharray="5,2" d="M446.09,-46.39C496.53,-41.02 574.23,-40.79 627,-78.54 642.53,-89.65 630.58,-105.03 645,-117.54 649.46,-121.41 654.49,-124.68 659.83,-127.44"/>
<polygon fill="orange" stroke="orange" points="445.6,-42.93 436.07,-47.57 446.41,-49.88 445.6,-42.93"/>
<text text-anchor="middle" x="553.5" y="-81.54" font-family="Helvetica,sans-Serif" font-size="10.00"> &lt; DataObjectIdentifierType &gt;</text>
</g>
</g>
</svg>
