<?xml version="1.0" encoding="UTF-8" standalone="no"?>
<!DOCTYPE svg PUBLIC "-//W3C//DTD SVG 1.1//EN"
 "http://www.w3.org/Graphics/SVG/1.1/DTD/svg11.dtd">
<!-- Generated by graphviz version 2.43.0 (0)
 -->
<!-- Title: itk::simple::NonCopyable Pages: 1 -->
<svg width="762pt" height="1705pt"
 viewBox="0.00 0.00 762.00 1705.00" xmlns="http://www.w3.org/2000/svg" xmlns:xlink="http://www.w3.org/1999/xlink">
<g id="graph0" class="graph" transform="scale(1 1) rotate(0) translate(4 1701)">
<title>itk::simple::NonCopyable</title>
<polygon fill="white" stroke="transparent" points="-4,4 -4,-1701 758,-1701 758,4 -4,4"/>
<!-- Node1 -->
<g id="node1" class="node">
<title>Node1</title>
<g id="a_node1"><a xlink:title="An inheritable class to disable copying of a class.">
<polygon fill="#bfbfbf" stroke="black" points="0,-1412 0,-1431 140,-1431 140,-1412 0,-1412"/>
<text text-anchor="middle" x="70" y="-1419" font-family="Helvetica,sans-Serif" font-size="10.00">itk::simple::NonCopyable</text>
</a>
</g>
</g>
<!-- Node2 -->
<g id="node2" class="node">
<title>Node2</title>
<g id="a_node2"><a xlink:href="classitk_1_1simple_1_1detail_1_1MemberFunctionFactoryBase_3_01TMemberFunctionPointer_00_01TKey_00_010_01_4.html" target="_top" xlink:title=" ">
<polygon fill="white" stroke="black" points="176,-1644.5 176,-1696.5 340,-1696.5 340,-1644.5 176,-1644.5"/>
<text text-anchor="start" x="184" y="-1684.5" font-family="Helvetica,sans-Serif" font-size="10.00">itk::simple::detail</text>
<text text-anchor="start" x="184" y="-1673.5" font-family="Helvetica,sans-Serif" font-size="10.00">::MemberFunctionFactoryBase</text>
<text text-anchor="start" x="184" y="-1662.5" font-family="Helvetica,sans-Serif" font-size="10.00">&lt; TMemberFunctionPointer,</text>
<text text-anchor="middle" x="258" y="-1651.5" font-family="Helvetica,sans-Serif" font-size="10.00"> TKey, 0 &gt;</text>
</a>
</g>
</g>
<!-- Node1&#45;&gt;Node2 -->
<g id="edge1" class="edge">
<title>Node1&#45;&gt;Node2</title>
<path fill="none" stroke="darkgreen" d="M75.61,-1440.86C86.35,-1482.01 116.72,-1579.01 176,-1635.5 179.33,-1638.67 182.99,-1641.58 186.86,-1644.24"/>
<polygon fill="darkgreen" stroke="darkgreen" points="78.98,-1439.87 73.15,-1431.02 72.19,-1441.58 78.98,-1439.87"/>
</g>
<!-- Node3 -->
<g id="node3" class="node">
<title>Node3</title>
<g id="a_node3"><a xlink:href="classitk_1_1simple_1_1detail_1_1MemberFunctionFactoryBase_3_01TMemberFunctionPointer_00_01TKey_00_011_01_4.html" target="_top" xlink:title=" ">
<polygon fill="white" stroke="black" points="176,-1573.5 176,-1625.5 340,-1625.5 340,-1573.5 176,-1573.5"/>
<text text-anchor="start" x="184" y="-1613.5" font-family="Helvetica,sans-Serif" font-size="10.00">itk::simple::detail</text>
<text text-anchor="start" x="184" y="-1602.5" font-family="Helvetica,sans-Serif" font-size="10.00">::MemberFunctionFactoryBase</text>
<text text-anchor="start" x="184" y="-1591.5" font-family="Helvetica,sans-Serif" font-size="10.00">&lt; TMemberFunctionPointer,</text>
<text text-anchor="middle" x="258" y="-1580.5" font-family="Helvetica,sans-Serif" font-size="10.00"> TKey, 1 &gt;</text>
</a>
</g>
</g>
<!-- Node1&#45;&gt;Node3 -->
<g id="edge2" class="edge">
<title>Node1&#45;&gt;Node3</title>
<path fill="none" stroke="darkgreen" d="M80.44,-1440.17C96.41,-1470.08 131.41,-1528.98 176,-1564.5 179.95,-1567.65 184.23,-1570.57 188.69,-1573.27"/>
<polygon fill="darkgreen" stroke="darkgreen" points="83.5,-1438.46 75.77,-1431.21 77.29,-1441.69 83.5,-1438.46"/>
</g>
<!-- Node4 -->
<g id="node4" class="node">
<title>Node4</title>
<g id="a_node4"><a xlink:href="classitk_1_1simple_1_1detail_1_1MemberFunctionFactoryBase_3_01TMemberFunctionPointer_00_01TKey_00_012_01_4.html" target="_top" xlink:title=" ">
<polygon fill="white" stroke="black" points="176,-1502.5 176,-1554.5 340,-1554.5 340,-1502.5 176,-1502.5"/>
<text text-anchor="start" x="184" y="-1542.5" font-family="Helvetica,sans-Serif" font-size="10.00">itk::simple::detail</text>
<text text-anchor="start" x="184" y="-1531.5" font-family="Helvetica,sans-Serif" font-size="10.00">::MemberFunctionFactoryBase</text>
<text text-anchor="start" x="184" y="-1520.5" font-family="Helvetica,sans-Serif" font-size="10.00">&lt; TMemberFunctionPointer,</text>
<text text-anchor="middle" x="258" y="-1509.5" font-family="Helvetica,sans-Serif" font-size="10.00"> TKey, 2 &gt;</text>
</a>
</g>
</g>
<!-- Node1&#45;&gt;Node4 -->
<g id="edge3" class="edge">
<title>Node1&#45;&gt;Node4</title>
<path fill="none" stroke="darkgreen" d="M91.45,-1437.29C112.08,-1452.78 145.19,-1476.49 176,-1493.5 181.5,-1496.54 187.31,-1499.5 193.2,-1502.33"/>
<polygon fill="darkgreen" stroke="darkgreen" points="93.5,-1434.45 83.42,-1431.2 89.27,-1440.03 93.5,-1434.45"/>
</g>
<!-- Node5 -->
<g id="node5" class="node">
<title>Node5</title>
<g id="a_node5"><a xlink:href="classitk_1_1simple_1_1detail_1_1MemberFunctionFactoryBase_3_01TMemberFunctionPointer_00_01TKey_00_013_01_4.html" target="_top" xlink:title=" ">
<polygon fill="white" stroke="black" points="176,-1431.5 176,-1483.5 340,-1483.5 340,-1431.5 176,-1431.5"/>
<text text-anchor="start" x="184" y="-1471.5" font-family="Helvetica,sans-Serif" font-size="10.00">itk::simple::detail</text>
<text text-anchor="start" x="184" y="-1460.5" font-family="Helvetica,sans-Serif" font-size="10.00">::MemberFunctionFactoryBase</text>
<text text-anchor="start" x="184" y="-1449.5" font-family="Helvetica,sans-Serif" font-size="10.00">&lt; TMemberFunctionPointer,</text>
<text text-anchor="middle" x="258" y="-1438.5" font-family="Helvetica,sans-Serif" font-size="10.00"> TKey, 3 &gt;</text>
</a>
</g>
</g>
<!-- Node1&#45;&gt;Node5 -->
<g id="edge4" class="edge">
<title>Node1&#45;&gt;Node5</title>
<path fill="none" stroke="darkgreen" d="M130.58,-1433.03C144.96,-1435.82 160.57,-1438.84 175.75,-1441.77"/>
<polygon fill="darkgreen" stroke="darkgreen" points="130.84,-1429.52 120.36,-1431.05 129.51,-1436.39 130.84,-1429.52"/>
</g>
<!-- Node6 -->
<g id="node6" class="node">
<title>Node6</title>
<g id="a_node6"><a xlink:href="classitk_1_1simple_1_1detail_1_1MemberFunctionFactoryBase_3_01TMemberFunctionPointer_00_01TKey_00_014_01_4.html" target="_top" xlink:title=" ">
<polygon fill="white" stroke="black" points="176,-1360.5 176,-1412.5 340,-1412.5 340,-1360.5 176,-1360.5"/>
<text text-anchor="start" x="184" y="-1400.5" font-family="Helvetica,sans-Serif" font-size="10.00">itk::simple::detail</text>
<text text-anchor="start" x="184" y="-1389.5" font-family="Helvetica,sans-Serif" font-size="10.00">::MemberFunctionFactoryBase</text>
<text text-anchor="start" x="184" y="-1378.5" font-family="Helvetica,sans-Serif" font-size="10.00">&lt; TMemberFunctionPointer,</text>
<text text-anchor="middle" x="258" y="-1367.5" font-family="Helvetica,sans-Serif" font-size="10.00"> TKey, 4 &gt;</text>
</a>
</g>
</g>
<!-- Node1&#45;&gt;Node6 -->
<g id="edge5" class="edge">
<title>Node1&#45;&gt;Node6</title>
<path fill="none" stroke="darkgreen" d="M131.83,-1410.05C145.88,-1407.41 161.05,-1404.56 175.81,-1401.78"/>
<polygon fill="darkgreen" stroke="darkgreen" points="131.01,-1406.65 121.83,-1411.94 132.3,-1413.53 131.01,-1406.65"/>
</g>
<!-- Node7 -->
<g id="node7" class="node">
<title>Node7</title>
<g id="a_node7"><a xlink:href="classitk_1_1simple_1_1detail_1_1MemberFunctionFactoryBase_3_01TMemberFunctionPointer_00_01TKey_00_015_01_4.html" target="_top" xlink:title=" ">
<polygon fill="white" stroke="black" points="176,-1289.5 176,-1341.5 340,-1341.5 340,-1289.5 176,-1289.5"/>
<text text-anchor="start" x="184" y="-1329.5" font-family="Helvetica,sans-Serif" font-size="10.00">itk::simple::detail</text>
<text text-anchor="start" x="184" y="-1318.5" font-family="Helvetica,sans-Serif" font-size="10.00">::MemberFunctionFactoryBase</text>
<text text-anchor="start" x="184" y="-1307.5" font-family="Helvetica,sans-Serif" font-size="10.00">&lt; TMemberFunctionPointer,</text>
<text text-anchor="middle" x="258" y="-1296.5" font-family="Helvetica,sans-Serif" font-size="10.00"> TKey, 5 &gt;</text>
</a>
</g>
</g>
<!-- Node1&#45;&gt;Node7 -->
<g id="edge6" class="edge">
<title>Node1&#45;&gt;Node7</title>
<path fill="none" stroke="darkgreen" d="M91.9,-1406.02C112.63,-1391.05 145.6,-1368.23 176,-1351.5 182.2,-1348.09 188.79,-1344.74 195.43,-1341.54"/>
<polygon fill="darkgreen" stroke="darkgreen" points="89.83,-1403.2 83.81,-1411.92 93.95,-1408.86 89.83,-1403.2"/>
</g>
<!-- Node8 -->
<g id="node8" class="node">
<title>Node8</title>
<g id="a_node8"><a xlink:href="classitk_1_1simple_1_1ObjectOwnedBase.html" target="_top" xlink:title="An abstract base class to connect this object with the lifetime of another.">
<polygon fill="white" stroke="black" points="176,-1251 176,-1270 340,-1270 340,-1251 176,-1251"/>
<text text-anchor="middle" x="258" y="-1258" font-family="Helvetica,sans-Serif" font-size="10.00">itk::simple::ObjectOwnedBase</text>
</a>
</g>
</g>
<!-- Node1&#45;&gt;Node8 -->
<g id="edge7" class="edge">
<title>Node1&#45;&gt;Node8</title>
<path fill="none" stroke="midnightblue" d="M79.66,-1402.67C94.72,-1372.1 128.72,-1311.91 176,-1280.5 182.52,-1276.17 189.89,-1272.78 197.46,-1270.12"/>
<polygon fill="midnightblue" stroke="midnightblue" points="76.44,-1401.29 75.28,-1411.82 82.75,-1404.31 76.44,-1401.29"/>
</g>
<!-- Node13 -->
<g id="node13" class="node">
<title>Node13</title>
<g id="a_node13"><a xlink:href="classitk_1_1simple_1_1ProcessObject.html" target="_top" xlink:title="Base class for SimpleITK classes based on ProcessObject.">
<polygon fill="white" stroke="black" points="186.5,-722 186.5,-741 329.5,-741 329.5,-722 186.5,-722"/>
<text text-anchor="middle" x="258" y="-729" font-family="Helvetica,sans-Serif" font-size="10.00">itk::simple::ProcessObject</text>
</a>
</g>
</g>
<!-- Node1&#45;&gt;Node13 -->
<g id="edge12" class="edge">
<title>Node1&#45;&gt;Node13</title>
<path fill="none" stroke="darkgreen" d="M76.26,-1401.99C104.13,-1298.61 234.05,-816.64 254.33,-741.39"/>
<polygon fill="darkgreen" stroke="darkgreen" points="72.85,-1401.18 73.63,-1411.75 79.61,-1403 72.85,-1401.18"/>
</g>
<!-- Node9 -->
<g id="node9" class="node">
<title>Node9</title>
<g id="a_node9"><a xlink:href="classitk_1_1simple_1_1Command.html" target="_top" xlink:title="An implementation of the Command design pattern for callback.">
<polygon fill="white" stroke="black" points="397,-1289 397,-1308 522,-1308 522,-1289 397,-1289"/>
<text text-anchor="middle" x="459.5" y="-1296" font-family="Helvetica,sans-Serif" font-size="10.00">itk::simple::Command</text>
</a>
</g>
</g>
<!-- Node8&#45;&gt;Node9 -->
<g id="edge8" class="edge">
<title>Node8&#45;&gt;Node9</title>
<path fill="none" stroke="midnightblue" d="M318.95,-1271.92C347.49,-1277.36 381.24,-1283.78 408.39,-1288.96"/>
<polygon fill="midnightblue" stroke="midnightblue" points="319.56,-1268.47 309.08,-1270.04 318.25,-1275.35 319.56,-1268.47"/>
</g>
<!-- Node11 -->
<g id="node11" class="node">
<title>Node11</title>
<g id="a_node11"><a xlink:href="classitk_1_1simple_1_1LoggerBase.html" target="_top" xlink:title="A base class to handle SimpleITK and ITK messages and logging.">
<polygon fill="white" stroke="black" points="394,-1251 394,-1270 525,-1270 525,-1251 394,-1251"/>
<text text-anchor="middle" x="459.5" y="-1258" font-family="Helvetica,sans-Serif" font-size="10.00">itk::simple::LoggerBase</text>
</a>
</g>
</g>
<!-- Node8&#45;&gt;Node11 -->
<g id="edge10" class="edge">
<title>Node8&#45;&gt;Node11</title>
<path fill="none" stroke="midnightblue" d="M350.29,-1260.5C365.02,-1260.5 380,-1260.5 393.93,-1260.5"/>
<polygon fill="midnightblue" stroke="midnightblue" points="350.14,-1257 340.14,-1260.5 350.14,-1264 350.14,-1257"/>
</g>
<!-- Node10 -->
<g id="node10" class="node">
<title>Node10</title>
<g id="a_node10"><a xlink:href="classitk_1_1simple_1_1FunctionCommand.html" target="_top" xlink:title="A Command class which allows setting an external function, or member function.">
<polygon fill="white" stroke="black" points="583.5,-1289 583.5,-1308 749.5,-1308 749.5,-1289 583.5,-1289"/>
<text text-anchor="middle" x="666.5" y="-1296" font-family="Helvetica,sans-Serif" font-size="10.00">itk::simple::FunctionCommand</text>
</a>
</g>
</g>
<!-- Node9&#45;&gt;Node10 -->
<g id="edge9" class="edge">
<title>Node9&#45;&gt;Node10</title>
<path fill="none" stroke="midnightblue" d="M532.11,-1298.5C548.6,-1298.5 566.27,-1298.5 583.17,-1298.5"/>
<polygon fill="midnightblue" stroke="midnightblue" points="532.01,-1295 522.01,-1298.5 532.01,-1302 532.01,-1295"/>
</g>
<!-- Node12 -->
<g id="node12" class="node">
<title>Node12</title>
<g id="a_node12"><a xlink:href="classitk_1_1simple_1_1SITK__FINAL.html" target="_top" xlink:title=" ">
<polygon fill="white" stroke="black" points="601.5,-1251 601.5,-1270 731.5,-1270 731.5,-1251 601.5,-1251"/>
<text text-anchor="middle" x="666.5" y="-1258" font-family="Helvetica,sans-Serif" font-size="10.00">itk::simple::SITK_FINAL</text>
</a>
</g>
</g>
<!-- Node11&#45;&gt;Node12 -->
<g id="edge11" class="edge">
<title>Node11&#45;&gt;Node12</title>
<path fill="none" stroke="midnightblue" d="M535.21,-1260.5C556.86,-1260.5 580.3,-1260.5 601.24,-1260.5"/>
<polygon fill="midnightblue" stroke="midnightblue" points="535.08,-1257 525.08,-1260.5 535.08,-1264 535.08,-1257"/>
</g>
<!-- Node14 -->
<g id="node14" class="node">
<title>Node14</title>
<g id="a_node14"><a xlink:href="classitk_1_1simple_1_1BSplineTransformInitializerFilter.html" target="_top" xlink:title="BSplineTransformInitializerFilter is a helper class intended to initialize the control point grid suc...">
<polygon fill="white" stroke="black" points="379.5,-877.5 379.5,-907.5 539.5,-907.5 539.5,-877.5 379.5,-877.5"/>
<text text-anchor="start" x="387.5" y="-895.5" font-family="Helvetica,sans-Serif" font-size="10.00">itk::simple::BSplineTransform</text>
<text text-anchor="middle" x="459.5" y="-884.5" font-family="Helvetica,sans-Serif" font-size="10.00">InitializerFilter</text>
</a>
</g>
</g>
<!-- Node13&#45;&gt;Node14 -->
<g id="edge13" class="edge">
<title>Node13&#45;&gt;Node14</title>
<path fill="none" stroke="midnightblue" d="M269.77,-749.99C287.9,-779.49 327.37,-837.09 376,-868.5 381.26,-871.9 387.02,-874.83 392.97,-877.35"/>
<polygon fill="midnightblue" stroke="midnightblue" points="272.6,-747.91 264.45,-741.14 266.6,-751.51 272.6,-747.91"/>
</g>
<!-- Node15 -->
<g id="node15" class="node">
<title>Node15</title>
<g id="a_node15"><a xlink:href="classitk_1_1simple_1_1CenteredTransformInitializerFilter.html" target="_top" xlink:title="CenteredTransformInitializerFilter is a helper class intended to initialize the center of rotation an...">
<polygon fill="white" stroke="black" points="376,-828.5 376,-858.5 543,-858.5 543,-828.5 376,-828.5"/>
<text text-anchor="start" x="384" y="-846.5" font-family="Helvetica,sans-Serif" font-size="10.00">itk::simple::CenteredTransform</text>
<text text-anchor="middle" x="459.5" y="-835.5" font-family="Helvetica,sans-Serif" font-size="10.00">InitializerFilter</text>
</a>
</g>
</g>
<!-- Node13&#45;&gt;Node15 -->
<g id="edge14" class="edge">
<title>Node13&#45;&gt;Node15</title>
<path fill="none" stroke="midnightblue" d="M276.56,-747.99C298.33,-767.61 337.3,-800.14 376,-819.5 382.67,-822.84 389.88,-825.79 397.17,-828.37"/>
<polygon fill="midnightblue" stroke="midnightblue" points="278.84,-745.33 269.1,-741.16 274.11,-750.49 278.84,-745.33"/>
</g>
<!-- Node16 -->
<g id="node16" class="node">
<title>Node16</title>
<g id="a_node16"><a xlink:href="classitk_1_1simple_1_1CenteredVersorTransformInitializerFilter.html" target="_top" xlink:title="CenteredVersorTransformInitializerFilter is a helper class intended to initialize the center of rotat...">
<polygon fill="white" stroke="black" points="385,-779.5 385,-809.5 534,-809.5 534,-779.5 385,-779.5"/>
<text text-anchor="start" x="393" y="-797.5" font-family="Helvetica,sans-Serif" font-size="10.00">itk::simple::CenteredVersor</text>
<text text-anchor="middle" x="459.5" y="-786.5" font-family="Helvetica,sans-Serif" font-size="10.00">TransformInitializerFilter</text>
</a>
</g>
</g>
<!-- Node13&#45;&gt;Node16 -->
<g id="edge15" class="edge">
<title>Node13&#45;&gt;Node16</title>
<path fill="none" stroke="midnightblue" d="M297.45,-744.2C320.25,-751.68 349.73,-761.25 376,-769.5 386.42,-772.77 397.61,-776.21 408.28,-779.45"/>
<polygon fill="midnightblue" stroke="midnightblue" points="298.39,-740.83 287.8,-741.03 296.21,-747.48 298.39,-740.83"/>
</g>
<!-- Node17 -->
<g id="node17" class="node">
<title>Node17</title>
<g id="a_node17"><a xlink:href="classitk_1_1simple_1_1HashImageFilter.html" target="_top" xlink:title="Compute the sha1 or md5 hash of an image.">
<polygon fill="white" stroke="black" points="382,-741 382,-760 537,-760 537,-741 382,-741"/>
<text text-anchor="middle" x="459.5" y="-748" font-family="Helvetica,sans-Serif" font-size="10.00">itk::simple::HashImageFilter</text>
</a>
</g>
</g>
<!-- Node13&#45;&gt;Node17 -->
<g id="edge16" class="edge">
<title>Node13&#45;&gt;Node17</title>
<path fill="none" stroke="midnightblue" d="M339.66,-739.18C353.6,-740.51 368.05,-741.89 381.88,-743.2"/>
<polygon fill="midnightblue" stroke="midnightblue" points="339.9,-735.69 329.62,-738.23 339.24,-742.66 339.9,-735.69"/>
</g>
<!-- Node18 -->
<g id="node18" class="node">
<title>Node18</title>
<g id="a_node18"><a xlink:href="classitk_1_1simple_1_1ImageFileWriter.html" target="_top" xlink:title="Write out a SimpleITK image to the specified file location.">
<polygon fill="white" stroke="black" points="383.5,-703 383.5,-722 535.5,-722 535.5,-703 383.5,-703"/>
<text text-anchor="middle" x="459.5" y="-710" font-family="Helvetica,sans-Serif" font-size="10.00">itk::simple::ImageFileWriter</text>
</a>
</g>
</g>
<!-- Node13&#45;&gt;Node18 -->
<g id="edge17" class="edge">
<title>Node13&#45;&gt;Node18</title>
<path fill="none" stroke="midnightblue" d="M339.93,-723.79C354.24,-722.43 369.09,-721.02 383.24,-719.67"/>
<polygon fill="midnightblue" stroke="midnightblue" points="339.24,-720.34 329.62,-724.77 339.9,-727.31 339.24,-720.34"/>
</g>
<!-- Node19 -->
<g id="node19" class="node">
<title>Node19</title>
<g id="a_node19"><a xlink:href="classitk_1_1simple_1_1ImageFilter.html" target="_top" xlink:title="The base interface for SimpleITK filters that take one input image.">
<polygon fill="white" stroke="red" points="394.5,-665 394.5,-684 524.5,-684 524.5,-665 394.5,-665"/>
<text text-anchor="middle" x="459.5" y="-672" font-family="Helvetica,sans-Serif" font-size="10.00">itk::simple::ImageFilter</text>
</a>
</g>
</g>
<!-- Node13&#45;&gt;Node19 -->
<g id="edge18" class="edge">
<title>Node13&#45;&gt;Node19</title>
<path fill="none" stroke="midnightblue" d="M295.88,-718.6C318.79,-710.82 348.93,-701 376,-693.5 388.18,-690.13 401.49,-686.87 413.79,-684.04"/>
<polygon fill="midnightblue" stroke="midnightblue" points="294.55,-715.36 286.22,-721.91 296.81,-721.98 294.55,-715.36"/>
</g>
<!-- Node314 -->
<g id="node47" class="node">
<title>Node314</title>
<g id="a_node47"><a xlink:href="classitk_1_1simple_1_1ImageReaderBase.html" target="_top" xlink:title="An abstract base class for image readers.">
<polygon fill="white" stroke="red" points="377.5,-627 377.5,-646 541.5,-646 541.5,-627 377.5,-627"/>
<text text-anchor="middle" x="459.5" y="-634" font-family="Helvetica,sans-Serif" font-size="10.00">itk::simple::ImageReaderBase</text>
</a>
</g>
</g>
<!-- Node13&#45;&gt;Node314 -->
<g id="edge46" class="edge">
<title>Node13&#45;&gt;Node314</title>
<path fill="none" stroke="midnightblue" d="M278.86,-715.46C301.2,-698.2 339.19,-671.12 376,-655.5 384.93,-651.71 394.74,-648.61 404.38,-646.1"/>
<polygon fill="midnightblue" stroke="midnightblue" points="276.53,-712.84 270.83,-721.77 280.86,-718.34 276.53,-712.84"/>
</g>
<!-- Node318 -->
<g id="node48" class="node">
<title>Node318</title>
<g id="a_node48"><a xlink:href="classitk_1_1simple_1_1ImageRegistrationMethod.html" target="_top" xlink:title="An interface method to the modular ITKv4 registration framework.">
<polygon fill="white" stroke="black" points="377.5,-577.5 377.5,-607.5 541.5,-607.5 541.5,-577.5 377.5,-577.5"/>
<text text-anchor="start" x="385.5" y="-595.5" font-family="Helvetica,sans-Serif" font-size="10.00">itk::simple::ImageRegistration</text>
<text text-anchor="middle" x="459.5" y="-584.5" font-family="Helvetica,sans-Serif" font-size="10.00">Method</text>
</a>
</g>
</g>
<!-- Node13&#45;&gt;Node318 -->
<g id="edge47" class="edge">
<title>Node13&#45;&gt;Node318</title>
<path fill="none" stroke="midnightblue" d="M272.26,-714.1C292.14,-689.17 332.09,-643.42 376,-617.5 382.44,-613.7 389.52,-610.42 396.73,-607.62"/>
<polygon fill="midnightblue" stroke="midnightblue" points="269.49,-711.96 266.08,-721.99 275,-716.27 269.49,-711.96"/>
</g>
<!-- Node319 -->
<g id="node49" class="node">
<title>Node319</title>
<g id="a_node49"><a xlink:href="classitk_1_1simple_1_1ImageSeriesWriter.html" target="_top" xlink:title="Writer series of image from a SimpleITK image.">
<polygon fill="white" stroke="black" points="392,-528.5 392,-558.5 527,-558.5 527,-528.5 392,-528.5"/>
<text text-anchor="start" x="400" y="-546.5" font-family="Helvetica,sans-Serif" font-size="10.00">itk::simple::ImageSeries</text>
<text text-anchor="middle" x="459.5" y="-535.5" font-family="Helvetica,sans-Serif" font-size="10.00">Writer</text>
</a>
</g>
</g>
<!-- Node13&#45;&gt;Node319 -->
<g id="edge48" class="edge">
<title>Node13&#45;&gt;Node319</title>
<path fill="none" stroke="midnightblue" d="M267.51,-712.43C283.67,-678.38 322.09,-607.09 376,-568.5 381.35,-564.67 387.31,-561.41 393.49,-558.65"/>
<polygon fill="midnightblue" stroke="midnightblue" points="264.23,-711.18 263.21,-721.73 270.59,-714.12 264.23,-711.18"/>
</g>
<!-- Node20 -->
<g id="node20" class="node">
<title>Node20</title>
<g id="a_node20"><a xlink:href="classitk_1_1simple_1_1AbsImageFilter.html" target="_top" xlink:title="Computes the absolute value of each pixel.">
<polygon fill="white" stroke="black" points="592.5,-1213 592.5,-1232 740.5,-1232 740.5,-1213 592.5,-1213"/>
<text text-anchor="middle" x="666.5" y="-1220" font-family="Helvetica,sans-Serif" font-size="10.00">itk::simple::AbsImageFilter</text>
</a>
</g>
</g>
<!-- Node19&#45;&gt;Node20 -->
<g id="edge19" class="edge">
<title>Node19&#45;&gt;Node20</title>
<path fill="none" stroke="midnightblue" d="M533.73,-685.32C537.15,-687.62 540.28,-690.32 543,-693.5 616.84,-779.85 504.72,-1117.53 579,-1203.5 582.82,-1207.92 587.41,-1211.45 592.46,-1214.25"/>
<polygon fill="midnightblue" stroke="midnightblue" points="535.16,-682.11 524.71,-680.4 531.81,-688.26 535.16,-682.11"/>
</g>
<!-- Node21 -->
<g id="node21" class="node">
<title>Node21</title>
<g id="a_node21"><a xlink:href="classitk_1_1simple_1_1AbsoluteValueDifferenceImageFilter.html" target="_top" xlink:title="Implements pixel&#45;wise the computation of absolute value difference.">
<polygon fill="white" stroke="black" points="594.5,-1163.5 594.5,-1193.5 738.5,-1193.5 738.5,-1163.5 594.5,-1163.5"/>
<text text-anchor="start" x="602.5" y="-1181.5" font-family="Helvetica,sans-Serif" font-size="10.00">itk::simple::AbsoluteValue</text>
<text text-anchor="middle" x="666.5" y="-1170.5" font-family="Helvetica,sans-Serif" font-size="10.00">DifferenceImageFilter</text>
</a>
</g>
</g>
<!-- Node19&#45;&gt;Node21 -->
<g id="edge20" class="edge">
<title>Node19&#45;&gt;Node21</title>
<path fill="none" stroke="midnightblue" d="M533.7,-685.34C537.13,-687.64 540.27,-690.33 543,-693.5 609.93,-771.17 514.23,-1074.02 579,-1153.5 583.25,-1158.71 588.51,-1162.88 594.32,-1166.2"/>
<polygon fill="midnightblue" stroke="midnightblue" points="535.12,-682.13 524.67,-680.44 531.79,-688.28 535.12,-682.13"/>
</g>
<!-- Node22 -->
<g id="node22" class="node">
<title>Node22</title>
<g id="a_node22"><a xlink:href="classitk_1_1simple_1_1AcosImageFilter.html" target="_top" xlink:title="Computes the inverse cosine of each pixel.">
<polygon fill="white" stroke="black" points="590,-1125 590,-1144 743,-1144 743,-1125 590,-1125"/>
<text text-anchor="middle" x="666.5" y="-1132" font-family="Helvetica,sans-Serif" font-size="10.00">itk::simple::AcosImageFilter</text>
</a>
</g>
</g>
<!-- Node19&#45;&gt;Node22 -->
<g id="edge21" class="edge">
<title>Node19&#45;&gt;Node22</title>
<path fill="none" stroke="midnightblue" d="M533.68,-685.37C537.11,-687.65 540.26,-690.34 543,-693.5 604.69,-764.58 516.95,-1044.73 579,-1115.5 582.24,-1119.2 586.03,-1122.27 590.17,-1124.81"/>
<polygon fill="midnightblue" stroke="midnightblue" points="535.09,-682.15 524.63,-680.47 531.76,-688.31 535.09,-682.15"/>
</g>
<!-- Node23 -->
<g id="node23" class="node">
<title>Node23</title>
<g id="a_node23"><a xlink:href="classitk_1_1simple_1_1AdaptiveHistogramEqualizationImageFilter.html" target="_top" xlink:title="Power Law Adaptive Histogram Equalization.">
<polygon fill="white" stroke="black" points="582,-1075.5 582,-1105.5 751,-1105.5 751,-1075.5 582,-1075.5"/>
<text text-anchor="start" x="590" y="-1093.5" font-family="Helvetica,sans-Serif" font-size="10.00">itk::simple::AdaptiveHistogram</text>
<text text-anchor="middle" x="666.5" y="-1082.5" font-family="Helvetica,sans-Serif" font-size="10.00">EqualizationImageFilter</text>
</a>
</g>
</g>
<!-- Node19&#45;&gt;Node23 -->
<g id="edge22" class="edge">
<title>Node19&#45;&gt;Node23</title>
<path fill="none" stroke="midnightblue" d="M533.64,-685.4C537.08,-687.68 540.24,-690.36 543,-693.5 597.79,-755.91 525.94,-1001.6 579,-1065.5 582.2,-1069.35 585.94,-1072.63 590.06,-1075.41"/>
<polygon fill="midnightblue" stroke="midnightblue" points="535.03,-682.18 524.57,-680.52 531.71,-688.34 535.03,-682.18"/>
</g>
<!-- Node24 -->
<g id="node24" class="node">
<title>Node24</title>
<g id="a_node24"><a xlink:href="classitk_1_1simple_1_1AddImageFilter.html" target="_top" xlink:title="Pixel&#45;wise addition of two images.">
<polygon fill="white" stroke="black" points="592,-1037 592,-1056 741,-1056 741,-1037 592,-1037"/>
<text text-anchor="middle" x="666.5" y="-1044" font-family="Helvetica,sans-Serif" font-size="10.00">itk::simple::AddImageFilter</text>
</a>
</g>
</g>
<!-- Node19&#45;&gt;Node24 -->
<g id="edge23" class="edge">
<title>Node19&#45;&gt;Node24</title>
<path fill="none" stroke="midnightblue" d="M533.6,-685.44C537.05,-687.71 540.23,-690.37 543,-693.5 642.11,-805.16 479.33,-916.34 579,-1027.5 582.7,-1031.62 587.06,-1034.96 591.84,-1037.65"/>
<polygon fill="midnightblue" stroke="midnightblue" points="534.97,-682.21 524.51,-680.58 531.67,-688.38 534.97,-682.21"/>
</g>
<!-- Node25 -->
<g id="node25" class="node">
<title>Node25</title>
<g id="a_node25"><a xlink:href="classitk_1_1simple_1_1AdditiveGaussianNoiseImageFilter.html" target="_top" xlink:title="Alter an image with additive Gaussian white noise.">
<polygon fill="white" stroke="black" points="586.5,-987.5 586.5,-1017.5 746.5,-1017.5 746.5,-987.5 586.5,-987.5"/>
<text text-anchor="start" x="594.5" y="-1005.5" font-family="Helvetica,sans-Serif" font-size="10.00">itk::simple::AdditiveGaussian</text>
<text text-anchor="middle" x="666.5" y="-994.5" font-family="Helvetica,sans-Serif" font-size="10.00">NoiseImageFilter</text>
</a>
</g>
</g>
<!-- Node19&#45;&gt;Node25 -->
<g id="edge24" class="edge">
<title>Node19&#45;&gt;Node25</title>
<path fill="none" stroke="midnightblue" d="M533.73,-685.63C537.12,-687.86 540.25,-690.46 543,-693.5 628.62,-788.21 495.5,-881.92 579,-978.5 581.96,-981.92 585.35,-984.87 589.05,-987.42"/>
<polygon fill="midnightblue" stroke="midnightblue" points="535.28,-682.49 524.81,-680.84 531.97,-688.66 535.28,-682.49"/>
</g>
<!-- Node26 -->
<g id="node26" class="node">
<title>Node26</title>
<g id="a_node26"><a xlink:href="classitk_1_1simple_1_1AggregateLabelMapFilter.html" target="_top" xlink:title="Collapses all labels into the first label.">
<polygon fill="white" stroke="black" points="591,-938.5 591,-968.5 742,-968.5 742,-938.5 591,-938.5"/>
<text text-anchor="start" x="599" y="-956.5" font-family="Helvetica,sans-Serif" font-size="10.00">itk::simple::AggregateLabel</text>
<text text-anchor="middle" x="666.5" y="-945.5" font-family="Helvetica,sans-Serif" font-size="10.00">MapFilter</text>
</a>
</g>
</g>
<!-- Node19&#45;&gt;Node26 -->
<g id="edge25" class="edge">
<title>Node19&#45;&gt;Node26</title>
<path fill="none" stroke="midnightblue" d="M533.63,-685.72C537.05,-687.92 540.21,-690.5 543,-693.5 614.89,-770.94 509.27,-849.11 579,-928.5 582.4,-932.38 586.37,-935.67 590.69,-938.46"/>
<polygon fill="midnightblue" stroke="midnightblue" points="535.15,-682.56 524.67,-680.97 531.87,-688.74 535.15,-682.56"/>
</g>
<!-- Node27 -->
<g id="node27" class="node">
<title>Node27</title>
<g id="a_node27"><a xlink:href="classitk_1_1simple_1_1AndImageFilter.html" target="_top" xlink:title="Implements the AND bitwise operator pixel&#45;wise between two images.">
<polygon fill="white" stroke="black" points="592,-900 592,-919 741,-919 741,-900 592,-900"/>
<text text-anchor="middle" x="666.5" y="-907" font-family="Helvetica,sans-Serif" font-size="10.00">itk::simple::AndImageFilter</text>
</a>
</g>
</g>
<!-- Node19&#45;&gt;Node27 -->
<g id="edge26" class="edge">
<title>Node19&#45;&gt;Node27</title>
<path fill="none" stroke="midnightblue" d="M533.53,-685.81C536.97,-687.99 540.17,-690.54 543,-693.5 604.48,-757.86 517.19,-826.46 579,-890.5 582.74,-894.37 587.07,-897.54 591.76,-900.13"/>
<polygon fill="midnightblue" stroke="midnightblue" points="535.01,-682.63 524.52,-681.11 531.77,-688.84 535.01,-682.63"/>
</g>
<!-- Node28 -->
<g id="node28" class="node">
<title>Node28</title>
<g id="a_node28"><a xlink:href="classitk_1_1simple_1_1AntiAliasBinaryImageFilter.html" target="_top" xlink:title="A method for estimation of a surface from a binary volume.">
<polygon fill="white" stroke="black" points="592,-850.5 592,-880.5 741,-880.5 741,-850.5 592,-850.5"/>
<text text-anchor="start" x="600" y="-868.5" font-family="Helvetica,sans-Serif" font-size="10.00">itk::simple::AntiAliasBinary</text>
<text text-anchor="middle" x="666.5" y="-857.5" font-family="Helvetica,sans-Serif" font-size="10.00">ImageFilter</text>
</a>
</g>
</g>
<!-- Node19&#45;&gt;Node28 -->
<g id="edge27" class="edge">
<title>Node19&#45;&gt;Node28</title>
<path fill="none" stroke="midnightblue" d="M533.53,-686.14C536.95,-688.24 540.14,-690.68 543,-693.5 591.16,-741.07 531.9,-792.87 579,-841.5 582.79,-845.42 587.17,-848.71 591.89,-851.48"/>
<polygon fill="midnightblue" stroke="midnightblue" points="535.13,-683.02 524.63,-681.58 531.94,-689.25 535.13,-683.02"/>
</g>
<!-- Node29 -->
<g id="node29" class="node">
<title>Node29</title>
<g id="a_node29"><a xlink:href="classitk_1_1simple_1_1ApproximateSignedDistanceMapImageFilter.html" target="_top" xlink:title="Create a map of the approximate signed distance from the boundaries of a binary image.">
<polygon fill="white" stroke="black" points="582,-801.5 582,-831.5 751,-831.5 751,-801.5 582,-801.5"/>
<text text-anchor="start" x="590" y="-819.5" font-family="Helvetica,sans-Serif" font-size="10.00">itk::simple::Approximate</text>
<text text-anchor="middle" x="666.5" y="-808.5" font-family="Helvetica,sans-Serif" font-size="10.00">SignedDistanceMapImageFilter</text>
</a>
</g>
</g>
<!-- Node19&#45;&gt;Node29 -->
<g id="edge28" class="edge">
<title>Node19&#45;&gt;Node29</title>
<path fill="none" stroke="midnightblue" d="M533.87,-686.94C537.12,-688.85 540.19,-691.02 543,-693.5 577.81,-724.19 545.05,-759.87 579,-791.5 583.12,-795.34 587.79,-798.59 592.77,-801.34"/>
<polygon fill="midnightblue" stroke="midnightblue" points="535.42,-683.81 524.91,-682.51 532.32,-690.08 535.42,-683.81"/>
</g>
<!-- Node30 -->
<g id="node30" class="node">
<title>Node30</title>
<g id="a_node30"><a xlink:href="classitk_1_1simple_1_1AsinImageFilter.html" target="_top" xlink:title="Computes the sine of each pixel.">
<polygon fill="white" stroke="black" points="591,-763 591,-782 742,-782 742,-763 591,-763"/>
<text text-anchor="middle" x="666.5" y="-770" font-family="Helvetica,sans-Serif" font-size="10.00">itk::simple::AsinImageFilter</text>
</a>
</g>
</g>
<!-- Node19&#45;&gt;Node30 -->
<g id="edge29" class="edge">
<title>Node19&#45;&gt;Node30</title>
<path fill="none" stroke="midnightblue" d="M533.84,-687.87C537.04,-689.54 540.12,-691.41 543,-693.5 568.16,-711.78 553.75,-735.35 579,-753.5 584.37,-757.36 590.37,-760.46 596.65,-762.94"/>
<polygon fill="midnightblue" stroke="midnightblue" points="535.06,-684.59 524.5,-683.69 532.2,-690.98 535.06,-684.59"/>
</g>
<!-- Node31 -->
<g id="node31" class="node">
<title>Node31</title>
<g id="a_node31"><a xlink:href="classitk_1_1simple_1_1Atan2ImageFilter.html" target="_top" xlink:title="Computes two argument inverse tangent.">
<polygon fill="white" stroke="black" points="587.5,-725 587.5,-744 745.5,-744 745.5,-725 587.5,-725"/>
<text text-anchor="middle" x="666.5" y="-732" font-family="Helvetica,sans-Serif" font-size="10.00">itk::simple::Atan2ImageFilter</text>
</a>
</g>
</g>
<!-- Node19&#45;&gt;Node31 -->
<g id="edge30" class="edge">
<title>Node19&#45;&gt;Node31</title>
<path fill="none" stroke="midnightblue" d="M523.47,-686.76C530.16,-688.73 536.78,-690.96 543,-693.5 560.36,-700.58 561.6,-708.5 579,-715.5 588.41,-719.29 598.72,-722.38 608.84,-724.89"/>
<polygon fill="midnightblue" stroke="midnightblue" points="524.23,-683.34 513.66,-684.08 522.38,-690.09 524.23,-683.34"/>
</g>
<!-- Node32 -->
<g id="node32" class="node">
<title>Node32</title>
<g id="a_node32"><a xlink:href="classitk_1_1simple_1_1AtanImageFilter.html" target="_top" xlink:title="Computes the one&#45;argument inverse tangent of each pixel.">
<polygon fill="white" stroke="black" points="590.5,-687 590.5,-706 742.5,-706 742.5,-687 590.5,-687"/>
<text text-anchor="middle" x="666.5" y="-694" font-family="Helvetica,sans-Serif" font-size="10.00">itk::simple::AtanImageFilter</text>
</a>
</g>
</g>
<!-- Node19&#45;&gt;Node32 -->
<g id="edge31" class="edge">
<title>Node19&#45;&gt;Node32</title>
<path fill="none" stroke="midnightblue" d="M534.49,-682.44C552.7,-684.4 572.22,-686.49 590.49,-688.45"/>
<polygon fill="midnightblue" stroke="midnightblue" points="534.84,-678.96 524.52,-681.37 534.09,-685.92 534.84,-678.96"/>
</g>
<!-- Node33 -->
<g id="node33" class="node">
<title>Node33</title>
<g id="a_node33"><a xlink:href="classitk_1_1simple_1_1BilateralImageFilter.html" target="_top" xlink:title="Blurs an image while preserving edges.">
<polygon fill="white" stroke="black" points="593.5,-637.5 593.5,-667.5 739.5,-667.5 739.5,-637.5 593.5,-637.5"/>
<text text-anchor="start" x="601.5" y="-655.5" font-family="Helvetica,sans-Serif" font-size="10.00">itk::simple::BilateralImage</text>
<text text-anchor="middle" x="666.5" y="-644.5" font-family="Helvetica,sans-Serif" font-size="10.00">Filter</text>
</a>
</g>
</g>
<!-- Node19&#45;&gt;Node33 -->
<g id="edge32" class="edge">
<title>Node19&#45;&gt;Node33</title>
<path fill="none" stroke="midnightblue" d="M534.68,-666.54C553.81,-664.49 574.37,-662.28 593.39,-660.24"/>
<polygon fill="midnightblue" stroke="midnightblue" points="534.09,-663.08 524.52,-667.63 534.84,-670.04 534.09,-663.08"/>
</g>
<!-- Node34 -->
<g id="node34" class="node">
<title>Node34</title>
<g id="a_node34"><a xlink:href="classitk_1_1simple_1_1BinaryClosingByReconstructionImageFilter.html" target="_top" xlink:title="binary closing by reconstruction of an image.">
<polygon fill="white" stroke="black" points="587.5,-588.5 587.5,-618.5 745.5,-618.5 745.5,-588.5 587.5,-588.5"/>
<text text-anchor="start" x="595.5" y="-606.5" font-family="Helvetica,sans-Serif" font-size="10.00">itk::simple::BinaryClosing</text>
<text text-anchor="middle" x="666.5" y="-595.5" font-family="Helvetica,sans-Serif" font-size="10.00">ByReconstructionImageFilter</text>
</a>
</g>
</g>
<!-- Node19&#45;&gt;Node34 -->
<g id="edge33" class="edge">
<title>Node19&#45;&gt;Node34</title>
<path fill="none" stroke="midnightblue" d="M526.32,-662C532.07,-660.11 537.71,-657.96 543,-655.5 561.14,-647.07 561.1,-637.42 579,-628.5 586.55,-624.73 594.77,-621.44 603.03,-618.6"/>
<polygon fill="midnightblue" stroke="midnightblue" points="525.16,-658.69 516.59,-664.92 527.17,-665.4 525.16,-658.69"/>
</g>
<!-- Node35 -->
<g id="node35" class="node">
<title>Node35</title>
<g id="a_node35"><a xlink:href="classitk_1_1simple_1_1BinaryContourImageFilter.html" target="_top" xlink:title="Labels the pixels on the border of the objects in a binary image.">
<polygon fill="white" stroke="black" points="594.5,-539.5 594.5,-569.5 738.5,-569.5 738.5,-539.5 594.5,-539.5"/>
<text text-anchor="start" x="602.5" y="-557.5" font-family="Helvetica,sans-Serif" font-size="10.00">itk::simple::BinaryContour</text>
<text text-anchor="middle" x="666.5" y="-546.5" font-family="Helvetica,sans-Serif" font-size="10.00">ImageFilter</text>
</a>
</g>
</g>
<!-- Node19&#45;&gt;Node35 -->
<g id="edge34" class="edge">
<title>Node19&#45;&gt;Node35</title>
<path fill="none" stroke="midnightblue" d="M534.1,-661.47C537.24,-659.71 540.22,-657.73 543,-655.5 572.12,-632.07 550.53,-603.72 579,-579.5 583.64,-575.55 588.88,-572.22 594.42,-569.42"/>
<polygon fill="midnightblue" stroke="midnightblue" points="532.44,-658.38 524.92,-665.84 535.45,-664.7 532.44,-658.38"/>
</g>
<!-- Node36 -->
<g id="node36" class="node">
<title>Node36</title>
<g id="a_node36"><a xlink:href="classitk_1_1simple_1_1BinaryDilateImageFilter.html" target="_top" xlink:title="Fast binary dilation of a single intensity value in the image.">
<polygon fill="white" stroke="black" points="599,-490.5 599,-520.5 734,-520.5 734,-490.5 599,-490.5"/>
<text text-anchor="start" x="607" y="-508.5" font-family="Helvetica,sans-Serif" font-size="10.00">itk::simple::BinaryDilate</text>
<text text-anchor="middle" x="666.5" y="-497.5" font-family="Helvetica,sans-Serif" font-size="10.00">ImageFilter</text>
</a>
</g>
</g>
<!-- Node19&#45;&gt;Node36 -->
<g id="edge35" class="edge">
<title>Node19&#45;&gt;Node36</title>
<path fill="none" stroke="midnightblue" d="M533.89,-662.42C537.16,-660.42 540.22,-658.13 543,-655.5 584.97,-615.74 538.14,-571.4 579,-530.5 584.63,-524.86 591.46,-520.48 598.77,-517.07"/>
<polygon fill="midnightblue" stroke="midnightblue" points="532.15,-659.38 524.83,-667.04 535.33,-665.61 532.15,-659.38"/>
</g>
<!-- Node37 -->
<g id="node37" class="node">
<title>Node37</title>
<g id="a_node37"><a xlink:href="classitk_1_1simple_1_1BinaryErodeImageFilter.html" target="_top" xlink:title="Fast binary erosion of a single intensity value in the image.">
<polygon fill="white" stroke="black" points="599.5,-441.5 599.5,-471.5 733.5,-471.5 733.5,-441.5 599.5,-441.5"/>
<text text-anchor="start" x="607.5" y="-459.5" font-family="Helvetica,sans-Serif" font-size="10.00">itk::simple::BinaryErode</text>
<text text-anchor="middle" x="666.5" y="-448.5" font-family="Helvetica,sans-Serif" font-size="10.00">ImageFilter</text>
</a>
</g>
</g>
<!-- Node19&#45;&gt;Node37 -->
<g id="edge36" class="edge">
<title>Node19&#45;&gt;Node37</title>
<path fill="none" stroke="midnightblue" d="M533.94,-662.8C537.22,-660.71 540.27,-658.29 543,-655.5 598.21,-599.04 525.36,-539.46 579,-481.5 584.63,-475.42 591.63,-470.79 599.2,-467.26"/>
<polygon fill="midnightblue" stroke="midnightblue" points="532.03,-659.85 524.81,-667.6 535.29,-666.04 532.03,-659.85"/>
</g>
<!-- Node38 -->
<g id="node38" class="node">
<title>Node38</title>
<g id="a_node38"><a xlink:href="classitk_1_1simple_1_1BinaryFillholeImageFilter.html" target="_top" xlink:title="Remove holes not connected to the boundary of the image.">
<polygon fill="white" stroke="black" points="596,-392.5 596,-422.5 737,-422.5 737,-392.5 596,-392.5"/>
<text text-anchor="start" x="604" y="-410.5" font-family="Helvetica,sans-Serif" font-size="10.00">itk::simple::BinaryFillhole</text>
<text text-anchor="middle" x="666.5" y="-399.5" font-family="Helvetica,sans-Serif" font-size="10.00">ImageFilter</text>
</a>
</g>
</g>
<!-- Node19&#45;&gt;Node38 -->
<g id="edge37" class="edge">
<title>Node19&#45;&gt;Node38</title>
<path fill="none" stroke="midnightblue" d="M533.6,-663.26C537.03,-661.06 540.2,-658.49 543,-655.5 611.6,-582.2 512.44,-507.66 579,-432.5 583.77,-427.12 589.61,-422.86 596,-419.5"/>
<polygon fill="midnightblue" stroke="midnightblue" points="531.84,-660.23 524.63,-667.99 535.11,-666.42 531.84,-660.23"/>
</g>
<!-- Node39 -->
<g id="node39" class="node">
<title>Node39</title>
<g id="a_node39"><a xlink:href="classitk_1_1simple_1_1BinaryGrindPeakImageFilter.html" target="_top" xlink:title="Remove the objects not connected to the boundary of the image.">
<polygon fill="white" stroke="black" points="600.5,-343.5 600.5,-373.5 732.5,-373.5 732.5,-343.5 600.5,-343.5"/>
<text text-anchor="start" x="608.5" y="-361.5" font-family="Helvetica,sans-Serif" font-size="10.00">itk::simple::BinaryGrind</text>
<text text-anchor="middle" x="666.5" y="-350.5" font-family="Helvetica,sans-Serif" font-size="10.00">PeakImageFilter</text>
</a>
</g>
</g>
<!-- Node19&#45;&gt;Node39 -->
<g id="edge38" class="edge">
<title>Node19&#45;&gt;Node39</title>
<path fill="none" stroke="midnightblue" d="M533.71,-663.35C537.11,-661.13 540.24,-658.53 543,-655.5 625.05,-565.29 499.47,-475.94 579,-383.5 584.81,-376.75 592.32,-371.76 600.49,-368.09"/>
<polygon fill="midnightblue" stroke="midnightblue" points="531.94,-660.32 524.78,-668.13 535.25,-666.5 531.94,-660.32"/>
</g>
<!-- Node40 -->
<g id="node40" class="node">
<title>Node40</title>
<g id="a_node40"><a xlink:href="classitk_1_1simple_1_1BinaryImageToLabelMapFilter.html" target="_top" xlink:title="Label the connected components in a binary image and produce a collection of label objects.">
<polygon fill="white" stroke="black" points="598,-294.5 598,-324.5 735,-324.5 735,-294.5 598,-294.5"/>
<text text-anchor="start" x="606" y="-312.5" font-family="Helvetica,sans-Serif" font-size="10.00">itk::simple::BinaryImage</text>
<text text-anchor="middle" x="666.5" y="-301.5" font-family="Helvetica,sans-Serif" font-size="10.00">ToLabelMapFilter</text>
</a>
</g>
</g>
<!-- Node19&#45;&gt;Node40 -->
<g id="edge39" class="edge">
<title>Node19&#45;&gt;Node40</title>
<path fill="none" stroke="midnightblue" d="M533.78,-663.42C537.16,-661.18 540.27,-658.56 543,-655.5 638.53,-548.34 486.45,-444.25 579,-334.5 584.14,-328.41 590.66,-323.75 597.82,-320.19"/>
<polygon fill="midnightblue" stroke="midnightblue" points="532.02,-660.39 524.89,-668.23 535.35,-666.55 532.02,-660.39"/>
</g>
<!-- Node41 -->
<g id="node41" class="node">
<title>Node41</title>
<g id="a_node41"><a xlink:href="classitk_1_1simple_1_1BinaryMagnitudeImageFilter.html" target="_top" xlink:title="Computes the square root of the sum of squares of corresponding input pixels.">
<polygon fill="white" stroke="black" points="587.5,-245.5 587.5,-275.5 745.5,-275.5 745.5,-245.5 587.5,-245.5"/>
<text text-anchor="start" x="595.5" y="-263.5" font-family="Helvetica,sans-Serif" font-size="10.00">itk::simple::BinaryMagnitude</text>
<text text-anchor="middle" x="666.5" y="-252.5" font-family="Helvetica,sans-Serif" font-size="10.00">ImageFilter</text>
</a>
</g>
</g>
<!-- Node19&#45;&gt;Node41 -->
<g id="edge40" class="edge">
<title>Node19&#45;&gt;Node41</title>
<path fill="none" stroke="midnightblue" d="M533.63,-663.6C537.08,-661.32 540.24,-658.64 543,-655.5 597.52,-593.43 526.21,-349.04 579,-285.5 582.2,-281.65 585.95,-278.38 590.06,-275.59"/>
<polygon fill="midnightblue" stroke="midnightblue" points="531.71,-660.65 524.56,-668.47 535.03,-666.82 531.71,-660.65"/>
</g>
<!-- Node42 -->
<g id="node42" class="node">
<title>Node42</title>
<g id="a_node42"><a xlink:href="classitk_1_1simple_1_1BinaryMedianImageFilter.html" target="_top" xlink:title="Applies a version of the median filter optimized for binary images.">
<polygon fill="white" stroke="black" points="595.5,-196.5 595.5,-226.5 737.5,-226.5 737.5,-196.5 595.5,-196.5"/>
<text text-anchor="start" x="603.5" y="-214.5" font-family="Helvetica,sans-Serif" font-size="10.00">itk::simple::BinaryMedian</text>
<text text-anchor="middle" x="666.5" y="-203.5" font-family="Helvetica,sans-Serif" font-size="10.00">ImageFilter</text>
</a>
</g>
</g>
<!-- Node19&#45;&gt;Node42 -->
<g id="edge41" class="edge">
<title>Node19&#45;&gt;Node42</title>
<path fill="none" stroke="midnightblue" d="M533.68,-663.63C537.11,-661.35 540.26,-658.66 543,-655.5 604.28,-584.94 519.69,-308.72 579,-236.5 583.46,-231.06 589.03,-226.77 595.18,-223.38"/>
<polygon fill="midnightblue" stroke="midnightblue" points="531.76,-660.69 524.62,-668.53 535.09,-666.85 531.76,-660.69"/>
</g>
<!-- Node43 -->
<g id="node43" class="node">
<title>Node43</title>
<g id="a_node43"><a xlink:href="classitk_1_1simple_1_1BinaryMinMaxCurvatureFlowImageFilter.html" target="_top" xlink:title="Denoise a binary image using min/max curvature flow.">
<polygon fill="white" stroke="black" points="594,-147.5 594,-177.5 739,-177.5 739,-147.5 594,-147.5"/>
<text text-anchor="start" x="602" y="-165.5" font-family="Helvetica,sans-Serif" font-size="10.00">itk::simple::BinaryMinMax</text>
<text text-anchor="middle" x="666.5" y="-154.5" font-family="Helvetica,sans-Serif" font-size="10.00">CurvatureFlowImageFilter</text>
</a>
</g>
</g>
<!-- Node19&#45;&gt;Node43 -->
<g id="edge42" class="edge">
<title>Node19&#45;&gt;Node43</title>
<path fill="none" stroke="midnightblue" d="M533.71,-663.66C537.13,-661.37 540.27,-658.67 543,-655.5 611.04,-576.44 513.16,-268.4 579,-187.5 583.14,-182.41 588.26,-178.31 593.91,-175.03"/>
<polygon fill="midnightblue" stroke="midnightblue" points="531.79,-660.72 524.67,-668.57 535.13,-666.87 531.79,-660.72"/>
</g>
<!-- Node44 -->
<g id="node44" class="node">
<title>Node44</title>
<g id="a_node44"><a xlink:href="classitk_1_1simple_1_1BinaryMorphologicalClosingImageFilter.html" target="_top" xlink:title="binary morphological closing of an image.">
<polygon fill="white" stroke="black" points="579,-98.5 579,-128.5 754,-128.5 754,-98.5 579,-98.5"/>
<text text-anchor="start" x="587" y="-116.5" font-family="Helvetica,sans-Serif" font-size="10.00">itk::simple::BinaryMorphological</text>
<text text-anchor="middle" x="666.5" y="-105.5" font-family="Helvetica,sans-Serif" font-size="10.00">ClosingImageFilter</text>
</a>
</g>
</g>
<!-- Node19&#45;&gt;Node44 -->
<g id="edge43" class="edge">
<title>Node19&#45;&gt;Node44</title>
<path fill="none" stroke="midnightblue" d="M533.74,-663.68C537.16,-661.38 540.29,-658.68 543,-655.5 617.81,-567.94 506.63,-228.09 579,-138.5 582.05,-134.73 585.62,-131.51 589.55,-128.75"/>
<polygon fill="midnightblue" stroke="midnightblue" points="531.82,-660.74 524.71,-668.6 535.17,-666.89 531.82,-660.74"/>
</g>
<!-- Node45 -->
<g id="node45" class="node">
<title>Node45</title>
<g id="a_node45"><a xlink:href="classitk_1_1simple_1_1BinaryMorphologicalOpeningImageFilter.html" target="_top" xlink:title="binary morphological opening of an image.">
<polygon fill="white" stroke="black" points="579,-49.5 579,-79.5 754,-79.5 754,-49.5 579,-49.5"/>
<text text-anchor="start" x="587" y="-67.5" font-family="Helvetica,sans-Serif" font-size="10.00">itk::simple::BinaryMorphological</text>
<text text-anchor="middle" x="666.5" y="-56.5" font-family="Helvetica,sans-Serif" font-size="10.00">OpeningImageFilter</text>
</a>
</g>
</g>
<!-- Node19&#45;&gt;Node45 -->
<g id="edge44" class="edge">
<title>Node19&#45;&gt;Node45</title>
<path fill="none" stroke="midnightblue" d="M533.76,-663.7C537.17,-661.4 540.29,-658.69 543,-655.5 624.57,-559.43 500.1,-187.78 579,-89.5 582.03,-85.72 585.6,-82.49 589.53,-79.73"/>
<polygon fill="midnightblue" stroke="midnightblue" points="531.84,-660.76 524.75,-668.63 535.2,-666.9 531.84,-660.76"/>
</g>
<!-- Node46 -->
<g id="node46" class="node">
<title>Node46</title>
<g id="a_node46"><a xlink:href="classitk_1_1simple_1_1BinaryNotImageFilter.html" target="_top" xlink:title="Implements the BinaryNot logical operator pixel&#45;wise between two images.">
<polygon fill="white" stroke="black" points="589.5,-0.5 589.5,-30.5 743.5,-30.5 743.5,-0.5 589.5,-0.5"/>
<text text-anchor="start" x="597.5" y="-18.5" font-family="Helvetica,sans-Serif" font-size="10.00">itk::simple::BinaryNotImage</text>
<text text-anchor="middle" x="666.5" y="-7.5" font-family="Helvetica,sans-Serif" font-size="10.00">Filter</text>
</a>
</g>
</g>
<!-- Node19&#45;&gt;Node46 -->
<g id="edge45" class="edge">
<title>Node19&#45;&gt;Node46</title>
<path fill="none" stroke="midnightblue" d="M533.78,-663.72C537.19,-661.41 540.3,-658.69 543,-655.5 631.48,-550.75 492.86,-146.19 579,-39.5 581.94,-35.86 585.37,-32.75 589.15,-30.08"/>
<polygon fill="midnightblue" stroke="midnightblue" points="531.86,-660.78 524.78,-668.66 535.23,-666.92 531.86,-660.78"/>
</g>
</g>
</svg>
