<?xml version="1.0" encoding="UTF-8" standalone="no"?>
<!DOCTYPE svg PUBLIC "-//W3C//DTD SVG 1.1//EN"
 "http://www.w3.org/Graphics/SVG/1.1/DTD/svg11.dtd">
<!-- Generated by graphviz version 2.43.0 (0)
 -->
<!-- Title: itk::simple::detail::MemberFunctionFactory&lt; TMemberFunctionPointer &gt; Pages: 1 -->
<svg width="1079pt" height="230pt"
 viewBox="0.00 0.00 1079.00 230.00" xmlns="http://www.w3.org/2000/svg" xmlns:xlink="http://www.w3.org/1999/xlink">
<g id="graph0" class="graph" transform="scale(1 1) rotate(0) translate(4 226)">
<title>itk::simple::detail::MemberFunctionFactory&lt; TMemberFunctionPointer &gt;</title>
<polygon fill="white" stroke="transparent" points="-4,4 -4,-226 1075,-226 1075,4 -4,4"/>
<!-- Node1 -->
<g id="node1" class="node">
<title>Node1</title>
<g id="a_node1"><a xlink:title="A class used to instantiate and generate function object to templated member functions.">
<polygon fill="#bfbfbf" stroke="black" points="549,-90.5 549,-131.5 710,-131.5 710,-90.5 549,-90.5"/>
<text text-anchor="start" x="557" y="-119.5" font-family="Helvetica,sans-Serif" font-size="10.00">itk::simple::detail</text>
<text text-anchor="start" x="557" y="-108.5" font-family="Helvetica,sans-Serif" font-size="10.00">::MemberFunctionFactory</text>
<text text-anchor="middle" x="629.5" y="-97.5" font-family="Helvetica,sans-Serif" font-size="10.00">&lt; TMemberFunctionPointer &gt;</text>
</a>
</g>
</g>
<!-- Node4 -->
<g id="node4" class="node">
<title>Node4</title>
<g id="a_node4"><a xlink:href="classitk_1_1simple_1_1detail_1_1MemberFunctionFactory.html" target="_top" xlink:title=" ">
<polygon fill="white" stroke="black" points="903.5,-180.5 903.5,-221.5 1052.5,-221.5 1052.5,-180.5 903.5,-180.5"/>
<text text-anchor="start" x="911.5" y="-209.5" font-family="Helvetica,sans-Serif" font-size="10.00">itk::simple::detail</text>
<text text-anchor="start" x="911.5" y="-198.5" font-family="Helvetica,sans-Serif" font-size="10.00">::MemberFunctionFactory</text>
<text text-anchor="middle" x="978" y="-187.5" font-family="Helvetica,sans-Serif" font-size="10.00">&lt; MemberFunction2Type &gt;</text>
</a>
</g>
</g>
<!-- Node1&#45;&gt;Node4 -->
<g id="edge3" class="edge">
<title>Node1&#45;&gt;Node4</title>
<path fill="none" stroke="orange" stroke-dasharray="5,2" d="M693.46,-134.92C704.87,-138.88 716.73,-142.75 728,-146 786.27,-162.82 853.49,-177.39 903.38,-187.3"/>
<polygon fill="orange" stroke="orange" points="694.59,-131.61 684,-131.59 692.26,-138.21 694.59,-131.61"/>
<text text-anchor="middle" x="797.5" y="-181" font-family="Helvetica,sans-Serif" font-size="10.00"> &lt; MemberFunction2Type &gt;</text>
</g>
<!-- Node5 -->
<g id="node5" class="node">
<title>Node5</title>
<g id="a_node5"><a xlink:href="classitk_1_1simple_1_1detail_1_1MemberFunctionFactory.html" target="_top" xlink:title=" ">
<polygon fill="white" stroke="black" points="903.5,-120.5 903.5,-161.5 1052.5,-161.5 1052.5,-120.5 903.5,-120.5"/>
<text text-anchor="start" x="911.5" y="-149.5" font-family="Helvetica,sans-Serif" font-size="10.00">itk::simple::detail</text>
<text text-anchor="start" x="911.5" y="-138.5" font-family="Helvetica,sans-Serif" font-size="10.00">::MemberFunctionFactory</text>
<text text-anchor="middle" x="978" y="-127.5" font-family="Helvetica,sans-Serif" font-size="10.00">&lt; MemberFunction1Type &gt;</text>
</a>
</g>
</g>
<!-- Node1&#45;&gt;Node5 -->
<g id="edge4" class="edge">
<title>Node1&#45;&gt;Node5</title>
<path fill="none" stroke="orange" stroke-dasharray="5,2" d="M720.5,-118.79C777.37,-123.72 849.96,-130 903.39,-134.63"/>
<polygon fill="orange" stroke="orange" points="720.69,-115.3 710.43,-117.92 720.09,-122.27 720.69,-115.3"/>
<text text-anchor="middle" x="797.5" y="-134" font-family="Helvetica,sans-Serif" font-size="10.00"> &lt; MemberFunction1Type &gt;</text>
</g>
<!-- Node6 -->
<g id="node6" class="node">
<title>Node6</title>
<g id="a_node6"><a xlink:href="classitk_1_1simple_1_1detail_1_1MemberFunctionFactory.html" target="_top" xlink:title=" ">
<polygon fill="white" stroke="black" points="885,-60.5 885,-101.5 1071,-101.5 1071,-60.5 885,-60.5"/>
<text text-anchor="start" x="893" y="-89.5" font-family="Helvetica,sans-Serif" font-size="10.00">itk::simple::detail</text>
<text text-anchor="start" x="893" y="-78.5" font-family="Helvetica,sans-Serif" font-size="10.00">::MemberFunctionFactory</text>
<text text-anchor="middle" x="978" y="-67.5" font-family="Helvetica,sans-Serif" font-size="10.00">&lt; EvaluateMemberFunctionType &gt;</text>
</a>
</g>
</g>
<!-- Node1&#45;&gt;Node6 -->
<g id="edge5" class="edge">
<title>Node1&#45;&gt;Node6</title>
<path fill="none" stroke="orange" stroke-dasharray="5,2" d="M720.28,-93.96C722.88,-93.62 725.46,-93.29 728,-93 779.7,-87.01 837.77,-84 884.82,-82.49"/>
<polygon fill="orange" stroke="orange" points="719.59,-90.52 710.18,-95.39 720.57,-97.45 719.59,-90.52"/>
<text text-anchor="start" x="728" y="-107" font-family="Helvetica,sans-Serif" font-size="10.00"> &lt; EvaluateMemberFunction</text>
<text text-anchor="middle" x="797.5" y="-96" font-family="Helvetica,sans-Serif" font-size="10.00">Type &gt;</text>
</g>
<!-- Node7 -->
<g id="node7" class="node">
<title>Node7</title>
<g id="a_node7"><a xlink:href="classitk_1_1simple_1_1detail_1_1MemberFunctionFactory.html" target="_top" xlink:title=" ">
<polygon fill="white" stroke="black" points="906.5,-0.5 906.5,-41.5 1049.5,-41.5 1049.5,-0.5 906.5,-0.5"/>
<text text-anchor="start" x="914.5" y="-29.5" font-family="Helvetica,sans-Serif" font-size="10.00">itk::simple::detail</text>
<text text-anchor="start" x="914.5" y="-18.5" font-family="Helvetica,sans-Serif" font-size="10.00">::MemberFunctionFactory</text>
<text text-anchor="middle" x="978" y="-7.5" font-family="Helvetica,sans-Serif" font-size="10.00">&lt; MemberFunctionType &gt;</text>
</a>
</g>
</g>
<!-- Node1&#45;&gt;Node7 -->
<g id="edge6" class="edge">
<title>Node1&#45;&gt;Node7</title>
<path fill="none" stroke="orange" stroke-dasharray="5,2" d="M682.27,-86.23C696.83,-79.95 712.83,-73.67 728,-69 786.91,-50.87 855.85,-38.21 906.24,-30.47"/>
<polygon fill="orange" stroke="orange" points="680.68,-83.11 672.94,-90.34 683.51,-89.51 680.68,-83.11"/>
<text text-anchor="middle" x="797.5" y="-72" font-family="Helvetica,sans-Serif" font-size="10.00"> &lt; MemberFunctionType &gt;</text>
</g>
<!-- Node2 -->
<g id="node2" class="node">
<title>Node2</title>
<g id="a_node2"><a xlink:href="classitk_1_1simple_1_1detail_1_1MemberFunctionFactoryBase.html" target="_top" xlink:title=" ">
<polygon fill="white" stroke="black" points="340,-85 340,-137 512,-137 512,-85 340,-85"/>
<text text-anchor="start" x="348" y="-125" font-family="Helvetica,sans-Serif" font-size="10.00">itk::simple::detail</text>
<text text-anchor="start" x="348" y="-114" font-family="Helvetica,sans-Serif" font-size="10.00">::MemberFunctionFactoryBase</text>
<text text-anchor="start" x="348" y="-103" font-family="Helvetica,sans-Serif" font-size="10.00">&lt; TMemberFunctionPointer,</text>
<text text-anchor="middle" x="426" y="-92" font-family="Helvetica,sans-Serif" font-size="10.00"> std::pair&lt; unsigned int, int &gt; &gt;</text>
</a>
</g>
</g>
<!-- Node2&#45;&gt;Node1 -->
<g id="edge1" class="edge">
<title>Node2&#45;&gt;Node1</title>
<path fill="none" stroke="darkgreen" d="M522.17,-111C531.07,-111 540.04,-111 548.77,-111"/>
<polygon fill="darkgreen" stroke="darkgreen" points="522.16,-107.5 512.16,-111 522.16,-114.5 522.16,-107.5"/>
</g>
<!-- Node3 -->
<g id="node3" class="node">
<title>Node3</title>
<g id="a_node3"><a xlink:href="classitk_1_1simple_1_1detail_1_1MemberFunctionFactoryBase.html" target="_top" xlink:title="A base class for the MemberFunctionFactory.">
<polygon fill="white" stroke="black" points="0,-96 0,-126 164,-126 164,-96 0,-96"/>
<text text-anchor="start" x="8" y="-114" font-family="Helvetica,sans-Serif" font-size="10.00">itk::simple::detail</text>
<text text-anchor="middle" x="82" y="-103" font-family="Helvetica,sans-Serif" font-size="10.00">::MemberFunctionFactoryBase</text>
</a>
</g>
</g>
<!-- Node3&#45;&gt;Node2 -->
<g id="edge2" class="edge">
<title>Node3&#45;&gt;Node2</title>
<path fill="none" stroke="orange" stroke-dasharray="5,2" d="M174.16,-111C225.55,-111 289.36,-111 339.76,-111"/>
<polygon fill="orange" stroke="orange" points="174.05,-107.5 164.05,-111 174.05,-114.5 174.05,-107.5"/>
<text text-anchor="start" x="182" y="-136" font-family="Helvetica,sans-Serif" font-size="10.00"> &lt; TMemberFunctionPointer,</text>
<text text-anchor="start" x="182" y="-125" font-family="Helvetica,sans-Serif" font-size="10.00"> std::pair&lt; unsigned int,</text>
<text text-anchor="middle" x="252" y="-114" font-family="Helvetica,sans-Serif" font-size="10.00"> int &gt; &gt;</text>
</g>
</g>
</svg>
