<?xml version="1.0" encoding="UTF-8" standalone="no"?>
<!DOCTYPE svg PUBLIC "-//W3C//DTD SVG 1.1//EN"
 "http://www.w3.org/Graphics/SVG/1.1/DTD/svg11.dtd">
<!-- Generated by graphviz version 2.43.0 (0)
 -->
<!-- Title: itk::simple::ImageReaderBase Pages: 1 -->
<svg width="720pt" height="127pt"
 viewBox="0.00 0.00 720.00 126.50" xmlns="http://www.w3.org/2000/svg" xmlns:xlink="http://www.w3.org/1999/xlink">
<g id="graph0" class="graph" transform="scale(1 1) rotate(0) translate(4 122.5)">
<title>itk::simple::ImageReaderBase</title>
<polygon fill="white" stroke="transparent" points="-4,4 -4,-122.5 716,-122.5 716,4 -4,4"/>
<!-- Node1 -->
<g id="node1" class="node">
<title>Node1</title>
<g id="a_node1"><a xlink:title="An abstract base class for image readers.">
<polygon fill="#bfbfbf" stroke="black" points="355,-55 355,-74 519,-74 519,-55 355,-55"/>
<text text-anchor="middle" x="437" y="-62" font-family="Helvetica,sans-Serif" font-size="10.00">itk::simple::ImageReaderBase</text>
</a>
</g>
</g>
<!-- Node4 -->
<g id="node4" class="node">
<title>Node4</title>
<g id="a_node4"><a xlink:href="classitk_1_1simple_1_1ImageFileReader.html" target="_top" xlink:title="Read an image file and return a SimpleITK Image.">
<polygon fill="white" stroke="black" points="555,-99 555,-118 712,-118 712,-99 555,-99"/>
<text text-anchor="middle" x="633.5" y="-106" font-family="Helvetica,sans-Serif" font-size="10.00">itk::simple::ImageFileReader</text>
</a>
</g>
</g>
<!-- Node1&#45;&gt;Node4 -->
<g id="edge3" class="edge">
<title>Node1&#45;&gt;Node4</title>
<path fill="none" stroke="midnightblue" d="M490.09,-76.28C521.49,-83.39 560.96,-92.32 590.38,-98.97"/>
<polygon fill="midnightblue" stroke="midnightblue" points="490.73,-72.84 480.2,-74.05 489.18,-79.67 490.73,-72.84"/>
</g>
<!-- Node5 -->
<g id="node5" class="node">
<title>Node5</title>
<g id="a_node5"><a xlink:href="classitk_1_1simple_1_1ImageSeriesReader.html" target="_top" xlink:title="Read series of image files into a SimpleITK image.">
<polygon fill="white" stroke="black" points="566,-49.5 566,-79.5 701,-79.5 701,-49.5 566,-49.5"/>
<text text-anchor="start" x="574" y="-67.5" font-family="Helvetica,sans-Serif" font-size="10.00">itk::simple::ImageSeries</text>
<text text-anchor="middle" x="633.5" y="-56.5" font-family="Helvetica,sans-Serif" font-size="10.00">Reader</text>
</a>
</g>
</g>
<!-- Node1&#45;&gt;Node5 -->
<g id="edge4" class="edge">
<title>Node1&#45;&gt;Node5</title>
<path fill="none" stroke="midnightblue" d="M529.33,-64.5C541.6,-64.5 553.99,-64.5 565.72,-64.5"/>
<polygon fill="midnightblue" stroke="midnightblue" points="529.08,-61 519.08,-64.5 529.08,-68 529.08,-61"/>
</g>
<!-- Node6 -->
<g id="node6" class="node">
<title>Node6</title>
<g id="a_node6"><a xlink:href="classitk_1_1simple_1_1ImportImageFilter.html" target="_top" xlink:title="Compose a 2D or 3D image and return a smart pointer to a SimpleITK image.">
<polygon fill="white" stroke="black" points="565,-0.5 565,-30.5 702,-30.5 702,-0.5 565,-0.5"/>
<text text-anchor="start" x="573" y="-18.5" font-family="Helvetica,sans-Serif" font-size="10.00">itk::simple::ImportImage</text>
<text text-anchor="middle" x="633.5" y="-7.5" font-family="Helvetica,sans-Serif" font-size="10.00">Filter</text>
</a>
</g>
</g>
<!-- Node1&#45;&gt;Node6 -->
<g id="edge5" class="edge">
<title>Node1&#45;&gt;Node6</title>
<path fill="none" stroke="midnightblue" d="M485.69,-52.49C511.97,-45.86 544.84,-37.58 572.81,-30.54"/>
<polygon fill="midnightblue" stroke="midnightblue" points="484.81,-49.1 475.96,-54.94 486.52,-55.89 484.81,-49.1"/>
</g>
<!-- Node2 -->
<g id="node2" class="node">
<title>Node2</title>
<g id="a_node2"><a xlink:href="classitk_1_1simple_1_1ProcessObject.html" target="_top" xlink:title="Base class for SimpleITK classes based on ProcessObject.">
<polygon fill="white" stroke="black" points="176,-55 176,-74 319,-74 319,-55 176,-55"/>
<text text-anchor="middle" x="247.5" y="-62" font-family="Helvetica,sans-Serif" font-size="10.00">itk::simple::ProcessObject</text>
</a>
</g>
</g>
<!-- Node2&#45;&gt;Node1 -->
<g id="edge1" class="edge">
<title>Node2&#45;&gt;Node1</title>
<path fill="none" stroke="midnightblue" d="M329.31,-64.5C337.74,-64.5 346.31,-64.5 354.74,-64.5"/>
<polygon fill="midnightblue" stroke="midnightblue" points="329.12,-61 319.12,-64.5 329.12,-68 329.12,-61"/>
</g>
<!-- Node3 -->
<g id="node3" class="node">
<title>Node3</title>
<g id="a_node3"><a xlink:href="classitk_1_1simple_1_1NonCopyable.html" target="_top" xlink:title="An inheritable class to disable copying of a class.">
<polygon fill="white" stroke="black" points="0,-55 0,-74 140,-74 140,-55 0,-55"/>
<text text-anchor="middle" x="70" y="-62" font-family="Helvetica,sans-Serif" font-size="10.00">itk::simple::NonCopyable</text>
</a>
</g>
</g>
<!-- Node3&#45;&gt;Node2 -->
<g id="edge2" class="edge">
<title>Node3&#45;&gt;Node2</title>
<path fill="none" stroke="darkgreen" d="M150.35,-64.5C158.81,-64.5 167.37,-64.5 175.72,-64.5"/>
<polygon fill="darkgreen" stroke="darkgreen" points="150.11,-61 140.11,-64.5 150.11,-68 150.11,-61"/>
</g>
</g>
</svg>
