<?xml version="1.0" encoding="UTF-8" standalone="no"?>
<!DOCTYPE svg PUBLIC "-//W3C//DTD SVG 1.1//EN"
 "http://www.w3.org/Graphics/SVG/1.1/DTD/svg11.dtd">
<!-- Generated by graphviz version 2.43.0 (0)
 -->
<!-- Title: itk::HolderCommand&lt; T * &gt; Pages: 1 -->
<svg width="486pt" height="365pt"
 viewBox="0.00 0.00 485.50 365.00" xmlns="http://www.w3.org/2000/svg" xmlns:xlink="http://www.w3.org/1999/xlink">
<g id="graph0" class="graph" transform="scale(1 1) rotate(0) translate(4 361)">
<title>itk::HolderCommand&lt; T * &gt;</title>
<polygon fill="white" stroke="transparent" points="-4,4 -4,-361 481.5,-361 481.5,4 -4,4"/>
<!-- Node1 -->
<g id="node1" class="node">
<title>Node1</title>
<g id="a_node1"><a xlink:title=" ">
<polygon fill="#bfbfbf" stroke="black" points="178.5,-0.5 178.5,-30.5 296.5,-30.5 296.5,-0.5 178.5,-0.5"/>
<text text-anchor="start" x="186.5" y="-18.5" font-family="Helvetica,sans-Serif" font-size="10.00">itk::HolderCommand</text>
<text text-anchor="middle" x="237.5" y="-7.5" font-family="Helvetica,sans-Serif" font-size="10.00">&lt; T * &gt;</text>
</a>
</g>
</g>
<!-- Node2 -->
<g id="node2" class="node">
<title>Node2</title>
<g id="a_node2"><a target="_parent" xlink:href="https://www.itk.org/Doxygen/html/classitk_1_1Command.html" xlink:title=" ">
<polygon fill="white" stroke="black" points="194.5,-68.5 194.5,-87.5 280.5,-87.5 280.5,-68.5 194.5,-68.5"/>
<text text-anchor="middle" x="237.5" y="-75.5" font-family="Helvetica,sans-Serif" font-size="10.00">itk::Command</text>
</a>
</g>
</g>
<!-- Node2&#45;&gt;Node1 -->
<g id="edge1" class="edge">
<title>Node2&#45;&gt;Node1</title>
<path fill="none" stroke="midnightblue" d="M237.5,-58.22C237.5,-49.36 237.5,-38.96 237.5,-30.76"/>
<polygon fill="midnightblue" stroke="midnightblue" points="234,-58.33 237.5,-68.33 241,-58.33 234,-58.33"/>
</g>
<!-- Node3 -->
<g id="node3" class="node">
<title>Node3</title>
<g id="a_node3"><a target="_parent" xlink:href="https://www.itk.org/Doxygen/html/classitk_1_1Object.html" xlink:title=" ">
<polygon fill="white" stroke="black" points="204,-125.5 204,-144.5 271,-144.5 271,-125.5 204,-125.5"/>
<text text-anchor="middle" x="237.5" y="-132.5" font-family="Helvetica,sans-Serif" font-size="10.00">itk::Object</text>
</a>
</g>
</g>
<!-- Node3&#45;&gt;Node2 -->
<g id="edge2" class="edge">
<title>Node3&#45;&gt;Node2</title>
<path fill="none" stroke="midnightblue" d="M237.5,-115.12C237.5,-105.82 237.5,-95.06 237.5,-87.71"/>
<polygon fill="midnightblue" stroke="midnightblue" points="234,-115.41 237.5,-125.41 241,-115.41 234,-115.41"/>
</g>
<!-- Node4 -->
<g id="node4" class="node">
<title>Node4</title>
<g id="a_node4"><a target="_parent" xlink:href="https://www.itk.org/Doxygen/html/classitk_1_1LightObject.html" xlink:title=" ">
<polygon fill="white" stroke="black" points="0,-192.5 0,-211.5 91,-211.5 91,-192.5 0,-192.5"/>
<text text-anchor="middle" x="45.5" y="-199.5" font-family="Helvetica,sans-Serif" font-size="10.00">itk::LightObject</text>
</a>
</g>
</g>
<!-- Node4&#45;&gt;Node3 -->
<g id="edge3" class="edge">
<title>Node4&#45;&gt;Node3</title>
<path fill="none" stroke="midnightblue" d="M80.65,-189.1C118.71,-176.21 178.5,-155.97 212.2,-144.56"/>
<polygon fill="midnightblue" stroke="midnightblue" points="79.35,-185.85 71,-192.37 81.59,-192.48 79.35,-185.85"/>
</g>
<!-- Node5 -->
<g id="node5" class="node">
<title>Node5</title>
<g id="a_node5"><a target="_parent" xlink:href="https://www.itk.org/Doxygen/html/classitk_1_1TimeStamp.html" xlink:title=" ">
<polygon fill="white" stroke="black" points="109.5,-192.5 109.5,-211.5 201.5,-211.5 201.5,-192.5 109.5,-192.5"/>
<text text-anchor="middle" x="155.5" y="-199.5" font-family="Helvetica,sans-Serif" font-size="10.00">itk::TimeStamp</text>
</a>
</g>
</g>
<!-- Node5&#45;&gt;Node3 -->
<g id="edge4" class="edge">
<title>Node5&#45;&gt;Node3</title>
<path fill="none" stroke="#9a32cd" stroke-dasharray="5,2" d="M174.78,-185.71C190.94,-172.91 213.42,-155.09 226.62,-144.63"/>
<polygon fill="#9a32cd" stroke="#9a32cd" points="172.22,-183.28 166.56,-192.23 176.57,-188.76 172.22,-183.28"/>
<text text-anchor="middle" x="227.5" y="-166" font-family="Helvetica,sans-Serif" font-size="10.00"> m_MTime</text>
</g>
<!-- Node6 -->
<g id="node6" class="node">
<title>Node6</title>
<g id="a_node6"><a xlink:title=" ">
<polygon fill="white" stroke="#bfbfbf" points="105.5,-265 105.5,-284 205.5,-284 205.5,-265 105.5,-265"/>
<text text-anchor="middle" x="155.5" y="-272" font-family="Helvetica,sans-Serif" font-size="10.00">std::atomic&lt; T &gt;</text>
</a>
</g>
</g>
<!-- Node6&#45;&gt;Node5 -->
<g id="edge5" class="edge">
<title>Node6&#45;&gt;Node5</title>
<path fill="none" stroke="#9a32cd" stroke-dasharray="5,2" d="M155.5,-254.44C155.5,-240.53 155.5,-222.32 155.5,-211.72"/>
<polygon fill="#9a32cd" stroke="#9a32cd" points="152,-254.86 155.5,-264.86 159,-254.86 152,-254.86"/>
<text text-anchor="middle" x="208.5" y="-233" font-family="Helvetica,sans-Serif" font-size="10.00"> m_GlobalTimeStamp</text>
</g>
<!-- Node7 -->
<g id="node7" class="node">
<title>Node7</title>
<g id="a_node7"><a xlink:title=" ">
<polygon fill="white" stroke="#bfbfbf" points="141,-337.5 141,-356.5 170,-356.5 170,-337.5 141,-337.5"/>
<text text-anchor="middle" x="155.5" y="-344.5" font-family="Helvetica,sans-Serif" font-size="10.00">T</text>
</a>
</g>
</g>
<!-- Node7&#45;&gt;Node6 -->
<g id="edge6" class="edge">
<title>Node7&#45;&gt;Node6</title>
<path fill="none" stroke="#9a32cd" stroke-dasharray="5,2" d="M155.5,-326.94C155.5,-313.03 155.5,-294.82 155.5,-284.22"/>
<polygon fill="#9a32cd" stroke="#9a32cd" points="152,-327.36 155.5,-337.36 159,-327.36 152,-327.36"/>
<text text-anchor="middle" x="164" y="-311" font-family="Helvetica,sans-Serif" font-size="10.00"> ptr</text>
</g>
<!-- Node8 -->
<g id="node8" class="node">
<title>Node8</title>
<g id="a_node8"><a target="_parent" xlink:href="https://www.itk.org/Doxygen/html/classitk_1_1MetaDataDictionary.html" xlink:title=" ">
<polygon fill="white" stroke="black" points="219.5,-192.5 219.5,-211.5 353.5,-211.5 353.5,-192.5 219.5,-192.5"/>
<text text-anchor="middle" x="286.5" y="-199.5" font-family="Helvetica,sans-Serif" font-size="10.00">itk::MetaDataDictionary</text>
</a>
</g>
</g>
<!-- Node8&#45;&gt;Node3 -->
<g id="edge7" class="edge">
<title>Node8&#45;&gt;Node3</title>
<path fill="none" stroke="#9a32cd" stroke-dasharray="5,2" d="M273.61,-183.9C264.09,-171.27 251.52,-154.6 244,-144.63"/>
<polygon fill="#9a32cd" stroke="#9a32cd" points="271.08,-186.36 279.89,-192.23 276.67,-182.14 271.08,-186.36"/>
<text text-anchor="middle" x="324" y="-166" font-family="Helvetica,sans-Serif" font-size="10.00"> m_MetaDataDictionary</text>
</g>
<!-- Node9 -->
<g id="node9" class="node">
<title>Node9</title>
<g id="a_node9"><a xlink:title=" ">
<polygon fill="white" stroke="#bfbfbf" points="383,-192.5 383,-211.5 448,-211.5 448,-192.5 383,-192.5"/>
<text text-anchor="middle" x="415.5" y="-199.5" font-family="Helvetica,sans-Serif" font-size="10.00">std::string</text>
</a>
</g>
</g>
<!-- Node9&#45;&gt;Node3 -->
<g id="edge8" class="edge">
<title>Node9&#45;&gt;Node3</title>
<path fill="none" stroke="#9a32cd" stroke-dasharray="5,2" d="M406.07,-183.43C401.19,-176 394.56,-167.93 386.5,-163 351.18,-141.39 302.92,-136.15 271.01,-135.32"/>
<polygon fill="#9a32cd" stroke="#9a32cd" points="403.17,-185.41 411.28,-192.23 409.19,-181.84 403.17,-185.41"/>
<text text-anchor="middle" x="438" y="-166" font-family="Helvetica,sans-Serif" font-size="10.00"> m_ObjectName</text>
</g>
<!-- Node10 -->
<g id="node10" class="node">
<title>Node10</title>
<g id="a_node10"><a xlink:title=" ">
<polygon fill="white" stroke="#bfbfbf" points="363.5,-259.5 363.5,-289.5 467.5,-289.5 467.5,-259.5 363.5,-259.5"/>
<text text-anchor="start" x="371.5" y="-277.5" font-family="Helvetica,sans-Serif" font-size="10.00">std::basic_string&lt;</text>
<text text-anchor="middle" x="415.5" y="-266.5" font-family="Helvetica,sans-Serif" font-size="10.00"> Char &gt;</text>
</a>
</g>
</g>
<!-- Node10&#45;&gt;Node9 -->
<g id="edge9" class="edge">
<title>Node10&#45;&gt;Node9</title>
<path fill="none" stroke="midnightblue" d="M415.5,-249.09C415.5,-236.21 415.5,-221.2 415.5,-211.89"/>
<polygon fill="midnightblue" stroke="midnightblue" points="412,-249.23 415.5,-259.23 419,-249.23 412,-249.23"/>
</g>
</g>
</svg>
