<?xml version="1.0" encoding="UTF-8" standalone="no"?>
<!DOCTYPE svg PUBLIC "-//W3C//DTD SVG 1.1//EN"
 "http://www.w3.org/Graphics/SVG/1.1/DTD/svg11.dtd">
<!-- Generated by graphviz version 2.43.0 (0)
 -->
<!-- Title: itk::simple::FunctionCommand Pages: 1 -->
<svg width="2035pt" height="284pt"
 viewBox="0.00 0.00 2035.00 284.00" xmlns="http://www.w3.org/2000/svg" xmlns:xlink="http://www.w3.org/1999/xlink">
<g id="graph0" class="graph" transform="scale(1 1) rotate(0) translate(4 280)">
<title>itk::simple::FunctionCommand</title>
<polygon fill="white" stroke="transparent" points="-4,4 -4,-280 2031,-280 2031,4 -4,4"/>
<!-- Node1 -->
<g id="node1" class="node">
<title>Node1</title>
<g id="a_node1"><a xlink:title="A Command class which allows setting an external function, or member function.">
<polygon fill="#bfbfbf" stroke="black" points="1861,-218.5 1861,-237.5 2027,-237.5 2027,-218.5 1861,-218.5"/>
<text text-anchor="middle" x="1944" y="-225.5" font-family="Helvetica,sans-Serif" font-size="10.00">itk::simple::FunctionCommand</text>
</a>
</g>
</g>
<!-- Node2 -->
<g id="node2" class="node">
<title>Node2</title>
<g id="a_node2"><a xlink:href="classitk_1_1simple_1_1Command.html" target="_top" xlink:title="An implementation of the Command design pattern for callback.">
<polygon fill="white" stroke="black" points="1699,-218.5 1699,-237.5 1824,-237.5 1824,-218.5 1699,-218.5"/>
<text text-anchor="middle" x="1761.5" y="-225.5" font-family="Helvetica,sans-Serif" font-size="10.00">itk::simple::Command</text>
</a>
</g>
</g>
<!-- Node2&#45;&gt;Node1 -->
<g id="edge1" class="edge">
<title>Node2&#45;&gt;Node1</title>
<path fill="none" stroke="midnightblue" d="M1834.26,-228C1843.02,-228 1852.02,-228 1860.92,-228"/>
<polygon fill="midnightblue" stroke="midnightblue" points="1834.11,-224.5 1824.11,-228 1834.11,-231.5 1834.11,-224.5"/>
</g>
<!-- Node3 -->
<g id="node3" class="node">
<title>Node3</title>
<g id="a_node3"><a xlink:href="classitk_1_1simple_1_1ObjectOwnedBase.html" target="_top" xlink:title="An abstract base class to connect this object with the lifetime of another.">
<polygon fill="white" stroke="black" points="1498,-218.5 1498,-237.5 1662,-237.5 1662,-218.5 1498,-218.5"/>
<text text-anchor="middle" x="1580" y="-225.5" font-family="Helvetica,sans-Serif" font-size="10.00">itk::simple::ObjectOwnedBase</text>
</a>
</g>
</g>
<!-- Node3&#45;&gt;Node2 -->
<g id="edge2" class="edge">
<title>Node3&#45;&gt;Node2</title>
<path fill="none" stroke="midnightblue" d="M1672.25,-228C1681.27,-228 1690.26,-228 1698.87,-228"/>
<polygon fill="midnightblue" stroke="midnightblue" points="1672.09,-224.5 1662.09,-228 1672.08,-231.5 1672.09,-224.5"/>
</g>
<!-- Node4 -->
<g id="node4" class="node">
<title>Node4</title>
<g id="a_node4"><a xlink:href="classitk_1_1simple_1_1NonCopyable.html" target="_top" xlink:title="An inheritable class to disable copying of a class.">
<polygon fill="white" stroke="black" points="1164,-256.5 1164,-275.5 1304,-275.5 1304,-256.5 1164,-256.5"/>
<text text-anchor="middle" x="1234" y="-263.5" font-family="Helvetica,sans-Serif" font-size="10.00">itk::simple::NonCopyable</text>
</a>
</g>
</g>
<!-- Node4&#45;&gt;Node3 -->
<g id="edge3" class="edge">
<title>Node4&#45;&gt;Node3</title>
<path fill="none" stroke="midnightblue" d="M1314.28,-259.1C1362.29,-254.71 1424.73,-248.61 1480,-242 1491.2,-240.66 1503.1,-239.1 1514.61,-237.51"/>
<polygon fill="midnightblue" stroke="midnightblue" points="1313.9,-255.62 1304.26,-260.01 1314.53,-262.59 1313.9,-255.62"/>
</g>
<!-- Node5 -->
<g id="node5" class="node">
<title>Node5</title>
<g id="a_node5"><a xlink:title=" ">
<polygon fill="white" stroke="#bfbfbf" points="1169.5,-158.5 1169.5,-199.5 1298.5,-199.5 1298.5,-158.5 1169.5,-158.5"/>
<text text-anchor="start" x="1177.5" y="-187.5" font-family="Helvetica,sans-Serif" font-size="10.00">std::multimap&lt; itk</text>
<text text-anchor="start" x="1177.5" y="-176.5" font-family="Helvetica,sans-Serif" font-size="10.00">::Object *, std::function</text>
<text text-anchor="middle" x="1234" y="-165.5" font-family="Helvetica,sans-Serif" font-size="10.00">&lt; void()&gt; &gt;</text>
</a>
</g>
</g>
<!-- Node5&#45;&gt;Node3 -->
<g id="edge4" class="edge">
<title>Node5&#45;&gt;Node3</title>
<path fill="none" stroke="#9a32cd" stroke-dasharray="5,2" d="M1308.71,-183.33C1357.55,-186.91 1422.91,-193.05 1480,-203 1502.35,-206.89 1527.1,-213.14 1546.27,-218.42"/>
<polygon fill="#9a32cd" stroke="#9a32cd" points="1308.77,-179.83 1298.55,-182.61 1308.27,-186.81 1308.77,-179.83"/>
<text text-anchor="middle" x="1401" y="-206" font-family="Helvetica,sans-Serif" font-size="10.00"> m_ReferencedObjectsCallbacks</text>
</g>
<!-- Node6 -->
<g id="node6" class="node">
<title>Node6</title>
<g id="a_node6"><a xlink:href="https://www.itk.org/Doxygen/html/classitk_1_1Object.html" xlink:title=" ">
<polygon fill="white" stroke="black" points="1013,-110.5 1013,-129.5 1080,-129.5 1080,-110.5 1013,-110.5"/>
<text text-anchor="middle" x="1046.5" y="-117.5" font-family="Helvetica,sans-Serif" font-size="10.00">itk::Object</text>
</a>
</g>
</g>
<!-- Node6&#45;&gt;Node5 -->
<g id="edge5" class="edge">
<title>Node6&#45;&gt;Node5</title>
<path fill="none" stroke="#9a32cd" stroke-dasharray="5,2" d="M1087.48,-132.72C1111.35,-140.31 1142.19,-150.12 1169.34,-158.75"/>
<polygon fill="#9a32cd" stroke="#9a32cd" points="1088.31,-129.31 1077.72,-129.61 1086.19,-135.98 1088.31,-129.31"/>
<text text-anchor="middle" x="1122" y="-155" font-family="Helvetica,sans-Serif" font-size="10.00"> keys</text>
</g>
<!-- Node7 -->
<g id="node7" class="node">
<title>Node7</title>
<g id="a_node7"><a xlink:href="https://www.itk.org/Doxygen/html/classitk_1_1LightObject.html" xlink:title=" ">
<polygon fill="white" stroke="black" points="747.5,-64.5 747.5,-83.5 838.5,-83.5 838.5,-64.5 747.5,-64.5"/>
<text text-anchor="middle" x="793" y="-71.5" font-family="Helvetica,sans-Serif" font-size="10.00">itk::LightObject</text>
</a>
</g>
</g>
<!-- Node7&#45;&gt;Node6 -->
<g id="edge6" class="edge">
<title>Node7&#45;&gt;Node6</title>
<path fill="none" stroke="midnightblue" d="M848.54,-80.99C889.15,-86.6 945.82,-95.3 995,-106 1000.96,-107.3 1007.25,-108.87 1013.31,-110.49"/>
<polygon fill="midnightblue" stroke="midnightblue" points="848.96,-77.52 838.58,-79.63 848.01,-84.45 848.96,-77.52"/>
</g>
<!-- Node8 -->
<g id="node8" class="node">
<title>Node8</title>
<g id="a_node8"><a xlink:title=" ">
<polygon fill="white" stroke="#bfbfbf" points="465,-71.5 465,-90.5 572,-90.5 572,-71.5 465,-71.5"/>
<text text-anchor="middle" x="518.5" y="-78.5" font-family="Helvetica,sans-Serif" font-size="10.00">std::atomic&lt; int &gt;</text>
</a>
</g>
</g>
<!-- Node8&#45;&gt;Node7 -->
<g id="edge7" class="edge">
<title>Node8&#45;&gt;Node7</title>
<path fill="none" stroke="#9a32cd" stroke-dasharray="5,2" d="M582.18,-79.39C632.64,-78.09 702.33,-76.3 747.29,-75.15"/>
<polygon fill="#9a32cd" stroke="#9a32cd" points="581.95,-75.89 572.04,-79.65 582.13,-82.89 581.95,-75.89"/>
<text text-anchor="middle" x="659.5" y="-82" font-family="Helvetica,sans-Serif" font-size="10.00"> m_ReferenceCount</text>
</g>
<!-- Node9 -->
<g id="node9" class="node">
<title>Node9</title>
<g id="a_node9"><a xlink:title="STL class.">
<polygon fill="white" stroke="#bfbfbf" points="127,-102.5 127,-121.5 227,-121.5 227,-102.5 127,-102.5"/>
<text text-anchor="middle" x="177" y="-109.5" font-family="Helvetica,sans-Serif" font-size="10.00">std::atomic&lt; T &gt;</text>
</a>
</g>
</g>
<!-- Node9&#45;&gt;Node8 -->
<g id="edge8" class="edge">
<title>Node9&#45;&gt;Node8</title>
<path fill="none" stroke="orange" stroke-dasharray="5,2" d="M211.14,-98.8C225.33,-93.79 242.24,-88.65 258,-86 328.87,-74.07 412.17,-75.07 464.89,-77.51"/>
<polygon fill="orange" stroke="orange" points="209.53,-95.66 201.34,-102.39 211.94,-102.24 209.53,-95.66"/>
<text text-anchor="middle" x="342" y="-89" font-family="Helvetica,sans-Serif" font-size="10.00"> &lt; int &gt;</text>
</g>
<!-- Node18 -->
<g id="node18" class="node">
<title>Node18</title>
<g id="a_node18"><a xlink:href="https://www.itk.org/Doxygen/html/classitk_1_1TimeStamp.html" xlink:title=" ">
<polygon fill="white" stroke="black" points="613.5,-109.5 613.5,-128.5 705.5,-128.5 705.5,-109.5 613.5,-109.5"/>
<text text-anchor="middle" x="659.5" y="-116.5" font-family="Helvetica,sans-Serif" font-size="10.00">itk::TimeStamp</text>
</a>
</g>
</g>
<!-- Node9&#45;&gt;Node18 -->
<g id="edge20" class="edge">
<title>Node9&#45;&gt;Node18</title>
<path fill="none" stroke="#9a32cd" stroke-dasharray="5,2" d="M237.42,-112.87C334.77,-114.28 526.1,-117.07 613.28,-118.34"/>
<polygon fill="#9a32cd" stroke="#9a32cd" points="237.21,-109.36 227.16,-112.72 237.11,-116.36 237.21,-109.36"/>
<text text-anchor="middle" x="342" y="-119" font-family="Helvetica,sans-Serif" font-size="10.00"> m_GlobalTimeStamp</text>
</g>
<!-- Node10 -->
<g id="node10" class="node">
<title>Node10</title>
<g id="a_node10"><a xlink:title=" ">
<polygon fill="white" stroke="#bfbfbf" points="0,-68.5 0,-87.5 29,-87.5 29,-68.5 0,-68.5"/>
<text text-anchor="middle" x="14.5" y="-75.5" font-family="Helvetica,sans-Serif" font-size="10.00">T</text>
</a>
</g>
</g>
<!-- Node10&#45;&gt;Node9 -->
<g id="edge9" class="edge">
<title>Node10&#45;&gt;Node9</title>
<path fill="none" stroke="#9a32cd" stroke-dasharray="5,2" d="M38.72,-87.43C41.49,-88.38 44.29,-89.26 47,-90 72.97,-97.09 102.54,-102.33 126.81,-105.91"/>
<polygon fill="#9a32cd" stroke="#9a32cd" points="39.7,-84.06 29.11,-83.85 37.26,-90.62 39.7,-84.06"/>
<text text-anchor="middle" x="71.5" y="-104" font-family="Helvetica,sans-Serif" font-size="10.00"> ptr</text>
</g>
<!-- Node15 -->
<g id="node15" class="node">
<title>Node15</title>
<g id="a_node15"><a xlink:title="STL class.">
<polygon fill="white" stroke="#bfbfbf" points="126.5,-38.5 126.5,-57.5 227.5,-57.5 227.5,-38.5 126.5,-38.5"/>
<text text-anchor="middle" x="177" y="-45.5" font-family="Helvetica,sans-Serif" font-size="10.00">std::map&lt; K, T &gt;</text>
</a>
</g>
</g>
<!-- Node10&#45;&gt;Node15 -->
<g id="edge16" class="edge">
<title>Node10&#45;&gt;Node15</title>
<path fill="none" stroke="#9a32cd" stroke-dasharray="5,2" d="M27.54,-60.43C32.74,-54.35 39.39,-48.26 47,-45 74.39,-33.28 108.14,-34.55 134.25,-38.47"/>
<polygon fill="#9a32cd" stroke="#9a32cd" points="24.71,-58.37 21.39,-68.43 30.26,-62.64 24.71,-58.37"/>
<text text-anchor="middle" x="71.5" y="-48" font-family="Helvetica,sans-Serif" font-size="10.00"> elements</text>
</g>
<!-- Node17 -->
<g id="node17" class="node">
<title>Node17</title>
<g id="a_node17"><a xlink:title="STL class.">
<polygon fill="white" stroke="#bfbfbf" points="118,-0.5 118,-19.5 236,-19.5 236,-0.5 118,-0.5"/>
<text text-anchor="middle" x="177" y="-7.5" font-family="Helvetica,sans-Serif" font-size="10.00">std::shared_ptr&lt; T &gt;</text>
</a>
</g>
</g>
<!-- Node10&#45;&gt;Node17 -->
<g id="edge18" class="edge">
<title>Node10&#45;&gt;Node17</title>
<path fill="none" stroke="#9a32cd" stroke-dasharray="5,2" d="M20.96,-58.54C25.65,-45.64 33.81,-29.56 47,-21 67.65,-7.6 94.23,-3.66 117.9,-3.52"/>
<polygon fill="#9a32cd" stroke="#9a32cd" points="17.52,-57.81 17.79,-68.4 24.18,-59.95 17.52,-57.81"/>
<text text-anchor="middle" x="71.5" y="-24" font-family="Helvetica,sans-Serif" font-size="10.00"> ptr</text>
</g>
<!-- Node19 -->
<g id="node19" class="node">
<title>Node19</title>
<g id="a_node19"><a xlink:title="STL class.">
<polygon fill="white" stroke="#bfbfbf" points="114,-169.5 114,-188.5 240,-188.5 240,-169.5 114,-169.5"/>
<text text-anchor="middle" x="177" y="-176.5" font-family="Helvetica,sans-Serif" font-size="10.00">std::multimap&lt; K, T &gt;</text>
</a>
</g>
</g>
<!-- Node10&#45;&gt;Node19 -->
<g id="edge23" class="edge">
<title>Node10&#45;&gt;Node19</title>
<path fill="none" stroke="#9a32cd" stroke-dasharray="5,2" d="M27.79,-95.9C33.12,-102.78 39.8,-110.34 47,-116 64.68,-129.91 121.56,-155.52 153.57,-169.42"/>
<polygon fill="#9a32cd" stroke="#9a32cd" points="30.54,-93.73 21.8,-87.73 24.89,-97.87 30.54,-93.73"/>
<text text-anchor="middle" x="71.5" y="-145" font-family="Helvetica,sans-Serif" font-size="10.00"> elements</text>
</g>
<!-- Node11 -->
<g id="node11" class="node">
<title>Node11</title>
<g id="a_node11"><a xlink:title="STL class.">
<polygon fill="white" stroke="#bfbfbf" points="760.5,-219.5 760.5,-238.5 825.5,-238.5 825.5,-219.5 760.5,-219.5"/>
<text text-anchor="middle" x="793" y="-226.5" font-family="Helvetica,sans-Serif" font-size="10.00">std::string</text>
</a>
</g>
</g>
<!-- Node11&#45;&gt;Node3 -->
<g id="edge24" class="edge">
<title>Node11&#45;&gt;Node3</title>
<path fill="none" stroke="#9a32cd" stroke-dasharray="5,2" d="M836.04,-228.95C961.07,-228.79 1332.15,-228.31 1497.69,-228.1"/>
<polygon fill="#9a32cd" stroke="#9a32cd" points="835.74,-225.45 825.75,-228.96 835.75,-232.45 835.74,-225.45"/>
<text text-anchor="middle" x="1122" y="-231" font-family="Helvetica,sans-Serif" font-size="10.00"> m_Name</text>
</g>
<!-- Node11&#45;&gt;Node6 -->
<g id="edge10" class="edge">
<title>Node11&#45;&gt;Node6</title>
<path fill="none" stroke="#9a32cd" stroke-dasharray="5,2" d="M831.33,-216.02C840.74,-212.59 850.79,-208.78 860,-205 921.45,-179.8 992.4,-145.91 1025.96,-129.59"/>
<polygon fill="#9a32cd" stroke="#9a32cd" points="830.03,-212.77 821.81,-219.45 832.4,-219.36 830.03,-212.77"/>
<text text-anchor="middle" x="936.5" y="-200" font-family="Helvetica,sans-Serif" font-size="10.00"> m_ObjectName</text>
</g>
<!-- Node12 -->
<g id="node12" class="node">
<title>Node12</title>
<g id="a_node12"><a xlink:title="STL class.">
<polygon fill="white" stroke="#bfbfbf" points="466.5,-214 466.5,-244 570.5,-244 570.5,-214 466.5,-214"/>
<text text-anchor="start" x="474.5" y="-232" font-family="Helvetica,sans-Serif" font-size="10.00">std::basic_string&lt;</text>
<text text-anchor="middle" x="518.5" y="-221" font-family="Helvetica,sans-Serif" font-size="10.00"> char &gt;</text>
</a>
</g>
</g>
<!-- Node12&#45;&gt;Node11 -->
<g id="edge11" class="edge">
<title>Node12&#45;&gt;Node11</title>
<path fill="none" stroke="midnightblue" d="M580.85,-229C636.49,-229 716.3,-229 760.14,-229"/>
<polygon fill="midnightblue" stroke="midnightblue" points="580.76,-225.5 570.76,-229 580.76,-232.5 580.76,-225.5"/>
</g>
<!-- Node13 -->
<g id="node13" class="node">
<title>Node13</title>
<g id="a_node13"><a xlink:href="https://www.itk.org/Doxygen/html/classitk_1_1MetaDataDictionary.html" xlink:title=" ">
<polygon fill="white" stroke="black" points="726,-26.5 726,-45.5 860,-45.5 860,-26.5 726,-26.5"/>
<text text-anchor="middle" x="793" y="-33.5" font-family="Helvetica,sans-Serif" font-size="10.00">itk::MetaDataDictionary</text>
</a>
</g>
</g>
<!-- Node13&#45;&gt;Node6 -->
<g id="edge12" class="edge">
<title>Node13&#45;&gt;Node6</title>
<path fill="none" stroke="#9a32cd" stroke-dasharray="5,2" d="M870.27,-38.64C909.33,-42.56 956.62,-51.44 995,-71 1013.5,-80.43 1029.7,-98.94 1038.5,-110.32"/>
<polygon fill="#9a32cd" stroke="#9a32cd" points="870.28,-35.12 860.01,-37.7 869.65,-42.09 870.28,-35.12"/>
<text text-anchor="middle" x="936.5" y="-74" font-family="Helvetica,sans-Serif" font-size="10.00"> m_MetaDataDictionary</text>
</g>
<!-- Node14 -->
<g id="node14" class="node">
<title>Node14</title>
<g id="a_node14"><a xlink:title=" ">
<polygon fill="white" stroke="#bfbfbf" points="444,-21 444,-51 593,-51 593,-21 444,-21"/>
<text text-anchor="start" x="452" y="-39" font-family="Helvetica,sans-Serif" font-size="10.00">std::shared_ptr&lt; MetaData</text>
<text text-anchor="middle" x="518.5" y="-28" font-family="Helvetica,sans-Serif" font-size="10.00">DictionaryMapType &gt;</text>
</a>
</g>
</g>
<!-- Node14&#45;&gt;Node13 -->
<g id="edge13" class="edge">
<title>Node14&#45;&gt;Node13</title>
<path fill="none" stroke="#9a32cd" stroke-dasharray="5,2" d="M603.34,-36C642.65,-36 688.82,-36 725.65,-36"/>
<polygon fill="#9a32cd" stroke="#9a32cd" points="603.24,-32.5 593.24,-36 603.24,-39.5 603.24,-32.5"/>
<text text-anchor="middle" x="659.5" y="-39" font-family="Helvetica,sans-Serif" font-size="10.00"> m_Dictionary</text>
</g>
<!-- Node15&#45;&gt;Node14 -->
<g id="edge14" class="edge">
<title>Node15&#45;&gt;Node14</title>
<path fill="none" stroke="#9a32cd" stroke-dasharray="5,2" d="M237.74,-45.89C295.17,-43.86 382.11,-40.79 443.8,-38.6"/>
<polygon fill="#9a32cd" stroke="#9a32cd" points="237.6,-42.39 227.73,-46.24 237.85,-49.39 237.6,-42.39"/>
<text text-anchor="middle" x="342" y="-49" font-family="Helvetica,sans-Serif" font-size="10.00"> ptr</text>
</g>
<!-- Node16 -->
<g id="node16" class="node">
<title>Node16</title>
<g id="a_node16"><a xlink:title=" ">
<polygon fill="white" stroke="#bfbfbf" points="0,-138.5 0,-157.5 29,-157.5 29,-138.5 0,-138.5"/>
<text text-anchor="middle" x="14.5" y="-145.5" font-family="Helvetica,sans-Serif" font-size="10.00">K</text>
</a>
</g>
</g>
<!-- Node16&#45;&gt;Node15 -->
<g id="edge15" class="edge">
<title>Node16&#45;&gt;Node15</title>
<path fill="none" stroke="#9a32cd" stroke-dasharray="5,2" d="M19.23,-128C23.29,-111.85 31.42,-89.79 47,-77 59.16,-67.03 95.25,-59.42 126.17,-54.51"/>
<polygon fill="#9a32cd" stroke="#9a32cd" points="15.75,-127.53 17.02,-138.05 22.58,-129.03 15.75,-127.53"/>
<text text-anchor="middle" x="71.5" y="-80" font-family="Helvetica,sans-Serif" font-size="10.00"> keys</text>
</g>
<!-- Node16&#45;&gt;Node19 -->
<g id="edge22" class="edge">
<title>Node16&#45;&gt;Node19</title>
<path fill="none" stroke="#9a32cd" stroke-dasharray="5,2" d="M38.78,-155.81C41.54,-156.61 44.32,-157.36 47,-158 68.63,-163.16 92.6,-167.45 113.96,-170.78"/>
<polygon fill="#9a32cd" stroke="#9a32cd" points="39.77,-152.45 29.18,-152.82 37.69,-159.13 39.77,-152.45"/>
<text text-anchor="middle" x="71.5" y="-171" font-family="Helvetica,sans-Serif" font-size="10.00"> keys</text>
</g>
<!-- Node17&#45;&gt;Node14 -->
<g id="edge17" class="edge">
<title>Node17&#45;&gt;Node14</title>
<path fill="none" stroke="orange" stroke-dasharray="5,2" d="M246.22,-13.04C296.08,-15.52 365.31,-19.52 426,-25 431.74,-25.52 437.67,-26.11 443.63,-26.74"/>
<polygon fill="orange" stroke="orange" points="246.36,-9.54 236.2,-12.54 246.02,-16.53 246.36,-9.54"/>
<text text-anchor="middle" x="342" y="-28" font-family="Helvetica,sans-Serif" font-size="10.00"> &lt; MetaDataDictionaryMapType &gt;</text>
</g>
<!-- Node18&#45;&gt;Node6 -->
<g id="edge19" class="edge">
<title>Node18&#45;&gt;Node6</title>
<path fill="none" stroke="#9a32cd" stroke-dasharray="5,2" d="M715.87,-119.14C797.37,-119.36 947.09,-119.74 1012.95,-119.92"/>
<polygon fill="#9a32cd" stroke="#9a32cd" points="715.81,-115.64 705.8,-119.12 715.79,-122.64 715.81,-115.64"/>
<text text-anchor="middle" x="793" y="-123" font-family="Helvetica,sans-Serif" font-size="10.00"> m_MTime</text>
</g>
<!-- Node19&#45;&gt;Node5 -->
<g id="edge21" class="edge">
<title>Node19&#45;&gt;Node5</title>
<path fill="none" stroke="orange" stroke-dasharray="5,2" d="M250.54,-179C319.28,-179 425.42,-179 517.5,-179 517.5,-179 517.5,-179 1047.5,-179 1088.08,-179 1133.65,-179 1169.47,-179"/>
<polygon fill="orange" stroke="orange" points="250.26,-175.5 240.26,-179 250.26,-182.5 250.26,-175.5"/>
<text text-anchor="start" x="740" y="-193" font-family="Helvetica,sans-Serif" font-size="10.00"> &lt; itk::Object *, std</text>
<text text-anchor="middle" x="793" y="-182" font-family="Helvetica,sans-Serif" font-size="10.00">::function&lt; void()&gt; &gt;</text>
</g>
</g>
</svg>
