<?xml version="1.0" encoding="UTF-8" standalone="no"?>
<!DOCTYPE svg PUBLIC "-//W3C//DTD SVG 1.1//EN"
 "http://www.w3.org/Graphics/SVG/1.1/DTD/svg11.dtd">
<!-- Generated by graphviz version 2.43.0 (0)
 -->
<!-- Title: SimpleITK Pages: 1 -->
<svg width="288pt" height="132pt"
 viewBox="0.00 0.00 288.00 132.00" xmlns="http://www.w3.org/2000/svg" xmlns:xlink="http://www.w3.org/1999/xlink">
<g id="graph0" class="graph" transform="scale(1 1) rotate(0) translate(4 128)">
<title>SimpleITK</title>
<polygon fill="white" stroke="transparent" points="-4,4 -4,-128 284,-128 284,4 -4,4"/>
<g id="clust1" class="cluster">
<title>clusterdir_0195af5fa7804b5c802a7ca910fa092c</title>
<g id="a_clust1"><a xlink:href="dir_0195af5fa7804b5c802a7ca910fa092c.html" target="_top">
<polygon fill="#eeeeff" stroke="black" points="8,-64 8,-116 272,-116 272,-64 8,-64"/>
</a>
</g>
</g>
<!-- dir_0195af5fa7804b5c802a7ca910fa092c -->
<g id="node1" class="node">
<title>dir_0195af5fa7804b5c802a7ca910fa092c</title>
<text text-anchor="middle" x="231" y="-87.5" font-family="Helvetica,sans-Serif" font-size="10.00">SimpleITK</text>
</g>
<!-- dir_b9cb50edb61d9a37345e1397b3ccbbdc -->
<g id="node2" class="node">
<title>dir_b9cb50edb61d9a37345e1397b3ccbbdc</title>
<g id="a_node2"><a xlink:href="dir_b9cb50edb61d9a37345e1397b3ccbbdc.html" target="_top" xlink:title="Code">
<polygon fill="white" stroke="red" points="180,-108 126,-108 126,-72 180,-72 180,-108"/>
<text text-anchor="middle" x="153" y="-87.5" font-family="Helvetica,sans-Serif" font-size="10.00">Code</text>
</a>
</g>
</g>
<!-- dir_f39368514e927ff3df32776217a2e927 -->
<g id="node4" class="node">
<title>dir_f39368514e927ff3df32776217a2e927</title>
<g id="a_node4"><a xlink:href="dir_f39368514e927ff3df32776217a2e927.html" target="_top" xlink:title="Code">
<polygon fill="white" stroke="red" points="180,-36 126,-36 126,0 180,0 180,-36"/>
<text text-anchor="middle" x="153" y="-15.5" font-family="Helvetica,sans-Serif" font-size="10.00">Code</text>
</a>
</g>
</g>
<!-- dir_b9cb50edb61d9a37345e1397b3ccbbdc&#45;&gt;dir_f39368514e927ff3df32776217a2e927 -->
<g id="edge1" class="edge">
<title>dir_b9cb50edb61d9a37345e1397b3ccbbdc&#45;&gt;dir_f39368514e927ff3df32776217a2e927</title>
<path fill="none" stroke="black" d="M147.08,-71.7C146.29,-63.98 146.06,-54.71 146.4,-46.11"/>
<polygon fill="black" stroke="black" points="149.9,-46.32 147.1,-36.1 142.92,-45.84 149.9,-46.32"/>
<g id="a_edge1&#45;headlabel"><a xlink:href="dir_000012_000000.html" target="_top" xlink:title="17">
<text text-anchor="middle" x="152.48" y="-47.61" font-family="Helvetica,sans-Serif" font-size="10.00">17</text>
</a>
</g>
</g>
<!-- dir_a0d15dcceca226368774138d2ff217c3 -->
<g id="node3" class="node">
<title>dir_a0d15dcceca226368774138d2ff217c3</title>
<g id="a_node3"><a xlink:href="dir_a0d15dcceca226368774138d2ff217c3.html" target="_top" xlink:title="Documentation">
<polygon fill="white" stroke="red" points="108,-108 16,-108 16,-72 108,-72 108,-108"/>
<text text-anchor="middle" x="62" y="-87.5" font-family="Helvetica,sans-Serif" font-size="10.00">Documentation</text>
</a>
</g>
</g>
<!-- dir_f39368514e927ff3df32776217a2e927&#45;&gt;dir_b9cb50edb61d9a37345e1397b3ccbbdc -->
<g id="edge2" class="edge">
<title>dir_f39368514e927ff3df32776217a2e927&#45;&gt;dir_b9cb50edb61d9a37345e1397b3ccbbdc</title>
<path fill="none" stroke="black" d="M158.9,-36.1C159.7,-43.79 159.94,-53.05 159.6,-61.67"/>
<polygon fill="black" stroke="black" points="156.11,-61.48 158.92,-71.7 163.09,-61.96 156.11,-61.48"/>
<g id="a_edge2&#45;headlabel"><a xlink:href="dir_000000_000012.html" target="_top" xlink:title="594">
<text text-anchor="middle" x="153.52" y="-55.2" font-family="Helvetica,sans-Serif" font-size="10.00">594</text>
</a>
</g>
</g>
</g>
</svg>
