<?xml version="1.0" encoding="UTF-8" standalone="no"?>
<!DOCTYPE svg PUBLIC "-//W3C//DTD SVG 1.1//EN"
 "http://www.w3.org/Graphics/SVG/1.1/DTD/svg11.dtd">
<!-- Generated by graphviz version 2.43.0 (0)
 -->
<!-- Title: include Pages: 1 -->
<svg width="94pt" height="151pt"
 viewBox="0.00 0.00 94.00 151.00" xmlns="http://www.w3.org/2000/svg" xmlns:xlink="http://www.w3.org/1999/xlink">
<g id="graph0" class="graph" transform="scale(1 1) rotate(0) translate(4 147)">
<title>include</title>
<polygon fill="white" stroke="transparent" points="-4,4 -4,-147 90,-147 90,4 -4,4"/>
<g id="clust1" class="cluster">
<title>clusterdir_2a34bf78513aea0df2e2c3d4af0cd38f</title>
<g id="a_clust1"><a xlink:href="dir_2a34bf78513aea0df2e2c3d4af0cd38f.html" target="_top" xlink:title="IO">
<polygon fill="#ddddee" stroke="black" points="8,-64 8,-135 78,-135 78,-64 8,-64"/>
<text text-anchor="middle" x="43" y="-123" font-family="Helvetica,sans-Serif" font-size="10.00">IO</text>
</a>
</g>
</g>
<!-- dir_4c1348f0b6a1251c10909f19a7bebedb -->
<g id="node1" class="node">
<title>dir_4c1348f0b6a1251c10909f19a7bebedb</title>
<g id="a_node1"><a xlink:href="dir_4c1348f0b6a1251c10909f19a7bebedb.html" target="_top" xlink:title="include">
<polygon fill="#eeeeff" stroke="black" points="70,-108 16,-108 16,-72 70,-72 70,-108"/>
<text text-anchor="middle" x="43" y="-87.5" font-family="Helvetica,sans-Serif" font-size="10.00">include</text>
</a>
</g>
</g>
<!-- dir_1ba33b307118a85c0794d13b60d0caea -->
<g id="node2" class="node">
<title>dir_1ba33b307118a85c0794d13b60d0caea</title>
<g id="a_node2"><a xlink:href="dir_1ba33b307118a85c0794d13b60d0caea.html" target="_top" xlink:title="Common">
<polygon fill="white" stroke="red" points="73.5,-36 12.5,-36 12.5,0 73.5,0 73.5,-36"/>
<text text-anchor="middle" x="43" y="-15.5" font-family="Helvetica,sans-Serif" font-size="10.00">Common</text>
</a>
</g>
</g>
<!-- dir_4c1348f0b6a1251c10909f19a7bebedb&#45;&gt;dir_1ba33b307118a85c0794d13b60d0caea -->
<g id="edge1" class="edge">
<title>dir_4c1348f0b6a1251c10909f19a7bebedb&#45;&gt;dir_1ba33b307118a85c0794d13b60d0caea</title>
<path fill="none" stroke="black" d="M43,-71.7C43,-63.98 43,-54.71 43,-46.11"/>
<polygon fill="black" stroke="black" points="46.5,-46.1 43,-36.1 39.5,-46.1 46.5,-46.1"/>
<g id="a_edge1&#45;headlabel"><a xlink:href="dir_000023_000006.html" target="_top" xlink:title="24">
<text text-anchor="middle" x="49.34" y="-47.2" font-family="Helvetica,sans-Serif" font-size="10.00">24</text>
</a>
</g>
</g>
</g>
</svg>
