<?xml version="1.0" encoding="UTF-8" standalone="no"?>
<!DOCTYPE svg PUBLIC "-//W3C//DTD SVG 1.1//EN"
 "http://www.w3.org/Graphics/SVG/1.1/DTD/svg11.dtd">
<!-- Generated by graphviz version 2.43.0 (0)
 -->
<!-- Title: include Pages: 1 -->
<svg width="261pt" height="223pt"
 viewBox="0.00 0.00 260.54 223.00" xmlns="http://www.w3.org/2000/svg" xmlns:xlink="http://www.w3.org/1999/xlink">
<g id="graph0" class="graph" transform="scale(1 1) rotate(0) translate(4 219)">
<title>include</title>
<polygon fill="white" stroke="transparent" points="-4,4 -4,-219 256.54,-219 256.54,4 -4,4"/>
<g id="clust1" class="cluster">
<title>clusterdir_1ba33b307118a85c0794d13b60d0caea</title>
<g id="a_clust1"><a xlink:href="dir_1ba33b307118a85c0794d13b60d0caea.html" target="_top" xlink:title="Common">
<polygon fill="#ddddee" stroke="black" points="121,-136 121,-207 191,-207 191,-136 121,-136"/>
<text text-anchor="middle" x="156" y="-195" font-family="Helvetica,sans-Serif" font-size="10.00">Common</text>
</a>
</g>
</g>
<!-- dir_ab715d7520ac64fdeaa3063399f39ed8 -->
<g id="node1" class="node">
<title>dir_ab715d7520ac64fdeaa3063399f39ed8</title>
<g id="a_node1"><a xlink:href="dir_ab715d7520ac64fdeaa3063399f39ed8.html" target="_top" xlink:title="include">
<polygon fill="#eeeeff" stroke="black" points="183,-180 129,-180 129,-144 183,-144 183,-180"/>
<text text-anchor="middle" x="156" y="-159.5" font-family="Helvetica,sans-Serif" font-size="10.00">include</text>
</a>
</g>
</g>
<!-- dir_2a34bf78513aea0df2e2c3d4af0cd38f -->
<g id="node2" class="node">
<title>dir_2a34bf78513aea0df2e2c3d4af0cd38f</title>
<g id="a_node2"><a xlink:href="dir_2a34bf78513aea0df2e2c3d4af0cd38f.html" target="_top" xlink:title="IO">
<polygon fill="white" stroke="red" points="54,-108 0,-108 0,-72 54,-72 54,-108"/>
<text text-anchor="middle" x="27" y="-87.5" font-family="Helvetica,sans-Serif" font-size="10.00">IO</text>
</a>
</g>
</g>
<!-- dir_ab715d7520ac64fdeaa3063399f39ed8&#45;&gt;dir_2a34bf78513aea0df2e2c3d4af0cd38f -->
<g id="edge1" class="edge">
<title>dir_ab715d7520ac64fdeaa3063399f39ed8&#45;&gt;dir_2a34bf78513aea0df2e2c3d4af0cd38f</title>
<path fill="none" stroke="black" d="M128.96,-146.33C109.78,-135.92 83.84,-121.84 62.92,-110.49"/>
<polygon fill="black" stroke="black" points="64.47,-107.35 54.01,-105.65 61.13,-113.5 64.47,-107.35"/>
<g id="a_edge1&#45;headlabel"><a xlink:href="dir_000017_000021.html" target="_top" xlink:title="7">
<text text-anchor="middle" x="68.98" y="-104.07" font-family="Helvetica,sans-Serif" font-size="10.00">7</text>
</a>
</g>
</g>
<!-- dir_38d004fcec24276f2c541b703d786171 -->
<g id="node3" class="node">
<title>dir_38d004fcec24276f2c541b703d786171</title>
<g id="a_node3"><a xlink:href="dir_38d004fcec24276f2c541b703d786171.html" target="_top" xlink:title="Registration">
<polygon fill="white" stroke="red" points="148,-108 72,-108 72,-72 148,-72 148,-108"/>
<text text-anchor="middle" x="110" y="-87.5" font-family="Helvetica,sans-Serif" font-size="10.00">Registration</text>
</a>
</g>
</g>
<!-- dir_ab715d7520ac64fdeaa3063399f39ed8&#45;&gt;dir_38d004fcec24276f2c541b703d786171 -->
<g id="edge2" class="edge">
<title>dir_ab715d7520ac64fdeaa3063399f39ed8&#45;&gt;dir_38d004fcec24276f2c541b703d786171</title>
<path fill="none" stroke="black" d="M144.63,-143.7C139.28,-135.56 132.8,-125.69 126.89,-116.7"/>
<polygon fill="black" stroke="black" points="129.66,-114.54 121.24,-108.1 123.81,-118.38 129.66,-114.54"/>
<g id="a_edge2&#45;headlabel"><a xlink:href="dir_000017_000024.html" target="_top" xlink:title="1">
<text text-anchor="middle" x="134" y="-113.48" font-family="Helvetica,sans-Serif" font-size="10.00">1</text>
</a>
</g>
</g>
<!-- dir_dbb0507b3639155bebaec74fe5b3f957 -->
<g id="node4" class="node">
<title>dir_dbb0507b3639155bebaec74fe5b3f957</title>
<g id="a_node4"><a xlink:href="dir_dbb0507b3639155bebaec74fe5b3f957.html" target="_top" xlink:title="BasicFilters">
<polygon fill="white" stroke="red" points="239.5,-108 166.5,-108 166.5,-72 239.5,-72 239.5,-108"/>
<text text-anchor="middle" x="203" y="-87.5" font-family="Helvetica,sans-Serif" font-size="10.00">BasicFilters</text>
</a>
</g>
</g>
<!-- dir_ab715d7520ac64fdeaa3063399f39ed8&#45;&gt;dir_dbb0507b3639155bebaec74fe5b3f957 -->
<g id="edge3" class="edge">
<title>dir_ab715d7520ac64fdeaa3063399f39ed8&#45;&gt;dir_dbb0507b3639155bebaec74fe5b3f957</title>
<path fill="none" stroke="black" d="M167.62,-143.7C173.14,-135.47 179.85,-125.48 185.93,-116.42"/>
<polygon fill="black" stroke="black" points="188.85,-118.36 191.52,-108.1 183.04,-114.46 188.85,-118.36"/>
<g id="a_edge3&#45;headlabel"><a xlink:href="dir_000017_000013.html" target="_top" xlink:title="10">
<text text-anchor="middle" x="189.2" y="-120.42" font-family="Helvetica,sans-Serif" font-size="10.00">10</text>
</a>
</g>
</g>
<!-- dir_f39368514e927ff3df32776217a2e927 -->
<g id="node5" class="node">
<title>dir_f39368514e927ff3df32776217a2e927</title>
<g id="a_node5"><a xlink:href="dir_f39368514e927ff3df32776217a2e927.html" target="_top" xlink:title="Code">
<polygon fill="white" stroke="red" points="230,-36 176,-36 176,0 230,0 230,-36"/>
<text text-anchor="middle" x="203" y="-15.5" font-family="Helvetica,sans-Serif" font-size="10.00">Code</text>
</a>
</g>
</g>
<!-- dir_ab715d7520ac64fdeaa3063399f39ed8&#45;&gt;dir_f39368514e927ff3df32776217a2e927 -->
<g id="edge4" class="edge">
<title>dir_ab715d7520ac64fdeaa3063399f39ed8&#45;&gt;dir_f39368514e927ff3df32776217a2e927</title>
<path fill="none" stroke="black" d="M183.14,-153.58C204.96,-146.02 234.16,-131.94 248,-108 260.36,-86.62 244.98,-61.44 228.93,-43.33"/>
<polygon fill="black" stroke="black" points="231.48,-40.93 222.09,-36.03 226.38,-45.72 231.48,-40.93"/>
<g id="a_edge4&#45;headlabel"><a xlink:href="dir_000017_000000.html" target="_top" xlink:title="6">
<text text-anchor="middle" x="236.01" y="-39.11" font-family="Helvetica,sans-Serif" font-size="10.00">6</text>
</a>
</g>
</g>
<!-- dir_dbb0507b3639155bebaec74fe5b3f957&#45;&gt;dir_f39368514e927ff3df32776217a2e927 -->
<g id="edge5" class="edge">
<title>dir_dbb0507b3639155bebaec74fe5b3f957&#45;&gt;dir_f39368514e927ff3df32776217a2e927</title>
<path fill="none" stroke="black" d="M197.08,-71.7C196.29,-63.98 196.06,-54.71 196.4,-46.11"/>
<polygon fill="black" stroke="black" points="199.9,-46.32 197.1,-36.1 192.92,-45.84 199.9,-46.32"/>
<g id="a_edge5&#45;headlabel"><a xlink:href="dir_000013_000000.html" target="_top" xlink:title="11">
<text text-anchor="middle" x="202.48" y="-47.61" font-family="Helvetica,sans-Serif" font-size="10.00">11</text>
</a>
</g>
</g>
<!-- dir_f39368514e927ff3df32776217a2e927&#45;&gt;dir_dbb0507b3639155bebaec74fe5b3f957 -->
<g id="edge6" class="edge">
<title>dir_f39368514e927ff3df32776217a2e927&#45;&gt;dir_dbb0507b3639155bebaec74fe5b3f957</title>
<path fill="none" stroke="black" d="M208.9,-36.1C209.7,-43.79 209.94,-53.05 209.6,-61.67"/>
<polygon fill="black" stroke="black" points="206.11,-61.48 208.92,-71.7 213.09,-61.96 206.11,-61.48"/>
<g id="a_edge6&#45;headlabel"><a xlink:href="dir_000000_000013.html" target="_top" xlink:title="580">
<text text-anchor="middle" x="203.52" y="-55.2" font-family="Helvetica,sans-Serif" font-size="10.00">580</text>
</a>
</g>
</g>
</g>
</svg>
