<?xml version="1.0" encoding="UTF-8" standalone="no"?>
<!DOCTYPE svg PUBLIC "-//W3C//DTD SVG 1.1//EN"
 "http://www.w3.org/Graphics/SVG/1.1/DTD/svg11.dtd">
<!-- Generated by graphviz version 2.43.0 (0)
 -->
<!-- Title: Code Pages: 1 -->
<svg width="337pt" height="132pt"
 viewBox="0.00 0.00 337.00 132.00" xmlns="http://www.w3.org/2000/svg" xmlns:xlink="http://www.w3.org/1999/xlink">
<g id="graph0" class="graph" transform="scale(1 1) rotate(0) translate(4 128)">
<title>Code</title>
<polygon fill="white" stroke="transparent" points="-4,4 -4,-128 333,-128 333,4 -4,4"/>
<g id="clust1" class="cluster">
<title>clusterdir_f39368514e927ff3df32776217a2e927</title>
<g id="a_clust1"><a xlink:href="dir_f39368514e927ff3df32776217a2e927.html" target="_top">
<polygon fill="#eeeeff" stroke="black" points="8,-8 8,-60 321,-60 321,-8 8,-8"/>
</a>
</g>
</g>
<!-- dir_f39368514e927ff3df32776217a2e927 -->
<g id="node1" class="node">
<title>dir_f39368514e927ff3df32776217a2e927</title>
<text text-anchor="middle" x="286" y="-31.5" font-family="Helvetica,sans-Serif" font-size="10.00">Code</text>
</g>
<!-- dir_b21f75010e215c7b92162b53140844e6 -->
<g id="node2" class="node">
<title>dir_b21f75010e215c7b92162b53140844e6</title>
<g id="a_node2"><a xlink:href="dir_b21f75010e215c7b92162b53140844e6.html" target="_top" xlink:title="BasicFilters">
<polygon fill="white" stroke="red" points="240.5,-52 167.5,-52 167.5,-16 240.5,-16 240.5,-52"/>
<text text-anchor="middle" x="204" y="-31.5" font-family="Helvetica,sans-Serif" font-size="10.00">BasicFilters</text>
</a>
</g>
</g>
<!-- dir_0195af5fa7804b5c802a7ca910fa092c -->
<g id="node5" class="node">
<title>dir_0195af5fa7804b5c802a7ca910fa092c</title>
<g id="a_node5"><a xlink:href="dir_0195af5fa7804b5c802a7ca910fa092c.html" target="_top" xlink:title="SimpleITK">
<polygon fill="white" stroke="red" points="237,-124 171,-124 171,-88 237,-88 237,-124"/>
<text text-anchor="middle" x="204" y="-103.5" font-family="Helvetica,sans-Serif" font-size="10.00">SimpleITK</text>
</a>
</g>
</g>
<!-- dir_b21f75010e215c7b92162b53140844e6&#45;&gt;dir_0195af5fa7804b5c802a7ca910fa092c -->
<g id="edge3" class="edge">
<title>dir_b21f75010e215c7b92162b53140844e6&#45;&gt;dir_0195af5fa7804b5c802a7ca910fa092c</title>
<path fill="none" stroke="black" d="M198.1,-52.1C197.3,-59.79 197.06,-69.05 197.4,-77.67"/>
<polygon fill="black" stroke="black" points="193.91,-77.96 198.08,-87.7 200.89,-77.48 193.91,-77.96"/>
<g id="a_edge3&#45;headlabel"><a xlink:href="dir_000001_000011.html" target="_top" xlink:title="594">
<text text-anchor="middle" x="190.83" y="-72.07" font-family="Helvetica,sans-Serif" font-size="10.00">594</text>
</a>
</g>
</g>
<!-- dir_cc987b94e594eadf19c864c13539e4e9 -->
<g id="node3" class="node">
<title>dir_cc987b94e594eadf19c864c13539e4e9</title>
<g id="a_node3"><a xlink:href="dir_cc987b94e594eadf19c864c13539e4e9.html" target="_top" xlink:title="Common">
<polygon fill="white" stroke="red" points="149.5,-52 88.5,-52 88.5,-16 149.5,-16 149.5,-52"/>
<text text-anchor="middle" x="119" y="-31.5" font-family="Helvetica,sans-Serif" font-size="10.00">Common</text>
</a>
</g>
</g>
<!-- dir_92f5b88479b85401842b37a8d0a6f528 -->
<g id="node4" class="node">
<title>dir_92f5b88479b85401842b37a8d0a6f528</title>
<g id="a_node4"><a xlink:href="dir_92f5b88479b85401842b37a8d0a6f528.html" target="_top" xlink:title="IO">
<polygon fill="white" stroke="red" points="70,-52 16,-52 16,-16 70,-16 70,-52"/>
<text text-anchor="middle" x="43" y="-31.5" font-family="Helvetica,sans-Serif" font-size="10.00">IO</text>
</a>
</g>
</g>
<!-- dir_0195af5fa7804b5c802a7ca910fa092c&#45;&gt;dir_b21f75010e215c7b92162b53140844e6 -->
<g id="edge1" class="edge">
<title>dir_0195af5fa7804b5c802a7ca910fa092c&#45;&gt;dir_b21f75010e215c7b92162b53140844e6</title>
<path fill="none" stroke="black" d="M209.92,-87.7C210.71,-79.98 210.94,-70.71 210.6,-62.11"/>
<polygon fill="black" stroke="black" points="214.08,-61.84 209.9,-52.1 207.1,-62.32 214.08,-61.84"/>
<g id="a_edge1&#45;headlabel"><a xlink:href="dir_000011_000001.html" target="_top" xlink:title="13">
<text text-anchor="middle" x="217.17" y="-62.72" font-family="Helvetica,sans-Serif" font-size="10.00">13</text>
</a>
</g>
</g>
<!-- dir_0195af5fa7804b5c802a7ca910fa092c&#45;&gt;dir_cc987b94e594eadf19c864c13539e4e9 -->
<g id="edge2" class="edge">
<title>dir_0195af5fa7804b5c802a7ca910fa092c&#45;&gt;dir_cc987b94e594eadf19c864c13539e4e9</title>
<path fill="none" stroke="black" d="M182.99,-87.7C172.28,-78.88 159.11,-68.03 147.5,-58.47"/>
<polygon fill="black" stroke="black" points="149.71,-55.76 139.77,-52.1 145.26,-61.16 149.71,-55.76"/>
<g id="a_edge2&#45;headlabel"><a xlink:href="dir_000011_000004.html" target="_top" xlink:title="4">
<text text-anchor="middle" x="154.29" y="-53.35" font-family="Helvetica,sans-Serif" font-size="10.00">4</text>
</a>
</g>
</g>
</g>
</svg>
