<?xml version="1.0" encoding="UTF-8" standalone="no"?>
<!DOCTYPE svg PUBLIC "-//W3C//DTD SVG 1.1//EN"
 "http://www.w3.org/Graphics/SVG/1.1/DTD/svg11.dtd">
<!-- Generated by graphviz version 2.43.0 (0)
 -->
<!-- Title: Explicit Pages: 1 -->
<svg width="182pt" height="175pt"
 viewBox="0.00 0.00 182.00 175.00" xmlns="http://www.w3.org/2000/svg" xmlns:xlink="http://www.w3.org/1999/xlink">
<g id="graph0" class="graph" transform="scale(1 1) rotate(0) translate(4 171)">
<title>Explicit</title>
<polygon fill="white" stroke="transparent" points="-4,4 -4,-171 178,-171 178,4 -4,4"/>
<g id="clust1" class="cluster">
<title>clusterdir_b9cb50edb61d9a37345e1397b3ccbbdc</title>
<g id="a_clust1"><a xlink:href="dir_b9cb50edb61d9a37345e1397b3ccbbdc.html" target="_top" xlink:title="Code">
<polygon fill="#ddddee" stroke="black" points="8,-8 8,-159 166,-159 166,-8 8,-8"/>
<text text-anchor="middle" x="87" y="-147" font-family="Helvetica,sans-Serif" font-size="10.00">Code</text>
</a>
</g>
</g>
<g id="clust2" class="cluster">
<title>clusterdir_2c0aae0932349bdc522a08f3cf356d36</title>
<g id="a_clust2"><a xlink:href="dir_2c0aae0932349bdc522a08f3cf356d36.html" target="_top">
<polygon fill="#eeeeff" stroke="black" points="16,-80 16,-132 158,-132 158,-80 16,-80"/>
</a>
</g>
</g>
<!-- dir_1ba33b307118a85c0794d13b60d0caea -->
<g id="node1" class="node">
<title>dir_1ba33b307118a85c0794d13b60d0caea</title>
<g id="a_node1"><a xlink:href="dir_1ba33b307118a85c0794d13b60d0caea.html" target="_top" xlink:title="Common">
<polygon fill="white" stroke="red" points="81.5,-52 20.5,-52 20.5,-16 81.5,-16 81.5,-52"/>
<text text-anchor="middle" x="51" y="-31.5" font-family="Helvetica,sans-Serif" font-size="10.00">Common</text>
</a>
</g>
</g>
<!-- dir_2c0aae0932349bdc522a08f3cf356d36 -->
<g id="node2" class="node">
<title>dir_2c0aae0932349bdc522a08f3cf356d36</title>
<text text-anchor="middle" x="123" y="-103.5" font-family="Helvetica,sans-Serif" font-size="10.00">Explicit</text>
</g>
<!-- dir_8b2600b2999bc417f92392a7b8f3a3eb -->
<g id="node3" class="node">
<title>dir_8b2600b2999bc417f92392a7b8f3a3eb</title>
<g id="a_node3"><a xlink:href="dir_8b2600b2999bc417f92392a7b8f3a3eb.html" target="_top" xlink:title="include">
<polygon fill="white" stroke="black" points="78,-124 24,-124 24,-88 78,-88 78,-124"/>
<text text-anchor="middle" x="51" y="-103.5" font-family="Helvetica,sans-Serif" font-size="10.00">include</text>
</a>
</g>
</g>
<!-- dir_8b2600b2999bc417f92392a7b8f3a3eb&#45;&gt;dir_1ba33b307118a85c0794d13b60d0caea -->
<g id="edge1" class="edge">
<title>dir_8b2600b2999bc417f92392a7b8f3a3eb&#45;&gt;dir_1ba33b307118a85c0794d13b60d0caea</title>
<path fill="none" stroke="black" d="M51,-87.7C51,-79.98 51,-70.71 51,-62.11"/>
<polygon fill="black" stroke="black" points="54.5,-62.1 51,-52.1 47.5,-62.1 54.5,-62.1"/>
<g id="a_edge1&#45;headlabel"><a xlink:href="dir_000020_000016.html" target="_top" xlink:title="1">
<text text-anchor="middle" x="57.34" y="-63.2" font-family="Helvetica,sans-Serif" font-size="10.00">1</text>
</a>
</g>
</g>
</g>
</svg>
