<?xml version="1.0" encoding="UTF-8" standalone="no"?>
<!DOCTYPE svg PUBLIC "-//W3C//DTD SVG 1.1//EN"
 "http://www.w3.org/Graphics/SVG/1.1/DTD/svg11.dtd">
<!-- Generated by graphviz version 2.43.0 (0)
 -->
<!-- Title: Registration Pages: 1 -->
<svg width="204pt" height="175pt"
 viewBox="0.00 0.00 204.00 175.00" xmlns="http://www.w3.org/2000/svg" xmlns:xlink="http://www.w3.org/1999/xlink">
<g id="graph0" class="graph" transform="scale(1 1) rotate(0) translate(4 171)">
<title>Registration</title>
<polygon fill="white" stroke="transparent" points="-4,4 -4,-171 200,-171 200,4 -4,4"/>
<g id="clust1" class="cluster">
<title>clusterdir_b9cb50edb61d9a37345e1397b3ccbbdc</title>
<g id="a_clust1"><a xlink:href="dir_b9cb50edb61d9a37345e1397b3ccbbdc.html" target="_top" xlink:title="Code">
<polygon fill="#ddddee" stroke="black" points="8,-8 8,-159 188,-159 188,-8 8,-8"/>
<text text-anchor="middle" x="98" y="-147" font-family="Helvetica,sans-Serif" font-size="10.00">Code</text>
</a>
</g>
</g>
<g id="clust2" class="cluster">
<title>clusterdir_38d004fcec24276f2c541b703d786171</title>
<g id="a_clust2"><a xlink:href="dir_38d004fcec24276f2c541b703d786171.html" target="_top">
<polygon fill="#eeeeff" stroke="black" points="16,-16 16,-68 180,-68 180,-16 16,-16"/>
</a>
</g>
</g>
<!-- dir_1ba33b307118a85c0794d13b60d0caea -->
<g id="node1" class="node">
<title>dir_1ba33b307118a85c0794d13b60d0caea</title>
<g id="a_node1"><a xlink:href="dir_1ba33b307118a85c0794d13b60d0caea.html" target="_top" xlink:title="Common">
<polygon fill="white" stroke="red" points="81.5,-132 20.5,-132 20.5,-96 81.5,-96 81.5,-132"/>
<text text-anchor="middle" x="51" y="-111.5" font-family="Helvetica,sans-Serif" font-size="10.00">Common</text>
</a>
</g>
</g>
<!-- dir_7d89d2b16d8ddeef6397633d9aa8863c -->
<g id="node3" class="node">
<title>dir_7d89d2b16d8ddeef6397633d9aa8863c</title>
<g id="a_node3"><a xlink:href="dir_7d89d2b16d8ddeef6397633d9aa8863c.html" target="_top" xlink:title="include">
<polygon fill="white" stroke="black" points="78,-60 24,-60 24,-24 78,-24 78,-60"/>
<text text-anchor="middle" x="51" y="-39.5" font-family="Helvetica,sans-Serif" font-size="10.00">include</text>
</a>
</g>
</g>
<!-- dir_1ba33b307118a85c0794d13b60d0caea&#45;&gt;dir_7d89d2b16d8ddeef6397633d9aa8863c -->
<g id="edge1" class="edge">
<title>dir_1ba33b307118a85c0794d13b60d0caea&#45;&gt;dir_7d89d2b16d8ddeef6397633d9aa8863c</title>
<path fill="none" stroke="black" d="M56.92,-95.7C57.71,-87.98 57.94,-78.71 57.6,-70.11"/>
<polygon fill="black" stroke="black" points="61.08,-69.84 56.9,-60.1 54.1,-70.32 61.08,-69.84"/>
<g id="a_edge1&#45;headlabel"><a xlink:href="dir_000016_000025.html" target="_top" xlink:title="1">
<text text-anchor="middle" x="64.17" y="-70.72" font-family="Helvetica,sans-Serif" font-size="10.00">1</text>
</a>
</g>
</g>
<!-- dir_38d004fcec24276f2c541b703d786171 -->
<g id="node2" class="node">
<title>dir_38d004fcec24276f2c541b703d786171</title>
<text text-anchor="middle" x="134" y="-39.5" font-family="Helvetica,sans-Serif" font-size="10.00">Registration</text>
</g>
<!-- dir_7d89d2b16d8ddeef6397633d9aa8863c&#45;&gt;dir_1ba33b307118a85c0794d13b60d0caea -->
<g id="edge2" class="edge">
<title>dir_7d89d2b16d8ddeef6397633d9aa8863c&#45;&gt;dir_1ba33b307118a85c0794d13b60d0caea</title>
<path fill="none" stroke="black" d="M45.1,-60.1C44.3,-67.79 44.06,-77.05 44.4,-85.67"/>
<polygon fill="black" stroke="black" points="40.91,-85.96 45.08,-95.7 47.89,-85.48 40.91,-85.96"/>
<g id="a_edge2&#45;headlabel"><a xlink:href="dir_000025_000016.html" target="_top" xlink:title="9">
<text text-anchor="middle" x="37.83" y="-80.07" font-family="Helvetica,sans-Serif" font-size="10.00">9</text>
</a>
</g>
</g>
</g>
</svg>
