<?xml version="1.0" encoding="UTF-8" standalone="no"?>
<!DOCTYPE svg PUBLIC "-//W3C//DTD SVG 1.1//EN"
 "http://www.w3.org/Graphics/SVG/1.1/DTD/svg11.dtd">
<!-- Generated by graphviz version 2.43.0 (0)
 -->
<!-- Title: BasicFilters Pages: 1 -->
<svg width="219pt" height="231pt"
 viewBox="0.00 0.00 219.00 231.00" xmlns="http://www.w3.org/2000/svg" xmlns:xlink="http://www.w3.org/1999/xlink">
<g id="graph0" class="graph" transform="scale(1 1) rotate(0) translate(4 227)">
<title>BasicFilters</title>
<polygon fill="white" stroke="transparent" points="-4,4 -4,-227 215,-227 215,4 -4,4"/>
<g id="clust1" class="cluster">
<title>clusterdir_f39368514e927ff3df32776217a2e927</title>
<g id="a_clust1"><a xlink:href="dir_f39368514e927ff3df32776217a2e927.html" target="_top" xlink:title="Code">
<polygon fill="#ddddee" stroke="black" points="8,-56 8,-215 203,-215 203,-56 8,-56"/>
<text text-anchor="middle" x="105.5" y="-203" font-family="Helvetica,sans-Serif" font-size="10.00">Code</text>
</a>
</g>
</g>
<g id="clust2" class="cluster">
<title>clusterdir_b21f75010e215c7b92162b53140844e6</title>
<g id="a_clust2"><a xlink:href="dir_b21f75010e215c7b92162b53140844e6.html" target="_top">
<polygon fill="#eeeeff" stroke="black" points="16,-64 16,-188 195,-188 195,-64 16,-64"/>
</a>
</g>
</g>
<!-- dir_b21f75010e215c7b92162b53140844e6 -->
<g id="node1" class="node">
<title>dir_b21f75010e215c7b92162b53140844e6</title>
<text text-anchor="middle" x="150" y="-159.5" font-family="Helvetica,sans-Serif" font-size="10.00">BasicFilters</text>
</g>
<!-- dir_df2533eed1bb30fcde256245ed712422 -->
<g id="node2" class="node">
<title>dir_df2533eed1bb30fcde256245ed712422</title>
<g id="a_node2"><a xlink:href="dir_df2533eed1bb30fcde256245ed712422.html" target="_top" xlink:title="CMakeTmp">
<polygon fill="white" stroke="black" points="95.5,-180 24.5,-180 24.5,-144 95.5,-144 95.5,-180"/>
<text text-anchor="middle" x="60" y="-159.5" font-family="Helvetica,sans-Serif" font-size="10.00">CMakeTmp</text>
</a>
</g>
</g>
<!-- dir_ad7961c28a81bfe14ae4d4060867f6a1 -->
<g id="node3" class="node">
<title>dir_ad7961c28a81bfe14ae4d4060867f6a1</title>
<g id="a_node3"><a xlink:href="dir_ad7961c28a81bfe14ae4d4060867f6a1.html" target="_top" xlink:title="include">
<polygon fill="white" stroke="black" points="87,-108 33,-108 33,-72 87,-72 87,-108"/>
<text text-anchor="middle" x="60" y="-87.5" font-family="Helvetica,sans-Serif" font-size="10.00">include</text>
</a>
</g>
</g>
<!-- dir_df2533eed1bb30fcde256245ed712422&#45;&gt;dir_ad7961c28a81bfe14ae4d4060867f6a1 -->
<g id="edge3" class="edge">
<title>dir_df2533eed1bb30fcde256245ed712422&#45;&gt;dir_ad7961c28a81bfe14ae4d4060867f6a1</title>
<path fill="none" stroke="black" d="M60,-143.7C60,-135.98 60,-126.71 60,-118.11"/>
<polygon fill="black" stroke="black" points="63.5,-118.1 60,-108.1 56.5,-118.1 63.5,-118.1"/>
<g id="a_edge3&#45;headlabel"><a xlink:href="dir_000002_000003.html" target="_top" xlink:title="290">
<text text-anchor="middle" x="66.34" y="-119.2" font-family="Helvetica,sans-Serif" font-size="10.00">290</text>
</a>
</g>
</g>
<!-- dir_0195af5fa7804b5c802a7ca910fa092c -->
<g id="node4" class="node">
<title>dir_0195af5fa7804b5c802a7ca910fa092c</title>
<g id="a_node4"><a xlink:href="dir_0195af5fa7804b5c802a7ca910fa092c.html" target="_top" xlink:title="SimpleITK">
<polygon fill="white" stroke="red" points="93,-36 27,-36 27,0 93,0 93,-36"/>
<text text-anchor="middle" x="60" y="-15.5" font-family="Helvetica,sans-Serif" font-size="10.00">SimpleITK</text>
</a>
</g>
</g>
<!-- dir_ad7961c28a81bfe14ae4d4060867f6a1&#45;&gt;dir_0195af5fa7804b5c802a7ca910fa092c -->
<g id="edge2" class="edge">
<title>dir_ad7961c28a81bfe14ae4d4060867f6a1&#45;&gt;dir_0195af5fa7804b5c802a7ca910fa092c</title>
<path fill="none" stroke="black" d="M54.08,-71.7C53.29,-63.98 53.06,-54.71 53.4,-46.11"/>
<polygon fill="black" stroke="black" points="56.9,-46.32 54.1,-36.1 49.92,-45.84 56.9,-46.32"/>
<g id="a_edge2&#45;headlabel"><a xlink:href="dir_000003_000011.html" target="_top" xlink:title="594">
<text text-anchor="middle" x="59.48" y="-47.61" font-family="Helvetica,sans-Serif" font-size="10.00">594</text>
</a>
</g>
</g>
<!-- dir_0195af5fa7804b5c802a7ca910fa092c&#45;&gt;dir_ad7961c28a81bfe14ae4d4060867f6a1 -->
<g id="edge1" class="edge">
<title>dir_0195af5fa7804b5c802a7ca910fa092c&#45;&gt;dir_ad7961c28a81bfe14ae4d4060867f6a1</title>
<path fill="none" stroke="black" d="M65.9,-36.1C66.7,-43.79 66.94,-53.05 66.6,-61.67"/>
<polygon fill="black" stroke="black" points="63.11,-61.48 65.92,-71.7 70.09,-61.96 63.11,-61.48"/>
<g id="a_edge1&#45;headlabel"><a xlink:href="dir_000011_000003.html" target="_top" xlink:title="13">
<text text-anchor="middle" x="60.52" y="-55.2" font-family="Helvetica,sans-Serif" font-size="10.00">13</text>
</a>
</g>
</g>
</g>
</svg>
