<?xml version="1.0" encoding="UTF-8" standalone="no"?>
<!DOCTYPE svg PUBLIC "-//W3C//DTD SVG 1.1//EN"
 "http://www.w3.org/Graphics/SVG/1.1/DTD/svg11.dtd">
<!-- Generated by graphviz version 2.43.0 (0)
 -->
<!-- Title: BasicFilters Pages: 1 -->
<svg width="336pt" height="181pt"
 viewBox="0.00 0.00 335.50 180.83" xmlns="http://www.w3.org/2000/svg" xmlns:xlink="http://www.w3.org/1999/xlink">
<g id="graph0" class="graph" transform="scale(1 1) rotate(0) translate(4 176.83)">
<title>BasicFilters</title>
<polygon fill="white" stroke="transparent" points="-4,4 -4,-176.83 331.5,-176.83 331.5,4 -4,4"/>
<g id="clust1" class="cluster">
<title>clusterdir_b9cb50edb61d9a37345e1397b3ccbbdc</title>
<g id="a_clust1"><a xlink:href="dir_b9cb50edb61d9a37345e1397b3ccbbdc.html" target="_top" xlink:title="Code">
<polygon fill="#ddddee" stroke="black" points="8,-56 8,-143 258,-143 258,-56 8,-56"/>
<text text-anchor="middle" x="133" y="-131" font-family="Helvetica,sans-Serif" font-size="10.00">Code</text>
</a>
</g>
</g>
<g id="clust2" class="cluster">
<title>clusterdir_dbb0507b3639155bebaec74fe5b3f957</title>
<g id="a_clust2"><a xlink:href="dir_dbb0507b3639155bebaec74fe5b3f957.html" target="_top">
<polygon fill="#eeeeff" stroke="black" points="16,-64 16,-116 250,-116 250,-64 16,-64"/>
</a>
</g>
</g>
<!-- dir_dbb0507b3639155bebaec74fe5b3f957 -->
<g id="node1" class="node">
<title>dir_dbb0507b3639155bebaec74fe5b3f957</title>
<text text-anchor="middle" x="205" y="-87.5" font-family="Helvetica,sans-Serif" font-size="10.00">BasicFilters</text>
</g>
<!-- dir_7d59d9d95655f54e00bb9c93e4ffe47f -->
<g id="node2" class="node">
<title>dir_7d59d9d95655f54e00bb9c93e4ffe47f</title>
<g id="a_node2"><a xlink:href="dir_7d59d9d95655f54e00bb9c93e4ffe47f.html" target="_top" xlink:title="include">
<polygon fill="white" stroke="black" points="150,-108 96,-108 96,-72 150,-72 150,-108"/>
<text text-anchor="middle" x="123" y="-87.5" font-family="Helvetica,sans-Serif" font-size="10.00">include</text>
</a>
</g>
</g>
<!-- dir_1ba33b307118a85c0794d13b60d0caea -->
<g id="node4" class="node">
<title>dir_1ba33b307118a85c0794d13b60d0caea</title>
<g id="a_node4"><a xlink:href="dir_1ba33b307118a85c0794d13b60d0caea.html" target="_top" xlink:title="Common">
<polygon fill="white" stroke="red" points="327.5,-108 266.5,-108 266.5,-72 327.5,-72 327.5,-108"/>
<text text-anchor="middle" x="297" y="-87.5" font-family="Helvetica,sans-Serif" font-size="10.00">Common</text>
</a>
</g>
</g>
<!-- dir_7d59d9d95655f54e00bb9c93e4ffe47f&#45;&gt;dir_1ba33b307118a85c0794d13b60d0caea -->
<g id="edge6" class="edge">
<title>dir_7d59d9d95655f54e00bb9c93e4ffe47f&#45;&gt;dir_1ba33b307118a85c0794d13b60d0caea</title>
<path fill="none" stroke="black" d="M128.97,-108.05C135.71,-125.16 148.48,-149.85 169,-161 198.68,-177.13 214.87,-176.28 245,-161 263.11,-151.82 276.43,-133.03 285.06,-117.09"/>
<polygon fill="black" stroke="black" points="288.2,-118.63 289.59,-108.12 281.95,-115.47 288.2,-118.63"/>
<g id="a_edge6&#45;headlabel"><a xlink:href="dir_000005_000006.html" target="_top" xlink:title="22">
<text text-anchor="middle" x="289.11" y="-120.62" font-family="Helvetica,sans-Serif" font-size="10.00">22</text>
</a>
</g>
</g>
<!-- dir_f39368514e927ff3df32776217a2e927 -->
<g id="node5" class="node">
<title>dir_f39368514e927ff3df32776217a2e927</title>
<g id="a_node5"><a xlink:href="dir_f39368514e927ff3df32776217a2e927.html" target="_top" xlink:title="Code">
<polygon fill="white" stroke="red" points="324,-36 270,-36 270,0 324,0 324,-36"/>
<text text-anchor="middle" x="297" y="-15.5" font-family="Helvetica,sans-Serif" font-size="10.00">Code</text>
</a>
</g>
</g>
<!-- dir_7d59d9d95655f54e00bb9c93e4ffe47f&#45;&gt;dir_f39368514e927ff3df32776217a2e927 -->
<g id="edge7" class="edge">
<title>dir_7d59d9d95655f54e00bb9c93e4ffe47f&#45;&gt;dir_f39368514e927ff3df32776217a2e927</title>
<path fill="none" stroke="black" d="M130.58,-71.74C136.13,-66.03 143.43,-60.1 151,-56 185.07,-37.56 228.96,-27.82 259.85,-23.04"/>
<polygon fill="black" stroke="black" points="260.4,-26.5 269.8,-21.61 259.4,-19.57 260.4,-26.5"/>
<g id="a_edge7&#45;headlabel"><a xlink:href="dir_000005_000008.html" target="_top" xlink:title="11">
<text text-anchor="middle" x="257.25" y="-27.32" font-family="Helvetica,sans-Serif" font-size="10.00">11</text>
</a>
</g>
</g>
<!-- dir_348feb2136d7d59828297595b66d3e24 -->
<g id="node3" class="node">
<title>dir_348feb2136d7d59828297595b66d3e24</title>
<g id="a_node3"><a xlink:href="dir_348feb2136d7d59828297595b66d3e24.html" target="_top" xlink:title="src">
<polygon fill="white" stroke="black" points="78,-108 24,-108 24,-72 78,-72 78,-108"/>
<text text-anchor="middle" x="51" y="-87.5" font-family="Helvetica,sans-Serif" font-size="10.00">src</text>
</a>
</g>
</g>
<!-- dir_348feb2136d7d59828297595b66d3e24&#45;&gt;dir_1ba33b307118a85c0794d13b60d0caea -->
<g id="edge3" class="edge">
<title>dir_348feb2136d7d59828297595b66d3e24&#45;&gt;dir_1ba33b307118a85c0794d13b60d0caea</title>
<path fill="none" stroke="black" d="M56.73,-108.04C63.23,-125.14 75.67,-149.82 96,-161 125.01,-176.96 215.47,-175.98 245,-161 263.11,-151.82 276.43,-133.03 285.06,-117.09"/>
<polygon fill="black" stroke="black" points="288.2,-118.63 289.59,-108.12 281.95,-115.47 288.2,-118.63"/>
<g id="a_edge3&#45;headlabel"><a xlink:href="dir_000019_000006.html" target="_top" xlink:title="1">
<text text-anchor="middle" x="289.11" y="-120.62" font-family="Helvetica,sans-Serif" font-size="10.00">1</text>
</a>
</g>
</g>
<!-- dir_1ba33b307118a85c0794d13b60d0caea&#45;&gt;dir_7d59d9d95655f54e00bb9c93e4ffe47f -->
<g id="edge2" class="edge">
<title>dir_1ba33b307118a85c0794d13b60d0caea&#45;&gt;dir_7d59d9d95655f54e00bb9c93e4ffe47f</title>
<path fill="none" stroke="black" d="M289.59,-108.12C281.48,-125.28 266.67,-150.01 245,-161 214.87,-176.28 198.68,-177.13 169,-161 152.01,-151.76 140.33,-133.25 132.99,-117.44"/>
<polygon fill="black" stroke="black" points="136.12,-115.87 128.97,-108.05 129.69,-118.62 136.12,-115.87"/>
<g id="a_edge2&#45;headlabel"><a xlink:href="dir_000006_000005.html" target="_top" xlink:title="10">
<text text-anchor="middle" x="140.15" y="-115.55" font-family="Helvetica,sans-Serif" font-size="10.00">10</text>
</a>
</g>
</g>
<!-- dir_1ba33b307118a85c0794d13b60d0caea&#45;&gt;dir_f39368514e927ff3df32776217a2e927 -->
<g id="edge1" class="edge">
<title>dir_1ba33b307118a85c0794d13b60d0caea&#45;&gt;dir_f39368514e927ff3df32776217a2e927</title>
<path fill="none" stroke="black" d="M291.08,-71.7C290.29,-63.98 290.06,-54.71 290.4,-46.11"/>
<polygon fill="black" stroke="black" points="293.9,-46.32 291.1,-36.1 286.92,-45.84 293.9,-46.32"/>
<g id="a_edge1&#45;headlabel"><a xlink:href="dir_000006_000008.html" target="_top" xlink:title="6">
<text text-anchor="middle" x="296.48" y="-47.61" font-family="Helvetica,sans-Serif" font-size="10.00">6</text>
</a>
</g>
</g>
<!-- dir_f39368514e927ff3df32776217a2e927&#45;&gt;dir_7d59d9d95655f54e00bb9c93e4ffe47f -->
<g id="edge5" class="edge">
<title>dir_f39368514e927ff3df32776217a2e927&#45;&gt;dir_7d59d9d95655f54e00bb9c93e4ffe47f</title>
<path fill="none" stroke="black" d="M269.89,-23.73C242.95,-28.73 201.5,-38.41 169,-56 164.27,-58.56 159.64,-61.84 155.22,-65.33"/>
<polygon fill="black" stroke="black" points="152.96,-62.66 147.5,-71.74 157.43,-68.04 152.96,-62.66"/>
<g id="a_edge5&#45;headlabel"><a xlink:href="dir_000008_000005.html" target="_top" xlink:title="580">
<text text-anchor="middle" x="153.91" y="-55.67" font-family="Helvetica,sans-Serif" font-size="10.00">580</text>
</a>
</g>
</g>
<!-- dir_f39368514e927ff3df32776217a2e927&#45;&gt;dir_1ba33b307118a85c0794d13b60d0caea -->
<g id="edge4" class="edge">
<title>dir_f39368514e927ff3df32776217a2e927&#45;&gt;dir_1ba33b307118a85c0794d13b60d0caea</title>
<path fill="none" stroke="black" d="M302.9,-36.1C303.7,-43.79 303.94,-53.05 303.6,-61.67"/>
<polygon fill="black" stroke="black" points="300.11,-61.48 302.92,-71.7 307.09,-61.96 300.11,-61.48"/>
<g id="a_edge4&#45;headlabel"><a xlink:href="dir_000008_000006.html" target="_top" xlink:title="14">
<text text-anchor="middle" x="297.52" y="-55.2" font-family="Helvetica,sans-Serif" font-size="10.00">14</text>
</a>
</g>
</g>
</g>
</svg>
