<?xml version="1.0" encoding="UTF-8" standalone="no"?>
<!DOCTYPE svg PUBLIC "-//W3C//DTD SVG 1.1//EN"
 "http://www.w3.org/Graphics/SVG/1.1/DTD/svg11.dtd">
<!-- Generated by graphviz version 2.43.0 (0)
 -->
<!-- Title: IO Pages: 1 -->
<svg width="254pt" height="175pt"
 viewBox="0.00 0.00 254.00 175.00" xmlns="http://www.w3.org/2000/svg" xmlns:xlink="http://www.w3.org/1999/xlink">
<g id="graph0" class="graph" transform="scale(1 1) rotate(0) translate(4 171)">
<title>IO</title>
<polygon fill="white" stroke="transparent" points="-4,4 -4,-171 250,-171 250,4 -4,4"/>
<g id="clust1" class="cluster">
<title>clusterdir_b9cb50edb61d9a37345e1397b3ccbbdc</title>
<g id="a_clust1"><a xlink:href="dir_b9cb50edb61d9a37345e1397b3ccbbdc.html" target="_top" xlink:title="Code">
<polygon fill="#ddddee" stroke="black" points="8,-8 8,-159 238,-159 238,-8 8,-8"/>
<text text-anchor="middle" x="123" y="-147" font-family="Helvetica,sans-Serif" font-size="10.00">Code</text>
</a>
</g>
</g>
<g id="clust2" class="cluster">
<title>clusterdir_2a34bf78513aea0df2e2c3d4af0cd38f</title>
<g id="a_clust2"><a xlink:href="dir_2a34bf78513aea0df2e2c3d4af0cd38f.html" target="_top">
<polygon fill="#eeeeff" stroke="black" points="16,-16 16,-68 230,-68 230,-16 16,-16"/>
</a>
</g>
</g>
<!-- dir_1ba33b307118a85c0794d13b60d0caea -->
<g id="node1" class="node">
<title>dir_1ba33b307118a85c0794d13b60d0caea</title>
<g id="a_node1"><a xlink:href="dir_1ba33b307118a85c0794d13b60d0caea.html" target="_top" xlink:title="Common">
<polygon fill="white" stroke="red" points="153.5,-132 92.5,-132 92.5,-96 153.5,-96 153.5,-132"/>
<text text-anchor="middle" x="123" y="-111.5" font-family="Helvetica,sans-Serif" font-size="10.00">Common</text>
</a>
</g>
</g>
<!-- dir_4c1348f0b6a1251c10909f19a7bebedb -->
<g id="node3" class="node">
<title>dir_4c1348f0b6a1251c10909f19a7bebedb</title>
<g id="a_node3"><a xlink:href="dir_4c1348f0b6a1251c10909f19a7bebedb.html" target="_top" xlink:title="include">
<polygon fill="white" stroke="black" points="150,-60 96,-60 96,-24 150,-24 150,-60"/>
<text text-anchor="middle" x="123" y="-39.5" font-family="Helvetica,sans-Serif" font-size="10.00">include</text>
</a>
</g>
</g>
<!-- dir_1ba33b307118a85c0794d13b60d0caea&#45;&gt;dir_4c1348f0b6a1251c10909f19a7bebedb -->
<g id="edge1" class="edge">
<title>dir_1ba33b307118a85c0794d13b60d0caea&#45;&gt;dir_4c1348f0b6a1251c10909f19a7bebedb</title>
<path fill="none" stroke="black" d="M128.92,-95.7C129.71,-87.98 129.94,-78.71 129.6,-70.11"/>
<polygon fill="black" stroke="black" points="133.08,-69.84 128.9,-60.1 126.1,-70.32 133.08,-69.84"/>
<g id="a_edge1&#45;headlabel"><a xlink:href="dir_000016_000022.html" target="_top" xlink:title="7">
<text text-anchor="middle" x="136.17" y="-70.72" font-family="Helvetica,sans-Serif" font-size="10.00">7</text>
</a>
</g>
</g>
<!-- dir_2a34bf78513aea0df2e2c3d4af0cd38f -->
<g id="node2" class="node">
<title>dir_2a34bf78513aea0df2e2c3d4af0cd38f</title>
<text text-anchor="middle" x="195" y="-39.5" font-family="Helvetica,sans-Serif" font-size="10.00">IO</text>
</g>
<!-- dir_4c1348f0b6a1251c10909f19a7bebedb&#45;&gt;dir_1ba33b307118a85c0794d13b60d0caea -->
<g id="edge2" class="edge">
<title>dir_4c1348f0b6a1251c10909f19a7bebedb&#45;&gt;dir_1ba33b307118a85c0794d13b60d0caea</title>
<path fill="none" stroke="black" d="M117.1,-60.1C116.3,-67.79 116.06,-77.05 116.4,-85.67"/>
<polygon fill="black" stroke="black" points="112.91,-85.96 117.08,-95.7 119.89,-85.48 112.91,-85.96"/>
<g id="a_edge2&#45;headlabel"><a xlink:href="dir_000022_000016.html" target="_top" xlink:title="24">
<text text-anchor="middle" x="109.83" y="-80.07" font-family="Helvetica,sans-Serif" font-size="10.00">24</text>
</a>
</g>
</g>
<!-- dir_56582853a1883067227ec860abc1eb76 -->
<g id="node4" class="node">
<title>dir_56582853a1883067227ec860abc1eb76</title>
<g id="a_node4"><a xlink:href="dir_56582853a1883067227ec860abc1eb76.html" target="_top" xlink:title="src">
<polygon fill="white" stroke="black" points="78,-60 24,-60 24,-24 78,-24 78,-60"/>
<text text-anchor="middle" x="51" y="-39.5" font-family="Helvetica,sans-Serif" font-size="10.00">src</text>
</a>
</g>
</g>
</g>
</svg>
