<?xml version="1.0" encoding="UTF-8" standalone="no"?>
<!DOCTYPE svg PUBLIC "-//W3C//DTD SVG 1.1//EN"
 "http://www.w3.org/Graphics/SVG/1.1/DTD/svg11.dtd">
<!-- Generated by graphviz version 2.43.0 (0)
 -->
<!-- Title: Common Pages: 1 -->
<svg width="264pt" height="231pt"
 viewBox="0.00 0.00 263.50 231.00" xmlns="http://www.w3.org/2000/svg" xmlns:xlink="http://www.w3.org/1999/xlink">
<g id="graph0" class="graph" transform="scale(1 1) rotate(0) translate(4 227)">
<title>Common</title>
<polygon fill="white" stroke="transparent" points="-4,4 -4,-227 259.5,-227 259.5,4 -4,4"/>
<g id="clust1" class="cluster">
<title>clusterdir_b9cb50edb61d9a37345e1397b3ccbbdc</title>
<g id="a_clust1"><a xlink:href="dir_b9cb50edb61d9a37345e1397b3ccbbdc.html" target="_top" xlink:title="Code">
<polygon fill="#ddddee" stroke="black" points="8,-56 8,-215 174,-215 174,-56 8,-56"/>
<text text-anchor="middle" x="91" y="-203" font-family="Helvetica,sans-Serif" font-size="10.00">Code</text>
</a>
</g>
</g>
<g id="clust2" class="cluster">
<title>clusterdir_1ba33b307118a85c0794d13b60d0caea</title>
<g id="a_clust2"><a xlink:href="dir_1ba33b307118a85c0794d13b60d0caea.html" target="_top">
<polygon fill="#eeeeff" stroke="black" points="16,-64 16,-188 166,-188 166,-64 16,-64"/>
</a>
</g>
</g>
<!-- dir_1ba33b307118a85c0794d13b60d0caea -->
<g id="node1" class="node">
<title>dir_1ba33b307118a85c0794d13b60d0caea</title>
<text text-anchor="middle" x="127" y="-159.5" font-family="Helvetica,sans-Serif" font-size="10.00">Common</text>
</g>
<!-- dir_ab715d7520ac64fdeaa3063399f39ed8 -->
<g id="node2" class="node">
<title>dir_ab715d7520ac64fdeaa3063399f39ed8</title>
<g id="a_node2"><a xlink:href="dir_ab715d7520ac64fdeaa3063399f39ed8.html" target="_top" xlink:title="include">
<polygon fill="white" stroke="black" points="158,-108 104,-108 104,-72 158,-72 158,-108"/>
<text text-anchor="middle" x="131" y="-87.5" font-family="Helvetica,sans-Serif" font-size="10.00">include</text>
</a>
</g>
</g>
<!-- dir_38d004fcec24276f2c541b703d786171 -->
<g id="node4" class="node">
<title>dir_38d004fcec24276f2c541b703d786171</title>
<g id="a_node4"><a xlink:href="dir_38d004fcec24276f2c541b703d786171.html" target="_top" xlink:title="Registration">
<polygon fill="white" stroke="red" points="94,-36 18,-36 18,0 94,0 94,-36"/>
<text text-anchor="middle" x="56" y="-15.5" font-family="Helvetica,sans-Serif" font-size="10.00">Registration</text>
</a>
</g>
</g>
<!-- dir_ab715d7520ac64fdeaa3063399f39ed8&#45;&gt;dir_38d004fcec24276f2c541b703d786171 -->
<g id="edge5" class="edge">
<title>dir_ab715d7520ac64fdeaa3063399f39ed8&#45;&gt;dir_38d004fcec24276f2c541b703d786171</title>
<path fill="none" stroke="black" d="M106.54,-71.7C96.49,-63.14 85.08,-52.66 75.58,-43.3"/>
<polygon fill="black" stroke="black" points="77.96,-40.74 68.43,-36.1 72.99,-45.67 77.96,-40.74"/>
<g id="a_edge5&#45;headlabel"><a xlink:href="dir_000007_000025.html" target="_top" xlink:title="1">
<text text-anchor="middle" x="82.51" y="-38.79" font-family="Helvetica,sans-Serif" font-size="10.00">1</text>
</a>
</g>
</g>
<!-- dir_dbb0507b3639155bebaec74fe5b3f957 -->
<g id="node5" class="node">
<title>dir_dbb0507b3639155bebaec74fe5b3f957</title>
<g id="a_node5"><a xlink:href="dir_dbb0507b3639155bebaec74fe5b3f957.html" target="_top" xlink:title="BasicFilters">
<polygon fill="white" stroke="red" points="255.5,-108 182.5,-108 182.5,-72 255.5,-72 255.5,-108"/>
<text text-anchor="middle" x="219" y="-87.5" font-family="Helvetica,sans-Serif" font-size="10.00">BasicFilters</text>
</a>
</g>
</g>
<!-- dir_ab715d7520ac64fdeaa3063399f39ed8&#45;&gt;dir_dbb0507b3639155bebaec74fe5b3f957 -->
<g id="edge6" class="edge">
<title>dir_ab715d7520ac64fdeaa3063399f39ed8&#45;&gt;dir_dbb0507b3639155bebaec74fe5b3f957</title>
<path fill="none" stroke="black" d="M158.16,-90C162.83,-90 167.5,-90 172.17,-90"/>
<polygon fill="black" stroke="black" points="172.4,-93.5 182.4,-90 172.4,-86.5 172.4,-93.5"/>
<g id="a_edge6&#45;headlabel"><a xlink:href="dir_000007_000004.html" target="_top" xlink:title="10">
<text text-anchor="middle" x="168.8" y="-93.84" font-family="Helvetica,sans-Serif" font-size="10.00">10</text>
</a>
</g>
</g>
<!-- dir_2a34bf78513aea0df2e2c3d4af0cd38f -->
<g id="node6" class="node">
<title>dir_2a34bf78513aea0df2e2c3d4af0cd38f</title>
<g id="a_node6"><a xlink:href="dir_2a34bf78513aea0df2e2c3d4af0cd38f.html" target="_top" xlink:title="IO">
<polygon fill="white" stroke="red" points="166,-36 112,-36 112,0 166,0 166,-36"/>
<text text-anchor="middle" x="139" y="-15.5" font-family="Helvetica,sans-Serif" font-size="10.00">IO</text>
</a>
</g>
</g>
<!-- dir_ab715d7520ac64fdeaa3063399f39ed8&#45;&gt;dir_2a34bf78513aea0df2e2c3d4af0cd38f -->
<g id="edge7" class="edge">
<title>dir_ab715d7520ac64fdeaa3063399f39ed8&#45;&gt;dir_2a34bf78513aea0df2e2c3d4af0cd38f</title>
<path fill="none" stroke="black" d="M127.06,-71.7C127.15,-63.98 127.98,-54.71 129.31,-46.11"/>
<polygon fill="black" stroke="black" points="132.78,-46.57 131.15,-36.1 125.9,-45.3 132.78,-46.57"/>
<g id="a_edge7&#45;headlabel"><a xlink:href="dir_000007_000022.html" target="_top" xlink:title="7">
<text text-anchor="middle" x="134.92" y="-48.12" font-family="Helvetica,sans-Serif" font-size="10.00">7</text>
</a>
</g>
</g>
<!-- dir_f39368514e927ff3df32776217a2e927 -->
<g id="node7" class="node">
<title>dir_f39368514e927ff3df32776217a2e927</title>
<g id="a_node7"><a xlink:href="dir_f39368514e927ff3df32776217a2e927.html" target="_top" xlink:title="Code">
<polygon fill="white" stroke="red" points="246,-36 192,-36 192,0 246,0 246,-36"/>
<text text-anchor="middle" x="219" y="-15.5" font-family="Helvetica,sans-Serif" font-size="10.00">Code</text>
</a>
</g>
</g>
<!-- dir_ab715d7520ac64fdeaa3063399f39ed8&#45;&gt;dir_f39368514e927ff3df32776217a2e927 -->
<g id="edge8" class="edge">
<title>dir_ab715d7520ac64fdeaa3063399f39ed8&#45;&gt;dir_f39368514e927ff3df32776217a2e927</title>
<path fill="none" stroke="black" d="M146.84,-71.7C157.19,-62.73 170.95,-51.66 183.72,-41.98"/>
<polygon fill="black" stroke="black" points="186.01,-44.65 191.93,-35.86 181.82,-39.03 186.01,-44.65"/>
<g id="a_edge8&#45;headlabel"><a xlink:href="dir_000007_000008.html" target="_top" xlink:title="6">
<text text-anchor="middle" x="184.82" y="-46.57" font-family="Helvetica,sans-Serif" font-size="10.00">6</text>
</a>
</g>
</g>
<!-- dir_f1dde695710e8450ba0a4e5415b619ac -->
<g id="node3" class="node">
<title>dir_f1dde695710e8450ba0a4e5415b619ac</title>
<g id="a_node3"><a xlink:href="dir_f1dde695710e8450ba0a4e5415b619ac.html" target="_top" xlink:title="src">
<polygon fill="white" stroke="black" points="78,-180 24,-180 24,-144 78,-144 78,-180"/>
<text text-anchor="middle" x="51" y="-159.5" font-family="Helvetica,sans-Serif" font-size="10.00">src</text>
</a>
</g>
</g>
<!-- dir_f1dde695710e8450ba0a4e5415b619ac&#45;&gt;dir_ab715d7520ac64fdeaa3063399f39ed8 -->
<g id="edge2" class="edge">
<title>dir_f1dde695710e8450ba0a4e5415b619ac&#45;&gt;dir_ab715d7520ac64fdeaa3063399f39ed8</title>
<path fill="none" stroke="black" d="M70.78,-143.7C80.75,-134.97 93.01,-124.24 103.86,-114.75"/>
<polygon fill="black" stroke="black" points="106.23,-117.32 111.45,-108.1 101.62,-112.06 106.23,-117.32"/>
<g id="a_edge2&#45;headlabel"><a xlink:href="dir_000027_000007.html" target="_top" xlink:title="2">
<text text-anchor="middle" x="105.4" y="-119.33" font-family="Helvetica,sans-Serif" font-size="10.00">2</text>
</a>
</g>
</g>
<!-- dir_38d004fcec24276f2c541b703d786171&#45;&gt;dir_ab715d7520ac64fdeaa3063399f39ed8 -->
<g id="edge1" class="edge">
<title>dir_38d004fcec24276f2c541b703d786171&#45;&gt;dir_ab715d7520ac64fdeaa3063399f39ed8</title>
<path fill="none" stroke="black" d="M80.22,-36.1C90.26,-44.64 101.67,-55.11 111.2,-64.48"/>
<polygon fill="black" stroke="black" points="108.84,-67.07 118.38,-71.7 113.81,-62.14 108.84,-67.07"/>
<g id="a_edge1&#45;headlabel"><a xlink:href="dir_000025_000007.html" target="_top" xlink:title="9">
<text text-anchor="middle" x="104.3" y="-64.02" font-family="Helvetica,sans-Serif" font-size="10.00">9</text>
</a>
</g>
</g>
<!-- dir_dbb0507b3639155bebaec74fe5b3f957&#45;&gt;dir_ab715d7520ac64fdeaa3063399f39ed8 -->
<g id="edge3" class="edge">
<title>dir_dbb0507b3639155bebaec74fe5b3f957&#45;&gt;dir_ab715d7520ac64fdeaa3063399f39ed8</title>
<path fill="none" stroke="black" d="M182.4,-90C177.73,-90 173.06,-90 168.38,-90"/>
<polygon fill="black" stroke="black" points="168.16,-86.5 158.16,-90 168.16,-93.5 168.16,-86.5"/>
<g id="a_edge3&#45;headlabel"><a xlink:href="dir_000004_000007.html" target="_top" xlink:title="23">
<text text-anchor="middle" x="171.75" y="-81.16" font-family="Helvetica,sans-Serif" font-size="10.00">23</text>
</a>
</g>
</g>
<!-- dir_dbb0507b3639155bebaec74fe5b3f957&#45;&gt;dir_f39368514e927ff3df32776217a2e927 -->
<g id="edge4" class="edge">
<title>dir_dbb0507b3639155bebaec74fe5b3f957&#45;&gt;dir_f39368514e927ff3df32776217a2e927</title>
<path fill="none" stroke="black" d="M213.08,-71.7C212.29,-63.98 212.06,-54.71 212.4,-46.11"/>
<polygon fill="black" stroke="black" points="215.9,-46.32 213.1,-36.1 208.92,-45.84 215.9,-46.32"/>
<g id="a_edge4&#45;headlabel"><a xlink:href="dir_000004_000008.html" target="_top" xlink:title="11">
<text text-anchor="middle" x="218.48" y="-47.61" font-family="Helvetica,sans-Serif" font-size="10.00">11</text>
</a>
</g>
</g>
<!-- dir_2a34bf78513aea0df2e2c3d4af0cd38f&#45;&gt;dir_ab715d7520ac64fdeaa3063399f39ed8 -->
<g id="edge9" class="edge">
<title>dir_2a34bf78513aea0df2e2c3d4af0cd38f&#45;&gt;dir_ab715d7520ac64fdeaa3063399f39ed8</title>
<path fill="none" stroke="black" d="M142.94,-36.1C142.87,-43.79 142.05,-53.05 140.73,-61.67"/>
<polygon fill="black" stroke="black" points="137.25,-61.23 138.89,-71.7 144.14,-62.49 137.25,-61.23"/>
<g id="a_edge9&#45;headlabel"><a xlink:href="dir_000022_000007.html" target="_top" xlink:title="24">
<text text-anchor="middle" x="135.1" y="-54.68" font-family="Helvetica,sans-Serif" font-size="10.00">24</text>
</a>
</g>
</g>
<!-- dir_f39368514e927ff3df32776217a2e927&#45;&gt;dir_ab715d7520ac64fdeaa3063399f39ed8 -->
<g id="edge11" class="edge">
<title>dir_f39368514e927ff3df32776217a2e927&#45;&gt;dir_ab715d7520ac64fdeaa3063399f39ed8</title>
<path fill="none" stroke="black" d="M203.48,-36.03C193.14,-45.01 179.3,-56.15 166.44,-65.89"/>
<polygon fill="black" stroke="black" points="164.1,-63.27 158.18,-72.05 168.29,-68.88 164.1,-63.27"/>
<g id="a_edge11&#45;headlabel"><a xlink:href="dir_000008_000007.html" target="_top" xlink:title="14">
<text text-anchor="middle" x="165.29" y="-56.34" font-family="Helvetica,sans-Serif" font-size="10.00">14</text>
</a>
</g>
</g>
<!-- dir_f39368514e927ff3df32776217a2e927&#45;&gt;dir_dbb0507b3639155bebaec74fe5b3f957 -->
<g id="edge10" class="edge">
<title>dir_f39368514e927ff3df32776217a2e927&#45;&gt;dir_dbb0507b3639155bebaec74fe5b3f957</title>
<path fill="none" stroke="black" d="M224.9,-36.1C225.7,-43.79 225.94,-53.05 225.6,-61.67"/>
<polygon fill="black" stroke="black" points="222.11,-61.48 224.92,-71.7 229.09,-61.96 222.11,-61.48"/>
<g id="a_edge10&#45;headlabel"><a xlink:href="dir_000008_000004.html" target="_top" xlink:title="580">
<text text-anchor="middle" x="219.52" y="-55.2" font-family="Helvetica,sans-Serif" font-size="10.00">580</text>
</a>
</g>
</g>
</g>
</svg>
