<?xml version="1.0" encoding="UTF-8" standalone="no"?>
<!DOCTYPE svg PUBLIC "-//W3C//DTD SVG 1.1//EN"
 "http://www.w3.org/Graphics/SVG/1.1/DTD/svg11.dtd">
<!-- Generated by graphviz version 2.43.0 (0)
 -->
<!-- Title: BasicFilters Pages: 1 -->
<svg width="328pt" height="175pt"
 viewBox="0.00 0.00 328.00 175.00" xmlns="http://www.w3.org/2000/svg" xmlns:xlink="http://www.w3.org/1999/xlink">
<g id="graph0" class="graph" transform="scale(1 1) rotate(0) translate(4 171)">
<title>BasicFilters</title>
<polygon fill="white" stroke="transparent" points="-4,4 -4,-171 324,-171 324,4 -4,4"/>
<g id="clust1" class="cluster">
<title>clusterdir_b9cb50edb61d9a37345e1397b3ccbbdc</title>
<g id="a_clust1"><a xlink:href="dir_b9cb50edb61d9a37345e1397b3ccbbdc.html" target="_top" xlink:title="Code">
<polygon fill="#ddddee" stroke="black" points="8,-8 8,-159 258,-159 258,-8 8,-8"/>
<text text-anchor="middle" x="133" y="-147" font-family="Helvetica,sans-Serif" font-size="10.00">Code</text>
</a>
</g>
</g>
<g id="clust2" class="cluster">
<title>clusterdir_dbb0507b3639155bebaec74fe5b3f957</title>
<g id="a_clust2"><a xlink:href="dir_dbb0507b3639155bebaec74fe5b3f957.html" target="_top">
<polygon fill="#eeeeff" stroke="black" points="16,-80 16,-132 250,-132 250,-80 16,-80"/>
</a>
</g>
</g>
<!-- dir_1ba33b307118a85c0794d13b60d0caea -->
<g id="node1" class="node">
<title>dir_1ba33b307118a85c0794d13b60d0caea</title>
<g id="a_node1"><a xlink:href="dir_1ba33b307118a85c0794d13b60d0caea.html" target="_top" xlink:title="Common">
<polygon fill="white" stroke="red" points="153.5,-52 92.5,-52 92.5,-16 153.5,-16 153.5,-52"/>
<text text-anchor="middle" x="123" y="-31.5" font-family="Helvetica,sans-Serif" font-size="10.00">Common</text>
</a>
</g>
</g>
<!-- dir_7d59d9d95655f54e00bb9c93e4ffe47f -->
<g id="node3" class="node">
<title>dir_7d59d9d95655f54e00bb9c93e4ffe47f</title>
<g id="a_node3"><a xlink:href="dir_7d59d9d95655f54e00bb9c93e4ffe47f.html" target="_top" xlink:title="include">
<polygon fill="white" stroke="black" points="150,-124 96,-124 96,-88 150,-88 150,-124"/>
<text text-anchor="middle" x="123" y="-103.5" font-family="Helvetica,sans-Serif" font-size="10.00">include</text>
</a>
</g>
</g>
<!-- dir_1ba33b307118a85c0794d13b60d0caea&#45;&gt;dir_7d59d9d95655f54e00bb9c93e4ffe47f -->
<g id="edge1" class="edge">
<title>dir_1ba33b307118a85c0794d13b60d0caea&#45;&gt;dir_7d59d9d95655f54e00bb9c93e4ffe47f</title>
<path fill="none" stroke="black" d="M128.9,-52.1C129.7,-59.79 129.94,-69.05 129.6,-77.67"/>
<polygon fill="black" stroke="black" points="126.11,-77.48 128.92,-87.7 133.09,-77.96 126.11,-77.48"/>
<g id="a_edge1&#45;headlabel"><a xlink:href="dir_000016_000014.html" target="_top" xlink:title="10">
<text text-anchor="middle" x="123.52" y="-71.2" font-family="Helvetica,sans-Serif" font-size="10.00">10</text>
</a>
</g>
</g>
<!-- dir_f39368514e927ff3df32776217a2e927 -->
<g id="node5" class="node">
<title>dir_f39368514e927ff3df32776217a2e927</title>
<g id="a_node5"><a xlink:href="dir_f39368514e927ff3df32776217a2e927.html" target="_top" xlink:title="Code">
<polygon fill="white" stroke="red" points="320,-52 266,-52 266,-16 320,-16 320,-52"/>
<text text-anchor="middle" x="293" y="-31.5" font-family="Helvetica,sans-Serif" font-size="10.00">Code</text>
</a>
</g>
</g>
<!-- dir_1ba33b307118a85c0794d13b60d0caea&#45;&gt;dir_f39368514e927ff3df32776217a2e927 -->
<g id="edge2" class="edge">
<title>dir_1ba33b307118a85c0794d13b60d0caea&#45;&gt;dir_f39368514e927ff3df32776217a2e927</title>
<path fill="none" stroke="black" d="M153.55,-34C187.59,-34 221.64,-34 255.68,-34"/>
<polygon fill="black" stroke="black" points="255.76,-37.5 265.76,-34 255.76,-30.5 255.76,-37.5"/>
<g id="a_edge2&#45;headlabel"><a xlink:href="dir_000016_000000.html" target="_top" xlink:title="6">
<text text-anchor="middle" x="252.17" y="-37.84" font-family="Helvetica,sans-Serif" font-size="10.00">6</text>
</a>
</g>
</g>
<!-- dir_dbb0507b3639155bebaec74fe5b3f957 -->
<g id="node2" class="node">
<title>dir_dbb0507b3639155bebaec74fe5b3f957</title>
<text text-anchor="middle" x="205" y="-103.5" font-family="Helvetica,sans-Serif" font-size="10.00">BasicFilters</text>
</g>
<!-- dir_7d59d9d95655f54e00bb9c93e4ffe47f&#45;&gt;dir_1ba33b307118a85c0794d13b60d0caea -->
<g id="edge4" class="edge">
<title>dir_7d59d9d95655f54e00bb9c93e4ffe47f&#45;&gt;dir_1ba33b307118a85c0794d13b60d0caea</title>
<path fill="none" stroke="black" d="M117.08,-87.7C116.29,-79.98 116.06,-70.71 116.4,-62.11"/>
<polygon fill="black" stroke="black" points="119.9,-62.32 117.1,-52.1 112.92,-61.84 119.9,-62.32"/>
<g id="a_edge4&#45;headlabel"><a xlink:href="dir_000014_000016.html" target="_top" xlink:title="22">
<text text-anchor="middle" x="122.48" y="-63.61" font-family="Helvetica,sans-Serif" font-size="10.00">22</text>
</a>
</g>
</g>
<!-- dir_7d59d9d95655f54e00bb9c93e4ffe47f&#45;&gt;dir_f39368514e927ff3df32776217a2e927 -->
<g id="edge5" class="edge">
<title>dir_7d59d9d95655f54e00bb9c93e4ffe47f&#45;&gt;dir_f39368514e927ff3df32776217a2e927</title>
<path fill="none" stroke="black" d="M136.97,-87.92C141.35,-85 146.21,-82.2 151,-80 193.71,-60.36 209.43,-69.64 253,-52 254.18,-51.52 255.38,-51.01 256.58,-50.47"/>
<polygon fill="black" stroke="black" points="258.4,-53.48 265.87,-45.97 255.35,-47.18 258.4,-53.48"/>
<g id="a_edge5&#45;headlabel"><a xlink:href="dir_000014_000000.html" target="_top" xlink:title="11">
<text text-anchor="middle" x="256.4" y="-55.1" font-family="Helvetica,sans-Serif" font-size="10.00">11</text>
</a>
</g>
</g>
<!-- dir_348feb2136d7d59828297595b66d3e24 -->
<g id="node4" class="node">
<title>dir_348feb2136d7d59828297595b66d3e24</title>
<g id="a_node4"><a xlink:href="dir_348feb2136d7d59828297595b66d3e24.html" target="_top" xlink:title="src">
<polygon fill="white" stroke="black" points="78,-124 24,-124 24,-88 78,-88 78,-124"/>
<text text-anchor="middle" x="51" y="-103.5" font-family="Helvetica,sans-Serif" font-size="10.00">src</text>
</a>
</g>
</g>
<!-- dir_348feb2136d7d59828297595b66d3e24&#45;&gt;dir_1ba33b307118a85c0794d13b60d0caea -->
<g id="edge3" class="edge">
<title>dir_348feb2136d7d59828297595b66d3e24&#45;&gt;dir_1ba33b307118a85c0794d13b60d0caea</title>
<path fill="none" stroke="black" d="M68.8,-87.7C77.6,-79.14 88.38,-68.66 98,-59.3"/>
<polygon fill="black" stroke="black" points="100.68,-61.58 105.41,-52.1 95.8,-56.57 100.68,-61.58"/>
<g id="a_edge3&#45;headlabel"><a xlink:href="dir_000015_000016.html" target="_top" xlink:title="1">
<text text-anchor="middle" x="100.08" y="-63.63" font-family="Helvetica,sans-Serif" font-size="10.00">1</text>
</a>
</g>
</g>
<!-- dir_f39368514e927ff3df32776217a2e927&#45;&gt;dir_1ba33b307118a85c0794d13b60d0caea -->
<g id="edge7" class="edge">
<title>dir_f39368514e927ff3df32776217a2e927&#45;&gt;dir_1ba33b307118a85c0794d13b60d0caea</title>
<path fill="none" stroke="black" d="M265.76,-34C231.72,-34 197.67,-34 163.63,-34"/>
<polygon fill="black" stroke="black" points="163.55,-30.5 153.55,-34 163.55,-37.5 163.55,-30.5"/>
<g id="a_edge7&#45;headlabel"><a xlink:href="dir_000000_000016.html" target="_top" xlink:title="14">
<text text-anchor="middle" x="167.14" y="-25.16" font-family="Helvetica,sans-Serif" font-size="10.00">14</text>
</a>
</g>
</g>
<!-- dir_f39368514e927ff3df32776217a2e927&#45;&gt;dir_7d59d9d95655f54e00bb9c93e4ffe47f -->
<g id="edge6" class="edge">
<title>dir_f39368514e927ff3df32776217a2e927&#45;&gt;dir_7d59d9d95655f54e00bb9c93e4ffe47f</title>
<path fill="none" stroke="black" d="M270.75,-52.1C227.37,-69.61 211.63,-60.4 169,-80 165.63,-81.55 162.23,-83.39 158.87,-85.36"/>
<polygon fill="black" stroke="black" points="156.78,-82.54 150.11,-90.77 160.46,-88.5 156.78,-82.54"/>
<g id="a_edge6&#45;headlabel"><a xlink:href="dir_000000_000014.html" target="_top" xlink:title="580">
<text text-anchor="middle" x="158.34" y="-75.74" font-family="Helvetica,sans-Serif" font-size="10.00">580</text>
</a>
</g>
</g>
</g>
</svg>
