<?xml version="1.0" encoding="UTF-8" standalone="no"?>
<!DOCTYPE svg PUBLIC "-//W3C//DTD SVG 1.1//EN"
 "http://www.w3.org/Graphics/SVG/1.1/DTD/svg11.dtd">
<!-- Generated by graphviz version 2.43.0 (0)
 -->
<!-- Title: include Pages: 1 -->
<svg width="263pt" height="223pt"
 viewBox="0.00 0.00 263.21 223.00" xmlns="http://www.w3.org/2000/svg" xmlns:xlink="http://www.w3.org/1999/xlink">
<g id="graph0" class="graph" transform="scale(1 1) rotate(0) translate(4 219)">
<title>include</title>
<polygon fill="white" stroke="transparent" points="-4,4 -4,-219 259.21,-219 259.21,4 -4,4"/>
<g id="clust1" class="cluster">
<title>clusterdir_1ba33b307118a85c0794d13b60d0caea</title>
<g id="a_clust1"><a xlink:href="dir_1ba33b307118a85c0794d13b60d0caea.html" target="_top" xlink:title="Common">
<polygon fill="#ddddee" stroke="black" points="137,-136 137,-207 207,-207 207,-136 137,-136"/>
<text text-anchor="middle" x="172" y="-195" font-family="Helvetica,sans-Serif" font-size="10.00">Common</text>
</a>
</g>
</g>
<!-- dir_ab715d7520ac64fdeaa3063399f39ed8 -->
<g id="node1" class="node">
<title>dir_ab715d7520ac64fdeaa3063399f39ed8</title>
<g id="a_node1"><a xlink:href="dir_ab715d7520ac64fdeaa3063399f39ed8.html" target="_top" xlink:title="include">
<polygon fill="#eeeeff" stroke="black" points="199,-180 145,-180 145,-144 199,-144 199,-180"/>
<text text-anchor="middle" x="172" y="-159.5" font-family="Helvetica,sans-Serif" font-size="10.00">include</text>
</a>
</g>
</g>
<!-- dir_38d004fcec24276f2c541b703d786171 -->
<g id="node2" class="node">
<title>dir_38d004fcec24276f2c541b703d786171</title>
<g id="a_node2"><a xlink:href="dir_38d004fcec24276f2c541b703d786171.html" target="_top" xlink:title="Registration">
<polygon fill="white" stroke="red" points="76,-108 0,-108 0,-72 76,-72 76,-108"/>
<text text-anchor="middle" x="38" y="-87.5" font-family="Helvetica,sans-Serif" font-size="10.00">Registration</text>
</a>
</g>
</g>
<!-- dir_ab715d7520ac64fdeaa3063399f39ed8&#45;&gt;dir_38d004fcec24276f2c541b703d786171 -->
<g id="edge2" class="edge">
<title>dir_ab715d7520ac64fdeaa3063399f39ed8&#45;&gt;dir_38d004fcec24276f2c541b703d786171</title>
<path fill="none" stroke="black" d="M144.88,-146.83C126.23,-137.09 101.09,-123.96 79.88,-112.88"/>
<polygon fill="black" stroke="black" points="81.24,-109.64 70.76,-108.11 78,-115.85 81.24,-109.64"/>
<g id="a_edge2&#45;headlabel"><a xlink:href="dir_000007_000025.html" target="_top" xlink:title="1">
<text text-anchor="middle" x="85.74" y="-106.29" font-family="Helvetica,sans-Serif" font-size="10.00">1</text>
</a>
</g>
</g>
<!-- dir_dbb0507b3639155bebaec74fe5b3f957 -->
<g id="node3" class="node">
<title>dir_dbb0507b3639155bebaec74fe5b3f957</title>
<g id="a_node3"><a xlink:href="dir_dbb0507b3639155bebaec74fe5b3f957.html" target="_top" xlink:title="BasicFilters">
<polygon fill="white" stroke="red" points="167.5,-108 94.5,-108 94.5,-72 167.5,-72 167.5,-108"/>
<text text-anchor="middle" x="131" y="-87.5" font-family="Helvetica,sans-Serif" font-size="10.00">BasicFilters</text>
</a>
</g>
</g>
<!-- dir_ab715d7520ac64fdeaa3063399f39ed8&#45;&gt;dir_dbb0507b3639155bebaec74fe5b3f957 -->
<g id="edge3" class="edge">
<title>dir_ab715d7520ac64fdeaa3063399f39ed8&#45;&gt;dir_dbb0507b3639155bebaec74fe5b3f957</title>
<path fill="none" stroke="black" d="M161.87,-143.7C157.15,-135.64 151.44,-125.89 146.22,-116.98"/>
<polygon fill="black" stroke="black" points="149.09,-114.96 141.02,-108.1 143.05,-118.5 149.09,-114.96"/>
<g id="a_edge3&#45;headlabel"><a xlink:href="dir_000007_000004.html" target="_top" xlink:title="10">
<text text-anchor="middle" x="153.36" y="-114.13" font-family="Helvetica,sans-Serif" font-size="10.00">10</text>
</a>
</g>
</g>
<!-- dir_2a34bf78513aea0df2e2c3d4af0cd38f -->
<g id="node4" class="node">
<title>dir_2a34bf78513aea0df2e2c3d4af0cd38f</title>
<g id="a_node4"><a xlink:href="dir_2a34bf78513aea0df2e2c3d4af0cd38f.html" target="_top" xlink:title="IO">
<polygon fill="white" stroke="red" points="240,-108 186,-108 186,-72 240,-72 240,-108"/>
<text text-anchor="middle" x="213" y="-87.5" font-family="Helvetica,sans-Serif" font-size="10.00">IO</text>
</a>
</g>
</g>
<!-- dir_ab715d7520ac64fdeaa3063399f39ed8&#45;&gt;dir_2a34bf78513aea0df2e2c3d4af0cd38f -->
<g id="edge4" class="edge">
<title>dir_ab715d7520ac64fdeaa3063399f39ed8&#45;&gt;dir_2a34bf78513aea0df2e2c3d4af0cd38f</title>
<path fill="none" stroke="black" d="M182.13,-143.7C186.85,-135.64 192.56,-125.89 197.78,-116.98"/>
<polygon fill="black" stroke="black" points="200.95,-118.5 202.98,-108.1 194.91,-114.96 200.95,-118.5"/>
<g id="a_edge4&#45;headlabel"><a xlink:href="dir_000007_000022.html" target="_top" xlink:title="7">
<text text-anchor="middle" x="201.58" y="-120.54" font-family="Helvetica,sans-Serif" font-size="10.00">7</text>
</a>
</g>
</g>
<!-- dir_f39368514e927ff3df32776217a2e927 -->
<g id="node5" class="node">
<title>dir_f39368514e927ff3df32776217a2e927</title>
<g id="a_node5"><a xlink:href="dir_f39368514e927ff3df32776217a2e927.html" target="_top" xlink:title="Code">
<polygon fill="white" stroke="red" points="158,-36 104,-36 104,0 158,0 158,-36"/>
<text text-anchor="middle" x="131" y="-15.5" font-family="Helvetica,sans-Serif" font-size="10.00">Code</text>
</a>
</g>
</g>
<!-- dir_ab715d7520ac64fdeaa3063399f39ed8&#45;&gt;dir_f39368514e927ff3df32776217a2e927 -->
<g id="edge5" class="edge">
<title>dir_ab715d7520ac64fdeaa3063399f39ed8&#45;&gt;dir_f39368514e927ff3df32776217a2e927</title>
<path fill="none" stroke="black" d="M199.36,-150.23C217.02,-141.68 238.58,-127.82 249,-108 256.44,-93.84 257.69,-85.43 249,-72 231.26,-44.58 195.6,-31.21 168.1,-24.78"/>
<polygon fill="black" stroke="black" points="168.52,-21.29 158.01,-22.63 167.07,-28.14 168.52,-21.29"/>
<g id="a_edge5&#45;headlabel"><a xlink:href="dir_000007_000008.html" target="_top" xlink:title="6">
<text text-anchor="middle" x="172.63" y="-16.76" font-family="Helvetica,sans-Serif" font-size="10.00">6</text>
</a>
</g>
</g>
<!-- dir_dbb0507b3639155bebaec74fe5b3f957&#45;&gt;dir_f39368514e927ff3df32776217a2e927 -->
<g id="edge1" class="edge">
<title>dir_dbb0507b3639155bebaec74fe5b3f957&#45;&gt;dir_f39368514e927ff3df32776217a2e927</title>
<path fill="none" stroke="black" d="M125.08,-71.7C124.29,-63.98 124.06,-54.71 124.4,-46.11"/>
<polygon fill="black" stroke="black" points="127.9,-46.32 125.1,-36.1 120.92,-45.84 127.9,-46.32"/>
<g id="a_edge1&#45;headlabel"><a xlink:href="dir_000004_000008.html" target="_top" xlink:title="11">
<text text-anchor="middle" x="130.48" y="-47.61" font-family="Helvetica,sans-Serif" font-size="10.00">11</text>
</a>
</g>
</g>
<!-- dir_f39368514e927ff3df32776217a2e927&#45;&gt;dir_dbb0507b3639155bebaec74fe5b3f957 -->
<g id="edge6" class="edge">
<title>dir_f39368514e927ff3df32776217a2e927&#45;&gt;dir_dbb0507b3639155bebaec74fe5b3f957</title>
<path fill="none" stroke="black" d="M136.9,-36.1C137.7,-43.79 137.94,-53.05 137.6,-61.67"/>
<polygon fill="black" stroke="black" points="134.11,-61.48 136.92,-71.7 141.09,-61.96 134.11,-61.48"/>
<g id="a_edge6&#45;headlabel"><a xlink:href="dir_000008_000004.html" target="_top" xlink:title="580">
<text text-anchor="middle" x="131.52" y="-55.2" font-family="Helvetica,sans-Serif" font-size="10.00">580</text>
</a>
</g>
</g>
</g>
</svg>
