<?xml version="1.0" encoding="UTF-8" standalone="no"?>
<!DOCTYPE svg PUBLIC "-//W3C//DTD SVG 1.1//EN"
 "http://www.w3.org/Graphics/SVG/1.1/DTD/svg11.dtd">
<!-- Generated by graphviz version 2.43.0 (0)
 -->
<!-- Title: IO Pages: 1 -->
<svg width="254pt" height="159pt"
 viewBox="0.00 0.00 254.00 159.00" xmlns="http://www.w3.org/2000/svg" xmlns:xlink="http://www.w3.org/1999/xlink">
<g id="graph0" class="graph" transform="scale(1 1) rotate(0) translate(4 155)">
<title>IO</title>
<polygon fill="white" stroke="transparent" points="-4,4 -4,-155 250,-155 250,4 -4,4"/>
<g id="clust1" class="cluster">
<title>clusterdir_b9cb50edb61d9a37345e1397b3ccbbdc</title>
<g id="a_clust1"><a xlink:href="dir_b9cb50edb61d9a37345e1397b3ccbbdc.html" target="_top" xlink:title="Code">
<polygon fill="#ddddee" stroke="black" points="8,-56 8,-143 238,-143 238,-56 8,-56"/>
<text text-anchor="middle" x="123" y="-131" font-family="Helvetica,sans-Serif" font-size="10.00">Code</text>
</a>
</g>
</g>
<g id="clust2" class="cluster">
<title>clusterdir_2a34bf78513aea0df2e2c3d4af0cd38f</title>
<g id="a_clust2"><a xlink:href="dir_2a34bf78513aea0df2e2c3d4af0cd38f.html" target="_top">
<polygon fill="#eeeeff" stroke="black" points="16,-64 16,-116 230,-116 230,-64 16,-64"/>
</a>
</g>
</g>
<!-- dir_2a34bf78513aea0df2e2c3d4af0cd38f -->
<g id="node1" class="node">
<title>dir_2a34bf78513aea0df2e2c3d4af0cd38f</title>
<text text-anchor="middle" x="195" y="-87.5" font-family="Helvetica,sans-Serif" font-size="10.00">IO</text>
</g>
<!-- dir_4c1348f0b6a1251c10909f19a7bebedb -->
<g id="node2" class="node">
<title>dir_4c1348f0b6a1251c10909f19a7bebedb</title>
<g id="a_node2"><a xlink:href="dir_4c1348f0b6a1251c10909f19a7bebedb.html" target="_top" xlink:title="include">
<polygon fill="white" stroke="black" points="150,-108 96,-108 96,-72 150,-72 150,-108"/>
<text text-anchor="middle" x="123" y="-87.5" font-family="Helvetica,sans-Serif" font-size="10.00">include</text>
</a>
</g>
</g>
<!-- dir_1ba33b307118a85c0794d13b60d0caea -->
<g id="node4" class="node">
<title>dir_1ba33b307118a85c0794d13b60d0caea</title>
<g id="a_node4"><a xlink:href="dir_1ba33b307118a85c0794d13b60d0caea.html" target="_top" xlink:title="Common">
<polygon fill="white" stroke="red" points="153.5,-36 92.5,-36 92.5,0 153.5,0 153.5,-36"/>
<text text-anchor="middle" x="123" y="-15.5" font-family="Helvetica,sans-Serif" font-size="10.00">Common</text>
</a>
</g>
</g>
<!-- dir_4c1348f0b6a1251c10909f19a7bebedb&#45;&gt;dir_1ba33b307118a85c0794d13b60d0caea -->
<g id="edge2" class="edge">
<title>dir_4c1348f0b6a1251c10909f19a7bebedb&#45;&gt;dir_1ba33b307118a85c0794d13b60d0caea</title>
<path fill="none" stroke="black" d="M117.08,-71.7C116.29,-63.98 116.06,-54.71 116.4,-46.11"/>
<polygon fill="black" stroke="black" points="119.9,-46.32 117.1,-36.1 112.92,-45.84 119.9,-46.32"/>
<g id="a_edge2&#45;headlabel"><a xlink:href="dir_000023_000006.html" target="_top" xlink:title="24">
<text text-anchor="middle" x="122.48" y="-47.61" font-family="Helvetica,sans-Serif" font-size="10.00">24</text>
</a>
</g>
</g>
<!-- dir_56582853a1883067227ec860abc1eb76 -->
<g id="node3" class="node">
<title>dir_56582853a1883067227ec860abc1eb76</title>
<g id="a_node3"><a xlink:href="dir_56582853a1883067227ec860abc1eb76.html" target="_top" xlink:title="src">
<polygon fill="white" stroke="black" points="78,-108 24,-108 24,-72 78,-72 78,-108"/>
<text text-anchor="middle" x="51" y="-87.5" font-family="Helvetica,sans-Serif" font-size="10.00">src</text>
</a>
</g>
</g>
<!-- dir_1ba33b307118a85c0794d13b60d0caea&#45;&gt;dir_4c1348f0b6a1251c10909f19a7bebedb -->
<g id="edge1" class="edge">
<title>dir_1ba33b307118a85c0794d13b60d0caea&#45;&gt;dir_4c1348f0b6a1251c10909f19a7bebedb</title>
<path fill="none" stroke="black" d="M128.9,-36.1C129.7,-43.79 129.94,-53.05 129.6,-61.67"/>
<polygon fill="black" stroke="black" points="126.11,-61.48 128.92,-71.7 133.09,-61.96 126.11,-61.48"/>
<g id="a_edge1&#45;headlabel"><a xlink:href="dir_000006_000023.html" target="_top" xlink:title="7">
<text text-anchor="middle" x="123.52" y="-55.2" font-family="Helvetica,sans-Serif" font-size="10.00">7</text>
</a>
</g>
</g>
</g>
</svg>
