<?xml version="1.0" encoding="UTF-8" standalone="no"?>
<!DOCTYPE svg PUBLIC "-//W3C//DTD SVG 1.1//EN"
 "http://www.w3.org/Graphics/SVG/1.1/DTD/svg11.dtd">
<!-- Generated by graphviz version 2.43.0 (0)
 -->
<!-- Title: Common Pages: 1 -->
<svg width="336pt" height="247pt"
 viewBox="0.00 0.00 336.00 247.00" xmlns="http://www.w3.org/2000/svg" xmlns:xlink="http://www.w3.org/1999/xlink">
<g id="graph0" class="graph" transform="scale(1 1) rotate(0) translate(4 243)">
<title>Common</title>
<polygon fill="white" stroke="transparent" points="-4,4 -4,-243 332,-243 332,4 -4,4"/>
<g id="clust1" class="cluster">
<title>clusterdir_b9cb50edb61d9a37345e1397b3ccbbdc</title>
<g id="a_clust1"><a xlink:href="dir_b9cb50edb61d9a37345e1397b3ccbbdc.html" target="_top" xlink:title="Code">
<polygon fill="#ddddee" stroke="black" points="8,-8 8,-231 264,-231 264,-8 8,-8"/>
<text text-anchor="middle" x="136" y="-219" font-family="Helvetica,sans-Serif" font-size="10.00">Code</text>
</a>
</g>
</g>
<g id="clust2" class="cluster">
<title>clusterdir_1ba33b307118a85c0794d13b60d0caea</title>
<g id="a_clust2"><a xlink:href="dir_1ba33b307118a85c0794d13b60d0caea.html" target="_top">
<polygon fill="#eeeeff" stroke="black" points="98,-80 98,-204 248,-204 248,-80 98,-80"/>
</a>
</g>
</g>
<!-- dir_2a34bf78513aea0df2e2c3d4af0cd38f -->
<g id="node1" class="node">
<title>dir_2a34bf78513aea0df2e2c3d4af0cd38f</title>
<g id="a_node1"><a xlink:href="dir_2a34bf78513aea0df2e2c3d4af0cd38f.html" target="_top" xlink:title="IO">
<polygon fill="white" stroke="red" points="70,-52 16,-52 16,-16 70,-16 70,-52"/>
<text text-anchor="middle" x="43" y="-31.5" font-family="Helvetica,sans-Serif" font-size="10.00">IO</text>
</a>
</g>
</g>
<!-- dir_ab715d7520ac64fdeaa3063399f39ed8 -->
<g id="node5" class="node">
<title>dir_ab715d7520ac64fdeaa3063399f39ed8</title>
<g id="a_node5"><a xlink:href="dir_ab715d7520ac64fdeaa3063399f39ed8.html" target="_top" xlink:title="include">
<polygon fill="white" stroke="black" points="160,-124 106,-124 106,-88 160,-88 160,-124"/>
<text text-anchor="middle" x="133" y="-103.5" font-family="Helvetica,sans-Serif" font-size="10.00">include</text>
</a>
</g>
</g>
<!-- dir_2a34bf78513aea0df2e2c3d4af0cd38f&#45;&gt;dir_ab715d7520ac64fdeaa3063399f39ed8 -->
<g id="edge1" class="edge">
<title>dir_2a34bf78513aea0df2e2c3d4af0cd38f&#45;&gt;dir_ab715d7520ac64fdeaa3063399f39ed8</title>
<path fill="none" stroke="black" d="M70.22,-51.62C82.54,-60.46 96.91,-71.48 108.85,-81.21"/>
<polygon fill="black" stroke="black" points="106.74,-84.01 116.67,-87.7 111.2,-78.62 106.74,-84.01"/>
<g id="a_edge1&#45;headlabel"><a xlink:href="dir_000021_000017.html" target="_top" xlink:title="24">
<text text-anchor="middle" x="102.16" y="-81.4" font-family="Helvetica,sans-Serif" font-size="10.00">24</text>
</a>
</g>
</g>
<!-- dir_dbb0507b3639155bebaec74fe5b3f957 -->
<g id="node2" class="node">
<title>dir_dbb0507b3639155bebaec74fe5b3f957</title>
<g id="a_node2"><a xlink:href="dir_dbb0507b3639155bebaec74fe5b3f957.html" target="_top" xlink:title="BasicFilters">
<polygon fill="white" stroke="red" points="161.5,-52 88.5,-52 88.5,-16 161.5,-16 161.5,-52"/>
<text text-anchor="middle" x="125" y="-31.5" font-family="Helvetica,sans-Serif" font-size="10.00">BasicFilters</text>
</a>
</g>
</g>
<!-- dir_dbb0507b3639155bebaec74fe5b3f957&#45;&gt;dir_ab715d7520ac64fdeaa3063399f39ed8 -->
<g id="edge7" class="edge">
<title>dir_dbb0507b3639155bebaec74fe5b3f957&#45;&gt;dir_ab715d7520ac64fdeaa3063399f39ed8</title>
<path fill="none" stroke="black" d="M132.85,-52.1C134.53,-59.79 135.83,-69.05 136.48,-77.67"/>
<polygon fill="black" stroke="black" points="132.99,-77.87 136.94,-87.7 139.98,-77.55 132.99,-77.87"/>
<g id="a_edge7&#45;headlabel"><a xlink:href="dir_000013_000017.html" target="_top" xlink:title="23">
<text text-anchor="middle" x="129.99" y="-71.91" font-family="Helvetica,sans-Serif" font-size="10.00">23</text>
</a>
</g>
</g>
<!-- dir_f39368514e927ff3df32776217a2e927 -->
<g id="node7" class="node">
<title>dir_f39368514e927ff3df32776217a2e927</title>
<g id="a_node7"><a xlink:href="dir_f39368514e927ff3df32776217a2e927.html" target="_top" xlink:title="Code">
<polygon fill="white" stroke="red" points="328,-52 274,-52 274,-16 328,-16 328,-52"/>
<text text-anchor="middle" x="301" y="-31.5" font-family="Helvetica,sans-Serif" font-size="10.00">Code</text>
</a>
</g>
</g>
<!-- dir_dbb0507b3639155bebaec74fe5b3f957&#45;&gt;dir_f39368514e927ff3df32776217a2e927 -->
<g id="edge8" class="edge">
<title>dir_dbb0507b3639155bebaec74fe5b3f957&#45;&gt;dir_f39368514e927ff3df32776217a2e927</title>
<path fill="none" stroke="black" d="M149.77,-52.13C158.82,-57.72 169.44,-63.15 180,-66 213.9,-75.14 225.73,-77.23 259,-66 264.32,-64.2 269.5,-61.44 274.3,-58.26"/>
<polygon fill="black" stroke="black" points="276.5,-60.99 282.48,-52.24 272.35,-55.35 276.5,-60.99"/>
<g id="a_edge8&#45;headlabel"><a xlink:href="dir_000013_000000.html" target="_top" xlink:title="11">
<text text-anchor="middle" x="275.29" y="-62.9" font-family="Helvetica,sans-Serif" font-size="10.00">11</text>
</a>
</g>
</g>
<!-- dir_38d004fcec24276f2c541b703d786171 -->
<g id="node3" class="node">
<title>dir_38d004fcec24276f2c541b703d786171</title>
<g id="a_node3"><a xlink:href="dir_38d004fcec24276f2c541b703d786171.html" target="_top" xlink:title="Registration">
<polygon fill="white" stroke="red" points="256,-52 180,-52 180,-16 256,-16 256,-52"/>
<text text-anchor="middle" x="218" y="-31.5" font-family="Helvetica,sans-Serif" font-size="10.00">Registration</text>
</a>
</g>
</g>
<!-- dir_38d004fcec24276f2c541b703d786171&#45;&gt;dir_ab715d7520ac64fdeaa3063399f39ed8 -->
<g id="edge2" class="edge">
<title>dir_38d004fcec24276f2c541b703d786171&#45;&gt;dir_ab715d7520ac64fdeaa3063399f39ed8</title>
<path fill="none" stroke="black" d="M203.13,-52.1C193.38,-60.89 180.39,-71.73 168.19,-81.31"/>
<polygon fill="black" stroke="black" points="165.7,-78.81 159.93,-87.7 169.98,-84.35 165.7,-78.81"/>
<g id="a_edge2&#45;headlabel"><a xlink:href="dir_000024_000017.html" target="_top" xlink:title="9">
<text text-anchor="middle" x="166.81" y="-71.87" font-family="Helvetica,sans-Serif" font-size="10.00">9</text>
</a>
</g>
</g>
<!-- dir_1ba33b307118a85c0794d13b60d0caea -->
<g id="node4" class="node">
<title>dir_1ba33b307118a85c0794d13b60d0caea</title>
<text text-anchor="middle" x="209" y="-175.5" font-family="Helvetica,sans-Serif" font-size="10.00">Common</text>
</g>
<!-- dir_ab715d7520ac64fdeaa3063399f39ed8&#45;&gt;dir_2a34bf78513aea0df2e2c3d4af0cd38f -->
<g id="edge3" class="edge">
<title>dir_ab715d7520ac64fdeaa3063399f39ed8&#45;&gt;dir_2a34bf78513aea0df2e2c3d4af0cd38f</title>
<path fill="none" stroke="black" d="M105.83,-88.41C93.46,-79.54 79.03,-68.47 67.05,-58.71"/>
<polygon fill="black" stroke="black" points="69.14,-55.89 59.21,-52.2 64.67,-61.28 69.14,-55.89"/>
<g id="a_edge3&#45;headlabel"><a xlink:href="dir_000017_000021.html" target="_top" xlink:title="7">
<text text-anchor="middle" x="73.72" y="-53.5" font-family="Helvetica,sans-Serif" font-size="10.00">7</text>
</a>
</g>
</g>
<!-- dir_ab715d7520ac64fdeaa3063399f39ed8&#45;&gt;dir_dbb0507b3639155bebaec74fe5b3f957 -->
<g id="edge5" class="edge">
<title>dir_ab715d7520ac64fdeaa3063399f39ed8&#45;&gt;dir_dbb0507b3639155bebaec74fe5b3f957</title>
<path fill="none" stroke="black" d="M125.11,-87.7C123.43,-79.98 122.14,-70.71 121.5,-62.11"/>
<polygon fill="black" stroke="black" points="125,-61.94 121.06,-52.1 118.01,-62.25 125,-61.94"/>
<g id="a_edge5&#45;headlabel"><a xlink:href="dir_000017_000013.html" target="_top" xlink:title="10">
<text text-anchor="middle" x="127.99" y="-62.9" font-family="Helvetica,sans-Serif" font-size="10.00">10</text>
</a>
</g>
</g>
<!-- dir_ab715d7520ac64fdeaa3063399f39ed8&#45;&gt;dir_38d004fcec24276f2c541b703d786171 -->
<g id="edge4" class="edge">
<title>dir_ab715d7520ac64fdeaa3063399f39ed8&#45;&gt;dir_38d004fcec24276f2c541b703d786171</title>
<path fill="none" stroke="black" d="M148.1,-87.7C157.89,-78.88 170.9,-68.03 183.08,-58.47"/>
<polygon fill="black" stroke="black" points="185.56,-60.98 191.34,-52.1 181.28,-55.44 185.56,-60.98"/>
<g id="a_edge4&#45;headlabel"><a xlink:href="dir_000017_000024.html" target="_top" xlink:title="1">
<text text-anchor="middle" x="184.45" y="-62.93" font-family="Helvetica,sans-Serif" font-size="10.00">1</text>
</a>
</g>
</g>
<!-- dir_ab715d7520ac64fdeaa3063399f39ed8&#45;&gt;dir_f39368514e927ff3df32776217a2e927 -->
<g id="edge6" class="edge">
<title>dir_ab715d7520ac64fdeaa3063399f39ed8&#45;&gt;dir_f39368514e927ff3df32776217a2e927</title>
<path fill="none" stroke="black" d="M160.21,-92.55C186.04,-82.37 225.39,-67.21 259,-52 260.81,-51.18 262.65,-50.32 264.52,-49.43"/>
<polygon fill="black" stroke="black" points="266.48,-52.37 273.96,-44.87 263.43,-46.07 266.48,-52.37"/>
<g id="a_edge6&#45;headlabel"><a xlink:href="dir_000017_000000.html" target="_top" xlink:title="6">
<text text-anchor="middle" x="264.48" y="-53.99" font-family="Helvetica,sans-Serif" font-size="10.00">6</text>
</a>
</g>
</g>
<!-- dir_f1dde695710e8450ba0a4e5415b619ac -->
<g id="node6" class="node">
<title>dir_f1dde695710e8450ba0a4e5415b619ac</title>
<g id="a_node6"><a xlink:href="dir_f1dde695710e8450ba0a4e5415b619ac.html" target="_top" xlink:title="src">
<polygon fill="white" stroke="black" points="160,-196 106,-196 106,-160 160,-160 160,-196"/>
<text text-anchor="middle" x="133" y="-175.5" font-family="Helvetica,sans-Serif" font-size="10.00">src</text>
</a>
</g>
</g>
<!-- dir_f1dde695710e8450ba0a4e5415b619ac&#45;&gt;dir_ab715d7520ac64fdeaa3063399f39ed8 -->
<g id="edge9" class="edge">
<title>dir_f1dde695710e8450ba0a4e5415b619ac&#45;&gt;dir_ab715d7520ac64fdeaa3063399f39ed8</title>
<path fill="none" stroke="black" d="M133,-159.7C133,-151.98 133,-142.71 133,-134.11"/>
<polygon fill="black" stroke="black" points="136.5,-134.1 133,-124.1 129.5,-134.1 136.5,-134.1"/>
<g id="a_edge9&#45;headlabel"><a xlink:href="dir_000018_000017.html" target="_top" xlink:title="2">
<text text-anchor="middle" x="139.34" y="-135.2" font-family="Helvetica,sans-Serif" font-size="10.00">2</text>
</a>
</g>
</g>
<!-- dir_f39368514e927ff3df32776217a2e927&#45;&gt;dir_dbb0507b3639155bebaec74fe5b3f957 -->
<g id="edge10" class="edge">
<title>dir_f39368514e927ff3df32776217a2e927&#45;&gt;dir_dbb0507b3639155bebaec74fe5b3f957</title>
<path fill="none" stroke="black" d="M282.48,-52.24C275.66,-57.76 267.51,-63.13 259,-66 225.73,-77.23 213.9,-75.14 180,-66 172.74,-64.04 165.45,-60.86 158.67,-57.25"/>
<polygon fill="black" stroke="black" points="160.18,-54.09 149.77,-52.13 156.69,-60.15 160.18,-54.09"/>
<g id="a_edge10&#45;headlabel"><a xlink:href="dir_000000_000013.html" target="_top" xlink:title="580">
<text text-anchor="middle" x="164.72" y="-50.92" font-family="Helvetica,sans-Serif" font-size="10.00">580</text>
</a>
</g>
</g>
<!-- dir_f39368514e927ff3df32776217a2e927&#45;&gt;dir_ab715d7520ac64fdeaa3063399f39ed8 -->
<g id="edge11" class="edge">
<title>dir_f39368514e927ff3df32776217a2e927&#45;&gt;dir_ab715d7520ac64fdeaa3063399f39ed8</title>
<path fill="none" stroke="black" d="M276.53,-52.21C240.96,-68.28 199.05,-84.27 169.57,-94.37"/>
<polygon fill="black" stroke="black" points="168.44,-91.06 160.08,-97.56 170.67,-97.69 168.44,-91.06"/>
<g id="a_edge11&#45;headlabel"><a xlink:href="dir_000000_000017.html" target="_top" xlink:title="14">
<text text-anchor="middle" x="170.95" y="-84.72" font-family="Helvetica,sans-Serif" font-size="10.00">14</text>
</a>
</g>
</g>
</g>
</svg>
