<?xml version="1.0" encoding="UTF-8" standalone="no"?>
<!DOCTYPE svg PUBLIC "-//W3C//DTD SVG 1.1//EN"
 "http://www.w3.org/Graphics/SVG/1.1/DTD/svg11.dtd">
<!-- Generated by graphviz version 2.43.0 (0)
 -->
<!-- Title: Code Pages: 1 -->
<svg width="328pt" height="255pt"
 viewBox="0.00 0.00 328.00 255.00" xmlns="http://www.w3.org/2000/svg" xmlns:xlink="http://www.w3.org/1999/xlink">
<g id="graph0" class="graph" transform="scale(1 1) rotate(0) translate(4 251)">
<title>Code</title>
<polygon fill="white" stroke="transparent" points="-4,4 -4,-251 324,-251 324,4 -4,4"/>
<g id="clust1" class="cluster">
<title>clusterdir_0195af5fa7804b5c802a7ca910fa092c</title>
<g id="a_clust1"><a xlink:href="dir_0195af5fa7804b5c802a7ca910fa092c.html" target="_top" xlink:title="SimpleITK">
<polygon fill="#ddddee" stroke="black" points="8,-8 8,-239 258,-239 258,-8 8,-8"/>
<text text-anchor="middle" x="133" y="-227" font-family="Helvetica,sans-Serif" font-size="10.00">SimpleITK</text>
</a>
</g>
</g>
<g id="clust2" class="cluster">
<title>clusterdir_b9cb50edb61d9a37345e1397b3ccbbdc</title>
<g id="a_clust2"><a xlink:href="dir_b9cb50edb61d9a37345e1397b3ccbbdc.html" target="_top">
<polygon fill="#eeeeff" stroke="black" points="16,-16 16,-212 250,-212 250,-16 16,-16"/>
</a>
</g>
</g>
<!-- dir_b9cb50edb61d9a37345e1397b3ccbbdc -->
<g id="node1" class="node">
<title>dir_b9cb50edb61d9a37345e1397b3ccbbdc</title>
<text text-anchor="middle" x="215" y="-183.5" font-family="Helvetica,sans-Serif" font-size="10.00">Code</text>
</g>
<!-- dir_dbb0507b3639155bebaec74fe5b3f957 -->
<g id="node2" class="node">
<title>dir_dbb0507b3639155bebaec74fe5b3f957</title>
<g id="a_node2"><a xlink:href="dir_dbb0507b3639155bebaec74fe5b3f957.html" target="_top" xlink:title="BasicFilters">
<polygon fill="white" stroke="red" points="169.5,-204 96.5,-204 96.5,-168 169.5,-168 169.5,-204"/>
<text text-anchor="middle" x="133" y="-183.5" font-family="Helvetica,sans-Serif" font-size="10.00">BasicFilters</text>
</a>
</g>
</g>
<!-- dir_1ba33b307118a85c0794d13b60d0caea -->
<g id="node3" class="node">
<title>dir_1ba33b307118a85c0794d13b60d0caea</title>
<g id="a_node3"><a xlink:href="dir_1ba33b307118a85c0794d13b60d0caea.html" target="_top" xlink:title="Common">
<polygon fill="white" stroke="red" points="163.5,-132 102.5,-132 102.5,-96 163.5,-96 163.5,-132"/>
<text text-anchor="middle" x="133" y="-111.5" font-family="Helvetica,sans-Serif" font-size="10.00">Common</text>
</a>
</g>
</g>
<!-- dir_dbb0507b3639155bebaec74fe5b3f957&#45;&gt;dir_1ba33b307118a85c0794d13b60d0caea -->
<g id="edge8" class="edge">
<title>dir_dbb0507b3639155bebaec74fe5b3f957&#45;&gt;dir_1ba33b307118a85c0794d13b60d0caea</title>
<path fill="none" stroke="black" d="M127.08,-167.7C126.29,-159.98 126.06,-150.71 126.4,-142.11"/>
<polygon fill="black" stroke="black" points="129.9,-142.32 127.1,-132.1 122.92,-141.84 129.9,-142.32"/>
<g id="a_edge8&#45;headlabel"><a xlink:href="dir_000013_000016.html" target="_top" xlink:title="23">
<text text-anchor="middle" x="132.48" y="-143.61" font-family="Helvetica,sans-Serif" font-size="10.00">23</text>
</a>
</g>
</g>
<!-- dir_f39368514e927ff3df32776217a2e927 -->
<g id="node7" class="node">
<title>dir_f39368514e927ff3df32776217a2e927</title>
<g id="a_node7"><a xlink:href="dir_f39368514e927ff3df32776217a2e927.html" target="_top" xlink:title="Code">
<polygon fill="white" stroke="red" points="320,-132 266,-132 266,-96 320,-96 320,-132"/>
<text text-anchor="middle" x="293" y="-111.5" font-family="Helvetica,sans-Serif" font-size="10.00">Code</text>
</a>
</g>
</g>
<!-- dir_dbb0507b3639155bebaec74fe5b3f957&#45;&gt;dir_f39368514e927ff3df32776217a2e927 -->
<g id="edge9" class="edge">
<title>dir_dbb0507b3639155bebaec74fe5b3f957&#45;&gt;dir_f39368514e927ff3df32776217a2e927</title>
<path fill="none" stroke="black" d="M166.24,-167.88C192.5,-155.84 228.98,-139.94 256.13,-128.73"/>
<polygon fill="black" stroke="black" points="257.74,-131.85 265.68,-124.83 255.09,-125.37 257.74,-131.85"/>
<g id="a_edge9&#45;headlabel"><a xlink:href="dir_000013_000000.html" target="_top" xlink:title="11">
<text text-anchor="middle" x="255.49" y="-133.34" font-family="Helvetica,sans-Serif" font-size="10.00">11</text>
</a>
</g>
</g>
<!-- dir_1ba33b307118a85c0794d13b60d0caea&#45;&gt;dir_dbb0507b3639155bebaec74fe5b3f957 -->
<g id="edge2" class="edge">
<title>dir_1ba33b307118a85c0794d13b60d0caea&#45;&gt;dir_dbb0507b3639155bebaec74fe5b3f957</title>
<path fill="none" stroke="black" d="M138.9,-132.1C139.7,-139.79 139.94,-149.05 139.6,-157.67"/>
<polygon fill="black" stroke="black" points="136.11,-157.48 138.92,-167.7 143.09,-157.96 136.11,-157.48"/>
<g id="a_edge2&#45;headlabel"><a xlink:href="dir_000016_000013.html" target="_top" xlink:title="10">
<text text-anchor="middle" x="133.52" y="-151.2" font-family="Helvetica,sans-Serif" font-size="10.00">10</text>
</a>
</g>
</g>
<!-- dir_2a34bf78513aea0df2e2c3d4af0cd38f -->
<g id="node5" class="node">
<title>dir_2a34bf78513aea0df2e2c3d4af0cd38f</title>
<g id="a_node5"><a xlink:href="dir_2a34bf78513aea0df2e2c3d4af0cd38f.html" target="_top" xlink:title="IO">
<polygon fill="white" stroke="red" points="113,-60 59,-60 59,-24 113,-24 113,-60"/>
<text text-anchor="middle" x="86" y="-39.5" font-family="Helvetica,sans-Serif" font-size="10.00">IO</text>
</a>
</g>
</g>
<!-- dir_1ba33b307118a85c0794d13b60d0caea&#45;&gt;dir_2a34bf78513aea0df2e2c3d4af0cd38f -->
<g id="edge1" class="edge">
<title>dir_1ba33b307118a85c0794d13b60d0caea&#45;&gt;dir_2a34bf78513aea0df2e2c3d4af0cd38f</title>
<path fill="none" stroke="black" d="M115.47,-95.7C109.16,-87.56 102.33,-77.69 96.72,-68.7"/>
<polygon fill="black" stroke="black" points="99.72,-66.9 91.59,-60.1 93.71,-70.48 99.72,-66.9"/>
<g id="a_edge1&#45;headlabel"><a xlink:href="dir_000016_000021.html" target="_top" xlink:title="7">
<text text-anchor="middle" x="104" y="-66.03" font-family="Helvetica,sans-Serif" font-size="10.00">7</text>
</a>
</g>
</g>
<!-- dir_38d004fcec24276f2c541b703d786171 -->
<g id="node6" class="node">
<title>dir_38d004fcec24276f2c541b703d786171</title>
<g id="a_node6"><a xlink:href="dir_38d004fcec24276f2c541b703d786171.html" target="_top" xlink:title="Registration">
<polygon fill="white" stroke="red" points="207,-60 131,-60 131,-24 207,-24 207,-60"/>
<text text-anchor="middle" x="169" y="-39.5" font-family="Helvetica,sans-Serif" font-size="10.00">Registration</text>
</a>
</g>
</g>
<!-- dir_1ba33b307118a85c0794d13b60d0caea&#45;&gt;dir_38d004fcec24276f2c541b703d786171 -->
<g id="edge4" class="edge">
<title>dir_1ba33b307118a85c0794d13b60d0caea&#45;&gt;dir_38d004fcec24276f2c541b703d786171</title>
<path fill="none" stroke="black" d="M135.98,-95.7C139.29,-87.64 144.1,-77.89 149.09,-68.98"/>
<polygon fill="black" stroke="black" points="152.26,-70.5 154.31,-60.1 146.22,-66.95 152.26,-70.5"/>
<g id="a_edge4&#45;headlabel"><a xlink:href="dir_000016_000024.html" target="_top" xlink:title="1">
<text text-anchor="middle" x="152.89" y="-72.54" font-family="Helvetica,sans-Serif" font-size="10.00">1</text>
</a>
</g>
</g>
<!-- dir_1ba33b307118a85c0794d13b60d0caea&#45;&gt;dir_f39368514e927ff3df32776217a2e927 -->
<g id="edge3" class="edge">
<title>dir_1ba33b307118a85c0794d13b60d0caea&#45;&gt;dir_f39368514e927ff3df32776217a2e927</title>
<path fill="none" stroke="black" d="M163.62,-114C194.27,-114 224.92,-114 255.57,-114"/>
<polygon fill="black" stroke="black" points="255.96,-117.5 265.96,-114 255.96,-110.5 255.96,-117.5"/>
<g id="a_edge3&#45;headlabel"><a xlink:href="dir_000016_000000.html" target="_top" xlink:title="6">
<text text-anchor="middle" x="252.37" y="-117.84" font-family="Helvetica,sans-Serif" font-size="10.00">6</text>
</a>
</g>
</g>
<!-- dir_2c0aae0932349bdc522a08f3cf356d36 -->
<g id="node4" class="node">
<title>dir_2c0aae0932349bdc522a08f3cf356d36</title>
<g id="a_node4"><a xlink:href="dir_2c0aae0932349bdc522a08f3cf356d36.html" target="_top" xlink:title="Explicit">
<polygon fill="white" stroke="red" points="78,-204 24,-204 24,-168 78,-168 78,-204"/>
<text text-anchor="middle" x="51" y="-183.5" font-family="Helvetica,sans-Serif" font-size="10.00">Explicit</text>
</a>
</g>
</g>
<!-- dir_2c0aae0932349bdc522a08f3cf356d36&#45;&gt;dir_1ba33b307118a85c0794d13b60d0caea -->
<g id="edge6" class="edge">
<title>dir_2c0aae0932349bdc522a08f3cf356d36&#45;&gt;dir_1ba33b307118a85c0794d13b60d0caea</title>
<path fill="none" stroke="black" d="M71.27,-167.7C81.5,-158.97 94.06,-148.24 105.18,-138.75"/>
<polygon fill="black" stroke="black" points="107.63,-141.26 112.96,-132.1 103.09,-135.94 107.63,-141.26"/>
<g id="a_edge6&#45;headlabel"><a xlink:href="dir_000019_000016.html" target="_top" xlink:title="1">
<text text-anchor="middle" x="106.74" y="-143.25" font-family="Helvetica,sans-Serif" font-size="10.00">1</text>
</a>
</g>
</g>
<!-- dir_2a34bf78513aea0df2e2c3d4af0cd38f&#45;&gt;dir_1ba33b307118a85c0794d13b60d0caea -->
<g id="edge5" class="edge">
<title>dir_2a34bf78513aea0df2e2c3d4af0cd38f&#45;&gt;dir_1ba33b307118a85c0794d13b60d0caea</title>
<path fill="none" stroke="black" d="M103.38,-60.1C109.67,-68.21 116.51,-78.08 122.14,-87.08"/>
<polygon fill="black" stroke="black" points="119.16,-88.91 127.3,-95.7 125.17,-85.32 119.16,-88.91"/>
<g id="a_edge5&#45;headlabel"><a xlink:href="dir_000021_000016.html" target="_top" xlink:title="24">
<text text-anchor="middle" x="114.88" y="-84.79" font-family="Helvetica,sans-Serif" font-size="10.00">24</text>
</a>
</g>
</g>
<!-- dir_38d004fcec24276f2c541b703d786171&#45;&gt;dir_1ba33b307118a85c0794d13b60d0caea -->
<g id="edge7" class="edge">
<title>dir_38d004fcec24276f2c541b703d786171&#45;&gt;dir_1ba33b307118a85c0794d13b60d0caea</title>
<path fill="none" stroke="black" d="M166.1,-60.1C162.81,-68.13 158.02,-77.87 153.03,-86.8"/>
<polygon fill="black" stroke="black" points="149.85,-85.3 147.81,-95.7 155.89,-88.84 149.85,-85.3"/>
<g id="a_edge7&#45;headlabel"><a xlink:href="dir_000024_000016.html" target="_top" xlink:title="9">
<text text-anchor="middle" x="149.22" y="-78.26" font-family="Helvetica,sans-Serif" font-size="10.00">9</text>
</a>
</g>
</g>
<!-- dir_f39368514e927ff3df32776217a2e927&#45;&gt;dir_dbb0507b3639155bebaec74fe5b3f957 -->
<g id="edge10" class="edge">
<title>dir_f39368514e927ff3df32776217a2e927&#45;&gt;dir_dbb0507b3639155bebaec74fe5b3f957</title>
<path fill="none" stroke="black" d="M265.77,-129.35C241.95,-140.4 207.05,-155.72 178.95,-167.49"/>
<polygon fill="black" stroke="black" points="177.6,-164.27 169.71,-171.34 180.29,-170.73 177.6,-164.27"/>
<g id="a_edge10&#45;headlabel"><a xlink:href="dir_000000_000013.html" target="_top" xlink:title="580">
<text text-anchor="middle" x="179.83" y="-157.76" font-family="Helvetica,sans-Serif" font-size="10.00">580</text>
</a>
</g>
</g>
<!-- dir_f39368514e927ff3df32776217a2e927&#45;&gt;dir_1ba33b307118a85c0794d13b60d0caea -->
<g id="edge11" class="edge">
<title>dir_f39368514e927ff3df32776217a2e927&#45;&gt;dir_1ba33b307118a85c0794d13b60d0caea</title>
<path fill="none" stroke="black" d="M265.96,-114C235.31,-114 204.67,-114 174.02,-114"/>
<polygon fill="black" stroke="black" points="173.63,-110.5 163.62,-114 173.62,-117.5 173.63,-110.5"/>
<g id="a_edge11&#45;headlabel"><a xlink:href="dir_000000_000016.html" target="_top" xlink:title="14">
<text text-anchor="middle" x="177.22" y="-105.16" font-family="Helvetica,sans-Serif" font-size="10.00">14</text>
</a>
</g>
</g>
</g>
</svg>
