<?xml version="1.0" encoding="UTF-8" standalone="no"?>
<!DOCTYPE svg PUBLIC "-//W3C//DTD SVG 1.1//EN"
 "http://www.w3.org/Graphics/SVG/1.1/DTD/svg11.dtd">
<!-- Generated by graphviz version 2.43.0 (0)
 -->
<!-- Title: include Pages: 1 -->
<svg width="114pt" height="223pt"
 viewBox="0.00 0.00 113.50 223.00" xmlns="http://www.w3.org/2000/svg" xmlns:xlink="http://www.w3.org/1999/xlink">
<g id="graph0" class="graph" transform="scale(1 1) rotate(0) translate(4 219)">
<title>include</title>
<polygon fill="white" stroke="transparent" points="-4,4 -4,-219 109.5,-219 109.5,4 -4,4"/>
<g id="clust1" class="cluster">
<title>clusterdir_dbb0507b3639155bebaec74fe5b3f957</title>
<g id="a_clust1"><a xlink:href="dir_dbb0507b3639155bebaec74fe5b3f957.html" target="_top" xlink:title="BasicFilters">
<polygon fill="#ddddee" stroke="black" points="24.5,-136 24.5,-207 97.5,-207 97.5,-136 24.5,-136"/>
<text text-anchor="middle" x="61" y="-195" font-family="Helvetica,sans-Serif" font-size="10.00">BasicFilters</text>
</a>
</g>
</g>
<!-- dir_7d59d9d95655f54e00bb9c93e4ffe47f -->
<g id="node1" class="node">
<title>dir_7d59d9d95655f54e00bb9c93e4ffe47f</title>
<g id="a_node1"><a xlink:href="dir_7d59d9d95655f54e00bb9c93e4ffe47f.html" target="_top" xlink:title="include">
<polygon fill="#eeeeff" stroke="black" points="87.5,-180 33.5,-180 33.5,-144 87.5,-144 87.5,-180"/>
<text text-anchor="middle" x="60.5" y="-159.5" font-family="Helvetica,sans-Serif" font-size="10.00">include</text>
</a>
</g>
</g>
<!-- dir_1ba33b307118a85c0794d13b60d0caea -->
<g id="node2" class="node">
<title>dir_1ba33b307118a85c0794d13b60d0caea</title>
<g id="a_node2"><a xlink:href="dir_1ba33b307118a85c0794d13b60d0caea.html" target="_top" xlink:title="Common">
<polygon fill="white" stroke="red" points="61,-108 0,-108 0,-72 61,-72 61,-108"/>
<text text-anchor="middle" x="30.5" y="-87.5" font-family="Helvetica,sans-Serif" font-size="10.00">Common</text>
</a>
</g>
</g>
<!-- dir_7d59d9d95655f54e00bb9c93e4ffe47f&#45;&gt;dir_1ba33b307118a85c0794d13b60d0caea -->
<g id="edge3" class="edge">
<title>dir_7d59d9d95655f54e00bb9c93e4ffe47f&#45;&gt;dir_1ba33b307118a85c0794d13b60d0caea</title>
<path fill="none" stroke="black" d="M53.08,-143.7C49.71,-135.81 45.63,-126.3 41.88,-117.55"/>
<polygon fill="black" stroke="black" points="44.99,-115.92 37.83,-108.1 38.55,-118.67 44.99,-115.92"/>
<g id="a_edge3&#45;headlabel"><a xlink:href="dir_000005_000006.html" target="_top" xlink:title="22">
<text text-anchor="middle" x="49.01" y="-115.6" font-family="Helvetica,sans-Serif" font-size="10.00">22</text>
</a>
</g>
</g>
<!-- dir_f39368514e927ff3df32776217a2e927 -->
<g id="node3" class="node">
<title>dir_f39368514e927ff3df32776217a2e927</title>
<g id="a_node3"><a xlink:href="dir_f39368514e927ff3df32776217a2e927.html" target="_top" xlink:title="Code">
<polygon fill="white" stroke="red" points="57.5,-36 3.5,-36 3.5,0 57.5,0 57.5,-36"/>
<text text-anchor="middle" x="30.5" y="-15.5" font-family="Helvetica,sans-Serif" font-size="10.00">Code</text>
</a>
</g>
</g>
<!-- dir_7d59d9d95655f54e00bb9c93e4ffe47f&#45;&gt;dir_f39368514e927ff3df32776217a2e927 -->
<g id="edge4" class="edge">
<title>dir_7d59d9d95655f54e00bb9c93e4ffe47f&#45;&gt;dir_f39368514e927ff3df32776217a2e927</title>
<path fill="none" stroke="black" d="M66.69,-143.81C72.3,-125.54 78.55,-96.03 70.5,-72 67.15,-62 61.08,-52.38 54.67,-44.14"/>
<polygon fill="black" stroke="black" points="57.32,-41.85 48.23,-36.4 51.94,-46.33 57.32,-41.85"/>
<g id="a_edge4&#45;headlabel"><a xlink:href="dir_000005_000008.html" target="_top" xlink:title="11">
<text text-anchor="middle" x="61.8" y="-40.3" font-family="Helvetica,sans-Serif" font-size="10.00">11</text>
</a>
</g>
</g>
<!-- dir_1ba33b307118a85c0794d13b60d0caea&#45;&gt;dir_f39368514e927ff3df32776217a2e927 -->
<g id="edge1" class="edge">
<title>dir_1ba33b307118a85c0794d13b60d0caea&#45;&gt;dir_f39368514e927ff3df32776217a2e927</title>
<path fill="none" stroke="black" d="M24.58,-71.7C23.79,-63.98 23.56,-54.71 23.9,-46.11"/>
<polygon fill="black" stroke="black" points="27.4,-46.32 24.6,-36.1 20.42,-45.84 27.4,-46.32"/>
<g id="a_edge1&#45;headlabel"><a xlink:href="dir_000006_000008.html" target="_top" xlink:title="6">
<text text-anchor="middle" x="29.98" y="-47.61" font-family="Helvetica,sans-Serif" font-size="10.00">6</text>
</a>
</g>
</g>
<!-- dir_f39368514e927ff3df32776217a2e927&#45;&gt;dir_1ba33b307118a85c0794d13b60d0caea -->
<g id="edge2" class="edge">
<title>dir_f39368514e927ff3df32776217a2e927&#45;&gt;dir_1ba33b307118a85c0794d13b60d0caea</title>
<path fill="none" stroke="black" d="M36.4,-36.1C37.2,-43.79 37.44,-53.05 37.1,-61.67"/>
<polygon fill="black" stroke="black" points="33.61,-61.48 36.42,-71.7 40.59,-61.96 33.61,-61.48"/>
<g id="a_edge2&#45;headlabel"><a xlink:href="dir_000008_000006.html" target="_top" xlink:title="14">
<text text-anchor="middle" x="31.02" y="-55.2" font-family="Helvetica,sans-Serif" font-size="10.00">14</text>
</a>
</g>
</g>
</g>
</svg>
