<?xml version="1.0" encoding="UTF-8" standalone="no"?>
<!DOCTYPE svg PUBLIC "-//W3C//DTD SVG 1.1//EN"
 "http://www.w3.org/Graphics/SVG/1.1/DTD/svg11.dtd">
<!-- Generated by graphviz version 2.43.0 (0)
 -->
<!-- Title: include Pages: 1 -->
<svg width="100pt" height="151pt"
 viewBox="0.00 0.00 100.00 151.00" xmlns="http://www.w3.org/2000/svg" xmlns:xlink="http://www.w3.org/1999/xlink">
<g id="graph0" class="graph" transform="scale(1 1) rotate(0) translate(4 147)">
<title>include</title>
<polygon fill="white" stroke="transparent" points="-4,4 -4,-147 96,-147 96,4 -4,4"/>
<g id="clust1" class="cluster">
<title>clusterdir_38d004fcec24276f2c541b703d786171</title>
<g id="a_clust1"><a xlink:href="dir_38d004fcec24276f2c541b703d786171.html" target="_top" xlink:title="Registration">
<polygon fill="#ddddee" stroke="black" points="8,-64 8,-135 84,-135 84,-64 8,-64"/>
<text text-anchor="middle" x="46" y="-123" font-family="Helvetica,sans-Serif" font-size="10.00">Registration</text>
</a>
</g>
</g>
<!-- dir_7d89d2b16d8ddeef6397633d9aa8863c -->
<g id="node1" class="node">
<title>dir_7d89d2b16d8ddeef6397633d9aa8863c</title>
<g id="a_node1"><a xlink:href="dir_7d89d2b16d8ddeef6397633d9aa8863c.html" target="_top" xlink:title="include">
<polygon fill="#eeeeff" stroke="black" points="73,-108 19,-108 19,-72 73,-72 73,-108"/>
<text text-anchor="middle" x="46" y="-87.5" font-family="Helvetica,sans-Serif" font-size="10.00">include</text>
</a>
</g>
</g>
<!-- dir_1ba33b307118a85c0794d13b60d0caea -->
<g id="node2" class="node">
<title>dir_1ba33b307118a85c0794d13b60d0caea</title>
<g id="a_node2"><a xlink:href="dir_1ba33b307118a85c0794d13b60d0caea.html" target="_top" xlink:title="Common">
<polygon fill="white" stroke="red" points="76.5,-36 15.5,-36 15.5,0 76.5,0 76.5,-36"/>
<text text-anchor="middle" x="46" y="-15.5" font-family="Helvetica,sans-Serif" font-size="10.00">Common</text>
</a>
</g>
</g>
<!-- dir_7d89d2b16d8ddeef6397633d9aa8863c&#45;&gt;dir_1ba33b307118a85c0794d13b60d0caea -->
<g id="edge1" class="edge">
<title>dir_7d89d2b16d8ddeef6397633d9aa8863c&#45;&gt;dir_1ba33b307118a85c0794d13b60d0caea</title>
<path fill="none" stroke="black" d="M46,-71.7C46,-63.98 46,-54.71 46,-46.11"/>
<polygon fill="black" stroke="black" points="49.5,-46.1 46,-36.1 42.5,-46.1 49.5,-46.1"/>
<g id="a_edge1&#45;headlabel"><a xlink:href="dir_000025_000016.html" target="_top" xlink:title="9">
<text text-anchor="middle" x="52.34" y="-47.2" font-family="Helvetica,sans-Serif" font-size="10.00">9</text>
</a>
</g>
</g>
</g>
</svg>
