<?xml version="1.0" encoding="UTF-8" standalone="no"?>
<!DOCTYPE svg PUBLIC "-//W3C//DTD SVG 1.1//EN"
 "http://www.w3.org/Graphics/SVG/1.1/DTD/svg11.dtd">
<!-- Generated by graphviz version 2.43.0 (0)
 -->
<!-- Title: Graphical Class Hierarchy Pages: 1 -->
<svg width="488pt" height="72pt"
 viewBox="0.00 0.00 488.00 72.00" xmlns="http://www.w3.org/2000/svg" xmlns:xlink="http://www.w3.org/1999/xlink">
<g id="graph0" class="graph" transform="scale(1 1) rotate(0) translate(4 68)">
<title>Graphical Class Hierarchy</title>
<polygon fill="white" stroke="transparent" points="-4,4 -4,-68 484,-68 484,4 -4,4"/>
<!-- Node0 -->
<g id="node1" class="node">
<title>Node0</title>
<g id="a_node1"><a xlink:href="structitk_1_1simple_1_1IsInstantiated.html" target="_top" xlink:title=" ">
<polygon fill="white" stroke="black" points="0,-0.5 0,-63.5 220,-63.5 220,-0.5 0,-0.5"/>
<text text-anchor="start" x="8" y="-51.5" font-family="Helvetica,sans-Serif" font-size="10.00">itk::simple::IsInstantiated</text>
<text text-anchor="start" x="8" y="-40.5" font-family="Helvetica,sans-Serif" font-size="10.00">&lt; ImageTypeToPixelID&lt; itk</text>
<text text-anchor="start" x="8" y="-29.5" font-family="Helvetica,sans-Serif" font-size="10.00">::LabelMap&lt; itk::LabelObject</text>
<text text-anchor="start" x="8" y="-18.5" font-family="Helvetica,sans-Serif" font-size="10.00">&lt; TLabelType, VImageDimension</text>
<text text-anchor="middle" x="110" y="-7.5" font-family="Helvetica,sans-Serif" font-size="10.00"> &gt; &gt; &gt;::PixelIDType, VImageDimension &gt;</text>
</a>
</g>
</g>
<!-- Node1 -->
<g id="node2" class="node">
<title>Node1</title>
<g id="a_node2"><a xlink:href="structitk_1_1simple_1_1IsInstantiated_3_01itk_1_1LabelMap_3_01itk_1_1LabelObject_3_01TLabelType_8c9763b073bdea276b13f9d4c521053d.html" target="_top" xlink:title=" ">
<polygon fill="white" stroke="black" points="256,-11.5 256,-52.5 480,-52.5 480,-11.5 256,-11.5"/>
<text text-anchor="start" x="264" y="-40.5" font-family="Helvetica,sans-Serif" font-size="10.00">itk::simple::IsInstantiated</text>
<text text-anchor="start" x="264" y="-29.5" font-family="Helvetica,sans-Serif" font-size="10.00">&lt; itk::LabelMap&lt; itk::LabelObject</text>
<text text-anchor="middle" x="368" y="-18.5" font-family="Helvetica,sans-Serif" font-size="10.00">&lt; TLabelType, VImageDimension &gt; &gt;, 0 &gt;</text>
</a>
</g>
</g>
<!-- Node0&#45;&gt;Node1 -->
<g id="edge1" class="edge">
<title>Node0&#45;&gt;Node1</title>
<path fill="none" stroke="midnightblue" d="M230.49,-32C238.86,-32 247.28,-32 255.61,-32"/>
<polygon fill="midnightblue" stroke="midnightblue" points="230.31,-28.5 220.31,-32 230.31,-35.5 230.31,-28.5"/>
</g>
</g>
</svg>
