<?xml version="1.0" encoding="UTF-8" standalone="no"?>
<!DOCTYPE svg PUBLIC "-//W3C//DTD SVG 1.1//EN"
 "http://www.w3.org/Graphics/SVG/1.1/DTD/svg11.dtd">
<!-- Generated by graphviz version 2.43.0 (0)
 -->
<!-- Title: Graphical Class Hierarchy Pages: 1 -->
<svg width="1369pt" height="165pt"
 viewBox="0.00 0.00 1369.00 165.00" xmlns="http://www.w3.org/2000/svg" xmlns:xlink="http://www.w3.org/1999/xlink">
<g id="graph0" class="graph" transform="scale(1 1) rotate(0) translate(4 161)">
<title>Graphical Class Hierarchy</title>
<polygon fill="white" stroke="transparent" points="-4,4 -4,-161 1365,-161 1365,4 -4,4"/>
<!-- Node411 -->
<g id="node1" class="node">
<title>Node411</title>
<g id="a_node1"><a xlink:href="https://www.itk.org/Doxygen/html/structitk_1_1ImageSourceCommon.html" xlink:title=" ">
<polygon fill="white" stroke="black" points="230,-132 230,-151 373,-151 373,-132 230,-132"/>
<text text-anchor="middle" x="301.5" y="-139" font-family="Helvetica,sans-Serif" font-size="10.00">itk::ImageSourceCommon</text>
</a>
</g>
</g>
<!-- Node6 -->
<g id="node2" class="node">
<title>Node6</title>
<g id="a_node2"><a xlink:href="https://www.itk.org/Doxygen/html/classitk_1_1ImageSource.html" xlink:title=" ">
<polygon fill="white" stroke="black" points="422.5,-126.5 422.5,-156.5 571.5,-156.5 571.5,-126.5 422.5,-126.5"/>
<text text-anchor="start" x="430.5" y="-144.5" font-family="Helvetica,sans-Serif" font-size="10.00">itk::ImageSource&lt; TOutput</text>
<text text-anchor="middle" x="497" y="-133.5" font-family="Helvetica,sans-Serif" font-size="10.00">Image &gt;</text>
</a>
</g>
</g>
<!-- Node411&#45;&gt;Node6 -->
<g id="edge1" class="edge">
<title>Node411&#45;&gt;Node6</title>
<path fill="none" stroke="#8b1a1a" d="M383.41,-141.5C396.29,-141.5 409.56,-141.5 422.26,-141.5"/>
<polygon fill="#8b1a1a" stroke="#8b1a1a" points="383.18,-138 373.18,-141.5 383.18,-145 383.18,-138"/>
</g>
<!-- Node7 -->
<g id="node3" class="node">
<title>Node7</title>
<g id="a_node3"><a xlink:href="https://www.itk.org/Doxygen/html/classitk_1_1ImageToImageFilter.html" xlink:title=" ">
<polygon fill="white" stroke="black" points="621,-104.5 621,-134.5 797,-134.5 797,-104.5 621,-104.5"/>
<text text-anchor="start" x="629" y="-122.5" font-family="Helvetica,sans-Serif" font-size="10.00">itk::ImageToImageFilter</text>
<text text-anchor="middle" x="709" y="-111.5" font-family="Helvetica,sans-Serif" font-size="10.00">&lt; TInputImage, TOutputImage &gt;</text>
</a>
</g>
</g>
<!-- Node6&#45;&gt;Node7 -->
<g id="edge2" class="edge">
<title>Node6&#45;&gt;Node7</title>
<path fill="none" stroke="midnightblue" d="M581.89,-132.71C594.67,-131.37 607.9,-129.99 620.75,-128.64"/>
<polygon fill="midnightblue" stroke="midnightblue" points="581.32,-129.25 571.74,-133.77 582.05,-136.21 581.32,-129.25"/>
</g>
<!-- Node8 -->
<g id="node4" class="node">
<title>Node8</title>
<g id="a_node4"><a xlink:href="https://www.itk.org/Doxygen/html/classitk_1_1InPlaceImageFilter.html" xlink:title=" ">
<polygon fill="white" stroke="black" points="833,-104.5 833,-134.5 1009,-134.5 1009,-104.5 833,-104.5"/>
<text text-anchor="start" x="841" y="-122.5" font-family="Helvetica,sans-Serif" font-size="10.00">itk::InPlaceImageFilter</text>
<text text-anchor="middle" x="921" y="-111.5" font-family="Helvetica,sans-Serif" font-size="10.00">&lt; TInputImage, TOutputImage &gt;</text>
</a>
</g>
</g>
<!-- Node7&#45;&gt;Node8 -->
<g id="edge3" class="edge">
<title>Node7&#45;&gt;Node8</title>
<path fill="none" stroke="midnightblue" d="M807.46,-119.5C815.88,-119.5 824.37,-119.5 832.7,-119.5"/>
<polygon fill="midnightblue" stroke="midnightblue" points="807.23,-116 797.23,-119.5 807.23,-123 807.23,-116"/>
</g>
<!-- Node9 -->
<g id="node5" class="node">
<title>Node9</title>
<g id="a_node5"><a xlink:href="https://www.itk.org/Doxygen/html/classitk_1_1CastImageFilter.html" xlink:title=" ">
<polygon fill="white" stroke="black" points="1045,-104.5 1045,-134.5 1209,-134.5 1209,-104.5 1045,-104.5"/>
<text text-anchor="start" x="1053" y="-122.5" font-family="Helvetica,sans-Serif" font-size="10.00">itk::CastImageFilter</text>
<text text-anchor="middle" x="1127" y="-111.5" font-family="Helvetica,sans-Serif" font-size="10.00">&lt; TImageType, TImageType &gt;</text>
</a>
</g>
</g>
<!-- Node8&#45;&gt;Node9 -->
<g id="edge4" class="edge">
<title>Node8&#45;&gt;Node9</title>
<path fill="none" stroke="midnightblue" d="M1019.12,-119.5C1027.67,-119.5 1036.28,-119.5 1044.68,-119.5"/>
<polygon fill="midnightblue" stroke="midnightblue" points="1019.11,-116 1009.11,-119.5 1019.11,-123 1019.11,-116"/>
</g>
<!-- Node10 -->
<g id="node6" class="node">
<title>Node10</title>
<g id="a_node6"><a xlink:href="classitk_1_1HashImageFilter.html" target="_top" xlink:title="Generates a hash string from an image.">
<polygon fill="white" stroke="black" points="1245,-104.5 1245,-134.5 1361,-134.5 1361,-104.5 1245,-104.5"/>
<text text-anchor="start" x="1253" y="-122.5" font-family="Helvetica,sans-Serif" font-size="10.00">itk::HashImageFilter</text>
<text text-anchor="middle" x="1303" y="-111.5" font-family="Helvetica,sans-Serif" font-size="10.00">&lt; TImageType &gt;</text>
</a>
</g>
</g>
<!-- Node9&#45;&gt;Node10 -->
<g id="edge5" class="edge">
<title>Node9&#45;&gt;Node10</title>
<path fill="none" stroke="midnightblue" d="M1219.32,-119.5C1227.99,-119.5 1236.6,-119.5 1244.81,-119.5"/>
<polygon fill="midnightblue" stroke="midnightblue" points="1219.14,-116 1209.14,-119.5 1219.14,-123 1219.14,-116"/>
</g>
<!-- Node410 -->
<g id="node7" class="node">
<title>Node410</title>
<g id="a_node7"><a xlink:href="https://www.itk.org/Doxygen/html/classitk_1_1ImageToImageFilterCommon.html" xlink:title=" ">
<polygon fill="white" stroke="black" points="409,-88 409,-107 585,-107 585,-88 409,-88"/>
<text text-anchor="middle" x="497" y="-95" font-family="Helvetica,sans-Serif" font-size="10.00">itk::ImageToImageFilterCommon</text>
</a>
</g>
</g>
<!-- Node410&#45;&gt;Node7 -->
<g id="edge6" class="edge">
<title>Node410&#45;&gt;Node7</title>
<path fill="none" stroke="#8b1a1a" d="M595.18,-107.68C603.69,-108.57 612.27,-109.47 620.7,-110.35"/>
<polygon fill="#8b1a1a" stroke="#8b1a1a" points="595.54,-104.2 585.23,-106.64 594.82,-111.16 595.54,-104.2"/>
</g>
<!-- Node0 -->
<g id="node8" class="node">
<title>Node0</title>
<g id="a_node8"><a xlink:href="https://www.itk.org/Doxygen/html/classitk_1_1LightObject.html" xlink:title=" ">
<polygon fill="white" stroke="black" points="0,-72 0,-91 91,-91 91,-72 0,-72"/>
<text text-anchor="middle" x="45.5" y="-79" font-family="Helvetica,sans-Serif" font-size="10.00">itk::LightObject</text>
</a>
</g>
</g>
<!-- Node1 -->
<g id="node9" class="node">
<title>Node1</title>
<g id="a_node9"><a xlink:href="https://www.itk.org/Doxygen/html/classitk_1_1Object.html" xlink:title=" ">
<polygon fill="white" stroke="black" points="127,-72 127,-91 194,-91 194,-72 127,-72"/>
<text text-anchor="middle" x="160.5" y="-79" font-family="Helvetica,sans-Serif" font-size="10.00">itk::Object</text>
</a>
</g>
</g>
<!-- Node0&#45;&gt;Node1 -->
<g id="edge7" class="edge">
<title>Node0&#45;&gt;Node1</title>
<path fill="none" stroke="midnightblue" d="M101.28,-81.5C109.96,-81.5 118.69,-81.5 126.66,-81.5"/>
<polygon fill="midnightblue" stroke="midnightblue" points="101.16,-78 91.16,-81.5 101.16,-85 101.16,-78"/>
</g>
<!-- Node2 -->
<g id="node10" class="node">
<title>Node2</title>
<g id="a_node10"><a xlink:href="https://www.itk.org/Doxygen/html/classitk_1_1Command.html" xlink:title=" ">
<polygon fill="white" stroke="black" points="258.5,-50 258.5,-69 344.5,-69 344.5,-50 258.5,-50"/>
<text text-anchor="middle" x="301.5" y="-57" font-family="Helvetica,sans-Serif" font-size="10.00">itk::Command</text>
</a>
</g>
</g>
<!-- Node1&#45;&gt;Node2 -->
<g id="edge8" class="edge">
<title>Node1&#45;&gt;Node2</title>
<path fill="none" stroke="midnightblue" d="M204.4,-74.71C221.56,-71.99 241.27,-68.87 258.36,-66.17"/>
<polygon fill="midnightblue" stroke="midnightblue" points="203.42,-71.32 194.09,-76.34 204.51,-78.24 203.42,-71.32"/>
</g>
<!-- Node5 -->
<g id="node13" class="node">
<title>Node5</title>
<g id="a_node13"><a xlink:href="https://www.itk.org/Doxygen/html/classitk_1_1ProcessObject.html" xlink:title=" ">
<polygon fill="white" stroke="black" points="249.5,-91 249.5,-110 353.5,-110 353.5,-91 249.5,-91"/>
<text text-anchor="middle" x="301.5" y="-98" font-family="Helvetica,sans-Serif" font-size="10.00">itk::ProcessObject</text>
</a>
</g>
</g>
<!-- Node1&#45;&gt;Node5 -->
<g id="edge11" class="edge">
<title>Node1&#45;&gt;Node5</title>
<path fill="none" stroke="midnightblue" d="M204.13,-87.33C218.41,-89.28 234.48,-91.48 249.35,-93.51"/>
<polygon fill="midnightblue" stroke="midnightblue" points="204.47,-83.84 194.09,-85.95 203.52,-90.78 204.47,-83.84"/>
</g>
<!-- Node3 -->
<g id="node11" class="node">
<title>Node3</title>
<g id="a_node11"><a xlink:href="classitk_1_1HolderCommand.html" target="_top" xlink:title="An ITK Command class to hold a object until destruction.">
<polygon fill="white" stroke="black" points="424,-50 424,-69 570,-69 570,-50 424,-50"/>
<text text-anchor="middle" x="497" y="-57" font-family="Helvetica,sans-Serif" font-size="10.00">itk::HolderCommand&lt; T &gt;</text>
</a>
</g>
</g>
<!-- Node2&#45;&gt;Node3 -->
<g id="edge9" class="edge">
<title>Node2&#45;&gt;Node3</title>
<path fill="none" stroke="midnightblue" d="M355.07,-59.5C376.28,-59.5 401.11,-59.5 423.96,-59.5"/>
<polygon fill="midnightblue" stroke="midnightblue" points="354.96,-56 344.96,-59.5 354.96,-63 354.96,-56"/>
</g>
<!-- Node4 -->
<g id="node12" class="node">
<title>Node4</title>
<g id="a_node12"><a xlink:href="classitk_1_1HolderCommand_3_01T_01_5_01_4.html" target="_top" xlink:title=" ">
<polygon fill="white" stroke="black" points="438,-0.5 438,-30.5 556,-30.5 556,-0.5 438,-0.5"/>
<text text-anchor="start" x="446" y="-18.5" font-family="Helvetica,sans-Serif" font-size="10.00">itk::HolderCommand</text>
<text text-anchor="middle" x="497" y="-7.5" font-family="Helvetica,sans-Serif" font-size="10.00">&lt; T * &gt;</text>
</a>
</g>
</g>
<!-- Node2&#45;&gt;Node4 -->
<g id="edge10" class="edge">
<title>Node2&#45;&gt;Node4</title>
<path fill="none" stroke="midnightblue" d="M354.43,-47.69C380.2,-41.83 411.4,-34.74 437.95,-28.7"/>
<polygon fill="midnightblue" stroke="midnightblue" points="353.46,-44.32 344.49,-49.95 355.01,-51.15 353.46,-44.32"/>
</g>
<!-- Node5&#45;&gt;Node6 -->
<g id="edge12" class="edge">
<title>Node5&#45;&gt;Node6</title>
<path fill="none" stroke="midnightblue" d="M357.39,-112.13C378.36,-116.57 402.57,-121.7 424.84,-126.42"/>
<polygon fill="midnightblue" stroke="midnightblue" points="357.89,-108.66 347.38,-110.01 356.44,-115.51 357.89,-108.66"/>
</g>
</g>
</svg>
