<?xml version="1.0" encoding="UTF-8" standalone="no"?>
<!DOCTYPE svg PUBLIC "-//W3C//DTD SVG 1.1//EN"
 "http://www.w3.org/Graphics/SVG/1.1/DTD/svg11.dtd">
<!-- Generated by graphviz version 2.43.0 (0)
 -->
<!-- Title: Graphical Class Hierarchy Pages: 1 -->
<svg width="424pt" height="61pt"
 viewBox="0.00 0.00 424.00 61.00" xmlns="http://www.w3.org/2000/svg" xmlns:xlink="http://www.w3.org/1999/xlink">
<g id="graph0" class="graph" transform="scale(1 1) rotate(0) translate(4 57)">
<title>Graphical Class Hierarchy</title>
<polygon fill="white" stroke="transparent" points="-4,4 -4,-57 420,-57 420,4 -4,4"/>
<!-- Node0 -->
<g id="node1" class="node">
<title>Node0</title>
<g id="a_node1"><a xlink:href="structitk_1_1simple_1_1IsVector.html" target="_top" xlink:title=" ">
<polygon fill="white" stroke="black" points="0,-0.5 0,-52.5 206,-52.5 206,-0.5 0,-0.5"/>
<text text-anchor="start" x="8" y="-40.5" font-family="Helvetica,sans-Serif" font-size="10.00">itk::simple::IsVector</text>
<text text-anchor="start" x="8" y="-29.5" font-family="Helvetica,sans-Serif" font-size="10.00">&lt; ImageTypeToPixelID</text>
<text text-anchor="start" x="8" y="-18.5" font-family="Helvetica,sans-Serif" font-size="10.00">&lt; itk::VectorImage&lt; TPixelType,</text>
<text text-anchor="middle" x="103" y="-7.5" font-family="Helvetica,sans-Serif" font-size="10.00"> VImageDimension &gt; &gt;::PixelIDType &gt;</text>
</a>
</g>
</g>
<!-- Node1 -->
<g id="node2" class="node">
<title>Node1</title>
<g id="a_node2"><a xlink:href="structitk_1_1simple_1_1IsVector_3_01itk_1_1VectorImage_3_01TPixelType_00_01VImageDimension_01_4_01_4.html" target="_top" xlink:title=" ">
<polygon fill="white" stroke="black" points="242,-6 242,-47 416,-47 416,-6 242,-6"/>
<text text-anchor="start" x="250" y="-35" font-family="Helvetica,sans-Serif" font-size="10.00">itk::simple::IsVector</text>
<text text-anchor="start" x="250" y="-24" font-family="Helvetica,sans-Serif" font-size="10.00">&lt; itk::VectorImage&lt; TPixelType,</text>
<text text-anchor="middle" x="329" y="-13" font-family="Helvetica,sans-Serif" font-size="10.00"> VImageDimension &gt; &gt;</text>
</a>
</g>
</g>
<!-- Node0&#45;&gt;Node1 -->
<g id="edge1" class="edge">
<title>Node0&#45;&gt;Node1</title>
<path fill="none" stroke="midnightblue" d="M216.22,-26.5C224.79,-26.5 233.36,-26.5 241.73,-26.5"/>
<polygon fill="midnightblue" stroke="midnightblue" points="216.17,-23 206.17,-26.5 216.17,-30 216.17,-23"/>
</g>
</g>
</svg>
