<?xml version="1.0" encoding="UTF-8" standalone="no"?>
<!DOCTYPE svg PUBLIC "-//W3C//DTD SVG 1.1//EN"
 "http://www.w3.org/Graphics/SVG/1.1/DTD/svg11.dtd">
<!-- Generated by graphviz version 2.43.0 (0)
 -->
<!-- Title: itkHolderCommand.h Pages: 1 -->
<!--zoomable 644 -->
<svg id="main" version="1.1" xmlns="http://www.w3.org/2000/svg" xmlns:xlink="http://www.w3.org/1999/xlink" xml:space="preserve" onload="init(evt)">
<style type="text/css"><![CDATA[
.edge:hover path { stroke: red; }
.edge:hover polygon { stroke: red; fill: red; }
]]></style>
<script type="text/javascript"><![CDATA[
var edges = document.getElementsByTagName('g');
if (edges && edges.length) {
  for (var i=0;i<edges.length;i++) {
    if (edges[i].id.substr(0,4)=='edge') {
      edges[i].setAttribute('class','edge');
    }
  }
}
]]></script>
        <defs>
                <circle id="rim" cx="0" cy="0" r="7"/>
                <circle id="rim2" cx="0" cy="0" r="3.5"/>
                <g id="zoomPlus">
                        <use xlink:href="#rim" fill="#404040">
                                <set attributeName="fill" to="#808080" begin="zoomplus.mouseover" end="zoomplus.mouseout"/>
                        </use>
                        <path d="M-4,0h8M0,-4v8" fill="none" stroke="white" stroke-width="1.5" pointer-events="none"/>
                </g>
                <g id="zoomMin">
                        <use xlink:href="#rim" fill="#404040">
                                <set attributeName="fill" to="#808080" begin="zoomminus.mouseover" end="zoomminus.mouseout"/>
                        </use>
                        <path d="M-4,0h8" fill="none" stroke="white" stroke-width="1.5" pointer-events="none"/>
                </g>
                <g id="dirArrow">
                        <path fill="none" stroke="white" stroke-width="1.5" d="M0,-3.0v7 M-2.5,-0.5L0,-3.0L2.5,-0.5"/>
                </g>
               <g id="resetDef">
                       <use xlink:href="#rim2" fill="#404040">
                               <set attributeName="fill" to="#808080" begin="reset.mouseover" end="reset.mouseout"/>
                       </use>
               </g>
        </defs>

<script type="text/javascript">
var viewWidth = 472;
var viewHeight = 644;
var sectionId = 'dynsection-0';
</script>
<script xlink:href="svgpan.js"/>
<svg id="graph" class="graph">
<g id="viewport">
<title>itkHolderCommand.h</title>
<polygon fill="white" stroke="transparent" points="-4,4 -4,-640 468,-640 468,4 -4,4"/>
<!-- Node1 -->
<g id="node1" class="node">
<title>Node1</title>
<g id="a_node1"><a xlink:title=" ">
<polygon fill="#bfbfbf" stroke="black" points="144.5,-616.5 144.5,-635.5 265.5,-635.5 265.5,-616.5 144.5,-616.5"/>
<text text-anchor="middle" x="205" y="-623.5" font-family="Helvetica,sans-Serif" font-size="10.00">itkHolderCommand.h</text>
</a>
</g>
</g>
<!-- Node2 -->
<g id="node2" class="node">
<title>Node2</title>
<g id="a_node2"><a xlink:href="https://www.itk.org/Doxygen/html/itkCommand_8h.html" xlink:title=" ">
<polygon fill="white" stroke="black" points="160.5,-560.5 160.5,-579.5 249.5,-579.5 249.5,-560.5 160.5,-560.5"/>
<text text-anchor="middle" x="205" y="-567.5" font-family="Helvetica,sans-Serif" font-size="10.00">itkCommand.h</text>
</a>
</g>
</g>
<!-- Node1&#45;&gt;Node2 -->
<g id="edge1" class="edge">
<title>Node1&#45;&gt;Node2</title>
<path fill="none" stroke="midnightblue" d="M205,-616.08C205,-609.01 205,-598.86 205,-589.99"/>
<polygon fill="midnightblue" stroke="midnightblue" points="208.5,-589.75 205,-579.75 201.5,-589.75 208.5,-589.75"/>
</g>
<!-- Node3 -->
<g id="node3" class="node">
<title>Node3</title>
<g id="a_node3"><a xlink:href="https://www.itk.org/Doxygen/html/itkObject_8h.html" xlink:title=" ">
<polygon fill="white" stroke="black" points="226,-336.5 226,-355.5 296,-355.5 296,-336.5 226,-336.5"/>
<text text-anchor="middle" x="261" y="-343.5" font-family="Helvetica,sans-Serif" font-size="10.00">itkObject.h</text>
</a>
</g>
</g>
<!-- Node2&#45;&gt;Node3 -->
<g id="edge2" class="edge">
<title>Node2&#45;&gt;Node3</title>
<path fill="none" stroke="midnightblue" d="M201.14,-560.25C197.44,-551.33 192.11,-537.01 190,-524 188.58,-515.23 188.73,-512.8 190,-504 197.41,-452.64 198.4,-437.69 223,-392 228.67,-381.47 237.1,-371.16 244.57,-363.08"/>
<polygon fill="midnightblue" stroke="midnightblue" points="247.17,-365.43 251.6,-355.81 242.13,-360.57 247.17,-365.43"/>
</g>
<!-- Node14 -->
<g id="node14" class="node">
<title>Node14</title>
<g id="a_node14"><a xlink:href="https://www.itk.org/Doxygen/html/itkObjectFactory_8h.html" xlink:title=" ">
<polygon fill="white" stroke="black" points="199,-504.5 199,-523.5 303,-523.5 303,-504.5 199,-504.5"/>
<text text-anchor="middle" x="251" y="-511.5" font-family="Helvetica,sans-Serif" font-size="10.00">itkObjectFactory.h</text>
</a>
</g>
</g>
<!-- Node2&#45;&gt;Node14 -->
<g id="edge19" class="edge">
<title>Node2&#45;&gt;Node14</title>
<path fill="none" stroke="midnightblue" d="M212.6,-560.08C219.23,-552.3 229.02,-540.8 237.06,-531.37"/>
<polygon fill="midnightblue" stroke="midnightblue" points="239.73,-533.63 243.55,-523.75 234.4,-529.09 239.73,-533.63"/>
</g>
<!-- Node4 -->
<g id="node4" class="node">
<title>Node4</title>
<g id="a_node4"><a xlink:href="https://www.itk.org/Doxygen/html/itkLightObject_8h.html" xlink:title=" ">
<polygon fill="white" stroke="black" points="145,-168.5 145,-187.5 239,-187.5 239,-168.5 145,-168.5"/>
<text text-anchor="middle" x="192" y="-175.5" font-family="Helvetica,sans-Serif" font-size="10.00">itkLightObject.h</text>
</a>
</g>
</g>
<!-- Node3&#45;&gt;Node4 -->
<g id="edge3" class="edge">
<title>Node3&#45;&gt;Node4</title>
<path fill="none" stroke="midnightblue" d="M225.8,-342.52C195.17,-338.46 151.77,-327.82 126,-300 102.66,-274.8 94.66,-253.65 112,-224 120.86,-208.85 136.91,-198.41 152.31,-191.42"/>
<polygon fill="midnightblue" stroke="midnightblue" points="153.85,-194.57 161.75,-187.51 151.17,-188.11 153.85,-194.57"/>
</g>
<!-- Node9 -->
<g id="node9" class="node">
<title>Node9</title>
<g id="a_node9"><a xlink:href="https://www.itk.org/Doxygen/html/itkSingletonMacro_8h.html" xlink:title=" ">
<polygon fill="white" stroke="black" points="350,-56.5 350,-75.5 464,-75.5 464,-56.5 350,-56.5"/>
<text text-anchor="middle" x="407" y="-63.5" font-family="Helvetica,sans-Serif" font-size="10.00">itkSingletonMacro.h</text>
</a>
</g>
</g>
<!-- Node3&#45;&gt;Node9 -->
<g id="edge18" class="edge">
<title>Node3&#45;&gt;Node9</title>
<path fill="none" stroke="midnightblue" d="M293.04,-336.44C336.02,-322.78 407,-291.65 407,-235 407,-235 407,-235 407,-177 407,-144.95 407,-107.64 407,-85.75"/>
<polygon fill="midnightblue" stroke="midnightblue" points="410.5,-85.56 407,-75.56 403.5,-85.56 410.5,-85.56"/>
</g>
<!-- Node11 -->
<g id="node11" class="node">
<title>Node11</title>
<g id="a_node11"><a xlink:href="https://www.itk.org/Doxygen/html/itkEventObject_8h.html" xlink:title=" ">
<polygon fill="white" stroke="black" points="281,-224.5 281,-243.5 379,-243.5 379,-224.5 281,-224.5"/>
<text text-anchor="middle" x="330" y="-231.5" font-family="Helvetica,sans-Serif" font-size="10.00">itkEventObject.h</text>
</a>
</g>
</g>
<!-- Node3&#45;&gt;Node11 -->
<g id="edge13" class="edge">
<title>Node3&#45;&gt;Node11</title>
<path fill="none" stroke="midnightblue" d="M266.41,-336.37C277.75,-318.3 304.17,-276.18 319.14,-252.31"/>
<polygon fill="midnightblue" stroke="midnightblue" points="322.26,-253.92 324.61,-243.59 316.33,-250.2 322.26,-253.92"/>
</g>
<!-- Node12 -->
<g id="node12" class="node">
<title>Node12</title>
<g id="a_node12"><a xlink:href="https://www.itk.org/Doxygen/html/itkMetaDataDictionary_8h.html" xlink:title=" ">
<polygon fill="white" stroke="black" points="135.5,-280.5 135.5,-299.5 270.5,-299.5 270.5,-280.5 135.5,-280.5"/>
<text text-anchor="middle" x="203" y="-287.5" font-family="Helvetica,sans-Serif" font-size="10.00">itkMetaDataDictionary.h</text>
</a>
</g>
</g>
<!-- Node3&#45;&gt;Node12 -->
<g id="edge15" class="edge">
<title>Node3&#45;&gt;Node12</title>
<path fill="none" stroke="midnightblue" d="M251.68,-336.32C243.11,-328.34 230.19,-316.31 219.81,-306.65"/>
<polygon fill="midnightblue" stroke="midnightblue" points="222.19,-304.09 212.49,-299.83 217.42,-309.21 222.19,-304.09"/>
</g>
<!-- Node5 -->
<g id="node5" class="node">
<title>Node5</title>
<g id="a_node5"><a xlink:href="https://www.itk.org/Doxygen/html/itkMacro_8h.html" xlink:title=" ">
<polygon fill="white" stroke="black" points="205,-0.5 205,-19.5 273,-19.5 273,-0.5 205,-0.5"/>
<text text-anchor="middle" x="239" y="-7.5" font-family="Helvetica,sans-Serif" font-size="10.00">itkMacro.h</text>
</a>
</g>
</g>
<!-- Node4&#45;&gt;Node5 -->
<g id="edge4" class="edge">
<title>Node4&#45;&gt;Node5</title>
<path fill="none" stroke="midnightblue" d="M211.3,-168.48C225.43,-161.08 243.56,-148.89 252,-132 268.63,-98.75 256.25,-54.04 246.89,-29.34"/>
<polygon fill="midnightblue" stroke="midnightblue" points="250.03,-27.75 243.04,-19.78 243.54,-30.37 250.03,-27.75"/>
</g>
<!-- Node6 -->
<g id="node6" class="node">
<title>Node6</title>
<g id="a_node6"><a xlink:href="https://www.itk.org/Doxygen/html/itkSmartPointer_8h.html" xlink:title=" ">
<polygon fill="white" stroke="black" points="141.5,-112.5 141.5,-131.5 242.5,-131.5 242.5,-112.5 141.5,-112.5"/>
<text text-anchor="middle" x="192" y="-119.5" font-family="Helvetica,sans-Serif" font-size="10.00">itkSmartPointer.h</text>
</a>
</g>
</g>
<!-- Node4&#45;&gt;Node6 -->
<g id="edge5" class="edge">
<title>Node4&#45;&gt;Node6</title>
<path fill="none" stroke="midnightblue" d="M192,-168.08C192,-161.01 192,-150.86 192,-141.99"/>
<polygon fill="midnightblue" stroke="midnightblue" points="195.5,-141.75 192,-131.75 188.5,-141.75 195.5,-141.75"/>
</g>
<!-- Node7 -->
<g id="node7" class="node">
<title>Node7</title>
<g id="a_node7"><a xlink:href="https://www.itk.org/Doxygen/html/itkTimeStamp_8h.html" xlink:title=" ">
<polygon fill="white" stroke="black" points="28.5,-112.5 28.5,-131.5 123.5,-131.5 123.5,-112.5 28.5,-112.5"/>
<text text-anchor="middle" x="76" y="-119.5" font-family="Helvetica,sans-Serif" font-size="10.00">itkTimeStamp.h</text>
</a>
</g>
</g>
<!-- Node4&#45;&gt;Node7 -->
<g id="edge6" class="edge">
<title>Node4&#45;&gt;Node7</title>
<path fill="none" stroke="midnightblue" d="M173.62,-168.44C154.78,-159.68 125.27,-145.94 103.62,-135.86"/>
<polygon fill="midnightblue" stroke="midnightblue" points="104.84,-132.56 94.29,-131.52 101.88,-138.91 104.84,-132.56"/>
</g>
<!-- Node10 -->
<g id="node10" class="node">
<title>Node10</title>
<g id="a_node10"><a xlink:href="https://www.itk.org/Doxygen/html/itkIndent_8h.html" xlink:title=" ">
<polygon fill="white" stroke="black" points="299.5,-112.5 299.5,-131.5 368.5,-131.5 368.5,-112.5 299.5,-112.5"/>
<text text-anchor="middle" x="334" y="-119.5" font-family="Helvetica,sans-Serif" font-size="10.00">itkIndent.h</text>
</a>
</g>
</g>
<!-- Node4&#45;&gt;Node10 -->
<g id="edge11" class="edge">
<title>Node4&#45;&gt;Node10</title>
<path fill="none" stroke="midnightblue" d="M214.5,-168.44C238.08,-159.48 275.32,-145.31 301.96,-135.18"/>
<polygon fill="midnightblue" stroke="midnightblue" points="303.5,-138.34 311.6,-131.52 301.01,-131.8 303.5,-138.34"/>
</g>
<!-- Node7&#45;&gt;Node5 -->
<g id="edge7" class="edge">
<title>Node7&#45;&gt;Node5</title>
<path fill="none" stroke="midnightblue" d="M88.79,-112.37C116.76,-93.49 183.6,-48.38 217.9,-25.24"/>
<polygon fill="midnightblue" stroke="midnightblue" points="219.94,-28.09 226.27,-19.59 216.02,-22.28 219.94,-28.09"/>
</g>
<!-- Node8 -->
<g id="node8" class="node">
<title>Node8</title>
<g id="a_node8"><a xlink:href="https://www.itk.org/Doxygen/html/itkIntTypes_8h.html" xlink:title=" ">
<polygon fill="white" stroke="black" points="36.5,-56.5 36.5,-75.5 115.5,-75.5 115.5,-56.5 36.5,-56.5"/>
<text text-anchor="middle" x="76" y="-63.5" font-family="Helvetica,sans-Serif" font-size="10.00">itkIntTypes.h</text>
</a>
</g>
</g>
<!-- Node7&#45;&gt;Node8 -->
<g id="edge8" class="edge">
<title>Node7&#45;&gt;Node8</title>
<path fill="none" stroke="midnightblue" d="M76,-112.08C76,-105.01 76,-94.86 76,-85.99"/>
<polygon fill="midnightblue" stroke="midnightblue" points="79.5,-85.75 76,-75.75 72.5,-85.75 79.5,-85.75"/>
</g>
<!-- Node7&#45;&gt;Node9 -->
<g id="edge10" class="edge">
<title>Node7&#45;&gt;Node9</title>
<path fill="none" stroke="midnightblue" d="M123.78,-113.21C182.07,-103.7 280.75,-87.6 344.88,-77.13"/>
<polygon fill="midnightblue" stroke="midnightblue" points="345.56,-80.57 354.87,-75.5 344.44,-73.66 345.56,-80.57"/>
</g>
<!-- Node8&#45;&gt;Node5 -->
<g id="edge9" class="edge">
<title>Node8&#45;&gt;Node5</title>
<path fill="none" stroke="midnightblue" d="M101.83,-56.44C129.25,-47.36 172.78,-32.94 203.43,-22.78"/>
<polygon fill="midnightblue" stroke="midnightblue" points="204.9,-25.98 213.29,-19.52 202.7,-19.34 204.9,-25.98"/>
</g>
<!-- Node10&#45;&gt;Node5 -->
<g id="edge12" class="edge">
<title>Node10&#45;&gt;Node5</title>
<path fill="none" stroke="midnightblue" d="M328.05,-112.27C319.2,-99.48 301.8,-75.1 285,-56 275.96,-45.72 265.04,-34.98 256.11,-26.56"/>
<polygon fill="midnightblue" stroke="midnightblue" points="258.29,-23.81 248.58,-19.57 253.53,-28.94 258.29,-23.81"/>
</g>
<!-- Node11&#45;&gt;Node10 -->
<g id="edge14" class="edge">
<title>Node11&#45;&gt;Node10</title>
<path fill="none" stroke="midnightblue" d="M330.31,-224.37C330.96,-206.62 332.45,-165.67 333.32,-141.6"/>
<polygon fill="midnightblue" stroke="midnightblue" points="336.82,-141.71 333.69,-131.59 329.83,-141.46 336.82,-141.71"/>
</g>
<!-- Node13 -->
<g id="node13" class="node">
<title>Node13</title>
<g id="a_node13"><a xlink:href="https://www.itk.org/Doxygen/html/itkMetaDataObjectBase_8h.html" xlink:title=" ">
<polygon fill="white" stroke="black" points="121,-224.5 121,-243.5 263,-243.5 263,-224.5 121,-224.5"/>
<text text-anchor="middle" x="192" y="-231.5" font-family="Helvetica,sans-Serif" font-size="10.00">itkMetaDataObjectBase.h</text>
</a>
</g>
</g>
<!-- Node12&#45;&gt;Node13 -->
<g id="edge16" class="edge">
<title>Node12&#45;&gt;Node13</title>
<path fill="none" stroke="midnightblue" d="M201.18,-280.08C199.73,-272.93 197.63,-262.64 195.81,-253.69"/>
<polygon fill="midnightblue" stroke="midnightblue" points="199.21,-252.85 193.78,-243.75 192.35,-254.25 199.21,-252.85"/>
</g>
<!-- Node13&#45;&gt;Node4 -->
<g id="edge17" class="edge">
<title>Node13&#45;&gt;Node4</title>
<path fill="none" stroke="midnightblue" d="M192,-224.08C192,-217.01 192,-206.86 192,-197.99"/>
<polygon fill="midnightblue" stroke="midnightblue" points="195.5,-197.75 192,-187.75 188.5,-197.75 195.5,-197.75"/>
</g>
<!-- Node15 -->
<g id="node15" class="node">
<title>Node15</title>
<g id="a_node15"><a xlink:href="https://www.itk.org/Doxygen/html/itkObjectFactoryBase_8h.html" xlink:title=" ">
<polygon fill="white" stroke="black" points="215.5,-448.5 215.5,-467.5 344.5,-467.5 344.5,-448.5 215.5,-448.5"/>
<text text-anchor="middle" x="280" y="-455.5" font-family="Helvetica,sans-Serif" font-size="10.00">itkObjectFactoryBase.h</text>
</a>
</g>
</g>
<!-- Node14&#45;&gt;Node15 -->
<g id="edge20" class="edge">
<title>Node14&#45;&gt;Node15</title>
<path fill="none" stroke="midnightblue" d="M255.79,-504.08C259.76,-496.69 265.53,-485.95 270.43,-476.81"/>
<polygon fill="midnightblue" stroke="midnightblue" points="273.65,-478.22 275.3,-467.75 267.49,-474.91 273.65,-478.22"/>
</g>
<!-- Node15&#45;&gt;Node9 -->
<g id="edge23" class="edge">
<title>Node15&#45;&gt;Node9</title>
<path fill="none" stroke="midnightblue" d="M321.21,-448.48C370.08,-435.69 445,-406.39 445,-347 445,-347 445,-347 445,-177 445,-142.81 428.4,-105.76 417.14,-84.57"/>
<polygon fill="midnightblue" stroke="midnightblue" points="420.18,-82.83 412.28,-75.77 414.05,-86.22 420.18,-82.83"/>
</g>
<!-- Node16 -->
<g id="node16" class="node">
<title>Node16</title>
<g id="a_node16"><a xlink:href="https://www.itk.org/Doxygen/html/itkCreateObjectFunction_8h.html" xlink:title=" ">
<polygon fill="white" stroke="black" points="231.5,-392.5 231.5,-411.5 374.5,-411.5 374.5,-392.5 231.5,-392.5"/>
<text text-anchor="middle" x="303" y="-399.5" font-family="Helvetica,sans-Serif" font-size="10.00">itkCreateObjectFunction.h</text>
</a>
</g>
</g>
<!-- Node15&#45;&gt;Node16 -->
<g id="edge21" class="edge">
<title>Node15&#45;&gt;Node16</title>
<path fill="none" stroke="midnightblue" d="M283.8,-448.08C286.91,-440.77 291.42,-430.18 295.29,-421.1"/>
<polygon fill="midnightblue" stroke="midnightblue" points="298.57,-422.32 299.27,-411.75 292.13,-419.58 298.57,-422.32"/>
</g>
<!-- Node17 -->
<g id="node17" class="node">
<title>Node17</title>
<g id="a_node17"><a xlink:href="https://www.itk.org/Doxygen/html/itkCommonEnums_8h.html" xlink:title=" ">
<polygon fill="white" stroke="black" points="31,-336.5 31,-355.5 147,-355.5 147,-336.5 31,-336.5"/>
<text text-anchor="middle" x="89" y="-343.5" font-family="Helvetica,sans-Serif" font-size="10.00">itkCommonEnums.h</text>
</a>
</g>
</g>
<!-- Node15&#45;&gt;Node17 -->
<g id="edge24" class="edge">
<title>Node15&#45;&gt;Node17</title>
<path fill="none" stroke="midnightblue" d="M265.01,-448.37C231.96,-429.33 152.58,-383.62 112.7,-360.65"/>
<polygon fill="midnightblue" stroke="midnightblue" points="114.33,-357.55 103.92,-355.59 110.84,-363.62 114.33,-357.55"/>
</g>
<!-- Node16&#45;&gt;Node3 -->
<g id="edge22" class="edge">
<title>Node16&#45;&gt;Node3</title>
<path fill="none" stroke="midnightblue" d="M296.06,-392.08C290.07,-384.38 281.25,-373.03 273.95,-363.65"/>
<polygon fill="midnightblue" stroke="midnightblue" points="276.71,-361.5 267.81,-355.75 271.18,-365.79 276.71,-361.5"/>
</g>
<!-- Node17&#45;&gt;Node8 -->
<g id="edge25" class="edge">
<title>Node17&#45;&gt;Node8</title>
<path fill="none" stroke="midnightblue" d="M74.7,-336.4C49.54,-320.06 0,-281.92 0,-235 0,-235 0,-235 0,-177 0,-146.9 2.17,-136.95 19,-112 27.4,-99.55 40.33,-88.94 51.75,-81.15"/>
<polygon fill="midnightblue" stroke="midnightblue" points="53.96,-83.89 60.47,-75.54 50.17,-78.01 53.96,-83.89"/>
</g>
</g>
</svg>
        <g id="navigator" transform="translate(0 0)" fill="#404254">
                <rect fill="#f2f5e9" fill-opacity="0.5" stroke="#606060" stroke-width=".5" x="0" y="0" width="60" height="60"/>
                <use id="zoomplus" xlink:href="#zoomPlus" x="17" y="9" onmousedown="handleZoom(evt,'in')"/>
                <use id="zoomminus" xlink:href="#zoomMin" x="42" y="9" onmousedown="handleZoom(evt,'out')"/>
                <use id="reset" xlink:href="#resetDef" x="30" y="36" onmousedown="handleReset()"/>
                <g id="arrowUp" xlink:href="#dirArrow" transform="translate(30 24)" onmousedown="handlePan(0,-1)">
                  <use xlink:href="#rim" fill="#404040">
                        <set attributeName="fill" to="#808080" begin="arrowUp.mouseover" end="arrowUp.mouseout"/>
                  </use>
                  <path fill="none" stroke="white" stroke-width="1.5" d="M0,-3.0v7 M-2.5,-0.5L0,-3.0L2.5,-0.5"/>
                </g>
                <g id="arrowRight" xlink:href="#dirArrow" transform="rotate(90) translate(36 -43)" onmousedown="handlePan(1,0)">
                  <use xlink:href="#rim" fill="#404040">
                        <set attributeName="fill" to="#808080" begin="arrowRight.mouseover" end="arrowRight.mouseout"/>
                  </use>
                  <path fill="none" stroke="white" stroke-width="1.5" d="M0,-3.0v7 M-2.5,-0.5L0,-3.0L2.5,-0.5"/>
                </g>
                <g id="arrowDown" xlink:href="#dirArrow" transform="rotate(180) translate(-30 -48)" onmousedown="handlePan(0,1)">
                  <use xlink:href="#rim" fill="#404040">
                        <set attributeName="fill" to="#808080" begin="arrowDown.mouseover" end="arrowDown.mouseout"/>
                  </use>
                  <path fill="none" stroke="white" stroke-width="1.5" d="M0,-3.0v7 M-2.5,-0.5L0,-3.0L2.5,-0.5"/>
                </g>
                <g id="arrowLeft" xlink:href="#dirArrow" transform="rotate(270) translate(-36 17)" onmousedown="handlePan(-1,0)">
                  <use xlink:href="#rim" fill="#404040">
                        <set attributeName="fill" to="#808080" begin="arrowLeft.mouseover" end="arrowLeft.mouseout"/>
                  </use>
                  <path fill="none" stroke="white" stroke-width="1.5" d="M0,-3.0v7 M-2.5,-0.5L0,-3.0L2.5,-0.5"/>
                </g>
        </g>
        <svg viewBox="0 0 15 15" width="100%" height="30px" preserveAspectRatio="xMaxYMin meet">
         <g id="arrow_out" transform="scale(0.3 0.3)">
          <a xlink:href="itkHolderCommand_8h__incl_org.svg" target="_base">
           <rect id="button" ry="5" rx="5" y="6" x="6" height="38" width="38"
                fill="#f2f5e9" fill-opacity="0.5" stroke="#606060" stroke-width="1.0"/>
           <path id="arrow"
             d="M 11.500037,31.436501 C 11.940474,20.09759 22.043105,11.32322 32.158766,21.979434 L 37.068811,17.246167 C 37.068811,17.246167 37.088388,32 37.088388,32 L 22.160133,31.978069 C 22.160133,31.978069 26.997745,27.140456 26.997745,27.140456 C 18.528582,18.264221 13.291696,25.230495 11.500037,31.436501 z"
             style="fill:#404040;"/>
          </a>
         </g>
        </svg>
</svg>
