<?xml version="1.0" encoding="UTF-8" standalone="no"?>
<!DOCTYPE svg PUBLIC "-//W3C//DTD SVG 1.1//EN"
 "http://www.w3.org/Graphics/SVG/1.1/DTD/svg11.dtd">
<!-- Generated by graphviz version 2.43.0 (0)
 -->
<!-- Title: sitkPatchBasedDenoisingImageFilter.h Pages: 1 -->
<svg width="537pt" height="162pt"
 viewBox="0.00 0.00 537.00 162.00" xmlns="http://www.w3.org/2000/svg" xmlns:xlink="http://www.w3.org/1999/xlink">
<g id="graph0" class="graph" transform="scale(1 1) rotate(0) translate(4 158)">
<title>sitkPatchBasedDenoisingImageFilter.h</title>
<polygon fill="white" stroke="transparent" points="-4,4 -4,-158 533,-158 533,4 -4,4"/>
<!-- Node1 -->
<g id="node1" class="node">
<title>Node1</title>
<g id="a_node1"><a xlink:title=" ">
<polygon fill="#bfbfbf" stroke="black" points="166.5,-123.5 166.5,-153.5 336.5,-153.5 336.5,-123.5 166.5,-123.5"/>
<text text-anchor="start" x="174.5" y="-141.5" font-family="Helvetica,sans-Serif" font-size="10.00">sitkPatchBasedDenoisingImage</text>
<text text-anchor="middle" x="251.5" y="-130.5" font-family="Helvetica,sans-Serif" font-size="10.00">Filter.h</text>
</a>
</g>
</g>
<!-- Node2 -->
<g id="node2" class="node">
<title>Node2</title>
<g id="a_node2"><a xlink:href="sitkAdditionalProcedures_8h.html" target="_top" xlink:title=" ">
<polygon fill="white" stroke="black" points="0,-62 0,-81 147,-81 147,-62 0,-62"/>
<text text-anchor="middle" x="73.5" y="-69" font-family="Helvetica,sans-Serif" font-size="10.00">sitkAdditionalProcedures.h</text>
</a>
</g>
</g>
<!-- Node1&#45;&gt;Node2 -->
<g id="edge1" class="edge">
<title>Node1&#45;&gt;Node2</title>
<path fill="none" stroke="midnightblue" d="M203.43,-119.95C168.86,-107.32 123.75,-90.85 96.8,-81.01"/>
<polygon fill="midnightblue" stroke="midnightblue" points="202.28,-123.25 212.88,-123.4 204.68,-116.68 202.28,-123.25"/>
</g>
<!-- Node4 -->
<g id="node4" class="node">
<title>Node4</title>
<g id="a_node4"><a xlink:href="CMakeTmp_2SimpleITKBasicFiltersGeneratedHeaders_8h.html" target="_top" xlink:title=" ">
<polygon fill="white" stroke="black" points="165,-56.5 165,-86.5 338,-86.5 338,-56.5 165,-56.5"/>
<text text-anchor="start" x="173" y="-74.5" font-family="Helvetica,sans-Serif" font-size="10.00">SimpleITKBasicFiltersGenerated</text>
<text text-anchor="middle" x="251.5" y="-63.5" font-family="Helvetica,sans-Serif" font-size="10.00">Headers.h</text>
</a>
</g>
</g>
<!-- Node1&#45;&gt;Node4 -->
<g id="edge3" class="edge">
<title>Node1&#45;&gt;Node4</title>
<path fill="none" stroke="midnightblue" d="M251.5,-113.11C251.5,-104.15 251.5,-94.32 251.5,-86.58"/>
<polygon fill="midnightblue" stroke="midnightblue" points="248,-113.4 251.5,-123.4 255,-113.4 248,-113.4"/>
</g>
<!-- Node5 -->
<g id="node5" class="node">
<title>Node5</title>
<g id="a_node5"><a xlink:href="include_2SimpleITKBasicFiltersGeneratedHeaders_8h.html" target="_top" xlink:title=" ">
<polygon fill="white" stroke="black" points="356,-56.5 356,-86.5 529,-86.5 529,-56.5 356,-56.5"/>
<text text-anchor="start" x="364" y="-74.5" font-family="Helvetica,sans-Serif" font-size="10.00">SimpleITKBasicFiltersGenerated</text>
<text text-anchor="middle" x="442.5" y="-63.5" font-family="Helvetica,sans-Serif" font-size="10.00">Headers.h</text>
</a>
</g>
</g>
<!-- Node1&#45;&gt;Node5 -->
<g id="edge4" class="edge">
<title>Node1&#45;&gt;Node5</title>
<path fill="none" stroke="midnightblue" d="M302.65,-120.09C333.49,-109.6 372.25,-96.41 401.14,-86.58"/>
<polygon fill="midnightblue" stroke="midnightblue" points="301.28,-116.86 292.94,-123.4 303.54,-123.49 301.28,-116.86"/>
</g>
<!-- Node3 -->
<g id="node3" class="node">
<title>Node3</title>
<g id="a_node3"><a xlink:href="SimpleITK_8h.html" target="_top" xlink:title=" ">
<polygon fill="white" stroke="black" points="220,-0.5 220,-19.5 295,-19.5 295,-0.5 220,-0.5"/>
<text text-anchor="middle" x="257.5" y="-7.5" font-family="Helvetica,sans-Serif" font-size="10.00">SimpleITK.h</text>
</a>
</g>
</g>
<!-- Node2&#45;&gt;Node3 -->
<g id="edge2" class="edge">
<title>Node2&#45;&gt;Node3</title>
<path fill="none" stroke="midnightblue" d="M109.43,-58.88C145.2,-47.32 199.24,-29.84 231.19,-19.51"/>
<polygon fill="midnightblue" stroke="midnightblue" points="108.3,-55.57 99.86,-61.98 110.45,-62.23 108.3,-55.57"/>
</g>
<!-- Node5&#45;&gt;Node3 -->
<g id="edge5" class="edge">
<title>Node5&#45;&gt;Node3</title>
<path fill="none" stroke="midnightblue" d="M388.77,-53.22C354.42,-42.17 311.38,-28.33 284.15,-19.57"/>
<polygon fill="midnightblue" stroke="midnightblue" points="388.07,-56.67 398.66,-56.4 390.21,-50.01 388.07,-56.67"/>
</g>
</g>
</svg>
