<?xml version="1.0" encoding="UTF-8" standalone="no"?>
<!DOCTYPE svg PUBLIC "-//W3C//DTD SVG 1.1//EN"
 "http://www.w3.org/Graphics/SVG/1.1/DTD/svg11.dtd">
<!-- Generated by graphviz version 2.43.0 (0)
 -->
<!-- Title: sitkExplicitITKImportImageContainer.h Pages: 1 -->
<svg width="880pt" height="655pt"
 viewBox="0.00 0.00 879.50 655.00" xmlns="http://www.w3.org/2000/svg" xmlns:xlink="http://www.w3.org/1999/xlink">
<g id="graph0" class="graph" transform="scale(1 1) rotate(0) translate(4 651)">
<title>sitkExplicitITKImportImageContainer.h</title>
<polygon fill="white" stroke="transparent" points="-4,4 -4,-651 875.5,-651 875.5,4 -4,4"/>
<!-- Node1 -->
<g id="node1" class="node">
<title>Node1</title>
<g id="a_node1"><a xlink:title=" ">
<polygon fill="#bfbfbf" stroke="black" points="323.5,-616.5 323.5,-646.5 472.5,-646.5 472.5,-616.5 323.5,-616.5"/>
<text text-anchor="start" x="331.5" y="-634.5" font-family="Helvetica,sans-Serif" font-size="10.00">sitkExplicitITKImportImage</text>
<text text-anchor="middle" x="398" y="-623.5" font-family="Helvetica,sans-Serif" font-size="10.00">Container.h</text>
</a>
</g>
</g>
<!-- Node2 -->
<g id="node2" class="node">
<title>Node2</title>
<g id="a_node2"><a xlink:href="sitkExplicit_8h.html" target="_top" xlink:title=" ">
<polygon fill="white" stroke="black" points="292,-560.5 292,-579.5 372,-579.5 372,-560.5 292,-560.5"/>
<text text-anchor="middle" x="332" y="-567.5" font-family="Helvetica,sans-Serif" font-size="10.00">sitkExplicit.h</text>
</a>
</g>
</g>
<!-- Node1&#45;&gt;Node2 -->
<g id="edge1" class="edge">
<title>Node1&#45;&gt;Node2</title>
<path fill="none" stroke="midnightblue" d="M382.36,-616.4C372.37,-607.4 359.42,-595.72 349.15,-586.47"/>
<polygon fill="midnightblue" stroke="midnightblue" points="351.37,-583.75 341.6,-579.66 346.69,-588.95 351.37,-583.75"/>
</g>
<!-- Node10 -->
<g id="node10" class="node">
<title>Node10</title>
<g id="a_node10"><a xlink:href="https://www.itk.org/Doxygen/html/itkImportImageContainer_8h.html" xlink:title=" ">
<polygon fill="white" stroke="black" points="451,-560.5 451,-579.5 599,-579.5 599,-560.5 451,-560.5"/>
<text text-anchor="middle" x="525" y="-567.5" font-family="Helvetica,sans-Serif" font-size="10.00">itkImportImageContainer.h</text>
</a>
</g>
</g>
<!-- Node1&#45;&gt;Node10 -->
<g id="edge9" class="edge">
<title>Node1&#45;&gt;Node10</title>
<path fill="none" stroke="midnightblue" d="M428.1,-616.4C449.12,-606.55 476.97,-593.5 497.42,-583.92"/>
<polygon fill="midnightblue" stroke="midnightblue" points="498.95,-587.07 506.52,-579.66 495.98,-580.73 498.95,-587.07"/>
</g>
<!-- Node3 -->
<g id="node3" class="node">
<title>Node3</title>
<g id="a_node3"><a xlink:href="sitkMacro_8h.html" target="_top" xlink:title=" ">
<polygon fill="white" stroke="black" points="233,-504.5 233,-523.5 307,-523.5 307,-504.5 233,-504.5"/>
<text text-anchor="middle" x="270" y="-511.5" font-family="Helvetica,sans-Serif" font-size="10.00">sitkMacro.h</text>
</a>
</g>
</g>
<!-- Node2&#45;&gt;Node3 -->
<g id="edge2" class="edge">
<title>Node2&#45;&gt;Node3</title>
<path fill="none" stroke="midnightblue" d="M322.04,-560.32C312.87,-552.34 299.06,-540.31 287.97,-530.65"/>
<polygon fill="midnightblue" stroke="midnightblue" points="289.98,-527.76 280.14,-523.83 285.38,-533.04 289.98,-527.76"/>
</g>
<!-- Node4 -->
<g id="node4" class="node">
<title>Node4</title>
<g id="a_node4"><a xlink:title=" ">
<polygon fill="white" stroke="#bfbfbf" points="170.5,-448.5 170.5,-467.5 223.5,-467.5 223.5,-448.5 170.5,-448.5"/>
<text text-anchor="middle" x="197" y="-455.5" font-family="Helvetica,sans-Serif" font-size="10.00">stdint.h</text>
</a>
</g>
</g>
<!-- Node3&#45;&gt;Node4 -->
<g id="edge3" class="edge">
<title>Node3&#45;&gt;Node4</title>
<path fill="none" stroke="midnightblue" d="M258.27,-504.32C247.16,-496.11 230.26,-483.6 217.02,-473.81"/>
<polygon fill="midnightblue" stroke="midnightblue" points="219.06,-470.97 208.94,-467.83 214.9,-476.59 219.06,-470.97"/>
</g>
<!-- Node5 -->
<g id="node5" class="node">
<title>Node5</title>
<g id="a_node5"><a xlink:title=" ">
<polygon fill="white" stroke="#bfbfbf" points="242,-448.5 242,-467.5 298,-467.5 298,-448.5 242,-448.5"/>
<text text-anchor="middle" x="270" y="-455.5" font-family="Helvetica,sans-Serif" font-size="10.00">stddef.h</text>
</a>
</g>
</g>
<!-- Node3&#45;&gt;Node5 -->
<g id="edge4" class="edge">
<title>Node3&#45;&gt;Node5</title>
<path fill="none" stroke="midnightblue" d="M270,-504.08C270,-497.01 270,-486.86 270,-477.99"/>
<polygon fill="midnightblue" stroke="midnightblue" points="273.5,-477.75 270,-467.75 266.5,-477.75 273.5,-477.75"/>
</g>
<!-- Node6 -->
<g id="node6" class="node">
<title>Node6</title>
<g id="a_node6"><a xlink:title=" ">
<polygon fill="white" stroke="#bfbfbf" points="316,-448.5 316,-467.5 368,-467.5 368,-448.5 316,-448.5"/>
<text text-anchor="middle" x="342" y="-455.5" font-family="Helvetica,sans-Serif" font-size="10.00">cassert</text>
</a>
</g>
</g>
<!-- Node3&#45;&gt;Node6 -->
<g id="edge5" class="edge">
<title>Node3&#45;&gt;Node6</title>
<path fill="none" stroke="midnightblue" d="M281.57,-504.32C292.42,-496.18 308.88,-483.84 321.88,-474.09"/>
<polygon fill="midnightblue" stroke="midnightblue" points="324.32,-476.63 330.22,-467.83 320.12,-471.03 324.32,-476.63"/>
</g>
<!-- Node7 -->
<g id="node7" class="node">
<title>Node7</title>
<g id="a_node7"><a xlink:title=" ">
<polygon fill="white" stroke="#bfbfbf" points="386,-448.5 386,-467.5 442,-467.5 442,-448.5 386,-448.5"/>
<text text-anchor="middle" x="414" y="-455.5" font-family="Helvetica,sans-Serif" font-size="10.00">sstream</text>
</a>
</g>
</g>
<!-- Node3&#45;&gt;Node7 -->
<g id="edge6" class="edge">
<title>Node3&#45;&gt;Node7</title>
<path fill="none" stroke="midnightblue" d="M292.82,-504.44C316.83,-495.44 354.83,-481.19 381.87,-471.05"/>
<polygon fill="midnightblue" stroke="midnightblue" points="383.16,-474.3 391.29,-467.52 380.7,-467.75 383.16,-474.3"/>
</g>
<!-- Node8 -->
<g id="node8" class="node">
<title>Node8</title>
<g id="a_node8"><a xlink:title=" ">
<polygon fill="white" stroke="#bfbfbf" points="0,-448.5 0,-467.5 44,-467.5 44,-448.5 0,-448.5"/>
<text text-anchor="middle" x="22" y="-455.5" font-family="Helvetica,sans-Serif" font-size="10.00">limits</text>
</a>
</g>
</g>
<!-- Node3&#45;&gt;Node8 -->
<g id="edge7" class="edge">
<title>Node3&#45;&gt;Node8</title>
<path fill="none" stroke="midnightblue" d="M232.94,-506.23C191.61,-498.48 122.59,-484.93 54.35,-468.19"/>
<polygon fill="midnightblue" stroke="midnightblue" points="54.84,-464.71 44.29,-465.7 53.16,-471.5 54.84,-464.71"/>
</g>
<!-- Node9 -->
<g id="node9" class="node">
<title>Node9</title>
<g id="a_node9"><a xlink:href="sitkConfigure_8h.html" target="_top" xlink:title=" ">
<polygon fill="white" stroke="black" points="62,-448.5 62,-467.5 152,-467.5 152,-448.5 62,-448.5"/>
<text text-anchor="middle" x="107" y="-455.5" font-family="Helvetica,sans-Serif" font-size="10.00">sitkConfigure.h</text>
</a>
</g>
</g>
<!-- Node3&#45;&gt;Node9 -->
<g id="edge8" class="edge">
<title>Node3&#45;&gt;Node9</title>
<path fill="none" stroke="midnightblue" d="M244.17,-504.44C216.75,-495.36 173.22,-480.94 142.57,-470.78"/>
<polygon fill="midnightblue" stroke="midnightblue" points="143.3,-467.34 132.71,-467.52 141.1,-473.98 143.3,-467.34"/>
</g>
<!-- Node11 -->
<g id="node11" class="node">
<title>Node11</title>
<g id="a_node11"><a xlink:href="https://www.itk.org/Doxygen/html/itkObject_8h.html" xlink:title=" ">
<polygon fill="white" stroke="black" points="607,-336.5 607,-355.5 677,-355.5 677,-336.5 607,-336.5"/>
<text text-anchor="middle" x="642" y="-343.5" font-family="Helvetica,sans-Serif" font-size="10.00">itkObject.h</text>
</a>
</g>
</g>
<!-- Node10&#45;&gt;Node11 -->
<g id="edge10" class="edge">
<title>Node10&#45;&gt;Node11</title>
<path fill="none" stroke="midnightblue" d="M539.78,-560.34C552.95,-552.14 572.23,-538.87 586,-524 625.88,-480.93 639.82,-468.43 656,-412 660.52,-396.24 655.72,-377.96 650.54,-364.81"/>
<polygon fill="midnightblue" stroke="midnightblue" points="653.69,-363.27 646.48,-355.5 647.27,-366.07 653.69,-363.27"/>
</g>
<!-- Node22 -->
<g id="node22" class="node">
<title>Node22</title>
<g id="a_node22"><a xlink:href="https://www.itk.org/Doxygen/html/itkObjectFactory_8h.html" xlink:title=" ">
<polygon fill="white" stroke="black" points="473,-504.5 473,-523.5 577,-523.5 577,-504.5 473,-504.5"/>
<text text-anchor="middle" x="525" y="-511.5" font-family="Helvetica,sans-Serif" font-size="10.00">itkObjectFactory.h</text>
</a>
</g>
</g>
<!-- Node10&#45;&gt;Node22 -->
<g id="edge27" class="edge">
<title>Node10&#45;&gt;Node22</title>
<path fill="none" stroke="midnightblue" d="M525,-560.08C525,-553.01 525,-542.86 525,-533.99"/>
<polygon fill="midnightblue" stroke="midnightblue" points="528.5,-533.75 525,-523.75 521.5,-533.75 528.5,-533.75"/>
</g>
<!-- Node12 -->
<g id="node12" class="node">
<title>Node12</title>
<g id="a_node12"><a xlink:href="https://www.itk.org/Doxygen/html/itkLightObject_8h.html" xlink:title=" ">
<polygon fill="white" stroke="black" points="644,-168.5 644,-187.5 738,-187.5 738,-168.5 644,-168.5"/>
<text text-anchor="middle" x="691" y="-175.5" font-family="Helvetica,sans-Serif" font-size="10.00">itkLightObject.h</text>
</a>
</g>
</g>
<!-- Node11&#45;&gt;Node12 -->
<g id="edge11" class="edge">
<title>Node11&#45;&gt;Node12</title>
<path fill="none" stroke="midnightblue" d="M662.99,-336.42C677.86,-329.12 696.74,-317.07 706,-300 723.92,-266.95 709.75,-221.51 699.4,-196.79"/>
<polygon fill="midnightblue" stroke="midnightblue" points="702.55,-195.27 695.3,-187.55 696.16,-198.11 702.55,-195.27"/>
</g>
<!-- Node17 -->
<g id="node17" class="node">
<title>Node17</title>
<g id="a_node17"><a xlink:href="https://www.itk.org/Doxygen/html/itkSingletonMacro_8h.html" xlink:title=" ">
<polygon fill="white" stroke="black" points="377,-56.5 377,-75.5 491,-75.5 491,-56.5 377,-56.5"/>
<text text-anchor="middle" x="434" y="-63.5" font-family="Helvetica,sans-Serif" font-size="10.00">itkSingletonMacro.h</text>
</a>
</g>
</g>
<!-- Node11&#45;&gt;Node17 -->
<g id="edge26" class="edge">
<title>Node11&#45;&gt;Node17</title>
<path fill="none" stroke="midnightblue" d="M612.86,-336.43C572.1,-322.45 503,-290.55 503,-235 503,-235 503,-235 503,-177 503,-138.39 472.12,-102.21 451.67,-82.49"/>
<polygon fill="midnightblue" stroke="midnightblue" points="453.89,-79.77 444.18,-75.54 449.13,-84.9 453.89,-79.77"/>
</g>
<!-- Node19 -->
<g id="node19" class="node">
<title>Node19</title>
<g id="a_node19"><a xlink:href="https://www.itk.org/Doxygen/html/itkEventObject_8h.html" xlink:title=" ">
<polygon fill="white" stroke="black" points="771,-224.5 771,-243.5 869,-243.5 869,-224.5 771,-224.5"/>
<text text-anchor="middle" x="820" y="-231.5" font-family="Helvetica,sans-Serif" font-size="10.00">itkEventObject.h</text>
</a>
</g>
</g>
<!-- Node11&#45;&gt;Node19 -->
<g id="edge21" class="edge">
<title>Node11&#45;&gt;Node19</title>
<path fill="none" stroke="midnightblue" d="M665.28,-336.43C685.91,-328.37 716.49,-315.28 741,-300 764.14,-285.57 787.95,-265.06 803.29,-250.96"/>
<polygon fill="midnightblue" stroke="midnightblue" points="805.97,-253.25 810.89,-243.87 801.19,-248.13 805.97,-253.25"/>
</g>
<!-- Node20 -->
<g id="node20" class="node">
<title>Node20</title>
<g id="a_node20"><a xlink:href="https://www.itk.org/Doxygen/html/itkMetaDataDictionary_8h.html" xlink:title=" ">
<polygon fill="white" stroke="black" points="561.5,-280.5 561.5,-299.5 696.5,-299.5 696.5,-280.5 561.5,-280.5"/>
<text text-anchor="middle" x="629" y="-287.5" font-family="Helvetica,sans-Serif" font-size="10.00">itkMetaDataDictionary.h</text>
</a>
</g>
</g>
<!-- Node11&#45;&gt;Node20 -->
<g id="edge23" class="edge">
<title>Node11&#45;&gt;Node20</title>
<path fill="none" stroke="midnightblue" d="M639.85,-336.08C638.13,-328.93 635.65,-318.64 633.5,-309.69"/>
<polygon fill="midnightblue" stroke="midnightblue" points="636.85,-308.65 631.11,-299.75 630.04,-310.29 636.85,-308.65"/>
</g>
<!-- Node13 -->
<g id="node13" class="node">
<title>Node13</title>
<g id="a_node13"><a xlink:href="https://www.itk.org/Doxygen/html/itkMacro_8h.html" xlink:title=" ">
<polygon fill="white" stroke="black" points="602,-0.5 602,-19.5 670,-19.5 670,-0.5 602,-0.5"/>
<text text-anchor="middle" x="636" y="-7.5" font-family="Helvetica,sans-Serif" font-size="10.00">itkMacro.h</text>
</a>
</g>
</g>
<!-- Node12&#45;&gt;Node13 -->
<g id="edge12" class="edge">
<title>Node12&#45;&gt;Node13</title>
<path fill="none" stroke="midnightblue" d="M687.86,-168.4C684.57,-159.36 679.31,-144.72 675,-132 662.71,-95.73 649.16,-53.04 641.71,-29.29"/>
<polygon fill="midnightblue" stroke="midnightblue" points="644.98,-28.04 638.66,-19.54 638.3,-30.13 644.98,-28.04"/>
</g>
<!-- Node14 -->
<g id="node14" class="node">
<title>Node14</title>
<g id="a_node14"><a xlink:href="https://www.itk.org/Doxygen/html/itkSmartPointer_8h.html" xlink:title=" ">
<polygon fill="white" stroke="black" points="683.5,-112.5 683.5,-131.5 784.5,-131.5 784.5,-112.5 683.5,-112.5"/>
<text text-anchor="middle" x="734" y="-119.5" font-family="Helvetica,sans-Serif" font-size="10.00">itkSmartPointer.h</text>
</a>
</g>
</g>
<!-- Node12&#45;&gt;Node14 -->
<g id="edge13" class="edge">
<title>Node12&#45;&gt;Node14</title>
<path fill="none" stroke="midnightblue" d="M698.1,-168.08C704.24,-160.38 713.27,-149.03 720.74,-139.65"/>
<polygon fill="midnightblue" stroke="midnightblue" points="723.54,-141.75 727.03,-131.75 718.06,-137.39 723.54,-141.75"/>
</g>
<!-- Node15 -->
<g id="node15" class="node">
<title>Node15</title>
<g id="a_node15"><a xlink:href="https://www.itk.org/Doxygen/html/itkTimeStamp_8h.html" xlink:title=" ">
<polygon fill="white" stroke="black" points="531.5,-112.5 531.5,-131.5 626.5,-131.5 626.5,-112.5 531.5,-112.5"/>
<text text-anchor="middle" x="579" y="-119.5" font-family="Helvetica,sans-Serif" font-size="10.00">itkTimeStamp.h</text>
</a>
</g>
</g>
<!-- Node12&#45;&gt;Node15 -->
<g id="edge14" class="edge">
<title>Node12&#45;&gt;Node15</title>
<path fill="none" stroke="midnightblue" d="M673.01,-168.32C654.96,-159.62 626.95,-146.12 606.2,-136.11"/>
<polygon fill="midnightblue" stroke="midnightblue" points="607.48,-132.84 596.95,-131.65 604.44,-139.15 607.48,-132.84"/>
</g>
<!-- Node18 -->
<g id="node18" class="node">
<title>Node18</title>
<g id="a_node18"><a xlink:href="https://www.itk.org/Doxygen/html/itkIndent_8h.html" xlink:title=" ">
<polygon fill="white" stroke="black" points="802.5,-112.5 802.5,-131.5 871.5,-131.5 871.5,-112.5 802.5,-112.5"/>
<text text-anchor="middle" x="837" y="-119.5" font-family="Helvetica,sans-Serif" font-size="10.00">itkIndent.h</text>
</a>
</g>
</g>
<!-- Node12&#45;&gt;Node18 -->
<g id="edge19" class="edge">
<title>Node12&#45;&gt;Node18</title>
<path fill="none" stroke="midnightblue" d="M714.13,-168.44C738.48,-159.44 777.01,-145.19 804.42,-135.05"/>
<polygon fill="midnightblue" stroke="midnightblue" points="805.81,-138.27 813.97,-131.52 803.38,-131.7 805.81,-138.27"/>
</g>
<!-- Node15&#45;&gt;Node13 -->
<g id="edge15" class="edge">
<title>Node15&#45;&gt;Node13</title>
<path fill="none" stroke="midnightblue" d="M583.47,-112.37C592.8,-94.38 614.47,-52.55 626.87,-28.63"/>
<polygon fill="midnightblue" stroke="midnightblue" points="630.05,-30.08 631.55,-19.59 623.84,-26.86 630.05,-30.08"/>
</g>
<!-- Node16 -->
<g id="node16" class="node">
<title>Node16</title>
<g id="a_node16"><a xlink:href="https://www.itk.org/Doxygen/html/itkIntTypes_8h.html" xlink:title=" ">
<polygon fill="white" stroke="black" points="509.5,-56.5 509.5,-75.5 588.5,-75.5 588.5,-56.5 509.5,-56.5"/>
<text text-anchor="middle" x="549" y="-63.5" font-family="Helvetica,sans-Serif" font-size="10.00">itkIntTypes.h</text>
</a>
</g>
</g>
<!-- Node15&#45;&gt;Node16 -->
<g id="edge16" class="edge">
<title>Node15&#45;&gt;Node16</title>
<path fill="none" stroke="midnightblue" d="M574.05,-112.08C569.9,-104.61 563.85,-93.72 558.73,-84.52"/>
<polygon fill="midnightblue" stroke="midnightblue" points="561.78,-82.79 553.86,-75.75 555.66,-86.19 561.78,-82.79"/>
</g>
<!-- Node15&#45;&gt;Node17 -->
<g id="edge18" class="edge">
<title>Node15&#45;&gt;Node17</title>
<path fill="none" stroke="midnightblue" d="M556.02,-112.44C531.84,-103.44 493.58,-89.19 466.35,-79.05"/>
<polygon fill="midnightblue" stroke="midnightblue" points="467.46,-75.73 456.87,-75.52 465.02,-82.29 467.46,-75.73"/>
</g>
<!-- Node16&#45;&gt;Node13 -->
<g id="edge17" class="edge">
<title>Node16&#45;&gt;Node13</title>
<path fill="none" stroke="midnightblue" d="M562.98,-56.32C576.55,-47.9 597.38,-34.97 613.32,-25.07"/>
<polygon fill="midnightblue" stroke="midnightblue" points="615.41,-27.9 622.06,-19.65 611.71,-21.95 615.41,-27.9"/>
</g>
<!-- Node18&#45;&gt;Node13 -->
<g id="edge20" class="edge">
<title>Node18&#45;&gt;Node13</title>
<path fill="none" stroke="midnightblue" d="M821.23,-112.37C786.37,-93.29 702.55,-47.42 660.68,-24.51"/>
<polygon fill="midnightblue" stroke="midnightblue" points="662.15,-21.32 651.7,-19.59 658.79,-27.46 662.15,-21.32"/>
</g>
<!-- Node19&#45;&gt;Node18 -->
<g id="edge22" class="edge">
<title>Node19&#45;&gt;Node18</title>
<path fill="none" stroke="midnightblue" d="M821.33,-224.37C824.08,-206.62 830.41,-165.67 834.13,-141.6"/>
<polygon fill="midnightblue" stroke="midnightblue" points="837.6,-142.01 835.67,-131.59 830.69,-140.94 837.6,-142.01"/>
</g>
<!-- Node21 -->
<g id="node21" class="node">
<title>Node21</title>
<g id="a_node21"><a xlink:href="https://www.itk.org/Doxygen/html/itkMetaDataObjectBase_8h.html" xlink:title=" ">
<polygon fill="white" stroke="black" points="557,-224.5 557,-243.5 699,-243.5 699,-224.5 557,-224.5"/>
<text text-anchor="middle" x="628" y="-231.5" font-family="Helvetica,sans-Serif" font-size="10.00">itkMetaDataObjectBase.h</text>
</a>
</g>
</g>
<!-- Node20&#45;&gt;Node21 -->
<g id="edge24" class="edge">
<title>Node20&#45;&gt;Node21</title>
<path fill="none" stroke="midnightblue" d="M628.83,-280.08C628.7,-273.01 628.52,-262.86 628.35,-253.99"/>
<polygon fill="midnightblue" stroke="midnightblue" points="631.85,-253.68 628.16,-243.75 624.85,-253.81 631.85,-253.68"/>
</g>
<!-- Node21&#45;&gt;Node12 -->
<g id="edge25" class="edge">
<title>Node21&#45;&gt;Node12</title>
<path fill="none" stroke="midnightblue" d="M638.12,-224.32C647.53,-216.26 661.74,-204.08 673.07,-194.37"/>
<polygon fill="midnightblue" stroke="midnightblue" points="675.38,-197 680.69,-187.83 670.82,-191.68 675.38,-197"/>
</g>
<!-- Node23 -->
<g id="node23" class="node">
<title>Node23</title>
<g id="a_node23"><a xlink:href="https://www.itk.org/Doxygen/html/itkObjectFactoryBase_8h.html" xlink:title=" ">
<polygon fill="white" stroke="black" points="460.5,-448.5 460.5,-467.5 589.5,-467.5 589.5,-448.5 460.5,-448.5"/>
<text text-anchor="middle" x="525" y="-455.5" font-family="Helvetica,sans-Serif" font-size="10.00">itkObjectFactoryBase.h</text>
</a>
</g>
</g>
<!-- Node22&#45;&gt;Node23 -->
<g id="edge28" class="edge">
<title>Node22&#45;&gt;Node23</title>
<path fill="none" stroke="midnightblue" d="M525,-504.08C525,-497.01 525,-486.86 525,-477.99"/>
<polygon fill="midnightblue" stroke="midnightblue" points="528.5,-477.75 525,-467.75 521.5,-477.75 528.5,-477.75"/>
</g>
<!-- Node23&#45;&gt;Node17 -->
<g id="edge31" class="edge">
<title>Node23&#45;&gt;Node17</title>
<path fill="none" stroke="midnightblue" d="M504.98,-448.44C472.76,-433.17 413,-397.97 413,-347 413,-347 413,-347 413,-177 413,-144.38 422.02,-107.28 428.23,-85.57"/>
<polygon fill="midnightblue" stroke="midnightblue" points="431.67,-86.32 431.17,-75.73 424.96,-84.32 431.67,-86.32"/>
</g>
<!-- Node24 -->
<g id="node24" class="node">
<title>Node24</title>
<g id="a_node24"><a xlink:href="https://www.itk.org/Doxygen/html/itkCreateObjectFunction_8h.html" xlink:title=" ">
<polygon fill="white" stroke="black" points="503.5,-392.5 503.5,-411.5 646.5,-411.5 646.5,-392.5 503.5,-392.5"/>
<text text-anchor="middle" x="575" y="-399.5" font-family="Helvetica,sans-Serif" font-size="10.00">itkCreateObjectFunction.h</text>
</a>
</g>
</g>
<!-- Node23&#45;&gt;Node24 -->
<g id="edge29" class="edge">
<title>Node23&#45;&gt;Node24</title>
<path fill="none" stroke="midnightblue" d="M533.26,-448.08C540.46,-440.3 551.11,-428.8 559.85,-419.37"/>
<polygon fill="midnightblue" stroke="midnightblue" points="562.67,-421.47 566.9,-411.75 557.53,-416.71 562.67,-421.47"/>
</g>
<!-- Node25 -->
<g id="node25" class="node">
<title>Node25</title>
<g id="a_node25"><a xlink:href="https://www.itk.org/Doxygen/html/itkCommonEnums_8h.html" xlink:title=" ">
<polygon fill="white" stroke="black" points="441,-336.5 441,-355.5 557,-355.5 557,-336.5 441,-336.5"/>
<text text-anchor="middle" x="499" y="-343.5" font-family="Helvetica,sans-Serif" font-size="10.00">itkCommonEnums.h</text>
</a>
</g>
</g>
<!-- Node23&#45;&gt;Node25 -->
<g id="edge32" class="edge">
<title>Node23&#45;&gt;Node25</title>
<path fill="none" stroke="midnightblue" d="M516.52,-448.23C508.95,-439.75 498.4,-426.13 494,-412 489.27,-396.8 491.25,-378.69 493.99,-365.45"/>
<polygon fill="midnightblue" stroke="midnightblue" points="497.41,-366.18 496.34,-355.64 490.6,-364.55 497.41,-366.18"/>
</g>
<!-- Node24&#45;&gt;Node11 -->
<g id="edge30" class="edge">
<title>Node24&#45;&gt;Node11</title>
<path fill="none" stroke="midnightblue" d="M585.76,-392.32C595.77,-384.26 610.89,-372.08 622.93,-362.37"/>
<polygon fill="midnightblue" stroke="midnightblue" points="625.45,-364.83 631.04,-355.83 621.06,-359.38 625.45,-364.83"/>
</g>
<!-- Node25&#45;&gt;Node16 -->
<g id="edge33" class="edge">
<title>Node25&#45;&gt;Node16</title>
<path fill="none" stroke="midnightblue" d="M494.41,-336.44C485.13,-318.29 465,-274.38 465,-235 465,-235 465,-235 465,-177 465,-135.73 502.81,-100.32 527.69,-81.49"/>
<polygon fill="midnightblue" stroke="midnightblue" points="529.85,-84.25 535.88,-75.54 525.73,-78.59 529.85,-84.25"/>
</g>
</g>
</svg>
