<?xml version="1.0" encoding="UTF-8" standalone="no"?>
<!DOCTYPE svg PUBLIC "-//W3C//DTD SVG 1.1//EN"
 "http://www.w3.org/Graphics/SVG/1.1/DTD/svg11.dtd">
<!-- Generated by graphviz version 2.43.0 (0)
 -->
<!-- Title: sitkProcessObject.h Pages: 1 -->
<svg width="7581pt" height="218pt"
 viewBox="0.00 0.00 7581.00 218.00" xmlns="http://www.w3.org/2000/svg" xmlns:xlink="http://www.w3.org/1999/xlink">
<g id="graph0" class="graph" transform="scale(1 1) rotate(0) translate(4 214)">
<title>sitkProcessObject.h</title>
<polygon fill="white" stroke="transparent" points="-4,4 -4,-214 7577,-214 7577,4 -4,4"/>
<!-- Node1 -->
<g id="node1" class="node">
<title>Node1</title>
<g id="a_node1"><a xlink:title=" ">
<polygon fill="#bfbfbf" stroke="black" points="6757.5,-190.5 6757.5,-209.5 6870.5,-209.5 6870.5,-190.5 6757.5,-190.5"/>
<text text-anchor="middle" x="6814" y="-197.5" font-family="Helvetica,sans-Serif" font-size="10.00">sitkProcessObject.h</text>
</a>
</g>
</g>
<!-- Node2 -->
<g id="node2" class="node">
<title>Node2</title>
<g id="a_node2"><a xlink:href="sitkImageFilter_8h.html" target="_top" xlink:title=" ">
<polygon fill="white" stroke="red" points="3067,-129 3067,-148 3165,-148 3165,-129 3067,-129"/>
<text text-anchor="middle" x="3116" y="-136" font-family="Helvetica,sans-Serif" font-size="10.00">sitkImageFilter.h</text>
</a>
</g>
</g>
<!-- Node1&#45;&gt;Node2 -->
<g id="edge1" class="edge">
<title>Node1&#45;&gt;Node2</title>
<path fill="none" stroke="midnightblue" d="M6747.21,-197.93C6284.71,-190.48 3565.12,-146.73 3165.12,-140.29"/>
<polygon fill="midnightblue" stroke="midnightblue" points="6747.34,-201.43 6757.39,-198.09 6747.45,-194.43 6747.34,-201.43"/>
</g>
<!-- Node4 -->
<g id="node4" class="node">
<title>Node4</title>
<g id="a_node4"><a xlink:href="SimpleITK_8h.html" target="_top" xlink:title=" ">
<polygon fill="white" stroke="black" points="6536.5,-0.5 6536.5,-19.5 6611.5,-19.5 6611.5,-0.5 6536.5,-0.5"/>
<text text-anchor="middle" x="6574" y="-7.5" font-family="Helvetica,sans-Serif" font-size="10.00">SimpleITK.h</text>
</a>
</g>
</g>
<!-- Node1&#45;&gt;Node4 -->
<g id="edge53" class="edge">
<title>Node1&#45;&gt;Node4</title>
<path fill="none" stroke="midnightblue" d="M6747.14,-197.05C6629.54,-192.93 6395.71,-181.35 6371,-154 6361.76,-143.78 6362.24,-133.64 6371,-123 6423.96,-58.67 6494.57,-144.38 6555,-87 6573.94,-69.02 6575.16,-35.26 6574.58,-19.5"/>
<polygon fill="midnightblue" stroke="midnightblue" points="6747.34,-200.56 6757.46,-197.4 6747.58,-193.56 6747.34,-200.56"/>
</g>
<!-- Node7 -->
<g id="node7" class="node">
<title>Node7</title>
<g id="a_node7"><a xlink:href="sitkHashImageFilter_8h.html" target="_top" xlink:title=" ">
<polygon fill="white" stroke="black" points="6422.5,-62 6422.5,-81 6545.5,-81 6545.5,-62 6422.5,-62"/>
<text text-anchor="middle" x="6484" y="-69" font-family="Helvetica,sans-Serif" font-size="10.00">sitkHashImageFilter.h</text>
</a>
</g>
</g>
<!-- Node1&#45;&gt;Node7 -->
<g id="edge52" class="edge">
<title>Node1&#45;&gt;Node7</title>
<path fill="none" stroke="midnightblue" d="M6747.07,-197.57C6622.25,-194.22 6364.06,-183.73 6337,-154 6327.73,-143.81 6329,-134.21 6337,-123 6349.54,-105.43 6403.83,-90.1 6442.78,-81.07"/>
<polygon fill="midnightblue" stroke="midnightblue" points="6747.19,-201.08 6757.28,-197.84 6747.37,-194.08 6747.19,-201.08"/>
</g>
<!-- Node304 -->
<g id="node43" class="node">
<title>Node304</title>
<g id="a_node43"><a xlink:href="sitkCenteredTransformInitializerFilter_8h.html" target="_top" xlink:title=" ">
<polygon fill="white" stroke="black" points="6379.5,-123.5 6379.5,-153.5 6552.5,-153.5 6552.5,-123.5 6379.5,-123.5"/>
<text text-anchor="start" x="6387.5" y="-141.5" font-family="Helvetica,sans-Serif" font-size="10.00">sitkCenteredTransformInitializer</text>
<text text-anchor="middle" x="6466" y="-130.5" font-family="Helvetica,sans-Serif" font-size="10.00">Filter.h</text>
</a>
</g>
</g>
<!-- Node1&#45;&gt;Node304 -->
<g id="edge48" class="edge">
<title>Node1&#45;&gt;Node304</title>
<path fill="none" stroke="midnightblue" d="M6754.22,-188.78C6697.34,-179.05 6611.29,-164.34 6548.02,-153.52"/>
<polygon fill="midnightblue" stroke="midnightblue" points="6753.69,-192.24 6764.14,-190.48 6754.87,-185.34 6753.69,-192.24"/>
</g>
<!-- Node305 -->
<g id="node44" class="node">
<title>Node305</title>
<g id="a_node44"><a xlink:href="sitkCenteredVersorTransformInitializerFilter_8h.html" target="_top" xlink:title=" ">
<polygon fill="white" stroke="black" points="6571,-123.5 6571,-153.5 6729,-153.5 6729,-123.5 6571,-123.5"/>
<text text-anchor="start" x="6579" y="-141.5" font-family="Helvetica,sans-Serif" font-size="10.00">sitkCenteredVersorTransform</text>
<text text-anchor="middle" x="6650" y="-130.5" font-family="Helvetica,sans-Serif" font-size="10.00">InitializerFilter.h</text>
</a>
</g>
</g>
<!-- Node1&#45;&gt;Node305 -->
<g id="edge50" class="edge">
<title>Node1&#45;&gt;Node305</title>
<path fill="none" stroke="midnightblue" d="M6780.86,-186.98C6754.19,-177.3 6716.68,-163.69 6688.65,-153.52"/>
<polygon fill="midnightblue" stroke="midnightblue" points="6779.91,-190.35 6790.5,-190.48 6782.3,-183.77 6779.91,-190.35"/>
</g>
<!-- Node306 -->
<g id="node45" class="node">
<title>Node306</title>
<g id="a_node45"><a xlink:href="sitkImageReaderBase_8h.html" target="_top" xlink:title=" ">
<polygon fill="white" stroke="red" points="6747.5,-129 6747.5,-148 6880.5,-148 6880.5,-129 6747.5,-129"/>
<text text-anchor="middle" x="6814" y="-136" font-family="Helvetica,sans-Serif" font-size="10.00">sitkImageReaderBase.h</text>
</a>
</g>
</g>
<!-- Node1&#45;&gt;Node306 -->
<g id="edge54" class="edge">
<title>Node1&#45;&gt;Node306</title>
<path fill="none" stroke="midnightblue" d="M6814,-180.32C6814,-169.5 6814,-156.4 6814,-148.01"/>
<polygon fill="midnightblue" stroke="midnightblue" points="6810.5,-180.48 6814,-190.48 6817.5,-180.48 6810.5,-180.48"/>
</g>
<!-- Node310 -->
<g id="node46" class="node">
<title>Node310</title>
<g id="a_node46"><a xlink:href="sitkImageFileWriter_8h.html" target="_top" xlink:title=" ">
<polygon fill="white" stroke="black" points="6898.5,-129 6898.5,-148 7019.5,-148 7019.5,-129 6898.5,-129"/>
<text text-anchor="middle" x="6959" y="-136" font-family="Helvetica,sans-Serif" font-size="10.00">sitkImageFileWriter.h</text>
</a>
</g>
</g>
<!-- Node1&#45;&gt;Node310 -->
<g id="edge55" class="edge">
<title>Node1&#45;&gt;Node310</title>
<path fill="none" stroke="midnightblue" d="M6844.14,-186.63C6872.31,-175.07 6913.62,-158.12 6938.26,-148.01"/>
<polygon fill="midnightblue" stroke="midnightblue" points="6842.7,-183.44 6834.77,-190.48 6845.36,-189.92 6842.7,-183.44"/>
</g>
<!-- Node311 -->
<g id="node47" class="node">
<title>Node311</title>
<g id="a_node47"><a xlink:href="sitkImageSeriesWriter_8h.html" target="_top" xlink:title=" ">
<polygon fill="white" stroke="black" points="7038,-129 7038,-148 7172,-148 7172,-129 7038,-129"/>
<text text-anchor="middle" x="7105" y="-136" font-family="Helvetica,sans-Serif" font-size="10.00">sitkImageSeriesWriter.h</text>
</a>
</g>
</g>
<!-- Node1&#45;&gt;Node311 -->
<g id="edge57" class="edge">
<title>Node1&#45;&gt;Node311</title>
<path fill="none" stroke="midnightblue" d="M6865.83,-188.4C6922.25,-176.87 7011.34,-158.65 7063.38,-148.01"/>
<polygon fill="midnightblue" stroke="midnightblue" points="6864.79,-185.04 6855.69,-190.48 6866.19,-191.9 6864.79,-185.04"/>
</g>
<!-- Node312 -->
<g id="node48" class="node">
<title>Node312</title>
<g id="a_node48"><a xlink:href="sitkImageViewer_8h.html" target="_top" xlink:title=" ">
<polygon fill="white" stroke="black" points="7190.5,-129 7190.5,-148 7297.5,-148 7297.5,-129 7190.5,-129"/>
<text text-anchor="middle" x="7244" y="-136" font-family="Helvetica,sans-Serif" font-size="10.00">sitkImageViewer.h</text>
</a>
</g>
</g>
<!-- Node1&#45;&gt;Node312 -->
<g id="edge59" class="edge">
<title>Node1&#45;&gt;Node312</title>
<path fill="none" stroke="midnightblue" d="M6880.62,-192.94C6954.39,-185.74 7076.69,-172.35 7181,-154 7190.4,-152.35 7200.5,-150.19 7209.8,-148.05"/>
<polygon fill="midnightblue" stroke="midnightblue" points="6880.16,-189.47 6870.54,-193.91 6880.83,-196.43 6880.16,-189.47"/>
</g>
<!-- Node313 -->
<g id="node49" class="node">
<title>Node313</title>
<g id="a_node49"><a xlink:href="sitkShow_8h.html" target="_top" xlink:title=" ">
<polygon fill="white" stroke="black" points="7315.5,-129 7315.5,-148 7384.5,-148 7384.5,-129 7315.5,-129"/>
<text text-anchor="middle" x="7350" y="-136" font-family="Helvetica,sans-Serif" font-size="10.00">sitkShow.h</text>
</a>
</g>
</g>
<!-- Node1&#45;&gt;Node313 -->
<g id="edge61" class="edge">
<title>Node1&#45;&gt;Node313</title>
<path fill="none" stroke="midnightblue" d="M6880.93,-197.84C6976.44,-195.07 7156.9,-185.7 7307,-154 7313.94,-152.53 7321.31,-150.31 7327.96,-148.04"/>
<polygon fill="midnightblue" stroke="midnightblue" points="6880.73,-194.34 6870.83,-198.12 6880.92,-201.34 6880.73,-194.34"/>
</g>
<!-- Node314 -->
<g id="node50" class="node">
<title>Node314</title>
<g id="a_node50"><a xlink:href="sitkImageRegistrationMethod_8h.html" target="_top" xlink:title=" ">
<polygon fill="white" stroke="black" points="7403,-129 7403,-148 7573,-148 7573,-129 7403,-129"/>
<text text-anchor="middle" x="7488" y="-136" font-family="Helvetica,sans-Serif" font-size="10.00">sitkImageRegistrationMethod.h</text>
</a>
</g>
</g>
<!-- Node1&#45;&gt;Node314 -->
<g id="edge63" class="edge">
<title>Node1&#45;&gt;Node314</title>
<path fill="none" stroke="midnightblue" d="M6880.63,-195.47C6988.65,-189.39 7208.61,-175.46 7394,-154 7408.11,-152.37 7423.34,-150.19 7437.36,-148.03"/>
<polygon fill="midnightblue" stroke="midnightblue" points="6880.32,-191.98 6870.53,-196.04 6880.71,-198.97 6880.32,-191.98"/>
</g>
<!-- Node3 -->
<g id="node3" class="node">
<title>Node3</title>
<g id="a_node3"><a xlink:href="sitkBSplineTransformInitializerFilter_8h.html" target="_top" xlink:title=" ">
<polygon fill="white" stroke="black" points="0,-56.5 0,-86.5 166,-86.5 166,-56.5 0,-56.5"/>
<text text-anchor="start" x="8" y="-74.5" font-family="Helvetica,sans-Serif" font-size="10.00">sitkBSplineTransformInitializer</text>
<text text-anchor="middle" x="83" y="-63.5" font-family="Helvetica,sans-Serif" font-size="10.00">Filter.h</text>
</a>
</g>
</g>
<!-- Node2&#45;&gt;Node3 -->
<g id="edge2" class="edge">
<title>Node2&#45;&gt;Node3</title>
<path fill="none" stroke="midnightblue" d="M3056.75,-137.54C2693.89,-137.64 768.13,-135.8 180,-87 175.5,-86.63 170.9,-86.18 166.25,-85.67"/>
<polygon fill="midnightblue" stroke="midnightblue" points="3056.78,-141.04 3066.78,-137.54 3056.77,-134.04 3056.78,-141.04"/>
</g>
<!-- Node2&#45;&gt;Node4 -->
<g id="edge14" class="edge">
<title>Node2&#45;&gt;Node4</title>
<path fill="none" stroke="midnightblue" d="M3056.75,-137.61C2648.29,-138.23 264.68,-139.59 213,-87 203.34,-77.17 203.29,-65.78 213,-56 242.72,-26.07 6015.06,-12.27 6536.43,-11.08"/>
<polygon fill="midnightblue" stroke="midnightblue" points="3056.87,-141.11 3066.87,-137.59 3056.86,-134.11 3056.87,-141.11"/>
</g>
<!-- Node5 -->
<g id="node5" class="node">
<title>Node5</title>
<g id="a_node5"><a xlink:href="sitkCastImageFilter_8h.html" target="_top" xlink:title=" ">
<polygon fill="white" stroke="black" points="222,-62 222,-81 342,-81 342,-62 222,-62"/>
<text text-anchor="middle" x="282" y="-69" font-family="Helvetica,sans-Serif" font-size="10.00">sitkCastImageFilter.h</text>
</a>
</g>
</g>
<!-- Node2&#45;&gt;Node5 -->
<g id="edge4" class="edge">
<title>Node2&#45;&gt;Node5</title>
<path fill="none" stroke="midnightblue" d="M3056.84,-137.09C2680.57,-134.4 628.16,-118.37 351,-87 339.57,-85.71 327.23,-83.41 316.19,-81.02"/>
<polygon fill="midnightblue" stroke="midnightblue" points="3056.94,-140.59 3066.96,-137.16 3056.99,-133.59 3056.94,-140.59"/>
</g>
<!-- Node6 -->
<g id="node6" class="node">
<title>Node6</title>
<g id="a_node6"><a xlink:href="sitkExtractImageFilter_8h.html" target="_top" xlink:title=" ">
<polygon fill="white" stroke="black" points="360.5,-62 360.5,-81 493.5,-81 493.5,-62 360.5,-62"/>
<text text-anchor="middle" x="427" y="-69" font-family="Helvetica,sans-Serif" font-size="10.00">sitkExtractImageFilter.h</text>
</a>
</g>
</g>
<!-- Node2&#45;&gt;Node6 -->
<g id="edge6" class="edge">
<title>Node2&#45;&gt;Node6</title>
<path fill="none" stroke="midnightblue" d="M3056.91,-137.72C2718.4,-138.76 1022.1,-141.14 503,-87 490.58,-85.7 477.15,-83.44 465.09,-81.07"/>
<polygon fill="midnightblue" stroke="midnightblue" points="3057.01,-141.22 3067,-137.69 3056.98,-134.22 3057.01,-141.22"/>
</g>
<!-- Node2&#45;&gt;Node7 -->
<g id="edge8" class="edge">
<title>Node2&#45;&gt;Node7</title>
<path fill="none" stroke="midnightblue" d="M3175.28,-137.27C3592.5,-135.54 6080.44,-123.77 6414,-87 6425.6,-85.72 6438.11,-83.43 6449.31,-81.04"/>
<polygon fill="midnightblue" stroke="midnightblue" points="3175.23,-133.77 3165.24,-137.31 3175.26,-140.77 3175.23,-133.77"/>
</g>
<!-- Node8 -->
<g id="node8" class="node">
<title>Node8</title>
<g id="a_node8"><a xlink:href="sitkLandmarkBasedTransformInitializerFilter_8h.html" target="_top" xlink:title=" ">
<polygon fill="white" stroke="black" points="512,-56.5 512,-86.5 674,-86.5 674,-56.5 512,-56.5"/>
<text text-anchor="start" x="520" y="-74.5" font-family="Helvetica,sans-Serif" font-size="10.00">sitkLandmarkBasedTransform</text>
<text text-anchor="middle" x="593" y="-63.5" font-family="Helvetica,sans-Serif" font-size="10.00">InitializerFilter.h</text>
</a>
</g>
</g>
<!-- Node2&#45;&gt;Node8 -->
<g id="edge10" class="edge">
<title>Node2&#45;&gt;Node8</title>
<path fill="none" stroke="midnightblue" d="M3056.65,-137.39C2731.66,-136.61 1164.81,-130.6 683,-87 680.16,-86.74 677.28,-86.45 674.37,-86.13"/>
<polygon fill="midnightblue" stroke="midnightblue" points="3056.79,-140.89 3066.8,-137.41 3056.8,-133.89 3056.79,-140.89"/>
</g>
<!-- Node9 -->
<g id="node9" class="node">
<title>Node9</title>
<g id="a_node9"><a xlink:href="sitkPasteImageFilter_8h.html" target="_top" xlink:title=" ">
<polygon fill="white" stroke="black" points="692.5,-62 692.5,-81 817.5,-81 817.5,-62 692.5,-62"/>
<text text-anchor="middle" x="755" y="-69" font-family="Helvetica,sans-Serif" font-size="10.00">sitkPasteImageFilter.h</text>
</a>
</g>
</g>
<!-- Node2&#45;&gt;Node9 -->
<g id="edge12" class="edge">
<title>Node2&#45;&gt;Node9</title>
<path fill="none" stroke="midnightblue" d="M3056.66,-137.61C2743.22,-137.98 1277.7,-136.96 827,-87 815.21,-85.69 802.49,-83.42 791.06,-81.06"/>
<polygon fill="midnightblue" stroke="midnightblue" points="3056.9,-141.11 3066.89,-137.6 3056.89,-134.11 3056.9,-141.11"/>
</g>
<!-- Node10 -->
<g id="node10" class="node">
<title>Node10</title>
<g id="a_node10"><a xlink:href="sitkAbsImageFilter_8h.html" target="_top" xlink:title=" ">
<polygon fill="white" stroke="red" points="836,-62 836,-81 952,-81 952,-62 836,-62"/>
<text text-anchor="middle" x="894" y="-69" font-family="Helvetica,sans-Serif" font-size="10.00">sitkAbsImageFilter.h</text>
</a>
</g>
</g>
<!-- Node2&#45;&gt;Node10 -->
<g id="edge15" class="edge">
<title>Node2&#45;&gt;Node10</title>
<path fill="none" stroke="midnightblue" d="M3056.27,-137.63C2753.16,-138.06 1383.13,-137.16 961,-87 950.01,-85.69 938.16,-83.42 927.53,-81.06"/>
<polygon fill="midnightblue" stroke="midnightblue" points="3056.6,-141.13 3066.6,-137.62 3056.59,-134.13 3056.6,-141.13"/>
</g>
<!-- Node13 -->
<g id="node11" class="node">
<title>Node13</title>
<g id="a_node11"><a xlink:href="sitkAbsoluteValueDifferenceImageFilter_8h.html" target="_top" xlink:title=" ">
<polygon fill="white" stroke="red" points="970.5,-56.5 970.5,-86.5 1125.5,-86.5 1125.5,-56.5 970.5,-56.5"/>
<text text-anchor="start" x="978.5" y="-74.5" font-family="Helvetica,sans-Serif" font-size="10.00">sitkAbsoluteValueDifference</text>
<text text-anchor="middle" x="1048" y="-63.5" font-family="Helvetica,sans-Serif" font-size="10.00">ImageFilter.h</text>
</a>
</g>
</g>
<!-- Node2&#45;&gt;Node13 -->
<g id="edge16" class="edge">
<title>Node2&#45;&gt;Node13</title>
<path fill="none" stroke="midnightblue" d="M3056.54,-137.11C2769.14,-135.03 1521.92,-123.99 1135,-87 1131.95,-86.71 1128.85,-86.37 1125.72,-86.01"/>
<polygon fill="midnightblue" stroke="midnightblue" points="3056.73,-140.61 3066.76,-137.18 3056.78,-133.61 3056.73,-140.61"/>
</g>
<!-- Node14 -->
<g id="node12" class="node">
<title>Node14</title>
<g id="a_node12"><a xlink:href="sitkAcosImageFilter_8h.html" target="_top" xlink:title=" ">
<polygon fill="white" stroke="red" points="1144,-62 1144,-81 1266,-81 1266,-62 1144,-62"/>
<text text-anchor="middle" x="1205" y="-69" font-family="Helvetica,sans-Serif" font-size="10.00">sitkAcosImageFilter.h</text>
</a>
</g>
</g>
<!-- Node2&#45;&gt;Node14 -->
<g id="edge17" class="edge">
<title>Node2&#45;&gt;Node14</title>
<path fill="none" stroke="midnightblue" d="M3056.75,-137.28C2782.21,-136.07 1632.07,-128.55 1275,-87 1263.54,-85.67 1251.16,-83.39 1240.05,-81.03"/>
<polygon fill="midnightblue" stroke="midnightblue" points="3056.89,-140.78 3066.9,-137.33 3056.92,-133.79 3056.89,-140.78"/>
</g>
<!-- Node15 -->
<g id="node13" class="node">
<title>Node15</title>
<g id="a_node13"><a xlink:href="sitkAdaptiveHistogramEqualizationImageFilter_8h.html" target="_top" xlink:title=" ">
<polygon fill="white" stroke="red" points="1284.5,-56.5 1284.5,-86.5 1473.5,-86.5 1473.5,-56.5 1284.5,-56.5"/>
<text text-anchor="start" x="1292.5" y="-74.5" font-family="Helvetica,sans-Serif" font-size="10.00">sitkAdaptiveHistogramEqualization</text>
<text text-anchor="middle" x="1379" y="-63.5" font-family="Helvetica,sans-Serif" font-size="10.00">ImageFilter.h</text>
</a>
</g>
</g>
<!-- Node2&#45;&gt;Node15 -->
<g id="edge18" class="edge">
<title>Node2&#45;&gt;Node15</title>
<path fill="none" stroke="midnightblue" d="M3056.72,-138C2843.51,-139.29 2095.84,-139.53 1482,-87 1479.21,-86.76 1476.38,-86.5 1473.53,-86.22"/>
<polygon fill="midnightblue" stroke="midnightblue" points="3056.78,-141.5 3066.76,-137.93 3056.74,-134.5 3056.78,-141.5"/>
</g>
<!-- Node16 -->
<g id="node14" class="node">
<title>Node16</title>
<g id="a_node14"><a xlink:href="sitkAddImageFilter_8h.html" target="_top" xlink:title=" ">
<polygon fill="white" stroke="red" points="1491.5,-62 1491.5,-81 1608.5,-81 1608.5,-62 1491.5,-62"/>
<text text-anchor="middle" x="1550" y="-69" font-family="Helvetica,sans-Serif" font-size="10.00">sitkAddImageFilter.h</text>
</a>
</g>
</g>
<!-- Node2&#45;&gt;Node16 -->
<g id="edge19" class="edge">
<title>Node2&#45;&gt;Node16</title>
<path fill="none" stroke="midnightblue" d="M3056.36,-136.89C2814.17,-134.22 1903.68,-122 1618,-87 1606.98,-85.65 1595.09,-83.4 1584.39,-81.07"/>
<polygon fill="midnightblue" stroke="midnightblue" points="3056.67,-140.4 3066.71,-137.01 3056.75,-133.4 3056.67,-140.4"/>
</g>
<!-- Node18 -->
<g id="node15" class="node">
<title>Node18</title>
<g id="a_node15"><a xlink:href="sitkAdditiveGaussianNoiseImageFilter_8h.html" target="_top" xlink:title=" ">
<polygon fill="white" stroke="red" points="1627,-56.5 1627,-86.5 1775,-86.5 1775,-56.5 1627,-56.5"/>
<text text-anchor="start" x="1635" y="-74.5" font-family="Helvetica,sans-Serif" font-size="10.00">sitkAdditiveGaussianNoise</text>
<text text-anchor="middle" x="1701" y="-63.5" font-family="Helvetica,sans-Serif" font-size="10.00">ImageFilter.h</text>
</a>
</g>
</g>
<!-- Node2&#45;&gt;Node18 -->
<g id="edge20" class="edge">
<title>Node2&#45;&gt;Node18</title>
<path fill="none" stroke="midnightblue" d="M3056.66,-138.1C2869.26,-139.38 2273.55,-138.8 1784,-87 1781.09,-86.69 1778.13,-86.34 1775.14,-85.96"/>
<polygon fill="midnightblue" stroke="midnightblue" points="3056.87,-141.6 3066.84,-138.02 3056.82,-134.6 3056.87,-141.6"/>
</g>
<!-- Node19 -->
<g id="node16" class="node">
<title>Node19</title>
<g id="a_node16"><a xlink:href="sitkAggregateLabelMapFilter_8h.html" target="_top" xlink:title=" ">
<polygon fill="white" stroke="red" points="1793.5,-62 1793.5,-81 1958.5,-81 1958.5,-62 1793.5,-62"/>
<text text-anchor="middle" x="1876" y="-69" font-family="Helvetica,sans-Serif" font-size="10.00">sitkAggregateLabelMapFilter.h</text>
</a>
</g>
</g>
<!-- Node2&#45;&gt;Node19 -->
<g id="edge21" class="edge">
<title>Node2&#45;&gt;Node19</title>
<path fill="none" stroke="midnightblue" d="M3056.61,-137.28C2886.46,-136.12 2382.67,-129.11 1967,-87 1952.68,-85.55 1937.18,-83.33 1923.1,-81.05"/>
<polygon fill="midnightblue" stroke="midnightblue" points="3056.84,-140.78 3066.86,-137.34 3056.88,-133.78 3056.84,-140.78"/>
</g>
<!-- Node20 -->
<g id="node17" class="node">
<title>Node20</title>
<g id="a_node17"><a xlink:href="sitkAndImageFilter_8h.html" target="_top" xlink:title=" ">
<polygon fill="white" stroke="red" points="1976.5,-62 1976.5,-81 2093.5,-81 2093.5,-62 1976.5,-62"/>
<text text-anchor="middle" x="2035" y="-69" font-family="Helvetica,sans-Serif" font-size="10.00">sitkAndImageFilter.h</text>
</a>
</g>
</g>
<!-- Node2&#45;&gt;Node20 -->
<g id="edge22" class="edge">
<title>Node2&#45;&gt;Node20</title>
<path fill="none" stroke="midnightblue" d="M3056.64,-137.85C2900.03,-138.07 2462.92,-134.04 2103,-87 2092.11,-85.58 2080.37,-83.33 2069.76,-81.03"/>
<polygon fill="midnightblue" stroke="midnightblue" points="3057,-141.35 3066.99,-137.83 3056.98,-134.35 3057,-141.35"/>
</g>
<!-- Node21 -->
<g id="node18" class="node">
<title>Node21</title>
<g id="a_node18"><a xlink:href="sitkAntiAliasBinaryImageFilter_8h.html" target="_top" xlink:title=" ">
<polygon fill="white" stroke="red" points="2112,-56.5 2112,-86.5 2252,-86.5 2252,-56.5 2112,-56.5"/>
<text text-anchor="start" x="2120" y="-74.5" font-family="Helvetica,sans-Serif" font-size="10.00">sitkAntiAliasBinaryImage</text>
<text text-anchor="middle" x="2182" y="-63.5" font-family="Helvetica,sans-Serif" font-size="10.00">Filter.h</text>
</a>
</g>
</g>
<!-- Node2&#45;&gt;Node21 -->
<g id="edge23" class="edge">
<title>Node2&#45;&gt;Node21</title>
<path fill="none" stroke="midnightblue" d="M3056.61,-136.49C2917.21,-133.59 2558.4,-122.94 2261,-87 2258.09,-86.65 2255.13,-86.26 2252.14,-85.84"/>
<polygon fill="midnightblue" stroke="midnightblue" points="3056.59,-139.99 3066.65,-136.7 3056.73,-133 3056.59,-139.99"/>
</g>
<!-- Node22 -->
<g id="node19" class="node">
<title>Node22</title>
<g id="a_node19"><a xlink:href="sitkApproximateSignedDistanceMapImageFilter_8h.html" target="_top" xlink:title=" ">
<polygon fill="white" stroke="red" points="2270.5,-56.5 2270.5,-86.5 2443.5,-86.5 2443.5,-56.5 2270.5,-56.5"/>
<text text-anchor="start" x="2278.5" y="-74.5" font-family="Helvetica,sans-Serif" font-size="10.00">sitkApproximateSignedDistance</text>
<text text-anchor="middle" x="2357" y="-63.5" font-family="Helvetica,sans-Serif" font-size="10.00">MapImageFilter.h</text>
</a>
</g>
</g>
<!-- Node2&#45;&gt;Node22 -->
<g id="edge24" class="edge">
<title>Node2&#45;&gt;Node22</title>
<path fill="none" stroke="midnightblue" d="M3056.62,-134.49C2940.31,-128.27 2674.44,-112.4 2452,-87 2449.26,-86.69 2446.49,-86.36 2443.69,-86.01"/>
<polygon fill="midnightblue" stroke="midnightblue" points="3056.56,-137.99 3066.73,-135.03 3056.93,-131 3056.56,-137.99"/>
</g>
<!-- Node23 -->
<g id="node20" class="node">
<title>Node23</title>
<g id="a_node20"><a xlink:href="sitkAsinImageFilter_8h.html" target="_top" xlink:title=" ">
<polygon fill="white" stroke="red" points="2461.5,-62 2461.5,-81 2580.5,-81 2580.5,-62 2461.5,-62"/>
<text text-anchor="middle" x="2521" y="-69" font-family="Helvetica,sans-Serif" font-size="10.00">sitkAsinImageFilter.h</text>
</a>
</g>
</g>
<!-- Node2&#45;&gt;Node23 -->
<g id="edge25" class="edge">
<title>Node2&#45;&gt;Node23</title>
<path fill="none" stroke="midnightblue" d="M3056.73,-134.04C2958.91,-127.84 2757.67,-112.98 2589,-87 2578.62,-85.4 2567.44,-83.21 2557.21,-81.02"/>
<polygon fill="midnightblue" stroke="midnightblue" points="3056.53,-137.54 3066.72,-134.67 3056.96,-130.55 3056.53,-137.54"/>
</g>
<!-- Node24 -->
<g id="node21" class="node">
<title>Node24</title>
<g id="a_node21"><a xlink:href="sitkAtan2ImageFilter_8h.html" target="_top" xlink:title=" ">
<polygon fill="white" stroke="red" points="2598.5,-62 2598.5,-81 2725.5,-81 2725.5,-62 2598.5,-62"/>
<text text-anchor="middle" x="2662" y="-69" font-family="Helvetica,sans-Serif" font-size="10.00">sitkAtan2ImageFilter.h</text>
</a>
</g>
</g>
<!-- Node2&#45;&gt;Node24 -->
<g id="edge26" class="edge">
<title>Node2&#45;&gt;Node24</title>
<path fill="none" stroke="midnightblue" d="M3056.78,-130.92C2981.53,-122.28 2847.76,-105.95 2734,-87 2723.56,-85.26 2712.32,-83.13 2701.9,-81.03"/>
<polygon fill="midnightblue" stroke="midnightblue" points="3056.67,-134.43 3067,-132.09 3057.46,-127.48 3056.67,-134.43"/>
</g>
<!-- Node25 -->
<g id="node22" class="node">
<title>Node25</title>
<g id="a_node22"><a xlink:href="sitkAtanImageFilter_8h.html" target="_top" xlink:title=" ">
<polygon fill="white" stroke="red" points="2743.5,-62 2743.5,-81 2864.5,-81 2864.5,-62 2743.5,-62"/>
<text text-anchor="middle" x="2804" y="-69" font-family="Helvetica,sans-Serif" font-size="10.00">sitkAtanImageFilter.h</text>
</a>
</g>
</g>
<!-- Node2&#45;&gt;Node25 -->
<g id="edge27" class="edge">
<title>Node2&#45;&gt;Node25</title>
<path fill="none" stroke="midnightblue" d="M3064.65,-126.86C3015.46,-116.67 2939.15,-100.82 2873,-87 2863.77,-85.07 2853.86,-82.99 2844.5,-81.03"/>
<polygon fill="midnightblue" stroke="midnightblue" points="3064.22,-130.35 3074.72,-128.95 3065.64,-123.49 3064.22,-130.35"/>
</g>
<!-- Node26 -->
<g id="node23" class="node">
<title>Node26</title>
<g id="a_node23"><a xlink:href="sitkBSplineDecompositionImageFilter_8h.html" target="_top" xlink:title=" ">
<polygon fill="white" stroke="red" points="2882.5,-56.5 2882.5,-86.5 3027.5,-86.5 3027.5,-56.5 2882.5,-56.5"/>
<text text-anchor="start" x="2890.5" y="-74.5" font-family="Helvetica,sans-Serif" font-size="10.00">sitkBSplineDecomposition</text>
<text text-anchor="middle" x="2955" y="-63.5" font-family="Helvetica,sans-Serif" font-size="10.00">ImageFilter.h</text>
</a>
</g>
</g>
<!-- Node2&#45;&gt;Node26 -->
<g id="edge28" class="edge">
<title>Node2&#45;&gt;Node26</title>
<path fill="none" stroke="midnightblue" d="M3085.18,-125.06C3057.91,-114.05 3018.14,-97.99 2989.75,-86.53"/>
<polygon fill="midnightblue" stroke="midnightblue" points="3084.04,-128.37 3094.62,-128.87 3086.66,-121.88 3084.04,-128.37"/>
</g>
<!-- Node27 -->
<g id="node24" class="node">
<title>Node27</title>
<g id="a_node24"><a xlink:href="sitkBilateralImageFilter_8h.html" target="_top" xlink:title=" ">
<polygon fill="white" stroke="red" points="3046,-62 3046,-81 3186,-81 3186,-62 3046,-62"/>
<text text-anchor="middle" x="3116" y="-69" font-family="Helvetica,sans-Serif" font-size="10.00">sitkBilateralImageFilter.h</text>
</a>
</g>
</g>
<!-- Node2&#45;&gt;Node27 -->
<g id="edge29" class="edge">
<title>Node2&#45;&gt;Node27</title>
<path fill="none" stroke="midnightblue" d="M3116,-118.54C3116,-106.17 3116,-90.62 3116,-81.13"/>
<polygon fill="midnightblue" stroke="midnightblue" points="3112.5,-118.73 3116,-128.73 3119.5,-118.73 3112.5,-118.73"/>
</g>
<!-- Node28 -->
<g id="node25" class="node">
<title>Node28</title>
<g id="a_node25"><a xlink:href="sitkBinShrinkImageFilter_8h.html" target="_top" xlink:title=" ">
<polygon fill="white" stroke="red" points="3204.5,-62 3204.5,-81 3349.5,-81 3349.5,-62 3204.5,-62"/>
<text text-anchor="middle" x="3277" y="-69" font-family="Helvetica,sans-Serif" font-size="10.00">sitkBinShrinkImageFilter.h</text>
</a>
</g>
</g>
<!-- Node2&#45;&gt;Node28 -->
<g id="edge30" class="edge">
<title>Node2&#45;&gt;Node28</title>
<path fill="none" stroke="midnightblue" d="M3146.7,-125.1C3178.67,-112.2 3227.89,-92.33 3255.79,-81.06"/>
<polygon fill="midnightblue" stroke="midnightblue" points="3145.34,-121.88 3137.38,-128.87 3147.96,-128.37 3145.34,-121.88"/>
</g>
<!-- Node29 -->
<g id="node26" class="node">
<title>Node29</title>
<g id="a_node26"><a xlink:href="sitkBinaryClosingByReconstructionImageFilter_8h.html" target="_top" xlink:title=" ">
<polygon fill="white" stroke="red" points="3368,-56.5 3368,-86.5 3556,-86.5 3556,-56.5 3368,-56.5"/>
<text text-anchor="start" x="3376" y="-74.5" font-family="Helvetica,sans-Serif" font-size="10.00">sitkBinaryClosingByReconstruction</text>
<text text-anchor="middle" x="3462" y="-63.5" font-family="Helvetica,sans-Serif" font-size="10.00">ImageFilter.h</text>
</a>
</g>
</g>
<!-- Node2&#45;&gt;Node29 -->
<g id="edge31" class="edge">
<title>Node2&#45;&gt;Node29</title>
<path fill="none" stroke="midnightblue" d="M3171.74,-127.03C3230.2,-116.05 3322.4,-98.73 3387.16,-86.56"/>
<polygon fill="midnightblue" stroke="midnightblue" points="3170.77,-123.65 3161.59,-128.94 3172.06,-130.53 3170.77,-123.65"/>
</g>
<!-- Node30 -->
<g id="node27" class="node">
<title>Node30</title>
<g id="a_node27"><a xlink:href="sitkBinaryContourImageFilter_8h.html" target="_top" xlink:title=" ">
<polygon fill="white" stroke="red" points="3574,-62 3574,-81 3742,-81 3742,-62 3574,-62"/>
<text text-anchor="middle" x="3658" y="-69" font-family="Helvetica,sans-Serif" font-size="10.00">sitkBinaryContourImageFilter.h</text>
</a>
</g>
</g>
<!-- Node2&#45;&gt;Node30 -->
<g id="edge32" class="edge">
<title>Node2&#45;&gt;Node30</title>
<path fill="none" stroke="midnightblue" d="M3175.35,-131.64C3261.37,-122.96 3425.67,-105.69 3565,-87 3578.28,-85.22 3592.6,-83.09 3605.92,-81.02"/>
<polygon fill="midnightblue" stroke="midnightblue" points="3174.85,-128.17 3165.25,-132.66 3175.55,-135.14 3174.85,-128.17"/>
</g>
<!-- Node31 -->
<g id="node28" class="node">
<title>Node31</title>
<g id="a_node28"><a xlink:href="sitkBinaryDilateImageFilter_8h.html" target="_top" xlink:title=" ">
<polygon fill="white" stroke="red" points="3759.5,-62 3759.5,-81 3918.5,-81 3918.5,-62 3759.5,-62"/>
<text text-anchor="middle" x="3839" y="-69" font-family="Helvetica,sans-Serif" font-size="10.00">sitkBinaryDilateImageFilter.h</text>
</a>
</g>
</g>
<!-- Node2&#45;&gt;Node31 -->
<g id="edge33" class="edge">
<title>Node2&#45;&gt;Node31</title>
<path fill="none" stroke="midnightblue" d="M3175.26,-134.45C3287.77,-128.3 3539.95,-112.73 3751,-87 3764.22,-85.39 3778.49,-83.22 3791.61,-81.06"/>
<polygon fill="midnightblue" stroke="midnightblue" points="3174.93,-130.96 3165.14,-135 3175.31,-137.95 3174.93,-130.96"/>
</g>
<!-- Node32 -->
<g id="node29" class="node">
<title>Node32</title>
<g id="a_node29"><a xlink:href="sitkBinaryErodeImageFilter_8h.html" target="_top" xlink:title=" ">
<polygon fill="white" stroke="red" points="3936,-62 3936,-81 4094,-81 4094,-62 3936,-62"/>
<text text-anchor="middle" x="4015" y="-69" font-family="Helvetica,sans-Serif" font-size="10.00">sitkBinaryErodeImageFilter.h</text>
</a>
</g>
</g>
<!-- Node2&#45;&gt;Node32 -->
<g id="edge34" class="edge">
<title>Node2&#45;&gt;Node32</title>
<path fill="none" stroke="midnightblue" d="M3175.12,-135.87C3309.22,-131.72 3646.59,-118.75 3927,-87 3940.54,-85.47 3955.17,-83.27 3968.54,-81.06"/>
<polygon fill="midnightblue" stroke="midnightblue" points="3174.95,-132.37 3165.06,-136.17 3175.16,-139.37 3174.95,-132.37"/>
</g>
<!-- Node33 -->
<g id="node30" class="node">
<title>Node33</title>
<g id="a_node30"><a xlink:href="sitkBinaryFillholeImageFilter_8h.html" target="_top" xlink:title=" ">
<polygon fill="white" stroke="red" points="4112.5,-62 4112.5,-81 4277.5,-81 4277.5,-62 4112.5,-62"/>
<text text-anchor="middle" x="4195" y="-69" font-family="Helvetica,sans-Serif" font-size="10.00">sitkBinaryFillholeImageFilter.h</text>
</a>
</g>
</g>
<!-- Node2&#45;&gt;Node33 -->
<g id="edge35" class="edge">
<title>Node2&#45;&gt;Node33</title>
<path fill="none" stroke="midnightblue" d="M3175.34,-136.64C3329.02,-133.93 3752.46,-123.49 4103,-87 4117.31,-85.51 4132.79,-83.3 4146.9,-81.06"/>
<polygon fill="midnightblue" stroke="midnightblue" points="3175.12,-133.14 3165.18,-136.81 3175.24,-140.14 3175.12,-133.14"/>
</g>
<!-- Node34 -->
<g id="node31" class="node">
<title>Node34</title>
<g id="a_node31"><a xlink:href="sitkBinaryGrindPeakImageFilter_8h.html" target="_top" xlink:title=" ">
<polygon fill="white" stroke="red" points="4295.5,-56.5 4295.5,-86.5 4442.5,-86.5 4442.5,-56.5 4295.5,-56.5"/>
<text text-anchor="start" x="4303.5" y="-74.5" font-family="Helvetica,sans-Serif" font-size="10.00">sitkBinaryGrindPeakImage</text>
<text text-anchor="middle" x="4369" y="-63.5" font-family="Helvetica,sans-Serif" font-size="10.00">Filter.h</text>
</a>
</g>
</g>
<!-- Node2&#45;&gt;Node34 -->
<g id="edge36" class="edge">
<title>Node2&#45;&gt;Node34</title>
<path fill="none" stroke="midnightblue" d="M3175.34,-137.65C3347.54,-137.52 3862.1,-132.98 4286,-87 4289.05,-86.67 4292.17,-86.29 4295.3,-85.89"/>
<polygon fill="midnightblue" stroke="midnightblue" points="3175.21,-134.15 3165.21,-137.66 3175.22,-141.15 3175.21,-134.15"/>
</g>
<!-- Node35 -->
<g id="node32" class="node">
<title>Node35</title>
<g id="a_node32"><a xlink:href="sitkBinaryImageToLabelMapFilter_8h.html" target="_top" xlink:title=" ">
<polygon fill="white" stroke="red" points="4460.5,-56.5 4460.5,-86.5 4615.5,-86.5 4615.5,-56.5 4460.5,-56.5"/>
<text text-anchor="start" x="4468.5" y="-74.5" font-family="Helvetica,sans-Serif" font-size="10.00">sitkBinaryImageToLabelMap</text>
<text text-anchor="middle" x="4538" y="-63.5" font-family="Helvetica,sans-Serif" font-size="10.00">Filter.h</text>
</a>
</g>
</g>
<!-- Node2&#45;&gt;Node35 -->
<g id="edge37" class="edge">
<title>Node2&#45;&gt;Node35</title>
<path fill="none" stroke="midnightblue" d="M3175.46,-137.94C3363.23,-138.77 3960.14,-136.98 4451,-87 4454.05,-86.69 4457.15,-86.34 4460.28,-85.96"/>
<polygon fill="midnightblue" stroke="midnightblue" points="3175.27,-134.44 3165.25,-137.89 3175.24,-141.44 3175.27,-134.44"/>
</g>
<!-- Node36 -->
<g id="node33" class="node">
<title>Node36</title>
<g id="a_node33"><a xlink:href="sitkBinaryMagnitudeImageFilter_8h.html" target="_top" xlink:title=" ">
<polygon fill="white" stroke="red" points="4633.5,-56.5 4633.5,-86.5 4782.5,-86.5 4782.5,-56.5 4633.5,-56.5"/>
<text text-anchor="start" x="4641.5" y="-74.5" font-family="Helvetica,sans-Serif" font-size="10.00">sitkBinaryMagnitudeImage</text>
<text text-anchor="middle" x="4708" y="-63.5" font-family="Helvetica,sans-Serif" font-size="10.00">Filter.h</text>
</a>
</g>
</g>
<!-- Node2&#45;&gt;Node36 -->
<g id="edge38" class="edge">
<title>Node2&#45;&gt;Node36</title>
<path fill="none" stroke="midnightblue" d="M3175.24,-136.61C3417.74,-132.78 4335.47,-116.59 4624,-87 4627.09,-86.68 4630.24,-86.32 4633.42,-85.92"/>
<polygon fill="midnightblue" stroke="midnightblue" points="3175.16,-133.11 3165.21,-136.76 3175.27,-140.11 3175.16,-133.11"/>
</g>
<!-- Node37 -->
<g id="node34" class="node">
<title>Node37</title>
<g id="a_node34"><a xlink:href="sitkBinaryMedianImageFilter_8h.html" target="_top" xlink:title=" ">
<polygon fill="white" stroke="red" points="4801,-62 4801,-81 4967,-81 4967,-62 4801,-62"/>
<text text-anchor="middle" x="4884" y="-69" font-family="Helvetica,sans-Serif" font-size="10.00">sitkBinaryMedianImageFilter.h</text>
</a>
</g>
</g>
<!-- Node2&#45;&gt;Node37 -->
<g id="edge39" class="edge">
<title>Node2&#45;&gt;Node37</title>
<path fill="none" stroke="midnightblue" d="M3175.67,-136.7C3435.28,-133.06 4467.77,-116.95 4791,-87 4805.97,-85.61 4822.19,-83.35 4836.83,-81.02"/>
<polygon fill="midnightblue" stroke="midnightblue" points="3175.28,-133.2 3165.33,-136.84 3175.38,-140.2 3175.28,-133.2"/>
</g>
<!-- Node38 -->
<g id="node35" class="node">
<title>Node38</title>
<g id="a_node35"><a xlink:href="sitkBinaryMinMaxCurvatureFlowImageFilter_8h.html" target="_top" xlink:title=" ">
<polygon fill="white" stroke="red" points="4985.5,-56.5 4985.5,-86.5 5138.5,-86.5 5138.5,-56.5 4985.5,-56.5"/>
<text text-anchor="start" x="4993.5" y="-74.5" font-family="Helvetica,sans-Serif" font-size="10.00">sitkBinaryMinMaxCurvature</text>
<text text-anchor="middle" x="5062" y="-63.5" font-family="Helvetica,sans-Serif" font-size="10.00">FlowImageFilter.h</text>
</a>
</g>
</g>
<!-- Node2&#45;&gt;Node38 -->
<g id="edge40" class="edge">
<title>Node2&#45;&gt;Node38</title>
<path fill="none" stroke="midnightblue" d="M3175.37,-137.01C3451.78,-134.54 4614.33,-122.23 4976,-87 4979.01,-86.71 4982.08,-86.37 4985.18,-86"/>
<polygon fill="midnightblue" stroke="midnightblue" points="3175.12,-133.51 3165.15,-137.1 3175.18,-140.51 3175.12,-133.51"/>
</g>
<!-- Node39 -->
<g id="node36" class="node">
<title>Node39</title>
<g id="a_node36"><a xlink:href="sitkBinaryMorphologicalClosingImageFilter_8h.html" target="_top" xlink:title=" ">
<polygon fill="white" stroke="red" points="5156.5,-56.5 5156.5,-86.5 5327.5,-86.5 5327.5,-56.5 5156.5,-56.5"/>
<text text-anchor="start" x="5164.5" y="-74.5" font-family="Helvetica,sans-Serif" font-size="10.00">sitkBinaryMorphologicalClosing</text>
<text text-anchor="middle" x="5242" y="-63.5" font-family="Helvetica,sans-Serif" font-size="10.00">ImageFilter.h</text>
</a>
</g>
</g>
<!-- Node2&#45;&gt;Node39 -->
<g id="edge41" class="edge">
<title>Node2&#45;&gt;Node39</title>
<path fill="none" stroke="midnightblue" d="M3175.51,-137.04C3467.36,-134.62 4749.41,-122.14 5147,-87 5150.07,-86.73 5153.2,-86.42 5156.36,-86.08"/>
<polygon fill="midnightblue" stroke="midnightblue" points="3175.11,-133.54 3165.14,-137.12 3175.17,-140.54 3175.11,-133.54"/>
</g>
<!-- Node40 -->
<g id="node37" class="node">
<title>Node40</title>
<g id="a_node37"><a xlink:href="sitkBinaryMorphologicalOpeningImageFilter_8h.html" target="_top" xlink:title=" ">
<polygon fill="white" stroke="red" points="5346,-56.5 5346,-86.5 5522,-86.5 5522,-56.5 5346,-56.5"/>
<text text-anchor="start" x="5354" y="-74.5" font-family="Helvetica,sans-Serif" font-size="10.00">sitkBinaryMorphologicalOpening</text>
<text text-anchor="middle" x="5434" y="-63.5" font-family="Helvetica,sans-Serif" font-size="10.00">ImageFilter.h</text>
</a>
</g>
</g>
<!-- Node2&#45;&gt;Node40 -->
<g id="edge42" class="edge">
<title>Node2&#45;&gt;Node40</title>
<path fill="none" stroke="midnightblue" d="M3175.5,-137.15C3483.45,-135.17 4898.74,-124.18 5336,-87 5339.26,-86.72 5342.57,-86.41 5345.91,-86.06"/>
<polygon fill="midnightblue" stroke="midnightblue" points="3175.42,-133.65 3165.44,-137.21 3175.46,-140.65 3175.42,-133.65"/>
</g>
<!-- Node41 -->
<g id="node38" class="node">
<title>Node41</title>
<g id="a_node38"><a xlink:href="sitkBinaryNotImageFilter_8h.html" target="_top" xlink:title=" ">
<polygon fill="white" stroke="red" points="5540.5,-62 5540.5,-81 5687.5,-81 5687.5,-62 5540.5,-62"/>
<text text-anchor="middle" x="5614" y="-69" font-family="Helvetica,sans-Serif" font-size="10.00">sitkBinaryNotImageFilter.h</text>
</a>
</g>
</g>
<!-- Node2&#45;&gt;Node41 -->
<g id="edge43" class="edge">
<title>Node2&#45;&gt;Node41</title>
<path fill="none" stroke="midnightblue" d="M3175.44,-137.48C3499.24,-137.21 5053.31,-133.45 5531,-87 5544.54,-85.68 5559.2,-83.41 5572.37,-81.05"/>
<polygon fill="midnightblue" stroke="midnightblue" points="3175.33,-133.98 3165.33,-137.49 3175.34,-140.98 3175.33,-133.98"/>
</g>
<!-- Node42 -->
<g id="node39" class="node">
<title>Node42</title>
<g id="a_node39"><a xlink:href="sitkBinaryOpeningByReconstructionImageFilter_8h.html" target="_top" xlink:title=" ">
<polygon fill="white" stroke="red" points="5706,-56.5 5706,-86.5 5898,-86.5 5898,-56.5 5706,-56.5"/>
<text text-anchor="start" x="5714" y="-74.5" font-family="Helvetica,sans-Serif" font-size="10.00">sitkBinaryOpeningByReconstruction</text>
<text text-anchor="middle" x="5802" y="-63.5" font-family="Helvetica,sans-Serif" font-size="10.00">ImageFilter.h</text>
</a>
</g>
</g>
<!-- Node2&#45;&gt;Node42 -->
<g id="edge44" class="edge">
<title>Node2&#45;&gt;Node42</title>
<path fill="none" stroke="midnightblue" d="M3175.11,-137.28C3511.03,-135.88 5182.65,-127 5696,-87 5699.24,-86.75 5702.53,-86.46 5705.86,-86.15"/>
<polygon fill="midnightblue" stroke="midnightblue" points="3175.09,-133.78 3165.1,-137.32 3175.12,-140.78 3175.09,-133.78"/>
</g>
<!-- Node43 -->
<g id="node40" class="node">
<title>Node43</title>
<g id="a_node40"><a xlink:href="sitkBinaryProjectionImageFilter_8h.html" target="_top" xlink:title=" ">
<polygon fill="white" stroke="red" points="5916,-56.5 5916,-86.5 6062,-86.5 6062,-56.5 5916,-56.5"/>
<text text-anchor="start" x="5924" y="-74.5" font-family="Helvetica,sans-Serif" font-size="10.00">sitkBinaryProjectionImage</text>
<text text-anchor="middle" x="5989" y="-63.5" font-family="Helvetica,sans-Serif" font-size="10.00">Filter.h</text>
</a>
</g>
</g>
<!-- Node2&#45;&gt;Node43 -->
<g id="edge45" class="edge">
<title>Node2&#45;&gt;Node43</title>
<path fill="none" stroke="midnightblue" d="M3175.38,-137.69C3528,-138.66 5350.22,-140.93 5907,-87 5909.88,-86.72 5912.81,-86.4 5915.76,-86.04"/>
<polygon fill="midnightblue" stroke="midnightblue" points="3175.15,-134.19 3165.14,-137.67 3175.13,-141.19 3175.15,-134.19"/>
</g>
<!-- Node44 -->
<g id="node41" class="node">
<title>Node44</title>
<g id="a_node41"><a xlink:href="sitkBinaryPruningImageFilter_8h.html" target="_top" xlink:title=" ">
<polygon fill="white" stroke="red" points="6080.5,-62 6080.5,-81 6247.5,-81 6247.5,-62 6080.5,-62"/>
<text text-anchor="middle" x="6164" y="-69" font-family="Helvetica,sans-Serif" font-size="10.00">sitkBinaryPruningImageFilter.h</text>
</a>
</g>
</g>
<!-- Node2&#45;&gt;Node44 -->
<g id="edge46" class="edge">
<title>Node2&#45;&gt;Node44</title>
<path fill="none" stroke="midnightblue" d="M3175.06,-137.6C3538.8,-138.05 5478.9,-137.97 6071,-87 6086.14,-85.7 6102.55,-83.43 6117.32,-81.06"/>
<polygon fill="midnightblue" stroke="midnightblue" points="3175.01,-134.1 3165.01,-137.59 3175,-141.1 3175.01,-134.1"/>
</g>
<!-- Node45 -->
<g id="node42" class="node">
<title>Node45</title>
<g id="a_node42"><a xlink:href="sitkBinaryReconstructionByDilationImageFilter_8h.html" target="_top" xlink:title=" ">
<polygon fill="white" stroke="red" points="6265.5,-56.5 6265.5,-86.5 6404.5,-86.5 6404.5,-56.5 6265.5,-56.5"/>
<text text-anchor="start" x="6273.5" y="-74.5" font-family="Helvetica,sans-Serif" font-size="10.00">sitkBinaryReconstruction</text>
<text text-anchor="middle" x="6335" y="-63.5" font-family="Helvetica,sans-Serif" font-size="10.00">ByDilationImageFilter.h</text>
</a>
</g>
</g>
<!-- Node2&#45;&gt;Node45 -->
<g id="edge47" class="edge">
<title>Node2&#45;&gt;Node45</title>
<path fill="none" stroke="midnightblue" d="M3175.28,-137.14C3580.78,-134.58 5938.8,-118.44 6256,-87 6259.05,-86.7 6262.16,-86.34 6265.3,-85.94"/>
<polygon fill="midnightblue" stroke="midnightblue" points="3175.21,-133.64 3165.23,-137.2 3175.26,-140.64 3175.21,-133.64"/>
</g>
<!-- Node3&#45;&gt;Node4 -->
<g id="edge3" class="edge">
<title>Node3&#45;&gt;Node4</title>
<path fill="none" stroke="midnightblue" d="M176.61,-56.28C177.74,-56.18 178.88,-56.09 180,-56 854.6,-3.47 6043.92,-10.18 6536.49,-10.94"/>
<polygon fill="midnightblue" stroke="midnightblue" points="175.87,-52.83 166.25,-57.28 176.54,-59.8 175.87,-52.83"/>
</g>
<!-- Node5&#45;&gt;Node4 -->
<g id="edge5" class="edge">
<title>Node5&#45;&gt;Node4</title>
<path fill="none" stroke="midnightblue" d="M325.76,-59.93C334.09,-58.31 342.78,-56.88 351,-56 678.63,-20.75 6034.98,-11.82 6536.42,-11.05"/>
<polygon fill="midnightblue" stroke="midnightblue" points="324.91,-56.53 315.83,-61.98 326.33,-63.39 324.91,-56.53"/>
</g>
<!-- Node6&#45;&gt;Node4 -->
<g id="edge7" class="edge">
<title>Node6&#45;&gt;Node4</title>
<path fill="none" stroke="midnightblue" d="M474.34,-60.1C483.79,-58.41 493.67,-56.92 503,-56 822.69,-24.58 6040.15,-12.19 6536.2,-11.08"/>
<polygon fill="midnightblue" stroke="midnightblue" points="473.48,-56.7 464.3,-61.99 474.78,-63.58 473.48,-56.7"/>
</g>
<!-- Node7&#45;&gt;Node4 -->
<g id="edge9" class="edge">
<title>Node7&#45;&gt;Node4</title>
<path fill="none" stroke="midnightblue" d="M6505.28,-56.43C6522.63,-44.96 6546.57,-29.13 6561.13,-19.51"/>
<polygon fill="midnightblue" stroke="midnightblue" points="6503.31,-53.54 6496.89,-61.98 6507.17,-59.38 6503.31,-53.54"/>
</g>
<!-- Node8&#45;&gt;Node4 -->
<g id="edge11" class="edge">
<title>Node8&#45;&gt;Node4</title>
<path fill="none" stroke="midnightblue" d="M684.36,-56.01C1351.5,-4.07 6065.97,-10.2 6536.23,-10.94"/>
<polygon fill="midnightblue" stroke="midnightblue" points="684.05,-52.53 674.37,-56.82 684.62,-59.51 684.05,-52.53"/>
</g>
<!-- Node9&#45;&gt;Node4 -->
<g id="edge13" class="edge">
<title>Node9&#45;&gt;Node4</title>
<path fill="none" stroke="midnightblue" d="M800.4,-59.99C809.18,-58.35 818.34,-56.9 827,-56 1129.08,-24.69 6055.97,-12.23 6536.39,-11.09"/>
<polygon fill="midnightblue" stroke="midnightblue" points="799.45,-56.61 790.32,-61.99 800.81,-63.48 799.45,-56.61"/>
</g>
<!-- Node304&#45;&gt;Node4 -->
<g id="edge49" class="edge">
<title>Node304&#45;&gt;Node4</title>
<path fill="none" stroke="midnightblue" d="M6547.2,-119.46C6563.28,-112.07 6578.2,-101.66 6588,-87 6602.02,-66.03 6587.9,-34.87 6579.41,-19.8"/>
<polygon fill="midnightblue" stroke="midnightblue" points="6545.5,-116.37 6537.63,-123.47 6548.2,-122.83 6545.5,-116.37"/>
</g>
<!-- Node305&#45;&gt;Node4 -->
<g id="edge51" class="edge">
<title>Node305&#45;&gt;Node4</title>
<path fill="none" stroke="midnightblue" d="M6646.53,-112.96C6643.26,-95.93 6637.13,-73.3 6626,-56 6616.18,-40.74 6599.69,-27.74 6587.91,-19.69"/>
<polygon fill="midnightblue" stroke="midnightblue" points="6643.15,-113.96 6648.29,-123.23 6650.05,-112.78 6643.15,-113.96"/>
</g>
<!-- Node310&#45;&gt;Node4 -->
<g id="edge56" class="edge">
<title>Node310&#45;&gt;Node4</title>
<path fill="none" stroke="midnightblue" d="M6923.12,-125.71C6846.2,-100.44 6667,-41.56 6599.94,-19.52"/>
<polygon fill="midnightblue" stroke="midnightblue" points="6922.25,-129.11 6932.84,-128.9 6924.43,-122.46 6922.25,-129.11"/>
</g>
<!-- Node311&#45;&gt;Node4 -->
<g id="edge58" class="edge">
<title>Node311&#45;&gt;Node4</title>
<path fill="none" stroke="midnightblue" d="M7061.2,-126.42C6997.9,-110.47 6877.13,-80.3 6774,-56 6717.53,-42.7 6651.89,-28.09 6611.65,-19.23"/>
<polygon fill="midnightblue" stroke="midnightblue" points="7060.67,-129.89 7071.22,-128.95 7062.38,-123.11 7060.67,-129.89"/>
</g>
<!-- Node312&#45;&gt;Node4 -->
<g id="edge60" class="edge">
<title>Node312&#45;&gt;Node4</title>
<path fill="none" stroke="midnightblue" d="M7197.71,-126.7C7192.09,-125.43 7186.42,-124.17 7181,-123 7034.73,-91.32 6998.22,-82.89 6851,-56 6765.69,-40.42 6665.1,-24.75 6611.72,-16.65"/>
<polygon fill="midnightblue" stroke="midnightblue" points="7197.2,-130.17 7207.72,-128.98 7198.75,-123.35 7197.2,-130.17"/>
</g>
<!-- Node313&#45;&gt;Node4 -->
<g id="edge62" class="edge">
<title>Node313&#45;&gt;Node4</title>
<path fill="none" stroke="midnightblue" d="M7316.81,-125.79C7313.51,-124.78 7310.2,-123.83 7307,-123 7045.64,-55.18 6720.49,-23.31 6611.54,-14.01"/>
<polygon fill="midnightblue" stroke="midnightblue" points="7315.93,-129.18 7326.53,-128.91 7318.08,-122.52 7315.93,-129.18"/>
</g>
<!-- Node314&#45;&gt;Node4 -->
<g id="edge64" class="edge">
<title>Node314&#45;&gt;Node4</title>
<path fill="none" stroke="midnightblue" d="M7439.94,-126.72C7361.3,-109.45 7200.07,-75.53 7062,-56 6894.99,-32.38 6693.99,-18.36 6611.8,-13.23"/>
<polygon fill="midnightblue" stroke="midnightblue" points="7439.5,-130.21 7450.02,-128.95 7441.01,-123.38 7439.5,-130.21"/>
</g>
</g>
</svg>
