<?xml version="1.0" encoding="UTF-8" standalone="no"?>
<!DOCTYPE svg PUBLIC "-//W3C//DTD SVG 1.1//EN"
 "http://www.w3.org/Graphics/SVG/1.1/DTD/svg11.dtd">
<!-- Generated by graphviz version 2.43.0 (0)
 -->
<!-- Title: sitkDualMemberFunctionFactory.h Pages: 1 -->
<svg width="2321pt" height="218pt"
 viewBox="0.00 0.00 2320.52 218.00" xmlns="http://www.w3.org/2000/svg" xmlns:xlink="http://www.w3.org/1999/xlink">
<g id="graph0" class="graph" transform="scale(1 1) rotate(0) translate(4 214)">
<title>sitkDualMemberFunctionFactory.h</title>
<polygon fill="white" stroke="transparent" points="-4,4 -4,-214 2316.52,-214 2316.52,4 -4,4"/>
<!-- Node1 -->
<g id="node1" class="node">
<title>Node1</title>
<g id="a_node1"><a xlink:title=" ">
<polygon fill="#bfbfbf" stroke="black" points="973.02,-190.5 973.02,-209.5 1155.02,-209.5 1155.02,-190.5 973.02,-190.5"/>
<text text-anchor="middle" x="1064.02" y="-197.5" font-family="Helvetica,sans-Serif" font-size="10.00">sitkDualMemberFunctionFactory.h</text>
</a>
</g>
</g>
<!-- Node2 -->
<g id="node2" class="node">
<title>Node2</title>
<g id="a_node2"><a xlink:href="sitkCastImageFilter_8h.html" target="_top" xlink:title=" ">
<polygon fill="white" stroke="black" points="361.02,-62 361.02,-81 481.02,-81 481.02,-62 361.02,-62"/>
<text text-anchor="middle" x="421.02" y="-69" font-family="Helvetica,sans-Serif" font-size="10.00">sitkCastImageFilter.h</text>
</a>
</g>
</g>
<!-- Node1&#45;&gt;Node2 -->
<g id="edge1" class="edge">
<title>Node1&#45;&gt;Node2</title>
<path fill="none" stroke="midnightblue" d="M962.55,-198.43C704.23,-196.48 39.75,-188.15 7.02,-154 -2.51,-144.05 -2.11,-133.32 7.02,-123 30.07,-96.98 251.42,-81.58 360.66,-75.51"/>
<polygon fill="midnightblue" stroke="midnightblue" points="962.66,-201.93 972.68,-198.5 962.71,-194.93 962.66,-201.93"/>
</g>
<!-- Node4 -->
<g id="node4" class="node">
<title>Node4</title>
<g id="a_node4"><a xlink:href="sitkClampImageFilter_8h.html" target="_top" xlink:title=" ">
<polygon fill="white" stroke="black" points="1144.02,-129 1144.02,-148 1274.02,-148 1274.02,-129 1144.02,-129"/>
<text text-anchor="middle" x="1209.02" y="-136" font-family="Helvetica,sans-Serif" font-size="10.00">sitkClampImageFilter.h</text>
</a>
</g>
</g>
<!-- Node1&#45;&gt;Node4 -->
<g id="edge3" class="edge">
<title>Node1&#45;&gt;Node4</title>
<path fill="none" stroke="midnightblue" d="M1094.17,-186.63C1122.34,-175.07 1163.65,-158.12 1188.29,-148.01"/>
<polygon fill="midnightblue" stroke="midnightblue" points="1092.72,-183.44 1084.8,-190.48 1095.38,-189.92 1092.72,-183.44"/>
</g>
<!-- Node7 -->
<g id="node7" class="node">
<title>Node7</title>
<g id="a_node7"><a xlink:href="sitkLabelIntensityStatisticsImageFilter_8h.html" target="_top" xlink:title=" ">
<polygon fill="white" stroke="black" points="1292.52,-123.5 1292.52,-153.5 1441.52,-153.5 1441.52,-123.5 1292.52,-123.5"/>
<text text-anchor="start" x="1300.52" y="-141.5" font-family="Helvetica,sans-Serif" font-size="10.00">sitkLabelIntensityStatistics</text>
<text text-anchor="middle" x="1367.02" y="-130.5" font-family="Helvetica,sans-Serif" font-size="10.00">ImageFilter.h</text>
</a>
</g>
</g>
<!-- Node1&#45;&gt;Node7 -->
<g id="edge7" class="edge">
<title>Node1&#45;&gt;Node7</title>
<path fill="none" stroke="midnightblue" d="M1117.31,-188.54C1166.84,-178.81 1240.98,-164.25 1295.61,-153.52"/>
<polygon fill="midnightblue" stroke="midnightblue" points="1116.58,-185.11 1107.44,-190.48 1117.92,-191.98 1116.58,-185.11"/>
</g>
<!-- Node8 -->
<g id="node8" class="node">
<title>Node8</title>
<g id="a_node8"><a xlink:href="sitkLabelMapContourOverlayImageFilter_8h.html" target="_top" xlink:title=" ">
<polygon fill="white" stroke="black" points="1459.02,-123.5 1459.02,-153.5 1617.02,-153.5 1617.02,-123.5 1459.02,-123.5"/>
<text text-anchor="start" x="1467.02" y="-141.5" font-family="Helvetica,sans-Serif" font-size="10.00">sitkLabelMapContourOverlay</text>
<text text-anchor="middle" x="1538.02" y="-130.5" font-family="Helvetica,sans-Serif" font-size="10.00">ImageFilter.h</text>
</a>
</g>
</g>
<!-- Node1&#45;&gt;Node8 -->
<g id="edge10" class="edge">
<title>Node1&#45;&gt;Node8</title>
<path fill="none" stroke="midnightblue" d="M1157.94,-189.39C1236.42,-181.05 1351.19,-168.11 1451.02,-154 1453.6,-153.64 1456.22,-153.26 1458.86,-152.86"/>
<polygon fill="midnightblue" stroke="midnightblue" points="1157.17,-185.95 1147.6,-190.49 1157.91,-192.91 1157.17,-185.95"/>
</g>
<!-- Node9 -->
<g id="node9" class="node">
<title>Node9</title>
<g id="a_node9"><a xlink:href="sitkLabelMapMaskImageFilter_8h.html" target="_top" xlink:title=" ">
<polygon fill="white" stroke="black" points="1635.02,-129 1635.02,-148 1807.02,-148 1807.02,-129 1635.02,-129"/>
<text text-anchor="middle" x="1721.02" y="-136" font-family="Helvetica,sans-Serif" font-size="10.00">sitkLabelMapMaskImageFilter.h</text>
</a>
</g>
</g>
<!-- Node1&#45;&gt;Node9 -->
<g id="edge13" class="edge">
<title>Node1&#45;&gt;Node9</title>
<path fill="none" stroke="midnightblue" d="M1165.23,-193.08C1277.91,-185.99 1465.34,-172.67 1626.02,-154 1640.11,-152.36 1655.32,-150.21 1669.35,-148.07"/>
<polygon fill="midnightblue" stroke="midnightblue" points="1164.99,-189.59 1155.23,-193.71 1165.43,-196.58 1164.99,-189.59"/>
</g>
<!-- Node10 -->
<g id="node10" class="node">
<title>Node10</title>
<g id="a_node10"><a xlink:href="sitkLabelMapOverlayImageFilter_8h.html" target="_top" xlink:title=" ">
<polygon fill="white" stroke="black" points="1825.52,-123.5 1825.52,-153.5 1976.52,-153.5 1976.52,-123.5 1825.52,-123.5"/>
<text text-anchor="start" x="1833.52" y="-141.5" font-family="Helvetica,sans-Serif" font-size="10.00">sitkLabelMapOverlayImage</text>
<text text-anchor="middle" x="1901.02" y="-130.5" font-family="Helvetica,sans-Serif" font-size="10.00">Filter.h</text>
</a>
</g>
</g>
<!-- Node1&#45;&gt;Node10 -->
<g id="edge16" class="edge">
<title>Node1&#45;&gt;Node10</title>
<path fill="none" stroke="midnightblue" d="M1165.37,-196.45C1310.09,-192 1584.13,-180.64 1816.02,-154 1819,-153.66 1822.03,-153.28 1825.08,-152.88"/>
<polygon fill="midnightblue" stroke="midnightblue" points="1165.06,-192.95 1155.17,-196.76 1165.27,-199.95 1165.06,-192.95"/>
</g>
<!-- Node11 -->
<g id="node11" class="node">
<title>Node11</title>
<g id="a_node11"><a xlink:href="sitkLabelOverlayImageFilter_8h.html" target="_top" xlink:title=" ">
<polygon fill="white" stroke="black" points="1994.52,-129 1994.52,-148 2157.52,-148 2157.52,-129 1994.52,-129"/>
<text text-anchor="middle" x="2076.02" y="-136" font-family="Helvetica,sans-Serif" font-size="10.00">sitkLabelOverlayImageFilter.h</text>
</a>
</g>
</g>
<!-- Node1&#45;&gt;Node11 -->
<g id="edge19" class="edge">
<title>Node1&#45;&gt;Node11</title>
<path fill="none" stroke="midnightblue" d="M1165.42,-197.73C1335.51,-194.77 1688.86,-185.09 1986.02,-154 2000.19,-152.52 2015.52,-150.29 2029.44,-148.01"/>
<polygon fill="midnightblue" stroke="midnightblue" points="1165.17,-194.23 1155.23,-197.9 1165.29,-201.23 1165.17,-194.23"/>
</g>
<!-- Node12 -->
<g id="node12" class="node">
<title>Node12</title>
<g id="a_node12"><a xlink:href="sitkLabelStatisticsImageFilter_8h.html" target="_top" xlink:title=" ">
<polygon fill="white" stroke="black" points="2175.52,-123.5 2175.52,-153.5 2312.52,-153.5 2312.52,-123.5 2175.52,-123.5"/>
<text text-anchor="start" x="2183.52" y="-141.5" font-family="Helvetica,sans-Serif" font-size="10.00">sitkLabelStatisticsImage</text>
<text text-anchor="middle" x="2244.02" y="-130.5" font-family="Helvetica,sans-Serif" font-size="10.00">Filter.h</text>
</a>
</g>
</g>
<!-- Node1&#45;&gt;Node12 -->
<g id="edge22" class="edge">
<title>Node1&#45;&gt;Node12</title>
<path fill="none" stroke="midnightblue" d="M1165.38,-199.77C1360.13,-200.18 1799.89,-195.83 2167.02,-154 2169.73,-153.69 2172.48,-153.34 2175.25,-152.96"/>
<polygon fill="midnightblue" stroke="midnightblue" points="1165.17,-196.27 1155.16,-199.75 1165.15,-203.27 1165.17,-196.27"/>
</g>
<!-- Node13 -->
<g id="node13" class="node">
<title>Node13</title>
<g id="a_node13"><a xlink:href="sitkMaskImageFilter_8h.html" target="_top" xlink:title=" ">
<polygon fill="white" stroke="black" points="16.52,-129 16.52,-148 141.52,-148 141.52,-129 16.52,-129"/>
<text text-anchor="middle" x="79.02" y="-136" font-family="Helvetica,sans-Serif" font-size="10.00">sitkMaskImageFilter.h</text>
</a>
</g>
</g>
<!-- Node1&#45;&gt;Node13 -->
<g id="edge25" class="edge">
<title>Node1&#45;&gt;Node13</title>
<path fill="none" stroke="midnightblue" d="M962.8,-198.94C793.92,-197.73 444.25,-190.54 151.02,-154 139.51,-152.56 127.08,-150.32 115.85,-148.02"/>
<polygon fill="midnightblue" stroke="midnightblue" points="962.9,-202.44 972.93,-199 962.95,-195.44 962.9,-202.44"/>
</g>
<!-- Node14 -->
<g id="node14" class="node">
<title>Node14</title>
<g id="a_node14"><a xlink:href="sitkMaskNegatedImageFilter_8h.html" target="_top" xlink:title=" ">
<polygon fill="white" stroke="black" points="160.02,-129 160.02,-148 326.02,-148 326.02,-129 160.02,-129"/>
<text text-anchor="middle" x="243.02" y="-136" font-family="Helvetica,sans-Serif" font-size="10.00">sitkMaskNegatedImageFilter.h</text>
</a>
</g>
</g>
<!-- Node1&#45;&gt;Node14 -->
<g id="edge28" class="edge">
<title>Node1&#45;&gt;Node14</title>
<path fill="none" stroke="midnightblue" d="M962.51,-195.77C821.42,-190.59 558.22,-178.42 335.02,-154 320.88,-152.45 305.59,-150.26 291.61,-148.04"/>
<polygon fill="midnightblue" stroke="midnightblue" points="962.75,-199.28 972.87,-196.15 963,-192.28 962.75,-199.28"/>
</g>
<!-- Node15 -->
<g id="node15" class="node">
<title>Node15</title>
<g id="a_node15"><a xlink:href="sitkMorphologicalWatershedFromMarkersImageFilter_8h.html" target="_top" xlink:title=" ">
<polygon fill="white" stroke="black" points="344.52,-123.5 344.52,-153.5 499.52,-153.5 499.52,-123.5 344.52,-123.5"/>
<text text-anchor="start" x="352.52" y="-141.5" font-family="Helvetica,sans-Serif" font-size="10.00">sitkMorphologicalWatershed</text>
<text text-anchor="middle" x="422.02" y="-130.5" font-family="Helvetica,sans-Serif" font-size="10.00">FromMarkersImageFilter.h</text>
</a>
</g>
</g>
<!-- Node1&#45;&gt;Node15 -->
<g id="edge31" class="edge">
<title>Node1&#45;&gt;Node15</title>
<path fill="none" stroke="midnightblue" d="M962.52,-193.42C850.86,-186.67 666.22,-173.7 508.02,-154 505.32,-153.66 502.57,-153.3 499.8,-152.92"/>
<polygon fill="midnightblue" stroke="midnightblue" points="962.58,-196.93 972.77,-194.04 962.99,-189.94 962.58,-196.93"/>
</g>
<!-- Node16 -->
<g id="node16" class="node">
<title>Node16</title>
<g id="a_node16"><a xlink:href="sitkResampleImageFilter_8h.html" target="_top" xlink:title=" ">
<polygon fill="white" stroke="black" points="517.52,-129 517.52,-148 664.52,-148 664.52,-129 517.52,-129"/>
<text text-anchor="middle" x="591.02" y="-136" font-family="Helvetica,sans-Serif" font-size="10.00">sitkResampleImageFilter.h</text>
</a>
</g>
</g>
<!-- Node1&#45;&gt;Node16 -->
<g id="edge34" class="edge">
<title>Node1&#45;&gt;Node16</title>
<path fill="none" stroke="midnightblue" d="M967.05,-189.39C888.02,-181.18 773.6,-168.43 674.02,-154 662.01,-152.26 649.06,-150.12 637.05,-148.03"/>
<polygon fill="midnightblue" stroke="midnightblue" points="967.17,-192.92 977.48,-190.47 967.89,-185.96 967.17,-192.92"/>
</g>
<!-- Node17 -->
<g id="node17" class="node">
<title>Node17</title>
<g id="a_node17"><a xlink:href="sitkShiftScaleImageFilter_8h.html" target="_top" xlink:title=" ">
<polygon fill="white" stroke="black" points="683.02,-129 683.02,-148 829.02,-148 829.02,-129 683.02,-129"/>
<text text-anchor="middle" x="756.02" y="-136" font-family="Helvetica,sans-Serif" font-size="10.00">sitkShiftScaleImageFilter.h</text>
</a>
</g>
</g>
<!-- Node1&#45;&gt;Node17 -->
<g id="edge37" class="edge">
<title>Node1&#45;&gt;Node17</title>
<path fill="none" stroke="midnightblue" d="M1009.91,-188.55C950.24,-177.02 855.38,-158.69 800.07,-148.01"/>
<polygon fill="midnightblue" stroke="midnightblue" points="1009.41,-192.01 1019.9,-190.48 1010.74,-185.14 1009.41,-192.01"/>
</g>
<!-- Node18 -->
<g id="node18" class="node">
<title>Node18</title>
<g id="a_node18"><a xlink:href="sitkVectorIndexSelectionCastImageFilter_8h.html" target="_top" xlink:title=" ">
<polygon fill="white" stroke="black" points="847.52,-123.5 847.52,-153.5 984.52,-153.5 984.52,-123.5 847.52,-123.5"/>
<text text-anchor="start" x="855.52" y="-141.5" font-family="Helvetica,sans-Serif" font-size="10.00">sitkVectorIndexSelection</text>
<text text-anchor="middle" x="916.02" y="-130.5" font-family="Helvetica,sans-Serif" font-size="10.00">CastImageFilter.h</text>
</a>
</g>
</g>
<!-- Node1&#45;&gt;Node18 -->
<g id="edge40" class="edge">
<title>Node1&#45;&gt;Node18</title>
<path fill="none" stroke="midnightblue" d="M1033.48,-186.72C1009.46,-177.06 975.98,-163.6 950.91,-153.52"/>
<polygon fill="midnightblue" stroke="midnightblue" points="1032.24,-189.99 1042.82,-190.48 1034.85,-183.5 1032.24,-189.99"/>
</g>
<!-- Node19 -->
<g id="node19" class="node">
<title>Node19</title>
<g id="a_node19"><a xlink:href="sitkWarpImageFilter_8h.html" target="_top" xlink:title=" ">
<polygon fill="white" stroke="black" points="1002.52,-129 1002.52,-148 1125.52,-148 1125.52,-129 1002.52,-129"/>
<text text-anchor="middle" x="1064.02" y="-136" font-family="Helvetica,sans-Serif" font-size="10.00">sitkWarpImageFilter.h</text>
</a>
</g>
</g>
<!-- Node1&#45;&gt;Node19 -->
<g id="edge43" class="edge">
<title>Node1&#45;&gt;Node19</title>
<path fill="none" stroke="midnightblue" d="M1064.02,-180.32C1064.02,-169.5 1064.02,-156.4 1064.02,-148.01"/>
<polygon fill="midnightblue" stroke="midnightblue" points="1060.52,-180.48 1064.02,-190.48 1067.52,-180.48 1060.52,-180.48"/>
</g>
<!-- Node3 -->
<g id="node3" class="node">
<title>Node3</title>
<g id="a_node3"><a xlink:href="SimpleITK_8h.html" target="_top" xlink:title=" ">
<polygon fill="white" stroke="black" points="561.52,-0.5 561.52,-19.5 636.52,-19.5 636.52,-0.5 561.52,-0.5"/>
<text text-anchor="middle" x="599.02" y="-7.5" font-family="Helvetica,sans-Serif" font-size="10.00">SimpleITK.h</text>
</a>
</g>
</g>
<!-- Node2&#45;&gt;Node3 -->
<g id="edge2" class="edge">
<title>Node2&#45;&gt;Node3</title>
<path fill="none" stroke="midnightblue" d="M456.23,-58.73C490.83,-47.17 542.79,-29.8 573.57,-19.51"/>
<polygon fill="midnightblue" stroke="midnightblue" points="454.9,-55.49 446.53,-61.98 457.12,-62.12 454.9,-55.49"/>
</g>
<!-- Node5 -->
<g id="node5" class="node">
<title>Node5</title>
<g id="a_node5"><a xlink:href="CMakeTmp_2SimpleITKBasicFiltersGeneratedHeaders_8h.html" target="_top" xlink:title=" ">
<polygon fill="white" stroke="black" points="931.52,-56.5 931.52,-86.5 1104.52,-86.5 1104.52,-56.5 931.52,-56.5"/>
<text text-anchor="start" x="939.52" y="-74.5" font-family="Helvetica,sans-Serif" font-size="10.00">SimpleITKBasicFiltersGenerated</text>
<text text-anchor="middle" x="1018.02" y="-63.5" font-family="Helvetica,sans-Serif" font-size="10.00">Headers.h</text>
</a>
</g>
</g>
<!-- Node4&#45;&gt;Node5 -->
<g id="edge4" class="edge">
<title>Node4&#45;&gt;Node5</title>
<path fill="none" stroke="midnightblue" d="M1174.15,-125.63C1141.77,-114.61 1093.52,-98.19 1059.25,-86.53"/>
<polygon fill="midnightblue" stroke="midnightblue" points="1173.07,-128.96 1183.66,-128.87 1175.32,-122.33 1173.07,-128.96"/>
</g>
<!-- Node6 -->
<g id="node6" class="node">
<title>Node6</title>
<g id="a_node6"><a xlink:href="include_2SimpleITKBasicFiltersGeneratedHeaders_8h.html" target="_top" xlink:title=" ">
<polygon fill="white" stroke="black" points="1122.52,-56.5 1122.52,-86.5 1295.52,-86.5 1295.52,-56.5 1122.52,-56.5"/>
<text text-anchor="start" x="1130.52" y="-74.5" font-family="Helvetica,sans-Serif" font-size="10.00">SimpleITKBasicFiltersGenerated</text>
<text text-anchor="middle" x="1209.02" y="-63.5" font-family="Helvetica,sans-Serif" font-size="10.00">Headers.h</text>
</a>
</g>
</g>
<!-- Node4&#45;&gt;Node6 -->
<g id="edge5" class="edge">
<title>Node4&#45;&gt;Node6</title>
<path fill="none" stroke="midnightblue" d="M1209.02,-118.41C1209.02,-108.22 1209.02,-95.9 1209.02,-86.59"/>
<polygon fill="midnightblue" stroke="midnightblue" points="1205.52,-118.73 1209.02,-128.73 1212.52,-118.73 1205.52,-118.73"/>
</g>
<!-- Node6&#45;&gt;Node3 -->
<g id="edge6" class="edge">
<title>Node6&#45;&gt;Node3</title>
<path fill="none" stroke="midnightblue" d="M1112.2,-55.83C928.11,-34.08 720.18,-19.08 636.59,-13.45"/>
<polygon fill="midnightblue" stroke="midnightblue" points="1111.99,-59.33 1122.33,-57.03 1112.82,-52.38 1111.99,-59.33"/>
</g>
<!-- Node7&#45;&gt;Node5 -->
<g id="edge8" class="edge">
<title>Node7&#45;&gt;Node5</title>
<path fill="none" stroke="midnightblue" d="M1281.97,-121.66C1224.33,-110.92 1148.85,-96.87 1093.37,-86.53"/>
<polygon fill="midnightblue" stroke="midnightblue" points="1281.68,-125.17 1292.16,-123.56 1282.97,-118.28 1281.68,-125.17"/>
</g>
<!-- Node7&#45;&gt;Node6 -->
<g id="edge9" class="edge">
<title>Node7&#45;&gt;Node6</title>
<path fill="none" stroke="midnightblue" d="M1323.38,-119.54C1298.1,-109.14 1266.73,-96.24 1243.24,-86.58"/>
<polygon fill="midnightblue" stroke="midnightblue" points="1322.16,-122.83 1332.74,-123.4 1324.82,-116.35 1322.16,-122.83"/>
</g>
<!-- Node8&#45;&gt;Node5 -->
<g id="edge11" class="edge">
<title>Node8&#45;&gt;Node5</title>
<path fill="none" stroke="midnightblue" d="M1448.91,-122.75C1300.08,-102.76 1260.21,-105.84 1114.02,-87 1110.93,-86.6 1107.79,-86.18 1104.61,-85.75"/>
<polygon fill="midnightblue" stroke="midnightblue" points="1448.49,-126.23 1458.87,-124.1 1449.43,-119.29 1448.49,-126.23"/>
</g>
<!-- Node8&#45;&gt;Node6 -->
<g id="edge12" class="edge">
<title>Node8&#45;&gt;Node6</title>
<path fill="none" stroke="midnightblue" d="M1457.12,-121.52C1402.92,-110.81 1332.22,-96.84 1280.16,-86.55"/>
<polygon fill="midnightblue" stroke="midnightblue" points="1456.55,-124.97 1467.04,-123.48 1457.91,-118.1 1456.55,-124.97"/>
</g>
<!-- Node9&#45;&gt;Node5 -->
<g id="edge14" class="edge">
<title>Node9&#45;&gt;Node5</title>
<path fill="none" stroke="midnightblue" d="M1660.45,-127.5C1649.04,-125.83 1637.18,-124.24 1626.02,-123 1399.31,-97.77 1340.76,-112.05 1114.02,-87 1110.93,-86.66 1107.77,-86.29 1104.59,-85.9"/>
<polygon fill="midnightblue" stroke="midnightblue" points="1659.94,-130.96 1670.34,-128.98 1660.97,-124.04 1659.94,-130.96"/>
</g>
<!-- Node9&#45;&gt;Node6 -->
<g id="edge15" class="edge">
<title>Node9&#45;&gt;Node6</title>
<path fill="none" stroke="midnightblue" d="M1656.68,-127.4C1646.43,-125.87 1635.94,-124.36 1626.02,-123 1512.05,-107.4 1380.2,-91.85 1295.78,-82.21"/>
<polygon fill="midnightblue" stroke="midnightblue" points="1656.4,-130.9 1666.81,-128.93 1657.44,-123.98 1656.4,-130.9"/>
</g>
<!-- Node10&#45;&gt;Node5 -->
<g id="edge17" class="edge">
<title>Node10&#45;&gt;Node5</title>
<path fill="none" stroke="midnightblue" d="M1814.87,-122.97C1503.75,-89.3 1421.52,-118.03 1114.02,-87 1110.92,-86.69 1107.77,-86.34 1104.58,-85.98"/>
<polygon fill="midnightblue" stroke="midnightblue" points="1814.77,-126.48 1825.09,-124.09 1815.53,-119.52 1814.77,-126.48"/>
</g>
<!-- Node10&#45;&gt;Node6 -->
<g id="edge18" class="edge">
<title>Node10&#45;&gt;Node6</title>
<path fill="none" stroke="midnightblue" d="M1815.12,-122.96C1623.98,-99.1 1411.71,-84.39 1295.72,-77.36"/>
<polygon fill="midnightblue" stroke="midnightblue" points="1814.71,-126.43 1825.07,-124.21 1815.59,-119.49 1814.71,-126.43"/>
</g>
<!-- Node11&#45;&gt;Node5 -->
<g id="edge20" class="edge">
<title>Node11&#45;&gt;Node5</title>
<path fill="none" stroke="midnightblue" d="M2019.83,-127.4C2008.66,-125.68 1997,-124.11 1986.02,-123 1600.1,-84.08 1500.14,-124.02 1114.02,-87 1110.92,-86.7 1107.76,-86.37 1104.58,-86.02"/>
<polygon fill="midnightblue" stroke="midnightblue" points="2019.49,-130.89 2029.91,-128.99 2020.59,-123.97 2019.49,-130.89"/>
</g>
<!-- Node11&#45;&gt;Node6 -->
<g id="edge21" class="edge">
<title>Node11&#45;&gt;Node6</title>
<path fill="none" stroke="midnightblue" d="M2018.37,-127.38C2007.64,-125.73 1996.51,-124.18 1986.02,-123 1736.34,-94.84 1439.61,-80.95 1295.79,-75.45"/>
<polygon fill="midnightblue" stroke="midnightblue" points="2018.07,-130.88 2028.5,-128.98 2019.17,-123.96 2018.07,-130.88"/>
</g>
<!-- Node12&#45;&gt;Node5 -->
<g id="edge23" class="edge">
<title>Node12&#45;&gt;Node5</title>
<path fill="none" stroke="midnightblue" d="M2165.25,-122.92C1699.85,-72.35 1577.01,-129.74 1114.02,-87 1110.92,-86.71 1107.76,-86.39 1104.58,-86.04"/>
<polygon fill="midnightblue" stroke="midnightblue" points="2164.93,-126.4 2175.26,-124.01 2165.7,-119.44 2164.93,-126.4"/>
</g>
<!-- Node12&#45;&gt;Node6 -->
<g id="edge24" class="edge">
<title>Node12&#45;&gt;Node6</title>
<path fill="none" stroke="midnightblue" d="M2165.14,-122.87C1839.41,-84.45 1462.23,-75.39 1295.56,-73.2"/>
<polygon fill="midnightblue" stroke="midnightblue" points="2164.9,-126.37 2175.25,-124.08 2165.73,-119.42 2164.9,-126.37"/>
</g>
<!-- Node13&#45;&gt;Node5 -->
<g id="edge26" class="edge">
<title>Node13&#45;&gt;Node5</title>
<path fill="none" stroke="midnightblue" d="M126.12,-127.03C134.39,-125.47 142.93,-124.05 151.02,-123 435.14,-86.3 775.1,-76.26 931.51,-73.52"/>
<polygon fill="midnightblue" stroke="midnightblue" points="125.37,-123.61 116.23,-128.97 126.72,-130.48 125.37,-123.61"/>
</g>
<!-- Node13&#45;&gt;Node6 -->
<g id="edge27" class="edge">
<title>Node13&#45;&gt;Node6</title>
<path fill="none" stroke="midnightblue" d="M125.55,-126.99C133.99,-125.41 142.74,-123.98 151.02,-123 576.34,-72.56 687.63,-127.38 1114.02,-87 1116.77,-86.74 1119.55,-86.45 1122.35,-86.15"/>
<polygon fill="midnightblue" stroke="midnightblue" points="124.61,-123.61 115.47,-128.97 125.96,-130.48 124.61,-123.61"/>
</g>
<!-- Node14&#45;&gt;Node5 -->
<g id="edge29" class="edge">
<title>Node14&#45;&gt;Node5</title>
<path fill="none" stroke="midnightblue" d="M302.01,-127.46C312.97,-125.81 324.33,-124.24 335.02,-123 548.66,-98.31 801.37,-83.3 931.29,-76.62"/>
<polygon fill="midnightblue" stroke="midnightblue" points="301.45,-124.01 292.1,-129 302.52,-130.93 301.45,-124.01"/>
</g>
<!-- Node14&#45;&gt;Node6 -->
<g id="edge30" class="edge">
<title>Node14&#45;&gt;Node6</title>
<path fill="none" stroke="midnightblue" d="M300.86,-127.39C312.16,-125.7 323.94,-124.13 335.02,-123 679.84,-87.97 769.12,-121.19 1114.02,-87 1116.76,-86.73 1119.55,-86.43 1122.35,-86.11"/>
<polygon fill="midnightblue" stroke="midnightblue" points="299.99,-123.98 290.64,-128.97 301.06,-130.9 299.99,-123.98"/>
</g>
<!-- Node15&#45;&gt;Node5 -->
<g id="edge32" class="edge">
<title>Node15&#45;&gt;Node5</title>
<path fill="none" stroke="midnightblue" d="M509.91,-122.8C663.6,-102.53 831.71,-87.46 931.19,-79.28"/>
<polygon fill="midnightblue" stroke="midnightblue" points="509.26,-119.35 499.8,-124.14 510.18,-126.29 509.26,-119.35"/>
</g>
<!-- Node15&#45;&gt;Node6 -->
<g id="edge33" class="edge">
<title>Node15&#45;&gt;Node6</title>
<path fill="none" stroke="midnightblue" d="M509.81,-122.87C777.84,-93.08 848.99,-115.04 1114.02,-87 1116.76,-86.71 1119.54,-86.4 1122.35,-86.07"/>
<polygon fill="midnightblue" stroke="midnightblue" points="509.33,-119.41 499.79,-124 510.12,-126.36 509.33,-119.41"/>
</g>
<!-- Node16&#45;&gt;Node5 -->
<g id="edge35" class="edge">
<title>Node16&#45;&gt;Node5</title>
<path fill="none" stroke="midnightblue" d="M648.37,-127.27C656.96,-125.8 665.72,-124.33 674.02,-123 761.48,-108.94 861.71,-94.41 931.33,-84.56"/>
<polygon fill="midnightblue" stroke="midnightblue" points="647.65,-123.85 638.39,-129 648.84,-130.74 647.65,-123.85"/>
</g>
<!-- Node16&#45;&gt;Node6 -->
<g id="edge36" class="edge">
<title>Node16&#45;&gt;Node6</title>
<path fill="none" stroke="midnightblue" d="M645.43,-127.26C654.94,-125.68 664.75,-124.19 674.02,-123 868.65,-98.09 919.15,-109.82 1114.02,-87 1116.76,-86.68 1119.54,-86.34 1122.34,-85.99"/>
<polygon fill="midnightblue" stroke="midnightblue" points="644.55,-123.86 635.28,-129 645.72,-130.76 644.55,-123.86"/>
</g>
<!-- Node17&#45;&gt;Node5 -->
<g id="edge38" class="edge">
<title>Node17&#45;&gt;Node5</title>
<path fill="none" stroke="midnightblue" d="M800.45,-126.48C844.8,-115.47 913.13,-98.52 961.36,-86.56"/>
<polygon fill="midnightblue" stroke="midnightblue" points="799.41,-123.13 790.55,-128.94 801.09,-129.92 799.41,-123.13"/>
</g>
<!-- Node17&#45;&gt;Node6 -->
<g id="edge39" class="edge">
<title>Node17&#45;&gt;Node6</title>
<path fill="none" stroke="midnightblue" d="M812.33,-127.2C820.93,-125.72 829.71,-124.28 838.02,-123 960.3,-104.22 991.54,-104.33 1114.02,-87 1116.75,-86.61 1119.52,-86.22 1122.31,-85.81"/>
<polygon fill="midnightblue" stroke="midnightblue" points="811.62,-123.77 802.37,-128.93 812.82,-130.66 811.62,-123.77"/>
</g>
<!-- Node18&#45;&gt;Node5 -->
<g id="edge41" class="edge">
<title>Node18&#45;&gt;Node5</title>
<path fill="none" stroke="midnightblue" d="M946.6,-118.02C962.47,-107.9 981.51,-95.77 995.94,-86.58"/>
<polygon fill="midnightblue" stroke="midnightblue" points="944.71,-115.07 938.16,-123.4 948.47,-120.97 944.71,-115.07"/>
</g>
<!-- Node18&#45;&gt;Node6 -->
<g id="edge42" class="edge">
<title>Node18&#45;&gt;Node6</title>
<path fill="none" stroke="midnightblue" d="M989.28,-121.25C1037.39,-110.58 1099.7,-96.75 1145.67,-86.55"/>
<polygon fill="midnightblue" stroke="midnightblue" points="988.25,-117.89 979.24,-123.48 989.76,-124.73 988.25,-117.89"/>
</g>
<!-- Node19&#45;&gt;Node5 -->
<g id="edge44" class="edge">
<title>Node19&#45;&gt;Node5</title>
<path fill="none" stroke="midnightblue" d="M1051.89,-120.35C1044.44,-109.82 1035.01,-96.5 1028,-86.59"/>
<polygon fill="midnightblue" stroke="midnightblue" points="1049.19,-122.59 1057.82,-128.73 1054.9,-118.55 1049.19,-122.59"/>
</g>
<!-- Node19&#45;&gt;Node6 -->
<g id="edge45" class="edge">
<title>Node19&#45;&gt;Node6</title>
<path fill="none" stroke="midnightblue" d="M1092.43,-124.77C1116.97,-113.77 1152.38,-97.89 1177.73,-86.53"/>
<polygon fill="midnightblue" stroke="midnightblue" points="1090.97,-121.58 1083.28,-128.87 1093.84,-127.97 1090.97,-121.58"/>
</g>
</g>
</svg>
