<?xml version="1.0" encoding="UTF-8" standalone="no"?>
<!DOCTYPE svg PUBLIC "-//W3C//DTD SVG 1.1//EN"
 "http://www.w3.org/Graphics/SVG/1.1/DTD/svg11.dtd">
<!-- Generated by graphviz version 2.43.0 (0)
 -->
<!-- Title: sitkImageRegistrationMethod.h Pages: 1 -->
<svg width="1848pt" height="543pt"
 viewBox="0.00 0.00 1848.00 543.00" xmlns="http://www.w3.org/2000/svg" xmlns:xlink="http://www.w3.org/1999/xlink">
<g id="graph0" class="graph" transform="scale(1 1) rotate(0) translate(4 539)">
<title>sitkImageRegistrationMethod.h</title>
<polygon fill="white" stroke="transparent" points="-4,4 -4,-539 1844,-539 1844,4 -4,4"/>
<!-- Node1 -->
<g id="node1" class="node">
<title>Node1</title>
<g id="a_node1"><a xlink:title=" ">
<polygon fill="#bfbfbf" stroke="black" points="1080.5,-515.5 1080.5,-534.5 1250.5,-534.5 1250.5,-515.5 1080.5,-515.5"/>
<text text-anchor="middle" x="1165.5" y="-522.5" font-family="Helvetica,sans-Serif" font-size="10.00">sitkImageRegistrationMethod.h</text>
</a>
</g>
</g>
<!-- Node2 -->
<g id="node2" class="node">
<title>Node2</title>
<g id="a_node2"><a xlink:href="sitkRegistration_8h.html" target="_top" xlink:title=" ">
<polygon fill="white" stroke="black" points="1737,-347.5 1737,-366.5 1840,-366.5 1840,-347.5 1737,-347.5"/>
<text text-anchor="middle" x="1788.5" y="-354.5" font-family="Helvetica,sans-Serif" font-size="10.00">sitkRegistration.h</text>
</a>
</g>
</g>
<!-- Node1&#45;&gt;Node2 -->
<g id="edge1" class="edge">
<title>Node1&#45;&gt;Node2</title>
<path fill="none" stroke="midnightblue" d="M1250.72,-521.23C1395.12,-515.93 1676.02,-502.69 1714.5,-479 1752.82,-455.41 1774.14,-403.84 1783.2,-376.26"/>
<polygon fill="midnightblue" stroke="midnightblue" points="1786.56,-377.25 1786.18,-366.66 1779.87,-375.18 1786.56,-377.25"/>
</g>
<!-- Node10 -->
<g id="node10" class="node">
<title>Node10</title>
<g id="a_node10"><a xlink:href="sitkDetail_8h.html" target="_top" xlink:title=" ">
<polygon fill="white" stroke="black" points="435,-291.5 435,-310.5 508,-310.5 508,-291.5 435,-291.5"/>
<text text-anchor="middle" x="471.5" y="-298.5" font-family="Helvetica,sans-Serif" font-size="10.00">sitkDetail.h</text>
</a>
</g>
</g>
<!-- Node1&#45;&gt;Node10 -->
<g id="edge9" class="edge">
<title>Node1&#45;&gt;Node10</title>
<path fill="none" stroke="midnightblue" d="M1080.28,-515.69C1022.85,-508.85 945.77,-497.26 879.5,-479 750.68,-443.5 722.27,-422 600.5,-367 563.82,-350.43 522.43,-329.09 496.65,-315.47"/>
<polygon fill="midnightblue" stroke="midnightblue" points="498.05,-312.25 487.58,-310.66 494.77,-318.44 498.05,-312.25"/>
</g>
<!-- Node22 -->
<g id="node22" class="node">
<title>Node22</title>
<g id="a_node22"><a xlink:href="sitkImage_8h.html" target="_top" xlink:title=" ">
<polygon fill="white" stroke="black" points="1157.5,-347.5 1157.5,-366.5 1231.5,-366.5 1231.5,-347.5 1157.5,-347.5"/>
<text text-anchor="middle" x="1194.5" y="-354.5" font-family="Helvetica,sans-Serif" font-size="10.00">sitkImage.h</text>
</a>
</g>
</g>
<!-- Node1&#45;&gt;Node22 -->
<g id="edge29" class="edge">
<title>Node1&#45;&gt;Node22</title>
<path fill="none" stroke="midnightblue" d="M1167.06,-515.08C1171.62,-488.95 1185.03,-412.21 1191.25,-376.58"/>
<polygon fill="midnightblue" stroke="midnightblue" points="1194.73,-377.02 1193,-366.57 1187.83,-375.82 1194.73,-377.02"/>
</g>
<!-- Node28 -->
<g id="node28" class="node">
<title>Node28</title>
<g id="a_node28"><a xlink:href="sitkPixelIDTokens_8h.html" target="_top" xlink:title=" ">
<polygon fill="white" stroke="black" points="830.5,-291.5 830.5,-310.5 940.5,-310.5 940.5,-291.5 830.5,-291.5"/>
<text text-anchor="middle" x="885.5" y="-298.5" font-family="Helvetica,sans-Serif" font-size="10.00">sitkPixelIDTokens.h</text>
</a>
</g>
</g>
<!-- Node1&#45;&gt;Node28 -->
<g id="edge55" class="edge">
<title>Node1&#45;&gt;Node28</title>
<path fill="none" stroke="midnightblue" d="M1154.42,-515.4C1132.07,-498.01 1079.98,-457.44 1036.5,-423 988.53,-385 932.38,-339.82 903.97,-316.91"/>
<polygon fill="midnightblue" stroke="midnightblue" points="906.07,-314.1 896.09,-310.55 901.67,-319.55 906.07,-314.1"/>
</g>
<!-- Node32 -->
<g id="node32" class="node">
<title>Node32</title>
<g id="a_node32"><a xlink:href="sitkInterpolator_8h.html" target="_top" xlink:title=" ">
<polygon fill="white" stroke="black" points="1300.5,-291.5 1300.5,-310.5 1400.5,-310.5 1400.5,-291.5 1300.5,-291.5"/>
<text text-anchor="middle" x="1350.5" y="-298.5" font-family="Helvetica,sans-Serif" font-size="10.00">sitkInterpolator.h</text>
</a>
</g>
</g>
<!-- Node1&#45;&gt;Node32 -->
<g id="edge79" class="edge">
<title>Node1&#45;&gt;Node32</title>
<path fill="none" stroke="midnightblue" d="M1205.15,-515.45C1250.15,-503.39 1321.46,-476.58 1353.5,-423 1372.57,-391.11 1363.86,-345.54 1356.65,-320.41"/>
<polygon fill="midnightblue" stroke="midnightblue" points="1359.95,-319.22 1353.65,-310.7 1353.26,-321.29 1359.95,-319.22"/>
</g>
<!-- Node34 -->
<g id="node34" class="node">
<title>Node34</title>
<g id="a_node34"><a xlink:href="sitkMemberFunctionFactory_8h.html" target="_top" xlink:title=" ">
<polygon fill="white" stroke="black" points="610,-347.5 610,-366.5 769,-366.5 769,-347.5 610,-347.5"/>
<text text-anchor="middle" x="689.5" y="-354.5" font-family="Helvetica,sans-Serif" font-size="10.00">sitkMemberFunctionFactory.h</text>
</a>
</g>
</g>
<!-- Node1&#45;&gt;Node34 -->
<g id="edge56" class="edge">
<title>Node1&#45;&gt;Node34</title>
<path fill="none" stroke="midnightblue" d="M1095.15,-515.49C1048.24,-508.58 985.67,-497 932.5,-479 847.21,-450.13 753.89,-396.96 712.02,-371.84"/>
<polygon fill="midnightblue" stroke="midnightblue" points="713.8,-368.82 703.43,-366.64 710.17,-374.81 713.8,-368.82"/>
</g>
<!-- Node36 -->
<g id="node36" class="node">
<title>Node36</title>
<g id="a_node36"><a xlink:href="sitkProcessObject_8h.html" target="_top" xlink:title=" ">
<polygon fill="white" stroke="black" points="1410,-459.5 1410,-478.5 1523,-478.5 1523,-459.5 1410,-459.5"/>
<text text-anchor="middle" x="1466.5" y="-466.5" font-family="Helvetica,sans-Serif" font-size="10.00">sitkProcessObject.h</text>
</a>
</g>
</g>
<!-- Node1&#45;&gt;Node36 -->
<g id="edge65" class="edge">
<title>Node1&#45;&gt;Node36</title>
<path fill="none" stroke="midnightblue" d="M1213.19,-515.44C1266.36,-505.9 1352.32,-490.48 1409.13,-480.29"/>
<polygon fill="midnightblue" stroke="midnightblue" points="1409.8,-483.73 1419.03,-478.52 1408.57,-476.84 1409.8,-483.73"/>
</g>
<!-- Node41 -->
<g id="node41" class="node">
<title>Node41</title>
<g id="a_node41"><a xlink:href="sitkRandomSeed_8h.html" target="_top" xlink:title=" ">
<polygon fill="white" stroke="black" points="1597.5,-459.5 1597.5,-478.5 1705.5,-478.5 1705.5,-459.5 1597.5,-459.5"/>
<text text-anchor="middle" x="1651.5" y="-466.5" font-family="Helvetica,sans-Serif" font-size="10.00">sitkRandomSeed.h</text>
</a>
</g>
</g>
<!-- Node1&#45;&gt;Node41 -->
<g id="edge77" class="edge">
<title>Node1&#45;&gt;Node41</title>
<path fill="none" stroke="midnightblue" d="M1242.24,-515.47C1337.54,-504.88 1498.37,-487.01 1587.39,-477.12"/>
<polygon fill="midnightblue" stroke="midnightblue" points="1587.81,-480.6 1597.36,-476.02 1587.03,-473.64 1587.81,-480.6"/>
</g>
<!-- Node42 -->
<g id="node42" class="node">
<title>Node42</title>
<g id="a_node42"><a xlink:href="sitkTransform_8h.html" target="_top" xlink:title=" ">
<polygon fill="white" stroke="black" points="1045.5,-403.5 1045.5,-422.5 1137.5,-422.5 1137.5,-403.5 1045.5,-403.5"/>
<text text-anchor="middle" x="1091.5" y="-410.5" font-family="Helvetica,sans-Serif" font-size="10.00">sitkTransform.h</text>
</a>
</g>
</g>
<!-- Node1&#45;&gt;Node42 -->
<g id="edge80" class="edge">
<title>Node1&#45;&gt;Node42</title>
<path fill="none" stroke="midnightblue" d="M1159.69,-515.37C1147.48,-497.22 1118.95,-454.8 1102.93,-430.99"/>
<polygon fill="midnightblue" stroke="midnightblue" points="1105.77,-428.94 1097.28,-422.59 1099.96,-432.84 1105.77,-428.94"/>
</g>
<!-- Node3 -->
<g id="node3" class="node">
<title>Node3</title>
<g id="a_node3"><a xlink:href="sitkMacro_8h.html" target="_top" xlink:title=" ">
<polygon fill="white" stroke="black" points="895.5,-56.5 895.5,-75.5 969.5,-75.5 969.5,-56.5 895.5,-56.5"/>
<text text-anchor="middle" x="932.5" y="-63.5" font-family="Helvetica,sans-Serif" font-size="10.00">sitkMacro.h</text>
</a>
</g>
</g>
<!-- Node2&#45;&gt;Node3 -->
<g id="edge2" class="edge">
<title>Node2&#45;&gt;Node3</title>
<path fill="none" stroke="midnightblue" d="M1788.25,-347.31C1787.71,-328.06 1786.5,-280.41 1786.5,-240.5 1786.5,-240.5 1786.5,-240.5 1786.5,-177 1786.5,-95.01 1159.35,-72.76 979.93,-68.08"/>
<polygon fill="midnightblue" stroke="midnightblue" points="979.83,-64.57 969.74,-67.82 979.65,-71.57 979.83,-64.57"/>
</g>
<!-- Node4 -->
<g id="node4" class="node">
<title>Node4</title>
<g id="a_node4"><a xlink:title=" ">
<polygon fill="white" stroke="#bfbfbf" points="675,-0.5 675,-19.5 728,-19.5 728,-0.5 675,-0.5"/>
<text text-anchor="middle" x="701.5" y="-7.5" font-family="Helvetica,sans-Serif" font-size="10.00">stdint.h</text>
</a>
</g>
</g>
<!-- Node3&#45;&gt;Node4 -->
<g id="edge3" class="edge">
<title>Node3&#45;&gt;Node4</title>
<path fill="none" stroke="midnightblue" d="M895.9,-56.44C852.67,-46.34 781.21,-29.63 738.02,-19.54"/>
<polygon fill="midnightblue" stroke="midnightblue" points="738.74,-16.11 728.21,-17.24 737.15,-22.93 738.74,-16.11"/>
</g>
<!-- Node5 -->
<g id="node5" class="node">
<title>Node5</title>
<g id="a_node5"><a xlink:title=" ">
<polygon fill="white" stroke="#bfbfbf" points="833.5,-0.5 833.5,-19.5 889.5,-19.5 889.5,-0.5 833.5,-0.5"/>
<text text-anchor="middle" x="861.5" y="-7.5" font-family="Helvetica,sans-Serif" font-size="10.00">stddef.h</text>
</a>
</g>
</g>
<!-- Node3&#45;&gt;Node5 -->
<g id="edge4" class="edge">
<title>Node3&#45;&gt;Node5</title>
<path fill="none" stroke="midnightblue" d="M921.09,-56.32C910.39,-48.18 894.16,-35.84 881.34,-26.09"/>
<polygon fill="midnightblue" stroke="midnightblue" points="883.19,-23.1 873.11,-19.83 878.96,-28.67 883.19,-23.1"/>
</g>
<!-- Node6 -->
<g id="node6" class="node">
<title>Node6</title>
<g id="a_node6"><a xlink:title=" ">
<polygon fill="white" stroke="#bfbfbf" points="763.5,-0.5 763.5,-19.5 815.5,-19.5 815.5,-0.5 763.5,-0.5"/>
<text text-anchor="middle" x="789.5" y="-7.5" font-family="Helvetica,sans-Serif" font-size="10.00">cassert</text>
</a>
</g>
</g>
<!-- Node3&#45;&gt;Node6 -->
<g id="edge5" class="edge">
<title>Node3&#45;&gt;Node6</title>
<path fill="none" stroke="midnightblue" d="M909.84,-56.44C886.1,-47.48 848.59,-33.31 821.76,-23.18"/>
<polygon fill="midnightblue" stroke="midnightblue" points="822.64,-19.77 812.05,-19.52 820.17,-26.32 822.64,-19.77"/>
</g>
<!-- Node7 -->
<g id="node7" class="node">
<title>Node7</title>
<g id="a_node7"><a xlink:title=" ">
<polygon fill="white" stroke="#bfbfbf" points="907.5,-0.5 907.5,-19.5 963.5,-19.5 963.5,-0.5 907.5,-0.5"/>
<text text-anchor="middle" x="935.5" y="-7.5" font-family="Helvetica,sans-Serif" font-size="10.00">sstream</text>
</a>
</g>
</g>
<!-- Node3&#45;&gt;Node7 -->
<g id="edge6" class="edge">
<title>Node3&#45;&gt;Node7</title>
<path fill="none" stroke="midnightblue" d="M933,-56.08C933.39,-49.01 933.95,-38.86 934.45,-29.99"/>
<polygon fill="midnightblue" stroke="midnightblue" points="937.95,-29.93 935.01,-19.75 930.96,-29.54 937.95,-29.93"/>
</g>
<!-- Node8 -->
<g id="node8" class="node">
<title>Node8</title>
<g id="a_node8"><a xlink:title=" ">
<polygon fill="white" stroke="#bfbfbf" points="981.5,-0.5 981.5,-19.5 1025.5,-19.5 1025.5,-0.5 981.5,-0.5"/>
<text text-anchor="middle" x="1003.5" y="-7.5" font-family="Helvetica,sans-Serif" font-size="10.00">limits</text>
</a>
</g>
</g>
<!-- Node3&#45;&gt;Node8 -->
<g id="edge7" class="edge">
<title>Node3&#45;&gt;Node8</title>
<path fill="none" stroke="midnightblue" d="M943.91,-56.32C954.61,-48.18 970.84,-35.84 983.66,-26.09"/>
<polygon fill="midnightblue" stroke="midnightblue" points="986.04,-28.67 991.89,-19.83 981.81,-23.1 986.04,-28.67"/>
</g>
<!-- Node9 -->
<g id="node9" class="node">
<title>Node9</title>
<g id="a_node9"><a xlink:href="sitkConfigure_8h.html" target="_top" xlink:title=" ">
<polygon fill="white" stroke="black" points="532.5,-0.5 532.5,-19.5 622.5,-19.5 622.5,-0.5 532.5,-0.5"/>
<text text-anchor="middle" x="577.5" y="-7.5" font-family="Helvetica,sans-Serif" font-size="10.00">sitkConfigure.h</text>
</a>
</g>
</g>
<!-- Node3&#45;&gt;Node9 -->
<g id="edge8" class="edge">
<title>Node3&#45;&gt;Node9</title>
<path fill="none" stroke="midnightblue" d="M895.18,-59.32C832.44,-49.78 705.56,-30.48 632.56,-19.38"/>
<polygon fill="midnightblue" stroke="midnightblue" points="633.04,-15.91 622.63,-17.86 631.99,-22.83 633.04,-15.91"/>
</g>
<!-- Node11 -->
<g id="node11" class="node">
<title>Node11</title>
<g id="a_node11"><a xlink:href="sitkMemberFunctionFactoryBase_8h.html" target="_top" xlink:title=" ">
<polygon fill="white" stroke="black" points="387.5,-224.5 387.5,-254.5 539.5,-254.5 539.5,-224.5 387.5,-224.5"/>
<text text-anchor="start" x="395.5" y="-242.5" font-family="Helvetica,sans-Serif" font-size="10.00">sitkMemberFunctionFactory</text>
<text text-anchor="middle" x="463.5" y="-231.5" font-family="Helvetica,sans-Serif" font-size="10.00">Base.h</text>
</a>
</g>
</g>
<!-- Node10&#45;&gt;Node11 -->
<g id="edge10" class="edge">
<title>Node10&#45;&gt;Node11</title>
<path fill="none" stroke="midnightblue" d="M470.35,-291.48C469.41,-284.47 468.03,-274.19 466.75,-264.7"/>
<polygon fill="midnightblue" stroke="midnightblue" points="470.19,-263.97 465.39,-254.52 463.25,-264.9 470.19,-263.97"/>
</g>
<!-- Node18 -->
<g id="node18" class="node">
<title>Node18</title>
<g id="a_node18"><a xlink:title=" ">
<polygon fill="white" stroke="#bfbfbf" points="0,-168.5 0,-187.5 139,-187.5 139,-168.5 0,-168.5"/>
<text text-anchor="middle" x="69.5" y="-175.5" font-family="Helvetica,sans-Serif" font-size="10.00">Ancillary/FunctionTraits.h</text>
</a>
</g>
</g>
<!-- Node10&#45;&gt;Node18 -->
<g id="edge28" class="edge">
<title>Node10&#45;&gt;Node18</title>
<path fill="none" stroke="midnightblue" d="M443.23,-291.49C372.53,-270.21 187.99,-214.66 107.72,-190.5"/>
<polygon fill="midnightblue" stroke="midnightblue" points="108.59,-187.11 98.01,-187.58 106.57,-193.81 108.59,-187.11"/>
</g>
<!-- Node11&#45;&gt;Node3 -->
<g id="edge19" class="edge">
<title>Node11&#45;&gt;Node3</title>
<path fill="none" stroke="midnightblue" d="M527.27,-224.48C565.24,-215.48 614.13,-202.73 656.5,-188 750.82,-155.21 857.9,-104.06 906.3,-80.15"/>
<polygon fill="midnightblue" stroke="midnightblue" points="908.04,-83.19 915.44,-75.61 904.93,-76.92 908.04,-83.19"/>
</g>
<!-- Node11&#45;&gt;Node9 -->
<g id="edge11" class="edge">
<title>Node11&#45;&gt;Node9</title>
<path fill="none" stroke="midnightblue" d="M387.45,-235.26C314.45,-230.36 211.67,-218.17 186.5,-188 180.81,-181.17 181.99,-175.66 186.5,-168 255.85,-50.26 432.18,-20.75 522.44,-13.4"/>
<polygon fill="midnightblue" stroke="midnightblue" points="522.77,-16.89 532.48,-12.65 522.25,-9.91 522.77,-16.89"/>
</g>
<!-- Node12 -->
<g id="node12" class="node">
<title>Node12</title>
<g id="a_node12"><a xlink:href="sitkPixelIDTypes_8h.html" target="_top" xlink:title=" ">
<polygon fill="white" stroke="black" points="297,-112.5 297,-131.5 402,-131.5 402,-112.5 297,-112.5"/>
<text text-anchor="middle" x="349.5" y="-119.5" font-family="Helvetica,sans-Serif" font-size="10.00">sitkPixelIDTypes.h</text>
</a>
</g>
</g>
<!-- Node11&#45;&gt;Node12 -->
<g id="edge12" class="edge">
<title>Node11&#45;&gt;Node12</title>
<path fill="none" stroke="midnightblue" d="M461.92,-224.48C459.52,-209.01 453.61,-184.17 439.5,-168 426.32,-152.9 406.87,-142.29 389.42,-135.19"/>
<polygon fill="midnightblue" stroke="midnightblue" points="390.58,-131.88 379.99,-131.59 388.09,-138.43 390.58,-131.88"/>
</g>
<!-- Node13 -->
<g id="node13" class="node">
<title>Node13</title>
<g id="a_node13"><a xlink:href="sitkPixelIDTypeLists_8h.html" target="_top" xlink:title=" ">
<polygon fill="white" stroke="black" points="525.5,-168.5 525.5,-187.5 647.5,-187.5 647.5,-168.5 525.5,-168.5"/>
<text text-anchor="middle" x="586.5" y="-175.5" font-family="Helvetica,sans-Serif" font-size="10.00">sitkPixelIDTypeLists.h</text>
</a>
</g>
</g>
<!-- Node11&#45;&gt;Node13 -->
<g id="edge13" class="edge">
<title>Node11&#45;&gt;Node13</title>
<path fill="none" stroke="midnightblue" d="M492.65,-224.4C512.92,-214.59 539.74,-201.62 559.52,-192.05"/>
<polygon fill="midnightblue" stroke="midnightblue" points="561.12,-195.16 568.6,-187.66 558.08,-188.86 561.12,-195.16"/>
</g>
<!-- Node14 -->
<g id="node14" class="node">
<title>Node14</title>
<g id="a_node14"><a xlink:title=" ">
<polygon fill="white" stroke="#bfbfbf" points="420,-112.5 420,-131.5 531,-131.5 531,-112.5 420,-112.5"/>
<text text-anchor="middle" x="475.5" y="-119.5" font-family="Helvetica,sans-Serif" font-size="10.00">Ancillary/TypeList.h</text>
</a>
</g>
</g>
<!-- Node11&#45;&gt;Node14 -->
<g id="edge23" class="edge">
<title>Node11&#45;&gt;Node14</title>
<path fill="none" stroke="midnightblue" d="M466.93,-224.45C469.23,-214.37 472.09,-200.43 473.5,-188 475.25,-172.56 475.7,-154.92 475.74,-141.92"/>
<polygon fill="midnightblue" stroke="midnightblue" points="479.24,-141.85 475.69,-131.86 472.24,-141.88 479.24,-141.85"/>
</g>
<!-- Node16 -->
<g id="node16" class="node">
<title>Node16</title>
<g id="a_node16"><a xlink:href="sitkNonCopyable_8h.html" target="_top" xlink:title=" ">
<polygon fill="white" stroke="black" points="999,-168.5 999,-187.5 1108,-187.5 1108,-168.5 999,-168.5"/>
<text text-anchor="middle" x="1053.5" y="-175.5" font-family="Helvetica,sans-Serif" font-size="10.00">sitkNonCopyable.h</text>
</a>
</g>
</g>
<!-- Node11&#45;&gt;Node16 -->
<g id="edge20" class="edge">
<title>Node11&#45;&gt;Node16</title>
<path fill="none" stroke="midnightblue" d="M539.73,-230.81C656.82,-219 878.88,-196.61 988.69,-185.54"/>
<polygon fill="midnightblue" stroke="midnightblue" points="989.36,-188.99 998.96,-184.5 988.66,-182.02 989.36,-188.99"/>
</g>
<!-- Node11&#45;&gt;Node18 -->
<g id="edge24" class="edge">
<title>Node11&#45;&gt;Node18</title>
<path fill="none" stroke="midnightblue" d="M387.07,-226.96C314.12,-215.94 205.34,-199.51 135.92,-189.03"/>
<polygon fill="midnightblue" stroke="midnightblue" points="136.38,-185.56 125.97,-187.53 135.33,-192.48 136.38,-185.56"/>
</g>
<!-- Node19 -->
<g id="node19" class="node">
<title>Node19</title>
<g id="a_node19"><a xlink:title=" ">
<polygon fill="white" stroke="#bfbfbf" points="196,-168.5 196,-187.5 289,-187.5 289,-168.5 196,-168.5"/>
<text text-anchor="middle" x="242.5" y="-175.5" font-family="Helvetica,sans-Serif" font-size="10.00">unordered_map</text>
</a>
</g>
</g>
<!-- Node11&#45;&gt;Node19 -->
<g id="edge25" class="edge">
<title>Node11&#45;&gt;Node19</title>
<path fill="none" stroke="midnightblue" d="M411.41,-224.47C372.45,-213.99 319.89,-199.84 283.81,-190.12"/>
<polygon fill="midnightblue" stroke="midnightblue" points="284.66,-186.73 274.1,-187.51 282.84,-193.49 284.66,-186.73"/>
</g>
<!-- Node20 -->
<g id="node20" class="node">
<title>Node20</title>
<g id="a_node20"><a xlink:title=" ">
<polygon fill="white" stroke="#bfbfbf" points="307,-168.5 307,-187.5 372,-187.5 372,-168.5 307,-168.5"/>
<text text-anchor="middle" x="339.5" y="-175.5" font-family="Helvetica,sans-Serif" font-size="10.00">functional</text>
</a>
</g>
</g>
<!-- Node11&#45;&gt;Node20 -->
<g id="edge26" class="edge">
<title>Node11&#45;&gt;Node20</title>
<path fill="none" stroke="midnightblue" d="M434.11,-224.4C413.68,-214.59 386.64,-201.62 366.7,-192.05"/>
<polygon fill="midnightblue" stroke="midnightblue" points="368.07,-188.83 357.54,-187.66 365.04,-195.14 368.07,-188.83"/>
</g>
<!-- Node21 -->
<g id="node21" class="node">
<title>Node21</title>
<g id="a_node21"><a xlink:title=" ">
<polygon fill="white" stroke="#bfbfbf" points="390,-168.5 390,-187.5 431,-187.5 431,-168.5 390,-168.5"/>
<text text-anchor="middle" x="410.5" y="-175.5" font-family="Helvetica,sans-Serif" font-size="10.00">tuple</text>
</a>
</g>
</g>
<!-- Node11&#45;&gt;Node21 -->
<g id="edge27" class="edge">
<title>Node11&#45;&gt;Node21</title>
<path fill="none" stroke="midnightblue" d="M450.94,-224.4C443.16,-215.66 433.14,-204.41 425.02,-195.3"/>
<polygon fill="midnightblue" stroke="midnightblue" points="427.48,-192.8 418.21,-187.66 422.25,-197.45 427.48,-192.8"/>
</g>
<!-- Node13&#45;&gt;Node4 -->
<g id="edge14" class="edge">
<title>Node13&#45;&gt;Node4</title>
<path fill="none" stroke="midnightblue" d="M589.69,-168.21C594.55,-155.35 604.5,-130.88 616.5,-112 637.25,-79.33 667.62,-45.81 685.88,-26.78"/>
<polygon fill="midnightblue" stroke="midnightblue" points="688.44,-29.17 692.9,-19.56 683.42,-24.29 688.44,-29.17"/>
</g>
<!-- Node13&#45;&gt;Node9 -->
<g id="edge15" class="edge">
<title>Node13&#45;&gt;Node9</title>
<path fill="none" stroke="midnightblue" d="M585.88,-168.38C585.24,-159.32 584.24,-144.66 583.5,-132 581.39,-95.73 579.4,-53.32 578.32,-29.56"/>
<polygon fill="midnightblue" stroke="midnightblue" points="581.82,-29.34 577.87,-19.51 574.82,-29.66 581.82,-29.34"/>
</g>
<!-- Node13&#45;&gt;Node12 -->
<g id="edge16" class="edge">
<title>Node13&#45;&gt;Node12</title>
<path fill="none" stroke="midnightblue" d="M548.95,-168.44C507.69,-159.04 441.36,-143.93 396.63,-133.74"/>
<polygon fill="midnightblue" stroke="midnightblue" points="397.41,-130.33 386.88,-131.52 395.85,-137.15 397.41,-130.33"/>
</g>
<!-- Node13&#45;&gt;Node14 -->
<g id="edge17" class="edge">
<title>Node13&#45;&gt;Node14</title>
<path fill="none" stroke="midnightblue" d="M568.67,-168.32C550.78,-159.62 523.02,-146.12 502.45,-136.11"/>
<polygon fill="midnightblue" stroke="midnightblue" points="503.81,-132.88 493.29,-131.65 500.75,-139.18 503.81,-132.88"/>
</g>
<!-- Node15 -->
<g id="node15" class="node">
<title>Node15</title>
<g id="a_node15"><a xlink:title=" ">
<polygon fill="white" stroke="#bfbfbf" points="626,-112.5 626,-131.5 685,-131.5 685,-112.5 626,-112.5"/>
<text text-anchor="middle" x="655.5" y="-119.5" font-family="Helvetica,sans-Serif" font-size="10.00">complex</text>
</a>
</g>
</g>
<!-- Node13&#45;&gt;Node15 -->
<g id="edge18" class="edge">
<title>Node13&#45;&gt;Node15</title>
<path fill="none" stroke="midnightblue" d="M597.59,-168.32C607.99,-160.18 623.76,-147.84 636.22,-138.09"/>
<polygon fill="midnightblue" stroke="midnightblue" points="638.49,-140.75 644.21,-131.83 634.18,-135.24 638.49,-140.75"/>
</g>
<!-- Node17 -->
<g id="node17" class="node">
<title>Node17</title>
<g id="a_node17"><a xlink:href="sitkCommon_8h.html" target="_top" xlink:title=" ">
<polygon fill="white" stroke="black" points="1130.5,-112.5 1130.5,-131.5 1218.5,-131.5 1218.5,-112.5 1130.5,-112.5"/>
<text text-anchor="middle" x="1174.5" y="-119.5" font-family="Helvetica,sans-Serif" font-size="10.00">sitkCommon.h</text>
</a>
</g>
</g>
<!-- Node16&#45;&gt;Node17 -->
<g id="edge21" class="edge">
<title>Node16&#45;&gt;Node17</title>
<path fill="none" stroke="midnightblue" d="M1072.67,-168.44C1092.41,-159.64 1123.39,-145.81 1145.99,-135.72"/>
<polygon fill="midnightblue" stroke="midnightblue" points="1147.71,-138.79 1155.42,-131.52 1144.86,-132.4 1147.71,-138.79"/>
</g>
<!-- Node17&#45;&gt;Node3 -->
<g id="edge22" class="edge">
<title>Node17&#45;&gt;Node3</title>
<path fill="none" stroke="midnightblue" d="M1136.15,-112.44C1093.78,-102.99 1025.5,-87.75 979.82,-77.56"/>
<polygon fill="midnightblue" stroke="midnightblue" points="980.39,-74.1 969.87,-75.34 978.87,-80.93 980.39,-74.1"/>
</g>
<!-- Node22&#45;&gt;Node10 -->
<g id="edge40" class="edge">
<title>Node22&#45;&gt;Node10</title>
<path fill="none" stroke="midnightblue" d="M1157.4,-353.23C1036.35,-344.19 652.98,-315.55 518.59,-305.52"/>
<polygon fill="midnightblue" stroke="midnightblue" points="518.47,-302 508.23,-304.74 517.95,-308.98 518.47,-302"/>
</g>
<!-- Node22&#45;&gt;Node17 -->
<g id="edge30" class="edge">
<title>Node22&#45;&gt;Node17</title>
<path fill="none" stroke="midnightblue" d="M1190.18,-347.3C1186.02,-338.42 1180,-324.13 1177.5,-311 1165.9,-250.19 1169.84,-176.31 1172.66,-142.09"/>
<polygon fill="midnightblue" stroke="midnightblue" points="1176.18,-142 1173.59,-131.73 1169.21,-141.38 1176.18,-142"/>
</g>
<!-- Node23 -->
<g id="node23" class="node">
<title>Node23</title>
<g id="a_node23"><a xlink:href="sitkTemplateFunctions_8h.html" target="_top" xlink:title=" ">
<polygon fill="white" stroke="black" points="1457,-291.5 1457,-310.5 1592,-310.5 1592,-291.5 1457,-291.5"/>
<text text-anchor="middle" x="1524.5" y="-298.5" font-family="Helvetica,sans-Serif" font-size="10.00">sitkTemplateFunctions.h</text>
</a>
</g>
</g>
<!-- Node22&#45;&gt;Node23 -->
<g id="edge31" class="edge">
<title>Node22&#45;&gt;Node23</title>
<path fill="none" stroke="midnightblue" d="M1231.71,-349.91C1287.75,-340.74 1394.45,-323.28 1462.4,-312.16"/>
<polygon fill="midnightblue" stroke="midnightblue" points="1463.24,-315.57 1472.55,-310.5 1462.11,-308.66 1463.24,-315.57"/>
</g>
<!-- Node25 -->
<g id="node25" class="node">
<title>Node25</title>
<g id="a_node25"><a xlink:title=" ">
<polygon fill="white" stroke="#bfbfbf" points="1205,-230 1205,-249 1252,-249 1252,-230 1205,-230"/>
<text text-anchor="middle" x="1228.5" y="-237" font-family="Helvetica,sans-Serif" font-size="10.00">vector</text>
</a>
</g>
</g>
<!-- Node22&#45;&gt;Node25 -->
<g id="edge52" class="edge">
<title>Node22&#45;&gt;Node25</title>
<path fill="none" stroke="midnightblue" d="M1213.48,-347.4C1227.39,-339.95 1245.21,-327.74 1253.5,-311 1262.28,-293.27 1251.75,-271.67 1241.79,-257.09"/>
<polygon fill="midnightblue" stroke="midnightblue" points="1244.59,-254.98 1235.84,-249.01 1238.95,-259.14 1244.59,-254.98"/>
</g>
<!-- Node22&#45;&gt;Node28 -->
<g id="edge41" class="edge">
<title>Node22&#45;&gt;Node28</title>
<path fill="none" stroke="midnightblue" d="M1157.23,-349.49C1104.39,-340.25 1007.18,-323.26 944.49,-312.31"/>
<polygon fill="midnightblue" stroke="midnightblue" points="944.8,-308.81 934.35,-310.54 943.6,-315.71 944.8,-308.81"/>
</g>
<!-- Node31 -->
<g id="node31" class="node">
<title>Node31</title>
<g id="a_node31"><a xlink:title=" ">
<polygon fill="white" stroke="#bfbfbf" points="898,-230 898,-249 967,-249 967,-230 898,-230"/>
<text text-anchor="middle" x="932.5" y="-237" font-family="Helvetica,sans-Serif" font-size="10.00">type_traits</text>
</a>
</g>
</g>
<!-- Node22&#45;&gt;Node31 -->
<g id="edge54" class="edge">
<title>Node22&#45;&gt;Node31</title>
<path fill="none" stroke="midnightblue" d="M1174.81,-347.32C1128.99,-327.12 1015.05,-276.89 961.36,-253.22"/>
<polygon fill="midnightblue" stroke="midnightblue" points="962.63,-249.96 952.06,-249.12 959.8,-256.36 962.63,-249.96"/>
</g>
<!-- Node22&#45;&gt;Node32 -->
<g id="edge49" class="edge">
<title>Node22&#45;&gt;Node32</title>
<path fill="none" stroke="midnightblue" d="M1219.22,-347.44C1245.35,-338.4 1286.76,-324.06 1316.08,-313.92"/>
<polygon fill="midnightblue" stroke="midnightblue" points="1317.59,-317.1 1325.9,-310.52 1315.3,-310.48 1317.59,-317.1"/>
</g>
<!-- Node33 -->
<g id="node33" class="node">
<title>Node33</title>
<g id="a_node33"><a xlink:title=" ">
<polygon fill="white" stroke="#bfbfbf" points="1186.5,-291.5 1186.5,-310.5 1244.5,-310.5 1244.5,-291.5 1186.5,-291.5"/>
<text text-anchor="middle" x="1215.5" y="-298.5" font-family="Helvetica,sans-Serif" font-size="10.00">memory</text>
</a>
</g>
</g>
<!-- Node22&#45;&gt;Node33 -->
<g id="edge53" class="edge">
<title>Node22&#45;&gt;Node33</title>
<path fill="none" stroke="midnightblue" d="M1197.97,-347.08C1200.81,-339.77 1204.93,-329.18 1208.46,-320.1"/>
<polygon fill="midnightblue" stroke="midnightblue" points="1211.73,-321.34 1212.1,-310.75 1205.21,-318.8 1211.73,-321.34"/>
</g>
<!-- Node23&#45;&gt;Node3 -->
<g id="edge32" class="edge">
<title>Node23&#45;&gt;Node3</title>
<path fill="none" stroke="midnightblue" d="M1560.35,-291.4C1579.38,-284.81 1601.13,-273.59 1612.5,-255 1638.26,-212.9 1588.39,-188.51 1543.5,-168 1348.07,-78.71 1085.41,-67.28 979.59,-66.56"/>
<polygon fill="midnightblue" stroke="midnightblue" points="979.56,-63.06 969.55,-66.52 979.53,-70.06 979.56,-63.06"/>
</g>
<!-- Node23&#45;&gt;Node17 -->
<g id="edge33" class="edge">
<title>Node23&#45;&gt;Node17</title>
<path fill="none" stroke="midnightblue" d="M1521.19,-291.43C1515.25,-276.71 1501.78,-246.07 1484.5,-224 1461.4,-194.5 1455.18,-184.41 1421.5,-168 1359.79,-137.93 1280.52,-127.83 1228.65,-124.5"/>
<polygon fill="midnightblue" stroke="midnightblue" points="1228.84,-121.01 1218.66,-123.93 1228.44,-128 1228.84,-121.01"/>
</g>
<!-- Node24 -->
<g id="node24" class="node">
<title>Node24</title>
<g id="a_node24"><a xlink:href="sitkExceptionObject_8h.html" target="_top" xlink:title=" ">
<polygon fill="white" stroke="black" points="985,-230 985,-249 1108,-249 1108,-230 985,-230"/>
<text text-anchor="middle" x="1046.5" y="-237" font-family="Helvetica,sans-Serif" font-size="10.00">sitkExceptionObject.h</text>
</a>
</g>
</g>
<!-- Node23&#45;&gt;Node24 -->
<g id="edge34" class="edge">
<title>Node23&#45;&gt;Node24</title>
<path fill="none" stroke="midnightblue" d="M1456.78,-291.57C1367.16,-280.41 1209.86,-260.83 1118.26,-249.43"/>
<polygon fill="midnightblue" stroke="midnightblue" points="1118.6,-245.95 1108.25,-248.19 1117.74,-252.89 1118.6,-245.95"/>
</g>
<!-- Node23&#45;&gt;Node25 -->
<g id="edge37" class="edge">
<title>Node23&#45;&gt;Node25</title>
<path fill="none" stroke="midnightblue" d="M1482.09,-291.48C1422.89,-279.58 1316.67,-258.22 1262.41,-247.32"/>
<polygon fill="midnightblue" stroke="midnightblue" points="1262.78,-243.82 1252.28,-245.28 1261.4,-250.68 1262.78,-243.82"/>
</g>
<!-- Node26 -->
<g id="node26" class="node">
<title>Node26</title>
<g id="a_node26"><a xlink:title=" ">
<polygon fill="white" stroke="#bfbfbf" points="1356,-168.5 1356,-187.5 1413,-187.5 1413,-168.5 1356,-168.5"/>
<text text-anchor="middle" x="1384.5" y="-175.5" font-family="Helvetica,sans-Serif" font-size="10.00">ostream</text>
</a>
</g>
</g>
<!-- Node23&#45;&gt;Node26 -->
<g id="edge38" class="edge">
<title>Node23&#45;&gt;Node26</title>
<path fill="none" stroke="midnightblue" d="M1481.88,-291.45C1459.01,-284.91 1431.83,-273.72 1413.5,-255 1398.24,-239.43 1390.84,-215 1387.37,-198.06"/>
<polygon fill="midnightblue" stroke="midnightblue" points="1390.73,-196.97 1385.54,-187.73 1383.84,-198.18 1390.73,-196.97"/>
</g>
<!-- Node27 -->
<g id="node27" class="node">
<title>Node27</title>
<g id="a_node27"><a xlink:title=" ">
<polygon fill="white" stroke="#bfbfbf" points="1423,-230 1423,-249 1476,-249 1476,-230 1423,-230"/>
<text text-anchor="middle" x="1449.5" y="-237" font-family="Helvetica,sans-Serif" font-size="10.00">iterator</text>
</a>
</g>
</g>
<!-- Node23&#45;&gt;Node27 -->
<g id="edge39" class="edge">
<title>Node23&#45;&gt;Node27</title>
<path fill="none" stroke="midnightblue" d="M1513.75,-291.48C1501.95,-282.11 1482.76,-266.88 1468.42,-255.51"/>
<polygon fill="midnightblue" stroke="midnightblue" points="1470.24,-252.48 1460.23,-249.01 1465.88,-257.97 1470.24,-252.48"/>
</g>
<!-- Node24&#45;&gt;Node3 -->
<g id="edge35" class="edge">
<title>Node24&#45;&gt;Node3</title>
<path fill="none" stroke="midnightblue" d="M1031.2,-229.88C1016.69,-221.02 995.12,-206.01 981.5,-188 957.43,-156.18 943.3,-110.9 936.81,-85.73"/>
<polygon fill="midnightblue" stroke="midnightblue" points="940.13,-84.58 934.36,-75.69 933.33,-86.24 940.13,-84.58"/>
</g>
<!-- Node24&#45;&gt;Node17 -->
<g id="edge36" class="edge">
<title>Node24&#45;&gt;Node17</title>
<path fill="none" stroke="midnightblue" d="M1030.53,-229.88C1008.08,-216.65 971.8,-190.52 989.5,-168 1005.57,-147.56 1071.74,-135.25 1120.38,-128.79"/>
<polygon fill="midnightblue" stroke="midnightblue" points="1120.99,-132.24 1130.47,-127.5 1120.1,-125.3 1120.99,-132.24"/>
</g>
<!-- Node28&#45;&gt;Node9 -->
<g id="edge42" class="edge">
<title>Node28&#45;&gt;Node9</title>
<path fill="none" stroke="midnightblue" d="M835.7,-291.5C810.66,-285.06 781.3,-273.96 760.5,-255 708.63,-207.72 735.77,-168.03 693.5,-112 666.29,-75.93 624.37,-43.41 599.07,-25.51"/>
<polygon fill="midnightblue" stroke="midnightblue" points="600.77,-22.43 590.56,-19.6 596.78,-28.18 600.77,-22.43"/>
</g>
<!-- Node29 -->
<g id="node29" class="node">
<title>Node29</title>
<g id="a_node29"><a xlink:href="sitkPixelIDValues_8h.html" target="_top" xlink:title=" ">
<polygon fill="white" stroke="black" points="769.5,-230 769.5,-249 879.5,-249 879.5,-230 769.5,-230"/>
<text text-anchor="middle" x="824.5" y="-237" font-family="Helvetica,sans-Serif" font-size="10.00">sitkPixelIDValues.h</text>
</a>
</g>
</g>
<!-- Node28&#45;&gt;Node29 -->
<g id="edge43" class="edge">
<title>Node28&#45;&gt;Node29</title>
<path fill="none" stroke="midnightblue" d="M876.76,-291.48C867.34,-282.28 852.14,-267.46 840.55,-256.16"/>
<polygon fill="midnightblue" stroke="midnightblue" points="842.83,-253.49 833.22,-249.01 837.94,-258.5 842.83,-253.49"/>
</g>
<!-- Node28&#45;&gt;Node31 -->
<g id="edge48" class="edge">
<title>Node28&#45;&gt;Node31</title>
<path fill="none" stroke="midnightblue" d="M892.23,-291.48C899.28,-282.55 910.53,-268.31 919.35,-257.14"/>
<polygon fill="midnightblue" stroke="midnightblue" points="922.33,-259.03 925.78,-249.01 916.83,-254.69 922.33,-259.03"/>
</g>
<!-- Node29&#45;&gt;Node13 -->
<g id="edge45" class="edge">
<title>Node29&#45;&gt;Node13</title>
<path fill="none" stroke="midnightblue" d="M790.4,-229.98C748.25,-219.44 676.45,-201.49 630.27,-189.94"/>
<polygon fill="midnightblue" stroke="midnightblue" points="631.09,-186.54 620.54,-187.51 629.39,-193.33 631.09,-186.54"/>
</g>
<!-- Node29&#45;&gt;Node17 -->
<g id="edge44" class="edge">
<title>Node29&#45;&gt;Node17</title>
<path fill="none" stroke="midnightblue" d="M841.03,-229.79C869.19,-215.25 928.56,-185.87 981.5,-168 1027.28,-152.54 1080.92,-140.5 1120.02,-132.78"/>
<polygon fill="midnightblue" stroke="midnightblue" points="1120.98,-136.16 1130.13,-130.82 1119.65,-129.29 1120.98,-136.16"/>
</g>
<!-- Node29&#45;&gt;Node26 -->
<g id="edge47" class="edge">
<title>Node29&#45;&gt;Node26</title>
<path fill="none" stroke="midnightblue" d="M858.22,-229.98C867.94,-227.77 878.6,-225.56 888.5,-224 1057.63,-197.29 1261.9,-184.98 1345.74,-180.77"/>
<polygon fill="midnightblue" stroke="midnightblue" points="1346,-184.26 1355.82,-180.27 1345.66,-177.27 1346,-184.26"/>
</g>
<!-- Node30 -->
<g id="node30" class="node">
<title>Node30</title>
<g id="a_node30"><a xlink:title=" ">
<polygon fill="white" stroke="#bfbfbf" points="802.5,-168.5 802.5,-187.5 846.5,-187.5 846.5,-168.5 802.5,-168.5"/>
<text text-anchor="middle" x="824.5" y="-175.5" font-family="Helvetica,sans-Serif" font-size="10.00">string</text>
</a>
</g>
</g>
<!-- Node29&#45;&gt;Node30 -->
<g id="edge46" class="edge">
<title>Node29&#45;&gt;Node30</title>
<path fill="none" stroke="midnightblue" d="M824.5,-229.98C824.5,-221.58 824.5,-208.48 824.5,-197.66"/>
<polygon fill="midnightblue" stroke="midnightblue" points="828,-197.51 824.5,-187.51 821,-197.51 828,-197.51"/>
</g>
<!-- Node32&#45;&gt;Node17 -->
<g id="edge50" class="edge">
<title>Node32&#45;&gt;Node17</title>
<path fill="none" stroke="midnightblue" d="M1342.01,-291.46C1314.43,-263.73 1227.05,-175.85 1190.65,-139.24"/>
<polygon fill="midnightblue" stroke="midnightblue" points="1192.85,-136.49 1183.32,-131.87 1187.89,-141.43 1192.85,-136.49"/>
</g>
<!-- Node32&#45;&gt;Node26 -->
<g id="edge51" class="edge">
<title>Node32&#45;&gt;Node26</title>
<path fill="none" stroke="midnightblue" d="M1352.95,-291.3C1358.43,-271.76 1371.84,-224.06 1379.29,-197.55"/>
<polygon fill="midnightblue" stroke="midnightblue" points="1382.74,-198.2 1382.08,-187.62 1376,-196.3 1382.74,-198.2"/>
</g>
<!-- Node34&#45;&gt;Node6 -->
<g id="edge61" class="edge">
<title>Node34&#45;&gt;Node6</title>
<path fill="none" stroke="midnightblue" d="M667.04,-347.38C651.73,-340.18 632.64,-328.29 623.5,-311 619.35,-303.14 621.15,-299.57 623.5,-291 653.91,-180.08 740.89,-68.55 775.27,-27.49"/>
<polygon fill="midnightblue" stroke="midnightblue" points="777.97,-29.71 781.77,-19.82 772.63,-25.19 777.97,-29.71"/>
</g>
<!-- Node34&#45;&gt;Node10 -->
<g id="edge57" class="edge">
<title>Node34&#45;&gt;Node10</title>
<path fill="none" stroke="midnightblue" d="M654.96,-347.44C617.25,-338.1 556.76,-323.12 515.64,-312.93"/>
<polygon fill="midnightblue" stroke="midnightblue" points="516.43,-309.52 505.88,-310.52 514.75,-316.32 516.43,-309.52"/>
</g>
<!-- Node34&#45;&gt;Node11 -->
<g id="edge58" class="edge">
<title>Node34&#45;&gt;Node11</title>
<path fill="none" stroke="midnightblue" d="M656.87,-347.5C630.12,-339.86 591.71,-327.33 560.5,-311 533.83,-297.04 506.34,-276.36 487.47,-261"/>
<polygon fill="midnightblue" stroke="midnightblue" points="489.62,-258.24 479.68,-254.57 485.16,-263.64 489.62,-258.24"/>
</g>
<!-- Node34&#45;&gt;Node24 -->
<g id="edge64" class="edge">
<title>Node34&#45;&gt;Node24</title>
<path fill="none" stroke="midnightblue" d="M769.21,-351.63C822.07,-346.48 892.01,-335.3 949.5,-311 981.09,-297.64 1012.2,-272.28 1030.36,-255.89"/>
<polygon fill="midnightblue" stroke="midnightblue" points="1032.77,-258.43 1037.75,-249.07 1028.03,-253.28 1032.77,-258.43"/>
</g>
<!-- Node34&#45;&gt;Node28 -->
<g id="edge63" class="edge">
<title>Node34&#45;&gt;Node28</title>
<path fill="none" stroke="midnightblue" d="M720.56,-347.44C754.1,-338.2 807.7,-323.44 844.64,-313.26"/>
<polygon fill="midnightblue" stroke="midnightblue" points="845.88,-316.55 854.59,-310.52 844.02,-309.8 845.88,-316.55"/>
</g>
<!-- Node34&#45;&gt;Node29 -->
<g id="edge59" class="edge">
<title>Node34&#45;&gt;Node29</title>
<path fill="none" stroke="midnightblue" d="M671.67,-347.3C649.13,-335.15 615.14,-312.19 631.5,-291 647.19,-270.67 709.46,-256.95 759.08,-249"/>
<polygon fill="midnightblue" stroke="midnightblue" points="759.79,-252.43 769.14,-247.44 758.72,-245.52 759.79,-252.43"/>
</g>
<!-- Node34&#45;&gt;Node34 -->
<g id="edge62" class="edge">
<title>Node34&#45;&gt;Node34</title>
<path fill="none" stroke="midnightblue" d="M730.83,-366.5C759.17,-369.33 787,-366.16 787,-357 787,-348.95 765.5,-345.53 741.06,-346.74"/>
<polygon fill="midnightblue" stroke="midnightblue" points="740.54,-343.27 730.83,-347.5 741.06,-350.25 740.54,-343.27"/>
</g>
<!-- Node35 -->
<g id="node35" class="node">
<title>Node35</title>
<g id="a_node35"><a xlink:title=" ">
<polygon fill="white" stroke="#bfbfbf" points="641,-291.5 641,-310.5 812,-310.5 812,-291.5 641,-291.5"/>
<text text-anchor="middle" x="726.5" y="-298.5" font-family="Helvetica,sans-Serif" font-size="10.00">sitkMemberFunctionFactory.hxx</text>
</a>
</g>
</g>
<!-- Node34&#45;&gt;Node35 -->
<g id="edge60" class="edge">
<title>Node34&#45;&gt;Node35</title>
<path fill="none" stroke="midnightblue" d="M695.61,-347.08C700.78,-339.53 708.35,-328.49 714.69,-319.23"/>
<polygon fill="midnightblue" stroke="midnightblue" points="717.74,-320.98 720.5,-310.75 711.96,-317.02 717.74,-320.98"/>
</g>
<!-- Node36&#45;&gt;Node16 -->
<g id="edge67" class="edge">
<title>Node36&#45;&gt;Node16</title>
<path fill="none" stroke="midnightblue" d="M1466.12,-459.43C1464.45,-431.58 1455.57,-342.49 1409.5,-291 1334.82,-207.53 1198.68,-185.72 1118.13,-180.36"/>
<polygon fill="midnightblue" stroke="midnightblue" points="1118.3,-176.86 1108.11,-179.75 1117.88,-183.85 1118.3,-176.86"/>
</g>
<!-- Node36&#45;&gt;Node17 -->
<g id="edge66" class="edge">
<title>Node36&#45;&gt;Node17</title>
<path fill="none" stroke="midnightblue" d="M1523.37,-460.49C1570.71,-453.13 1633.22,-440.47 1651.5,-423 1673.26,-402.21 1670.5,-388.1 1670.5,-358 1670.5,-358 1670.5,-358 1670.5,-238.5 1670.5,-148.54 1357.11,-128.62 1228.55,-124.23"/>
<polygon fill="midnightblue" stroke="midnightblue" points="1228.62,-120.73 1218.52,-123.91 1228.4,-127.73 1228.62,-120.73"/>
</g>
<!-- Node36&#45;&gt;Node22 -->
<g id="edge72" class="edge">
<title>Node36&#45;&gt;Node22</title>
<path fill="none" stroke="midnightblue" d="M1409.85,-463.7C1347.03,-457.89 1250.79,-445.56 1222.5,-423 1208.26,-411.64 1201.12,-391.65 1197.64,-376.83"/>
<polygon fill="midnightblue" stroke="midnightblue" points="1201.01,-375.85 1195.63,-366.73 1194.15,-377.22 1201.01,-375.85"/>
</g>
<!-- Node36&#45;&gt;Node23 -->
<g id="edge68" class="edge">
<title>Node36&#45;&gt;Node23</title>
<path fill="none" stroke="midnightblue" d="M1469.62,-459.08C1478.79,-432.83 1505.79,-355.55 1518.17,-320.12"/>
<polygon fill="midnightblue" stroke="midnightblue" points="1521.51,-321.16 1521.51,-310.57 1514.9,-318.85 1521.51,-321.16"/>
</g>
<!-- Node37 -->
<g id="node37" class="node">
<title>Node37</title>
<g id="a_node37"><a xlink:href="sitkEvent_8h.html" target="_top" xlink:title=" ">
<polygon fill="white" stroke="black" points="1533,-230 1533,-249 1604,-249 1604,-230 1533,-230"/>
<text text-anchor="middle" x="1568.5" y="-237" font-family="Helvetica,sans-Serif" font-size="10.00">sitkEvent.h</text>
</a>
</g>
</g>
<!-- Node36&#45;&gt;Node37 -->
<g id="edge69" class="edge">
<title>Node36&#45;&gt;Node37</title>
<path fill="none" stroke="midnightblue" d="M1473.98,-459.4C1501.94,-427.23 1598.8,-315.6 1600.5,-311 1607.51,-291.99 1595.17,-270.93 1583.84,-256.82"/>
<polygon fill="midnightblue" stroke="midnightblue" points="1586.28,-254.29 1577.1,-249.01 1580.99,-258.87 1586.28,-254.29"/>
</g>
<!-- Node38 -->
<g id="node38" class="node">
<title>Node38</title>
<g id="a_node38"><a xlink:href="sitkImageConvert_8h.html" target="_top" xlink:title=" ">
<polygon fill="white" stroke="black" points="1232,-403.5 1232,-422.5 1345,-422.5 1345,-403.5 1232,-403.5"/>
<text text-anchor="middle" x="1288.5" y="-410.5" font-family="Helvetica,sans-Serif" font-size="10.00">sitkImageConvert.h</text>
</a>
</g>
</g>
<!-- Node36&#45;&gt;Node38 -->
<g id="edge73" class="edge">
<title>Node36&#45;&gt;Node38</title>
<path fill="none" stroke="midnightblue" d="M1438.3,-459.44C1408.09,-450.28 1359.99,-435.69 1326.47,-425.52"/>
<polygon fill="midnightblue" stroke="midnightblue" points="1327.16,-422.07 1316.57,-422.52 1325.13,-428.77 1327.16,-422.07"/>
</g>
<!-- Node39 -->
<g id="node39" class="node">
<title>Node39</title>
<g id="a_node39"><a xlink:title=" ">
<polygon fill="white" stroke="#bfbfbf" points="1532.5,-403.5 1532.5,-422.5 1592.5,-422.5 1592.5,-403.5 1532.5,-403.5"/>
<text text-anchor="middle" x="1562.5" y="-410.5" font-family="Helvetica,sans-Serif" font-size="10.00">iostream</text>
</a>
</g>
</g>
<!-- Node36&#45;&gt;Node39 -->
<g id="edge75" class="edge">
<title>Node36&#45;&gt;Node39</title>
<path fill="none" stroke="midnightblue" d="M1481.92,-459.32C1497.04,-450.82 1520.32,-437.73 1537.97,-427.8"/>
<polygon fill="midnightblue" stroke="midnightblue" points="1540.11,-430.61 1547.11,-422.65 1536.68,-424.51 1540.11,-430.61"/>
</g>
<!-- Node40 -->
<g id="node40" class="node">
<title>Node40</title>
<g id="a_node40"><a xlink:title=" ">
<polygon fill="white" stroke="#bfbfbf" points="1610.5,-403.5 1610.5,-422.5 1642.5,-422.5 1642.5,-403.5 1610.5,-403.5"/>
<text text-anchor="middle" x="1626.5" y="-410.5" font-family="Helvetica,sans-Serif" font-size="10.00">list</text>
</a>
</g>
</g>
<!-- Node36&#45;&gt;Node40 -->
<g id="edge76" class="edge">
<title>Node36&#45;&gt;Node40</title>
<path fill="none" stroke="midnightblue" d="M1492.69,-459.47C1518.08,-451.17 1557.88,-438.02 1600.87,-423.16"/>
<polygon fill="midnightblue" stroke="midnightblue" points="1602.08,-426.45 1610.38,-419.87 1599.79,-419.84 1602.08,-426.45"/>
</g>
<!-- Node37&#45;&gt;Node17 -->
<g id="edge70" class="edge">
<title>Node37&#45;&gt;Node17</title>
<path fill="none" stroke="midnightblue" d="M1565.11,-229.79C1558.64,-214.42 1542.92,-182.71 1518.5,-168 1470.89,-139.33 1313.14,-128.61 1228.8,-124.86"/>
<polygon fill="midnightblue" stroke="midnightblue" points="1228.79,-121.36 1218.65,-124.43 1228.49,-128.35 1228.79,-121.36"/>
</g>
<!-- Node37&#45;&gt;Node26 -->
<g id="edge71" class="edge">
<title>Node37&#45;&gt;Node26</title>
<path fill="none" stroke="midnightblue" d="M1542.14,-229.98C1510.16,-219.64 1456.12,-202.16 1420.38,-190.6"/>
<polygon fill="midnightblue" stroke="midnightblue" points="1421.41,-187.26 1410.81,-187.51 1419.25,-193.92 1421.41,-187.26"/>
</g>
<!-- Node38&#45;&gt;Node22 -->
<g id="edge74" class="edge">
<title>Node38&#45;&gt;Node22</title>
<path fill="none" stroke="midnightblue" d="M1273.4,-403.32C1258.6,-394.82 1235.81,-381.73 1218.52,-371.8"/>
<polygon fill="midnightblue" stroke="midnightblue" points="1219.98,-368.6 1209.57,-366.65 1216.49,-374.67 1219.98,-368.6"/>
</g>
<!-- Node41&#45;&gt;Node17 -->
<g id="edge78" class="edge">
<title>Node41&#45;&gt;Node17</title>
<path fill="none" stroke="midnightblue" d="M1659.67,-459.38C1675.43,-441.81 1708.5,-399.94 1708.5,-358 1708.5,-358 1708.5,-358 1708.5,-238.5 1708.5,-189.08 1668.15,-186.95 1622.5,-168 1552.61,-138.99 1332.21,-128.12 1228.92,-124.55"/>
<polygon fill="midnightblue" stroke="midnightblue" points="1228.81,-121.04 1218.7,-124.2 1228.58,-128.04 1228.81,-121.04"/>
</g>
<!-- Node42&#45;&gt;Node17 -->
<g id="edge81" class="edge">
<title>Node42&#45;&gt;Node17</title>
<path fill="none" stroke="midnightblue" d="M1093.98,-403.35C1105.42,-363.55 1153.09,-197.55 1169.17,-141.55"/>
<polygon fill="midnightblue" stroke="midnightblue" points="1172.63,-142.19 1172.03,-131.62 1165.9,-140.26 1172.63,-142.19"/>
</g>
<!-- Node42&#45;&gt;Node22 -->
<g id="edge83" class="edge">
<title>Node42&#45;&gt;Node22</title>
<path fill="none" stroke="midnightblue" d="M1108.05,-403.32C1124.49,-394.7 1149.93,-381.36 1168.97,-371.39"/>
<polygon fill="midnightblue" stroke="midnightblue" points="1170.76,-374.4 1177.99,-366.65 1167.51,-368.2 1170.76,-374.4"/>
</g>
<!-- Node42&#45;&gt;Node24 -->
<g id="edge82" class="edge">
<title>Node42&#45;&gt;Node24</title>
<path fill="none" stroke="midnightblue" d="M1086.1,-403.38C1080.82,-394.56 1072.95,-380.32 1068.5,-367 1056.12,-329.95 1050.38,-284.34 1047.99,-259.26"/>
<polygon fill="midnightblue" stroke="midnightblue" points="1051.45,-258.66 1047.1,-249 1044.48,-259.27 1051.45,-258.66"/>
</g>
<!-- Node42&#45;&gt;Node25 -->
<g id="edge84" class="edge">
<title>Node42&#45;&gt;Node25</title>
<path fill="none" stroke="midnightblue" d="M1096.87,-403.42C1109.74,-383.08 1143.8,-330.68 1177.5,-291 1187.94,-278.71 1200.86,-265.94 1211.08,-256.32"/>
<polygon fill="midnightblue" stroke="midnightblue" points="1213.65,-258.71 1218.6,-249.34 1208.89,-253.58 1213.65,-258.71"/>
</g>
</g>
</svg>
