<?xml version="1.0" encoding="UTF-8" standalone="no"?>
<!DOCTYPE svg PUBLIC "-//W3C//DTD SVG 1.1//EN"
 "http://www.w3.org/Graphics/SVG/1.1/DTD/svg11.dtd">
<!-- Generated by graphviz version 2.43.0 (0)
 -->
<!-- Title: sitkHashImageFilter.h Pages: 1 -->
<svg width="1780pt" height="599pt"
 viewBox="0.00 0.00 1780.00 599.00" xmlns="http://www.w3.org/2000/svg" xmlns:xlink="http://www.w3.org/1999/xlink">
<g id="graph0" class="graph" transform="scale(1 1) rotate(0) translate(4 595)">
<title>sitkHashImageFilter.h</title>
<polygon fill="white" stroke="transparent" points="-4,4 -4,-595 1776,-595 1776,4 -4,4"/>
<!-- Node1 -->
<g id="node1" class="node">
<title>Node1</title>
<g id="a_node1"><a xlink:title=" ">
<polygon fill="#bfbfbf" stroke="black" points="1018.5,-571.5 1018.5,-590.5 1141.5,-590.5 1141.5,-571.5 1018.5,-571.5"/>
<text text-anchor="middle" x="1080" y="-578.5" font-family="Helvetica,sans-Serif" font-size="10.00">sitkHashImageFilter.h</text>
</a>
</g>
</g>
<!-- Node2 -->
<g id="node2" class="node">
<title>Node2</title>
<g id="a_node2"><a xlink:href="sitkMacro_8h.html" target="_top" xlink:title=" ">
<polygon fill="white" stroke="black" points="932,-56.5 932,-75.5 1006,-75.5 1006,-56.5 932,-56.5"/>
<text text-anchor="middle" x="969" y="-63.5" font-family="Helvetica,sans-Serif" font-size="10.00">sitkMacro.h</text>
</a>
</g>
</g>
<!-- Node1&#45;&gt;Node2 -->
<g id="edge1" class="edge">
<title>Node1&#45;&gt;Node2</title>
<path fill="none" stroke="midnightblue" d="M1018.25,-577.14C842.46,-568.17 352,-537.15 352,-470 352,-470 352,-470 352,-356 352,-325.9 349.86,-312.42 371,-291 425.86,-235.42 634.05,-215.88 707,-188 795.92,-154.02 897.16,-103.83 943.46,-80.21"/>
<polygon fill="midnightblue" stroke="midnightblue" points="945.18,-83.26 952.48,-75.59 941.98,-77.03 945.18,-83.26"/>
</g>
<!-- Node9 -->
<g id="node9" class="node">
<title>Node9</title>
<g id="a_node9"><a xlink:href="sitkMemberFunctionFactory_8h.html" target="_top" xlink:title=" ">
<polygon fill="white" stroke="black" points="526.5,-347.5 526.5,-366.5 685.5,-366.5 685.5,-347.5 526.5,-347.5"/>
<text text-anchor="middle" x="606" y="-354.5" font-family="Helvetica,sans-Serif" font-size="10.00">sitkMemberFunctionFactory.h</text>
</a>
</g>
</g>
<!-- Node1&#45;&gt;Node9 -->
<g id="edge8" class="edge">
<title>Node1&#45;&gt;Node9</title>
<path fill="none" stroke="midnightblue" d="M1018.42,-574.46C923.99,-562.79 743.15,-527.43 636,-423 622.95,-410.28 615.01,-390.81 610.6,-376.49"/>
<polygon fill="midnightblue" stroke="midnightblue" points="613.94,-375.44 607.9,-366.74 607.2,-377.32 613.94,-375.44"/>
</g>
<!-- Node26 -->
<g id="node26" class="node">
<title>Node26</title>
<g id="a_node26"><a xlink:href="sitkImage_8h.html" target="_top" xlink:title=" ">
<polygon fill="white" stroke="black" points="947,-347.5 947,-366.5 1021,-366.5 1021,-347.5 947,-347.5"/>
<text text-anchor="middle" x="984" y="-354.5" font-family="Helvetica,sans-Serif" font-size="10.00">sitkImage.h</text>
</a>
</g>
</g>
<!-- Node1&#45;&gt;Node26 -->
<g id="edge36" class="edge">
<title>Node1&#45;&gt;Node26</title>
<path fill="none" stroke="midnightblue" d="M1082.38,-571.22C1087.46,-550.89 1097.9,-499.24 1085,-459 1072.41,-419.71 1033.52,-388.83 1007.84,-372.02"/>
<polygon fill="midnightblue" stroke="midnightblue" points="1009.69,-369.05 999.37,-366.67 1005.95,-374.97 1009.69,-369.05"/>
</g>
<!-- Node35 -->
<g id="node35" class="node">
<title>Node35</title>
<g id="a_node35"><a xlink:href="sitkBasicFilters_8h.html" target="_top" xlink:title=" ">
<polygon fill="white" stroke="black" points="1402,-459.5 1402,-478.5 1502,-478.5 1502,-459.5 1402,-459.5"/>
<text text-anchor="middle" x="1452" y="-466.5" font-family="Helvetica,sans-Serif" font-size="10.00">sitkBasicFilters.h</text>
</a>
</g>
</g>
<!-- Node1&#45;&gt;Node35 -->
<g id="edge58" class="edge">
<title>Node1&#45;&gt;Node35</title>
<path fill="none" stroke="midnightblue" d="M1141.66,-572.44C1189.47,-565.56 1256.97,-553.59 1314,-535 1355.49,-521.48 1400.74,-498.44 1427.72,-483.73"/>
<polygon fill="midnightblue" stroke="midnightblue" points="1429.73,-486.62 1436.79,-478.72 1426.35,-480.49 1429.73,-486.62"/>
</g>
<!-- Node40 -->
<g id="node40" class="node">
<title>Node40</title>
<g id="a_node40"><a xlink:href="sitkImageFilter_8h.html" target="_top" xlink:title=" ">
<polygon fill="white" stroke="black" points="1207,-515.5 1207,-534.5 1305,-534.5 1305,-515.5 1207,-515.5"/>
<text text-anchor="middle" x="1256" y="-522.5" font-family="Helvetica,sans-Serif" font-size="10.00">sitkImageFilter.h</text>
</a>
</g>
</g>
<!-- Node1&#45;&gt;Node40 -->
<g id="edge72" class="edge">
<title>Node1&#45;&gt;Node40</title>
<path fill="none" stroke="midnightblue" d="M1107.89,-571.44C1137.75,-562.28 1185.31,-547.69 1218.46,-537.52"/>
<polygon fill="midnightblue" stroke="midnightblue" points="1219.71,-540.8 1228.24,-534.52 1217.66,-534.1 1219.71,-540.8"/>
</g>
<!-- Node41 -->
<g id="node41" class="node">
<title>Node41</title>
<g id="a_node41"><a xlink:href="sitkProcessObject_8h.html" target="_top" xlink:title=" ">
<polygon fill="white" stroke="black" points="963.5,-459.5 963.5,-478.5 1076.5,-478.5 1076.5,-459.5 963.5,-459.5"/>
<text text-anchor="middle" x="1020" y="-466.5" font-family="Helvetica,sans-Serif" font-size="10.00">sitkProcessObject.h</text>
</a>
</g>
</g>
<!-- Node1&#45;&gt;Node41 -->
<g id="edge88" class="edge">
<title>Node1&#45;&gt;Node41</title>
<path fill="none" stroke="midnightblue" d="M1075.29,-571.37C1065.48,-553.38 1042.66,-511.55 1029.61,-487.63"/>
<polygon fill="midnightblue" stroke="midnightblue" points="1032.55,-485.69 1024.69,-478.59 1026.4,-489.05 1032.55,-485.69"/>
</g>
<!-- Node3 -->
<g id="node3" class="node">
<title>Node3</title>
<g id="a_node3"><a xlink:title=" ">
<polygon fill="white" stroke="#bfbfbf" points="693.5,-0.5 693.5,-19.5 746.5,-19.5 746.5,-0.5 693.5,-0.5"/>
<text text-anchor="middle" x="720" y="-7.5" font-family="Helvetica,sans-Serif" font-size="10.00">stdint.h</text>
</a>
</g>
</g>
<!-- Node2&#45;&gt;Node3 -->
<g id="edge2" class="edge">
<title>Node2&#45;&gt;Node3</title>
<path fill="none" stroke="midnightblue" d="M931.99,-56.97C884.79,-46.74 803.65,-29.14 756.63,-18.94"/>
<polygon fill="midnightblue" stroke="midnightblue" points="757.37,-15.52 746.86,-16.82 755.89,-22.36 757.37,-15.52"/>
</g>
<!-- Node4 -->
<g id="node4" class="node">
<title>Node4</title>
<g id="a_node4"><a xlink:title=" ">
<polygon fill="white" stroke="#bfbfbf" points="975,-0.5 975,-19.5 1031,-19.5 1031,-0.5 975,-0.5"/>
<text text-anchor="middle" x="1003" y="-7.5" font-family="Helvetica,sans-Serif" font-size="10.00">stddef.h</text>
</a>
</g>
</g>
<!-- Node2&#45;&gt;Node4 -->
<g id="edge3" class="edge">
<title>Node2&#45;&gt;Node4</title>
<path fill="none" stroke="midnightblue" d="M974.61,-56.08C979.37,-48.53 986.32,-37.49 992.15,-28.23"/>
<polygon fill="midnightblue" stroke="midnightblue" points="995.12,-30.08 997.49,-19.75 989.2,-26.35 995.12,-30.08"/>
</g>
<!-- Node5 -->
<g id="node5" class="node">
<title>Node5</title>
<g id="a_node5"><a xlink:title=" ">
<polygon fill="white" stroke="#bfbfbf" points="1049,-0.5 1049,-19.5 1101,-19.5 1101,-0.5 1049,-0.5"/>
<text text-anchor="middle" x="1075" y="-7.5" font-family="Helvetica,sans-Serif" font-size="10.00">cassert</text>
</a>
</g>
</g>
<!-- Node2&#45;&gt;Node5 -->
<g id="edge4" class="edge">
<title>Node2&#45;&gt;Node5</title>
<path fill="none" stroke="midnightblue" d="M986.03,-56.32C1003.03,-47.66 1029.38,-34.24 1048.99,-24.25"/>
<polygon fill="midnightblue" stroke="midnightblue" points="1050.69,-27.31 1058.01,-19.65 1047.51,-21.08 1050.69,-27.31"/>
</g>
<!-- Node6 -->
<g id="node6" class="node">
<title>Node6</title>
<g id="a_node6"><a xlink:title=" ">
<polygon fill="white" stroke="#bfbfbf" points="839,-0.5 839,-19.5 895,-19.5 895,-0.5 839,-0.5"/>
<text text-anchor="middle" x="867" y="-7.5" font-family="Helvetica,sans-Serif" font-size="10.00">sstream</text>
</a>
</g>
</g>
<!-- Node2&#45;&gt;Node6 -->
<g id="edge5" class="edge">
<title>Node2&#45;&gt;Node6</title>
<path fill="none" stroke="midnightblue" d="M952.61,-56.32C936.33,-47.7 911.13,-34.36 892.28,-24.39"/>
<polygon fill="midnightblue" stroke="midnightblue" points="893.82,-21.24 883.35,-19.65 890.55,-27.43 893.82,-21.24"/>
</g>
<!-- Node7 -->
<g id="node7" class="node">
<title>Node7</title>
<g id="a_node7"><a xlink:title=" ">
<polygon fill="white" stroke="#bfbfbf" points="913,-0.5 913,-19.5 957,-19.5 957,-0.5 913,-0.5"/>
<text text-anchor="middle" x="935" y="-7.5" font-family="Helvetica,sans-Serif" font-size="10.00">limits</text>
</a>
</g>
</g>
<!-- Node2&#45;&gt;Node7 -->
<g id="edge6" class="edge">
<title>Node2&#45;&gt;Node7</title>
<path fill="none" stroke="midnightblue" d="M963.39,-56.08C958.63,-48.53 951.68,-37.49 945.85,-28.23"/>
<polygon fill="midnightblue" stroke="midnightblue" points="948.8,-26.35 940.51,-19.75 942.88,-30.08 948.8,-26.35"/>
</g>
<!-- Node8 -->
<g id="node8" class="node">
<title>Node8</title>
<g id="a_node8"><a xlink:href="sitkConfigure_8h.html" target="_top" xlink:title=" ">
<polygon fill="white" stroke="black" points="235,-0.5 235,-19.5 325,-19.5 325,-0.5 235,-0.5"/>
<text text-anchor="middle" x="280" y="-7.5" font-family="Helvetica,sans-Serif" font-size="10.00">sitkConfigure.h</text>
</a>
</g>
</g>
<!-- Node2&#45;&gt;Node8 -->
<g id="edge7" class="edge">
<title>Node2&#45;&gt;Node8</title>
<path fill="none" stroke="midnightblue" d="M931.96,-62.1C817.81,-53.15 471.01,-25.97 335.29,-15.33"/>
<polygon fill="midnightblue" stroke="midnightblue" points="335.37,-11.83 325.12,-14.54 334.82,-18.81 335.37,-11.83"/>
</g>
<!-- Node10 -->
<g id="node10" class="node">
<title>Node10</title>
<g id="a_node10"><a xlink:href="sitkDetail_8h.html" target="_top" xlink:title=" ">
<polygon fill="white" stroke="black" points="569.5,-291.5 569.5,-310.5 642.5,-310.5 642.5,-291.5 569.5,-291.5"/>
<text text-anchor="middle" x="606" y="-298.5" font-family="Helvetica,sans-Serif" font-size="10.00">sitkDetail.h</text>
</a>
</g>
</g>
<!-- Node9&#45;&gt;Node10 -->
<g id="edge9" class="edge">
<title>Node9&#45;&gt;Node10</title>
<path fill="none" stroke="midnightblue" d="M606,-347.08C606,-340.01 606,-329.86 606,-320.99"/>
<polygon fill="midnightblue" stroke="midnightblue" points="609.5,-320.75 606,-310.75 602.5,-320.75 609.5,-320.75"/>
</g>
<!-- Node11 -->
<g id="node11" class="node">
<title>Node11</title>
<g id="a_node11"><a xlink:href="sitkMemberFunctionFactoryBase_8h.html" target="_top" xlink:title=" ">
<polygon fill="white" stroke="black" points="260,-224.5 260,-254.5 412,-254.5 412,-224.5 260,-224.5"/>
<text text-anchor="start" x="268" y="-242.5" font-family="Helvetica,sans-Serif" font-size="10.00">sitkMemberFunctionFactory</text>
<text text-anchor="middle" x="336" y="-231.5" font-family="Helvetica,sans-Serif" font-size="10.00">Base.h</text>
</a>
</g>
</g>
<!-- Node9&#45;&gt;Node11 -->
<g id="edge29" class="edge">
<title>Node9&#45;&gt;Node11</title>
<path fill="none" stroke="midnightblue" d="M526.5,-348.37C468.19,-341.4 395.15,-329.34 371,-311 356.06,-299.65 347.08,-280.19 341.96,-264.59"/>
<polygon fill="midnightblue" stroke="midnightblue" points="345.19,-263.16 339.01,-254.55 338.47,-265.13 345.19,-263.16"/>
</g>
<!-- Node22 -->
<g id="node22" class="node">
<title>Node22</title>
<g id="a_node22"><a xlink:href="sitkPixelIDValues_8h.html" target="_top" xlink:title=" ">
<polygon fill="white" stroke="black" points="616,-230 616,-249 726,-249 726,-230 616,-230"/>
<text text-anchor="middle" x="671" y="-237" font-family="Helvetica,sans-Serif" font-size="10.00">sitkPixelIDValues.h</text>
</a>
</g>
</g>
<!-- Node9&#45;&gt;Node22 -->
<g id="edge30" class="edge">
<title>Node9&#45;&gt;Node22</title>
<path fill="none" stroke="midnightblue" d="M617.64,-347.25C627.85,-338.98 642.39,-325.67 651,-311 660.45,-294.91 665.63,-274.13 668.34,-259.3"/>
<polygon fill="midnightblue" stroke="midnightblue" points="671.82,-259.73 669.96,-249.3 664.9,-258.62 671.82,-259.73"/>
</g>
<!-- Node25 -->
<g id="node25" class="node">
<title>Node25</title>
<g id="a_node25"><a xlink:title=" ">
<polygon fill="white" stroke="#bfbfbf" points="380.5,-291.5 380.5,-310.5 551.5,-310.5 551.5,-291.5 380.5,-291.5"/>
<text text-anchor="middle" x="466" y="-298.5" font-family="Helvetica,sans-Serif" font-size="10.00">sitkMemberFunctionFactory.hxx</text>
</a>
</g>
</g>
<!-- Node9&#45;&gt;Node25 -->
<g id="edge35" class="edge">
<title>Node9&#45;&gt;Node25</title>
<path fill="none" stroke="midnightblue" d="M583.82,-347.44C560.57,-338.48 523.85,-324.31 497.58,-314.18"/>
<polygon fill="midnightblue" stroke="midnightblue" points="498.67,-310.85 488.08,-310.52 496.15,-317.38 498.67,-310.85"/>
</g>
<!-- Node10&#45;&gt;Node11 -->
<g id="edge10" class="edge">
<title>Node10&#45;&gt;Node11</title>
<path fill="none" stroke="midnightblue" d="M569.31,-291.91C528.4,-282.9 461.19,-268.09 409.39,-256.67"/>
<polygon fill="midnightblue" stroke="midnightblue" points="410.09,-253.24 399.57,-254.51 408.59,-260.08 410.09,-253.24"/>
</g>
<!-- Node18 -->
<g id="node18" class="node">
<title>Node18</title>
<g id="a_node18"><a xlink:title=" ">
<polygon fill="white" stroke="#bfbfbf" points="395.5,-168.5 395.5,-187.5 534.5,-187.5 534.5,-168.5 395.5,-168.5"/>
<text text-anchor="middle" x="465" y="-175.5" font-family="Helvetica,sans-Serif" font-size="10.00">Ancillary/FunctionTraits.h</text>
</a>
</g>
</g>
<!-- Node10&#45;&gt;Node18 -->
<g id="edge28" class="edge">
<title>Node10&#45;&gt;Node18</title>
<path fill="none" stroke="midnightblue" d="M595.86,-291.3C572.18,-270.98 512.99,-220.19 483.01,-194.46"/>
<polygon fill="midnightblue" stroke="midnightblue" points="484.92,-191.48 475.05,-187.62 480.36,-196.79 484.92,-191.48"/>
</g>
<!-- Node11&#45;&gt;Node2 -->
<g id="edge19" class="edge">
<title>Node11&#45;&gt;Node2</title>
<path fill="none" stroke="midnightblue" d="M412.26,-231.02C507.87,-221.09 661.99,-203.06 684,-188 716.03,-166.09 695.41,-134.55 727,-112 757.58,-90.17 860.31,-77.1 921.66,-71.05"/>
<polygon fill="midnightblue" stroke="midnightblue" points="922.25,-74.51 931.87,-70.07 921.58,-67.55 922.25,-74.51"/>
</g>
<!-- Node11&#45;&gt;Node8 -->
<g id="edge11" class="edge">
<title>Node11&#45;&gt;Node8</title>
<path fill="none" stroke="midnightblue" d="M259.8,-228.53C204.2,-219.94 134.74,-206.08 112,-188 90.37,-170.81 91.15,-158.94 85,-132 69.79,-65.45 162.29,-33.78 225.13,-20.11"/>
<polygon fill="midnightblue" stroke="midnightblue" points="225.86,-23.54 234.94,-18.07 224.44,-16.68 225.86,-23.54"/>
</g>
<!-- Node12 -->
<g id="node12" class="node">
<title>Node12</title>
<g id="a_node12"><a xlink:href="sitkPixelIDTypes_8h.html" target="_top" xlink:title=" ">
<polygon fill="white" stroke="black" points="333.5,-112.5 333.5,-131.5 438.5,-131.5 438.5,-112.5 333.5,-112.5"/>
<text text-anchor="middle" x="386" y="-119.5" font-family="Helvetica,sans-Serif" font-size="10.00">sitkPixelIDTypes.h</text>
</a>
</g>
</g>
<!-- Node11&#45;&gt;Node12 -->
<g id="edge12" class="edge">
<title>Node11&#45;&gt;Node12</title>
<path fill="none" stroke="midnightblue" d="M259.97,-235.83C187.21,-230.5 93.89,-214.69 133,-168 156.81,-139.58 256.36,-129.09 323.26,-125.24"/>
<polygon fill="midnightblue" stroke="midnightblue" points="323.49,-128.73 333.29,-124.69 323.11,-121.74 323.49,-128.73"/>
</g>
<!-- Node13 -->
<g id="node13" class="node">
<title>Node13</title>
<g id="a_node13"><a xlink:href="sitkPixelIDTypeLists_8h.html" target="_top" xlink:title=" ">
<polygon fill="white" stroke="black" points="553,-168.5 553,-187.5 675,-187.5 675,-168.5 553,-168.5"/>
<text text-anchor="middle" x="614" y="-175.5" font-family="Helvetica,sans-Serif" font-size="10.00">sitkPixelIDTypeLists.h</text>
</a>
</g>
</g>
<!-- Node11&#45;&gt;Node13 -->
<g id="edge13" class="edge">
<title>Node11&#45;&gt;Node13</title>
<path fill="none" stroke="midnightblue" d="M401.53,-224.47C451.38,-213.81 518.91,-199.35 564.34,-189.63"/>
<polygon fill="midnightblue" stroke="midnightblue" points="565.21,-193.02 574.26,-187.51 563.74,-186.18 565.21,-193.02"/>
</g>
<!-- Node14 -->
<g id="node14" class="node">
<title>Node14</title>
<g id="a_node14"><a xlink:title=" ">
<polygon fill="white" stroke="#bfbfbf" points="94.5,-112.5 94.5,-131.5 205.5,-131.5 205.5,-112.5 94.5,-112.5"/>
<text text-anchor="middle" x="150" y="-119.5" font-family="Helvetica,sans-Serif" font-size="10.00">Ancillary/TypeList.h</text>
</a>
</g>
</g>
<!-- Node11&#45;&gt;Node14 -->
<g id="edge23" class="edge">
<title>Node11&#45;&gt;Node14</title>
<path fill="none" stroke="midnightblue" d="M259.74,-230.66C204.81,-223.26 137.41,-209.95 120,-188 108.25,-173.19 121.06,-153.02 133.39,-139.1"/>
<polygon fill="midnightblue" stroke="midnightblue" points="136.06,-141.37 140.41,-131.71 130.98,-136.55 136.06,-141.37"/>
</g>
<!-- Node16 -->
<g id="node16" class="node">
<title>Node16</title>
<g id="a_node16"><a xlink:href="sitkNonCopyable_8h.html" target="_top" xlink:title=" ">
<polygon fill="white" stroke="black" points="831.5,-168.5 831.5,-187.5 940.5,-187.5 940.5,-168.5 831.5,-168.5"/>
<text text-anchor="middle" x="886" y="-175.5" font-family="Helvetica,sans-Serif" font-size="10.00">sitkNonCopyable.h</text>
</a>
</g>
</g>
<!-- Node11&#45;&gt;Node16 -->
<g id="edge20" class="edge">
<title>Node11&#45;&gt;Node16</title>
<path fill="none" stroke="midnightblue" d="M412.28,-231.43C506,-222.56 670.14,-206.39 821.27,-188.05"/>
<polygon fill="midnightblue" stroke="midnightblue" points="821.7,-191.52 831.2,-186.84 820.85,-184.57 821.7,-191.52"/>
</g>
<!-- Node11&#45;&gt;Node18 -->
<g id="edge24" class="edge">
<title>Node11&#45;&gt;Node18</title>
<path fill="none" stroke="midnightblue" d="M366.57,-224.4C387.93,-214.55 416.22,-201.5 436.98,-191.92"/>
<polygon fill="midnightblue" stroke="midnightblue" points="438.61,-195.02 446.23,-187.66 435.68,-188.67 438.61,-195.02"/>
</g>
<!-- Node19 -->
<g id="node19" class="node">
<title>Node19</title>
<g id="a_node19"><a xlink:title=" ">
<polygon fill="white" stroke="#bfbfbf" points="142.5,-168.5 142.5,-187.5 235.5,-187.5 235.5,-168.5 142.5,-168.5"/>
<text text-anchor="middle" x="189" y="-175.5" font-family="Helvetica,sans-Serif" font-size="10.00">unordered_map</text>
</a>
</g>
</g>
<!-- Node11&#45;&gt;Node19 -->
<g id="edge25" class="edge">
<title>Node11&#45;&gt;Node19</title>
<path fill="none" stroke="midnightblue" d="M301.16,-224.4C276.5,-214.42 243.71,-201.15 219.97,-191.53"/>
<polygon fill="midnightblue" stroke="midnightblue" points="220.97,-188.17 210.39,-187.66 218.35,-194.65 220.97,-188.17"/>
</g>
<!-- Node20 -->
<g id="node20" class="node">
<title>Node20</title>
<g id="a_node20"><a xlink:title=" ">
<polygon fill="white" stroke="#bfbfbf" points="253.5,-168.5 253.5,-187.5 318.5,-187.5 318.5,-168.5 253.5,-168.5"/>
<text text-anchor="middle" x="286" y="-175.5" font-family="Helvetica,sans-Serif" font-size="10.00">functional</text>
</a>
</g>
</g>
<!-- Node11&#45;&gt;Node20 -->
<g id="edge26" class="edge">
<title>Node11&#45;&gt;Node20</title>
<path fill="none" stroke="midnightblue" d="M324.15,-224.4C316.89,-215.75 307.55,-204.64 299.93,-195.58"/>
<polygon fill="midnightblue" stroke="midnightblue" points="302.39,-193.06 293.28,-187.66 297.03,-197.57 302.39,-193.06"/>
</g>
<!-- Node21 -->
<g id="node21" class="node">
<title>Node21</title>
<g id="a_node21"><a xlink:title=" ">
<polygon fill="white" stroke="#bfbfbf" points="336.5,-168.5 336.5,-187.5 377.5,-187.5 377.5,-168.5 336.5,-168.5"/>
<text text-anchor="middle" x="357" y="-175.5" font-family="Helvetica,sans-Serif" font-size="10.00">tuple</text>
</a>
</g>
</g>
<!-- Node11&#45;&gt;Node21 -->
<g id="edge27" class="edge">
<title>Node11&#45;&gt;Node21</title>
<path fill="none" stroke="midnightblue" d="M340.98,-224.4C343.84,-216.29 347.47,-206.01 350.55,-197.28"/>
<polygon fill="midnightblue" stroke="midnightblue" points="353.92,-198.25 353.94,-187.66 347.32,-195.92 353.92,-198.25"/>
</g>
<!-- Node13&#45;&gt;Node3 -->
<g id="edge14" class="edge">
<title>Node13&#45;&gt;Node3</title>
<path fill="none" stroke="midnightblue" d="M610.08,-168.15C604.97,-155.22 597.6,-130.66 606,-112 624.04,-71.92 666.71,-41.31 694.42,-24.77"/>
<polygon fill="midnightblue" stroke="midnightblue" points="696.28,-27.74 703.19,-19.7 692.78,-21.67 696.28,-27.74"/>
</g>
<!-- Node13&#45;&gt;Node8 -->
<g id="edge15" class="edge">
<title>Node13&#45;&gt;Node8</title>
<path fill="none" stroke="midnightblue" d="M596.51,-168.31C541.61,-141.02 372.45,-56.95 306.61,-24.22"/>
<polygon fill="midnightblue" stroke="midnightblue" points="307.83,-20.92 297.31,-19.61 304.71,-27.19 307.83,-20.92"/>
</g>
<!-- Node13&#45;&gt;Node12 -->
<g id="edge16" class="edge">
<title>Node13&#45;&gt;Node12</title>
<path fill="none" stroke="midnightblue" d="M577.87,-168.44C538.35,-159.08 474.9,-144.06 431.89,-133.87"/>
<polygon fill="midnightblue" stroke="midnightblue" points="432.5,-130.42 421.96,-131.52 430.88,-137.23 432.5,-130.42"/>
</g>
<!-- Node13&#45;&gt;Node14 -->
<g id="edge17" class="edge">
<title>Node13&#45;&gt;Node14</title>
<path fill="none" stroke="midnightblue" d="M552.81,-169.2C549.5,-168.79 546.21,-168.39 543,-168 427.99,-154.13 293.92,-139 215.84,-130.29"/>
<polygon fill="midnightblue" stroke="midnightblue" points="216,-126.79 205.67,-129.16 215.22,-133.75 216,-126.79"/>
</g>
<!-- Node15 -->
<g id="node15" class="node">
<title>Node15</title>
<g id="a_node15"><a xlink:title=" ">
<polygon fill="white" stroke="#bfbfbf" points="615.5,-112.5 615.5,-131.5 674.5,-131.5 674.5,-112.5 615.5,-112.5"/>
<text text-anchor="middle" x="645" y="-119.5" font-family="Helvetica,sans-Serif" font-size="10.00">complex</text>
</a>
</g>
</g>
<!-- Node13&#45;&gt;Node15 -->
<g id="edge18" class="edge">
<title>Node13&#45;&gt;Node15</title>
<path fill="none" stroke="midnightblue" d="M619.12,-168.08C623.41,-160.61 629.66,-149.72 634.94,-140.52"/>
<polygon fill="midnightblue" stroke="midnightblue" points="638.03,-142.17 639.98,-131.75 631.96,-138.68 638.03,-142.17"/>
</g>
<!-- Node17 -->
<g id="node17" class="node">
<title>Node17</title>
<g id="a_node17"><a xlink:href="sitkCommon_8h.html" target="_top" xlink:title=" ">
<polygon fill="white" stroke="black" points="1233,-112.5 1233,-131.5 1321,-131.5 1321,-112.5 1233,-112.5"/>
<text text-anchor="middle" x="1277" y="-119.5" font-family="Helvetica,sans-Serif" font-size="10.00">sitkCommon.h</text>
</a>
</g>
</g>
<!-- Node16&#45;&gt;Node17 -->
<g id="edge21" class="edge">
<title>Node16&#45;&gt;Node17</title>
<path fill="none" stroke="midnightblue" d="M940.78,-169.43C1015.45,-159.12 1148.39,-140.76 1222.77,-130.49"/>
<polygon fill="midnightblue" stroke="midnightblue" points="1223.44,-133.93 1232.87,-129.09 1222.48,-127 1223.44,-133.93"/>
</g>
<!-- Node17&#45;&gt;Node2 -->
<g id="edge22" class="edge">
<title>Node17&#45;&gt;Node2</title>
<path fill="none" stroke="midnightblue" d="M1232.87,-113.26C1175.44,-103.19 1075.47,-85.67 1016.45,-75.32"/>
<polygon fill="midnightblue" stroke="midnightblue" points="1016.74,-71.82 1006.28,-73.54 1015.53,-78.71 1016.74,-71.82"/>
</g>
<!-- Node22&#45;&gt;Node13 -->
<g id="edge32" class="edge">
<title>Node22&#45;&gt;Node13</title>
<path fill="none" stroke="midnightblue" d="M662.83,-229.98C654.11,-220.87 640.1,-206.24 629.31,-194.98"/>
<polygon fill="midnightblue" stroke="midnightblue" points="631.6,-192.31 622.15,-187.51 626.54,-197.15 631.6,-192.31"/>
</g>
<!-- Node22&#45;&gt;Node17 -->
<g id="edge31" class="edge">
<title>Node22&#45;&gt;Node17</title>
<path fill="none" stroke="midnightblue" d="M723.19,-229.97C779.19,-220.6 870.67,-204.65 949,-188 985.69,-180.2 994.31,-175.82 1031,-168 1096.75,-153.98 1172.95,-140.46 1222.91,-131.96"/>
<polygon fill="midnightblue" stroke="midnightblue" points="1223.58,-135.4 1232.85,-130.28 1222.41,-128.5 1223.58,-135.4"/>
</g>
<!-- Node23 -->
<g id="node23" class="node">
<title>Node23</title>
<g id="a_node23"><a xlink:title=" ">
<polygon fill="white" stroke="#bfbfbf" points="769,-168.5 769,-187.5 813,-187.5 813,-168.5 769,-168.5"/>
<text text-anchor="middle" x="791" y="-175.5" font-family="Helvetica,sans-Serif" font-size="10.00">string</text>
</a>
</g>
</g>
<!-- Node22&#45;&gt;Node23 -->
<g id="edge33" class="edge">
<title>Node22&#45;&gt;Node23</title>
<path fill="none" stroke="midnightblue" d="M688.19,-229.98C708.24,-220.03 741.6,-203.49 764.86,-191.96"/>
<polygon fill="midnightblue" stroke="midnightblue" points="766.43,-195.09 773.84,-187.51 763.32,-188.82 766.43,-195.09"/>
</g>
<!-- Node24 -->
<g id="node24" class="node">
<title>Node24</title>
<g id="a_node24"><a xlink:title=" ">
<polygon fill="white" stroke="#bfbfbf" points="1120.5,-168.5 1120.5,-187.5 1177.5,-187.5 1177.5,-168.5 1120.5,-168.5"/>
<text text-anchor="middle" x="1149" y="-175.5" font-family="Helvetica,sans-Serif" font-size="10.00">ostream</text>
</a>
</g>
</g>
<!-- Node22&#45;&gt;Node24 -->
<g id="edge34" class="edge">
<title>Node22&#45;&gt;Node24</title>
<path fill="none" stroke="midnightblue" d="M726.3,-231.62C824.32,-219.42 1026.15,-194.29 1110.56,-183.78"/>
<polygon fill="midnightblue" stroke="midnightblue" points="1111,-187.26 1120.49,-182.55 1110.14,-180.31 1111,-187.26"/>
</g>
<!-- Node26&#45;&gt;Node10 -->
<g id="edge47" class="edge">
<title>Node26&#45;&gt;Node10</title>
<path fill="none" stroke="midnightblue" d="M946.72,-350.67C877.43,-340.78 728.96,-319.57 652.95,-308.71"/>
<polygon fill="midnightblue" stroke="midnightblue" points="653.12,-305.2 642.72,-307.25 652.13,-312.13 653.12,-305.2"/>
</g>
<!-- Node26&#45;&gt;Node17 -->
<g id="edge37" class="edge">
<title>Node26&#45;&gt;Node17</title>
<path fill="none" stroke="midnightblue" d="M981.61,-347.21C976.05,-324.85 964.45,-264.68 988,-224 1034.6,-143.49 1152.56,-125.86 1222.52,-122.76"/>
<polygon fill="midnightblue" stroke="midnightblue" points="1223.03,-126.24 1232.9,-122.39 1222.79,-119.25 1223.03,-126.24"/>
</g>
<!-- Node27 -->
<g id="node27" class="node">
<title>Node27</title>
<g id="a_node27"><a xlink:href="sitkTemplateFunctions_8h.html" target="_top" xlink:title=" ">
<polygon fill="white" stroke="black" points="1093.5,-291.5 1093.5,-310.5 1228.5,-310.5 1228.5,-291.5 1093.5,-291.5"/>
<text text-anchor="middle" x="1161" y="-298.5" font-family="Helvetica,sans-Serif" font-size="10.00">sitkTemplateFunctions.h</text>
</a>
</g>
</g>
<!-- Node26&#45;&gt;Node27 -->
<g id="edge38" class="edge">
<title>Node26&#45;&gt;Node27</title>
<path fill="none" stroke="midnightblue" d="M1012.05,-347.44C1042.08,-338.28 1089.91,-323.69 1123.24,-313.52"/>
<polygon fill="midnightblue" stroke="midnightblue" points="1124.54,-316.78 1133.09,-310.52 1122.5,-310.09 1124.54,-316.78"/>
</g>
<!-- Node29 -->
<g id="node29" class="node">
<title>Node29</title>
<g id="a_node29"><a xlink:title=" ">
<polygon fill="white" stroke="#bfbfbf" points="1234.5,-230 1234.5,-249 1281.5,-249 1281.5,-230 1234.5,-230"/>
<text text-anchor="middle" x="1258" y="-237" font-family="Helvetica,sans-Serif" font-size="10.00">vector</text>
</a>
</g>
</g>
<!-- Node26&#45;&gt;Node29 -->
<g id="edge55" class="edge">
<title>Node26&#45;&gt;Node29</title>
<path fill="none" stroke="midnightblue" d="M994.77,-347.45C1012.46,-333.79 1049.17,-306.95 1084,-291 1130.72,-269.6 1188.68,-254.95 1224.5,-247.15"/>
<polygon fill="midnightblue" stroke="midnightblue" points="1225.37,-250.54 1234.43,-245.04 1223.92,-243.69 1225.37,-250.54"/>
</g>
<!-- Node31 -->
<g id="node31" class="node">
<title>Node31</title>
<g id="a_node31"><a xlink:href="sitkPixelIDTokens_8h.html" target="_top" xlink:title=" ">
<polygon fill="white" stroke="black" points="737,-291.5 737,-310.5 847,-310.5 847,-291.5 737,-291.5"/>
<text text-anchor="middle" x="792" y="-298.5" font-family="Helvetica,sans-Serif" font-size="10.00">sitkPixelIDTokens.h</text>
</a>
</g>
</g>
<!-- Node26&#45;&gt;Node31 -->
<g id="edge48" class="edge">
<title>Node26&#45;&gt;Node31</title>
<path fill="none" stroke="midnightblue" d="M953.58,-347.44C920.72,-338.2 868.22,-323.44 832.03,-313.26"/>
<polygon fill="midnightblue" stroke="midnightblue" points="832.85,-309.85 822.28,-310.52 830.96,-316.59 832.85,-309.85"/>
</g>
<!-- Node32 -->
<g id="node32" class="node">
<title>Node32</title>
<g id="a_node32"><a xlink:title=" ">
<polygon fill="white" stroke="#bfbfbf" points="808.5,-230 808.5,-249 877.5,-249 877.5,-230 808.5,-230"/>
<text text-anchor="middle" x="843" y="-237" font-family="Helvetica,sans-Serif" font-size="10.00">type_traits</text>
</a>
</g>
</g>
<!-- Node26&#45;&gt;Node32 -->
<g id="edge57" class="edge">
<title>Node26&#45;&gt;Node32</title>
<path fill="none" stroke="midnightblue" d="M959.2,-347.36C939.98,-339.83 913.44,-327.51 894,-311 876.43,-296.08 861.69,-273.9 852.64,-258.42"/>
<polygon fill="midnightblue" stroke="midnightblue" points="855.5,-256.35 847.55,-249.35 849.4,-259.78 855.5,-256.35"/>
</g>
<!-- Node33 -->
<g id="node33" class="node">
<title>Node33</title>
<g id="a_node33"><a xlink:href="sitkInterpolator_8h.html" target="_top" xlink:title=" ">
<polygon fill="white" stroke="black" points="1285,-291.5 1285,-310.5 1385,-310.5 1385,-291.5 1285,-291.5"/>
<text text-anchor="middle" x="1335" y="-298.5" font-family="Helvetica,sans-Serif" font-size="10.00">sitkInterpolator.h</text>
</a>
</g>
</g>
<!-- Node26&#45;&gt;Node33 -->
<g id="edge52" class="edge">
<title>Node26&#45;&gt;Node33</title>
<path fill="none" stroke="midnightblue" d="M1021.23,-350.27C1081.81,-340.95 1202.25,-322.42 1275.01,-311.23"/>
<polygon fill="midnightblue" stroke="midnightblue" points="1275.6,-314.68 1284.95,-309.7 1274.54,-307.76 1275.6,-314.68"/>
</g>
<!-- Node34 -->
<g id="node34" class="node">
<title>Node34</title>
<g id="a_node34"><a xlink:title=" ">
<polygon fill="white" stroke="#bfbfbf" points="903,-291.5 903,-310.5 961,-310.5 961,-291.5 903,-291.5"/>
<text text-anchor="middle" x="932" y="-298.5" font-family="Helvetica,sans-Serif" font-size="10.00">memory</text>
</a>
</g>
</g>
<!-- Node26&#45;&gt;Node34 -->
<g id="edge56" class="edge">
<title>Node26&#45;&gt;Node34</title>
<path fill="none" stroke="midnightblue" d="M975.41,-347.08C967.84,-339.22 956.62,-327.57 947.49,-318.08"/>
<polygon fill="midnightblue" stroke="midnightblue" points="949.88,-315.53 940.43,-310.75 944.84,-320.38 949.88,-315.53"/>
</g>
<!-- Node27&#45;&gt;Node2 -->
<g id="edge39" class="edge">
<title>Node27&#45;&gt;Node2</title>
<path fill="none" stroke="midnightblue" d="M1098.98,-291.44C1055.46,-284.08 1002.54,-271.97 988,-255 946.41,-206.46 957.12,-122.9 964.61,-85.75"/>
<polygon fill="midnightblue" stroke="midnightblue" points="968.07,-86.32 966.77,-75.8 961.23,-84.83 968.07,-86.32"/>
</g>
<!-- Node27&#45;&gt;Node17 -->
<g id="edge40" class="edge">
<title>Node27&#45;&gt;Node17</title>
<path fill="none" stroke="midnightblue" d="M1166.59,-291.46C1184.54,-264.08 1240.92,-178.05 1265.43,-140.65"/>
<polygon fill="midnightblue" stroke="midnightblue" points="1268.63,-142.15 1271.19,-131.87 1262.78,-138.31 1268.63,-142.15"/>
</g>
<!-- Node27&#45;&gt;Node24 -->
<g id="edge45" class="edge">
<title>Node27&#45;&gt;Node24</title>
<path fill="none" stroke="midnightblue" d="M1160.14,-291.3C1158.21,-271.85 1153.51,-224.49 1150.87,-197.9"/>
<polygon fill="midnightblue" stroke="midnightblue" points="1154.33,-197.23 1149.86,-187.62 1147.36,-197.92 1154.33,-197.23"/>
</g>
<!-- Node28 -->
<g id="node28" class="node">
<title>Node28</title>
<g id="a_node28"><a xlink:href="sitkExceptionObject_8h.html" target="_top" xlink:title=" ">
<polygon fill="white" stroke="black" points="1544.5,-230 1544.5,-249 1667.5,-249 1667.5,-230 1544.5,-230"/>
<text text-anchor="middle" x="1606" y="-237" font-family="Helvetica,sans-Serif" font-size="10.00">sitkExceptionObject.h</text>
</a>
</g>
</g>
<!-- Node27&#45;&gt;Node28 -->
<g id="edge41" class="edge">
<title>Node27&#45;&gt;Node28</title>
<path fill="none" stroke="midnightblue" d="M1228.8,-293.53C1303.9,-285.96 1428.48,-272.26 1535,-255 1542.17,-253.84 1549.72,-252.46 1557.11,-251.03"/>
<polygon fill="midnightblue" stroke="midnightblue" points="1557.92,-254.44 1567.04,-249.05 1556.55,-247.57 1557.92,-254.44"/>
</g>
<!-- Node27&#45;&gt;Node29 -->
<g id="edge44" class="edge">
<title>Node27&#45;&gt;Node29</title>
<path fill="none" stroke="midnightblue" d="M1174.9,-291.48C1190.67,-281.8 1216.64,-265.87 1235.35,-254.39"/>
<polygon fill="midnightblue" stroke="midnightblue" points="1237.43,-257.22 1244.13,-249.01 1233.77,-251.25 1237.43,-257.22"/>
</g>
<!-- Node30 -->
<g id="node30" class="node">
<title>Node30</title>
<g id="a_node30"><a xlink:title=" ">
<polygon fill="white" stroke="#bfbfbf" points="1086.5,-230 1086.5,-249 1139.5,-249 1139.5,-230 1086.5,-230"/>
<text text-anchor="middle" x="1113" y="-237" font-family="Helvetica,sans-Serif" font-size="10.00">iterator</text>
</a>
</g>
</g>
<!-- Node27&#45;&gt;Node30 -->
<g id="edge46" class="edge">
<title>Node27&#45;&gt;Node30</title>
<path fill="none" stroke="midnightblue" d="M1154.12,-291.48C1146.85,-282.46 1135.2,-268.02 1126.16,-256.81"/>
<polygon fill="midnightblue" stroke="midnightblue" points="1128.87,-254.59 1119.86,-249.01 1123.42,-258.99 1128.87,-254.59"/>
</g>
<!-- Node28&#45;&gt;Node2 -->
<g id="edge42" class="edge">
<title>Node28&#45;&gt;Node2</title>
<path fill="none" stroke="midnightblue" d="M1594.91,-229.87C1575.95,-215.44 1535.7,-186.21 1498,-168 1333.68,-88.61 1112.41,-71.57 1016.56,-67.95"/>
<polygon fill="midnightblue" stroke="midnightblue" points="1016.43,-64.44 1006.32,-67.6 1016.19,-71.44 1016.43,-64.44"/>
</g>
<!-- Node28&#45;&gt;Node17 -->
<g id="edge43" class="edge">
<title>Node28&#45;&gt;Node17</title>
<path fill="none" stroke="midnightblue" d="M1591.33,-229.99C1565.8,-215.47 1511.21,-185.79 1462,-168 1419.1,-152.49 1368.68,-140.62 1331.32,-132.98"/>
<polygon fill="midnightblue" stroke="midnightblue" points="1331.64,-129.47 1321.15,-130.94 1330.26,-136.34 1331.64,-129.47"/>
</g>
<!-- Node31&#45;&gt;Node8 -->
<g id="edge49" class="edge">
<title>Node31&#45;&gt;Node8</title>
<path fill="none" stroke="midnightblue" d="M736.66,-296.06C608.33,-286.84 297.81,-263.93 251,-255 136.51,-233.16 0,-295.56 0,-179 0,-179 0,-179 0,-121 0,-73.23 142.97,-37.56 224.58,-21.09"/>
<polygon fill="midnightblue" stroke="midnightblue" points="225.57,-24.47 234.7,-19.09 224.21,-17.6 225.57,-24.47"/>
</g>
<!-- Node31&#45;&gt;Node22 -->
<g id="edge50" class="edge">
<title>Node31&#45;&gt;Node22</title>
<path fill="none" stroke="midnightblue" d="M774.66,-291.48C754.45,-281.53 720.81,-264.99 697.36,-253.46"/>
<polygon fill="midnightblue" stroke="midnightblue" points="698.82,-250.28 688.3,-249.01 695.73,-256.56 698.82,-250.28"/>
</g>
<!-- Node31&#45;&gt;Node32 -->
<g id="edge51" class="edge">
<title>Node31&#45;&gt;Node32</title>
<path fill="none" stroke="midnightblue" d="M799.31,-291.48C807.03,-282.46 819.41,-268.02 829.02,-256.81"/>
<polygon fill="midnightblue" stroke="midnightblue" points="831.86,-258.88 835.71,-249.01 826.54,-254.32 831.86,-258.88"/>
</g>
<!-- Node33&#45;&gt;Node17 -->
<g id="edge53" class="edge">
<title>Node33&#45;&gt;Node17</title>
<path fill="none" stroke="midnightblue" d="M1333.4,-291.46C1330.64,-277.28 1324.57,-248.06 1317,-224 1307.69,-194.42 1293.84,-161.16 1285.12,-141.16"/>
<polygon fill="midnightblue" stroke="midnightblue" points="1288.21,-139.5 1280.97,-131.76 1281.8,-142.32 1288.21,-139.5"/>
</g>
<!-- Node33&#45;&gt;Node24 -->
<g id="edge54" class="edge">
<title>Node33&#45;&gt;Node24</title>
<path fill="none" stroke="midnightblue" d="M1332.2,-291.32C1326.68,-275.57 1312.91,-242.25 1290,-224 1260.51,-200.52 1218.52,-189.17 1188.03,-183.76"/>
<polygon fill="midnightblue" stroke="midnightblue" points="1188.2,-180.24 1177.77,-182.09 1187.08,-187.15 1188.2,-180.24"/>
</g>
<!-- Node35&#45;&gt;Node2 -->
<g id="edge59" class="edge">
<title>Node35&#45;&gt;Node2</title>
<path fill="none" stroke="midnightblue" d="M1500.16,-459.48C1580.7,-443.85 1734,-407.6 1734,-358 1734,-358 1734,-358 1734,-177 1734,-104.17 1183.78,-75.76 1016.6,-68.8"/>
<polygon fill="midnightblue" stroke="midnightblue" points="1016.29,-65.29 1006.16,-68.38 1016,-72.28 1016.29,-65.29"/>
</g>
<!-- Node35&#45;&gt;Node33 -->
<g id="edge60" class="edge">
<title>Node35&#45;&gt;Node33</title>
<path fill="none" stroke="midnightblue" d="M1417.83,-459.45C1398.03,-452.76 1374.28,-441.4 1360,-423 1336.74,-393.02 1333.69,-346.69 1334.02,-320.93"/>
<polygon fill="midnightblue" stroke="midnightblue" points="1337.53,-320.78 1334.36,-310.67 1330.53,-320.55 1337.53,-320.78"/>
</g>
<!-- Node36 -->
<g id="node36" class="node">
<title>Node36</title>
<g id="a_node36"><a xlink:href="sitkRandomSeed_8h.html" target="_top" xlink:title=" ">
<polygon fill="white" stroke="black" points="1587,-347.5 1587,-366.5 1695,-366.5 1695,-347.5 1587,-347.5"/>
<text text-anchor="middle" x="1641" y="-354.5" font-family="Helvetica,sans-Serif" font-size="10.00">sitkRandomSeed.h</text>
</a>
</g>
</g>
<!-- Node35&#45;&gt;Node36 -->
<g id="edge61" class="edge">
<title>Node35&#45;&gt;Node36</title>
<path fill="none" stroke="midnightblue" d="M1463.18,-459.37C1480.41,-446.29 1514.73,-421.06 1546,-403 1567.13,-390.8 1592.1,-379.07 1611.14,-370.64"/>
<polygon fill="midnightblue" stroke="midnightblue" points="1612.74,-373.77 1620.5,-366.56 1609.93,-367.35 1612.74,-373.77"/>
</g>
<!-- Node37 -->
<g id="node37" class="node">
<title>Node37</title>
<g id="a_node37"><a xlink:href="sitkKernel_8h.html" target="_top" xlink:title=" ">
<polygon fill="white" stroke="black" points="1452,-230 1452,-249 1526,-249 1526,-230 1452,-230"/>
<text text-anchor="middle" x="1489" y="-237" font-family="Helvetica,sans-Serif" font-size="10.00">sitkKernel.h</text>
</a>
</g>
</g>
<!-- Node35&#45;&gt;Node37 -->
<g id="edge63" class="edge">
<title>Node35&#45;&gt;Node37</title>
<path fill="none" stroke="midnightblue" d="M1456.33,-459.28C1460.55,-450.38 1466.77,-436.07 1470,-423 1484.48,-364.35 1487.94,-292.45 1488.75,-259.11"/>
<polygon fill="midnightblue" stroke="midnightblue" points="1492.25,-259.07 1488.94,-249.01 1485.25,-258.94 1492.25,-259.07"/>
</g>
<!-- Node38 -->
<g id="node38" class="node">
<title>Node38</title>
<g id="a_node38"><a xlink:href="sitkTransform_8h.html" target="_top" xlink:title=" ">
<polygon fill="white" stroke="black" points="1369,-403.5 1369,-422.5 1461,-422.5 1461,-403.5 1369,-403.5"/>
<text text-anchor="middle" x="1415" y="-410.5" font-family="Helvetica,sans-Serif" font-size="10.00">sitkTransform.h</text>
</a>
</g>
</g>
<!-- Node35&#45;&gt;Node38 -->
<g id="edge66" class="edge">
<title>Node35&#45;&gt;Node38</title>
<path fill="none" stroke="midnightblue" d="M1445.89,-459.08C1440.72,-451.53 1433.15,-440.49 1426.81,-431.23"/>
<polygon fill="midnightblue" stroke="midnightblue" points="1429.54,-429.02 1421,-422.75 1423.76,-432.98 1429.54,-429.02"/>
</g>
<!-- Node39 -->
<g id="node39" class="node">
<title>Node39</title>
<g id="a_node39"><a xlink:title=" ">
<polygon fill="white" stroke="#bfbfbf" points="1555,-403.5 1555,-422.5 1593,-422.5 1593,-403.5 1555,-403.5"/>
<text text-anchor="middle" x="1574" y="-410.5" font-family="Helvetica,sans-Serif" font-size="10.00">map</text>
</a>
</g>
</g>
<!-- Node35&#45;&gt;Node39 -->
<g id="edge71" class="edge">
<title>Node35&#45;&gt;Node39</title>
<path fill="none" stroke="midnightblue" d="M1471.33,-459.44C1491.32,-450.6 1522.74,-436.69 1545.56,-426.59"/>
<polygon fill="midnightblue" stroke="midnightblue" points="1547.03,-429.76 1554.76,-422.52 1544.2,-423.36 1547.03,-429.76"/>
</g>
<!-- Node36&#45;&gt;Node17 -->
<g id="edge62" class="edge">
<title>Node36&#45;&gt;Node17</title>
<path fill="none" stroke="midnightblue" d="M1647.9,-347.37C1665.01,-324.87 1705.98,-263.43 1677,-224 1636.19,-168.47 1430.7,-139.35 1331.18,-128.32"/>
<polygon fill="midnightblue" stroke="midnightblue" points="1331.35,-124.81 1321.03,-127.21 1330.59,-131.77 1331.35,-124.81"/>
</g>
<!-- Node37&#45;&gt;Node17 -->
<g id="edge64" class="edge">
<title>Node37&#45;&gt;Node17</title>
<path fill="none" stroke="midnightblue" d="M1485.05,-229.66C1477.88,-214.65 1461.3,-184.24 1438,-168 1406.39,-145.97 1364.26,-134.69 1331.03,-128.93"/>
<polygon fill="midnightblue" stroke="midnightblue" points="1331.45,-125.45 1321.02,-127.31 1330.34,-132.36 1331.45,-125.45"/>
</g>
<!-- Node37&#45;&gt;Node24 -->
<g id="edge65" class="edge">
<title>Node37&#45;&gt;Node24</title>
<path fill="none" stroke="midnightblue" d="M1451.97,-232.02C1387.11,-220.67 1253.6,-197.31 1187.63,-185.76"/>
<polygon fill="midnightblue" stroke="midnightblue" points="1188.1,-182.29 1177.65,-184.01 1186.89,-189.18 1188.1,-182.29"/>
</g>
<!-- Node38&#45;&gt;Node17 -->
<g id="edge67" class="edge">
<title>Node38&#45;&gt;Node17</title>
<path fill="none" stroke="midnightblue" d="M1417.84,-403.05C1428.36,-367.98 1461.43,-238.31 1400,-168 1389.23,-155.68 1351.7,-142.99 1320.89,-134.24"/>
<polygon fill="midnightblue" stroke="midnightblue" points="1321.74,-130.84 1311.17,-131.54 1319.87,-137.59 1321.74,-130.84"/>
</g>
<!-- Node38&#45;&gt;Node26 -->
<g id="edge69" class="edge">
<title>Node38&#45;&gt;Node26</title>
<path fill="none" stroke="midnightblue" d="M1368.88,-406.22C1286.32,-395.88 1114.19,-374.31 1031,-363.89"/>
<polygon fill="midnightblue" stroke="midnightblue" points="1031.43,-360.42 1021.07,-362.64 1030.56,-367.36 1031.43,-360.42"/>
</g>
<!-- Node38&#45;&gt;Node28 -->
<g id="edge68" class="edge">
<title>Node38&#45;&gt;Node28</title>
<path fill="none" stroke="midnightblue" d="M1424.47,-403.5C1454.7,-376.35 1549.2,-291.5 1588.54,-256.17"/>
<polygon fill="midnightblue" stroke="midnightblue" points="1591.37,-258.34 1596.47,-249.06 1586.69,-253.13 1591.37,-258.34"/>
</g>
<!-- Node38&#45;&gt;Node29 -->
<g id="edge70" class="edge">
<title>Node38&#45;&gt;Node29</title>
<path fill="none" stroke="midnightblue" d="M1395.51,-403.3C1365.14,-388.72 1306.82,-356.42 1276,-311 1265.49,-295.51 1261.11,-274.32 1259.29,-259.23"/>
<polygon fill="midnightblue" stroke="midnightblue" points="1262.76,-258.7 1258.34,-249.07 1255.79,-259.35 1262.76,-258.7"/>
</g>
<!-- Node40&#45;&gt;Node2 -->
<g id="edge73" class="edge">
<title>Node40&#45;&gt;Node2</title>
<path fill="none" stroke="midnightblue" d="M1305.01,-523.88C1433.81,-522.24 1772,-508.92 1772,-414 1772,-414 1772,-414 1772,-177 1772,-98.59 1684.45,-129.4 1608,-112 1495.41,-86.37 1145.01,-72.71 1016.7,-68.47"/>
<polygon fill="midnightblue" stroke="midnightblue" points="1016.52,-64.96 1006.42,-68.13 1016.3,-71.95 1016.52,-64.96"/>
</g>
<!-- Node40&#45;&gt;Node9 -->
<g id="edge74" class="edge">
<title>Node40&#45;&gt;Node9</title>
<path fill="none" stroke="midnightblue" d="M1206.74,-519.99C1081.85,-509.14 756.1,-476.36 663,-423 643.13,-411.61 626.7,-390.71 616.66,-375.68"/>
<polygon fill="midnightblue" stroke="midnightblue" points="619.34,-373.37 611.02,-366.81 613.44,-377.12 619.34,-373.37"/>
</g>
<!-- Node40&#45;&gt;Node35 -->
<g id="edge75" class="edge">
<title>Node40&#45;&gt;Node35</title>
<path fill="none" stroke="midnightblue" d="M1287.06,-515.44C1320.6,-506.2 1374.2,-491.44 1411.14,-481.26"/>
<polygon fill="midnightblue" stroke="midnightblue" points="1412.38,-484.55 1421.09,-478.52 1410.52,-477.8 1412.38,-484.55"/>
</g>
<!-- Node40&#45;&gt;Node41 -->
<g id="edge76" class="edge">
<title>Node40&#45;&gt;Node41</title>
<path fill="none" stroke="midnightblue" d="M1218.61,-515.44C1177.61,-506.06 1111.75,-490.99 1067.22,-480.8"/>
<polygon fill="midnightblue" stroke="midnightblue" points="1067.75,-477.34 1057.22,-478.52 1066.19,-484.16 1067.75,-477.34"/>
</g>
<!-- Node41&#45;&gt;Node16 -->
<g id="edge78" class="edge">
<title>Node41&#45;&gt;Node16</title>
<path fill="none" stroke="midnightblue" d="M974.76,-459.46C906.32,-443.78 779.04,-403.14 728,-311 696.14,-253.48 791.65,-210.47 847.93,-190.81"/>
<polygon fill="midnightblue" stroke="midnightblue" points="849.27,-194.06 857.61,-187.53 847.02,-187.43 849.27,-194.06"/>
</g>
<!-- Node41&#45;&gt;Node17 -->
<g id="edge77" class="edge">
<title>Node41&#45;&gt;Node17</title>
<path fill="none" stroke="midnightblue" d="M1076.84,-463.12C1162.64,-452.34 1322.76,-418.17 1394,-311 1436.31,-247.35 1342.35,-169.18 1298.25,-137.43"/>
<polygon fill="midnightblue" stroke="midnightblue" points="1300.09,-134.45 1289.9,-131.55 1296.06,-140.17 1300.09,-134.45"/>
</g>
<!-- Node41&#45;&gt;Node26 -->
<g id="edge83" class="edge">
<title>Node41&#45;&gt;Node26</title>
<path fill="none" stroke="midnightblue" d="M970.23,-459.45C949.17,-453.1 926.63,-442.09 914,-423 899.96,-401.79 927.88,-382.66 952.52,-370.73"/>
<polygon fill="midnightblue" stroke="midnightblue" points="954.07,-373.87 961.7,-366.52 951.15,-367.5 954.07,-373.87"/>
</g>
<!-- Node41&#45;&gt;Node27 -->
<g id="edge79" class="edge">
<title>Node41&#45;&gt;Node27</title>
<path fill="none" stroke="midnightblue" d="M1033.65,-459.45C1046.3,-451.12 1065.19,-437.6 1079,-423 1110.11,-390.1 1137.68,-344.29 1151.54,-319.54"/>
<polygon fill="midnightblue" stroke="midnightblue" points="1154.71,-321.05 1156.46,-310.6 1148.57,-317.67 1154.71,-321.05"/>
</g>
<!-- Node42 -->
<g id="node42" class="node">
<title>Node42</title>
<g id="a_node42"><a xlink:href="sitkEvent_8h.html" target="_top" xlink:title=" ">
<polygon fill="white" stroke="black" points="997.5,-230 997.5,-249 1068.5,-249 1068.5,-230 997.5,-230"/>
<text text-anchor="middle" x="1033" y="-237" font-family="Helvetica,sans-Serif" font-size="10.00">sitkEvent.h</text>
</a>
</g>
</g>
<!-- Node41&#45;&gt;Node42 -->
<g id="edge80" class="edge">
<title>Node41&#45;&gt;Node42</title>
<path fill="none" stroke="midnightblue" d="M1026.63,-459.27C1032.77,-450.61 1041.46,-436.67 1045,-423 1060.17,-364.46 1046.12,-292 1037.94,-258.74"/>
<polygon fill="midnightblue" stroke="midnightblue" points="1041.32,-257.86 1035.44,-249.05 1034.55,-259.6 1041.32,-257.86"/>
</g>
<!-- Node43 -->
<g id="node43" class="node">
<title>Node43</title>
<g id="a_node43"><a xlink:href="sitkImageConvert_8h.html" target="_top" xlink:title=" ">
<polygon fill="white" stroke="black" points="923.5,-403.5 923.5,-422.5 1036.5,-422.5 1036.5,-403.5 923.5,-403.5"/>
<text text-anchor="middle" x="980" y="-410.5" font-family="Helvetica,sans-Serif" font-size="10.00">sitkImageConvert.h</text>
</a>
</g>
</g>
<!-- Node41&#45;&gt;Node43 -->
<g id="edge84" class="edge">
<title>Node41&#45;&gt;Node43</title>
<path fill="none" stroke="midnightblue" d="M1013.39,-459.08C1007.74,-451.46 999.46,-440.26 992.55,-430.94"/>
<polygon fill="midnightblue" stroke="midnightblue" points="995.25,-428.7 986.48,-422.75 989.62,-432.87 995.25,-428.7"/>
</g>
<!-- Node44 -->
<g id="node44" class="node">
<title>Node44</title>
<g id="a_node44"><a xlink:title=" ">
<polygon fill="white" stroke="#bfbfbf" points="672,-403.5 672,-422.5 732,-422.5 732,-403.5 672,-403.5"/>
<text text-anchor="middle" x="702" y="-410.5" font-family="Helvetica,sans-Serif" font-size="10.00">iostream</text>
</a>
</g>
</g>
<!-- Node41&#45;&gt;Node44 -->
<g id="edge86" class="edge">
<title>Node41&#45;&gt;Node44</title>
<path fill="none" stroke="midnightblue" d="M963.43,-460.01C909.13,-452.08 824.6,-439.08 742.22,-423.14"/>
<polygon fill="midnightblue" stroke="midnightblue" points="742.68,-419.66 732.19,-421.18 741.34,-426.53 742.68,-419.66"/>
</g>
<!-- Node45 -->
<g id="node45" class="node">
<title>Node45</title>
<g id="a_node45"><a xlink:title=" ">
<polygon fill="white" stroke="#bfbfbf" points="750,-403.5 750,-422.5 782,-422.5 782,-403.5 750,-403.5"/>
<text text-anchor="middle" x="766" y="-410.5" font-family="Helvetica,sans-Serif" font-size="10.00">list</text>
</a>
</g>
</g>
<!-- Node41&#45;&gt;Node45 -->
<g id="edge87" class="edge">
<title>Node41&#45;&gt;Node45</title>
<path fill="none" stroke="midnightblue" d="M970.77,-459.47C925.18,-451.26 855.65,-437.9 796,-423 794.72,-422.68 793.42,-422.34 792.11,-421.99"/>
<polygon fill="midnightblue" stroke="midnightblue" points="792.69,-418.52 782.12,-419.14 790.77,-425.25 792.69,-418.52"/>
</g>
<!-- Node42&#45;&gt;Node17 -->
<g id="edge81" class="edge">
<title>Node42&#45;&gt;Node17</title>
<path fill="none" stroke="midnightblue" d="M1040.21,-229.7C1052.93,-214.76 1080.88,-184.45 1111,-168 1145.79,-149 1189.15,-137.6 1222.82,-131.04"/>
<polygon fill="midnightblue" stroke="midnightblue" points="1223.75,-134.42 1232.94,-129.15 1222.47,-127.54 1223.75,-134.42"/>
</g>
<!-- Node42&#45;&gt;Node24 -->
<g id="edge82" class="edge">
<title>Node42&#45;&gt;Node24</title>
<path fill="none" stroke="midnightblue" d="M1049.62,-229.98C1068.92,-220.08 1100.96,-203.64 1123.43,-192.12"/>
<polygon fill="midnightblue" stroke="midnightblue" points="1125.11,-195.19 1132.41,-187.51 1121.92,-188.96 1125.11,-195.19"/>
</g>
<!-- Node43&#45;&gt;Node26 -->
<g id="edge85" class="edge">
<title>Node43&#45;&gt;Node26</title>
<path fill="none" stroke="midnightblue" d="M980.66,-403.08C981.18,-396.01 981.94,-385.86 982.59,-376.99"/>
<polygon fill="midnightblue" stroke="midnightblue" points="986.1,-376.98 983.35,-366.75 979.12,-376.47 986.1,-376.98"/>
</g>
</g>
</svg>
