<?xml version="1.0" encoding="UTF-8" standalone="no"?>
<!DOCTYPE svg PUBLIC "-//W3C//DTD SVG 1.1//EN"
 "http://www.w3.org/Graphics/SVG/1.1/DTD/svg11.dtd">
<!-- Generated by graphviz version 2.43.0 (0)
 -->
<!-- Title: sitkTemplateFunctions.h Pages: 1 -->
<!--zoomable 252 -->
<svg id="main" version="1.1" xmlns="http://www.w3.org/2000/svg" xmlns:xlink="http://www.w3.org/1999/xlink" xml:space="preserve" onload="init(evt)">
<style type="text/css"><![CDATA[
.edge:hover path { stroke: red; }
.edge:hover polygon { stroke: red; fill: red; }
]]></style>
<script type="text/javascript"><![CDATA[
var edges = document.getElementsByTagName('g');
if (edges && edges.length) {
  for (var i=0;i<edges.length;i++) {
    if (edges[i].id.substr(0,4)=='edge') {
      edges[i].setAttribute('class','edge');
    }
  }
}
]]></script>
        <defs>
                <circle id="rim" cx="0" cy="0" r="7"/>
                <circle id="rim2" cx="0" cy="0" r="3.5"/>
                <g id="zoomPlus">
                        <use xlink:href="#rim" fill="#404040">
                                <set attributeName="fill" to="#808080" begin="zoomplus.mouseover" end="zoomplus.mouseout"/>
                        </use>
                        <path d="M-4,0h8M0,-4v8" fill="none" stroke="white" stroke-width="1.5" pointer-events="none"/>
                </g>
                <g id="zoomMin">
                        <use xlink:href="#rim" fill="#404040">
                                <set attributeName="fill" to="#808080" begin="zoomminus.mouseover" end="zoomminus.mouseout"/>
                        </use>
                        <path d="M-4,0h8" fill="none" stroke="white" stroke-width="1.5" pointer-events="none"/>
                </g>
                <g id="dirArrow">
                        <path fill="none" stroke="white" stroke-width="1.5" d="M0,-3.0v7 M-2.5,-0.5L0,-3.0L2.5,-0.5"/>
                </g>
               <g id="resetDef">
                       <use xlink:href="#rim2" fill="#404040">
                               <set attributeName="fill" to="#808080" begin="reset.mouseover" end="reset.mouseout"/>
                       </use>
               </g>
        </defs>

<script type="text/javascript">
var viewWidth = 552;
var viewHeight = 252;
var sectionId = 'dynsection-0';
</script>
<script xlink:href="svgpan.js"/>
<svg id="graph" class="graph">
<g id="viewport">
<title>sitkTemplateFunctions.h</title>
<polygon fill="white" stroke="transparent" points="-4,4 -4,-248 548,-248 548,4 -4,4"/>
<!-- Node1 -->
<g id="node1" class="node">
<title>Node1</title>
<g id="a_node1"><a xlink:title=" ">
<polygon fill="#bfbfbf" stroke="black" points="255,-224.5 255,-243.5 390,-243.5 390,-224.5 255,-224.5"/>
<text text-anchor="middle" x="322.5" y="-231.5" font-family="Helvetica,sans-Serif" font-size="10.00">sitkTemplateFunctions.h</text>
</a>
</g>
</g>
<!-- Node2 -->
<g id="node2" class="node">
<title>Node2</title>
<g id="a_node2"><a xlink:href="sitkMacro_8h.html" target="_top" xlink:title=" ">
<polygon fill="white" stroke="black" points="170.5,-56.5 170.5,-75.5 244.5,-75.5 244.5,-56.5 170.5,-56.5"/>
<text text-anchor="middle" x="207.5" y="-63.5" font-family="Helvetica,sans-Serif" font-size="10.00">sitkMacro.h</text>
</a>
</g>
</g>
<!-- Node1&#45;&gt;Node2 -->
<g id="edge1" class="edge">
<title>Node1&#45;&gt;Node2</title>
<path fill="none" stroke="midnightblue" d="M274.63,-224.48C248.08,-217.92 215.65,-206.7 191.5,-188 161.8,-165 138.72,-146.09 154.5,-112 160.42,-99.21 171.97,-88.72 182.78,-81.1"/>
<polygon fill="midnightblue" stroke="midnightblue" points="184.71,-84.02 191.17,-75.61 180.88,-78.16 184.71,-84.02"/>
</g>
<!-- Node9 -->
<g id="node9" class="node">
<title>Node9</title>
<g id="a_node9"><a xlink:href="sitkCommon_8h.html" target="_top" xlink:title=" ">
<polygon fill="white" stroke="black" points="163.5,-112.5 163.5,-131.5 251.5,-131.5 251.5,-112.5 163.5,-112.5"/>
<text text-anchor="middle" x="207.5" y="-119.5" font-family="Helvetica,sans-Serif" font-size="10.00">sitkCommon.h</text>
</a>
</g>
</g>
<!-- Node1&#45;&gt;Node9 -->
<g id="edge8" class="edge">
<title>Node1&#45;&gt;Node9</title>
<path fill="none" stroke="midnightblue" d="M258.1,-224.43C236.14,-218.09 213.8,-207.08 200.5,-188 191.09,-174.5 194.59,-155.43 199.39,-141.44"/>
<polygon fill="midnightblue" stroke="midnightblue" points="202.73,-142.49 203.12,-131.91 196.22,-139.94 202.73,-142.49"/>
</g>
<!-- Node10 -->
<g id="node10" class="node">
<title>Node10</title>
<g id="a_node10"><a xlink:href="sitkExceptionObject_8h.html" target="_top" xlink:title=" ">
<polygon fill="white" stroke="black" points="210,-168.5 210,-187.5 333,-187.5 333,-168.5 210,-168.5"/>
<text text-anchor="middle" x="271.5" y="-175.5" font-family="Helvetica,sans-Serif" font-size="10.00">sitkExceptionObject.h</text>
</a>
</g>
</g>
<!-- Node1&#45;&gt;Node10 -->
<g id="edge10" class="edge">
<title>Node1&#45;&gt;Node10</title>
<path fill="none" stroke="midnightblue" d="M314.08,-224.08C306.65,-216.22 295.65,-204.57 286.69,-195.08"/>
<polygon fill="midnightblue" stroke="midnightblue" points="289.18,-192.62 279.76,-187.75 284.09,-197.42 289.18,-192.62"/>
</g>
<!-- Node11 -->
<g id="node11" class="node">
<title>Node11</title>
<g id="a_node11"><a xlink:title=" ">
<polygon fill="white" stroke="#bfbfbf" points="351,-168.5 351,-187.5 398,-187.5 398,-168.5 351,-168.5"/>
<text text-anchor="middle" x="374.5" y="-175.5" font-family="Helvetica,sans-Serif" font-size="10.00">vector</text>
</a>
</g>
</g>
<!-- Node1&#45;&gt;Node11 -->
<g id="edge13" class="edge">
<title>Node1&#45;&gt;Node11</title>
<path fill="none" stroke="midnightblue" d="M331.09,-224.08C338.66,-216.22 349.88,-204.57 359.01,-195.08"/>
<polygon fill="midnightblue" stroke="midnightblue" points="361.66,-197.38 366.07,-187.75 356.62,-192.53 361.66,-197.38"/>
</g>
<!-- Node12 -->
<g id="node12" class="node">
<title>Node12</title>
<g id="a_node12"><a xlink:title=" ">
<polygon fill="white" stroke="#bfbfbf" points="416,-168.5 416,-187.5 473,-187.5 473,-168.5 416,-168.5"/>
<text text-anchor="middle" x="444.5" y="-175.5" font-family="Helvetica,sans-Serif" font-size="10.00">ostream</text>
</a>
</g>
</g>
<!-- Node1&#45;&gt;Node12 -->
<g id="edge14" class="edge">
<title>Node1&#45;&gt;Node12</title>
<path fill="none" stroke="midnightblue" d="M341.83,-224.44C361.82,-215.6 393.24,-201.69 416.06,-191.59"/>
<polygon fill="midnightblue" stroke="midnightblue" points="417.53,-194.76 425.26,-187.52 414.7,-188.36 417.53,-194.76"/>
</g>
<!-- Node13 -->
<g id="node13" class="node">
<title>Node13</title>
<g id="a_node13"><a xlink:title=" ">
<polygon fill="white" stroke="#bfbfbf" points="491,-168.5 491,-187.5 544,-187.5 544,-168.5 491,-168.5"/>
<text text-anchor="middle" x="517.5" y="-175.5" font-family="Helvetica,sans-Serif" font-size="10.00">iterator</text>
</a>
</g>
</g>
<!-- Node1&#45;&gt;Node13 -->
<g id="edge15" class="edge">
<title>Node1&#45;&gt;Node13</title>
<path fill="none" stroke="midnightblue" d="M353.4,-224.44C388.05,-214.85 444.2,-199.3 480.99,-189.11"/>
<polygon fill="midnightblue" stroke="midnightblue" points="482.12,-192.43 490.82,-186.39 480.25,-185.68 482.12,-192.43"/>
</g>
<!-- Node3 -->
<g id="node3" class="node">
<title>Node3</title>
<g id="a_node3"><a xlink:title=" ">
<polygon fill="white" stroke="#bfbfbf" points="0,-0.5 0,-19.5 53,-19.5 53,-0.5 0,-0.5"/>
<text text-anchor="middle" x="26.5" y="-7.5" font-family="Helvetica,sans-Serif" font-size="10.00">stdint.h</text>
</a>
</g>
</g>
<!-- Node2&#45;&gt;Node3 -->
<g id="edge2" class="edge">
<title>Node2&#45;&gt;Node3</title>
<path fill="none" stroke="midnightblue" d="M178.82,-56.44C147.43,-47.08 97.03,-32.04 62.88,-21.85"/>
<polygon fill="midnightblue" stroke="midnightblue" points="63.86,-18.49 53.28,-18.99 61.86,-25.2 63.86,-18.49"/>
</g>
<!-- Node4 -->
<g id="node4" class="node">
<title>Node4</title>
<g id="a_node4"><a xlink:title=" ">
<polygon fill="white" stroke="#bfbfbf" points="71.5,-0.5 71.5,-19.5 127.5,-19.5 127.5,-0.5 71.5,-0.5"/>
<text text-anchor="middle" x="99.5" y="-7.5" font-family="Helvetica,sans-Serif" font-size="10.00">stddef.h</text>
</a>
</g>
</g>
<!-- Node2&#45;&gt;Node4 -->
<g id="edge3" class="edge">
<title>Node2&#45;&gt;Node4</title>
<path fill="none" stroke="midnightblue" d="M190.15,-56.32C172.83,-47.66 145.98,-34.24 126,-24.25"/>
<polygon fill="midnightblue" stroke="midnightblue" points="127.32,-21 116.81,-19.65 124.19,-27.26 127.32,-21"/>
</g>
<!-- Node5 -->
<g id="node5" class="node">
<title>Node5</title>
<g id="a_node5"><a xlink:title=" ">
<polygon fill="white" stroke="#bfbfbf" points="145.5,-0.5 145.5,-19.5 197.5,-19.5 197.5,-0.5 145.5,-0.5"/>
<text text-anchor="middle" x="171.5" y="-7.5" font-family="Helvetica,sans-Serif" font-size="10.00">cassert</text>
</a>
</g>
</g>
<!-- Node2&#45;&gt;Node5 -->
<g id="edge4" class="edge">
<title>Node2&#45;&gt;Node5</title>
<path fill="none" stroke="midnightblue" d="M201.56,-56.08C196.52,-48.53 189.16,-37.49 182.99,-28.23"/>
<polygon fill="midnightblue" stroke="midnightblue" points="185.79,-26.13 177.33,-19.75 179.97,-30.01 185.79,-26.13"/>
</g>
<!-- Node6 -->
<g id="node6" class="node">
<title>Node6</title>
<g id="a_node6"><a xlink:title=" ">
<polygon fill="white" stroke="#bfbfbf" points="215.5,-0.5 215.5,-19.5 271.5,-19.5 271.5,-0.5 215.5,-0.5"/>
<text text-anchor="middle" x="243.5" y="-7.5" font-family="Helvetica,sans-Serif" font-size="10.00">sstream</text>
</a>
</g>
</g>
<!-- Node2&#45;&gt;Node6 -->
<g id="edge5" class="edge">
<title>Node2&#45;&gt;Node6</title>
<path fill="none" stroke="midnightblue" d="M213.44,-56.08C218.48,-48.53 225.84,-37.49 232.01,-28.23"/>
<polygon fill="midnightblue" stroke="midnightblue" points="235.03,-30.01 237.67,-19.75 229.21,-26.13 235.03,-30.01"/>
</g>
<!-- Node7 -->
<g id="node7" class="node">
<title>Node7</title>
<g id="a_node7"><a xlink:title=" ">
<polygon fill="white" stroke="#bfbfbf" points="289.5,-0.5 289.5,-19.5 333.5,-19.5 333.5,-0.5 289.5,-0.5"/>
<text text-anchor="middle" x="311.5" y="-7.5" font-family="Helvetica,sans-Serif" font-size="10.00">limits</text>
</a>
</g>
</g>
<!-- Node2&#45;&gt;Node7 -->
<g id="edge6" class="edge">
<title>Node2&#45;&gt;Node7</title>
<path fill="none" stroke="midnightblue" d="M224.21,-56.32C240.81,-47.7 266.5,-34.36 285.72,-24.39"/>
<polygon fill="midnightblue" stroke="midnightblue" points="287.57,-27.37 294.83,-19.65 284.34,-21.16 287.57,-27.37"/>
</g>
<!-- Node8 -->
<g id="node8" class="node">
<title>Node8</title>
<g id="a_node8"><a xlink:href="sitkConfigure_8h.html" target="_top" xlink:title=" ">
<polygon fill="white" stroke="black" points="351.5,-0.5 351.5,-19.5 441.5,-19.5 441.5,-0.5 351.5,-0.5"/>
<text text-anchor="middle" x="396.5" y="-7.5" font-family="Helvetica,sans-Serif" font-size="10.00">sitkConfigure.h</text>
</a>
</g>
</g>
<!-- Node2&#45;&gt;Node8 -->
<g id="edge7" class="edge">
<title>Node2&#45;&gt;Node8</title>
<path fill="none" stroke="midnightblue" d="M237.45,-56.44C269.66,-47.24 321.03,-32.56 356.64,-22.39"/>
<polygon fill="midnightblue" stroke="midnightblue" points="358.04,-25.63 366.69,-19.52 356.12,-18.9 358.04,-25.63"/>
</g>
<!-- Node9&#45;&gt;Node2 -->
<g id="edge9" class="edge">
<title>Node9&#45;&gt;Node2</title>
<path fill="none" stroke="midnightblue" d="M207.5,-112.08C207.5,-105.01 207.5,-94.86 207.5,-85.99"/>
<polygon fill="midnightblue" stroke="midnightblue" points="211,-85.75 207.5,-75.75 204,-85.75 211,-85.75"/>
</g>
<!-- Node10&#45;&gt;Node2 -->
<g id="edge11" class="edge">
<title>Node10&#45;&gt;Node2</title>
<path fill="none" stroke="midnightblue" d="M271.86,-168.38C272.01,-155.32 270.8,-130.11 260.5,-112 253.51,-99.71 241.81,-89.24 231.18,-81.5"/>
<polygon fill="midnightblue" stroke="midnightblue" points="232.86,-78.41 222.63,-75.66 228.92,-84.19 232.86,-78.41"/>
</g>
<!-- Node10&#45;&gt;Node9 -->
<g id="edge12" class="edge">
<title>Node10&#45;&gt;Node9</title>
<path fill="none" stroke="midnightblue" d="M261.22,-168.32C251.66,-160.26 237.22,-148.08 225.72,-138.37"/>
<polygon fill="midnightblue" stroke="midnightblue" points="227.87,-135.61 217.97,-131.83 223.36,-140.96 227.87,-135.61"/>
</g>
</g>
</svg>
        <g id="navigator" transform="translate(0 0)" fill="#404254">
                <rect fill="#f2f5e9" fill-opacity="0.5" stroke="#606060" stroke-width=".5" x="0" y="0" width="60" height="60"/>
                <use id="zoomplus" xlink:href="#zoomPlus" x="17" y="9" onmousedown="handleZoom(evt,'in')"/>
                <use id="zoomminus" xlink:href="#zoomMin" x="42" y="9" onmousedown="handleZoom(evt,'out')"/>
                <use id="reset" xlink:href="#resetDef" x="30" y="36" onmousedown="handleReset()"/>
                <g id="arrowUp" xlink:href="#dirArrow" transform="translate(30 24)" onmousedown="handlePan(0,-1)">
                  <use xlink:href="#rim" fill="#404040">
                        <set attributeName="fill" to="#808080" begin="arrowUp.mouseover" end="arrowUp.mouseout"/>
                  </use>
                  <path fill="none" stroke="white" stroke-width="1.5" d="M0,-3.0v7 M-2.5,-0.5L0,-3.0L2.5,-0.5"/>
                </g>
                <g id="arrowRight" xlink:href="#dirArrow" transform="rotate(90) translate(36 -43)" onmousedown="handlePan(1,0)">
                  <use xlink:href="#rim" fill="#404040">
                        <set attributeName="fill" to="#808080" begin="arrowRight.mouseover" end="arrowRight.mouseout"/>
                  </use>
                  <path fill="none" stroke="white" stroke-width="1.5" d="M0,-3.0v7 M-2.5,-0.5L0,-3.0L2.5,-0.5"/>
                </g>
                <g id="arrowDown" xlink:href="#dirArrow" transform="rotate(180) translate(-30 -48)" onmousedown="handlePan(0,1)">
                  <use xlink:href="#rim" fill="#404040">
                        <set attributeName="fill" to="#808080" begin="arrowDown.mouseover" end="arrowDown.mouseout"/>
                  </use>
                  <path fill="none" stroke="white" stroke-width="1.5" d="M0,-3.0v7 M-2.5,-0.5L0,-3.0L2.5,-0.5"/>
                </g>
                <g id="arrowLeft" xlink:href="#dirArrow" transform="rotate(270) translate(-36 17)" onmousedown="handlePan(-1,0)">
                  <use xlink:href="#rim" fill="#404040">
                        <set attributeName="fill" to="#808080" begin="arrowLeft.mouseover" end="arrowLeft.mouseout"/>
                  </use>
                  <path fill="none" stroke="white" stroke-width="1.5" d="M0,-3.0v7 M-2.5,-0.5L0,-3.0L2.5,-0.5"/>
                </g>
        </g>
        <svg viewBox="0 0 15 15" width="100%" height="30px" preserveAspectRatio="xMaxYMin meet">
         <g id="arrow_out" transform="scale(0.3 0.3)">
          <a xlink:href="sitkTemplateFunctions_8h__incl_org.svg" target="_base">
           <rect id="button" ry="5" rx="5" y="6" x="6" height="38" width="38"
                fill="#f2f5e9" fill-opacity="0.5" stroke="#606060" stroke-width="1.0"/>
           <path id="arrow"
             d="M 11.500037,31.436501 C 11.940474,20.09759 22.043105,11.32322 32.158766,21.979434 L 37.068811,17.246167 C 37.068811,17.246167 37.088388,32 37.088388,32 L 22.160133,31.978069 C 22.160133,31.978069 26.997745,27.140456 26.997745,27.140456 C 18.528582,18.264221 13.291696,25.230495 11.500037,31.436501 z"
             style="fill:#404040;"/>
          </a>
         </g>
        </svg>
</svg>
