<?xml version="1.0" encoding="UTF-8" standalone="no"?>
<!DOCTYPE svg PUBLIC "-//W3C//DTD SVG 1.1//EN"
 "http://www.w3.org/Graphics/SVG/1.1/DTD/svg11.dtd">
<!-- Generated by graphviz version 2.43.0 (0)
 -->
<!-- Title: sitkDualMemberFunctionFactory.h Pages: 1 -->
<!--zoomable 162 -->
<svg id="main" version="1.1" xmlns="http://www.w3.org/2000/svg" xmlns:xlink="http://www.w3.org/1999/xlink" xml:space="preserve" onload="init(evt)">
<style type="text/css"><![CDATA[
.edge:hover path { stroke: red; }
.edge:hover polygon { stroke: red; fill: red; }
]]></style>
<script type="text/javascript"><![CDATA[
var edges = document.getElementsByTagName('g');
if (edges && edges.length) {
  for (var i=0;i<edges.length;i++) {
    if (edges[i].id.substr(0,4)=='edge') {
      edges[i].setAttribute('class','edge');
    }
  }
}
]]></script>
        <defs>
                <circle id="rim" cx="0" cy="0" r="7"/>
                <circle id="rim2" cx="0" cy="0" r="3.5"/>
                <g id="zoomPlus">
                        <use xlink:href="#rim" fill="#404040">
                                <set attributeName="fill" to="#808080" begin="zoomplus.mouseover" end="zoomplus.mouseout"/>
                        </use>
                        <path d="M-4,0h8M0,-4v8" fill="none" stroke="white" stroke-width="1.5" pointer-events="none"/>
                </g>
                <g id="zoomMin">
                        <use xlink:href="#rim" fill="#404040">
                                <set attributeName="fill" to="#808080" begin="zoomminus.mouseover" end="zoomminus.mouseout"/>
                        </use>
                        <path d="M-4,0h8" fill="none" stroke="white" stroke-width="1.5" pointer-events="none"/>
                </g>
                <g id="dirArrow">
                        <path fill="none" stroke="white" stroke-width="1.5" d="M0,-3.0v7 M-2.5,-0.5L0,-3.0L2.5,-0.5"/>
                </g>
               <g id="resetDef">
                       <use xlink:href="#rim2" fill="#404040">
                               <set attributeName="fill" to="#808080" begin="reset.mouseover" end="reset.mouseout"/>
                       </use>
               </g>
        </defs>

<script type="text/javascript">
var viewWidth = 2442;
var viewHeight = 162;
var sectionId = 'dynsection-1';
</script>
<script xlink:href="svgpan.js"/>
<svg id="graph" class="graph">
<g id="viewport">
<title>sitkDualMemberFunctionFactory.h</title>
<polygon fill="white" stroke="transparent" points="-4,4 -4,-158 2438,-158 2438,4 -4,4"/>
<!-- Node1 -->
<g id="node1" class="node">
<title>Node1</title>
<g id="a_node1"><a xlink:title=" ">
<polygon fill="#bfbfbf" stroke="black" points="1070,-134.5 1070,-153.5 1252,-153.5 1252,-134.5 1070,-134.5"/>
<text text-anchor="middle" x="1161" y="-141.5" font-family="Helvetica,sans-Serif" font-size="10.00">sitkDualMemberFunctionFactory.h</text>
</a>
</g>
</g>
<!-- Node2 -->
<g id="node2" class="node">
<title>Node2</title>
<g id="a_node2"><a xlink:href="sitkCastImageFilter_8h.html" target="_top" xlink:title=" ">
<polygon fill="white" stroke="black" points="0,-73 0,-92 120,-92 120,-73 0,-73"/>
<text text-anchor="middle" x="60" y="-80" font-family="Helvetica,sans-Serif" font-size="10.00">sitkCastImageFilter.h</text>
</a>
</g>
</g>
<!-- Node1&#45;&gt;Node2 -->
<g id="edge1" class="edge">
<title>Node1&#45;&gt;Node2</title>
<path fill="none" stroke="midnightblue" d="M1059.76,-140.69C836.34,-135.26 306.87,-120.41 129,-98 117.95,-96.61 106.03,-94.37 95.27,-92.07"/>
<polygon fill="midnightblue" stroke="midnightblue" points="1059.76,-144.2 1069.84,-140.94 1059.92,-137.2 1059.76,-144.2"/>
</g>
<!-- Node4 -->
<g id="node4" class="node">
<title>Node4</title>
<g id="a_node4"><a xlink:href="sitkClampImageFilter_8h.html" target="_top" xlink:title=" ">
<polygon fill="white" stroke="black" points="938,-73 938,-92 1068,-92 1068,-73 938,-73"/>
<text text-anchor="middle" x="1003" y="-80" font-family="Helvetica,sans-Serif" font-size="10.00">sitkClampImageFilter.h</text>
</a>
</g>
</g>
<!-- Node1&#45;&gt;Node4 -->
<g id="edge3" class="edge">
<title>Node1&#45;&gt;Node4</title>
<path fill="none" stroke="midnightblue" d="M1128.96,-130.93C1098.25,-119.37 1052.68,-102.21 1025.6,-92.01"/>
<polygon fill="midnightblue" stroke="midnightblue" points="1127.77,-134.23 1138.36,-134.48 1130.24,-127.68 1127.77,-134.23"/>
</g>
<!-- Node7 -->
<g id="node7" class="node">
<title>Node7</title>
<g id="a_node7"><a xlink:href="sitkLabelIntensityStatisticsImageFilter_8h.html" target="_top" xlink:title=" ">
<polygon fill="white" stroke="black" points="1086.5,-67.5 1086.5,-97.5 1235.5,-97.5 1235.5,-67.5 1086.5,-67.5"/>
<text text-anchor="start" x="1094.5" y="-85.5" font-family="Helvetica,sans-Serif" font-size="10.00">sitkLabelIntensityStatistics</text>
<text text-anchor="middle" x="1161" y="-74.5" font-family="Helvetica,sans-Serif" font-size="10.00">ImageFilter.h</text>
</a>
</g>
</g>
<!-- Node1&#45;&gt;Node7 -->
<g id="edge6" class="edge">
<title>Node1&#45;&gt;Node7</title>
<path fill="none" stroke="midnightblue" d="M1161,-124.23C1161,-115.59 1161,-105.5 1161,-97.52"/>
<polygon fill="midnightblue" stroke="midnightblue" points="1157.5,-124.48 1161,-134.48 1164.5,-124.48 1157.5,-124.48"/>
</g>
<!-- Node8 -->
<g id="node8" class="node">
<title>Node8</title>
<g id="a_node8"><a xlink:href="sitkLabelMapContourOverlayImageFilter_8h.html" target="_top" xlink:title=" ">
<polygon fill="white" stroke="black" points="1253,-67.5 1253,-97.5 1411,-97.5 1411,-67.5 1253,-67.5"/>
<text text-anchor="start" x="1261" y="-85.5" font-family="Helvetica,sans-Serif" font-size="10.00">sitkLabelMapContourOverlay</text>
<text text-anchor="middle" x="1332" y="-74.5" font-family="Helvetica,sans-Serif" font-size="10.00">ImageFilter.h</text>
</a>
</g>
</g>
<!-- Node1&#45;&gt;Node8 -->
<g id="edge9" class="edge">
<title>Node1&#45;&gt;Node8</title>
<path fill="none" stroke="midnightblue" d="M1195.19,-131.1C1223.02,-121.42 1262.34,-107.74 1291.7,-97.52"/>
<polygon fill="midnightblue" stroke="midnightblue" points="1193.79,-127.88 1185.5,-134.48 1196.09,-134.49 1193.79,-127.88"/>
</g>
<!-- Node9 -->
<g id="node9" class="node">
<title>Node9</title>
<g id="a_node9"><a xlink:href="sitkLabelMapMaskImageFilter_8h.html" target="_top" xlink:title=" ">
<polygon fill="white" stroke="black" points="1429,-73 1429,-92 1601,-92 1601,-73 1429,-73"/>
<text text-anchor="middle" x="1515" y="-80" font-family="Helvetica,sans-Serif" font-size="10.00">sitkLabelMapMaskImageFilter.h</text>
</a>
</g>
</g>
<!-- Node1&#45;&gt;Node9 -->
<g id="edge12" class="edge">
<title>Node1&#45;&gt;Node9</title>
<path fill="none" stroke="midnightblue" d="M1221.93,-132.76C1290.43,-121.25 1400.41,-102.76 1464.37,-92.01"/>
<polygon fill="midnightblue" stroke="midnightblue" points="1221,-129.37 1211.72,-134.48 1222.16,-136.27 1221,-129.37"/>
</g>
<!-- Node10 -->
<g id="node10" class="node">
<title>Node10</title>
<g id="a_node10"><a xlink:href="sitkLabelMapOverlayImageFilter_8h.html" target="_top" xlink:title=" ">
<polygon fill="white" stroke="black" points="1619.5,-67.5 1619.5,-97.5 1770.5,-97.5 1770.5,-67.5 1619.5,-67.5"/>
<text text-anchor="start" x="1627.5" y="-85.5" font-family="Helvetica,sans-Serif" font-size="10.00">sitkLabelMapOverlayImage</text>
<text text-anchor="middle" x="1695" y="-74.5" font-family="Helvetica,sans-Serif" font-size="10.00">Filter.h</text>
</a>
</g>
</g>
<!-- Node1&#45;&gt;Node10 -->
<g id="edge15" class="edge">
<title>Node1&#45;&gt;Node10</title>
<path fill="none" stroke="midnightblue" d="M1262.42,-134.85C1353.58,-127.04 1491.02,-114.09 1610,-98 1613.12,-97.58 1616.29,-97.13 1619.5,-96.66"/>
<polygon fill="midnightblue" stroke="midnightblue" points="1262.04,-131.37 1252.37,-135.7 1262.63,-138.34 1262.04,-131.37"/>
</g>
<!-- Node11 -->
<g id="node11" class="node">
<title>Node11</title>
<g id="a_node11"><a xlink:href="sitkLabelOverlayImageFilter_8h.html" target="_top" xlink:title=" ">
<polygon fill="white" stroke="black" points="1788.5,-73 1788.5,-92 1951.5,-92 1951.5,-73 1788.5,-73"/>
<text text-anchor="middle" x="1870" y="-80" font-family="Helvetica,sans-Serif" font-size="10.00">sitkLabelOverlayImageFilter.h</text>
</a>
</g>
</g>
<!-- Node1&#45;&gt;Node11 -->
<g id="edge18" class="edge">
<title>Node1&#45;&gt;Node11</title>
<path fill="none" stroke="midnightblue" d="M1262.36,-138.35C1385.17,-132.08 1598.22,-119.21 1780,-98 1793.68,-96.4 1808.45,-94.22 1822,-92.03"/>
<polygon fill="midnightblue" stroke="midnightblue" points="1262.03,-134.86 1252.22,-138.86 1262.39,-141.85 1262.03,-134.86"/>
</g>
<!-- Node12 -->
<g id="node12" class="node">
<title>Node12</title>
<g id="a_node12"><a xlink:href="sitkLabelStatisticsImageFilter_8h.html" target="_top" xlink:title=" ">
<polygon fill="white" stroke="black" points="1969.5,-67.5 1969.5,-97.5 2106.5,-97.5 2106.5,-67.5 1969.5,-67.5"/>
<text text-anchor="start" x="1977.5" y="-85.5" font-family="Helvetica,sans-Serif" font-size="10.00">sitkLabelStatisticsImage</text>
<text text-anchor="middle" x="2038" y="-74.5" font-family="Helvetica,sans-Serif" font-size="10.00">Filter.h</text>
</a>
</g>
</g>
<!-- Node1&#45;&gt;Node12 -->
<g id="edge21" class="edge">
<title>Node1&#45;&gt;Node12</title>
<path fill="none" stroke="midnightblue" d="M1262.49,-141.51C1414.74,-138.32 1711.11,-128.43 1961,-98 1963.7,-97.67 1966.45,-97.31 1969.22,-96.91"/>
<polygon fill="midnightblue" stroke="midnightblue" points="1262.15,-138.02 1252.22,-141.72 1262.29,-145.01 1262.15,-138.02"/>
</g>
<!-- Node13 -->
<g id="node13" class="node">
<title>Node13</title>
<g id="a_node13"><a xlink:href="sitkMaskImageFilter_8h.html" target="_top" xlink:title=" ">
<polygon fill="white" stroke="black" points="2124.5,-73 2124.5,-92 2249.5,-92 2249.5,-73 2124.5,-73"/>
<text text-anchor="middle" x="2187" y="-80" font-family="Helvetica,sans-Serif" font-size="10.00">sitkMaskImageFilter.h</text>
</a>
</g>
</g>
<!-- Node1&#45;&gt;Node13 -->
<g id="edge24" class="edge">
<title>Node1&#45;&gt;Node13</title>
<path fill="none" stroke="midnightblue" d="M1262.48,-143.35C1437.41,-142.8 1806.75,-136.63 2116,-98 2127.36,-96.58 2139.62,-94.34 2150.69,-92.04"/>
<polygon fill="midnightblue" stroke="midnightblue" points="1262.25,-139.85 1252.26,-143.37 1262.27,-146.85 1262.25,-139.85"/>
</g>
<!-- Node14 -->
<g id="node14" class="node">
<title>Node14</title>
<g id="a_node14"><a xlink:href="sitkMaskNegatedImageFilter_8h.html" target="_top" xlink:title=" ">
<polygon fill="white" stroke="black" points="2268,-73 2268,-92 2434,-92 2434,-73 2268,-73"/>
<text text-anchor="middle" x="2351" y="-80" font-family="Helvetica,sans-Serif" font-size="10.00">sitkMaskNegatedImageFilter.h</text>
</a>
</g>
</g>
<!-- Node1&#45;&gt;Node14 -->
<g id="edge27" class="edge">
<title>Node1&#45;&gt;Node14</title>
<path fill="none" stroke="midnightblue" d="M1262.53,-142.74C1456.6,-141.39 1893.42,-134.18 2259,-98 2273.64,-96.55 2289.5,-94.3 2303.86,-92"/>
<polygon fill="midnightblue" stroke="midnightblue" points="1262.33,-139.25 1252.35,-142.81 1262.37,-146.25 1262.33,-139.25"/>
</g>
<!-- Node15 -->
<g id="node15" class="node">
<title>Node15</title>
<g id="a_node15"><a xlink:href="sitkMorphologicalWatershedFromMarkersImageFilter_8h.html" target="_top" xlink:title=" ">
<polygon fill="white" stroke="black" points="138.5,-67.5 138.5,-97.5 293.5,-97.5 293.5,-67.5 138.5,-67.5"/>
<text text-anchor="start" x="146.5" y="-85.5" font-family="Helvetica,sans-Serif" font-size="10.00">sitkMorphologicalWatershed</text>
<text text-anchor="middle" x="216" y="-74.5" font-family="Helvetica,sans-Serif" font-size="10.00">FromMarkersImageFilter.h</text>
</a>
</g>
</g>
<!-- Node1&#45;&gt;Node15 -->
<g id="edge30" class="edge">
<title>Node1&#45;&gt;Node15</title>
<path fill="none" stroke="midnightblue" d="M1059.45,-141.45C898.4,-138.14 574.71,-128.03 302,-98 299.29,-97.7 296.54,-97.37 293.76,-97.02"/>
<polygon fill="midnightblue" stroke="midnightblue" points="1059.75,-144.95 1069.82,-141.65 1059.89,-137.95 1059.75,-144.95"/>
</g>
<!-- Node16 -->
<g id="node16" class="node">
<title>Node16</title>
<g id="a_node16"><a xlink:href="sitkResampleImageFilter_8h.html" target="_top" xlink:title=" ">
<polygon fill="white" stroke="black" points="311.5,-73 311.5,-92 458.5,-92 458.5,-73 311.5,-73"/>
<text text-anchor="middle" x="385" y="-80" font-family="Helvetica,sans-Serif" font-size="10.00">sitkResampleImageFilter.h</text>
</a>
</g>
</g>
<!-- Node1&#45;&gt;Node16 -->
<g id="edge33" class="edge">
<title>Node1&#45;&gt;Node16</title>
<path fill="none" stroke="midnightblue" d="M1059.56,-139.85C924.25,-134.86 677.43,-123.02 468,-98 455.22,-96.47 441.42,-94.28 428.81,-92.07"/>
<polygon fill="midnightblue" stroke="midnightblue" points="1059.78,-143.36 1069.9,-140.22 1060.04,-136.36 1059.78,-143.36"/>
</g>
<!-- Node17 -->
<g id="node17" class="node">
<title>Node17</title>
<g id="a_node17"><a xlink:href="sitkShiftScaleImageFilter_8h.html" target="_top" xlink:title=" ">
<polygon fill="white" stroke="black" points="477,-73 477,-92 623,-92 623,-73 477,-73"/>
<text text-anchor="middle" x="550" y="-80" font-family="Helvetica,sans-Serif" font-size="10.00">sitkShiftScaleImageFilter.h</text>
</a>
</g>
</g>
<!-- Node1&#45;&gt;Node17 -->
<g id="edge36" class="edge">
<title>Node1&#45;&gt;Node17</title>
<path fill="none" stroke="midnightblue" d="M1059.82,-137.11C953.14,-130.27 780.3,-117.38 632,-98 619.67,-96.39 606.37,-94.22 594.15,-92.06"/>
<polygon fill="midnightblue" stroke="midnightblue" points="1059.73,-140.61 1069.93,-137.76 1060.18,-133.63 1059.73,-140.61"/>
</g>
<!-- Node18 -->
<g id="node18" class="node">
<title>Node18</title>
<g id="a_node18"><a xlink:href="sitkVectorIndexSelectionCastImageFilter_8h.html" target="_top" xlink:title=" ">
<polygon fill="white" stroke="black" points="641.5,-67.5 641.5,-97.5 778.5,-97.5 778.5,-67.5 641.5,-67.5"/>
<text text-anchor="start" x="649.5" y="-85.5" font-family="Helvetica,sans-Serif" font-size="10.00">sitkVectorIndexSelection</text>
<text text-anchor="middle" x="710" y="-74.5" font-family="Helvetica,sans-Serif" font-size="10.00">CastImageFilter.h</text>
</a>
</g>
</g>
<!-- Node1&#45;&gt;Node18 -->
<g id="edge39" class="edge">
<title>Node1&#45;&gt;Node18</title>
<path fill="none" stroke="midnightblue" d="M1066.86,-133.42C991.09,-125.29 881.95,-112.64 787,-98 784.31,-97.59 781.57,-97.15 778.81,-96.69"/>
<polygon fill="midnightblue" stroke="midnightblue" points="1066.54,-136.91 1076.86,-134.49 1067.29,-129.95 1066.54,-136.91"/>
</g>
<!-- Node19 -->
<g id="node19" class="node">
<title>Node19</title>
<g id="a_node19"><a xlink:href="sitkWarpImageFilter_8h.html" target="_top" xlink:title=" ">
<polygon fill="white" stroke="black" points="796.5,-73 796.5,-92 919.5,-92 919.5,-73 796.5,-73"/>
<text text-anchor="middle" x="858" y="-80" font-family="Helvetica,sans-Serif" font-size="10.00">sitkWarpImageFilter.h</text>
</a>
</g>
</g>
<!-- Node1&#45;&gt;Node19 -->
<g id="edge42" class="edge">
<title>Node1&#45;&gt;Node19</title>
<path fill="none" stroke="midnightblue" d="M1106.09,-132.51C1059.06,-123.48 989.54,-110.05 929,-98 919.38,-96.08 909.03,-93.99 899.28,-92"/>
<polygon fill="midnightblue" stroke="midnightblue" points="1105.58,-135.97 1116.07,-134.42 1106.9,-129.1 1105.58,-135.97"/>
</g>
<!-- Node3 -->
<g id="node3" class="node">
<title>Node3</title>
<g id="a_node3"><a xlink:href="SimpleITK_8h.html" target="_top" xlink:title=" ">
<polygon fill="white" stroke="black" points="22.5,-6 22.5,-25 97.5,-25 97.5,-6 22.5,-6"/>
<text text-anchor="middle" x="60" y="-13" font-family="Helvetica,sans-Serif" font-size="10.00">SimpleITK.h</text>
</a>
</g>
</g>
<!-- Node2&#45;&gt;Node3 -->
<g id="edge2" class="edge">
<title>Node2&#45;&gt;Node3</title>
<path fill="none" stroke="midnightblue" d="M60,-62.54C60,-50.17 60,-34.62 60,-25.13"/>
<polygon fill="midnightblue" stroke="midnightblue" points="56.5,-62.73 60,-72.73 63.5,-62.73 56.5,-62.73"/>
</g>
<!-- Node5 -->
<g id="node5" class="node">
<title>Node5</title>
<g id="a_node5"><a xlink:href="CMakeTmp_2SimpleITKBasicFiltersGeneratedHeaders_8h.html" target="_top" xlink:title=" ">
<polygon fill="white" stroke="black" points="1255.5,-0.5 1255.5,-30.5 1428.5,-30.5 1428.5,-0.5 1255.5,-0.5"/>
<text text-anchor="start" x="1263.5" y="-18.5" font-family="Helvetica,sans-Serif" font-size="10.00">SimpleITKBasicFiltersGenerated</text>
<text text-anchor="middle" x="1342" y="-7.5" font-family="Helvetica,sans-Serif" font-size="10.00">Headers.h</text>
</a>
</g>
</g>
<!-- Node4&#45;&gt;Node5 -->
<g id="edge4" class="edge">
<title>Node4&#45;&gt;Node5</title>
<path fill="none" stroke="midnightblue" d="M1057.18,-71.01C1064.19,-69.66 1071.26,-68.3 1078,-67 1142.38,-54.62 1215.62,-40.62 1268.59,-30.5"/>
<polygon fill="midnightblue" stroke="midnightblue" points="1056.17,-67.64 1047.02,-72.97 1057.5,-74.51 1056.17,-67.64"/>
</g>
<!-- Node6 -->
<g id="node6" class="node">
<title>Node6</title>
<g id="a_node6"><a xlink:href="include_2SimpleITKBasicFiltersGeneratedHeaders_8h.html" target="_top" xlink:title=" ">
<polygon fill="white" stroke="black" points="1064.5,-0.5 1064.5,-30.5 1237.5,-30.5 1237.5,-0.5 1064.5,-0.5"/>
<text text-anchor="start" x="1072.5" y="-18.5" font-family="Helvetica,sans-Serif" font-size="10.00">SimpleITKBasicFiltersGenerated</text>
<text text-anchor="middle" x="1151" y="-7.5" font-family="Helvetica,sans-Serif" font-size="10.00">Headers.h</text>
</a>
</g>
</g>
<!-- Node4&#45;&gt;Node6 -->
<g id="edge5" class="edge">
<title>Node4&#45;&gt;Node6</title>
<path fill="none" stroke="midnightblue" d="M1031.99,-68.77C1057.04,-57.77 1093.19,-41.89 1119.06,-30.53"/>
<polygon fill="midnightblue" stroke="midnightblue" points="1030.4,-65.64 1022.65,-72.87 1033.22,-72.05 1030.4,-65.64"/>
</g>
<!-- Node7&#45;&gt;Node5 -->
<g id="edge7" class="edge">
<title>Node7&#45;&gt;Node5</title>
<path fill="none" stroke="midnightblue" d="M1209.86,-63.96C1239.01,-53.48 1275.54,-40.37 1302.8,-30.58"/>
<polygon fill="midnightblue" stroke="midnightblue" points="1208.5,-60.72 1200.27,-67.4 1210.87,-67.31 1208.5,-60.72"/>
</g>
<!-- Node7&#45;&gt;Node6 -->
<g id="edge8" class="edge">
<title>Node7&#45;&gt;Node6</title>
<path fill="none" stroke="midnightblue" d="M1157.29,-57.4C1155.9,-48.37 1154.37,-38.41 1153.17,-30.58"/>
<polygon fill="midnightblue" stroke="midnightblue" points="1153.85,-58.04 1158.83,-67.4 1160.77,-56.98 1153.85,-58.04"/>
</g>
<!-- Node8&#45;&gt;Node5 -->
<g id="edge10" class="edge">
<title>Node8&#45;&gt;Node5</title>
<path fill="none" stroke="midnightblue" d="M1335.71,-57.4C1337.1,-48.37 1338.63,-38.41 1339.83,-30.58"/>
<polygon fill="midnightblue" stroke="midnightblue" points="1332.23,-56.98 1334.17,-67.4 1339.15,-58.04 1332.23,-56.98"/>
</g>
<!-- Node8&#45;&gt;Node6 -->
<g id="edge11" class="edge">
<title>Node8&#45;&gt;Node6</title>
<path fill="none" stroke="midnightblue" d="M1283.14,-63.96C1253.99,-53.48 1217.46,-40.37 1190.2,-30.58"/>
<polygon fill="midnightblue" stroke="midnightblue" points="1282.13,-67.31 1292.73,-67.4 1284.5,-60.72 1282.13,-67.31"/>
</g>
<!-- Node9&#45;&gt;Node5 -->
<g id="edge13" class="edge">
<title>Node9&#45;&gt;Node5</title>
<path fill="none" stroke="midnightblue" d="M1482.65,-69.35C1453.33,-58.33 1410.12,-42.09 1379.34,-30.53"/>
<polygon fill="midnightblue" stroke="midnightblue" points="1481.43,-72.63 1492.03,-72.87 1483.9,-66.07 1481.43,-72.63"/>
</g>
<!-- Node9&#45;&gt;Node6 -->
<g id="edge14" class="edge">
<title>Node9&#45;&gt;Node6</title>
<path fill="none" stroke="midnightblue" d="M1457.12,-71.16C1395.67,-60.19 1298.15,-42.78 1229.73,-30.56"/>
<polygon fill="midnightblue" stroke="midnightblue" points="1456.58,-74.62 1467.04,-72.94 1457.81,-67.73 1456.58,-74.62"/>
</g>
<!-- Node10&#45;&gt;Node5 -->
<g id="edge16" class="edge">
<title>Node10&#45;&gt;Node5</title>
<path fill="none" stroke="midnightblue" d="M1609.34,-65.73C1550.99,-54.98 1474.44,-40.89 1418.21,-30.53"/>
<polygon fill="midnightblue" stroke="midnightblue" points="1608.8,-69.19 1619.27,-67.56 1610.07,-62.3 1608.8,-69.19"/>
</g>
<!-- Node10&#45;&gt;Node6 -->
<g id="edge17" class="edge">
<title>Node10&#45;&gt;Node6</title>
<path fill="none" stroke="midnightblue" d="M1609.19,-66.96C1447.58,-45.58 1404.57,-50.7 1247,-31 1243.91,-30.61 1240.76,-30.21 1237.58,-29.78"/>
<polygon fill="midnightblue" stroke="midnightblue" points="1609.12,-70.48 1619.5,-68.34 1610.05,-63.54 1609.12,-70.48"/>
</g>
<!-- Node11&#45;&gt;Node5 -->
<g id="edge19" class="edge">
<title>Node11&#45;&gt;Node5</title>
<path fill="none" stroke="midnightblue" d="M1809.47,-71.37C1799.63,-69.83 1789.54,-68.32 1780,-67 1658.3,-50.19 1517.04,-34.61 1428.58,-25.32"/>
<polygon fill="midnightblue" stroke="midnightblue" points="1809.18,-74.86 1819.6,-72.97 1810.27,-67.95 1809.18,-74.86"/>
</g>
<!-- Node11&#45;&gt;Node6 -->
<g id="edge20" class="edge">
<title>Node11&#45;&gt;Node6</title>
<path fill="none" stroke="midnightblue" d="M1811.98,-71.35C1801.36,-69.72 1790.37,-68.18 1780,-67 1544.1,-40.09 1483.03,-56.75 1247,-31 1243.9,-30.66 1240.75,-30.3 1237.56,-29.91"/>
<polygon fill="midnightblue" stroke="midnightblue" points="1811.58,-74.83 1822,-72.93 1812.67,-67.91 1811.58,-74.83"/>
</g>
<!-- Node12&#45;&gt;Node5 -->
<g id="edge22" class="edge">
<title>Node12&#45;&gt;Node5</title>
<path fill="none" stroke="midnightblue" d="M1959.08,-66.82C1764.39,-41.08 1546.62,-27.06 1428.68,-20.7"/>
<polygon fill="midnightblue" stroke="midnightblue" points="1958.84,-70.32 1969.21,-68.18 1959.76,-63.38 1958.84,-70.32"/>
</g>
<!-- Node12&#45;&gt;Node6 -->
<g id="edge23" class="edge">
<title>Node12&#45;&gt;Node6</title>
<path fill="none" stroke="midnightblue" d="M1958.87,-66.85C1643.69,-30.22 1559.75,-62.42 1247,-31 1243.9,-30.69 1240.74,-30.35 1237.56,-29.98"/>
<polygon fill="midnightblue" stroke="midnightblue" points="1958.88,-70.38 1969.22,-68.07 1959.7,-63.43 1958.88,-70.38"/>
</g>
<!-- Node13&#45;&gt;Node5 -->
<g id="edge25" class="edge">
<title>Node13&#45;&gt;Node5</title>
<path fill="none" stroke="midnightblue" d="M2140.02,-70.97C2132.03,-69.45 2123.8,-68.05 2116,-67 1867.92,-33.73 1572.05,-22.15 1428.57,-18.3"/>
<polygon fill="midnightblue" stroke="midnightblue" points="2139.46,-74.42 2149.95,-72.94 2140.82,-67.56 2139.46,-74.42"/>
</g>
<!-- Node13&#45;&gt;Node6 -->
<g id="edge26" class="edge">
<title>Node13&#45;&gt;Node6</title>
<path fill="none" stroke="midnightblue" d="M2141.12,-71.01C2132.8,-69.43 2124.17,-68 2116,-67 1732.29,-20.18 1631.79,-67.92 1247,-31 1243.9,-30.7 1240.74,-30.37 1237.55,-30.01"/>
<polygon fill="midnightblue" stroke="midnightblue" points="2140.57,-74.47 2151.06,-73 2141.94,-67.61 2140.57,-74.47"/>
</g>
<!-- Node14&#45;&gt;Node5 -->
<g id="edge28" class="edge">
<title>Node14&#45;&gt;Node5</title>
<path fill="none" stroke="midnightblue" d="M2292.78,-71.41C2281.6,-69.73 2269.96,-68.16 2259,-67 1954.78,-34.73 1591.45,-22.47 1428.52,-18.34"/>
<polygon fill="midnightblue" stroke="midnightblue" points="2292.48,-74.91 2302.9,-72.98 2293.55,-67.99 2292.48,-74.91"/>
</g>
<!-- Node14&#45;&gt;Node6 -->
<g id="edge29" class="edge">
<title>Node14&#45;&gt;Node6</title>
<path fill="none" stroke="midnightblue" d="M2293.9,-71.4C2282.38,-69.68 2270.33,-68.09 2259,-67 1811.01,-23.89 1695.13,-72.68 1247,-31 1243.9,-30.71 1240.74,-30.39 1237.55,-30.04"/>
<polygon fill="midnightblue" stroke="midnightblue" points="2293.45,-74.88 2303.86,-72.95 2294.52,-67.96 2293.45,-74.88"/>
</g>
<!-- Node15&#45;&gt;Node5 -->
<g id="edge31" class="edge">
<title>Node15&#45;&gt;Node5</title>
<path fill="none" stroke="midnightblue" d="M304,-66.88C721.86,-24.72 831.95,-70.45 1247,-31 1249.74,-30.74 1252.52,-30.45 1255.33,-30.14"/>
<polygon fill="midnightblue" stroke="midnightblue" points="303.35,-63.43 293.75,-67.93 304.06,-70.4 303.35,-63.43"/>
</g>
<!-- Node15&#45;&gt;Node6 -->
<g id="edge32" class="edge">
<title>Node15&#45;&gt;Node6</title>
<path fill="none" stroke="midnightblue" d="M303.83,-66.87C587.2,-35.16 912.14,-22.9 1064.26,-18.58"/>
<polygon fill="midnightblue" stroke="midnightblue" points="303.31,-63.4 293.76,-68 304.09,-70.36 303.31,-63.4"/>
</g>
<!-- Node16&#45;&gt;Node5 -->
<g id="edge34" class="edge">
<title>Node16&#45;&gt;Node5</title>
<path fill="none" stroke="midnightblue" d="M438.08,-71.2C447.99,-69.57 458.29,-68.07 468,-67 812.51,-29.1 902.1,-65.19 1247,-31 1249.74,-30.73 1252.52,-30.43 1255.33,-30.11"/>
<polygon fill="midnightblue" stroke="midnightblue" points="437.2,-67.8 427.93,-72.93 438.38,-74.7 437.2,-67.8"/>
</g>
<!-- Node16&#45;&gt;Node6 -->
<g id="edge35" class="edge">
<title>Node16&#45;&gt;Node6</title>
<path fill="none" stroke="midnightblue" d="M439.4,-71.2C448.91,-69.63 458.73,-68.15 468,-67 681.57,-40.52 934.57,-26.24 1064.48,-20.14"/>
<polygon fill="midnightblue" stroke="midnightblue" points="438.51,-67.8 429.25,-72.93 439.69,-74.7 438.51,-67.8"/>
</g>
<!-- Node17&#45;&gt;Node5 -->
<g id="edge37" class="edge">
<title>Node17&#45;&gt;Node5</title>
<path fill="none" stroke="midnightblue" d="M602.77,-71.24C612.47,-69.62 622.52,-68.11 632,-67 903.94,-35.11 974.71,-59.69 1247,-31 1249.74,-30.71 1252.52,-30.4 1255.32,-30.07"/>
<polygon fill="midnightblue" stroke="midnightblue" points="602.1,-67.8 592.84,-72.95 603.29,-74.7 602.1,-67.8"/>
</g>
<!-- Node17&#45;&gt;Node6 -->
<g id="edge38" class="edge">
<title>Node17&#45;&gt;Node6</title>
<path fill="none" stroke="midnightblue" d="M604.71,-71.22C613.8,-69.68 623.15,-68.21 632,-67 783.58,-46.26 961.21,-30.89 1064.44,-22.85"/>
<polygon fill="midnightblue" stroke="midnightblue" points="603.84,-67.81 594.59,-72.96 605.04,-74.71 603.84,-67.81"/>
</g>
<!-- Node18&#45;&gt;Node5 -->
<g id="edge40" class="edge">
<title>Node18&#45;&gt;Node5</title>
<path fill="none" stroke="midnightblue" d="M788.89,-66.84C992.03,-40.44 1046.56,-54.11 1247,-31 1249.73,-30.68 1252.51,-30.35 1255.31,-30"/>
<polygon fill="midnightblue" stroke="midnightblue" points="788.25,-63.39 778.79,-68.17 789.16,-70.33 788.25,-63.39"/>
</g>
<!-- Node18&#45;&gt;Node6 -->
<g id="edge41" class="edge">
<title>Node18&#45;&gt;Node6</title>
<path fill="none" stroke="midnightblue" d="M788.77,-66.75C888.59,-50.6 992.93,-36.52 1064.41,-27.32"/>
<polygon fill="midnightblue" stroke="midnightblue" points="788.13,-63.31 778.82,-68.37 789.25,-70.22 788.13,-63.31"/>
</g>
<!-- Node19&#45;&gt;Node5 -->
<g id="edge43" class="edge">
<title>Node19&#45;&gt;Node5</title>
<path fill="none" stroke="midnightblue" d="M906.62,-70.98C914.09,-69.53 921.74,-68.15 929,-67 1069.48,-44.75 1106,-49.73 1247,-31 1249.73,-30.64 1252.5,-30.26 1255.3,-29.88"/>
<polygon fill="midnightblue" stroke="midnightblue" points="905.7,-67.59 896.58,-72.97 907.07,-74.46 905.7,-67.59"/>
</g>
<!-- Node19&#45;&gt;Node6 -->
<g id="edge44" class="edge">
<title>Node19&#45;&gt;Node6</title>
<path fill="none" stroke="midnightblue" d="M906.44,-70.75C956,-59.76 1033.23,-42.63 1087.63,-30.56"/>
<polygon fill="midnightblue" stroke="midnightblue" points="905.61,-67.35 896.61,-72.94 907.13,-74.19 905.61,-67.35"/>
</g>
</g>
</svg>
        <g id="navigator" transform="translate(0 0)" fill="#404254">
                <rect fill="#f2f5e9" fill-opacity="0.5" stroke="#606060" stroke-width=".5" x="0" y="0" width="60" height="60"/>
                <use id="zoomplus" xlink:href="#zoomPlus" x="17" y="9" onmousedown="handleZoom(evt,'in')"/>
                <use id="zoomminus" xlink:href="#zoomMin" x="42" y="9" onmousedown="handleZoom(evt,'out')"/>
                <use id="reset" xlink:href="#resetDef" x="30" y="36" onmousedown="handleReset()"/>
                <g id="arrowUp" xlink:href="#dirArrow" transform="translate(30 24)" onmousedown="handlePan(0,-1)">
                  <use xlink:href="#rim" fill="#404040">
                        <set attributeName="fill" to="#808080" begin="arrowUp.mouseover" end="arrowUp.mouseout"/>
                  </use>
                  <path fill="none" stroke="white" stroke-width="1.5" d="M0,-3.0v7 M-2.5,-0.5L0,-3.0L2.5,-0.5"/>
                </g>
                <g id="arrowRight" xlink:href="#dirArrow" transform="rotate(90) translate(36 -43)" onmousedown="handlePan(1,0)">
                  <use xlink:href="#rim" fill="#404040">
                        <set attributeName="fill" to="#808080" begin="arrowRight.mouseover" end="arrowRight.mouseout"/>
                  </use>
                  <path fill="none" stroke="white" stroke-width="1.5" d="M0,-3.0v7 M-2.5,-0.5L0,-3.0L2.5,-0.5"/>
                </g>
                <g id="arrowDown" xlink:href="#dirArrow" transform="rotate(180) translate(-30 -48)" onmousedown="handlePan(0,1)">
                  <use xlink:href="#rim" fill="#404040">
                        <set attributeName="fill" to="#808080" begin="arrowDown.mouseover" end="arrowDown.mouseout"/>
                  </use>
                  <path fill="none" stroke="white" stroke-width="1.5" d="M0,-3.0v7 M-2.5,-0.5L0,-3.0L2.5,-0.5"/>
                </g>
                <g id="arrowLeft" xlink:href="#dirArrow" transform="rotate(270) translate(-36 17)" onmousedown="handlePan(-1,0)">
                  <use xlink:href="#rim" fill="#404040">
                        <set attributeName="fill" to="#808080" begin="arrowLeft.mouseover" end="arrowLeft.mouseout"/>
                  </use>
                  <path fill="none" stroke="white" stroke-width="1.5" d="M0,-3.0v7 M-2.5,-0.5L0,-3.0L2.5,-0.5"/>
                </g>
        </g>
        <svg viewBox="0 0 15 15" width="100%" height="30px" preserveAspectRatio="xMaxYMin meet">
         <g id="arrow_out" transform="scale(0.3 0.3)">
          <a xlink:href="sitkDualMemberFunctionFactory_8h__dep__incl_org.svg" target="_base">
           <rect id="button" ry="5" rx="5" y="6" x="6" height="38" width="38"
                fill="#f2f5e9" fill-opacity="0.5" stroke="#606060" stroke-width="1.0"/>
           <path id="arrow"
             d="M 11.500037,31.436501 C 11.940474,20.09759 22.043105,11.32322 32.158766,21.979434 L 37.068811,17.246167 C 37.068811,17.246167 37.088388,32 37.088388,32 L 22.160133,31.978069 C 22.160133,31.978069 26.997745,27.140456 26.997745,27.140456 C 18.528582,18.264221 13.291696,25.230495 11.500037,31.436501 z"
             style="fill:#404040;"/>
          </a>
         </g>
        </svg>
</svg>
