<?xml version="1.0" encoding="UTF-8" standalone="no"?>
<!DOCTYPE svg PUBLIC "-//W3C//DTD SVG 1.1//EN"
 "http://www.w3.org/Graphics/SVG/1.1/DTD/svg11.dtd">
<!-- Generated by graphviz version 2.43.0 (0)
 -->
<!-- Title: sitkAddImageFilter.h Pages: 1 -->
<svg width="513pt" height="151pt"
 viewBox="0.00 0.00 512.50 151.00" xmlns="http://www.w3.org/2000/svg" xmlns:xlink="http://www.w3.org/1999/xlink">
<g id="graph0" class="graph" transform="scale(1 1) rotate(0) translate(4 147)">
<title>sitkAddImageFilter.h</title>
<polygon fill="white" stroke="transparent" points="-4,4 -4,-147 508.5,-147 508.5,4 -4,4"/>
<!-- Node1 -->
<g id="node1" class="node">
<title>Node1</title>
<g id="a_node1"><a xlink:title=" ">
<polygon fill="#bfbfbf" stroke="black" points="168.5,-123.5 168.5,-142.5 285.5,-142.5 285.5,-123.5 168.5,-123.5"/>
<text text-anchor="middle" x="227" y="-130.5" font-family="Helvetica,sans-Serif" font-size="10.00">sitkAddImageFilter.h</text>
</a>
</g>
</g>
<!-- Node2 -->
<g id="node2" class="node">
<title>Node2</title>
<g id="a_node2"><a xlink:href="sitkImageOperators_8h.html" target="_top" xlink:title=" ">
<polygon fill="white" stroke="black" points="0,-62 0,-81 122,-81 122,-62 0,-62"/>
<text text-anchor="middle" x="61" y="-69" font-family="Helvetica,sans-Serif" font-size="10.00">sitkImageOperators.h</text>
</a>
</g>
</g>
<!-- Node1&#45;&gt;Node2 -->
<g id="edge1" class="edge">
<title>Node1&#45;&gt;Node2</title>
<path fill="none" stroke="midnightblue" d="M193.75,-120.08C161.48,-108.52 113.32,-91.25 84.74,-81.01"/>
<polygon fill="midnightblue" stroke="midnightblue" points="192.62,-123.4 203.22,-123.48 194.98,-116.81 192.62,-123.4"/>
</g>
<!-- Node3 -->
<g id="node3" class="node">
<title>Node3</title>
<g id="a_node3"><a xlink:href="CMakeTmp_2SimpleITKBasicFiltersGeneratedHeaders_8h.html" target="_top" xlink:title=" ">
<polygon fill="white" stroke="black" points="140.5,-56.5 140.5,-86.5 313.5,-86.5 313.5,-56.5 140.5,-56.5"/>
<text text-anchor="start" x="148.5" y="-74.5" font-family="Helvetica,sans-Serif" font-size="10.00">SimpleITKBasicFiltersGenerated</text>
<text text-anchor="middle" x="227" y="-63.5" font-family="Helvetica,sans-Serif" font-size="10.00">Headers.h</text>
</a>
</g>
</g>
<!-- Node1&#45;&gt;Node3 -->
<g id="edge2" class="edge">
<title>Node1&#45;&gt;Node3</title>
<path fill="none" stroke="midnightblue" d="M227,-113.23C227,-104.59 227,-94.5 227,-86.52"/>
<polygon fill="midnightblue" stroke="midnightblue" points="223.5,-113.48 227,-123.48 230.5,-113.48 223.5,-113.48"/>
</g>
<!-- Node4 -->
<g id="node4" class="node">
<title>Node4</title>
<g id="a_node4"><a xlink:href="include_2SimpleITKBasicFiltersGeneratedHeaders_8h.html" target="_top" xlink:title=" ">
<polygon fill="white" stroke="black" points="331.5,-56.5 331.5,-86.5 504.5,-86.5 504.5,-56.5 331.5,-56.5"/>
<text text-anchor="start" x="339.5" y="-74.5" font-family="Helvetica,sans-Serif" font-size="10.00">SimpleITKBasicFiltersGenerated</text>
<text text-anchor="middle" x="418" y="-63.5" font-family="Helvetica,sans-Serif" font-size="10.00">Headers.h</text>
</a>
</g>
</g>
<!-- Node1&#45;&gt;Node4 -->
<g id="edge3" class="edge">
<title>Node1&#45;&gt;Node4</title>
<path fill="none" stroke="midnightblue" d="M263.97,-120.48C295.11,-110.78 339.77,-96.87 372.99,-86.52"/>
<polygon fill="midnightblue" stroke="midnightblue" points="262.87,-117.16 254.37,-123.48 264.95,-123.84 262.87,-117.16"/>
</g>
<!-- Node5 -->
<g id="node5" class="node">
<title>Node5</title>
<g id="a_node5"><a xlink:href="SimpleITK_8h.html" target="_top" xlink:title=" ">
<polygon fill="white" stroke="black" points="380.5,-0.5 380.5,-19.5 455.5,-19.5 455.5,-0.5 380.5,-0.5"/>
<text text-anchor="middle" x="418" y="-7.5" font-family="Helvetica,sans-Serif" font-size="10.00">SimpleITK.h</text>
</a>
</g>
</g>
<!-- Node4&#45;&gt;Node5 -->
<g id="edge4" class="edge">
<title>Node4&#45;&gt;Node5</title>
<path fill="none" stroke="midnightblue" d="M418,-46.29C418,-36.86 418,-26.65 418,-19.66"/>
<polygon fill="midnightblue" stroke="midnightblue" points="414.5,-46.4 418,-56.4 421.5,-46.4 414.5,-46.4"/>
</g>
</g>
</svg>
