<?xml version="1.0" encoding="UTF-8" standalone="no"?>
<!DOCTYPE svg PUBLIC "-//W3C//DTD SVG 1.1//EN"
 "http://www.w3.org/Graphics/SVG/1.1/DTD/svg11.dtd">
<!-- Generated by graphviz version 2.43.0 (0)
 -->
<!-- Title: sitkObjectOwnedBase.h Pages: 1 -->
<svg width="267pt" height="196pt"
 viewBox="0.00 0.00 266.50 196.00" xmlns="http://www.w3.org/2000/svg" xmlns:xlink="http://www.w3.org/1999/xlink">
<g id="graph0" class="graph" transform="scale(1 1) rotate(0) translate(4 192)">
<title>sitkObjectOwnedBase.h</title>
<polygon fill="white" stroke="transparent" points="-4,4 -4,-192 262.5,-192 262.5,4 -4,4"/>
<!-- Node1 -->
<g id="node1" class="node">
<title>Node1</title>
<g id="a_node1"><a xlink:title=" ">
<polygon fill="#bfbfbf" stroke="black" points="0,-168.5 0,-187.5 133,-187.5 133,-168.5 0,-168.5"/>
<text text-anchor="middle" x="66.5" y="-175.5" font-family="Helvetica,sans-Serif" font-size="10.00">sitkObjectOwnedBase.h</text>
</a>
</g>
</g>
<!-- Node2 -->
<g id="node2" class="node">
<title>Node2</title>
<g id="a_node2"><a xlink:href="SimpleITK_8h.html" target="_top" xlink:title=" ">
<polygon fill="white" stroke="black" points="11,-0.5 11,-19.5 86,-19.5 86,-0.5 11,-0.5"/>
<text text-anchor="middle" x="48.5" y="-7.5" font-family="Helvetica,sans-Serif" font-size="10.00">SimpleITK.h</text>
</a>
</g>
</g>
<!-- Node1&#45;&gt;Node2 -->
<g id="edge1" class="edge">
<title>Node1&#45;&gt;Node2</title>
<path fill="none" stroke="midnightblue" d="M40.18,-163.05C28.84,-155.51 16.75,-145.05 10.5,-132 5.03,-120.58 2.63,-85.11 13.5,-56 18.9,-41.54 30.72,-27.99 39.12,-19.61"/>
<polygon fill="midnightblue" stroke="midnightblue" points="38.65,-166.21 49,-168.46 42.31,-160.25 38.65,-166.21"/>
</g>
<!-- Node3 -->
<g id="node3" class="node">
<title>Node3</title>
<g id="a_node3"><a xlink:href="sitkCommand_8h.html" target="_top" xlink:title=" ">
<polygon fill="white" stroke="black" points="19.5,-112.5 19.5,-131.5 113.5,-131.5 113.5,-112.5 19.5,-112.5"/>
<text text-anchor="middle" x="66.5" y="-119.5" font-family="Helvetica,sans-Serif" font-size="10.00">sitkCommand.h</text>
</a>
</g>
</g>
<!-- Node1&#45;&gt;Node3 -->
<g id="edge2" class="edge">
<title>Node1&#45;&gt;Node3</title>
<path fill="none" stroke="midnightblue" d="M66.5,-157.8C66.5,-148.91 66.5,-138.78 66.5,-131.75"/>
<polygon fill="midnightblue" stroke="midnightblue" points="63,-158.08 66.5,-168.08 70,-158.08 63,-158.08"/>
</g>
<!-- Node5 -->
<g id="node5" class="node">
<title>Node5</title>
<g id="a_node5"><a xlink:href="sitkLogger_8h.html" target="_top" xlink:title=" ">
<polygon fill="white" stroke="black" points="182.5,-56.5 182.5,-75.5 258.5,-75.5 258.5,-56.5 182.5,-56.5"/>
<text text-anchor="middle" x="220.5" y="-63.5" font-family="Helvetica,sans-Serif" font-size="10.00">sitkLogger.h</text>
</a>
</g>
</g>
<!-- Node1&#45;&gt;Node5 -->
<g id="edge6" class="edge">
<title>Node1&#45;&gt;Node5</title>
<path fill="none" stroke="midnightblue" d="M86.92,-162.42C119.49,-139.15 182.21,-94.35 208.47,-75.59"/>
<polygon fill="midnightblue" stroke="midnightblue" points="84.69,-159.71 78.58,-168.37 88.76,-165.4 84.69,-159.71"/>
</g>
<!-- Node3&#45;&gt;Node2 -->
<g id="edge3" class="edge">
<title>Node3&#45;&gt;Node2</title>
<path fill="none" stroke="midnightblue" d="M44.33,-106.16C34.78,-98.42 24.65,-88.05 19.5,-76 10.86,-55.77 28.26,-32.25 39.66,-19.79"/>
<polygon fill="midnightblue" stroke="midnightblue" points="42.33,-109.04 52.42,-112.26 46.54,-103.45 42.33,-109.04"/>
</g>
<!-- Node4 -->
<g id="node4" class="node">
<title>Node4</title>
<g id="a_node4"><a xlink:href="sitkFunctionCommand_8h.html" target="_top" xlink:title=" ">
<polygon fill="white" stroke="black" points="29,-56.5 29,-75.5 164,-75.5 164,-56.5 29,-56.5"/>
<text text-anchor="middle" x="96.5" y="-63.5" font-family="Helvetica,sans-Serif" font-size="10.00">sitkFunctionCommand.h</text>
</a>
</g>
</g>
<!-- Node3&#45;&gt;Node4 -->
<g id="edge4" class="edge">
<title>Node3&#45;&gt;Node4</title>
<path fill="none" stroke="midnightblue" d="M76.35,-103.27C81.47,-94.05 87.52,-83.17 91.64,-75.75"/>
<polygon fill="midnightblue" stroke="midnightblue" points="73.25,-101.64 71.45,-112.08 79.37,-105.04 73.25,-101.64"/>
</g>
<!-- Node4&#45;&gt;Node2 -->
<g id="edge5" class="edge">
<title>Node4&#45;&gt;Node2</title>
<path fill="none" stroke="midnightblue" d="M81.77,-48.43C73.36,-38.97 63.15,-27.48 56.28,-19.75"/>
<polygon fill="midnightblue" stroke="midnightblue" points="79.31,-50.93 88.57,-56.08 84.55,-46.28 79.31,-50.93"/>
</g>
<!-- Node5&#45;&gt;Node2 -->
<g id="edge7" class="edge">
<title>Node5&#45;&gt;Node2</title>
<path fill="none" stroke="midnightblue" d="M183.67,-53.44C151.24,-43.26 104.76,-28.66 75.63,-19.52"/>
<polygon fill="midnightblue" stroke="midnightblue" points="182.66,-56.79 193.25,-56.44 184.75,-50.11 182.66,-56.79"/>
</g>
</g>
</svg>
