<?xml version="1.0" encoding="UTF-8" standalone="no"?>
<!DOCTYPE svg PUBLIC "-//W3C//DTD SVG 1.1//EN"
 "http://www.w3.org/Graphics/SVG/1.1/DTD/svg11.dtd">
<!-- Generated by graphviz version 2.43.0 (0)
 -->
<!-- Title: sitkJoinSeriesImageFilter.h Pages: 1 -->
<svg width="465pt" height="95pt"
 viewBox="0.00 0.00 465.00 95.00" xmlns="http://www.w3.org/2000/svg" xmlns:xlink="http://www.w3.org/1999/xlink">
<g id="graph0" class="graph" transform="scale(1 1) rotate(0) translate(4 91)">
<title>sitkJoinSeriesImageFilter.h</title>
<polygon fill="white" stroke="transparent" points="-4,4 -4,-91 461,-91 461,4 -4,4"/>
<!-- Node1 -->
<g id="node1" class="node">
<title>Node1</title>
<g id="a_node1"><a xlink:title=" ">
<polygon fill="#bfbfbf" stroke="black" points="106.5,-67.5 106.5,-86.5 252.5,-86.5 252.5,-67.5 106.5,-67.5"/>
<text text-anchor="middle" x="179.5" y="-74.5" font-family="Helvetica,sans-Serif" font-size="10.00">sitkJoinSeriesImageFilter.h</text>
</a>
</g>
</g>
<!-- Node2 -->
<g id="node2" class="node">
<title>Node2</title>
<g id="a_node2"><a xlink:href="SimpleITK_8h.html" target="_top" xlink:title=" ">
<polygon fill="white" stroke="black" points="0,-6 0,-25 75,-25 75,-6 0,-6"/>
<text text-anchor="middle" x="37.5" y="-13" font-family="Helvetica,sans-Serif" font-size="10.00">SimpleITK.h</text>
</a>
</g>
</g>
<!-- Node1&#45;&gt;Node2 -->
<g id="edge1" class="edge">
<title>Node1&#45;&gt;Node2</title>
<path fill="none" stroke="midnightblue" d="M149.62,-63.48C122.04,-51.92 81.83,-35.08 57.81,-25.01"/>
<polygon fill="midnightblue" stroke="midnightblue" points="148.58,-66.84 159.15,-67.48 151.28,-60.38 148.58,-66.84"/>
</g>
<!-- Node3 -->
<g id="node3" class="node">
<title>Node3</title>
<g id="a_node3"><a xlink:href="CMakeTmp_2SimpleITKBasicFiltersGeneratedHeaders_8h.html" target="_top" xlink:title=" ">
<polygon fill="white" stroke="black" points="93,-0.5 93,-30.5 266,-30.5 266,-0.5 93,-0.5"/>
<text text-anchor="start" x="101" y="-18.5" font-family="Helvetica,sans-Serif" font-size="10.00">SimpleITKBasicFiltersGenerated</text>
<text text-anchor="middle" x="179.5" y="-7.5" font-family="Helvetica,sans-Serif" font-size="10.00">Headers.h</text>
</a>
</g>
</g>
<!-- Node1&#45;&gt;Node3 -->
<g id="edge2" class="edge">
<title>Node1&#45;&gt;Node3</title>
<path fill="none" stroke="midnightblue" d="M179.5,-57.23C179.5,-48.59 179.5,-38.5 179.5,-30.52"/>
<polygon fill="midnightblue" stroke="midnightblue" points="176,-57.48 179.5,-67.48 183,-57.48 176,-57.48"/>
</g>
<!-- Node4 -->
<g id="node4" class="node">
<title>Node4</title>
<g id="a_node4"><a xlink:href="include_2SimpleITKBasicFiltersGeneratedHeaders_8h.html" target="_top" xlink:title=" ">
<polygon fill="white" stroke="black" points="284,-0.5 284,-30.5 457,-30.5 457,-0.5 284,-0.5"/>
<text text-anchor="start" x="292" y="-18.5" font-family="Helvetica,sans-Serif" font-size="10.00">SimpleITKBasicFiltersGenerated</text>
<text text-anchor="middle" x="370.5" y="-7.5" font-family="Helvetica,sans-Serif" font-size="10.00">Headers.h</text>
</a>
</g>
</g>
<!-- Node1&#45;&gt;Node4 -->
<g id="edge3" class="edge">
<title>Node1&#45;&gt;Node4</title>
<path fill="none" stroke="midnightblue" d="M216.47,-64.48C247.61,-54.78 292.27,-40.87 325.49,-30.52"/>
<polygon fill="midnightblue" stroke="midnightblue" points="215.37,-61.16 206.87,-67.48 217.45,-67.84 215.37,-61.16"/>
</g>
</g>
</svg>
