<?xml version="1.0" encoding="UTF-8" standalone="no"?>
<!DOCTYPE svg PUBLIC "-//W3C//DTD SVG 1.1//EN"
 "http://www.w3.org/Graphics/SVG/1.1/DTD/svg11.dtd">
<!-- Generated by graphviz version 2.43.0 (0)
 -->
<!-- Title: sitkImageFileReader.h Pages: 1 -->
<svg width="1838pt" height="599pt"
 viewBox="0.00 0.00 1837.50 599.00" xmlns="http://www.w3.org/2000/svg" xmlns:xlink="http://www.w3.org/1999/xlink">
<g id="graph0" class="graph" transform="scale(1 1) rotate(0) translate(4 595)">
<title>sitkImageFileReader.h</title>
<polygon fill="white" stroke="transparent" points="-4,4 -4,-595 1833.5,-595 1833.5,4 -4,4"/>
<!-- Node1 -->
<g id="node1" class="node">
<title>Node1</title>
<g id="a_node1"><a xlink:title=" ">
<polygon fill="#bfbfbf" stroke="black" points="532.5,-571.5 532.5,-590.5 657.5,-590.5 657.5,-571.5 532.5,-571.5"/>
<text text-anchor="middle" x="595" y="-578.5" font-family="Helvetica,sans-Serif" font-size="10.00">sitkImageFileReader.h</text>
</a>
</g>
</g>
<!-- Node2 -->
<g id="node2" class="node">
<title>Node2</title>
<g id="a_node2"><a xlink:href="sitkMacro_8h.html" target="_top" xlink:title=" ">
<polygon fill="white" stroke="black" points="504,-56.5 504,-75.5 578,-75.5 578,-56.5 504,-56.5"/>
<text text-anchor="middle" x="541" y="-63.5" font-family="Helvetica,sans-Serif" font-size="10.00">sitkMacro.h</text>
</a>
</g>
</g>
<!-- Node1&#45;&gt;Node2 -->
<g id="edge1" class="edge">
<title>Node1&#45;&gt;Node2</title>
<path fill="none" stroke="midnightblue" d="M532.45,-574.96C379.69,-561.8 0,-523.71 0,-470 0,-470 0,-470 0,-177 0,-134.87 30.62,-129.38 69,-112 143.94,-78.06 389.61,-69.68 493.71,-67.65"/>
<polygon fill="midnightblue" stroke="midnightblue" points="493.99,-71.14 503.92,-67.46 493.86,-64.14 493.99,-71.14"/>
</g>
<!-- Node9 -->
<g id="node9" class="node">
<title>Node9</title>
<g id="a_node9"><a xlink:href="sitkImage_8h.html" target="_top" xlink:title=" ">
<polygon fill="white" stroke="black" points="414,-347.5 414,-366.5 488,-366.5 488,-347.5 414,-347.5"/>
<text text-anchor="middle" x="451" y="-354.5" font-family="Helvetica,sans-Serif" font-size="10.00">sitkImage.h</text>
</a>
</g>
</g>
<!-- Node1&#45;&gt;Node9 -->
<g id="edge8" class="edge">
<title>Node1&#45;&gt;Node9</title>
<path fill="none" stroke="midnightblue" d="M596.21,-571.4C597.68,-558.77 599.37,-534.59 594,-515 576.03,-449.39 509.68,-396.8 474.02,-372.54"/>
<polygon fill="midnightblue" stroke="midnightblue" points="475.52,-369.34 465.26,-366.73 471.66,-375.17 475.52,-369.34"/>
</g>
<!-- Node33 -->
<g id="node33" class="node">
<title>Node33</title>
<g id="a_node33"><a xlink:href="sitkImageReaderBase_8h.html" target="_top" xlink:title=" ">
<polygon fill="white" stroke="black" points="452.5,-515.5 452.5,-534.5 585.5,-534.5 585.5,-515.5 452.5,-515.5"/>
<text text-anchor="middle" x="519" y="-522.5" font-family="Helvetica,sans-Serif" font-size="10.00">sitkImageReaderBase.h</text>
</a>
</g>
</g>
<!-- Node1&#45;&gt;Node33 -->
<g id="edge53" class="edge">
<title>Node1&#45;&gt;Node33</title>
<path fill="none" stroke="midnightblue" d="M582.79,-571.32C571.22,-563.11 553.62,-550.6 539.84,-540.81"/>
<polygon fill="midnightblue" stroke="midnightblue" points="541.61,-537.77 531.43,-534.83 537.56,-543.48 541.61,-537.77"/>
</g>
<!-- Node40 -->
<g id="node40" class="node">
<title>Node40</title>
<g id="a_node40"><a xlink:href="sitkMemberFunctionFactory_8h.html" target="_top" xlink:title=" ">
<polygon fill="white" stroke="black" points="905.5,-347.5 905.5,-366.5 1064.5,-366.5 1064.5,-347.5 905.5,-347.5"/>
<text text-anchor="middle" x="985" y="-354.5" font-family="Helvetica,sans-Serif" font-size="10.00">sitkMemberFunctionFactory.h</text>
</a>
</g>
</g>
<!-- Node1&#45;&gt;Node40 -->
<g id="edge69" class="edge">
<title>Node1&#45;&gt;Node40</title>
<path fill="none" stroke="midnightblue" d="M648.95,-571.45C712.02,-559.37 817.29,-532.52 892,-479 930.98,-451.08 961.32,-402.16 975.76,-375.89"/>
<polygon fill="midnightblue" stroke="midnightblue" points="979.03,-377.2 980.65,-366.73 972.86,-373.9 979.03,-377.2"/>
</g>
<!-- Node3 -->
<g id="node3" class="node">
<title>Node3</title>
<g id="a_node3"><a xlink:title=" ">
<polygon fill="white" stroke="#bfbfbf" points="793.5,-0.5 793.5,-19.5 846.5,-19.5 846.5,-0.5 793.5,-0.5"/>
<text text-anchor="middle" x="820" y="-7.5" font-family="Helvetica,sans-Serif" font-size="10.00">stdint.h</text>
</a>
</g>
</g>
<!-- Node2&#45;&gt;Node3 -->
<g id="edge2" class="edge">
<title>Node2&#45;&gt;Node3</title>
<path fill="none" stroke="midnightblue" d="M578.05,-57.83C631.55,-47.47 729.86,-28.45 783.21,-18.12"/>
<polygon fill="midnightblue" stroke="midnightblue" points="784.11,-21.51 793.26,-16.18 782.78,-14.64 784.11,-21.51"/>
</g>
<!-- Node4 -->
<g id="node4" class="node">
<title>Node4</title>
<g id="a_node4"><a xlink:title=" ">
<polygon fill="white" stroke="#bfbfbf" points="439,-0.5 439,-19.5 495,-19.5 495,-0.5 439,-0.5"/>
<text text-anchor="middle" x="467" y="-7.5" font-family="Helvetica,sans-Serif" font-size="10.00">stddef.h</text>
</a>
</g>
</g>
<!-- Node2&#45;&gt;Node4 -->
<g id="edge3" class="edge">
<title>Node2&#45;&gt;Node4</title>
<path fill="none" stroke="midnightblue" d="M529.11,-56.32C517.85,-48.11 500.71,-35.6 487.29,-25.81"/>
<polygon fill="midnightblue" stroke="midnightblue" points="489.25,-22.9 479.11,-19.83 485.12,-28.56 489.25,-22.9"/>
</g>
<!-- Node5 -->
<g id="node5" class="node">
<title>Node5</title>
<g id="a_node5"><a xlink:title=" ">
<polygon fill="white" stroke="#bfbfbf" points="1389,-0.5 1389,-19.5 1441,-19.5 1441,-0.5 1389,-0.5"/>
<text text-anchor="middle" x="1415" y="-7.5" font-family="Helvetica,sans-Serif" font-size="10.00">cassert</text>
</a>
</g>
</g>
<!-- Node2&#45;&gt;Node5 -->
<g id="edge4" class="edge">
<title>Node2&#45;&gt;Node5</title>
<path fill="none" stroke="midnightblue" d="M578.28,-62.7C721.65,-53.84 1236.62,-22.02 1378.55,-13.25"/>
<polygon fill="midnightblue" stroke="midnightblue" points="1379.11,-16.72 1388.87,-12.61 1378.68,-9.74 1379.11,-16.72"/>
</g>
<!-- Node6 -->
<g id="node6" class="node">
<title>Node6</title>
<g id="a_node6"><a xlink:title=" ">
<polygon fill="white" stroke="#bfbfbf" points="513,-0.5 513,-19.5 569,-19.5 569,-0.5 513,-0.5"/>
<text text-anchor="middle" x="541" y="-7.5" font-family="Helvetica,sans-Serif" font-size="10.00">sstream</text>
</a>
</g>
</g>
<!-- Node2&#45;&gt;Node6 -->
<g id="edge5" class="edge">
<title>Node2&#45;&gt;Node6</title>
<path fill="none" stroke="midnightblue" d="M541,-56.08C541,-49.01 541,-38.86 541,-29.99"/>
<polygon fill="midnightblue" stroke="midnightblue" points="544.5,-29.75 541,-19.75 537.5,-29.75 544.5,-29.75"/>
</g>
<!-- Node7 -->
<g id="node7" class="node">
<title>Node7</title>
<g id="a_node7"><a xlink:title=" ">
<polygon fill="white" stroke="#bfbfbf" points="587,-0.5 587,-19.5 631,-19.5 631,-0.5 587,-0.5"/>
<text text-anchor="middle" x="609" y="-7.5" font-family="Helvetica,sans-Serif" font-size="10.00">limits</text>
</a>
</g>
</g>
<!-- Node2&#45;&gt;Node7 -->
<g id="edge6" class="edge">
<title>Node2&#45;&gt;Node7</title>
<path fill="none" stroke="midnightblue" d="M551.93,-56.32C562.17,-48.18 577.72,-35.84 590,-26.09"/>
<polygon fill="midnightblue" stroke="midnightblue" points="592.22,-28.79 597.88,-19.83 587.87,-23.31 592.22,-28.79"/>
</g>
<!-- Node8 -->
<g id="node8" class="node">
<title>Node8</title>
<g id="a_node8"><a xlink:href="sitkConfigure_8h.html" target="_top" xlink:title=" ">
<polygon fill="white" stroke="black" points="1066,-0.5 1066,-19.5 1156,-19.5 1156,-0.5 1066,-0.5"/>
<text text-anchor="middle" x="1111" y="-7.5" font-family="Helvetica,sans-Serif" font-size="10.00">sitkConfigure.h</text>
</a>
</g>
</g>
<!-- Node2&#45;&gt;Node8 -->
<g id="edge7" class="edge">
<title>Node2&#45;&gt;Node8</title>
<path fill="none" stroke="midnightblue" d="M578.4,-61.46C676.25,-52.19 940.21,-27.18 1055.67,-16.24"/>
<polygon fill="midnightblue" stroke="midnightblue" points="1056.08,-19.72 1065.71,-15.29 1055.42,-12.75 1056.08,-19.72"/>
</g>
<!-- Node10 -->
<g id="node10" class="node">
<title>Node10</title>
<g id="a_node10"><a xlink:href="sitkCommon_8h.html" target="_top" xlink:title=" ">
<polygon fill="white" stroke="black" points="497,-112.5 497,-131.5 585,-131.5 585,-112.5 497,-112.5"/>
<text text-anchor="middle" x="541" y="-119.5" font-family="Helvetica,sans-Serif" font-size="10.00">sitkCommon.h</text>
</a>
</g>
</g>
<!-- Node9&#45;&gt;Node10 -->
<g id="edge9" class="edge">
<title>Node9&#45;&gt;Node10</title>
<path fill="none" stroke="midnightblue" d="M413.83,-348.6C392.99,-342.34 368.69,-331.05 356,-311 341.61,-288.26 357.14,-249.53 377,-224 411.21,-180.03 470.36,-150.51 507.49,-135.26"/>
<polygon fill="midnightblue" stroke="midnightblue" points="508.89,-138.47 516.89,-131.51 506.3,-131.97 508.89,-138.47"/>
</g>
<!-- Node11 -->
<g id="node11" class="node">
<title>Node11</title>
<g id="a_node11"><a xlink:href="sitkTemplateFunctions_8h.html" target="_top" xlink:title=" ">
<polygon fill="white" stroke="black" points="118.5,-230 118.5,-249 253.5,-249 253.5,-230 118.5,-230"/>
<text text-anchor="middle" x="186" y="-237" font-family="Helvetica,sans-Serif" font-size="10.00">sitkTemplateFunctions.h</text>
</a>
</g>
</g>
<!-- Node9&#45;&gt;Node11 -->
<g id="edge11" class="edge">
<title>Node9&#45;&gt;Node11</title>
<path fill="none" stroke="midnightblue" d="M413.8,-352.02C375.51,-346.77 314.97,-335.19 268,-311 241.28,-297.24 215.91,-273.12 200.65,-256.98"/>
<polygon fill="midnightblue" stroke="midnightblue" points="202.99,-254.35 193.64,-249.36 197.84,-259.09 202.99,-254.35"/>
</g>
<!-- Node13 -->
<g id="node13" class="node">
<title>Node13</title>
<g id="a_node13"><a xlink:title=" ">
<polygon fill="white" stroke="#bfbfbf" points="214.5,-168.5 214.5,-187.5 261.5,-187.5 261.5,-168.5 214.5,-168.5"/>
<text text-anchor="middle" x="238" y="-175.5" font-family="Helvetica,sans-Serif" font-size="10.00">vector</text>
</a>
</g>
</g>
<!-- Node9&#45;&gt;Node13 -->
<g id="edge50" class="edge">
<title>Node9&#45;&gt;Node13</title>
<path fill="none" stroke="midnightblue" d="M413.8,-352.56C381.98,-347.88 336.6,-336.86 306,-311 272.91,-283.03 281.97,-262.45 262,-224 257.3,-214.95 251.97,-204.94 247.53,-196.66"/>
<polygon fill="midnightblue" stroke="midnightblue" points="250.48,-194.75 242.66,-187.6 244.31,-198.06 250.48,-194.75"/>
</g>
<!-- Node16 -->
<g id="node16" class="node">
<title>Node16</title>
<g id="a_node16"><a xlink:href="sitkDetail_8h.html" target="_top" xlink:title=" ">
<polygon fill="white" stroke="black" points="948.5,-291.5 948.5,-310.5 1021.5,-310.5 1021.5,-291.5 948.5,-291.5"/>
<text text-anchor="middle" x="985" y="-298.5" font-family="Helvetica,sans-Serif" font-size="10.00">sitkDetail.h</text>
</a>
</g>
</g>
<!-- Node9&#45;&gt;Node16 -->
<g id="edge20" class="edge">
<title>Node9&#45;&gt;Node16</title>
<path fill="none" stroke="midnightblue" d="M488.13,-352.25C582.91,-342.66 833.71,-317.3 938.23,-306.73"/>
<polygon fill="midnightblue" stroke="midnightblue" points="938.88,-310.18 948.47,-305.69 938.17,-303.22 938.88,-310.18"/>
</g>
<!-- Node27 -->
<g id="node27" class="node">
<title>Node27</title>
<g id="a_node27"><a xlink:href="sitkPixelIDTokens_8h.html" target="_top" xlink:title=" ">
<polygon fill="white" stroke="black" points="740,-291.5 740,-310.5 850,-310.5 850,-291.5 740,-291.5"/>
<text text-anchor="middle" x="795" y="-298.5" font-family="Helvetica,sans-Serif" font-size="10.00">sitkPixelIDTokens.h</text>
</a>
</g>
</g>
<!-- Node9&#45;&gt;Node27 -->
<g id="edge39" class="edge">
<title>Node9&#45;&gt;Node27</title>
<path fill="none" stroke="midnightblue" d="M488.14,-350.17C546.18,-341.06 659.12,-323.33 730.61,-312.11"/>
<polygon fill="midnightblue" stroke="midnightblue" points="731.51,-315.51 740.84,-310.5 730.42,-308.59 731.51,-315.51"/>
</g>
<!-- Node30 -->
<g id="node30" class="node">
<title>Node30</title>
<g id="a_node30"><a xlink:title=" ">
<polygon fill="white" stroke="#bfbfbf" points="593.5,-230 593.5,-249 662.5,-249 662.5,-230 593.5,-230"/>
<text text-anchor="middle" x="628" y="-237" font-family="Helvetica,sans-Serif" font-size="10.00">type_traits</text>
</a>
</g>
</g>
<!-- Node9&#45;&gt;Node30 -->
<g id="edge52" class="edge">
<title>Node9&#45;&gt;Node30</title>
<path fill="none" stroke="midnightblue" d="M464.3,-347.32C494.54,-327.59 568.69,-279.2 605.92,-254.91"/>
<polygon fill="midnightblue" stroke="midnightblue" points="608.08,-257.68 614.54,-249.28 604.25,-251.82 608.08,-257.68"/>
</g>
<!-- Node31 -->
<g id="node31" class="node">
<title>Node31</title>
<g id="a_node31"><a xlink:href="sitkInterpolator_8h.html" target="_top" xlink:title=" ">
<polygon fill="white" stroke="black" points="386,-230 386,-249 486,-249 486,-230 386,-230"/>
<text text-anchor="middle" x="436" y="-237" font-family="Helvetica,sans-Serif" font-size="10.00">sitkInterpolator.h</text>
</a>
</g>
</g>
<!-- Node9&#45;&gt;Node31 -->
<g id="edge47" class="edge">
<title>Node9&#45;&gt;Node31</title>
<path fill="none" stroke="midnightblue" d="M449.87,-347.32C447.46,-328.76 441.76,-284.84 438.46,-259.47"/>
<polygon fill="midnightblue" stroke="midnightblue" points="441.9,-258.75 437.14,-249.28 434.96,-259.65 441.9,-258.75"/>
</g>
<!-- Node32 -->
<g id="node32" class="node">
<title>Node32</title>
<g id="a_node32"><a xlink:title=" ">
<polygon fill="white" stroke="#bfbfbf" points="365,-291.5 365,-310.5 423,-310.5 423,-291.5 365,-291.5"/>
<text text-anchor="middle" x="394" y="-298.5" font-family="Helvetica,sans-Serif" font-size="10.00">memory</text>
</a>
</g>
</g>
<!-- Node9&#45;&gt;Node32 -->
<g id="edge51" class="edge">
<title>Node9&#45;&gt;Node32</title>
<path fill="none" stroke="midnightblue" d="M441.84,-347.32C433.5,-339.42 420.97,-327.55 410.82,-317.94"/>
<polygon fill="midnightblue" stroke="midnightblue" points="412.99,-315.17 403.32,-310.83 408.18,-320.25 412.99,-315.17"/>
</g>
<!-- Node10&#45;&gt;Node2 -->
<g id="edge10" class="edge">
<title>Node10&#45;&gt;Node2</title>
<path fill="none" stroke="midnightblue" d="M541,-112.08C541,-105.01 541,-94.86 541,-85.99"/>
<polygon fill="midnightblue" stroke="midnightblue" points="544.5,-85.75 541,-75.75 537.5,-85.75 544.5,-85.75"/>
</g>
<!-- Node11&#45;&gt;Node2 -->
<g id="edge12" class="edge">
<title>Node11&#45;&gt;Node2</title>
<path fill="none" stroke="midnightblue" d="M183.39,-229.59C179.71,-215.01 174.9,-185.9 189,-168 226.84,-119.94 406.68,-87.06 493.66,-73.7"/>
<polygon fill="midnightblue" stroke="midnightblue" points="494.43,-77.12 503.79,-72.17 493.38,-70.2 494.43,-77.12"/>
</g>
<!-- Node11&#45;&gt;Node10 -->
<g id="edge13" class="edge">
<title>Node11&#45;&gt;Node10</title>
<path fill="none" stroke="midnightblue" d="M185.52,-229.55C185.24,-214.37 187.09,-183.72 205,-168 245.82,-132.18 402.41,-124.62 486.63,-123.19"/>
<polygon fill="midnightblue" stroke="midnightblue" points="486.83,-126.69 496.78,-123.04 486.73,-119.69 486.83,-126.69"/>
</g>
<!-- Node12 -->
<g id="node12" class="node">
<title>Node12</title>
<g id="a_node12"><a xlink:href="sitkExceptionObject_8h.html" target="_top" xlink:title=" ">
<polygon fill="white" stroke="black" points="279.5,-168.5 279.5,-187.5 402.5,-187.5 402.5,-168.5 279.5,-168.5"/>
<text text-anchor="middle" x="341" y="-175.5" font-family="Helvetica,sans-Serif" font-size="10.00">sitkExceptionObject.h</text>
</a>
</g>
</g>
<!-- Node11&#45;&gt;Node12 -->
<g id="edge14" class="edge">
<title>Node11&#45;&gt;Node12</title>
<path fill="none" stroke="midnightblue" d="M208.21,-229.98C234.68,-219.81 279.11,-202.76 309.22,-191.2"/>
<polygon fill="midnightblue" stroke="midnightblue" points="310.75,-194.36 318.83,-187.51 308.24,-187.83 310.75,-194.36"/>
</g>
<!-- Node11&#45;&gt;Node13 -->
<g id="edge17" class="edge">
<title>Node11&#45;&gt;Node13</title>
<path fill="none" stroke="midnightblue" d="M193.45,-229.98C201.33,-220.96 213.94,-206.52 223.74,-195.31"/>
<polygon fill="midnightblue" stroke="midnightblue" points="226.62,-197.34 230.56,-187.51 221.35,-192.74 226.62,-197.34"/>
</g>
<!-- Node14 -->
<g id="node14" class="node">
<title>Node14</title>
<g id="a_node14"><a xlink:title=" ">
<polygon fill="white" stroke="#bfbfbf" points="497.5,-168.5 497.5,-187.5 554.5,-187.5 554.5,-168.5 497.5,-168.5"/>
<text text-anchor="middle" x="526" y="-175.5" font-family="Helvetica,sans-Serif" font-size="10.00">ostream</text>
</a>
</g>
</g>
<!-- Node11&#45;&gt;Node14 -->
<g id="edge18" class="edge">
<title>Node11&#45;&gt;Node14</title>
<path fill="none" stroke="midnightblue" d="M234.71,-229.98C302.76,-218.07 424.89,-196.69 487.17,-185.79"/>
<polygon fill="midnightblue" stroke="midnightblue" points="488.11,-189.18 497.36,-184.01 486.91,-182.29 488.11,-189.18"/>
</g>
<!-- Node15 -->
<g id="node15" class="node">
<title>Node15</title>
<g id="a_node15"><a xlink:title=" ">
<polygon fill="white" stroke="#bfbfbf" points="66.5,-168.5 66.5,-187.5 119.5,-187.5 119.5,-168.5 66.5,-168.5"/>
<text text-anchor="middle" x="93" y="-175.5" font-family="Helvetica,sans-Serif" font-size="10.00">iterator</text>
</a>
</g>
</g>
<!-- Node11&#45;&gt;Node15 -->
<g id="edge19" class="edge">
<title>Node11&#45;&gt;Node15</title>
<path fill="none" stroke="midnightblue" d="M172.68,-229.98C157.62,-220.34 132.88,-204.52 114.96,-193.05"/>
<polygon fill="midnightblue" stroke="midnightblue" points="116.61,-189.95 106.3,-187.51 112.84,-195.85 116.61,-189.95"/>
</g>
<!-- Node12&#45;&gt;Node2 -->
<g id="edge15" class="edge">
<title>Node12&#45;&gt;Node2</title>
<path fill="none" stroke="midnightblue" d="M356.69,-168.37C391.38,-149.29 474.78,-103.42 516.44,-80.51"/>
<polygon fill="midnightblue" stroke="midnightblue" points="518.3,-83.48 525.38,-75.59 514.93,-77.34 518.3,-83.48"/>
</g>
<!-- Node12&#45;&gt;Node10 -->
<g id="edge16" class="edge">
<title>Node12&#45;&gt;Node10</title>
<path fill="none" stroke="midnightblue" d="M372.69,-168.44C407.07,-159.16 462.08,-144.31 499.79,-134.13"/>
<polygon fill="midnightblue" stroke="midnightblue" points="500.72,-137.5 509.46,-131.52 498.89,-130.74 500.72,-137.5"/>
</g>
<!-- Node17 -->
<g id="node17" class="node">
<title>Node17</title>
<g id="a_node17"><a xlink:href="sitkMemberFunctionFactoryBase_8h.html" target="_top" xlink:title=" ">
<polygon fill="white" stroke="black" points="1152,-224.5 1152,-254.5 1304,-254.5 1304,-224.5 1152,-224.5"/>
<text text-anchor="start" x="1160" y="-242.5" font-family="Helvetica,sans-Serif" font-size="10.00">sitkMemberFunctionFactory</text>
<text text-anchor="middle" x="1228" y="-231.5" font-family="Helvetica,sans-Serif" font-size="10.00">Base.h</text>
</a>
</g>
</g>
<!-- Node16&#45;&gt;Node17 -->
<g id="edge21" class="edge">
<title>Node16&#45;&gt;Node17</title>
<path fill="none" stroke="midnightblue" d="M1019.82,-291.48C1056.49,-282.49 1115.17,-268.13 1160.89,-256.93"/>
<polygon fill="midnightblue" stroke="midnightblue" points="1161.85,-260.3 1170.73,-254.52 1160.18,-253.5 1161.85,-260.3"/>
</g>
<!-- Node23 -->
<g id="node23" class="node">
<title>Node23</title>
<g id="a_node23"><a xlink:title=" ">
<polygon fill="white" stroke="#bfbfbf" points="915.5,-168.5 915.5,-187.5 1054.5,-187.5 1054.5,-168.5 915.5,-168.5"/>
<text text-anchor="middle" x="985" y="-175.5" font-family="Helvetica,sans-Serif" font-size="10.00">Ancillary/FunctionTraits.h</text>
</a>
</g>
</g>
<!-- Node16&#45;&gt;Node23 -->
<g id="edge38" class="edge">
<title>Node16&#45;&gt;Node23</title>
<path fill="none" stroke="midnightblue" d="M985,-291.3C985,-271.85 985,-224.49 985,-197.9"/>
<polygon fill="midnightblue" stroke="midnightblue" points="988.5,-197.62 985,-187.62 981.5,-197.62 988.5,-197.62"/>
</g>
<!-- Node17&#45;&gt;Node2 -->
<g id="edge30" class="edge">
<title>Node17&#45;&gt;Node2</title>
<path fill="none" stroke="midnightblue" d="M1190.08,-224.48C1164.84,-214.86 1131.09,-201.44 1102,-188 1084.67,-179.99 1082.01,-174.32 1064,-168 894.53,-108.51 681.18,-81.15 588.07,-71.41"/>
<polygon fill="midnightblue" stroke="midnightblue" points="588.42,-67.93 578.11,-70.39 587.7,-74.89 588.42,-67.93"/>
</g>
<!-- Node17&#45;&gt;Node8 -->
<g id="edge22" class="edge">
<title>Node17&#45;&gt;Node8</title>
<path fill="none" stroke="midnightblue" d="M1304.06,-238.48C1394.92,-236.64 1538.96,-227.39 1573,-188 1578.81,-181.27 1576.85,-176.01 1573,-168 1555.74,-132.09 1538.64,-129.81 1503,-112 1390.79,-55.92 1244.5,-28.95 1166.19,-17.75"/>
<polygon fill="midnightblue" stroke="midnightblue" points="1166.45,-14.25 1156.06,-16.33 1165.48,-21.18 1166.45,-14.25"/>
</g>
<!-- Node18 -->
<g id="node18" class="node">
<title>Node18</title>
<g id="a_node18"><a xlink:href="sitkPixelIDTypes_8h.html" target="_top" xlink:title=" ">
<polygon fill="white" stroke="black" points="1253.5,-112.5 1253.5,-131.5 1358.5,-131.5 1358.5,-112.5 1253.5,-112.5"/>
<text text-anchor="middle" x="1306" y="-119.5" font-family="Helvetica,sans-Serif" font-size="10.00">sitkPixelIDTypes.h</text>
</a>
</g>
</g>
<!-- Node17&#45;&gt;Node18 -->
<g id="edge23" class="edge">
<title>Node17&#45;&gt;Node18</title>
<path fill="none" stroke="midnightblue" d="M1304.03,-232.97C1334.28,-226.59 1366.28,-213.68 1385,-188 1401.05,-165.98 1369.49,-147.01 1341.62,-135.34"/>
<polygon fill="midnightblue" stroke="midnightblue" points="1342.59,-131.96 1332,-131.52 1340.01,-138.47 1342.59,-131.96"/>
</g>
<!-- Node19 -->
<g id="node19" class="node">
<title>Node19</title>
<g id="a_node19"><a xlink:href="sitkPixelIDTypeLists_8h.html" target="_top" xlink:title=" ">
<polygon fill="white" stroke="black" points="1111,-168.5 1111,-187.5 1233,-187.5 1233,-168.5 1111,-168.5"/>
<text text-anchor="middle" x="1172" y="-175.5" font-family="Helvetica,sans-Serif" font-size="10.00">sitkPixelIDTypeLists.h</text>
</a>
</g>
</g>
<!-- Node17&#45;&gt;Node19 -->
<g id="edge24" class="edge">
<title>Node17&#45;&gt;Node19</title>
<path fill="none" stroke="midnightblue" d="M1214.73,-224.4C1206.42,-215.58 1195.7,-204.18 1187.08,-195.02"/>
<polygon fill="midnightblue" stroke="midnightblue" points="1189.55,-192.54 1180.15,-187.66 1184.45,-197.34 1189.55,-192.54"/>
</g>
<!-- Node20 -->
<g id="node20" class="node">
<title>Node20</title>
<g id="a_node20"><a xlink:title=" ">
<polygon fill="white" stroke="#bfbfbf" points="1382.5,-112.5 1382.5,-131.5 1493.5,-131.5 1493.5,-112.5 1382.5,-112.5"/>
<text text-anchor="middle" x="1438" y="-119.5" font-family="Helvetica,sans-Serif" font-size="10.00">Ancillary/TypeList.h</text>
</a>
</g>
</g>
<!-- Node17&#45;&gt;Node20 -->
<g id="edge33" class="edge">
<title>Node17&#45;&gt;Node20</title>
<path fill="none" stroke="midnightblue" d="M1304.1,-229.26C1336.63,-222.22 1373.38,-209.82 1401,-188 1416.25,-175.95 1426.32,-155.77 1432.05,-141.09"/>
<polygon fill="midnightblue" stroke="midnightblue" points="1435.38,-142.16 1435.46,-131.56 1428.79,-139.79 1435.38,-142.16"/>
</g>
<!-- Node22 -->
<g id="node22" class="node">
<title>Node22</title>
<g id="a_node22"><a xlink:href="sitkNonCopyable_8h.html" target="_top" xlink:title=" ">
<polygon fill="white" stroke="black" points="649.5,-168.5 649.5,-187.5 758.5,-187.5 758.5,-168.5 649.5,-168.5"/>
<text text-anchor="middle" x="704" y="-175.5" font-family="Helvetica,sans-Serif" font-size="10.00">sitkNonCopyable.h</text>
</a>
</g>
</g>
<!-- Node17&#45;&gt;Node22 -->
<g id="edge31" class="edge">
<title>Node17&#45;&gt;Node22</title>
<path fill="none" stroke="midnightblue" d="M1151.81,-229.85C1048.45,-218.11 865.62,-197.35 768.63,-186.34"/>
<polygon fill="midnightblue" stroke="midnightblue" points="768.99,-182.86 758.66,-185.21 768.2,-189.81 768.99,-182.86"/>
</g>
<!-- Node17&#45;&gt;Node23 -->
<g id="edge34" class="edge">
<title>Node17&#45;&gt;Node23</title>
<path fill="none" stroke="midnightblue" d="M1170.72,-224.47C1127.61,-213.92 1069.36,-199.66 1029.66,-189.94"/>
<polygon fill="midnightblue" stroke="midnightblue" points="1030.29,-186.49 1019.74,-187.51 1028.62,-193.28 1030.29,-186.49"/>
</g>
<!-- Node24 -->
<g id="node24" class="node">
<title>Node24</title>
<g id="a_node24"><a xlink:title=" ">
<polygon fill="white" stroke="#bfbfbf" points="1470.5,-168.5 1470.5,-187.5 1563.5,-187.5 1563.5,-168.5 1470.5,-168.5"/>
<text text-anchor="middle" x="1517" y="-175.5" font-family="Helvetica,sans-Serif" font-size="10.00">unordered_map</text>
</a>
</g>
</g>
<!-- Node17&#45;&gt;Node24 -->
<g id="edge35" class="edge">
<title>Node17&#45;&gt;Node24</title>
<path fill="none" stroke="midnightblue" d="M1296.12,-224.47C1348.05,-213.78 1418.44,-199.29 1465.68,-189.57"/>
<polygon fill="midnightblue" stroke="midnightblue" points="1466.59,-192.95 1475.68,-187.51 1465.18,-186.09 1466.59,-192.95"/>
</g>
<!-- Node25 -->
<g id="node25" class="node">
<title>Node25</title>
<g id="a_node25"><a xlink:title=" ">
<polygon fill="white" stroke="#bfbfbf" points="1251.5,-168.5 1251.5,-187.5 1316.5,-187.5 1316.5,-168.5 1251.5,-168.5"/>
<text text-anchor="middle" x="1284" y="-175.5" font-family="Helvetica,sans-Serif" font-size="10.00">functional</text>
</a>
</g>
</g>
<!-- Node17&#45;&gt;Node25 -->
<g id="edge36" class="edge">
<title>Node17&#45;&gt;Node25</title>
<path fill="none" stroke="midnightblue" d="M1241.27,-224.4C1249.58,-215.58 1260.3,-204.18 1268.92,-195.02"/>
<polygon fill="midnightblue" stroke="midnightblue" points="1271.55,-197.34 1275.85,-187.66 1266.45,-192.54 1271.55,-197.34"/>
</g>
<!-- Node26 -->
<g id="node26" class="node">
<title>Node26</title>
<g id="a_node26"><a xlink:title=" ">
<polygon fill="white" stroke="#bfbfbf" points="1334.5,-168.5 1334.5,-187.5 1375.5,-187.5 1375.5,-168.5 1334.5,-168.5"/>
<text text-anchor="middle" x="1355" y="-175.5" font-family="Helvetica,sans-Serif" font-size="10.00">tuple</text>
</a>
</g>
</g>
<!-- Node17&#45;&gt;Node26 -->
<g id="edge37" class="edge">
<title>Node17&#45;&gt;Node26</title>
<path fill="none" stroke="midnightblue" d="M1258.1,-224.4C1279.12,-214.55 1306.97,-201.5 1327.42,-191.92"/>
<polygon fill="midnightblue" stroke="midnightblue" points="1328.95,-195.07 1336.52,-187.66 1325.98,-188.73 1328.95,-195.07"/>
</g>
<!-- Node19&#45;&gt;Node3 -->
<g id="edge25" class="edge">
<title>Node19&#45;&gt;Node3</title>
<path fill="none" stroke="midnightblue" d="M1172.41,-168.15C1172.55,-154.3 1170.73,-127.5 1156,-112 1075.33,-27.14 926.38,-12.77 857.16,-10.88"/>
<polygon fill="midnightblue" stroke="midnightblue" points="856.82,-7.37 846.76,-10.68 856.68,-14.37 856.82,-7.37"/>
</g>
<!-- Node19&#45;&gt;Node8 -->
<g id="edge26" class="edge">
<title>Node19&#45;&gt;Node8</title>
<path fill="none" stroke="midnightblue" d="M1176.65,-168.38C1187.23,-147.53 1210.54,-93.29 1189,-56 1180.32,-40.98 1164.51,-30.52 1149.38,-23.5"/>
<polygon fill="midnightblue" stroke="midnightblue" points="1150.69,-20.25 1140.12,-19.56 1147.95,-26.69 1150.69,-20.25"/>
</g>
<!-- Node19&#45;&gt;Node18 -->
<g id="edge27" class="edge">
<title>Node19&#45;&gt;Node18</title>
<path fill="none" stroke="midnightblue" d="M1193.23,-168.44C1215.38,-159.52 1250.32,-145.44 1275.44,-135.32"/>
<polygon fill="midnightblue" stroke="midnightblue" points="1276.9,-138.5 1284.87,-131.52 1274.28,-132.01 1276.9,-138.5"/>
</g>
<!-- Node19&#45;&gt;Node20 -->
<g id="edge28" class="edge">
<title>Node19&#45;&gt;Node20</title>
<path fill="none" stroke="midnightblue" d="M1214.15,-168.44C1260.75,-158.98 1335.84,-143.74 1386.05,-133.55"/>
<polygon fill="midnightblue" stroke="midnightblue" points="1386.94,-136.94 1396.05,-131.52 1385.55,-130.08 1386.94,-136.94"/>
</g>
<!-- Node21 -->
<g id="node21" class="node">
<title>Node21</title>
<g id="a_node21"><a xlink:title=" ">
<polygon fill="white" stroke="#bfbfbf" points="1087.5,-112.5 1087.5,-131.5 1146.5,-131.5 1146.5,-112.5 1087.5,-112.5"/>
<text text-anchor="middle" x="1117" y="-119.5" font-family="Helvetica,sans-Serif" font-size="10.00">complex</text>
</a>
</g>
</g>
<!-- Node19&#45;&gt;Node21 -->
<g id="edge29" class="edge">
<title>Node19&#45;&gt;Node21</title>
<path fill="none" stroke="midnightblue" d="M1162.92,-168.08C1154.83,-160.14 1142.8,-148.34 1133.09,-138.8"/>
<polygon fill="midnightblue" stroke="midnightblue" points="1135.5,-136.26 1125.91,-131.75 1130.6,-141.25 1135.5,-136.26"/>
</g>
<!-- Node22&#45;&gt;Node10 -->
<g id="edge32" class="edge">
<title>Node22&#45;&gt;Node10</title>
<path fill="none" stroke="midnightblue" d="M678.17,-168.44C650.75,-159.36 607.22,-144.94 576.57,-134.78"/>
<polygon fill="midnightblue" stroke="midnightblue" points="577.3,-131.34 566.71,-131.52 575.1,-137.98 577.3,-131.34"/>
</g>
<!-- Node27&#45;&gt;Node8 -->
<g id="edge40" class="edge">
<title>Node27&#45;&gt;Node8</title>
<path fill="none" stroke="midnightblue" d="M794.02,-291.21C791.88,-271.27 787,-221.11 787,-179 787,-179 787,-179 787,-121 787,-64.89 963.45,-31.69 1055.92,-18.14"/>
<polygon fill="midnightblue" stroke="midnightblue" points="1056.55,-21.59 1065.95,-16.7 1055.55,-14.66 1056.55,-21.59"/>
</g>
<!-- Node28 -->
<g id="node28" class="node">
<title>Node28</title>
<g id="a_node28"><a xlink:href="sitkPixelIDValues_8h.html" target="_top" xlink:title=" ">
<polygon fill="white" stroke="black" points="820,-230 820,-249 930,-249 930,-230 820,-230"/>
<text text-anchor="middle" x="875" y="-237" font-family="Helvetica,sans-Serif" font-size="10.00">sitkPixelIDValues.h</text>
</a>
</g>
</g>
<!-- Node27&#45;&gt;Node28 -->
<g id="edge41" class="edge">
<title>Node27&#45;&gt;Node28</title>
<path fill="none" stroke="midnightblue" d="M806.46,-291.48C819.17,-282.02 839.91,-266.6 855.25,-255.19"/>
<polygon fill="midnightblue" stroke="midnightblue" points="857.62,-257.79 863.56,-249.01 853.45,-252.17 857.62,-257.79"/>
</g>
<!-- Node27&#45;&gt;Node30 -->
<g id="edge46" class="edge">
<title>Node27&#45;&gt;Node30</title>
<path fill="none" stroke="midnightblue" d="M771.07,-291.48C742.3,-281.22 693.84,-263.96 661.4,-252.4"/>
<polygon fill="midnightblue" stroke="midnightblue" points="662.48,-249.07 651.88,-249.01 660.13,-255.66 662.48,-249.07"/>
</g>
<!-- Node28&#45;&gt;Node10 -->
<g id="edge42" class="edge">
<title>Node28&#45;&gt;Node10</title>
<path fill="none" stroke="midnightblue" d="M864.84,-229.82C846.68,-214.78 806.9,-183.95 768,-168 711.55,-144.85 642.2,-133.33 595.11,-127.79"/>
<polygon fill="midnightblue" stroke="midnightblue" points="595.45,-124.31 585.12,-126.66 594.66,-131.26 595.45,-124.31"/>
</g>
<!-- Node28&#45;&gt;Node14 -->
<g id="edge45" class="edge">
<title>Node28&#45;&gt;Node14</title>
<path fill="none" stroke="midnightblue" d="M825,-229.98C754.83,-218.01 628.63,-196.5 564.97,-185.64"/>
<polygon fill="midnightblue" stroke="midnightblue" points="565.39,-182.16 554.94,-183.93 564.21,-189.07 565.39,-182.16"/>
</g>
<!-- Node28&#45;&gt;Node19 -->
<g id="edge43" class="edge">
<title>Node28&#45;&gt;Node19</title>
<path fill="none" stroke="midnightblue" d="M917.55,-229.98C970.81,-219.3 1062.02,-201.03 1119.54,-189.51"/>
<polygon fill="midnightblue" stroke="midnightblue" points="1120.41,-192.91 1129.53,-187.51 1119.03,-186.04 1120.41,-192.91"/>
</g>
<!-- Node29 -->
<g id="node29" class="node">
<title>Node29</title>
<g id="a_node29"><a xlink:title=" ">
<polygon fill="white" stroke="#bfbfbf" points="853,-168.5 853,-187.5 897,-187.5 897,-168.5 853,-168.5"/>
<text text-anchor="middle" x="875" y="-175.5" font-family="Helvetica,sans-Serif" font-size="10.00">string</text>
</a>
</g>
</g>
<!-- Node28&#45;&gt;Node29 -->
<g id="edge44" class="edge">
<title>Node28&#45;&gt;Node29</title>
<path fill="none" stroke="midnightblue" d="M875,-229.98C875,-221.58 875,-208.48 875,-197.66"/>
<polygon fill="midnightblue" stroke="midnightblue" points="878.5,-197.51 875,-187.51 871.5,-197.51 878.5,-197.51"/>
</g>
<!-- Node31&#45;&gt;Node10 -->
<g id="edge48" class="edge">
<title>Node31&#45;&gt;Node10</title>
<path fill="none" stroke="midnightblue" d="M441.49,-229.76C450.39,-215.93 468.9,-188.45 488,-168 498.17,-157.11 510.85,-146.26 521.26,-137.94"/>
<polygon fill="midnightblue" stroke="midnightblue" points="523.65,-140.52 529.37,-131.61 519.33,-135.01 523.65,-140.52"/>
</g>
<!-- Node31&#45;&gt;Node14 -->
<g id="edge49" class="edge">
<title>Node31&#45;&gt;Node14</title>
<path fill="none" stroke="midnightblue" d="M448.89,-229.98C463.46,-220.34 487.4,-204.52 504.75,-193.05"/>
<polygon fill="midnightblue" stroke="midnightblue" points="506.72,-195.94 513.13,-187.51 502.86,-190.1 506.72,-195.94"/>
</g>
<!-- Node33&#45;&gt;Node28 -->
<g id="edge66" class="edge">
<title>Node33&#45;&gt;Node28</title>
<path fill="none" stroke="midnightblue" d="M585.68,-517.32C689.5,-505.06 878,-474.46 878,-414 878,-414 878,-414 878,-356 878,-321.85 876.67,-282.04 875.78,-259.21"/>
<polygon fill="midnightblue" stroke="midnightblue" points="879.28,-259.04 875.38,-249.19 872.29,-259.32 879.28,-259.04"/>
</g>
<!-- Node34 -->
<g id="node34" class="node">
<title>Node34</title>
<g id="a_node34"><a xlink:href="sitkProcessObject_8h.html" target="_top" xlink:title=" ">
<polygon fill="white" stroke="black" points="440.5,-459.5 440.5,-478.5 553.5,-478.5 553.5,-459.5 440.5,-459.5"/>
<text text-anchor="middle" x="497" y="-466.5" font-family="Helvetica,sans-Serif" font-size="10.00">sitkProcessObject.h</text>
</a>
</g>
</g>
<!-- Node33&#45;&gt;Node34 -->
<g id="edge54" class="edge">
<title>Node33&#45;&gt;Node34</title>
<path fill="none" stroke="midnightblue" d="M515.37,-515.08C512.39,-507.77 508.07,-497.18 504.38,-488.1"/>
<polygon fill="midnightblue" stroke="midnightblue" points="507.58,-486.69 500.57,-478.75 501.1,-489.33 507.58,-486.69"/>
</g>
<!-- Node39 -->
<g id="node39" class="node">
<title>Node39</title>
<g id="a_node39"><a xlink:href="sitkIO_8h.html" target="_top" xlink:title=" ">
<polygon fill="white" stroke="black" points="205,-459.5 205,-478.5 259,-478.5 259,-459.5 205,-459.5"/>
<text text-anchor="middle" x="232" y="-466.5" font-family="Helvetica,sans-Serif" font-size="10.00">sitkIO.h</text>
</a>
</g>
</g>
<!-- Node33&#45;&gt;Node39 -->
<g id="edge67" class="edge">
<title>Node33&#45;&gt;Node39</title>
<path fill="none" stroke="midnightblue" d="M473.52,-515.44C416.92,-504.79 321.34,-486.81 268.99,-476.96"/>
<polygon fill="midnightblue" stroke="midnightblue" points="269.6,-473.51 259.13,-475.1 268.31,-480.39 269.6,-473.51"/>
</g>
<!-- Node34&#45;&gt;Node9 -->
<g id="edge61" class="edge">
<title>Node34&#45;&gt;Node9</title>
<path fill="none" stroke="midnightblue" d="M495.21,-459.34C492.43,-446.65 486.48,-422.39 478,-403 473.8,-393.4 467.93,-383.35 462.73,-375.18"/>
<polygon fill="midnightblue" stroke="midnightblue" points="465.5,-373.03 457.08,-366.6 459.66,-376.88 465.5,-373.03"/>
</g>
<!-- Node34&#45;&gt;Node10 -->
<g id="edge55" class="edge">
<title>Node34&#45;&gt;Node10</title>
<path fill="none" stroke="midnightblue" d="M508.1,-459.37C540.9,-433.06 637.17,-349.9 671,-255 675.63,-242.02 677.06,-236.38 671,-224 659.52,-200.54 598.14,-159.08 563.98,-137.29"/>
<polygon fill="midnightblue" stroke="midnightblue" points="565.46,-134.08 555.14,-131.7 561.72,-140 565.46,-134.08"/>
</g>
<!-- Node34&#45;&gt;Node11 -->
<g id="edge57" class="edge">
<title>Node34&#45;&gt;Node11</title>
<path fill="none" stroke="midnightblue" d="M440.37,-466.4C368.06,-463.14 248.61,-453.19 218,-423 173.38,-378.99 178.14,-296.25 182.97,-259.23"/>
<polygon fill="midnightblue" stroke="midnightblue" points="186.43,-259.71 184.41,-249.31 179.51,-258.7 186.43,-259.71"/>
</g>
<!-- Node34&#45;&gt;Node22 -->
<g id="edge56" class="edge">
<title>Node34&#45;&gt;Node22</title>
<path fill="none" stroke="midnightblue" d="M505.6,-459.34C532.76,-431.63 618.07,-341.85 671,-255 682.31,-236.44 691.77,-213.3 697.62,-197.47"/>
<polygon fill="midnightblue" stroke="midnightblue" points="701,-198.41 701.07,-187.81 694.41,-196.05 701,-198.41"/>
</g>
<!-- Node35 -->
<g id="node35" class="node">
<title>Node35</title>
<g id="a_node35"><a xlink:href="sitkEvent_8h.html" target="_top" xlink:title=" ">
<polygon fill="white" stroke="black" points="504.5,-230 504.5,-249 575.5,-249 575.5,-230 504.5,-230"/>
<text text-anchor="middle" x="540" y="-237" font-family="Helvetica,sans-Serif" font-size="10.00">sitkEvent.h</text>
</a>
</g>
</g>
<!-- Node34&#45;&gt;Node35 -->
<g id="edge58" class="edge">
<title>Node34&#45;&gt;Node35</title>
<path fill="none" stroke="midnightblue" d="M498.63,-459.36C504.93,-426.07 527.69,-305.65 536.49,-259.07"/>
<polygon fill="midnightblue" stroke="midnightblue" points="539.95,-259.63 538.37,-249.15 533.07,-258.33 539.95,-259.63"/>
</g>
<!-- Node36 -->
<g id="node36" class="node">
<title>Node36</title>
<g id="a_node36"><a xlink:href="sitkImageConvert_8h.html" target="_top" xlink:title=" ">
<polygon fill="white" stroke="black" points="227.5,-403.5 227.5,-422.5 340.5,-422.5 340.5,-403.5 227.5,-403.5"/>
<text text-anchor="middle" x="284" y="-410.5" font-family="Helvetica,sans-Serif" font-size="10.00">sitkImageConvert.h</text>
</a>
</g>
</g>
<!-- Node34&#45;&gt;Node36 -->
<g id="edge62" class="edge">
<title>Node34&#45;&gt;Node36</title>
<path fill="none" stroke="midnightblue" d="M463.25,-459.44C426.48,-450.12 367.55,-435.18 327.38,-425"/>
<polygon fill="midnightblue" stroke="midnightblue" points="328.15,-421.58 317.59,-422.52 326.43,-428.37 328.15,-421.58"/>
</g>
<!-- Node37 -->
<g id="node37" class="node">
<title>Node37</title>
<g id="a_node37"><a xlink:title=" ">
<polygon fill="white" stroke="#bfbfbf" points="359,-403.5 359,-422.5 419,-422.5 419,-403.5 359,-403.5"/>
<text text-anchor="middle" x="389" y="-410.5" font-family="Helvetica,sans-Serif" font-size="10.00">iostream</text>
</a>
</g>
</g>
<!-- Node34&#45;&gt;Node37 -->
<g id="edge64" class="edge">
<title>Node34&#45;&gt;Node37</title>
<path fill="none" stroke="midnightblue" d="M479.65,-459.32C462.33,-450.66 435.48,-437.24 415.5,-427.25"/>
<polygon fill="midnightblue" stroke="midnightblue" points="416.82,-424 406.31,-422.65 413.69,-430.26 416.82,-424"/>
</g>
<!-- Node38 -->
<g id="node38" class="node">
<title>Node38</title>
<g id="a_node38"><a xlink:title=" ">
<polygon fill="white" stroke="#bfbfbf" points="437,-403.5 437,-422.5 469,-422.5 469,-403.5 437,-403.5"/>
<text text-anchor="middle" x="453" y="-410.5" font-family="Helvetica,sans-Serif" font-size="10.00">list</text>
</a>
</g>
</g>
<!-- Node34&#45;&gt;Node38 -->
<g id="edge65" class="edge">
<title>Node34&#45;&gt;Node38</title>
<path fill="none" stroke="midnightblue" d="M489.73,-459.08C483.46,-451.38 474.21,-440.03 466.57,-430.65"/>
<polygon fill="midnightblue" stroke="midnightblue" points="469.16,-428.29 460.13,-422.75 463.73,-432.71 469.16,-428.29"/>
</g>
<!-- Node35&#45;&gt;Node10 -->
<g id="edge59" class="edge">
<title>Node35&#45;&gt;Node10</title>
<path fill="none" stroke="midnightblue" d="M545.98,-229.96C554.43,-216.83 568.28,-190.83 563,-168 560.77,-158.36 556.18,-148.41 551.76,-140.31"/>
<polygon fill="midnightblue" stroke="midnightblue" points="554.7,-138.4 546.64,-131.52 548.65,-141.92 554.7,-138.4"/>
</g>
<!-- Node35&#45;&gt;Node14 -->
<g id="edge60" class="edge">
<title>Node35&#45;&gt;Node14</title>
<path fill="none" stroke="midnightblue" d="M537.99,-229.98C536,-221.49 532.87,-208.2 530.31,-197.32"/>
<polygon fill="midnightblue" stroke="midnightblue" points="533.7,-196.44 528,-187.51 526.89,-198.04 533.7,-196.44"/>
</g>
<!-- Node36&#45;&gt;Node9 -->
<g id="edge63" class="edge">
<title>Node36&#45;&gt;Node9</title>
<path fill="none" stroke="midnightblue" d="M310.46,-403.44C338.68,-394.32 383.54,-379.81 414.97,-369.65"/>
<polygon fill="midnightblue" stroke="midnightblue" points="416.22,-372.92 424.66,-366.52 414.07,-366.26 416.22,-372.92"/>
</g>
<!-- Node39&#45;&gt;Node2 -->
<g id="edge68" class="edge">
<title>Node39&#45;&gt;Node2</title>
<path fill="none" stroke="midnightblue" d="M204.62,-465.16C151.14,-457.93 38,-433.69 38,-358 38,-358 38,-358 38,-177 38,-84.29 368.21,-69.6 493.53,-67.36"/>
<polygon fill="midnightblue" stroke="midnightblue" points="493.66,-70.86 503.6,-67.2 493.55,-63.86 493.66,-70.86"/>
</g>
<!-- Node40&#45;&gt;Node5 -->
<g id="edge74" class="edge">
<title>Node40&#45;&gt;Node5</title>
<path fill="none" stroke="midnightblue" d="M1064.74,-349.95C1237.31,-335.78 1630,-297.31 1630,-240.5 1630,-240.5 1630,-240.5 1630,-121 1630,-41.73 1512.73,-19.55 1451.41,-13.37"/>
<polygon fill="midnightblue" stroke="midnightblue" points="1451.64,-9.88 1441.36,-12.45 1451,-16.85 1451.64,-9.88"/>
</g>
<!-- Node40&#45;&gt;Node12 -->
<g id="edge77" class="edge">
<title>Node40&#45;&gt;Node12</title>
<path fill="none" stroke="midnightblue" d="M905.37,-351.82C760,-342.75 458.99,-316.88 377,-255 358.56,-241.08 349.16,-215.33 344.67,-197.69"/>
<polygon fill="midnightblue" stroke="midnightblue" points="348.04,-196.7 342.43,-187.71 341.21,-198.23 348.04,-196.7"/>
</g>
<!-- Node40&#45;&gt;Node16 -->
<g id="edge70" class="edge">
<title>Node40&#45;&gt;Node16</title>
<path fill="none" stroke="midnightblue" d="M985,-347.08C985,-340.01 985,-329.86 985,-320.99"/>
<polygon fill="midnightblue" stroke="midnightblue" points="988.5,-320.75 985,-310.75 981.5,-320.75 988.5,-320.75"/>
</g>
<!-- Node40&#45;&gt;Node17 -->
<g id="edge71" class="edge">
<title>Node40&#45;&gt;Node17</title>
<path fill="none" stroke="midnightblue" d="M1003.26,-347.32C1042.62,-328.61 1136.17,-284.15 1189.33,-258.88"/>
<polygon fill="midnightblue" stroke="midnightblue" points="1190.92,-262 1198.45,-254.55 1187.92,-255.68 1190.92,-262"/>
</g>
<!-- Node40&#45;&gt;Node27 -->
<g id="edge76" class="edge">
<title>Node40&#45;&gt;Node27</title>
<path fill="none" stroke="midnightblue" d="M954.89,-347.44C922.37,-338.2 870.42,-323.44 834.61,-313.26"/>
<polygon fill="midnightblue" stroke="midnightblue" points="835.54,-309.88 824.97,-310.52 833.63,-316.62 835.54,-309.88"/>
</g>
<!-- Node40&#45;&gt;Node28 -->
<g id="edge72" class="edge">
<title>Node40&#45;&gt;Node28</title>
<path fill="none" stroke="midnightblue" d="M976.27,-347.48C967.12,-338.5 952.4,-323.91 940,-311 922.46,-292.73 902.81,-271.28 889.75,-256.88"/>
<polygon fill="midnightblue" stroke="midnightblue" points="892.2,-254.36 882.89,-249.29 887,-259.05 892.2,-254.36"/>
</g>
<!-- Node40&#45;&gt;Node40 -->
<g id="edge75" class="edge">
<title>Node40&#45;&gt;Node40</title>
<path fill="none" stroke="midnightblue" d="M1026.33,-366.5C1054.67,-369.33 1082.5,-366.16 1082.5,-357 1082.5,-348.95 1061,-345.53 1036.56,-346.74"/>
<polygon fill="midnightblue" stroke="midnightblue" points="1036.04,-343.27 1026.33,-347.5 1036.56,-350.25 1036.04,-343.27"/>
</g>
<!-- Node41 -->
<g id="node41" class="node">
<title>Node41</title>
<g id="a_node41"><a xlink:title=" ">
<polygon fill="white" stroke="#bfbfbf" points="1658.5,-291.5 1658.5,-310.5 1829.5,-310.5 1829.5,-291.5 1658.5,-291.5"/>
<text text-anchor="middle" x="1744" y="-298.5" font-family="Helvetica,sans-Serif" font-size="10.00">sitkMemberFunctionFactory.hxx</text>
</a>
</g>
</g>
<!-- Node40&#45;&gt;Node41 -->
<g id="edge73" class="edge">
<title>Node40&#45;&gt;Node41</title>
<path fill="none" stroke="midnightblue" d="M1064.67,-351.12C1188.61,-343.39 1435.08,-327.53 1644,-311 1645.32,-310.9 1646.65,-310.79 1647.99,-310.68"/>
<polygon fill="midnightblue" stroke="midnightblue" points="1648.69,-314.14 1658.37,-309.83 1648.11,-307.16 1648.69,-314.14"/>
</g>
</g>
</svg>
