<?xml version="1.0" encoding="UTF-8" standalone="no"?>
<!DOCTYPE svg PUBLIC "-//W3C//DTD SVG 1.1//EN"
 "http://www.w3.org/Graphics/SVG/1.1/DTD/svg11.dtd">
<!-- Generated by graphviz version 2.43.0 (0)
 -->
<!-- Title: sitkImageViewer.h Pages: 1 -->
<!--zoomable 543 -->
<svg id="main" version="1.1" xmlns="http://www.w3.org/2000/svg" xmlns:xlink="http://www.w3.org/1999/xlink" xml:space="preserve" onload="init(evt)">
<style type="text/css"><![CDATA[
.edge:hover path { stroke: red; }
.edge:hover polygon { stroke: red; fill: red; }
]]></style>
<script type="text/javascript"><![CDATA[
var edges = document.getElementsByTagName('g');
if (edges && edges.length) {
  for (var i=0;i<edges.length;i++) {
    if (edges[i].id.substr(0,4)=='edge') {
      edges[i].setAttribute('class','edge');
    }
  }
}
]]></script>
        <defs>
                <circle id="rim" cx="0" cy="0" r="7"/>
                <circle id="rim2" cx="0" cy="0" r="3.5"/>
                <g id="zoomPlus">
                        <use xlink:href="#rim" fill="#404040">
                                <set attributeName="fill" to="#808080" begin="zoomplus.mouseover" end="zoomplus.mouseout"/>
                        </use>
                        <path d="M-4,0h8M0,-4v8" fill="none" stroke="white" stroke-width="1.5" pointer-events="none"/>
                </g>
                <g id="zoomMin">
                        <use xlink:href="#rim" fill="#404040">
                                <set attributeName="fill" to="#808080" begin="zoomminus.mouseover" end="zoomminus.mouseout"/>
                        </use>
                        <path d="M-4,0h8" fill="none" stroke="white" stroke-width="1.5" pointer-events="none"/>
                </g>
                <g id="dirArrow">
                        <path fill="none" stroke="white" stroke-width="1.5" d="M0,-3.0v7 M-2.5,-0.5L0,-3.0L2.5,-0.5"/>
                </g>
               <g id="resetDef">
                       <use xlink:href="#rim2" fill="#404040">
                               <set attributeName="fill" to="#808080" begin="reset.mouseover" end="reset.mouseout"/>
                       </use>
               </g>
        </defs>

<script type="text/javascript">
var viewWidth = 1562;
var viewHeight = 543;
var sectionId = 'dynsection-0';
</script>
<script xlink:href="svgpan.js"/>
<svg id="graph" class="graph">
<g id="viewport">
<title>sitkImageViewer.h</title>
<polygon fill="white" stroke="transparent" points="-4,4 -4,-539 1558,-539 1558,4 -4,4"/>
<!-- Node1 -->
<g id="node1" class="node">
<title>Node1</title>
<g id="a_node1"><a xlink:title=" ">
<polygon fill="#bfbfbf" stroke="black" points="1090.5,-515.5 1090.5,-534.5 1197.5,-534.5 1197.5,-515.5 1090.5,-515.5"/>
<text text-anchor="middle" x="1144" y="-522.5" font-family="Helvetica,sans-Serif" font-size="10.00">sitkImageViewer.h</text>
</a>
</g>
</g>
<!-- Node2 -->
<g id="node2" class="node">
<title>Node2</title>
<g id="a_node2"><a xlink:href="sitkImage_8h.html" target="_top" xlink:title=" ">
<polygon fill="white" stroke="black" points="908,-347.5 908,-366.5 982,-366.5 982,-347.5 908,-347.5"/>
<text text-anchor="middle" x="945" y="-354.5" font-family="Helvetica,sans-Serif" font-size="10.00">sitkImage.h</text>
</a>
</g>
</g>
<!-- Node1&#45;&gt;Node2 -->
<g id="edge1" class="edge">
<title>Node1&#45;&gt;Node2</title>
<path fill="none" stroke="midnightblue" d="M1102.34,-515.48C1055.85,-503.55 982.63,-476.96 948,-423 939.24,-409.35 939.36,-390.56 941.16,-376.69"/>
<polygon fill="midnightblue" stroke="midnightblue" points="944.61,-377.26 942.82,-366.82 937.71,-376.1 944.61,-377.26"/>
</g>
<!-- Node33 -->
<g id="node33" class="node">
<title>Node33</title>
<g id="a_node33"><a xlink:href="sitkIO_8h.html" target="_top" xlink:title=" ">
<polygon fill="white" stroke="black" points="1492,-347.5 1492,-366.5 1546,-366.5 1546,-347.5 1492,-347.5"/>
<text text-anchor="middle" x="1519" y="-354.5" font-family="Helvetica,sans-Serif" font-size="10.00">sitkIO.h</text>
</a>
</g>
</g>
<!-- Node1&#45;&gt;Node33 -->
<g id="edge52" class="edge">
<title>Node1&#45;&gt;Node33</title>
<path fill="none" stroke="midnightblue" d="M1166.74,-515.42C1210.59,-498.71 1309.69,-460.19 1391,-423 1427.38,-406.36 1468.45,-385.04 1494.04,-371.44"/>
<polygon fill="midnightblue" stroke="midnightblue" points="1495.87,-374.43 1503.04,-366.64 1492.57,-368.26 1495.87,-374.43"/>
</g>
<!-- Node34 -->
<g id="node34" class="node">
<title>Node34</title>
<g id="a_node34"><a xlink:href="sitkProcessObject_8h.html" target="_top" xlink:title=" ">
<polygon fill="white" stroke="black" points="1087.5,-459.5 1087.5,-478.5 1200.5,-478.5 1200.5,-459.5 1087.5,-459.5"/>
<text text-anchor="middle" x="1144" y="-466.5" font-family="Helvetica,sans-Serif" font-size="10.00">sitkProcessObject.h</text>
</a>
</g>
</g>
<!-- Node1&#45;&gt;Node34 -->
<g id="edge54" class="edge">
<title>Node1&#45;&gt;Node34</title>
<path fill="none" stroke="midnightblue" d="M1144,-515.08C1144,-508.01 1144,-497.86 1144,-488.99"/>
<polygon fill="midnightblue" stroke="midnightblue" points="1147.5,-488.75 1144,-478.75 1140.5,-488.75 1147.5,-488.75"/>
</g>
<!-- Node3 -->
<g id="node3" class="node">
<title>Node3</title>
<g id="a_node3"><a xlink:href="sitkCommon_8h.html" target="_top" xlink:title=" ">
<polygon fill="white" stroke="black" points="1021,-112.5 1021,-131.5 1109,-131.5 1109,-112.5 1021,-112.5"/>
<text text-anchor="middle" x="1065" y="-119.5" font-family="Helvetica,sans-Serif" font-size="10.00">sitkCommon.h</text>
</a>
</g>
</g>
<!-- Node2&#45;&gt;Node3 -->
<g id="edge2" class="edge">
<title>Node2&#45;&gt;Node3</title>
<path fill="none" stroke="midnightblue" d="M907.69,-351.94C858.33,-345.8 775.1,-332.53 754,-311 726.68,-283.12 719.18,-255.67 742,-224 771.58,-182.95 803.35,-207.6 850,-188 867.96,-180.45 870.78,-174.9 889,-168 928.73,-152.95 975.38,-141.28 1010.66,-133.6"/>
<polygon fill="midnightblue" stroke="midnightblue" points="1011.72,-136.95 1020.76,-131.44 1010.25,-130.11 1011.72,-136.95"/>
</g>
<!-- Node11 -->
<g id="node11" class="node">
<title>Node11</title>
<g id="a_node11"><a xlink:href="sitkTemplateFunctions_8h.html" target="_top" xlink:title=" ">
<polygon fill="white" stroke="black" points="1213.5,-230 1213.5,-249 1348.5,-249 1348.5,-230 1213.5,-230"/>
<text text-anchor="middle" x="1281" y="-237" font-family="Helvetica,sans-Serif" font-size="10.00">sitkTemplateFunctions.h</text>
</a>
</g>
</g>
<!-- Node2&#45;&gt;Node11 -->
<g id="edge10" class="edge">
<title>Node2&#45;&gt;Node11</title>
<path fill="none" stroke="midnightblue" d="M982.17,-355.49C1033.37,-353.47 1127.38,-344.96 1199,-311 1226.45,-297.99 1251.95,-273.26 1267.01,-256.83"/>
<polygon fill="midnightblue" stroke="midnightblue" points="1269.86,-258.89 1273.89,-249.09 1264.63,-254.24 1269.86,-258.89"/>
</g>
<!-- Node13 -->
<g id="node13" class="node">
<title>Node13</title>
<g id="a_node13"><a xlink:title=" ">
<polygon fill="white" stroke="#bfbfbf" points="1150.5,-168.5 1150.5,-187.5 1197.5,-187.5 1197.5,-168.5 1150.5,-168.5"/>
<text text-anchor="middle" x="1174" y="-175.5" font-family="Helvetica,sans-Serif" font-size="10.00">vector</text>
</a>
</g>
</g>
<!-- Node2&#45;&gt;Node13 -->
<g id="edge49" class="edge">
<title>Node2&#45;&gt;Node13</title>
<path fill="none" stroke="midnightblue" d="M982.1,-350.43C1032.55,-340.72 1121.49,-315.59 1165,-255 1176.84,-238.51 1177.75,-214.64 1176.57,-198.07"/>
<polygon fill="midnightblue" stroke="midnightblue" points="1180.03,-197.53 1175.52,-187.94 1173.07,-198.25 1180.03,-197.53"/>
</g>
<!-- Node16 -->
<g id="node16" class="node">
<title>Node16</title>
<g id="a_node16"><a xlink:href="sitkDetail_8h.html" target="_top" xlink:title=" ">
<polygon fill="white" stroke="black" points="359.5,-291.5 359.5,-310.5 432.5,-310.5 432.5,-291.5 359.5,-291.5"/>
<text text-anchor="middle" x="396" y="-298.5" font-family="Helvetica,sans-Serif" font-size="10.00">sitkDetail.h</text>
</a>
</g>
</g>
<!-- Node2&#45;&gt;Node16 -->
<g id="edge19" class="edge">
<title>Node2&#45;&gt;Node16</title>
<path fill="none" stroke="midnightblue" d="M907.7,-352.33C810.54,-342.77 549.79,-317.13 442.8,-306.6"/>
<polygon fill="midnightblue" stroke="midnightblue" points="442.93,-303.1 432.63,-305.6 442.24,-310.07 442.93,-303.1"/>
</g>
<!-- Node27 -->
<g id="node27" class="node">
<title>Node27</title>
<g id="a_node27"><a xlink:href="sitkPixelIDTokens_8h.html" target="_top" xlink:title=" ">
<polygon fill="white" stroke="black" points="763,-291.5 763,-310.5 873,-310.5 873,-291.5 763,-291.5"/>
<text text-anchor="middle" x="818" y="-298.5" font-family="Helvetica,sans-Serif" font-size="10.00">sitkPixelIDTokens.h</text>
</a>
</g>
</g>
<!-- Node2&#45;&gt;Node27 -->
<g id="edge38" class="edge">
<title>Node2&#45;&gt;Node27</title>
<path fill="none" stroke="midnightblue" d="M924.88,-347.44C903.98,-338.56 871.07,-324.56 847.28,-314.45"/>
<polygon fill="midnightblue" stroke="midnightblue" points="848.6,-311.21 838.03,-310.52 845.86,-317.65 848.6,-311.21"/>
</g>
<!-- Node30 -->
<g id="node30" class="node">
<title>Node30</title>
<g id="a_node30"><a xlink:title=" ">
<polygon fill="white" stroke="#bfbfbf" points="879.5,-230 879.5,-249 948.5,-249 948.5,-230 879.5,-230"/>
<text text-anchor="middle" x="914" y="-237" font-family="Helvetica,sans-Serif" font-size="10.00">type_traits</text>
</a>
</g>
</g>
<!-- Node2&#45;&gt;Node30 -->
<g id="edge51" class="edge">
<title>Node2&#45;&gt;Node30</title>
<path fill="none" stroke="midnightblue" d="M942.67,-347.32C937.67,-328.67 925.79,-284.44 919,-259.13"/>
<polygon fill="midnightblue" stroke="midnightblue" points="922.33,-258.03 916.36,-249.28 915.57,-259.85 922.33,-258.03"/>
</g>
<!-- Node31 -->
<g id="node31" class="node">
<title>Node31</title>
<g id="a_node31"><a xlink:href="sitkInterpolator_8h.html" target="_top" xlink:title=" ">
<polygon fill="white" stroke="black" points="967,-230 967,-249 1067,-249 1067,-230 967,-230"/>
<text text-anchor="middle" x="1017" y="-237" font-family="Helvetica,sans-Serif" font-size="10.00">sitkInterpolator.h</text>
</a>
</g>
</g>
<!-- Node2&#45;&gt;Node31 -->
<g id="edge46" class="edge">
<title>Node2&#45;&gt;Node31</title>
<path fill="none" stroke="midnightblue" d="M947.44,-347.12C951.25,-334.14 959.39,-309.54 971,-291 978.97,-278.28 990.3,-265.79 999.72,-256.42"/>
<polygon fill="midnightblue" stroke="midnightblue" points="1002.3,-258.8 1007.07,-249.34 997.44,-253.76 1002.3,-258.8"/>
</g>
<!-- Node32 -->
<g id="node32" class="node">
<title>Node32</title>
<g id="a_node32"><a xlink:title=" ">
<polygon fill="white" stroke="#bfbfbf" points="980,-291.5 980,-310.5 1038,-310.5 1038,-291.5 980,-291.5"/>
<text text-anchor="middle" x="1009" y="-298.5" font-family="Helvetica,sans-Serif" font-size="10.00">memory</text>
</a>
</g>
</g>
<!-- Node2&#45;&gt;Node32 -->
<g id="edge50" class="edge">
<title>Node2&#45;&gt;Node32</title>
<path fill="none" stroke="midnightblue" d="M955.28,-347.32C964.84,-339.26 979.28,-327.08 990.78,-317.37"/>
<polygon fill="midnightblue" stroke="midnightblue" points="993.14,-319.96 998.53,-310.83 988.63,-314.61 993.14,-319.96"/>
</g>
<!-- Node4 -->
<g id="node4" class="node">
<title>Node4</title>
<g id="a_node4"><a xlink:href="sitkMacro_8h.html" target="_top" xlink:title=" ">
<polygon fill="white" stroke="black" points="1028,-56.5 1028,-75.5 1102,-75.5 1102,-56.5 1028,-56.5"/>
<text text-anchor="middle" x="1065" y="-63.5" font-family="Helvetica,sans-Serif" font-size="10.00">sitkMacro.h</text>
</a>
</g>
</g>
<!-- Node3&#45;&gt;Node4 -->
<g id="edge3" class="edge">
<title>Node3&#45;&gt;Node4</title>
<path fill="none" stroke="midnightblue" d="M1065,-112.08C1065,-105.01 1065,-94.86 1065,-85.99"/>
<polygon fill="midnightblue" stroke="midnightblue" points="1068.5,-85.75 1065,-75.75 1061.5,-85.75 1068.5,-85.75"/>
</g>
<!-- Node5 -->
<g id="node5" class="node">
<title>Node5</title>
<g id="a_node5"><a xlink:title=" ">
<polygon fill="white" stroke="#bfbfbf" points="658.5,-0.5 658.5,-19.5 711.5,-19.5 711.5,-0.5 658.5,-0.5"/>
<text text-anchor="middle" x="685" y="-7.5" font-family="Helvetica,sans-Serif" font-size="10.00">stdint.h</text>
</a>
</g>
</g>
<!-- Node4&#45;&gt;Node5 -->
<g id="edge4" class="edge">
<title>Node4&#45;&gt;Node5</title>
<path fill="none" stroke="midnightblue" d="M1027.87,-59.72C955.07,-49.38 794.36,-26.54 721.82,-16.23"/>
<polygon fill="midnightblue" stroke="midnightblue" points="722.16,-12.75 711.77,-14.8 721.18,-19.68 722.16,-12.75"/>
</g>
<!-- Node6 -->
<g id="node6" class="node">
<title>Node6</title>
<g id="a_node6"><a xlink:title=" ">
<polygon fill="white" stroke="#bfbfbf" points="1071,-0.5 1071,-19.5 1127,-19.5 1127,-0.5 1071,-0.5"/>
<text text-anchor="middle" x="1099" y="-7.5" font-family="Helvetica,sans-Serif" font-size="10.00">stddef.h</text>
</a>
</g>
</g>
<!-- Node4&#45;&gt;Node6 -->
<g id="edge5" class="edge">
<title>Node4&#45;&gt;Node6</title>
<path fill="none" stroke="midnightblue" d="M1070.61,-56.08C1075.37,-48.53 1082.32,-37.49 1088.15,-28.23"/>
<polygon fill="midnightblue" stroke="midnightblue" points="1091.12,-30.08 1093.49,-19.75 1085.2,-26.35 1091.12,-30.08"/>
</g>
<!-- Node7 -->
<g id="node7" class="node">
<title>Node7</title>
<g id="a_node7"><a xlink:title=" ">
<polygon fill="white" stroke="#bfbfbf" points="1145,-0.5 1145,-19.5 1197,-19.5 1197,-0.5 1145,-0.5"/>
<text text-anchor="middle" x="1171" y="-7.5" font-family="Helvetica,sans-Serif" font-size="10.00">cassert</text>
</a>
</g>
</g>
<!-- Node4&#45;&gt;Node7 -->
<g id="edge6" class="edge">
<title>Node4&#45;&gt;Node7</title>
<path fill="none" stroke="midnightblue" d="M1082.03,-56.32C1099.03,-47.66 1125.38,-34.24 1144.99,-24.25"/>
<polygon fill="midnightblue" stroke="midnightblue" points="1146.69,-27.31 1154.01,-19.65 1143.51,-21.08 1146.69,-27.31"/>
</g>
<!-- Node8 -->
<g id="node8" class="node">
<title>Node8</title>
<g id="a_node8"><a xlink:title=" ">
<polygon fill="white" stroke="#bfbfbf" points="935,-0.5 935,-19.5 991,-19.5 991,-0.5 935,-0.5"/>
<text text-anchor="middle" x="963" y="-7.5" font-family="Helvetica,sans-Serif" font-size="10.00">sstream</text>
</a>
</g>
</g>
<!-- Node4&#45;&gt;Node8 -->
<g id="edge7" class="edge">
<title>Node4&#45;&gt;Node8</title>
<path fill="none" stroke="midnightblue" d="M1048.61,-56.32C1032.33,-47.7 1007.13,-34.36 988.28,-24.39"/>
<polygon fill="midnightblue" stroke="midnightblue" points="989.82,-21.24 979.35,-19.65 986.55,-27.43 989.82,-21.24"/>
</g>
<!-- Node9 -->
<g id="node9" class="node">
<title>Node9</title>
<g id="a_node9"><a xlink:title=" ">
<polygon fill="white" stroke="#bfbfbf" points="1009,-0.5 1009,-19.5 1053,-19.5 1053,-0.5 1009,-0.5"/>
<text text-anchor="middle" x="1031" y="-7.5" font-family="Helvetica,sans-Serif" font-size="10.00">limits</text>
</a>
</g>
</g>
<!-- Node4&#45;&gt;Node9 -->
<g id="edge8" class="edge">
<title>Node4&#45;&gt;Node9</title>
<path fill="none" stroke="midnightblue" d="M1059.39,-56.08C1054.63,-48.53 1047.68,-37.49 1041.85,-28.23"/>
<polygon fill="midnightblue" stroke="midnightblue" points="1044.8,-26.35 1036.51,-19.75 1038.88,-30.08 1044.8,-26.35"/>
</g>
<!-- Node10 -->
<g id="node10" class="node">
<title>Node10</title>
<g id="a_node10"><a xlink:href="sitkConfigure_8h.html" target="_top" xlink:title=" ">
<polygon fill="white" stroke="black" points="399,-0.5 399,-19.5 489,-19.5 489,-0.5 399,-0.5"/>
<text text-anchor="middle" x="444" y="-7.5" font-family="Helvetica,sans-Serif" font-size="10.00">sitkConfigure.h</text>
</a>
</g>
</g>
<!-- Node4&#45;&gt;Node10 -->
<g id="edge9" class="edge">
<title>Node4&#45;&gt;Node10</title>
<path fill="none" stroke="midnightblue" d="M1027.55,-61.74C922.34,-52.59 623.67,-26.62 499.36,-15.81"/>
<polygon fill="midnightblue" stroke="midnightblue" points="499.56,-12.32 489.29,-14.94 498.95,-19.29 499.56,-12.32"/>
</g>
<!-- Node11&#45;&gt;Node3 -->
<g id="edge12" class="edge">
<title>Node11&#45;&gt;Node3</title>
<path fill="none" stroke="midnightblue" d="M1274.07,-229.83C1261.83,-215.07 1234.96,-185.03 1206,-168 1178.98,-152.1 1145.68,-141.14 1118.23,-134.01"/>
<polygon fill="midnightblue" stroke="midnightblue" points="1118.96,-130.59 1108.41,-131.56 1117.26,-137.38 1118.96,-130.59"/>
</g>
<!-- Node11&#45;&gt;Node4 -->
<g id="edge11" class="edge">
<title>Node11&#45;&gt;Node4</title>
<path fill="none" stroke="midnightblue" d="M1348.79,-237.83C1426.44,-234.61 1537.9,-221 1496,-168 1448.54,-107.96 1214.07,-80.21 1112.29,-70.85"/>
<polygon fill="midnightblue" stroke="midnightblue" points="1112.56,-67.36 1102.28,-69.95 1111.93,-74.33 1112.56,-67.36"/>
</g>
<!-- Node12 -->
<g id="node12" class="node">
<title>Node12</title>
<g id="a_node12"><a xlink:href="sitkExceptionObject_8h.html" target="_top" xlink:title=" ">
<polygon fill="white" stroke="black" points="1364.5,-168.5 1364.5,-187.5 1487.5,-187.5 1487.5,-168.5 1364.5,-168.5"/>
<text text-anchor="middle" x="1426" y="-175.5" font-family="Helvetica,sans-Serif" font-size="10.00">sitkExceptionObject.h</text>
</a>
</g>
</g>
<!-- Node11&#45;&gt;Node12 -->
<g id="edge13" class="edge">
<title>Node11&#45;&gt;Node12</title>
<path fill="none" stroke="midnightblue" d="M1301.77,-229.98C1326.43,-219.86 1367.75,-202.9 1395.9,-191.35"/>
<polygon fill="midnightblue" stroke="midnightblue" points="1397.34,-194.54 1405.26,-187.51 1394.68,-188.07 1397.34,-194.54"/>
</g>
<!-- Node11&#45;&gt;Node13 -->
<g id="edge16" class="edge">
<title>Node11&#45;&gt;Node13</title>
<path fill="none" stroke="midnightblue" d="M1265.67,-229.98C1248.03,-220.17 1218.84,-203.93 1198.14,-192.42"/>
<polygon fill="midnightblue" stroke="midnightblue" points="1199.74,-189.31 1189.3,-187.51 1196.34,-195.43 1199.74,-189.31"/>
</g>
<!-- Node14 -->
<g id="node14" class="node">
<title>Node14</title>
<g id="a_node14"><a xlink:title=" ">
<polygon fill="white" stroke="#bfbfbf" points="1036.5,-168.5 1036.5,-187.5 1093.5,-187.5 1093.5,-168.5 1036.5,-168.5"/>
<text text-anchor="middle" x="1065" y="-175.5" font-family="Helvetica,sans-Serif" font-size="10.00">ostream</text>
</a>
</g>
</g>
<!-- Node11&#45;&gt;Node14 -->
<g id="edge17" class="edge">
<title>Node11&#45;&gt;Node14</title>
<path fill="none" stroke="midnightblue" d="M1250.05,-229.98C1211.47,-219.35 1145.52,-201.18 1103.65,-189.65"/>
<polygon fill="midnightblue" stroke="midnightblue" points="1104.39,-186.22 1093.82,-186.94 1102.53,-192.97 1104.39,-186.22"/>
</g>
<!-- Node15 -->
<g id="node15" class="node">
<title>Node15</title>
<g id="a_node15"><a xlink:title=" ">
<polygon fill="white" stroke="#bfbfbf" points="1254.5,-168.5 1254.5,-187.5 1307.5,-187.5 1307.5,-168.5 1254.5,-168.5"/>
<text text-anchor="middle" x="1281" y="-175.5" font-family="Helvetica,sans-Serif" font-size="10.00">iterator</text>
</a>
</g>
</g>
<!-- Node11&#45;&gt;Node15 -->
<g id="edge18" class="edge">
<title>Node11&#45;&gt;Node15</title>
<path fill="none" stroke="midnightblue" d="M1281,-229.98C1281,-221.58 1281,-208.48 1281,-197.66"/>
<polygon fill="midnightblue" stroke="midnightblue" points="1284.5,-197.51 1281,-187.51 1277.5,-197.51 1284.5,-197.51"/>
</g>
<!-- Node12&#45;&gt;Node3 -->
<g id="edge15" class="edge">
<title>Node12&#45;&gt;Node3</title>
<path fill="none" stroke="midnightblue" d="M1368.8,-168.44C1300.25,-158.19 1186.25,-141.14 1119.1,-131.09"/>
<polygon fill="midnightblue" stroke="midnightblue" points="1119.55,-127.62 1109.15,-129.6 1118.52,-134.54 1119.55,-127.62"/>
</g>
<!-- Node12&#45;&gt;Node4 -->
<g id="edge14" class="edge">
<title>Node12&#45;&gt;Node4</title>
<path fill="none" stroke="midnightblue" d="M1397.97,-168.46C1333.74,-148.89 1175.81,-100.77 1102.96,-78.57"/>
<polygon fill="midnightblue" stroke="midnightblue" points="1103.84,-75.18 1093.26,-75.61 1101.8,-81.87 1103.84,-75.18"/>
</g>
<!-- Node17 -->
<g id="node17" class="node">
<title>Node17</title>
<g id="a_node17"><a xlink:href="sitkMemberFunctionFactoryBase_8h.html" target="_top" xlink:title=" ">
<polygon fill="white" stroke="black" points="320,-224.5 320,-254.5 472,-254.5 472,-224.5 320,-224.5"/>
<text text-anchor="start" x="328" y="-242.5" font-family="Helvetica,sans-Serif" font-size="10.00">sitkMemberFunctionFactory</text>
<text text-anchor="middle" x="396" y="-231.5" font-family="Helvetica,sans-Serif" font-size="10.00">Base.h</text>
</a>
</g>
</g>
<!-- Node16&#45;&gt;Node17 -->
<g id="edge20" class="edge">
<title>Node16&#45;&gt;Node17</title>
<path fill="none" stroke="midnightblue" d="M396,-291.48C396,-284.47 396,-274.19 396,-264.7"/>
<polygon fill="midnightblue" stroke="midnightblue" points="399.5,-264.52 396,-254.52 392.5,-264.52 399.5,-264.52"/>
</g>
<!-- Node23 -->
<g id="node23" class="node">
<title>Node23</title>
<g id="a_node23"><a xlink:title=" ">
<polygon fill="white" stroke="#bfbfbf" points="28.5,-168.5 28.5,-187.5 167.5,-187.5 167.5,-168.5 28.5,-168.5"/>
<text text-anchor="middle" x="98" y="-175.5" font-family="Helvetica,sans-Serif" font-size="10.00">Ancillary/FunctionTraits.h</text>
</a>
</g>
</g>
<!-- Node16&#45;&gt;Node23 -->
<g id="edge37" class="edge">
<title>Node16&#45;&gt;Node23</title>
<path fill="none" stroke="midnightblue" d="M375.05,-291.49C323.34,-270.5 189.49,-216.15 128.77,-191.49"/>
<polygon fill="midnightblue" stroke="midnightblue" points="129.91,-188.18 119.33,-187.66 127.28,-194.67 129.91,-188.18"/>
</g>
<!-- Node17&#45;&gt;Node4 -->
<g id="edge29" class="edge">
<title>Node17&#45;&gt;Node4</title>
<path fill="none" stroke="midnightblue" d="M472.15,-231.73C531.38,-224.92 614.98,-211.88 685,-188 703.06,-181.84 705.32,-175.18 723,-168 825.43,-126.39 951.38,-93.69 1018.19,-77.71"/>
<polygon fill="midnightblue" stroke="midnightblue" points="1019.08,-81.1 1028,-75.38 1017.46,-74.28 1019.08,-81.1"/>
</g>
<!-- Node17&#45;&gt;Node10 -->
<g id="edge21" class="edge">
<title>Node17&#45;&gt;Node10</title>
<path fill="none" stroke="midnightblue" d="M342.81,-224.48C279.97,-205.11 188.11,-166.31 223,-112 259.31,-55.48 335.96,-30.2 388.71,-19.16"/>
<polygon fill="midnightblue" stroke="midnightblue" points="389.47,-22.58 398.59,-17.2 388.1,-15.71 389.47,-22.58"/>
</g>
<!-- Node18 -->
<g id="node18" class="node">
<title>Node18</title>
<g id="a_node18"><a xlink:href="sitkPixelIDTypes_8h.html" target="_top" xlink:title=" ">
<polygon fill="white" stroke="black" points="232.5,-112.5 232.5,-131.5 337.5,-131.5 337.5,-112.5 232.5,-112.5"/>
<text text-anchor="middle" x="285" y="-119.5" font-family="Helvetica,sans-Serif" font-size="10.00">sitkPixelIDTypes.h</text>
</a>
</g>
</g>
<!-- Node17&#45;&gt;Node18 -->
<g id="edge22" class="edge">
<title>Node17&#45;&gt;Node18</title>
<path fill="none" stroke="midnightblue" d="M331.35,-224.39C312.2,-216.87 293.33,-205.42 282,-188 273.15,-174.4 275.17,-155.61 278.66,-141.72"/>
<polygon fill="midnightblue" stroke="midnightblue" points="282.1,-142.42 281.58,-131.83 275.39,-140.43 282.1,-142.42"/>
</g>
<!-- Node19 -->
<g id="node19" class="node">
<title>Node19</title>
<g id="a_node19"><a xlink:href="sitkPixelIDTypeLists_8h.html" target="_top" xlink:title=" ">
<polygon fill="white" stroke="black" points="554,-168.5 554,-187.5 676,-187.5 676,-168.5 554,-168.5"/>
<text text-anchor="middle" x="615" y="-175.5" font-family="Helvetica,sans-Serif" font-size="10.00">sitkPixelIDTypeLists.h</text>
</a>
</g>
</g>
<!-- Node17&#45;&gt;Node19 -->
<g id="edge23" class="edge">
<title>Node17&#45;&gt;Node19</title>
<path fill="none" stroke="midnightblue" d="M447.62,-224.47C486.06,-214.03 537.86,-199.96 573.6,-190.25"/>
<polygon fill="midnightblue" stroke="midnightblue" points="574.96,-193.51 583.69,-187.51 573.12,-186.75 574.96,-193.51"/>
</g>
<!-- Node20 -->
<g id="node20" class="node">
<title>Node20</title>
<g id="a_node20"><a xlink:title=" ">
<polygon fill="white" stroke="#bfbfbf" points="386.5,-112.5 386.5,-131.5 497.5,-131.5 497.5,-112.5 386.5,-112.5"/>
<text text-anchor="middle" x="442" y="-119.5" font-family="Helvetica,sans-Serif" font-size="10.00">Ancillary/TypeList.h</text>
</a>
</g>
</g>
<!-- Node17&#45;&gt;Node20 -->
<g id="edge32" class="edge">
<title>Node17&#45;&gt;Node20</title>
<path fill="none" stroke="midnightblue" d="M342.44,-224.38C307.69,-212.49 272.1,-193.35 291,-168 310.69,-141.58 345.29,-130.06 376.4,-125.27"/>
<polygon fill="midnightblue" stroke="midnightblue" points="376.91,-128.73 386.36,-123.94 375.98,-121.79 376.91,-128.73"/>
</g>
<!-- Node22 -->
<g id="node22" class="node">
<title>Node22</title>
<g id="a_node22"><a xlink:href="sitkNonCopyable_8h.html" target="_top" xlink:title=" ">
<polygon fill="white" stroke="black" points="732.5,-168.5 732.5,-187.5 841.5,-187.5 841.5,-168.5 732.5,-168.5"/>
<text text-anchor="middle" x="787" y="-175.5" font-family="Helvetica,sans-Serif" font-size="10.00">sitkNonCopyable.h</text>
</a>
</g>
</g>
<!-- Node17&#45;&gt;Node22 -->
<g id="edge30" class="edge">
<title>Node17&#45;&gt;Node22</title>
<path fill="none" stroke="midnightblue" d="M472.32,-226.89C545.04,-215.82 653.33,-199.34 722.03,-188.89"/>
<polygon fill="midnightblue" stroke="midnightblue" points="722.93,-192.29 732.29,-187.33 721.87,-185.37 722.93,-192.29"/>
</g>
<!-- Node17&#45;&gt;Node23 -->
<g id="edge33" class="edge">
<title>Node17&#45;&gt;Node23</title>
<path fill="none" stroke="midnightblue" d="M325.76,-224.47C272.1,-213.76 199.32,-199.23 150.62,-189.51"/>
<polygon fill="midnightblue" stroke="midnightblue" points="151.1,-186.03 140.6,-187.51 149.72,-192.9 151.1,-186.03"/>
</g>
<!-- Node24 -->
<g id="node24" class="node">
<title>Node24</title>
<g id="a_node24"><a xlink:title=" ">
<polygon fill="white" stroke="#bfbfbf" points="300.5,-168.5 300.5,-187.5 393.5,-187.5 393.5,-168.5 300.5,-168.5"/>
<text text-anchor="middle" x="347" y="-175.5" font-family="Helvetica,sans-Serif" font-size="10.00">unordered_map</text>
</a>
</g>
</g>
<!-- Node17&#45;&gt;Node24 -->
<g id="edge34" class="edge">
<title>Node17&#45;&gt;Node24</title>
<path fill="none" stroke="midnightblue" d="M384.39,-224.4C377.27,-215.75 368.12,-204.64 360.65,-195.58"/>
<polygon fill="midnightblue" stroke="midnightblue" points="363.19,-193.15 354.13,-187.66 357.79,-197.6 363.19,-193.15"/>
</g>
<!-- Node25 -->
<g id="node25" class="node">
<title>Node25</title>
<g id="a_node25"><a xlink:title=" ">
<polygon fill="white" stroke="#bfbfbf" points="411.5,-168.5 411.5,-187.5 476.5,-187.5 476.5,-168.5 411.5,-168.5"/>
<text text-anchor="middle" x="444" y="-175.5" font-family="Helvetica,sans-Serif" font-size="10.00">functional</text>
</a>
</g>
</g>
<!-- Node17&#45;&gt;Node25 -->
<g id="edge35" class="edge">
<title>Node17&#45;&gt;Node25</title>
<path fill="none" stroke="midnightblue" d="M407.38,-224.4C414.35,-215.75 423.31,-204.64 430.63,-195.58"/>
<polygon fill="midnightblue" stroke="midnightblue" points="433.46,-197.64 437.02,-187.66 428.01,-193.24 433.46,-197.64"/>
</g>
<!-- Node26 -->
<g id="node26" class="node">
<title>Node26</title>
<g id="a_node26"><a xlink:title=" ">
<polygon fill="white" stroke="#bfbfbf" points="494.5,-168.5 494.5,-187.5 535.5,-187.5 535.5,-168.5 494.5,-168.5"/>
<text text-anchor="middle" x="515" y="-175.5" font-family="Helvetica,sans-Serif" font-size="10.00">tuple</text>
</a>
</g>
</g>
<!-- Node17&#45;&gt;Node26 -->
<g id="edge36" class="edge">
<title>Node17&#45;&gt;Node26</title>
<path fill="none" stroke="midnightblue" d="M424.2,-224.4C443.72,-214.64 469.53,-201.74 488.63,-192.18"/>
<polygon fill="midnightblue" stroke="midnightblue" points="490.31,-195.26 497.68,-187.66 487.17,-189 490.31,-195.26"/>
</g>
<!-- Node19&#45;&gt;Node5 -->
<g id="edge24" class="edge">
<title>Node19&#45;&gt;Node5</title>
<path fill="none" stroke="midnightblue" d="M611.56,-168.34C607.03,-155.64 600.39,-131.37 607,-112 618.89,-77.14 648.24,-44.96 667.35,-26.68"/>
<polygon fill="midnightblue" stroke="midnightblue" points="669.88,-29.1 674.83,-19.73 665.12,-23.97 669.88,-29.1"/>
</g>
<!-- Node19&#45;&gt;Node10 -->
<g id="edge25" class="edge">
<title>Node19&#45;&gt;Node10</title>
<path fill="none" stroke="midnightblue" d="M605.81,-168.08C578.19,-141.27 495.7,-61.19 460.36,-26.89"/>
<polygon fill="midnightblue" stroke="midnightblue" points="462.44,-24.02 452.83,-19.57 457.56,-29.04 462.44,-24.02"/>
</g>
<!-- Node19&#45;&gt;Node18 -->
<g id="edge26" class="edge">
<title>Node19&#45;&gt;Node18</title>
<path fill="none" stroke="midnightblue" d="M562.71,-168.44C504.18,-158.87 409.4,-143.36 347.13,-133.17"/>
<polygon fill="midnightblue" stroke="midnightblue" points="347.48,-129.68 337.04,-131.52 346.35,-136.59 347.48,-129.68"/>
</g>
<!-- Node19&#45;&gt;Node20 -->
<g id="edge27" class="edge">
<title>Node19&#45;&gt;Node20</title>
<path fill="none" stroke="midnightblue" d="M587.59,-168.44C558.23,-159.28 511.48,-144.69 478.9,-134.52"/>
<polygon fill="midnightblue" stroke="midnightblue" points="479.87,-131.16 469.28,-131.52 477.79,-137.84 479.87,-131.16"/>
</g>
<!-- Node21 -->
<g id="node21" class="node">
<title>Node21</title>
<g id="a_node21"><a xlink:title=" ">
<polygon fill="white" stroke="#bfbfbf" points="616.5,-112.5 616.5,-131.5 675.5,-131.5 675.5,-112.5 616.5,-112.5"/>
<text text-anchor="middle" x="646" y="-119.5" font-family="Helvetica,sans-Serif" font-size="10.00">complex</text>
</a>
</g>
</g>
<!-- Node19&#45;&gt;Node21 -->
<g id="edge28" class="edge">
<title>Node19&#45;&gt;Node21</title>
<path fill="none" stroke="midnightblue" d="M620.12,-168.08C624.41,-160.61 630.66,-149.72 635.94,-140.52"/>
<polygon fill="midnightblue" stroke="midnightblue" points="639.03,-142.17 640.98,-131.75 632.96,-138.68 639.03,-142.17"/>
</g>
<!-- Node22&#45;&gt;Node3 -->
<g id="edge31" class="edge">
<title>Node22&#45;&gt;Node3</title>
<path fill="none" stroke="midnightblue" d="M831.05,-168.44C879.85,-158.96 958.56,-143.67 1011.03,-133.48"/>
<polygon fill="midnightblue" stroke="midnightblue" points="1012.01,-136.86 1021.16,-131.52 1010.67,-129.99 1012.01,-136.86"/>
</g>
<!-- Node27&#45;&gt;Node10 -->
<g id="edge39" class="edge">
<title>Node27&#45;&gt;Node10</title>
<path fill="none" stroke="midnightblue" d="M762.74,-297.67C578.98,-289.18 0,-256.3 0,-179 0,-179 0,-179 0,-121 0,-41.71 270.13,-19.19 388.99,-13.12"/>
<polygon fill="midnightblue" stroke="midnightblue" points="389.17,-16.61 398.98,-12.63 388.82,-9.62 389.17,-16.61"/>
</g>
<!-- Node28 -->
<g id="node28" class="node">
<title>Node28</title>
<g id="a_node28"><a xlink:href="sitkPixelIDValues_8h.html" target="_top" xlink:title=" ">
<polygon fill="white" stroke="black" points="751,-230 751,-249 861,-249 861,-230 751,-230"/>
<text text-anchor="middle" x="806" y="-237" font-family="Helvetica,sans-Serif" font-size="10.00">sitkPixelIDValues.h</text>
</a>
</g>
</g>
<!-- Node27&#45;&gt;Node28 -->
<g id="edge40" class="edge">
<title>Node27&#45;&gt;Node28</title>
<path fill="none" stroke="midnightblue" d="M816.28,-291.48C814.57,-282.99 811.89,-269.7 809.7,-258.82"/>
<polygon fill="midnightblue" stroke="midnightblue" points="813.12,-258.12 807.72,-249.01 806.26,-259.5 813.12,-258.12"/>
</g>
<!-- Node27&#45;&gt;Node30 -->
<g id="edge45" class="edge">
<title>Node27&#45;&gt;Node30</title>
<path fill="none" stroke="midnightblue" d="M831.75,-291.48C847.37,-281.8 873.06,-265.87 891.58,-254.39"/>
<polygon fill="midnightblue" stroke="midnightblue" points="893.62,-257.25 900.27,-249.01 889.93,-251.3 893.62,-257.25"/>
</g>
<!-- Node28&#45;&gt;Node3 -->
<g id="edge41" class="edge">
<title>Node28&#45;&gt;Node3</title>
<path fill="none" stroke="midnightblue" d="M835.5,-229.97C865.24,-220.96 912.17,-205.65 951,-188 984.36,-172.84 1020.8,-151.07 1043.28,-136.98"/>
<polygon fill="midnightblue" stroke="midnightblue" points="1045.16,-139.94 1051.74,-131.63 1041.41,-134.02 1045.16,-139.94"/>
</g>
<!-- Node28&#45;&gt;Node14 -->
<g id="edge44" class="edge">
<title>Node28&#45;&gt;Node14</title>
<path fill="none" stroke="midnightblue" d="M843.11,-229.98C891.82,-218.79 976.91,-199.24 1026.37,-187.88"/>
<polygon fill="midnightblue" stroke="midnightblue" points="1027.39,-191.23 1036.35,-185.58 1025.82,-184.41 1027.39,-191.23"/>
</g>
<!-- Node28&#45;&gt;Node19 -->
<g id="edge42" class="edge">
<title>Node28&#45;&gt;Node19</title>
<path fill="none" stroke="midnightblue" d="M778.63,-229.98C745.45,-219.64 689.35,-202.16 652.24,-190.6"/>
<polygon fill="midnightblue" stroke="midnightblue" points="652.9,-187.14 642.31,-187.51 650.82,-193.82 652.9,-187.14"/>
</g>
<!-- Node29 -->
<g id="node29" class="node">
<title>Node29</title>
<g id="a_node29"><a xlink:title=" ">
<polygon fill="white" stroke="#bfbfbf" points="898,-168.5 898,-187.5 942,-187.5 942,-168.5 898,-168.5"/>
<text text-anchor="middle" x="920" y="-175.5" font-family="Helvetica,sans-Serif" font-size="10.00">string</text>
</a>
</g>
</g>
<!-- Node28&#45;&gt;Node29 -->
<g id="edge43" class="edge">
<title>Node28&#45;&gt;Node29</title>
<path fill="none" stroke="midnightblue" d="M822.33,-229.98C841.21,-220.12 872.51,-203.79 894.58,-192.27"/>
<polygon fill="midnightblue" stroke="midnightblue" points="896.45,-195.24 903.7,-187.51 893.21,-189.03 896.45,-195.24"/>
</g>
<!-- Node31&#45;&gt;Node3 -->
<g id="edge47" class="edge">
<title>Node31&#45;&gt;Node3</title>
<path fill="none" stroke="midnightblue" d="M1016.72,-229.83C1016.6,-216.1 1017.7,-188.76 1027,-168 1031.89,-157.08 1040.25,-146.74 1047.88,-138.74"/>
<polygon fill="midnightblue" stroke="midnightblue" points="1050.48,-141.09 1055.12,-131.57 1045.55,-136.12 1050.48,-141.09"/>
</g>
<!-- Node31&#45;&gt;Node14 -->
<g id="edge48" class="edge">
<title>Node31&#45;&gt;Node14</title>
<path fill="none" stroke="midnightblue" d="M1023.88,-229.98C1031.15,-220.96 1042.8,-206.52 1051.84,-195.31"/>
<polygon fill="midnightblue" stroke="midnightblue" points="1054.58,-197.49 1058.14,-187.51 1049.13,-193.09 1054.58,-197.49"/>
</g>
<!-- Node33&#45;&gt;Node4 -->
<g id="edge53" class="edge">
<title>Node33&#45;&gt;Node4</title>
<path fill="none" stroke="midnightblue" d="M1523.58,-347.29C1533.06,-328.39 1554,-281.99 1554,-240.5 1554,-240.5 1554,-240.5 1554,-177 1554,-87.06 1235.13,-70.65 1112.38,-67.66"/>
<polygon fill="midnightblue" stroke="midnightblue" points="1112.23,-64.16 1102.16,-67.43 1112.08,-71.15 1112.23,-64.16"/>
</g>
<!-- Node34&#45;&gt;Node2 -->
<g id="edge61" class="edge">
<title>Node34&#45;&gt;Node2</title>
<path fill="none" stroke="midnightblue" d="M1087.3,-460.08C1041.4,-452.57 981.59,-439.91 964,-423 951.56,-411.04 947.14,-391.43 945.63,-376.87"/>
<polygon fill="midnightblue" stroke="midnightblue" points="949.1,-376.27 944.95,-366.52 942.11,-376.73 949.1,-376.27"/>
</g>
<!-- Node34&#45;&gt;Node3 -->
<g id="edge55" class="edge">
<title>Node34&#45;&gt;Node3</title>
<path fill="none" stroke="midnightblue" d="M1200.7,-465.3C1269.67,-458.61 1377,-435.72 1377,-358 1377,-358 1377,-358 1377,-300 1377,-235.37 1370.82,-202.23 1316,-168 1283.94,-147.98 1182.99,-134.65 1119.3,-127.99"/>
<polygon fill="midnightblue" stroke="midnightblue" points="1119.34,-124.47 1109.03,-126.94 1118.63,-131.44 1119.34,-124.47"/>
</g>
<!-- Node34&#45;&gt;Node11 -->
<g id="edge57" class="edge">
<title>Node34&#45;&gt;Node11</title>
<path fill="none" stroke="midnightblue" d="M1200.72,-459.53C1223.24,-453.22 1247.24,-442.21 1262,-423 1299.48,-374.22 1291.23,-295.19 1284.91,-259.3"/>
<polygon fill="midnightblue" stroke="midnightblue" points="1288.3,-258.42 1282.99,-249.26 1281.43,-259.74 1288.3,-258.42"/>
</g>
<!-- Node34&#45;&gt;Node22 -->
<g id="edge56" class="edge">
<title>Node34&#45;&gt;Node22</title>
<path fill="none" stroke="midnightblue" d="M1087.26,-466.26C964.45,-460.94 685,-439.84 685,-358 685,-358 685,-358 685,-300 685,-251.94 732.61,-213.07 762.78,-193.27"/>
<polygon fill="midnightblue" stroke="midnightblue" points="764.93,-196.05 771.51,-187.74 761.19,-190.13 764.93,-196.05"/>
</g>
<!-- Node35 -->
<g id="node35" class="node">
<title>Node35</title>
<g id="a_node35"><a xlink:href="sitkEvent_8h.html" target="_top" xlink:title=" ">
<polygon fill="white" stroke="black" points="1085.5,-230 1085.5,-249 1156.5,-249 1156.5,-230 1085.5,-230"/>
<text text-anchor="middle" x="1121" y="-237" font-family="Helvetica,sans-Serif" font-size="10.00">sitkEvent.h</text>
</a>
</g>
</g>
<!-- Node34&#45;&gt;Node35 -->
<g id="edge58" class="edge">
<title>Node34&#45;&gt;Node35</title>
<path fill="none" stroke="midnightblue" d="M1141.7,-459.44C1139.38,-450.44 1135.87,-435.83 1134,-423 1125.34,-363.67 1122.38,-292.62 1121.43,-259.39"/>
<polygon fill="midnightblue" stroke="midnightblue" points="1124.92,-259.19 1121.17,-249.29 1117.93,-259.37 1124.92,-259.19"/>
</g>
<!-- Node36 -->
<g id="node36" class="node">
<title>Node36</title>
<g id="a_node36"><a xlink:href="sitkImageConvert_8h.html" target="_top" xlink:title=" ">
<polygon fill="white" stroke="black" points="973.5,-403.5 973.5,-422.5 1086.5,-422.5 1086.5,-403.5 973.5,-403.5"/>
<text text-anchor="middle" x="1030" y="-410.5" font-family="Helvetica,sans-Serif" font-size="10.00">sitkImageConvert.h</text>
</a>
</g>
</g>
<!-- Node34&#45;&gt;Node36 -->
<g id="edge62" class="edge">
<title>Node34&#45;&gt;Node36</title>
<path fill="none" stroke="midnightblue" d="M1125.94,-459.44C1107.43,-450.68 1078.42,-436.94 1057.14,-426.86"/>
<polygon fill="midnightblue" stroke="midnightblue" points="1058.51,-423.63 1047.98,-422.52 1055.52,-429.96 1058.51,-423.63"/>
</g>
<!-- Node37 -->
<g id="node37" class="node">
<title>Node37</title>
<g id="a_node37"><a xlink:title=" ">
<polygon fill="white" stroke="#bfbfbf" points="1143,-403.5 1143,-422.5 1203,-422.5 1203,-403.5 1143,-403.5"/>
<text text-anchor="middle" x="1173" y="-410.5" font-family="Helvetica,sans-Serif" font-size="10.00">iostream</text>
</a>
</g>
</g>
<!-- Node34&#45;&gt;Node37 -->
<g id="edge64" class="edge">
<title>Node34&#45;&gt;Node37</title>
<path fill="none" stroke="midnightblue" d="M1148.79,-459.08C1152.76,-451.69 1158.53,-440.95 1163.43,-431.81"/>
<polygon fill="midnightblue" stroke="midnightblue" points="1166.65,-433.22 1168.3,-422.75 1160.49,-429.91 1166.65,-433.22"/>
</g>
<!-- Node38 -->
<g id="node38" class="node">
<title>Node38</title>
<g id="a_node38"><a xlink:title=" ">
<polygon fill="white" stroke="#bfbfbf" points="1221,-403.5 1221,-422.5 1253,-422.5 1253,-403.5 1221,-403.5"/>
<text text-anchor="middle" x="1237" y="-410.5" font-family="Helvetica,sans-Serif" font-size="10.00">list</text>
</a>
</g>
</g>
<!-- Node34&#45;&gt;Node38 -->
<g id="edge65" class="edge">
<title>Node34&#45;&gt;Node38</title>
<path fill="none" stroke="midnightblue" d="M1158.94,-459.32C1173.59,-450.82 1196.13,-437.73 1213.24,-427.8"/>
<polygon fill="midnightblue" stroke="midnightblue" points="1215.2,-430.7 1222.1,-422.65 1211.69,-424.65 1215.2,-430.7"/>
</g>
<!-- Node35&#45;&gt;Node3 -->
<g id="edge59" class="edge">
<title>Node35&#45;&gt;Node3</title>
<path fill="none" stroke="midnightblue" d="M1119.87,-229.83C1117.82,-216.08 1112.68,-188.73 1102,-168 1096.58,-157.48 1088.39,-147.18 1081.09,-139.09"/>
<polygon fill="midnightblue" stroke="midnightblue" points="1083.63,-136.68 1074.22,-131.81 1078.54,-141.49 1083.63,-136.68"/>
</g>
<!-- Node35&#45;&gt;Node14 -->
<g id="edge60" class="edge">
<title>Node35&#45;&gt;Node14</title>
<path fill="none" stroke="midnightblue" d="M1112.98,-229.98C1104.41,-220.87 1090.64,-206.24 1080.04,-194.98"/>
<polygon fill="midnightblue" stroke="midnightblue" points="1082.41,-192.39 1073.01,-187.51 1077.31,-197.19 1082.41,-192.39"/>
</g>
<!-- Node36&#45;&gt;Node2 -->
<g id="edge63" class="edge">
<title>Node36&#45;&gt;Node2</title>
<path fill="none" stroke="midnightblue" d="M1016.34,-403.32C1003.08,-394.9 982.73,-381.97 967.15,-372.07"/>
<polygon fill="midnightblue" stroke="midnightblue" points="968.94,-369.06 958.62,-366.65 965.19,-374.97 968.94,-369.06"/>
</g>
</g>
</svg>
        <g id="navigator" transform="translate(0 0)" fill="#404254">
                <rect fill="#f2f5e9" fill-opacity="0.5" stroke="#606060" stroke-width=".5" x="0" y="0" width="60" height="60"/>
                <use id="zoomplus" xlink:href="#zoomPlus" x="17" y="9" onmousedown="handleZoom(evt,'in')"/>
                <use id="zoomminus" xlink:href="#zoomMin" x="42" y="9" onmousedown="handleZoom(evt,'out')"/>
                <use id="reset" xlink:href="#resetDef" x="30" y="36" onmousedown="handleReset()"/>
                <g id="arrowUp" xlink:href="#dirArrow" transform="translate(30 24)" onmousedown="handlePan(0,-1)">
                  <use xlink:href="#rim" fill="#404040">
                        <set attributeName="fill" to="#808080" begin="arrowUp.mouseover" end="arrowUp.mouseout"/>
                  </use>
                  <path fill="none" stroke="white" stroke-width="1.5" d="M0,-3.0v7 M-2.5,-0.5L0,-3.0L2.5,-0.5"/>
                </g>
                <g id="arrowRight" xlink:href="#dirArrow" transform="rotate(90) translate(36 -43)" onmousedown="handlePan(1,0)">
                  <use xlink:href="#rim" fill="#404040">
                        <set attributeName="fill" to="#808080" begin="arrowRight.mouseover" end="arrowRight.mouseout"/>
                  </use>
                  <path fill="none" stroke="white" stroke-width="1.5" d="M0,-3.0v7 M-2.5,-0.5L0,-3.0L2.5,-0.5"/>
                </g>
                <g id="arrowDown" xlink:href="#dirArrow" transform="rotate(180) translate(-30 -48)" onmousedown="handlePan(0,1)">
                  <use xlink:href="#rim" fill="#404040">
                        <set attributeName="fill" to="#808080" begin="arrowDown.mouseover" end="arrowDown.mouseout"/>
                  </use>
                  <path fill="none" stroke="white" stroke-width="1.5" d="M0,-3.0v7 M-2.5,-0.5L0,-3.0L2.5,-0.5"/>
                </g>
                <g id="arrowLeft" xlink:href="#dirArrow" transform="rotate(270) translate(-36 17)" onmousedown="handlePan(-1,0)">
                  <use xlink:href="#rim" fill="#404040">
                        <set attributeName="fill" to="#808080" begin="arrowLeft.mouseover" end="arrowLeft.mouseout"/>
                  </use>
                  <path fill="none" stroke="white" stroke-width="1.5" d="M0,-3.0v7 M-2.5,-0.5L0,-3.0L2.5,-0.5"/>
                </g>
        </g>
        <svg viewBox="0 0 15 15" width="100%" height="30px" preserveAspectRatio="xMaxYMin meet">
         <g id="arrow_out" transform="scale(0.3 0.3)">
          <a xlink:href="sitkImageViewer_8h__incl_org.svg" target="_base">
           <rect id="button" ry="5" rx="5" y="6" x="6" height="38" width="38"
                fill="#f2f5e9" fill-opacity="0.5" stroke="#606060" stroke-width="1.0"/>
           <path id="arrow"
             d="M 11.500037,31.436501 C 11.940474,20.09759 22.043105,11.32322 32.158766,21.979434 L 37.068811,17.246167 C 37.068811,17.246167 37.088388,32 37.088388,32 L 22.160133,31.978069 C 22.160133,31.978069 26.997745,27.140456 26.997745,27.140456 C 18.528582,18.264221 13.291696,25.230495 11.500037,31.436501 z"
             style="fill:#404040;"/>
          </a>
         </g>
        </svg>
</svg>
