<?xml version="1.0" encoding="UTF-8" standalone="no"?>
<!DOCTYPE svg PUBLIC "-//W3C//DTD SVG 1.1//EN"
 "http://www.w3.org/Graphics/SVG/1.1/DTD/svg11.dtd">
<!-- Generated by graphviz version 2.43.0 (0)
 -->
<!-- Title: sitkImageFileWriter.h Pages: 1 -->
<!--zoomable 543 -->
<svg id="main" version="1.1" xmlns="http://www.w3.org/2000/svg" xmlns:xlink="http://www.w3.org/1999/xlink" xml:space="preserve" onload="init(evt)">
<style type="text/css"><![CDATA[
.edge:hover path { stroke: red; }
.edge:hover polygon { stroke: red; fill: red; }
]]></style>
<script type="text/javascript"><![CDATA[
var edges = document.getElementsByTagName('g');
if (edges && edges.length) {
  for (var i=0;i<edges.length;i++) {
    if (edges[i].id.substr(0,4)=='edge') {
      edges[i].setAttribute('class','edge');
    }
  }
}
]]></script>
        <defs>
                <circle id="rim" cx="0" cy="0" r="7"/>
                <circle id="rim2" cx="0" cy="0" r="3.5"/>
                <g id="zoomPlus">
                        <use xlink:href="#rim" fill="#404040">
                                <set attributeName="fill" to="#808080" begin="zoomplus.mouseover" end="zoomplus.mouseout"/>
                        </use>
                        <path d="M-4,0h8M0,-4v8" fill="none" stroke="white" stroke-width="1.5" pointer-events="none"/>
                </g>
                <g id="zoomMin">
                        <use xlink:href="#rim" fill="#404040">
                                <set attributeName="fill" to="#808080" begin="zoomminus.mouseover" end="zoomminus.mouseout"/>
                        </use>
                        <path d="M-4,0h8" fill="none" stroke="white" stroke-width="1.5" pointer-events="none"/>
                </g>
                <g id="dirArrow">
                        <path fill="none" stroke="white" stroke-width="1.5" d="M0,-3.0v7 M-2.5,-0.5L0,-3.0L2.5,-0.5"/>
                </g>
               <g id="resetDef">
                       <use xlink:href="#rim2" fill="#404040">
                               <set attributeName="fill" to="#808080" begin="reset.mouseover" end="reset.mouseout"/>
                       </use>
               </g>
        </defs>

<script type="text/javascript">
var viewWidth = 1678;
var viewHeight = 543;
var sectionId = 'dynsection-0';
</script>
<script xlink:href="svgpan.js"/>
<svg id="graph" class="graph">
<g id="viewport">
<title>sitkImageFileWriter.h</title>
<polygon fill="white" stroke="transparent" points="-4,4 -4,-539 1673.5,-539 1673.5,4 -4,4"/>
<!-- Node1 -->
<g id="node1" class="node">
<title>Node1</title>
<g id="a_node1"><a xlink:title=" ">
<polygon fill="#bfbfbf" stroke="black" points="1413,-515.5 1413,-534.5 1534,-534.5 1534,-515.5 1413,-515.5"/>
<text text-anchor="middle" x="1473.5" y="-522.5" font-family="Helvetica,sans-Serif" font-size="10.00">sitkImageFileWriter.h</text>
</a>
</g>
</g>
<!-- Node2 -->
<g id="node2" class="node">
<title>Node2</title>
<g id="a_node2"><a xlink:href="sitkMacro_8h.html" target="_top" xlink:title=" ">
<polygon fill="white" stroke="black" points="1257.5,-56.5 1257.5,-75.5 1331.5,-75.5 1331.5,-56.5 1257.5,-56.5"/>
<text text-anchor="middle" x="1294.5" y="-63.5" font-family="Helvetica,sans-Serif" font-size="10.00">sitkMacro.h</text>
</a>
</g>
</g>
<!-- Node1&#45;&gt;Node2 -->
<g id="edge1" class="edge">
<title>Node1&#45;&gt;Node2</title>
<path fill="none" stroke="midnightblue" d="M1534.17,-515.81C1591.74,-504.22 1669.5,-476.92 1669.5,-414 1669.5,-414 1669.5,-414 1669.5,-177 1669.5,-127.66 1625.12,-130.81 1579.5,-112 1500.37,-79.38 1399.91,-70.26 1341.84,-67.8"/>
<polygon fill="midnightblue" stroke="midnightblue" points="1341.63,-64.29 1331.51,-67.41 1341.37,-71.28 1341.63,-64.29"/>
</g>
<!-- Node9 -->
<g id="node9" class="node">
<title>Node9</title>
<g id="a_node9"><a xlink:href="sitkImage_8h.html" target="_top" xlink:title=" ">
<polygon fill="white" stroke="black" points="1198.5,-347.5 1198.5,-366.5 1272.5,-366.5 1272.5,-347.5 1198.5,-347.5"/>
<text text-anchor="middle" x="1235.5" y="-354.5" font-family="Helvetica,sans-Serif" font-size="10.00">sitkImage.h</text>
</a>
</g>
</g>
<!-- Node1&#45;&gt;Node9 -->
<g id="edge8" class="edge">
<title>Node1&#45;&gt;Node9</title>
<path fill="none" stroke="midnightblue" d="M1461.35,-515.47C1433.13,-495.67 1360.97,-445.08 1300.5,-403 1285.81,-392.78 1269.23,-381.3 1256.49,-372.49"/>
<polygon fill="midnightblue" stroke="midnightblue" points="1258.19,-369.41 1247.97,-366.61 1254.21,-375.17 1258.19,-369.41"/>
</g>
<!-- Node32 -->
<g id="node32" class="node">
<title>Node32</title>
<g id="a_node32"><a xlink:title=" ">
<polygon fill="white" stroke="#bfbfbf" points="1454.5,-291.5 1454.5,-310.5 1512.5,-310.5 1512.5,-291.5 1454.5,-291.5"/>
<text text-anchor="middle" x="1483.5" y="-298.5" font-family="Helvetica,sans-Serif" font-size="10.00">memory</text>
</a>
</g>
</g>
<!-- Node1&#45;&gt;Node32 -->
<g id="edge72" class="edge">
<title>Node1&#45;&gt;Node32</title>
<path fill="none" stroke="midnightblue" d="M1473.89,-515.3C1475.36,-482.63 1480.58,-366.87 1482.65,-320.96"/>
<polygon fill="midnightblue" stroke="midnightblue" points="1486.15,-321.03 1483.1,-310.88 1479.15,-320.72 1486.15,-321.03"/>
</g>
<!-- Node33 -->
<g id="node33" class="node">
<title>Node33</title>
<g id="a_node33"><a xlink:href="sitkMemberFunctionFactory_8h.html" target="_top" xlink:title=" ">
<polygon fill="white" stroke="black" points="566,-347.5 566,-366.5 725,-366.5 725,-347.5 566,-347.5"/>
<text text-anchor="middle" x="645.5" y="-354.5" font-family="Helvetica,sans-Serif" font-size="10.00">sitkMemberFunctionFactory.h</text>
</a>
</g>
</g>
<!-- Node1&#45;&gt;Node33 -->
<g id="edge53" class="edge">
<title>Node1&#45;&gt;Node33</title>
<path fill="none" stroke="midnightblue" d="M1412.79,-519.35C1260.72,-507.1 866.95,-471.53 745.5,-423 714.49,-410.61 682.86,-388.03 663.7,-373.02"/>
<polygon fill="midnightblue" stroke="midnightblue" points="665.82,-370.23 655.82,-366.72 661.44,-375.7 665.82,-370.23"/>
</g>
<!-- Node35 -->
<g id="node35" class="node">
<title>Node35</title>
<g id="a_node35"><a xlink:href="sitkIO_8h.html" target="_top" xlink:title=" ">
<polygon fill="white" stroke="black" points="1565.5,-459.5 1565.5,-478.5 1619.5,-478.5 1619.5,-459.5 1565.5,-459.5"/>
<text text-anchor="middle" x="1592.5" y="-466.5" font-family="Helvetica,sans-Serif" font-size="10.00">sitkIO.h</text>
</a>
</g>
</g>
<!-- Node1&#45;&gt;Node35 -->
<g id="edge58" class="edge">
<title>Node1&#45;&gt;Node35</title>
<path fill="none" stroke="midnightblue" d="M1492.36,-515.44C1511.77,-506.64 1542.23,-492.81 1564.46,-482.72"/>
<polygon fill="midnightblue" stroke="midnightblue" points="1566.07,-485.84 1573.73,-478.52 1563.18,-479.46 1566.07,-485.84"/>
</g>
<!-- Node36 -->
<g id="node36" class="node">
<title>Node36</title>
<g id="a_node36"><a xlink:href="sitkProcessObject_8h.html" target="_top" xlink:title=" ">
<polygon fill="white" stroke="black" points="1056,-459.5 1056,-478.5 1169,-478.5 1169,-459.5 1056,-459.5"/>
<text text-anchor="middle" x="1112.5" y="-466.5" font-family="Helvetica,sans-Serif" font-size="10.00">sitkProcessObject.h</text>
</a>
</g>
</g>
<!-- Node1&#45;&gt;Node36 -->
<g id="edge60" class="edge">
<title>Node1&#45;&gt;Node36</title>
<path fill="none" stroke="midnightblue" d="M1416.3,-515.44C1351.91,-505.81 1247.42,-490.18 1179.33,-480"/>
<polygon fill="midnightblue" stroke="midnightblue" points="1179.54,-476.49 1169.14,-478.47 1178.51,-483.41 1179.54,-476.49"/>
</g>
<!-- Node3 -->
<g id="node3" class="node">
<title>Node3</title>
<g id="a_node3"><a xlink:title=" ">
<polygon fill="white" stroke="#bfbfbf" points="853,-0.5 853,-19.5 906,-19.5 906,-0.5 853,-0.5"/>
<text text-anchor="middle" x="879.5" y="-7.5" font-family="Helvetica,sans-Serif" font-size="10.00">stdint.h</text>
</a>
</g>
</g>
<!-- Node2&#45;&gt;Node3 -->
<g id="edge2" class="edge">
<title>Node2&#45;&gt;Node3</title>
<path fill="none" stroke="midnightblue" d="M1257.31,-60.16C1178.45,-49.9 995.27,-26.06 916.55,-15.82"/>
<polygon fill="midnightblue" stroke="midnightblue" points="916.52,-12.29 906.15,-14.47 915.62,-19.23 916.52,-12.29"/>
</g>
<!-- Node4 -->
<g id="node4" class="node">
<title>Node4</title>
<g id="a_node4"><a xlink:title=" ">
<polygon fill="white" stroke="#bfbfbf" points="1300.5,-0.5 1300.5,-19.5 1356.5,-19.5 1356.5,-0.5 1300.5,-0.5"/>
<text text-anchor="middle" x="1328.5" y="-7.5" font-family="Helvetica,sans-Serif" font-size="10.00">stddef.h</text>
</a>
</g>
</g>
<!-- Node2&#45;&gt;Node4 -->
<g id="edge3" class="edge">
<title>Node2&#45;&gt;Node4</title>
<path fill="none" stroke="midnightblue" d="M1300.11,-56.08C1304.87,-48.53 1311.82,-37.49 1317.65,-28.23"/>
<polygon fill="midnightblue" stroke="midnightblue" points="1320.62,-30.08 1322.99,-19.75 1314.7,-26.35 1320.62,-30.08"/>
</g>
<!-- Node5 -->
<g id="node5" class="node">
<title>Node5</title>
<g id="a_node5"><a xlink:title=" ">
<polygon fill="white" stroke="#bfbfbf" points="1374.5,-0.5 1374.5,-19.5 1426.5,-19.5 1426.5,-0.5 1374.5,-0.5"/>
<text text-anchor="middle" x="1400.5" y="-7.5" font-family="Helvetica,sans-Serif" font-size="10.00">cassert</text>
</a>
</g>
</g>
<!-- Node2&#45;&gt;Node5 -->
<g id="edge4" class="edge">
<title>Node2&#45;&gt;Node5</title>
<path fill="none" stroke="midnightblue" d="M1311.53,-56.32C1328.53,-47.66 1354.88,-34.24 1374.49,-24.25"/>
<polygon fill="midnightblue" stroke="midnightblue" points="1376.19,-27.31 1383.51,-19.65 1373.01,-21.08 1376.19,-27.31"/>
</g>
<!-- Node6 -->
<g id="node6" class="node">
<title>Node6</title>
<g id="a_node6"><a xlink:title=" ">
<polygon fill="white" stroke="#bfbfbf" points="1164.5,-0.5 1164.5,-19.5 1220.5,-19.5 1220.5,-0.5 1164.5,-0.5"/>
<text text-anchor="middle" x="1192.5" y="-7.5" font-family="Helvetica,sans-Serif" font-size="10.00">sstream</text>
</a>
</g>
</g>
<!-- Node2&#45;&gt;Node6 -->
<g id="edge5" class="edge">
<title>Node2&#45;&gt;Node6</title>
<path fill="none" stroke="midnightblue" d="M1278.11,-56.32C1261.83,-47.7 1236.63,-34.36 1217.78,-24.39"/>
<polygon fill="midnightblue" stroke="midnightblue" points="1219.32,-21.24 1208.85,-19.65 1216.05,-27.43 1219.32,-21.24"/>
</g>
<!-- Node7 -->
<g id="node7" class="node">
<title>Node7</title>
<g id="a_node7"><a xlink:title=" ">
<polygon fill="white" stroke="#bfbfbf" points="1238.5,-0.5 1238.5,-19.5 1282.5,-19.5 1282.5,-0.5 1238.5,-0.5"/>
<text text-anchor="middle" x="1260.5" y="-7.5" font-family="Helvetica,sans-Serif" font-size="10.00">limits</text>
</a>
</g>
</g>
<!-- Node2&#45;&gt;Node7 -->
<g id="edge6" class="edge">
<title>Node2&#45;&gt;Node7</title>
<path fill="none" stroke="midnightblue" d="M1288.89,-56.08C1284.13,-48.53 1277.18,-37.49 1271.35,-28.23"/>
<polygon fill="midnightblue" stroke="midnightblue" points="1274.3,-26.35 1266.01,-19.75 1268.38,-30.08 1274.3,-26.35"/>
</g>
<!-- Node8 -->
<g id="node8" class="node">
<title>Node8</title>
<g id="a_node8"><a xlink:href="sitkConfigure_8h.html" target="_top" xlink:title=" ">
<polygon fill="white" stroke="black" points="624.5,-0.5 624.5,-19.5 714.5,-19.5 714.5,-0.5 624.5,-0.5"/>
<text text-anchor="middle" x="669.5" y="-7.5" font-family="Helvetica,sans-Serif" font-size="10.00">sitkConfigure.h</text>
</a>
</g>
</g>
<!-- Node2&#45;&gt;Node8 -->
<g id="edge7" class="edge">
<title>Node2&#45;&gt;Node8</title>
<path fill="none" stroke="midnightblue" d="M1257.28,-61.78C1151.71,-52.66 849.98,-26.59 724.88,-15.78"/>
<polygon fill="midnightblue" stroke="midnightblue" points="725.02,-12.28 714.75,-14.91 724.42,-19.26 725.02,-12.28"/>
</g>
<!-- Node10 -->
<g id="node10" class="node">
<title>Node10</title>
<g id="a_node10"><a xlink:href="sitkCommon_8h.html" target="_top" xlink:title=" ">
<polygon fill="white" stroke="black" points="1156.5,-112.5 1156.5,-131.5 1244.5,-131.5 1244.5,-112.5 1156.5,-112.5"/>
<text text-anchor="middle" x="1200.5" y="-119.5" font-family="Helvetica,sans-Serif" font-size="10.00">sitkCommon.h</text>
</a>
</g>
</g>
<!-- Node9&#45;&gt;Node10 -->
<g id="edge9" class="edge">
<title>Node9&#45;&gt;Node10</title>
<path fill="none" stroke="midnightblue" d="M1242.97,-347.36C1260.23,-326.3 1300.19,-270.6 1283.5,-224 1279.94,-214.07 1237.79,-165.31 1214.97,-139.35"/>
<polygon fill="midnightblue" stroke="midnightblue" points="1217.55,-136.98 1208.31,-131.79 1212.3,-141.61 1217.55,-136.98"/>
</g>
<!-- Node11 -->
<g id="node11" class="node">
<title>Node11</title>
<g id="a_node11"><a xlink:href="sitkTemplateFunctions_8h.html" target="_top" xlink:title=" ">
<polygon fill="white" stroke="black" points="1369,-230 1369,-249 1504,-249 1504,-230 1369,-230"/>
<text text-anchor="middle" x="1436.5" y="-237" font-family="Helvetica,sans-Serif" font-size="10.00">sitkTemplateFunctions.h</text>
</a>
</g>
</g>
<!-- Node9&#45;&gt;Node11 -->
<g id="edge11" class="edge">
<title>Node9&#45;&gt;Node11</title>
<path fill="none" stroke="midnightblue" d="M1266.67,-347.49C1291.49,-339.95 1326.58,-327.58 1354.5,-311 1380.07,-295.82 1405.39,-272.43 1420.98,-256.81"/>
<polygon fill="midnightblue" stroke="midnightblue" points="1423.71,-259.03 1428.19,-249.43 1418.7,-254.13 1423.71,-259.03"/>
</g>
<!-- Node13 -->
<g id="node13" class="node">
<title>Node13</title>
<g id="a_node13"><a xlink:title=" ">
<polygon fill="white" stroke="#bfbfbf" points="1267,-168.5 1267,-187.5 1314,-187.5 1314,-168.5 1267,-168.5"/>
<text text-anchor="middle" x="1290.5" y="-175.5" font-family="Helvetica,sans-Serif" font-size="10.00">vector</text>
</a>
</g>
</g>
<!-- Node9&#45;&gt;Node13 -->
<g id="edge50" class="edge">
<title>Node9&#45;&gt;Node13</title>
<path fill="none" stroke="midnightblue" d="M1266.52,-347.44C1284.53,-340.69 1305.73,-329.3 1316.5,-311 1336.11,-277.67 1326.51,-261.35 1316.5,-224 1313.85,-214.1 1308.43,-204.13 1303.23,-196.1"/>
<polygon fill="midnightblue" stroke="midnightblue" points="1305.96,-193.91 1297.39,-187.68 1300.21,-197.89 1305.96,-193.91"/>
</g>
<!-- Node16 -->
<g id="node16" class="node">
<title>Node16</title>
<g id="a_node16"><a xlink:href="sitkDetail_8h.html" target="_top" xlink:title=" ">
<polygon fill="white" stroke="black" points="609,-291.5 609,-310.5 682,-310.5 682,-291.5 609,-291.5"/>
<text text-anchor="middle" x="645.5" y="-298.5" font-family="Helvetica,sans-Serif" font-size="10.00">sitkDetail.h</text>
</a>
</g>
</g>
<!-- Node9&#45;&gt;Node16 -->
<g id="edge20" class="edge">
<title>Node9&#45;&gt;Node16</title>
<path fill="none" stroke="midnightblue" d="M1198.15,-352.58C1094.98,-343.14 806.24,-316.71 692.45,-306.3"/>
<polygon fill="midnightblue" stroke="midnightblue" points="692.59,-302.8 682.31,-305.37 691.95,-309.77 692.59,-302.8"/>
</g>
<!-- Node27 -->
<g id="node27" class="node">
<title>Node27</title>
<g id="a_node27"><a xlink:href="sitkPixelIDTokens_8h.html" target="_top" xlink:title=" ">
<polygon fill="white" stroke="black" points="965.5,-291.5 965.5,-310.5 1075.5,-310.5 1075.5,-291.5 965.5,-291.5"/>
<text text-anchor="middle" x="1020.5" y="-298.5" font-family="Helvetica,sans-Serif" font-size="10.00">sitkPixelIDTokens.h</text>
</a>
</g>
</g>
<!-- Node9&#45;&gt;Node27 -->
<g id="edge39" class="edge">
<title>Node9&#45;&gt;Node27</title>
<path fill="none" stroke="midnightblue" d="M1201.43,-347.44C1164.32,-338.12 1104.84,-323.18 1064.29,-313"/>
<polygon fill="midnightblue" stroke="midnightblue" points="1064.96,-309.56 1054.41,-310.52 1063.25,-316.35 1064.96,-309.56"/>
</g>
<!-- Node30 -->
<g id="node30" class="node">
<title>Node30</title>
<g id="a_node30"><a xlink:title=" ">
<polygon fill="white" stroke="#bfbfbf" points="998,-230 998,-249 1067,-249 1067,-230 998,-230"/>
<text text-anchor="middle" x="1032.5" y="-237" font-family="Helvetica,sans-Serif" font-size="10.00">type_traits</text>
</a>
</g>
</g>
<!-- Node9&#45;&gt;Node30 -->
<g id="edge52" class="edge">
<title>Node9&#45;&gt;Node30</title>
<path fill="none" stroke="midnightblue" d="M1220.24,-347.32C1185.18,-327.37 1098.65,-278.14 1056.43,-254.12"/>
<polygon fill="midnightblue" stroke="midnightblue" points="1058.08,-251.03 1047.66,-249.12 1054.62,-257.11 1058.08,-251.03"/>
</g>
<!-- Node31 -->
<g id="node31" class="node">
<title>Node31</title>
<g id="a_node31"><a xlink:href="sitkInterpolator_8h.html" target="_top" xlink:title=" ">
<polygon fill="white" stroke="black" points="1174.5,-230 1174.5,-249 1274.5,-249 1274.5,-230 1174.5,-230"/>
<text text-anchor="middle" x="1224.5" y="-237" font-family="Helvetica,sans-Serif" font-size="10.00">sitkInterpolator.h</text>
</a>
</g>
</g>
<!-- Node9&#45;&gt;Node31 -->
<g id="edge47" class="edge">
<title>Node9&#45;&gt;Node31</title>
<path fill="none" stroke="midnightblue" d="M1234.67,-347.32C1232.91,-328.76 1228.72,-284.84 1226.31,-259.47"/>
<polygon fill="midnightblue" stroke="midnightblue" points="1229.77,-258.91 1225.34,-249.28 1222.8,-259.57 1229.77,-258.91"/>
</g>
<!-- Node9&#45;&gt;Node32 -->
<g id="edge51" class="edge">
<title>Node9&#45;&gt;Node32</title>
<path fill="none" stroke="midnightblue" d="M1272.63,-347.92C1318.83,-337.86 1397.36,-320.76 1444.44,-310.5"/>
<polygon fill="midnightblue" stroke="midnightblue" points="1445.25,-313.91 1454.27,-308.36 1443.76,-307.07 1445.25,-313.91"/>
</g>
<!-- Node10&#45;&gt;Node2 -->
<g id="edge10" class="edge">
<title>Node10&#45;&gt;Node2</title>
<path fill="none" stroke="midnightblue" d="M1215.6,-112.32C1230.4,-103.82 1253.19,-90.73 1270.48,-80.8"/>
<polygon fill="midnightblue" stroke="midnightblue" points="1272.51,-83.67 1279.43,-75.65 1269.02,-77.6 1272.51,-83.67"/>
</g>
<!-- Node11&#45;&gt;Node2 -->
<g id="edge12" class="edge">
<title>Node11&#45;&gt;Node2</title>
<path fill="none" stroke="midnightblue" d="M1495.22,-230C1542.42,-220.51 1597.23,-201.83 1573.5,-168 1520.96,-93.1 1407.02,-73.51 1342.18,-68.54"/>
<polygon fill="midnightblue" stroke="midnightblue" points="1342.04,-65.02 1331.82,-67.84 1341.56,-72.01 1342.04,-65.02"/>
</g>
<!-- Node11&#45;&gt;Node10 -->
<g id="edge13" class="edge">
<title>Node11&#45;&gt;Node10</title>
<path fill="none" stroke="midnightblue" d="M1424.32,-229.82C1403.96,-215.59 1361.41,-186.97 1322.5,-168 1295.21,-154.7 1262.93,-142.95 1238.43,-134.8"/>
<polygon fill="midnightblue" stroke="midnightblue" points="1239.37,-131.43 1228.78,-131.64 1237.19,-138.08 1239.37,-131.43"/>
</g>
<!-- Node12 -->
<g id="node12" class="node">
<title>Node12</title>
<g id="a_node12"><a xlink:href="sitkExceptionObject_8h.html" target="_top" xlink:title=" ">
<polygon fill="white" stroke="black" points="1442,-168.5 1442,-187.5 1565,-187.5 1565,-168.5 1442,-168.5"/>
<text text-anchor="middle" x="1503.5" y="-175.5" font-family="Helvetica,sans-Serif" font-size="10.00">sitkExceptionObject.h</text>
</a>
</g>
</g>
<!-- Node11&#45;&gt;Node12 -->
<g id="edge14" class="edge">
<title>Node11&#45;&gt;Node12</title>
<path fill="none" stroke="midnightblue" d="M1446.1,-229.98C1456.55,-220.7 1473.47,-205.67 1486.24,-194.33"/>
<polygon fill="midnightblue" stroke="midnightblue" points="1488.77,-196.77 1493.92,-187.51 1484.12,-191.53 1488.77,-196.77"/>
</g>
<!-- Node11&#45;&gt;Node13 -->
<g id="edge17" class="edge">
<title>Node11&#45;&gt;Node13</title>
<path fill="none" stroke="midnightblue" d="M1415.58,-229.98C1390.75,-219.86 1349.16,-202.9 1320.81,-191.35"/>
<polygon fill="midnightblue" stroke="midnightblue" points="1321.96,-188.04 1311.38,-187.51 1319.32,-194.52 1321.96,-188.04"/>
</g>
<!-- Node14 -->
<g id="node14" class="node">
<title>Node14</title>
<g id="a_node14"><a xlink:title=" ">
<polygon fill="white" stroke="#bfbfbf" points="1115,-168.5 1115,-187.5 1172,-187.5 1172,-168.5 1115,-168.5"/>
<text text-anchor="middle" x="1143.5" y="-175.5" font-family="Helvetica,sans-Serif" font-size="10.00">ostream</text>
</a>
</g>
</g>
<!-- Node11&#45;&gt;Node14 -->
<g id="edge18" class="edge">
<title>Node11&#45;&gt;Node14</title>
<path fill="none" stroke="midnightblue" d="M1394.52,-229.98C1337.73,-218.44 1237.23,-198.03 1182.19,-186.86"/>
<polygon fill="midnightblue" stroke="midnightblue" points="1182.64,-183.38 1172.14,-184.82 1181.24,-190.24 1182.64,-183.38"/>
</g>
<!-- Node15 -->
<g id="node15" class="node">
<title>Node15</title>
<g id="a_node15"><a xlink:title=" ">
<polygon fill="white" stroke="#bfbfbf" points="1371,-168.5 1371,-187.5 1424,-187.5 1424,-168.5 1371,-168.5"/>
<text text-anchor="middle" x="1397.5" y="-175.5" font-family="Helvetica,sans-Serif" font-size="10.00">iterator</text>
</a>
</g>
</g>
<!-- Node11&#45;&gt;Node15 -->
<g id="edge19" class="edge">
<title>Node11&#45;&gt;Node15</title>
<path fill="none" stroke="midnightblue" d="M1430.91,-229.98C1425.12,-221.14 1415.91,-207.09 1408.63,-195.98"/>
<polygon fill="midnightblue" stroke="midnightblue" points="1411.49,-193.95 1403.08,-187.51 1405.63,-197.79 1411.49,-193.95"/>
</g>
<!-- Node12&#45;&gt;Node2 -->
<g id="edge15" class="edge">
<title>Node12&#45;&gt;Node2</title>
<path fill="none" stroke="midnightblue" d="M1487.1,-168.37C1450.78,-149.25 1363.34,-103.23 1319.89,-80.36"/>
<polygon fill="midnightblue" stroke="midnightblue" points="1321.3,-77.15 1310.82,-75.59 1318.04,-83.35 1321.3,-77.15"/>
</g>
<!-- Node12&#45;&gt;Node10 -->
<g id="edge16" class="edge">
<title>Node12&#45;&gt;Node10</title>
<path fill="none" stroke="midnightblue" d="M1455.49,-168.44C1400.86,-158.71 1311.86,-142.85 1254.76,-132.67"/>
<polygon fill="midnightblue" stroke="midnightblue" points="1255.3,-129.21 1244.84,-130.9 1254.07,-136.1 1255.3,-129.21"/>
</g>
<!-- Node17 -->
<g id="node17" class="node">
<title>Node17</title>
<g id="a_node17"><a xlink:href="sitkMemberFunctionFactoryBase_8h.html" target="_top" xlink:title=" ">
<polygon fill="white" stroke="black" points="272.5,-224.5 272.5,-254.5 424.5,-254.5 424.5,-224.5 272.5,-224.5"/>
<text text-anchor="start" x="280.5" y="-242.5" font-family="Helvetica,sans-Serif" font-size="10.00">sitkMemberFunctionFactory</text>
<text text-anchor="middle" x="348.5" y="-231.5" font-family="Helvetica,sans-Serif" font-size="10.00">Base.h</text>
</a>
</g>
</g>
<!-- Node16&#45;&gt;Node17 -->
<g id="edge21" class="edge">
<title>Node16&#45;&gt;Node17</title>
<path fill="none" stroke="midnightblue" d="M608.78,-292.64C564.04,-283.68 487.15,-268.28 428.51,-256.53"/>
<polygon fill="midnightblue" stroke="midnightblue" points="429.01,-253.06 418.52,-254.53 427.64,-259.92 429.01,-253.06"/>
</g>
<!-- Node23 -->
<g id="node23" class="node">
<title>Node23</title>
<g id="a_node23"><a xlink:title=" ">
<polygon fill="white" stroke="#bfbfbf" points="369,-168.5 369,-187.5 508,-187.5 508,-168.5 369,-168.5"/>
<text text-anchor="middle" x="438.5" y="-175.5" font-family="Helvetica,sans-Serif" font-size="10.00">Ancillary/FunctionTraits.h</text>
</a>
</g>
</g>
<!-- Node16&#45;&gt;Node23 -->
<g id="edge38" class="edge">
<title>Node16&#45;&gt;Node23</title>
<path fill="none" stroke="midnightblue" d="M630.94,-291.49C595.62,-270.84 505.1,-217.93 462,-192.74"/>
<polygon fill="midnightblue" stroke="midnightblue" points="463.72,-189.69 453.32,-187.66 460.18,-195.73 463.72,-189.69"/>
</g>
<!-- Node17&#45;&gt;Node2 -->
<g id="edge30" class="edge">
<title>Node17&#45;&gt;Node2</title>
<path fill="none" stroke="midnightblue" d="M424.75,-232.92C488.32,-226.66 580.57,-213.77 657.5,-188 675.6,-181.94 677.42,-174.11 695.5,-168 893.77,-101.03 1144.57,-77.2 1247.33,-69.86"/>
<polygon fill="midnightblue" stroke="midnightblue" points="1247.66,-73.35 1257.39,-69.17 1247.17,-66.37 1247.66,-73.35"/>
</g>
<!-- Node17&#45;&gt;Node8 -->
<g id="edge22" class="edge">
<title>Node17&#45;&gt;Node8</title>
<path fill="none" stroke="midnightblue" d="M272.32,-230.26C245.81,-223.31 218.68,-210.72 202.5,-188 192.67,-174.2 187.33,-134.89 207.5,-112 260.73,-51.59 503.57,-24.46 614.24,-15.08"/>
<polygon fill="midnightblue" stroke="midnightblue" points="614.54,-18.56 624.21,-14.25 613.96,-11.59 614.54,-18.56"/>
</g>
<!-- Node18 -->
<g id="node18" class="node">
<title>Node18</title>
<g id="a_node18"><a xlink:href="sitkPixelIDTypes_8h.html" target="_top" xlink:title=" ">
<polygon fill="white" stroke="black" points="418,-112.5 418,-131.5 523,-131.5 523,-112.5 418,-112.5"/>
<text text-anchor="middle" x="470.5" y="-119.5" font-family="Helvetica,sans-Serif" font-size="10.00">sitkPixelIDTypes.h</text>
</a>
</g>
</g>
<!-- Node17&#45;&gt;Node18 -->
<g id="edge23" class="edge">
<title>Node17&#45;&gt;Node18</title>
<path fill="none" stroke="midnightblue" d="M346.89,-224.46C345.89,-208.97 346.73,-184.12 359.5,-168 372.43,-151.69 392.21,-141.25 411.52,-134.59"/>
<polygon fill="midnightblue" stroke="midnightblue" points="412.75,-137.88 421.23,-131.53 410.64,-131.2 412.75,-137.88"/>
</g>
<!-- Node19 -->
<g id="node19" class="node">
<title>Node19</title>
<g id="a_node19"><a xlink:href="sitkPixelIDTypeLists_8h.html" target="_top" xlink:title=" ">
<polygon fill="white" stroke="black" points="526.5,-168.5 526.5,-187.5 648.5,-187.5 648.5,-168.5 526.5,-168.5"/>
<text text-anchor="middle" x="587.5" y="-175.5" font-family="Helvetica,sans-Serif" font-size="10.00">sitkPixelIDTypeLists.h</text>
</a>
</g>
</g>
<!-- Node17&#45;&gt;Node19 -->
<g id="edge24" class="edge">
<title>Node17&#45;&gt;Node19</title>
<path fill="none" stroke="midnightblue" d="M404.84,-224.47C447.15,-213.94 504.29,-199.72 543.32,-190"/>
<polygon fill="midnightblue" stroke="midnightblue" points="544.47,-193.32 553.33,-187.51 542.78,-186.53 544.47,-193.32"/>
</g>
<!-- Node20 -->
<g id="node20" class="node">
<title>Node20</title>
<g id="a_node20"><a xlink:title=" ">
<polygon fill="white" stroke="#bfbfbf" points="217,-112.5 217,-131.5 328,-131.5 328,-112.5 217,-112.5"/>
<text text-anchor="middle" x="272.5" y="-119.5" font-family="Helvetica,sans-Serif" font-size="10.00">Ancillary/TypeList.h</text>
</a>
</g>
</g>
<!-- Node17&#45;&gt;Node20 -->
<g id="edge33" class="edge">
<title>Node17&#45;&gt;Node20</title>
<path fill="none" stroke="midnightblue" d="M272.24,-228.3C248.18,-221.09 224.09,-208.82 209.5,-188 195.63,-168.2 221.17,-148.73 243.77,-136.34"/>
<polygon fill="midnightblue" stroke="midnightblue" points="245.56,-139.35 252.83,-131.64 242.34,-133.14 245.56,-139.35"/>
</g>
<!-- Node22 -->
<g id="node22" class="node">
<title>Node22</title>
<g id="a_node22"><a xlink:href="sitkNonCopyable_8h.html" target="_top" xlink:title=" ">
<polygon fill="white" stroke="black" points="705,-168.5 705,-187.5 814,-187.5 814,-168.5 705,-168.5"/>
<text text-anchor="middle" x="759.5" y="-175.5" font-family="Helvetica,sans-Serif" font-size="10.00">sitkNonCopyable.h</text>
</a>
</g>
</g>
<!-- Node17&#45;&gt;Node22 -->
<g id="edge31" class="edge">
<title>Node17&#45;&gt;Node22</title>
<path fill="none" stroke="midnightblue" d="M424.84,-227.45C502.55,-216.2 621.71,-198.95 694.89,-188.35"/>
<polygon fill="midnightblue" stroke="midnightblue" points="695.51,-191.8 704.9,-186.9 694.5,-184.87 695.51,-191.8"/>
</g>
<!-- Node17&#45;&gt;Node23 -->
<g id="edge34" class="edge">
<title>Node17&#45;&gt;Node23</title>
<path fill="none" stroke="midnightblue" d="M369.83,-224.4C383.99,-215.04 402.51,-202.79 416.75,-193.38"/>
<polygon fill="midnightblue" stroke="midnightblue" points="418.99,-196.09 425.4,-187.66 415.13,-190.25 418.99,-196.09"/>
</g>
<!-- Node24 -->
<g id="node24" class="node">
<title>Node24</title>
<g id="a_node24"><a xlink:title=" ">
<polygon fill="white" stroke="#bfbfbf" points="219,-168.5 219,-187.5 312,-187.5 312,-168.5 219,-168.5"/>
<text text-anchor="middle" x="265.5" y="-175.5" font-family="Helvetica,sans-Serif" font-size="10.00">unordered_map</text>
</a>
</g>
</g>
<!-- Node17&#45;&gt;Node24 -->
<g id="edge35" class="edge">
<title>Node17&#45;&gt;Node24</title>
<path fill="none" stroke="midnightblue" d="M328.83,-224.4C315.9,-215.13 299.01,-203.03 285.93,-193.65"/>
<polygon fill="midnightblue" stroke="midnightblue" points="287.74,-190.64 277.58,-187.66 283.67,-196.33 287.74,-190.64"/>
</g>
<!-- Node25 -->
<g id="node25" class="node">
<title>Node25</title>
<g id="a_node25"><a xlink:title=" ">
<polygon fill="white" stroke="#bfbfbf" points="0,-168.5 0,-187.5 65,-187.5 65,-168.5 0,-168.5"/>
<text text-anchor="middle" x="32.5" y="-175.5" font-family="Helvetica,sans-Serif" font-size="10.00">functional</text>
</a>
</g>
</g>
<!-- Node17&#45;&gt;Node25 -->
<g id="edge36" class="edge">
<title>Node17&#45;&gt;Node25</title>
<path fill="none" stroke="midnightblue" d="M272.49,-225.27C219.69,-215.91 147.43,-202.77 75.32,-188.32"/>
<polygon fill="midnightblue" stroke="midnightblue" points="75.65,-184.82 65.15,-186.27 74.27,-191.68 75.65,-184.82"/>
</g>
<!-- Node26 -->
<g id="node26" class="node">
<title>Node26</title>
<g id="a_node26"><a xlink:title=" ">
<polygon fill="white" stroke="#bfbfbf" points="83,-168.5 83,-187.5 124,-187.5 124,-168.5 83,-168.5"/>
<text text-anchor="middle" x="103.5" y="-175.5" font-family="Helvetica,sans-Serif" font-size="10.00">tuple</text>
</a>
</g>
</g>
<!-- Node17&#45;&gt;Node26 -->
<g id="edge37" class="edge">
<title>Node17&#45;&gt;Node26</title>
<path fill="none" stroke="midnightblue" d="M289.15,-224.49C247.06,-214.49 189.26,-200.63 138.5,-188 137.05,-187.64 135.58,-187.27 134.08,-186.89"/>
<polygon fill="midnightblue" stroke="midnightblue" points="134.77,-183.46 124.21,-184.38 133.04,-190.24 134.77,-183.46"/>
</g>
<!-- Node19&#45;&gt;Node3 -->
<g id="edge25" class="edge">
<title>Node19&#45;&gt;Node3</title>
<path fill="none" stroke="midnightblue" d="M607.69,-168.35C627.35,-159.73 657.92,-145.83 683.5,-132 748.73,-96.73 822.3,-49.07 857.9,-25.47"/>
<polygon fill="midnightblue" stroke="midnightblue" points="860.11,-28.2 866.5,-19.75 856.24,-22.38 860.11,-28.2"/>
</g>
<!-- Node19&#45;&gt;Node8 -->
<g id="edge26" class="edge">
<title>Node19&#45;&gt;Node8</title>
<path fill="none" stroke="midnightblue" d="M589.24,-168.32C591.97,-155.6 597.85,-131.31 606.5,-112 620.57,-80.57 643.01,-47.27 656.97,-27.85"/>
<polygon fill="midnightblue" stroke="midnightblue" points="659.83,-29.87 662.89,-19.73 654.17,-25.74 659.83,-29.87"/>
</g>
<!-- Node19&#45;&gt;Node18 -->
<g id="edge27" class="edge">
<title>Node19&#45;&gt;Node18</title>
<path fill="none" stroke="midnightblue" d="M568.96,-168.44C549.88,-159.64 519.93,-145.81 498.06,-135.72"/>
<polygon fill="midnightblue" stroke="midnightblue" points="499.5,-132.53 488.95,-131.52 496.57,-138.88 499.5,-132.53"/>
</g>
<!-- Node19&#45;&gt;Node20 -->
<g id="edge28" class="edge">
<title>Node19&#45;&gt;Node20</title>
<path fill="none" stroke="midnightblue" d="M537.59,-168.44C481.83,-158.89 391.61,-143.42 332.17,-133.23"/>
<polygon fill="midnightblue" stroke="midnightblue" points="332.63,-129.76 322.18,-131.52 331.44,-136.66 332.63,-129.76"/>
</g>
<!-- Node21 -->
<g id="node21" class="node">
<title>Node21</title>
<g id="a_node21"><a xlink:title=" ">
<polygon fill="white" stroke="#bfbfbf" points="616,-112.5 616,-131.5 675,-131.5 675,-112.5 616,-112.5"/>
<text text-anchor="middle" x="645.5" y="-119.5" font-family="Helvetica,sans-Serif" font-size="10.00">complex</text>
</a>
</g>
</g>
<!-- Node19&#45;&gt;Node21 -->
<g id="edge29" class="edge">
<title>Node19&#45;&gt;Node21</title>
<path fill="none" stroke="midnightblue" d="M596.82,-168.32C605.39,-160.34 618.31,-148.31 628.69,-138.65"/>
<polygon fill="midnightblue" stroke="midnightblue" points="631.08,-141.21 636.01,-131.83 626.31,-136.09 631.08,-141.21"/>
</g>
<!-- Node22&#45;&gt;Node10 -->
<g id="edge32" class="edge">
<title>Node22&#45;&gt;Node10</title>
<path fill="none" stroke="midnightblue" d="M814.11,-169.83C818.97,-169.21 823.83,-168.59 828.5,-168 941.39,-153.81 1073.66,-138 1146.14,-129.42"/>
<polygon fill="midnightblue" stroke="midnightblue" points="1146.87,-132.85 1156.39,-128.2 1146.05,-125.9 1146.87,-132.85"/>
</g>
<!-- Node27&#45;&gt;Node8 -->
<g id="edge40" class="edge">
<title>Node27&#45;&gt;Node8</title>
<path fill="none" stroke="midnightblue" d="M965.23,-296.27C931.49,-291.37 889.44,-280.21 860.5,-255 828.68,-227.29 846.05,-203.01 822.5,-168 782.69,-108.83 719.19,-52.16 688,-26.04"/>
<polygon fill="midnightblue" stroke="midnightblue" points="690.05,-23.18 680.11,-19.5 685.58,-28.58 690.05,-23.18"/>
</g>
<!-- Node28 -->
<g id="node28" class="node">
<title>Node28</title>
<g id="a_node28"><a xlink:href="sitkPixelIDValues_8h.html" target="_top" xlink:title=" ">
<polygon fill="white" stroke="black" points="869.5,-230 869.5,-249 979.5,-249 979.5,-230 869.5,-230"/>
<text text-anchor="middle" x="924.5" y="-237" font-family="Helvetica,sans-Serif" font-size="10.00">sitkPixelIDValues.h</text>
</a>
</g>
</g>
<!-- Node27&#45;&gt;Node28 -->
<g id="edge41" class="edge">
<title>Node27&#45;&gt;Node28</title>
<path fill="none" stroke="midnightblue" d="M1006.75,-291.48C991.13,-281.8 965.44,-265.87 946.92,-254.39"/>
<polygon fill="midnightblue" stroke="midnightblue" points="948.57,-251.3 938.23,-249.01 944.88,-257.25 948.57,-251.3"/>
</g>
<!-- Node27&#45;&gt;Node30 -->
<g id="edge46" class="edge">
<title>Node27&#45;&gt;Node30</title>
<path fill="none" stroke="midnightblue" d="M1022.22,-291.48C1023.93,-282.99 1026.61,-269.7 1028.8,-258.82"/>
<polygon fill="midnightblue" stroke="midnightblue" points="1032.24,-259.5 1030.78,-249.01 1025.38,-258.12 1032.24,-259.5"/>
</g>
<!-- Node28&#45;&gt;Node10 -->
<g id="edge42" class="edge">
<title>Node28&#45;&gt;Node10</title>
<path fill="none" stroke="midnightblue" d="M945.24,-229.82C993.62,-209.58 1114.04,-159.18 1170.45,-135.57"/>
<polygon fill="midnightblue" stroke="midnightblue" points="1172.02,-138.71 1179.89,-131.62 1169.31,-132.26 1172.02,-138.71"/>
</g>
<!-- Node28&#45;&gt;Node14 -->
<g id="edge45" class="edge">
<title>Node28&#45;&gt;Node14</title>
<path fill="none" stroke="midnightblue" d="M955.88,-229.98C995.3,-219.27 1062.9,-200.9 1105.29,-189.38"/>
<polygon fill="midnightblue" stroke="midnightblue" points="1106.24,-192.75 1114.97,-186.75 1104.4,-186 1106.24,-192.75"/>
</g>
<!-- Node28&#45;&gt;Node19 -->
<g id="edge43" class="edge">
<title>Node28&#45;&gt;Node19</title>
<path fill="none" stroke="midnightblue" d="M876.22,-229.98C815.41,-219.24 711.01,-200.81 645.81,-189.29"/>
<polygon fill="midnightblue" stroke="midnightblue" points="646.15,-185.8 635.69,-187.51 644.93,-192.69 646.15,-185.8"/>
</g>
<!-- Node29 -->
<g id="node29" class="node">
<title>Node29</title>
<g id="a_node29"><a xlink:title=" ">
<polygon fill="white" stroke="#bfbfbf" points="908.5,-168.5 908.5,-187.5 952.5,-187.5 952.5,-168.5 908.5,-168.5"/>
<text text-anchor="middle" x="930.5" y="-175.5" font-family="Helvetica,sans-Serif" font-size="10.00">string</text>
</a>
</g>
</g>
<!-- Node28&#45;&gt;Node29 -->
<g id="edge44" class="edge">
<title>Node28&#45;&gt;Node29</title>
<path fill="none" stroke="midnightblue" d="M925.36,-229.98C926.21,-221.58 927.53,-208.48 928.62,-197.66"/>
<polygon fill="midnightblue" stroke="midnightblue" points="932.12,-197.81 929.64,-187.51 925.16,-197.11 932.12,-197.81"/>
</g>
<!-- Node31&#45;&gt;Node10 -->
<g id="edge48" class="edge">
<title>Node31&#45;&gt;Node10</title>
<path fill="none" stroke="midnightblue" d="M1222.7,-229.82C1218.82,-211.17 1209.63,-166.94 1204.37,-141.63"/>
<polygon fill="midnightblue" stroke="midnightblue" points="1207.79,-140.86 1202.32,-131.78 1200.93,-142.28 1207.79,-140.86"/>
</g>
<!-- Node31&#45;&gt;Node14 -->
<g id="edge49" class="edge">
<title>Node31&#45;&gt;Node14</title>
<path fill="none" stroke="midnightblue" d="M1212.89,-229.98C1200.02,-220.52 1179.03,-205.1 1163.49,-193.69"/>
<polygon fill="midnightblue" stroke="midnightblue" points="1165.22,-190.61 1155.08,-187.51 1161.07,-196.25 1165.22,-190.61"/>
</g>
<!-- Node33&#45;&gt;Node16 -->
<g id="edge54" class="edge">
<title>Node33&#45;&gt;Node16</title>
<path fill="none" stroke="midnightblue" d="M645.5,-347.08C645.5,-340.01 645.5,-329.86 645.5,-320.99"/>
<polygon fill="midnightblue" stroke="midnightblue" points="649,-320.75 645.5,-310.75 642,-320.75 649,-320.75"/>
</g>
<!-- Node33&#45;&gt;Node17 -->
<g id="edge55" class="edge">
<title>Node33&#45;&gt;Node17</title>
<path fill="none" stroke="midnightblue" d="M565.92,-353.61C518.17,-349.16 457.74,-338.01 410.5,-311 390.51,-299.57 373.7,-279.29 362.65,-263.4"/>
<polygon fill="midnightblue" stroke="midnightblue" points="365.28,-261.04 356.83,-254.66 359.46,-264.92 365.28,-261.04"/>
</g>
<!-- Node33&#45;&gt;Node28 -->
<g id="edge56" class="edge">
<title>Node33&#45;&gt;Node28</title>
<path fill="none" stroke="midnightblue" d="M666.47,-347.32C715.37,-327.08 837.1,-276.68 894.12,-253.07"/>
<polygon fill="midnightblue" stroke="midnightblue" points="895.77,-256.18 903.67,-249.12 893.09,-249.72 895.77,-256.18"/>
</g>
<!-- Node34 -->
<g id="node34" class="node">
<title>Node34</title>
<g id="a_node34"><a xlink:title=" ">
<polygon fill="white" stroke="#bfbfbf" points="420,-291.5 420,-310.5 591,-310.5 591,-291.5 420,-291.5"/>
<text text-anchor="middle" x="505.5" y="-298.5" font-family="Helvetica,sans-Serif" font-size="10.00">sitkMemberFunctionFactory.hxx</text>
</a>
</g>
</g>
<!-- Node33&#45;&gt;Node34 -->
<g id="edge57" class="edge">
<title>Node33&#45;&gt;Node34</title>
<path fill="none" stroke="midnightblue" d="M623.32,-347.44C600.07,-338.48 563.35,-324.31 537.08,-314.18"/>
<polygon fill="midnightblue" stroke="midnightblue" points="538.17,-310.85 527.58,-310.52 535.65,-317.38 538.17,-310.85"/>
</g>
<!-- Node35&#45;&gt;Node2 -->
<g id="edge59" class="edge">
<title>Node35&#45;&gt;Node2</title>
<path fill="none" stroke="midnightblue" d="M1597.92,-459.25C1608.64,-441.1 1631.5,-397.71 1631.5,-358 1631.5,-358 1631.5,-358 1631.5,-177 1631.5,-116.71 1434.15,-84.28 1341.49,-72.37"/>
<polygon fill="midnightblue" stroke="midnightblue" points="1341.89,-68.9 1331.53,-71.12 1341.01,-75.84 1341.89,-68.9"/>
</g>
<!-- Node36&#45;&gt;Node9 -->
<g id="edge67" class="edge">
<title>Node36&#45;&gt;Node9</title>
<path fill="none" stroke="midnightblue" d="M1118.91,-459.39C1128.87,-446.32 1149.05,-421.11 1169.5,-403 1182.62,-391.39 1198.86,-380.28 1211.95,-372"/>
<polygon fill="midnightblue" stroke="midnightblue" points="1214.17,-374.74 1220.84,-366.51 1210.49,-368.79 1214.17,-374.74"/>
</g>
<!-- Node36&#45;&gt;Node10 -->
<g id="edge61" class="edge">
<title>Node36&#45;&gt;Node10</title>
<path fill="none" stroke="midnightblue" d="M1088.31,-459.4C1018.16,-432.86 822.02,-346.6 860.5,-224 869.58,-195.06 873.73,-183.99 899.5,-168 939.7,-143.05 1070.95,-130.99 1146.19,-125.99"/>
<polygon fill="midnightblue" stroke="midnightblue" points="1146.67,-129.47 1156.42,-125.33 1146.22,-122.48 1146.67,-129.47"/>
</g>
<!-- Node36&#45;&gt;Node11 -->
<g id="edge63" class="edge">
<title>Node36&#45;&gt;Node11</title>
<path fill="none" stroke="midnightblue" d="M1169.15,-464.58C1208.72,-459.89 1261.27,-448.85 1300.5,-423 1365.36,-380.26 1410.81,-295.53 1428.41,-258.52"/>
<polygon fill="midnightblue" stroke="midnightblue" points="1431.77,-259.58 1432.8,-249.03 1425.42,-256.64 1431.77,-259.58"/>
</g>
<!-- Node36&#45;&gt;Node22 -->
<g id="edge62" class="edge">
<title>Node36&#45;&gt;Node22</title>
<path fill="none" stroke="midnightblue" d="M1055.87,-463.73C966.1,-456.46 799.13,-440.74 778.5,-423 755.68,-403.38 759.5,-388.1 759.5,-358 759.5,-358 759.5,-358 759.5,-300 759.5,-263.71 759.5,-221.31 759.5,-197.56"/>
<polygon fill="midnightblue" stroke="midnightblue" points="763,-197.51 759.5,-187.51 756,-197.51 763,-197.51"/>
</g>
<!-- Node37 -->
<g id="node37" class="node">
<title>Node37</title>
<g id="a_node37"><a xlink:href="sitkEvent_8h.html" target="_top" xlink:title=" ">
<polygon fill="white" stroke="black" points="1085,-230 1085,-249 1156,-249 1156,-230 1085,-230"/>
<text text-anchor="middle" x="1120.5" y="-237" font-family="Helvetica,sans-Serif" font-size="10.00">sitkEvent.h</text>
</a>
</g>
</g>
<!-- Node36&#45;&gt;Node37 -->
<g id="edge64" class="edge">
<title>Node36&#45;&gt;Node37</title>
<path fill="none" stroke="midnightblue" d="M1112.8,-459.36C1113.97,-426.14 1118.19,-306.16 1119.84,-259.37"/>
<polygon fill="midnightblue" stroke="midnightblue" points="1123.34,-259.27 1120.2,-249.15 1116.35,-259.02 1123.34,-259.27"/>
</g>
<!-- Node38 -->
<g id="node38" class="node">
<title>Node38</title>
<g id="a_node38"><a xlink:href="sitkImageConvert_8h.html" target="_top" xlink:title=" ">
<polygon fill="white" stroke="black" points="1179,-403.5 1179,-422.5 1292,-422.5 1292,-403.5 1179,-403.5"/>
<text text-anchor="middle" x="1235.5" y="-410.5" font-family="Helvetica,sans-Serif" font-size="10.00">sitkImageConvert.h</text>
</a>
</g>
</g>
<!-- Node36&#45;&gt;Node38 -->
<g id="edge68" class="edge">
<title>Node36&#45;&gt;Node38</title>
<path fill="none" stroke="midnightblue" d="M1131.99,-459.44C1152.14,-450.6 1183.82,-436.69 1206.83,-426.59"/>
<polygon fill="midnightblue" stroke="midnightblue" points="1208.35,-429.74 1216.1,-422.52 1205.54,-423.33 1208.35,-429.74"/>
</g>
<!-- Node39 -->
<g id="node39" class="node">
<title>Node39</title>
<g id="a_node39"><a xlink:title=" ">
<polygon fill="white" stroke="#bfbfbf" points="787.5,-403.5 787.5,-422.5 847.5,-422.5 847.5,-403.5 787.5,-403.5"/>
<text text-anchor="middle" x="817.5" y="-410.5" font-family="Helvetica,sans-Serif" font-size="10.00">iostream</text>
</a>
</g>
</g>
<!-- Node36&#45;&gt;Node39 -->
<g id="edge70" class="edge">
<title>Node36&#45;&gt;Node39</title>
<path fill="none" stroke="midnightblue" d="M1058.9,-459.42C1009.23,-451.29 933.05,-438.32 857.82,-423.19"/>
<polygon fill="midnightblue" stroke="midnightblue" points="858.2,-419.69 847.7,-421.13 856.81,-426.55 858.2,-419.69"/>
</g>
<!-- Node40 -->
<g id="node40" class="node">
<title>Node40</title>
<g id="a_node40"><a xlink:title=" ">
<polygon fill="white" stroke="#bfbfbf" points="865.5,-403.5 865.5,-422.5 897.5,-422.5 897.5,-403.5 865.5,-403.5"/>
<text text-anchor="middle" x="881.5" y="-410.5" font-family="Helvetica,sans-Serif" font-size="10.00">list</text>
</a>
</g>
</g>
<!-- Node36&#45;&gt;Node40 -->
<g id="edge71" class="edge">
<title>Node36&#45;&gt;Node40</title>
<path fill="none" stroke="midnightblue" d="M1070.33,-459.47C1029.51,-451 965.99,-437.25 911.5,-423 910.23,-422.67 908.93,-422.32 907.62,-421.96"/>
<polygon fill="midnightblue" stroke="midnightblue" points="908.21,-418.48 897.63,-419.07 906.27,-425.21 908.21,-418.48"/>
</g>
<!-- Node37&#45;&gt;Node10 -->
<g id="edge65" class="edge">
<title>Node37&#45;&gt;Node10</title>
<path fill="none" stroke="midnightblue" d="M1114.96,-229.98C1106.61,-215.97 1093.05,-187.67 1105.5,-168 1115.55,-152.13 1132.87,-141.74 1150,-135"/>
<polygon fill="midnightblue" stroke="midnightblue" points="1151.21,-138.28 1159.45,-131.62 1148.85,-131.69 1151.21,-138.28"/>
</g>
<!-- Node37&#45;&gt;Node14 -->
<g id="edge66" class="edge">
<title>Node37&#45;&gt;Node14</title>
<path fill="none" stroke="midnightblue" d="M1123.8,-229.98C1127.11,-221.4 1132.32,-207.93 1136.55,-196.98"/>
<polygon fill="midnightblue" stroke="midnightblue" points="1139.87,-198.1 1140.21,-187.51 1133.34,-195.57 1139.87,-198.1"/>
</g>
<!-- Node38&#45;&gt;Node9 -->
<g id="edge69" class="edge">
<title>Node38&#45;&gt;Node9</title>
<path fill="none" stroke="midnightblue" d="M1235.5,-403.08C1235.5,-396.01 1235.5,-385.86 1235.5,-376.99"/>
<polygon fill="midnightblue" stroke="midnightblue" points="1239,-376.75 1235.5,-366.75 1232,-376.75 1239,-376.75"/>
</g>
</g>
</svg>
        <g id="navigator" transform="translate(0 0)" fill="#404254">
                <rect fill="#f2f5e9" fill-opacity="0.5" stroke="#606060" stroke-width=".5" x="0" y="0" width="60" height="60"/>
                <use id="zoomplus" xlink:href="#zoomPlus" x="17" y="9" onmousedown="handleZoom(evt,'in')"/>
                <use id="zoomminus" xlink:href="#zoomMin" x="42" y="9" onmousedown="handleZoom(evt,'out')"/>
                <use id="reset" xlink:href="#resetDef" x="30" y="36" onmousedown="handleReset()"/>
                <g id="arrowUp" xlink:href="#dirArrow" transform="translate(30 24)" onmousedown="handlePan(0,-1)">
                  <use xlink:href="#rim" fill="#404040">
                        <set attributeName="fill" to="#808080" begin="arrowUp.mouseover" end="arrowUp.mouseout"/>
                  </use>
                  <path fill="none" stroke="white" stroke-width="1.5" d="M0,-3.0v7 M-2.5,-0.5L0,-3.0L2.5,-0.5"/>
                </g>
                <g id="arrowRight" xlink:href="#dirArrow" transform="rotate(90) translate(36 -43)" onmousedown="handlePan(1,0)">
                  <use xlink:href="#rim" fill="#404040">
                        <set attributeName="fill" to="#808080" begin="arrowRight.mouseover" end="arrowRight.mouseout"/>
                  </use>
                  <path fill="none" stroke="white" stroke-width="1.5" d="M0,-3.0v7 M-2.5,-0.5L0,-3.0L2.5,-0.5"/>
                </g>
                <g id="arrowDown" xlink:href="#dirArrow" transform="rotate(180) translate(-30 -48)" onmousedown="handlePan(0,1)">
                  <use xlink:href="#rim" fill="#404040">
                        <set attributeName="fill" to="#808080" begin="arrowDown.mouseover" end="arrowDown.mouseout"/>
                  </use>
                  <path fill="none" stroke="white" stroke-width="1.5" d="M0,-3.0v7 M-2.5,-0.5L0,-3.0L2.5,-0.5"/>
                </g>
                <g id="arrowLeft" xlink:href="#dirArrow" transform="rotate(270) translate(-36 17)" onmousedown="handlePan(-1,0)">
                  <use xlink:href="#rim" fill="#404040">
                        <set attributeName="fill" to="#808080" begin="arrowLeft.mouseover" end="arrowLeft.mouseout"/>
                  </use>
                  <path fill="none" stroke="white" stroke-width="1.5" d="M0,-3.0v7 M-2.5,-0.5L0,-3.0L2.5,-0.5"/>
                </g>
        </g>
        <svg viewBox="0 0 15 15" width="100%" height="30px" preserveAspectRatio="xMaxYMin meet">
         <g id="arrow_out" transform="scale(0.3 0.3)">
          <a xlink:href="sitkImageFileWriter_8h__incl_org.svg" target="_base">
           <rect id="button" ry="5" rx="5" y="6" x="6" height="38" width="38"
                fill="#f2f5e9" fill-opacity="0.5" stroke="#606060" stroke-width="1.0"/>
           <path id="arrow"
             d="M 11.500037,31.436501 C 11.940474,20.09759 22.043105,11.32322 32.158766,21.979434 L 37.068811,17.246167 C 37.068811,17.246167 37.088388,32 37.088388,32 L 22.160133,31.978069 C 22.160133,31.978069 26.997745,27.140456 26.997745,27.140456 C 18.528582,18.264221 13.291696,25.230495 11.500037,31.436501 z"
             style="fill:#404040;"/>
          </a>
         </g>
        </svg>
</svg>
