<?xml version="1.0" encoding="UTF-8" standalone="no"?>
<!DOCTYPE svg PUBLIC "-//W3C//DTD SVG 1.1//EN"
 "http://www.w3.org/Graphics/SVG/1.1/DTD/svg11.dtd">
<!-- Generated by graphviz version 2.43.0 (0)
 -->
<!-- Title: sitkInterpolator.h Pages: 1 -->
<svg width="7800pt" height="207pt"
 viewBox="0.00 0.00 7800.44 207.00" xmlns="http://www.w3.org/2000/svg" xmlns:xlink="http://www.w3.org/1999/xlink">
<g id="graph0" class="graph" transform="scale(1 1) rotate(0) translate(4 203)">
<title>sitkInterpolator.h</title>
<polygon fill="white" stroke="transparent" points="-4,4 -4,-203 7796.44,-203 7796.44,4 -4,4"/>
<!-- Node1 -->
<g id="node1" class="node">
<title>Node1</title>
<g id="a_node1"><a xlink:title=" ">
<polygon fill="#bfbfbf" stroke="black" points="214.94,-179.5 214.94,-198.5 314.94,-198.5 314.94,-179.5 214.94,-179.5"/>
<text text-anchor="middle" x="264.94" y="-186.5" font-family="Helvetica,sans-Serif" font-size="10.00">sitkInterpolator.h</text>
</a>
</g>
</g>
<!-- Node2 -->
<g id="node2" class="node">
<title>Node2</title>
<g id="a_node2"><a xlink:href="SimpleITK_8h.html" target="_top" xlink:title=" ">
<polygon fill="white" stroke="black" points="193.44,-0.5 193.44,-19.5 268.44,-19.5 268.44,-0.5 193.44,-0.5"/>
<text text-anchor="middle" x="230.94" y="-7.5" font-family="Helvetica,sans-Serif" font-size="10.00">SimpleITK.h</text>
</a>
</g>
</g>
<!-- Node1&#45;&gt;Node2 -->
<g id="edge1" class="edge">
<title>Node1&#45;&gt;Node2</title>
<path fill="none" stroke="midnightblue" d="M204.77,-185.91C137.88,-182.17 36.06,-171.79 11.94,-143 -44.44,-75.71 116.96,-33.61 193.33,-17.94"/>
<polygon fill="midnightblue" stroke="midnightblue" points="204.61,-189.41 214.78,-186.44 204.97,-182.42 204.61,-189.41"/>
</g>
<!-- Node3 -->
<g id="node3" class="node">
<title>Node3</title>
<g id="a_node3"><a xlink:href="sitkAdditionalProcedures_8h.html" target="_top" xlink:title=" ">
<polygon fill="white" stroke="black" points="316.44,-62 316.44,-81 463.44,-81 463.44,-62 316.44,-62"/>
<text text-anchor="middle" x="389.94" y="-69" font-family="Helvetica,sans-Serif" font-size="10.00">sitkAdditionalProcedures.h</text>
</a>
</g>
</g>
<!-- Node1&#45;&gt;Node3 -->
<g id="edge2" class="edge">
<title>Node1&#45;&gt;Node3</title>
<path fill="none" stroke="midnightblue" d="M295.16,-175.03C310.9,-167.29 329.76,-156.35 343.94,-143 363.73,-124.37 379.05,-95.59 385.94,-81.25"/>
<polygon fill="midnightblue" stroke="midnightblue" points="293.38,-172 285.83,-179.44 296.37,-178.33 293.38,-172"/>
</g>
<!-- Node4 -->
<g id="node4" class="node">
<title>Node4</title>
<g id="a_node4"><a xlink:href="sitkBasicFilters_8h.html" target="_top" xlink:title=" ">
<polygon fill="white" stroke="red" points="3823.94,-123.5 3823.94,-142.5 3923.94,-142.5 3923.94,-123.5 3823.94,-123.5"/>
<text text-anchor="middle" x="3873.94" y="-130.5" font-family="Helvetica,sans-Serif" font-size="10.00">sitkBasicFilters.h</text>
</a>
</g>
</g>
<!-- Node1&#45;&gt;Node4 -->
<g id="edge4" class="edge">
<title>Node1&#45;&gt;Node4</title>
<path fill="none" stroke="midnightblue" d="M325.47,-187.09C762.05,-180.56 3424.19,-140.73 3823.76,-134.75"/>
<polygon fill="midnightblue" stroke="midnightblue" points="325.22,-183.6 315.27,-187.25 325.32,-190.6 325.22,-183.6"/>
</g>
<!-- Node307 -->
<g id="node48" class="node">
<title>Node307</title>
<g id="a_node48"><a xlink:href="sitkDisplacementFieldTransform_8h.html" target="_top" xlink:title=" ">
<polygon fill="white" stroke="black" points="21.44,-123.5 21.44,-142.5 204.44,-142.5 204.44,-123.5 21.44,-123.5"/>
<text text-anchor="middle" x="112.94" y="-130.5" font-family="Helvetica,sans-Serif" font-size="10.00">sitkDisplacementFieldTransform.h</text>
</a>
</g>
</g>
<!-- Node1&#45;&gt;Node307 -->
<g id="edge50" class="edge">
<title>Node1&#45;&gt;Node307</title>
<path fill="none" stroke="midnightblue" d="M231.27,-176.04C202.67,-165.88 162.33,-151.55 136.91,-142.52"/>
<polygon fill="midnightblue" stroke="midnightblue" points="230.26,-179.39 240.86,-179.44 232.61,-172.8 230.26,-179.39"/>
</g>
<!-- Node308 -->
<g id="node49" class="node">
<title>Node308</title>
<g id="a_node49"><a xlink:href="sitkImage_8h.html" target="_top" xlink:title=" ">
<polygon fill="white" stroke="red" points="260.94,-123.5 260.94,-142.5 334.94,-142.5 334.94,-123.5 260.94,-123.5"/>
<text text-anchor="middle" x="297.94" y="-130.5" font-family="Helvetica,sans-Serif" font-size="10.00">sitkImage.h</text>
</a>
</g>
</g>
<!-- Node1&#45;&gt;Node308 -->
<g id="edge52" class="edge">
<title>Node1&#45;&gt;Node308</title>
<path fill="none" stroke="midnightblue" d="M275.77,-170.27C281.41,-161.05 288.06,-150.17 292.59,-142.75"/>
<polygon fill="midnightblue" stroke="midnightblue" points="272.62,-168.73 270.39,-179.08 278.59,-172.38 272.62,-168.73"/>
</g>
<!-- Node316 -->
<g id="node50" class="node">
<title>Node316</title>
<g id="a_node50"><a xlink:href="sitkImageRegistrationMethod_8h.html" target="_top" xlink:title=" ">
<polygon fill="white" stroke="black" points="89.94,-62 89.94,-81 259.94,-81 259.94,-62 89.94,-62"/>
<text text-anchor="middle" x="174.94" y="-69" font-family="Helvetica,sans-Serif" font-size="10.00">sitkImageRegistrationMethod.h</text>
</a>
</g>
</g>
<!-- Node1&#45;&gt;Node316 -->
<g id="edge57" class="edge">
<title>Node1&#45;&gt;Node316</title>
<path fill="none" stroke="midnightblue" d="M251.83,-171.17C232.42,-146.26 196.71,-100.44 181.78,-81.28"/>
<polygon fill="midnightblue" stroke="midnightblue" points="249.27,-173.58 258.18,-179.32 254.79,-169.28 249.27,-173.58"/>
</g>
<!-- Node3&#45;&gt;Node2 -->
<g id="edge3" class="edge">
<title>Node3&#45;&gt;Node2</title>
<path fill="none" stroke="midnightblue" d="M357.7,-58.43C326.79,-46.87 280.94,-29.71 253.68,-19.51"/>
<polygon fill="midnightblue" stroke="midnightblue" points="356.57,-61.75 367.16,-61.98 359.02,-55.19 356.57,-61.75"/>
</g>
<!-- Node4&#45;&gt;Node3 -->
<g id="edge10" class="edge">
<title>Node4&#45;&gt;Node3</title>
<path fill="none" stroke="midnightblue" d="M3813.5,-131.78C3385.37,-130.17 817.68,-119.19 472.94,-87 459.25,-85.72 444.42,-83.43 431.14,-81.04"/>
<polygon fill="midnightblue" stroke="midnightblue" points="3813.79,-135.28 3823.8,-131.82 3813.81,-128.28 3813.79,-135.28"/>
</g>
<!-- Node5 -->
<g id="node5" class="node">
<title>Node5</title>
<g id="a_node5"><a xlink:href="sitkAbsImageFilter_8h.html" target="_top" xlink:title=" ">
<polygon fill="white" stroke="red" points="7154.94,-62 7154.94,-81 7270.94,-81 7270.94,-62 7154.94,-62"/>
<text text-anchor="middle" x="7212.94" y="-69" font-family="Helvetica,sans-Serif" font-size="10.00">sitkAbsImageFilter.h</text>
</a>
</g>
</g>
<!-- Node4&#45;&gt;Node5 -->
<g id="edge5" class="edge">
<title>Node4&#45;&gt;Node5</title>
<path fill="none" stroke="midnightblue" d="M3934.08,-131.9C4351.93,-131.07 6815.5,-124.65 7145.94,-87 7157.06,-85.73 7169.04,-83.44 7179.76,-81.05"/>
<polygon fill="midnightblue" stroke="midnightblue" points="3934.01,-128.4 3924.02,-131.91 3934.03,-135.4 3934.01,-128.4"/>
</g>
<!-- Node8 -->
<g id="node6" class="node">
<title>Node8</title>
<g id="a_node6"><a xlink:href="sitkAbsoluteValueDifferenceImageFilter_8h.html" target="_top" xlink:title=" ">
<polygon fill="white" stroke="red" points="7289.44,-56.5 7289.44,-86.5 7444.44,-86.5 7444.44,-56.5 7289.44,-56.5"/>
<text text-anchor="start" x="7297.44" y="-74.5" font-family="Helvetica,sans-Serif" font-size="10.00">sitkAbsoluteValueDifference</text>
<text text-anchor="middle" x="7366.94" y="-63.5" font-family="Helvetica,sans-Serif" font-size="10.00">ImageFilter.h</text>
</a>
</g>
</g>
<!-- Node4&#45;&gt;Node8 -->
<g id="edge6" class="edge">
<title>Node4&#45;&gt;Node8</title>
<path fill="none" stroke="midnightblue" d="M3934.47,-131.76C4363.21,-129.95 6934.57,-117.88 7279.94,-87 7282.99,-86.73 7286.1,-86.41 7289.23,-86.05"/>
<polygon fill="midnightblue" stroke="midnightblue" points="3934.14,-128.26 3924.16,-131.8 3934.17,-135.26 3934.14,-128.26"/>
</g>
<!-- Node9 -->
<g id="node7" class="node">
<title>Node9</title>
<g id="a_node7"><a xlink:href="sitkAcosImageFilter_8h.html" target="_top" xlink:title=" ">
<polygon fill="white" stroke="red" points="7462.94,-62 7462.94,-81 7584.94,-81 7584.94,-62 7462.94,-62"/>
<text text-anchor="middle" x="7523.94" y="-69" font-family="Helvetica,sans-Serif" font-size="10.00">sitkAcosImageFilter.h</text>
</a>
</g>
</g>
<!-- Node4&#45;&gt;Node9 -->
<g id="edge7" class="edge">
<title>Node4&#45;&gt;Node9</title>
<path fill="none" stroke="midnightblue" d="M3934.42,-131.94C4375.54,-131.41 7090.77,-126.53 7453.94,-87 7465.54,-85.74 7478.06,-83.45 7489.26,-81.05"/>
<polygon fill="midnightblue" stroke="midnightblue" points="3934.12,-128.44 3924.12,-131.95 3934.13,-135.44 3934.12,-128.44"/>
</g>
<!-- Node10 -->
<g id="node8" class="node">
<title>Node10</title>
<g id="a_node8"><a xlink:href="sitkAdaptiveHistogramEqualizationImageFilter_8h.html" target="_top" xlink:title=" ">
<polygon fill="white" stroke="red" points="7603.44,-56.5 7603.44,-86.5 7792.44,-86.5 7792.44,-56.5 7603.44,-56.5"/>
<text text-anchor="start" x="7611.44" y="-74.5" font-family="Helvetica,sans-Serif" font-size="10.00">sitkAdaptiveHistogramEqualization</text>
<text text-anchor="middle" x="7697.94" y="-63.5" font-family="Helvetica,sans-Serif" font-size="10.00">ImageFilter.h</text>
</a>
</g>
</g>
<!-- Node4&#45;&gt;Node10 -->
<g id="edge8" class="edge">
<title>Node4&#45;&gt;Node10</title>
<path fill="none" stroke="midnightblue" d="M3934.27,-131.73C4384.65,-129.67 7214.72,-115.61 7593.94,-87 7597.03,-86.77 7600.17,-86.5 7603.34,-86.21"/>
<polygon fill="midnightblue" stroke="midnightblue" points="3934.06,-128.23 3924.08,-131.78 3934.09,-135.23 3934.06,-128.23"/>
</g>
<!-- Node11 -->
<g id="node9" class="node">
<title>Node11</title>
<g id="a_node9"><a xlink:href="sitkAddImageFilter_8h.html" target="_top" xlink:title=" ">
<polygon fill="white" stroke="red" points="481.44,-62 481.44,-81 598.44,-81 598.44,-62 481.44,-62"/>
<text text-anchor="middle" x="539.94" y="-69" font-family="Helvetica,sans-Serif" font-size="10.00">sitkAddImageFilter.h</text>
</a>
</g>
</g>
<!-- Node4&#45;&gt;Node11 -->
<g id="edge9" class="edge">
<title>Node4&#45;&gt;Node11</title>
<path fill="none" stroke="midnightblue" d="M3813.58,-131.88C3395.54,-130.97 937.75,-124.07 607.94,-87 596.67,-85.73 584.5,-83.44 573.62,-81.05"/>
<polygon fill="midnightblue" stroke="midnightblue" points="3813.64,-135.38 3823.65,-131.9 3813.66,-128.38 3813.64,-135.38"/>
</g>
<!-- Node13 -->
<g id="node10" class="node">
<title>Node13</title>
<g id="a_node10"><a xlink:href="sitkAdditiveGaussianNoiseImageFilter_8h.html" target="_top" xlink:title=" ">
<polygon fill="white" stroke="red" points="616.94,-56.5 616.94,-86.5 764.94,-86.5 764.94,-56.5 616.94,-56.5"/>
<text text-anchor="start" x="624.94" y="-74.5" font-family="Helvetica,sans-Serif" font-size="10.00">sitkAdditiveGaussianNoise</text>
<text text-anchor="middle" x="690.94" y="-63.5" font-family="Helvetica,sans-Serif" font-size="10.00">ImageFilter.h</text>
</a>
</g>
</g>
<!-- Node4&#45;&gt;Node13 -->
<g id="edge11" class="edge">
<title>Node4&#45;&gt;Node13</title>
<path fill="none" stroke="midnightblue" d="M3813.84,-131.69C3409.1,-129.56 1087.76,-116.09 774.94,-87 771.7,-86.7 768.39,-86.34 765.06,-85.94"/>
<polygon fill="midnightblue" stroke="midnightblue" points="3813.86,-135.19 3823.87,-131.75 3813.89,-128.19 3813.86,-135.19"/>
</g>
<!-- Node14 -->
<g id="node11" class="node">
<title>Node14</title>
<g id="a_node11"><a xlink:href="sitkAggregateLabelMapFilter_8h.html" target="_top" xlink:title=" ">
<polygon fill="white" stroke="red" points="783.44,-62 783.44,-81 948.44,-81 948.44,-62 783.44,-62"/>
<text text-anchor="middle" x="865.94" y="-69" font-family="Helvetica,sans-Serif" font-size="10.00">sitkAggregateLabelMapFilter.h</text>
</a>
</g>
</g>
<!-- Node4&#45;&gt;Node14 -->
<g id="edge12" class="edge">
<title>Node4&#45;&gt;Node14</title>
<path fill="none" stroke="midnightblue" d="M3813.63,-132.23C3449.56,-133.43 1541.12,-137.2 957.94,-87 942.8,-85.7 926.37,-83.4 911.65,-81"/>
<polygon fill="midnightblue" stroke="midnightblue" points="3813.71,-135.73 3823.7,-132.19 3813.69,-128.73 3813.71,-135.73"/>
</g>
<!-- Node15 -->
<g id="node12" class="node">
<title>Node15</title>
<g id="a_node12"><a xlink:href="sitkAndImageFilter_8h.html" target="_top" xlink:title=" ">
<polygon fill="white" stroke="red" points="966.44,-62 966.44,-81 1083.44,-81 1083.44,-62 966.44,-62"/>
<text text-anchor="middle" x="1024.94" y="-69" font-family="Helvetica,sans-Serif" font-size="10.00">sitkAndImageFilter.h</text>
</a>
</g>
</g>
<!-- Node4&#45;&gt;Node15 -->
<g id="edge13" class="edge">
<title>Node4&#45;&gt;Node15</title>
<path fill="none" stroke="midnightblue" d="M3813.53,-131.73C3432.68,-129.91 1371.46,-118.65 1092.94,-87 1081.67,-85.72 1069.5,-83.42 1058.63,-81.03"/>
<polygon fill="midnightblue" stroke="midnightblue" points="3813.76,-135.23 3823.78,-131.77 3813.8,-128.23 3813.76,-135.23"/>
</g>
<!-- Node16 -->
<g id="node13" class="node">
<title>Node16</title>
<g id="a_node13"><a xlink:href="sitkAntiAliasBinaryImageFilter_8h.html" target="_top" xlink:title=" ">
<polygon fill="white" stroke="red" points="1101.94,-56.5 1101.94,-86.5 1241.94,-86.5 1241.94,-56.5 1101.94,-56.5"/>
<text text-anchor="start" x="1109.94" y="-74.5" font-family="Helvetica,sans-Serif" font-size="10.00">sitkAntiAliasBinaryImage</text>
<text text-anchor="middle" x="1171.94" y="-63.5" font-family="Helvetica,sans-Serif" font-size="10.00">Filter.h</text>
</a>
</g>
</g>
<!-- Node4&#45;&gt;Node16 -->
<g id="edge14" class="edge">
<title>Node4&#45;&gt;Node16</title>
<path fill="none" stroke="midnightblue" d="M3813.52,-131.55C3445.65,-128.74 1514.12,-112.84 1251.94,-87 1248.71,-86.68 1245.41,-86.3 1242.09,-85.88"/>
<polygon fill="midnightblue" stroke="midnightblue" points="3813.67,-135.05 3823.69,-131.63 3813.72,-128.05 3813.67,-135.05"/>
</g>
<!-- Node17 -->
<g id="node14" class="node">
<title>Node17</title>
<g id="a_node14"><a xlink:href="sitkApproximateSignedDistanceMapImageFilter_8h.html" target="_top" xlink:title=" ">
<polygon fill="white" stroke="red" points="1260.44,-56.5 1260.44,-86.5 1433.44,-86.5 1433.44,-56.5 1260.44,-56.5"/>
<text text-anchor="start" x="1268.44" y="-74.5" font-family="Helvetica,sans-Serif" font-size="10.00">sitkApproximateSignedDistance</text>
<text text-anchor="middle" x="1346.94" y="-63.5" font-family="Helvetica,sans-Serif" font-size="10.00">MapImageFilter.h</text>
</a>
</g>
</g>
<!-- Node4&#45;&gt;Node17 -->
<g id="edge15" class="edge">
<title>Node4&#45;&gt;Node17</title>
<path fill="none" stroke="midnightblue" d="M3813.59,-131.96C3486.59,-131.58 1924.07,-127.61 1442.94,-87 1439.83,-86.74 1436.67,-86.44 1433.49,-86.11"/>
<polygon fill="midnightblue" stroke="midnightblue" points="3813.8,-135.46 3823.81,-131.97 3813.81,-128.46 3813.8,-135.46"/>
</g>
<!-- Node18 -->
<g id="node15" class="node">
<title>Node18</title>
<g id="a_node15"><a xlink:href="sitkAsinImageFilter_8h.html" target="_top" xlink:title=" ">
<polygon fill="white" stroke="red" points="1451.44,-62 1451.44,-81 1570.44,-81 1570.44,-62 1451.44,-62"/>
<text text-anchor="middle" x="1510.94" y="-69" font-family="Helvetica,sans-Serif" font-size="10.00">sitkAsinImageFilter.h</text>
</a>
</g>
</g>
<!-- Node4&#45;&gt;Node18 -->
<g id="edge16" class="edge">
<title>Node4&#45;&gt;Node18</title>
<path fill="none" stroke="midnightblue" d="M3813.68,-131.49C3474.16,-128.55 1807.26,-112.88 1579.94,-87 1568.51,-85.7 1556.17,-83.4 1545.13,-81.01"/>
<polygon fill="midnightblue" stroke="midnightblue" points="3813.77,-134.99 3823.8,-131.58 3813.83,-127.99 3813.77,-134.99"/>
</g>
<!-- Node19 -->
<g id="node16" class="node">
<title>Node19</title>
<g id="a_node16"><a xlink:href="sitkAtan2ImageFilter_8h.html" target="_top" xlink:title=" ">
<polygon fill="white" stroke="red" points="1588.44,-62 1588.44,-81 1715.44,-81 1715.44,-62 1588.44,-62"/>
<text text-anchor="middle" x="1651.94" y="-69" font-family="Helvetica,sans-Serif" font-size="10.00">sitkAtan2ImageFilter.h</text>
</a>
</g>
</g>
<!-- Node4&#45;&gt;Node19 -->
<g id="edge17" class="edge">
<title>Node4&#45;&gt;Node19</title>
<path fill="none" stroke="midnightblue" d="M3813.4,-132.16C3509.24,-132.77 2145.88,-132.85 1724.94,-87 1713,-85.7 1700.1,-83.43 1688.51,-81.07"/>
<polygon fill="midnightblue" stroke="midnightblue" points="3813.78,-135.66 3823.77,-132.14 3813.77,-128.66 3813.78,-135.66"/>
</g>
<!-- Node20 -->
<g id="node17" class="node">
<title>Node20</title>
<g id="a_node17"><a xlink:href="sitkAtanImageFilter_8h.html" target="_top" xlink:title=" ">
<polygon fill="white" stroke="red" points="1733.44,-62 1733.44,-81 1854.44,-81 1854.44,-62 1733.44,-62"/>
<text text-anchor="middle" x="1793.94" y="-69" font-family="Helvetica,sans-Serif" font-size="10.00">sitkAtanImageFilter.h</text>
</a>
</g>
</g>
<!-- Node4&#45;&gt;Node20 -->
<g id="edge18" class="edge">
<title>Node4&#45;&gt;Node20</title>
<path fill="none" stroke="midnightblue" d="M3813.1,-132.13C3520.44,-132.52 2255.55,-131.57 1863.94,-87 1852.47,-85.69 1840.1,-83.42 1828.99,-81.06"/>
<polygon fill="midnightblue" stroke="midnightblue" points="3813.51,-135.63 3823.51,-132.11 3813.5,-128.63 3813.51,-135.63"/>
</g>
<!-- Node21 -->
<g id="node18" class="node">
<title>Node21</title>
<g id="a_node18"><a xlink:href="sitkBSplineDecompositionImageFilter_8h.html" target="_top" xlink:title=" ">
<polygon fill="white" stroke="red" points="1872.44,-56.5 1872.44,-86.5 2017.44,-86.5 2017.44,-56.5 1872.44,-56.5"/>
<text text-anchor="start" x="1880.44" y="-74.5" font-family="Helvetica,sans-Serif" font-size="10.00">sitkBSplineDecomposition</text>
<text text-anchor="middle" x="1944.94" y="-63.5" font-family="Helvetica,sans-Serif" font-size="10.00">ImageFilter.h</text>
</a>
</g>
</g>
<!-- Node4&#45;&gt;Node21 -->
<g id="edge19" class="edge">
<title>Node4&#45;&gt;Node21</title>
<path fill="none" stroke="midnightblue" d="M3813.62,-131.75C3536.68,-130.43 2385.38,-122.85 2026.94,-87 2023.92,-86.7 2020.84,-86.35 2017.74,-85.96"/>
<polygon fill="midnightblue" stroke="midnightblue" points="3813.85,-135.25 3823.86,-131.8 3813.88,-128.25 3813.85,-135.25"/>
</g>
<!-- Node22 -->
<g id="node19" class="node">
<title>Node22</title>
<g id="a_node19"><a xlink:href="sitkBSplineTransformInitializerFilter_8h.html" target="_top" xlink:title=" ">
<polygon fill="white" stroke="black" points="6970.94,-56.5 6970.94,-86.5 7136.94,-86.5 7136.94,-56.5 6970.94,-56.5"/>
<text text-anchor="start" x="6978.94" y="-74.5" font-family="Helvetica,sans-Serif" font-size="10.00">sitkBSplineTransformInitializer</text>
<text text-anchor="middle" x="7053.94" y="-63.5" font-family="Helvetica,sans-Serif" font-size="10.00">Filter.h</text>
</a>
</g>
</g>
<!-- Node4&#45;&gt;Node22 -->
<g id="edge20" class="edge">
<title>Node4&#45;&gt;Node22</title>
<path fill="none" stroke="midnightblue" d="M3934.15,-131.64C4338.33,-129.13 6650.11,-113.71 6961.94,-87 6964.84,-86.75 6967.79,-86.47 6970.76,-86.15"/>
<polygon fill="midnightblue" stroke="midnightblue" points="3934.1,-128.14 3924.13,-131.7 3934.15,-135.14 3934.1,-128.14"/>
</g>
<!-- Node23 -->
<g id="node20" class="node">
<title>Node23</title>
<g id="a_node20"><a xlink:href="sitkBilateralImageFilter_8h.html" target="_top" xlink:title=" ">
<polygon fill="white" stroke="red" points="2035.94,-62 2035.94,-81 2175.94,-81 2175.94,-62 2035.94,-62"/>
<text text-anchor="middle" x="2105.94" y="-69" font-family="Helvetica,sans-Serif" font-size="10.00">sitkBilateralImageFilter.h</text>
</a>
</g>
</g>
<!-- Node4&#45;&gt;Node23 -->
<g id="edge22" class="edge">
<title>Node4&#45;&gt;Node23</title>
<path fill="none" stroke="midnightblue" d="M3813.74,-131.63C3551.97,-129.82 2511.29,-120.62 2185.94,-87 2172.88,-85.65 2158.76,-83.37 2146.06,-81.01"/>
<polygon fill="midnightblue" stroke="midnightblue" points="3813.79,-135.13 3823.81,-131.7 3813.84,-128.13 3813.79,-135.13"/>
</g>
<!-- Node24 -->
<g id="node21" class="node">
<title>Node24</title>
<g id="a_node21"><a xlink:href="sitkBinShrinkImageFilter_8h.html" target="_top" xlink:title=" ">
<polygon fill="white" stroke="red" points="2194.44,-62 2194.44,-81 2339.44,-81 2339.44,-62 2194.44,-62"/>
<text text-anchor="middle" x="2266.94" y="-69" font-family="Helvetica,sans-Serif" font-size="10.00">sitkBinShrinkImageFilter.h</text>
</a>
</g>
</g>
<!-- Node4&#45;&gt;Node24 -->
<g id="edge23" class="edge">
<title>Node4&#45;&gt;Node24</title>
<path fill="none" stroke="midnightblue" d="M3813.62,-131.39C3567.76,-128.74 2640.52,-116.92 2348.94,-87 2335.71,-85.64 2321.4,-83.39 2308.49,-81.06"/>
<polygon fill="midnightblue" stroke="midnightblue" points="3813.75,-134.9 3823.79,-131.5 3813.83,-127.9 3813.75,-134.9"/>
</g>
<!-- Node25 -->
<g id="node22" class="node">
<title>Node25</title>
<g id="a_node22"><a xlink:href="sitkBinaryClosingByReconstructionImageFilter_8h.html" target="_top" xlink:title=" ">
<polygon fill="white" stroke="red" points="2357.94,-56.5 2357.94,-86.5 2545.94,-86.5 2545.94,-56.5 2357.94,-56.5"/>
<text text-anchor="start" x="2365.94" y="-74.5" font-family="Helvetica,sans-Serif" font-size="10.00">sitkBinaryClosingByReconstruction</text>
<text text-anchor="middle" x="2451.94" y="-63.5" font-family="Helvetica,sans-Serif" font-size="10.00">ImageFilter.h</text>
</a>
</g>
</g>
<!-- Node4&#45;&gt;Node25 -->
<g id="edge24" class="edge">
<title>Node4&#45;&gt;Node25</title>
<path fill="none" stroke="midnightblue" d="M3813.63,-132.21C3626.48,-132.37 3039.12,-129.22 2554.94,-87 2552.06,-86.75 2549.14,-86.47 2546.2,-86.18"/>
<polygon fill="midnightblue" stroke="midnightblue" points="3813.82,-135.71 3823.81,-132.2 3813.81,-128.71 3813.82,-135.71"/>
</g>
<!-- Node26 -->
<g id="node23" class="node">
<title>Node26</title>
<g id="a_node23"><a xlink:href="sitkBinaryContourImageFilter_8h.html" target="_top" xlink:title=" ">
<polygon fill="white" stroke="red" points="2563.94,-62 2563.94,-81 2731.94,-81 2731.94,-62 2563.94,-62"/>
<text text-anchor="middle" x="2647.94" y="-69" font-family="Helvetica,sans-Serif" font-size="10.00">sitkBinaryContourImageFilter.h</text>
</a>
</g>
</g>
<!-- Node4&#45;&gt;Node26 -->
<g id="edge25" class="edge">
<title>Node4&#45;&gt;Node26</title>
<path fill="none" stroke="midnightblue" d="M3813.61,-132.04C3644.14,-131.63 3149.47,-126.83 2740.94,-87 2726.14,-85.56 2710.11,-83.31 2695.6,-81.01"/>
<polygon fill="midnightblue" stroke="midnightblue" points="3813.82,-135.54 3823.83,-132.06 3813.83,-128.54 3813.82,-135.54"/>
</g>
<!-- Node27 -->
<g id="node24" class="node">
<title>Node27</title>
<g id="a_node24"><a xlink:href="sitkBinaryDilateImageFilter_8h.html" target="_top" xlink:title=" ">
<polygon fill="white" stroke="red" points="2749.44,-62 2749.44,-81 2908.44,-81 2908.44,-62 2749.44,-62"/>
<text text-anchor="middle" x="2828.94" y="-69" font-family="Helvetica,sans-Serif" font-size="10.00">sitkBinaryDilateImageFilter.h</text>
</a>
</g>
</g>
<!-- Node4&#45;&gt;Node27 -->
<g id="edge26" class="edge">
<title>Node4&#45;&gt;Node27</title>
<path fill="none" stroke="midnightblue" d="M3813.7,-131.6C3662.46,-130.06 3254.68,-122.64 2916.94,-87 2903.08,-85.54 2888.09,-83.31 2874.48,-81.04"/>
<polygon fill="midnightblue" stroke="midnightblue" points="3813.68,-135.1 3823.72,-131.69 3813.75,-128.1 3813.68,-135.1"/>
</g>
<!-- Node28 -->
<g id="node25" class="node">
<title>Node28</title>
<g id="a_node25"><a xlink:href="sitkBinaryErodeImageFilter_8h.html" target="_top" xlink:title=" ">
<polygon fill="white" stroke="red" points="2925.94,-62 2925.94,-81 3083.94,-81 3083.94,-62 2925.94,-62"/>
<text text-anchor="middle" x="3004.94" y="-69" font-family="Helvetica,sans-Serif" font-size="10.00">sitkBinaryErodeImageFilter.h</text>
</a>
</g>
</g>
<!-- Node4&#45;&gt;Node28 -->
<g id="edge27" class="edge">
<title>Node4&#45;&gt;Node28</title>
<path fill="none" stroke="midnightblue" d="M3813.35,-130.65C3681.94,-127.24 3361.08,-116.39 3093.94,-87 3080.09,-85.48 3065.12,-83.26 3051.47,-81.02"/>
<polygon fill="midnightblue" stroke="midnightblue" points="3813.52,-134.15 3823.6,-130.91 3813.69,-127.15 3813.52,-134.15"/>
</g>
<!-- Node29 -->
<g id="node26" class="node">
<title>Node29</title>
<g id="a_node26"><a xlink:href="sitkBinaryFillholeImageFilter_8h.html" target="_top" xlink:title=" ">
<polygon fill="white" stroke="red" points="3102.44,-62 3102.44,-81 3267.44,-81 3267.44,-62 3102.44,-62"/>
<text text-anchor="middle" x="3184.94" y="-69" font-family="Helvetica,sans-Serif" font-size="10.00">sitkBinaryFillholeImageFilter.h</text>
</a>
</g>
</g>
<!-- Node4&#45;&gt;Node29 -->
<g id="edge28" class="edge">
<title>Node4&#45;&gt;Node29</title>
<path fill="none" stroke="midnightblue" d="M3813.85,-129.09C3706.04,-123.5 3472.73,-109.77 3276.94,-87 3263.13,-85.39 3248.21,-83.23 3234.5,-81.07"/>
<polygon fill="midnightblue" stroke="midnightblue" points="3813.72,-132.58 3823.89,-129.6 3814.08,-125.59 3813.72,-132.58"/>
</g>
<!-- Node30 -->
<g id="node27" class="node">
<title>Node30</title>
<g id="a_node27"><a xlink:href="sitkBinaryGrindPeakImageFilter_8h.html" target="_top" xlink:title=" ">
<polygon fill="white" stroke="red" points="3285.44,-56.5 3285.44,-86.5 3432.44,-86.5 3432.44,-56.5 3285.44,-56.5"/>
<text text-anchor="start" x="3293.44" y="-74.5" font-family="Helvetica,sans-Serif" font-size="10.00">sitkBinaryGrindPeakImage</text>
<text text-anchor="middle" x="3358.94" y="-63.5" font-family="Helvetica,sans-Serif" font-size="10.00">Filter.h</text>
</a>
</g>
</g>
<!-- Node4&#45;&gt;Node30 -->
<g id="edge29" class="edge">
<title>Node4&#45;&gt;Node30</title>
<path fill="none" stroke="midnightblue" d="M3813.84,-127.06C3730.24,-119.89 3574.22,-105.42 3441.94,-87 3438.9,-86.58 3435.8,-86.12 3432.67,-85.65"/>
<polygon fill="midnightblue" stroke="midnightblue" points="3813.65,-130.56 3823.92,-127.92 3814.25,-123.58 3813.65,-130.56"/>
</g>
<!-- Node31 -->
<g id="node28" class="node">
<title>Node31</title>
<g id="a_node28"><a xlink:href="sitkBinaryImageToLabelMapFilter_8h.html" target="_top" xlink:title=" ">
<polygon fill="white" stroke="red" points="3450.44,-56.5 3450.44,-86.5 3605.44,-86.5 3605.44,-56.5 3450.44,-56.5"/>
<text text-anchor="start" x="3458.44" y="-74.5" font-family="Helvetica,sans-Serif" font-size="10.00">sitkBinaryImageToLabelMap</text>
<text text-anchor="middle" x="3527.94" y="-63.5" font-family="Helvetica,sans-Serif" font-size="10.00">Filter.h</text>
</a>
</g>
</g>
<!-- Node4&#45;&gt;Node31 -->
<g id="edge30" class="edge">
<title>Node4&#45;&gt;Node31</title>
<path fill="none" stroke="midnightblue" d="M3814.3,-121.74C3756.55,-111.81 3668.68,-96.7 3605.52,-85.84"/>
<polygon fill="midnightblue" stroke="midnightblue" points="3813.92,-125.23 3824.37,-123.48 3815.11,-118.33 3813.92,-125.23"/>
</g>
<!-- Node32 -->
<g id="node29" class="node">
<title>Node32</title>
<g id="a_node29"><a xlink:href="sitkBinaryMagnitudeImageFilter_8h.html" target="_top" xlink:title=" ">
<polygon fill="white" stroke="red" points="3623.44,-56.5 3623.44,-86.5 3772.44,-86.5 3772.44,-56.5 3623.44,-56.5"/>
<text text-anchor="start" x="3631.44" y="-74.5" font-family="Helvetica,sans-Serif" font-size="10.00">sitkBinaryMagnitudeImage</text>
<text text-anchor="middle" x="3697.94" y="-63.5" font-family="Helvetica,sans-Serif" font-size="10.00">Filter.h</text>
</a>
</g>
</g>
<!-- Node4&#45;&gt;Node32 -->
<g id="edge31" class="edge">
<title>Node4&#45;&gt;Node32</title>
<path fill="none" stroke="midnightblue" d="M3839.13,-120.23C3810.47,-110.54 3769.77,-96.78 3739.42,-86.52"/>
<polygon fill="midnightblue" stroke="midnightblue" points="3838.13,-123.59 3848.73,-123.48 3840.37,-116.96 3838.13,-123.59"/>
</g>
<!-- Node33 -->
<g id="node30" class="node">
<title>Node33</title>
<g id="a_node30"><a xlink:href="sitkBinaryMedianImageFilter_8h.html" target="_top" xlink:title=" ">
<polygon fill="white" stroke="red" points="3790.94,-62 3790.94,-81 3956.94,-81 3956.94,-62 3790.94,-62"/>
<text text-anchor="middle" x="3873.94" y="-69" font-family="Helvetica,sans-Serif" font-size="10.00">sitkBinaryMedianImageFilter.h</text>
</a>
</g>
</g>
<!-- Node4&#45;&gt;Node33 -->
<g id="edge32" class="edge">
<title>Node4&#45;&gt;Node33</title>
<path fill="none" stroke="midnightblue" d="M3873.94,-113.32C3873.94,-102.5 3873.94,-89.4 3873.94,-81.01"/>
<polygon fill="midnightblue" stroke="midnightblue" points="3870.44,-113.48 3873.94,-123.48 3877.44,-113.48 3870.44,-113.48"/>
</g>
<!-- Node34 -->
<g id="node31" class="node">
<title>Node34</title>
<g id="a_node31"><a xlink:href="sitkBinaryMinMaxCurvatureFlowImageFilter_8h.html" target="_top" xlink:title=" ">
<polygon fill="white" stroke="red" points="3975.44,-56.5 3975.44,-86.5 4128.44,-86.5 4128.44,-56.5 3975.44,-56.5"/>
<text text-anchor="start" x="3983.44" y="-74.5" font-family="Helvetica,sans-Serif" font-size="10.00">sitkBinaryMinMaxCurvature</text>
<text text-anchor="middle" x="4051.94" y="-63.5" font-family="Helvetica,sans-Serif" font-size="10.00">FlowImageFilter.h</text>
</a>
</g>
</g>
<!-- Node4&#45;&gt;Node34 -->
<g id="edge33" class="edge">
<title>Node4&#45;&gt;Node34</title>
<path fill="none" stroke="midnightblue" d="M3909.15,-120.23C3938.14,-110.54 3979.3,-96.78 4009.99,-86.52"/>
<polygon fill="midnightblue" stroke="midnightblue" points="3907.82,-116.99 3899.44,-123.48 3910.04,-123.62 3907.82,-116.99"/>
</g>
<!-- Node35 -->
<g id="node32" class="node">
<title>Node35</title>
<g id="a_node32"><a xlink:href="sitkBinaryMorphologicalClosingImageFilter_8h.html" target="_top" xlink:title=" ">
<polygon fill="white" stroke="red" points="4146.44,-56.5 4146.44,-86.5 4317.44,-86.5 4317.44,-56.5 4146.44,-56.5"/>
<text text-anchor="start" x="4154.44" y="-74.5" font-family="Helvetica,sans-Serif" font-size="10.00">sitkBinaryMorphologicalClosing</text>
<text text-anchor="middle" x="4231.94" y="-63.5" font-family="Helvetica,sans-Serif" font-size="10.00">ImageFilter.h</text>
</a>
</g>
</g>
<!-- Node4&#45;&gt;Node35 -->
<g id="edge34" class="edge">
<title>Node4&#45;&gt;Node35</title>
<path fill="none" stroke="midnightblue" d="M3934.3,-121.97C3992.83,-112.24 4082.17,-97.39 4147.7,-86.5"/>
<polygon fill="midnightblue" stroke="midnightblue" points="3933.39,-118.57 3924.1,-123.66 3934.54,-125.48 3933.39,-118.57"/>
</g>
<!-- Node36 -->
<g id="node33" class="node">
<title>Node36</title>
<g id="a_node33"><a xlink:href="sitkBinaryMorphologicalOpeningImageFilter_8h.html" target="_top" xlink:title=" ">
<polygon fill="white" stroke="red" points="4335.94,-56.5 4335.94,-86.5 4511.94,-86.5 4511.94,-56.5 4335.94,-56.5"/>
<text text-anchor="start" x="4343.94" y="-74.5" font-family="Helvetica,sans-Serif" font-size="10.00">sitkBinaryMorphologicalOpening</text>
<text text-anchor="middle" x="4423.94" y="-63.5" font-family="Helvetica,sans-Serif" font-size="10.00">ImageFilter.h</text>
</a>
</g>
</g>
<!-- Node4&#45;&gt;Node36 -->
<g id="edge35" class="edge">
<title>Node4&#45;&gt;Node36</title>
<path fill="none" stroke="midnightblue" d="M3934.17,-126.97C4021.06,-119.5 4186.57,-104.45 4326.94,-87 4329.9,-86.63 4332.9,-86.25 4335.94,-85.85"/>
<polygon fill="midnightblue" stroke="midnightblue" points="3933.64,-123.5 3923.97,-127.84 3934.23,-130.48 3933.64,-123.5"/>
</g>
<!-- Node37 -->
<g id="node34" class="node">
<title>Node37</title>
<g id="a_node34"><a xlink:href="sitkBinaryNotImageFilter_8h.html" target="_top" xlink:title=" ">
<polygon fill="white" stroke="red" points="4530.44,-62 4530.44,-81 4677.44,-81 4677.44,-62 4530.44,-62"/>
<text text-anchor="middle" x="4603.94" y="-69" font-family="Helvetica,sans-Serif" font-size="10.00">sitkBinaryNotImageFilter.h</text>
</a>
</g>
</g>
<!-- Node4&#45;&gt;Node37 -->
<g id="edge36" class="edge">
<title>Node4&#45;&gt;Node37</title>
<path fill="none" stroke="midnightblue" d="M3934.35,-129.89C4049.04,-125.41 4306.06,-113.17 4520.94,-87 4533.72,-85.44 4547.52,-83.24 4560.13,-81.03"/>
<polygon fill="midnightblue" stroke="midnightblue" points="3933.89,-126.4 3924.03,-130.28 3934.16,-133.4 3933.89,-126.4"/>
</g>
<!-- Node38 -->
<g id="node35" class="node">
<title>Node38</title>
<g id="a_node35"><a xlink:href="sitkBinaryOpeningByReconstructionImageFilter_8h.html" target="_top" xlink:title=" ">
<polygon fill="white" stroke="red" points="4695.94,-56.5 4695.94,-86.5 4887.94,-86.5 4887.94,-56.5 4695.94,-56.5"/>
<text text-anchor="start" x="4703.94" y="-74.5" font-family="Helvetica,sans-Serif" font-size="10.00">sitkBinaryOpeningByReconstruction</text>
<text text-anchor="middle" x="4791.94" y="-63.5" font-family="Helvetica,sans-Serif" font-size="10.00">ImageFilter.h</text>
</a>
</g>
</g>
<!-- Node4&#45;&gt;Node38 -->
<g id="edge37" class="edge">
<title>Node4&#45;&gt;Node38</title>
<path fill="none" stroke="midnightblue" d="M3934.14,-130.36C4069.12,-126.3 4406.16,-114.11 4686.94,-87 4689.87,-86.72 4692.85,-86.41 4695.85,-86.09"/>
<polygon fill="midnightblue" stroke="midnightblue" points="3933.9,-126.86 3924.01,-130.66 3934.11,-133.86 3933.9,-126.86"/>
</g>
<!-- Node39 -->
<g id="node36" class="node">
<title>Node39</title>
<g id="a_node36"><a xlink:href="sitkBinaryProjectionImageFilter_8h.html" target="_top" xlink:title=" ">
<polygon fill="white" stroke="red" points="4905.94,-56.5 4905.94,-86.5 5051.94,-86.5 5051.94,-56.5 4905.94,-56.5"/>
<text text-anchor="start" x="4913.94" y="-74.5" font-family="Helvetica,sans-Serif" font-size="10.00">sitkBinaryProjectionImage</text>
<text text-anchor="middle" x="4978.94" y="-63.5" font-family="Helvetica,sans-Serif" font-size="10.00">Filter.h</text>
</a>
</g>
</g>
<!-- Node4&#45;&gt;Node39 -->
<g id="edge38" class="edge">
<title>Node4&#45;&gt;Node39</title>
<path fill="none" stroke="midnightblue" d="M3934.16,-132.1C4092.43,-131.77 4532.96,-127.01 4896.94,-87 4899.82,-86.68 4902.74,-86.33 4905.69,-85.94"/>
<polygon fill="midnightblue" stroke="midnightblue" points="3934.15,-128.6 3924.15,-132.12 3934.16,-135.6 3934.15,-128.6"/>
</g>
<!-- Node40 -->
<g id="node37" class="node">
<title>Node40</title>
<g id="a_node37"><a xlink:href="sitkBinaryPruningImageFilter_8h.html" target="_top" xlink:title=" ">
<polygon fill="white" stroke="red" points="5070.44,-62 5070.44,-81 5237.44,-81 5237.44,-62 5070.44,-62"/>
<text text-anchor="middle" x="5153.94" y="-69" font-family="Helvetica,sans-Serif" font-size="10.00">sitkBinaryPruningImageFilter.h</text>
</a>
</g>
</g>
<!-- Node4&#45;&gt;Node40 -->
<g id="edge39" class="edge">
<title>Node4&#45;&gt;Node40</title>
<path fill="none" stroke="midnightblue" d="M3934.14,-132.2C4108.78,-132.23 4630.5,-128.57 5060.94,-87 5075.74,-85.57 5091.77,-83.33 5106.29,-81.02"/>
<polygon fill="midnightblue" stroke="midnightblue" points="3934.13,-128.7 3924.12,-132.19 3934.12,-135.7 3934.13,-128.7"/>
</g>
<!-- Node41 -->
<g id="node38" class="node">
<title>Node41</title>
<g id="a_node38"><a xlink:href="sitkBinaryReconstructionByDilationImageFilter_8h.html" target="_top" xlink:title=" ">
<polygon fill="white" stroke="red" points="5255.44,-56.5 5255.44,-86.5 5394.44,-86.5 5394.44,-56.5 5255.44,-56.5"/>
<text text-anchor="start" x="5263.44" y="-74.5" font-family="Helvetica,sans-Serif" font-size="10.00">sitkBinaryReconstruction</text>
<text text-anchor="middle" x="5324.94" y="-63.5" font-family="Helvetica,sans-Serif" font-size="10.00">ByDilationImageFilter.h</text>
</a>
</g>
</g>
<!-- Node4&#45;&gt;Node41 -->
<g id="edge40" class="edge">
<title>Node4&#45;&gt;Node41</title>
<path fill="none" stroke="midnightblue" d="M3934.23,-131.24C4164.26,-128.13 4986.87,-115.27 5246.94,-87 5249.68,-86.7 5252.47,-86.36 5255.28,-85.99"/>
<polygon fill="midnightblue" stroke="midnightblue" points="3934,-127.74 3924.05,-131.37 3934.09,-134.74 3934,-127.74"/>
</g>
<!-- Node42 -->
<g id="node39" class="node">
<title>Node42</title>
<g id="a_node39"><a xlink:href="sitkBinaryReconstructionByErosionImageFilter_8h.html" target="_top" xlink:title=" ">
<polygon fill="white" stroke="red" points="5412.44,-56.5 5412.44,-86.5 5551.44,-86.5 5551.44,-56.5 5412.44,-56.5"/>
<text text-anchor="start" x="5420.44" y="-74.5" font-family="Helvetica,sans-Serif" font-size="10.00">sitkBinaryReconstruction</text>
<text text-anchor="middle" x="5481.94" y="-63.5" font-family="Helvetica,sans-Serif" font-size="10.00">ByErosionImageFilter.h</text>
</a>
</g>
</g>
<!-- Node4&#45;&gt;Node42 -->
<g id="edge41" class="edge">
<title>Node4&#45;&gt;Node42</title>
<path fill="none" stroke="midnightblue" d="M3934.47,-131.47C4181.17,-129.11 5111.54,-118.29 5403.94,-87 5406.68,-86.71 5409.47,-86.37 5412.28,-86"/>
<polygon fill="midnightblue" stroke="midnightblue" points="3934.23,-127.97 3924.26,-131.57 3934.3,-134.97 3934.23,-127.97"/>
</g>
<!-- Node43 -->
<g id="node40" class="node">
<title>Node43</title>
<g id="a_node40"><a xlink:href="sitkBinaryThinningImageFilter_8h.html" target="_top" xlink:title=" ">
<polygon fill="white" stroke="red" points="5569.94,-62 5569.94,-81 5741.94,-81 5741.94,-62 5569.94,-62"/>
<text text-anchor="middle" x="5655.94" y="-69" font-family="Helvetica,sans-Serif" font-size="10.00">sitkBinaryThinningImageFilter.h</text>
</a>
</g>
</g>
<!-- Node4&#45;&gt;Node43 -->
<g id="edge42" class="edge">
<title>Node4&#45;&gt;Node43</title>
<path fill="none" stroke="midnightblue" d="M3934.08,-131.4C4195.61,-128.65 5235.35,-116.08 5560.94,-87 5576.23,-85.63 5592.8,-83.38 5607.75,-81.05"/>
<polygon fill="midnightblue" stroke="midnightblue" points="3933.99,-127.9 3924.02,-131.51 3934.06,-134.9 3933.99,-127.9"/>
</g>
<!-- Node44 -->
<g id="node41" class="node">
<title>Node44</title>
<g id="a_node41"><a xlink:href="sitkBinaryThresholdImageFilter_8h.html" target="_top" xlink:title=" ">
<polygon fill="white" stroke="red" points="5760.44,-56.5 5760.44,-86.5 5905.44,-86.5 5905.44,-56.5 5760.44,-56.5"/>
<text text-anchor="start" x="5768.44" y="-74.5" font-family="Helvetica,sans-Serif" font-size="10.00">sitkBinaryThresholdImage</text>
<text text-anchor="middle" x="5832.94" y="-63.5" font-family="Helvetica,sans-Serif" font-size="10.00">Filter.h</text>
</a>
</g>
</g>
<!-- Node4&#45;&gt;Node44 -->
<g id="edge43" class="edge">
<title>Node4&#45;&gt;Node44</title>
<path fill="none" stroke="midnightblue" d="M3934.32,-131.78C4214.11,-130.57 5386.28,-123.4 5750.94,-87 5753.96,-86.7 5757.04,-86.35 5760.14,-85.96"/>
<polygon fill="midnightblue" stroke="midnightblue" points="3933.96,-128.28 3923.98,-131.82 3933.99,-135.28 3933.96,-128.28"/>
</g>
<!-- Node45 -->
<g id="node42" class="node">
<title>Node45</title>
<g id="a_node42"><a xlink:href="sitkBinaryThresholdProjectionImageFilter_8h.html" target="_top" xlink:title=" ">
<polygon fill="white" stroke="red" points="5923.44,-56.5 5923.44,-86.5 6086.44,-86.5 6086.44,-56.5 5923.44,-56.5"/>
<text text-anchor="start" x="5931.44" y="-74.5" font-family="Helvetica,sans-Serif" font-size="10.00">sitkBinaryThresholdProjection</text>
<text text-anchor="middle" x="6004.94" y="-63.5" font-family="Helvetica,sans-Serif" font-size="10.00">ImageFilter.h</text>
</a>
</g>
</g>
<!-- Node4&#45;&gt;Node45 -->
<g id="edge44" class="edge">
<title>Node4&#45;&gt;Node45</title>
<path fill="none" stroke="midnightblue" d="M3934.27,-131.79C4228.6,-130.6 5515.75,-123.38 5914.94,-87 5917.62,-86.76 5920.34,-86.48 5923.09,-86.18"/>
<polygon fill="midnightblue" stroke="midnightblue" points="3934.21,-128.29 3924.22,-131.83 3934.24,-135.29 3934.21,-128.29"/>
</g>
<!-- Node46 -->
<g id="node43" class="node">
<title>Node46</title>
<g id="a_node43"><a xlink:href="sitkBinomialBlurImageFilter_8h.html" target="_top" xlink:title=" ">
<polygon fill="white" stroke="red" points="6104.44,-62 6104.44,-81 6265.44,-81 6265.44,-62 6104.44,-62"/>
<text text-anchor="middle" x="6184.94" y="-69" font-family="Helvetica,sans-Serif" font-size="10.00">sitkBinomialBlurImageFilter.h</text>
</a>
</g>
</g>
<!-- Node4&#45;&gt;Node46 -->
<g id="edge45" class="edge">
<title>Node4&#45;&gt;Node46</title>
<path fill="none" stroke="midnightblue" d="M3934.52,-131.93C4244.86,-131.4 5659.02,-126.82 6095.94,-87 6110.44,-85.68 6126.15,-83.4 6140.28,-81.04"/>
<polygon fill="midnightblue" stroke="midnightblue" points="3934.37,-128.43 3924.37,-131.95 3934.38,-135.43 3934.37,-128.43"/>
</g>
<!-- Node47 -->
<g id="node44" class="node">
<title>Node47</title>
<g id="a_node44"><a xlink:href="sitkBitwiseNotImageFilter_8h.html" target="_top" xlink:title=" ">
<polygon fill="white" stroke="red" points="6283.94,-62 6283.94,-81 6435.94,-81 6435.94,-62 6283.94,-62"/>
<text text-anchor="middle" x="6359.94" y="-69" font-family="Helvetica,sans-Serif" font-size="10.00">sitkBitwiseNotImageFilter.h</text>
</a>
</g>
</g>
<!-- Node4&#45;&gt;Node47 -->
<g id="edge46" class="edge">
<title>Node4&#45;&gt;Node47</title>
<path fill="none" stroke="midnightblue" d="M3934.08,-132.1C4258.27,-132.44 5800.42,-131.67 6274.94,-87 6288.8,-85.7 6303.81,-83.42 6317.3,-81.06"/>
<polygon fill="midnightblue" stroke="midnightblue" points="3933.96,-128.6 3923.96,-132.09 3933.95,-135.6 3933.96,-128.6"/>
</g>
<!-- Node48 -->
<g id="node45" class="node">
<title>Node48</title>
<g id="a_node45"><a xlink:href="sitkBlackTopHatImageFilter_8h.html" target="_top" xlink:title=" ">
<polygon fill="white" stroke="red" points="6454.44,-62 6454.44,-81 6613.44,-81 6613.44,-62 6454.44,-62"/>
<text text-anchor="middle" x="6533.94" y="-69" font-family="Helvetica,sans-Serif" font-size="10.00">sitkBlackTopHatImageFilter.h</text>
</a>
</g>
</g>
<!-- Node4&#45;&gt;Node48 -->
<g id="edge47" class="edge">
<title>Node4&#45;&gt;Node48</title>
<path fill="none" stroke="midnightblue" d="M3934.22,-132.12C4272.18,-132.65 5934.59,-132.8 6444.94,-87 6459.44,-85.7 6475.15,-83.43 6489.28,-81.07"/>
<polygon fill="midnightblue" stroke="midnightblue" points="3934.15,-128.62 3924.15,-132.11 3934.14,-135.62 3934.15,-128.62"/>
</g>
<!-- Node49 -->
<g id="node46" class="node">
<title>Node49</title>
<g id="a_node46"><a xlink:href="sitkBoundedReciprocalImageFilter_8h.html" target="_top" xlink:title=" ">
<polygon fill="white" stroke="red" points="6631.44,-56.5 6631.44,-86.5 6790.44,-86.5 6790.44,-56.5 6631.44,-56.5"/>
<text text-anchor="start" x="6639.44" y="-74.5" font-family="Helvetica,sans-Serif" font-size="10.00">sitkBoundedReciprocalImage</text>
<text text-anchor="middle" x="6710.94" y="-63.5" font-family="Helvetica,sans-Serif" font-size="10.00">Filter.h</text>
</a>
</g>
</g>
<!-- Node4&#45;&gt;Node49 -->
<g id="edge48" class="edge">
<title>Node4&#45;&gt;Node49</title>
<path fill="none" stroke="midnightblue" d="M3934.39,-132.22C4286.41,-133.32 6075.24,-136.34 6622.94,-87 6625.72,-86.75 6628.54,-86.46 6631.38,-86.15"/>
<polygon fill="midnightblue" stroke="midnightblue" points="3934.17,-128.72 3924.16,-132.19 3934.15,-135.72 3934.17,-128.72"/>
</g>
<!-- Node50 -->
<g id="node47" class="node">
<title>Node50</title>
<g id="a_node47"><a xlink:href="sitkBoxMeanImageFilter_8h.html" target="_top" xlink:title=" ">
<polygon fill="white" stroke="red" points="6808.94,-62 6808.94,-81 6952.94,-81 6952.94,-62 6808.94,-62"/>
<text text-anchor="middle" x="6880.94" y="-69" font-family="Helvetica,sans-Serif" font-size="10.00">sitkBoxMeanImageFilter.h</text>
</a>
</g>
</g>
<!-- Node4&#45;&gt;Node50 -->
<g id="edge49" class="edge">
<title>Node4&#45;&gt;Node50</title>
<path fill="none" stroke="midnightblue" d="M3934.35,-131.66C4326.62,-129.37 6505.61,-115.42 6799.94,-87 6813.31,-85.71 6827.78,-83.41 6840.74,-81.02"/>
<polygon fill="midnightblue" stroke="midnightblue" points="3934.05,-128.16 3924.07,-131.72 3934.09,-135.16 3934.05,-128.16"/>
</g>
<!-- Node22&#45;&gt;Node2 -->
<g id="edge21" class="edge">
<title>Node22&#45;&gt;Node2</title>
<path fill="none" stroke="midnightblue" d="M6960.56,-56.08C6509.92,-26.69 788.74,-12.34 268.72,-11.09"/>
<polygon fill="midnightblue" stroke="midnightblue" points="6960.54,-59.59 6970.76,-56.82 6961.04,-52.6 6960.54,-59.59"/>
</g>
<!-- Node307&#45;&gt;Node2 -->
<g id="edge51" class="edge">
<title>Node307&#45;&gt;Node2</title>
<path fill="none" stroke="midnightblue" d="M97.07,-115.73C83.21,-99.5 67.26,-74.39 80.94,-56 106.67,-21.43 158.04,-12.41 193.44,-10.57"/>
<polygon fill="midnightblue" stroke="midnightblue" points="94.66,-118.28 103.97,-123.33 99.84,-113.57 94.66,-118.28"/>
</g>
<!-- Node308&#45;&gt;Node2 -->
<g id="edge53" class="edge">
<title>Node308&#45;&gt;Node2</title>
<path fill="none" stroke="midnightblue" d="M292.79,-113.44C287.93,-97.55 279.78,-74.38 268.94,-56 260.73,-42.08 248.18,-28.2 239.78,-19.62"/>
<polygon fill="midnightblue" stroke="midnightblue" points="289.45,-114.52 295.62,-123.14 296.17,-112.56 289.45,-114.52"/>
</g>
<!-- Node308&#45;&gt;Node3 -->
<g id="edge54" class="edge">
<title>Node308&#45;&gt;Node3</title>
<path fill="none" stroke="midnightblue" d="M319.7,-117.93C337.43,-106.46 361.9,-90.63 376.78,-81.01"/>
<polygon fill="midnightblue" stroke="midnightblue" points="317.62,-115.11 311.12,-123.48 321.42,-120.98 317.62,-115.11"/>
</g>
<!-- Node308&#45;&gt;Node316 -->
<g id="edge55" class="edge">
<title>Node308&#45;&gt;Node316</title>
<path fill="none" stroke="midnightblue" d="M271.11,-119.02C247.26,-107.48 213.07,-90.94 192.53,-81.01"/>
<polygon fill="midnightblue" stroke="midnightblue" points="269.79,-122.27 280.32,-123.48 272.84,-115.97 269.79,-122.27"/>
</g>
<!-- Node316&#45;&gt;Node2 -->
<g id="edge56" class="edge">
<title>Node316&#45;&gt;Node2</title>
<path fill="none" stroke="midnightblue" d="M190,-54.5C200.6,-43.24 214.37,-28.6 222.93,-19.51"/>
<polygon fill="midnightblue" stroke="midnightblue" points="187.27,-52.29 182.97,-61.98 192.37,-57.09 187.27,-52.29"/>
</g>
</g>
</svg>
