<?xml version="1.0" encoding="UTF-8" standalone="no"?>
<!DOCTYPE svg PUBLIC "-//W3C//DTD SVG 1.1//EN"
 "http://www.w3.org/Graphics/SVG/1.1/DTD/svg11.dtd">
<!-- Generated by graphviz version 2.43.0 (0)
 -->
<!-- Title: sitkImage.h Pages: 1 -->
<svg width="1535pt" height="375pt"
 viewBox="0.00 0.00 1534.71 375.00" xmlns="http://www.w3.org/2000/svg" xmlns:xlink="http://www.w3.org/1999/xlink">
<g id="graph0" class="graph" transform="scale(1 1) rotate(0) translate(4 371)">
<title>sitkImage.h</title>
<polygon fill="white" stroke="transparent" points="-4,4 -4,-371 1530.71,-371 1530.71,4 -4,4"/>
<!-- Node1 -->
<g id="node1" class="node">
<title>Node1</title>
<g id="a_node1"><a xlink:title=" ">
<polygon fill="#bfbfbf" stroke="black" points="527.21,-347.5 527.21,-366.5 601.21,-366.5 601.21,-347.5 527.21,-347.5"/>
<text text-anchor="middle" x="564.21" y="-354.5" font-family="Helvetica,sans-Serif" font-size="10.00">sitkImage.h</text>
</a>
</g>
</g>
<!-- Node2 -->
<g id="node2" class="node">
<title>Node2</title>
<g id="a_node2"><a xlink:href="sitkCommon_8h.html" target="_top" xlink:title=" ">
<polygon fill="white" stroke="black" points="339.21,-112.5 339.21,-131.5 427.21,-131.5 427.21,-112.5 339.21,-112.5"/>
<text text-anchor="middle" x="383.21" y="-119.5" font-family="Helvetica,sans-Serif" font-size="10.00">sitkCommon.h</text>
</a>
</g>
</g>
<!-- Node1&#45;&gt;Node2 -->
<g id="edge1" class="edge">
<title>Node1&#45;&gt;Node2</title>
<path fill="none" stroke="midnightblue" d="M527.17,-348.46C481.72,-337.01 406.6,-310.43 373.21,-255 351.75,-219.37 365.63,-168.15 375.61,-141.19"/>
<polygon fill="midnightblue" stroke="midnightblue" points="378.89,-142.41 379.29,-131.82 372.37,-139.85 378.89,-142.41"/>
</g>
<!-- Node10 -->
<g id="node10" class="node">
<title>Node10</title>
<g id="a_node10"><a xlink:href="sitkTemplateFunctions_8h.html" target="_top" xlink:title=" ">
<polygon fill="white" stroke="black" points="143.71,-230 143.71,-249 278.71,-249 278.71,-230 143.71,-230"/>
<text text-anchor="middle" x="211.21" y="-237" font-family="Helvetica,sans-Serif" font-size="10.00">sitkTemplateFunctions.h</text>
</a>
</g>
</g>
<!-- Node1&#45;&gt;Node10 -->
<g id="edge9" class="edge">
<title>Node1&#45;&gt;Node10</title>
<path fill="none" stroke="midnightblue" d="M526.85,-356.06C472.8,-354.79 370.77,-347.26 293.21,-311 265.7,-298.13 240.21,-273.37 225.17,-256.89"/>
<polygon fill="midnightblue" stroke="midnightblue" points="227.56,-254.3 218.31,-249.13 222.32,-258.94 227.56,-254.3"/>
</g>
<!-- Node12 -->
<g id="node12" class="node">
<title>Node12</title>
<g id="a_node12"><a xlink:title=" ">
<polygon fill="white" stroke="#bfbfbf" points="269.71,-168.5 269.71,-187.5 316.71,-187.5 316.71,-168.5 269.71,-168.5"/>
<text text-anchor="middle" x="293.21" y="-175.5" font-family="Helvetica,sans-Serif" font-size="10.00">vector</text>
</a>
</g>
</g>
<!-- Node1&#45;&gt;Node12 -->
<g id="edge48" class="edge">
<title>Node1&#45;&gt;Node12</title>
<path fill="none" stroke="midnightblue" d="M526.88,-353.47C468.5,-348.76 359.34,-336.71 331.21,-311 299.04,-281.58 293.44,-226.87 292.87,-197.98"/>
<polygon fill="midnightblue" stroke="midnightblue" points="296.37,-197.65 292.86,-187.65 289.37,-197.65 296.37,-197.65"/>
</g>
<!-- Node15 -->
<g id="node15" class="node">
<title>Node15</title>
<g id="a_node15"><a xlink:href="sitkDetail_8h.html" target="_top" xlink:title=" ">
<polygon fill="white" stroke="black" points="768.71,-291.5 768.71,-310.5 841.71,-310.5 841.71,-291.5 768.71,-291.5"/>
<text text-anchor="middle" x="805.21" y="-298.5" font-family="Helvetica,sans-Serif" font-size="10.00">sitkDetail.h</text>
</a>
</g>
</g>
<!-- Node1&#45;&gt;Node15 -->
<g id="edge18" class="edge">
<title>Node1&#45;&gt;Node15</title>
<path fill="none" stroke="midnightblue" d="M601.34,-347.68C643.57,-338.22 712.59,-322.75 758.45,-312.48"/>
<polygon fill="midnightblue" stroke="midnightblue" points="759.45,-315.84 768.44,-310.24 757.92,-309.01 759.45,-315.84"/>
</g>
<!-- Node26 -->
<g id="node26" class="node">
<title>Node26</title>
<g id="a_node26"><a xlink:href="sitkPixelIDTokens_8h.html" target="_top" xlink:title=" ">
<polygon fill="white" stroke="black" points="860.21,-291.5 860.21,-310.5 970.21,-310.5 970.21,-291.5 860.21,-291.5"/>
<text text-anchor="middle" x="915.21" y="-298.5" font-family="Helvetica,sans-Serif" font-size="10.00">sitkPixelIDTokens.h</text>
</a>
</g>
</g>
<!-- Node1&#45;&gt;Node26 -->
<g id="edge37" class="edge">
<title>Node1&#45;&gt;Node26</title>
<path fill="none" stroke="midnightblue" d="M601.45,-350.27C660.59,-341.17 776.8,-323.29 849.99,-312.03"/>
<polygon fill="midnightblue" stroke="midnightblue" points="850.67,-315.47 860.02,-310.49 849.6,-308.55 850.67,-315.47"/>
</g>
<!-- Node29 -->
<g id="node29" class="node">
<title>Node29</title>
<g id="a_node29"><a xlink:title=" ">
<polygon fill="white" stroke="#bfbfbf" points="1457.71,-230 1457.71,-249 1526.71,-249 1526.71,-230 1457.71,-230"/>
<text text-anchor="middle" x="1492.21" y="-237" font-family="Helvetica,sans-Serif" font-size="10.00">type_traits</text>
</a>
</g>
</g>
<!-- Node1&#45;&gt;Node29 -->
<g id="edge50" class="edge">
<title>Node1&#45;&gt;Node29</title>
<path fill="none" stroke="midnightblue" d="M601.22,-356.58C674.88,-356.75 844.4,-352.15 979.21,-311 997.47,-305.43 998.9,-296.35 1017.21,-291 1199.59,-237.69 1256.48,-290.14 1443.21,-255 1447.75,-254.15 1452.47,-253.04 1457.1,-251.82"/>
<polygon fill="midnightblue" stroke="midnightblue" points="1458.35,-255.11 1467.02,-249.02 1456.45,-248.37 1458.35,-255.11"/>
</g>
<!-- Node30 -->
<g id="node30" class="node">
<title>Node30</title>
<g id="a_node30"><a xlink:href="sitkInterpolator_8h.html" target="_top" xlink:title=" ">
<polygon fill="white" stroke="black" points="382.21,-230 382.21,-249 482.21,-249 482.21,-230 382.21,-230"/>
<text text-anchor="middle" x="432.21" y="-237" font-family="Helvetica,sans-Serif" font-size="10.00">sitkInterpolator.h</text>
</a>
</g>
</g>
<!-- Node1&#45;&gt;Node30 -->
<g id="edge45" class="edge">
<title>Node1&#45;&gt;Node30</title>
<path fill="none" stroke="midnightblue" d="M554.29,-347.32C532.12,-327.92 478.31,-280.83 450.11,-256.16"/>
<polygon fill="midnightblue" stroke="midnightblue" points="452.08,-253.23 442.25,-249.28 447.47,-258.5 452.08,-253.23"/>
</g>
<!-- Node31 -->
<g id="node31" class="node">
<title>Node31</title>
<g id="a_node31"><a xlink:title=" ">
<polygon fill="white" stroke="#bfbfbf" points="1026.21,-291.5 1026.21,-310.5 1084.21,-310.5 1084.21,-291.5 1026.21,-291.5"/>
<text text-anchor="middle" x="1055.21" y="-298.5" font-family="Helvetica,sans-Serif" font-size="10.00">memory</text>
</a>
</g>
</g>
<!-- Node1&#45;&gt;Node31 -->
<g id="edge49" class="edge">
<title>Node1&#45;&gt;Node31</title>
<path fill="none" stroke="midnightblue" d="M601.26,-353.62C678.16,-348.37 860.6,-334.41 1012.21,-311 1013.49,-310.8 1014.78,-310.59 1016.08,-310.37"/>
<polygon fill="midnightblue" stroke="midnightblue" points="1016.95,-313.77 1026.15,-308.52 1015.68,-306.89 1016.95,-313.77"/>
</g>
<!-- Node3 -->
<g id="node3" class="node">
<title>Node3</title>
<g id="a_node3"><a xlink:href="sitkMacro_8h.html" target="_top" xlink:title=" ">
<polygon fill="white" stroke="black" points="567.21,-56.5 567.21,-75.5 641.21,-75.5 641.21,-56.5 567.21,-56.5"/>
<text text-anchor="middle" x="604.21" y="-63.5" font-family="Helvetica,sans-Serif" font-size="10.00">sitkMacro.h</text>
</a>
</g>
</g>
<!-- Node2&#45;&gt;Node3 -->
<g id="edge2" class="edge">
<title>Node2&#45;&gt;Node3</title>
<path fill="none" stroke="midnightblue" d="M418.23,-112.44C456.46,-103.1 517.78,-88.12 559.47,-77.93"/>
<polygon fill="midnightblue" stroke="midnightblue" points="560.48,-81.29 569.36,-75.52 558.81,-74.49 560.48,-81.29"/>
</g>
<!-- Node4 -->
<g id="node4" class="node">
<title>Node4</title>
<g id="a_node4"><a xlink:title=" ">
<polygon fill="white" stroke="#bfbfbf" points="1047.71,-0.5 1047.71,-19.5 1100.71,-19.5 1100.71,-0.5 1047.71,-0.5"/>
<text text-anchor="middle" x="1074.21" y="-7.5" font-family="Helvetica,sans-Serif" font-size="10.00">stdint.h</text>
</a>
</g>
</g>
<!-- Node3&#45;&gt;Node4 -->
<g id="edge3" class="edge">
<title>Node3&#45;&gt;Node4</title>
<path fill="none" stroke="midnightblue" d="M641.49,-60.72C729.64,-50.59 950.08,-25.26 1037.58,-15.21"/>
<polygon fill="midnightblue" stroke="midnightblue" points="1038.04,-18.68 1047.58,-14.06 1037.24,-11.72 1038.04,-18.68"/>
</g>
<!-- Node5 -->
<g id="node5" class="node">
<title>Node5</title>
<g id="a_node5"><a xlink:title=" ">
<polygon fill="white" stroke="#bfbfbf" points="678.21,-0.5 678.21,-19.5 734.21,-19.5 734.21,-0.5 678.21,-0.5"/>
<text text-anchor="middle" x="706.21" y="-7.5" font-family="Helvetica,sans-Serif" font-size="10.00">stddef.h</text>
</a>
</g>
</g>
<!-- Node3&#45;&gt;Node5 -->
<g id="edge4" class="edge">
<title>Node3&#45;&gt;Node5</title>
<path fill="none" stroke="midnightblue" d="M620.6,-56.32C636.89,-47.7 662.08,-34.36 680.93,-24.39"/>
<polygon fill="midnightblue" stroke="midnightblue" points="682.67,-27.43 689.87,-19.65 679.39,-21.24 682.67,-27.43"/>
</g>
<!-- Node6 -->
<g id="node6" class="node">
<title>Node6</title>
<g id="a_node6"><a xlink:title=" ">
<polygon fill="white" stroke="#bfbfbf" points="472.21,-0.5 472.21,-19.5 524.21,-19.5 524.21,-0.5 472.21,-0.5"/>
<text text-anchor="middle" x="498.21" y="-7.5" font-family="Helvetica,sans-Serif" font-size="10.00">cassert</text>
</a>
</g>
</g>
<!-- Node3&#45;&gt;Node6 -->
<g id="edge5" class="edge">
<title>Node3&#45;&gt;Node6</title>
<path fill="none" stroke="midnightblue" d="M587.18,-56.32C570.18,-47.66 543.84,-34.24 524.22,-24.25"/>
<polygon fill="midnightblue" stroke="midnightblue" points="525.7,-21.08 515.2,-19.65 522.52,-27.31 525.7,-21.08"/>
</g>
<!-- Node7 -->
<g id="node7" class="node">
<title>Node7</title>
<g id="a_node7"><a xlink:title=" ">
<polygon fill="white" stroke="#bfbfbf" points="542.21,-0.5 542.21,-19.5 598.21,-19.5 598.21,-0.5 542.21,-0.5"/>
<text text-anchor="middle" x="570.21" y="-7.5" font-family="Helvetica,sans-Serif" font-size="10.00">sstream</text>
</a>
</g>
</g>
<!-- Node3&#45;&gt;Node7 -->
<g id="edge6" class="edge">
<title>Node3&#45;&gt;Node7</title>
<path fill="none" stroke="midnightblue" d="M598.6,-56.08C593.85,-48.53 586.9,-37.49 581.06,-28.23"/>
<polygon fill="midnightblue" stroke="midnightblue" points="584.01,-26.35 575.72,-19.75 578.09,-30.08 584.01,-26.35"/>
</g>
<!-- Node8 -->
<g id="node8" class="node">
<title>Node8</title>
<g id="a_node8"><a xlink:title=" ">
<polygon fill="white" stroke="#bfbfbf" points="616.21,-0.5 616.21,-19.5 660.21,-19.5 660.21,-0.5 616.21,-0.5"/>
<text text-anchor="middle" x="638.21" y="-7.5" font-family="Helvetica,sans-Serif" font-size="10.00">limits</text>
</a>
</g>
</g>
<!-- Node3&#45;&gt;Node8 -->
<g id="edge7" class="edge">
<title>Node3&#45;&gt;Node8</title>
<path fill="none" stroke="midnightblue" d="M609.83,-56.08C614.58,-48.53 621.53,-37.49 627.37,-28.23"/>
<polygon fill="midnightblue" stroke="midnightblue" points="630.34,-30.08 632.7,-19.75 624.41,-26.35 630.34,-30.08"/>
</g>
<!-- Node9 -->
<g id="node9" class="node">
<title>Node9</title>
<g id="a_node9"><a xlink:href="sitkConfigure_8h.html" target="_top" xlink:title=" ">
<polygon fill="white" stroke="black" points="1205.21,-0.5 1205.21,-19.5 1295.21,-19.5 1295.21,-0.5 1205.21,-0.5"/>
<text text-anchor="middle" x="1250.21" y="-7.5" font-family="Helvetica,sans-Serif" font-size="10.00">sitkConfigure.h</text>
</a>
</g>
</g>
<!-- Node3&#45;&gt;Node9 -->
<g id="edge8" class="edge">
<title>Node3&#45;&gt;Node9</title>
<path fill="none" stroke="midnightblue" d="M641.27,-61.9C749.59,-52.85 1066.19,-26.38 1194.87,-15.63"/>
<polygon fill="midnightblue" stroke="midnightblue" points="1195.23,-19.11 1204.91,-14.79 1194.65,-12.13 1195.23,-19.11"/>
</g>
<!-- Node10&#45;&gt;Node2 -->
<g id="edge11" class="edge">
<title>Node10&#45;&gt;Node2</title>
<path fill="none" stroke="midnightblue" d="M215.05,-229.84C222,-215.11 238.03,-185.12 260.21,-168 281.01,-151.96 308.08,-141.23 331.52,-134.29"/>
<polygon fill="midnightblue" stroke="midnightblue" points="332.64,-137.61 341.32,-131.54 330.75,-130.87 332.64,-137.61"/>
</g>
<!-- Node10&#45;&gt;Node3 -->
<g id="edge10" class="edge">
<title>Node10&#45;&gt;Node3</title>
<path fill="none" stroke="midnightblue" d="M143.6,-236.68C70.8,-232.21 -29.69,-217.26 9.21,-168 76.8,-82.42 427.83,-69.24 556.7,-67.3"/>
<polygon fill="midnightblue" stroke="midnightblue" points="557.08,-70.79 567.03,-67.16 556.99,-63.79 557.08,-70.79"/>
</g>
<!-- Node11 -->
<g id="node11" class="node">
<title>Node11</title>
<g id="a_node11"><a xlink:href="sitkExceptionObject_8h.html" target="_top" xlink:title=" ">
<polygon fill="white" stroke="black" points="18.71,-168.5 18.71,-187.5 141.71,-187.5 141.71,-168.5 18.71,-168.5"/>
<text text-anchor="middle" x="80.21" y="-175.5" font-family="Helvetica,sans-Serif" font-size="10.00">sitkExceptionObject.h</text>
</a>
</g>
</g>
<!-- Node10&#45;&gt;Node11 -->
<g id="edge12" class="edge">
<title>Node10&#45;&gt;Node11</title>
<path fill="none" stroke="midnightblue" d="M192.45,-229.98C170.36,-219.95 133.5,-203.2 108.08,-191.65"/>
<polygon fill="midnightblue" stroke="midnightblue" points="109.5,-188.46 98.95,-187.51 106.61,-194.83 109.5,-188.46"/>
</g>
<!-- Node10&#45;&gt;Node12 -->
<g id="edge15" class="edge">
<title>Node10&#45;&gt;Node12</title>
<path fill="none" stroke="midnightblue" d="M222.96,-229.98C235.99,-220.52 257.25,-205.1 272.97,-193.69"/>
<polygon fill="midnightblue" stroke="midnightblue" points="275.45,-196.21 281.49,-187.51 271.34,-190.55 275.45,-196.21"/>
</g>
<!-- Node13 -->
<g id="node13" class="node">
<title>Node13</title>
<g id="a_node13"><a xlink:title=" ">
<polygon fill="white" stroke="#bfbfbf" points="411.71,-168.5 411.71,-187.5 468.71,-187.5 468.71,-168.5 411.71,-168.5"/>
<text text-anchor="middle" x="440.21" y="-175.5" font-family="Helvetica,sans-Serif" font-size="10.00">ostream</text>
</a>
</g>
</g>
<!-- Node10&#45;&gt;Node13 -->
<g id="edge16" class="edge">
<title>Node10&#45;&gt;Node13</title>
<path fill="none" stroke="midnightblue" d="M244.02,-229.98C285.67,-219.15 357.41,-200.51 401.64,-189.02"/>
<polygon fill="midnightblue" stroke="midnightblue" points="402.65,-192.38 411.44,-186.47 400.89,-185.6 402.65,-192.38"/>
</g>
<!-- Node14 -->
<g id="node14" class="node">
<title>Node14</title>
<g id="a_node14"><a xlink:title=" ">
<polygon fill="white" stroke="#bfbfbf" points="159.71,-168.5 159.71,-187.5 212.71,-187.5 212.71,-168.5 159.71,-168.5"/>
<text text-anchor="middle" x="186.21" y="-175.5" font-family="Helvetica,sans-Serif" font-size="10.00">iterator</text>
</a>
</g>
</g>
<!-- Node10&#45;&gt;Node14 -->
<g id="edge17" class="edge">
<title>Node10&#45;&gt;Node14</title>
<path fill="none" stroke="midnightblue" d="M207.63,-229.98C204.03,-221.4 198.37,-207.93 193.77,-196.98"/>
<polygon fill="midnightblue" stroke="midnightblue" points="196.89,-195.37 189.79,-187.51 190.44,-198.08 196.89,-195.37"/>
</g>
<!-- Node11&#45;&gt;Node2 -->
<g id="edge14" class="edge">
<title>Node11&#45;&gt;Node2</title>
<path fill="none" stroke="midnightblue" d="M128.23,-168.44C182.85,-158.71 271.86,-142.85 328.95,-132.67"/>
<polygon fill="midnightblue" stroke="midnightblue" points="329.65,-136.1 338.88,-130.9 328.42,-129.21 329.65,-136.1"/>
</g>
<!-- Node11&#45;&gt;Node3 -->
<g id="edge13" class="edge">
<title>Node11&#45;&gt;Node3</title>
<path fill="none" stroke="midnightblue" d="M109.64,-168.41C156.16,-155.05 249.71,-129.04 330.21,-112 409.08,-95.31 501.83,-81.22 556.67,-73.46"/>
<polygon fill="midnightblue" stroke="midnightblue" points="557.37,-76.9 566.78,-72.04 556.39,-69.96 557.37,-76.9"/>
</g>
<!-- Node16 -->
<g id="node16" class="node">
<title>Node16</title>
<g id="a_node16"><a xlink:href="sitkMemberFunctionFactoryBase_8h.html" target="_top" xlink:title=" ">
<polygon fill="white" stroke="black" points="829.21,-224.5 829.21,-254.5 981.21,-254.5 981.21,-224.5 829.21,-224.5"/>
<text text-anchor="start" x="837.21" y="-242.5" font-family="Helvetica,sans-Serif" font-size="10.00">sitkMemberFunctionFactory</text>
<text text-anchor="middle" x="905.21" y="-231.5" font-family="Helvetica,sans-Serif" font-size="10.00">Base.h</text>
</a>
</g>
</g>
<!-- Node15&#45;&gt;Node16 -->
<g id="edge19" class="edge">
<title>Node15&#45;&gt;Node16</title>
<path fill="none" stroke="midnightblue" d="M819.54,-291.48C833.34,-283.27 854.7,-270.56 872.64,-259.88"/>
<polygon fill="midnightblue" stroke="midnightblue" points="874.84,-262.64 881.65,-254.52 871.26,-256.63 874.84,-262.64"/>
</g>
<!-- Node22 -->
<g id="node22" class="node">
<title>Node22</title>
<g id="a_node22"><a xlink:title=" ">
<polygon fill="white" stroke="#bfbfbf" points="1261.71,-168.5 1261.71,-187.5 1400.71,-187.5 1400.71,-168.5 1261.71,-168.5"/>
<text text-anchor="middle" x="1331.21" y="-175.5" font-family="Helvetica,sans-Serif" font-size="10.00">Ancillary/FunctionTraits.h</text>
</a>
</g>
</g>
<!-- Node15&#45;&gt;Node22 -->
<g id="edge36" class="edge">
<title>Node15&#45;&gt;Node22</title>
<path fill="none" stroke="midnightblue" d="M841.78,-291.59C934.9,-270.17 1180.9,-213.58 1284.34,-189.78"/>
<polygon fill="midnightblue" stroke="midnightblue" points="1285.23,-193.17 1294.19,-187.52 1283.66,-186.35 1285.23,-193.17"/>
</g>
<!-- Node16&#45;&gt;Node3 -->
<g id="edge28" class="edge">
<title>Node16&#45;&gt;Node3</title>
<path fill="none" stroke="midnightblue" d="M896.79,-224.28C886.9,-208.64 869.15,-183.64 848.21,-168 786.58,-121.95 700.9,-92.87 649.19,-78.31"/>
<polygon fill="midnightblue" stroke="midnightblue" points="649.89,-74.87 639.32,-75.58 648.03,-81.62 649.89,-74.87"/>
</g>
<!-- Node16&#45;&gt;Node9 -->
<g id="edge20" class="edge">
<title>Node16&#45;&gt;Node9</title>
<path fill="none" stroke="midnightblue" d="M981.34,-227.02C1071.37,-213.3 1209.7,-191.73 1214.21,-188 1261.3,-149.06 1257.57,-66.86 1253.09,-29.81"/>
<polygon fill="midnightblue" stroke="midnightblue" points="1256.56,-29.3 1251.74,-19.86 1249.62,-30.24 1256.56,-29.3"/>
</g>
<!-- Node17 -->
<g id="node17" class="node">
<title>Node17</title>
<g id="a_node17"><a xlink:href="sitkPixelIDTypes_8h.html" target="_top" xlink:title=" ">
<polygon fill="white" stroke="black" points="852.71,-112.5 852.71,-131.5 957.71,-131.5 957.71,-112.5 852.71,-112.5"/>
<text text-anchor="middle" x="905.21" y="-119.5" font-family="Helvetica,sans-Serif" font-size="10.00">sitkPixelIDTypes.h</text>
</a>
</g>
</g>
<!-- Node16&#45;&gt;Node17 -->
<g id="edge21" class="edge">
<title>Node16&#45;&gt;Node17</title>
<path fill="none" stroke="midnightblue" d="M905.21,-224.34C905.21,-203.62 905.21,-165.02 905.21,-141.9"/>
<polygon fill="midnightblue" stroke="midnightblue" points="908.71,-141.67 905.21,-131.67 901.71,-141.67 908.71,-141.67"/>
</g>
<!-- Node18 -->
<g id="node18" class="node">
<title>Node18</title>
<g id="a_node18"><a xlink:href="sitkPixelIDTypeLists_8h.html" target="_top" xlink:title=" ">
<polygon fill="white" stroke="black" points="1083.21,-168.5 1083.21,-187.5 1205.21,-187.5 1205.21,-168.5 1083.21,-168.5"/>
<text text-anchor="middle" x="1144.21" y="-175.5" font-family="Helvetica,sans-Serif" font-size="10.00">sitkPixelIDTypeLists.h</text>
</a>
</g>
</g>
<!-- Node16&#45;&gt;Node18 -->
<g id="edge22" class="edge">
<title>Node16&#45;&gt;Node18</title>
<path fill="none" stroke="midnightblue" d="M961.55,-224.47C1003.86,-213.94 1061,-199.72 1100.04,-190"/>
<polygon fill="midnightblue" stroke="midnightblue" points="1101.19,-193.32 1110.05,-187.51 1099.5,-186.53 1101.19,-193.32"/>
</g>
<!-- Node19 -->
<g id="node19" class="node">
<title>Node19</title>
<g id="a_node19"><a xlink:title=" ">
<polygon fill="white" stroke="#bfbfbf" points="975.71,-112.5 975.71,-131.5 1086.71,-131.5 1086.71,-112.5 975.71,-112.5"/>
<text text-anchor="middle" x="1031.21" y="-119.5" font-family="Helvetica,sans-Serif" font-size="10.00">Ancillary/TypeList.h</text>
</a>
</g>
</g>
<!-- Node16&#45;&gt;Node19 -->
<g id="edge31" class="edge">
<title>Node16&#45;&gt;Node19</title>
<path fill="none" stroke="midnightblue" d="M981.31,-225.88C1002.59,-218.47 1023.39,-206.69 1036.21,-188 1045.5,-174.47 1042.66,-155.4 1038.45,-141.42"/>
<polygon fill="midnightblue" stroke="midnightblue" points="1041.73,-140.2 1035.15,-131.9 1035.12,-142.49 1041.73,-140.2"/>
</g>
<!-- Node21 -->
<g id="node21" class="node">
<title>Node21</title>
<g id="a_node21"><a xlink:href="sitkNonCopyable_8h.html" target="_top" xlink:title=" ">
<polygon fill="white" stroke="black" points="587.71,-168.5 587.71,-187.5 696.71,-187.5 696.71,-168.5 587.71,-168.5"/>
<text text-anchor="middle" x="642.21" y="-175.5" font-family="Helvetica,sans-Serif" font-size="10.00">sitkNonCopyable.h</text>
</a>
</g>
</g>
<!-- Node16&#45;&gt;Node21 -->
<g id="edge29" class="edge">
<title>Node16&#45;&gt;Node21</title>
<path fill="none" stroke="midnightblue" d="M843.22,-224.47C796.26,-213.85 732.71,-199.47 689.73,-189.75"/>
<polygon fill="midnightblue" stroke="midnightblue" points="690.34,-186.3 679.81,-187.51 688.8,-193.13 690.34,-186.3"/>
</g>
<!-- Node16&#45;&gt;Node22 -->
<g id="edge32" class="edge">
<title>Node16&#45;&gt;Node22</title>
<path fill="none" stroke="midnightblue" d="M981.37,-227.86C1060.39,-216.83 1182.98,-199.7 1260.09,-188.93"/>
<polygon fill="midnightblue" stroke="midnightblue" points="1260.77,-192.37 1270.19,-187.52 1259.8,-185.44 1260.77,-192.37"/>
</g>
<!-- Node23 -->
<g id="node23" class="node">
<title>Node23</title>
<g id="a_node23"><a xlink:title=" ">
<polygon fill="white" stroke="#bfbfbf" points="933.71,-168.5 933.71,-187.5 1026.71,-187.5 1026.71,-168.5 933.71,-168.5"/>
<text text-anchor="middle" x="980.21" y="-175.5" font-family="Helvetica,sans-Serif" font-size="10.00">unordered_map</text>
</a>
</g>
</g>
<!-- Node16&#45;&gt;Node23 -->
<g id="edge33" class="edge">
<title>Node16&#45;&gt;Node23</title>
<path fill="none" stroke="midnightblue" d="M922.99,-224.4C934.56,-215.22 949.64,-203.26 961.41,-193.92"/>
<polygon fill="midnightblue" stroke="midnightblue" points="963.64,-196.61 969.3,-187.66 959.29,-191.13 963.64,-196.61"/>
</g>
<!-- Node24 -->
<g id="node24" class="node">
<title>Node24</title>
<g id="a_node24"><a xlink:title=" ">
<polygon fill="white" stroke="#bfbfbf" points="714.71,-168.5 714.71,-187.5 779.71,-187.5 779.71,-168.5 714.71,-168.5"/>
<text text-anchor="middle" x="747.21" y="-175.5" font-family="Helvetica,sans-Serif" font-size="10.00">functional</text>
</a>
</g>
</g>
<!-- Node16&#45;&gt;Node24 -->
<g id="edge34" class="edge">
<title>Node16&#45;&gt;Node24</title>
<path fill="none" stroke="midnightblue" d="M867.77,-224.4C841.02,-214.33 805.39,-200.91 779.82,-191.28"/>
<polygon fill="midnightblue" stroke="midnightblue" points="780.8,-187.91 770.2,-187.66 778.33,-194.46 780.8,-187.91"/>
</g>
<!-- Node25 -->
<g id="node25" class="node">
<title>Node25</title>
<g id="a_node25"><a xlink:title=" ">
<polygon fill="white" stroke="#bfbfbf" points="797.71,-168.5 797.71,-187.5 838.71,-187.5 838.71,-168.5 797.71,-168.5"/>
<text text-anchor="middle" x="818.21" y="-175.5" font-family="Helvetica,sans-Serif" font-size="10.00">tuple</text>
</a>
</g>
</g>
<!-- Node16&#45;&gt;Node25 -->
<g id="edge35" class="edge">
<title>Node16&#45;&gt;Node25</title>
<path fill="none" stroke="midnightblue" d="M884.6,-224.4C870.91,-215.04 853,-202.79 839.24,-193.38"/>
<polygon fill="midnightblue" stroke="midnightblue" points="841.1,-190.41 830.87,-187.66 837.15,-196.19 841.1,-190.41"/>
</g>
<!-- Node18&#45;&gt;Node4 -->
<g id="edge23" class="edge">
<title>Node18&#45;&gt;Node4</title>
<path fill="none" stroke="midnightblue" d="M1140.45,-168.08C1129.38,-141.83 1096.79,-64.55 1081.85,-29.12"/>
<polygon fill="midnightblue" stroke="midnightblue" points="1084.94,-27.42 1077.83,-19.57 1078.49,-30.14 1084.94,-27.42"/>
</g>
<!-- Node18&#45;&gt;Node9 -->
<g id="edge24" class="edge">
<title>Node18&#45;&gt;Node9</title>
<path fill="none" stroke="midnightblue" d="M1164.2,-168.36C1179.41,-160.83 1199.78,-148.51 1212.21,-132 1235.64,-100.88 1244.84,-54.99 1248.28,-29.6"/>
<polygon fill="midnightblue" stroke="midnightblue" points="1251.78,-29.85 1249.49,-19.51 1244.83,-29.02 1251.78,-29.85"/>
</g>
<!-- Node18&#45;&gt;Node17 -->
<g id="edge25" class="edge">
<title>Node18&#45;&gt;Node17</title>
<path fill="none" stroke="midnightblue" d="M1106.34,-168.44C1064.74,-159.04 997.85,-143.93 952.75,-133.74"/>
<polygon fill="midnightblue" stroke="midnightblue" points="953.43,-130.31 942.91,-131.52 951.89,-137.13 953.43,-130.31"/>
</g>
<!-- Node18&#45;&gt;Node19 -->
<g id="edge26" class="edge">
<title>Node18&#45;&gt;Node19</title>
<path fill="none" stroke="midnightblue" d="M1126.31,-168.44C1107.96,-159.68 1079.21,-145.94 1058.12,-135.86"/>
<polygon fill="midnightblue" stroke="midnightblue" points="1059.57,-132.67 1049.04,-131.52 1056.55,-138.99 1059.57,-132.67"/>
</g>
<!-- Node20 -->
<g id="node20" class="node">
<title>Node20</title>
<g id="a_node20"><a xlink:title=" ">
<polygon fill="white" stroke="#bfbfbf" points="1143.71,-112.5 1143.71,-131.5 1202.71,-131.5 1202.71,-112.5 1143.71,-112.5"/>
<text text-anchor="middle" x="1173.21" y="-119.5" font-family="Helvetica,sans-Serif" font-size="10.00">complex</text>
</a>
</g>
</g>
<!-- Node18&#45;&gt;Node20 -->
<g id="edge27" class="edge">
<title>Node18&#45;&gt;Node20</title>
<path fill="none" stroke="midnightblue" d="M1149,-168.08C1152.97,-160.69 1158.74,-149.95 1163.65,-140.81"/>
<polygon fill="midnightblue" stroke="midnightblue" points="1166.87,-142.22 1168.51,-131.75 1160.7,-138.91 1166.87,-142.22"/>
</g>
<!-- Node21&#45;&gt;Node2 -->
<g id="edge30" class="edge">
<title>Node21&#45;&gt;Node2</title>
<path fill="none" stroke="midnightblue" d="M601.17,-168.44C555.9,-159 482.99,-143.8 434.11,-133.61"/>
<polygon fill="midnightblue" stroke="midnightblue" points="434.57,-130.13 424.06,-131.52 433.14,-136.98 434.57,-130.13"/>
</g>
<!-- Node26&#45;&gt;Node9 -->
<g id="edge38" class="edge">
<title>Node26&#45;&gt;Node9</title>
<path fill="none" stroke="midnightblue" d="M962.19,-291.43C1089.08,-267.97 1429.21,-202.86 1429.21,-179 1429.21,-179 1429.21,-179 1429.21,-121 1429.21,-62.06 1357.9,-33.7 1305.3,-20.8"/>
<polygon fill="midnightblue" stroke="midnightblue" points="1305.92,-17.35 1295.38,-18.49 1304.33,-24.17 1305.92,-17.35"/>
</g>
<!-- Node27 -->
<g id="node27" class="node">
<title>Node27</title>
<g id="a_node27"><a xlink:href="sitkPixelIDValues_8h.html" target="_top" xlink:title=" ">
<polygon fill="white" stroke="black" points="500.21,-230 500.21,-249 610.21,-249 610.21,-230 500.21,-230"/>
<text text-anchor="middle" x="555.21" y="-237" font-family="Helvetica,sans-Serif" font-size="10.00">sitkPixelIDValues.h</text>
</a>
</g>
</g>
<!-- Node26&#45;&gt;Node27 -->
<g id="edge39" class="edge">
<title>Node26&#45;&gt;Node27</title>
<path fill="none" stroke="midnightblue" d="M863.64,-291.48C798.41,-280.69 686.23,-262.15 616.65,-250.65"/>
<polygon fill="midnightblue" stroke="midnightblue" points="617.13,-247.19 606.7,-249.01 615.99,-254.09 617.13,-247.19"/>
</g>
<!-- Node26&#45;&gt;Node29 -->
<g id="edge44" class="edge">
<title>Node26&#45;&gt;Node29</title>
<path fill="none" stroke="midnightblue" d="M970.55,-292.53C975.17,-291.98 979.77,-291.46 984.21,-291 1187.74,-269.76 1242,-292.24 1443.21,-255 1447.75,-254.16 1452.47,-253.06 1457.11,-251.85"/>
<polygon fill="midnightblue" stroke="midnightblue" points="1458.35,-255.13 1467.03,-249.05 1456.45,-248.39 1458.35,-255.13"/>
</g>
<!-- Node27&#45;&gt;Node2 -->
<g id="edge40" class="edge">
<title>Node27&#45;&gt;Node2</title>
<path fill="none" stroke="midnightblue" d="M547.23,-229.81C533.81,-215.56 505.41,-186.91 477.21,-168 457.64,-154.87 433.64,-143.45 414.79,-135.4"/>
<polygon fill="midnightblue" stroke="midnightblue" points="416.03,-132.12 405.45,-131.5 413.34,-138.58 416.03,-132.12"/>
</g>
<!-- Node27&#45;&gt;Node13 -->
<g id="edge43" class="edge">
<title>Node27&#45;&gt;Node13</title>
<path fill="none" stroke="midnightblue" d="M538.74,-229.98C519.61,-220.08 487.84,-203.64 465.56,-192.12"/>
<polygon fill="midnightblue" stroke="midnightblue" points="467.15,-189 456.66,-187.51 463.93,-195.21 467.15,-189"/>
</g>
<!-- Node27&#45;&gt;Node18 -->
<g id="edge41" class="edge">
<title>Node27&#45;&gt;Node18</title>
<path fill="none" stroke="midnightblue" d="M610.36,-232.93C717.62,-222.09 954.22,-198.19 1073.1,-186.18"/>
<polygon fill="midnightblue" stroke="midnightblue" points="1073.59,-189.65 1083.19,-185.16 1072.89,-182.69 1073.59,-189.65"/>
</g>
<!-- Node28 -->
<g id="node28" class="node">
<title>Node28</title>
<g id="a_node28"><a xlink:title=" ">
<polygon fill="white" stroke="#bfbfbf" points="525.21,-168.5 525.21,-187.5 569.21,-187.5 569.21,-168.5 525.21,-168.5"/>
<text text-anchor="middle" x="547.21" y="-175.5" font-family="Helvetica,sans-Serif" font-size="10.00">string</text>
</a>
</g>
</g>
<!-- Node27&#45;&gt;Node28 -->
<g id="edge42" class="edge">
<title>Node27&#45;&gt;Node28</title>
<path fill="none" stroke="midnightblue" d="M554.07,-229.98C552.94,-221.58 551.18,-208.48 549.72,-197.66"/>
<polygon fill="midnightblue" stroke="midnightblue" points="553.16,-196.95 548.36,-187.51 546.22,-197.89 553.16,-196.95"/>
</g>
<!-- Node30&#45;&gt;Node2 -->
<g id="edge46" class="edge">
<title>Node30&#45;&gt;Node2</title>
<path fill="none" stroke="midnightblue" d="M426.2,-229.92C419.58,-220.15 408.97,-203.52 402.21,-188 395.62,-172.84 390.54,-154.72 387.3,-141.47"/>
<polygon fill="midnightblue" stroke="midnightblue" points="390.69,-140.6 385.01,-131.65 383.87,-142.19 390.69,-140.6"/>
</g>
<!-- Node30&#45;&gt;Node13 -->
<g id="edge47" class="edge">
<title>Node30&#45;&gt;Node13</title>
<path fill="none" stroke="midnightblue" d="M433.36,-229.98C434.49,-221.58 436.25,-208.48 437.7,-197.66"/>
<polygon fill="midnightblue" stroke="midnightblue" points="441.21,-197.89 439.07,-187.51 434.27,-196.95 441.21,-197.89"/>
</g>
</g>
</svg>
