<?xml version="1.0" encoding="UTF-8" standalone="no"?>
<!DOCTYPE svg PUBLIC "-//W3C//DTD SVG 1.1//EN"
 "http://www.w3.org/Graphics/SVG/1.1/DTD/svg11.dtd">
<!-- Generated by graphviz version 2.43.0 (0)
 -->
<!-- Title: sitkIO.h Pages: 1 -->
<!--zoomable 196 -->
<svg id="main" version="1.1" xmlns="http://www.w3.org/2000/svg" xmlns:xlink="http://www.w3.org/1999/xlink" xml:space="preserve" onload="init(evt)">
<style type="text/css"><![CDATA[
.edge:hover path { stroke: red; }
.edge:hover polygon { stroke: red; fill: red; }
]]></style>
<script type="text/javascript"><![CDATA[
var edges = document.getElementsByTagName('g');
if (edges && edges.length) {
  for (var i=0;i<edges.length;i++) {
    if (edges[i].id.substr(0,4)=='edge') {
      edges[i].setAttribute('class','edge');
    }
  }
}
]]></script>
        <defs>
                <circle id="rim" cx="0" cy="0" r="7"/>
                <circle id="rim2" cx="0" cy="0" r="3.5"/>
                <g id="zoomPlus">
                        <use xlink:href="#rim" fill="#404040">
                                <set attributeName="fill" to="#808080" begin="zoomplus.mouseover" end="zoomplus.mouseout"/>
                        </use>
                        <path d="M-4,0h8M0,-4v8" fill="none" stroke="white" stroke-width="1.5" pointer-events="none"/>
                </g>
                <g id="zoomMin">
                        <use xlink:href="#rim" fill="#404040">
                                <set attributeName="fill" to="#808080" begin="zoomminus.mouseover" end="zoomminus.mouseout"/>
                        </use>
                        <path d="M-4,0h8" fill="none" stroke="white" stroke-width="1.5" pointer-events="none"/>
                </g>
                <g id="dirArrow">
                        <path fill="none" stroke="white" stroke-width="1.5" d="M0,-3.0v7 M-2.5,-0.5L0,-3.0L2.5,-0.5"/>
                </g>
               <g id="resetDef">
                       <use xlink:href="#rim2" fill="#404040">
                               <set attributeName="fill" to="#808080" begin="reset.mouseover" end="reset.mouseout"/>
                       </use>
               </g>
        </defs>

<script type="text/javascript">
var viewWidth = 785;
var viewHeight = 196;
var sectionId = 'dynsection-1';
</script>
<script xlink:href="svgpan.js"/>
<svg id="graph" class="graph">
<g id="viewport">
<title>sitkIO.h</title>
<polygon fill="white" stroke="transparent" points="-4,4 -4,-192 781,-192 781,4 -4,4"/>
<!-- Node1 -->
<g id="node1" class="node">
<title>Node1</title>
<g id="a_node1"><a xlink:title=" ">
<polygon fill="#bfbfbf" stroke="black" points="470.5,-168.5 470.5,-187.5 524.5,-187.5 524.5,-168.5 470.5,-168.5"/>
<text text-anchor="middle" x="497.5" y="-175.5" font-family="Helvetica,sans-Serif" font-size="10.00">sitkIO.h</text>
</a>
</g>
</g>
<!-- Node2 -->
<g id="node2" class="node">
<title>Node2</title>
<g id="a_node2"><a xlink:href="sitkImageFileWriter_8h.html" target="_top" xlink:title=" ">
<polygon fill="white" stroke="black" points="0,-56.5 0,-75.5 121,-75.5 121,-56.5 0,-56.5"/>
<text text-anchor="middle" x="60.5" y="-63.5" font-family="Helvetica,sans-Serif" font-size="10.00">sitkImageFileWriter.h</text>
</a>
</g>
</g>
<!-- Node1&#45;&gt;Node2 -->
<g id="edge1" class="edge">
<title>Node1&#45;&gt;Node2</title>
<path fill="none" stroke="midnightblue" d="M460.47,-170.88C415.31,-163.15 336.8,-148.78 270.5,-132 202.61,-114.81 124.15,-88.87 85.15,-75.55"/>
<polygon fill="midnightblue" stroke="midnightblue" points="459.94,-174.35 470.39,-172.57 461.12,-167.44 459.94,-174.35"/>
</g>
<!-- Node4 -->
<g id="node4" class="node">
<title>Node4</title>
<g id="a_node4"><a xlink:href="sitkImageReaderBase_8h.html" target="_top" xlink:title=" ">
<polygon fill="white" stroke="black" points="279,-112.5 279,-131.5 412,-131.5 412,-112.5 279,-112.5"/>
<text text-anchor="middle" x="345.5" y="-119.5" font-family="Helvetica,sans-Serif" font-size="10.00">sitkImageReaderBase.h</text>
</a>
</g>
</g>
<!-- Node1&#45;&gt;Node4 -->
<g id="edge3" class="edge">
<title>Node1&#45;&gt;Node4</title>
<path fill="none" stroke="midnightblue" d="M463.83,-165.04C435.23,-154.88 394.89,-140.55 369.47,-131.52"/>
<polygon fill="midnightblue" stroke="midnightblue" points="462.82,-168.39 473.42,-168.44 465.16,-161.8 462.82,-168.39"/>
</g>
<!-- Node8 -->
<g id="node8" class="node">
<title>Node8</title>
<g id="a_node8"><a xlink:href="sitkImageSeriesWriter_8h.html" target="_top" xlink:title=" ">
<polygon fill="white" stroke="black" points="430.5,-112.5 430.5,-131.5 564.5,-131.5 564.5,-112.5 430.5,-112.5"/>
<text text-anchor="middle" x="497.5" y="-119.5" font-family="Helvetica,sans-Serif" font-size="10.00">sitkImageSeriesWriter.h</text>
</a>
</g>
</g>
<!-- Node1&#45;&gt;Node8 -->
<g id="edge10" class="edge">
<title>Node1&#45;&gt;Node8</title>
<path fill="none" stroke="midnightblue" d="M497.5,-157.8C497.5,-148.91 497.5,-138.78 497.5,-131.75"/>
<polygon fill="midnightblue" stroke="midnightblue" points="494,-158.08 497.5,-168.08 501,-158.08 494,-158.08"/>
</g>
<!-- Node9 -->
<g id="node9" class="node">
<title>Node9</title>
<g id="a_node9"><a xlink:href="sitkImageViewer_8h.html" target="_top" xlink:title=" ">
<polygon fill="white" stroke="black" points="583,-112.5 583,-131.5 690,-131.5 690,-112.5 583,-112.5"/>
<text text-anchor="middle" x="636.5" y="-119.5" font-family="Helvetica,sans-Serif" font-size="10.00">sitkImageViewer.h</text>
</a>
</g>
</g>
<!-- Node1&#45;&gt;Node9 -->
<g id="edge12" class="edge">
<title>Node1&#45;&gt;Node9</title>
<path fill="none" stroke="midnightblue" d="M528.98,-164.77C555.09,-154.63 591.54,-140.47 614.58,-131.52"/>
<polygon fill="midnightblue" stroke="midnightblue" points="527.58,-161.56 519.52,-168.44 530.11,-168.08 527.58,-161.56"/>
</g>
<!-- Node10 -->
<g id="node10" class="node">
<title>Node10</title>
<g id="a_node10"><a xlink:href="sitkShow_8h.html" target="_top" xlink:title=" ">
<polygon fill="white" stroke="black" points="708,-112.5 708,-131.5 777,-131.5 777,-112.5 708,-112.5"/>
<text text-anchor="middle" x="742.5" y="-119.5" font-family="Helvetica,sans-Serif" font-size="10.00">sitkShow.h</text>
</a>
</g>
</g>
<!-- Node1&#45;&gt;Node10 -->
<g id="edge14" class="edge">
<title>Node1&#45;&gt;Node10</title>
<path fill="none" stroke="midnightblue" d="M534.42,-168.86C581.38,-158.51 661.86,-140.77 707.75,-130.66"/>
<polygon fill="midnightblue" stroke="midnightblue" points="533.67,-165.44 524.66,-171.01 535.17,-172.28 533.67,-165.44"/>
</g>
<!-- Node3 -->
<g id="node3" class="node">
<title>Node3</title>
<g id="a_node3"><a xlink:href="SimpleITK_8h.html" target="_top" xlink:title=" ">
<polygon fill="white" stroke="black" points="467,-0.5 467,-19.5 542,-19.5 542,-0.5 467,-0.5"/>
<text text-anchor="middle" x="504.5" y="-7.5" font-family="Helvetica,sans-Serif" font-size="10.00">SimpleITK.h</text>
</a>
</g>
</g>
<!-- Node2&#45;&gt;Node3 -->
<g id="edge2" class="edge">
<title>Node2&#45;&gt;Node3</title>
<path fill="none" stroke="midnightblue" d="M131.15,-55.8C260.34,-39.67 401.14,-23.08 466.96,-15.38"/>
<polygon fill="midnightblue" stroke="midnightblue" points="130.57,-52.35 121.08,-57.06 131.43,-59.29 130.57,-52.35"/>
</g>
<!-- Node5 -->
<g id="node5" class="node">
<title>Node5</title>
<g id="a_node5"><a xlink:href="sitkImageFileReader_8h.html" target="_top" xlink:title=" ">
<polygon fill="white" stroke="black" points="139,-56.5 139,-75.5 264,-75.5 264,-56.5 139,-56.5"/>
<text text-anchor="middle" x="201.5" y="-63.5" font-family="Helvetica,sans-Serif" font-size="10.00">sitkImageFileReader.h</text>
</a>
</g>
</g>
<!-- Node4&#45;&gt;Node5 -->
<g id="edge4" class="edge">
<title>Node4&#45;&gt;Node5</title>
<path fill="none" stroke="midnightblue" d="M313.25,-108.91C286.18,-98.75 248.18,-84.51 224.21,-75.52"/>
<polygon fill="midnightblue" stroke="midnightblue" points="312.09,-112.21 322.68,-112.44 314.55,-105.66 312.09,-112.21"/>
</g>
<!-- Node6 -->
<g id="node6" class="node">
<title>Node6</title>
<g id="a_node6"><a xlink:href="sitkImageSeriesReader_8h.html" target="_top" xlink:title=" ">
<polygon fill="white" stroke="black" points="282.5,-56.5 282.5,-75.5 420.5,-75.5 420.5,-56.5 282.5,-56.5"/>
<text text-anchor="middle" x="351.5" y="-63.5" font-family="Helvetica,sans-Serif" font-size="10.00">sitkImageSeriesReader.h</text>
</a>
</g>
</g>
<!-- Node4&#45;&gt;Node6 -->
<g id="edge6" class="edge">
<title>Node4&#45;&gt;Node6</title>
<path fill="none" stroke="midnightblue" d="M347.6,-102.1C348.6,-93.14 349.74,-82.86 350.53,-75.75"/>
<polygon fill="midnightblue" stroke="midnightblue" points="344.12,-101.76 346.49,-112.08 351.07,-102.53 344.12,-101.76"/>
</g>
<!-- Node7 -->
<g id="node7" class="node">
<title>Node7</title>
<g id="a_node7"><a xlink:href="sitkImportImageFilter_8h.html" target="_top" xlink:title=" ">
<polygon fill="white" stroke="black" points="439,-56.5 439,-75.5 570,-75.5 570,-56.5 439,-56.5"/>
<text text-anchor="middle" x="504.5" y="-63.5" font-family="Helvetica,sans-Serif" font-size="10.00">sitkImportImageFilter.h</text>
</a>
</g>
</g>
<!-- Node4&#45;&gt;Node7 -->
<g id="edge8" class="edge">
<title>Node4&#45;&gt;Node7</title>
<path fill="none" stroke="midnightblue" d="M380.33,-109.17C410.27,-99 452.72,-84.59 479.42,-75.52"/>
<polygon fill="midnightblue" stroke="midnightblue" points="379.04,-105.91 370.69,-112.44 381.29,-112.54 379.04,-105.91"/>
</g>
<!-- Node5&#45;&gt;Node3 -->
<g id="edge5" class="edge">
<title>Node5&#45;&gt;Node3</title>
<path fill="none" stroke="midnightblue" d="M259.38,-54.69C320.38,-43.81 414.71,-27 466.76,-17.73"/>
<polygon fill="midnightblue" stroke="midnightblue" points="258.74,-51.24 249.51,-56.44 259.97,-58.13 258.74,-51.24"/>
</g>
<!-- Node6&#45;&gt;Node3 -->
<g id="edge7" class="edge">
<title>Node6&#45;&gt;Node3</title>
<path fill="none" stroke="midnightblue" d="M385.39,-53.04C414.18,-42.88 454.79,-28.55 480.37,-19.52"/>
<polygon fill="midnightblue" stroke="midnightblue" points="384.01,-49.81 375.74,-56.44 386.34,-56.42 384.01,-49.81"/>
</g>
<!-- Node7&#45;&gt;Node3 -->
<g id="edge9" class="edge">
<title>Node7&#45;&gt;Node3</title>
<path fill="none" stroke="midnightblue" d="M504.5,-45.8C504.5,-36.91 504.5,-26.78 504.5,-19.75"/>
<polygon fill="midnightblue" stroke="midnightblue" points="501,-46.08 504.5,-56.08 508,-46.08 501,-46.08"/>
</g>
<!-- Node8&#45;&gt;Node3 -->
<g id="edge11" class="edge">
<title>Node8&#45;&gt;Node3</title>
<path fill="none" stroke="midnightblue" d="M538.87,-108.5C554.43,-101.55 570.53,-91.16 579.5,-76 594.42,-50.79 556.45,-30.4 529.26,-19.54"/>
<polygon fill="midnightblue" stroke="midnightblue" points="537.25,-105.37 529.31,-112.38 539.89,-111.86 537.25,-105.37"/>
</g>
<!-- Node9&#45;&gt;Node3 -->
<g id="edge13" class="edge">
<title>Node9&#45;&gt;Node3</title>
<path fill="none" stroke="midnightblue" d="M628.3,-103.16C621.05,-88.93 609.32,-69.27 594.5,-56 575.63,-39.1 549.26,-26.91 529.95,-19.51"/>
<polygon fill="midnightblue" stroke="midnightblue" points="625.26,-104.91 632.77,-112.38 631.56,-101.86 625.26,-104.91"/>
</g>
<!-- Node10&#45;&gt;Node3 -->
<g id="edge15" class="edge">
<title>Node10&#45;&gt;Node3</title>
<path fill="none" stroke="midnightblue" d="M717.97,-107.47C692.83,-93.81 652.42,-72.44 616.5,-56 586.2,-42.14 550.34,-28.13 527.5,-19.51"/>
<polygon fill="midnightblue" stroke="midnightblue" points="716.37,-110.59 726.82,-112.31 719.72,-104.44 716.37,-110.59"/>
</g>
</g>
</svg>
        <g id="navigator" transform="translate(0 0)" fill="#404254">
                <rect fill="#f2f5e9" fill-opacity="0.5" stroke="#606060" stroke-width=".5" x="0" y="0" width="60" height="60"/>
                <use id="zoomplus" xlink:href="#zoomPlus" x="17" y="9" onmousedown="handleZoom(evt,'in')"/>
                <use id="zoomminus" xlink:href="#zoomMin" x="42" y="9" onmousedown="handleZoom(evt,'out')"/>
                <use id="reset" xlink:href="#resetDef" x="30" y="36" onmousedown="handleReset()"/>
                <g id="arrowUp" xlink:href="#dirArrow" transform="translate(30 24)" onmousedown="handlePan(0,-1)">
                  <use xlink:href="#rim" fill="#404040">
                        <set attributeName="fill" to="#808080" begin="arrowUp.mouseover" end="arrowUp.mouseout"/>
                  </use>
                  <path fill="none" stroke="white" stroke-width="1.5" d="M0,-3.0v7 M-2.5,-0.5L0,-3.0L2.5,-0.5"/>
                </g>
                <g id="arrowRight" xlink:href="#dirArrow" transform="rotate(90) translate(36 -43)" onmousedown="handlePan(1,0)">
                  <use xlink:href="#rim" fill="#404040">
                        <set attributeName="fill" to="#808080" begin="arrowRight.mouseover" end="arrowRight.mouseout"/>
                  </use>
                  <path fill="none" stroke="white" stroke-width="1.5" d="M0,-3.0v7 M-2.5,-0.5L0,-3.0L2.5,-0.5"/>
                </g>
                <g id="arrowDown" xlink:href="#dirArrow" transform="rotate(180) translate(-30 -48)" onmousedown="handlePan(0,1)">
                  <use xlink:href="#rim" fill="#404040">
                        <set attributeName="fill" to="#808080" begin="arrowDown.mouseover" end="arrowDown.mouseout"/>
                  </use>
                  <path fill="none" stroke="white" stroke-width="1.5" d="M0,-3.0v7 M-2.5,-0.5L0,-3.0L2.5,-0.5"/>
                </g>
                <g id="arrowLeft" xlink:href="#dirArrow" transform="rotate(270) translate(-36 17)" onmousedown="handlePan(-1,0)">
                  <use xlink:href="#rim" fill="#404040">
                        <set attributeName="fill" to="#808080" begin="arrowLeft.mouseover" end="arrowLeft.mouseout"/>
                  </use>
                  <path fill="none" stroke="white" stroke-width="1.5" d="M0,-3.0v7 M-2.5,-0.5L0,-3.0L2.5,-0.5"/>
                </g>
        </g>
        <svg viewBox="0 0 15 15" width="100%" height="30px" preserveAspectRatio="xMaxYMin meet">
         <g id="arrow_out" transform="scale(0.3 0.3)">
          <a xlink:href="sitkIO_8h__dep__incl_org.svg" target="_base">
           <rect id="button" ry="5" rx="5" y="6" x="6" height="38" width="38"
                fill="#f2f5e9" fill-opacity="0.5" stroke="#606060" stroke-width="1.0"/>
           <path id="arrow"
             d="M 11.500037,31.436501 C 11.940474,20.09759 22.043105,11.32322 32.158766,21.979434 L 37.068811,17.246167 C 37.068811,17.246167 37.088388,32 37.088388,32 L 22.160133,31.978069 C 22.160133,31.978069 26.997745,27.140456 26.997745,27.140456 C 18.528582,18.264221 13.291696,25.230495 11.500037,31.436501 z"
             style="fill:#404040;"/>
          </a>
         </g>
        </svg>
</svg>
