<?xml version="1.0" encoding="UTF-8" standalone="no"?>
<!DOCTYPE svg PUBLIC "-//W3C//DTD SVG 1.1//EN"
 "http://www.w3.org/Graphics/SVG/1.1/DTD/svg11.dtd">
<!-- Generated by graphviz version 2.43.0 (0)
 -->
<!-- Title: sitkDisplacementFieldTransform.h Pages: 1 -->
<svg width="1523pt" height="487pt"
 viewBox="0.00 0.00 1523.00 487.00" xmlns="http://www.w3.org/2000/svg" xmlns:xlink="http://www.w3.org/1999/xlink">
<g id="graph0" class="graph" transform="scale(1 1) rotate(0) translate(4 483)">
<title>sitkDisplacementFieldTransform.h</title>
<polygon fill="white" stroke="transparent" points="-4,4 -4,-483 1519,-483 1519,4 -4,4"/>
<!-- Node1 -->
<g id="node1" class="node">
<title>Node1</title>
<g id="a_node1"><a xlink:title=" ">
<polygon fill="#bfbfbf" stroke="black" points="1306.5,-459.5 1306.5,-478.5 1489.5,-478.5 1489.5,-459.5 1306.5,-459.5"/>
<text text-anchor="middle" x="1398" y="-466.5" font-family="Helvetica,sans-Serif" font-size="10.00">sitkDisplacementFieldTransform.h</text>
</a>
</g>
</g>
<!-- Node2 -->
<g id="node2" class="node">
<title>Node2</title>
<g id="a_node2"><a xlink:href="sitkCommon_8h.html" target="_top" xlink:title=" ">
<polygon fill="white" stroke="black" points="1067,-112.5 1067,-131.5 1155,-131.5 1155,-112.5 1067,-112.5"/>
<text text-anchor="middle" x="1111" y="-119.5" font-family="Helvetica,sans-Serif" font-size="10.00">sitkCommon.h</text>
</a>
</g>
</g>
<!-- Node1&#45;&gt;Node2 -->
<g id="edge1" class="edge">
<title>Node1&#45;&gt;Node2</title>
<path fill="none" stroke="midnightblue" d="M1419.46,-459.46C1453.24,-444.43 1515,-409.86 1515,-358 1515,-358 1515,-358 1515,-238.5 1515,-203.11 1507.11,-188.12 1478,-168 1428.54,-133.81 1254.94,-125.56 1165.37,-123.6"/>
<polygon fill="midnightblue" stroke="midnightblue" points="1165.21,-120.09 1155.14,-123.39 1165.07,-127.09 1165.21,-120.09"/>
</g>
<!-- Node10 -->
<g id="node10" class="node">
<title>Node10</title>
<g id="a_node10"><a xlink:href="sitkTransform_8h.html" target="_top" xlink:title=" ">
<polygon fill="white" stroke="black" points="1352,-403.5 1352,-422.5 1444,-422.5 1444,-403.5 1352,-403.5"/>
<text text-anchor="middle" x="1398" y="-410.5" font-family="Helvetica,sans-Serif" font-size="10.00">sitkTransform.h</text>
</a>
</g>
</g>
<!-- Node1&#45;&gt;Node10 -->
<g id="edge9" class="edge">
<title>Node1&#45;&gt;Node10</title>
<path fill="none" stroke="midnightblue" d="M1398,-459.08C1398,-452.01 1398,-441.86 1398,-432.99"/>
<polygon fill="midnightblue" stroke="midnightblue" points="1401.5,-432.75 1398,-422.75 1394.5,-432.75 1401.5,-432.75"/>
</g>
<!-- Node32 -->
<g id="node32" class="node">
<title>Node32</title>
<g id="a_node32"><a xlink:href="sitkInterpolator_8h.html" target="_top" xlink:title=" ">
<polygon fill="white" stroke="black" points="1164,-291.5 1164,-310.5 1264,-310.5 1264,-291.5 1164,-291.5"/>
<text text-anchor="middle" x="1214" y="-298.5" font-family="Helvetica,sans-Serif" font-size="10.00">sitkInterpolator.h</text>
</a>
</g>
</g>
<!-- Node1&#45;&gt;Node32 -->
<g id="edge57" class="edge">
<title>Node1&#45;&gt;Node32</title>
<path fill="none" stroke="midnightblue" d="M1386.86,-459.25C1375.62,-450.34 1357.85,-436.01 1343,-423 1301.3,-386.45 1254.24,-341.26 1230.13,-317.8"/>
<polygon fill="midnightblue" stroke="midnightblue" points="1232.48,-315.2 1222.88,-310.72 1227.59,-320.21 1232.48,-315.2"/>
</g>
<!-- Node3 -->
<g id="node3" class="node">
<title>Node3</title>
<g id="a_node3"><a xlink:href="sitkMacro_8h.html" target="_top" xlink:title=" ">
<polygon fill="white" stroke="black" points="853,-56.5 853,-75.5 927,-75.5 927,-56.5 853,-56.5"/>
<text text-anchor="middle" x="890" y="-63.5" font-family="Helvetica,sans-Serif" font-size="10.00">sitkMacro.h</text>
</a>
</g>
</g>
<!-- Node2&#45;&gt;Node3 -->
<g id="edge2" class="edge">
<title>Node2&#45;&gt;Node3</title>
<path fill="none" stroke="midnightblue" d="M1075.98,-112.44C1037.75,-103.1 976.43,-88.12 934.74,-77.93"/>
<polygon fill="midnightblue" stroke="midnightblue" points="935.4,-74.49 924.85,-75.52 933.74,-81.29 935.4,-74.49"/>
</g>
<!-- Node4 -->
<g id="node4" class="node">
<title>Node4</title>
<g id="a_node4"><a xlink:title=" ">
<polygon fill="white" stroke="#bfbfbf" points="592.5,-0.5 592.5,-19.5 645.5,-19.5 645.5,-0.5 592.5,-0.5"/>
<text text-anchor="middle" x="619" y="-7.5" font-family="Helvetica,sans-Serif" font-size="10.00">stdint.h</text>
</a>
</g>
</g>
<!-- Node3&#45;&gt;Node4 -->
<g id="edge3" class="edge">
<title>Node3&#45;&gt;Node4</title>
<path fill="none" stroke="midnightblue" d="M852.89,-57.6C801.08,-47.28 707.64,-28.66 655.93,-18.36"/>
<polygon fill="midnightblue" stroke="midnightblue" points="656.36,-14.88 645.87,-16.35 654.99,-21.74 656.36,-14.88"/>
</g>
<!-- Node5 -->
<g id="node5" class="node">
<title>Node5</title>
<g id="a_node5"><a xlink:title=" ">
<polygon fill="white" stroke="#bfbfbf" points="896,-0.5 896,-19.5 952,-19.5 952,-0.5 896,-0.5"/>
<text text-anchor="middle" x="924" y="-7.5" font-family="Helvetica,sans-Serif" font-size="10.00">stddef.h</text>
</a>
</g>
</g>
<!-- Node3&#45;&gt;Node5 -->
<g id="edge4" class="edge">
<title>Node3&#45;&gt;Node5</title>
<path fill="none" stroke="midnightblue" d="M895.61,-56.08C900.37,-48.53 907.32,-37.49 913.15,-28.23"/>
<polygon fill="midnightblue" stroke="midnightblue" points="916.12,-30.08 918.49,-19.75 910.2,-26.35 916.12,-30.08"/>
</g>
<!-- Node6 -->
<g id="node6" class="node">
<title>Node6</title>
<g id="a_node6"><a xlink:title=" ">
<polygon fill="white" stroke="#bfbfbf" points="970,-0.5 970,-19.5 1022,-19.5 1022,-0.5 970,-0.5"/>
<text text-anchor="middle" x="996" y="-7.5" font-family="Helvetica,sans-Serif" font-size="10.00">cassert</text>
</a>
</g>
</g>
<!-- Node3&#45;&gt;Node6 -->
<g id="edge5" class="edge">
<title>Node3&#45;&gt;Node6</title>
<path fill="none" stroke="midnightblue" d="M907.03,-56.32C924.03,-47.66 950.38,-34.24 969.99,-24.25"/>
<polygon fill="midnightblue" stroke="midnightblue" points="971.69,-27.31 979.01,-19.65 968.51,-21.08 971.69,-27.31"/>
</g>
<!-- Node7 -->
<g id="node7" class="node">
<title>Node7</title>
<g id="a_node7"><a xlink:title=" ">
<polygon fill="white" stroke="#bfbfbf" points="760,-0.5 760,-19.5 816,-19.5 816,-0.5 760,-0.5"/>
<text text-anchor="middle" x="788" y="-7.5" font-family="Helvetica,sans-Serif" font-size="10.00">sstream</text>
</a>
</g>
</g>
<!-- Node3&#45;&gt;Node7 -->
<g id="edge6" class="edge">
<title>Node3&#45;&gt;Node7</title>
<path fill="none" stroke="midnightblue" d="M873.61,-56.32C857.33,-47.7 832.13,-34.36 813.28,-24.39"/>
<polygon fill="midnightblue" stroke="midnightblue" points="814.82,-21.24 804.35,-19.65 811.55,-27.43 814.82,-21.24"/>
</g>
<!-- Node8 -->
<g id="node8" class="node">
<title>Node8</title>
<g id="a_node8"><a xlink:title=" ">
<polygon fill="white" stroke="#bfbfbf" points="834,-0.5 834,-19.5 878,-19.5 878,-0.5 834,-0.5"/>
<text text-anchor="middle" x="856" y="-7.5" font-family="Helvetica,sans-Serif" font-size="10.00">limits</text>
</a>
</g>
</g>
<!-- Node3&#45;&gt;Node8 -->
<g id="edge7" class="edge">
<title>Node3&#45;&gt;Node8</title>
<path fill="none" stroke="midnightblue" d="M884.39,-56.08C879.63,-48.53 872.68,-37.49 866.85,-28.23"/>
<polygon fill="midnightblue" stroke="midnightblue" points="869.8,-26.35 861.51,-19.75 863.88,-30.08 869.8,-26.35"/>
</g>
<!-- Node9 -->
<g id="node9" class="node">
<title>Node9</title>
<g id="a_node9"><a xlink:href="sitkConfigure_8h.html" target="_top" xlink:title=" ">
<polygon fill="white" stroke="black" points="363,-0.5 363,-19.5 453,-19.5 453,-0.5 363,-0.5"/>
<text text-anchor="middle" x="408" y="-7.5" font-family="Helvetica,sans-Serif" font-size="10.00">sitkConfigure.h</text>
</a>
</g>
</g>
<!-- Node3&#45;&gt;Node9 -->
<g id="edge8" class="edge">
<title>Node3&#45;&gt;Node9</title>
<path fill="none" stroke="midnightblue" d="M852.98,-60.85C768.77,-51.42 562.54,-28.31 463.22,-17.19"/>
<polygon fill="midnightblue" stroke="midnightblue" points="463.42,-13.69 453.09,-16.05 462.64,-20.64 463.42,-13.69"/>
</g>
<!-- Node10&#45;&gt;Node2 -->
<g id="edge10" class="edge">
<title>Node10&#45;&gt;Node2</title>
<path fill="none" stroke="midnightblue" d="M1410.34,-403.28C1432.56,-386.45 1477,-347.14 1477,-302 1477,-302 1477,-302 1477,-238.5 1477,-205.93 1481.66,-189.28 1457,-168 1414.41,-131.26 1251.55,-124.14 1165.31,-123"/>
<polygon fill="midnightblue" stroke="midnightblue" points="1165.22,-119.5 1155.19,-122.89 1165.15,-126.5 1165.22,-119.5"/>
</g>
<!-- Node11 -->
<g id="node11" class="node">
<title>Node11</title>
<g id="a_node11"><a xlink:href="sitkExceptionObject_8h.html" target="_top" xlink:title=" ">
<polygon fill="white" stroke="black" points="859.5,-168.5 859.5,-187.5 982.5,-187.5 982.5,-168.5 859.5,-168.5"/>
<text text-anchor="middle" x="921" y="-175.5" font-family="Helvetica,sans-Serif" font-size="10.00">sitkExceptionObject.h</text>
</a>
</g>
</g>
<!-- Node10&#45;&gt;Node11 -->
<g id="edge11" class="edge">
<title>Node10&#45;&gt;Node11</title>
<path fill="none" stroke="midnightblue" d="M1351.76,-410.54C1234.94,-405.74 933.11,-386.18 875,-311 851.35,-280.41 860.01,-259.64 875,-224 880.03,-212.05 889.94,-201.69 899.29,-193.93"/>
<polygon fill="midnightblue" stroke="midnightblue" points="901.44,-196.69 907.21,-187.81 897.16,-191.15 901.44,-196.69"/>
</g>
<!-- Node12 -->
<g id="node12" class="node">
<title>Node12</title>
<g id="a_node12"><a xlink:href="sitkImage_8h.html" target="_top" xlink:title=" ">
<polygon fill="white" stroke="black" points="1099,-347.5 1099,-366.5 1173,-366.5 1173,-347.5 1099,-347.5"/>
<text text-anchor="middle" x="1136" y="-354.5" font-family="Helvetica,sans-Serif" font-size="10.00">sitkImage.h</text>
</a>
</g>
</g>
<!-- Node10&#45;&gt;Node12 -->
<g id="edge14" class="edge">
<title>Node10&#45;&gt;Node12</title>
<path fill="none" stroke="midnightblue" d="M1356.49,-403.44C1309.34,-393.73 1232.57,-377.9 1183.19,-367.73"/>
<polygon fill="midnightblue" stroke="midnightblue" points="1183.58,-364.23 1173.08,-365.64 1182.17,-371.09 1183.58,-364.23"/>
</g>
<!-- Node14 -->
<g id="node14" class="node">
<title>Node14</title>
<g id="a_node14"><a xlink:title=" ">
<polygon fill="white" stroke="#bfbfbf" points="1401.5,-168.5 1401.5,-187.5 1448.5,-187.5 1448.5,-168.5 1401.5,-168.5"/>
<text text-anchor="middle" x="1425" y="-175.5" font-family="Helvetica,sans-Serif" font-size="10.00">vector</text>
</a>
</g>
</g>
<!-- Node10&#45;&gt;Node14 -->
<g id="edge56" class="edge">
<title>Node10&#45;&gt;Node14</title>
<path fill="none" stroke="midnightblue" d="M1398.99,-403.43C1402.9,-369.75 1417.24,-245.99 1422.79,-198.1"/>
<polygon fill="midnightblue" stroke="midnightblue" points="1426.29,-198.23 1423.97,-187.9 1419.34,-197.43 1426.29,-198.23"/>
</g>
<!-- Node11&#45;&gt;Node2 -->
<g id="edge13" class="edge">
<title>Node11&#45;&gt;Node2</title>
<path fill="none" stroke="midnightblue" d="M951.11,-168.44C983.63,-159.2 1035.58,-144.44 1071.39,-134.26"/>
<polygon fill="midnightblue" stroke="midnightblue" points="1072.37,-137.62 1081.03,-131.52 1070.46,-130.88 1072.37,-137.62"/>
</g>
<!-- Node11&#45;&gt;Node3 -->
<g id="edge12" class="edge">
<title>Node11&#45;&gt;Node3</title>
<path fill="none" stroke="midnightblue" d="M918.57,-168.37C913.54,-150.54 901.92,-109.3 895.15,-85.27"/>
<polygon fill="midnightblue" stroke="midnightblue" points="898.5,-84.27 892.42,-75.59 891.77,-86.17 898.5,-84.27"/>
</g>
<!-- Node12&#45;&gt;Node2 -->
<g id="edge15" class="edge">
<title>Node12&#45;&gt;Node2</title>
<path fill="none" stroke="midnightblue" d="M1135.08,-347.43C1131.47,-313.75 1118.19,-189.99 1113.05,-142.1"/>
<polygon fill="midnightblue" stroke="midnightblue" points="1116.5,-141.47 1111.95,-131.9 1109.54,-142.21 1116.5,-141.47"/>
</g>
<!-- Node13 -->
<g id="node13" class="node">
<title>Node13</title>
<g id="a_node13"><a xlink:href="sitkTemplateFunctions_8h.html" target="_top" xlink:title=" ">
<polygon fill="white" stroke="black" points="1237.5,-230 1237.5,-249 1372.5,-249 1372.5,-230 1237.5,-230"/>
<text text-anchor="middle" x="1305" y="-237" font-family="Helvetica,sans-Serif" font-size="10.00">sitkTemplateFunctions.h</text>
</a>
</g>
</g>
<!-- Node12&#45;&gt;Node13 -->
<g id="edge16" class="edge">
<title>Node12&#45;&gt;Node13</title>
<path fill="none" stroke="midnightblue" d="M1173.24,-352.04C1203.38,-347.06 1245.23,-335.9 1273,-311 1288.29,-297.29 1296.72,-274.84 1301.04,-258.96"/>
<polygon fill="midnightblue" stroke="midnightblue" points="1304.45,-259.75 1303.41,-249.21 1297.65,-258.1 1304.45,-259.75"/>
</g>
<!-- Node12&#45;&gt;Node14 -->
<g id="edge53" class="edge">
<title>Node12&#45;&gt;Node14</title>
<path fill="none" stroke="midnightblue" d="M1173.33,-350.38C1226.57,-340.46 1324.15,-314.9 1381,-255 1397.18,-237.94 1409.84,-213.86 1417.34,-197.4"/>
<polygon fill="midnightblue" stroke="midnightblue" points="1420.72,-198.4 1421.51,-187.84 1414.31,-195.6 1420.72,-198.4"/>
</g>
<!-- Node17 -->
<g id="node17" class="node">
<title>Node17</title>
<g id="a_node17"><a xlink:href="sitkDetail_8h.html" target="_top" xlink:title=" ">
<polygon fill="white" stroke="black" points="332.5,-291.5 332.5,-310.5 405.5,-310.5 405.5,-291.5 332.5,-291.5"/>
<text text-anchor="middle" x="369" y="-298.5" font-family="Helvetica,sans-Serif" font-size="10.00">sitkDetail.h</text>
</a>
</g>
</g>
<!-- Node12&#45;&gt;Node17 -->
<g id="edge23" class="edge">
<title>Node12&#45;&gt;Node17</title>
<path fill="none" stroke="midnightblue" d="M1098.75,-353.38C971.72,-344.43 555.74,-315.15 415.58,-305.28"/>
<polygon fill="midnightblue" stroke="midnightblue" points="415.8,-301.79 405.58,-304.58 415.31,-308.77 415.8,-301.79"/>
</g>
<!-- Node28 -->
<g id="node28" class="node">
<title>Node28</title>
<g id="a_node28"><a xlink:href="sitkPixelIDTokens_8h.html" target="_top" xlink:title=" ">
<polygon fill="white" stroke="black" points="884,-291.5 884,-310.5 994,-310.5 994,-291.5 884,-291.5"/>
<text text-anchor="middle" x="939" y="-298.5" font-family="Helvetica,sans-Serif" font-size="10.00">sitkPixelIDTokens.h</text>
</a>
</g>
</g>
<!-- Node12&#45;&gt;Node28 -->
<g id="edge42" class="edge">
<title>Node12&#45;&gt;Node28</title>
<path fill="none" stroke="midnightblue" d="M1104.78,-347.44C1071.07,-338.2 1017.2,-323.44 980.07,-313.26"/>
<polygon fill="midnightblue" stroke="midnightblue" points="980.64,-309.78 970.07,-310.52 978.79,-316.54 980.64,-309.78"/>
</g>
<!-- Node31 -->
<g id="node31" class="node">
<title>Node31</title>
<g id="a_node31"><a xlink:title=" ">
<polygon fill="white" stroke="#bfbfbf" points="1012.5,-230 1012.5,-249 1081.5,-249 1081.5,-230 1012.5,-230"/>
<text text-anchor="middle" x="1047" y="-237" font-family="Helvetica,sans-Serif" font-size="10.00">type_traits</text>
</a>
</g>
</g>
<!-- Node12&#45;&gt;Node31 -->
<g id="edge55" class="edge">
<title>Node12&#45;&gt;Node31</title>
<path fill="none" stroke="midnightblue" d="M1098.83,-348.6C1077.99,-342.34 1053.69,-331.05 1041,-311 1031.17,-295.46 1034.88,-274 1039.67,-258.84"/>
<polygon fill="midnightblue" stroke="midnightblue" points="1043.08,-259.69 1043.16,-249.1 1036.49,-257.33 1043.08,-259.69"/>
</g>
<!-- Node12&#45;&gt;Node32 -->
<g id="edge50" class="edge">
<title>Node12&#45;&gt;Node32</title>
<path fill="none" stroke="midnightblue" d="M1148.53,-347.32C1160.59,-338.98 1179.03,-326.21 1193.27,-316.35"/>
<polygon fill="midnightblue" stroke="midnightblue" points="1195.27,-319.22 1201.5,-310.65 1191.28,-313.47 1195.27,-319.22"/>
</g>
<!-- Node33 -->
<g id="node33" class="node">
<title>Node33</title>
<g id="a_node33"><a xlink:title=" ">
<polygon fill="white" stroke="#bfbfbf" points="1050,-291.5 1050,-310.5 1108,-310.5 1108,-291.5 1050,-291.5"/>
<text text-anchor="middle" x="1079" y="-298.5" font-family="Helvetica,sans-Serif" font-size="10.00">memory</text>
</a>
</g>
</g>
<!-- Node12&#45;&gt;Node33 -->
<g id="edge54" class="edge">
<title>Node12&#45;&gt;Node33</title>
<path fill="none" stroke="midnightblue" d="M1126.84,-347.32C1118.5,-339.42 1105.97,-327.55 1095.82,-317.94"/>
<polygon fill="midnightblue" stroke="midnightblue" points="1097.99,-315.17 1088.32,-310.83 1093.18,-320.25 1097.99,-315.17"/>
</g>
<!-- Node13&#45;&gt;Node2 -->
<g id="edge18" class="edge">
<title>Node13&#45;&gt;Node2</title>
<path fill="none" stroke="midnightblue" d="M1299.09,-229.87C1288.62,-215.17 1265.4,-185.23 1239,-168 1214.97,-152.32 1184.82,-141.37 1159.82,-134.2"/>
<polygon fill="midnightblue" stroke="midnightblue" points="1160.73,-130.82 1150.16,-131.54 1158.88,-137.57 1160.73,-130.82"/>
</g>
<!-- Node13&#45;&gt;Node3 -->
<g id="edge17" class="edge">
<title>Node13&#45;&gt;Node3</title>
<path fill="none" stroke="midnightblue" d="M1318.44,-229.87C1337.72,-216.41 1369.21,-189.71 1353,-168 1303.46,-101.65 1045.56,-77.2 937.6,-69.78"/>
<polygon fill="midnightblue" stroke="midnightblue" points="937.54,-66.26 927.33,-69.09 937.07,-73.25 937.54,-66.26"/>
</g>
<!-- Node13&#45;&gt;Node11 -->
<g id="edge19" class="edge">
<title>Node13&#45;&gt;Node11</title>
<path fill="none" stroke="midnightblue" d="M1249.98,-229.98C1180.26,-219.17 1060.26,-200.58 986.07,-189.08"/>
<polygon fill="midnightblue" stroke="midnightblue" points="986.33,-185.58 975.92,-187.51 985.26,-192.5 986.33,-185.58"/>
</g>
<!-- Node13&#45;&gt;Node14 -->
<g id="edge20" class="edge">
<title>Node13&#45;&gt;Node14</title>
<path fill="none" stroke="midnightblue" d="M1322.19,-229.98C1342.24,-220.03 1375.6,-203.49 1398.86,-191.96"/>
<polygon fill="midnightblue" stroke="midnightblue" points="1400.43,-195.09 1407.84,-187.51 1397.32,-188.82 1400.43,-195.09"/>
</g>
<!-- Node15 -->
<g id="node15" class="node">
<title>Node15</title>
<g id="a_node15"><a xlink:title=" ">
<polygon fill="white" stroke="#bfbfbf" points="1139.5,-168.5 1139.5,-187.5 1196.5,-187.5 1196.5,-168.5 1139.5,-168.5"/>
<text text-anchor="middle" x="1168" y="-175.5" font-family="Helvetica,sans-Serif" font-size="10.00">ostream</text>
</a>
</g>
</g>
<!-- Node13&#45;&gt;Node15 -->
<g id="edge21" class="edge">
<title>Node13&#45;&gt;Node15</title>
<path fill="none" stroke="midnightblue" d="M1285.37,-229.98C1262.18,-219.9 1223.38,-203.05 1196.79,-191.5"/>
<polygon fill="midnightblue" stroke="midnightblue" points="1198.16,-188.28 1187.59,-187.51 1195.37,-194.7 1198.16,-188.28"/>
</g>
<!-- Node16 -->
<g id="node16" class="node">
<title>Node16</title>
<g id="a_node16"><a xlink:title=" ">
<polygon fill="white" stroke="#bfbfbf" points="1291.5,-168.5 1291.5,-187.5 1344.5,-187.5 1344.5,-168.5 1291.5,-168.5"/>
<text text-anchor="middle" x="1318" y="-175.5" font-family="Helvetica,sans-Serif" font-size="10.00">iterator</text>
</a>
</g>
</g>
<!-- Node13&#45;&gt;Node16 -->
<g id="edge22" class="edge">
<title>Node13&#45;&gt;Node16</title>
<path fill="none" stroke="midnightblue" d="M1306.86,-229.98C1308.72,-221.49 1311.62,-208.2 1314,-197.32"/>
<polygon fill="midnightblue" stroke="midnightblue" points="1317.43,-198.03 1316.14,-187.51 1310.59,-196.53 1317.43,-198.03"/>
</g>
<!-- Node18 -->
<g id="node18" class="node">
<title>Node18</title>
<g id="a_node18"><a xlink:href="sitkMemberFunctionFactoryBase_8h.html" target="_top" xlink:title=" ">
<polygon fill="white" stroke="black" points="293,-224.5 293,-254.5 445,-254.5 445,-224.5 293,-224.5"/>
<text text-anchor="start" x="301" y="-242.5" font-family="Helvetica,sans-Serif" font-size="10.00">sitkMemberFunctionFactory</text>
<text text-anchor="middle" x="369" y="-231.5" font-family="Helvetica,sans-Serif" font-size="10.00">Base.h</text>
</a>
</g>
</g>
<!-- Node17&#45;&gt;Node18 -->
<g id="edge24" class="edge">
<title>Node17&#45;&gt;Node18</title>
<path fill="none" stroke="midnightblue" d="M369,-291.48C369,-284.47 369,-274.19 369,-264.7"/>
<polygon fill="midnightblue" stroke="midnightblue" points="372.5,-264.52 369,-254.52 365.5,-264.52 372.5,-264.52"/>
</g>
<!-- Node24 -->
<g id="node24" class="node">
<title>Node24</title>
<g id="a_node24"><a xlink:title=" ">
<polygon fill="white" stroke="#bfbfbf" points="28.5,-168.5 28.5,-187.5 167.5,-187.5 167.5,-168.5 28.5,-168.5"/>
<text text-anchor="middle" x="98" y="-175.5" font-family="Helvetica,sans-Serif" font-size="10.00">Ancillary/FunctionTraits.h</text>
</a>
</g>
</g>
<!-- Node17&#45;&gt;Node24 -->
<g id="edge41" class="edge">
<title>Node17&#45;&gt;Node24</title>
<path fill="none" stroke="midnightblue" d="M349.94,-291.49C303.12,-270.58 182.2,-216.6 126.66,-191.8"/>
<polygon fill="midnightblue" stroke="midnightblue" points="127.96,-188.54 117.4,-187.66 125.1,-194.93 127.96,-188.54"/>
</g>
<!-- Node18&#45;&gt;Node3 -->
<g id="edge33" class="edge">
<title>Node18&#45;&gt;Node3</title>
<path fill="none" stroke="midnightblue" d="M445.04,-234.33C510.32,-228.9 606.08,-216.44 685,-188 704.4,-181.01 818.21,-111.34 867.38,-81"/>
<polygon fill="midnightblue" stroke="midnightblue" points="869.37,-83.88 876.04,-75.65 865.7,-77.93 869.37,-83.88"/>
</g>
<!-- Node18&#45;&gt;Node9 -->
<g id="edge25" class="edge">
<title>Node18&#45;&gt;Node9</title>
<path fill="none" stroke="midnightblue" d="M345,-224.45C310.34,-202.22 252.74,-156.85 275,-112 296.26,-69.16 345.33,-39.6 377.56,-23.99"/>
<polygon fill="midnightblue" stroke="midnightblue" points="379.39,-26.99 386.97,-19.59 376.42,-20.65 379.39,-26.99"/>
</g>
<!-- Node19 -->
<g id="node19" class="node">
<title>Node19</title>
<g id="a_node19"><a xlink:href="sitkPixelIDTypes_8h.html" target="_top" xlink:title=" ">
<polygon fill="white" stroke="black" points="284.5,-112.5 284.5,-131.5 389.5,-131.5 389.5,-112.5 284.5,-112.5"/>
<text text-anchor="middle" x="337" y="-119.5" font-family="Helvetica,sans-Serif" font-size="10.00">sitkPixelIDTypes.h</text>
</a>
</g>
</g>
<!-- Node18&#45;&gt;Node19 -->
<g id="edge26" class="edge">
<title>Node18&#45;&gt;Node19</title>
<path fill="none" stroke="midnightblue" d="M347.7,-224.38C336.27,-215.46 323.27,-202.84 317,-188 310.34,-172.25 317.62,-153.51 325.2,-140.21"/>
<polygon fill="midnightblue" stroke="midnightblue" points="328.24,-141.94 330.57,-131.61 322.3,-138.24 328.24,-141.94"/>
</g>
<!-- Node20 -->
<g id="node20" class="node">
<title>Node20</title>
<g id="a_node20"><a xlink:href="sitkPixelIDTypeLists_8h.html" target="_top" xlink:title=" ">
<polygon fill="white" stroke="black" points="554,-168.5 554,-187.5 676,-187.5 676,-168.5 554,-168.5"/>
<text text-anchor="middle" x="615" y="-175.5" font-family="Helvetica,sans-Serif" font-size="10.00">sitkPixelIDTypeLists.h</text>
</a>
</g>
</g>
<!-- Node18&#45;&gt;Node20 -->
<g id="edge27" class="edge">
<title>Node18&#45;&gt;Node20</title>
<path fill="none" stroke="midnightblue" d="M426.99,-224.47C470.72,-213.9 529.85,-199.59 570.04,-189.87"/>
<polygon fill="midnightblue" stroke="midnightblue" points="570.93,-193.26 579.83,-187.51 569.29,-186.46 570.93,-193.26"/>
</g>
<!-- Node21 -->
<g id="node21" class="node">
<title>Node21</title>
<g id="a_node21"><a xlink:title=" ">
<polygon fill="white" stroke="#bfbfbf" points="409.5,-112.5 409.5,-131.5 520.5,-131.5 520.5,-112.5 409.5,-112.5"/>
<text text-anchor="middle" x="465" y="-119.5" font-family="Helvetica,sans-Serif" font-size="10.00">Ancillary/TypeList.h</text>
</a>
</g>
</g>
<!-- Node18&#45;&gt;Node21 -->
<g id="edge36" class="edge">
<title>Node18&#45;&gt;Node21</title>
<path fill="none" stroke="midnightblue" d="M358.86,-224.38C349.37,-209.27 338.28,-185.17 350,-168 361.53,-151.11 380.43,-140.56 399.61,-133.97"/>
<polygon fill="midnightblue" stroke="midnightblue" points="400.81,-137.26 409.32,-130.95 398.74,-130.57 400.81,-137.26"/>
</g>
<!-- Node23 -->
<g id="node23" class="node">
<title>Node23</title>
<g id="a_node23"><a xlink:href="sitkNonCopyable_8h.html" target="_top" xlink:title=" ">
<polygon fill="white" stroke="black" points="732.5,-168.5 732.5,-187.5 841.5,-187.5 841.5,-168.5 732.5,-168.5"/>
<text text-anchor="middle" x="787" y="-175.5" font-family="Helvetica,sans-Serif" font-size="10.00">sitkNonCopyable.h</text>
</a>
</g>
</g>
<!-- Node18&#45;&gt;Node23 -->
<g id="edge34" class="edge">
<title>Node18&#45;&gt;Node23</title>
<path fill="none" stroke="midnightblue" d="M445.18,-227.66C524.46,-216.37 647.27,-198.89 722.09,-188.24"/>
<polygon fill="midnightblue" stroke="midnightblue" points="722.91,-191.66 732.32,-186.78 721.92,-184.73 722.91,-191.66"/>
</g>
<!-- Node18&#45;&gt;Node24 -->
<g id="edge37" class="edge">
<title>Node18&#45;&gt;Node24</title>
<path fill="none" stroke="midnightblue" d="M305.12,-224.47C256.63,-213.83 190.97,-199.41 146.69,-189.69"/>
<polygon fill="midnightblue" stroke="midnightblue" points="147.26,-186.23 136.74,-187.51 145.76,-193.07 147.26,-186.23"/>
</g>
<!-- Node25 -->
<g id="node25" class="node">
<title>Node25</title>
<g id="a_node25"><a xlink:title=" ">
<polygon fill="white" stroke="#bfbfbf" points="359.5,-168.5 359.5,-187.5 452.5,-187.5 452.5,-168.5 359.5,-168.5"/>
<text text-anchor="middle" x="406" y="-175.5" font-family="Helvetica,sans-Serif" font-size="10.00">unordered_map</text>
</a>
</g>
</g>
<!-- Node18&#45;&gt;Node25 -->
<g id="edge38" class="edge">
<title>Node18&#45;&gt;Node25</title>
<path fill="none" stroke="midnightblue" d="M377.77,-224.4C382.98,-216.02 389.63,-205.33 395.17,-196.42"/>
<polygon fill="midnightblue" stroke="midnightblue" points="398.31,-198 400.62,-187.66 392.36,-194.3 398.31,-198"/>
</g>
<!-- Node26 -->
<g id="node26" class="node">
<title>Node26</title>
<g id="a_node26"><a xlink:title=" ">
<polygon fill="white" stroke="#bfbfbf" points="470.5,-168.5 470.5,-187.5 535.5,-187.5 535.5,-168.5 470.5,-168.5"/>
<text text-anchor="middle" x="503" y="-175.5" font-family="Helvetica,sans-Serif" font-size="10.00">functional</text>
</a>
</g>
</g>
<!-- Node18&#45;&gt;Node26 -->
<g id="edge39" class="edge">
<title>Node18&#45;&gt;Node26</title>
<path fill="none" stroke="midnightblue" d="M400.76,-224.4C423.04,-214.51 452.59,-201.38 474.19,-191.79"/>
<polygon fill="midnightblue" stroke="midnightblue" points="475.78,-194.91 483.5,-187.66 472.94,-188.52 475.78,-194.91"/>
</g>
<!-- Node27 -->
<g id="node27" class="node">
<title>Node27</title>
<g id="a_node27"><a xlink:title=" ">
<polygon fill="white" stroke="#bfbfbf" points="185.5,-168.5 185.5,-187.5 226.5,-187.5 226.5,-168.5 185.5,-168.5"/>
<text text-anchor="middle" x="206" y="-175.5" font-family="Helvetica,sans-Serif" font-size="10.00">tuple</text>
</a>
</g>
</g>
<!-- Node18&#45;&gt;Node27 -->
<g id="edge40" class="edge">
<title>Node18&#45;&gt;Node27</title>
<path fill="none" stroke="midnightblue" d="M330.37,-224.4C301.65,-213.92 263.01,-199.81 236.46,-190.12"/>
<polygon fill="midnightblue" stroke="midnightblue" points="237.52,-186.78 226.92,-186.64 235.12,-193.35 237.52,-186.78"/>
</g>
<!-- Node20&#45;&gt;Node4 -->
<g id="edge28" class="edge">
<title>Node20&#45;&gt;Node4</title>
<path fill="none" stroke="midnightblue" d="M613.01,-168.43C611.03,-159.42 608.13,-144.8 607,-132 603.8,-95.68 610.38,-53.28 615,-29.55"/>
<polygon fill="midnightblue" stroke="midnightblue" points="618.48,-30 617.06,-19.5 611.62,-28.6 618.48,-30"/>
</g>
<!-- Node20&#45;&gt;Node9 -->
<g id="edge29" class="edge">
<title>Node20&#45;&gt;Node9</title>
<path fill="none" stroke="midnightblue" d="M604.16,-168.31C570.7,-141.47 468.72,-59.69 426.55,-25.88"/>
<polygon fill="midnightblue" stroke="midnightblue" points="428.72,-23.13 418.73,-19.61 424.34,-28.59 428.72,-23.13"/>
</g>
<!-- Node20&#45;&gt;Node19 -->
<g id="edge30" class="edge">
<title>Node20&#45;&gt;Node19</title>
<path fill="none" stroke="midnightblue" d="M570.95,-168.44C522.15,-158.96 443.44,-143.67 390.97,-133.48"/>
<polygon fill="midnightblue" stroke="midnightblue" points="391.33,-129.99 380.84,-131.52 389.99,-136.86 391.33,-129.99"/>
</g>
<!-- Node20&#45;&gt;Node21 -->
<g id="edge31" class="edge">
<title>Node20&#45;&gt;Node21</title>
<path fill="none" stroke="midnightblue" d="M591.23,-168.44C566.11,-159.4 526.29,-145.06 498.1,-134.92"/>
<polygon fill="midnightblue" stroke="midnightblue" points="499.25,-131.61 488.66,-131.52 496.88,-138.2 499.25,-131.61"/>
</g>
<!-- Node22 -->
<g id="node22" class="node">
<title>Node22</title>
<g id="a_node22"><a xlink:title=" ">
<polygon fill="white" stroke="#bfbfbf" points="616.5,-112.5 616.5,-131.5 675.5,-131.5 675.5,-112.5 616.5,-112.5"/>
<text text-anchor="middle" x="646" y="-119.5" font-family="Helvetica,sans-Serif" font-size="10.00">complex</text>
</a>
</g>
</g>
<!-- Node20&#45;&gt;Node22 -->
<g id="edge32" class="edge">
<title>Node20&#45;&gt;Node22</title>
<path fill="none" stroke="midnightblue" d="M620.12,-168.08C624.41,-160.61 630.66,-149.72 635.94,-140.52"/>
<polygon fill="midnightblue" stroke="midnightblue" points="639.03,-142.17 640.98,-131.75 632.96,-138.68 639.03,-142.17"/>
</g>
<!-- Node23&#45;&gt;Node2 -->
<g id="edge35" class="edge">
<title>Node23&#45;&gt;Node2</title>
<path fill="none" stroke="midnightblue" d="M838.34,-168.44C897.97,-158.51 995.91,-142.18 1056.75,-132.04"/>
<polygon fill="midnightblue" stroke="midnightblue" points="1057.63,-135.44 1066.92,-130.35 1056.48,-128.54 1057.63,-135.44"/>
</g>
<!-- Node28&#45;&gt;Node9 -->
<g id="edge43" class="edge">
<title>Node28&#45;&gt;Node9</title>
<path fill="none" stroke="midnightblue" d="M883.77,-298.73C682.49,-293.4 0,-268.68 0,-179 0,-179 0,-179 0,-121 0,-48.79 241.25,-22.59 352.73,-14.34"/>
<polygon fill="midnightblue" stroke="midnightblue" points="353.05,-17.82 362.78,-13.62 352.55,-10.84 353.05,-17.82"/>
</g>
<!-- Node29 -->
<g id="node29" class="node">
<title>Node29</title>
<g id="a_node29"><a xlink:href="sitkPixelIDValues_8h.html" target="_top" xlink:title=" ">
<polygon fill="white" stroke="black" points="884,-230 884,-249 994,-249 994,-230 884,-230"/>
<text text-anchor="middle" x="939" y="-237" font-family="Helvetica,sans-Serif" font-size="10.00">sitkPixelIDValues.h</text>
</a>
</g>
</g>
<!-- Node28&#45;&gt;Node29 -->
<g id="edge44" class="edge">
<title>Node28&#45;&gt;Node29</title>
<path fill="none" stroke="midnightblue" d="M939,-291.48C939,-283.08 939,-269.98 939,-259.16"/>
<polygon fill="midnightblue" stroke="midnightblue" points="942.5,-259.01 939,-249.01 935.5,-259.01 942.5,-259.01"/>
</g>
<!-- Node28&#45;&gt;Node31 -->
<g id="edge49" class="edge">
<title>Node28&#45;&gt;Node31</title>
<path fill="none" stroke="midnightblue" d="M954.47,-291.48C972.28,-281.67 1001.74,-265.43 1022.63,-253.92"/>
<polygon fill="midnightblue" stroke="midnightblue" points="1024.49,-256.9 1031.55,-249.01 1021.11,-250.77 1024.49,-256.9"/>
</g>
<!-- Node29&#45;&gt;Node2 -->
<g id="edge45" class="edge">
<title>Node29&#45;&gt;Node2</title>
<path fill="none" stroke="midnightblue" d="M967.28,-229.97C991.74,-221.72 1027.26,-207.59 1054,-188 1072.27,-174.61 1088.81,-154.41 1099.31,-140.09"/>
<polygon fill="midnightblue" stroke="midnightblue" points="1102.36,-141.84 1105.3,-131.66 1096.65,-137.79 1102.36,-141.84"/>
</g>
<!-- Node29&#45;&gt;Node15 -->
<g id="edge48" class="edge">
<title>Node29&#45;&gt;Node15</title>
<path fill="none" stroke="midnightblue" d="M971.81,-229.98C1013.46,-219.15 1085.2,-200.51 1129.42,-189.02"/>
<polygon fill="midnightblue" stroke="midnightblue" points="1130.43,-192.38 1139.23,-186.47 1128.67,-185.6 1130.43,-192.38"/>
</g>
<!-- Node29&#45;&gt;Node20 -->
<g id="edge46" class="edge">
<title>Node29&#45;&gt;Node20</title>
<path fill="none" stroke="midnightblue" d="M892.58,-229.98C834.23,-219.26 734.16,-200.88 671.45,-189.37"/>
<polygon fill="midnightblue" stroke="midnightblue" points="671.8,-185.87 661.34,-187.51 670.54,-192.76 671.8,-185.87"/>
</g>
<!-- Node30 -->
<g id="node30" class="node">
<title>Node30</title>
<g id="a_node30"><a xlink:title=" ">
<polygon fill="white" stroke="#bfbfbf" points="1001,-168.5 1001,-187.5 1045,-187.5 1045,-168.5 1001,-168.5"/>
<text text-anchor="middle" x="1023" y="-175.5" font-family="Helvetica,sans-Serif" font-size="10.00">string</text>
</a>
</g>
</g>
<!-- Node29&#45;&gt;Node30 -->
<g id="edge47" class="edge">
<title>Node29&#45;&gt;Node30</title>
<path fill="none" stroke="midnightblue" d="M951.04,-229.98C964.51,-220.43 986.57,-204.81 1002.72,-193.37"/>
<polygon fill="midnightblue" stroke="midnightblue" points="1004.85,-196.15 1010.99,-187.51 1000.8,-190.43 1004.85,-196.15"/>
</g>
<!-- Node32&#45;&gt;Node2 -->
<g id="edge51" class="edge">
<title>Node32&#45;&gt;Node2</title>
<path fill="none" stroke="midnightblue" d="M1216.14,-291.34C1221.21,-268.77 1231.57,-207.15 1205,-168 1194.29,-152.21 1176.44,-141.79 1159.17,-135"/>
<polygon fill="midnightblue" stroke="midnightblue" points="1160.27,-131.68 1149.68,-131.59 1157.9,-138.27 1160.27,-131.68"/>
</g>
<!-- Node32&#45;&gt;Node15 -->
<g id="edge52" class="edge">
<title>Node32&#45;&gt;Node15</title>
<path fill="none" stroke="midnightblue" d="M1210.21,-291.43C1206.26,-282.42 1199.97,-267.81 1195,-255 1187.49,-235.67 1179.64,-213.28 1174.35,-197.83"/>
<polygon fill="midnightblue" stroke="midnightblue" points="1177.52,-196.3 1170.99,-187.95 1170.9,-198.55 1177.52,-196.3"/>
</g>
</g>
</svg>
