<?xml version="1.0" encoding="UTF-8" standalone="no"?>
<!DOCTYPE svg PUBLIC "-//W3C//DTD SVG 1.1//EN"
 "http://www.w3.org/Graphics/SVG/1.1/DTD/svg11.dtd">
<!-- Generated by graphviz version 2.43.0 (0)
 -->
<!-- Title: sitkBSplineTransform.h Pages: 1 -->
<svg width="212pt" height="151pt"
 viewBox="0.00 0.00 211.50 151.00" xmlns="http://www.w3.org/2000/svg" xmlns:xlink="http://www.w3.org/1999/xlink">
<g id="graph0" class="graph" transform="scale(1 1) rotate(0) translate(4 147)">
<title>sitkBSplineTransform.h</title>
<polygon fill="white" stroke="transparent" points="-4,4 -4,-147 207.5,-147 207.5,4 -4,4"/>
<!-- Node1 -->
<g id="node1" class="node">
<title>Node1</title>
<g id="a_node1"><a xlink:title=" ">
<polygon fill="#bfbfbf" stroke="black" points="0,-123.5 0,-142.5 129,-142.5 129,-123.5 0,-123.5"/>
<text text-anchor="middle" x="64.5" y="-130.5" font-family="Helvetica,sans-Serif" font-size="10.00">sitkBSplineTransform.h</text>
</a>
</g>
</g>
<!-- Node2 -->
<g id="node2" class="node">
<title>Node2</title>
<g id="a_node2"><a xlink:href="SimpleITK_8h.html" target="_top" xlink:title=" ">
<polygon fill="white" stroke="black" points="27,-0.5 27,-19.5 102,-19.5 102,-0.5 27,-0.5"/>
<text text-anchor="middle" x="64.5" y="-7.5" font-family="Helvetica,sans-Serif" font-size="10.00">SimpleITK.h</text>
</a>
</g>
</g>
<!-- Node1&#45;&gt;Node2 -->
<g id="edge1" class="edge">
<title>Node1&#45;&gt;Node2</title>
<path fill="none" stroke="midnightblue" d="M47.1,-115.82C39.87,-107.92 32.29,-97.79 28.5,-87 23.94,-74 23.94,-69 28.5,-56 33.6,-41.46 45.59,-28.13 54.34,-19.81"/>
<polygon fill="midnightblue" stroke="midnightblue" points="44.83,-118.51 54.34,-123.19 49.83,-113.6 44.83,-118.51"/>
</g>
<!-- Node3 -->
<g id="node3" class="node">
<title>Node3</title>
<g id="a_node3"><a xlink:href="sitkBSplineTransformInitializerFilter_8h.html" target="_top" xlink:title=" ">
<polygon fill="white" stroke="black" points="37.5,-56.5 37.5,-86.5 203.5,-86.5 203.5,-56.5 37.5,-56.5"/>
<text text-anchor="start" x="45.5" y="-74.5" font-family="Helvetica,sans-Serif" font-size="10.00">sitkBSplineTransformInitializer</text>
<text text-anchor="middle" x="120.5" y="-63.5" font-family="Helvetica,sans-Serif" font-size="10.00">Filter.h</text>
</a>
</g>
</g>
<!-- Node1&#45;&gt;Node3 -->
<g id="edge2" class="edge">
<title>Node1&#45;&gt;Node3</title>
<path fill="none" stroke="midnightblue" d="M79.47,-116.09C88.14,-106.88 98.95,-95.39 107.3,-86.52"/>
<polygon fill="midnightblue" stroke="midnightblue" points="76.83,-113.79 72.52,-123.48 81.93,-118.59 76.83,-113.79"/>
</g>
<!-- Node3&#45;&gt;Node2 -->
<g id="edge3" class="edge">
<title>Node3&#45;&gt;Node2</title>
<path fill="none" stroke="midnightblue" d="M100.27,-49C90.72,-38.86 79.87,-27.33 72.65,-19.66"/>
<polygon fill="midnightblue" stroke="midnightblue" points="97.83,-51.52 107.23,-56.4 102.92,-46.72 97.83,-51.52"/>
</g>
</g>
</svg>
