<?xml version="1.0" encoding="UTF-8" standalone="no"?>
<!DOCTYPE svg PUBLIC "-//W3C//DTD SVG 1.1//EN"
 "http://www.w3.org/Graphics/SVG/1.1/DTD/svg11.dtd">
<!-- Generated by graphviz version 2.43.0 (0)
 -->
<!-- Title: sitkPixelIDTokens.h Pages: 1 -->
<svg width="779pt" height="252pt"
 viewBox="0.00 0.00 778.50 252.00" xmlns="http://www.w3.org/2000/svg" xmlns:xlink="http://www.w3.org/1999/xlink">
<g id="graph0" class="graph" transform="scale(1 1) rotate(0) translate(4 248)">
<title>sitkPixelIDTokens.h</title>
<polygon fill="white" stroke="transparent" points="-4,4 -4,-248 774.5,-248 774.5,4 -4,4"/>
<!-- Node1 -->
<g id="node1" class="node">
<title>Node1</title>
<g id="a_node1"><a xlink:title=" ">
<polygon fill="#bfbfbf" stroke="black" points="437.5,-224.5 437.5,-243.5 547.5,-243.5 547.5,-224.5 437.5,-224.5"/>
<text text-anchor="middle" x="492.5" y="-231.5" font-family="Helvetica,sans-Serif" font-size="10.00">sitkPixelIDTokens.h</text>
</a>
</g>
</g>
<!-- Node2 -->
<g id="node2" class="node">
<title>Node2</title>
<g id="a_node2"><a xlink:href="sitkConfigure_8h.html" target="_top" xlink:title=" ">
<polygon fill="white" stroke="black" points="400.5,-0.5 400.5,-19.5 490.5,-19.5 490.5,-0.5 400.5,-0.5"/>
<text text-anchor="middle" x="445.5" y="-7.5" font-family="Helvetica,sans-Serif" font-size="10.00">sitkConfigure.h</text>
</a>
</g>
</g>
<!-- Node1&#45;&gt;Node2 -->
<g id="edge1" class="edge">
<title>Node1&#45;&gt;Node2</title>
<path fill="none" stroke="midnightblue" d="M491.5,-224.43C489.1,-204.54 482.54,-153.77 473.5,-112 467.17,-82.74 457.41,-49.37 451.24,-29.26"/>
<polygon fill="midnightblue" stroke="midnightblue" points="454.54,-28.08 448.23,-19.56 447.86,-30.15 454.54,-28.08"/>
</g>
<!-- Node3 -->
<g id="node3" class="node">
<title>Node3</title>
<g id="a_node3"><a xlink:href="sitkPixelIDValues_8h.html" target="_top" xlink:title=" ">
<polygon fill="white" stroke="black" points="274.5,-168.5 274.5,-187.5 384.5,-187.5 384.5,-168.5 274.5,-168.5"/>
<text text-anchor="middle" x="329.5" y="-175.5" font-family="Helvetica,sans-Serif" font-size="10.00">sitkPixelIDValues.h</text>
</a>
</g>
</g>
<!-- Node1&#45;&gt;Node3 -->
<g id="edge2" class="edge">
<title>Node1&#45;&gt;Node3</title>
<path fill="none" stroke="midnightblue" d="M466.67,-224.44C439.25,-215.36 395.72,-200.94 365.07,-190.78"/>
<polygon fill="midnightblue" stroke="midnightblue" points="365.8,-187.34 355.21,-187.52 363.6,-193.98 365.8,-187.34"/>
</g>
<!-- Node17 -->
<g id="node17" class="node">
<title>Node17</title>
<g id="a_node17"><a xlink:title=" ">
<polygon fill="white" stroke="#bfbfbf" points="521,-168.5 521,-187.5 590,-187.5 590,-168.5 521,-168.5"/>
<text text-anchor="middle" x="555.5" y="-175.5" font-family="Helvetica,sans-Serif" font-size="10.00">type_traits</text>
</a>
</g>
</g>
<!-- Node1&#45;&gt;Node17 -->
<g id="edge19" class="edge">
<title>Node1&#45;&gt;Node17</title>
<path fill="none" stroke="midnightblue" d="M502.62,-224.32C512.03,-216.26 526.24,-204.08 537.57,-194.37"/>
<polygon fill="midnightblue" stroke="midnightblue" points="539.88,-197 545.19,-187.83 535.32,-191.68 539.88,-197"/>
</g>
<!-- Node4 -->
<g id="node4" class="node">
<title>Node4</title>
<g id="a_node4"><a xlink:href="sitkCommon_8h.html" target="_top" xlink:title=" ">
<polygon fill="white" stroke="black" points="376.5,-112.5 376.5,-131.5 464.5,-131.5 464.5,-112.5 376.5,-112.5"/>
<text text-anchor="middle" x="420.5" y="-119.5" font-family="Helvetica,sans-Serif" font-size="10.00">sitkCommon.h</text>
</a>
</g>
</g>
<!-- Node3&#45;&gt;Node4 -->
<g id="edge3" class="edge">
<title>Node3&#45;&gt;Node4</title>
<path fill="none" stroke="midnightblue" d="M344.12,-168.32C358.45,-159.82 380.51,-146.73 397.25,-136.8"/>
<polygon fill="midnightblue" stroke="midnightblue" points="399.1,-139.77 405.92,-131.65 395.53,-133.75 399.1,-139.77"/>
</g>
<!-- Node11 -->
<g id="node11" class="node">
<title>Node11</title>
<g id="a_node11"><a xlink:href="sitkPixelIDTypeLists_8h.html" target="_top" xlink:title=" ">
<polygon fill="white" stroke="black" points="196.5,-56.5 196.5,-75.5 318.5,-75.5 318.5,-56.5 196.5,-56.5"/>
<text text-anchor="middle" x="257.5" y="-63.5" font-family="Helvetica,sans-Serif" font-size="10.00">sitkPixelIDTypeLists.h</text>
</a>
</g>
</g>
<!-- Node3&#45;&gt;Node11 -->
<g id="edge11" class="edge">
<title>Node3&#45;&gt;Node11</title>
<path fill="none" stroke="midnightblue" d="M284.8,-168.48C264.27,-162.09 241.8,-151.02 229.5,-132 219.56,-116.62 230.68,-97.11 241.72,-83.5"/>
<polygon fill="midnightblue" stroke="midnightblue" points="244.44,-85.71 248.39,-75.87 239.17,-81.1 244.44,-85.71"/>
</g>
<!-- Node15 -->
<g id="node15" class="node">
<title>Node15</title>
<g id="a_node15"><a xlink:title=" ">
<polygon fill="white" stroke="#bfbfbf" points="238.5,-112.5 238.5,-131.5 282.5,-131.5 282.5,-112.5 238.5,-112.5"/>
<text text-anchor="middle" x="260.5" y="-119.5" font-family="Helvetica,sans-Serif" font-size="10.00">string</text>
</a>
</g>
</g>
<!-- Node3&#45;&gt;Node15 -->
<g id="edge17" class="edge">
<title>Node3&#45;&gt;Node15</title>
<path fill="none" stroke="midnightblue" d="M318.41,-168.32C308.01,-160.18 292.24,-147.84 279.78,-138.09"/>
<polygon fill="midnightblue" stroke="midnightblue" points="281.82,-135.24 271.79,-131.83 277.51,-140.75 281.82,-135.24"/>
</g>
<!-- Node16 -->
<g id="node16" class="node">
<title>Node16</title>
<g id="a_node16"><a xlink:title=" ">
<polygon fill="white" stroke="#bfbfbf" points="301,-112.5 301,-131.5 358,-131.5 358,-112.5 301,-112.5"/>
<text text-anchor="middle" x="329.5" y="-119.5" font-family="Helvetica,sans-Serif" font-size="10.00">ostream</text>
</a>
</g>
</g>
<!-- Node3&#45;&gt;Node16 -->
<g id="edge18" class="edge">
<title>Node3&#45;&gt;Node16</title>
<path fill="none" stroke="midnightblue" d="M329.5,-168.08C329.5,-161.01 329.5,-150.86 329.5,-141.99"/>
<polygon fill="midnightblue" stroke="midnightblue" points="333,-141.75 329.5,-131.75 326,-141.75 333,-141.75"/>
</g>
<!-- Node5 -->
<g id="node5" class="node">
<title>Node5</title>
<g id="a_node5"><a xlink:href="sitkMacro_8h.html" target="_top" xlink:title=" ">
<polygon fill="white" stroke="black" points="520.5,-56.5 520.5,-75.5 594.5,-75.5 594.5,-56.5 520.5,-56.5"/>
<text text-anchor="middle" x="557.5" y="-63.5" font-family="Helvetica,sans-Serif" font-size="10.00">sitkMacro.h</text>
</a>
</g>
</g>
<!-- Node4&#45;&gt;Node5 -->
<g id="edge4" class="edge">
<title>Node4&#45;&gt;Node5</title>
<path fill="none" stroke="midnightblue" d="M442.21,-112.44C464.85,-103.52 500.57,-89.44 526.25,-79.32"/>
<polygon fill="midnightblue" stroke="midnightblue" points="527.87,-82.44 535.89,-75.52 525.31,-75.93 527.87,-82.44"/>
</g>
<!-- Node5&#45;&gt;Node2 -->
<g id="edge10" class="edge">
<title>Node5&#45;&gt;Node2</title>
<path fill="none" stroke="midnightblue" d="M539.51,-56.32C521.46,-47.62 493.45,-34.12 472.7,-24.11"/>
<polygon fill="midnightblue" stroke="midnightblue" points="473.98,-20.84 463.45,-19.65 470.94,-27.15 473.98,-20.84"/>
</g>
<!-- Node6 -->
<g id="node6" class="node">
<title>Node6</title>
<g id="a_node6"><a xlink:title=" ">
<polygon fill="white" stroke="#bfbfbf" points="329,-0.5 329,-19.5 382,-19.5 382,-0.5 329,-0.5"/>
<text text-anchor="middle" x="355.5" y="-7.5" font-family="Helvetica,sans-Serif" font-size="10.00">stdint.h</text>
</a>
</g>
</g>
<!-- Node5&#45;&gt;Node6 -->
<g id="edge5" class="edge">
<title>Node5&#45;&gt;Node6</title>
<path fill="none" stroke="midnightblue" d="M525.49,-56.44C489.14,-46.72 429.94,-30.9 391.87,-20.72"/>
<polygon fill="midnightblue" stroke="midnightblue" points="392.76,-17.34 382.2,-18.14 390.95,-24.1 392.76,-17.34"/>
</g>
<!-- Node7 -->
<g id="node7" class="node">
<title>Node7</title>
<g id="a_node7"><a xlink:title=" ">
<polygon fill="white" stroke="#bfbfbf" points="714.5,-0.5 714.5,-19.5 770.5,-19.5 770.5,-0.5 714.5,-0.5"/>
<text text-anchor="middle" x="742.5" y="-7.5" font-family="Helvetica,sans-Serif" font-size="10.00">stddef.h</text>
</a>
</g>
</g>
<!-- Node5&#45;&gt;Node7 -->
<g id="edge6" class="edge">
<title>Node5&#45;&gt;Node7</title>
<path fill="none" stroke="midnightblue" d="M586.81,-56.44C618.62,-47.16 669.52,-32.3 704.4,-22.12"/>
<polygon fill="midnightblue" stroke="midnightblue" points="705.61,-25.41 714.23,-19.25 703.65,-18.69 705.61,-25.41"/>
</g>
<!-- Node8 -->
<g id="node8" class="node">
<title>Node8</title>
<g id="a_node8"><a xlink:title=" ">
<polygon fill="white" stroke="#bfbfbf" points="508.5,-0.5 508.5,-19.5 560.5,-19.5 560.5,-0.5 508.5,-0.5"/>
<text text-anchor="middle" x="534.5" y="-7.5" font-family="Helvetica,sans-Serif" font-size="10.00">cassert</text>
</a>
</g>
</g>
<!-- Node5&#45;&gt;Node8 -->
<g id="edge7" class="edge">
<title>Node5&#45;&gt;Node8</title>
<path fill="none" stroke="midnightblue" d="M553.7,-56.08C550.59,-48.77 546.08,-38.18 542.21,-29.1"/>
<polygon fill="midnightblue" stroke="midnightblue" points="545.37,-27.58 538.23,-19.75 538.93,-30.32 545.37,-27.58"/>
</g>
<!-- Node9 -->
<g id="node9" class="node">
<title>Node9</title>
<g id="a_node9"><a xlink:title=" ">
<polygon fill="white" stroke="#bfbfbf" points="578.5,-0.5 578.5,-19.5 634.5,-19.5 634.5,-0.5 578.5,-0.5"/>
<text text-anchor="middle" x="606.5" y="-7.5" font-family="Helvetica,sans-Serif" font-size="10.00">sstream</text>
</a>
</g>
</g>
<!-- Node5&#45;&gt;Node9 -->
<g id="edge8" class="edge">
<title>Node5&#45;&gt;Node9</title>
<path fill="none" stroke="midnightblue" d="M565.59,-56.08C572.66,-48.3 583.09,-36.8 591.65,-27.37"/>
<polygon fill="midnightblue" stroke="midnightblue" points="594.43,-29.51 598.56,-19.75 589.25,-24.8 594.43,-29.51"/>
</g>
<!-- Node10 -->
<g id="node10" class="node">
<title>Node10</title>
<g id="a_node10"><a xlink:title=" ">
<polygon fill="white" stroke="#bfbfbf" points="652.5,-0.5 652.5,-19.5 696.5,-19.5 696.5,-0.5 652.5,-0.5"/>
<text text-anchor="middle" x="674.5" y="-7.5" font-family="Helvetica,sans-Serif" font-size="10.00">limits</text>
</a>
</g>
</g>
<!-- Node5&#45;&gt;Node10 -->
<g id="edge9" class="edge">
<title>Node5&#45;&gt;Node10</title>
<path fill="none" stroke="midnightblue" d="M576.04,-56.44C595.12,-47.64 625.07,-33.81 646.94,-23.72"/>
<polygon fill="midnightblue" stroke="midnightblue" points="648.43,-26.88 656.05,-19.52 645.5,-20.53 648.43,-26.88"/>
</g>
<!-- Node11&#45;&gt;Node2 -->
<g id="edge13" class="edge">
<title>Node11&#45;&gt;Node2</title>
<path fill="none" stroke="midnightblue" d="M287.29,-56.44C319.33,-47.24 370.43,-32.56 405.85,-22.39"/>
<polygon fill="midnightblue" stroke="midnightblue" points="407.21,-25.64 415.85,-19.52 405.27,-18.91 407.21,-25.64"/>
</g>
<!-- Node11&#45;&gt;Node6 -->
<g id="edge12" class="edge">
<title>Node11&#45;&gt;Node6</title>
<path fill="none" stroke="midnightblue" d="M273.25,-56.32C288.82,-47.74 312.88,-34.49 330.96,-24.52"/>
<polygon fill="midnightblue" stroke="midnightblue" points="332.72,-27.55 339.79,-19.65 329.35,-21.42 332.72,-27.55"/>
</g>
<!-- Node12 -->
<g id="node12" class="node">
<title>Node12</title>
<g id="a_node12"><a xlink:href="sitkPixelIDTypes_8h.html" target="_top" xlink:title=" ">
<polygon fill="white" stroke="black" points="0,-0.5 0,-19.5 105,-19.5 105,-0.5 0,-0.5"/>
<text text-anchor="middle" x="52.5" y="-7.5" font-family="Helvetica,sans-Serif" font-size="10.00">sitkPixelIDTypes.h</text>
</a>
</g>
</g>
<!-- Node11&#45;&gt;Node12 -->
<g id="edge14" class="edge">
<title>Node11&#45;&gt;Node12</title>
<path fill="none" stroke="midnightblue" d="M225.02,-56.44C189.78,-47.16 133.4,-32.31 94.74,-22.13"/>
<polygon fill="midnightblue" stroke="midnightblue" points="95.39,-18.68 84.83,-19.52 93.61,-25.45 95.39,-18.68"/>
</g>
<!-- Node13 -->
<g id="node13" class="node">
<title>Node13</title>
<g id="a_node13"><a xlink:title=" ">
<polygon fill="white" stroke="#bfbfbf" points="123,-0.5 123,-19.5 234,-19.5 234,-0.5 123,-0.5"/>
<text text-anchor="middle" x="178.5" y="-7.5" font-family="Helvetica,sans-Serif" font-size="10.00">Ancillary/TypeList.h</text>
</a>
</g>
</g>
<!-- Node11&#45;&gt;Node13 -->
<g id="edge15" class="edge">
<title>Node11&#45;&gt;Node13</title>
<path fill="none" stroke="midnightblue" d="M244.81,-56.32C232.6,-47.98 213.92,-35.21 199.5,-25.35"/>
<polygon fill="midnightblue" stroke="midnightblue" points="201.39,-22.41 191.16,-19.65 197.44,-28.19 201.39,-22.41"/>
</g>
<!-- Node14 -->
<g id="node14" class="node">
<title>Node14</title>
<g id="a_node14"><a xlink:title=" ">
<polygon fill="white" stroke="#bfbfbf" points="252,-0.5 252,-19.5 311,-19.5 311,-0.5 252,-0.5"/>
<text text-anchor="middle" x="281.5" y="-7.5" font-family="Helvetica,sans-Serif" font-size="10.00">complex</text>
</a>
</g>
</g>
<!-- Node11&#45;&gt;Node14 -->
<g id="edge16" class="edge">
<title>Node11&#45;&gt;Node14</title>
<path fill="none" stroke="midnightblue" d="M261.46,-56.08C264.71,-48.77 269.42,-38.18 273.45,-29.1"/>
<polygon fill="midnightblue" stroke="midnightblue" points="276.75,-30.31 277.61,-19.75 270.35,-27.47 276.75,-30.31"/>
</g>
</g>
</svg>
