<?xml version="1.0" encoding="UTF-8" standalone="no"?>
<!DOCTYPE svg PUBLIC "-//W3C//DTD SVG 1.1//EN"
 "http://www.w3.org/Graphics/SVG/1.1/DTD/svg11.dtd">
<!-- Generated by graphviz version 2.43.0 (0)
 -->
<!-- Title: sitkRandomSeed.h Pages: 1 -->
<!--zoomable 207 -->
<svg id="main" version="1.1" xmlns="http://www.w3.org/2000/svg" xmlns:xlink="http://www.w3.org/1999/xlink" xml:space="preserve" onload="init(evt)">
<style type="text/css"><![CDATA[
.edge:hover path { stroke: red; }
.edge:hover polygon { stroke: red; fill: red; }
]]></style>
<script type="text/javascript"><![CDATA[
var edges = document.getElementsByTagName('g');
if (edges && edges.length) {
  for (var i=0;i<edges.length;i++) {
    if (edges[i].id.substr(0,4)=='edge') {
      edges[i].setAttribute('class','edge');
    }
  }
}
]]></script>
        <defs>
                <circle id="rim" cx="0" cy="0" r="7"/>
                <circle id="rim2" cx="0" cy="0" r="3.5"/>
                <g id="zoomPlus">
                        <use xlink:href="#rim" fill="#404040">
                                <set attributeName="fill" to="#808080" begin="zoomplus.mouseover" end="zoomplus.mouseout"/>
                        </use>
                        <path d="M-4,0h8M0,-4v8" fill="none" stroke="white" stroke-width="1.5" pointer-events="none"/>
                </g>
                <g id="zoomMin">
                        <use xlink:href="#rim" fill="#404040">
                                <set attributeName="fill" to="#808080" begin="zoomminus.mouseover" end="zoomminus.mouseout"/>
                        </use>
                        <path d="M-4,0h8" fill="none" stroke="white" stroke-width="1.5" pointer-events="none"/>
                </g>
                <g id="dirArrow">
                        <path fill="none" stroke="white" stroke-width="1.5" d="M0,-3.0v7 M-2.5,-0.5L0,-3.0L2.5,-0.5"/>
                </g>
               <g id="resetDef">
                       <use xlink:href="#rim2" fill="#404040">
                               <set attributeName="fill" to="#808080" begin="reset.mouseover" end="reset.mouseout"/>
                       </use>
               </g>
        </defs>

<script type="text/javascript">
var viewWidth = 7868;
var viewHeight = 207;
var sectionId = 'dynsection-1';
</script>
<script xlink:href="svgpan.js"/>
<svg id="graph" class="graph">
<g id="viewport">
<title>sitkRandomSeed.h</title>
<polygon fill="white" stroke="transparent" points="-4,4 -4,-203 7864.46,-203 7864.46,4 -4,4"/>
<!-- Node1 -->
<g id="node1" class="node">
<title>Node1</title>
<g id="a_node1"><a xlink:title=" ">
<polygon fill="#bfbfbf" stroke="black" points="3757.21,-179.5 3757.21,-198.5 3865.21,-198.5 3865.21,-179.5 3757.21,-179.5"/>
<text text-anchor="middle" x="3811.21" y="-186.5" font-family="Helvetica,sans-Serif" font-size="10.00">sitkRandomSeed.h</text>
</a>
</g>
</g>
<!-- Node2 -->
<g id="node2" class="node">
<title>Node2</title>
<g id="a_node2"><a xlink:href="SimpleITK_8h.html" target="_top" xlink:title=" ">
<polygon fill="white" stroke="black" points="1639.71,-0.5 1639.71,-19.5 1714.71,-19.5 1714.71,-0.5 1639.71,-0.5"/>
<text text-anchor="middle" x="1677.21" y="-7.5" font-family="Helvetica,sans-Serif" font-size="10.00">SimpleITK.h</text>
</a>
</g>
</g>
<!-- Node1&#45;&gt;Node2 -->
<g id="edge1" class="edge">
<title>Node1&#45;&gt;Node2</title>
<path fill="none" stroke="midnightblue" d="M3746.85,-187.53C3252.47,-183.76 75.21,-156.83 7.21,-87 -2.4,-77.13 -2.4,-65.87 7.21,-56 36.65,-25.75 1394.45,-13.3 1639.51,-11.29"/>
<polygon fill="midnightblue" stroke="midnightblue" points="3746.99,-191.03 3757.01,-187.61 3747.04,-184.03 3746.99,-191.03"/>
</g>
<!-- Node3 -->
<g id="node3" class="node">
<title>Node3</title>
<g id="a_node3"><a xlink:href="sitkBasicFilters_8h.html" target="_top" xlink:title=" ">
<polygon fill="white" stroke="red" points="3761.21,-123.5 3761.21,-142.5 3861.21,-142.5 3861.21,-123.5 3761.21,-123.5"/>
<text text-anchor="middle" x="3811.21" y="-130.5" font-family="Helvetica,sans-Serif" font-size="10.00">sitkBasicFilters.h</text>
</a>
</g>
</g>
<!-- Node1&#45;&gt;Node3 -->
<g id="edge2" class="edge">
<title>Node1&#45;&gt;Node3</title>
<path fill="none" stroke="midnightblue" d="M3811.21,-168.8C3811.21,-159.91 3811.21,-149.78 3811.21,-142.75"/>
<polygon fill="midnightblue" stroke="midnightblue" points="3807.71,-169.08 3811.21,-179.08 3814.71,-169.08 3807.71,-169.08"/>
</g>
<!-- Node307 -->
<g id="node50" class="node">
<title>Node307</title>
<g id="a_node50"><a xlink:href="sitkImageRegistrationMethod_8h.html" target="_top" xlink:title=" ">
<polygon fill="white" stroke="black" points="5876.21,-123.5 5876.21,-142.5 6046.21,-142.5 6046.21,-123.5 5876.21,-123.5"/>
<text text-anchor="middle" x="5961.21" y="-130.5" font-family="Helvetica,sans-Serif" font-size="10.00">sitkImageRegistrationMethod.h</text>
</a>
</g>
</g>
<!-- Node1&#45;&gt;Node307 -->
<g id="edge51" class="edge">
<title>Node1&#45;&gt;Node307</title>
<path fill="none" stroke="midnightblue" d="M3875.59,-186.38C4185.6,-178.6 5523.91,-144.98 5876.05,-136.14"/>
<polygon fill="midnightblue" stroke="midnightblue" points="3875.34,-182.89 3865.43,-186.64 3875.51,-189.89 3875.34,-182.89"/>
</g>
<!-- Node4 -->
<g id="node4" class="node">
<title>Node4</title>
<g id="a_node4"><a xlink:href="sitkAbsImageFilter_8h.html" target="_top" xlink:title=" ">
<polygon fill="white" stroke="red" points="16.21,-62 16.21,-81 132.21,-81 132.21,-62 16.21,-62"/>
<text text-anchor="middle" x="74.21" y="-69" font-family="Helvetica,sans-Serif" font-size="10.00">sitkAbsImageFilter.h</text>
</a>
</g>
</g>
<!-- Node3&#45;&gt;Node4 -->
<g id="edge3" class="edge">
<title>Node3&#45;&gt;Node4</title>
<path fill="none" stroke="midnightblue" d="M3750.96,-131.99C3304.22,-131.84 513.82,-129.17 141.21,-87 130.09,-85.74 118.11,-83.45 107.39,-81.06"/>
<polygon fill="midnightblue" stroke="midnightblue" points="3751.07,-135.49 3761.07,-132 3751.08,-128.49 3751.07,-135.49"/>
</g>
<!-- Node7 -->
<g id="node5" class="node">
<title>Node7</title>
<g id="a_node5"><a xlink:href="sitkAbsoluteValueDifferenceImageFilter_8h.html" target="_top" xlink:title=" ">
<polygon fill="white" stroke="red" points="150.71,-56.5 150.71,-86.5 305.71,-86.5 305.71,-56.5 150.71,-56.5"/>
<text text-anchor="start" x="158.71" y="-74.5" font-family="Helvetica,sans-Serif" font-size="10.00">sitkAbsoluteValueDifference</text>
<text text-anchor="middle" x="228.21" y="-63.5" font-family="Helvetica,sans-Serif" font-size="10.00">ImageFilter.h</text>
</a>
</g>
</g>
<!-- Node3&#45;&gt;Node7 -->
<g id="edge4" class="edge">
<title>Node3&#45;&gt;Node7</title>
<path fill="none" stroke="midnightblue" d="M3750.79,-131.78C3315.9,-130.11 670.17,-118.68 315.21,-87 312.16,-86.73 309.05,-86.41 305.92,-86.05"/>
<polygon fill="midnightblue" stroke="midnightblue" points="3750.94,-135.28 3760.95,-131.82 3750.96,-128.28 3750.94,-135.28"/>
</g>
<!-- Node8 -->
<g id="node6" class="node">
<title>Node8</title>
<g id="a_node6"><a xlink:href="sitkAcosImageFilter_8h.html" target="_top" xlink:title=" ">
<polygon fill="white" stroke="red" points="324.21,-62 324.21,-81 446.21,-81 446.21,-62 324.21,-62"/>
<text text-anchor="middle" x="385.21" y="-69" font-family="Helvetica,sans-Serif" font-size="10.00">sitkAcosImageFilter.h</text>
</a>
</g>
</g>
<!-- Node3&#45;&gt;Node8 -->
<g id="edge5" class="edge">
<title>Node3&#45;&gt;Node8</title>
<path fill="none" stroke="midnightblue" d="M3750.88,-131.89C3326.33,-130.99 794.66,-124.09 455.21,-87 443.61,-85.73 431.09,-83.44 419.89,-81.05"/>
<polygon fill="midnightblue" stroke="midnightblue" points="3751.09,-135.39 3761.1,-131.91 3751.11,-128.39 3751.09,-135.39"/>
</g>
<!-- Node9 -->
<g id="node7" class="node">
<title>Node9</title>
<g id="a_node7"><a xlink:href="sitkAdaptiveHistogramEqualizationImageFilter_8h.html" target="_top" xlink:title=" ">
<polygon fill="white" stroke="red" points="464.71,-56.5 464.71,-86.5 653.71,-86.5 653.71,-56.5 464.71,-56.5"/>
<text text-anchor="start" x="472.71" y="-74.5" font-family="Helvetica,sans-Serif" font-size="10.00">sitkAdaptiveHistogramEqualization</text>
<text text-anchor="middle" x="559.21" y="-63.5" font-family="Helvetica,sans-Serif" font-size="10.00">ImageFilter.h</text>
</a>
</g>
</g>
<!-- Node3&#45;&gt;Node9 -->
<g id="edge6" class="edge">
<title>Node3&#45;&gt;Node9</title>
<path fill="none" stroke="midnightblue" d="M3750.73,-132.17C3369.49,-133.11 1294.94,-135.86 662.21,-87 659.42,-86.78 656.59,-86.54 653.73,-86.28"/>
<polygon fill="midnightblue" stroke="midnightblue" points="3751,-135.67 3760.99,-132.15 3750.98,-128.67 3751,-135.67"/>
</g>
<!-- Node10 -->
<g id="node8" class="node">
<title>Node10</title>
<g id="a_node8"><a xlink:href="sitkAddImageFilter_8h.html" target="_top" xlink:title=" ">
<polygon fill="white" stroke="red" points="671.71,-62 671.71,-81 788.71,-81 788.71,-62 671.71,-62"/>
<text text-anchor="middle" x="730.21" y="-69" font-family="Helvetica,sans-Serif" font-size="10.00">sitkAddImageFilter.h</text>
</a>
</g>
</g>
<!-- Node3&#45;&gt;Node10 -->
<g id="edge7" class="edge">
<title>Node3&#45;&gt;Node10</title>
<path fill="none" stroke="midnightblue" d="M3750.87,-131.82C3351.9,-130.52 1100.3,-121.71 797.21,-87 786.09,-85.73 774.11,-83.43 763.39,-81.04"/>
<polygon fill="midnightblue" stroke="midnightblue" points="3751.03,-135.32 3761.04,-131.85 3751.05,-128.32 3751.03,-135.32"/>
</g>
<!-- Node12 -->
<g id="node9" class="node">
<title>Node12</title>
<g id="a_node9"><a xlink:href="sitkAdditionalProcedures_8h.html" target="_top" xlink:title=" ">
<polygon fill="white" stroke="black" points="806.71,-62 806.71,-81 953.71,-81 953.71,-62 806.71,-62"/>
<text text-anchor="middle" x="880.21" y="-69" font-family="Helvetica,sans-Serif" font-size="10.00">sitkAdditionalProcedures.h</text>
</a>
</g>
</g>
<!-- Node3&#45;&gt;Node12 -->
<g id="edge8" class="edge">
<title>Node3&#45;&gt;Node12</title>
<path fill="none" stroke="midnightblue" d="M3750.88,-131.62C3364.97,-129.09 1249.37,-114.09 963.21,-87 949.52,-85.7 934.69,-83.41 921.41,-81.01"/>
<polygon fill="midnightblue" stroke="midnightblue" points="3750.98,-135.12 3761,-131.68 3751.02,-128.12 3750.98,-135.12"/>
</g>
<!-- Node13 -->
<g id="node10" class="node">
<title>Node13</title>
<g id="a_node10"><a xlink:href="sitkAdditiveGaussianNoiseImageFilter_8h.html" target="_top" xlink:title=" ">
<polygon fill="white" stroke="red" points="972.21,-56.5 972.21,-86.5 1120.21,-86.5 1120.21,-56.5 972.21,-56.5"/>
<text text-anchor="start" x="980.21" y="-74.5" font-family="Helvetica,sans-Serif" font-size="10.00">sitkAdditiveGaussianNoise</text>
<text text-anchor="middle" x="1046.21" y="-63.5" font-family="Helvetica,sans-Serif" font-size="10.00">ImageFilter.h</text>
</a>
</g>
</g>
<!-- Node3&#45;&gt;Node13 -->
<g id="edge10" class="edge">
<title>Node3&#45;&gt;Node13</title>
<path fill="none" stroke="midnightblue" d="M3751.11,-132.27C3405,-133.62 1662.75,-137.77 1129.21,-87 1126.3,-86.72 1123.33,-86.4 1120.34,-86.04"/>
<polygon fill="midnightblue" stroke="midnightblue" points="3751.2,-135.77 3761.18,-132.23 3751.17,-128.77 3751.2,-135.77"/>
</g>
<!-- Node14 -->
<g id="node11" class="node">
<title>Node14</title>
<g id="a_node11"><a xlink:href="sitkAggregateLabelMapFilter_8h.html" target="_top" xlink:title=" ">
<polygon fill="white" stroke="red" points="1138.71,-62 1138.71,-81 1303.71,-81 1303.71,-62 1138.71,-62"/>
<text text-anchor="middle" x="1221.21" y="-69" font-family="Helvetica,sans-Serif" font-size="10.00">sitkAggregateLabelMapFilter.h</text>
</a>
</g>
</g>
<!-- Node3&#45;&gt;Node14 -->
<g id="edge11" class="edge">
<title>Node3&#45;&gt;Node14</title>
<path fill="none" stroke="midnightblue" d="M3750.79,-132.06C3418.19,-132.22 1807.42,-130.7 1312.21,-87 1297.39,-85.69 1281.33,-83.42 1266.88,-81.06"/>
<polygon fill="midnightblue" stroke="midnightblue" points="3751.17,-135.56 3761.17,-132.06 3751.17,-128.56 3751.17,-135.56"/>
</g>
<!-- Node15 -->
<g id="node12" class="node">
<title>Node15</title>
<g id="a_node12"><a xlink:href="sitkAndImageFilter_8h.html" target="_top" xlink:title=" ">
<polygon fill="white" stroke="red" points="1321.71,-62 1321.71,-81 1438.71,-81 1438.71,-62 1321.71,-62"/>
<text text-anchor="middle" x="1380.21" y="-69" font-family="Helvetica,sans-Serif" font-size="10.00">sitkAndImageFilter.h</text>
</a>
</g>
</g>
<!-- Node3&#45;&gt;Node15 -->
<g id="edge12" class="edge">
<title>Node3&#45;&gt;Node15</title>
<path fill="none" stroke="midnightblue" d="M3751.07,-131.54C3405.79,-128.82 1682.77,-113.99 1448.21,-87 1436.94,-85.7 1424.77,-83.4 1413.89,-81.01"/>
<polygon fill="midnightblue" stroke="midnightblue" points="3751.09,-135.04 3761.12,-131.62 3751.15,-128.04 3751.09,-135.04"/>
</g>
<!-- Node16 -->
<g id="node13" class="node">
<title>Node16</title>
<g id="a_node13"><a xlink:href="sitkAntiAliasBinaryImageFilter_8h.html" target="_top" xlink:title=" ">
<polygon fill="white" stroke="red" points="1457.21,-56.5 1457.21,-86.5 1597.21,-86.5 1597.21,-56.5 1457.21,-56.5"/>
<text text-anchor="start" x="1465.21" y="-74.5" font-family="Helvetica,sans-Serif" font-size="10.00">sitkAntiAliasBinaryImage</text>
<text text-anchor="middle" x="1527.21" y="-63.5" font-family="Helvetica,sans-Serif" font-size="10.00">Filter.h</text>
</a>
</g>
</g>
<!-- Node3&#45;&gt;Node16 -->
<g id="edge13" class="edge">
<title>Node3&#45;&gt;Node16</title>
<path fill="none" stroke="midnightblue" d="M3751.08,-132.08C3443.04,-132.31 2039.37,-130.88 1606.21,-87 1603.3,-86.7 1600.33,-86.36 1597.34,-85.98"/>
<polygon fill="midnightblue" stroke="midnightblue" points="3751.15,-135.58 3761.15,-132.08 3751.15,-128.58 3751.15,-135.58"/>
</g>
<!-- Node17 -->
<g id="node14" class="node">
<title>Node17</title>
<g id="a_node14"><a xlink:href="sitkApproximateSignedDistanceMapImageFilter_8h.html" target="_top" xlink:title=" ">
<polygon fill="white" stroke="red" points="1615.71,-56.5 1615.71,-86.5 1788.71,-86.5 1788.71,-56.5 1615.71,-56.5"/>
<text text-anchor="start" x="1623.71" y="-74.5" font-family="Helvetica,sans-Serif" font-size="10.00">sitkApproximateSignedDistance</text>
<text text-anchor="middle" x="1702.21" y="-63.5" font-family="Helvetica,sans-Serif" font-size="10.00">MapImageFilter.h</text>
</a>
</g>
</g>
<!-- Node3&#45;&gt;Node17 -->
<g id="edge14" class="edge">
<title>Node3&#45;&gt;Node17</title>
<path fill="none" stroke="midnightblue" d="M3750.77,-131.7C3458.64,-130.11 2190.85,-121.29 1797.21,-87 1794.47,-86.76 1791.68,-86.49 1788.87,-86.2"/>
<polygon fill="midnightblue" stroke="midnightblue" points="3751.13,-135.21 3761.15,-131.76 3751.17,-128.21 3751.13,-135.21"/>
</g>
<!-- Node18 -->
<g id="node15" class="node">
<title>Node18</title>
<g id="a_node15"><a xlink:href="sitkAsinImageFilter_8h.html" target="_top" xlink:title=" ">
<polygon fill="white" stroke="red" points="1806.71,-62 1806.71,-81 1925.71,-81 1925.71,-62 1806.71,-62"/>
<text text-anchor="middle" x="1866.21" y="-69" font-family="Helvetica,sans-Serif" font-size="10.00">sitkAsinImageFilter.h</text>
</a>
</g>
</g>
<!-- Node3&#45;&gt;Node18 -->
<g id="edge15" class="edge">
<title>Node3&#45;&gt;Node18</title>
<path fill="none" stroke="midnightblue" d="M3750.8,-132.06C3470.88,-132.13 2298.18,-129.79 1934.21,-87 1923.06,-85.69 1911.04,-83.42 1900.25,-81.06"/>
<polygon fill="midnightblue" stroke="midnightblue" points="3751.15,-135.56 3761.15,-132.06 3751.15,-128.56 3751.15,-135.56"/>
</g>
<!-- Node19 -->
<g id="node16" class="node">
<title>Node19</title>
<g id="a_node16"><a xlink:href="sitkAtan2ImageFilter_8h.html" target="_top" xlink:title=" ">
<polygon fill="white" stroke="red" points="1943.71,-62 1943.71,-81 2070.71,-81 2070.71,-62 1943.71,-62"/>
<text text-anchor="middle" x="2007.21" y="-69" font-family="Helvetica,sans-Serif" font-size="10.00">sitkAtan2ImageFilter.h</text>
</a>
</g>
</g>
<!-- Node3&#45;&gt;Node19 -->
<g id="edge16" class="edge">
<title>Node3&#45;&gt;Node19</title>
<path fill="none" stroke="midnightblue" d="M3750.75,-131.83C3484.3,-130.87 2413.25,-124.69 2079.21,-87 2067.42,-85.67 2054.7,-83.39 2043.27,-81.03"/>
<polygon fill="midnightblue" stroke="midnightblue" points="3750.98,-135.33 3761,-131.87 3751.01,-128.33 3750.98,-135.33"/>
</g>
<!-- Node20 -->
<g id="node17" class="node">
<title>Node20</title>
<g id="a_node17"><a xlink:href="sitkAtanImageFilter_8h.html" target="_top" xlink:title=" ">
<polygon fill="white" stroke="red" points="2088.71,-62 2088.71,-81 2209.71,-81 2209.71,-62 2088.71,-62"/>
<text text-anchor="middle" x="2149.21" y="-69" font-family="Helvetica,sans-Serif" font-size="10.00">sitkAtanImageFilter.h</text>
</a>
</g>
</g>
<!-- Node3&#45;&gt;Node20 -->
<g id="edge17" class="edge">
<title>Node3&#45;&gt;Node20</title>
<path fill="none" stroke="midnightblue" d="M3751.1,-131.74C3498.67,-130.43 2523.43,-123.09 2218.21,-87 2206.9,-85.66 2194.71,-83.38 2183.76,-81.02"/>
<polygon fill="midnightblue" stroke="midnightblue" points="3751.15,-135.24 3761.17,-131.79 3751.19,-128.24 3751.15,-135.24"/>
</g>
<!-- Node21 -->
<g id="node18" class="node">
<title>Node21</title>
<g id="a_node18"><a xlink:href="sitkBSplineDecompositionImageFilter_8h.html" target="_top" xlink:title=" ">
<polygon fill="white" stroke="red" points="2227.71,-56.5 2227.71,-86.5 2372.71,-86.5 2372.71,-56.5 2227.71,-56.5"/>
<text text-anchor="start" x="2235.71" y="-74.5" font-family="Helvetica,sans-Serif" font-size="10.00">sitkBSplineDecomposition</text>
<text text-anchor="middle" x="2300.21" y="-63.5" font-family="Helvetica,sans-Serif" font-size="10.00">ImageFilter.h</text>
</a>
</g>
</g>
<!-- Node3&#45;&gt;Node21 -->
<g id="edge18" class="edge">
<title>Node3&#45;&gt;Node21</title>
<path fill="none" stroke="midnightblue" d="M3750.82,-131.25C3514.75,-128.16 2653.92,-115.15 2382.21,-87 2379.19,-86.69 2376.11,-86.33 2373.01,-85.93"/>
<polygon fill="midnightblue" stroke="midnightblue" points="3750.89,-134.76 3760.93,-131.39 3750.98,-127.76 3750.89,-134.76"/>
</g>
<!-- Node22 -->
<g id="node19" class="node">
<title>Node22</title>
<g id="a_node19"><a xlink:href="sitkBSplineTransformInitializerFilter_8h.html" target="_top" xlink:title=" ">
<polygon fill="white" stroke="black" points="2391.21,-56.5 2391.21,-86.5 2557.21,-86.5 2557.21,-56.5 2391.21,-56.5"/>
<text text-anchor="start" x="2399.21" y="-74.5" font-family="Helvetica,sans-Serif" font-size="10.00">sitkBSplineTransformInitializer</text>
<text text-anchor="middle" x="2474.21" y="-63.5" font-family="Helvetica,sans-Serif" font-size="10.00">Filter.h</text>
</a>
</g>
</g>
<!-- Node3&#45;&gt;Node22 -->
<g id="edge19" class="edge">
<title>Node3&#45;&gt;Node22</title>
<path fill="none" stroke="midnightblue" d="M3750.88,-132.38C3570.55,-132.98 3020,-130.8 2566.21,-87 2563.31,-86.72 2560.37,-86.41 2557.4,-86.07"/>
<polygon fill="midnightblue" stroke="midnightblue" points="3750.97,-135.88 3760.96,-132.35 3750.94,-128.88 3750.97,-135.88"/>
</g>
<!-- Node23 -->
<g id="node20" class="node">
<title>Node23</title>
<g id="a_node20"><a xlink:href="sitkBilateralImageFilter_8h.html" target="_top" xlink:title=" ">
<polygon fill="white" stroke="red" points="2575.21,-62 2575.21,-81 2715.21,-81 2715.21,-62 2575.21,-62"/>
<text text-anchor="middle" x="2645.21" y="-69" font-family="Helvetica,sans-Serif" font-size="10.00">sitkBilateralImageFilter.h</text>
</a>
</g>
</g>
<!-- Node3&#45;&gt;Node23 -->
<g id="edge21" class="edge">
<title>Node3&#45;&gt;Node23</title>
<path fill="none" stroke="midnightblue" d="M3750.75,-132.46C3585.68,-133.08 3113.59,-130.58 2724.21,-87 2711.6,-85.59 2697.97,-83.35 2685.64,-81.05"/>
<polygon fill="midnightblue" stroke="midnightblue" points="3751.19,-135.96 3761.18,-132.42 3751.16,-128.96 3751.19,-135.96"/>
</g>
<!-- Node24 -->
<g id="node21" class="node">
<title>Node24</title>
<g id="a_node21"><a xlink:href="sitkBinShrinkImageFilter_8h.html" target="_top" xlink:title=" ">
<polygon fill="white" stroke="red" points="2733.71,-62 2733.71,-81 2878.71,-81 2878.71,-62 2733.71,-62"/>
<text text-anchor="middle" x="2806.21" y="-69" font-family="Helvetica,sans-Serif" font-size="10.00">sitkBinShrinkImageFilter.h</text>
</a>
</g>
</g>
<!-- Node3&#45;&gt;Node24 -->
<g id="edge22" class="edge">
<title>Node3&#45;&gt;Node24</title>
<path fill="none" stroke="midnightblue" d="M3750.79,-131.69C3603.08,-130.36 3212.05,-123.38 2888.21,-87 2875.28,-85.55 2861.31,-83.32 2848.62,-81.05"/>
<polygon fill="midnightblue" stroke="midnightblue" points="3750.98,-135.19 3761,-131.78 3751.03,-128.19 3750.98,-135.19"/>
</g>
<!-- Node25 -->
<g id="node22" class="node">
<title>Node25</title>
<g id="a_node22"><a xlink:href="sitkBinaryClosingByReconstructionImageFilter_8h.html" target="_top" xlink:title=" ">
<polygon fill="white" stroke="red" points="2897.21,-56.5 2897.21,-86.5 3085.21,-86.5 3085.21,-56.5 2897.21,-56.5"/>
<text text-anchor="start" x="2905.21" y="-74.5" font-family="Helvetica,sans-Serif" font-size="10.00">sitkBinaryClosingByReconstruction</text>
<text text-anchor="middle" x="2991.21" y="-63.5" font-family="Helvetica,sans-Serif" font-size="10.00">ImageFilter.h</text>
</a>
</g>
</g>
<!-- Node3&#45;&gt;Node25 -->
<g id="edge23" class="edge">
<title>Node3&#45;&gt;Node25</title>
<path fill="none" stroke="midnightblue" d="M3751.11,-129.8C3627.75,-124.93 3337.1,-111.68 3094.21,-87 3091.33,-86.71 3088.42,-86.4 3085.47,-86.07"/>
<polygon fill="midnightblue" stroke="midnightblue" points="3750.99,-133.29 3761.12,-130.19 3751.26,-126.3 3750.99,-133.29"/>
</g>
<!-- Node26 -->
<g id="node23" class="node">
<title>Node26</title>
<g id="a_node23"><a xlink:href="sitkBinaryContourImageFilter_8h.html" target="_top" xlink:title=" ">
<polygon fill="white" stroke="red" points="3103.21,-62 3103.21,-81 3271.21,-81 3271.21,-62 3103.21,-62"/>
<text text-anchor="middle" x="3187.21" y="-69" font-family="Helvetica,sans-Serif" font-size="10.00">sitkBinaryContourImageFilter.h</text>
</a>
</g>
</g>
<!-- Node3&#45;&gt;Node26 -->
<g id="edge24" class="edge">
<title>Node3&#45;&gt;Node26</title>
<path fill="none" stroke="midnightblue" d="M3750.74,-128.31C3651.89,-121.95 3449.63,-107.61 3279.21,-87 3265.56,-85.35 3250.84,-83.2 3237.25,-81.06"/>
<polygon fill="midnightblue" stroke="midnightblue" points="3750.64,-131.81 3760.84,-128.95 3751.08,-124.82 3750.64,-131.81"/>
</g>
<!-- Node27 -->
<g id="node24" class="node">
<title>Node27</title>
<g id="a_node24"><a xlink:href="sitkBinaryDilateImageFilter_8h.html" target="_top" xlink:title=" ">
<polygon fill="white" stroke="red" points="3288.71,-62 3288.71,-81 3447.71,-81 3447.71,-62 3288.71,-62"/>
<text text-anchor="middle" x="3368.21" y="-69" font-family="Helvetica,sans-Serif" font-size="10.00">sitkBinaryDilateImageFilter.h</text>
</a>
</g>
</g>
<!-- Node3&#45;&gt;Node27 -->
<g id="edge25" class="edge">
<title>Node3&#45;&gt;Node27</title>
<path fill="none" stroke="midnightblue" d="M3751.1,-125.07C3680.42,-116.77 3559.63,-102.07 3456.21,-87 3443.8,-85.19 3430.43,-83.08 3417.96,-81.03"/>
<polygon fill="midnightblue" stroke="midnightblue" points="3750.82,-128.56 3761.16,-126.25 3751.63,-121.61 3750.82,-128.56"/>
</g>
<!-- Node28 -->
<g id="node25" class="node">
<title>Node28</title>
<g id="a_node25"><a xlink:href="sitkBinaryErodeImageFilter_8h.html" target="_top" xlink:title=" ">
<polygon fill="white" stroke="red" points="3465.21,-62 3465.21,-81 3623.21,-81 3623.21,-62 3465.21,-62"/>
<text text-anchor="middle" x="3544.21" y="-69" font-family="Helvetica,sans-Serif" font-size="10.00">sitkBinaryErodeImageFilter.h</text>
</a>
</g>
</g>
<!-- Node3&#45;&gt;Node28 -->
<g id="edge26" class="edge">
<title>Node3&#45;&gt;Node28</title>
<path fill="none" stroke="midnightblue" d="M3763.01,-121.26C3711.21,-109.72 3629.94,-91.61 3582.39,-81.01"/>
<polygon fill="midnightblue" stroke="midnightblue" points="3762.43,-124.72 3772.95,-123.48 3763.95,-117.88 3762.43,-124.72"/>
</g>
<!-- Node29 -->
<g id="node26" class="node">
<title>Node29</title>
<g id="a_node26"><a xlink:href="sitkBinaryFillholeImageFilter_8h.html" target="_top" xlink:title=" ">
<polygon fill="white" stroke="red" points="3641.71,-62 3641.71,-81 3806.71,-81 3806.71,-62 3641.71,-62"/>
<text text-anchor="middle" x="3724.21" y="-69" font-family="Helvetica,sans-Serif" font-size="10.00">sitkBinaryFillholeImageFilter.h</text>
</a>
</g>
</g>
<!-- Node3&#45;&gt;Node29 -->
<g id="edge27" class="edge">
<title>Node3&#45;&gt;Node29</title>
<path fill="none" stroke="midnightblue" d="M3790.17,-117.61C3773.44,-106.17 3750.6,-90.55 3736.65,-81.01"/>
<polygon fill="midnightblue" stroke="midnightblue" points="3788.51,-120.72 3798.74,-123.48 3792.47,-114.94 3788.51,-120.72"/>
</g>
<!-- Node30 -->
<g id="node27" class="node">
<title>Node30</title>
<g id="a_node27"><a xlink:href="sitkBinaryGrindPeakImageFilter_8h.html" target="_top" xlink:title=" ">
<polygon fill="white" stroke="red" points="3824.71,-56.5 3824.71,-86.5 3971.71,-86.5 3971.71,-56.5 3824.71,-56.5"/>
<text text-anchor="start" x="3832.71" y="-74.5" font-family="Helvetica,sans-Serif" font-size="10.00">sitkBinaryGrindPeakImage</text>
<text text-anchor="middle" x="3898.21" y="-63.5" font-family="Helvetica,sans-Serif" font-size="10.00">Filter.h</text>
</a>
</g>
</g>
<!-- Node3&#45;&gt;Node30 -->
<g id="edge28" class="edge">
<title>Node3&#45;&gt;Node30</title>
<path fill="none" stroke="midnightblue" d="M3832.06,-117.74C3845.89,-108.28 3863.95,-95.93 3877.7,-86.52"/>
<polygon fill="midnightblue" stroke="midnightblue" points="3829.95,-114.94 3823.67,-123.48 3833.9,-120.72 3829.95,-114.94"/>
</g>
<!-- Node31 -->
<g id="node28" class="node">
<title>Node31</title>
<g id="a_node28"><a xlink:href="sitkBinaryImageToLabelMapFilter_8h.html" target="_top" xlink:title=" ">
<polygon fill="white" stroke="red" points="3989.71,-56.5 3989.71,-86.5 4144.71,-86.5 4144.71,-56.5 3989.71,-56.5"/>
<text text-anchor="start" x="3997.71" y="-74.5" font-family="Helvetica,sans-Serif" font-size="10.00">sitkBinaryImageToLabelMap</text>
<text text-anchor="middle" x="4067.21" y="-63.5" font-family="Helvetica,sans-Serif" font-size="10.00">Filter.h</text>
</a>
</g>
</g>
<!-- Node3&#45;&gt;Node31 -->
<g id="edge29" class="edge">
<title>Node3&#45;&gt;Node31</title>
<path fill="none" stroke="midnightblue" d="M3857.81,-121.17C3899.64,-111.45 3961.29,-97.12 4006.87,-86.52"/>
<polygon fill="midnightblue" stroke="midnightblue" points="3856.84,-117.8 3847.89,-123.48 3858.42,-124.62 3856.84,-117.8"/>
</g>
<!-- Node32 -->
<g id="node29" class="node">
<title>Node32</title>
<g id="a_node29"><a xlink:href="sitkBinaryMagnitudeImageFilter_8h.html" target="_top" xlink:title=" ">
<polygon fill="white" stroke="red" points="4162.71,-56.5 4162.71,-86.5 4311.71,-86.5 4311.71,-56.5 4162.71,-56.5"/>
<text text-anchor="start" x="4170.71" y="-74.5" font-family="Helvetica,sans-Serif" font-size="10.00">sitkBinaryMagnitudeImage</text>
<text text-anchor="middle" x="4237.21" y="-63.5" font-family="Helvetica,sans-Serif" font-size="10.00">Filter.h</text>
</a>
</g>
</g>
<!-- Node3&#45;&gt;Node32 -->
<g id="edge30" class="edge">
<title>Node3&#45;&gt;Node32</title>
<path fill="none" stroke="midnightblue" d="M3871.59,-124.8C3940,-116.47 4054.8,-101.96 4153.21,-87 4156.28,-86.53 4159.41,-86.04 4162.58,-85.54"/>
<polygon fill="midnightblue" stroke="midnightblue" points="3870.93,-121.35 3861.43,-126.03 3871.77,-128.3 3870.93,-121.35"/>
</g>
<!-- Node33 -->
<g id="node30" class="node">
<title>Node33</title>
<g id="a_node30"><a xlink:href="sitkBinaryMedianImageFilter_8h.html" target="_top" xlink:title=" ">
<polygon fill="white" stroke="red" points="4330.21,-62 4330.21,-81 4496.21,-81 4496.21,-62 4330.21,-62"/>
<text text-anchor="middle" x="4413.21" y="-69" font-family="Helvetica,sans-Serif" font-size="10.00">sitkBinaryMedianImageFilter.h</text>
</a>
</g>
</g>
<!-- Node3&#45;&gt;Node33 -->
<g id="edge31" class="edge">
<title>Node3&#45;&gt;Node33</title>
<path fill="none" stroke="midnightblue" d="M3871.58,-127.97C3967.03,-121.3 4158.57,-106.72 4320.21,-87 4334,-85.32 4348.88,-83.15 4362.61,-81.01"/>
<polygon fill="midnightblue" stroke="midnightblue" points="3871.27,-124.48 3861.54,-128.67 3871.75,-131.46 3871.27,-124.48"/>
</g>
<!-- Node34 -->
<g id="node31" class="node">
<title>Node34</title>
<g id="a_node31"><a xlink:href="sitkBinaryMinMaxCurvatureFlowImageFilter_8h.html" target="_top" xlink:title=" ">
<polygon fill="white" stroke="red" points="4514.71,-56.5 4514.71,-86.5 4667.71,-86.5 4667.71,-56.5 4514.71,-56.5"/>
<text text-anchor="start" x="4522.71" y="-74.5" font-family="Helvetica,sans-Serif" font-size="10.00">sitkBinaryMinMaxCurvature</text>
<text text-anchor="middle" x="4591.21" y="-63.5" font-family="Helvetica,sans-Serif" font-size="10.00">FlowImageFilter.h</text>
</a>
</g>
</g>
<!-- Node3&#45;&gt;Node34 -->
<g id="edge32" class="edge">
<title>Node3&#45;&gt;Node34</title>
<path fill="none" stroke="midnightblue" d="M3871.59,-130.16C3992.3,-126.03 4271.85,-114.17 4505.21,-87 4508.22,-86.65 4511.28,-86.27 4514.37,-85.86"/>
<polygon fill="midnightblue" stroke="midnightblue" points="3871.32,-126.67 3861.44,-130.5 3871.56,-133.67 3871.32,-126.67"/>
</g>
<!-- Node35 -->
<g id="node32" class="node">
<title>Node35</title>
<g id="a_node32"><a xlink:href="sitkBinaryMorphologicalClosingImageFilter_8h.html" target="_top" xlink:title=" ">
<polygon fill="white" stroke="red" points="4685.71,-56.5 4685.71,-86.5 4856.71,-86.5 4856.71,-56.5 4685.71,-56.5"/>
<text text-anchor="start" x="4693.71" y="-74.5" font-family="Helvetica,sans-Serif" font-size="10.00">sitkBinaryMorphologicalClosing</text>
<text text-anchor="middle" x="4771.21" y="-63.5" font-family="Helvetica,sans-Serif" font-size="10.00">ImageFilter.h</text>
</a>
</g>
</g>
<!-- Node3&#45;&gt;Node35 -->
<g id="edge33" class="edge">
<title>Node3&#45;&gt;Node35</title>
<path fill="none" stroke="midnightblue" d="M3871.74,-130.92C4012.98,-127.95 4375.19,-117.73 4676.21,-87 4679.28,-86.69 4682.4,-86.34 4685.55,-85.97"/>
<polygon fill="midnightblue" stroke="midnightblue" points="3871.48,-127.43 3861.56,-131.13 3871.63,-134.42 3871.48,-127.43"/>
</g>
<!-- Node36 -->
<g id="node33" class="node">
<title>Node36</title>
<g id="a_node33"><a xlink:href="sitkBinaryMorphologicalOpeningImageFilter_8h.html" target="_top" xlink:title=" ">
<polygon fill="white" stroke="red" points="4875.21,-56.5 4875.21,-86.5 5051.21,-86.5 5051.21,-56.5 4875.21,-56.5"/>
<text text-anchor="start" x="4883.21" y="-74.5" font-family="Helvetica,sans-Serif" font-size="10.00">sitkBinaryMorphologicalOpening</text>
<text text-anchor="middle" x="4963.21" y="-63.5" font-family="Helvetica,sans-Serif" font-size="10.00">ImageFilter.h</text>
</a>
</g>
</g>
<!-- Node3&#45;&gt;Node36 -->
<g id="edge34" class="edge">
<title>Node3&#45;&gt;Node36</title>
<path fill="none" stroke="midnightblue" d="M3871.46,-131.62C4032.87,-130.14 4488.31,-122.83 4865.21,-87 4868.46,-86.69 4871.77,-86.35 4875.11,-85.98"/>
<polygon fill="midnightblue" stroke="midnightblue" points="3871.23,-128.12 3861.26,-131.71 3871.29,-135.12 3871.23,-128.12"/>
</g>
<!-- Node37 -->
<g id="node34" class="node">
<title>Node37</title>
<g id="a_node34"><a xlink:href="sitkBinaryNotImageFilter_8h.html" target="_top" xlink:title=" ">
<polygon fill="white" stroke="red" points="5069.71,-62 5069.71,-81 5216.71,-81 5216.71,-62 5069.71,-62"/>
<text text-anchor="middle" x="5143.21" y="-69" font-family="Helvetica,sans-Serif" font-size="10.00">sitkBinaryNotImageFilter.h</text>
</a>
</g>
</g>
<!-- Node3&#45;&gt;Node37 -->
<g id="edge35" class="edge">
<title>Node3&#45;&gt;Node37</title>
<path fill="none" stroke="midnightblue" d="M3871.72,-130.92C4088.46,-126.88 4825.59,-111.6 5060.21,-87 5073.45,-85.61 5087.76,-83.38 5100.71,-81.08"/>
<polygon fill="midnightblue" stroke="midnightblue" points="3871.43,-127.42 3861.49,-131.11 3871.56,-134.42 3871.43,-127.42"/>
</g>
<!-- Node38 -->
<g id="node35" class="node">
<title>Node38</title>
<g id="a_node35"><a xlink:href="sitkBinaryOpeningByReconstructionImageFilter_8h.html" target="_top" xlink:title=" ">
<polygon fill="white" stroke="red" points="5235.21,-56.5 5235.21,-86.5 5427.21,-86.5 5427.21,-56.5 5235.21,-56.5"/>
<text text-anchor="start" x="5243.21" y="-74.5" font-family="Helvetica,sans-Serif" font-size="10.00">sitkBinaryOpeningByReconstruction</text>
<text text-anchor="middle" x="5331.21" y="-63.5" font-family="Helvetica,sans-Serif" font-size="10.00">ImageFilter.h</text>
</a>
</g>
</g>
<!-- Node3&#45;&gt;Node38 -->
<g id="edge36" class="edge">
<title>Node3&#45;&gt;Node38</title>
<path fill="none" stroke="midnightblue" d="M3871.49,-132.32C4067.18,-132.89 4702.24,-130.97 5225.21,-87 5228.45,-86.73 5231.74,-86.42 5235.06,-86.1"/>
<polygon fill="midnightblue" stroke="midnightblue" points="3871.42,-128.82 3861.41,-132.29 3871.4,-135.82 3871.42,-128.82"/>
</g>
<!-- Node39 -->
<g id="node36" class="node">
<title>Node39</title>
<g id="a_node36"><a xlink:href="sitkBinaryProjectionImageFilter_8h.html" target="_top" xlink:title=" ">
<polygon fill="white" stroke="red" points="5445.21,-56.5 5445.21,-86.5 5591.21,-86.5 5591.21,-56.5 5445.21,-56.5"/>
<text text-anchor="start" x="5453.21" y="-74.5" font-family="Helvetica,sans-Serif" font-size="10.00">sitkBinaryProjectionImage</text>
<text text-anchor="middle" x="5518.21" y="-63.5" font-family="Helvetica,sans-Serif" font-size="10.00">Filter.h</text>
</a>
</g>
</g>
<!-- Node3&#45;&gt;Node39 -->
<g id="edge37" class="edge">
<title>Node3&#45;&gt;Node39</title>
<path fill="none" stroke="midnightblue" d="M3871.65,-131.52C4127.67,-129.3 5123.96,-118.76 5436.21,-87 5439.09,-86.71 5442.01,-86.37 5444.97,-86"/>
<polygon fill="midnightblue" stroke="midnightblue" points="3871.4,-128.02 3861.43,-131.61 3871.46,-135.02 3871.4,-128.02"/>
</g>
<!-- Node40 -->
<g id="node37" class="node">
<title>Node40</title>
<g id="a_node37"><a xlink:href="sitkBinaryPruningImageFilter_8h.html" target="_top" xlink:title=" ">
<polygon fill="white" stroke="red" points="5609.71,-62 5609.71,-81 5776.71,-81 5776.71,-62 5609.71,-62"/>
<text text-anchor="middle" x="5693.21" y="-69" font-family="Helvetica,sans-Serif" font-size="10.00">sitkBinaryPruningImageFilter.h</text>
</a>
</g>
</g>
<!-- Node3&#45;&gt;Node40 -->
<g id="edge38" class="edge">
<title>Node3&#45;&gt;Node40</title>
<path fill="none" stroke="midnightblue" d="M3871.4,-131.53C4142.69,-129.28 5253.46,-118.26 5600.21,-87 5615.18,-85.65 5631.4,-83.4 5646.04,-81.07"/>
<polygon fill="midnightblue" stroke="midnightblue" points="3871.33,-128.03 3861.36,-131.62 3871.39,-135.03 3871.33,-128.03"/>
</g>
<!-- Node41 -->
<g id="node38" class="node">
<title>Node41</title>
<g id="a_node38"><a xlink:href="sitkBinaryReconstructionByDilationImageFilter_8h.html" target="_top" xlink:title=" ">
<polygon fill="white" stroke="red" points="5794.71,-56.5 5794.71,-86.5 5933.71,-86.5 5933.71,-56.5 5794.71,-56.5"/>
<text text-anchor="start" x="5802.71" y="-74.5" font-family="Helvetica,sans-Serif" font-size="10.00">sitkBinaryReconstruction</text>
<text text-anchor="middle" x="5864.21" y="-63.5" font-family="Helvetica,sans-Serif" font-size="10.00">ByDilationImageFilter.h</text>
</a>
</g>
</g>
<!-- Node3&#45;&gt;Node41 -->
<g id="edge39" class="edge">
<title>Node3&#45;&gt;Node41</title>
<path fill="none" stroke="midnightblue" d="M3871.88,-131.92C4160.98,-131.31 5400.57,-126.43 5785.21,-87 5788.26,-86.69 5791.37,-86.32 5794.51,-85.91"/>
<polygon fill="midnightblue" stroke="midnightblue" points="3871.6,-128.42 3861.6,-131.94 3871.61,-135.42 3871.6,-128.42"/>
</g>
<!-- Node42 -->
<g id="node39" class="node">
<title>Node42</title>
<g id="a_node39"><a xlink:href="sitkBinaryReconstructionByErosionImageFilter_8h.html" target="_top" xlink:title=" ">
<polygon fill="white" stroke="red" points="5951.71,-56.5 5951.71,-86.5 6090.71,-86.5 6090.71,-56.5 5951.71,-56.5"/>
<text text-anchor="start" x="5959.71" y="-74.5" font-family="Helvetica,sans-Serif" font-size="10.00">sitkBinaryReconstruction</text>
<text text-anchor="middle" x="6021.21" y="-63.5" font-family="Helvetica,sans-Serif" font-size="10.00">ByErosionImageFilter.h</text>
</a>
</g>
</g>
<!-- Node3&#45;&gt;Node42 -->
<g id="edge40" class="edge">
<title>Node3&#45;&gt;Node42</title>
<path fill="none" stroke="midnightblue" d="M3871.75,-132.05C4174.44,-132.12 5525.56,-129.94 5943.21,-87 5945.95,-86.72 5948.74,-86.39 5951.55,-86.03"/>
<polygon fill="midnightblue" stroke="midnightblue" points="3871.43,-128.55 3861.43,-132.05 3871.43,-135.55 3871.43,-128.55"/>
</g>
<!-- Node43 -->
<g id="node40" class="node">
<title>Node43</title>
<g id="a_node40"><a xlink:href="sitkBinaryThinningImageFilter_8h.html" target="_top" xlink:title=" ">
<polygon fill="white" stroke="red" points="6109.21,-62 6109.21,-81 6281.21,-81 6281.21,-62 6109.21,-62"/>
<text text-anchor="middle" x="6195.21" y="-69" font-family="Helvetica,sans-Serif" font-size="10.00">sitkBinaryThinningImageFilter.h</text>
</a>
</g>
</g>
<!-- Node3&#45;&gt;Node43 -->
<g id="edge41" class="edge">
<title>Node3&#45;&gt;Node43</title>
<path fill="none" stroke="midnightblue" d="M3871.53,-131.89C4186.92,-131.16 5648.92,-125.71 6100.21,-87 6115.67,-85.67 6132.43,-83.4 6147.51,-81.04"/>
<polygon fill="midnightblue" stroke="midnightblue" points="3871.23,-128.39 3861.23,-131.91 3871.24,-135.39 3871.23,-128.39"/>
</g>
<!-- Node44 -->
<g id="node41" class="node">
<title>Node44</title>
<g id="a_node41"><a xlink:href="sitkBinaryThresholdImageFilter_8h.html" target="_top" xlink:title=" ">
<polygon fill="white" stroke="red" points="6299.71,-56.5 6299.71,-86.5 6444.71,-86.5 6444.71,-56.5 6299.71,-56.5"/>
<text text-anchor="start" x="6307.71" y="-74.5" font-family="Helvetica,sans-Serif" font-size="10.00">sitkBinaryThresholdImage</text>
<text text-anchor="middle" x="6372.21" y="-63.5" font-family="Helvetica,sans-Serif" font-size="10.00">Filter.h</text>
</a>
</g>
</g>
<!-- Node3&#45;&gt;Node44 -->
<g id="edge42" class="edge">
<title>Node3&#45;&gt;Node44</title>
<path fill="none" stroke="midnightblue" d="M3871.69,-132.19C4202.88,-133.03 5799.61,-134.53 6290.21,-87 6293.23,-86.71 6296.31,-86.36 6299.41,-85.98"/>
<polygon fill="midnightblue" stroke="midnightblue" points="3871.36,-128.69 3861.35,-132.16 3871.34,-135.69 3871.36,-128.69"/>
</g>
<!-- Node45 -->
<g id="node42" class="node">
<title>Node45</title>
<g id="a_node42"><a xlink:href="sitkBinaryThresholdProjectionImageFilter_8h.html" target="_top" xlink:title=" ">
<polygon fill="white" stroke="red" points="6462.71,-56.5 6462.71,-86.5 6625.71,-86.5 6625.71,-56.5 6462.71,-56.5"/>
<text text-anchor="start" x="6470.71" y="-74.5" font-family="Helvetica,sans-Serif" font-size="10.00">sitkBinaryThresholdProjection</text>
<text text-anchor="middle" x="6544.21" y="-63.5" font-family="Helvetica,sans-Serif" font-size="10.00">ImageFilter.h</text>
</a>
</g>
</g>
<!-- Node3&#45;&gt;Node45 -->
<g id="edge43" class="edge">
<title>Node3&#45;&gt;Node45</title>
<path fill="none" stroke="midnightblue" d="M3871.5,-132.14C4215.06,-132.79 5928.67,-133.57 6454.21,-87 6456.89,-86.76 6459.61,-86.49 6462.35,-86.2"/>
<polygon fill="midnightblue" stroke="midnightblue" points="3871.27,-128.64 3861.27,-132.12 3871.26,-135.64 3871.27,-128.64"/>
</g>
<!-- Node46 -->
<g id="node43" class="node">
<title>Node46</title>
<g id="a_node43"><a xlink:href="sitkBinomialBlurImageFilter_8h.html" target="_top" xlink:title=" ">
<polygon fill="white" stroke="red" points="6643.71,-62 6643.71,-81 6804.71,-81 6804.71,-62 6643.71,-62"/>
<text text-anchor="middle" x="6724.21" y="-69" font-family="Helvetica,sans-Serif" font-size="10.00">sitkBinomialBlurImageFilter.h</text>
</a>
</g>
</g>
<!-- Node3&#45;&gt;Node46 -->
<g id="edge44" class="edge">
<title>Node3&#45;&gt;Node46</title>
<path fill="none" stroke="midnightblue" d="M3871.59,-132.24C4229.07,-133.45 6071.61,-137.13 6635.21,-87 6649.87,-85.7 6665.76,-83.39 6680,-81"/>
<polygon fill="midnightblue" stroke="midnightblue" points="3871.46,-128.73 3861.45,-132.2 3871.44,-135.73 3871.46,-128.73"/>
</g>
<!-- Node47 -->
<g id="node44" class="node">
<title>Node47</title>
<g id="a_node44"><a xlink:href="sitkBitwiseNotImageFilter_8h.html" target="_top" xlink:title=" ">
<polygon fill="white" stroke="red" points="6823.21,-62 6823.21,-81 6975.21,-81 6975.21,-62 6823.21,-62"/>
<text text-anchor="middle" x="6899.21" y="-69" font-family="Helvetica,sans-Serif" font-size="10.00">sitkBitwiseNotImageFilter.h</text>
</a>
</g>
</g>
<!-- Node3&#45;&gt;Node47 -->
<g id="edge45" class="edge">
<title>Node3&#45;&gt;Node47</title>
<path fill="none" stroke="midnightblue" d="M3871.63,-131.65C4269.91,-129.3 6511.61,-114.91 6814.21,-87 6828.22,-85.71 6843.4,-83.41 6857.01,-81.02"/>
<polygon fill="midnightblue" stroke="midnightblue" points="3871.45,-128.16 3861.47,-131.71 3871.49,-135.16 3871.45,-128.16"/>
</g>
<!-- Node48 -->
<g id="node45" class="node">
<title>Node48</title>
<g id="a_node45"><a xlink:href="sitkBlackTopHatImageFilter_8h.html" target="_top" xlink:title=" ">
<polygon fill="white" stroke="red" points="6993.71,-62 6993.71,-81 7152.71,-81 7152.71,-62 6993.71,-62"/>
<text text-anchor="middle" x="7073.21" y="-69" font-family="Helvetica,sans-Serif" font-size="10.00">sitkBlackTopHatImageFilter.h</text>
</a>
</g>
</g>
<!-- Node3&#45;&gt;Node48 -->
<g id="edge46" class="edge">
<title>Node3&#45;&gt;Node48</title>
<path fill="none" stroke="midnightblue" d="M3871.43,-131.68C4282.08,-129.43 6663.44,-115.25 6984.21,-87 6998.87,-85.71 7014.76,-83.41 7029.01,-81.02"/>
<polygon fill="midnightblue" stroke="midnightblue" points="3871.24,-128.18 3861.25,-131.74 3871.27,-135.18 3871.24,-128.18"/>
</g>
<!-- Node49 -->
<g id="node46" class="node">
<title>Node49</title>
<g id="a_node46"><a xlink:href="sitkBoundedReciprocalImageFilter_8h.html" target="_top" xlink:title=" ">
<polygon fill="white" stroke="red" points="7170.71,-56.5 7170.71,-86.5 7329.71,-86.5 7329.71,-56.5 7170.71,-56.5"/>
<text text-anchor="start" x="7178.71" y="-74.5" font-family="Helvetica,sans-Serif" font-size="10.00">sitkBoundedReciprocalImage</text>
<text text-anchor="middle" x="7250.21" y="-63.5" font-family="Helvetica,sans-Serif" font-size="10.00">Filter.h</text>
</a>
</g>
</g>
<!-- Node3&#45;&gt;Node49 -->
<g id="edge47" class="edge">
<title>Node3&#45;&gt;Node49</title>
<path fill="none" stroke="midnightblue" d="M3871.43,-131.74C4295.24,-129.81 6822.57,-117.09 7162.21,-87 7164.98,-86.75 7167.81,-86.47 7170.65,-86.16"/>
<polygon fill="midnightblue" stroke="midnightblue" points="3871.21,-128.24 3861.23,-131.78 3871.25,-135.24 3871.21,-128.24"/>
</g>
<!-- Node50 -->
<g id="node47" class="node">
<title>Node50</title>
<g id="a_node47"><a xlink:href="sitkBoxMeanImageFilter_8h.html" target="_top" xlink:title=" ">
<polygon fill="white" stroke="red" points="7348.21,-62 7348.21,-81 7492.21,-81 7492.21,-62 7348.21,-62"/>
<text text-anchor="middle" x="7420.21" y="-69" font-family="Helvetica,sans-Serif" font-size="10.00">sitkBoxMeanImageFilter.h</text>
</a>
</g>
</g>
<!-- Node3&#45;&gt;Node50 -->
<g id="edge48" class="edge">
<title>Node3&#45;&gt;Node50</title>
<path fill="none" stroke="midnightblue" d="M3871.49,-131.83C4308.27,-130.51 6981.01,-121.11 7339.21,-87 7352.58,-85.73 7367.05,-83.43 7380.01,-81.04"/>
<polygon fill="midnightblue" stroke="midnightblue" points="3871.28,-128.33 3861.29,-131.86 3871.3,-135.33 3871.28,-128.33"/>
</g>
<!-- Node51 -->
<g id="node48" class="node">
<title>Node51</title>
<g id="a_node48"><a xlink:href="sitkBoxSigmaImageFilter_8h.html" target="_top" xlink:title=" ">
<polygon fill="white" stroke="red" points="7510.21,-62 7510.21,-81 7658.21,-81 7658.21,-62 7510.21,-62"/>
<text text-anchor="middle" x="7584.21" y="-69" font-family="Helvetica,sans-Serif" font-size="10.00">sitkBoxSigmaImageFilter.h</text>
</a>
</g>
</g>
<!-- Node3&#45;&gt;Node51 -->
<g id="edge49" class="edge">
<title>Node3&#45;&gt;Node51</title>
<path fill="none" stroke="midnightblue" d="M3871.42,-131.85C4319.36,-130.66 7125.69,-121.86 7501.21,-87 7514.9,-85.73 7529.73,-83.44 7543.01,-81.04"/>
<polygon fill="midnightblue" stroke="midnightblue" points="3871.27,-128.35 3861.28,-131.88 3871.29,-135.35 3871.27,-128.35"/>
</g>
<!-- Node52 -->
<g id="node49" class="node">
<title>Node52</title>
<g id="a_node49"><a xlink:href="sitkCannyEdgeDetectionImageFilter_8h.html" target="_top" xlink:title=" ">
<polygon fill="white" stroke="red" points="7676.71,-56.5 7676.71,-86.5 7843.71,-86.5 7843.71,-56.5 7676.71,-56.5"/>
<text text-anchor="start" x="7684.71" y="-74.5" font-family="Helvetica,sans-Serif" font-size="10.00">sitkCannyEdgeDetectionImage</text>
<text text-anchor="middle" x="7760.21" y="-63.5" font-family="Helvetica,sans-Serif" font-size="10.00">Filter.h</text>
</a>
</g>
</g>
<!-- Node3&#45;&gt;Node52 -->
<g id="edge50" class="edge">
<title>Node3&#45;&gt;Node52</title>
<path fill="none" stroke="midnightblue" d="M3871.58,-131.82C4331.45,-130.36 7273.76,-119.8 7667.21,-87 7670.3,-86.74 7673.45,-86.44 7676.62,-86.11"/>
<polygon fill="midnightblue" stroke="midnightblue" points="3871.48,-128.32 3861.49,-131.85 3871.5,-135.32 3871.48,-128.32"/>
</g>
<!-- Node12&#45;&gt;Node2 -->
<g id="edge9" class="edge">
<title>Node12&#45;&gt;Node2</title>
<path fill="none" stroke="midnightblue" d="M933.64,-60.28C943.44,-58.65 953.61,-57.14 963.21,-56 1220.68,-25.49 1533.01,-14.82 1639.53,-11.91"/>
<polygon fill="midnightblue" stroke="midnightblue" points="932.85,-56.86 923.58,-61.99 934.03,-63.76 932.85,-56.86"/>
</g>
<!-- Node22&#45;&gt;Node2 -->
<g id="edge20" class="edge">
<title>Node22&#45;&gt;Node2</title>
<path fill="none" stroke="midnightblue" d="M2381.04,-56.06C2119.61,-27.85 1818.69,-15.77 1714.71,-12.2"/>
<polygon fill="midnightblue" stroke="midnightblue" points="2380.79,-59.56 2391.11,-57.16 2381.54,-52.6 2380.79,-59.56"/>
</g>
<!-- Node307&#45;&gt;Node2 -->
<g id="edge52" class="edge">
<title>Node307&#45;&gt;Node2</title>
<path fill="none" stroke="midnightblue" d="M6056.57,-131.52C6436.25,-129.4 7821.52,-119.45 7853.21,-87 7862.83,-77.14 7862.92,-65.78 7853.21,-56 7824.38,-26.96 2228.49,-12.37 1714.86,-11.09"/>
<polygon fill="midnightblue" stroke="midnightblue" points="6056.42,-128.02 6046.44,-131.58 6056.46,-135.02 6056.42,-128.02"/>
</g>
</g>
</svg>
        <g id="navigator" transform="translate(0 0)" fill="#404254">
                <rect fill="#f2f5e9" fill-opacity="0.5" stroke="#606060" stroke-width=".5" x="0" y="0" width="60" height="60"/>
                <use id="zoomplus" xlink:href="#zoomPlus" x="17" y="9" onmousedown="handleZoom(evt,'in')"/>
                <use id="zoomminus" xlink:href="#zoomMin" x="42" y="9" onmousedown="handleZoom(evt,'out')"/>
                <use id="reset" xlink:href="#resetDef" x="30" y="36" onmousedown="handleReset()"/>
                <g id="arrowUp" xlink:href="#dirArrow" transform="translate(30 24)" onmousedown="handlePan(0,-1)">
                  <use xlink:href="#rim" fill="#404040">
                        <set attributeName="fill" to="#808080" begin="arrowUp.mouseover" end="arrowUp.mouseout"/>
                  </use>
                  <path fill="none" stroke="white" stroke-width="1.5" d="M0,-3.0v7 M-2.5,-0.5L0,-3.0L2.5,-0.5"/>
                </g>
                <g id="arrowRight" xlink:href="#dirArrow" transform="rotate(90) translate(36 -43)" onmousedown="handlePan(1,0)">
                  <use xlink:href="#rim" fill="#404040">
                        <set attributeName="fill" to="#808080" begin="arrowRight.mouseover" end="arrowRight.mouseout"/>
                  </use>
                  <path fill="none" stroke="white" stroke-width="1.5" d="M0,-3.0v7 M-2.5,-0.5L0,-3.0L2.5,-0.5"/>
                </g>
                <g id="arrowDown" xlink:href="#dirArrow" transform="rotate(180) translate(-30 -48)" onmousedown="handlePan(0,1)">
                  <use xlink:href="#rim" fill="#404040">
                        <set attributeName="fill" to="#808080" begin="arrowDown.mouseover" end="arrowDown.mouseout"/>
                  </use>
                  <path fill="none" stroke="white" stroke-width="1.5" d="M0,-3.0v7 M-2.5,-0.5L0,-3.0L2.5,-0.5"/>
                </g>
                <g id="arrowLeft" xlink:href="#dirArrow" transform="rotate(270) translate(-36 17)" onmousedown="handlePan(-1,0)">
                  <use xlink:href="#rim" fill="#404040">
                        <set attributeName="fill" to="#808080" begin="arrowLeft.mouseover" end="arrowLeft.mouseout"/>
                  </use>
                  <path fill="none" stroke="white" stroke-width="1.5" d="M0,-3.0v7 M-2.5,-0.5L0,-3.0L2.5,-0.5"/>
                </g>
        </g>
        <svg viewBox="0 0 15 15" width="100%" height="30px" preserveAspectRatio="xMaxYMin meet">
         <g id="arrow_out" transform="scale(0.3 0.3)">
          <a xlink:href="sitkRandomSeed_8h__dep__incl_org.svg" target="_base">
           <rect id="button" ry="5" rx="5" y="6" x="6" height="38" width="38"
                fill="#f2f5e9" fill-opacity="0.5" stroke="#606060" stroke-width="1.0"/>
           <path id="arrow"
             d="M 11.500037,31.436501 C 11.940474,20.09759 22.043105,11.32322 32.158766,21.979434 L 37.068811,17.246167 C 37.068811,17.246167 37.088388,32 37.088388,32 L 22.160133,31.978069 C 22.160133,31.978069 26.997745,27.140456 26.997745,27.140456 C 18.528582,18.264221 13.291696,25.230495 11.500037,31.436501 z"
             style="fill:#404040;"/>
          </a>
         </g>
        </svg>
</svg>
