<?xml version="1.0" encoding="UTF-8" standalone="no"?>
<!DOCTYPE svg PUBLIC "-//W3C//DTD SVG 1.1//EN"
 "http://www.w3.org/Graphics/SVG/1.1/DTD/svg11.dtd">
<!-- Generated by graphviz version 2.43.0 (0)
 -->
<!-- Title: sitkEvent.h Pages: 1 -->
<svg width="6864pt" height="274pt"
 viewBox="0.00 0.00 6863.67 274.00" xmlns="http://www.w3.org/2000/svg" xmlns:xlink="http://www.w3.org/1999/xlink">
<g id="graph0" class="graph" transform="scale(1 1) rotate(0) translate(4 270)">
<title>sitkEvent.h</title>
<polygon fill="white" stroke="transparent" points="-4,4 -4,-270 6859.67,-270 6859.67,4 -4,4"/>
<!-- Node1 -->
<g id="node1" class="node">
<title>Node1</title>
<g id="a_node1"><a xlink:title=" ">
<polygon fill="#bfbfbf" stroke="black" points="2910.17,-246.5 2910.17,-265.5 2981.17,-265.5 2981.17,-246.5 2910.17,-246.5"/>
<text text-anchor="middle" x="2945.67" y="-253.5" font-family="Helvetica,sans-Serif" font-size="10.00">sitkEvent.h</text>
</a>
</g>
</g>
<!-- Node2 -->
<g id="node2" class="node">
<title>Node2</title>
<g id="a_node2"><a xlink:href="SimpleITK_8h.html" target="_top" xlink:title=" ">
<polygon fill="white" stroke="black" points="804.17,-0.5 804.17,-19.5 879.17,-19.5 879.17,-0.5 804.17,-0.5"/>
<text text-anchor="middle" x="841.67" y="-7.5" font-family="Helvetica,sans-Serif" font-size="10.00">SimpleITK.h</text>
</a>
</g>
</g>
<!-- Node1&#45;&gt;Node2 -->
<g id="edge1" class="edge">
<title>Node1&#45;&gt;Node2</title>
<path fill="none" stroke="midnightblue" d="M2900.02,-254.43C2542.24,-249.82 198.36,-217.26 64.67,-154 28.8,-137.03 19.68,-124.12 5.67,-87 0.8,-74.11 -3.81,-66 5.67,-56 33.49,-26.64 645.15,-14.31 804.16,-11.6"/>
<polygon fill="midnightblue" stroke="midnightblue" points="2899.98,-257.93 2910.03,-254.56 2900.07,-250.93 2899.98,-257.93"/>
</g>
<!-- Node3 -->
<g id="node3" class="node">
<title>Node3</title>
<g id="a_node3"><a xlink:href="sitkProcessObject_8h.html" target="_top" xlink:title=" ">
<polygon fill="white" stroke="black" points="5958.17,-190.5 5958.17,-209.5 6071.17,-209.5 6071.17,-190.5 5958.17,-190.5"/>
<text text-anchor="middle" x="6014.67" y="-197.5" font-family="Helvetica,sans-Serif" font-size="10.00">sitkProcessObject.h</text>
</a>
</g>
</g>
<!-- Node1&#45;&gt;Node3 -->
<g id="edge2" class="edge">
<title>Node1&#45;&gt;Node3</title>
<path fill="none" stroke="midnightblue" d="M2991.42,-254.2C3339.92,-248.06 5572.16,-208.79 5957.92,-202"/>
<polygon fill="midnightblue" stroke="midnightblue" points="2991.13,-250.7 2981.19,-254.37 2991.25,-257.7 2991.13,-250.7"/>
</g>
<!-- Node3&#45;&gt;Node2 -->
<g id="edge54" class="edge">
<title>Node3&#45;&gt;Node2</title>
<path fill="none" stroke="midnightblue" d="M5947.88,-199.03C5422.22,-199.21 1943.77,-198.68 893.67,-154 698.39,-145.69 149.51,-230.38 16.67,-87 7.3,-76.89 7.19,-66 16.67,-56 44.08,-27.05 646.38,-14.44 804.13,-11.63"/>
<polygon fill="midnightblue" stroke="midnightblue" points="5947.95,-202.53 5957.95,-199.03 5947.95,-195.53 5947.95,-202.53"/>
</g>
<!-- Node4 -->
<g id="node4" class="node">
<title>Node4</title>
<g id="a_node4"><a xlink:href="sitkImageFilter_8h.html" target="_top" xlink:title=" ">
<polygon fill="white" stroke="red" points="2997.67,-129 2997.67,-148 3095.67,-148 3095.67,-129 2997.67,-129"/>
<text text-anchor="middle" x="3046.67" y="-136" font-family="Helvetica,sans-Serif" font-size="10.00">sitkImageFilter.h</text>
</a>
</g>
</g>
<!-- Node3&#45;&gt;Node4 -->
<g id="edge3" class="edge">
<title>Node3&#45;&gt;Node4</title>
<path fill="none" stroke="midnightblue" d="M5948,-197.66C5545.42,-189.59 3444.47,-147.47 3095.74,-140.48"/>
<polygon fill="midnightblue" stroke="midnightblue" points="5947.96,-201.16 5958.03,-197.86 5948.1,-194.16 5947.96,-201.16"/>
</g>
<!-- Node8 -->
<g id="node8" class="node">
<title>Node8</title>
<g id="a_node8"><a xlink:href="sitkHashImageFilter_8h.html" target="_top" xlink:title=" ">
<polygon fill="white" stroke="black" points="26.17,-62 26.17,-81 149.17,-81 149.17,-62 26.17,-62"/>
<text text-anchor="middle" x="87.67" y="-69" font-family="Helvetica,sans-Serif" font-size="10.00">sitkHashImageFilter.h</text>
</a>
</g>
</g>
<!-- Node3&#45;&gt;Node8 -->
<g id="edge53" class="edge">
<title>Node3&#45;&gt;Node8</title>
<path fill="none" stroke="midnightblue" d="M5948.14,-198.94C5383.38,-198.23 1384.38,-189.61 185.67,-87 169.82,-85.64 152.62,-83.37 137.13,-81.03"/>
<polygon fill="midnightblue" stroke="midnightblue" points="5948.15,-202.44 5958.15,-198.95 5948.16,-195.44 5948.15,-202.44"/>
</g>
<!-- Node305 -->
<g id="node43" class="node">
<title>Node305</title>
<g id="a_node43"><a xlink:href="sitkCenteredTransformInitializerFilter_8h.html" target="_top" xlink:title=" ">
<polygon fill="white" stroke="black" points="5662.17,-123.5 5662.17,-153.5 5835.17,-153.5 5835.17,-123.5 5662.17,-123.5"/>
<text text-anchor="start" x="5670.17" y="-141.5" font-family="Helvetica,sans-Serif" font-size="10.00">sitkCenteredTransformInitializer</text>
<text text-anchor="middle" x="5748.67" y="-130.5" font-family="Helvetica,sans-Serif" font-size="10.00">Filter.h</text>
</a>
</g>
</g>
<!-- Node3&#45;&gt;Node305 -->
<g id="edge49" class="edge">
<title>Node3&#45;&gt;Node305</title>
<path fill="none" stroke="midnightblue" d="M5966.8,-188.29C5923.32,-178.57 5858.92,-164.16 5811.36,-153.52"/>
<polygon fill="midnightblue" stroke="midnightblue" points="5966.03,-191.71 5976.56,-190.48 5967.56,-184.88 5966.03,-191.71"/>
</g>
<!-- Node306 -->
<g id="node44" class="node">
<title>Node306</title>
<g id="a_node44"><a xlink:href="sitkCenteredVersorTransformInitializerFilter_8h.html" target="_top" xlink:title=" ">
<polygon fill="white" stroke="black" points="5853.67,-123.5 5853.67,-153.5 6011.67,-153.5 6011.67,-123.5 5853.67,-123.5"/>
<text text-anchor="start" x="5861.67" y="-141.5" font-family="Helvetica,sans-Serif" font-size="10.00">sitkCenteredVersorTransform</text>
<text text-anchor="middle" x="5932.67" y="-130.5" font-family="Helvetica,sans-Serif" font-size="10.00">InitializerFilter.h</text>
</a>
</g>
</g>
<!-- Node3&#45;&gt;Node306 -->
<g id="edge51" class="edge">
<title>Node3&#45;&gt;Node306</title>
<path fill="none" stroke="midnightblue" d="M5994.64,-184.47C5981.66,-175.05 5964.83,-162.84 5951.99,-153.52"/>
<polygon fill="midnightblue" stroke="midnightblue" points="5992.77,-187.43 6002.92,-190.48 5996.88,-181.77 5992.77,-187.43"/>
</g>
<!-- Node307 -->
<g id="node45" class="node">
<title>Node307</title>
<g id="a_node45"><a xlink:href="sitkImageReaderBase_8h.html" target="_top" xlink:title=" ">
<polygon fill="white" stroke="red" points="6030.17,-129 6030.17,-148 6163.17,-148 6163.17,-129 6030.17,-129"/>
<text text-anchor="middle" x="6096.67" y="-136" font-family="Helvetica,sans-Serif" font-size="10.00">sitkImageReaderBase.h</text>
</a>
</g>
</g>
<!-- Node3&#45;&gt;Node307 -->
<g id="edge55" class="edge">
<title>Node3&#45;&gt;Node307</title>
<path fill="none" stroke="midnightblue" d="M6034.93,-184.29C6050.66,-172.88 6071.92,-157.46 6084.94,-148.01"/>
<polygon fill="midnightblue" stroke="midnightblue" points="6032.45,-181.77 6026.42,-190.48 6036.56,-187.43 6032.45,-181.77"/>
</g>
<!-- Node311 -->
<g id="node46" class="node">
<title>Node311</title>
<g id="a_node46"><a xlink:href="sitkImageFileWriter_8h.html" target="_top" xlink:title=" ">
<polygon fill="white" stroke="black" points="6181.17,-129 6181.17,-148 6302.17,-148 6302.17,-129 6181.17,-129"/>
<text text-anchor="middle" x="6241.67" y="-136" font-family="Helvetica,sans-Serif" font-size="10.00">sitkImageFileWriter.h</text>
</a>
</g>
</g>
<!-- Node3&#45;&gt;Node311 -->
<g id="edge56" class="edge">
<title>Node3&#45;&gt;Node311</title>
<path fill="none" stroke="midnightblue" d="M6057.03,-187.9C6101.12,-176.34 6169.2,-158.5 6209.2,-148.01"/>
<polygon fill="midnightblue" stroke="midnightblue" points="6055.98,-184.55 6047.19,-190.48 6057.75,-191.33 6055.98,-184.55"/>
</g>
<!-- Node312 -->
<g id="node47" class="node">
<title>Node312</title>
<g id="a_node47"><a xlink:href="sitkImageSeriesWriter_8h.html" target="_top" xlink:title=" ">
<polygon fill="white" stroke="black" points="6320.67,-129 6320.67,-148 6454.67,-148 6454.67,-129 6320.67,-129"/>
<text text-anchor="middle" x="6387.67" y="-136" font-family="Helvetica,sans-Serif" font-size="10.00">sitkImageSeriesWriter.h</text>
</a>
</g>
</g>
<!-- Node3&#45;&gt;Node312 -->
<g id="edge58" class="edge">
<title>Node3&#45;&gt;Node312</title>
<path fill="none" stroke="midnightblue" d="M6081.57,-189.61C6141.85,-180.97 6232.82,-167.49 6311.67,-154 6322.26,-152.19 6333.65,-150.09 6344.31,-148.07"/>
<polygon fill="midnightblue" stroke="midnightblue" points="6080.83,-186.18 6071.43,-191.06 6081.83,-193.11 6080.83,-186.18"/>
</g>
<!-- Node313 -->
<g id="node48" class="node">
<title>Node313</title>
<g id="a_node48"><a xlink:href="sitkImageViewer_8h.html" target="_top" xlink:title=" ">
<polygon fill="white" stroke="black" points="6473.17,-129 6473.17,-148 6580.17,-148 6580.17,-129 6473.17,-129"/>
<text text-anchor="middle" x="6526.67" y="-136" font-family="Helvetica,sans-Serif" font-size="10.00">sitkImageViewer.h</text>
</a>
</g>
</g>
<!-- Node3&#45;&gt;Node313 -->
<g id="edge60" class="edge">
<title>Node3&#45;&gt;Node313</title>
<path fill="none" stroke="midnightblue" d="M6081.43,-194.95C6169.44,-189.02 6328.89,-176.17 6463.67,-154 6473.3,-152.41 6483.66,-150.23 6493.15,-148.04"/>
<polygon fill="midnightblue" stroke="midnightblue" points="6081.06,-191.47 6071.32,-195.63 6081.53,-198.45 6081.06,-191.47"/>
</g>
<!-- Node314 -->
<g id="node49" class="node">
<title>Node314</title>
<g id="a_node49"><a xlink:href="sitkShow_8h.html" target="_top" xlink:title=" ">
<polygon fill="white" stroke="black" points="6598.17,-129 6598.17,-148 6667.17,-148 6667.17,-129 6598.17,-129"/>
<text text-anchor="middle" x="6632.67" y="-136" font-family="Helvetica,sans-Serif" font-size="10.00">sitkShow.h</text>
</a>
</g>
</g>
<!-- Node3&#45;&gt;Node314 -->
<g id="edge62" class="edge">
<title>Node3&#45;&gt;Node314</title>
<path fill="none" stroke="midnightblue" d="M6081.31,-199.09C6189.21,-198.07 6408.38,-191.06 6589.67,-154 6596.61,-152.58 6603.99,-150.37 6610.64,-148.09"/>
<polygon fill="midnightblue" stroke="midnightblue" points="6081.19,-195.6 6071.22,-199.18 6081.25,-202.6 6081.19,-195.6"/>
</g>
<!-- Node315 -->
<g id="node50" class="node">
<title>Node315</title>
<g id="a_node50"><a xlink:href="sitkImageRegistrationMethod_8h.html" target="_top" xlink:title=" ">
<polygon fill="white" stroke="black" points="6685.67,-129 6685.67,-148 6855.67,-148 6855.67,-129 6685.67,-129"/>
<text text-anchor="middle" x="6770.67" y="-136" font-family="Helvetica,sans-Serif" font-size="10.00">sitkImageRegistrationMethod.h</text>
</a>
</g>
</g>
<!-- Node3&#45;&gt;Node315 -->
<g id="edge64" class="edge">
<title>Node3&#45;&gt;Node315</title>
<path fill="none" stroke="midnightblue" d="M6081.59,-196.34C6201.27,-191.16 6459.73,-178.06 6676.67,-154 6690.95,-152.42 6706.38,-150.23 6720.52,-148.04"/>
<polygon fill="midnightblue" stroke="midnightblue" points="6081.33,-192.85 6071.49,-196.77 6081.63,-199.84 6081.33,-192.85"/>
</g>
<!-- Node4&#45;&gt;Node2 -->
<g id="edge16" class="edge">
<title>Node4&#45;&gt;Node2</title>
<path fill="none" stroke="midnightblue" d="M2987.29,-137.01C2580.65,-133.62 222.02,-112.81 196.67,-87 187.01,-77.17 187.27,-66.08 196.67,-56 238.15,-11.52 671.77,-10.1 803.76,-10.71"/>
<polygon fill="midnightblue" stroke="midnightblue" points="2987.34,-140.51 2997.37,-137.1 2987.4,-133.51 2987.34,-140.51"/>
</g>
<!-- Node5 -->
<g id="node5" class="node">
<title>Node5</title>
<g id="a_node5"><a xlink:href="sitkBSplineTransformInitializerFilter_8h.html" target="_top" xlink:title=" ">
<polygon fill="white" stroke="black" points="205.67,-56.5 205.67,-86.5 371.67,-86.5 371.67,-56.5 205.67,-56.5"/>
<text text-anchor="start" x="213.67" y="-74.5" font-family="Helvetica,sans-Serif" font-size="10.00">sitkBSplineTransformInitializer</text>
<text text-anchor="middle" x="288.67" y="-63.5" font-family="Helvetica,sans-Serif" font-size="10.00">Filter.h</text>
</a>
</g>
</g>
<!-- Node4&#45;&gt;Node5 -->
<g id="edge4" class="edge">
<title>Node4&#45;&gt;Node5</title>
<path fill="none" stroke="midnightblue" d="M2987.32,-136.87C2618.6,-132.86 648.02,-110.49 380.67,-87 377.77,-86.75 374.82,-86.45 371.85,-86.13"/>
<polygon fill="midnightblue" stroke="midnightblue" points="2987.47,-140.37 2997.51,-136.98 2987.55,-133.37 2987.47,-140.37"/>
</g>
<!-- Node6 -->
<g id="node6" class="node">
<title>Node6</title>
<g id="a_node6"><a xlink:href="sitkCastImageFilter_8h.html" target="_top" xlink:title=" ">
<polygon fill="white" stroke="black" points="389.67,-62 389.67,-81 509.67,-81 509.67,-62 389.67,-62"/>
<text text-anchor="middle" x="449.67" y="-69" font-family="Helvetica,sans-Serif" font-size="10.00">sitkCastImageFilter.h</text>
</a>
</g>
</g>
<!-- Node4&#45;&gt;Node6 -->
<g id="edge6" class="edge">
<title>Node4&#45;&gt;Node6</title>
<path fill="none" stroke="midnightblue" d="M2987.28,-136.98C2629.75,-133.76 770.78,-115.75 518.67,-87 507.23,-85.7 494.89,-83.39 483.86,-81"/>
<polygon fill="midnightblue" stroke="midnightblue" points="2987.38,-140.48 2997.42,-137.07 2987.45,-133.48 2987.38,-140.48"/>
</g>
<!-- Node7 -->
<g id="node7" class="node">
<title>Node7</title>
<g id="a_node7"><a xlink:href="sitkExtractImageFilter_8h.html" target="_top" xlink:title=" ">
<polygon fill="white" stroke="black" points="528.17,-62 528.17,-81 661.17,-81 661.17,-62 528.17,-62"/>
<text text-anchor="middle" x="594.67" y="-69" font-family="Helvetica,sans-Serif" font-size="10.00">sitkExtractImageFilter.h</text>
</a>
</g>
</g>
<!-- Node4&#45;&gt;Node7 -->
<g id="edge8" class="edge">
<title>Node4&#45;&gt;Node7</title>
<path fill="none" stroke="midnightblue" d="M2987.6,-136.84C2643.73,-132.9 907.1,-111.89 670.67,-87 658.24,-85.69 644.82,-83.42 632.75,-81.06"/>
<polygon fill="midnightblue" stroke="midnightblue" points="2987.56,-140.34 2997.6,-136.95 2987.64,-133.34 2987.56,-140.34"/>
</g>
<!-- Node4&#45;&gt;Node8 -->
<g id="edge10" class="edge">
<title>Node4&#45;&gt;Node8</title>
<path fill="none" stroke="midnightblue" d="M2987.45,-137.07C2601.75,-134.2 453.57,-116.97 163.67,-87 151.11,-85.7 137.52,-83.4 125.36,-81.01"/>
<polygon fill="midnightblue" stroke="midnightblue" points="2987.53,-140.57 2997.56,-137.15 2987.58,-133.57 2987.53,-140.57"/>
</g>
<!-- Node9 -->
<g id="node9" class="node">
<title>Node9</title>
<g id="a_node9"><a xlink:href="sitkLandmarkBasedTransformInitializerFilter_8h.html" target="_top" xlink:title=" ">
<polygon fill="white" stroke="black" points="679.67,-56.5 679.67,-86.5 841.67,-86.5 841.67,-56.5 679.67,-56.5"/>
<text text-anchor="start" x="687.67" y="-74.5" font-family="Helvetica,sans-Serif" font-size="10.00">sitkLandmarkBasedTransform</text>
<text text-anchor="middle" x="760.67" y="-63.5" font-family="Helvetica,sans-Serif" font-size="10.00">InitializerFilter.h</text>
</a>
</g>
</g>
<!-- Node4&#45;&gt;Node9 -->
<g id="edge12" class="edge">
<title>Node4&#45;&gt;Node9</title>
<path fill="none" stroke="midnightblue" d="M2986.85,-137.23C2680.23,-135.69 1282.51,-126.57 850.67,-87 847.83,-86.74 844.95,-86.45 842.04,-86.12"/>
<polygon fill="midnightblue" stroke="midnightblue" points="2987.27,-140.73 2997.29,-137.28 2987.31,-133.73 2987.27,-140.73"/>
</g>
<!-- Node10 -->
<g id="node10" class="node">
<title>Node10</title>
<g id="a_node10"><a xlink:href="sitkPasteImageFilter_8h.html" target="_top" xlink:title=" ">
<polygon fill="white" stroke="black" points="860.17,-62 860.17,-81 985.17,-81 985.17,-62 860.17,-62"/>
<text text-anchor="middle" x="922.67" y="-69" font-family="Helvetica,sans-Serif" font-size="10.00">sitkPasteImageFilter.h</text>
</a>
</g>
</g>
<!-- Node4&#45;&gt;Node10 -->
<g id="edge14" class="edge">
<title>Node4&#45;&gt;Node10</title>
<path fill="none" stroke="midnightblue" d="M2987.43,-137.43C2694.15,-136.9 1395.84,-131.99 994.67,-87 982.88,-85.68 970.16,-83.4 958.73,-81.04"/>
<polygon fill="midnightblue" stroke="midnightblue" points="2987.42,-140.93 2997.43,-137.45 2987.44,-133.93 2987.42,-140.93"/>
</g>
<!-- Node11 -->
<g id="node11" class="node">
<title>Node11</title>
<g id="a_node11"><a xlink:href="sitkAbsImageFilter_8h.html" target="_top" xlink:title=" ">
<polygon fill="white" stroke="red" points="1003.67,-62 1003.67,-81 1119.67,-81 1119.67,-62 1003.67,-62"/>
<text text-anchor="middle" x="1061.67" y="-69" font-family="Helvetica,sans-Serif" font-size="10.00">sitkAbsImageFilter.h</text>
</a>
</g>
</g>
<!-- Node4&#45;&gt;Node11 -->
<g id="edge17" class="edge">
<title>Node4&#45;&gt;Node11</title>
<path fill="none" stroke="midnightblue" d="M2987.22,-137.43C2705.33,-136.87 1501.49,-131.85 1128.67,-87 1117.68,-85.68 1105.83,-83.4 1095.2,-81.04"/>
<polygon fill="midnightblue" stroke="midnightblue" points="2987.24,-140.93 2997.25,-137.45 2987.25,-133.93 2987.24,-140.93"/>
</g>
<!-- Node14 -->
<g id="node12" class="node">
<title>Node14</title>
<g id="a_node12"><a xlink:href="sitkAbsoluteValueDifferenceImageFilter_8h.html" target="_top" xlink:title=" ">
<polygon fill="white" stroke="red" points="1138.17,-56.5 1138.17,-86.5 1293.17,-86.5 1293.17,-56.5 1138.17,-56.5"/>
<text text-anchor="start" x="1146.17" y="-74.5" font-family="Helvetica,sans-Serif" font-size="10.00">sitkAbsoluteValueDifference</text>
<text text-anchor="middle" x="1215.67" y="-63.5" font-family="Helvetica,sans-Serif" font-size="10.00">ImageFilter.h</text>
</a>
</g>
</g>
<!-- Node4&#45;&gt;Node14 -->
<g id="edge18" class="edge">
<title>Node4&#45;&gt;Node14</title>
<path fill="none" stroke="midnightblue" d="M2987.14,-136.87C2721.21,-133.87 1640.15,-119.86 1302.67,-87 1299.62,-86.7 1296.52,-86.36 1293.39,-85.99"/>
<polygon fill="midnightblue" stroke="midnightblue" points="2987.32,-140.37 2997.36,-136.98 2987.4,-133.37 2987.32,-140.37"/>
</g>
<!-- Node15 -->
<g id="node13" class="node">
<title>Node15</title>
<g id="a_node13"><a xlink:href="sitkAcosImageFilter_8h.html" target="_top" xlink:title=" ">
<polygon fill="white" stroke="red" points="1311.67,-62 1311.67,-81 1433.67,-81 1433.67,-62 1311.67,-62"/>
<text text-anchor="middle" x="1372.67" y="-69" font-family="Helvetica,sans-Serif" font-size="10.00">sitkAcosImageFilter.h</text>
</a>
</g>
</g>
<!-- Node4&#45;&gt;Node15 -->
<g id="edge19" class="edge">
<title>Node4&#45;&gt;Node15</title>
<path fill="none" stroke="midnightblue" d="M2987.4,-137.01C2735.25,-134.69 1750.53,-123.45 1442.67,-87 1431.33,-85.66 1419.1,-83.41 1408.08,-81.07"/>
<polygon fill="midnightblue" stroke="midnightblue" points="2987.43,-140.51 2997.46,-137.1 2987.5,-133.51 2987.43,-140.51"/>
</g>
<!-- Node16 -->
<g id="node14" class="node">
<title>Node16</title>
<g id="a_node14"><a xlink:href="sitkAdaptiveHistogramEqualizationImageFilter_8h.html" target="_top" xlink:title=" ">
<polygon fill="white" stroke="red" points="1452.17,-56.5 1452.17,-86.5 1641.17,-86.5 1641.17,-56.5 1452.17,-56.5"/>
<text text-anchor="start" x="1460.17" y="-74.5" font-family="Helvetica,sans-Serif" font-size="10.00">sitkAdaptiveHistogramEqualization</text>
<text text-anchor="middle" x="1546.67" y="-63.5" font-family="Helvetica,sans-Serif" font-size="10.00">ImageFilter.h</text>
</a>
</g>
</g>
<!-- Node4&#45;&gt;Node16 -->
<g id="edge20" class="edge">
<title>Node4&#45;&gt;Node16</title>
<path fill="none" stroke="midnightblue" d="M2987.14,-137.55C2793.83,-137.25 2166.28,-132.58 1649.67,-87 1646.88,-86.75 1644.05,-86.48 1641.2,-86.2"/>
<polygon fill="midnightblue" stroke="midnightblue" points="2987.37,-141.05 2997.37,-137.56 2987.37,-134.05 2987.37,-141.05"/>
</g>
<!-- Node17 -->
<g id="node15" class="node">
<title>Node17</title>
<g id="a_node15"><a xlink:href="sitkAddImageFilter_8h.html" target="_top" xlink:title=" ">
<polygon fill="white" stroke="red" points="1659.17,-62 1659.17,-81 1776.17,-81 1776.17,-62 1659.17,-62"/>
<text text-anchor="middle" x="1717.67" y="-69" font-family="Helvetica,sans-Serif" font-size="10.00">sitkAddImageFilter.h</text>
</a>
</g>
</g>
<!-- Node4&#45;&gt;Node17 -->
<g id="edge21" class="edge">
<title>Node4&#45;&gt;Node17</title>
<path fill="none" stroke="midnightblue" d="M2987.39,-136.46C2770.81,-132.47 2022.68,-116.8 1785.67,-87 1774.65,-85.61 1762.77,-83.35 1752.07,-81.02"/>
<polygon fill="midnightblue" stroke="midnightblue" points="2987.53,-139.97 2997.59,-136.65 2987.66,-132.97 2987.53,-139.97"/>
</g>
<!-- Node19 -->
<g id="node16" class="node">
<title>Node19</title>
<g id="a_node16"><a xlink:href="sitkAdditiveGaussianNoiseImageFilter_8h.html" target="_top" xlink:title=" ">
<polygon fill="white" stroke="red" points="1794.67,-56.5 1794.67,-86.5 1942.67,-86.5 1942.67,-56.5 1794.67,-56.5"/>
<text text-anchor="start" x="1802.67" y="-74.5" font-family="Helvetica,sans-Serif" font-size="10.00">sitkAdditiveGaussianNoise</text>
<text text-anchor="middle" x="1868.67" y="-63.5" font-family="Helvetica,sans-Serif" font-size="10.00">ImageFilter.h</text>
</a>
</g>
</g>
<!-- Node4&#45;&gt;Node19 -->
<g id="edge22" class="edge">
<title>Node4&#45;&gt;Node19</title>
<path fill="none" stroke="midnightblue" d="M2987.25,-137.4C2822.35,-136.57 2345.24,-130.28 1951.67,-87 1948.76,-86.68 1945.8,-86.32 1942.81,-85.93"/>
<polygon fill="midnightblue" stroke="midnightblue" points="2987.64,-140.91 2997.65,-137.45 2987.67,-133.91 2987.64,-140.91"/>
</g>
<!-- Node20 -->
<g id="node17" class="node">
<title>Node20</title>
<g id="a_node17"><a xlink:href="sitkAggregateLabelMapFilter_8h.html" target="_top" xlink:title=" ">
<polygon fill="white" stroke="red" points="1961.17,-62 1961.17,-81 2126.17,-81 2126.17,-62 1961.17,-62"/>
<text text-anchor="middle" x="2043.67" y="-69" font-family="Helvetica,sans-Serif" font-size="10.00">sitkAggregateLabelMapFilter.h</text>
</a>
</g>
</g>
<!-- Node4&#45;&gt;Node20 -->
<g id="edge23" class="edge">
<title>Node4&#45;&gt;Node20</title>
<path fill="none" stroke="midnightblue" d="M2987.53,-136.33C2842.07,-132.99 2455.33,-121.33 2134.67,-87 2120.51,-85.48 2105.2,-83.27 2091.24,-81.03"/>
<polygon fill="midnightblue" stroke="midnightblue" points="2987.51,-139.83 2997.59,-136.55 2987.67,-132.83 2987.51,-139.83"/>
</g>
<!-- Node21 -->
<g id="node18" class="node">
<title>Node21</title>
<g id="a_node18"><a xlink:href="sitkAndImageFilter_8h.html" target="_top" xlink:title=" ">
<polygon fill="white" stroke="red" points="2144.17,-62 2144.17,-81 2261.17,-81 2261.17,-62 2144.17,-62"/>
<text text-anchor="middle" x="2202.67" y="-69" font-family="Helvetica,sans-Serif" font-size="10.00">sitkAndImageFilter.h</text>
</a>
</g>
</g>
<!-- Node4&#45;&gt;Node21 -->
<g id="edge24" class="edge">
<title>Node4&#45;&gt;Node21</title>
<path fill="none" stroke="midnightblue" d="M2987.22,-136.57C2856.86,-133.88 2536.29,-123.76 2270.67,-87 2259.91,-85.51 2248.31,-83.28 2237.79,-81"/>
<polygon fill="midnightblue" stroke="midnightblue" points="2987.32,-140.07 2997.39,-136.77 2987.46,-133.07 2987.32,-140.07"/>
</g>
<!-- Node22 -->
<g id="node19" class="node">
<title>Node22</title>
<g id="a_node19"><a xlink:href="sitkAntiAliasBinaryImageFilter_8h.html" target="_top" xlink:title=" ">
<polygon fill="white" stroke="red" points="2279.67,-56.5 2279.67,-86.5 2419.67,-86.5 2419.67,-56.5 2279.67,-56.5"/>
<text text-anchor="start" x="2287.67" y="-74.5" font-family="Helvetica,sans-Serif" font-size="10.00">sitkAntiAliasBinaryImage</text>
<text text-anchor="middle" x="2349.67" y="-63.5" font-family="Helvetica,sans-Serif" font-size="10.00">Filter.h</text>
</a>
</g>
</g>
<!-- Node4&#45;&gt;Node22 -->
<g id="edge25" class="edge">
<title>Node4&#45;&gt;Node22</title>
<path fill="none" stroke="midnightblue" d="M2987.05,-134.56C2876.7,-128.69 2633.29,-113.72 2429.67,-87 2426.45,-86.58 2423.16,-86.11 2419.85,-85.62"/>
<polygon fill="midnightblue" stroke="midnightblue" points="2987.14,-138.07 2997.31,-135.1 2987.5,-131.08 2987.14,-138.07"/>
</g>
<!-- Node23 -->
<g id="node20" class="node">
<title>Node23</title>
<g id="a_node20"><a xlink:href="sitkApproximateSignedDistanceMapImageFilter_8h.html" target="_top" xlink:title=" ">
<polygon fill="white" stroke="red" points="2438.17,-56.5 2438.17,-86.5 2611.17,-86.5 2611.17,-56.5 2438.17,-56.5"/>
<text text-anchor="start" x="2446.17" y="-74.5" font-family="Helvetica,sans-Serif" font-size="10.00">sitkApproximateSignedDistance</text>
<text text-anchor="middle" x="2524.67" y="-63.5" font-family="Helvetica,sans-Serif" font-size="10.00">MapImageFilter.h</text>
</a>
</g>
</g>
<!-- Node4&#45;&gt;Node23 -->
<g id="edge26" class="edge">
<title>Node4&#45;&gt;Node23</title>
<path fill="none" stroke="midnightblue" d="M2987.23,-131.06C2904.83,-121.99 2751.26,-104.6 2620.67,-87 2617.58,-86.58 2614.43,-86.15 2611.26,-85.71"/>
<polygon fill="midnightblue" stroke="midnightblue" points="2987.08,-134.56 2997.41,-132.18 2987.85,-127.61 2987.08,-134.56"/>
</g>
<!-- Node24 -->
<g id="node21" class="node">
<title>Node24</title>
<g id="a_node21"><a xlink:href="sitkAsinImageFilter_8h.html" target="_top" xlink:title=" ">
<polygon fill="white" stroke="red" points="2629.17,-62 2629.17,-81 2748.17,-81 2748.17,-62 2629.17,-62"/>
<text text-anchor="middle" x="2688.67" y="-69" font-family="Helvetica,sans-Serif" font-size="10.00">sitkAsinImageFilter.h</text>
</a>
</g>
</g>
<!-- Node4&#45;&gt;Node24 -->
<g id="edge27" class="edge">
<title>Node4&#45;&gt;Node24</title>
<path fill="none" stroke="midnightblue" d="M2987.32,-127.74C2928.82,-117.97 2836.94,-102.25 2757.67,-87 2748.05,-85.15 2737.71,-83.04 2728.03,-81.01"/>
<polygon fill="midnightblue" stroke="midnightblue" points="2987.04,-131.24 2997.48,-129.43 2988.19,-124.34 2987.04,-131.24"/>
</g>
<!-- Node25 -->
<g id="node22" class="node">
<title>Node25</title>
<g id="a_node22"><a xlink:href="sitkAtan2ImageFilter_8h.html" target="_top" xlink:title=" ">
<polygon fill="white" stroke="red" points="2766.17,-62 2766.17,-81 2893.17,-81 2893.17,-62 2766.17,-62"/>
<text text-anchor="middle" x="2829.67" y="-69" font-family="Helvetica,sans-Serif" font-size="10.00">sitkAtan2ImageFilter.h</text>
</a>
</g>
</g>
<!-- Node4&#45;&gt;Node25 -->
<g id="edge28" class="edge">
<title>Node4&#45;&gt;Node25</title>
<path fill="none" stroke="midnightblue" d="M3008.04,-125.93C2965.07,-113.06 2896.67,-92.57 2858.26,-81.06"/>
<polygon fill="midnightblue" stroke="midnightblue" points="3007.27,-129.35 3017.85,-128.87 3009.28,-122.65 3007.27,-129.35"/>
</g>
<!-- Node26 -->
<g id="node23" class="node">
<title>Node26</title>
<g id="a_node23"><a xlink:href="sitkAtanImageFilter_8h.html" target="_top" xlink:title=" ">
<polygon fill="white" stroke="red" points="2911.17,-62 2911.17,-81 3032.17,-81 3032.17,-62 2911.17,-62"/>
<text text-anchor="middle" x="2971.67" y="-69" font-family="Helvetica,sans-Serif" font-size="10.00">sitkAtanImageFilter.h</text>
</a>
</g>
</g>
<!-- Node4&#45;&gt;Node26 -->
<g id="edge29" class="edge">
<title>Node4&#45;&gt;Node26</title>
<path fill="none" stroke="midnightblue" d="M3028.62,-121.86C3013.87,-109.08 2993.58,-91.49 2981.62,-81.13"/>
<polygon fill="midnightblue" stroke="midnightblue" points="3026.7,-124.83 3036.55,-128.73 3031.29,-119.54 3026.7,-124.83"/>
</g>
<!-- Node27 -->
<g id="node24" class="node">
<title>Node27</title>
<g id="a_node24"><a xlink:href="sitkBSplineDecompositionImageFilter_8h.html" target="_top" xlink:title=" ">
<polygon fill="white" stroke="red" points="3050.17,-56.5 3050.17,-86.5 3195.17,-86.5 3195.17,-56.5 3050.17,-56.5"/>
<text text-anchor="start" x="3058.17" y="-74.5" font-family="Helvetica,sans-Serif" font-size="10.00">sitkBSplineDecomposition</text>
<text text-anchor="middle" x="3122.67" y="-63.5" font-family="Helvetica,sans-Serif" font-size="10.00">ImageFilter.h</text>
</a>
</g>
</g>
<!-- Node4&#45;&gt;Node27 -->
<g id="edge30" class="edge">
<title>Node4&#45;&gt;Node27</title>
<path fill="none" stroke="midnightblue" d="M3064.87,-121.93C3077.44,-111.18 3094.02,-97 3106.19,-86.59"/>
<polygon fill="midnightblue" stroke="midnightblue" points="3062.24,-119.57 3056.92,-128.73 3066.79,-124.89 3062.24,-119.57"/>
</g>
<!-- Node28 -->
<g id="node25" class="node">
<title>Node28</title>
<g id="a_node25"><a xlink:href="sitkBilateralImageFilter_8h.html" target="_top" xlink:title=" ">
<polygon fill="white" stroke="red" points="3213.67,-62 3213.67,-81 3353.67,-81 3353.67,-62 3213.67,-62"/>
<text text-anchor="middle" x="3283.67" y="-69" font-family="Helvetica,sans-Serif" font-size="10.00">sitkBilateralImageFilter.h</text>
</a>
</g>
</g>
<!-- Node4&#45;&gt;Node28 -->
<g id="edge31" class="edge">
<title>Node4&#45;&gt;Node28</title>
<path fill="none" stroke="midnightblue" d="M3087.97,-126.17C3134.84,-113.32 3210.22,-92.64 3252.44,-81.06"/>
<polygon fill="midnightblue" stroke="midnightblue" points="3086.86,-122.85 3078.14,-128.87 3088.71,-129.6 3086.86,-122.85"/>
</g>
<!-- Node29 -->
<g id="node26" class="node">
<title>Node29</title>
<g id="a_node26"><a xlink:href="sitkBinShrinkImageFilter_8h.html" target="_top" xlink:title=" ">
<polygon fill="white" stroke="red" points="3372.17,-62 3372.17,-81 3517.17,-81 3517.17,-62 3372.17,-62"/>
<text text-anchor="middle" x="3444.67" y="-69" font-family="Helvetica,sans-Serif" font-size="10.00">sitkBinShrinkImageFilter.h</text>
</a>
</g>
</g>
<!-- Node4&#45;&gt;Node29 -->
<g id="edge32" class="edge">
<title>Node4&#45;&gt;Node29</title>
<path fill="none" stroke="midnightblue" d="M3105.93,-128.33C3169.46,-118.43 3273.27,-102.05 3362.67,-87 3373.79,-85.13 3385.74,-83.05 3396.99,-81.07"/>
<polygon fill="midnightblue" stroke="midnightblue" points="3105.04,-124.92 3095.7,-129.92 3106.12,-131.84 3105.04,-124.92"/>
</g>
<!-- Node30 -->
<g id="node27" class="node">
<title>Node30</title>
<g id="a_node27"><a xlink:href="sitkBinaryClosingByReconstructionImageFilter_8h.html" target="_top" xlink:title=" ">
<polygon fill="white" stroke="red" points="3535.67,-56.5 3535.67,-86.5 3723.67,-86.5 3723.67,-56.5 3535.67,-56.5"/>
<text text-anchor="start" x="3543.67" y="-74.5" font-family="Helvetica,sans-Serif" font-size="10.00">sitkBinaryClosingByReconstruction</text>
<text text-anchor="middle" x="3629.67" y="-63.5" font-family="Helvetica,sans-Serif" font-size="10.00">ImageFilter.h</text>
</a>
</g>
</g>
<!-- Node4&#45;&gt;Node30 -->
<g id="edge33" class="edge">
<title>Node4&#45;&gt;Node30</title>
<path fill="none" stroke="midnightblue" d="M3105.88,-131.94C3196.58,-123.28 3375.31,-105.61 3526.67,-87 3529.62,-86.64 3532.63,-86.26 3535.66,-85.87"/>
<polygon fill="midnightblue" stroke="midnightblue" points="3105.42,-128.47 3095.79,-132.9 3106.08,-135.44 3105.42,-128.47"/>
</g>
<!-- Node31 -->
<g id="node28" class="node">
<title>Node31</title>
<g id="a_node28"><a xlink:href="sitkBinaryContourImageFilter_8h.html" target="_top" xlink:title=" ">
<polygon fill="white" stroke="red" points="3741.67,-62 3741.67,-81 3909.67,-81 3909.67,-62 3741.67,-62"/>
<text text-anchor="middle" x="3825.67" y="-69" font-family="Helvetica,sans-Serif" font-size="10.00">sitkBinaryContourImageFilter.h</text>
</a>
</g>
</g>
<!-- Node4&#45;&gt;Node31 -->
<g id="edge34" class="edge">
<title>Node4&#45;&gt;Node31</title>
<path fill="none" stroke="midnightblue" d="M3105.87,-134.76C3224.89,-128.9 3501.52,-113.48 3732.67,-87 3746.63,-85.4 3761.71,-83.24 3775.57,-81.07"/>
<polygon fill="midnightblue" stroke="midnightblue" points="3105.69,-131.27 3095.87,-135.25 3106.03,-138.26 3105.69,-131.27"/>
</g>
<!-- Node32 -->
<g id="node29" class="node">
<title>Node32</title>
<g id="a_node29"><a xlink:href="sitkBinaryDilateImageFilter_8h.html" target="_top" xlink:title=" ">
<polygon fill="white" stroke="red" points="3927.17,-62 3927.17,-81 4086.17,-81 4086.17,-62 3927.17,-62"/>
<text text-anchor="middle" x="4006.67" y="-69" font-family="Helvetica,sans-Serif" font-size="10.00">sitkBinaryDilateImageFilter.h</text>
</a>
</g>
</g>
<!-- Node4&#45;&gt;Node32 -->
<g id="edge35" class="edge">
<title>Node4&#45;&gt;Node32</title>
<path fill="none" stroke="midnightblue" d="M3106.17,-136.22C3247.5,-132.7 3614.3,-120.79 3918.67,-87 3932.36,-85.48 3947.17,-83.26 3960.67,-81.02"/>
<polygon fill="midnightblue" stroke="midnightblue" points="3105.9,-132.72 3095.99,-136.47 3106.07,-139.72 3105.9,-132.72"/>
</g>
<!-- Node33 -->
<g id="node30" class="node">
<title>Node33</title>
<g id="a_node30"><a xlink:href="sitkBinaryErodeImageFilter_8h.html" target="_top" xlink:title=" ">
<polygon fill="white" stroke="red" points="4103.67,-62 4103.67,-81 4261.67,-81 4261.67,-62 4103.67,-62"/>
<text text-anchor="middle" x="4182.67" y="-69" font-family="Helvetica,sans-Serif" font-size="10.00">sitkBinaryErodeImageFilter.h</text>
</a>
</g>
</g>
<!-- Node4&#45;&gt;Node33 -->
<g id="edge36" class="edge">
<title>Node4&#45;&gt;Node33</title>
<path fill="none" stroke="midnightblue" d="M3105.82,-137.07C3265.8,-135.4 3720.25,-127.18 4095.67,-87 4109.37,-85.53 4124.19,-83.31 4137.65,-81.03"/>
<polygon fill="midnightblue" stroke="midnightblue" points="3105.68,-133.58 3095.71,-137.18 3105.75,-140.58 3105.68,-133.58"/>
</g>
<!-- Node34 -->
<g id="node31" class="node">
<title>Node34</title>
<g id="a_node31"><a xlink:href="sitkBinaryFillholeImageFilter_8h.html" target="_top" xlink:title=" ">
<polygon fill="white" stroke="red" points="4280.17,-62 4280.17,-81 4445.17,-81 4445.17,-62 4280.17,-62"/>
<text text-anchor="middle" x="4362.67" y="-69" font-family="Helvetica,sans-Serif" font-size="10.00">sitkBinaryFillholeImageFilter.h</text>
</a>
</g>
</g>
<!-- Node4&#45;&gt;Node34 -->
<g id="edge37" class="edge">
<title>Node4&#45;&gt;Node34</title>
<path fill="none" stroke="midnightblue" d="M3105.94,-137.47C3283.19,-136.85 3824.52,-131.21 4270.67,-87 4285.15,-85.56 4300.82,-83.35 4315.05,-81.07"/>
<polygon fill="midnightblue" stroke="midnightblue" points="3105.77,-133.97 3095.78,-137.5 3105.79,-140.97 3105.77,-133.97"/>
</g>
<!-- Node35 -->
<g id="node32" class="node">
<title>Node35</title>
<g id="a_node32"><a xlink:href="sitkBinaryGrindPeakImageFilter_8h.html" target="_top" xlink:title=" ">
<polygon fill="white" stroke="red" points="4463.17,-56.5 4463.17,-86.5 4610.17,-86.5 4610.17,-56.5 4463.17,-56.5"/>
<text text-anchor="start" x="4471.17" y="-74.5" font-family="Helvetica,sans-Serif" font-size="10.00">sitkBinaryGrindPeakImage</text>
<text text-anchor="middle" x="4536.67" y="-63.5" font-family="Helvetica,sans-Serif" font-size="10.00">Filter.h</text>
</a>
</g>
</g>
<!-- Node4&#45;&gt;Node35 -->
<g id="edge38" class="edge">
<title>Node4&#45;&gt;Node35</title>
<path fill="none" stroke="midnightblue" d="M3106.12,-136.47C3338.67,-132.28 4186.96,-115.33 4454.67,-87 4457.4,-86.71 4460.18,-86.38 4462.98,-86.03"/>
<polygon fill="midnightblue" stroke="midnightblue" points="3105.78,-132.98 3095.84,-136.66 3105.9,-139.98 3105.78,-132.98"/>
</g>
<!-- Node36 -->
<g id="node33" class="node">
<title>Node36</title>
<g id="a_node33"><a xlink:href="sitkBinaryImageToLabelMapFilter_8h.html" target="_top" xlink:title=" ">
<polygon fill="white" stroke="red" points="4628.17,-56.5 4628.17,-86.5 4783.17,-86.5 4783.17,-56.5 4628.17,-56.5"/>
<text text-anchor="start" x="4636.17" y="-74.5" font-family="Helvetica,sans-Serif" font-size="10.00">sitkBinaryImageToLabelMap</text>
<text text-anchor="middle" x="4705.67" y="-63.5" font-family="Helvetica,sans-Serif" font-size="10.00">Filter.h</text>
</a>
</g>
</g>
<!-- Node4&#45;&gt;Node36 -->
<g id="edge39" class="edge">
<title>Node4&#45;&gt;Node36</title>
<path fill="none" stroke="midnightblue" d="M3106.36,-136.66C3356.06,-132.99 4317.8,-117.15 4619.67,-87 4622.38,-86.73 4625.13,-86.42 4627.91,-86.09"/>
<polygon fill="midnightblue" stroke="midnightblue" points="3106,-133.17 3096.05,-136.81 3106.1,-140.17 3106,-133.17"/>
</g>
<!-- Node37 -->
<g id="node34" class="node">
<title>Node37</title>
<g id="a_node34"><a xlink:href="sitkBinaryMagnitudeImageFilter_8h.html" target="_top" xlink:title=" ">
<polygon fill="white" stroke="red" points="4801.17,-56.5 4801.17,-86.5 4950.17,-86.5 4950.17,-56.5 4801.17,-56.5"/>
<text text-anchor="start" x="4809.17" y="-74.5" font-family="Helvetica,sans-Serif" font-size="10.00">sitkBinaryMagnitudeImage</text>
<text text-anchor="middle" x="4875.67" y="-63.5" font-family="Helvetica,sans-Serif" font-size="10.00">Filter.h</text>
</a>
</g>
</g>
<!-- Node4&#45;&gt;Node37 -->
<g id="edge40" class="edge">
<title>Node4&#45;&gt;Node37</title>
<path fill="none" stroke="midnightblue" d="M3106.26,-136.93C3372.53,-134.21 4454.93,-121.21 4792.67,-87 4795.43,-86.72 4798.24,-86.4 4801.08,-86.05"/>
<polygon fill="midnightblue" stroke="midnightblue" points="3106,-133.43 3096.03,-137.03 3106.07,-140.43 3106,-133.43"/>
</g>
<!-- Node38 -->
<g id="node35" class="node">
<title>Node38</title>
<g id="a_node35"><a xlink:href="sitkBinaryMedianImageFilter_8h.html" target="_top" xlink:title=" ">
<polygon fill="white" stroke="red" points="4968.67,-62 4968.67,-81 5134.67,-81 5134.67,-62 4968.67,-62"/>
<text text-anchor="middle" x="5051.67" y="-69" font-family="Helvetica,sans-Serif" font-size="10.00">sitkBinaryMedianImageFilter.h</text>
</a>
</g>
</g>
<!-- Node4&#45;&gt;Node38 -->
<g id="edge41" class="edge">
<title>Node4&#45;&gt;Node38</title>
<path fill="none" stroke="midnightblue" d="M3106.33,-136.97C3388.03,-134.31 4586.88,-121.15 4959.67,-87 4974.48,-85.64 4990.53,-83.39 5005.01,-81.06"/>
<polygon fill="midnightblue" stroke="midnightblue" points="3105.89,-133.47 3095.92,-137.07 3105.95,-140.47 3105.89,-133.47"/>
</g>
<!-- Node39 -->
<g id="node36" class="node">
<title>Node39</title>
<g id="a_node36"><a xlink:href="sitkBinaryMinMaxCurvatureFlowImageFilter_8h.html" target="_top" xlink:title=" ">
<polygon fill="white" stroke="red" points="5153.17,-56.5 5153.17,-86.5 5306.17,-86.5 5306.17,-56.5 5153.17,-56.5"/>
<text text-anchor="start" x="5161.17" y="-74.5" font-family="Helvetica,sans-Serif" font-size="10.00">sitkBinaryMinMaxCurvature</text>
<text text-anchor="middle" x="5229.67" y="-63.5" font-family="Helvetica,sans-Serif" font-size="10.00">FlowImageFilter.h</text>
</a>
</g>
</g>
<!-- Node4&#45;&gt;Node39 -->
<g id="edge42" class="edge">
<title>Node4&#45;&gt;Node39</title>
<path fill="none" stroke="midnightblue" d="M3106.2,-137.22C3403.86,-135.63 4732.57,-126.4 5143.67,-87 5146.68,-86.71 5149.75,-86.38 5152.85,-86.01"/>
<polygon fill="midnightblue" stroke="midnightblue" points="3106.04,-133.72 3096.05,-137.27 3106.07,-140.72 3106.04,-133.72"/>
</g>
<!-- Node40 -->
<g id="node37" class="node">
<title>Node40</title>
<g id="a_node37"><a xlink:href="sitkBinaryMorphologicalClosingImageFilter_8h.html" target="_top" xlink:title=" ">
<polygon fill="white" stroke="red" points="5324.17,-56.5 5324.17,-86.5 5495.17,-86.5 5495.17,-56.5 5324.17,-56.5"/>
<text text-anchor="start" x="5332.17" y="-74.5" font-family="Helvetica,sans-Serif" font-size="10.00">sitkBinaryMorphologicalClosing</text>
<text text-anchor="middle" x="5409.67" y="-63.5" font-family="Helvetica,sans-Serif" font-size="10.00">ImageFilter.h</text>
</a>
</g>
</g>
<!-- Node4&#45;&gt;Node40 -->
<g id="edge43" class="edge">
<title>Node4&#45;&gt;Node40</title>
<path fill="none" stroke="midnightblue" d="M3105.96,-137.23C3417.54,-135.66 4868.14,-126.33 5315.67,-87 5318.38,-86.76 5321.14,-86.49 5323.91,-86.2"/>
<polygon fill="midnightblue" stroke="midnightblue" points="3105.77,-133.73 3095.79,-137.28 3105.8,-140.73 3105.77,-133.73"/>
</g>
<!-- Node41 -->
<g id="node38" class="node">
<title>Node41</title>
<g id="a_node38"><a xlink:href="sitkBinaryMorphologicalOpeningImageFilter_8h.html" target="_top" xlink:title=" ">
<polygon fill="white" stroke="red" points="5513.67,-56.5 5513.67,-86.5 5689.67,-86.5 5689.67,-56.5 5513.67,-56.5"/>
<text text-anchor="start" x="5521.67" y="-74.5" font-family="Helvetica,sans-Serif" font-size="10.00">sitkBinaryMorphologicalOpening</text>
<text text-anchor="middle" x="5601.67" y="-63.5" font-family="Helvetica,sans-Serif" font-size="10.00">ImageFilter.h</text>
</a>
</g>
</g>
<!-- Node4&#45;&gt;Node41 -->
<g id="edge44" class="edge">
<title>Node4&#45;&gt;Node41</title>
<path fill="none" stroke="midnightblue" d="M3106.09,-137.31C3433.2,-136.12 5017.4,-128.25 5504.67,-87 5507.55,-86.76 5510.48,-86.48 5513.44,-86.18"/>
<polygon fill="midnightblue" stroke="midnightblue" points="3105.87,-133.81 3095.88,-137.35 3105.89,-140.81 3105.87,-133.81"/>
</g>
<!-- Node42 -->
<g id="node39" class="node">
<title>Node42</title>
<g id="a_node39"><a xlink:href="sitkBinaryNotImageFilter_8h.html" target="_top" xlink:title=" ">
<polygon fill="white" stroke="red" points="5708.17,-62 5708.17,-81 5855.17,-81 5855.17,-62 5708.17,-62"/>
<text text-anchor="middle" x="5781.67" y="-69" font-family="Helvetica,sans-Serif" font-size="10.00">sitkBinaryNotImageFilter.h</text>
</a>
</g>
</g>
<!-- Node4&#45;&gt;Node42 -->
<g id="edge45" class="edge">
<title>Node4&#45;&gt;Node42</title>
<path fill="none" stroke="midnightblue" d="M3106.07,-137.61C3448.26,-138.07 5171.12,-137.8 5698.67,-87 5712.21,-85.7 5726.86,-83.43 5740.04,-81.06"/>
<polygon fill="midnightblue" stroke="midnightblue" points="3105.89,-134.11 3095.88,-137.6 3105.88,-141.11 3105.89,-134.11"/>
</g>
<!-- Node43 -->
<g id="node40" class="node">
<title>Node43</title>
<g id="a_node40"><a xlink:href="sitkBinaryOpeningByReconstructionImageFilter_8h.html" target="_top" xlink:title=" ">
<polygon fill="white" stroke="red" points="5873.67,-56.5 5873.67,-86.5 6065.67,-86.5 6065.67,-56.5 5873.67,-56.5"/>
<text text-anchor="start" x="5881.67" y="-74.5" font-family="Helvetica,sans-Serif" font-size="10.00">sitkBinaryOpeningByReconstruction</text>
<text text-anchor="middle" x="5969.67" y="-63.5" font-family="Helvetica,sans-Serif" font-size="10.00">ImageFilter.h</text>
</a>
</g>
</g>
<!-- Node4&#45;&gt;Node43 -->
<g id="edge46" class="edge">
<title>Node4&#45;&gt;Node43</title>
<path fill="none" stroke="midnightblue" d="M3105.76,-137.4C3459.59,-136.67 5301.12,-130.8 5864.67,-87 5867.6,-86.77 5870.58,-86.52 5873.59,-86.24"/>
<polygon fill="midnightblue" stroke="midnightblue" points="3105.73,-133.9 3095.73,-137.42 3105.74,-140.9 3105.73,-133.9"/>
</g>
<!-- Node44 -->
<g id="node41" class="node">
<title>Node44</title>
<g id="a_node41"><a xlink:href="sitkBinaryProjectionImageFilter_8h.html" target="_top" xlink:title=" ">
<polygon fill="white" stroke="red" points="6083.67,-56.5 6083.67,-86.5 6229.67,-86.5 6229.67,-56.5 6083.67,-56.5"/>
<text text-anchor="start" x="6091.67" y="-74.5" font-family="Helvetica,sans-Serif" font-size="10.00">sitkBinaryProjectionImage</text>
<text text-anchor="middle" x="6156.67" y="-63.5" font-family="Helvetica,sans-Serif" font-size="10.00">Filter.h</text>
</a>
</g>
</g>
<!-- Node4&#45;&gt;Node44 -->
<g id="edge47" class="edge">
<title>Node4&#45;&gt;Node44</title>
<path fill="none" stroke="midnightblue" d="M3106,-137.08C3503.2,-134.17 5769.25,-116.36 6074.67,-87 6077.55,-86.72 6080.47,-86.4 6083.43,-86.04"/>
<polygon fill="midnightblue" stroke="midnightblue" points="3105.85,-133.58 3095.88,-137.15 3105.91,-140.58 3105.85,-133.58"/>
</g>
<!-- Node45 -->
<g id="node42" class="node">
<title>Node45</title>
<g id="a_node42"><a xlink:href="sitkBinaryPruningImageFilter_8h.html" target="_top" xlink:title=" ">
<polygon fill="white" stroke="red" points="6248.17,-62 6248.17,-81 6415.17,-81 6415.17,-62 6248.17,-62"/>
<text text-anchor="middle" x="6331.67" y="-69" font-family="Helvetica,sans-Serif" font-size="10.00">sitkBinaryPruningImageFilter.h</text>
</a>
</g>
</g>
<!-- Node4&#45;&gt;Node45 -->
<g id="edge48" class="edge">
<title>Node4&#45;&gt;Node45</title>
<path fill="none" stroke="midnightblue" d="M3106.14,-137.69C3487.75,-138.73 5596.68,-141.86 6238.67,-87 6253.81,-85.71 6270.22,-83.44 6284.99,-81.08"/>
<polygon fill="midnightblue" stroke="midnightblue" points="3105.89,-134.19 3095.88,-137.66 3105.87,-141.19 3105.89,-134.19"/>
</g>
<!-- Node5&#45;&gt;Node2 -->
<g id="edge5" class="edge">
<title>Node5&#45;&gt;Node2</title>
<path fill="none" stroke="midnightblue" d="M382.09,-55.87C545.07,-35.37 726.76,-20.07 803.94,-13.92"/>
<polygon fill="midnightblue" stroke="midnightblue" points="381.36,-52.43 371.88,-57.16 382.24,-59.37 381.36,-52.43"/>
</g>
<!-- Node6&#45;&gt;Node2 -->
<g id="edge7" class="edge">
<title>Node6&#45;&gt;Node2</title>
<path fill="none" stroke="midnightblue" d="M497.93,-59.92C504.87,-58.52 511.94,-57.17 518.67,-56 621.29,-38.09 743.26,-22.68 803.74,-15.43"/>
<polygon fill="midnightblue" stroke="midnightblue" points="496.99,-56.54 487.9,-61.98 498.4,-63.39 496.99,-56.54"/>
</g>
<!-- Node7&#45;&gt;Node2 -->
<g id="edge9" class="edge">
<title>Node7&#45;&gt;Node2</title>
<path fill="none" stroke="midnightblue" d="M639.86,-59.61C687.8,-48.07 762.54,-30.06 806.34,-19.51"/>
<polygon fill="midnightblue" stroke="midnightblue" points="638.96,-56.23 630.06,-61.98 640.6,-63.04 638.96,-56.23"/>
</g>
<!-- Node8&#45;&gt;Node2 -->
<g id="edge11" class="edge">
<title>Node8&#45;&gt;Node2</title>
<path fill="none" stroke="midnightblue" d="M137.42,-60.11C146.14,-58.54 155.14,-57.09 163.67,-56 406.47,-24.9 701.1,-14.65 804.03,-11.88"/>
<polygon fill="midnightblue" stroke="midnightblue" points="136.55,-56.71 127.36,-61.98 137.83,-63.59 136.55,-56.71"/>
</g>
<!-- Node9&#45;&gt;Node2 -->
<g id="edge13" class="edge">
<title>Node9&#45;&gt;Node2</title>
<path fill="none" stroke="midnightblue" d="M788.32,-50.19C802.5,-39.77 819.02,-27.63 829.88,-19.66"/>
<polygon fill="midnightblue" stroke="midnightblue" points="785.85,-47.66 779.86,-56.4 789.99,-53.3 785.85,-47.66"/>
</g>
<!-- Node10&#45;&gt;Node2 -->
<g id="edge15" class="edge">
<title>Node10&#45;&gt;Node2</title>
<path fill="none" stroke="midnightblue" d="M902.65,-55.79C887.11,-44.38 866.11,-28.96 853.25,-19.51"/>
<polygon fill="midnightblue" stroke="midnightblue" points="900.93,-58.88 911.06,-61.98 905.07,-53.23 900.93,-58.88"/>
</g>
<!-- Node305&#45;&gt;Node2 -->
<g id="edge50" class="edge">
<title>Node305&#45;&gt;Node2</title>
<path fill="none" stroke="midnightblue" d="M5845.62,-123.11C5998.76,-111.03 6513.9,-145.95 6424.67,-56 6372.7,-3.61 1363.36,-10.18 879.18,-10.94"/>
<polygon fill="midnightblue" stroke="midnightblue" points="5844.87,-119.67 5835.23,-124.07 5845.51,-126.64 5844.87,-119.67"/>
</g>
<!-- Node306&#45;&gt;Node2 -->
<g id="edge52" class="edge">
<title>Node306&#45;&gt;Node2</title>
<path fill="none" stroke="midnightblue" d="M6021.36,-123.04C6021.46,-123.03 6021.56,-123.01 6021.67,-123 6068.37,-117.21 6411.84,-121.66 6443.67,-87 6452.99,-76.85 6453.37,-65.78 6443.67,-56 6391.52,-3.43 1365.13,-10.16 879.31,-10.94"/>
<polygon fill="midnightblue" stroke="midnightblue" points="6021.18,-119.53 6011.72,-124.3 6022.09,-126.47 6021.18,-119.53"/>
</g>
<!-- Node311&#45;&gt;Node2 -->
<g id="edge57" class="edge">
<title>Node311&#45;&gt;Node2</title>
<path fill="none" stroke="midnightblue" d="M6291.33,-126.85C6355.11,-113.05 6457.99,-90.36 6460.67,-87 6469.25,-76.22 6470.37,-65.78 6460.67,-56 6408.36,-3.27 1366.72,-10.15 879.42,-10.94"/>
<polygon fill="midnightblue" stroke="midnightblue" points="6290.49,-123.45 6281.45,-128.98 6291.97,-130.29 6290.49,-123.45"/>
</g>
<!-- Node312&#45;&gt;Node2 -->
<g id="edge59" class="edge">
<title>Node312&#45;&gt;Node2</title>
<path fill="none" stroke="midnightblue" d="M6419.57,-124.83C6454.67,-109.19 6502.97,-81.51 6477.67,-56 6425.2,-3.11 1368.31,-10.13 879.54,-10.93"/>
<polygon fill="midnightblue" stroke="midnightblue" points="6417.89,-121.74 6410.09,-128.91 6420.66,-128.17 6417.89,-121.74"/>
</g>
<!-- Node313&#45;&gt;Node2 -->
<g id="edge61" class="edge">
<title>Node313&#45;&gt;Node2</title>
<path fill="none" stroke="midnightblue" d="M6525.19,-118.9C6522.55,-99.54 6515.19,-70.11 6494.67,-56 6433.08,-13.66 1366.44,-11.15 879.21,-11.01"/>
<polygon fill="midnightblue" stroke="midnightblue" points="6521.72,-119.38 6526.26,-128.95 6528.68,-118.63 6521.72,-119.38"/>
</g>
<!-- Node314&#45;&gt;Node2 -->
<g id="edge63" class="edge">
<title>Node314&#45;&gt;Node2</title>
<path fill="none" stroke="midnightblue" d="M6617.43,-121.77C6597.09,-102 6558.91,-69.08 6518.67,-56 6375.94,-9.6 1363.45,-10.76 879.18,-10.98"/>
<polygon fill="midnightblue" stroke="midnightblue" points="6615,-124.29 6624.56,-128.87 6619.94,-119.33 6615,-124.29"/>
</g>
<!-- Node315&#45;&gt;Node2 -->
<g id="edge65" class="edge">
<title>Node315&#45;&gt;Node2</title>
<path fill="none" stroke="midnightblue" d="M6745.74,-124.38C6707.28,-104.95 6630.6,-69.38 6560.67,-56 6412.17,-27.59 1366.86,-12.5 879.43,-11.11"/>
<polygon fill="midnightblue" stroke="midnightblue" points="6744.17,-127.51 6754.66,-128.95 6747.36,-121.28 6744.17,-127.51"/>
</g>
</g>
</svg>
