<?xml version="1.0" encoding="UTF-8" standalone="no"?>
<!DOCTYPE svg PUBLIC "-//W3C//DTD SVG 1.1//EN"
 "http://www.w3.org/Graphics/SVG/1.1/DTD/svg11.dtd">
<!-- Generated by graphviz version 2.43.0 (0)
 -->
<!-- Title: sitkImageReaderBase.h Pages: 1 -->
<svg width="439pt" height="140pt"
 viewBox="0.00 0.00 439.00 140.00" xmlns="http://www.w3.org/2000/svg" xmlns:xlink="http://www.w3.org/1999/xlink">
<g id="graph0" class="graph" transform="scale(1 1) rotate(0) translate(4 136)">
<title>sitkImageReaderBase.h</title>
<polygon fill="white" stroke="transparent" points="-4,4 -4,-136 435,-136 435,4 -4,4"/>
<!-- Node1 -->
<g id="node1" class="node">
<title>Node1</title>
<g id="a_node1"><a xlink:title=" ">
<polygon fill="#bfbfbf" stroke="black" points="146,-112.5 146,-131.5 279,-131.5 279,-112.5 146,-112.5"/>
<text text-anchor="middle" x="212.5" y="-119.5" font-family="Helvetica,sans-Serif" font-size="10.00">sitkImageReaderBase.h</text>
</a>
</g>
</g>
<!-- Node2 -->
<g id="node2" class="node">
<title>Node2</title>
<g id="a_node2"><a xlink:href="sitkImageFileReader_8h.html" target="_top" xlink:title=" ">
<polygon fill="white" stroke="black" points="0,-56.5 0,-75.5 125,-75.5 125,-56.5 0,-56.5"/>
<text text-anchor="middle" x="62.5" y="-63.5" font-family="Helvetica,sans-Serif" font-size="10.00">sitkImageFileReader.h</text>
</a>
</g>
</g>
<!-- Node1&#45;&gt;Node2 -->
<g id="edge1" class="edge">
<title>Node1&#45;&gt;Node2</title>
<path fill="none" stroke="midnightblue" d="M179.28,-109.04C151.05,-98.88 111.24,-84.55 86.16,-75.52"/>
<polygon fill="midnightblue" stroke="midnightblue" points="178.14,-112.35 188.73,-112.44 180.51,-105.76 178.14,-112.35"/>
</g>
<!-- Node4 -->
<g id="node4" class="node">
<title>Node4</title>
<g id="a_node4"><a xlink:href="sitkImageSeriesReader_8h.html" target="_top" xlink:title=" ">
<polygon fill="white" stroke="black" points="143.5,-56.5 143.5,-75.5 281.5,-75.5 281.5,-56.5 143.5,-56.5"/>
<text text-anchor="middle" x="212.5" y="-63.5" font-family="Helvetica,sans-Serif" font-size="10.00">sitkImageSeriesReader.h</text>
</a>
</g>
</g>
<!-- Node1&#45;&gt;Node4 -->
<g id="edge3" class="edge">
<title>Node1&#45;&gt;Node4</title>
<path fill="none" stroke="midnightblue" d="M212.5,-101.8C212.5,-92.91 212.5,-82.78 212.5,-75.75"/>
<polygon fill="midnightblue" stroke="midnightblue" points="209,-102.08 212.5,-112.08 216,-102.08 209,-102.08"/>
</g>
<!-- Node5 -->
<g id="node5" class="node">
<title>Node5</title>
<g id="a_node5"><a xlink:href="sitkImportImageFilter_8h.html" target="_top" xlink:title=" ">
<polygon fill="white" stroke="black" points="300,-56.5 300,-75.5 431,-75.5 431,-56.5 300,-56.5"/>
<text text-anchor="middle" x="365.5" y="-63.5" font-family="Helvetica,sans-Serif" font-size="10.00">sitkImportImageFilter.h</text>
</a>
</g>
</g>
<!-- Node1&#45;&gt;Node5 -->
<g id="edge5" class="edge">
<title>Node1&#45;&gt;Node5</title>
<path fill="none" stroke="midnightblue" d="M246.39,-109.04C275.18,-98.88 315.79,-84.55 341.37,-75.52"/>
<polygon fill="midnightblue" stroke="midnightblue" points="245.01,-105.81 236.74,-112.44 247.34,-112.42 245.01,-105.81"/>
</g>
<!-- Node3 -->
<g id="node3" class="node">
<title>Node3</title>
<g id="a_node3"><a xlink:href="SimpleITK_8h.html" target="_top" xlink:title=" ">
<polygon fill="white" stroke="black" points="175,-0.5 175,-19.5 250,-19.5 250,-0.5 175,-0.5"/>
<text text-anchor="middle" x="212.5" y="-7.5" font-family="Helvetica,sans-Serif" font-size="10.00">SimpleITK.h</text>
</a>
</g>
</g>
<!-- Node2&#45;&gt;Node3 -->
<g id="edge2" class="edge">
<title>Node2&#45;&gt;Node3</title>
<path fill="none" stroke="midnightblue" d="M95.72,-53.04C123.95,-42.88 163.76,-28.55 188.84,-19.52"/>
<polygon fill="midnightblue" stroke="midnightblue" points="94.49,-49.76 86.27,-56.44 96.86,-56.35 94.49,-49.76"/>
</g>
<!-- Node4&#45;&gt;Node3 -->
<g id="edge4" class="edge">
<title>Node4&#45;&gt;Node3</title>
<path fill="none" stroke="midnightblue" d="M212.5,-45.8C212.5,-36.91 212.5,-26.78 212.5,-19.75"/>
<polygon fill="midnightblue" stroke="midnightblue" points="209,-46.08 212.5,-56.08 216,-46.08 209,-46.08"/>
</g>
<!-- Node5&#45;&gt;Node3 -->
<g id="edge6" class="edge">
<title>Node5&#45;&gt;Node3</title>
<path fill="none" stroke="midnightblue" d="M331.61,-53.04C302.82,-42.88 262.21,-28.55 236.63,-19.52"/>
<polygon fill="midnightblue" stroke="midnightblue" points="330.66,-56.42 341.26,-56.44 332.99,-49.81 330.66,-56.42"/>
</g>
</g>
</svg>
