<?xml version="1.0" encoding="UTF-8" standalone="no"?>
<!DOCTYPE svg PUBLIC "-//W3C//DTD SVG 1.1//EN"
 "http://www.w3.org/Graphics/SVG/1.1/DTD/svg11.dtd">
<!-- Generated by graphviz version 2.43.0 (0)
 -->
<!-- Title: sitkFunctionCommand.h Pages: 1 -->
<svg width="493pt" height="364pt"
 viewBox="0.00 0.00 493.00 364.00" xmlns="http://www.w3.org/2000/svg" xmlns:xlink="http://www.w3.org/1999/xlink">
<g id="graph0" class="graph" transform="scale(1 1) rotate(0) translate(4 360)">
<title>sitkFunctionCommand.h</title>
<polygon fill="white" stroke="transparent" points="-4,4 -4,-360 489,-360 489,4 -4,4"/>
<!-- Node1 -->
<g id="node1" class="node">
<title>Node1</title>
<g id="a_node1"><a xlink:title=" ">
<polygon fill="#bfbfbf" stroke="black" points="307,-336.5 307,-355.5 442,-355.5 442,-336.5 307,-336.5"/>
<text text-anchor="middle" x="374.5" y="-343.5" font-family="Helvetica,sans-Serif" font-size="10.00">sitkFunctionCommand.h</text>
</a>
</g>
</g>
<!-- Node2 -->
<g id="node2" class="node">
<title>Node2</title>
<g id="a_node2"><a xlink:href="sitkCommand_8h.html" target="_top" xlink:title=" ">
<polygon fill="white" stroke="black" points="290.5,-280.5 290.5,-299.5 384.5,-299.5 384.5,-280.5 290.5,-280.5"/>
<text text-anchor="middle" x="337.5" y="-287.5" font-family="Helvetica,sans-Serif" font-size="10.00">sitkCommand.h</text>
</a>
</g>
</g>
<!-- Node1&#45;&gt;Node2 -->
<g id="edge1" class="edge">
<title>Node1&#45;&gt;Node2</title>
<path fill="none" stroke="midnightblue" d="M368.39,-336.08C363.22,-328.53 355.65,-317.49 349.31,-308.23"/>
<polygon fill="midnightblue" stroke="midnightblue" points="352.04,-306.02 343.5,-299.75 346.26,-309.98 352.04,-306.02"/>
</g>
<!-- Node14 -->
<g id="node14" class="node">
<title>Node14</title>
<g id="a_node14"><a xlink:title=" ">
<polygon fill="white" stroke="#bfbfbf" points="420,-168.5 420,-187.5 485,-187.5 485,-168.5 420,-168.5"/>
<text text-anchor="middle" x="452.5" y="-175.5" font-family="Helvetica,sans-Serif" font-size="10.00">functional</text>
</a>
</g>
</g>
<!-- Node1&#45;&gt;Node14 -->
<g id="edge17" class="edge">
<title>Node1&#45;&gt;Node14</title>
<path fill="none" stroke="midnightblue" d="M378.69,-336.08C391.08,-309.72 427.65,-231.88 444.2,-196.66"/>
<polygon fill="midnightblue" stroke="midnightblue" points="447.39,-198.11 448.47,-187.57 441.05,-195.13 447.39,-198.11"/>
</g>
<!-- Node3 -->
<g id="node3" class="node">
<title>Node3</title>
<g id="a_node3"><a xlink:href="sitkCommon_8h.html" target="_top" xlink:title=" ">
<polygon fill="white" stroke="black" points="163.5,-112.5 163.5,-131.5 251.5,-131.5 251.5,-112.5 163.5,-112.5"/>
<text text-anchor="middle" x="207.5" y="-119.5" font-family="Helvetica,sans-Serif" font-size="10.00">sitkCommon.h</text>
</a>
</g>
</g>
<!-- Node2&#45;&gt;Node3 -->
<g id="edge2" class="edge">
<title>Node2&#45;&gt;Node3</title>
<path fill="none" stroke="midnightblue" d="M290.37,-283.14C265.08,-277.44 235.65,-266.19 218.5,-244 195.58,-214.34 199.18,-167.55 203.52,-141.71"/>
<polygon fill="midnightblue" stroke="midnightblue" points="206.99,-142.21 205.42,-131.73 200.11,-140.91 206.99,-142.21"/>
</g>
<!-- Node11 -->
<g id="node11" class="node">
<title>Node11</title>
<g id="a_node11"><a xlink:href="sitkObjectOwnedBase_8h.html" target="_top" xlink:title=" ">
<polygon fill="white" stroke="black" points="228,-224.5 228,-243.5 361,-243.5 361,-224.5 228,-224.5"/>
<text text-anchor="middle" x="294.5" y="-231.5" font-family="Helvetica,sans-Serif" font-size="10.00">sitkObjectOwnedBase.h</text>
</a>
</g>
</g>
<!-- Node2&#45;&gt;Node11 -->
<g id="edge10" class="edge">
<title>Node2&#45;&gt;Node11</title>
<path fill="none" stroke="midnightblue" d="M330.4,-280.08C324.26,-272.38 315.23,-261.03 307.76,-251.65"/>
<polygon fill="midnightblue" stroke="midnightblue" points="310.44,-249.39 301.47,-243.75 304.96,-253.75 310.44,-249.39"/>
</g>
<!-- Node15 -->
<g id="node15" class="node">
<title>Node15</title>
<g id="a_node15"><a xlink:title=" ">
<polygon fill="white" stroke="#bfbfbf" points="379.5,-224.5 379.5,-243.5 411.5,-243.5 411.5,-224.5 379.5,-224.5"/>
<text text-anchor="middle" x="395.5" y="-231.5" font-family="Helvetica,sans-Serif" font-size="10.00">set</text>
</a>
</g>
</g>
<!-- Node2&#45;&gt;Node15 -->
<g id="edge16" class="edge">
<title>Node2&#45;&gt;Node15</title>
<path fill="none" stroke="midnightblue" d="M346.82,-280.32C355.39,-272.34 368.31,-260.31 378.69,-250.65"/>
<polygon fill="midnightblue" stroke="midnightblue" points="381.08,-253.21 386.01,-243.83 376.31,-248.09 381.08,-253.21"/>
</g>
<!-- Node4 -->
<g id="node4" class="node">
<title>Node4</title>
<g id="a_node4"><a xlink:href="sitkMacro_8h.html" target="_top" xlink:title=" ">
<polygon fill="white" stroke="black" points="170.5,-56.5 170.5,-75.5 244.5,-75.5 244.5,-56.5 170.5,-56.5"/>
<text text-anchor="middle" x="207.5" y="-63.5" font-family="Helvetica,sans-Serif" font-size="10.00">sitkMacro.h</text>
</a>
</g>
</g>
<!-- Node3&#45;&gt;Node4 -->
<g id="edge3" class="edge">
<title>Node3&#45;&gt;Node4</title>
<path fill="none" stroke="midnightblue" d="M207.5,-112.08C207.5,-105.01 207.5,-94.86 207.5,-85.99"/>
<polygon fill="midnightblue" stroke="midnightblue" points="211,-85.75 207.5,-75.75 204,-85.75 211,-85.75"/>
</g>
<!-- Node5 -->
<g id="node5" class="node">
<title>Node5</title>
<g id="a_node5"><a xlink:title=" ">
<polygon fill="white" stroke="#bfbfbf" points="0,-0.5 0,-19.5 53,-19.5 53,-0.5 0,-0.5"/>
<text text-anchor="middle" x="26.5" y="-7.5" font-family="Helvetica,sans-Serif" font-size="10.00">stdint.h</text>
</a>
</g>
</g>
<!-- Node4&#45;&gt;Node5 -->
<g id="edge4" class="edge">
<title>Node4&#45;&gt;Node5</title>
<path fill="none" stroke="midnightblue" d="M178.82,-56.44C147.43,-47.08 97.03,-32.04 62.88,-21.85"/>
<polygon fill="midnightblue" stroke="midnightblue" points="63.86,-18.49 53.28,-18.99 61.86,-25.2 63.86,-18.49"/>
</g>
<!-- Node6 -->
<g id="node6" class="node">
<title>Node6</title>
<g id="a_node6"><a xlink:title=" ">
<polygon fill="white" stroke="#bfbfbf" points="71.5,-0.5 71.5,-19.5 127.5,-19.5 127.5,-0.5 71.5,-0.5"/>
<text text-anchor="middle" x="99.5" y="-7.5" font-family="Helvetica,sans-Serif" font-size="10.00">stddef.h</text>
</a>
</g>
</g>
<!-- Node4&#45;&gt;Node6 -->
<g id="edge5" class="edge">
<title>Node4&#45;&gt;Node6</title>
<path fill="none" stroke="midnightblue" d="M190.15,-56.32C172.83,-47.66 145.98,-34.24 126,-24.25"/>
<polygon fill="midnightblue" stroke="midnightblue" points="127.32,-21 116.81,-19.65 124.19,-27.26 127.32,-21"/>
</g>
<!-- Node7 -->
<g id="node7" class="node">
<title>Node7</title>
<g id="a_node7"><a xlink:title=" ">
<polygon fill="white" stroke="#bfbfbf" points="145.5,-0.5 145.5,-19.5 197.5,-19.5 197.5,-0.5 145.5,-0.5"/>
<text text-anchor="middle" x="171.5" y="-7.5" font-family="Helvetica,sans-Serif" font-size="10.00">cassert</text>
</a>
</g>
</g>
<!-- Node4&#45;&gt;Node7 -->
<g id="edge6" class="edge">
<title>Node4&#45;&gt;Node7</title>
<path fill="none" stroke="midnightblue" d="M201.56,-56.08C196.52,-48.53 189.16,-37.49 182.99,-28.23"/>
<polygon fill="midnightblue" stroke="midnightblue" points="185.79,-26.13 177.33,-19.75 179.97,-30.01 185.79,-26.13"/>
</g>
<!-- Node8 -->
<g id="node8" class="node">
<title>Node8</title>
<g id="a_node8"><a xlink:title=" ">
<polygon fill="white" stroke="#bfbfbf" points="215.5,-0.5 215.5,-19.5 271.5,-19.5 271.5,-0.5 215.5,-0.5"/>
<text text-anchor="middle" x="243.5" y="-7.5" font-family="Helvetica,sans-Serif" font-size="10.00">sstream</text>
</a>
</g>
</g>
<!-- Node4&#45;&gt;Node8 -->
<g id="edge7" class="edge">
<title>Node4&#45;&gt;Node8</title>
<path fill="none" stroke="midnightblue" d="M213.44,-56.08C218.48,-48.53 225.84,-37.49 232.01,-28.23"/>
<polygon fill="midnightblue" stroke="midnightblue" points="235.03,-30.01 237.67,-19.75 229.21,-26.13 235.03,-30.01"/>
</g>
<!-- Node9 -->
<g id="node9" class="node">
<title>Node9</title>
<g id="a_node9"><a xlink:title=" ">
<polygon fill="white" stroke="#bfbfbf" points="289.5,-0.5 289.5,-19.5 333.5,-19.5 333.5,-0.5 289.5,-0.5"/>
<text text-anchor="middle" x="311.5" y="-7.5" font-family="Helvetica,sans-Serif" font-size="10.00">limits</text>
</a>
</g>
</g>
<!-- Node4&#45;&gt;Node9 -->
<g id="edge8" class="edge">
<title>Node4&#45;&gt;Node9</title>
<path fill="none" stroke="midnightblue" d="M224.21,-56.32C240.81,-47.7 266.5,-34.36 285.72,-24.39"/>
<polygon fill="midnightblue" stroke="midnightblue" points="287.57,-27.37 294.83,-19.65 284.34,-21.16 287.57,-27.37"/>
</g>
<!-- Node10 -->
<g id="node10" class="node">
<title>Node10</title>
<g id="a_node10"><a xlink:href="sitkConfigure_8h.html" target="_top" xlink:title=" ">
<polygon fill="white" stroke="black" points="351.5,-0.5 351.5,-19.5 441.5,-19.5 441.5,-0.5 351.5,-0.5"/>
<text text-anchor="middle" x="396.5" y="-7.5" font-family="Helvetica,sans-Serif" font-size="10.00">sitkConfigure.h</text>
</a>
</g>
</g>
<!-- Node4&#45;&gt;Node10 -->
<g id="edge9" class="edge">
<title>Node4&#45;&gt;Node10</title>
<path fill="none" stroke="midnightblue" d="M237.45,-56.44C269.66,-47.24 321.03,-32.56 356.64,-22.39"/>
<polygon fill="midnightblue" stroke="midnightblue" points="358.04,-25.63 366.69,-19.52 356.12,-18.9 358.04,-25.63"/>
</g>
<!-- Node11&#45;&gt;Node3 -->
<g id="edge11" class="edge">
<title>Node11&#45;&gt;Node3</title>
<path fill="none" stroke="midnightblue" d="M274.42,-224.43C259.16,-216.93 238.76,-204.64 226.5,-188 216.58,-174.54 211.82,-155.98 209.54,-142.14"/>
<polygon fill="midnightblue" stroke="midnightblue" points="212.96,-141.28 208.16,-131.84 206.02,-142.21 212.96,-141.28"/>
</g>
<!-- Node12 -->
<g id="node12" class="node">
<title>Node12</title>
<g id="a_node12"><a xlink:href="sitkNonCopyable_8h.html" target="_top" xlink:title=" ">
<polygon fill="white" stroke="black" points="236,-168.5 236,-187.5 345,-187.5 345,-168.5 236,-168.5"/>
<text text-anchor="middle" x="290.5" y="-175.5" font-family="Helvetica,sans-Serif" font-size="10.00">sitkNonCopyable.h</text>
</a>
</g>
</g>
<!-- Node11&#45;&gt;Node12 -->
<g id="edge12" class="edge">
<title>Node11&#45;&gt;Node12</title>
<path fill="none" stroke="midnightblue" d="M293.84,-224.08C293.32,-217.01 292.56,-206.86 291.91,-197.99"/>
<polygon fill="midnightblue" stroke="midnightblue" points="295.38,-197.47 291.15,-187.75 288.4,-197.98 295.38,-197.47"/>
</g>
<!-- Node13 -->
<g id="node13" class="node">
<title>Node13</title>
<g id="a_node13"><a xlink:title=" ">
<polygon fill="white" stroke="#bfbfbf" points="363.5,-168.5 363.5,-187.5 401.5,-187.5 401.5,-168.5 363.5,-168.5"/>
<text text-anchor="middle" x="382.5" y="-175.5" font-family="Helvetica,sans-Serif" font-size="10.00">map</text>
</a>
</g>
</g>
<!-- Node11&#45;&gt;Node13 -->
<g id="edge14" class="edge">
<title>Node11&#45;&gt;Node13</title>
<path fill="none" stroke="midnightblue" d="M308.64,-224.32C322.37,-215.9 343.44,-202.97 359.56,-193.07"/>
<polygon fill="midnightblue" stroke="midnightblue" points="361.7,-195.87 368.4,-187.65 358.04,-189.9 361.7,-195.87"/>
</g>
<!-- Node11&#45;&gt;Node14 -->
<g id="edge15" class="edge">
<title>Node11&#45;&gt;Node14</title>
<path fill="none" stroke="midnightblue" d="M319.54,-224.44C346.12,-215.36 388.31,-200.94 418.02,-190.78"/>
<polygon fill="midnightblue" stroke="midnightblue" points="419.25,-194.06 427.58,-187.52 416.99,-187.44 419.25,-194.06"/>
</g>
<!-- Node12&#45;&gt;Node3 -->
<g id="edge13" class="edge">
<title>Node12&#45;&gt;Node3</title>
<path fill="none" stroke="midnightblue" d="M277.16,-168.32C264.34,-159.98 244.72,-147.21 229.56,-137.35"/>
<polygon fill="midnightblue" stroke="midnightblue" points="231.09,-134.17 220.8,-131.65 227.28,-140.04 231.09,-134.17"/>
</g>
</g>
</svg>
