<?xml version="1.0" encoding="UTF-8" standalone="no"?>
<!DOCTYPE svg PUBLIC "-//W3C//DTD SVG 1.1//EN"
 "http://www.w3.org/Graphics/SVG/1.1/DTD/svg11.dtd">
<!-- Generated by graphviz version 2.43.0 (0)
 -->
<!-- Title: sitkScaleTransform.h Pages: 1 -->
<svg width="1559pt" height="487pt"
 viewBox="0.00 0.00 1558.50 487.00" xmlns="http://www.w3.org/2000/svg" xmlns:xlink="http://www.w3.org/1999/xlink">
<g id="graph0" class="graph" transform="scale(1 1) rotate(0) translate(4 483)">
<title>sitkScaleTransform.h</title>
<polygon fill="white" stroke="transparent" points="-4,4 -4,-483 1554.5,-483 1554.5,4 -4,4"/>
<!-- Node1 -->
<g id="node1" class="node">
<title>Node1</title>
<g id="a_node1"><a xlink:title=" ">
<polygon fill="#bfbfbf" stroke="black" points="1431.5,-459.5 1431.5,-478.5 1550.5,-478.5 1550.5,-459.5 1431.5,-459.5"/>
<text text-anchor="middle" x="1491" y="-466.5" font-family="Helvetica,sans-Serif" font-size="10.00">sitkScaleTransform.h</text>
</a>
</g>
</g>
<!-- Node2 -->
<g id="node2" class="node">
<title>Node2</title>
<g id="a_node2"><a xlink:href="sitkCommon_8h.html" target="_top" xlink:title=" ">
<polygon fill="white" stroke="black" points="1068,-112.5 1068,-131.5 1156,-131.5 1156,-112.5 1068,-112.5"/>
<text text-anchor="middle" x="1112" y="-119.5" font-family="Helvetica,sans-Serif" font-size="10.00">sitkCommon.h</text>
</a>
</g>
</g>
<!-- Node1&#45;&gt;Node2 -->
<g id="edge1" class="edge">
<title>Node1&#45;&gt;Node2</title>
<path fill="none" stroke="midnightblue" d="M1496.28,-459.23C1506.73,-441.04 1529,-397.6 1529,-358 1529,-358 1529,-358 1529,-238.5 1529,-201.09 1514.76,-187.77 1483,-168 1431.34,-135.85 1256.21,-126.65 1166.28,-124.04"/>
<polygon fill="midnightblue" stroke="midnightblue" points="1166.1,-120.53 1156.01,-123.75 1165.91,-127.53 1166.1,-120.53"/>
</g>
<!-- Node10 -->
<g id="node10" class="node">
<title>Node10</title>
<g id="a_node10"><a xlink:href="sitkTransform_8h.html" target="_top" xlink:title=" ">
<polygon fill="white" stroke="black" points="1407,-403.5 1407,-422.5 1499,-422.5 1499,-403.5 1407,-403.5"/>
<text text-anchor="middle" x="1453" y="-410.5" font-family="Helvetica,sans-Serif" font-size="10.00">sitkTransform.h</text>
</a>
</g>
</g>
<!-- Node1&#45;&gt;Node10 -->
<g id="edge9" class="edge">
<title>Node1&#45;&gt;Node10</title>
<path fill="none" stroke="midnightblue" d="M1484.73,-459.08C1479.36,-451.46 1471.48,-440.26 1464.92,-430.94"/>
<polygon fill="midnightblue" stroke="midnightblue" points="1467.78,-428.91 1459.16,-422.75 1462.05,-432.94 1467.78,-428.91"/>
</g>
<!-- Node3 -->
<g id="node3" class="node">
<title>Node3</title>
<g id="a_node3"><a xlink:href="sitkMacro_8h.html" target="_top" xlink:title=" ">
<polygon fill="white" stroke="black" points="922,-56.5 922,-75.5 996,-75.5 996,-56.5 922,-56.5"/>
<text text-anchor="middle" x="959" y="-63.5" font-family="Helvetica,sans-Serif" font-size="10.00">sitkMacro.h</text>
</a>
</g>
</g>
<!-- Node2&#45;&gt;Node3 -->
<g id="edge2" class="edge">
<title>Node2&#45;&gt;Node3</title>
<path fill="none" stroke="midnightblue" d="M1087.76,-112.44C1062.13,-103.4 1021.51,-89.06 992.76,-78.92"/>
<polygon fill="midnightblue" stroke="midnightblue" points="993.72,-75.54 983.13,-75.52 991.39,-82.15 993.72,-75.54"/>
</g>
<!-- Node4 -->
<g id="node4" class="node">
<title>Node4</title>
<g id="a_node4"><a xlink:title=" ">
<polygon fill="white" stroke="#bfbfbf" points="669.5,-0.5 669.5,-19.5 722.5,-19.5 722.5,-0.5 669.5,-0.5"/>
<text text-anchor="middle" x="696" y="-7.5" font-family="Helvetica,sans-Serif" font-size="10.00">stdint.h</text>
</a>
</g>
</g>
<!-- Node3&#45;&gt;Node4 -->
<g id="edge3" class="edge">
<title>Node3&#45;&gt;Node4</title>
<path fill="none" stroke="midnightblue" d="M921.88,-57.38C871.64,-47.06 782.58,-28.78 732.61,-18.52"/>
<polygon fill="midnightblue" stroke="midnightblue" points="733.07,-15.04 722.57,-16.46 731.66,-21.9 733.07,-15.04"/>
</g>
<!-- Node5 -->
<g id="node5" class="node">
<title>Node5</title>
<g id="a_node5"><a xlink:title=" ">
<polygon fill="white" stroke="#bfbfbf" points="965,-0.5 965,-19.5 1021,-19.5 1021,-0.5 965,-0.5"/>
<text text-anchor="middle" x="993" y="-7.5" font-family="Helvetica,sans-Serif" font-size="10.00">stddef.h</text>
</a>
</g>
</g>
<!-- Node3&#45;&gt;Node5 -->
<g id="edge4" class="edge">
<title>Node3&#45;&gt;Node5</title>
<path fill="none" stroke="midnightblue" d="M964.61,-56.08C969.37,-48.53 976.32,-37.49 982.15,-28.23"/>
<polygon fill="midnightblue" stroke="midnightblue" points="985.12,-30.08 987.49,-19.75 979.2,-26.35 985.12,-30.08"/>
</g>
<!-- Node6 -->
<g id="node6" class="node">
<title>Node6</title>
<g id="a_node6"><a xlink:title=" ">
<polygon fill="white" stroke="#bfbfbf" points="1039,-0.5 1039,-19.5 1091,-19.5 1091,-0.5 1039,-0.5"/>
<text text-anchor="middle" x="1065" y="-7.5" font-family="Helvetica,sans-Serif" font-size="10.00">cassert</text>
</a>
</g>
</g>
<!-- Node3&#45;&gt;Node6 -->
<g id="edge5" class="edge">
<title>Node3&#45;&gt;Node6</title>
<path fill="none" stroke="midnightblue" d="M976.03,-56.32C993.03,-47.66 1019.38,-34.24 1038.99,-24.25"/>
<polygon fill="midnightblue" stroke="midnightblue" points="1040.69,-27.31 1048.01,-19.65 1037.51,-21.08 1040.69,-27.31"/>
</g>
<!-- Node7 -->
<g id="node7" class="node">
<title>Node7</title>
<g id="a_node7"><a xlink:title=" ">
<polygon fill="white" stroke="#bfbfbf" points="829,-0.5 829,-19.5 885,-19.5 885,-0.5 829,-0.5"/>
<text text-anchor="middle" x="857" y="-7.5" font-family="Helvetica,sans-Serif" font-size="10.00">sstream</text>
</a>
</g>
</g>
<!-- Node3&#45;&gt;Node7 -->
<g id="edge6" class="edge">
<title>Node3&#45;&gt;Node7</title>
<path fill="none" stroke="midnightblue" d="M942.61,-56.32C926.33,-47.7 901.13,-34.36 882.28,-24.39"/>
<polygon fill="midnightblue" stroke="midnightblue" points="883.82,-21.24 873.35,-19.65 880.55,-27.43 883.82,-21.24"/>
</g>
<!-- Node8 -->
<g id="node8" class="node">
<title>Node8</title>
<g id="a_node8"><a xlink:title=" ">
<polygon fill="white" stroke="#bfbfbf" points="903,-0.5 903,-19.5 947,-19.5 947,-0.5 903,-0.5"/>
<text text-anchor="middle" x="925" y="-7.5" font-family="Helvetica,sans-Serif" font-size="10.00">limits</text>
</a>
</g>
</g>
<!-- Node3&#45;&gt;Node8 -->
<g id="edge7" class="edge">
<title>Node3&#45;&gt;Node8</title>
<path fill="none" stroke="midnightblue" d="M953.39,-56.08C948.63,-48.53 941.68,-37.49 935.85,-28.23"/>
<polygon fill="midnightblue" stroke="midnightblue" points="938.8,-26.35 930.51,-19.75 932.88,-30.08 938.8,-26.35"/>
</g>
<!-- Node9 -->
<g id="node9" class="node">
<title>Node9</title>
<g id="a_node9"><a xlink:href="sitkConfigure_8h.html" target="_top" xlink:title=" ">
<polygon fill="white" stroke="black" points="361,-0.5 361,-19.5 451,-19.5 451,-0.5 361,-0.5"/>
<text text-anchor="middle" x="406" y="-7.5" font-family="Helvetica,sans-Serif" font-size="10.00">sitkConfigure.h</text>
</a>
</g>
</g>
<!-- Node3&#45;&gt;Node9 -->
<g id="edge8" class="edge">
<title>Node3&#45;&gt;Node9</title>
<path fill="none" stroke="midnightblue" d="M921.86,-61.37C826.75,-52.09 574.02,-27.41 461.45,-16.41"/>
<polygon fill="midnightblue" stroke="midnightblue" points="461.62,-12.91 451.32,-15.43 460.93,-19.88 461.62,-12.91"/>
</g>
<!-- Node10&#45;&gt;Node2 -->
<g id="edge10" class="edge">
<title>Node10&#45;&gt;Node2</title>
<path fill="none" stroke="midnightblue" d="M1458.28,-403.23C1468.73,-385.04 1491,-341.6 1491,-302 1491,-302 1491,-302 1491,-238.5 1491,-204.09 1486.67,-188.46 1459,-168 1413.71,-134.5 1251.92,-125.92 1166.2,-123.74"/>
<polygon fill="midnightblue" stroke="midnightblue" points="1166.22,-120.24 1156.14,-123.5 1166.05,-127.23 1166.22,-120.24"/>
</g>
<!-- Node11 -->
<g id="node11" class="node">
<title>Node11</title>
<g id="a_node11"><a xlink:href="sitkExceptionObject_8h.html" target="_top" xlink:title=" ">
<polygon fill="white" stroke="black" points="922.5,-168.5 922.5,-187.5 1045.5,-187.5 1045.5,-168.5 922.5,-168.5"/>
<text text-anchor="middle" x="984" y="-175.5" font-family="Helvetica,sans-Serif" font-size="10.00">sitkExceptionObject.h</text>
</a>
</g>
</g>
<!-- Node10&#45;&gt;Node11 -->
<g id="edge11" class="edge">
<title>Node10&#45;&gt;Node11</title>
<path fill="none" stroke="midnightblue" d="M1406.9,-412.72C1310.76,-412.28 1084.49,-400.92 924,-311 884.3,-288.76 844.4,-261.63 870,-224 881.11,-207.67 899.15,-197.27 917.63,-190.64"/>
<polygon fill="midnightblue" stroke="midnightblue" points="918.87,-193.92 927.31,-187.5 916.71,-187.26 918.87,-193.92"/>
</g>
<!-- Node12 -->
<g id="node12" class="node">
<title>Node12</title>
<g id="a_node12"><a xlink:href="sitkImage_8h.html" target="_top" xlink:title=" ">
<polygon fill="white" stroke="black" points="1186,-347.5 1186,-366.5 1260,-366.5 1260,-347.5 1186,-347.5"/>
<text text-anchor="middle" x="1223" y="-354.5" font-family="Helvetica,sans-Serif" font-size="10.00">sitkImage.h</text>
</a>
</g>
</g>
<!-- Node10&#45;&gt;Node12 -->
<g id="edge14" class="edge">
<title>Node10&#45;&gt;Node12</title>
<path fill="none" stroke="midnightblue" d="M1416.56,-403.44C1376.6,-394.06 1312.41,-378.99 1269.02,-368.8"/>
<polygon fill="midnightblue" stroke="midnightblue" points="1269.81,-365.39 1259.27,-366.52 1268.21,-372.21 1269.81,-365.39"/>
</g>
<!-- Node14 -->
<g id="node14" class="node">
<title>Node14</title>
<g id="a_node14"><a xlink:title=" ">
<polygon fill="white" stroke="#bfbfbf" points="1402.5,-168.5 1402.5,-187.5 1449.5,-187.5 1449.5,-168.5 1402.5,-168.5"/>
<text text-anchor="middle" x="1426" y="-175.5" font-family="Helvetica,sans-Serif" font-size="10.00">vector</text>
</a>
</g>
</g>
<!-- Node10&#45;&gt;Node14 -->
<g id="edge56" class="edge">
<title>Node10&#45;&gt;Node14</title>
<path fill="none" stroke="midnightblue" d="M1452.01,-403.43C1448.1,-369.75 1433.76,-245.99 1428.21,-198.1"/>
<polygon fill="midnightblue" stroke="midnightblue" points="1431.66,-197.43 1427.03,-187.9 1424.71,-198.23 1431.66,-197.43"/>
</g>
<!-- Node11&#45;&gt;Node2 -->
<g id="edge13" class="edge">
<title>Node11&#45;&gt;Node2</title>
<path fill="none" stroke="midnightblue" d="M1004.28,-168.44C1025.35,-159.56 1058.52,-145.56 1082.49,-135.45"/>
<polygon fill="midnightblue" stroke="midnightblue" points="1083.96,-138.63 1091.81,-131.52 1081.24,-132.18 1083.96,-138.63"/>
</g>
<!-- Node11&#45;&gt;Node3 -->
<g id="edge12" class="edge">
<title>Node11&#45;&gt;Node3</title>
<path fill="none" stroke="midnightblue" d="M982.04,-168.37C978,-150.62 968.7,-109.67 963.23,-85.6"/>
<polygon fill="midnightblue" stroke="midnightblue" points="966.58,-84.57 960.95,-75.59 959.76,-86.12 966.58,-84.57"/>
</g>
<!-- Node12&#45;&gt;Node2 -->
<g id="edge15" class="edge">
<title>Node12&#45;&gt;Node2</title>
<path fill="none" stroke="midnightblue" d="M1225.01,-347.13C1231.01,-318.27 1246.02,-225.59 1206,-168 1195.02,-152.2 1176.95,-141.77 1159.57,-134.96"/>
<polygon fill="midnightblue" stroke="midnightblue" points="1160.63,-131.62 1150.04,-131.54 1158.27,-138.21 1160.63,-131.62"/>
</g>
<!-- Node13 -->
<g id="node13" class="node">
<title>Node13</title>
<g id="a_node13"><a xlink:href="sitkTemplateFunctions_8h.html" target="_top" xlink:title=" ">
<polygon fill="white" stroke="black" points="1251.5,-230 1251.5,-249 1386.5,-249 1386.5,-230 1251.5,-230"/>
<text text-anchor="middle" x="1319" y="-237" font-family="Helvetica,sans-Serif" font-size="10.00">sitkTemplateFunctions.h</text>
</a>
</g>
</g>
<!-- Node12&#45;&gt;Node13 -->
<g id="edge16" class="edge">
<title>Node12&#45;&gt;Node13</title>
<path fill="none" stroke="midnightblue" d="M1260.06,-348.53C1280.87,-342.25 1305.17,-330.96 1318,-311 1327.91,-295.59 1326.57,-274.1 1323.75,-258.91"/>
<polygon fill="midnightblue" stroke="midnightblue" points="1327.17,-258.14 1321.58,-249.13 1320.33,-259.66 1327.17,-258.14"/>
</g>
<!-- Node12&#45;&gt;Node14 -->
<g id="edge53" class="edge">
<title>Node12&#45;&gt;Node14</title>
<path fill="none" stroke="midnightblue" d="M1253.28,-347.42C1276.93,-339.91 1310.03,-327.61 1336,-311 1366.45,-291.52 1374.6,-284.85 1395,-255 1407.28,-237.03 1415.94,-213.44 1420.93,-197.35"/>
<polygon fill="midnightblue" stroke="midnightblue" points="1424.35,-198.14 1423.8,-187.56 1417.63,-196.17 1424.35,-198.14"/>
</g>
<!-- Node17 -->
<g id="node17" class="node">
<title>Node17</title>
<g id="a_node17"><a xlink:href="sitkDetail_8h.html" target="_top" xlink:title=" ">
<polygon fill="white" stroke="black" points="380.5,-291.5 380.5,-310.5 453.5,-310.5 453.5,-291.5 380.5,-291.5"/>
<text text-anchor="middle" x="417" y="-298.5" font-family="Helvetica,sans-Serif" font-size="10.00">sitkDetail.h</text>
</a>
</g>
</g>
<!-- Node12&#45;&gt;Node17 -->
<g id="edge23" class="edge">
<title>Node12&#45;&gt;Node17</title>
<path fill="none" stroke="midnightblue" d="M1185.74,-353.5C1053.92,-344.67 609.71,-314.91 463.84,-305.14"/>
<polygon fill="midnightblue" stroke="midnightblue" points="464.08,-301.65 453.86,-304.47 463.61,-308.63 464.08,-301.65"/>
</g>
<!-- Node28 -->
<g id="node28" class="node">
<title>Node28</title>
<g id="a_node28"><a xlink:href="sitkPixelIDTokens_8h.html" target="_top" xlink:title=" ">
<polygon fill="white" stroke="black" points="933,-291.5 933,-310.5 1043,-310.5 1043,-291.5 933,-291.5"/>
<text text-anchor="middle" x="988" y="-298.5" font-family="Helvetica,sans-Serif" font-size="10.00">sitkPixelIDTokens.h</text>
</a>
</g>
</g>
<!-- Node12&#45;&gt;Node28 -->
<g id="edge42" class="edge">
<title>Node12&#45;&gt;Node28</title>
<path fill="none" stroke="midnightblue" d="M1185.76,-347.44C1144.94,-338.06 1079.36,-322.99 1035.02,-312.8"/>
<polygon fill="midnightblue" stroke="midnightblue" points="1035.59,-309.34 1025.06,-310.52 1034.02,-316.17 1035.59,-309.34"/>
</g>
<!-- Node31 -->
<g id="node31" class="node">
<title>Node31</title>
<g id="a_node31"><a xlink:title=" ">
<polygon fill="white" stroke="#bfbfbf" points="1007.5,-230 1007.5,-249 1076.5,-249 1076.5,-230 1007.5,-230"/>
<text text-anchor="middle" x="1042" y="-237" font-family="Helvetica,sans-Serif" font-size="10.00">type_traits</text>
</a>
</g>
</g>
<!-- Node12&#45;&gt;Node31 -->
<g id="edge55" class="edge">
<title>Node12&#45;&gt;Node31</title>
<path fill="none" stroke="midnightblue" d="M1209.4,-347.32C1178.47,-327.59 1102.65,-279.2 1064.58,-254.91"/>
<polygon fill="midnightblue" stroke="midnightblue" points="1066.07,-251.71 1055.76,-249.28 1062.31,-257.61 1066.07,-251.71"/>
</g>
<!-- Node32 -->
<g id="node32" class="node">
<title>Node32</title>
<g id="a_node32"><a xlink:href="sitkInterpolator_8h.html" target="_top" xlink:title=" ">
<polygon fill="white" stroke="black" points="1095,-230 1095,-249 1195,-249 1195,-230 1095,-230"/>
<text text-anchor="middle" x="1145" y="-237" font-family="Helvetica,sans-Serif" font-size="10.00">sitkInterpolator.h</text>
</a>
</g>
</g>
<!-- Node12&#45;&gt;Node32 -->
<g id="edge50" class="edge">
<title>Node12&#45;&gt;Node32</title>
<path fill="none" stroke="midnightblue" d="M1217.14,-347.32C1204.32,-328.34 1173.6,-282.85 1156.68,-257.79"/>
<polygon fill="midnightblue" stroke="midnightblue" points="1159.43,-255.61 1150.93,-249.28 1153.63,-259.53 1159.43,-255.61"/>
</g>
<!-- Node33 -->
<g id="node33" class="node">
<title>Node33</title>
<g id="a_node33"><a xlink:title=" ">
<polygon fill="white" stroke="#bfbfbf" points="1251,-291.5 1251,-310.5 1309,-310.5 1309,-291.5 1251,-291.5"/>
<text text-anchor="middle" x="1280" y="-298.5" font-family="Helvetica,sans-Serif" font-size="10.00">memory</text>
</a>
</g>
</g>
<!-- Node12&#45;&gt;Node33 -->
<g id="edge54" class="edge">
<title>Node12&#45;&gt;Node33</title>
<path fill="none" stroke="midnightblue" d="M1232.16,-347.32C1240.5,-339.42 1253.03,-327.55 1263.18,-317.94"/>
<polygon fill="midnightblue" stroke="midnightblue" points="1265.82,-320.25 1270.68,-310.83 1261.01,-315.17 1265.82,-320.25"/>
</g>
<!-- Node13&#45;&gt;Node2 -->
<g id="edge18" class="edge">
<title>Node13&#45;&gt;Node2</title>
<path fill="none" stroke="midnightblue" d="M1311.54,-229.94C1298.41,-215.36 1269.76,-185.57 1240,-168 1214.39,-152.88 1182.91,-141.73 1157.58,-134.31"/>
<polygon fill="midnightblue" stroke="midnightblue" points="1158.42,-130.91 1147.85,-131.55 1156.51,-137.65 1158.42,-130.91"/>
</g>
<!-- Node13&#45;&gt;Node3 -->
<g id="edge17" class="edge">
<title>Node13&#45;&gt;Node3</title>
<path fill="none" stroke="midnightblue" d="M1329.32,-229.69C1344.38,-215.75 1369.04,-188.15 1354,-168 1312.37,-112.25 1101.75,-82.56 1006.23,-71.79"/>
<polygon fill="midnightblue" stroke="midnightblue" points="1006.58,-68.3 996.26,-70.68 1005.81,-75.26 1006.58,-68.3"/>
</g>
<!-- Node13&#45;&gt;Node11 -->
<g id="edge19" class="edge">
<title>Node13&#45;&gt;Node11</title>
<path fill="none" stroke="midnightblue" d="M1271,-229.98C1210.55,-219.24 1106.77,-200.81 1041.96,-189.29"/>
<polygon fill="midnightblue" stroke="midnightblue" points="1042.37,-185.81 1031.91,-187.51 1041.14,-192.7 1042.37,-185.81"/>
</g>
<!-- Node13&#45;&gt;Node14 -->
<g id="edge20" class="edge">
<title>Node13&#45;&gt;Node14</title>
<path fill="none" stroke="midnightblue" d="M1334.33,-229.98C1351.97,-220.17 1381.16,-203.93 1401.86,-192.42"/>
<polygon fill="midnightblue" stroke="midnightblue" points="1403.66,-195.43 1410.7,-187.51 1400.26,-189.31 1403.66,-195.43"/>
</g>
<!-- Node15 -->
<g id="node15" class="node">
<title>Node15</title>
<g id="a_node15"><a xlink:title=" ">
<polygon fill="white" stroke="#bfbfbf" points="1140.5,-168.5 1140.5,-187.5 1197.5,-187.5 1197.5,-168.5 1140.5,-168.5"/>
<text text-anchor="middle" x="1169" y="-175.5" font-family="Helvetica,sans-Serif" font-size="10.00">ostream</text>
</a>
</g>
</g>
<!-- Node13&#45;&gt;Node15 -->
<g id="edge21" class="edge">
<title>Node13&#45;&gt;Node15</title>
<path fill="none" stroke="midnightblue" d="M1297.51,-229.98C1271.89,-219.81 1228.89,-202.76 1199.76,-191.2"/>
<polygon fill="midnightblue" stroke="midnightblue" points="1201.04,-187.94 1190.45,-187.51 1198.46,-194.45 1201.04,-187.94"/>
</g>
<!-- Node16 -->
<g id="node16" class="node">
<title>Node16</title>
<g id="a_node16"><a xlink:title=" ">
<polygon fill="white" stroke="#bfbfbf" points="1292.5,-168.5 1292.5,-187.5 1345.5,-187.5 1345.5,-168.5 1292.5,-168.5"/>
<text text-anchor="middle" x="1319" y="-175.5" font-family="Helvetica,sans-Serif" font-size="10.00">iterator</text>
</a>
</g>
</g>
<!-- Node13&#45;&gt;Node16 -->
<g id="edge22" class="edge">
<title>Node13&#45;&gt;Node16</title>
<path fill="none" stroke="midnightblue" d="M1319,-229.98C1319,-221.58 1319,-208.48 1319,-197.66"/>
<polygon fill="midnightblue" stroke="midnightblue" points="1322.5,-197.51 1319,-187.51 1315.5,-197.51 1322.5,-197.51"/>
</g>
<!-- Node18 -->
<g id="node18" class="node">
<title>Node18</title>
<g id="a_node18"><a xlink:href="sitkMemberFunctionFactoryBase_8h.html" target="_top" xlink:title=" ">
<polygon fill="white" stroke="black" points="341,-224.5 341,-254.5 493,-254.5 493,-224.5 341,-224.5"/>
<text text-anchor="start" x="349" y="-242.5" font-family="Helvetica,sans-Serif" font-size="10.00">sitkMemberFunctionFactory</text>
<text text-anchor="middle" x="417" y="-231.5" font-family="Helvetica,sans-Serif" font-size="10.00">Base.h</text>
</a>
</g>
</g>
<!-- Node17&#45;&gt;Node18 -->
<g id="edge24" class="edge">
<title>Node17&#45;&gt;Node18</title>
<path fill="none" stroke="midnightblue" d="M417,-291.48C417,-284.47 417,-274.19 417,-264.7"/>
<polygon fill="midnightblue" stroke="midnightblue" points="420.5,-264.52 417,-254.52 413.5,-264.52 420.5,-264.52"/>
</g>
<!-- Node24 -->
<g id="node24" class="node">
<title>Node24</title>
<g id="a_node24"><a xlink:title=" ">
<polygon fill="white" stroke="#bfbfbf" points="28.5,-168.5 28.5,-187.5 167.5,-187.5 167.5,-168.5 28.5,-168.5"/>
<text text-anchor="middle" x="98" y="-175.5" font-family="Helvetica,sans-Serif" font-size="10.00">Ancillary/FunctionTraits.h</text>
</a>
</g>
</g>
<!-- Node17&#45;&gt;Node24 -->
<g id="edge41" class="edge">
<title>Node17&#45;&gt;Node24</title>
<path fill="none" stroke="midnightblue" d="M394.57,-291.49C339.11,-270.45 195.34,-215.92 130.53,-191.34"/>
<polygon fill="midnightblue" stroke="midnightblue" points="131.42,-187.94 120.83,-187.66 128.94,-194.48 131.42,-187.94"/>
</g>
<!-- Node18&#45;&gt;Node3 -->
<g id="edge33" class="edge">
<title>Node18&#45;&gt;Node3</title>
<path fill="none" stroke="midnightblue" d="M493.07,-230.31C547.59,-222.97 622.18,-209.89 685,-188 703.02,-181.72 705.77,-176.21 723,-168 795.35,-133.55 882.49,-97.67 927.95,-79.36"/>
<polygon fill="midnightblue" stroke="midnightblue" points="929.29,-82.59 937.27,-75.62 926.68,-76.1 929.29,-82.59"/>
</g>
<!-- Node18&#45;&gt;Node9 -->
<g id="edge25" class="edge">
<title>Node18&#45;&gt;Node9</title>
<path fill="none" stroke="midnightblue" d="M366.68,-224.49C345.55,-216.56 321.99,-204.8 305,-188 285.49,-168.7 284.92,-158.8 279,-132 267.42,-79.55 332.07,-41.94 373.41,-23.62"/>
<polygon fill="midnightblue" stroke="midnightblue" points="375.03,-26.73 382.86,-19.58 372.28,-20.29 375.03,-26.73"/>
</g>
<!-- Node19 -->
<g id="node19" class="node">
<title>Node19</title>
<g id="a_node19"><a xlink:href="sitkPixelIDTypes_8h.html" target="_top" xlink:title=" ">
<polygon fill="white" stroke="black" points="288.5,-112.5 288.5,-131.5 393.5,-131.5 393.5,-112.5 288.5,-112.5"/>
<text text-anchor="middle" x="341" y="-119.5" font-family="Helvetica,sans-Serif" font-size="10.00">sitkPixelIDTypes.h</text>
</a>
</g>
</g>
<!-- Node18&#45;&gt;Node19 -->
<g id="edge26" class="edge">
<title>Node18&#45;&gt;Node19</title>
<path fill="none" stroke="midnightblue" d="M360.09,-224.4C341.51,-216.8 322.87,-205.3 312,-188 302.2,-172.41 313.64,-152.93 324.91,-139.39"/>
<polygon fill="midnightblue" stroke="midnightblue" points="327.64,-141.59 331.72,-131.81 322.44,-136.91 327.64,-141.59"/>
</g>
<!-- Node20 -->
<g id="node20" class="node">
<title>Node20</title>
<g id="a_node20"><a xlink:href="sitkPixelIDTypeLists_8h.html" target="_top" xlink:title=" ">
<polygon fill="white" stroke="black" points="554,-168.5 554,-187.5 676,-187.5 676,-168.5 554,-168.5"/>
<text text-anchor="middle" x="615" y="-175.5" font-family="Helvetica,sans-Serif" font-size="10.00">sitkPixelIDTypeLists.h</text>
</a>
</g>
</g>
<!-- Node18&#45;&gt;Node20 -->
<g id="edge27" class="edge">
<title>Node18&#45;&gt;Node20</title>
<path fill="none" stroke="midnightblue" d="M463.67,-224.47C498.13,-214.12 544.46,-200.2 576.74,-190.5"/>
<polygon fill="midnightblue" stroke="midnightblue" points="578.12,-193.74 586.69,-187.51 576.11,-187.03 578.12,-193.74"/>
</g>
<!-- Node21 -->
<g id="node21" class="node">
<title>Node21</title>
<g id="a_node21"><a xlink:title=" ">
<polygon fill="white" stroke="#bfbfbf" points="413.5,-112.5 413.5,-131.5 524.5,-131.5 524.5,-112.5 413.5,-112.5"/>
<text text-anchor="middle" x="469" y="-119.5" font-family="Helvetica,sans-Serif" font-size="10.00">Ancillary/TypeList.h</text>
</a>
</g>
</g>
<!-- Node18&#45;&gt;Node21 -->
<g id="edge36" class="edge">
<title>Node18&#45;&gt;Node21</title>
<path fill="none" stroke="midnightblue" d="M461.23,-224.44C478.35,-216.59 496.17,-204.89 506,-188 515.72,-171.3 501.64,-152.06 488.15,-138.87"/>
<polygon fill="midnightblue" stroke="midnightblue" points="490.2,-136 480.45,-131.86 485.49,-141.18 490.2,-136"/>
</g>
<!-- Node23 -->
<g id="node23" class="node">
<title>Node23</title>
<g id="a_node23"><a xlink:href="sitkNonCopyable_8h.html" target="_top" xlink:title=" ">
<polygon fill="white" stroke="black" points="732.5,-168.5 732.5,-187.5 841.5,-187.5 841.5,-168.5 732.5,-168.5"/>
<text text-anchor="middle" x="787" y="-175.5" font-family="Helvetica,sans-Serif" font-size="10.00">sitkNonCopyable.h</text>
</a>
</g>
</g>
<!-- Node18&#45;&gt;Node23 -->
<g id="edge34" class="edge">
<title>Node18&#45;&gt;Node23</title>
<path fill="none" stroke="midnightblue" d="M493.22,-226.24C561.39,-215.28 660.13,-199.4 723.95,-189.14"/>
<polygon fill="midnightblue" stroke="midnightblue" points="724.57,-192.58 733.88,-187.54 723.46,-185.67 724.57,-192.58"/>
</g>
<!-- Node18&#45;&gt;Node24 -->
<g id="edge37" class="edge">
<title>Node18&#45;&gt;Node24</title>
<path fill="none" stroke="midnightblue" d="M341.81,-224.47C284.13,-213.72 205.81,-199.11 153.67,-189.38"/>
<polygon fill="midnightblue" stroke="midnightblue" points="154.08,-185.9 143.61,-187.51 152.79,-192.78 154.08,-185.9"/>
</g>
<!-- Node25 -->
<g id="node25" class="node">
<title>Node25</title>
<g id="a_node25"><a xlink:title=" ">
<polygon fill="white" stroke="#bfbfbf" points="321.5,-168.5 321.5,-187.5 414.5,-187.5 414.5,-168.5 321.5,-168.5"/>
<text text-anchor="middle" x="368" y="-175.5" font-family="Helvetica,sans-Serif" font-size="10.00">unordered_map</text>
</a>
</g>
</g>
<!-- Node18&#45;&gt;Node25 -->
<g id="edge38" class="edge">
<title>Node18&#45;&gt;Node25</title>
<path fill="none" stroke="midnightblue" d="M405.39,-224.4C398.27,-215.75 389.12,-204.64 381.65,-195.58"/>
<polygon fill="midnightblue" stroke="midnightblue" points="384.19,-193.15 375.13,-187.66 378.79,-197.6 384.19,-193.15"/>
</g>
<!-- Node26 -->
<g id="node26" class="node">
<title>Node26</title>
<g id="a_node26"><a xlink:title=" ">
<polygon fill="white" stroke="#bfbfbf" points="432.5,-168.5 432.5,-187.5 497.5,-187.5 497.5,-168.5 432.5,-168.5"/>
<text text-anchor="middle" x="465" y="-175.5" font-family="Helvetica,sans-Serif" font-size="10.00">functional</text>
</a>
</g>
</g>
<!-- Node18&#45;&gt;Node26 -->
<g id="edge39" class="edge">
<title>Node18&#45;&gt;Node26</title>
<path fill="none" stroke="midnightblue" d="M428.38,-224.4C435.35,-215.75 444.31,-204.64 451.63,-195.58"/>
<polygon fill="midnightblue" stroke="midnightblue" points="454.46,-197.64 458.02,-187.66 449.01,-193.24 454.46,-197.64"/>
</g>
<!-- Node27 -->
<g id="node27" class="node">
<title>Node27</title>
<g id="a_node27"><a xlink:title=" ">
<polygon fill="white" stroke="#bfbfbf" points="185.5,-168.5 185.5,-187.5 226.5,-187.5 226.5,-168.5 185.5,-168.5"/>
<text text-anchor="middle" x="206" y="-175.5" font-family="Helvetica,sans-Serif" font-size="10.00">tuple</text>
</a>
</g>
</g>
<!-- Node18&#45;&gt;Node27 -->
<g id="edge40" class="edge">
<title>Node18&#45;&gt;Node27</title>
<path fill="none" stroke="midnightblue" d="M367.26,-224.47C326.74,-213.05 270.82,-197.28 236.6,-187.63"/>
<polygon fill="midnightblue" stroke="midnightblue" points="237.29,-184.19 226.72,-184.84 235.39,-190.92 237.29,-184.19"/>
</g>
<!-- Node20&#45;&gt;Node4 -->
<g id="edge28" class="edge">
<title>Node20&#45;&gt;Node4</title>
<path fill="none" stroke="midnightblue" d="M622.82,-168.21C630.28,-159.49 641.46,-145.51 649,-132 668.23,-97.52 683.15,-53.57 690.65,-29.26"/>
<polygon fill="midnightblue" stroke="midnightblue" points="694.04,-30.16 693.57,-19.57 687.33,-28.14 694.04,-30.16"/>
</g>
<!-- Node20&#45;&gt;Node9 -->
<g id="edge29" class="edge">
<title>Node20&#45;&gt;Node9</title>
<path fill="none" stroke="midnightblue" d="M604.06,-168.31C570.27,-141.47 467.31,-59.69 424.73,-25.88"/>
<polygon fill="midnightblue" stroke="midnightblue" points="426.84,-23.08 416.83,-19.61 422.49,-28.57 426.84,-23.08"/>
</g>
<!-- Node20&#45;&gt;Node19 -->
<g id="edge30" class="edge">
<title>Node20&#45;&gt;Node19</title>
<path fill="none" stroke="midnightblue" d="M571.58,-168.44C523.48,-158.96 445.91,-143.67 394.19,-133.48"/>
<polygon fill="midnightblue" stroke="midnightblue" points="394.7,-130.02 384.21,-131.52 393.35,-136.88 394.7,-130.02"/>
</g>
<!-- Node20&#45;&gt;Node21 -->
<g id="edge31" class="edge">
<title>Node20&#45;&gt;Node21</title>
<path fill="none" stroke="midnightblue" d="M591.87,-168.44C567.52,-159.44 528.99,-145.19 501.58,-135.05"/>
<polygon fill="midnightblue" stroke="midnightblue" points="502.62,-131.7 492.03,-131.52 500.19,-138.27 502.62,-131.7"/>
</g>
<!-- Node22 -->
<g id="node22" class="node">
<title>Node22</title>
<g id="a_node22"><a xlink:title=" ">
<polygon fill="white" stroke="#bfbfbf" points="581.5,-112.5 581.5,-131.5 640.5,-131.5 640.5,-112.5 581.5,-112.5"/>
<text text-anchor="middle" x="611" y="-119.5" font-family="Helvetica,sans-Serif" font-size="10.00">complex</text>
</a>
</g>
</g>
<!-- Node20&#45;&gt;Node22 -->
<g id="edge32" class="edge">
<title>Node20&#45;&gt;Node22</title>
<path fill="none" stroke="midnightblue" d="M614.34,-168.08C613.82,-161.01 613.06,-150.86 612.41,-141.99"/>
<polygon fill="midnightblue" stroke="midnightblue" points="615.88,-141.47 611.65,-131.75 608.9,-141.98 615.88,-141.47"/>
</g>
<!-- Node23&#45;&gt;Node2 -->
<g id="edge35" class="edge">
<title>Node23&#45;&gt;Node2</title>
<path fill="none" stroke="midnightblue" d="M838.5,-168.44C898.31,-158.51 996.55,-142.18 1057.58,-132.04"/>
<polygon fill="midnightblue" stroke="midnightblue" points="1058.5,-135.44 1067.79,-130.35 1057.35,-128.53 1058.5,-135.44"/>
</g>
<!-- Node28&#45;&gt;Node9 -->
<g id="edge43" class="edge">
<title>Node28&#45;&gt;Node9</title>
<path fill="none" stroke="midnightblue" d="M932.76,-299.09C724.7,-294.95 0,-273.72 0,-179 0,-179 0,-179 0,-121 0,-49.12 240.07,-22.74 351,-14.39"/>
<polygon fill="midnightblue" stroke="midnightblue" points="351.28,-17.88 361,-13.66 350.77,-10.9 351.28,-17.88"/>
</g>
<!-- Node29 -->
<g id="node29" class="node">
<title>Node29</title>
<g id="a_node29"><a xlink:href="sitkPixelIDValues_8h.html" target="_top" xlink:title=" ">
<polygon fill="white" stroke="black" points="879,-230 879,-249 989,-249 989,-230 879,-230"/>
<text text-anchor="middle" x="934" y="-237" font-family="Helvetica,sans-Serif" font-size="10.00">sitkPixelIDValues.h</text>
</a>
</g>
</g>
<!-- Node28&#45;&gt;Node29 -->
<g id="edge44" class="edge">
<title>Node28&#45;&gt;Node29</title>
<path fill="none" stroke="midnightblue" d="M980.26,-291.48C972,-282.37 958.72,-267.74 948.51,-256.48"/>
<polygon fill="midnightblue" stroke="midnightblue" points="951.03,-254.06 941.72,-249.01 945.85,-258.77 951.03,-254.06"/>
</g>
<!-- Node28&#45;&gt;Node31 -->
<g id="edge49" class="edge">
<title>Node28&#45;&gt;Node31</title>
<path fill="none" stroke="midnightblue" d="M995.74,-291.48C1004,-282.37 1017.28,-267.74 1027.49,-256.48"/>
<polygon fill="midnightblue" stroke="midnightblue" points="1030.15,-258.77 1034.28,-249.01 1024.97,-254.06 1030.15,-258.77"/>
</g>
<!-- Node29&#45;&gt;Node2 -->
<g id="edge45" class="edge">
<title>Node29&#45;&gt;Node2</title>
<path fill="none" stroke="midnightblue" d="M963.99,-229.99C989.47,-221.84 1026.23,-207.84 1054,-188 1072.58,-174.73 1089.41,-154.51 1100.1,-140.15"/>
<polygon fill="midnightblue" stroke="midnightblue" points="1103.19,-141.85 1106.19,-131.69 1097.51,-137.76 1103.19,-141.85"/>
</g>
<!-- Node29&#45;&gt;Node15 -->
<g id="edge48" class="edge">
<title>Node29&#45;&gt;Node15</title>
<path fill="none" stroke="midnightblue" d="M967.67,-229.98C1010.74,-219.07 1085.15,-200.23 1130.45,-188.76"/>
<polygon fill="midnightblue" stroke="midnightblue" points="1131.36,-192.14 1140.2,-186.29 1129.64,-185.35 1131.36,-192.14"/>
</g>
<!-- Node29&#45;&gt;Node20 -->
<g id="edge46" class="edge">
<title>Node29&#45;&gt;Node20</title>
<path fill="none" stroke="midnightblue" d="M888.3,-229.98C830.85,-219.26 732.32,-200.88 670.58,-189.37"/>
<polygon fill="midnightblue" stroke="midnightblue" points="671.09,-185.9 660.62,-187.51 669.81,-192.78 671.09,-185.9"/>
</g>
<!-- Node30 -->
<g id="node30" class="node">
<title>Node30</title>
<g id="a_node30"><a xlink:title=" ">
<polygon fill="white" stroke="#bfbfbf" points="860,-168.5 860,-187.5 904,-187.5 904,-168.5 860,-168.5"/>
<text text-anchor="middle" x="882" y="-175.5" font-family="Helvetica,sans-Serif" font-size="10.00">string</text>
</a>
</g>
</g>
<!-- Node29&#45;&gt;Node30 -->
<g id="edge47" class="edge">
<title>Node29&#45;&gt;Node30</title>
<path fill="none" stroke="midnightblue" d="M926.55,-229.98C918.67,-220.96 906.06,-206.52 896.26,-195.31"/>
<polygon fill="midnightblue" stroke="midnightblue" points="898.65,-192.74 889.44,-187.51 893.38,-197.34 898.65,-192.74"/>
</g>
<!-- Node32&#45;&gt;Node2 -->
<g id="edge51" class="edge">
<title>Node32&#45;&gt;Node2</title>
<path fill="none" stroke="midnightblue" d="M1142.52,-229.82C1137.19,-211.17 1124.56,-166.94 1117.32,-141.63"/>
<polygon fill="midnightblue" stroke="midnightblue" points="1120.62,-140.44 1114.51,-131.78 1113.89,-142.36 1120.62,-140.44"/>
</g>
<!-- Node32&#45;&gt;Node15 -->
<g id="edge52" class="edge">
<title>Node32&#45;&gt;Node15</title>
<path fill="none" stroke="midnightblue" d="M1148.44,-229.98C1151.9,-221.4 1157.33,-207.93 1161.75,-196.98"/>
<polygon fill="midnightblue" stroke="midnightblue" points="1165.07,-198.09 1165.57,-187.51 1158.58,-195.47 1165.07,-198.09"/>
</g>
</g>
</svg>
