<?xml version="1.0" encoding="UTF-8" standalone="no"?>
<!DOCTYPE svg PUBLIC "-//W3C//DTD SVG 1.1//EN"
 "http://www.w3.org/Graphics/SVG/1.1/DTD/svg11.dtd">
<!-- Generated by graphviz version 2.43.0 (0)
 -->
<!-- Title: sitkImageSeriesWriter.h Pages: 1 -->
<!--zoomable 543 -->
<svg id="main" version="1.1" xmlns="http://www.w3.org/2000/svg" xmlns:xlink="http://www.w3.org/1999/xlink" xml:space="preserve" onload="init(evt)">
<style type="text/css"><![CDATA[
.edge:hover path { stroke: red; }
.edge:hover polygon { stroke: red; fill: red; }
]]></style>
<script type="text/javascript"><![CDATA[
var edges = document.getElementsByTagName('g');
if (edges && edges.length) {
  for (var i=0;i<edges.length;i++) {
    if (edges[i].id.substr(0,4)=='edge') {
      edges[i].setAttribute('class','edge');
    }
  }
}
]]></script>
        <defs>
                <circle id="rim" cx="0" cy="0" r="7"/>
                <circle id="rim2" cx="0" cy="0" r="3.5"/>
                <g id="zoomPlus">
                        <use xlink:href="#rim" fill="#404040">
                                <set attributeName="fill" to="#808080" begin="zoomplus.mouseover" end="zoomplus.mouseout"/>
                        </use>
                        <path d="M-4,0h8M0,-4v8" fill="none" stroke="white" stroke-width="1.5" pointer-events="none"/>
                </g>
                <g id="zoomMin">
                        <use xlink:href="#rim" fill="#404040">
                                <set attributeName="fill" to="#808080" begin="zoomminus.mouseover" end="zoomminus.mouseout"/>
                        </use>
                        <path d="M-4,0h8" fill="none" stroke="white" stroke-width="1.5" pointer-events="none"/>
                </g>
                <g id="dirArrow">
                        <path fill="none" stroke="white" stroke-width="1.5" d="M0,-3.0v7 M-2.5,-0.5L0,-3.0L2.5,-0.5"/>
                </g>
               <g id="resetDef">
                       <use xlink:href="#rim2" fill="#404040">
                               <set attributeName="fill" to="#808080" begin="reset.mouseover" end="reset.mouseout"/>
                       </use>
               </g>
        </defs>

<script type="text/javascript">
var viewWidth = 1554;
var viewHeight = 543;
var sectionId = 'dynsection-0';
</script>
<script xlink:href="svgpan.js"/>
<svg id="graph" class="graph">
<g id="viewport">
<title>sitkImageSeriesWriter.h</title>
<polygon fill="white" stroke="transparent" points="-4,4 -4,-539 1550.42,-539 1550.42,4 -4,4"/>
<!-- Node1 -->
<g id="node1" class="node">
<title>Node1</title>
<g id="a_node1"><a xlink:title=" ">
<polygon fill="#bfbfbf" stroke="black" points="1329.42,-515.5 1329.42,-534.5 1463.42,-534.5 1463.42,-515.5 1329.42,-515.5"/>
<text text-anchor="middle" x="1396.42" y="-522.5" font-family="Helvetica,sans-Serif" font-size="10.00">sitkImageSeriesWriter.h</text>
</a>
</g>
</g>
<!-- Node2 -->
<g id="node2" class="node">
<title>Node2</title>
<g id="a_node2"><a xlink:href="sitkMacro_8h.html" target="_top" xlink:title=" ">
<polygon fill="white" stroke="black" points="1099.42,-56.5 1099.42,-75.5 1173.42,-75.5 1173.42,-56.5 1099.42,-56.5"/>
<text text-anchor="middle" x="1136.42" y="-63.5" font-family="Helvetica,sans-Serif" font-size="10.00">sitkMacro.h</text>
</a>
</g>
</g>
<!-- Node1&#45;&gt;Node2 -->
<g id="edge1" class="edge">
<title>Node1&#45;&gt;Node2</title>
<path fill="none" stroke="midnightblue" d="M1430.09,-515.48C1474.31,-502.04 1546.42,-471.32 1546.42,-414 1546.42,-414 1546.42,-414 1546.42,-177 1546.42,-102.65 1291.7,-77.16 1183.81,-69.71"/>
<polygon fill="midnightblue" stroke="midnightblue" points="1183.74,-66.19 1173.53,-69.02 1183.28,-73.18 1183.74,-66.19"/>
</g>
<!-- Node9 -->
<g id="node9" class="node">
<title>Node9</title>
<g id="a_node9"><a xlink:href="sitkImage_8h.html" target="_top" xlink:title=" ">
<polygon fill="white" stroke="black" points="1118.42,-347.5 1118.42,-366.5 1192.42,-366.5 1192.42,-347.5 1118.42,-347.5"/>
<text text-anchor="middle" x="1155.42" y="-354.5" font-family="Helvetica,sans-Serif" font-size="10.00">sitkImage.h</text>
</a>
</g>
</g>
<!-- Node1&#45;&gt;Node9 -->
<g id="edge8" class="edge">
<title>Node1&#45;&gt;Node9</title>
<path fill="none" stroke="midnightblue" d="M1391.99,-515.2C1380.32,-492.95 1346.55,-434.01 1301.42,-403 1271.87,-382.69 1232.8,-371.28 1202.52,-365.03"/>
<polygon fill="midnightblue" stroke="midnightblue" points="1203.1,-361.58 1192.61,-363.11 1201.76,-368.45 1203.1,-361.58"/>
</g>
<!-- Node33 -->
<g id="node33" class="node">
<title>Node33</title>
<g id="a_node33"><a xlink:href="sitkProcessObject_8h.html" target="_top" xlink:title=" ">
<polygon fill="white" stroke="black" points="1024.92,-459.5 1024.92,-478.5 1137.92,-478.5 1137.92,-459.5 1024.92,-459.5"/>
<text text-anchor="middle" x="1081.42" y="-466.5" font-family="Helvetica,sans-Serif" font-size="10.00">sitkProcessObject.h</text>
</a>
</g>
</g>
<!-- Node1&#45;&gt;Node33 -->
<g id="edge53" class="edge">
<title>Node1&#45;&gt;Node33</title>
<path fill="none" stroke="midnightblue" d="M1346.51,-515.44C1290.75,-505.89 1200.54,-490.42 1141.1,-480.23"/>
<polygon fill="midnightblue" stroke="midnightblue" points="1141.55,-476.76 1131.1,-478.52 1140.37,-483.66 1141.55,-476.76"/>
</g>
<!-- Node38 -->
<g id="node38" class="node">
<title>Node38</title>
<g id="a_node38"><a xlink:href="sitkIO_8h.html" target="_top" xlink:title=" ">
<polygon fill="white" stroke="black" points="1438.42,-459.5 1438.42,-478.5 1492.42,-478.5 1492.42,-459.5 1438.42,-459.5"/>
<text text-anchor="middle" x="1465.42" y="-466.5" font-family="Helvetica,sans-Serif" font-size="10.00">sitkIO.h</text>
</a>
</g>
</g>
<!-- Node1&#45;&gt;Node38 -->
<g id="edge65" class="edge">
<title>Node1&#45;&gt;Node38</title>
<path fill="none" stroke="midnightblue" d="M1407.51,-515.32C1417.91,-507.18 1433.68,-494.84 1446.15,-485.09"/>
<polygon fill="midnightblue" stroke="midnightblue" points="1448.42,-487.75 1454.14,-478.83 1444.1,-482.24 1448.42,-487.75"/>
</g>
<!-- Node39 -->
<g id="node39" class="node">
<title>Node39</title>
<g id="a_node39"><a xlink:href="sitkMemberFunctionFactory_8h.html" target="_top" xlink:title=" ">
<polygon fill="white" stroke="black" points="430.92,-347.5 430.92,-366.5 589.92,-366.5 589.92,-347.5 430.92,-347.5"/>
<text text-anchor="middle" x="510.42" y="-354.5" font-family="Helvetica,sans-Serif" font-size="10.00">sitkMemberFunctionFactory.h</text>
</a>
</g>
</g>
<!-- Node1&#45;&gt;Node39 -->
<g id="edge67" class="edge">
<title>Node1&#45;&gt;Node39</title>
<path fill="none" stroke="midnightblue" d="M1329.41,-519.67C1163.16,-508.27 735.68,-474.68 603.42,-423 573.94,-411.48 544.82,-388.81 527.23,-373.53"/>
<polygon fill="midnightblue" stroke="midnightblue" points="529.37,-370.74 519.57,-366.7 524.71,-375.96 529.37,-370.74"/>
</g>
<!-- Node3 -->
<g id="node3" class="node">
<title>Node3</title>
<g id="a_node3"><a xlink:title=" ">
<polygon fill="white" stroke="#bfbfbf" points="783.92,-0.5 783.92,-19.5 836.92,-19.5 836.92,-0.5 783.92,-0.5"/>
<text text-anchor="middle" x="810.42" y="-7.5" font-family="Helvetica,sans-Serif" font-size="10.00">stdint.h</text>
</a>
</g>
</g>
<!-- Node2&#45;&gt;Node3 -->
<g id="edge2" class="edge">
<title>Node2&#45;&gt;Node3</title>
<path fill="none" stroke="midnightblue" d="M1099.34,-58.86C1036.56,-48.46 910.04,-27.5 847.35,-17.12"/>
<polygon fill="midnightblue" stroke="midnightblue" points="847.58,-13.61 837.14,-15.42 846.43,-20.51 847.58,-13.61"/>
</g>
<!-- Node4 -->
<g id="node4" class="node">
<title>Node4</title>
<g id="a_node4"><a xlink:title=" ">
<polygon fill="white" stroke="#bfbfbf" points="1142.42,-0.5 1142.42,-19.5 1198.42,-19.5 1198.42,-0.5 1142.42,-0.5"/>
<text text-anchor="middle" x="1170.42" y="-7.5" font-family="Helvetica,sans-Serif" font-size="10.00">stddef.h</text>
</a>
</g>
</g>
<!-- Node2&#45;&gt;Node4 -->
<g id="edge3" class="edge">
<title>Node2&#45;&gt;Node4</title>
<path fill="none" stroke="midnightblue" d="M1142.04,-56.08C1146.79,-48.53 1153.74,-37.49 1159.58,-28.23"/>
<polygon fill="midnightblue" stroke="midnightblue" points="1162.55,-30.08 1164.91,-19.75 1156.62,-26.35 1162.55,-30.08"/>
</g>
<!-- Node5 -->
<g id="node5" class="node">
<title>Node5</title>
<g id="a_node5"><a xlink:title=" ">
<polygon fill="white" stroke="#bfbfbf" points="1216.42,-0.5 1216.42,-19.5 1268.42,-19.5 1268.42,-0.5 1216.42,-0.5"/>
<text text-anchor="middle" x="1242.42" y="-7.5" font-family="Helvetica,sans-Serif" font-size="10.00">cassert</text>
</a>
</g>
</g>
<!-- Node2&#45;&gt;Node5 -->
<g id="edge4" class="edge">
<title>Node2&#45;&gt;Node5</title>
<path fill="none" stroke="midnightblue" d="M1153.45,-56.32C1170.45,-47.66 1196.8,-34.24 1216.42,-24.25"/>
<polygon fill="midnightblue" stroke="midnightblue" points="1218.11,-27.31 1225.44,-19.65 1214.94,-21.08 1218.11,-27.31"/>
</g>
<!-- Node6 -->
<g id="node6" class="node">
<title>Node6</title>
<g id="a_node6"><a xlink:title=" ">
<polygon fill="white" stroke="#bfbfbf" points="1006.42,-0.5 1006.42,-19.5 1062.42,-19.5 1062.42,-0.5 1006.42,-0.5"/>
<text text-anchor="middle" x="1034.42" y="-7.5" font-family="Helvetica,sans-Serif" font-size="10.00">sstream</text>
</a>
</g>
</g>
<!-- Node2&#45;&gt;Node6 -->
<g id="edge5" class="edge">
<title>Node2&#45;&gt;Node6</title>
<path fill="none" stroke="midnightblue" d="M1120.04,-56.32C1103.75,-47.7 1078.56,-34.36 1059.71,-24.39"/>
<polygon fill="midnightblue" stroke="midnightblue" points="1061.25,-21.24 1050.77,-19.65 1057.97,-27.43 1061.25,-21.24"/>
</g>
<!-- Node7 -->
<g id="node7" class="node">
<title>Node7</title>
<g id="a_node7"><a xlink:title=" ">
<polygon fill="white" stroke="#bfbfbf" points="1080.42,-0.5 1080.42,-19.5 1124.42,-19.5 1124.42,-0.5 1080.42,-0.5"/>
<text text-anchor="middle" x="1102.42" y="-7.5" font-family="Helvetica,sans-Serif" font-size="10.00">limits</text>
</a>
</g>
</g>
<!-- Node2&#45;&gt;Node7 -->
<g id="edge6" class="edge">
<title>Node2&#45;&gt;Node7</title>
<path fill="none" stroke="midnightblue" d="M1130.81,-56.08C1126.06,-48.53 1119.11,-37.49 1113.27,-28.23"/>
<polygon fill="midnightblue" stroke="midnightblue" points="1116.22,-26.35 1107.93,-19.75 1110.3,-30.08 1116.22,-26.35"/>
</g>
<!-- Node8 -->
<g id="node8" class="node">
<title>Node8</title>
<g id="a_node8"><a xlink:href="sitkConfigure_8h.html" target="_top" xlink:title=" ">
<polygon fill="white" stroke="black" points="499.42,-0.5 499.42,-19.5 589.42,-19.5 589.42,-0.5 499.42,-0.5"/>
<text text-anchor="middle" x="544.42" y="-7.5" font-family="Helvetica,sans-Serif" font-size="10.00">sitkConfigure.h</text>
</a>
</g>
</g>
<!-- Node2&#45;&gt;Node8 -->
<g id="edge7" class="edge">
<title>Node2&#45;&gt;Node8</title>
<path fill="none" stroke="midnightblue" d="M1099.39,-61.62C998.67,-52.43 719.32,-26.95 599.81,-16.05"/>
<polygon fill="midnightblue" stroke="midnightblue" points="600.06,-12.56 589.78,-15.14 599.42,-19.53 600.06,-12.56"/>
</g>
<!-- Node10 -->
<g id="node10" class="node">
<title>Node10</title>
<g id="a_node10"><a xlink:href="sitkCommon_8h.html" target="_top" xlink:title=" ">
<polygon fill="white" stroke="black" points="1033.42,-112.5 1033.42,-131.5 1121.42,-131.5 1121.42,-112.5 1033.42,-112.5"/>
<text text-anchor="middle" x="1077.42" y="-119.5" font-family="Helvetica,sans-Serif" font-size="10.00">sitkCommon.h</text>
</a>
</g>
</g>
<!-- Node9&#45;&gt;Node10 -->
<g id="edge9" class="edge">
<title>Node9&#45;&gt;Node10</title>
<path fill="none" stroke="midnightblue" d="M1155.32,-347.39C1154.81,-325.94 1151.99,-268.59 1136.42,-224 1125.32,-192.2 1103.84,-159.21 1090.09,-139.92"/>
<polygon fill="midnightblue" stroke="midnightblue" points="1092.76,-137.64 1084.04,-131.62 1087.1,-141.76 1092.76,-137.64"/>
</g>
<!-- Node11 -->
<g id="node11" class="node">
<title>Node11</title>
<g id="a_node11"><a xlink:href="sitkTemplateFunctions_8h.html" target="_top" xlink:title=" ">
<polygon fill="white" stroke="black" points="1183.92,-230 1183.92,-249 1318.92,-249 1318.92,-230 1183.92,-230"/>
<text text-anchor="middle" x="1251.42" y="-237" font-family="Helvetica,sans-Serif" font-size="10.00">sitkTemplateFunctions.h</text>
</a>
</g>
</g>
<!-- Node9&#45;&gt;Node11 -->
<g id="edge11" class="edge">
<title>Node9&#45;&gt;Node11</title>
<path fill="none" stroke="midnightblue" d="M1162.64,-347.32C1178.55,-328.17 1216.89,-282.04 1237.6,-257.13"/>
<polygon fill="midnightblue" stroke="midnightblue" points="1240.42,-259.21 1244.12,-249.28 1235.04,-254.74 1240.42,-259.21"/>
</g>
<!-- Node13 -->
<g id="node13" class="node">
<title>Node13</title>
<g id="a_node13"><a xlink:title=" ">
<polygon fill="white" stroke="#bfbfbf" points="1432.92,-168.5 1432.92,-187.5 1479.92,-187.5 1479.92,-168.5 1432.92,-168.5"/>
<text text-anchor="middle" x="1456.42" y="-175.5" font-family="Helvetica,sans-Serif" font-size="10.00">vector</text>
</a>
</g>
</g>
<!-- Node9&#45;&gt;Node13 -->
<g id="edge50" class="edge">
<title>Node9&#45;&gt;Node13</title>
<path fill="none" stroke="midnightblue" d="M1191.22,-347.45C1218.8,-340.03 1257.34,-327.82 1288.42,-311 1349.88,-277.73 1411.87,-221.94 1440.32,-194.79"/>
<polygon fill="midnightblue" stroke="midnightblue" points="1442.97,-197.1 1447.74,-187.64 1438.11,-192.06 1442.97,-197.1"/>
</g>
<!-- Node16 -->
<g id="node16" class="node">
<title>Node16</title>
<g id="a_node16"><a xlink:href="sitkDetail_8h.html" target="_top" xlink:title=" ">
<polygon fill="white" stroke="black" points="477.92,-291.5 477.92,-310.5 550.92,-310.5 550.92,-291.5 477.92,-291.5"/>
<text text-anchor="middle" x="514.42" y="-298.5" font-family="Helvetica,sans-Serif" font-size="10.00">sitkDetail.h</text>
</a>
</g>
</g>
<!-- Node9&#45;&gt;Node16 -->
<g id="edge20" class="edge">
<title>Node9&#45;&gt;Node16</title>
<path fill="none" stroke="midnightblue" d="M1118.19,-352.86C1007.85,-343.57 682.72,-316.18 561.07,-305.93"/>
<polygon fill="midnightblue" stroke="midnightblue" points="561.22,-302.43 550.96,-305.08 560.63,-309.41 561.22,-302.43"/>
</g>
<!-- Node27 -->
<g id="node27" class="node">
<title>Node27</title>
<g id="a_node27"><a xlink:href="sitkPixelIDTokens_8h.html" target="_top" xlink:title=" ">
<polygon fill="white" stroke="black" points="727.42,-291.5 727.42,-310.5 837.42,-310.5 837.42,-291.5 727.42,-291.5"/>
<text text-anchor="middle" x="782.42" y="-298.5" font-family="Helvetica,sans-Serif" font-size="10.00">sitkPixelIDTokens.h</text>
</a>
</g>
</g>
<!-- Node9&#45;&gt;Node27 -->
<g id="edge39" class="edge">
<title>Node9&#45;&gt;Node27</title>
<path fill="none" stroke="midnightblue" d="M1118.3,-350.62C1055.25,-341.5 926.48,-322.86 847.98,-311.49"/>
<polygon fill="midnightblue" stroke="midnightblue" points="848.12,-307.97 837.72,-310.01 847.12,-314.9 848.12,-307.97"/>
</g>
<!-- Node30 -->
<g id="node30" class="node">
<title>Node30</title>
<g id="a_node30"><a xlink:title=" ">
<polygon fill="white" stroke="#bfbfbf" points="811.92,-230 811.92,-249 880.92,-249 880.92,-230 811.92,-230"/>
<text text-anchor="middle" x="846.42" y="-237" font-family="Helvetica,sans-Serif" font-size="10.00">type_traits</text>
</a>
</g>
</g>
<!-- Node9&#45;&gt;Node30 -->
<g id="edge52" class="edge">
<title>Node9&#45;&gt;Node30</title>
<path fill="none" stroke="midnightblue" d="M1132.45,-347.41C1078.15,-327.12 941.74,-276.13 878.97,-252.66"/>
<polygon fill="midnightblue" stroke="midnightblue" points="880.14,-249.37 869.55,-249.14 877.69,-255.92 880.14,-249.37"/>
</g>
<!-- Node31 -->
<g id="node31" class="node">
<title>Node31</title>
<g id="a_node31"><a xlink:href="sitkInterpolator_8h.html" target="_top" xlink:title=" ">
<polygon fill="white" stroke="black" points="1027.42,-230 1027.42,-249 1127.42,-249 1127.42,-230 1027.42,-230"/>
<text text-anchor="middle" x="1077.42" y="-237" font-family="Helvetica,sans-Serif" font-size="10.00">sitkInterpolator.h</text>
</a>
</g>
</g>
<!-- Node9&#45;&gt;Node31 -->
<g id="edge47" class="edge">
<title>Node9&#45;&gt;Node31</title>
<path fill="none" stroke="midnightblue" d="M1149.56,-347.32C1136.74,-328.34 1106.02,-282.85 1089.1,-257.79"/>
<polygon fill="midnightblue" stroke="midnightblue" points="1091.85,-255.61 1083.35,-249.28 1086.05,-259.53 1091.85,-255.61"/>
</g>
<!-- Node32 -->
<g id="node32" class="node">
<title>Node32</title>
<g id="a_node32"><a xlink:title=" ">
<polygon fill="white" stroke="#bfbfbf" points="1221.42,-291.5 1221.42,-310.5 1279.42,-310.5 1279.42,-291.5 1221.42,-291.5"/>
<text text-anchor="middle" x="1250.42" y="-298.5" font-family="Helvetica,sans-Serif" font-size="10.00">memory</text>
</a>
</g>
</g>
<!-- Node9&#45;&gt;Node32 -->
<g id="edge51" class="edge">
<title>Node9&#45;&gt;Node32</title>
<path fill="none" stroke="midnightblue" d="M1170.69,-347.32C1185.65,-338.82 1208.68,-325.73 1226.15,-315.8"/>
<polygon fill="midnightblue" stroke="midnightblue" points="1228.23,-318.64 1235.2,-310.65 1224.78,-312.55 1228.23,-318.64"/>
</g>
<!-- Node10&#45;&gt;Node2 -->
<g id="edge10" class="edge">
<title>Node10&#45;&gt;Node2</title>
<path fill="none" stroke="midnightblue" d="M1086.9,-112.32C1095.62,-104.34 1108.77,-92.31 1119.32,-82.65"/>
<polygon fill="midnightblue" stroke="midnightblue" points="1121.76,-85.17 1126.77,-75.83 1117.03,-80 1121.76,-85.17"/>
</g>
<!-- Node11&#45;&gt;Node2 -->
<g id="edge12" class="edge">
<title>Node11&#45;&gt;Node2</title>
<path fill="none" stroke="midnightblue" d="M1307.75,-229.93C1353.5,-220.37 1407.03,-201.61 1384.42,-168 1339.64,-101.4 1242.48,-78.7 1183.94,-70.97"/>
<polygon fill="midnightblue" stroke="midnightblue" points="1184.19,-67.47 1173.84,-69.73 1183.34,-74.42 1184.19,-67.47"/>
</g>
<!-- Node11&#45;&gt;Node10 -->
<g id="edge13" class="edge">
<title>Node11&#45;&gt;Node10</title>
<path fill="none" stroke="midnightblue" d="M1237.64,-229.87C1221.81,-219.92 1195.1,-203 1172.42,-188 1146.52,-170.87 1117.06,-150.58 1097.91,-137.29"/>
<polygon fill="midnightblue" stroke="midnightblue" points="1099.85,-134.37 1089.64,-131.54 1095.85,-140.12 1099.85,-134.37"/>
</g>
<!-- Node12 -->
<g id="node12" class="node">
<title>Node12</title>
<g id="a_node12"><a xlink:href="sitkExceptionObject_8h.html" target="_top" xlink:title=" ">
<polygon fill="white" stroke="black" points="1181.92,-168.5 1181.92,-187.5 1304.92,-187.5 1304.92,-168.5 1181.92,-168.5"/>
<text text-anchor="middle" x="1243.42" y="-175.5" font-family="Helvetica,sans-Serif" font-size="10.00">sitkExceptionObject.h</text>
</a>
</g>
</g>
<!-- Node11&#45;&gt;Node12 -->
<g id="edge14" class="edge">
<title>Node11&#45;&gt;Node12</title>
<path fill="none" stroke="midnightblue" d="M1250.28,-229.98C1249.15,-221.58 1247.39,-208.48 1245.93,-197.66"/>
<polygon fill="midnightblue" stroke="midnightblue" points="1249.37,-196.95 1244.57,-187.51 1242.43,-197.89 1249.37,-196.95"/>
</g>
<!-- Node11&#45;&gt;Node13 -->
<g id="edge17" class="edge">
<title>Node11&#45;&gt;Node13</title>
<path fill="none" stroke="midnightblue" d="M1280.8,-229.98C1318.48,-219.04 1383.68,-200.11 1423.15,-188.66"/>
<polygon fill="midnightblue" stroke="midnightblue" points="1424.21,-191.99 1432.84,-185.84 1422.26,-185.27 1424.21,-191.99"/>
</g>
<!-- Node14 -->
<g id="node14" class="node">
<title>Node14</title>
<g id="a_node14"><a xlink:title=" ">
<polygon fill="white" stroke="#bfbfbf" points="991.92,-168.5 991.92,-187.5 1048.92,-187.5 1048.92,-168.5 991.92,-168.5"/>
<text text-anchor="middle" x="1020.42" y="-175.5" font-family="Helvetica,sans-Serif" font-size="10.00">ostream</text>
</a>
</g>
</g>
<!-- Node11&#45;&gt;Node14 -->
<g id="edge18" class="edge">
<title>Node11&#45;&gt;Node14</title>
<path fill="none" stroke="midnightblue" d="M1218.33,-229.98C1176.2,-219.12 1103.55,-200.41 1058.97,-188.93"/>
<polygon fill="midnightblue" stroke="midnightblue" points="1059.65,-185.49 1049.09,-186.38 1057.9,-192.27 1059.65,-185.49"/>
</g>
<!-- Node15 -->
<g id="node15" class="node">
<title>Node15</title>
<g id="a_node15"><a xlink:title=" ">
<polygon fill="white" stroke="#bfbfbf" points="1322.92,-168.5 1322.92,-187.5 1375.92,-187.5 1375.92,-168.5 1322.92,-168.5"/>
<text text-anchor="middle" x="1349.42" y="-175.5" font-family="Helvetica,sans-Serif" font-size="10.00">iterator</text>
</a>
</g>
</g>
<!-- Node11&#45;&gt;Node15 -->
<g id="edge19" class="edge">
<title>Node11&#45;&gt;Node15</title>
<path fill="none" stroke="midnightblue" d="M1265.46,-229.98C1281.47,-220.25 1307.87,-204.23 1326.8,-192.74"/>
<polygon fill="midnightblue" stroke="midnightblue" points="1328.68,-195.69 1335.41,-187.51 1325.04,-189.71 1328.68,-195.69"/>
</g>
<!-- Node12&#45;&gt;Node2 -->
<g id="edge15" class="edge">
<title>Node12&#45;&gt;Node2</title>
<path fill="none" stroke="midnightblue" d="M1235.03,-168.37C1217.14,-149.97 1175.01,-106.67 1152.04,-83.05"/>
<polygon fill="midnightblue" stroke="midnightblue" points="1154.26,-80.32 1144.78,-75.59 1149.24,-85.2 1154.26,-80.32"/>
</g>
<!-- Node12&#45;&gt;Node10 -->
<g id="edge16" class="edge">
<title>Node12&#45;&gt;Node10</title>
<path fill="none" stroke="midnightblue" d="M1217.12,-168.44C1189.07,-159.32 1144.48,-144.81 1113.24,-134.65"/>
<polygon fill="midnightblue" stroke="midnightblue" points="1114.2,-131.28 1103.6,-131.52 1112.03,-137.94 1114.2,-131.28"/>
</g>
<!-- Node17 -->
<g id="node17" class="node">
<title>Node17</title>
<g id="a_node17"><a xlink:href="sitkMemberFunctionFactoryBase_8h.html" target="_top" xlink:title=" ">
<polygon fill="white" stroke="black" points="197.42,-224.5 197.42,-254.5 349.42,-254.5 349.42,-224.5 197.42,-224.5"/>
<text text-anchor="start" x="205.42" y="-242.5" font-family="Helvetica,sans-Serif" font-size="10.00">sitkMemberFunctionFactory</text>
<text text-anchor="middle" x="273.42" y="-231.5" font-family="Helvetica,sans-Serif" font-size="10.00">Base.h</text>
</a>
</g>
</g>
<!-- Node16&#45;&gt;Node17 -->
<g id="edge21" class="edge">
<title>Node16&#45;&gt;Node17</title>
<path fill="none" stroke="midnightblue" d="M479.89,-291.48C443.52,-282.49 385.33,-268.13 339.98,-256.93"/>
<polygon fill="midnightblue" stroke="midnightblue" points="340.77,-253.52 330.22,-254.52 339.09,-260.32 340.77,-253.52"/>
</g>
<!-- Node23 -->
<g id="node23" class="node">
<title>Node23</title>
<g id="a_node23"><a xlink:title=" ">
<polygon fill="white" stroke="#bfbfbf" points="313.92,-168.5 313.92,-187.5 452.92,-187.5 452.92,-168.5 313.92,-168.5"/>
<text text-anchor="middle" x="383.42" y="-175.5" font-family="Helvetica,sans-Serif" font-size="10.00">Ancillary/FunctionTraits.h</text>
</a>
</g>
</g>
<!-- Node16&#45;&gt;Node23 -->
<g id="edge38" class="edge">
<title>Node16&#45;&gt;Node23</title>
<path fill="none" stroke="midnightblue" d="M505,-291.3C483,-270.98 428.01,-220.19 400.16,-194.46"/>
<polygon fill="midnightblue" stroke="midnightblue" points="402.48,-191.84 392.76,-187.62 397.73,-196.98 402.48,-191.84"/>
</g>
<!-- Node17&#45;&gt;Node2 -->
<g id="edge30" class="edge">
<title>Node17&#45;&gt;Node2</title>
<path fill="none" stroke="midnightblue" d="M349.62,-229.11C416.56,-220.32 516.42,-205.86 602.42,-188 636.62,-180.9 644.47,-176.21 678.42,-168 827.91,-131.86 1006.12,-94.07 1089.3,-76.74"/>
<polygon fill="midnightblue" stroke="midnightblue" points="1090.13,-80.14 1099.2,-74.68 1088.7,-73.29 1090.13,-80.14"/>
</g>
<!-- Node17&#45;&gt;Node8 -->
<g id="edge22" class="edge">
<title>Node17&#45;&gt;Node8</title>
<path fill="none" stroke="midnightblue" d="M197.27,-234.83C126.24,-229.62 27.68,-217.21 3.42,-188 -2.25,-181.16 1.09,-176.58 3.42,-168 11.03,-140.13 12.87,-128.72 36.42,-112 109.03,-60.47 373.27,-28.23 489.23,-16.27"/>
<polygon fill="midnightblue" stroke="midnightblue" points="489.72,-19.73 499.32,-15.24 489.01,-12.77 489.72,-19.73"/>
</g>
<!-- Node18 -->
<g id="node18" class="node">
<title>Node18</title>
<g id="a_node18"><a xlink:href="sitkPixelIDTypes_8h.html" target="_top" xlink:title=" ">
<polygon fill="white" stroke="black" points="45.92,-112.5 45.92,-131.5 150.92,-131.5 150.92,-112.5 45.92,-112.5"/>
<text text-anchor="middle" x="98.42" y="-119.5" font-family="Helvetica,sans-Serif" font-size="10.00">sitkPixelIDTypes.h</text>
</a>
</g>
</g>
<!-- Node17&#45;&gt;Node18 -->
<g id="edge23" class="edge">
<title>Node17&#45;&gt;Node18</title>
<path fill="none" stroke="midnightblue" d="M197.19,-234.25C128.72,-228.65 35.52,-215.99 12.42,-188 -5.95,-165.72 29.06,-146.69 59.79,-135.08"/>
<polygon fill="midnightblue" stroke="midnightblue" points="61.31,-138.25 69.54,-131.57 58.95,-131.66 61.31,-138.25"/>
</g>
<!-- Node19 -->
<g id="node19" class="node">
<title>Node19</title>
<g id="a_node19"><a xlink:href="sitkPixelIDTypeLists_8h.html" target="_top" xlink:title=" ">
<polygon fill="white" stroke="black" points="471.42,-168.5 471.42,-187.5 593.42,-187.5 593.42,-168.5 471.42,-168.5"/>
<text text-anchor="middle" x="532.42" y="-175.5" font-family="Helvetica,sans-Serif" font-size="10.00">sitkPixelIDTypeLists.h</text>
</a>
</g>
</g>
<!-- Node17&#45;&gt;Node19 -->
<g id="edge24" class="edge">
<title>Node17&#45;&gt;Node19</title>
<path fill="none" stroke="midnightblue" d="M334.48,-224.47C380.72,-213.85 443.3,-199.47 485.63,-189.75"/>
<polygon fill="midnightblue" stroke="midnightblue" points="486.43,-193.16 495.4,-187.51 484.87,-186.33 486.43,-193.16"/>
</g>
<!-- Node20 -->
<g id="node20" class="node">
<title>Node20</title>
<g id="a_node20"><a xlink:title=" ">
<polygon fill="white" stroke="#bfbfbf" points="278.92,-112.5 278.92,-131.5 389.92,-131.5 389.92,-112.5 278.92,-112.5"/>
<text text-anchor="middle" x="334.42" y="-119.5" font-family="Helvetica,sans-Serif" font-size="10.00">Ancillary/TypeList.h</text>
</a>
</g>
</g>
<!-- Node17&#45;&gt;Node20 -->
<g id="edge33" class="edge">
<title>Node17&#45;&gt;Node20</title>
<path fill="none" stroke="midnightblue" d="M278.79,-224.38C284.49,-209.9 294.08,-186.88 304.42,-168 309.67,-158.43 316.34,-148.27 322.05,-140.03"/>
<polygon fill="midnightblue" stroke="midnightblue" points="325.05,-141.86 327.98,-131.68 319.34,-137.81 325.05,-141.86"/>
</g>
<!-- Node22 -->
<g id="node22" class="node">
<title>Node22</title>
<g id="a_node22"><a xlink:href="sitkNonCopyable_8h.html" target="_top" xlink:title=" ">
<polygon fill="white" stroke="black" points="687.92,-168.5 687.92,-187.5 796.92,-187.5 796.92,-168.5 687.92,-168.5"/>
<text text-anchor="middle" x="742.42" y="-175.5" font-family="Helvetica,sans-Serif" font-size="10.00">sitkNonCopyable.h</text>
</a>
</g>
</g>
<!-- Node17&#45;&gt;Node22 -->
<g id="edge31" class="edge">
<title>Node17&#45;&gt;Node22</title>
<path fill="none" stroke="midnightblue" d="M349.75,-228.96C430.25,-218.87 560.78,-202.46 673.42,-188 674.88,-187.81 676.36,-187.62 677.85,-187.43"/>
<polygon fill="midnightblue" stroke="midnightblue" points="678.34,-190.9 687.81,-186.14 677.45,-183.95 678.34,-190.9"/>
</g>
<!-- Node17&#45;&gt;Node23 -->
<g id="edge34" class="edge">
<title>Node17&#45;&gt;Node23</title>
<path fill="none" stroke="midnightblue" d="M299.49,-224.4C317.29,-214.77 340.74,-202.09 358.32,-192.58"/>
<polygon fill="midnightblue" stroke="midnightblue" points="360.29,-195.49 367.42,-187.66 356.96,-189.34 360.29,-195.49"/>
</g>
<!-- Node24 -->
<g id="node24" class="node">
<title>Node24</title>
<g id="a_node24"><a xlink:title=" ">
<polygon fill="white" stroke="#bfbfbf" points="21.92,-168.5 21.92,-187.5 114.92,-187.5 114.92,-168.5 21.92,-168.5"/>
<text text-anchor="middle" x="68.42" y="-175.5" font-family="Helvetica,sans-Serif" font-size="10.00">unordered_map</text>
</a>
</g>
</g>
<!-- Node17&#45;&gt;Node24 -->
<g id="edge35" class="edge">
<title>Node17&#45;&gt;Node24</title>
<path fill="none" stroke="midnightblue" d="M225.1,-224.47C189.27,-214.08 141.05,-200.08 107.61,-190.37"/>
<polygon fill="midnightblue" stroke="midnightblue" points="108.31,-186.93 97.73,-187.51 106.36,-193.66 108.31,-186.93"/>
</g>
<!-- Node25 -->
<g id="node25" class="node">
<title>Node25</title>
<g id="a_node25"><a xlink:title=" ">
<polygon fill="white" stroke="#bfbfbf" points="132.92,-168.5 132.92,-187.5 197.92,-187.5 197.92,-168.5 132.92,-168.5"/>
<text text-anchor="middle" x="165.42" y="-175.5" font-family="Helvetica,sans-Serif" font-size="10.00">functional</text>
</a>
</g>
</g>
<!-- Node17&#45;&gt;Node25 -->
<g id="edge36" class="edge">
<title>Node17&#45;&gt;Node25</title>
<path fill="none" stroke="midnightblue" d="M247.83,-224.4C230.36,-214.77 207.34,-202.09 190.07,-192.58"/>
<polygon fill="midnightblue" stroke="midnightblue" points="191.59,-189.42 181.14,-187.66 188.21,-195.55 191.59,-189.42"/>
</g>
<!-- Node26 -->
<g id="node26" class="node">
<title>Node26</title>
<g id="a_node26"><a xlink:title=" ">
<polygon fill="white" stroke="#bfbfbf" points="215.92,-168.5 215.92,-187.5 256.92,-187.5 256.92,-168.5 215.92,-168.5"/>
<text text-anchor="middle" x="236.42" y="-175.5" font-family="Helvetica,sans-Serif" font-size="10.00">tuple</text>
</a>
</g>
</g>
<!-- Node17&#45;&gt;Node26 -->
<g id="edge37" class="edge">
<title>Node17&#45;&gt;Node26</title>
<path fill="none" stroke="midnightblue" d="M264.66,-224.4C259.45,-216.02 252.8,-205.33 247.26,-196.42"/>
<polygon fill="midnightblue" stroke="midnightblue" points="250.06,-194.3 241.81,-187.66 244.12,-198 250.06,-194.3"/>
</g>
<!-- Node19&#45;&gt;Node3 -->
<g id="edge25" class="edge">
<title>Node19&#45;&gt;Node3</title>
<path fill="none" stroke="midnightblue" d="M527.81,-168.08C521.56,-154.62 512.47,-128.89 524.42,-112 581.77,-30.93 709.84,-14.49 773.31,-11.46"/>
<polygon fill="midnightblue" stroke="midnightblue" points="773.79,-14.94 783.65,-11.05 773.52,-7.95 773.79,-14.94"/>
</g>
<!-- Node19&#45;&gt;Node8 -->
<g id="edge26" class="edge">
<title>Node19&#45;&gt;Node8</title>
<path fill="none" stroke="midnightblue" d="M520.88,-168.49C510.94,-160.38 497.3,-147.18 491.42,-132 479.23,-100.5 477.24,-86.65 491.42,-56 497.34,-43.21 508.89,-32.72 519.7,-25.1"/>
<polygon fill="midnightblue" stroke="midnightblue" points="521.64,-28.02 528.09,-19.61 517.81,-22.16 521.64,-28.02"/>
</g>
<!-- Node19&#45;&gt;Node18 -->
<g id="edge27" class="edge">
<title>Node19&#45;&gt;Node18</title>
<path fill="none" stroke="midnightblue" d="M471.23,-169.23C467.92,-168.81 464.63,-168.4 461.42,-168 356.17,-154.81 233.73,-139.67 161.34,-130.75"/>
<polygon fill="midnightblue" stroke="midnightblue" points="161.38,-127.23 151.03,-129.48 160.53,-134.17 161.38,-127.23"/>
</g>
<!-- Node19&#45;&gt;Node20 -->
<g id="edge28" class="edge">
<title>Node19&#45;&gt;Node20</title>
<path fill="none" stroke="midnightblue" d="M501.05,-168.44C467.16,-159.2 413.02,-144.44 375.7,-134.26"/>
<polygon fill="midnightblue" stroke="midnightblue" points="376.22,-130.77 365.65,-131.52 374.38,-137.52 376.22,-130.77"/>
</g>
<!-- Node21 -->
<g id="node21" class="node">
<title>Node21</title>
<g id="a_node21"><a xlink:title=" ">
<polygon fill="white" stroke="#bfbfbf" points="533.92,-112.5 533.92,-131.5 592.92,-131.5 592.92,-112.5 533.92,-112.5"/>
<text text-anchor="middle" x="563.42" y="-119.5" font-family="Helvetica,sans-Serif" font-size="10.00">complex</text>
</a>
</g>
</g>
<!-- Node19&#45;&gt;Node21 -->
<g id="edge29" class="edge">
<title>Node19&#45;&gt;Node21</title>
<path fill="none" stroke="midnightblue" d="M537.54,-168.08C541.83,-160.61 548.08,-149.72 553.37,-140.52"/>
<polygon fill="midnightblue" stroke="midnightblue" points="556.46,-142.17 558.4,-131.75 550.39,-138.68 556.46,-142.17"/>
</g>
<!-- Node22&#45;&gt;Node10 -->
<g id="edge32" class="edge">
<title>Node22&#45;&gt;Node10</title>
<path fill="none" stroke="midnightblue" d="M795.51,-168.44C857.81,-158.4 960.57,-141.84 1023.31,-131.72"/>
<polygon fill="midnightblue" stroke="midnightblue" points="1024.09,-135.14 1033.41,-130.1 1022.98,-128.23 1024.09,-135.14"/>
</g>
<!-- Node27&#45;&gt;Node8 -->
<g id="edge40" class="edge">
<title>Node27&#45;&gt;Node8</title>
<path fill="none" stroke="midnightblue" d="M745.06,-291.45C722.41,-284.69 694.18,-273.28 674.42,-255 622.06,-206.53 635.19,-174.86 601.42,-112 585.53,-82.41 566.15,-48.5 554.57,-28.46"/>
<polygon fill="midnightblue" stroke="midnightblue" points="557.47,-26.48 549.43,-19.58 551.41,-29.99 557.47,-26.48"/>
</g>
<!-- Node28 -->
<g id="node28" class="node">
<title>Node28</title>
<g id="a_node28"><a xlink:href="sitkPixelIDValues_8h.html" target="_top" xlink:title=" ">
<polygon fill="white" stroke="black" points="683.42,-230 683.42,-249 793.42,-249 793.42,-230 683.42,-230"/>
<text text-anchor="middle" x="738.42" y="-237" font-family="Helvetica,sans-Serif" font-size="10.00">sitkPixelIDValues.h</text>
</a>
</g>
</g>
<!-- Node27&#45;&gt;Node28 -->
<g id="edge41" class="edge">
<title>Node27&#45;&gt;Node28</title>
<path fill="none" stroke="midnightblue" d="M776.12,-291.48C769.52,-282.55 758.99,-268.31 750.73,-257.14"/>
<polygon fill="midnightblue" stroke="midnightblue" points="753.48,-254.97 744.72,-249.01 747.85,-259.13 753.48,-254.97"/>
</g>
<!-- Node27&#45;&gt;Node30 -->
<g id="edge46" class="edge">
<title>Node27&#45;&gt;Node30</title>
<path fill="none" stroke="midnightblue" d="M791.59,-291.48C801.57,-282.2 817.74,-267.17 829.93,-255.83"/>
<polygon fill="midnightblue" stroke="midnightblue" points="832.33,-258.38 837.27,-249.01 827.56,-253.25 832.33,-258.38"/>
</g>
<!-- Node28&#45;&gt;Node10 -->
<g id="edge42" class="edge">
<title>Node28&#45;&gt;Node10</title>
<path fill="none" stroke="midnightblue" d="M762.09,-229.83C788.29,-220.12 831.67,-203.67 868.42,-188 887.81,-179.74 891.62,-175.23 911.42,-168 950.06,-153.89 995.18,-141.94 1028.62,-133.91"/>
<polygon fill="midnightblue" stroke="midnightblue" points="1029.68,-137.25 1038.6,-131.54 1028.07,-130.44 1029.68,-137.25"/>
</g>
<!-- Node28&#45;&gt;Node14 -->
<g id="edge45" class="edge">
<title>Node28&#45;&gt;Node14</title>
<path fill="none" stroke="midnightblue" d="M775.62,-229.94C784.4,-227.96 793.74,-225.88 802.42,-224 865.19,-210.41 938.33,-195.5 981.92,-186.71"/>
<polygon fill="midnightblue" stroke="midnightblue" points="982.71,-190.13 991.82,-184.72 981.33,-183.26 982.71,-190.13"/>
</g>
<!-- Node28&#45;&gt;Node19 -->
<g id="edge43" class="edge">
<title>Node28&#45;&gt;Node19</title>
<path fill="none" stroke="midnightblue" d="M708.91,-229.98C672.81,-219.55 611.58,-201.86 571.57,-190.31"/>
<polygon fill="midnightblue" stroke="midnightblue" points="572.46,-186.92 561.88,-187.51 570.52,-193.65 572.46,-186.92"/>
</g>
<!-- Node29 -->
<g id="node29" class="node">
<title>Node29</title>
<g id="a_node29"><a xlink:title=" ">
<polygon fill="white" stroke="#bfbfbf" points="815.42,-168.5 815.42,-187.5 859.42,-187.5 859.42,-168.5 815.42,-168.5"/>
<text text-anchor="middle" x="837.42" y="-175.5" font-family="Helvetica,sans-Serif" font-size="10.00">string</text>
</a>
</g>
</g>
<!-- Node28&#45;&gt;Node29 -->
<g id="edge44" class="edge">
<title>Node28&#45;&gt;Node29</title>
<path fill="none" stroke="midnightblue" d="M752.61,-229.98C768.78,-220.25 795.45,-204.23 814.57,-192.74"/>
<polygon fill="midnightblue" stroke="midnightblue" points="816.5,-195.66 823.27,-187.51 812.89,-189.66 816.5,-195.66"/>
</g>
<!-- Node31&#45;&gt;Node10 -->
<g id="edge48" class="edge">
<title>Node31&#45;&gt;Node10</title>
<path fill="none" stroke="midnightblue" d="M1077.42,-229.82C1077.42,-211.26 1077.42,-167.34 1077.42,-141.97"/>
<polygon fill="midnightblue" stroke="midnightblue" points="1080.92,-141.78 1077.42,-131.78 1073.92,-141.78 1080.92,-141.78"/>
</g>
<!-- Node31&#45;&gt;Node14 -->
<g id="edge49" class="edge">
<title>Node31&#45;&gt;Node14</title>
<path fill="none" stroke="midnightblue" d="M1069.26,-229.98C1060.54,-220.87 1046.52,-206.24 1035.74,-194.98"/>
<polygon fill="midnightblue" stroke="midnightblue" points="1038.02,-192.31 1028.58,-187.51 1032.97,-197.15 1038.02,-192.31"/>
</g>
<!-- Node33&#45;&gt;Node9 -->
<g id="edge60" class="edge">
<title>Node33&#45;&gt;Node9</title>
<path fill="none" stroke="midnightblue" d="M1069.64,-459.4C1053.81,-446.78 1029.13,-422.61 1042.42,-403 1057.15,-381.29 1084.2,-370.05 1108.14,-364.23"/>
<polygon fill="midnightblue" stroke="midnightblue" points="1109.14,-367.6 1118.17,-362.06 1107.65,-360.76 1109.14,-367.6"/>
</g>
<!-- Node33&#45;&gt;Node10 -->
<g id="edge54" class="edge">
<title>Node33&#45;&gt;Node10</title>
<path fill="none" stroke="midnightblue" d="M1036.23,-459.5C985.27,-446.99 909.42,-418.26 909.42,-358 909.42,-358 909.42,-358 909.42,-300 909.42,-235.37 919.48,-207.76 970.42,-168 989.76,-152.91 1014.9,-141.99 1035.95,-134.7"/>
<polygon fill="midnightblue" stroke="midnightblue" points="1037.21,-137.97 1045.61,-131.5 1035.01,-131.32 1037.21,-137.97"/>
</g>
<!-- Node33&#45;&gt;Node11 -->
<g id="edge56" class="edge">
<title>Node33&#45;&gt;Node11</title>
<path fill="none" stroke="midnightblue" d="M1138.14,-464.36C1196.35,-459.3 1281.18,-447.8 1301.42,-423 1316.53,-404.49 1355.25,-461.31 1288.42,-291 1283.5,-278.45 1274.66,-266.21 1266.86,-256.92"/>
<polygon fill="midnightblue" stroke="midnightblue" points="1269.37,-254.47 1260.12,-249.3 1264.12,-259.11 1269.37,-254.47"/>
</g>
<!-- Node33&#45;&gt;Node22 -->
<g id="edge55" class="edge">
<title>Node33&#45;&gt;Node22</title>
<path fill="none" stroke="midnightblue" d="M1024.53,-466.4C900.63,-461.36 617.42,-440.79 617.42,-358 617.42,-358 617.42,-358 617.42,-300 617.42,-247.32 675.45,-210.26 712.43,-191.98"/>
<polygon fill="midnightblue" stroke="midnightblue" points="714.25,-194.99 721.78,-187.54 711.25,-188.67 714.25,-194.99"/>
</g>
<!-- Node34 -->
<g id="node34" class="node">
<title>Node34</title>
<g id="a_node34"><a xlink:href="sitkEvent_8h.html" target="_top" xlink:title=" ">
<polygon fill="white" stroke="black" points="937.92,-230 937.92,-249 1008.92,-249 1008.92,-230 937.92,-230"/>
<text text-anchor="middle" x="973.42" y="-237" font-family="Helvetica,sans-Serif" font-size="10.00">sitkEvent.h</text>
</a>
</g>
</g>
<!-- Node33&#45;&gt;Node34 -->
<g id="edge57" class="edge">
<title>Node33&#45;&gt;Node34</title>
<path fill="none" stroke="midnightblue" d="M1069.7,-459.2C1059.38,-450.89 1044.59,-437.56 1035.42,-423 1001.3,-368.81 983.55,-293.66 976.76,-259.16"/>
<polygon fill="midnightblue" stroke="midnightblue" points="980.16,-258.29 974.87,-249.11 973.28,-259.59 980.16,-258.29"/>
</g>
<!-- Node35 -->
<g id="node35" class="node">
<title>Node35</title>
<g id="a_node35"><a xlink:href="sitkImageConvert_8h.html" target="_top" xlink:title=" ">
<polygon fill="white" stroke="black" points="1179.92,-403.5 1179.92,-422.5 1292.92,-422.5 1292.92,-403.5 1179.92,-403.5"/>
<text text-anchor="middle" x="1236.42" y="-410.5" font-family="Helvetica,sans-Serif" font-size="10.00">sitkImageConvert.h</text>
</a>
</g>
</g>
<!-- Node33&#45;&gt;Node35 -->
<g id="edge61" class="edge">
<title>Node33&#45;&gt;Node35</title>
<path fill="none" stroke="midnightblue" d="M1105.98,-459.44C1131.95,-450.4 1173.09,-436.06 1202.22,-425.92"/>
<polygon fill="midnightblue" stroke="midnightblue" points="1203.69,-429.11 1211.98,-422.52 1201.38,-422.5 1203.69,-429.11"/>
</g>
<!-- Node36 -->
<g id="node36" class="node">
<title>Node36</title>
<g id="a_node36"><a xlink:title=" ">
<polygon fill="white" stroke="#bfbfbf" points="1051.42,-403.5 1051.42,-422.5 1111.42,-422.5 1111.42,-403.5 1051.42,-403.5"/>
<text text-anchor="middle" x="1081.42" y="-410.5" font-family="Helvetica,sans-Serif" font-size="10.00">iostream</text>
</a>
</g>
</g>
<!-- Node33&#45;&gt;Node36 -->
<g id="edge63" class="edge">
<title>Node33&#45;&gt;Node36</title>
<path fill="none" stroke="midnightblue" d="M1081.42,-459.08C1081.42,-452.01 1081.42,-441.86 1081.42,-432.99"/>
<polygon fill="midnightblue" stroke="midnightblue" points="1084.92,-432.75 1081.42,-422.75 1077.92,-432.75 1084.92,-432.75"/>
</g>
<!-- Node37 -->
<g id="node37" class="node">
<title>Node37</title>
<g id="a_node37"><a xlink:title=" ">
<polygon fill="white" stroke="#bfbfbf" points="1129.42,-403.5 1129.42,-422.5 1161.42,-422.5 1161.42,-403.5 1129.42,-403.5"/>
<text text-anchor="middle" x="1145.42" y="-410.5" font-family="Helvetica,sans-Serif" font-size="10.00">list</text>
</a>
</g>
</g>
<!-- Node33&#45;&gt;Node37 -->
<g id="edge64" class="edge">
<title>Node33&#45;&gt;Node37</title>
<path fill="none" stroke="midnightblue" d="M1091.71,-459.32C1101.26,-451.26 1115.7,-439.08 1127.21,-429.37"/>
<polygon fill="midnightblue" stroke="midnightblue" points="1129.57,-431.96 1134.95,-422.83 1125.05,-426.61 1129.57,-431.96"/>
</g>
<!-- Node34&#45;&gt;Node10 -->
<g id="edge58" class="edge">
<title>Node34&#45;&gt;Node10</title>
<path fill="none" stroke="midnightblue" d="M972.05,-229.74C970.3,-215.38 968.95,-186.58 982.42,-168 993.82,-152.3 1012.13,-141.88 1029.65,-135.06"/>
<polygon fill="midnightblue" stroke="midnightblue" points="1031.02,-138.29 1039.26,-131.63 1028.66,-131.69 1031.02,-138.29"/>
</g>
<!-- Node34&#45;&gt;Node14 -->
<g id="edge59" class="edge">
<title>Node34&#45;&gt;Node14</title>
<path fill="none" stroke="midnightblue" d="M980.16,-229.98C987.21,-221.05 998.46,-206.81 1007.28,-195.64"/>
<polygon fill="midnightblue" stroke="midnightblue" points="1010.25,-197.53 1013.7,-187.51 1004.76,-193.19 1010.25,-197.53"/>
</g>
<!-- Node35&#45;&gt;Node9 -->
<g id="edge62" class="edge">
<title>Node35&#45;&gt;Node9</title>
<path fill="none" stroke="midnightblue" d="M1223.41,-403.32C1210.89,-394.98 1191.74,-382.21 1176.95,-372.35"/>
<polygon fill="midnightblue" stroke="midnightblue" points="1178.67,-369.29 1168.41,-366.65 1174.78,-375.11 1178.67,-369.29"/>
</g>
<!-- Node38&#45;&gt;Node2 -->
<g id="edge66" class="edge">
<title>Node38&#45;&gt;Node2</title>
<path fill="none" stroke="midnightblue" d="M1471.4,-459.33C1483.22,-441.32 1508.42,-398.19 1508.42,-358 1508.42,-358 1508.42,-358 1508.42,-177 1508.42,-110 1283.73,-80.7 1183.6,-70.97"/>
<polygon fill="midnightblue" stroke="midnightblue" points="1183.74,-67.47 1173.45,-70.01 1183.08,-74.44 1183.74,-67.47"/>
</g>
<!-- Node39&#45;&gt;Node16 -->
<g id="edge68" class="edge">
<title>Node39&#45;&gt;Node16</title>
<path fill="none" stroke="midnightblue" d="M511.08,-347.08C511.61,-340.01 512.36,-329.86 513.02,-320.99"/>
<polygon fill="midnightblue" stroke="midnightblue" points="516.53,-320.98 513.78,-310.75 509.55,-320.47 516.53,-320.98"/>
</g>
<!-- Node39&#45;&gt;Node17 -->
<g id="edge69" class="edge">
<title>Node39&#45;&gt;Node17</title>
<path fill="none" stroke="midnightblue" d="M430.76,-350.57C372.18,-344.79 299.42,-333.27 279.42,-311 268.4,-298.72 267.29,-279.9 268.73,-264.8"/>
<polygon fill="midnightblue" stroke="midnightblue" points="272.24,-264.99 270.13,-254.6 265.3,-264.04 272.24,-264.99"/>
</g>
<!-- Node39&#45;&gt;Node28 -->
<g id="edge70" class="edge">
<title>Node39&#45;&gt;Node28</title>
<path fill="none" stroke="midnightblue" d="M527.56,-347.32C567.19,-327.24 665.36,-277.51 712.43,-253.67"/>
<polygon fill="midnightblue" stroke="midnightblue" points="714.06,-256.77 721.4,-249.12 710.9,-250.52 714.06,-256.77"/>
</g>
<!-- Node40 -->
<g id="node40" class="node">
<title>Node40</title>
<g id="a_node40"><a xlink:title=" ">
<polygon fill="white" stroke="#bfbfbf" points="288.92,-291.5 288.92,-310.5 459.92,-310.5 459.92,-291.5 288.92,-291.5"/>
<text text-anchor="middle" x="374.42" y="-298.5" font-family="Helvetica,sans-Serif" font-size="10.00">sitkMemberFunctionFactory.hxx</text>
</a>
</g>
</g>
<!-- Node39&#45;&gt;Node40 -->
<g id="edge71" class="edge">
<title>Node39&#45;&gt;Node40</title>
<path fill="none" stroke="midnightblue" d="M488.87,-347.44C466.39,-338.52 430.94,-324.44 405.44,-314.32"/>
<polygon fill="midnightblue" stroke="midnightblue" points="406.46,-310.95 395.87,-310.52 403.88,-317.46 406.46,-310.95"/>
</g>
</g>
</svg>
        <g id="navigator" transform="translate(0 0)" fill="#404254">
                <rect fill="#f2f5e9" fill-opacity="0.5" stroke="#606060" stroke-width=".5" x="0" y="0" width="60" height="60"/>
                <use id="zoomplus" xlink:href="#zoomPlus" x="17" y="9" onmousedown="handleZoom(evt,'in')"/>
                <use id="zoomminus" xlink:href="#zoomMin" x="42" y="9" onmousedown="handleZoom(evt,'out')"/>
                <use id="reset" xlink:href="#resetDef" x="30" y="36" onmousedown="handleReset()"/>
                <g id="arrowUp" xlink:href="#dirArrow" transform="translate(30 24)" onmousedown="handlePan(0,-1)">
                  <use xlink:href="#rim" fill="#404040">
                        <set attributeName="fill" to="#808080" begin="arrowUp.mouseover" end="arrowUp.mouseout"/>
                  </use>
                  <path fill="none" stroke="white" stroke-width="1.5" d="M0,-3.0v7 M-2.5,-0.5L0,-3.0L2.5,-0.5"/>
                </g>
                <g id="arrowRight" xlink:href="#dirArrow" transform="rotate(90) translate(36 -43)" onmousedown="handlePan(1,0)">
                  <use xlink:href="#rim" fill="#404040">
                        <set attributeName="fill" to="#808080" begin="arrowRight.mouseover" end="arrowRight.mouseout"/>
                  </use>
                  <path fill="none" stroke="white" stroke-width="1.5" d="M0,-3.0v7 M-2.5,-0.5L0,-3.0L2.5,-0.5"/>
                </g>
                <g id="arrowDown" xlink:href="#dirArrow" transform="rotate(180) translate(-30 -48)" onmousedown="handlePan(0,1)">
                  <use xlink:href="#rim" fill="#404040">
                        <set attributeName="fill" to="#808080" begin="arrowDown.mouseover" end="arrowDown.mouseout"/>
                  </use>
                  <path fill="none" stroke="white" stroke-width="1.5" d="M0,-3.0v7 M-2.5,-0.5L0,-3.0L2.5,-0.5"/>
                </g>
                <g id="arrowLeft" xlink:href="#dirArrow" transform="rotate(270) translate(-36 17)" onmousedown="handlePan(-1,0)">
                  <use xlink:href="#rim" fill="#404040">
                        <set attributeName="fill" to="#808080" begin="arrowLeft.mouseover" end="arrowLeft.mouseout"/>
                  </use>
                  <path fill="none" stroke="white" stroke-width="1.5" d="M0,-3.0v7 M-2.5,-0.5L0,-3.0L2.5,-0.5"/>
                </g>
        </g>
        <svg viewBox="0 0 15 15" width="100%" height="30px" preserveAspectRatio="xMaxYMin meet">
         <g id="arrow_out" transform="scale(0.3 0.3)">
          <a xlink:href="sitkImageSeriesWriter_8h__incl_org.svg" target="_base">
           <rect id="button" ry="5" rx="5" y="6" x="6" height="38" width="38"
                fill="#f2f5e9" fill-opacity="0.5" stroke="#606060" stroke-width="1.0"/>
           <path id="arrow"
             d="M 11.500037,31.436501 C 11.940474,20.09759 22.043105,11.32322 32.158766,21.979434 L 37.068811,17.246167 C 37.068811,17.246167 37.088388,32 37.088388,32 L 22.160133,31.978069 C 22.160133,31.978069 26.997745,27.140456 26.997745,27.140456 C 18.528582,18.264221 13.291696,25.230495 11.500037,31.436501 z"
             style="fill:#404040;"/>
          </a>
         </g>
        </svg>
</svg>
