<?xml version="1.0" encoding="UTF-8" standalone="no"?>
<!DOCTYPE svg PUBLIC "-//W3C//DTD SVG 1.1//EN"
 "http://www.w3.org/Graphics/SVG/1.1/DTD/svg11.dtd">
<!-- Generated by graphviz version 2.43.0 (0)
 -->
<!-- Title: sitkImageFilter.h Pages: 1 -->
<svg width="1801pt" height="543pt"
 viewBox="0.00 0.00 1800.50 543.00" xmlns="http://www.w3.org/2000/svg" xmlns:xlink="http://www.w3.org/1999/xlink">
<g id="graph0" class="graph" transform="scale(1 1) rotate(0) translate(4 539)">
<title>sitkImageFilter.h</title>
<polygon fill="white" stroke="transparent" points="-4,4 -4,-539 1796.5,-539 1796.5,4 -4,4"/>
<!-- Node1 -->
<g id="node1" class="node">
<title>Node1</title>
<g id="a_node1"><a xlink:title=" ">
<polygon fill="#bfbfbf" stroke="black" points="1290.5,-515.5 1290.5,-534.5 1388.5,-534.5 1388.5,-515.5 1290.5,-515.5"/>
<text text-anchor="middle" x="1339.5" y="-522.5" font-family="Helvetica,sans-Serif" font-size="10.00">sitkImageFilter.h</text>
</a>
</g>
</g>
<!-- Node2 -->
<g id="node2" class="node">
<title>Node2</title>
<g id="a_node2"><a xlink:href="sitkMacro_8h.html" target="_top" xlink:title=" ">
<polygon fill="white" stroke="black" points="1174.5,-56.5 1174.5,-75.5 1248.5,-75.5 1248.5,-56.5 1174.5,-56.5"/>
<text text-anchor="middle" x="1211.5" y="-63.5" font-family="Helvetica,sans-Serif" font-size="10.00">sitkMacro.h</text>
</a>
</g>
</g>
<!-- Node1&#45;&gt;Node2 -->
<g id="edge1" class="edge">
<title>Node1&#45;&gt;Node2</title>
<path fill="none" stroke="midnightblue" d="M1388.84,-522.41C1506.25,-517.28 1792.5,-496.35 1792.5,-414 1792.5,-414 1792.5,-414 1792.5,-177 1792.5,-132.21 1756.84,-129.24 1715.5,-112 1633.71,-77.9 1367.83,-69.6 1258.8,-67.61"/>
<polygon fill="midnightblue" stroke="midnightblue" points="1258.81,-64.11 1248.75,-67.44 1258.69,-71.11 1258.81,-64.11"/>
</g>
<!-- Node9 -->
<g id="node9" class="node">
<title>Node9</title>
<g id="a_node9"><a xlink:href="sitkMemberFunctionFactory_8h.html" target="_top" xlink:title=" ">
<polygon fill="white" stroke="black" points="515,-347.5 515,-366.5 674,-366.5 674,-347.5 515,-347.5"/>
<text text-anchor="middle" x="594.5" y="-354.5" font-family="Helvetica,sans-Serif" font-size="10.00">sitkMemberFunctionFactory.h</text>
</a>
</g>
</g>
<!-- Node1&#45;&gt;Node9 -->
<g id="edge8" class="edge">
<title>Node1&#45;&gt;Node9</title>
<path fill="none" stroke="midnightblue" d="M1290.39,-517.46C1232.91,-509.54 1134.96,-495.23 1051.5,-479 943.98,-458.09 917.35,-451.17 811.5,-423 747.47,-405.96 673.72,-383.19 630.79,-369.62"/>
<polygon fill="midnightblue" stroke="midnightblue" points="631.66,-366.23 621.07,-366.54 629.55,-372.9 631.66,-366.23"/>
</g>
<!-- Node26 -->
<g id="node26" class="node">
<title>Node26</title>
<g id="a_node26"><a xlink:href="sitkBasicFilters_8h.html" target="_top" xlink:title=" ">
<polygon fill="white" stroke="black" points="1493.5,-459.5 1493.5,-478.5 1593.5,-478.5 1593.5,-459.5 1493.5,-459.5"/>
<text text-anchor="middle" x="1543.5" y="-466.5" font-family="Helvetica,sans-Serif" font-size="10.00">sitkBasicFilters.h</text>
</a>
</g>
</g>
<!-- Node1&#45;&gt;Node26 -->
<g id="edge36" class="edge">
<title>Node1&#45;&gt;Node26</title>
<path fill="none" stroke="midnightblue" d="M1371.82,-515.44C1406.89,-506.16 1463,-491.31 1501.46,-481.13"/>
<polygon fill="midnightblue" stroke="midnightblue" points="1502.56,-484.46 1511.33,-478.52 1500.76,-477.69 1502.56,-484.46"/>
</g>
<!-- Node40 -->
<g id="node40" class="node">
<title>Node40</title>
<g id="a_node40"><a xlink:href="sitkProcessObject_8h.html" target="_top" xlink:title=" ">
<polygon fill="white" stroke="black" points="1061,-459.5 1061,-478.5 1174,-478.5 1174,-459.5 1061,-459.5"/>
<text text-anchor="middle" x="1117.5" y="-466.5" font-family="Helvetica,sans-Serif" font-size="10.00">sitkProcessObject.h</text>
</a>
</g>
</g>
<!-- Node1&#45;&gt;Node40 -->
<g id="edge71" class="edge">
<title>Node1&#45;&gt;Node40</title>
<path fill="none" stroke="midnightblue" d="M1304.32,-515.44C1265.92,-506.1 1204.32,-491.12 1162.44,-480.93"/>
<polygon fill="midnightblue" stroke="midnightblue" points="1163.06,-477.48 1152.51,-478.52 1161.4,-484.28 1163.06,-477.48"/>
</g>
<!-- Node3 -->
<g id="node3" class="node">
<title>Node3</title>
<g id="a_node3"><a xlink:title=" ">
<polygon fill="white" stroke="#bfbfbf" points="917,-0.5 917,-19.5 970,-19.5 970,-0.5 917,-0.5"/>
<text text-anchor="middle" x="943.5" y="-7.5" font-family="Helvetica,sans-Serif" font-size="10.00">stdint.h</text>
</a>
</g>
</g>
<!-- Node2&#45;&gt;Node3 -->
<g id="edge2" class="edge">
<title>Node2&#45;&gt;Node3</title>
<path fill="none" stroke="midnightblue" d="M1174.24,-57.49C1122.97,-47.16 1031.25,-28.68 980.26,-18.41"/>
<polygon fill="midnightblue" stroke="midnightblue" points="980.82,-14.95 970.32,-16.4 979.43,-21.81 980.82,-14.95"/>
</g>
<!-- Node4 -->
<g id="node4" class="node">
<title>Node4</title>
<g id="a_node4"><a xlink:title=" ">
<polygon fill="white" stroke="#bfbfbf" points="1217.5,-0.5 1217.5,-19.5 1273.5,-19.5 1273.5,-0.5 1217.5,-0.5"/>
<text text-anchor="middle" x="1245.5" y="-7.5" font-family="Helvetica,sans-Serif" font-size="10.00">stddef.h</text>
</a>
</g>
</g>
<!-- Node2&#45;&gt;Node4 -->
<g id="edge3" class="edge">
<title>Node2&#45;&gt;Node4</title>
<path fill="none" stroke="midnightblue" d="M1217.11,-56.08C1221.87,-48.53 1228.82,-37.49 1234.65,-28.23"/>
<polygon fill="midnightblue" stroke="midnightblue" points="1237.62,-30.08 1239.99,-19.75 1231.7,-26.35 1237.62,-30.08"/>
</g>
<!-- Node5 -->
<g id="node5" class="node">
<title>Node5</title>
<g id="a_node5"><a xlink:title=" ">
<polygon fill="white" stroke="#bfbfbf" points="1291.5,-0.5 1291.5,-19.5 1343.5,-19.5 1343.5,-0.5 1291.5,-0.5"/>
<text text-anchor="middle" x="1317.5" y="-7.5" font-family="Helvetica,sans-Serif" font-size="10.00">cassert</text>
</a>
</g>
</g>
<!-- Node2&#45;&gt;Node5 -->
<g id="edge4" class="edge">
<title>Node2&#45;&gt;Node5</title>
<path fill="none" stroke="midnightblue" d="M1228.53,-56.32C1245.53,-47.66 1271.88,-34.24 1291.49,-24.25"/>
<polygon fill="midnightblue" stroke="midnightblue" points="1293.19,-27.31 1300.51,-19.65 1290.01,-21.08 1293.19,-27.31"/>
</g>
<!-- Node6 -->
<g id="node6" class="node">
<title>Node6</title>
<g id="a_node6"><a xlink:title=" ">
<polygon fill="white" stroke="#bfbfbf" points="1081.5,-0.5 1081.5,-19.5 1137.5,-19.5 1137.5,-0.5 1081.5,-0.5"/>
<text text-anchor="middle" x="1109.5" y="-7.5" font-family="Helvetica,sans-Serif" font-size="10.00">sstream</text>
</a>
</g>
</g>
<!-- Node2&#45;&gt;Node6 -->
<g id="edge5" class="edge">
<title>Node2&#45;&gt;Node6</title>
<path fill="none" stroke="midnightblue" d="M1195.11,-56.32C1178.83,-47.7 1153.63,-34.36 1134.78,-24.39"/>
<polygon fill="midnightblue" stroke="midnightblue" points="1136.32,-21.24 1125.85,-19.65 1133.05,-27.43 1136.32,-21.24"/>
</g>
<!-- Node7 -->
<g id="node7" class="node">
<title>Node7</title>
<g id="a_node7"><a xlink:title=" ">
<polygon fill="white" stroke="#bfbfbf" points="1155.5,-0.5 1155.5,-19.5 1199.5,-19.5 1199.5,-0.5 1155.5,-0.5"/>
<text text-anchor="middle" x="1177.5" y="-7.5" font-family="Helvetica,sans-Serif" font-size="10.00">limits</text>
</a>
</g>
</g>
<!-- Node2&#45;&gt;Node7 -->
<g id="edge6" class="edge">
<title>Node2&#45;&gt;Node7</title>
<path fill="none" stroke="midnightblue" d="M1205.89,-56.08C1201.13,-48.53 1194.18,-37.49 1188.35,-28.23"/>
<polygon fill="midnightblue" stroke="midnightblue" points="1191.3,-26.35 1183.01,-19.75 1185.38,-30.08 1191.3,-26.35"/>
</g>
<!-- Node8 -->
<g id="node8" class="node">
<title>Node8</title>
<g id="a_node8"><a xlink:href="sitkConfigure_8h.html" target="_top" xlink:title=" ">
<polygon fill="white" stroke="black" points="592.5,-0.5 592.5,-19.5 682.5,-19.5 682.5,-0.5 592.5,-0.5"/>
<text text-anchor="middle" x="637.5" y="-7.5" font-family="Helvetica,sans-Serif" font-size="10.00">sitkConfigure.h</text>
</a>
</g>
</g>
<!-- Node2&#45;&gt;Node8 -->
<g id="edge7" class="edge">
<title>Node2&#45;&gt;Node8</title>
<path fill="none" stroke="midnightblue" d="M1174.28,-61.5C1076.01,-52.25 809.19,-27.15 692.91,-16.21"/>
<polygon fill="midnightblue" stroke="midnightblue" points="693.09,-12.71 682.8,-15.26 692.43,-19.68 693.09,-12.71"/>
</g>
<!-- Node10 -->
<g id="node10" class="node">
<title>Node10</title>
<g id="a_node10"><a xlink:href="sitkDetail_8h.html" target="_top" xlink:title=" ">
<polygon fill="white" stroke="black" points="558,-291.5 558,-310.5 631,-310.5 631,-291.5 558,-291.5"/>
<text text-anchor="middle" x="594.5" y="-298.5" font-family="Helvetica,sans-Serif" font-size="10.00">sitkDetail.h</text>
</a>
</g>
</g>
<!-- Node9&#45;&gt;Node10 -->
<g id="edge9" class="edge">
<title>Node9&#45;&gt;Node10</title>
<path fill="none" stroke="midnightblue" d="M594.5,-347.08C594.5,-340.01 594.5,-329.86 594.5,-320.99"/>
<polygon fill="midnightblue" stroke="midnightblue" points="598,-320.75 594.5,-310.75 591,-320.75 598,-320.75"/>
</g>
<!-- Node11 -->
<g id="node11" class="node">
<title>Node11</title>
<g id="a_node11"><a xlink:href="sitkMemberFunctionFactoryBase_8h.html" target="_top" xlink:title=" ">
<polygon fill="white" stroke="black" points="264.5,-224.5 264.5,-254.5 416.5,-254.5 416.5,-224.5 264.5,-224.5"/>
<text text-anchor="start" x="272.5" y="-242.5" font-family="Helvetica,sans-Serif" font-size="10.00">sitkMemberFunctionFactory</text>
<text text-anchor="middle" x="340.5" y="-231.5" font-family="Helvetica,sans-Serif" font-size="10.00">Base.h</text>
</a>
</g>
</g>
<!-- Node9&#45;&gt;Node11 -->
<g id="edge29" class="edge">
<title>Node9&#45;&gt;Node11</title>
<path fill="none" stroke="midnightblue" d="M514.84,-349.74C455.79,-343.49 381.84,-331.74 359.5,-311 346.94,-299.34 342.35,-280.33 340.81,-264.99"/>
<polygon fill="midnightblue" stroke="midnightblue" points="344.28,-264.39 340.16,-254.63 337.29,-264.83 344.28,-264.39"/>
</g>
<!-- Node22 -->
<g id="node22" class="node">
<title>Node22</title>
<g id="a_node22"><a xlink:href="sitkPixelIDValues_8h.html" target="_top" xlink:title=" ">
<polygon fill="white" stroke="black" points="687.5,-230 687.5,-249 797.5,-249 797.5,-230 687.5,-230"/>
<text text-anchor="middle" x="742.5" y="-237" font-family="Helvetica,sans-Serif" font-size="10.00">sitkPixelIDValues.h</text>
</a>
</g>
</g>
<!-- Node9&#45;&gt;Node22 -->
<g id="edge30" class="edge">
<title>Node9&#45;&gt;Node22</title>
<path fill="none" stroke="midnightblue" d="M605.62,-347.32C630.69,-327.75 691.86,-280.02 723.24,-255.53"/>
<polygon fill="midnightblue" stroke="midnightblue" points="725.52,-258.19 731.25,-249.28 721.21,-252.68 725.52,-258.19"/>
</g>
<!-- Node25 -->
<g id="node25" class="node">
<title>Node25</title>
<g id="a_node25"><a xlink:title=" ">
<polygon fill="white" stroke="#bfbfbf" points="369,-291.5 369,-310.5 540,-310.5 540,-291.5 369,-291.5"/>
<text text-anchor="middle" x="454.5" y="-298.5" font-family="Helvetica,sans-Serif" font-size="10.00">sitkMemberFunctionFactory.hxx</text>
</a>
</g>
</g>
<!-- Node9&#45;&gt;Node25 -->
<g id="edge35" class="edge">
<title>Node9&#45;&gt;Node25</title>
<path fill="none" stroke="midnightblue" d="M572.32,-347.44C549.07,-338.48 512.35,-324.31 486.08,-314.18"/>
<polygon fill="midnightblue" stroke="midnightblue" points="487.17,-310.85 476.58,-310.52 484.65,-317.38 487.17,-310.85"/>
</g>
<!-- Node10&#45;&gt;Node11 -->
<g id="edge10" class="edge">
<title>Node10&#45;&gt;Node11</title>
<path fill="none" stroke="midnightblue" d="M558.11,-291.48C519.69,-282.48 458.19,-268.07 410.35,-256.86"/>
<polygon fill="midnightblue" stroke="midnightblue" points="410.9,-253.4 400.36,-254.52 409.3,-260.21 410.9,-253.4"/>
</g>
<!-- Node18 -->
<g id="node18" class="node">
<title>Node18</title>
<g id="a_node18"><a xlink:title=" ">
<polygon fill="white" stroke="#bfbfbf" points="369,-168.5 369,-187.5 508,-187.5 508,-168.5 369,-168.5"/>
<text text-anchor="middle" x="438.5" y="-175.5" font-family="Helvetica,sans-Serif" font-size="10.00">Ancillary/FunctionTraits.h</text>
</a>
</g>
</g>
<!-- Node10&#45;&gt;Node18 -->
<g id="edge28" class="edge">
<title>Node10&#45;&gt;Node18</title>
<path fill="none" stroke="midnightblue" d="M583.28,-291.3C556.86,-270.8 490.47,-219.31 457.58,-193.8"/>
<polygon fill="midnightblue" stroke="midnightblue" points="459.66,-190.99 449.62,-187.62 455.37,-196.52 459.66,-190.99"/>
</g>
<!-- Node11&#45;&gt;Node2 -->
<g id="edge19" class="edge">
<title>Node11&#45;&gt;Node2</title>
<path fill="none" stroke="midnightblue" d="M416.79,-228.51C481.24,-219.56 575.84,-205.2 657.5,-188 691.68,-180.8 699.51,-176.06 733.5,-168 890.73,-130.73 1078.65,-93 1164.52,-76.13"/>
<polygon fill="midnightblue" stroke="midnightblue" points="1165.34,-79.54 1174.48,-74.18 1163.99,-72.67 1165.34,-79.54"/>
</g>
<!-- Node11&#45;&gt;Node8 -->
<g id="edge11" class="edge">
<title>Node11&#45;&gt;Node8</title>
<path fill="none" stroke="midnightblue" d="M264.48,-237.35C195.67,-233.17 109.48,-218.19 140.5,-168 187.94,-91.24 463.1,-38.79 582.38,-19.37"/>
<polygon fill="midnightblue" stroke="midnightblue" points="583.09,-22.8 592.4,-17.75 581.97,-15.89 583.09,-22.8"/>
</g>
<!-- Node12 -->
<g id="node12" class="node">
<title>Node12</title>
<g id="a_node12"><a xlink:href="sitkPixelIDTypes_8h.html" target="_top" xlink:title=" ">
<polygon fill="white" stroke="black" points="262,-112.5 262,-131.5 367,-131.5 367,-112.5 262,-112.5"/>
<text text-anchor="middle" x="314.5" y="-119.5" font-family="Helvetica,sans-Serif" font-size="10.00">sitkPixelIDTypes.h</text>
</a>
</g>
</g>
<!-- Node11&#45;&gt;Node12 -->
<g id="edge12" class="edge">
<title>Node11&#45;&gt;Node12</title>
<path fill="none" stroke="midnightblue" d="M336.24,-224.44C333.28,-214.35 329.36,-200.41 326.5,-188 322.95,-172.61 319.75,-154.97 317.55,-141.96"/>
<polygon fill="midnightblue" stroke="midnightblue" points="320.97,-141.18 315.89,-131.88 314.06,-142.32 320.97,-141.18"/>
</g>
<!-- Node13 -->
<g id="node13" class="node">
<title>Node13</title>
<g id="a_node13"><a xlink:href="sitkPixelIDTypeLists_8h.html" target="_top" xlink:title=" ">
<polygon fill="white" stroke="black" points="526.5,-168.5 526.5,-187.5 648.5,-187.5 648.5,-168.5 526.5,-168.5"/>
<text text-anchor="middle" x="587.5" y="-175.5" font-family="Helvetica,sans-Serif" font-size="10.00">sitkPixelIDTypeLists.h</text>
</a>
</g>
</g>
<!-- Node11&#45;&gt;Node13 -->
<g id="edge13" class="edge">
<title>Node11&#45;&gt;Node13</title>
<path fill="none" stroke="midnightblue" d="M398.72,-224.47C442.64,-213.9 502.01,-199.59 542.36,-189.87"/>
<polygon fill="midnightblue" stroke="midnightblue" points="543.29,-193.25 552.19,-187.51 541.65,-186.45 543.29,-193.25"/>
</g>
<!-- Node14 -->
<g id="node14" class="node">
<title>Node14</title>
<g id="a_node14"><a xlink:title=" ">
<polygon fill="white" stroke="#bfbfbf" points="409,-112.5 409,-131.5 520,-131.5 520,-112.5 409,-112.5"/>
<text text-anchor="middle" x="464.5" y="-119.5" font-family="Helvetica,sans-Serif" font-size="10.00">Ancillary/TypeList.h</text>
</a>
</g>
</g>
<!-- Node11&#45;&gt;Node14 -->
<g id="edge23" class="edge">
<title>Node11&#45;&gt;Node14</title>
<path fill="none" stroke="midnightblue" d="M340.78,-224.38C341.82,-208.82 345.71,-183.89 359.5,-168 373.45,-151.92 394.17,-141.41 413.52,-134.63"/>
<polygon fill="midnightblue" stroke="midnightblue" points="414.74,-137.91 423.18,-131.5 412.59,-131.25 414.74,-137.91"/>
</g>
<!-- Node16 -->
<g id="node16" class="node">
<title>Node16</title>
<g id="a_node16"><a xlink:href="sitkNonCopyable_8h.html" target="_top" xlink:title=" ">
<polygon fill="white" stroke="black" points="743,-168.5 743,-187.5 852,-187.5 852,-168.5 743,-168.5"/>
<text text-anchor="middle" x="797.5" y="-175.5" font-family="Helvetica,sans-Serif" font-size="10.00">sitkNonCopyable.h</text>
</a>
</g>
</g>
<!-- Node11&#45;&gt;Node16 -->
<g id="edge20" class="edge">
<title>Node11&#45;&gt;Node16</title>
<path fill="none" stroke="midnightblue" d="M416.73,-228.57C505.23,-217.05 649.64,-198.25 732.86,-187.42"/>
<polygon fill="midnightblue" stroke="midnightblue" points="733.48,-190.86 742.95,-186.1 732.58,-183.92 733.48,-190.86"/>
</g>
<!-- Node11&#45;&gt;Node18 -->
<g id="edge24" class="edge">
<title>Node11&#45;&gt;Node18</title>
<path fill="none" stroke="midnightblue" d="M363.72,-224.4C379.29,-214.95 399.7,-202.56 415.26,-193.11"/>
<polygon fill="midnightblue" stroke="midnightblue" points="417.51,-195.84 424.24,-187.66 413.88,-189.86 417.51,-195.84"/>
</g>
<!-- Node19 -->
<g id="node19" class="node">
<title>Node19</title>
<g id="a_node19"><a xlink:title=" ">
<polygon fill="white" stroke="#bfbfbf" points="0,-168.5 0,-187.5 93,-187.5 93,-168.5 0,-168.5"/>
<text text-anchor="middle" x="46.5" y="-175.5" font-family="Helvetica,sans-Serif" font-size="10.00">unordered_map</text>
</a>
</g>
</g>
<!-- Node11&#45;&gt;Node19 -->
<g id="edge25" class="edge">
<title>Node11&#45;&gt;Node19</title>
<path fill="none" stroke="midnightblue" d="M271.2,-224.47C218.26,-213.76 146.46,-199.23 98.41,-189.51"/>
<polygon fill="midnightblue" stroke="midnightblue" points="99.03,-186.06 88.53,-187.51 97.64,-192.92 99.03,-186.06"/>
</g>
<!-- Node20 -->
<g id="node20" class="node">
<title>Node20</title>
<g id="a_node20"><a xlink:title=" ">
<polygon fill="white" stroke="#bfbfbf" points="150,-168.5 150,-187.5 215,-187.5 215,-168.5 150,-168.5"/>
<text text-anchor="middle" x="182.5" y="-175.5" font-family="Helvetica,sans-Serif" font-size="10.00">functional</text>
</a>
</g>
</g>
<!-- Node11&#45;&gt;Node20 -->
<g id="edge26" class="edge">
<title>Node11&#45;&gt;Node20</title>
<path fill="none" stroke="midnightblue" d="M303.06,-224.4C276.31,-214.33 240.68,-200.91 215.1,-191.28"/>
<polygon fill="midnightblue" stroke="midnightblue" points="216.08,-187.91 205.49,-187.66 213.62,-194.46 216.08,-187.91"/>
</g>
<!-- Node21 -->
<g id="node21" class="node">
<title>Node21</title>
<g id="a_node21"><a xlink:title=" ">
<polygon fill="white" stroke="#bfbfbf" points="233,-168.5 233,-187.5 274,-187.5 274,-168.5 233,-168.5"/>
<text text-anchor="middle" x="253.5" y="-175.5" font-family="Helvetica,sans-Serif" font-size="10.00">tuple</text>
</a>
</g>
</g>
<!-- Node11&#45;&gt;Node21 -->
<g id="edge27" class="edge">
<title>Node11&#45;&gt;Node21</title>
<path fill="none" stroke="midnightblue" d="M319.88,-224.4C306.2,-215.04 288.29,-202.79 274.52,-193.38"/>
<polygon fill="midnightblue" stroke="midnightblue" points="276.39,-190.41 266.16,-187.66 272.44,-196.19 276.39,-190.41"/>
</g>
<!-- Node13&#45;&gt;Node3 -->
<g id="edge14" class="edge">
<title>Node13&#45;&gt;Node3</title>
<path fill="none" stroke="midnightblue" d="M606.14,-168.31C664.77,-140.97 845.71,-56.6 915.57,-24.02"/>
<polygon fill="midnightblue" stroke="midnightblue" points="917.46,-27 925.05,-19.61 914.5,-20.66 917.46,-27"/>
</g>
<!-- Node13&#45;&gt;Node8 -->
<g id="edge15" class="edge">
<title>Node13&#45;&gt;Node8</title>
<path fill="none" stroke="midnightblue" d="M584.41,-168.44C580.32,-155.88 574.23,-131.77 579.5,-112 588.14,-79.62 609.9,-46.83 624.18,-27.73"/>
<polygon fill="midnightblue" stroke="midnightblue" points="627,-29.81 630.31,-19.75 621.45,-25.54 627,-29.81"/>
</g>
<!-- Node13&#45;&gt;Node12 -->
<g id="edge16" class="edge">
<title>Node13&#45;&gt;Node12</title>
<path fill="none" stroke="midnightblue" d="M544.24,-168.44C496.32,-158.96 419.02,-143.67 367.5,-133.48"/>
<polygon fill="midnightblue" stroke="midnightblue" points="368.04,-130.02 357.56,-131.52 366.69,-136.89 368.04,-130.02"/>
</g>
<!-- Node13&#45;&gt;Node14 -->
<g id="edge17" class="edge">
<title>Node13&#45;&gt;Node14</title>
<path fill="none" stroke="midnightblue" d="M568.01,-168.44C547.86,-159.6 516.18,-145.69 493.17,-135.59"/>
<polygon fill="midnightblue" stroke="midnightblue" points="494.46,-132.33 483.9,-131.52 491.65,-138.74 494.46,-132.33"/>
</g>
<!-- Node15 -->
<g id="node15" class="node">
<title>Node15</title>
<g id="a_node15"><a xlink:title=" ">
<polygon fill="white" stroke="#bfbfbf" points="589,-112.5 589,-131.5 648,-131.5 648,-112.5 589,-112.5"/>
<text text-anchor="middle" x="618.5" y="-119.5" font-family="Helvetica,sans-Serif" font-size="10.00">complex</text>
</a>
</g>
</g>
<!-- Node13&#45;&gt;Node15 -->
<g id="edge18" class="edge">
<title>Node13&#45;&gt;Node15</title>
<path fill="none" stroke="midnightblue" d="M592.62,-168.08C596.91,-160.61 603.16,-149.72 608.44,-140.52"/>
<polygon fill="midnightblue" stroke="midnightblue" points="611.53,-142.17 613.48,-131.75 605.46,-138.68 611.53,-142.17"/>
</g>
<!-- Node17 -->
<g id="node17" class="node">
<title>Node17</title>
<g id="a_node17"><a xlink:href="sitkCommon_8h.html" target="_top" xlink:title=" ">
<polygon fill="white" stroke="black" points="1267.5,-112.5 1267.5,-131.5 1355.5,-131.5 1355.5,-112.5 1267.5,-112.5"/>
<text text-anchor="middle" x="1311.5" y="-119.5" font-family="Helvetica,sans-Serif" font-size="10.00">sitkCommon.h</text>
</a>
</g>
</g>
<!-- Node16&#45;&gt;Node17 -->
<g id="edge21" class="edge">
<title>Node16&#45;&gt;Node17</title>
<path fill="none" stroke="midnightblue" d="M852.29,-169.15C855.41,-168.75 858.49,-168.36 861.5,-168 1004.05,-150.86 1172.57,-135.24 1257.22,-127.72"/>
<polygon fill="midnightblue" stroke="midnightblue" points="1257.71,-131.19 1267.36,-126.82 1257.09,-124.22 1257.71,-131.19"/>
</g>
<!-- Node17&#45;&gt;Node2 -->
<g id="edge22" class="edge">
<title>Node17&#45;&gt;Node2</title>
<path fill="none" stroke="midnightblue" d="M1295.43,-112.32C1279.54,-103.74 1254.99,-90.49 1236.54,-80.52"/>
<polygon fill="midnightblue" stroke="midnightblue" points="1237.99,-77.33 1227.53,-75.65 1234.66,-83.49 1237.99,-77.33"/>
</g>
<!-- Node22&#45;&gt;Node13 -->
<g id="edge32" class="edge">
<title>Node22&#45;&gt;Node13</title>
<path fill="none" stroke="midnightblue" d="M720.29,-229.98C693.82,-219.81 649.39,-202.76 619.28,-191.2"/>
<polygon fill="midnightblue" stroke="midnightblue" points="620.26,-187.83 609.67,-187.51 617.75,-194.36 620.26,-187.83"/>
</g>
<!-- Node22&#45;&gt;Node17 -->
<g id="edge31" class="edge">
<title>Node22&#45;&gt;Node17</title>
<path fill="none" stroke="midnightblue" d="M779.81,-229.98C816.8,-221.1 874.84,-205.97 923.5,-188 943.27,-180.7 946.26,-173.88 966.5,-168 1066.51,-138.97 1188.28,-128.63 1257.15,-124.97"/>
<polygon fill="midnightblue" stroke="midnightblue" points="1257.52,-128.46 1267.33,-124.46 1257.16,-121.47 1257.52,-128.46"/>
</g>
<!-- Node23 -->
<g id="node23" class="node">
<title>Node23</title>
<g id="a_node23"><a xlink:title=" ">
<polygon fill="white" stroke="#bfbfbf" points="870.5,-168.5 870.5,-187.5 914.5,-187.5 914.5,-168.5 870.5,-168.5"/>
<text text-anchor="middle" x="892.5" y="-175.5" font-family="Helvetica,sans-Serif" font-size="10.00">string</text>
</a>
</g>
</g>
<!-- Node22&#45;&gt;Node23 -->
<g id="edge33" class="edge">
<title>Node22&#45;&gt;Node23</title>
<path fill="none" stroke="midnightblue" d="M763.99,-229.98C789.61,-219.81 832.61,-202.76 861.74,-191.2"/>
<polygon fill="midnightblue" stroke="midnightblue" points="863.04,-194.45 871.05,-187.51 860.46,-187.94 863.04,-194.45"/>
</g>
<!-- Node24 -->
<g id="node24" class="node">
<title>Node24</title>
<g id="a_node24"><a xlink:title=" ">
<polygon fill="white" stroke="#bfbfbf" points="1283,-168.5 1283,-187.5 1340,-187.5 1340,-168.5 1283,-168.5"/>
<text text-anchor="middle" x="1311.5" y="-175.5" font-family="Helvetica,sans-Serif" font-size="10.00">ostream</text>
</a>
</g>
</g>
<!-- Node22&#45;&gt;Node24 -->
<g id="edge34" class="edge">
<title>Node22&#45;&gt;Node24</title>
<path fill="none" stroke="midnightblue" d="M797.76,-230.18C812.89,-228.03 829.31,-225.81 844.5,-224 1002.98,-205.11 1192.46,-188.77 1272.63,-182.15"/>
<polygon fill="midnightblue" stroke="midnightblue" points="1273.08,-185.62 1282.76,-181.32 1272.5,-178.65 1273.08,-185.62"/>
</g>
<!-- Node26&#45;&gt;Node2 -->
<g id="edge37" class="edge">
<title>Node26&#45;&gt;Node2</title>
<path fill="none" stroke="midnightblue" d="M1593.5,-463.64C1655.9,-455.15 1754.5,-430.29 1754.5,-358 1754.5,-358 1754.5,-358 1754.5,-177 1754.5,-76.33 1391.43,-66.74 1259.06,-66.6"/>
<polygon fill="midnightblue" stroke="midnightblue" points="1258.82,-63.1 1248.82,-66.6 1258.83,-70.1 1258.82,-63.1"/>
</g>
<!-- Node27 -->
<g id="node27" class="node">
<title>Node27</title>
<g id="a_node27"><a xlink:href="sitkInterpolator_8h.html" target="_top" xlink:title=" ">
<polygon fill="white" stroke="black" points="1285.5,-291.5 1285.5,-310.5 1385.5,-310.5 1385.5,-291.5 1285.5,-291.5"/>
<text text-anchor="middle" x="1335.5" y="-298.5" font-family="Helvetica,sans-Serif" font-size="10.00">sitkInterpolator.h</text>
</a>
</g>
</g>
<!-- Node26&#45;&gt;Node27 -->
<g id="edge38" class="edge">
<title>Node26&#45;&gt;Node27</title>
<path fill="none" stroke="midnightblue" d="M1496.62,-459.46C1470.41,-452.87 1438.32,-441.64 1414.5,-423 1378.9,-395.14 1354.28,-346.56 1342.82,-320.23"/>
<polygon fill="midnightblue" stroke="midnightblue" points="1345.93,-318.59 1338.83,-310.72 1339.47,-321.3 1345.93,-318.59"/>
</g>
<!-- Node28 -->
<g id="node28" class="node">
<title>Node28</title>
<g id="a_node28"><a xlink:href="sitkRandomSeed_8h.html" target="_top" xlink:title=" ">
<polygon fill="white" stroke="black" points="1604.5,-347.5 1604.5,-366.5 1712.5,-366.5 1712.5,-347.5 1604.5,-347.5"/>
<text text-anchor="middle" x="1658.5" y="-354.5" font-family="Helvetica,sans-Serif" font-size="10.00">sitkRandomSeed.h</text>
</a>
</g>
</g>
<!-- Node26&#45;&gt;Node28 -->
<g id="edge41" class="edge">
<title>Node26&#45;&gt;Node28</title>
<path fill="none" stroke="midnightblue" d="M1550.39,-459.11C1560.64,-446.13 1580.83,-421.52 1600.5,-403 1612.18,-392 1626.4,-380.93 1637.84,-372.53"/>
<polygon fill="midnightblue" stroke="midnightblue" points="1639.9,-375.36 1645.95,-366.67 1635.8,-369.69 1639.9,-375.36"/>
</g>
<!-- Node29 -->
<g id="node29" class="node">
<title>Node29</title>
<g id="a_node29"><a xlink:href="sitkKernel_8h.html" target="_top" xlink:title=" ">
<polygon fill="white" stroke="black" points="1472.5,-230 1472.5,-249 1546.5,-249 1546.5,-230 1472.5,-230"/>
<text text-anchor="middle" x="1509.5" y="-237" font-family="Helvetica,sans-Serif" font-size="10.00">sitkKernel.h</text>
</a>
</g>
</g>
<!-- Node26&#45;&gt;Node29 -->
<g id="edge43" class="edge">
<title>Node26&#45;&gt;Node29</title>
<path fill="none" stroke="midnightblue" d="M1542.21,-459.36C1537.23,-426.07 1519.24,-305.65 1512.28,-259.07"/>
<polygon fill="midnightblue" stroke="midnightblue" points="1515.73,-258.52 1510.79,-249.15 1508.81,-259.56 1515.73,-258.52"/>
</g>
<!-- Node30 -->
<g id="node30" class="node">
<title>Node30</title>
<g id="a_node30"><a xlink:href="sitkTransform_8h.html" target="_top" xlink:title=" ">
<polygon fill="white" stroke="black" points="1423.5,-403.5 1423.5,-422.5 1515.5,-422.5 1515.5,-403.5 1423.5,-403.5"/>
<text text-anchor="middle" x="1469.5" y="-410.5" font-family="Helvetica,sans-Serif" font-size="10.00">sitkTransform.h</text>
</a>
</g>
</g>
<!-- Node26&#45;&gt;Node30 -->
<g id="edge46" class="edge">
<title>Node26&#45;&gt;Node30</title>
<path fill="none" stroke="midnightblue" d="M1531.61,-459.32C1520.35,-451.11 1503.21,-438.6 1489.79,-428.81"/>
<polygon fill="midnightblue" stroke="midnightblue" points="1491.75,-425.9 1481.61,-422.83 1487.62,-431.56 1491.75,-425.9"/>
</g>
<!-- Node39 -->
<g id="node39" class="node">
<title>Node39</title>
<g id="a_node39"><a xlink:title=" ">
<polygon fill="white" stroke="#bfbfbf" points="1609.5,-403.5 1609.5,-422.5 1647.5,-422.5 1647.5,-403.5 1609.5,-403.5"/>
<text text-anchor="middle" x="1628.5" y="-410.5" font-family="Helvetica,sans-Serif" font-size="10.00">map</text>
</a>
</g>
</g>
<!-- Node26&#45;&gt;Node39 -->
<g id="edge70" class="edge">
<title>Node26&#45;&gt;Node39</title>
<path fill="none" stroke="midnightblue" d="M1557.16,-459.32C1570.42,-450.9 1590.77,-437.97 1606.35,-428.07"/>
<polygon fill="midnightblue" stroke="midnightblue" points="1608.31,-430.97 1614.88,-422.65 1604.56,-425.06 1608.31,-430.97"/>
</g>
<!-- Node27&#45;&gt;Node17 -->
<g id="edge39" class="edge">
<title>Node27&#45;&gt;Node17</title>
<path fill="none" stroke="midnightblue" d="M1338.85,-291.35C1346.68,-269.79 1364.35,-212.22 1348.5,-168 1344.56,-157 1336.64,-146.77 1329.14,-138.85"/>
<polygon fill="midnightblue" stroke="midnightblue" points="1331.52,-136.28 1321.94,-131.76 1326.61,-141.27 1331.52,-136.28"/>
</g>
<!-- Node27&#45;&gt;Node24 -->
<g id="edge40" class="edge">
<title>Node27&#45;&gt;Node24</title>
<path fill="none" stroke="midnightblue" d="M1333.77,-291.3C1329.9,-271.76 1320.44,-224.06 1315.18,-197.55"/>
<polygon fill="midnightblue" stroke="midnightblue" points="1318.59,-196.75 1313.21,-187.62 1311.72,-198.11 1318.59,-196.75"/>
</g>
<!-- Node28&#45;&gt;Node17 -->
<g id="edge42" class="edge">
<title>Node28&#45;&gt;Node17</title>
<path fill="none" stroke="midnightblue" d="M1665.72,-347.4C1683.63,-324.97 1726.65,-263.67 1697.5,-224 1658.32,-170.68 1462.66,-140.7 1365.88,-128.91"/>
<polygon fill="midnightblue" stroke="midnightblue" points="1366.05,-125.41 1355.71,-127.69 1365.22,-132.36 1366.05,-125.41"/>
</g>
<!-- Node29&#45;&gt;Node17 -->
<g id="edge44" class="edge">
<title>Node29&#45;&gt;Node17</title>
<path fill="none" stroke="midnightblue" d="M1505.51,-229.72C1498.28,-214.8 1481.6,-184.52 1458.5,-168 1431.21,-148.49 1395.29,-137.29 1365.78,-130.94"/>
<polygon fill="midnightblue" stroke="midnightblue" points="1366.14,-127.44 1355.64,-128.89 1364.75,-134.3 1366.14,-127.44"/>
</g>
<!-- Node29&#45;&gt;Node24 -->
<g id="edge45" class="edge">
<title>Node29&#45;&gt;Node24</title>
<path fill="none" stroke="midnightblue" d="M1481.13,-229.98C1446.58,-219.59 1388.08,-202.01 1349.62,-190.45"/>
<polygon fill="midnightblue" stroke="midnightblue" points="1350.4,-187.04 1339.82,-187.51 1348.39,-193.74 1350.4,-187.04"/>
</g>
<!-- Node30&#45;&gt;Node17 -->
<g id="edge47" class="edge">
<title>Node30&#45;&gt;Node17</title>
<path fill="none" stroke="midnightblue" d="M1470.45,-403.24C1473.68,-368.84 1480.91,-241.39 1420.5,-168 1406.63,-151.16 1385.43,-140.54 1365.39,-133.88"/>
<polygon fill="midnightblue" stroke="midnightblue" points="1366.27,-130.49 1355.68,-130.92 1364.23,-137.19 1366.27,-130.49"/>
</g>
<!-- Node31 -->
<g id="node31" class="node">
<title>Node31</title>
<g id="a_node31"><a xlink:href="sitkExceptionObject_8h.html" target="_top" xlink:title=" ">
<polygon fill="white" stroke="black" points="1565,-230 1565,-249 1688,-249 1688,-230 1565,-230"/>
<text text-anchor="middle" x="1626.5" y="-237" font-family="Helvetica,sans-Serif" font-size="10.00">sitkExceptionObject.h</text>
</a>
</g>
</g>
<!-- Node30&#45;&gt;Node31 -->
<g id="edge48" class="edge">
<title>Node30&#45;&gt;Node31</title>
<path fill="none" stroke="midnightblue" d="M1477.5,-403.26C1502.49,-375.96 1579.35,-292 1611.8,-256.55"/>
<polygon fill="midnightblue" stroke="midnightblue" points="1614.53,-258.76 1618.7,-249.02 1609.37,-254.03 1614.53,-258.76"/>
</g>
<!-- Node32 -->
<g id="node32" class="node">
<title>Node32</title>
<g id="a_node32"><a xlink:href="sitkImage_8h.html" target="_top" xlink:title=" ">
<polygon fill="white" stroke="black" points="933.5,-347.5 933.5,-366.5 1007.5,-366.5 1007.5,-347.5 933.5,-347.5"/>
<text text-anchor="middle" x="970.5" y="-354.5" font-family="Helvetica,sans-Serif" font-size="10.00">sitkImage.h</text>
</a>
</g>
</g>
<!-- Node30&#45;&gt;Node32 -->
<g id="edge51" class="edge">
<title>Node30&#45;&gt;Node32</title>
<path fill="none" stroke="midnightblue" d="M1423.41,-407.09C1346.39,-398.87 1186.64,-381.78 1051.5,-367 1040.52,-365.8 1028.7,-364.49 1017.57,-363.26"/>
<polygon fill="midnightblue" stroke="midnightblue" points="1017.92,-359.78 1007.6,-362.15 1017.15,-366.73 1017.92,-359.78"/>
</g>
<!-- Node34 -->
<g id="node34" class="node">
<title>Node34</title>
<g id="a_node34"><a xlink:title=" ">
<polygon fill="white" stroke="#bfbfbf" points="980,-230 980,-249 1027,-249 1027,-230 980,-230"/>
<text text-anchor="middle" x="1003.5" y="-237" font-family="Helvetica,sans-Serif" font-size="10.00">vector</text>
</a>
</g>
</g>
<!-- Node30&#45;&gt;Node34 -->
<g id="edge69" class="edge">
<title>Node30&#45;&gt;Node34</title>
<path fill="none" stroke="midnightblue" d="M1428,-403.48C1361.7,-389.09 1228.57,-356.98 1122.5,-311 1086.13,-295.23 1047.18,-270.48 1024.1,-254.89"/>
<polygon fill="midnightblue" stroke="midnightblue" points="1026.03,-251.97 1015.8,-249.21 1022.07,-257.75 1026.03,-251.97"/>
</g>
<!-- Node31&#45;&gt;Node2 -->
<g id="edge49" class="edge">
<title>Node31&#45;&gt;Node2</title>
<path fill="none" stroke="midnightblue" d="M1615.35,-229.98C1596.32,-215.71 1555.95,-186.72 1518.5,-168 1431.02,-124.27 1320.35,-93.27 1258.62,-77.93"/>
<polygon fill="midnightblue" stroke="midnightblue" points="1259.32,-74.5 1248.78,-75.52 1257.66,-81.3 1259.32,-74.5"/>
</g>
<!-- Node31&#45;&gt;Node17 -->
<g id="edge50" class="edge">
<title>Node31&#45;&gt;Node17</title>
<path fill="none" stroke="midnightblue" d="M1611.39,-229.85C1585.63,-215.41 1531.28,-186.16 1482.5,-168 1443.35,-153.43 1397.51,-141.64 1363.15,-133.78"/>
<polygon fill="midnightblue" stroke="midnightblue" points="1363.85,-130.35 1353.33,-131.57 1362.32,-137.18 1363.85,-130.35"/>
</g>
<!-- Node32&#45;&gt;Node10 -->
<g id="edge60" class="edge">
<title>Node32&#45;&gt;Node10</title>
<path fill="none" stroke="midnightblue" d="M933.42,-350.67C864.5,-340.78 716.81,-319.57 641.2,-308.71"/>
<polygon fill="midnightblue" stroke="midnightblue" points="641.42,-305.2 631.03,-307.25 640.43,-312.13 641.42,-305.2"/>
</g>
<!-- Node32&#45;&gt;Node17 -->
<g id="edge52" class="edge">
<title>Node32&#45;&gt;Node17</title>
<path fill="none" stroke="midnightblue" d="M959.79,-347.3C950.56,-339.07 937.91,-325.79 932.5,-311 918.01,-271.37 937.46,-250.25 970.5,-224 1055.51,-156.45 1184.63,-134.05 1257.15,-126.64"/>
<polygon fill="midnightblue" stroke="midnightblue" points="1257.81,-130.09 1267.43,-125.65 1257.14,-123.12 1257.81,-130.09"/>
</g>
<!-- Node32&#45;&gt;Node27 -->
<g id="edge65" class="edge">
<title>Node32&#45;&gt;Node27</title>
<path fill="none" stroke="midnightblue" d="M1007.59,-350.56C1065.01,-342.12 1178.88,-325.37 1275.5,-311 1275.6,-310.98 1275.7,-310.97 1275.8,-310.95"/>
<polygon fill="midnightblue" stroke="midnightblue" points="1276.04,-314.46 1285.41,-309.52 1275,-307.54 1276.04,-314.46"/>
</g>
<!-- Node33 -->
<g id="node33" class="node">
<title>Node33</title>
<g id="a_node33"><a xlink:href="sitkTemplateFunctions_8h.html" target="_top" xlink:title=" ">
<polygon fill="white" stroke="black" points="1132,-291.5 1132,-310.5 1267,-310.5 1267,-291.5 1132,-291.5"/>
<text text-anchor="middle" x="1199.5" y="-298.5" font-family="Helvetica,sans-Serif" font-size="10.00">sitkTemplateFunctions.h</text>
</a>
</g>
</g>
<!-- Node32&#45;&gt;Node33 -->
<g id="edge53" class="edge">
<title>Node32&#45;&gt;Node33</title>
<path fill="none" stroke="midnightblue" d="M1006.79,-347.44C1046.48,-338.08 1110.21,-323.06 1153.41,-312.87"/>
<polygon fill="midnightblue" stroke="midnightblue" points="1154.45,-316.22 1163.38,-310.52 1152.85,-309.41 1154.45,-316.22"/>
</g>
<!-- Node32&#45;&gt;Node34 -->
<g id="edge66" class="edge">
<title>Node32&#45;&gt;Node34</title>
<path fill="none" stroke="midnightblue" d="M981.21,-347.3C990.44,-339.07 1003.09,-325.79 1008.5,-311 1014.68,-294.1 1012.14,-273.43 1008.84,-258.86"/>
<polygon fill="midnightblue" stroke="midnightblue" points="1012.2,-257.86 1006.3,-249.06 1005.42,-259.62 1012.2,-257.86"/>
</g>
<!-- Node36 -->
<g id="node36" class="node">
<title>Node36</title>
<g id="a_node36"><a xlink:href="sitkPixelIDTokens_8h.html" target="_top" xlink:title=" ">
<polygon fill="white" stroke="black" points="687.5,-291.5 687.5,-310.5 797.5,-310.5 797.5,-291.5 687.5,-291.5"/>
<text text-anchor="middle" x="742.5" y="-298.5" font-family="Helvetica,sans-Serif" font-size="10.00">sitkPixelIDTokens.h</text>
</a>
</g>
</g>
<!-- Node32&#45;&gt;Node36 -->
<g id="edge61" class="edge">
<title>Node32&#45;&gt;Node36</title>
<path fill="none" stroke="midnightblue" d="M934.37,-347.44C894.85,-338.08 831.4,-323.06 788.39,-312.87"/>
<polygon fill="midnightblue" stroke="midnightblue" points="789,-309.42 778.46,-310.52 787.38,-316.23 789,-309.42"/>
</g>
<!-- Node37 -->
<g id="node37" class="node">
<title>Node37</title>
<g id="a_node37"><a xlink:title=" ">
<polygon fill="white" stroke="#bfbfbf" points="854,-230 854,-249 923,-249 923,-230 854,-230"/>
<text text-anchor="middle" x="888.5" y="-237" font-family="Helvetica,sans-Serif" font-size="10.00">type_traits</text>
</a>
</g>
</g>
<!-- Node32&#45;&gt;Node37 -->
<g id="edge68" class="edge">
<title>Node32&#45;&gt;Node37</title>
<path fill="none" stroke="midnightblue" d="M947.56,-347.49C931.46,-340.28 910.86,-328.33 899.5,-311 889.43,-295.65 887.34,-274.44 887.35,-259.3"/>
<polygon fill="midnightblue" stroke="midnightblue" points="890.86,-259.22 887.68,-249.11 883.86,-258.99 890.86,-259.22"/>
</g>
<!-- Node38 -->
<g id="node38" class="node">
<title>Node38</title>
<g id="a_node38"><a xlink:title=" ">
<polygon fill="white" stroke="#bfbfbf" points="941.5,-291.5 941.5,-310.5 999.5,-310.5 999.5,-291.5 941.5,-291.5"/>
<text text-anchor="middle" x="970.5" y="-298.5" font-family="Helvetica,sans-Serif" font-size="10.00">memory</text>
</a>
</g>
</g>
<!-- Node32&#45;&gt;Node38 -->
<g id="edge67" class="edge">
<title>Node32&#45;&gt;Node38</title>
<path fill="none" stroke="midnightblue" d="M970.5,-347.08C970.5,-340.01 970.5,-329.86 970.5,-320.99"/>
<polygon fill="midnightblue" stroke="midnightblue" points="974,-320.75 970.5,-310.75 967,-320.75 974,-320.75"/>
</g>
<!-- Node33&#45;&gt;Node2 -->
<g id="edge54" class="edge">
<title>Node33&#45;&gt;Node2</title>
<path fill="none" stroke="midnightblue" d="M1132.25,-291.45C1110.18,-285.08 1087.9,-274.06 1074.5,-255 1066.58,-243.73 1069.66,-236.9 1074.5,-224 1098.07,-161.15 1159.45,-106.93 1191.44,-81.84"/>
<polygon fill="midnightblue" stroke="midnightblue" points="1193.83,-84.42 1199.63,-75.56 1189.57,-78.87 1193.83,-84.42"/>
</g>
<!-- Node33&#45;&gt;Node17 -->
<g id="edge55" class="edge">
<title>Node33&#45;&gt;Node17</title>
<path fill="none" stroke="midnightblue" d="M1207.13,-291.49C1214.71,-282.76 1226.34,-268.57 1234.5,-255 1256.33,-218.68 1250.94,-203.87 1273.5,-168 1279.95,-157.74 1288.57,-147.34 1295.97,-139.12"/>
<polygon fill="midnightblue" stroke="midnightblue" points="1298.6,-141.43 1302.84,-131.72 1293.47,-136.67 1298.6,-141.43"/>
</g>
<!-- Node33&#45;&gt;Node24 -->
<g id="edge58" class="edge">
<title>Node33&#45;&gt;Node24</title>
<path fill="none" stroke="midnightblue" d="M1217.34,-291.44C1232.37,-283.57 1253.72,-270.74 1268.5,-255 1284.5,-237.96 1296.83,-213.87 1304.1,-197.41"/>
<polygon fill="midnightblue" stroke="midnightblue" points="1307.48,-198.41 1308.14,-187.84 1301.03,-195.69 1307.48,-198.41"/>
</g>
<!-- Node33&#45;&gt;Node31 -->
<g id="edge56" class="edge">
<title>Node33&#45;&gt;Node31</title>
<path fill="none" stroke="midnightblue" d="M1267.34,-292.05C1354.69,-281.7 1501.64,-263.89 1555.5,-255 1562.67,-253.82 1570.22,-252.43 1577.61,-250.99"/>
<polygon fill="midnightblue" stroke="midnightblue" points="1578.41,-254.4 1587.54,-249.01 1577.05,-247.53 1578.41,-254.4"/>
</g>
<!-- Node33&#45;&gt;Node34 -->
<g id="edge57" class="edge">
<title>Node33&#45;&gt;Node34</title>
<path fill="none" stroke="midnightblue" d="M1166.26,-291.44C1134.11,-282.94 1084.13,-269.17 1041.5,-255 1039.24,-254.25 1036.91,-253.44 1034.58,-252.61"/>
<polygon fill="midnightblue" stroke="midnightblue" points="1035.68,-249.29 1025.09,-249.11 1033.26,-255.85 1035.68,-249.29"/>
</g>
<!-- Node35 -->
<g id="node35" class="node">
<title>Node35</title>
<g id="a_node35"><a xlink:title=" ">
<polygon fill="white" stroke="#bfbfbf" points="1173,-230 1173,-249 1226,-249 1226,-230 1173,-230"/>
<text text-anchor="middle" x="1199.5" y="-237" font-family="Helvetica,sans-Serif" font-size="10.00">iterator</text>
</a>
</g>
</g>
<!-- Node33&#45;&gt;Node35 -->
<g id="edge59" class="edge">
<title>Node33&#45;&gt;Node35</title>
<path fill="none" stroke="midnightblue" d="M1199.5,-291.48C1199.5,-283.08 1199.5,-269.98 1199.5,-259.16"/>
<polygon fill="midnightblue" stroke="midnightblue" points="1203,-259.01 1199.5,-249.01 1196,-259.01 1203,-259.01"/>
</g>
<!-- Node36&#45;&gt;Node8 -->
<g id="edge62" class="edge">
<title>Node36&#45;&gt;Node8</title>
<path fill="none" stroke="midnightblue" d="M722.69,-291.4C708.04,-283.95 688.88,-271.74 678.5,-255 644.6,-200.36 667.33,-175.38 656.5,-112 651.58,-83.2 645.18,-49.91 641.2,-29.67"/>
<polygon fill="midnightblue" stroke="midnightblue" points="644.59,-28.76 639.22,-19.63 637.73,-30.12 644.59,-28.76"/>
</g>
<!-- Node36&#45;&gt;Node22 -->
<g id="edge63" class="edge">
<title>Node36&#45;&gt;Node22</title>
<path fill="none" stroke="midnightblue" d="M742.5,-291.48C742.5,-283.08 742.5,-269.98 742.5,-259.16"/>
<polygon fill="midnightblue" stroke="midnightblue" points="746,-259.01 742.5,-249.01 739,-259.01 746,-259.01"/>
</g>
<!-- Node36&#45;&gt;Node37 -->
<g id="edge64" class="edge">
<title>Node36&#45;&gt;Node37</title>
<path fill="none" stroke="midnightblue" d="M763.42,-291.48C788.25,-281.36 829.84,-264.4 858.19,-252.85"/>
<polygon fill="midnightblue" stroke="midnightblue" points="859.68,-256.02 867.62,-249.01 857.04,-249.54 859.68,-256.02"/>
</g>
<!-- Node40&#45;&gt;Node16 -->
<g id="edge73" class="edge">
<title>Node40&#45;&gt;Node16</title>
<path fill="none" stroke="midnightblue" d="M1060.73,-461.89C985.53,-453.3 860.46,-437.13 844.5,-423 821.97,-403.04 825.5,-388.1 825.5,-358 825.5,-358 825.5,-358 825.5,-300 825.5,-262.77 812.76,-220.72 804.47,-197.29"/>
<polygon fill="midnightblue" stroke="midnightblue" points="807.66,-195.83 800.93,-187.65 801.09,-198.24 807.66,-195.83"/>
</g>
<!-- Node40&#45;&gt;Node17 -->
<g id="edge72" class="edge">
<title>Node40&#45;&gt;Node17</title>
<path fill="none" stroke="midnightblue" d="M1155.43,-459.46C1218.31,-443.03 1342.39,-400.43 1394.5,-311 1414.28,-277.06 1449.76,-304.26 1365.5,-168 1357.9,-155.71 1345.79,-145.17 1334.96,-137.38"/>
<polygon fill="midnightblue" stroke="midnightblue" points="1336.9,-134.47 1326.66,-131.75 1332.96,-140.26 1336.9,-134.47"/>
</g>
<!-- Node40&#45;&gt;Node32 -->
<g id="edge78" class="edge">
<title>Node40&#45;&gt;Node32</title>
<path fill="none" stroke="midnightblue" d="M1086.16,-459.42C1064.34,-452.29 1035.5,-440.47 1014.5,-423 998.99,-410.1 986.7,-390.38 979.1,-376.04"/>
<polygon fill="midnightblue" stroke="midnightblue" points="982.03,-374.09 974.41,-366.73 975.78,-377.23 982.03,-374.09"/>
</g>
<!-- Node40&#45;&gt;Node33 -->
<g id="edge74" class="edge">
<title>Node40&#45;&gt;Node33</title>
<path fill="none" stroke="midnightblue" d="M1134.2,-459.45C1147.51,-451.75 1165.52,-439.16 1175.5,-423 1195.22,-391.07 1199.19,-346.15 1199.73,-320.99"/>
<polygon fill="midnightblue" stroke="midnightblue" points="1203.23,-320.67 1199.78,-310.66 1196.23,-320.64 1203.23,-320.67"/>
</g>
<!-- Node41 -->
<g id="node41" class="node">
<title>Node41</title>
<g id="a_node41"><a xlink:href="sitkEvent_8h.html" target="_top" xlink:title=" ">
<polygon fill="white" stroke="black" points="1084,-230 1084,-249 1155,-249 1155,-230 1084,-230"/>
<text text-anchor="middle" x="1119.5" y="-237" font-family="Helvetica,sans-Serif" font-size="10.00">sitkEvent.h</text>
</a>
</g>
</g>
<!-- Node40&#45;&gt;Node41 -->
<g id="edge75" class="edge">
<title>Node40&#45;&gt;Node41</title>
<path fill="none" stroke="midnightblue" d="M1124.13,-459.27C1130.27,-450.61 1138.96,-436.67 1142.5,-423 1150.05,-393.87 1129.47,-365.05 1122.5,-311 1120.25,-293.55 1119.58,-273.49 1119.43,-259.24"/>
<polygon fill="midnightblue" stroke="midnightblue" points="1122.93,-259.21 1119.39,-249.22 1115.93,-259.24 1122.93,-259.21"/>
</g>
<!-- Node42 -->
<g id="node42" class="node">
<title>Node42</title>
<g id="a_node42"><a xlink:href="sitkImageConvert_8h.html" target="_top" xlink:title=" ">
<polygon fill="white" stroke="black" points="854,-403.5 854,-422.5 967,-422.5 967,-403.5 854,-403.5"/>
<text text-anchor="middle" x="910.5" y="-410.5" font-family="Helvetica,sans-Serif" font-size="10.00">sitkImageConvert.h</text>
</a>
</g>
</g>
<!-- Node40&#45;&gt;Node42 -->
<g id="edge79" class="edge">
<title>Node40&#45;&gt;Node42</title>
<path fill="none" stroke="midnightblue" d="M1084.7,-459.44C1049.12,-450.16 992.19,-435.31 953.15,-425.13"/>
<polygon fill="midnightblue" stroke="midnightblue" points="953.71,-421.65 943.15,-422.52 951.94,-428.43 953.71,-421.65"/>
</g>
<!-- Node43 -->
<g id="node43" class="node">
<title>Node43</title>
<g id="a_node43"><a xlink:title=" ">
<polygon fill="white" stroke="#bfbfbf" points="1023.5,-403.5 1023.5,-422.5 1083.5,-422.5 1083.5,-403.5 1023.5,-403.5"/>
<text text-anchor="middle" x="1053.5" y="-410.5" font-family="Helvetica,sans-Serif" font-size="10.00">iostream</text>
</a>
</g>
</g>
<!-- Node40&#45;&gt;Node43 -->
<g id="edge81" class="edge">
<title>Node40&#45;&gt;Node43</title>
<path fill="none" stroke="midnightblue" d="M1107.22,-459.32C1097.66,-451.26 1083.22,-439.08 1071.72,-429.37"/>
<polygon fill="midnightblue" stroke="midnightblue" points="1073.87,-426.61 1063.97,-422.83 1069.36,-431.96 1073.87,-426.61"/>
</g>
<!-- Node44 -->
<g id="node44" class="node">
<title>Node44</title>
<g id="a_node44"><a xlink:title=" ">
<polygon fill="white" stroke="#bfbfbf" points="1101.5,-403.5 1101.5,-422.5 1133.5,-422.5 1133.5,-403.5 1101.5,-403.5"/>
<text text-anchor="middle" x="1117.5" y="-410.5" font-family="Helvetica,sans-Serif" font-size="10.00">list</text>
</a>
</g>
</g>
<!-- Node40&#45;&gt;Node44 -->
<g id="edge82" class="edge">
<title>Node40&#45;&gt;Node44</title>
<path fill="none" stroke="midnightblue" d="M1117.5,-459.08C1117.5,-452.01 1117.5,-441.86 1117.5,-432.99"/>
<polygon fill="midnightblue" stroke="midnightblue" points="1121,-432.75 1117.5,-422.75 1114,-432.75 1121,-432.75"/>
</g>
<!-- Node41&#45;&gt;Node17 -->
<g id="edge76" class="edge">
<title>Node41&#45;&gt;Node17</title>
<path fill="none" stroke="midnightblue" d="M1133.93,-229.82C1166.95,-209.95 1248.25,-161.05 1288.36,-136.92"/>
<polygon fill="midnightblue" stroke="midnightblue" points="1290.4,-139.78 1297.16,-131.62 1286.79,-133.78 1290.4,-139.78"/>
</g>
<!-- Node41&#45;&gt;Node24 -->
<g id="edge77" class="edge">
<title>Node41&#45;&gt;Node24</title>
<path fill="none" stroke="midnightblue" d="M1145.06,-229.97C1151.1,-227.98 1157.52,-225.89 1163.5,-224 1200.65,-212.23 1243.23,-199.35 1273.15,-190.39"/>
<polygon fill="midnightblue" stroke="midnightblue" points="1274.21,-193.73 1282.79,-187.51 1272.21,-187.02 1274.21,-193.73"/>
</g>
<!-- Node42&#45;&gt;Node32 -->
<g id="edge80" class="edge">
<title>Node42&#45;&gt;Node32</title>
<path fill="none" stroke="midnightblue" d="M920.14,-403.32C929.01,-395.34 942.37,-383.31 953.11,-373.65"/>
<polygon fill="midnightblue" stroke="midnightblue" points="955.59,-376.13 960.68,-366.83 950.91,-370.92 955.59,-376.13"/>
</g>
</g>
</svg>
