<?xml version="1.0" encoding="UTF-8" standalone="no"?>
<!DOCTYPE svg PUBLIC "-//W3C//DTD SVG 1.1//EN"
 "http://www.w3.org/Graphics/SVG/1.1/DTD/svg11.dtd">
<!-- Generated by graphviz version 2.43.0 (0)
 -->
<!-- Title: sitkBasicFilters.h Pages: 1 -->
<!--zoomable 487 -->
<svg id="main" version="1.1" xmlns="http://www.w3.org/2000/svg" xmlns:xlink="http://www.w3.org/1999/xlink" xml:space="preserve" onload="init(evt)">
<style type="text/css"><![CDATA[
.edge:hover path { stroke: red; }
.edge:hover polygon { stroke: red; fill: red; }
]]></style>
<script type="text/javascript"><![CDATA[
var edges = document.getElementsByTagName('g');
if (edges && edges.length) {
  for (var i=0;i<edges.length;i++) {
    if (edges[i].id.substr(0,4)=='edge') {
      edges[i].setAttribute('class','edge');
    }
  }
}
]]></script>
        <defs>
                <circle id="rim" cx="0" cy="0" r="7"/>
                <circle id="rim2" cx="0" cy="0" r="3.5"/>
                <g id="zoomPlus">
                        <use xlink:href="#rim" fill="#404040">
                                <set attributeName="fill" to="#808080" begin="zoomplus.mouseover" end="zoomplus.mouseout"/>
                        </use>
                        <path d="M-4,0h8M0,-4v8" fill="none" stroke="white" stroke-width="1.5" pointer-events="none"/>
                </g>
                <g id="zoomMin">
                        <use xlink:href="#rim" fill="#404040">
                                <set attributeName="fill" to="#808080" begin="zoomminus.mouseover" end="zoomminus.mouseout"/>
                        </use>
                        <path d="M-4,0h8" fill="none" stroke="white" stroke-width="1.5" pointer-events="none"/>
                </g>
                <g id="dirArrow">
                        <path fill="none" stroke="white" stroke-width="1.5" d="M0,-3.0v7 M-2.5,-0.5L0,-3.0L2.5,-0.5"/>
                </g>
               <g id="resetDef">
                       <use xlink:href="#rim2" fill="#404040">
                               <set attributeName="fill" to="#808080" begin="reset.mouseover" end="reset.mouseout"/>
                       </use>
               </g>
        </defs>

<script type="text/javascript">
var viewWidth = 1663;
var viewHeight = 487;
var sectionId = 'dynsection-0';
</script>
<script xlink:href="svgpan.js"/>
<svg id="graph" class="graph">
<g id="viewport">
<title>sitkBasicFilters.h</title>
<polygon fill="white" stroke="transparent" points="-4,4 -4,-483 1659.01,-483 1659.01,4 -4,4"/>
<!-- Node1 -->
<g id="node1" class="node">
<title>Node1</title>
<g id="a_node1"><a xlink:title=" ">
<polygon fill="#bfbfbf" stroke="black" points="284,-459.5 284,-478.5 384,-478.5 384,-459.5 284,-459.5"/>
<text text-anchor="middle" x="334" y="-466.5" font-family="Helvetica,sans-Serif" font-size="10.00">sitkBasicFilters.h</text>
</a>
</g>
</g>
<!-- Node2 -->
<g id="node2" class="node">
<title>Node2</title>
<g id="a_node2"><a xlink:href="sitkMacro_8h.html" target="_top" xlink:title=" ">
<polygon fill="white" stroke="black" points="787,-56.5 787,-75.5 861,-75.5 861,-56.5 787,-56.5"/>
<text text-anchor="middle" x="824" y="-63.5" font-family="Helvetica,sans-Serif" font-size="10.00">sitkMacro.h</text>
</a>
</g>
</g>
<!-- Node1&#45;&gt;Node2 -->
<g id="edge1" class="edge">
<title>Node1&#45;&gt;Node2</title>
<path fill="none" stroke="midnightblue" d="M384.27,-468.53C520.04,-468.62 884,-459.39 884,-358 884,-358 884,-358 884,-300 884,-217.53 848.31,-123.68 831.98,-85.05"/>
<polygon fill="midnightblue" stroke="midnightblue" points="835.11,-83.47 827.94,-75.68 828.69,-86.25 835.11,-83.47"/>
</g>
<!-- Node9 -->
<g id="node9" class="node">
<title>Node9</title>
<g id="a_node9"><a xlink:href="sitkInterpolator_8h.html" target="_top" xlink:title=" ">
<polygon fill="white" stroke="black" points="205,-291.5 205,-310.5 305,-310.5 305,-291.5 205,-291.5"/>
<text text-anchor="middle" x="255" y="-298.5" font-family="Helvetica,sans-Serif" font-size="10.00">sitkInterpolator.h</text>
</a>
</g>
</g>
<!-- Node1&#45;&gt;Node9 -->
<g id="edge8" class="edge">
<title>Node1&#45;&gt;Node9</title>
<path fill="none" stroke="midnightblue" d="M329.75,-459.08C317.21,-432.72 280.16,-354.88 263.4,-319.66"/>
<polygon fill="midnightblue" stroke="midnightblue" points="266.54,-318.09 259.08,-310.57 260.21,-321.1 266.54,-318.09"/>
</g>
<!-- Node12 -->
<g id="node12" class="node">
<title>Node12</title>
<g id="a_node12"><a xlink:href="sitkRandomSeed_8h.html" target="_top" xlink:title=" ">
<polygon fill="white" stroke="black" points="0,-347.5 0,-366.5 108,-366.5 108,-347.5 0,-347.5"/>
<text text-anchor="middle" x="54" y="-354.5" font-family="Helvetica,sans-Serif" font-size="10.00">sitkRandomSeed.h</text>
</a>
</g>
</g>
<!-- Node1&#45;&gt;Node12 -->
<g id="edge12" class="edge">
<title>Node1&#45;&gt;Node12</title>
<path fill="none" stroke="midnightblue" d="M283.95,-464.79C239.73,-460.26 174.61,-449.33 124,-423 101.12,-411.1 80.21,-389.68 67.32,-374.69"/>
<polygon fill="midnightblue" stroke="midnightblue" points="69.79,-372.18 60.7,-366.73 64.4,-376.66 69.79,-372.18"/>
</g>
<!-- Node13 -->
<g id="node13" class="node">
<title>Node13</title>
<g id="a_node13"><a xlink:href="sitkKernel_8h.html" target="_top" xlink:title=" ">
<polygon fill="white" stroke="black" points="77,-230 77,-249 151,-249 151,-230 77,-230"/>
<text text-anchor="middle" x="114" y="-237" font-family="Helvetica,sans-Serif" font-size="10.00">sitkKernel.h</text>
</a>
</g>
</g>
<!-- Node1&#45;&gt;Node13 -->
<g id="edge14" class="edge">
<title>Node1&#45;&gt;Node13</title>
<path fill="none" stroke="midnightblue" d="M309.27,-459.44C272.51,-445.55 203.48,-414.73 163,-367 135.67,-334.78 122.58,-285.61 117.2,-259.06"/>
<polygon fill="midnightblue" stroke="midnightblue" points="120.63,-258.36 115.34,-249.18 113.75,-259.65 120.63,-258.36"/>
</g>
<!-- Node14 -->
<g id="node14" class="node">
<title>Node14</title>
<g id="a_node14"><a xlink:href="sitkTransform_8h.html" target="_top" xlink:title=" ">
<polygon fill="white" stroke="black" points="325,-403.5 325,-422.5 417,-422.5 417,-403.5 325,-403.5"/>
<text text-anchor="middle" x="371" y="-410.5" font-family="Helvetica,sans-Serif" font-size="10.00">sitkTransform.h</text>
</a>
</g>
</g>
<!-- Node1&#45;&gt;Node14 -->
<g id="edge17" class="edge">
<title>Node1&#45;&gt;Node14</title>
<path fill="none" stroke="midnightblue" d="M340.11,-459.08C345.28,-451.53 352.85,-440.49 359.19,-431.23"/>
<polygon fill="midnightblue" stroke="midnightblue" points="362.24,-432.98 365,-422.75 356.46,-429.02 362.24,-432.98"/>
</g>
<!-- Node36 -->
<g id="node36" class="node">
<title>Node36</title>
<g id="a_node36"><a xlink:title=" ">
<polygon fill="white" stroke="#bfbfbf" points="912,-403.5 912,-422.5 950,-422.5 950,-403.5 912,-403.5"/>
<text text-anchor="middle" x="931" y="-410.5" font-family="Helvetica,sans-Serif" font-size="10.00">map</text>
</a>
</g>
</g>
<!-- Node1&#45;&gt;Node36 -->
<g id="edge63" class="edge">
<title>Node1&#45;&gt;Node36</title>
<path fill="none" stroke="midnightblue" d="M384.19,-467.13C483.18,-464.73 710.28,-455.79 898,-423 899.28,-422.78 900.59,-422.52 901.9,-422.25"/>
<polygon fill="midnightblue" stroke="midnightblue" points="903.03,-425.58 911.94,-419.85 901.4,-418.77 903.03,-425.58"/>
</g>
<!-- Node3 -->
<g id="node3" class="node">
<title>Node3</title>
<g id="a_node3"><a xlink:title=" ">
<polygon fill="white" stroke="#bfbfbf" points="984.5,-0.5 984.5,-19.5 1037.5,-19.5 1037.5,-0.5 984.5,-0.5"/>
<text text-anchor="middle" x="1011" y="-7.5" font-family="Helvetica,sans-Serif" font-size="10.00">stdint.h</text>
</a>
</g>
</g>
<!-- Node2&#45;&gt;Node3 -->
<g id="edge2" class="edge">
<title>Node2&#45;&gt;Node3</title>
<path fill="none" stroke="midnightblue" d="M853.63,-56.44C886.34,-47 939.04,-31.78 974.33,-21.59"/>
<polygon fill="midnightblue" stroke="midnightblue" points="975.6,-24.87 984.23,-18.73 973.66,-18.14 975.6,-24.87"/>
</g>
<!-- Node4 -->
<g id="node4" class="node">
<title>Node4</title>
<g id="a_node4"><a xlink:title=" ">
<polygon fill="white" stroke="#bfbfbf" points="688,-0.5 688,-19.5 744,-19.5 744,-0.5 688,-0.5"/>
<text text-anchor="middle" x="716" y="-7.5" font-family="Helvetica,sans-Serif" font-size="10.00">stddef.h</text>
</a>
</g>
</g>
<!-- Node2&#45;&gt;Node4 -->
<g id="edge3" class="edge">
<title>Node2&#45;&gt;Node4</title>
<path fill="none" stroke="midnightblue" d="M806.65,-56.32C789.33,-47.66 762.48,-34.24 742.5,-24.25"/>
<polygon fill="midnightblue" stroke="midnightblue" points="743.82,-21 733.31,-19.65 740.69,-27.26 743.82,-21"/>
</g>
<!-- Node5 -->
<g id="node5" class="node">
<title>Node5</title>
<g id="a_node5"><a xlink:title=" ">
<polygon fill="white" stroke="#bfbfbf" points="762,-0.5 762,-19.5 814,-19.5 814,-0.5 762,-0.5"/>
<text text-anchor="middle" x="788" y="-7.5" font-family="Helvetica,sans-Serif" font-size="10.00">cassert</text>
</a>
</g>
</g>
<!-- Node2&#45;&gt;Node5 -->
<g id="edge4" class="edge">
<title>Node2&#45;&gt;Node5</title>
<path fill="none" stroke="midnightblue" d="M818.06,-56.08C813.02,-48.53 805.66,-37.49 799.49,-28.23"/>
<polygon fill="midnightblue" stroke="midnightblue" points="802.29,-26.13 793.83,-19.75 796.47,-30.01 802.29,-26.13"/>
</g>
<!-- Node6 -->
<g id="node6" class="node">
<title>Node6</title>
<g id="a_node6"><a xlink:title=" ">
<polygon fill="white" stroke="#bfbfbf" points="832,-0.5 832,-19.5 888,-19.5 888,-0.5 832,-0.5"/>
<text text-anchor="middle" x="860" y="-7.5" font-family="Helvetica,sans-Serif" font-size="10.00">sstream</text>
</a>
</g>
</g>
<!-- Node2&#45;&gt;Node6 -->
<g id="edge5" class="edge">
<title>Node2&#45;&gt;Node6</title>
<path fill="none" stroke="midnightblue" d="M829.94,-56.08C834.98,-48.53 842.34,-37.49 848.51,-28.23"/>
<polygon fill="midnightblue" stroke="midnightblue" points="851.53,-30.01 854.17,-19.75 845.71,-26.13 851.53,-30.01"/>
</g>
<!-- Node7 -->
<g id="node7" class="node">
<title>Node7</title>
<g id="a_node7"><a xlink:title=" ">
<polygon fill="white" stroke="#bfbfbf" points="906,-0.5 906,-19.5 950,-19.5 950,-0.5 906,-0.5"/>
<text text-anchor="middle" x="928" y="-7.5" font-family="Helvetica,sans-Serif" font-size="10.00">limits</text>
</a>
</g>
</g>
<!-- Node2&#45;&gt;Node7 -->
<g id="edge6" class="edge">
<title>Node2&#45;&gt;Node7</title>
<path fill="none" stroke="midnightblue" d="M840.71,-56.32C857.31,-47.7 883,-34.36 902.22,-24.39"/>
<polygon fill="midnightblue" stroke="midnightblue" points="904.07,-27.37 911.33,-19.65 900.84,-21.16 904.07,-27.37"/>
</g>
<!-- Node8 -->
<g id="node8" class="node">
<title>Node8</title>
<g id="a_node8"><a xlink:href="sitkConfigure_8h.html" target="_top" xlink:title=" ">
<polygon fill="white" stroke="black" points="1124,-0.5 1124,-19.5 1214,-19.5 1214,-0.5 1124,-0.5"/>
<text text-anchor="middle" x="1169" y="-7.5" font-family="Helvetica,sans-Serif" font-size="10.00">sitkConfigure.h</text>
</a>
</g>
</g>
<!-- Node2&#45;&gt;Node8 -->
<g id="edge7" class="edge">
<title>Node2&#45;&gt;Node8</title>
<path fill="none" stroke="midnightblue" d="M861.25,-59.17C922.03,-49.66 1042.85,-30.75 1113.68,-19.66"/>
<polygon fill="midnightblue" stroke="midnightblue" points="1114.42,-23.09 1123.75,-18.08 1113.33,-16.17 1114.42,-23.09"/>
</g>
<!-- Node10 -->
<g id="node10" class="node">
<title>Node10</title>
<g id="a_node10"><a xlink:href="sitkCommon_8h.html" target="_top" xlink:title=" ">
<polygon fill="white" stroke="black" points="300,-112.5 300,-131.5 388,-131.5 388,-112.5 300,-112.5"/>
<text text-anchor="middle" x="344" y="-119.5" font-family="Helvetica,sans-Serif" font-size="10.00">sitkCommon.h</text>
</a>
</g>
</g>
<!-- Node9&#45;&gt;Node10 -->
<g id="edge9" class="edge">
<title>Node9&#45;&gt;Node10</title>
<path fill="none" stroke="midnightblue" d="M250.63,-291.41C239.91,-268.99 215.01,-207.72 241,-168 252.15,-150.97 271.31,-140.34 290.11,-133.73"/>
<polygon fill="midnightblue" stroke="midnightblue" points="291.39,-137 299.86,-130.63 289.27,-130.33 291.39,-137"/>
</g>
<!-- Node11 -->
<g id="node11" class="node">
<title>Node11</title>
<g id="a_node11"><a xlink:title=" ">
<polygon fill="white" stroke="#bfbfbf" points="283.5,-168.5 283.5,-187.5 340.5,-187.5 340.5,-168.5 283.5,-168.5"/>
<text text-anchor="middle" x="312" y="-175.5" font-family="Helvetica,sans-Serif" font-size="10.00">ostream</text>
</a>
</g>
</g>
<!-- Node9&#45;&gt;Node11 -->
<g id="edge11" class="edge">
<title>Node9&#45;&gt;Node11</title>
<path fill="none" stroke="midnightblue" d="M259.1,-291.3C268.38,-271.59 291.17,-223.21 303.6,-196.84"/>
<polygon fill="midnightblue" stroke="midnightblue" points="306.84,-198.16 307.94,-187.62 300.51,-195.18 306.84,-198.16"/>
</g>
<!-- Node10&#45;&gt;Node2 -->
<g id="edge10" class="edge">
<title>Node10&#45;&gt;Node2</title>
<path fill="none" stroke="midnightblue" d="M388.3,-116.02C478.78,-105.84 684.11,-82.74 776.91,-72.3"/>
<polygon fill="midnightblue" stroke="midnightblue" points="777.31,-75.77 786.86,-71.18 776.53,-68.82 777.31,-75.77"/>
</g>
<!-- Node12&#45;&gt;Node10 -->
<g id="edge13" class="edge">
<title>Node12&#45;&gt;Node10</title>
<path fill="none" stroke="midnightblue" d="M52.71,-347.29C49.87,-325.09 45.03,-265.28 68,-224 111,-146.71 222.32,-127.78 289.72,-123.62"/>
<polygon fill="midnightblue" stroke="midnightblue" points="289.93,-127.11 299.74,-123.08 289.56,-120.12 289.93,-127.11"/>
</g>
<!-- Node13&#45;&gt;Node10 -->
<g id="edge15" class="edge">
<title>Node13&#45;&gt;Node10</title>
<path fill="none" stroke="midnightblue" d="M117.91,-229.59C125,-214.48 141.49,-183.93 165,-168 201.98,-142.95 251.76,-131.84 289.44,-126.91"/>
<polygon fill="midnightblue" stroke="midnightblue" points="290.21,-130.34 299.72,-125.68 289.38,-123.39 290.21,-130.34"/>
</g>
<!-- Node13&#45;&gt;Node11 -->
<g id="edge16" class="edge">
<title>Node13&#45;&gt;Node11</title>
<path fill="none" stroke="midnightblue" d="M142.37,-229.98C176.92,-219.59 235.42,-202.01 273.88,-190.45"/>
<polygon fill="midnightblue" stroke="midnightblue" points="275.11,-193.74 283.68,-187.51 273.1,-187.04 275.11,-193.74"/>
</g>
<!-- Node14&#45;&gt;Node10 -->
<g id="edge18" class="edge">
<title>Node14&#45;&gt;Node10</title>
<path fill="none" stroke="midnightblue" d="M336.95,-403.5C295.2,-391.04 226.26,-363.4 196,-311 173.61,-272.22 130.59,-277.37 228,-168 243.95,-150.09 267.87,-139.26 289.86,-132.72"/>
<polygon fill="midnightblue" stroke="midnightblue" points="291.07,-136.02 299.79,-130.01 289.22,-129.27 291.07,-136.02"/>
</g>
<!-- Node15 -->
<g id="node15" class="node">
<title>Node15</title>
<g id="a_node15"><a xlink:href="sitkExceptionObject_8h.html" target="_top" xlink:title=" ">
<polygon fill="white" stroke="black" points="572.5,-168.5 572.5,-187.5 695.5,-187.5 695.5,-168.5 572.5,-168.5"/>
<text text-anchor="middle" x="634" y="-175.5" font-family="Helvetica,sans-Serif" font-size="10.00">sitkExceptionObject.h</text>
</a>
</g>
</g>
<!-- Node14&#45;&gt;Node15 -->
<g id="edge19" class="edge">
<title>Node14&#45;&gt;Node15</title>
<path fill="none" stroke="midnightblue" d="M381.1,-403.43C396.01,-390.85 424.85,-366.74 450,-347 503.71,-304.86 523.91,-302.44 573,-255 592.12,-236.52 610.75,-212.09 622.29,-195.98"/>
<polygon fill="midnightblue" stroke="midnightblue" points="625.32,-197.75 628.22,-187.56 619.6,-193.72 625.32,-197.75"/>
</g>
<!-- Node16 -->
<g id="node16" class="node">
<title>Node16</title>
<g id="a_node16"><a xlink:href="sitkImage_8h.html" target="_top" xlink:title=" ">
<polygon fill="white" stroke="black" points="459,-347.5 459,-366.5 533,-366.5 533,-347.5 459,-347.5"/>
<text text-anchor="middle" x="496" y="-354.5" font-family="Helvetica,sans-Serif" font-size="10.00">sitkImage.h</text>
</a>
</g>
</g>
<!-- Node14&#45;&gt;Node16 -->
<g id="edge22" class="edge">
<title>Node14&#45;&gt;Node16</title>
<path fill="none" stroke="midnightblue" d="M390.81,-403.44C411.29,-394.6 443.48,-380.69 466.86,-370.59"/>
<polygon fill="midnightblue" stroke="midnightblue" points="468.49,-373.7 476.29,-366.52 465.72,-367.27 468.49,-373.7"/>
</g>
<!-- Node18 -->
<g id="node18" class="node">
<title>Node18</title>
<g id="a_node18"><a xlink:title=" ">
<polygon fill="white" stroke="#bfbfbf" points="358.5,-168.5 358.5,-187.5 405.5,-187.5 405.5,-168.5 358.5,-168.5"/>
<text text-anchor="middle" x="382" y="-175.5" font-family="Helvetica,sans-Serif" font-size="10.00">vector</text>
</a>
</g>
</g>
<!-- Node14&#45;&gt;Node18 -->
<g id="edge62" class="edge">
<title>Node14&#45;&gt;Node18</title>
<path fill="none" stroke="midnightblue" d="M371.4,-403.43C372.99,-369.75 378.84,-245.99 381.1,-198.1"/>
<polygon fill="midnightblue" stroke="midnightblue" points="384.6,-198.05 381.58,-187.9 377.61,-197.72 384.6,-198.05"/>
</g>
<!-- Node15&#45;&gt;Node2 -->
<g id="edge20" class="edge">
<title>Node15&#45;&gt;Node2</title>
<path fill="none" stroke="midnightblue" d="M648.91,-168.37C681.79,-149.33 760.76,-103.62 800.42,-80.65"/>
<polygon fill="midnightblue" stroke="midnightblue" points="802.26,-83.63 809.16,-75.59 798.75,-77.57 802.26,-83.63"/>
</g>
<!-- Node15&#45;&gt;Node10 -->
<g id="edge21" class="edge">
<title>Node15&#45;&gt;Node10</title>
<path fill="none" stroke="midnightblue" d="M588.05,-168.44C536.48,-158.84 452.89,-143.28 398.18,-133.09"/>
<polygon fill="midnightblue" stroke="midnightblue" points="398.78,-129.64 388.31,-131.25 397.5,-136.52 398.78,-129.64"/>
</g>
<!-- Node16&#45;&gt;Node9 -->
<g id="edge58" class="edge">
<title>Node16&#45;&gt;Node9</title>
<path fill="none" stroke="midnightblue" d="M458.87,-347.68C417.01,-338.3 348.83,-323.02 302.97,-312.75"/>
<polygon fill="midnightblue" stroke="midnightblue" points="303.49,-309.28 292.97,-310.51 301.96,-316.11 303.49,-309.28"/>
</g>
<!-- Node16&#45;&gt;Node10 -->
<g id="edge23" class="edge">
<title>Node16&#45;&gt;Node10</title>
<path fill="none" stroke="midnightblue" d="M473.99,-347.35C426.97,-327.51 317.51,-273.71 275,-188 264.07,-165.97 289.41,-147.51 312.4,-135.96"/>
<polygon fill="midnightblue" stroke="midnightblue" points="314.11,-139.02 321.66,-131.59 311.13,-132.69 314.11,-139.02"/>
</g>
<!-- Node17 -->
<g id="node17" class="node">
<title>Node17</title>
<g id="a_node17"><a xlink:href="sitkTemplateFunctions_8h.html" target="_top" xlink:title=" ">
<polygon fill="white" stroke="black" points="428.5,-230 428.5,-249 563.5,-249 563.5,-230 428.5,-230"/>
<text text-anchor="middle" x="496" y="-237" font-family="Helvetica,sans-Serif" font-size="10.00">sitkTemplateFunctions.h</text>
</a>
</g>
</g>
<!-- Node16&#45;&gt;Node17 -->
<g id="edge24" class="edge">
<title>Node16&#45;&gt;Node17</title>
<path fill="none" stroke="midnightblue" d="M496,-347.32C496,-328.76 496,-284.84 496,-259.47"/>
<polygon fill="midnightblue" stroke="midnightblue" points="499.5,-259.28 496,-249.28 492.5,-259.28 499.5,-259.28"/>
</g>
<!-- Node16&#45;&gt;Node18 -->
<g id="edge59" class="edge">
<title>Node16&#45;&gt;Node18</title>
<path fill="none" stroke="midnightblue" d="M488.73,-347.47C474.5,-330.53 442.41,-291.2 420,-255 408.26,-236.05 397.14,-212.98 390,-197.27"/>
<polygon fill="midnightblue" stroke="midnightblue" points="393,-195.41 385.73,-187.71 386.61,-198.27 393,-195.41"/>
</g>
<!-- Node20 -->
<g id="node20" class="node">
<title>Node20</title>
<g id="a_node20"><a xlink:href="sitkDetail_8h.html" target="_top" xlink:title=" ">
<polygon fill="white" stroke="black" points="923.5,-291.5 923.5,-310.5 996.5,-310.5 996.5,-291.5 923.5,-291.5"/>
<text text-anchor="middle" x="960" y="-298.5" font-family="Helvetica,sans-Serif" font-size="10.00">sitkDetail.h</text>
</a>
</g>
</g>
<!-- Node16&#45;&gt;Node20 -->
<g id="edge31" class="edge">
<title>Node16&#45;&gt;Node20</title>
<path fill="none" stroke="midnightblue" d="M533.19,-351.67C617.05,-341.91 820.77,-318.2 913.11,-307.46"/>
<polygon fill="midnightblue" stroke="midnightblue" points="913.75,-310.91 923.28,-306.27 912.94,-303.95 913.75,-310.91"/>
</g>
<!-- Node31 -->
<g id="node31" class="node">
<title>Node31</title>
<g id="a_node31"><a xlink:href="sitkPixelIDTokens_8h.html" target="_top" xlink:title=" ">
<polygon fill="white" stroke="black" points="607,-291.5 607,-310.5 717,-310.5 717,-291.5 607,-291.5"/>
<text text-anchor="middle" x="662" y="-298.5" font-family="Helvetica,sans-Serif" font-size="10.00">sitkPixelIDTokens.h</text>
</a>
</g>
</g>
<!-- Node16&#45;&gt;Node31 -->
<g id="edge50" class="edge">
<title>Node16&#45;&gt;Node31</title>
<path fill="none" stroke="midnightblue" d="M522.3,-347.44C550.35,-338.32 594.94,-323.81 626.18,-313.65"/>
<polygon fill="midnightblue" stroke="midnightblue" points="627.39,-316.94 635.82,-310.52 625.23,-310.28 627.39,-316.94"/>
</g>
<!-- Node34 -->
<g id="node34" class="node">
<title>Node34</title>
<g id="a_node34"><a xlink:title=" ">
<polygon fill="white" stroke="#bfbfbf" points="786.5,-230 786.5,-249 855.5,-249 855.5,-230 786.5,-230"/>
<text text-anchor="middle" x="821" y="-237" font-family="Helvetica,sans-Serif" font-size="10.00">type_traits</text>
</a>
</g>
</g>
<!-- Node16&#45;&gt;Node34 -->
<g id="edge61" class="edge">
<title>Node16&#45;&gt;Node34</title>
<path fill="none" stroke="midnightblue" d="M533.18,-355.48C605.81,-353.69 762.87,-345.79 802,-311 816.33,-298.26 820.36,-275.96 821.26,-259.84"/>
<polygon fill="midnightblue" stroke="midnightblue" points="824.76,-259.49 821.46,-249.43 817.77,-259.36 824.76,-259.49"/>
</g>
<!-- Node35 -->
<g id="node35" class="node">
<title>Node35</title>
<g id="a_node35"><a xlink:title=" ">
<polygon fill="white" stroke="#bfbfbf" points="735,-291.5 735,-310.5 793,-310.5 793,-291.5 735,-291.5"/>
<text text-anchor="middle" x="764" y="-298.5" font-family="Helvetica,sans-Serif" font-size="10.00">memory</text>
</a>
</g>
</g>
<!-- Node16&#45;&gt;Node35 -->
<g id="edge60" class="edge">
<title>Node16&#45;&gt;Node35</title>
<path fill="none" stroke="midnightblue" d="M533.14,-349.2C576.73,-341.11 651.42,-326.94 725.07,-311.14"/>
<polygon fill="midnightblue" stroke="midnightblue" points="725.94,-314.53 734.98,-309 724.47,-307.69 725.94,-314.53"/>
</g>
<!-- Node17&#45;&gt;Node2 -->
<g id="edge25" class="edge">
<title>Node17&#45;&gt;Node2</title>
<path fill="none" stroke="midnightblue" d="M502.22,-229.98C513.2,-215.45 537.41,-185.74 564,-168 632.45,-122.33 724.58,-92.79 778.8,-78.09"/>
<polygon fill="midnightblue" stroke="midnightblue" points="779.7,-81.47 788.47,-75.51 777.9,-74.7 779.7,-81.47"/>
</g>
<!-- Node17&#45;&gt;Node10 -->
<g id="edge26" class="edge">
<title>Node17&#45;&gt;Node10</title>
<path fill="none" stroke="midnightblue" d="M486.91,-229.77C472.32,-215.95 442.5,-188.5 415,-168 399.74,-156.62 381.6,-145.16 367.47,-136.65"/>
<polygon fill="midnightblue" stroke="midnightblue" points="369.23,-133.62 358.84,-131.51 365.65,-139.63 369.23,-133.62"/>
</g>
<!-- Node17&#45;&gt;Node11 -->
<g id="edge29" class="edge">
<title>Node17&#45;&gt;Node11</title>
<path fill="none" stroke="midnightblue" d="M469.64,-229.98C437.66,-219.64 383.62,-202.16 347.88,-190.6"/>
<polygon fill="midnightblue" stroke="midnightblue" points="348.91,-187.26 338.31,-187.51 346.75,-193.92 348.91,-187.26"/>
</g>
<!-- Node17&#45;&gt;Node15 -->
<g id="edge27" class="edge">
<title>Node17&#45;&gt;Node15</title>
<path fill="none" stroke="midnightblue" d="M515.77,-229.98C539.14,-219.9 578.21,-203.05 605,-191.5"/>
<polygon fill="midnightblue" stroke="midnightblue" points="606.47,-194.68 614.26,-187.51 603.7,-188.25 606.47,-194.68"/>
</g>
<!-- Node17&#45;&gt;Node18 -->
<g id="edge28" class="edge">
<title>Node17&#45;&gt;Node18</title>
<path fill="none" stroke="midnightblue" d="M479.67,-229.98C460.79,-220.12 429.49,-203.79 407.42,-192.27"/>
<polygon fill="midnightblue" stroke="midnightblue" points="408.79,-189.03 398.3,-187.51 405.55,-195.24 408.79,-189.03"/>
</g>
<!-- Node19 -->
<g id="node19" class="node">
<title>Node19</title>
<g id="a_node19"><a xlink:title=" ">
<polygon fill="white" stroke="#bfbfbf" points="462.5,-168.5 462.5,-187.5 515.5,-187.5 515.5,-168.5 462.5,-168.5"/>
<text text-anchor="middle" x="489" y="-175.5" font-family="Helvetica,sans-Serif" font-size="10.00">iterator</text>
</a>
</g>
</g>
<!-- Node17&#45;&gt;Node19 -->
<g id="edge30" class="edge">
<title>Node17&#45;&gt;Node19</title>
<path fill="none" stroke="midnightblue" d="M495,-229.98C494.01,-221.58 492.47,-208.48 491.2,-197.66"/>
<polygon fill="midnightblue" stroke="midnightblue" points="494.65,-197.03 490,-187.51 487.69,-197.85 494.65,-197.03"/>
</g>
<!-- Node21 -->
<g id="node21" class="node">
<title>Node21</title>
<g id="a_node21"><a xlink:href="sitkMemberFunctionFactoryBase_8h.html" target="_top" xlink:title=" ">
<polygon fill="white" stroke="black" points="1324,-224.5 1324,-254.5 1476,-254.5 1476,-224.5 1324,-224.5"/>
<text text-anchor="start" x="1332" y="-242.5" font-family="Helvetica,sans-Serif" font-size="10.00">sitkMemberFunctionFactory</text>
<text text-anchor="middle" x="1400" y="-231.5" font-family="Helvetica,sans-Serif" font-size="10.00">Base.h</text>
</a>
</g>
</g>
<!-- Node20&#45;&gt;Node21 -->
<g id="edge32" class="edge">
<title>Node20&#45;&gt;Node21</title>
<path fill="none" stroke="midnightblue" d="M996.76,-295.03C1065.98,-285.67 1217.35,-265.2 1313.67,-252.17"/>
<polygon fill="midnightblue" stroke="midnightblue" points="1314.24,-255.63 1323.69,-250.82 1313.31,-248.69 1314.24,-255.63"/>
</g>
<!-- Node27 -->
<g id="node27" class="node">
<title>Node27</title>
<g id="a_node27"><a xlink:title=" ">
<polygon fill="white" stroke="#bfbfbf" points="890.5,-168.5 890.5,-187.5 1029.5,-187.5 1029.5,-168.5 890.5,-168.5"/>
<text text-anchor="middle" x="960" y="-175.5" font-family="Helvetica,sans-Serif" font-size="10.00">Ancillary/FunctionTraits.h</text>
</a>
</g>
</g>
<!-- Node20&#45;&gt;Node27 -->
<g id="edge49" class="edge">
<title>Node20&#45;&gt;Node27</title>
<path fill="none" stroke="midnightblue" d="M960,-291.3C960,-271.85 960,-224.49 960,-197.9"/>
<polygon fill="midnightblue" stroke="midnightblue" points="963.5,-197.62 960,-187.62 956.5,-197.62 963.5,-197.62"/>
</g>
<!-- Node21&#45;&gt;Node2 -->
<g id="edge41" class="edge">
<title>Node21&#45;&gt;Node2</title>
<path fill="none" stroke="midnightblue" d="M1329.37,-224.48C1291.52,-215.93 1244.49,-203.63 1204,-188 1186.19,-181.13 1183.68,-175.18 1166,-168 1063.57,-126.39 937.62,-93.69 870.81,-77.71"/>
<polygon fill="midnightblue" stroke="midnightblue" points="871.54,-74.28 861,-75.38 869.92,-81.1 871.54,-74.28"/>
</g>
<!-- Node21&#45;&gt;Node8 -->
<g id="edge33" class="edge">
<title>Node21&#45;&gt;Node8</title>
<path fill="none" stroke="midnightblue" d="M1476.25,-231.04C1535.35,-223.64 1610.66,-210.16 1632,-188 1655.63,-163.46 1663.43,-138.49 1642,-112 1589.95,-47.67 1337.67,-22.53 1224.33,-14.36"/>
<polygon fill="midnightblue" stroke="midnightblue" points="1224.36,-10.86 1214.14,-13.65 1223.87,-17.84 1224.36,-10.86"/>
</g>
<!-- Node22 -->
<g id="node22" class="node">
<title>Node22</title>
<g id="a_node22"><a xlink:href="sitkPixelIDTypes_8h.html" target="_top" xlink:title=" ">
<polygon fill="white" stroke="black" points="1334.5,-112.5 1334.5,-131.5 1439.5,-131.5 1439.5,-112.5 1334.5,-112.5"/>
<text text-anchor="middle" x="1387" y="-119.5" font-family="Helvetica,sans-Serif" font-size="10.00">sitkPixelIDTypes.h</text>
</a>
</g>
</g>
<!-- Node21&#45;&gt;Node22 -->
<g id="edge34" class="edge">
<title>Node21&#45;&gt;Node22</title>
<path fill="none" stroke="midnightblue" d="M1476.18,-235.5C1546.57,-229.88 1635.07,-213.81 1598,-168 1579.59,-145.25 1505.03,-133.51 1449.73,-127.81"/>
<polygon fill="midnightblue" stroke="midnightblue" points="1449.94,-124.31 1439.65,-126.81 1449.26,-131.28 1449.94,-124.31"/>
</g>
<!-- Node23 -->
<g id="node23" class="node">
<title>Node23</title>
<g id="a_node23"><a xlink:href="sitkPixelIDTypeLists_8h.html" target="_top" xlink:title=" ">
<polygon fill="white" stroke="black" points="1213,-168.5 1213,-187.5 1335,-187.5 1335,-168.5 1213,-168.5"/>
<text text-anchor="middle" x="1274" y="-175.5" font-family="Helvetica,sans-Serif" font-size="10.00">sitkPixelIDTypeLists.h</text>
</a>
</g>
</g>
<!-- Node21&#45;&gt;Node23 -->
<g id="edge35" class="edge">
<title>Node21&#45;&gt;Node23</title>
<path fill="none" stroke="midnightblue" d="M1370.14,-224.4C1349.38,-214.59 1321.9,-201.62 1301.64,-192.05"/>
<polygon fill="midnightblue" stroke="midnightblue" points="1302.87,-188.76 1292.33,-187.66 1299.88,-195.09 1302.87,-188.76"/>
</g>
<!-- Node24 -->
<g id="node24" class="node">
<title>Node24</title>
<g id="a_node24"><a xlink:title=" ">
<polygon fill="white" stroke="#bfbfbf" points="1521.5,-112.5 1521.5,-131.5 1632.5,-131.5 1632.5,-112.5 1521.5,-112.5"/>
<text text-anchor="middle" x="1577" y="-119.5" font-family="Helvetica,sans-Serif" font-size="10.00">Ancillary/TypeList.h</text>
</a>
</g>
</g>
<!-- Node21&#45;&gt;Node24 -->
<g id="edge44" class="edge">
<title>Node21&#45;&gt;Node24</title>
<path fill="none" stroke="midnightblue" d="M1476.26,-230.66C1531.19,-223.26 1598.59,-209.95 1616,-188 1628.61,-172.11 1611.89,-151.79 1596.6,-138.14"/>
<polygon fill="midnightblue" stroke="midnightblue" points="1598.8,-135.41 1588.89,-131.66 1594.3,-140.77 1598.8,-135.41"/>
</g>
<!-- Node26 -->
<g id="node26" class="node">
<title>Node26</title>
<g id="a_node26"><a xlink:href="sitkNonCopyable_8h.html" target="_top" xlink:title=" ">
<polygon fill="white" stroke="black" points="1047.5,-168.5 1047.5,-187.5 1156.5,-187.5 1156.5,-168.5 1047.5,-168.5"/>
<text text-anchor="middle" x="1102" y="-175.5" font-family="Helvetica,sans-Serif" font-size="10.00">sitkNonCopyable.h</text>
</a>
</g>
</g>
<!-- Node21&#45;&gt;Node26 -->
<g id="edge42" class="edge">
<title>Node21&#45;&gt;Node26</title>
<path fill="none" stroke="midnightblue" d="M1329.76,-224.47C1276.1,-213.76 1203.32,-199.23 1154.62,-189.51"/>
<polygon fill="midnightblue" stroke="midnightblue" points="1155.1,-186.03 1144.6,-187.51 1153.72,-192.9 1155.1,-186.03"/>
</g>
<!-- Node21&#45;&gt;Node27 -->
<g id="edge45" class="edge">
<title>Node21&#45;&gt;Node27</title>
<path fill="none" stroke="midnightblue" d="M1323.86,-228.2C1242.25,-217.17 1113.6,-199.77 1033.15,-188.89"/>
<polygon fill="midnightblue" stroke="midnightblue" points="1033.48,-185.41 1023.11,-187.53 1032.55,-192.34 1033.48,-185.41"/>
</g>
<!-- Node28 -->
<g id="node28" class="node">
<title>Node28</title>
<g id="a_node28"><a xlink:title=" ">
<polygon fill="white" stroke="#bfbfbf" points="1353.5,-168.5 1353.5,-187.5 1446.5,-187.5 1446.5,-168.5 1353.5,-168.5"/>
<text text-anchor="middle" x="1400" y="-175.5" font-family="Helvetica,sans-Serif" font-size="10.00">unordered_map</text>
</a>
</g>
</g>
<!-- Node21&#45;&gt;Node28 -->
<g id="edge46" class="edge">
<title>Node21&#45;&gt;Node28</title>
<path fill="none" stroke="midnightblue" d="M1400,-224.4C1400,-216.47 1400,-206.46 1400,-197.86"/>
<polygon fill="midnightblue" stroke="midnightblue" points="1403.5,-197.66 1400,-187.66 1396.5,-197.66 1403.5,-197.66"/>
</g>
<!-- Node29 -->
<g id="node29" class="node">
<title>Node29</title>
<g id="a_node29"><a xlink:title=" ">
<polygon fill="white" stroke="#bfbfbf" points="1464.5,-168.5 1464.5,-187.5 1529.5,-187.5 1529.5,-168.5 1464.5,-168.5"/>
<text text-anchor="middle" x="1497" y="-175.5" font-family="Helvetica,sans-Serif" font-size="10.00">functional</text>
</a>
</g>
</g>
<!-- Node21&#45;&gt;Node29 -->
<g id="edge47" class="edge">
<title>Node21&#45;&gt;Node29</title>
<path fill="none" stroke="midnightblue" d="M1422.99,-224.4C1438.39,-214.95 1458.59,-202.56 1474,-193.11"/>
<polygon fill="midnightblue" stroke="midnightblue" points="1476.19,-195.87 1482.89,-187.66 1472.53,-189.9 1476.19,-195.87"/>
</g>
<!-- Node30 -->
<g id="node30" class="node">
<title>Node30</title>
<g id="a_node30"><a xlink:title=" ">
<polygon fill="white" stroke="#bfbfbf" points="1547.5,-168.5 1547.5,-187.5 1588.5,-187.5 1588.5,-168.5 1547.5,-168.5"/>
<text text-anchor="middle" x="1568" y="-175.5" font-family="Helvetica,sans-Serif" font-size="10.00">tuple</text>
</a>
</g>
</g>
<!-- Node21&#45;&gt;Node30 -->
<g id="edge48" class="edge">
<title>Node21&#45;&gt;Node30</title>
<path fill="none" stroke="midnightblue" d="M1439.81,-224.4C1469.89,-213.75 1510.52,-199.36 1537.92,-189.66"/>
<polygon fill="midnightblue" stroke="midnightblue" points="1539.11,-192.95 1547.36,-186.31 1536.77,-186.35 1539.11,-192.95"/>
</g>
<!-- Node23&#45;&gt;Node3 -->
<g id="edge36" class="edge">
<title>Node23&#45;&gt;Node3</title>
<path fill="none" stroke="midnightblue" d="M1268.21,-168.45C1258.78,-155.02 1238.93,-128.79 1217,-112 1162.57,-70.33 1088.23,-39.04 1045.34,-23.01"/>
<polygon fill="midnightblue" stroke="midnightblue" points="1046.51,-19.71 1035.92,-19.54 1044.09,-26.28 1046.51,-19.71"/>
</g>
<!-- Node23&#45;&gt;Node8 -->
<g id="edge37" class="edge">
<title>Node23&#45;&gt;Node8</title>
<path fill="none" stroke="midnightblue" d="M1271.73,-168.2C1268.2,-155.32 1260.66,-130.85 1250,-112 1231.49,-79.28 1202.59,-46.2 1184.78,-27.2"/>
<polygon fill="midnightblue" stroke="midnightblue" points="1187.1,-24.57 1177.67,-19.74 1182.03,-29.39 1187.1,-24.57"/>
</g>
<!-- Node23&#45;&gt;Node22 -->
<g id="edge38" class="edge">
<title>Node23&#45;&gt;Node22</title>
<path fill="none" stroke="midnightblue" d="M1291.91,-168.44C1310.25,-159.68 1339.01,-145.94 1360.09,-135.86"/>
<polygon fill="midnightblue" stroke="midnightblue" points="1361.67,-138.99 1369.18,-131.52 1358.65,-132.67 1361.67,-138.99"/>
</g>
<!-- Node23&#45;&gt;Node24 -->
<g id="edge39" class="edge">
<title>Node23&#45;&gt;Node24</title>
<path fill="none" stroke="midnightblue" d="M1322.01,-168.44C1375.53,-158.9 1462.07,-143.48 1519.24,-133.29"/>
<polygon fill="midnightblue" stroke="midnightblue" points="1519.98,-136.72 1529.21,-131.52 1518.75,-129.83 1519.98,-136.72"/>
</g>
<!-- Node25 -->
<g id="node25" class="node">
<title>Node25</title>
<g id="a_node25"><a xlink:title=" ">
<polygon fill="white" stroke="#bfbfbf" points="1148.5,-112.5 1148.5,-131.5 1207.5,-131.5 1207.5,-112.5 1148.5,-112.5"/>
<text text-anchor="middle" x="1178" y="-119.5" font-family="Helvetica,sans-Serif" font-size="10.00">complex</text>
</a>
</g>
</g>
<!-- Node23&#45;&gt;Node25 -->
<g id="edge40" class="edge">
<title>Node23&#45;&gt;Node25</title>
<path fill="none" stroke="midnightblue" d="M1258.58,-168.32C1243.46,-159.82 1220.18,-146.73 1202.53,-136.8"/>
<polygon fill="midnightblue" stroke="midnightblue" points="1203.82,-133.51 1193.39,-131.65 1200.39,-139.61 1203.82,-133.51"/>
</g>
<!-- Node26&#45;&gt;Node10 -->
<g id="edge43" class="edge">
<title>Node26&#45;&gt;Node10</title>
<path fill="none" stroke="midnightblue" d="M1047.4,-168.94C1044.56,-168.6 1041.75,-168.28 1039,-168 800.84,-143.32 515.28,-129.89 398.15,-125.08"/>
<polygon fill="midnightblue" stroke="midnightblue" points="398.14,-121.58 388.01,-124.67 397.86,-128.57 398.14,-121.58"/>
</g>
<!-- Node31&#45;&gt;Node8 -->
<g id="edge51" class="edge">
<title>Node31&#45;&gt;Node8</title>
<path fill="none" stroke="midnightblue" d="M678.34,-291.34C694.21,-282.72 718.81,-268.82 739,-255 757.27,-242.49 759.54,-236.23 778,-224 908.24,-137.7 1076.56,-54.89 1141.64,-23.86"/>
<polygon fill="midnightblue" stroke="midnightblue" points="1143.3,-26.95 1150.83,-19.5 1140.29,-20.63 1143.3,-26.95"/>
</g>
<!-- Node32 -->
<g id="node32" class="node">
<title>Node32</title>
<g id="a_node32"><a xlink:href="sitkPixelIDValues_8h.html" target="_top" xlink:title=" ">
<polygon fill="white" stroke="black" points="620,-230 620,-249 730,-249 730,-230 620,-230"/>
<text text-anchor="middle" x="675" y="-237" font-family="Helvetica,sans-Serif" font-size="10.00">sitkPixelIDValues.h</text>
</a>
</g>
</g>
<!-- Node31&#45;&gt;Node32 -->
<g id="edge52" class="edge">
<title>Node31&#45;&gt;Node32</title>
<path fill="none" stroke="midnightblue" d="M663.86,-291.48C665.72,-282.99 668.62,-269.7 671,-258.82"/>
<polygon fill="midnightblue" stroke="midnightblue" points="674.43,-259.53 673.14,-249.01 667.59,-258.03 674.43,-259.53"/>
</g>
<!-- Node31&#45;&gt;Node34 -->
<g id="edge57" class="edge">
<title>Node31&#45;&gt;Node34</title>
<path fill="none" stroke="midnightblue" d="M684.78,-291.48C712.05,-281.27 757.91,-264.11 788.8,-252.55"/>
<polygon fill="midnightblue" stroke="midnightblue" points="790.12,-255.79 798.26,-249.01 787.67,-249.24 790.12,-255.79"/>
</g>
<!-- Node32&#45;&gt;Node10 -->
<g id="edge53" class="edge">
<title>Node32&#45;&gt;Node10</title>
<path fill="none" stroke="midnightblue" d="M684.18,-229.73C698.12,-215.36 721.38,-186.55 705,-168 685.03,-145.39 493.83,-131.47 398.08,-125.85"/>
<polygon fill="midnightblue" stroke="midnightblue" points="398.19,-122.36 388.01,-125.27 397.79,-129.34 398.19,-122.36"/>
</g>
<!-- Node32&#45;&gt;Node11 -->
<g id="edge56" class="edge">
<title>Node32&#45;&gt;Node11</title>
<path fill="none" stroke="midnightblue" d="M619.74,-230.45C545.16,-219.5 415.15,-200.08 350.71,-187.97"/>
<polygon fill="midnightblue" stroke="midnightblue" points="351.06,-184.48 340.58,-186.02 349.74,-191.35 351.06,-184.48"/>
</g>
<!-- Node32&#45;&gt;Node23 -->
<g id="edge54" class="edge">
<title>Node32&#45;&gt;Node23</title>
<path fill="none" stroke="midnightblue" d="M730.26,-230.21C745.69,-228.03 762.48,-225.79 778,-224 858.25,-214.72 1085.61,-195.01 1202.57,-185.04"/>
<polygon fill="midnightblue" stroke="midnightblue" points="1203.18,-188.5 1212.85,-184.17 1202.59,-181.53 1203.18,-188.5"/>
</g>
<!-- Node33 -->
<g id="node33" class="node">
<title>Node33</title>
<g id="a_node33"><a xlink:title=" ">
<polygon fill="white" stroke="#bfbfbf" points="752,-168.5 752,-187.5 796,-187.5 796,-168.5 752,-168.5"/>
<text text-anchor="middle" x="774" y="-175.5" font-family="Helvetica,sans-Serif" font-size="10.00">string</text>
</a>
</g>
</g>
<!-- Node32&#45;&gt;Node33 -->
<g id="edge55" class="edge">
<title>Node32&#45;&gt;Node33</title>
<path fill="none" stroke="midnightblue" d="M689.18,-229.98C705.36,-220.25 732.03,-204.23 751.14,-192.74"/>
<polygon fill="midnightblue" stroke="midnightblue" points="753.07,-195.66 759.84,-187.51 749.47,-189.66 753.07,-195.66"/>
</g>
</g>
</svg>
        <g id="navigator" transform="translate(0 0)" fill="#404254">
                <rect fill="#f2f5e9" fill-opacity="0.5" stroke="#606060" stroke-width=".5" x="0" y="0" width="60" height="60"/>
                <use id="zoomplus" xlink:href="#zoomPlus" x="17" y="9" onmousedown="handleZoom(evt,'in')"/>
                <use id="zoomminus" xlink:href="#zoomMin" x="42" y="9" onmousedown="handleZoom(evt,'out')"/>
                <use id="reset" xlink:href="#resetDef" x="30" y="36" onmousedown="handleReset()"/>
                <g id="arrowUp" xlink:href="#dirArrow" transform="translate(30 24)" onmousedown="handlePan(0,-1)">
                  <use xlink:href="#rim" fill="#404040">
                        <set attributeName="fill" to="#808080" begin="arrowUp.mouseover" end="arrowUp.mouseout"/>
                  </use>
                  <path fill="none" stroke="white" stroke-width="1.5" d="M0,-3.0v7 M-2.5,-0.5L0,-3.0L2.5,-0.5"/>
                </g>
                <g id="arrowRight" xlink:href="#dirArrow" transform="rotate(90) translate(36 -43)" onmousedown="handlePan(1,0)">
                  <use xlink:href="#rim" fill="#404040">
                        <set attributeName="fill" to="#808080" begin="arrowRight.mouseover" end="arrowRight.mouseout"/>
                  </use>
                  <path fill="none" stroke="white" stroke-width="1.5" d="M0,-3.0v7 M-2.5,-0.5L0,-3.0L2.5,-0.5"/>
                </g>
                <g id="arrowDown" xlink:href="#dirArrow" transform="rotate(180) translate(-30 -48)" onmousedown="handlePan(0,1)">
                  <use xlink:href="#rim" fill="#404040">
                        <set attributeName="fill" to="#808080" begin="arrowDown.mouseover" end="arrowDown.mouseout"/>
                  </use>
                  <path fill="none" stroke="white" stroke-width="1.5" d="M0,-3.0v7 M-2.5,-0.5L0,-3.0L2.5,-0.5"/>
                </g>
                <g id="arrowLeft" xlink:href="#dirArrow" transform="rotate(270) translate(-36 17)" onmousedown="handlePan(-1,0)">
                  <use xlink:href="#rim" fill="#404040">
                        <set attributeName="fill" to="#808080" begin="arrowLeft.mouseover" end="arrowLeft.mouseout"/>
                  </use>
                  <path fill="none" stroke="white" stroke-width="1.5" d="M0,-3.0v7 M-2.5,-0.5L0,-3.0L2.5,-0.5"/>
                </g>
        </g>
        <svg viewBox="0 0 15 15" width="100%" height="30px" preserveAspectRatio="xMaxYMin meet">
         <g id="arrow_out" transform="scale(0.3 0.3)">
          <a xlink:href="sitkBasicFilters_8h__incl_org.svg" target="_base">
           <rect id="button" ry="5" rx="5" y="6" x="6" height="38" width="38"
                fill="#f2f5e9" fill-opacity="0.5" stroke="#606060" stroke-width="1.0"/>
           <path id="arrow"
             d="M 11.500037,31.436501 C 11.940474,20.09759 22.043105,11.32322 32.158766,21.979434 L 37.068811,17.246167 C 37.068811,17.246167 37.088388,32 37.088388,32 L 22.160133,31.978069 C 22.160133,31.978069 26.997745,27.140456 26.997745,27.140456 C 18.528582,18.264221 13.291696,25.230495 11.500037,31.436501 z"
             style="fill:#404040;"/>
          </a>
         </g>
        </svg>
</svg>
