<?xml version="1.0" encoding="UTF-8" standalone="no"?>
<!DOCTYPE svg PUBLIC "-//W3C//DTD SVG 1.1//EN"
 "http://www.w3.org/Graphics/SVG/1.1/DTD/svg11.dtd">
<!-- Generated by graphviz version 2.43.0 (0)
 -->
<!-- Title: sitkComposeImageFilter.h Pages: 1 -->
<svg width="387pt" height="151pt"
 viewBox="0.00 0.00 387.37 151.00" xmlns="http://www.w3.org/2000/svg" xmlns:xlink="http://www.w3.org/1999/xlink">
<g id="graph0" class="graph" transform="scale(1 1) rotate(0) translate(4 147)">
<title>sitkComposeImageFilter.h</title>
<polygon fill="white" stroke="transparent" points="-4,4 -4,-147 383.37,-147 383.37,4 -4,4"/>
<!-- Node1 -->
<g id="node1" class="node">
<title>Node1</title>
<g id="a_node1"><a xlink:title=" ">
<polygon fill="#bfbfbf" stroke="black" points="29.87,-123.5 29.87,-142.5 173.87,-142.5 173.87,-123.5 29.87,-123.5"/>
<text text-anchor="middle" x="101.87" y="-130.5" font-family="Helvetica,sans-Serif" font-size="10.00">sitkComposeImageFilter.h</text>
</a>
</g>
</g>
<!-- Node2 -->
<g id="node2" class="node">
<title>Node2</title>
<g id="a_node2"><a xlink:href="SimpleITK_8h.html" target="_top" xlink:title=" ">
<polygon fill="white" stroke="black" points="102.37,-0.5 102.37,-19.5 177.37,-19.5 177.37,-0.5 102.37,-0.5"/>
<text text-anchor="middle" x="139.87" y="-7.5" font-family="Helvetica,sans-Serif" font-size="10.00">SimpleITK.h</text>
</a>
</g>
</g>
<!-- Node1&#45;&gt;Node2 -->
<g id="edge1" class="edge">
<title>Node1&#45;&gt;Node2</title>
<path fill="none" stroke="midnightblue" d="M50.85,-120.13C33.55,-113.4 16.03,-102.99 5.87,-87 -1.52,-75.37 -2.17,-67.19 5.87,-56 27.65,-25.71 70.8,-15.53 102.27,-12.25"/>
<polygon fill="midnightblue" stroke="midnightblue" points="49.8,-123.47 60.4,-123.5 52.14,-116.87 49.8,-123.47"/>
</g>
<!-- Node3 -->
<g id="node3" class="node">
<title>Node3</title>
<g id="a_node3"><a xlink:href="CMakeTmp_2SimpleITKBasicFiltersGeneratedHeaders_8h.html" target="_top" xlink:title=" ">
<polygon fill="white" stroke="black" points="15.37,-56.5 15.37,-86.5 188.37,-86.5 188.37,-56.5 15.37,-56.5"/>
<text text-anchor="start" x="23.37" y="-74.5" font-family="Helvetica,sans-Serif" font-size="10.00">SimpleITKBasicFiltersGenerated</text>
<text text-anchor="middle" x="101.87" y="-63.5" font-family="Helvetica,sans-Serif" font-size="10.00">Headers.h</text>
</a>
</g>
</g>
<!-- Node1&#45;&gt;Node3 -->
<g id="edge2" class="edge">
<title>Node1&#45;&gt;Node3</title>
<path fill="none" stroke="midnightblue" d="M101.87,-113.23C101.87,-104.59 101.87,-94.5 101.87,-86.52"/>
<polygon fill="midnightblue" stroke="midnightblue" points="98.37,-113.48 101.87,-123.48 105.37,-113.48 98.37,-113.48"/>
</g>
<!-- Node4 -->
<g id="node4" class="node">
<title>Node4</title>
<g id="a_node4"><a xlink:href="include_2SimpleITKBasicFiltersGeneratedHeaders_8h.html" target="_top" xlink:title=" ">
<polygon fill="white" stroke="black" points="206.37,-56.5 206.37,-86.5 379.37,-86.5 379.37,-56.5 206.37,-56.5"/>
<text text-anchor="start" x="214.37" y="-74.5" font-family="Helvetica,sans-Serif" font-size="10.00">SimpleITKBasicFiltersGenerated</text>
<text text-anchor="middle" x="292.87" y="-63.5" font-family="Helvetica,sans-Serif" font-size="10.00">Headers.h</text>
</a>
</g>
</g>
<!-- Node1&#45;&gt;Node4 -->
<g id="edge3" class="edge">
<title>Node1&#45;&gt;Node4</title>
<path fill="none" stroke="midnightblue" d="M138.84,-120.48C169.98,-110.78 214.64,-96.87 247.85,-86.52"/>
<polygon fill="midnightblue" stroke="midnightblue" points="137.74,-117.16 129.24,-123.48 139.82,-123.84 137.74,-117.16"/>
</g>
<!-- Node4&#45;&gt;Node2 -->
<g id="edge4" class="edge">
<title>Node4&#45;&gt;Node2</title>
<path fill="none" stroke="midnightblue" d="M246.99,-52.66C218.93,-41.75 184.28,-28.27 162.13,-19.66"/>
<polygon fill="midnightblue" stroke="midnightblue" points="246.02,-56.04 256.61,-56.4 248.56,-49.51 246.02,-56.04"/>
</g>
</g>
</svg>
