<?xml version="1.0" encoding="UTF-8" standalone="no"?>
<!DOCTYPE svg PUBLIC "-//W3C//DTD SVG 1.1//EN"
 "http://www.w3.org/Graphics/SVG/1.1/DTD/svg11.dtd">
<!-- Generated by graphviz version 2.43.0 (0)
 -->
<!-- Title: sitkImageReaderBase.h Pages: 1 -->
<!--zoomable 543 -->
<svg id="main" version="1.1" xmlns="http://www.w3.org/2000/svg" xmlns:xlink="http://www.w3.org/1999/xlink" xml:space="preserve" onload="init(evt)">
<style type="text/css"><![CDATA[
.edge:hover path { stroke: red; }
.edge:hover polygon { stroke: red; fill: red; }
]]></style>
<script type="text/javascript"><![CDATA[
var edges = document.getElementsByTagName('g');
if (edges && edges.length) {
  for (var i=0;i<edges.length;i++) {
    if (edges[i].id.substr(0,4)=='edge') {
      edges[i].setAttribute('class','edge');
    }
  }
}
]]></script>
        <defs>
                <circle id="rim" cx="0" cy="0" r="7"/>
                <circle id="rim2" cx="0" cy="0" r="3.5"/>
                <g id="zoomPlus">
                        <use xlink:href="#rim" fill="#404040">
                                <set attributeName="fill" to="#808080" begin="zoomplus.mouseover" end="zoomplus.mouseout"/>
                        </use>
                        <path d="M-4,0h8M0,-4v8" fill="none" stroke="white" stroke-width="1.5" pointer-events="none"/>
                </g>
                <g id="zoomMin">
                        <use xlink:href="#rim" fill="#404040">
                                <set attributeName="fill" to="#808080" begin="zoomminus.mouseover" end="zoomminus.mouseout"/>
                        </use>
                        <path d="M-4,0h8" fill="none" stroke="white" stroke-width="1.5" pointer-events="none"/>
                </g>
                <g id="dirArrow">
                        <path fill="none" stroke="white" stroke-width="1.5" d="M0,-3.0v7 M-2.5,-0.5L0,-3.0L2.5,-0.5"/>
                </g>
               <g id="resetDef">
                       <use xlink:href="#rim2" fill="#404040">
                               <set attributeName="fill" to="#808080" begin="reset.mouseover" end="reset.mouseout"/>
                       </use>
               </g>
        </defs>

<script type="text/javascript">
var viewWidth = 1524;
var viewHeight = 543;
var sectionId = 'dynsection-0';
</script>
<script xlink:href="svgpan.js"/>
<svg id="graph" class="graph">
<g id="viewport">
<title>sitkImageReaderBase.h</title>
<polygon fill="white" stroke="transparent" points="-4,4 -4,-539 1519.54,-539 1519.54,4 -4,4"/>
<!-- Node1 -->
<g id="node1" class="node">
<title>Node1</title>
<g id="a_node1"><a xlink:title=" ">
<polygon fill="#bfbfbf" stroke="black" points="228.5,-515.5 228.5,-534.5 361.5,-534.5 361.5,-515.5 228.5,-515.5"/>
<text text-anchor="middle" x="295" y="-522.5" font-family="Helvetica,sans-Serif" font-size="10.00">sitkImageReaderBase.h</text>
</a>
</g>
</g>
<!-- Node2 -->
<g id="node2" class="node">
<title>Node2</title>
<g id="a_node2"><a xlink:href="sitkProcessObject_8h.html" target="_top" xlink:title=" ">
<polygon fill="white" stroke="black" points="238.5,-459.5 238.5,-478.5 351.5,-478.5 351.5,-459.5 238.5,-459.5"/>
<text text-anchor="middle" x="295" y="-466.5" font-family="Helvetica,sans-Serif" font-size="10.00">sitkProcessObject.h</text>
</a>
</g>
</g>
<!-- Node1&#45;&gt;Node2 -->
<g id="edge1" class="edge">
<title>Node1&#45;&gt;Node2</title>
<path fill="none" stroke="midnightblue" d="M295,-515.08C295,-508.01 295,-497.86 295,-488.99"/>
<polygon fill="midnightblue" stroke="midnightblue" points="298.5,-488.75 295,-478.75 291.5,-488.75 298.5,-488.75"/>
</g>
<!-- Node30 -->
<g id="node30" class="node">
<title>Node30</title>
<g id="a_node30"><a xlink:href="sitkPixelIDValues_8h.html" target="_top" xlink:title=" ">
<polygon fill="white" stroke="black" points="662,-230 662,-249 772,-249 772,-230 662,-230"/>
<text text-anchor="middle" x="717" y="-237" font-family="Helvetica,sans-Serif" font-size="10.00">sitkPixelIDValues.h</text>
</a>
</g>
</g>
<!-- Node1&#45;&gt;Node30 -->
<g id="edge63" class="edge">
<title>Node1&#45;&gt;Node30</title>
<path fill="none" stroke="midnightblue" d="M361.55,-520.31C479.98,-511.92 715,-486.17 715,-414 715,-414 715,-414 715,-356 715,-321.86 715.88,-282.05 716.48,-259.21"/>
<polygon fill="midnightblue" stroke="midnightblue" points="719.98,-259.28 716.75,-249.19 712.98,-259.09 719.98,-259.28"/>
</g>
<!-- Node38 -->
<g id="node38" class="node">
<title>Node38</title>
<g id="a_node38"><a xlink:href="sitkIO_8h.html" target="_top" xlink:title=" ">
<polygon fill="white" stroke="black" points="3,-347.5 3,-366.5 57,-366.5 57,-347.5 3,-347.5"/>
<text text-anchor="middle" x="30" y="-354.5" font-family="Helvetica,sans-Serif" font-size="10.00">sitkIO.h</text>
</a>
</g>
</g>
<!-- Node1&#45;&gt;Node38 -->
<g id="edge64" class="edge">
<title>Node1&#45;&gt;Node38</title>
<path fill="none" stroke="midnightblue" d="M274.03,-515.39C237.13,-499.76 158.93,-464.46 100,-423 79.36,-408.48 58.53,-388.26 45.03,-374.25"/>
<polygon fill="midnightblue" stroke="midnightblue" points="47.39,-371.66 37.98,-366.8 42.31,-376.47 47.39,-371.66"/>
</g>
<!-- Node3 -->
<g id="node3" class="node">
<title>Node3</title>
<g id="a_node3"><a xlink:href="sitkCommon_8h.html" target="_top" xlink:title=" ">
<polygon fill="white" stroke="black" points="444,-112.5 444,-131.5 532,-131.5 532,-112.5 444,-112.5"/>
<text text-anchor="middle" x="488" y="-119.5" font-family="Helvetica,sans-Serif" font-size="10.00">sitkCommon.h</text>
</a>
</g>
</g>
<!-- Node2&#45;&gt;Node3 -->
<g id="edge2" class="edge">
<title>Node2&#45;&gt;Node3</title>
<path fill="none" stroke="midnightblue" d="M273.62,-459.37C256.87,-451.76 233.83,-439.35 218,-423 130.48,-332.59 11.24,-261.9 95,-168 117.15,-143.16 331.08,-130.14 433.66,-125.28"/>
<polygon fill="midnightblue" stroke="midnightblue" points="434,-128.77 443.83,-124.81 433.67,-121.77 434,-128.77"/>
</g>
<!-- Node11 -->
<g id="node11" class="node">
<title>Node11</title>
<g id="a_node11"><a xlink:href="sitkNonCopyable_8h.html" target="_top" xlink:title=" ">
<polygon fill="white" stroke="black" points="711.5,-168.5 711.5,-187.5 820.5,-187.5 820.5,-168.5 711.5,-168.5"/>
<text text-anchor="middle" x="766" y="-175.5" font-family="Helvetica,sans-Serif" font-size="10.00">sitkNonCopyable.h</text>
</a>
</g>
</g>
<!-- Node2&#45;&gt;Node11 -->
<g id="edge10" class="edge">
<title>Node2&#45;&gt;Node11</title>
<path fill="none" stroke="midnightblue" d="M351.63,-463.08C410.3,-456.91 496.86,-444.45 522,-423 545.43,-403.01 546,-388.8 546,-358 546,-358 546,-358 546,-300 546,-265.07 540.86,-248.25 566,-224 585.21,-205.47 650.57,-193.2 701.41,-186.22"/>
<polygon fill="midnightblue" stroke="midnightblue" points="701.91,-189.69 711.36,-184.9 700.99,-182.75 701.91,-189.69"/>
</g>
<!-- Node12 -->
<g id="node12" class="node">
<title>Node12</title>
<g id="a_node12"><a xlink:href="sitkTemplateFunctions_8h.html" target="_top" xlink:title=" ">
<polygon fill="white" stroke="black" points="136.5,-230 136.5,-249 271.5,-249 271.5,-230 136.5,-230"/>
<text text-anchor="middle" x="204" y="-237" font-family="Helvetica,sans-Serif" font-size="10.00">sitkTemplateFunctions.h</text>
</a>
</g>
</g>
<!-- Node2&#45;&gt;Node12 -->
<g id="edge12" class="edge">
<title>Node2&#45;&gt;Node12</title>
<path fill="none" stroke="midnightblue" d="M267.47,-459.37C250.21,-452.43 229.17,-440.85 218,-423 185.6,-371.23 193.96,-294.33 200.14,-259.21"/>
<polygon fill="midnightblue" stroke="midnightblue" points="203.58,-259.84 202.01,-249.36 196.7,-258.53 203.58,-259.84"/>
</g>
<!-- Node17 -->
<g id="node17" class="node">
<title>Node17</title>
<g id="a_node17"><a xlink:href="sitkEvent_8h.html" target="_top" xlink:title=" ">
<polygon fill="white" stroke="black" points="328.5,-230 328.5,-249 399.5,-249 399.5,-230 328.5,-230"/>
<text text-anchor="middle" x="364" y="-237" font-family="Helvetica,sans-Serif" font-size="10.00">sitkEvent.h</text>
</a>
</g>
</g>
<!-- Node2&#45;&gt;Node17 -->
<g id="edge21" class="edge">
<title>Node2&#45;&gt;Node17</title>
<path fill="none" stroke="midnightblue" d="M269.84,-459.38C253.58,-452.34 233.71,-440.65 224,-423 219.72,-415.21 220.91,-411.33 224,-403 248.28,-337.63 311.95,-280.94 344.39,-255.22"/>
<polygon fill="midnightblue" stroke="midnightblue" points="346.54,-257.98 352.29,-249.08 342.25,-252.45 346.54,-257.98"/>
</g>
<!-- Node18 -->
<g id="node18" class="node">
<title>Node18</title>
<g id="a_node18"><a xlink:href="sitkImage_8h.html" target="_top" xlink:title=" ">
<polygon fill="white" stroke="black" points="416,-347.5 416,-366.5 490,-366.5 490,-347.5 416,-347.5"/>
<text text-anchor="middle" x="453" y="-354.5" font-family="Helvetica,sans-Serif" font-size="10.00">sitkImage.h</text>
</a>
</g>
</g>
<!-- Node2&#45;&gt;Node18 -->
<g id="edge24" class="edge">
<title>Node2&#45;&gt;Node18</title>
<path fill="none" stroke="midnightblue" d="M307.4,-459.37C334.4,-440.57 398.75,-395.77 432.12,-372.53"/>
<polygon fill="midnightblue" stroke="midnightblue" points="434.45,-375.18 440.66,-366.59 430.45,-369.43 434.45,-375.18"/>
</g>
<!-- Node35 -->
<g id="node35" class="node">
<title>Node35</title>
<g id="a_node35"><a xlink:href="sitkImageConvert_8h.html" target="_top" xlink:title=" ">
<polygon fill="white" stroke="black" points="399.5,-403.5 399.5,-422.5 512.5,-422.5 512.5,-403.5 399.5,-403.5"/>
<text text-anchor="middle" x="456" y="-410.5" font-family="Helvetica,sans-Serif" font-size="10.00">sitkImageConvert.h</text>
</a>
</g>
</g>
<!-- Node2&#45;&gt;Node35 -->
<g id="edge59" class="edge">
<title>Node2&#45;&gt;Node35</title>
<path fill="none" stroke="midnightblue" d="M320.51,-459.44C347.6,-450.36 390.59,-435.94 420.87,-425.78"/>
<polygon fill="midnightblue" stroke="midnightblue" points="422.24,-429.01 430.61,-422.52 420.01,-422.38 422.24,-429.01"/>
</g>
<!-- Node36 -->
<g id="node36" class="node">
<title>Node36</title>
<g id="a_node36"><a xlink:title=" ">
<polygon fill="white" stroke="#bfbfbf" points="233,-403.5 233,-422.5 293,-422.5 293,-403.5 233,-403.5"/>
<text text-anchor="middle" x="263" y="-410.5" font-family="Helvetica,sans-Serif" font-size="10.00">iostream</text>
</a>
</g>
</g>
<!-- Node2&#45;&gt;Node36 -->
<g id="edge61" class="edge">
<title>Node2&#45;&gt;Node36</title>
<path fill="none" stroke="midnightblue" d="M289.72,-459.08C285.29,-451.61 278.84,-440.72 273.38,-431.52"/>
<polygon fill="midnightblue" stroke="midnightblue" points="276.29,-429.57 268.19,-422.75 270.27,-433.14 276.29,-429.57"/>
</g>
<!-- Node37 -->
<g id="node37" class="node">
<title>Node37</title>
<g id="a_node37"><a xlink:title=" ">
<polygon fill="white" stroke="#bfbfbf" points="311,-403.5 311,-422.5 343,-422.5 343,-403.5 311,-403.5"/>
<text text-anchor="middle" x="327" y="-410.5" font-family="Helvetica,sans-Serif" font-size="10.00">list</text>
</a>
</g>
</g>
<!-- Node2&#45;&gt;Node37 -->
<g id="edge62" class="edge">
<title>Node2&#45;&gt;Node37</title>
<path fill="none" stroke="midnightblue" d="M300.28,-459.08C304.71,-451.61 311.16,-440.72 316.62,-431.52"/>
<polygon fill="midnightblue" stroke="midnightblue" points="319.73,-433.14 321.81,-422.75 313.71,-429.57 319.73,-433.14"/>
</g>
<!-- Node4 -->
<g id="node4" class="node">
<title>Node4</title>
<g id="a_node4"><a xlink:href="sitkMacro_8h.html" target="_top" xlink:title=" ">
<polygon fill="white" stroke="black" points="451,-56.5 451,-75.5 525,-75.5 525,-56.5 451,-56.5"/>
<text text-anchor="middle" x="488" y="-63.5" font-family="Helvetica,sans-Serif" font-size="10.00">sitkMacro.h</text>
</a>
</g>
</g>
<!-- Node3&#45;&gt;Node4 -->
<g id="edge3" class="edge">
<title>Node3&#45;&gt;Node4</title>
<path fill="none" stroke="midnightblue" d="M488,-112.08C488,-105.01 488,-94.86 488,-85.99"/>
<polygon fill="midnightblue" stroke="midnightblue" points="491.5,-85.75 488,-75.75 484.5,-85.75 491.5,-85.75"/>
</g>
<!-- Node5 -->
<g id="node5" class="node">
<title>Node5</title>
<g id="a_node5"><a xlink:title=" ">
<polygon fill="white" stroke="#bfbfbf" points="767.5,-0.5 767.5,-19.5 820.5,-19.5 820.5,-0.5 767.5,-0.5"/>
<text text-anchor="middle" x="794" y="-7.5" font-family="Helvetica,sans-Serif" font-size="10.00">stdint.h</text>
</a>
</g>
</g>
<!-- Node4&#45;&gt;Node5 -->
<g id="edge4" class="edge">
<title>Node4&#45;&gt;Node5</title>
<path fill="none" stroke="midnightblue" d="M525.22,-58.43C584.27,-48.01 698.73,-27.81 757.39,-17.46"/>
<polygon fill="midnightblue" stroke="midnightblue" points="758.09,-20.89 767.33,-15.71 756.88,-14 758.09,-20.89"/>
</g>
<!-- Node6 -->
<g id="node6" class="node">
<title>Node6</title>
<g id="a_node6"><a xlink:title=" ">
<polygon fill="white" stroke="#bfbfbf" points="494,-0.5 494,-19.5 550,-19.5 550,-0.5 494,-0.5"/>
<text text-anchor="middle" x="522" y="-7.5" font-family="Helvetica,sans-Serif" font-size="10.00">stddef.h</text>
</a>
</g>
</g>
<!-- Node4&#45;&gt;Node6 -->
<g id="edge5" class="edge">
<title>Node4&#45;&gt;Node6</title>
<path fill="none" stroke="midnightblue" d="M493.61,-56.08C498.37,-48.53 505.32,-37.49 511.15,-28.23"/>
<polygon fill="midnightblue" stroke="midnightblue" points="514.12,-30.08 516.49,-19.75 508.2,-26.35 514.12,-30.08"/>
</g>
<!-- Node7 -->
<g id="node7" class="node">
<title>Node7</title>
<g id="a_node7"><a xlink:title=" ">
<polygon fill="white" stroke="#bfbfbf" points="568,-0.5 568,-19.5 620,-19.5 620,-0.5 568,-0.5"/>
<text text-anchor="middle" x="594" y="-7.5" font-family="Helvetica,sans-Serif" font-size="10.00">cassert</text>
</a>
</g>
</g>
<!-- Node4&#45;&gt;Node7 -->
<g id="edge6" class="edge">
<title>Node4&#45;&gt;Node7</title>
<path fill="none" stroke="midnightblue" d="M505.03,-56.32C522.03,-47.66 548.38,-34.24 567.99,-24.25"/>
<polygon fill="midnightblue" stroke="midnightblue" points="569.69,-27.31 577.01,-19.65 566.51,-21.08 569.69,-27.31"/>
</g>
<!-- Node8 -->
<g id="node8" class="node">
<title>Node8</title>
<g id="a_node8"><a xlink:title=" ">
<polygon fill="white" stroke="#bfbfbf" points="358,-0.5 358,-19.5 414,-19.5 414,-0.5 358,-0.5"/>
<text text-anchor="middle" x="386" y="-7.5" font-family="Helvetica,sans-Serif" font-size="10.00">sstream</text>
</a>
</g>
</g>
<!-- Node4&#45;&gt;Node8 -->
<g id="edge7" class="edge">
<title>Node4&#45;&gt;Node8</title>
<path fill="none" stroke="midnightblue" d="M471.61,-56.32C455.33,-47.7 430.13,-34.36 411.28,-24.39"/>
<polygon fill="midnightblue" stroke="midnightblue" points="412.82,-21.24 402.35,-19.65 409.55,-27.43 412.82,-21.24"/>
</g>
<!-- Node9 -->
<g id="node9" class="node">
<title>Node9</title>
<g id="a_node9"><a xlink:title=" ">
<polygon fill="white" stroke="#bfbfbf" points="432,-0.5 432,-19.5 476,-19.5 476,-0.5 432,-0.5"/>
<text text-anchor="middle" x="454" y="-7.5" font-family="Helvetica,sans-Serif" font-size="10.00">limits</text>
</a>
</g>
</g>
<!-- Node4&#45;&gt;Node9 -->
<g id="edge8" class="edge">
<title>Node4&#45;&gt;Node9</title>
<path fill="none" stroke="midnightblue" d="M482.39,-56.08C477.63,-48.53 470.68,-37.49 464.85,-28.23"/>
<polygon fill="midnightblue" stroke="midnightblue" points="467.8,-26.35 459.51,-19.75 461.88,-30.08 467.8,-26.35"/>
</g>
<!-- Node10 -->
<g id="node10" class="node">
<title>Node10</title>
<g id="a_node10"><a xlink:href="sitkConfigure_8h.html" target="_top" xlink:title=" ">
<polygon fill="white" stroke="black" points="963,-0.5 963,-19.5 1053,-19.5 1053,-0.5 963,-0.5"/>
<text text-anchor="middle" x="1008" y="-7.5" font-family="Helvetica,sans-Serif" font-size="10.00">sitkConfigure.h</text>
</a>
</g>
</g>
<!-- Node4&#45;&gt;Node10 -->
<g id="edge9" class="edge">
<title>Node4&#45;&gt;Node10</title>
<path fill="none" stroke="midnightblue" d="M525.4,-61.12C615.77,-51.73 846.4,-27.78 952.75,-16.74"/>
<polygon fill="midnightblue" stroke="midnightblue" points="953.37,-20.19 962.95,-15.68 952.65,-13.23 953.37,-20.19"/>
</g>
<!-- Node11&#45;&gt;Node3 -->
<g id="edge11" class="edge">
<title>Node11&#45;&gt;Node3</title>
<path fill="none" stroke="midnightblue" d="M721.95,-168.44C673.15,-158.96 594.44,-143.67 541.97,-133.48"/>
<polygon fill="midnightblue" stroke="midnightblue" points="542.33,-129.99 531.84,-131.52 540.99,-136.86 542.33,-129.99"/>
</g>
<!-- Node12&#45;&gt;Node3 -->
<g id="edge14" class="edge">
<title>Node12&#45;&gt;Node3</title>
<path fill="none" stroke="midnightblue" d="M222.1,-229.86C242.89,-219.9 278.01,-202.97 308,-188 325.43,-179.3 328.99,-175.43 347,-168 379.72,-154.5 418.06,-142.5 446.49,-134.29"/>
<polygon fill="midnightblue" stroke="midnightblue" points="447.45,-137.66 456.11,-131.55 445.53,-130.92 447.45,-137.66"/>
</g>
<!-- Node12&#45;&gt;Node4 -->
<g id="edge13" class="edge">
<title>Node12&#45;&gt;Node4</title>
<path fill="none" stroke="midnightblue" d="M166.11,-229.93C126.23,-219.11 72.14,-198.18 95,-168 136.77,-112.86 345.73,-82.88 440.79,-71.91"/>
<polygon fill="midnightblue" stroke="midnightblue" points="441.44,-75.36 450.98,-70.76 440.65,-68.4 441.44,-75.36"/>
</g>
<!-- Node13 -->
<g id="node13" class="node">
<title>Node13</title>
<g id="a_node13"><a xlink:href="sitkExceptionObject_8h.html" target="_top" xlink:title=" ">
<polygon fill="white" stroke="black" points="104.5,-168.5 104.5,-187.5 227.5,-187.5 227.5,-168.5 104.5,-168.5"/>
<text text-anchor="middle" x="166" y="-175.5" font-family="Helvetica,sans-Serif" font-size="10.00">sitkExceptionObject.h</text>
</a>
</g>
</g>
<!-- Node12&#45;&gt;Node13 -->
<g id="edge15" class="edge">
<title>Node12&#45;&gt;Node13</title>
<path fill="none" stroke="midnightblue" d="M198.56,-229.98C192.91,-221.14 183.94,-207.09 176.84,-195.98"/>
<polygon fill="midnightblue" stroke="midnightblue" points="179.77,-194.05 171.43,-187.51 173.87,-197.82 179.77,-194.05"/>
</g>
<!-- Node14 -->
<g id="node14" class="node">
<title>Node14</title>
<g id="a_node14"><a xlink:title=" ">
<polygon fill="white" stroke="#bfbfbf" points="355.5,-168.5 355.5,-187.5 402.5,-187.5 402.5,-168.5 355.5,-168.5"/>
<text text-anchor="middle" x="379" y="-175.5" font-family="Helvetica,sans-Serif" font-size="10.00">vector</text>
</a>
</g>
</g>
<!-- Node12&#45;&gt;Node14 -->
<g id="edge18" class="edge">
<title>Node12&#45;&gt;Node14</title>
<path fill="none" stroke="midnightblue" d="M229.07,-229.98C259.78,-219.53 311.9,-201.82 345.88,-190.26"/>
<polygon fill="midnightblue" stroke="midnightblue" points="347.03,-193.57 355.37,-187.03 344.78,-186.94 347.03,-193.57"/>
</g>
<!-- Node15 -->
<g id="node15" class="node">
<title>Node15</title>
<g id="a_node15"><a xlink:title=" ">
<polygon fill="white" stroke="#bfbfbf" points="459.5,-168.5 459.5,-187.5 516.5,-187.5 516.5,-168.5 459.5,-168.5"/>
<text text-anchor="middle" x="488" y="-175.5" font-family="Helvetica,sans-Serif" font-size="10.00">ostream</text>
</a>
</g>
</g>
<!-- Node12&#45;&gt;Node15 -->
<g id="edge19" class="edge">
<title>Node12&#45;&gt;Node15</title>
<path fill="none" stroke="midnightblue" d="M244.69,-229.98C299.44,-218.5 396.13,-198.25 449.66,-187.03"/>
<polygon fill="midnightblue" stroke="midnightblue" points="450.37,-190.46 459.44,-184.98 448.94,-183.61 450.37,-190.46"/>
</g>
<!-- Node16 -->
<g id="node16" class="node">
<title>Node16</title>
<g id="a_node16"><a xlink:title=" ">
<polygon fill="white" stroke="#bfbfbf" points="245.5,-168.5 245.5,-187.5 298.5,-187.5 298.5,-168.5 245.5,-168.5"/>
<text text-anchor="middle" x="272" y="-175.5" font-family="Helvetica,sans-Serif" font-size="10.00">iterator</text>
</a>
</g>
</g>
<!-- Node12&#45;&gt;Node16 -->
<g id="edge20" class="edge">
<title>Node12&#45;&gt;Node16</title>
<path fill="none" stroke="midnightblue" d="M213.74,-229.98C224.35,-220.7 241.52,-205.67 254.48,-194.33"/>
<polygon fill="midnightblue" stroke="midnightblue" points="257.05,-196.73 262.28,-187.51 252.44,-191.46 257.05,-196.73"/>
</g>
<!-- Node13&#45;&gt;Node3 -->
<g id="edge17" class="edge">
<title>Node13&#45;&gt;Node3</title>
<path fill="none" stroke="midnightblue" d="M217.02,-168.44C276.2,-158.52 373.34,-142.23 433.83,-132.08"/>
<polygon fill="midnightblue" stroke="midnightblue" points="434.66,-135.49 443.94,-130.39 433.5,-128.59 434.66,-135.49"/>
</g>
<!-- Node13&#45;&gt;Node4 -->
<g id="edge16" class="edge">
<title>Node13&#45;&gt;Node4</title>
<path fill="none" stroke="midnightblue" d="M191,-168.46C247.94,-149.01 387.43,-101.36 452.94,-78.98"/>
<polygon fill="midnightblue" stroke="midnightblue" points="454.46,-82.16 462.8,-75.61 452.2,-75.53 454.46,-82.16"/>
</g>
<!-- Node17&#45;&gt;Node3 -->
<g id="edge22" class="edge">
<title>Node17&#45;&gt;Node3</title>
<path fill="none" stroke="midnightblue" d="M373.32,-229.82C394.15,-210.42 444.7,-163.33 471.18,-138.66"/>
<polygon fill="midnightblue" stroke="midnightblue" points="473.64,-141.16 478.57,-131.78 468.87,-136.04 473.64,-141.16"/>
</g>
<!-- Node17&#45;&gt;Node15 -->
<g id="edge23" class="edge">
<title>Node17&#45;&gt;Node15</title>
<path fill="none" stroke="midnightblue" d="M381.77,-229.98C402.48,-220.03 436.95,-203.49 460.99,-191.96"/>
<polygon fill="midnightblue" stroke="midnightblue" points="462.77,-194.99 470.27,-187.51 459.74,-188.68 462.77,-194.99"/>
</g>
<!-- Node18&#45;&gt;Node3 -->
<g id="edge25" class="edge">
<title>Node18&#45;&gt;Node3</title>
<path fill="none" stroke="midnightblue" d="M490.33,-353.61C538.97,-349.48 625.96,-338.62 695,-311 737.35,-294.06 759.26,-295.1 781,-255 787.57,-242.89 788.43,-235.61 781,-224 760.42,-191.84 737.33,-204.71 703,-188 685.49,-179.47 682.22,-174.9 664,-168 624.27,-152.95 577.62,-141.28 542.34,-133.6"/>
<polygon fill="midnightblue" stroke="midnightblue" points="542.75,-130.11 532.24,-131.44 541.28,-136.95 542.75,-130.11"/>
</g>
<!-- Node18&#45;&gt;Node12 -->
<g id="edge26" class="edge">
<title>Node18&#45;&gt;Node12</title>
<path fill="none" stroke="midnightblue" d="M415.75,-350.85C380.7,-344.9 327.54,-332.98 286,-311 259.43,-296.94 234.03,-272.9 218.72,-256.85"/>
<polygon fill="midnightblue" stroke="midnightblue" points="221.05,-254.22 211.68,-249.29 215.93,-258.99 221.05,-254.22"/>
</g>
<!-- Node18&#45;&gt;Node14 -->
<g id="edge56" class="edge">
<title>Node18&#45;&gt;Node14</title>
<path fill="none" stroke="midnightblue" d="M431.97,-347.41C400.78,-333.38 343.46,-302.27 320,-255 313.88,-242.66 313.89,-236.35 320,-224 326.6,-210.66 339.26,-200.19 351.17,-192.73"/>
<polygon fill="midnightblue" stroke="midnightblue" points="353.12,-195.64 360.02,-187.6 349.61,-189.59 353.12,-195.64"/>
</g>
<!-- Node19 -->
<g id="node19" class="node">
<title>Node19</title>
<g id="a_node19"><a xlink:href="sitkDetail_8h.html" target="_top" xlink:title=" ">
<polygon fill="white" stroke="black" points="910.5,-291.5 910.5,-310.5 983.5,-310.5 983.5,-291.5 910.5,-291.5"/>
<text text-anchor="middle" x="947" y="-298.5" font-family="Helvetica,sans-Serif" font-size="10.00">sitkDetail.h</text>
</a>
</g>
</g>
<!-- Node18&#45;&gt;Node19 -->
<g id="edge27" class="edge">
<title>Node18&#45;&gt;Node19</title>
<path fill="none" stroke="midnightblue" d="M490.13,-351.94C578.79,-342.25 802.68,-317.78 900.29,-307.11"/>
<polygon fill="midnightblue" stroke="midnightblue" points="900.89,-310.56 910.45,-306 900.13,-303.6 900.89,-310.56"/>
</g>
<!-- Node29 -->
<g id="node29" class="node">
<title>Node29</title>
<g id="a_node29"><a xlink:href="sitkPixelIDTokens_8h.html" target="_top" xlink:title=" ">
<polygon fill="white" stroke="black" points="576,-291.5 576,-310.5 686,-310.5 686,-291.5 576,-291.5"/>
<text text-anchor="middle" x="631" y="-298.5" font-family="Helvetica,sans-Serif" font-size="10.00">sitkPixelIDTokens.h</text>
</a>
</g>
</g>
<!-- Node18&#45;&gt;Node29 -->
<g id="edge45" class="edge">
<title>Node18&#45;&gt;Node29</title>
<path fill="none" stroke="midnightblue" d="M481.2,-347.44C511.41,-338.28 559.51,-323.69 593.03,-313.52"/>
<polygon fill="midnightblue" stroke="midnightblue" points="594.37,-316.77 602.93,-310.52 592.34,-310.07 594.37,-316.77"/>
</g>
<!-- Node32 -->
<g id="node32" class="node">
<title>Node32</title>
<g id="a_node32"><a xlink:title=" ">
<polygon fill="white" stroke="#bfbfbf" points="574.5,-230 574.5,-249 643.5,-249 643.5,-230 574.5,-230"/>
<text text-anchor="middle" x="609" y="-237" font-family="Helvetica,sans-Serif" font-size="10.00">type_traits</text>
</a>
</g>
</g>
<!-- Node18&#45;&gt;Node32 -->
<g id="edge58" class="edge">
<title>Node18&#45;&gt;Node32</title>
<path fill="none" stroke="midnightblue" d="M464.73,-347.32C491.15,-327.75 555.63,-280.02 588.7,-255.53"/>
<polygon fill="midnightblue" stroke="midnightblue" points="591.18,-258.05 597.14,-249.28 587.02,-252.42 591.18,-258.05"/>
</g>
<!-- Node33 -->
<g id="node33" class="node">
<title>Node33</title>
<g id="a_node33"><a xlink:href="sitkInterpolator_8h.html" target="_top" xlink:title=" ">
<polygon fill="white" stroke="black" points="418,-230 418,-249 518,-249 518,-230 418,-230"/>
<text text-anchor="middle" x="468" y="-237" font-family="Helvetica,sans-Serif" font-size="10.00">sitkInterpolator.h</text>
</a>
</g>
</g>
<!-- Node18&#45;&gt;Node33 -->
<g id="edge53" class="edge">
<title>Node18&#45;&gt;Node33</title>
<path fill="none" stroke="midnightblue" d="M440.97,-347.18C426.04,-335.07 403.62,-312.35 413,-291 419.55,-276.1 432.9,-263.67 444.81,-254.87"/>
<polygon fill="midnightblue" stroke="midnightblue" points="446.88,-257.69 453.1,-249.12 442.89,-251.94 446.88,-257.69"/>
</g>
<!-- Node34 -->
<g id="node34" class="node">
<title>Node34</title>
<g id="a_node34"><a xlink:title=" ">
<polygon fill="white" stroke="#bfbfbf" points="422,-291.5 422,-310.5 480,-310.5 480,-291.5 422,-291.5"/>
<text text-anchor="middle" x="451" y="-298.5" font-family="Helvetica,sans-Serif" font-size="10.00">memory</text>
</a>
</g>
</g>
<!-- Node18&#45;&gt;Node34 -->
<g id="edge57" class="edge">
<title>Node18&#45;&gt;Node34</title>
<path fill="none" stroke="midnightblue" d="M452.67,-347.08C452.41,-340.01 452.03,-329.86 451.7,-320.99"/>
<polygon fill="midnightblue" stroke="midnightblue" points="455.19,-320.61 451.32,-310.75 448.2,-320.87 455.19,-320.61"/>
</g>
<!-- Node20 -->
<g id="node20" class="node">
<title>Node20</title>
<g id="a_node20"><a xlink:href="sitkMemberFunctionFactoryBase_8h.html" target="_top" xlink:title=" ">
<polygon fill="white" stroke="black" points="1147,-224.5 1147,-254.5 1299,-254.5 1299,-224.5 1147,-224.5"/>
<text text-anchor="start" x="1155" y="-242.5" font-family="Helvetica,sans-Serif" font-size="10.00">sitkMemberFunctionFactory</text>
<text text-anchor="middle" x="1223" y="-231.5" font-family="Helvetica,sans-Serif" font-size="10.00">Base.h</text>
</a>
</g>
</g>
<!-- Node19&#45;&gt;Node20 -->
<g id="edge28" class="edge">
<title>Node19&#45;&gt;Node20</title>
<path fill="none" stroke="midnightblue" d="M983.65,-292.1C1025.32,-283.12 1094.47,-268.21 1147.76,-256.72"/>
<polygon fill="midnightblue" stroke="midnightblue" points="1148.82,-260.07 1157.85,-254.54 1147.34,-253.23 1148.82,-260.07"/>
</g>
<!-- Node25 -->
<g id="node25" class="node">
<title>Node25</title>
<g id="a_node25"><a xlink:title=" ">
<polygon fill="white" stroke="#bfbfbf" points="877.5,-168.5 877.5,-187.5 1016.5,-187.5 1016.5,-168.5 877.5,-168.5"/>
<text text-anchor="middle" x="947" y="-175.5" font-family="Helvetica,sans-Serif" font-size="10.00">Ancillary/FunctionTraits.h</text>
</a>
</g>
</g>
<!-- Node19&#45;&gt;Node25 -->
<g id="edge44" class="edge">
<title>Node19&#45;&gt;Node25</title>
<path fill="none" stroke="midnightblue" d="M947,-291.3C947,-271.85 947,-224.49 947,-197.9"/>
<polygon fill="midnightblue" stroke="midnightblue" points="950.5,-197.62 947,-187.62 943.5,-197.62 950.5,-197.62"/>
</g>
<!-- Node20&#45;&gt;Node4 -->
<g id="edge37" class="edge">
<title>Node20&#45;&gt;Node4</title>
<path fill="none" stroke="midnightblue" d="M1170.61,-224.4C1139.2,-215.32 1098.74,-202.52 1064,-188 1046.39,-180.64 1044.02,-174.28 1026,-168 851.04,-107.09 630.57,-80.38 535.36,-71.1"/>
<polygon fill="midnightblue" stroke="midnightblue" points="535.47,-67.6 525.19,-70.13 534.81,-74.56 535.47,-67.6"/>
</g>
<!-- Node20&#45;&gt;Node10 -->
<g id="edge29" class="edge">
<title>Node20&#45;&gt;Node10</title>
<path fill="none" stroke="midnightblue" d="M1299.14,-235.93C1375.43,-231.56 1485.29,-219.78 1512,-188 1517.72,-181.2 1514.71,-176.46 1512,-168 1502.67,-138.87 1497.54,-128.82 1472,-112 1343.55,-27.4 1155.9,-12.46 1063.55,-10.59"/>
<polygon fill="midnightblue" stroke="midnightblue" points="1063.36,-7.08 1053.3,-10.43 1063.25,-14.08 1063.36,-7.08"/>
</g>
<!-- Node20&#45;&gt;Node11 -->
<g id="edge38" class="edge">
<title>Node20&#45;&gt;Node11</title>
<path fill="none" stroke="midnightblue" d="M1146.77,-228.57C1058.27,-217.05 913.86,-198.25 830.64,-187.42"/>
<polygon fill="midnightblue" stroke="midnightblue" points="830.92,-183.92 820.55,-186.1 830.02,-190.86 830.92,-183.92"/>
</g>
<!-- Node21 -->
<g id="node21" class="node">
<title>Node21</title>
<g id="a_node21"><a xlink:href="sitkPixelIDTypes_8h.html" target="_top" xlink:title=" ">
<polygon fill="white" stroke="black" points="1166.5,-112.5 1166.5,-131.5 1271.5,-131.5 1271.5,-112.5 1166.5,-112.5"/>
<text text-anchor="middle" x="1219" y="-119.5" font-family="Helvetica,sans-Serif" font-size="10.00">sitkPixelIDTypes.h</text>
</a>
</g>
</g>
<!-- Node20&#45;&gt;Node21 -->
<g id="edge30" class="edge">
<title>Node20&#45;&gt;Node21</title>
<path fill="none" stroke="midnightblue" d="M1222.51,-224.34C1221.79,-203.62 1220.46,-165.02 1219.65,-141.9"/>
<polygon fill="midnightblue" stroke="midnightblue" points="1223.14,-141.54 1219.3,-131.67 1216.15,-141.78 1223.14,-141.54"/>
</g>
<!-- Node22 -->
<g id="node22" class="node">
<title>Node22</title>
<g id="a_node22"><a xlink:href="sitkPixelIDTypeLists_8h.html" target="_top" xlink:title=" ">
<polygon fill="white" stroke="black" points="1073,-168.5 1073,-187.5 1195,-187.5 1195,-168.5 1073,-168.5"/>
<text text-anchor="middle" x="1134" y="-175.5" font-family="Helvetica,sans-Serif" font-size="10.00">sitkPixelIDTypeLists.h</text>
</a>
</g>
</g>
<!-- Node20&#45;&gt;Node22 -->
<g id="edge31" class="edge">
<title>Node20&#45;&gt;Node22</title>
<path fill="none" stroke="midnightblue" d="M1201.91,-224.4C1187.91,-215.04 1169.59,-202.79 1155.51,-193.38"/>
<polygon fill="midnightblue" stroke="midnightblue" points="1157.21,-190.31 1146.95,-187.66 1153.32,-196.13 1157.21,-190.31"/>
</g>
<!-- Node23 -->
<g id="node23" class="node">
<title>Node23</title>
<g id="a_node23"><a xlink:title=" ">
<polygon fill="white" stroke="#bfbfbf" points="1351.5,-112.5 1351.5,-131.5 1462.5,-131.5 1462.5,-112.5 1351.5,-112.5"/>
<text text-anchor="middle" x="1407" y="-119.5" font-family="Helvetica,sans-Serif" font-size="10.00">Ancillary/TypeList.h</text>
</a>
</g>
</g>
<!-- Node20&#45;&gt;Node23 -->
<g id="edge39" class="edge">
<title>Node20&#45;&gt;Node23</title>
<path fill="none" stroke="midnightblue" d="M1299.31,-235C1371.18,-229.92 1471.38,-217.6 1496,-188 1514.91,-165.27 1478.57,-146.3 1446.78,-134.83"/>
<polygon fill="midnightblue" stroke="midnightblue" points="1447.73,-131.45 1437.13,-131.52 1445.45,-138.07 1447.73,-131.45"/>
</g>
<!-- Node20&#45;&gt;Node25 -->
<g id="edge40" class="edge">
<title>Node20&#45;&gt;Node25</title>
<path fill="none" stroke="midnightblue" d="M1157.94,-224.47C1108.45,-213.81 1041.41,-199.35 996.3,-189.63"/>
<polygon fill="midnightblue" stroke="midnightblue" points="996.97,-186.19 986.46,-187.51 995.5,-193.04 996.97,-186.19"/>
</g>
<!-- Node26 -->
<g id="node26" class="node">
<title>Node26</title>
<g id="a_node26"><a xlink:title=" ">
<polygon fill="white" stroke="#bfbfbf" points="1251.5,-168.5 1251.5,-187.5 1344.5,-187.5 1344.5,-168.5 1251.5,-168.5"/>
<text text-anchor="middle" x="1298" y="-175.5" font-family="Helvetica,sans-Serif" font-size="10.00">unordered_map</text>
</a>
</g>
</g>
<!-- Node20&#45;&gt;Node26 -->
<g id="edge41" class="edge">
<title>Node20&#45;&gt;Node26</title>
<path fill="none" stroke="midnightblue" d="M1240.77,-224.4C1252.35,-215.22 1267.42,-203.26 1279.2,-193.92"/>
<polygon fill="midnightblue" stroke="midnightblue" points="1281.43,-196.61 1287.09,-187.66 1277.08,-191.13 1281.43,-196.61"/>
</g>
<!-- Node27 -->
<g id="node27" class="node">
<title>Node27</title>
<g id="a_node27"><a xlink:title=" ">
<polygon fill="white" stroke="#bfbfbf" points="1362.5,-168.5 1362.5,-187.5 1427.5,-187.5 1427.5,-168.5 1362.5,-168.5"/>
<text text-anchor="middle" x="1395" y="-175.5" font-family="Helvetica,sans-Serif" font-size="10.00">functional</text>
</a>
</g>
</g>
<!-- Node20&#45;&gt;Node27 -->
<g id="edge42" class="edge">
<title>Node20&#45;&gt;Node27</title>
<path fill="none" stroke="midnightblue" d="M1263.76,-224.4C1293.22,-214.21 1332.59,-200.59 1360.5,-190.93"/>
<polygon fill="midnightblue" stroke="midnightblue" points="1361.92,-194.15 1370.22,-187.57 1359.63,-187.53 1361.92,-194.15"/>
</g>
<!-- Node28 -->
<g id="node28" class="node">
<title>Node28</title>
<g id="a_node28"><a xlink:title=" ">
<polygon fill="white" stroke="#bfbfbf" points="1445.5,-168.5 1445.5,-187.5 1486.5,-187.5 1486.5,-168.5 1445.5,-168.5"/>
<text text-anchor="middle" x="1466" y="-175.5" font-family="Helvetica,sans-Serif" font-size="10.00">tuple</text>
</a>
</g>
</g>
<!-- Node20&#45;&gt;Node28 -->
<g id="edge43" class="edge">
<title>Node20&#45;&gt;Node28</title>
<path fill="none" stroke="midnightblue" d="M1287.91,-224.41C1328.08,-215.41 1380.9,-203.06 1435.59,-188.26"/>
<polygon fill="midnightblue" stroke="midnightblue" points="1436.73,-191.58 1445.46,-185.57 1434.89,-184.82 1436.73,-191.58"/>
</g>
<!-- Node22&#45;&gt;Node5 -->
<g id="edge32" class="edge">
<title>Node22&#45;&gt;Node5</title>
<path fill="none" stroke="midnightblue" d="M1115.54,-168.49C1096.17,-159.53 1064.86,-144.95 1038,-132 958.25,-93.54 864.61,-46.6 820.08,-24.17"/>
<polygon fill="midnightblue" stroke="midnightblue" points="821.6,-21.01 811.09,-19.64 818.45,-27.27 821.6,-21.01"/>
</g>
<!-- Node22&#45;&gt;Node10 -->
<g id="edge33" class="edge">
<title>Node22&#45;&gt;Node10</title>
<path fill="none" stroke="midnightblue" d="M1132.96,-168.42C1131.06,-155.4 1126.17,-130.25 1115,-112 1092.55,-75.33 1053.36,-43.21 1029.15,-25.52"/>
<polygon fill="midnightblue" stroke="midnightblue" points="1031.14,-22.64 1020.97,-19.67 1027.07,-28.33 1031.14,-22.64"/>
</g>
<!-- Node22&#45;&gt;Node21 -->
<g id="edge34" class="edge">
<title>Node22&#45;&gt;Node21</title>
<path fill="none" stroke="midnightblue" d="M1147.66,-168.32C1160.92,-159.9 1181.27,-146.97 1196.85,-137.07"/>
<polygon fill="midnightblue" stroke="midnightblue" points="1198.81,-139.97 1205.38,-131.65 1195.06,-134.06 1198.81,-139.97"/>
</g>
<!-- Node22&#45;&gt;Node23 -->
<g id="edge35" class="edge">
<title>Node22&#45;&gt;Node23</title>
<path fill="none" stroke="midnightblue" d="M1177.26,-168.44C1225.18,-158.96 1302.48,-143.67 1354,-133.48"/>
<polygon fill="midnightblue" stroke="midnightblue" points="1354.81,-136.89 1363.94,-131.52 1353.46,-130.02 1354.81,-136.89"/>
</g>
<!-- Node24 -->
<g id="node24" class="node">
<title>Node24</title>
<g id="a_node24"><a xlink:title=" ">
<polygon fill="white" stroke="#bfbfbf" points="1046.5,-112.5 1046.5,-131.5 1105.5,-131.5 1105.5,-112.5 1046.5,-112.5"/>
<text text-anchor="middle" x="1076" y="-119.5" font-family="Helvetica,sans-Serif" font-size="10.00">complex</text>
</a>
</g>
</g>
<!-- Node22&#45;&gt;Node24 -->
<g id="edge36" class="edge">
<title>Node22&#45;&gt;Node24</title>
<path fill="none" stroke="midnightblue" d="M1124.68,-168.32C1116.11,-160.34 1103.19,-148.31 1092.81,-138.65"/>
<polygon fill="midnightblue" stroke="midnightblue" points="1095.19,-136.09 1085.49,-131.83 1090.42,-141.21 1095.19,-136.09"/>
</g>
<!-- Node29&#45;&gt;Node10 -->
<g id="edge46" class="edge">
<title>Node29&#45;&gt;Node10</title>
<path fill="none" stroke="midnightblue" d="M683.13,-291.44C713.36,-284.81 751.22,-273.53 781,-255 807.29,-238.64 948.36,-79.01 993.85,-27.17"/>
<polygon fill="midnightblue" stroke="midnightblue" points="996.56,-29.38 1000.52,-19.56 991.3,-24.77 996.56,-29.38"/>
</g>
<!-- Node29&#45;&gt;Node30 -->
<g id="edge47" class="edge">
<title>Node29&#45;&gt;Node30</title>
<path fill="none" stroke="midnightblue" d="M643.32,-291.48C657.12,-281.93 679.7,-266.31 696.23,-254.87"/>
<polygon fill="midnightblue" stroke="midnightblue" points="698.47,-257.58 704.7,-249.01 694.49,-251.82 698.47,-257.58"/>
</g>
<!-- Node29&#45;&gt;Node32 -->
<g id="edge52" class="edge">
<title>Node29&#45;&gt;Node32</title>
<path fill="none" stroke="midnightblue" d="M627.85,-291.48C624.68,-282.9 619.7,-269.43 615.65,-258.48"/>
<polygon fill="midnightblue" stroke="midnightblue" points="618.9,-257.17 612.15,-249.01 612.33,-259.6 618.9,-257.17"/>
</g>
<!-- Node30&#45;&gt;Node3 -->
<g id="edge48" class="edge">
<title>Node30&#45;&gt;Node3</title>
<path fill="none" stroke="midnightblue" d="M695.5,-229.85C672.16,-220.27 633.95,-204.07 602,-188 569.62,-171.72 533.46,-150.57 510.72,-136.89"/>
<polygon fill="midnightblue" stroke="midnightblue" points="512.5,-133.88 502.13,-131.7 508.88,-139.87 512.5,-133.88"/>
</g>
<!-- Node30&#45;&gt;Node15 -->
<g id="edge51" class="edge">
<title>Node30&#45;&gt;Node15</title>
<path fill="none" stroke="midnightblue" d="M684.19,-229.98C642.54,-219.15 570.8,-200.51 526.58,-189.02"/>
<polygon fill="midnightblue" stroke="midnightblue" points="527.33,-185.6 516.77,-186.47 525.57,-192.38 527.33,-185.6"/>
</g>
<!-- Node30&#45;&gt;Node22 -->
<g id="edge49" class="edge">
<title>Node30&#45;&gt;Node22</title>
<path fill="none" stroke="midnightblue" d="M772.37,-230.6C847.66,-219.86 982.32,-200.64 1064.36,-188.94"/>
<polygon fill="midnightblue" stroke="midnightblue" points="1064.94,-192.39 1074.35,-187.51 1063.95,-185.46 1064.94,-192.39"/>
</g>
<!-- Node31 -->
<g id="node31" class="node">
<title>Node31</title>
<g id="a_node31"><a xlink:title=" ">
<polygon fill="white" stroke="#bfbfbf" points="611,-168.5 611,-187.5 655,-187.5 655,-168.5 611,-168.5"/>
<text text-anchor="middle" x="633" y="-175.5" font-family="Helvetica,sans-Serif" font-size="10.00">string</text>
</a>
</g>
</g>
<!-- Node30&#45;&gt;Node31 -->
<g id="edge50" class="edge">
<title>Node30&#45;&gt;Node31</title>
<path fill="none" stroke="midnightblue" d="M704.96,-229.98C691.49,-220.43 669.43,-204.81 653.28,-193.37"/>
<polygon fill="midnightblue" stroke="midnightblue" points="655.2,-190.43 645.01,-187.51 651.15,-196.15 655.2,-190.43"/>
</g>
<!-- Node33&#45;&gt;Node3 -->
<g id="edge54" class="edge">
<title>Node33&#45;&gt;Node3</title>
<path fill="none" stroke="midnightblue" d="M483.96,-229.92C497.97,-221.37 517.43,-206.83 526,-188 534.06,-170.3 519.91,-151.21 506.65,-138.34"/>
<polygon fill="midnightblue" stroke="midnightblue" points="508.88,-135.64 499.12,-131.53 504.19,-140.83 508.88,-135.64"/>
</g>
<!-- Node33&#45;&gt;Node15 -->
<g id="edge55" class="edge">
<title>Node33&#45;&gt;Node15</title>
<path fill="none" stroke="midnightblue" d="M470.87,-229.98C473.72,-221.49 478.18,-208.2 481.84,-197.32"/>
<polygon fill="midnightblue" stroke="midnightblue" points="485.27,-198.1 485.14,-187.51 478.64,-195.87 485.27,-198.1"/>
</g>
<!-- Node35&#45;&gt;Node18 -->
<g id="edge60" class="edge">
<title>Node35&#45;&gt;Node18</title>
<path fill="none" stroke="midnightblue" d="M455.5,-403.08C455.11,-396.01 454.55,-385.86 454.05,-376.99"/>
<polygon fill="midnightblue" stroke="midnightblue" points="457.54,-376.54 453.49,-366.75 450.55,-376.93 457.54,-376.54"/>
</g>
<!-- Node38&#45;&gt;Node4 -->
<g id="edge65" class="edge">
<title>Node38&#45;&gt;Node4</title>
<path fill="none" stroke="midnightblue" d="M26.08,-347.22C17.95,-328.18 0,-281.52 0,-240.5 0,-240.5 0,-240.5 0,-177 0,-87.23 318.22,-70.71 440.72,-67.68"/>
<polygon fill="midnightblue" stroke="midnightblue" points="441,-71.17 450.92,-67.45 440.84,-64.18 441,-71.17"/>
</g>
</g>
</svg>
        <g id="navigator" transform="translate(0 0)" fill="#404254">
                <rect fill="#f2f5e9" fill-opacity="0.5" stroke="#606060" stroke-width=".5" x="0" y="0" width="60" height="60"/>
                <use id="zoomplus" xlink:href="#zoomPlus" x="17" y="9" onmousedown="handleZoom(evt,'in')"/>
                <use id="zoomminus" xlink:href="#zoomMin" x="42" y="9" onmousedown="handleZoom(evt,'out')"/>
                <use id="reset" xlink:href="#resetDef" x="30" y="36" onmousedown="handleReset()"/>
                <g id="arrowUp" xlink:href="#dirArrow" transform="translate(30 24)" onmousedown="handlePan(0,-1)">
                  <use xlink:href="#rim" fill="#404040">
                        <set attributeName="fill" to="#808080" begin="arrowUp.mouseover" end="arrowUp.mouseout"/>
                  </use>
                  <path fill="none" stroke="white" stroke-width="1.5" d="M0,-3.0v7 M-2.5,-0.5L0,-3.0L2.5,-0.5"/>
                </g>
                <g id="arrowRight" xlink:href="#dirArrow" transform="rotate(90) translate(36 -43)" onmousedown="handlePan(1,0)">
                  <use xlink:href="#rim" fill="#404040">
                        <set attributeName="fill" to="#808080" begin="arrowRight.mouseover" end="arrowRight.mouseout"/>
                  </use>
                  <path fill="none" stroke="white" stroke-width="1.5" d="M0,-3.0v7 M-2.5,-0.5L0,-3.0L2.5,-0.5"/>
                </g>
                <g id="arrowDown" xlink:href="#dirArrow" transform="rotate(180) translate(-30 -48)" onmousedown="handlePan(0,1)">
                  <use xlink:href="#rim" fill="#404040">
                        <set attributeName="fill" to="#808080" begin="arrowDown.mouseover" end="arrowDown.mouseout"/>
                  </use>
                  <path fill="none" stroke="white" stroke-width="1.5" d="M0,-3.0v7 M-2.5,-0.5L0,-3.0L2.5,-0.5"/>
                </g>
                <g id="arrowLeft" xlink:href="#dirArrow" transform="rotate(270) translate(-36 17)" onmousedown="handlePan(-1,0)">
                  <use xlink:href="#rim" fill="#404040">
                        <set attributeName="fill" to="#808080" begin="arrowLeft.mouseover" end="arrowLeft.mouseout"/>
                  </use>
                  <path fill="none" stroke="white" stroke-width="1.5" d="M0,-3.0v7 M-2.5,-0.5L0,-3.0L2.5,-0.5"/>
                </g>
        </g>
        <svg viewBox="0 0 15 15" width="100%" height="30px" preserveAspectRatio="xMaxYMin meet">
         <g id="arrow_out" transform="scale(0.3 0.3)">
          <a xlink:href="sitkImageReaderBase_8h__incl_org.svg" target="_base">
           <rect id="button" ry="5" rx="5" y="6" x="6" height="38" width="38"
                fill="#f2f5e9" fill-opacity="0.5" stroke="#606060" stroke-width="1.0"/>
           <path id="arrow"
             d="M 11.500037,31.436501 C 11.940474,20.09759 22.043105,11.32322 32.158766,21.979434 L 37.068811,17.246167 C 37.068811,17.246167 37.088388,32 37.088388,32 L 22.160133,31.978069 C 22.160133,31.978069 26.997745,27.140456 26.997745,27.140456 C 18.528582,18.264221 13.291696,25.230495 11.500037,31.436501 z"
             style="fill:#404040;"/>
          </a>
         </g>
        </svg>
</svg>
