<?xml version="1.0" encoding="UTF-8" standalone="no"?>
<!DOCTYPE svg PUBLIC "-//W3C//DTD SVG 1.1//EN"
 "http://www.w3.org/Graphics/SVG/1.1/DTD/svg11.dtd">
<!-- Generated by graphviz version 2.43.0 (0)
 -->
<!-- Title: sitkCommand.h Pages: 1 -->
<svg width="171pt" height="140pt"
 viewBox="0.00 0.00 170.50 140.00" xmlns="http://www.w3.org/2000/svg" xmlns:xlink="http://www.w3.org/1999/xlink">
<g id="graph0" class="graph" transform="scale(1 1) rotate(0) translate(4 136)">
<title>sitkCommand.h</title>
<polygon fill="white" stroke="transparent" points="-4,4 -4,-136 166.5,-136 166.5,4 -4,4"/>
<!-- Node1 -->
<g id="node1" class="node">
<title>Node1</title>
<g id="a_node1"><a xlink:title=" ">
<polygon fill="#bfbfbf" stroke="black" points="0,-112.5 0,-131.5 94,-131.5 94,-112.5 0,-112.5"/>
<text text-anchor="middle" x="47" y="-119.5" font-family="Helvetica,sans-Serif" font-size="10.00">sitkCommand.h</text>
</a>
</g>
</g>
<!-- Node2 -->
<g id="node2" class="node">
<title>Node2</title>
<g id="a_node2"><a xlink:href="SimpleITK_8h.html" target="_top" xlink:title=" ">
<polygon fill="white" stroke="black" points="9.5,-0.5 9.5,-19.5 84.5,-19.5 84.5,-0.5 9.5,-0.5"/>
<text text-anchor="middle" x="47" y="-7.5" font-family="Helvetica,sans-Serif" font-size="10.00">SimpleITK.h</text>
</a>
</g>
</g>
<!-- Node1&#45;&gt;Node2 -->
<g id="edge1" class="edge">
<title>Node1&#45;&gt;Node2</title>
<path fill="none" stroke="midnightblue" d="M32.44,-104.53C22.87,-91.66 12.95,-73.14 18,-56 22.15,-41.91 32.22,-28.07 39.33,-19.54"/>
<polygon fill="midnightblue" stroke="midnightblue" points="29.83,-106.87 38.83,-112.45 35.28,-102.47 29.83,-106.87"/>
</g>
<!-- Node3 -->
<g id="node3" class="node">
<title>Node3</title>
<g id="a_node3"><a xlink:href="sitkFunctionCommand_8h.html" target="_top" xlink:title=" ">
<polygon fill="white" stroke="black" points="27.5,-56.5 27.5,-75.5 162.5,-75.5 162.5,-56.5 27.5,-56.5"/>
<text text-anchor="middle" x="95" y="-63.5" font-family="Helvetica,sans-Serif" font-size="10.00">sitkFunctionCommand.h</text>
</a>
</g>
</g>
<!-- Node1&#45;&gt;Node3 -->
<g id="edge2" class="edge">
<title>Node1&#45;&gt;Node3</title>
<path fill="none" stroke="midnightblue" d="M61.73,-104.43C70.14,-94.97 80.35,-83.48 87.22,-75.75"/>
<polygon fill="midnightblue" stroke="midnightblue" points="58.95,-102.28 54.93,-112.08 64.19,-106.93 58.95,-102.28"/>
</g>
<!-- Node3&#45;&gt;Node2 -->
<g id="edge3" class="edge">
<title>Node3&#45;&gt;Node2</title>
<path fill="none" stroke="midnightblue" d="M80.27,-48.43C71.86,-38.97 61.65,-27.48 54.78,-19.75"/>
<polygon fill="midnightblue" stroke="midnightblue" points="77.81,-50.93 87.07,-56.08 83.05,-46.28 77.81,-50.93"/>
</g>
</g>
</svg>
