<?xml version="1.0" encoding="UTF-8" standalone="no"?>
<!DOCTYPE svg PUBLIC "-//W3C//DTD SVG 1.1//EN"
 "http://www.w3.org/Graphics/SVG/1.1/DTD/svg11.dtd">
<!-- Generated by graphviz version 2.43.0 (0)
 -->
<!-- Title: sitkCenteredTransformInitializerFilter.h Pages: 1 -->
<svg width="1755pt" height="554pt"
 viewBox="0.00 0.00 1755.00 554.00" xmlns="http://www.w3.org/2000/svg" xmlns:xlink="http://www.w3.org/1999/xlink">
<g id="graph0" class="graph" transform="scale(1 1) rotate(0) translate(4 550)">
<title>sitkCenteredTransformInitializerFilter.h</title>
<polygon fill="white" stroke="transparent" points="-4,4 -4,-550 1751,-550 1751,4 -4,4"/>
<!-- Node1 -->
<g id="node1" class="node">
<title>Node1</title>
<g id="a_node1"><a xlink:title=" ">
<polygon fill="#bfbfbf" stroke="black" points="421.5,-515.5 421.5,-545.5 594.5,-545.5 594.5,-515.5 421.5,-515.5"/>
<text text-anchor="start" x="429.5" y="-533.5" font-family="Helvetica,sans-Serif" font-size="10.00">sitkCenteredTransformInitializer</text>
<text text-anchor="middle" x="508" y="-522.5" font-family="Helvetica,sans-Serif" font-size="10.00">Filter.h</text>
</a>
</g>
</g>
<!-- Node2 -->
<g id="node2" class="node">
<title>Node2</title>
<g id="a_node2"><a xlink:title=" ">
<polygon fill="white" stroke="#bfbfbf" points="116,-291.5 116,-310.5 174,-310.5 174,-291.5 116,-291.5"/>
<text text-anchor="middle" x="145" y="-298.5" font-family="Helvetica,sans-Serif" font-size="10.00">memory</text>
</a>
</g>
</g>
<!-- Node1&#45;&gt;Node2 -->
<g id="edge1" class="edge">
<title>Node1&#45;&gt;Node2</title>
<path fill="none" stroke="midnightblue" d="M421.27,-521.77C339.13,-513.44 222.37,-498.67 181,-479 113.93,-447.11 87.15,-434.87 57,-367 45.43,-340.96 77.65,-323.11 106.3,-312.8"/>
<polygon fill="midnightblue" stroke="midnightblue" points="107.46,-316.11 115.82,-309.6 105.22,-309.48 107.46,-316.11"/>
</g>
<!-- Node3 -->
<g id="node3" class="node">
<title>Node3</title>
<g id="a_node3"><a xlink:href="sitkBasicFilters_8h.html" target="_top" xlink:title=" ">
<polygon fill="white" stroke="black" points="190,-459.5 190,-478.5 290,-478.5 290,-459.5 190,-459.5"/>
<text text-anchor="middle" x="240" y="-466.5" font-family="Helvetica,sans-Serif" font-size="10.00">sitkBasicFilters.h</text>
</a>
</g>
</g>
<!-- Node1&#45;&gt;Node3 -->
<g id="edge2" class="edge">
<title>Node1&#45;&gt;Node3</title>
<path fill="none" stroke="midnightblue" d="M444.83,-515.47C396.88,-504.83 331.94,-490.41 288.15,-480.69"/>
<polygon fill="midnightblue" stroke="midnightblue" points="288.84,-477.26 278.31,-478.51 287.32,-484.09 288.84,-477.26"/>
</g>
<!-- Node38 -->
<g id="node38" class="node">
<title>Node38</title>
<g id="a_node38"><a xlink:href="sitkProcessObject_8h.html" target="_top" xlink:title=" ">
<polygon fill="white" stroke="black" points="719.5,-459.5 719.5,-478.5 832.5,-478.5 832.5,-459.5 719.5,-459.5"/>
<text text-anchor="middle" x="776" y="-466.5" font-family="Helvetica,sans-Serif" font-size="10.00">sitkProcessObject.h</text>
</a>
</g>
</g>
<!-- Node1&#45;&gt;Node38 -->
<g id="edge66" class="edge">
<title>Node1&#45;&gt;Node38</title>
<path fill="none" stroke="midnightblue" d="M571.17,-515.47C619.12,-504.83 684.06,-490.41 727.85,-480.69"/>
<polygon fill="midnightblue" stroke="midnightblue" points="728.68,-484.09 737.69,-478.51 727.16,-477.26 728.68,-484.09"/>
</g>
<!-- Node43 -->
<g id="node43" class="node">
<title>Node43</title>
<g id="a_node43"><a xlink:href="sitkMemberFunctionFactory_8h.html" target="_top" xlink:title=" ">
<polygon fill="white" stroke="black" points="1025.5,-347.5 1025.5,-366.5 1184.5,-366.5 1184.5,-347.5 1025.5,-347.5"/>
<text text-anchor="middle" x="1105" y="-354.5" font-family="Helvetica,sans-Serif" font-size="10.00">sitkMemberFunctionFactory.h</text>
</a>
</g>
</g>
<!-- Node1&#45;&gt;Node43 -->
<g id="edge78" class="edge">
<title>Node1&#45;&gt;Node43</title>
<path fill="none" stroke="midnightblue" d="M594.86,-522.87C696.16,-512.43 866.62,-486.35 999,-423 1030.04,-408.15 1063.53,-386.59 1084.37,-372.43"/>
<polygon fill="midnightblue" stroke="midnightblue" points="1086.49,-375.23 1092.75,-366.68 1082.53,-369.46 1086.49,-375.23"/>
</g>
<!-- Node4 -->
<g id="node4" class="node">
<title>Node4</title>
<g id="a_node4"><a xlink:href="sitkMacro_8h.html" target="_top" xlink:title=" ">
<polygon fill="white" stroke="black" points="857,-56.5 857,-75.5 931,-75.5 931,-56.5 857,-56.5"/>
<text text-anchor="middle" x="894" y="-63.5" font-family="Helvetica,sans-Serif" font-size="10.00">sitkMacro.h</text>
</a>
</g>
</g>
<!-- Node3&#45;&gt;Node4 -->
<g id="edge3" class="edge">
<title>Node3&#45;&gt;Node4</title>
<path fill="none" stroke="midnightblue" d="M189.98,-466.55C119.64,-461.54 0,-440.85 0,-358 0,-358 0,-358 0,-177 0,-90.9 661.59,-71.53 846.5,-67.8"/>
<polygon fill="midnightblue" stroke="midnightblue" points="846.79,-71.3 856.72,-67.6 846.66,-64.3 846.79,-71.3"/>
</g>
<!-- Node11 -->
<g id="node11" class="node">
<title>Node11</title>
<g id="a_node11"><a xlink:href="sitkInterpolator_8h.html" target="_top" xlink:title=" ">
<polygon fill="white" stroke="black" points="268,-291.5 268,-310.5 368,-310.5 368,-291.5 268,-291.5"/>
<text text-anchor="middle" x="318" y="-298.5" font-family="Helvetica,sans-Serif" font-size="10.00">sitkInterpolator.h</text>
</a>
</g>
</g>
<!-- Node3&#45;&gt;Node11 -->
<g id="edge10" class="edge">
<title>Node3&#45;&gt;Node11</title>
<path fill="none" stroke="midnightblue" d="M244.19,-459.08C256.58,-432.72 293.15,-354.88 309.7,-319.66"/>
<polygon fill="midnightblue" stroke="midnightblue" points="312.89,-321.11 313.97,-310.57 306.55,-318.13 312.89,-321.11"/>
</g>
<!-- Node14 -->
<g id="node14" class="node">
<title>Node14</title>
<g id="a_node14"><a xlink:href="sitkRandomSeed_8h.html" target="_top" xlink:title=" ">
<polygon fill="white" stroke="black" points="66,-347.5 66,-366.5 174,-366.5 174,-347.5 66,-347.5"/>
<text text-anchor="middle" x="120" y="-354.5" font-family="Helvetica,sans-Serif" font-size="10.00">sitkRandomSeed.h</text>
</a>
</g>
</g>
<!-- Node3&#45;&gt;Node14 -->
<g id="edge14" class="edge">
<title>Node3&#45;&gt;Node14</title>
<path fill="none" stroke="midnightblue" d="M220.94,-459.41C204.82,-451.52 181.73,-438.68 165,-423 150.33,-409.26 137.72,-389.96 129.61,-375.97"/>
<polygon fill="midnightblue" stroke="midnightblue" points="132.46,-373.9 124.54,-366.87 126.35,-377.31 132.46,-373.9"/>
</g>
<!-- Node15 -->
<g id="node15" class="node">
<title>Node15</title>
<g id="a_node15"><a xlink:href="sitkKernel_8h.html" target="_top" xlink:title=" ">
<polygon fill="white" stroke="black" points="294,-230 294,-249 368,-249 368,-230 294,-230"/>
<text text-anchor="middle" x="331" y="-237" font-family="Helvetica,sans-Serif" font-size="10.00">sitkKernel.h</text>
</a>
</g>
</g>
<!-- Node3&#45;&gt;Node15 -->
<g id="edge16" class="edge">
<title>Node3&#45;&gt;Node15</title>
<path fill="none" stroke="midnightblue" d="M238.6,-459.5C234.61,-432.58 225.55,-347.7 259,-291 268.64,-274.67 285.87,-262.29 301.07,-253.88"/>
<polygon fill="midnightblue" stroke="midnightblue" points="302.91,-256.87 310.18,-249.16 299.69,-250.66 302.91,-256.87"/>
</g>
<!-- Node16 -->
<g id="node16" class="node">
<title>Node16</title>
<g id="a_node16"><a xlink:href="sitkTransform_8h.html" target="_top" xlink:title=" ">
<polygon fill="white" stroke="black" points="344,-403.5 344,-422.5 436,-422.5 436,-403.5 344,-403.5"/>
<text text-anchor="middle" x="390" y="-410.5" font-family="Helvetica,sans-Serif" font-size="10.00">sitkTransform.h</text>
</a>
</g>
</g>
<!-- Node3&#45;&gt;Node16 -->
<g id="edge19" class="edge">
<title>Node3&#45;&gt;Node16</title>
<path fill="none" stroke="midnightblue" d="M263.77,-459.44C288.89,-450.4 328.71,-436.06 356.9,-425.92"/>
<polygon fill="midnightblue" stroke="midnightblue" points="358.12,-429.2 366.34,-422.52 355.75,-422.61 358.12,-429.2"/>
</g>
<!-- Node37 -->
<g id="node37" class="node">
<title>Node37</title>
<g id="a_node37"><a xlink:title=" ">
<polygon fill="white" stroke="#bfbfbf" points="174,-403.5 174,-422.5 212,-422.5 212,-403.5 174,-403.5"/>
<text text-anchor="middle" x="193" y="-410.5" font-family="Helvetica,sans-Serif" font-size="10.00">map</text>
</a>
</g>
</g>
<!-- Node3&#45;&gt;Node37 -->
<g id="edge65" class="edge">
<title>Node3&#45;&gt;Node37</title>
<path fill="none" stroke="midnightblue" d="M232.24,-459.08C225.46,-451.3 215.46,-439.8 207.24,-430.37"/>
<polygon fill="midnightblue" stroke="midnightblue" points="209.82,-428 200.62,-422.75 204.54,-432.59 209.82,-428"/>
</g>
<!-- Node5 -->
<g id="node5" class="node">
<title>Node5</title>
<g id="a_node5"><a xlink:title=" ">
<polygon fill="white" stroke="#bfbfbf" points="1080.5,-0.5 1080.5,-19.5 1133.5,-19.5 1133.5,-0.5 1080.5,-0.5"/>
<text text-anchor="middle" x="1107" y="-7.5" font-family="Helvetica,sans-Serif" font-size="10.00">stdint.h</text>
</a>
</g>
</g>
<!-- Node4&#45;&gt;Node5 -->
<g id="edge4" class="edge">
<title>Node4&#45;&gt;Node5</title>
<path fill="none" stroke="midnightblue" d="M927.75,-56.44C966.71,-46.57 1030.54,-30.38 1070.59,-20.23"/>
<polygon fill="midnightblue" stroke="midnightblue" points="1071.64,-23.58 1080.47,-17.73 1069.92,-16.79 1071.64,-23.58"/>
</g>
<!-- Node6 -->
<g id="node6" class="node">
<title>Node6</title>
<g id="a_node6"><a xlink:title=" ">
<polygon fill="white" stroke="#bfbfbf" points="792,-0.5 792,-19.5 848,-19.5 848,-0.5 792,-0.5"/>
<text text-anchor="middle" x="820" y="-7.5" font-family="Helvetica,sans-Serif" font-size="10.00">stddef.h</text>
</a>
</g>
</g>
<!-- Node4&#45;&gt;Node6 -->
<g id="edge5" class="edge">
<title>Node4&#45;&gt;Node6</title>
<path fill="none" stroke="midnightblue" d="M882.11,-56.32C870.85,-48.11 853.71,-35.6 840.29,-25.81"/>
<polygon fill="midnightblue" stroke="midnightblue" points="842.25,-22.9 832.11,-19.83 838.12,-28.56 842.25,-22.9"/>
</g>
<!-- Node7 -->
<g id="node7" class="node">
<title>Node7</title>
<g id="a_node7"><a xlink:title=" ">
<polygon fill="white" stroke="#bfbfbf" points="1495,-0.5 1495,-19.5 1547,-19.5 1547,-0.5 1495,-0.5"/>
<text text-anchor="middle" x="1521" y="-7.5" font-family="Helvetica,sans-Serif" font-size="10.00">cassert</text>
</a>
</g>
</g>
<!-- Node4&#45;&gt;Node7 -->
<g id="edge6" class="edge">
<title>Node4&#45;&gt;Node7</title>
<path fill="none" stroke="midnightblue" d="M931.34,-61.78C1043.21,-52.15 1374.64,-23.61 1484.88,-14.11"/>
<polygon fill="midnightblue" stroke="midnightblue" points="1485.18,-17.6 1494.84,-13.25 1484.58,-10.62 1485.18,-17.6"/>
</g>
<!-- Node8 -->
<g id="node8" class="node">
<title>Node8</title>
<g id="a_node8"><a xlink:title=" ">
<polygon fill="white" stroke="#bfbfbf" points="866,-0.5 866,-19.5 922,-19.5 922,-0.5 866,-0.5"/>
<text text-anchor="middle" x="894" y="-7.5" font-family="Helvetica,sans-Serif" font-size="10.00">sstream</text>
</a>
</g>
</g>
<!-- Node4&#45;&gt;Node8 -->
<g id="edge7" class="edge">
<title>Node4&#45;&gt;Node8</title>
<path fill="none" stroke="midnightblue" d="M894,-56.08C894,-49.01 894,-38.86 894,-29.99"/>
<polygon fill="midnightblue" stroke="midnightblue" points="897.5,-29.75 894,-19.75 890.5,-29.75 897.5,-29.75"/>
</g>
<!-- Node9 -->
<g id="node9" class="node">
<title>Node9</title>
<g id="a_node9"><a xlink:title=" ">
<polygon fill="white" stroke="#bfbfbf" points="940,-0.5 940,-19.5 984,-19.5 984,-0.5 940,-0.5"/>
<text text-anchor="middle" x="962" y="-7.5" font-family="Helvetica,sans-Serif" font-size="10.00">limits</text>
</a>
</g>
</g>
<!-- Node4&#45;&gt;Node9 -->
<g id="edge8" class="edge">
<title>Node4&#45;&gt;Node9</title>
<path fill="none" stroke="midnightblue" d="M904.93,-56.32C915.17,-48.18 930.72,-35.84 943,-26.09"/>
<polygon fill="midnightblue" stroke="midnightblue" points="945.22,-28.79 950.88,-19.83 940.87,-23.31 945.22,-28.79"/>
</g>
<!-- Node10 -->
<g id="node10" class="node">
<title>Node10</title>
<g id="a_node10"><a xlink:href="sitkConfigure_8h.html" target="_top" xlink:title=" ">
<polygon fill="white" stroke="black" points="1203,-0.5 1203,-19.5 1293,-19.5 1293,-0.5 1203,-0.5"/>
<text text-anchor="middle" x="1248" y="-7.5" font-family="Helvetica,sans-Serif" font-size="10.00">sitkConfigure.h</text>
</a>
</g>
</g>
<!-- Node4&#45;&gt;Node10 -->
<g id="edge9" class="edge">
<title>Node4&#45;&gt;Node10</title>
<path fill="none" stroke="midnightblue" d="M931.22,-59.32C993.78,-49.78 1120.3,-30.48 1193.1,-19.38"/>
<polygon fill="midnightblue" stroke="midnightblue" points="1193.64,-22.83 1203,-17.86 1192.59,-15.91 1193.64,-22.83"/>
</g>
<!-- Node12 -->
<g id="node12" class="node">
<title>Node12</title>
<g id="a_node12"><a xlink:href="sitkCommon_8h.html" target="_top" xlink:title=" ">
<polygon fill="white" stroke="black" points="518,-112.5 518,-131.5 606,-131.5 606,-112.5 518,-112.5"/>
<text text-anchor="middle" x="562" y="-119.5" font-family="Helvetica,sans-Serif" font-size="10.00">sitkCommon.h</text>
</a>
</g>
</g>
<!-- Node11&#45;&gt;Node12 -->
<g id="edge11" class="edge">
<title>Node11&#45;&gt;Node12</title>
<path fill="none" stroke="midnightblue" d="M267.73,-295.94C204.16,-288.84 107.04,-270.2 143,-224 187.54,-166.77 404.86,-138.3 507.77,-127.85"/>
<polygon fill="midnightblue" stroke="midnightblue" points="508.35,-131.31 517.95,-126.84 507.66,-124.34 508.35,-131.31"/>
</g>
<!-- Node13 -->
<g id="node13" class="node">
<title>Node13</title>
<g id="a_node13"><a xlink:title=" ">
<polygon fill="white" stroke="#bfbfbf" points="528.5,-168.5 528.5,-187.5 585.5,-187.5 585.5,-168.5 528.5,-168.5"/>
<text text-anchor="middle" x="557" y="-175.5" font-family="Helvetica,sans-Serif" font-size="10.00">ostream</text>
</a>
</g>
</g>
<!-- Node11&#45;&gt;Node13 -->
<g id="edge13" class="edge">
<title>Node11&#45;&gt;Node13</title>
<path fill="none" stroke="midnightblue" d="M329.36,-291.44C341.28,-282.44 360.53,-267.82 377,-255 394.47,-241.4 396.47,-234.43 416,-224 448.65,-206.57 489.19,-194.51 518.41,-187.3"/>
<polygon fill="midnightblue" stroke="midnightblue" points="519.33,-190.67 528.24,-184.94 517.7,-183.87 519.33,-190.67"/>
</g>
<!-- Node12&#45;&gt;Node4 -->
<g id="edge12" class="edge">
<title>Node12&#45;&gt;Node4</title>
<path fill="none" stroke="midnightblue" d="M606.09,-113.83C668.58,-103.67 782.44,-85.15 846.66,-74.7"/>
<polygon fill="midnightblue" stroke="midnightblue" points="847.6,-78.09 856.9,-73.03 846.47,-71.18 847.6,-78.09"/>
</g>
<!-- Node14&#45;&gt;Node12 -->
<g id="edge15" class="edge">
<title>Node14&#45;&gt;Node12</title>
<path fill="none" stroke="midnightblue" d="M105.99,-347.23C94.76,-339.31 79.79,-326.52 73,-311 65.65,-294.21 63.73,-177.06 72,-168 100.92,-136.3 386.2,-126.64 507.68,-123.95"/>
<polygon fill="midnightblue" stroke="midnightblue" points="507.95,-127.45 517.88,-123.73 507.8,-120.45 507.95,-127.45"/>
</g>
<!-- Node15&#45;&gt;Node12 -->
<g id="edge17" class="edge">
<title>Node15&#45;&gt;Node12</title>
<path fill="none" stroke="midnightblue" d="M348.36,-229.82C388.51,-209.74 487.97,-160.01 535.67,-136.17"/>
<polygon fill="midnightblue" stroke="midnightblue" points="537.37,-139.23 544.75,-131.62 534.24,-132.97 537.37,-139.23"/>
</g>
<!-- Node15&#45;&gt;Node13 -->
<g id="edge18" class="edge">
<title>Node15&#45;&gt;Node13</title>
<path fill="none" stroke="midnightblue" d="M360.63,-229.94C367.63,-227.95 375.07,-225.88 382,-224 428.85,-211.32 483,-197.53 518.5,-188.6"/>
<polygon fill="midnightblue" stroke="midnightblue" points="519.6,-191.93 528.45,-186.11 517.9,-185.14 519.6,-191.93"/>
</g>
<!-- Node16&#45;&gt;Node12 -->
<g id="edge20" class="edge">
<title>Node16&#45;&gt;Node12</title>
<path fill="none" stroke="midnightblue" d="M363.22,-403.37C294.14,-380.97 114.76,-322.01 107,-311 90.92,-288.19 110.94,-253.76 132,-224 154.42,-192.32 163.4,-183.46 199,-168 253.15,-144.48 420.14,-131.39 507.49,-125.98"/>
<polygon fill="midnightblue" stroke="midnightblue" points="507.96,-129.46 517.73,-125.36 507.54,-122.47 507.96,-129.46"/>
</g>
<!-- Node17 -->
<g id="node17" class="node">
<title>Node17</title>
<g id="a_node17"><a xlink:href="sitkExceptionObject_8h.html" target="_top" xlink:title=" ">
<polygon fill="white" stroke="black" points="152.5,-230 152.5,-249 275.5,-249 275.5,-230 152.5,-230"/>
<text text-anchor="middle" x="214" y="-237" font-family="Helvetica,sans-Serif" font-size="10.00">sitkExceptionObject.h</text>
</a>
</g>
</g>
<!-- Node16&#45;&gt;Node17 -->
<g id="edge21" class="edge">
<title>Node16&#45;&gt;Node17</title>
<path fill="none" stroke="midnightblue" d="M375.71,-403.35C350.15,-387.39 295.83,-351.26 259,-311 244.35,-294.98 231.46,-273.63 223.28,-258.64"/>
<polygon fill="midnightblue" stroke="midnightblue" points="226.17,-256.62 218.4,-249.42 219.98,-259.89 226.17,-256.62"/>
</g>
<!-- Node18 -->
<g id="node18" class="node">
<title>Node18</title>
<g id="a_node18"><a xlink:href="sitkImage_8h.html" target="_top" xlink:title=" ">
<polygon fill="white" stroke="black" points="616,-347.5 616,-366.5 690,-366.5 690,-347.5 616,-347.5"/>
<text text-anchor="middle" x="653" y="-354.5" font-family="Helvetica,sans-Serif" font-size="10.00">sitkImage.h</text>
</a>
</g>
</g>
<!-- Node16&#45;&gt;Node18 -->
<g id="edge24" class="edge">
<title>Node16&#45;&gt;Node18</title>
<path fill="none" stroke="midnightblue" d="M431.67,-403.44C479.1,-393.71 556.39,-377.84 605.95,-367.66"/>
<polygon fill="midnightblue" stroke="midnightblue" points="606.68,-371.08 615.77,-365.64 605.27,-364.23 606.68,-371.08"/>
</g>
<!-- Node20 -->
<g id="node20" class="node">
<title>Node20</title>
<g id="a_node20"><a xlink:title=" ">
<polygon fill="white" stroke="#bfbfbf" points="424.5,-230 424.5,-249 471.5,-249 471.5,-230 424.5,-230"/>
<text text-anchor="middle" x="448" y="-237" font-family="Helvetica,sans-Serif" font-size="10.00">vector</text>
</a>
</g>
</g>
<!-- Node16&#45;&gt;Node20 -->
<g id="edge64" class="edge">
<title>Node16&#45;&gt;Node20</title>
<path fill="none" stroke="midnightblue" d="M392.96,-403.26C401.99,-376.54 429.39,-295.52 441.79,-258.86"/>
<polygon fill="midnightblue" stroke="midnightblue" points="445.23,-259.61 445.12,-249.02 438.6,-257.37 445.23,-259.61"/>
</g>
<!-- Node17&#45;&gt;Node4 -->
<g id="edge22" class="edge">
<title>Node17&#45;&gt;Node4</title>
<path fill="none" stroke="midnightblue" d="M231.37,-229.85C259.13,-216.13 315.32,-188.81 364,-168 427.52,-140.85 441.94,-128.59 509,-112 628.24,-82.51 773.16,-72.2 846.53,-68.71"/>
<polygon fill="midnightblue" stroke="midnightblue" points="846.99,-72.19 856.82,-68.24 846.67,-65.19 846.99,-72.19"/>
</g>
<!-- Node17&#45;&gt;Node12 -->
<g id="edge23" class="edge">
<title>Node17&#45;&gt;Node12</title>
<path fill="none" stroke="midnightblue" d="M239.87,-229.91C301.28,-209.53 455.92,-158.21 526.22,-134.88"/>
<polygon fill="midnightblue" stroke="midnightblue" points="527.57,-138.12 535.96,-131.64 525.36,-131.47 527.57,-138.12"/>
</g>
<!-- Node18&#45;&gt;Node2 -->
<g id="edge62" class="edge">
<title>Node18&#45;&gt;Node2</title>
<path fill="none" stroke="midnightblue" d="M615.65,-352.03C522.33,-342.11 279.72,-316.32 184.33,-306.18"/>
<polygon fill="midnightblue" stroke="midnightblue" points="184.56,-302.69 174.24,-305.11 183.82,-309.65 184.56,-302.69"/>
</g>
<!-- Node18&#45;&gt;Node11 -->
<g id="edge60" class="edge">
<title>Node18&#45;&gt;Node11</title>
<path fill="none" stroke="midnightblue" d="M615.87,-350.01C558.43,-340.76 447.45,-322.87 378.37,-311.73"/>
<polygon fill="midnightblue" stroke="midnightblue" points="378.5,-308.21 368.08,-310.07 377.39,-315.12 378.5,-308.21"/>
</g>
<!-- Node18&#45;&gt;Node12 -->
<g id="edge25" class="edge">
<title>Node18&#45;&gt;Node12</title>
<path fill="none" stroke="midnightblue" d="M652.22,-347.12C651.06,-334.56 648.59,-310.92 645,-291 639.57,-260.87 640.64,-252.32 629,-224 617.93,-197.07 611.18,-192.21 595,-168 588.67,-158.54 581.2,-148.28 574.97,-139.95"/>
<polygon fill="midnightblue" stroke="midnightblue" points="577.63,-137.67 568.81,-131.8 572.05,-141.89 577.63,-137.67"/>
</g>
<!-- Node19 -->
<g id="node19" class="node">
<title>Node19</title>
<g id="a_node19"><a xlink:href="sitkTemplateFunctions_8h.html" target="_top" xlink:title=" ">
<polygon fill="white" stroke="black" points="500.5,-291.5 500.5,-310.5 635.5,-310.5 635.5,-291.5 500.5,-291.5"/>
<text text-anchor="middle" x="568" y="-298.5" font-family="Helvetica,sans-Serif" font-size="10.00">sitkTemplateFunctions.h</text>
</a>
</g>
</g>
<!-- Node18&#45;&gt;Node19 -->
<g id="edge26" class="edge">
<title>Node18&#45;&gt;Node19</title>
<path fill="none" stroke="midnightblue" d="M639.34,-347.32C626.08,-338.9 605.73,-325.97 590.15,-316.07"/>
<polygon fill="midnightblue" stroke="midnightblue" points="591.94,-313.06 581.62,-310.65 588.19,-318.97 591.94,-313.06"/>
</g>
<!-- Node18&#45;&gt;Node20 -->
<g id="edge61" class="edge">
<title>Node18&#45;&gt;Node20</title>
<path fill="none" stroke="midnightblue" d="M615.75,-353.27C580.77,-349.05 528.47,-338.31 492,-311 474.19,-297.66 461.87,-274.81 454.89,-258.75"/>
<polygon fill="midnightblue" stroke="midnightblue" points="458.07,-257.29 451.07,-249.34 451.59,-259.92 458.07,-257.29"/>
</g>
<!-- Node22 -->
<g id="node22" class="node">
<title>Node22</title>
<g id="a_node22"><a xlink:href="sitkDetail_8h.html" target="_top" xlink:title=" ">
<polygon fill="white" stroke="black" points="1101.5,-291.5 1101.5,-310.5 1174.5,-310.5 1174.5,-291.5 1101.5,-291.5"/>
<text text-anchor="middle" x="1138" y="-298.5" font-family="Helvetica,sans-Serif" font-size="10.00">sitkDetail.h</text>
</a>
</g>
</g>
<!-- Node18&#45;&gt;Node22 -->
<g id="edge33" class="edge">
<title>Node18&#45;&gt;Node22</title>
<path fill="none" stroke="midnightblue" d="M690.25,-351.85C777.57,-342.13 995.3,-317.89 1091.29,-307.2"/>
<polygon fill="midnightblue" stroke="midnightblue" points="1091.73,-310.67 1101.29,-306.09 1090.96,-303.72 1091.73,-310.67"/>
</g>
<!-- Node33 -->
<g id="node33" class="node">
<title>Node33</title>
<g id="a_node33"><a xlink:href="sitkPixelIDTokens_8h.html" target="_top" xlink:title=" ">
<polygon fill="white" stroke="black" points="935,-291.5 935,-310.5 1045,-310.5 1045,-291.5 935,-291.5"/>
<text text-anchor="middle" x="990" y="-298.5" font-family="Helvetica,sans-Serif" font-size="10.00">sitkPixelIDTokens.h</text>
</a>
</g>
</g>
<!-- Node18&#45;&gt;Node33 -->
<g id="edge52" class="edge">
<title>Node18&#45;&gt;Node33</title>
<path fill="none" stroke="midnightblue" d="M690.03,-350.07C747.07,-340.93 857.12,-323.29 926.89,-312.11"/>
<polygon fill="midnightblue" stroke="midnightblue" points="927.56,-315.55 936.88,-310.51 926.46,-308.64 927.56,-315.55"/>
</g>
<!-- Node36 -->
<g id="node36" class="node">
<title>Node36</title>
<g id="a_node36"><a xlink:title=" ">
<polygon fill="white" stroke="#bfbfbf" points="880.5,-230 880.5,-249 949.5,-249 949.5,-230 880.5,-230"/>
<text text-anchor="middle" x="915" y="-237" font-family="Helvetica,sans-Serif" font-size="10.00">type_traits</text>
</a>
</g>
</g>
<!-- Node18&#45;&gt;Node36 -->
<g id="edge63" class="edge">
<title>Node18&#45;&gt;Node36</title>
<path fill="none" stroke="midnightblue" d="M672.69,-347.32C718.51,-327.12 832.45,-276.89 886.14,-253.22"/>
<polygon fill="midnightblue" stroke="midnightblue" points="887.7,-256.36 895.44,-249.12 884.87,-249.96 887.7,-256.36"/>
</g>
<!-- Node19&#45;&gt;Node4 -->
<g id="edge27" class="edge">
<title>Node19&#45;&gt;Node4</title>
<path fill="none" stroke="midnightblue" d="M635.74,-298.35C675.02,-294.13 723.23,-282.96 757,-255 789.64,-227.98 772.22,-203.07 796,-168 819.24,-133.72 854.67,-100.56 875.96,-82.06"/>
<polygon fill="midnightblue" stroke="midnightblue" points="878.3,-84.66 883.62,-75.5 873.75,-79.34 878.3,-84.66"/>
</g>
<!-- Node19&#45;&gt;Node12 -->
<g id="edge28" class="edge">
<title>Node19&#45;&gt;Node12</title>
<path fill="none" stroke="midnightblue" d="M562.86,-291.4C552.29,-273.14 528.38,-228.82 520,-188 518.21,-179.29 516.74,-176.27 520,-168 524.51,-156.55 533.47,-146.29 541.95,-138.47"/>
<polygon fill="midnightblue" stroke="midnightblue" points="544.47,-140.93 549.79,-131.76 539.91,-135.61 544.47,-140.93"/>
</g>
<!-- Node19&#45;&gt;Node13 -->
<g id="edge31" class="edge">
<title>Node19&#45;&gt;Node13</title>
<path fill="none" stroke="midnightblue" d="M565.55,-291.46C563.11,-282.48 559.5,-267.88 558,-255 555.76,-235.78 555.76,-213.65 556.17,-198.24"/>
<polygon fill="midnightblue" stroke="midnightblue" points="559.68,-198.05 556.53,-187.93 552.68,-197.8 559.68,-198.05"/>
</g>
<!-- Node19&#45;&gt;Node17 -->
<g id="edge29" class="edge">
<title>Node19&#45;&gt;Node17</title>
<path fill="none" stroke="midnightblue" d="M509.61,-291.48C452.3,-282.93 362.46,-269.06 285,-255 278.26,-253.78 271.18,-252.42 264.21,-251.04"/>
<polygon fill="midnightblue" stroke="midnightblue" points="264.61,-247.55 254.12,-249.01 263.23,-254.41 264.61,-247.55"/>
</g>
<!-- Node19&#45;&gt;Node20 -->
<g id="edge30" class="edge">
<title>Node19&#45;&gt;Node20</title>
<path fill="none" stroke="midnightblue" d="M550.81,-291.48C530.76,-281.53 497.4,-264.99 474.14,-253.46"/>
<polygon fill="midnightblue" stroke="midnightblue" points="475.68,-250.32 465.16,-249.01 472.57,-256.59 475.68,-250.32"/>
</g>
<!-- Node21 -->
<g id="node21" class="node">
<title>Node21</title>
<g id="a_node21"><a xlink:title=" ">
<polygon fill="white" stroke="#bfbfbf" points="566.5,-230 566.5,-249 619.5,-249 619.5,-230 566.5,-230"/>
<text text-anchor="middle" x="593" y="-237" font-family="Helvetica,sans-Serif" font-size="10.00">iterator</text>
</a>
</g>
</g>
<!-- Node19&#45;&gt;Node21 -->
<g id="edge32" class="edge">
<title>Node19&#45;&gt;Node21</title>
<path fill="none" stroke="midnightblue" d="M571.58,-291.48C575.18,-282.9 580.85,-269.43 585.44,-258.48"/>
<polygon fill="midnightblue" stroke="midnightblue" points="588.78,-259.58 589.42,-249.01 582.32,-256.87 588.78,-259.58"/>
</g>
<!-- Node23 -->
<g id="node23" class="node">
<title>Node23</title>
<g id="a_node23"><a xlink:href="sitkMemberFunctionFactoryBase_8h.html" target="_top" xlink:title=" ">
<polygon fill="white" stroke="black" points="1328,-224.5 1328,-254.5 1480,-254.5 1480,-224.5 1328,-224.5"/>
<text text-anchor="start" x="1336" y="-242.5" font-family="Helvetica,sans-Serif" font-size="10.00">sitkMemberFunctionFactory</text>
<text text-anchor="middle" x="1404" y="-231.5" font-family="Helvetica,sans-Serif" font-size="10.00">Base.h</text>
</a>
</g>
</g>
<!-- Node22&#45;&gt;Node23 -->
<g id="edge34" class="edge">
<title>Node22&#45;&gt;Node23</title>
<path fill="none" stroke="midnightblue" d="M1174.71,-291.79C1214.99,-282.78 1280.68,-268.08 1331.44,-256.73"/>
<polygon fill="midnightblue" stroke="midnightblue" points="1332.39,-260.1 1341.39,-254.51 1330.86,-253.27 1332.39,-260.1"/>
</g>
<!-- Node29 -->
<g id="node29" class="node">
<title>Node29</title>
<g id="a_node29"><a xlink:title=" ">
<polygon fill="white" stroke="#bfbfbf" points="1032.5,-168.5 1032.5,-187.5 1171.5,-187.5 1171.5,-168.5 1032.5,-168.5"/>
<text text-anchor="middle" x="1102" y="-175.5" font-family="Helvetica,sans-Serif" font-size="10.00">Ancillary/FunctionTraits.h</text>
</a>
</g>
</g>
<!-- Node22&#45;&gt;Node29 -->
<g id="edge51" class="edge">
<title>Node22&#45;&gt;Node29</title>
<path fill="none" stroke="midnightblue" d="M1136.41,-291.45C1133.66,-277.27 1127.61,-248.04 1120,-224 1117.14,-214.98 1113.32,-205.19 1109.93,-197.06"/>
<polygon fill="midnightblue" stroke="midnightblue" points="1113.13,-195.64 1105.98,-187.82 1106.7,-198.39 1113.13,-195.64"/>
</g>
<!-- Node23&#45;&gt;Node4 -->
<g id="edge43" class="edge">
<title>Node23&#45;&gt;Node4</title>
<path fill="none" stroke="midnightblue" d="M1339.09,-224.46C1303.09,-215.76 1257.87,-203.32 1219,-188 1201.24,-181 1198.49,-175.63 1181,-168 1094.18,-130.12 988.15,-95.74 932.44,-78.56"/>
<polygon fill="midnightblue" stroke="midnightblue" points="933.22,-75.14 922.64,-75.55 931.17,-81.83 933.22,-75.14"/>
</g>
<!-- Node23&#45;&gt;Node10 -->
<g id="edge35" class="edge">
<title>Node23&#45;&gt;Node10</title>
<path fill="none" stroke="midnightblue" d="M1480.12,-234.45C1549.45,-228.99 1644.51,-216.41 1668,-188 1680.39,-173.01 1678.35,-133.71 1658,-112 1609.9,-60.67 1403.51,-29.54 1303.18,-17.17"/>
<polygon fill="midnightblue" stroke="midnightblue" points="1303.58,-13.69 1293.23,-15.96 1302.74,-20.64 1303.58,-13.69"/>
</g>
<!-- Node24 -->
<g id="node24" class="node">
<title>Node24</title>
<g id="a_node24"><a xlink:href="sitkPixelIDTypes_8h.html" target="_top" xlink:title=" ">
<polygon fill="white" stroke="black" points="1543.5,-112.5 1543.5,-131.5 1648.5,-131.5 1648.5,-112.5 1543.5,-112.5"/>
<text text-anchor="middle" x="1596" y="-119.5" font-family="Helvetica,sans-Serif" font-size="10.00">sitkPixelIDTypes.h</text>
</a>
</g>
</g>
<!-- Node23&#45;&gt;Node24 -->
<g id="edge36" class="edge">
<title>Node23&#45;&gt;Node24</title>
<path fill="none" stroke="midnightblue" d="M1480.23,-233.35C1544.92,-227.2 1630.56,-214.24 1652,-188 1666.68,-170.03 1642.77,-149.87 1621.79,-136.83"/>
<polygon fill="midnightblue" stroke="midnightblue" points="1623.49,-133.77 1613.1,-131.71 1619.94,-139.8 1623.49,-133.77"/>
</g>
<!-- Node25 -->
<g id="node25" class="node">
<title>Node25</title>
<g id="a_node25"><a xlink:href="sitkPixelIDTypeLists_8h.html" target="_top" xlink:title=" ">
<polygon fill="white" stroke="black" points="1228,-168.5 1228,-187.5 1350,-187.5 1350,-168.5 1228,-168.5"/>
<text text-anchor="middle" x="1289" y="-175.5" font-family="Helvetica,sans-Serif" font-size="10.00">sitkPixelIDTypeLists.h</text>
</a>
</g>
</g>
<!-- Node23&#45;&gt;Node25 -->
<g id="edge37" class="edge">
<title>Node23&#45;&gt;Node25</title>
<path fill="none" stroke="midnightblue" d="M1376.75,-224.4C1357.97,-214.68 1333.17,-201.86 1314.73,-192.31"/>
<polygon fill="midnightblue" stroke="midnightblue" points="1316.22,-189.14 1305.73,-187.66 1313.01,-195.36 1316.22,-189.14"/>
</g>
<!-- Node26 -->
<g id="node26" class="node">
<title>Node26</title>
<g id="a_node26"><a xlink:title=" ">
<polygon fill="white" stroke="#bfbfbf" points="1350.5,-112.5 1350.5,-131.5 1461.5,-131.5 1461.5,-112.5 1350.5,-112.5"/>
<text text-anchor="middle" x="1406" y="-119.5" font-family="Helvetica,sans-Serif" font-size="10.00">Ancillary/TypeList.h</text>
</a>
</g>
</g>
<!-- Node23&#45;&gt;Node26 -->
<g id="edge46" class="edge">
<title>Node23&#45;&gt;Node26</title>
<path fill="none" stroke="midnightblue" d="M1480.25,-231.26C1508.1,-224.5 1536.92,-211.77 1554,-188 1578.87,-153.39 1522.14,-136.97 1471.88,-129.33"/>
<polygon fill="midnightblue" stroke="midnightblue" points="1472.33,-125.86 1461.94,-127.92 1471.35,-132.79 1472.33,-125.86"/>
</g>
<!-- Node28 -->
<g id="node28" class="node">
<title>Node28</title>
<g id="a_node28"><a xlink:href="sitkNonCopyable_8h.html" target="_top" xlink:title=" ">
<polygon fill="white" stroke="black" points="804.5,-168.5 804.5,-187.5 913.5,-187.5 913.5,-168.5 804.5,-168.5"/>
<text text-anchor="middle" x="859" y="-175.5" font-family="Helvetica,sans-Serif" font-size="10.00">sitkNonCopyable.h</text>
</a>
</g>
</g>
<!-- Node23&#45;&gt;Node28 -->
<g id="edge44" class="edge">
<title>Node23&#45;&gt;Node28</title>
<path fill="none" stroke="midnightblue" d="M1327.68,-231.32C1234.87,-222.4 1073.19,-206.27 924.06,-188.09"/>
<polygon fill="midnightblue" stroke="midnightblue" points="924.15,-184.58 913.8,-186.83 923.3,-191.52 924.15,-184.58"/>
</g>
<!-- Node23&#45;&gt;Node29 -->
<g id="edge47" class="edge">
<title>Node23&#45;&gt;Node29</title>
<path fill="none" stroke="midnightblue" d="M1332.81,-224.47C1278.32,-213.74 1204.37,-199.17 1155.01,-189.44"/>
<polygon fill="midnightblue" stroke="midnightblue" points="1155.66,-186.01 1145.18,-187.51 1154.31,-192.87 1155.66,-186.01"/>
</g>
<!-- Node30 -->
<g id="node30" class="node">
<title>Node30</title>
<g id="a_node30"><a xlink:title=" ">
<polygon fill="white" stroke="#bfbfbf" points="1368.5,-168.5 1368.5,-187.5 1461.5,-187.5 1461.5,-168.5 1368.5,-168.5"/>
<text text-anchor="middle" x="1415" y="-175.5" font-family="Helvetica,sans-Serif" font-size="10.00">unordered_map</text>
</a>
</g>
</g>
<!-- Node23&#45;&gt;Node30 -->
<g id="edge48" class="edge">
<title>Node23&#45;&gt;Node30</title>
<path fill="none" stroke="midnightblue" d="M1406.61,-224.4C1408.09,-216.38 1409.97,-206.23 1411.57,-197.57"/>
<polygon fill="midnightblue" stroke="midnightblue" points="1415.02,-198.13 1413.4,-187.66 1408.14,-196.85 1415.02,-198.13"/>
</g>
<!-- Node31 -->
<g id="node31" class="node">
<title>Node31</title>
<g id="a_node31"><a xlink:title=" ">
<polygon fill="white" stroke="#bfbfbf" points="1479.5,-168.5 1479.5,-187.5 1544.5,-187.5 1544.5,-168.5 1479.5,-168.5"/>
<text text-anchor="middle" x="1512" y="-175.5" font-family="Helvetica,sans-Serif" font-size="10.00">functional</text>
</a>
</g>
</g>
<!-- Node23&#45;&gt;Node31 -->
<g id="edge49" class="edge">
<title>Node23&#45;&gt;Node31</title>
<path fill="none" stroke="midnightblue" d="M1429.59,-224.4C1447.07,-214.77 1470.09,-202.09 1487.36,-192.58"/>
<polygon fill="midnightblue" stroke="midnightblue" points="1489.22,-195.55 1496.29,-187.66 1485.84,-189.42 1489.22,-195.55"/>
</g>
<!-- Node32 -->
<g id="node32" class="node">
<title>Node32</title>
<g id="a_node32"><a xlink:title=" ">
<polygon fill="white" stroke="#bfbfbf" points="1601.5,-168.5 1601.5,-187.5 1642.5,-187.5 1642.5,-168.5 1601.5,-168.5"/>
<text text-anchor="middle" x="1622" y="-175.5" font-family="Helvetica,sans-Serif" font-size="10.00">tuple</text>
</a>
</g>
</g>
<!-- Node23&#45;&gt;Node32 -->
<g id="edge50" class="edge">
<title>Node23&#45;&gt;Node32</title>
<path fill="none" stroke="midnightblue" d="M1455.39,-224.47C1497.78,-212.9 1556.48,-196.88 1591.7,-187.27"/>
<polygon fill="midnightblue" stroke="midnightblue" points="1592.68,-190.63 1601.41,-184.62 1590.84,-183.88 1592.68,-190.63"/>
</g>
<!-- Node25&#45;&gt;Node5 -->
<g id="edge38" class="edge">
<title>Node25&#45;&gt;Node5</title>
<path fill="none" stroke="midnightblue" d="M1282.06,-168.16C1271.75,-155.25 1251.48,-130.71 1232,-112 1197.26,-78.63 1152.53,-44.34 1127.08,-25.54"/>
<polygon fill="midnightblue" stroke="midnightblue" points="1129.06,-22.65 1118.93,-19.56 1124.92,-28.3 1129.06,-22.65"/>
</g>
<!-- Node25&#45;&gt;Node10 -->
<g id="edge39" class="edge">
<title>Node25&#45;&gt;Node10</title>
<path fill="none" stroke="midnightblue" d="M1286.8,-168.08C1280.34,-141.95 1261.39,-65.21 1252.59,-29.58"/>
<polygon fill="midnightblue" stroke="midnightblue" points="1255.91,-28.44 1250.12,-19.57 1249.12,-30.12 1255.91,-28.44"/>
</g>
<!-- Node25&#45;&gt;Node24 -->
<g id="edge40" class="edge">
<title>Node25&#45;&gt;Node24</title>
<path fill="none" stroke="midnightblue" d="M1337.65,-168.44C1391.87,-158.9 1479.55,-143.48 1537.48,-133.29"/>
<polygon fill="midnightblue" stroke="midnightblue" points="1538.34,-136.7 1547.58,-131.52 1537.13,-129.8 1538.34,-136.7"/>
</g>
<!-- Node25&#45;&gt;Node26 -->
<g id="edge41" class="edge">
<title>Node25&#45;&gt;Node26</title>
<path fill="none" stroke="midnightblue" d="M1307.54,-168.44C1326.62,-159.64 1356.57,-145.81 1378.44,-135.72"/>
<polygon fill="midnightblue" stroke="midnightblue" points="1379.93,-138.88 1387.55,-131.52 1377,-132.53 1379.93,-138.88"/>
</g>
<!-- Node27 -->
<g id="node27" class="node">
<title>Node27</title>
<g id="a_node27"><a xlink:title=" ">
<polygon fill="white" stroke="#bfbfbf" points="1163.5,-112.5 1163.5,-131.5 1222.5,-131.5 1222.5,-112.5 1163.5,-112.5"/>
<text text-anchor="middle" x="1193" y="-119.5" font-family="Helvetica,sans-Serif" font-size="10.00">complex</text>
</a>
</g>
</g>
<!-- Node25&#45;&gt;Node27 -->
<g id="edge42" class="edge">
<title>Node25&#45;&gt;Node27</title>
<path fill="none" stroke="midnightblue" d="M1273.58,-168.32C1258.46,-159.82 1235.18,-146.73 1217.53,-136.8"/>
<polygon fill="midnightblue" stroke="midnightblue" points="1218.82,-133.51 1208.39,-131.65 1215.39,-139.61 1218.82,-133.51"/>
</g>
<!-- Node28&#45;&gt;Node12 -->
<g id="edge45" class="edge">
<title>Node28&#45;&gt;Node12</title>
<path fill="none" stroke="midnightblue" d="M811.94,-168.44C758.82,-158.78 672.52,-143.09 616.51,-132.91"/>
<polygon fill="midnightblue" stroke="midnightblue" points="616.88,-129.42 606.41,-131.08 615.63,-136.31 616.88,-129.42"/>
</g>
<!-- Node33&#45;&gt;Node10 -->
<g id="edge53" class="edge">
<title>Node33&#45;&gt;Node10</title>
<path fill="none" stroke="midnightblue" d="M1032.39,-291.45C1052.58,-285.02 1074.91,-273.93 1087,-255 1094.41,-243.39 1093.92,-235.92 1087,-224 1070.81,-196.11 1040.19,-215.89 1024,-188 1019.54,-180.31 1019.9,-175.89 1024,-168 1064.15,-90.82 1161.55,-43.7 1213.69,-23.15"/>
<polygon fill="midnightblue" stroke="midnightblue" points="1215.11,-26.35 1223.19,-19.5 1212.6,-19.82 1215.11,-26.35"/>
</g>
<!-- Node34 -->
<g id="node34" class="node">
<title>Node34</title>
<g id="a_node34"><a xlink:href="sitkPixelIDValues_8h.html" target="_top" xlink:title=" ">
<polygon fill="white" stroke="black" points="968,-230 968,-249 1078,-249 1078,-230 968,-230"/>
<text text-anchor="middle" x="1023" y="-237" font-family="Helvetica,sans-Serif" font-size="10.00">sitkPixelIDValues.h</text>
</a>
</g>
</g>
<!-- Node33&#45;&gt;Node34 -->
<g id="edge54" class="edge">
<title>Node33&#45;&gt;Node34</title>
<path fill="none" stroke="midnightblue" d="M994.73,-291.48C999.58,-282.73 1007.27,-268.87 1013.4,-257.81"/>
<polygon fill="midnightblue" stroke="midnightblue" points="1016.49,-259.45 1018.28,-249.01 1010.37,-256.06 1016.49,-259.45"/>
</g>
<!-- Node33&#45;&gt;Node36 -->
<g id="edge59" class="edge">
<title>Node33&#45;&gt;Node36</title>
<path fill="none" stroke="midnightblue" d="M979.25,-291.48C967.45,-282.11 948.26,-266.88 933.92,-255.51"/>
<polygon fill="midnightblue" stroke="midnightblue" points="935.74,-252.48 925.73,-249.01 931.38,-257.97 935.74,-252.48"/>
</g>
<!-- Node34&#45;&gt;Node12 -->
<g id="edge55" class="edge">
<title>Node34&#45;&gt;Node12</title>
<path fill="none" stroke="midnightblue" d="M985.44,-229.96C976.76,-227.99 967.56,-225.92 959,-224 886.6,-207.8 867.99,-205.93 796,-188 726.63,-170.72 646.5,-147.81 600.29,-134.32"/>
<polygon fill="midnightblue" stroke="midnightblue" points="601.27,-130.96 590.69,-131.5 599.3,-137.67 601.27,-130.96"/>
</g>
<!-- Node34&#45;&gt;Node13 -->
<g id="edge58" class="edge">
<title>Node34&#45;&gt;Node13</title>
<path fill="none" stroke="midnightblue" d="M988.6,-229.97C979.05,-227.8 968.66,-225.63 959,-224 826.66,-201.67 667.89,-187.6 595.89,-181.91"/>
<polygon fill="midnightblue" stroke="midnightblue" points="596.16,-178.42 585.91,-181.13 595.61,-185.39 596.16,-178.42"/>
</g>
<!-- Node34&#45;&gt;Node25 -->
<g id="edge56" class="edge">
<title>Node34&#45;&gt;Node25</title>
<path fill="none" stroke="midnightblue" d="M1061.11,-229.98C1108.52,-219.37 1189.48,-201.26 1241.06,-189.72"/>
<polygon fill="midnightblue" stroke="midnightblue" points="1241.96,-193.11 1250.96,-187.51 1240.44,-186.28 1241.96,-193.11"/>
</g>
<!-- Node35 -->
<g id="node35" class="node">
<title>Node35</title>
<g id="a_node35"><a xlink:title=" ">
<polygon fill="white" stroke="#bfbfbf" points="932,-168.5 932,-187.5 976,-187.5 976,-168.5 932,-168.5"/>
<text text-anchor="middle" x="954" y="-175.5" font-family="Helvetica,sans-Serif" font-size="10.00">string</text>
</a>
</g>
</g>
<!-- Node34&#45;&gt;Node35 -->
<g id="edge57" class="edge">
<title>Node34&#45;&gt;Node35</title>
<path fill="none" stroke="midnightblue" d="M1013.11,-229.98C1002.35,-220.7 984.93,-205.67 971.78,-194.33"/>
<polygon fill="midnightblue" stroke="midnightblue" points="973.73,-191.39 963.87,-187.51 969.16,-196.69 973.73,-191.39"/>
</g>
<!-- Node38&#45;&gt;Node12 -->
<g id="edge67" class="edge">
<title>Node38&#45;&gt;Node12</title>
<path fill="none" stroke="midnightblue" d="M781.28,-459.23C791.73,-441.04 814,-397.6 814,-358 814,-358 814,-358 814,-300 814,-210.86 742.14,-209.02 663,-168 639.86,-156 612.85,-144.07 592.59,-135.52"/>
<polygon fill="midnightblue" stroke="midnightblue" points="593.81,-132.23 583.23,-131.6 591.11,-138.69 593.81,-132.23"/>
</g>
<!-- Node38&#45;&gt;Node18 -->
<g id="edge73" class="edge">
<title>Node38&#45;&gt;Node18</title>
<path fill="none" stroke="midnightblue" d="M769.59,-459.39C759.63,-446.32 739.45,-421.11 719,-403 705.88,-391.39 689.64,-380.28 676.55,-372"/>
<polygon fill="midnightblue" stroke="midnightblue" points="678.01,-368.79 667.66,-366.51 674.33,-374.74 678.01,-368.79"/>
</g>
<!-- Node38&#45;&gt;Node19 -->
<g id="edge69" class="edge">
<title>Node38&#45;&gt;Node19</title>
<path fill="none" stroke="midnightblue" d="M719.11,-461.33C670.49,-454.44 605.67,-441.97 588,-423 562.09,-395.18 562.59,-347.29 565.27,-320.87"/>
<polygon fill="midnightblue" stroke="midnightblue" points="568.78,-321.04 566.52,-310.69 561.83,-320.19 568.78,-321.04"/>
</g>
<!-- Node38&#45;&gt;Node28 -->
<g id="edge68" class="edge">
<title>Node38&#45;&gt;Node28</title>
<path fill="none" stroke="midnightblue" d="M789.2,-459.46C800.84,-451.33 817.53,-438.12 828,-423 845.53,-397.68 852,-388.8 852,-358 852,-358 852,-358 852,-300 852,-263.83 855.16,-221.69 857.23,-197.9"/>
<polygon fill="midnightblue" stroke="midnightblue" points="860.73,-198.07 858.14,-187.8 853.76,-197.44 860.73,-198.07"/>
</g>
<!-- Node39 -->
<g id="node39" class="node">
<title>Node39</title>
<g id="a_node39"><a xlink:href="sitkEvent_8h.html" target="_top" xlink:title=" ">
<polygon fill="white" stroke="black" points="676.5,-230 676.5,-249 747.5,-249 747.5,-230 676.5,-230"/>
<text text-anchor="middle" x="712" y="-237" font-family="Helvetica,sans-Serif" font-size="10.00">sitkEvent.h</text>
</a>
</g>
</g>
<!-- Node38&#45;&gt;Node39 -->
<g id="edge70" class="edge">
<title>Node38&#45;&gt;Node39</title>
<path fill="none" stroke="midnightblue" d="M773.57,-459.36C764.18,-426 730.18,-305.14 717.14,-258.78"/>
<polygon fill="midnightblue" stroke="midnightblue" points="720.51,-257.83 714.43,-249.15 713.77,-259.72 720.51,-257.83"/>
</g>
<!-- Node40 -->
<g id="node40" class="node">
<title>Node40</title>
<g id="a_node40"><a xlink:href="sitkImageConvert_8h.html" target="_top" xlink:title=" ">
<polygon fill="white" stroke="black" points="596.5,-403.5 596.5,-422.5 709.5,-422.5 709.5,-403.5 596.5,-403.5"/>
<text text-anchor="middle" x="653" y="-410.5" font-family="Helvetica,sans-Serif" font-size="10.00">sitkImageConvert.h</text>
</a>
</g>
</g>
<!-- Node38&#45;&gt;Node40 -->
<g id="edge74" class="edge">
<title>Node38&#45;&gt;Node40</title>
<path fill="none" stroke="midnightblue" d="M756.51,-459.44C736.36,-450.6 704.68,-436.69 681.67,-426.59"/>
<polygon fill="midnightblue" stroke="midnightblue" points="682.96,-423.33 672.4,-422.52 680.15,-429.74 682.96,-423.33"/>
</g>
<!-- Node41 -->
<g id="node41" class="node">
<title>Node41</title>
<g id="a_node41"><a xlink:title=" ">
<polygon fill="white" stroke="#bfbfbf" points="880,-403.5 880,-422.5 940,-422.5 940,-403.5 880,-403.5"/>
<text text-anchor="middle" x="910" y="-410.5" font-family="Helvetica,sans-Serif" font-size="10.00">iostream</text>
</a>
</g>
</g>
<!-- Node38&#45;&gt;Node41 -->
<g id="edge76" class="edge">
<title>Node38&#45;&gt;Node41</title>
<path fill="none" stroke="midnightblue" d="M797.23,-459.44C819.38,-450.52 854.32,-436.44 879.44,-426.32"/>
<polygon fill="midnightblue" stroke="midnightblue" points="880.9,-429.5 888.87,-422.52 878.28,-423.01 880.9,-429.5"/>
</g>
<!-- Node42 -->
<g id="node42" class="node">
<title>Node42</title>
<g id="a_node42"><a xlink:title=" ">
<polygon fill="white" stroke="#bfbfbf" points="958,-403.5 958,-422.5 990,-422.5 990,-403.5 958,-403.5"/>
<text text-anchor="middle" x="974" y="-410.5" font-family="Helvetica,sans-Serif" font-size="10.00">list</text>
</a>
</g>
</g>
<!-- Node38&#45;&gt;Node42 -->
<g id="edge77" class="edge">
<title>Node38&#45;&gt;Node42</title>
<path fill="none" stroke="midnightblue" d="M812.72,-459.48C845.87,-451.56 896.13,-438.98 948.2,-423.04"/>
<polygon fill="midnightblue" stroke="midnightblue" points="949.42,-426.33 957.93,-420.03 947.35,-419.64 949.42,-426.33"/>
</g>
<!-- Node39&#45;&gt;Node12 -->
<g id="edge71" class="edge">
<title>Node39&#45;&gt;Node12</title>
<path fill="none" stroke="midnightblue" d="M703.91,-229.58C690.87,-215.5 664.03,-187.7 638,-168 622.2,-156.04 603,-144.7 587.84,-136.39"/>
<polygon fill="midnightblue" stroke="midnightblue" points="589.46,-133.28 579,-131.63 586.15,-139.45 589.46,-133.28"/>
</g>
<!-- Node39&#45;&gt;Node13 -->
<g id="edge72" class="edge">
<title>Node39&#45;&gt;Node13</title>
<path fill="none" stroke="midnightblue" d="M689.79,-229.98C663.32,-219.81 618.89,-202.76 588.78,-191.2"/>
<polygon fill="midnightblue" stroke="midnightblue" points="589.76,-187.83 579.17,-187.51 587.25,-194.36 589.76,-187.83"/>
</g>
<!-- Node40&#45;&gt;Node18 -->
<g id="edge75" class="edge">
<title>Node40&#45;&gt;Node18</title>
<path fill="none" stroke="midnightblue" d="M653,-403.08C653,-396.01 653,-385.86 653,-376.99"/>
<polygon fill="midnightblue" stroke="midnightblue" points="656.5,-376.75 653,-366.75 649.5,-376.75 656.5,-376.75"/>
</g>
<!-- Node43&#45;&gt;Node7 -->
<g id="edge83" class="edge">
<title>Node43&#45;&gt;Node7</title>
<path fill="none" stroke="midnightblue" d="M1184.69,-349.89C1356.62,-335.62 1747,-297.02 1747,-240.5 1747,-240.5 1747,-240.5 1747,-121 1747,-37.71 1621.36,-17.47 1557.44,-12.56"/>
<polygon fill="midnightblue" stroke="midnightblue" points="1557.58,-9.07 1547.37,-11.88 1557.11,-16.05 1557.58,-9.07"/>
</g>
<!-- Node43&#45;&gt;Node17 -->
<g id="edge86" class="edge">
<title>Node43&#45;&gt;Node17</title>
<path fill="none" stroke="midnightblue" d="M1025.13,-354.59C907.63,-351.51 681.6,-341.76 492,-311 404.04,-296.73 303.2,-267.96 250.47,-251.93"/>
<polygon fill="midnightblue" stroke="midnightblue" points="251.48,-248.58 240.9,-249 249.43,-255.27 251.48,-248.58"/>
</g>
<!-- Node43&#45;&gt;Node22 -->
<g id="edge79" class="edge">
<title>Node43&#45;&gt;Node22</title>
<path fill="none" stroke="midnightblue" d="M1110.45,-347.08C1115.01,-339.61 1121.67,-328.72 1127.29,-319.52"/>
<polygon fill="midnightblue" stroke="midnightblue" points="1130.42,-321.11 1132.65,-310.75 1124.45,-317.46 1130.42,-321.11"/>
</g>
<!-- Node43&#45;&gt;Node23 -->
<g id="edge80" class="edge">
<title>Node43&#45;&gt;Node23</title>
<path fill="none" stroke="midnightblue" d="M1184.75,-350.92C1252.88,-345.1 1344.29,-333.35 1373,-311 1387.49,-299.72 1395.35,-280.26 1399.53,-264.64"/>
<polygon fill="midnightblue" stroke="midnightblue" points="1403.01,-265.12 1401.87,-254.58 1396.19,-263.53 1403.01,-265.12"/>
</g>
<!-- Node43&#45;&gt;Node33 -->
<g id="edge85" class="edge">
<title>Node43&#45;&gt;Node33</title>
<path fill="none" stroke="midnightblue" d="M1086.78,-347.44C1068.1,-338.68 1038.84,-324.94 1017.38,-314.86"/>
<polygon fill="midnightblue" stroke="midnightblue" points="1018.68,-311.6 1008.14,-310.52 1015.7,-317.93 1018.68,-311.6"/>
</g>
<!-- Node43&#45;&gt;Node34 -->
<g id="edge81" class="edge">
<title>Node43&#45;&gt;Node34</title>
<path fill="none" stroke="midnightblue" d="M1098.84,-347.32C1085.3,-328.26 1052.78,-282.45 1035.04,-257.46"/>
<polygon fill="midnightblue" stroke="midnightblue" points="1037.88,-255.41 1029.23,-249.28 1032.17,-259.46 1037.88,-255.41"/>
</g>
<!-- Node43&#45;&gt;Node43 -->
<g id="edge84" class="edge">
<title>Node43&#45;&gt;Node43</title>
<path fill="none" stroke="midnightblue" d="M1146.33,-366.5C1174.67,-369.33 1202.5,-366.16 1202.5,-357 1202.5,-348.95 1181,-345.53 1156.56,-346.74"/>
<polygon fill="midnightblue" stroke="midnightblue" points="1156.04,-343.27 1146.33,-347.5 1156.56,-350.25 1156.04,-343.27"/>
</g>
<!-- Node44 -->
<g id="node44" class="node">
<title>Node44</title>
<g id="a_node44"><a xlink:title=" ">
<polygon fill="white" stroke="#bfbfbf" points="1192.5,-291.5 1192.5,-310.5 1363.5,-310.5 1363.5,-291.5 1192.5,-291.5"/>
<text text-anchor="middle" x="1278" y="-298.5" font-family="Helvetica,sans-Serif" font-size="10.00">sitkMemberFunctionFactory.hxx</text>
</a>
</g>
</g>
<!-- Node43&#45;&gt;Node44 -->
<g id="edge82" class="edge">
<title>Node43&#45;&gt;Node44</title>
<path fill="none" stroke="midnightblue" d="M1132.41,-347.44C1161.77,-338.28 1208.52,-323.69 1241.1,-313.52"/>
<polygon fill="midnightblue" stroke="midnightblue" points="1242.21,-316.84 1250.72,-310.52 1240.13,-310.16 1242.21,-316.84"/>
</g>
</g>
</svg>
