<?xml version="1.0" encoding="UTF-8" standalone="no"?>
<!DOCTYPE svg PUBLIC "-//W3C//DTD SVG 1.1//EN"
 "http://www.w3.org/Graphics/SVG/1.1/DTD/svg11.dtd">
<!-- Generated by graphviz version 2.43.0 (0)
 -->
<!-- Title: sitkImportImageFilter.h Pages: 1 -->
<svg width="1626pt" height="599pt"
 viewBox="0.00 0.00 1625.50 599.00" xmlns="http://www.w3.org/2000/svg" xmlns:xlink="http://www.w3.org/1999/xlink">
<g id="graph0" class="graph" transform="scale(1 1) rotate(0) translate(4 595)">
<title>sitkImportImageFilter.h</title>
<polygon fill="white" stroke="transparent" points="-4,4 -4,-595 1621.5,-595 1621.5,4 -4,4"/>
<!-- Node1 -->
<g id="node1" class="node">
<title>Node1</title>
<g id="a_node1"><a xlink:title=" ">
<polygon fill="#bfbfbf" stroke="black" points="839,-571.5 839,-590.5 970,-590.5 970,-571.5 839,-571.5"/>
<text text-anchor="middle" x="904.5" y="-578.5" font-family="Helvetica,sans-Serif" font-size="10.00">sitkImportImageFilter.h</text>
</a>
</g>
</g>
<!-- Node2 -->
<g id="node2" class="node">
<title>Node2</title>
<g id="a_node2"><a xlink:href="sitkMacro_8h.html" target="_top" xlink:title=" ">
<polygon fill="white" stroke="black" points="1204.5,-56.5 1204.5,-75.5 1278.5,-75.5 1278.5,-56.5 1204.5,-56.5"/>
<text text-anchor="middle" x="1241.5" y="-63.5" font-family="Helvetica,sans-Serif" font-size="10.00">sitkMacro.h</text>
</a>
</g>
</g>
<!-- Node1&#45;&gt;Node2 -->
<g id="edge1" class="edge">
<title>Node1&#45;&gt;Node2</title>
<path fill="none" stroke="midnightblue" d="M970.3,-576.72C1146.81,-567.04 1617.5,-535.13 1617.5,-470 1617.5,-470 1617.5,-470 1617.5,-177 1617.5,-109.26 1389.84,-80.34 1288.82,-70.84"/>
<polygon fill="midnightblue" stroke="midnightblue" points="1288.86,-67.33 1278.58,-69.9 1288.22,-74.3 1288.86,-67.33"/>
</g>
<!-- Node9 -->
<g id="node9" class="node">
<title>Node9</title>
<g id="a_node9"><a xlink:href="sitkImage_8h.html" target="_top" xlink:title=" ">
<polygon fill="white" stroke="black" points="969.5,-347.5 969.5,-366.5 1043.5,-366.5 1043.5,-347.5 969.5,-347.5"/>
<text text-anchor="middle" x="1006.5" y="-354.5" font-family="Helvetica,sans-Serif" font-size="10.00">sitkImage.h</text>
</a>
</g>
</g>
<!-- Node1&#45;&gt;Node9 -->
<g id="edge8" class="edge">
<title>Node1&#45;&gt;Node9</title>
<path fill="none" stroke="midnightblue" d="M897.72,-571.29C877.16,-543.77 819.34,-457.3 859.5,-403 882.23,-372.28 925.52,-361.84 959.26,-358.61"/>
<polygon fill="midnightblue" stroke="midnightblue" points="959.69,-362.09 969.39,-357.83 959.15,-355.11 959.69,-362.09"/>
</g>
<!-- Node33 -->
<g id="node33" class="node">
<title>Node33</title>
<g id="a_node33"><a xlink:href="sitkImageReaderBase_8h.html" target="_top" xlink:title=" ">
<polygon fill="white" stroke="black" points="889,-515.5 889,-534.5 1022,-534.5 1022,-515.5 889,-515.5"/>
<text text-anchor="middle" x="955.5" y="-522.5" font-family="Helvetica,sans-Serif" font-size="10.00">sitkImageReaderBase.h</text>
</a>
</g>
</g>
<!-- Node1&#45;&gt;Node33 -->
<g id="edge53" class="edge">
<title>Node1&#45;&gt;Node33</title>
<path fill="none" stroke="midnightblue" d="M912.92,-571.08C920.35,-563.22 931.35,-551.57 940.31,-542.08"/>
<polygon fill="midnightblue" stroke="midnightblue" points="942.91,-544.42 947.24,-534.75 937.82,-539.62 942.91,-544.42"/>
</g>
<!-- Node40 -->
<g id="node40" class="node">
<title>Node40</title>
<g id="a_node40"><a xlink:href="sitkMemberFunctionFactory_8h.html" target="_top" xlink:title=" ">
<polygon fill="white" stroke="black" points="431,-347.5 431,-366.5 590,-366.5 590,-347.5 431,-347.5"/>
<text text-anchor="middle" x="510.5" y="-354.5" font-family="Helvetica,sans-Serif" font-size="10.00">sitkMemberFunctionFactory.h</text>
</a>
</g>
</g>
<!-- Node1&#45;&gt;Node40 -->
<g id="edge69" class="edge">
<title>Node1&#45;&gt;Node40</title>
<path fill="none" stroke="midnightblue" d="M889.05,-571.3C828.74,-537.31 608.75,-413.36 534.88,-371.74"/>
<polygon fill="midnightblue" stroke="midnightblue" points="536.27,-368.5 525.84,-366.64 532.83,-374.6 536.27,-368.5"/>
</g>
<!-- Node3 -->
<g id="node3" class="node">
<title>Node3</title>
<g id="a_node3"><a xlink:title=" ">
<polygon fill="white" stroke="#bfbfbf" points="881,-0.5 881,-19.5 934,-19.5 934,-0.5 881,-0.5"/>
<text text-anchor="middle" x="907.5" y="-7.5" font-family="Helvetica,sans-Serif" font-size="10.00">stdint.h</text>
</a>
</g>
</g>
<!-- Node2&#45;&gt;Node3 -->
<g id="edge2" class="edge">
<title>Node2&#45;&gt;Node3</title>
<path fill="none" stroke="midnightblue" d="M1204.48,-59.01C1140.12,-48.61 1008.37,-27.31 944.22,-16.94"/>
<polygon fill="midnightblue" stroke="midnightblue" points="944.59,-13.45 934.16,-15.31 943.48,-20.36 944.59,-13.45"/>
</g>
<!-- Node4 -->
<g id="node4" class="node">
<title>Node4</title>
<g id="a_node4"><a xlink:title=" ">
<polygon fill="white" stroke="#bfbfbf" points="1268.5,-0.5 1268.5,-19.5 1324.5,-19.5 1324.5,-0.5 1268.5,-0.5"/>
<text text-anchor="middle" x="1296.5" y="-7.5" font-family="Helvetica,sans-Serif" font-size="10.00">stddef.h</text>
</a>
</g>
</g>
<!-- Node2&#45;&gt;Node4 -->
<g id="edge3" class="edge">
<title>Node2&#45;&gt;Node4</title>
<path fill="none" stroke="midnightblue" d="M1250.58,-56.08C1258.67,-48.14 1270.7,-36.34 1280.41,-26.8"/>
<polygon fill="midnightblue" stroke="midnightblue" points="1282.9,-29.25 1287.59,-19.75 1278,-24.26 1282.9,-29.25"/>
</g>
<!-- Node5 -->
<g id="node5" class="node">
<title>Node5</title>
<g id="a_node5"><a xlink:title=" ">
<polygon fill="white" stroke="#bfbfbf" points="1342.5,-0.5 1342.5,-19.5 1394.5,-19.5 1394.5,-0.5 1342.5,-0.5"/>
<text text-anchor="middle" x="1368.5" y="-7.5" font-family="Helvetica,sans-Serif" font-size="10.00">cassert</text>
</a>
</g>
</g>
<!-- Node2&#45;&gt;Node5 -->
<g id="edge4" class="edge">
<title>Node2&#45;&gt;Node5</title>
<path fill="none" stroke="midnightblue" d="M1261.62,-56.44C1282.52,-47.56 1315.43,-33.56 1339.22,-23.45"/>
<polygon fill="midnightblue" stroke="midnightblue" points="1340.64,-26.65 1348.47,-19.52 1337.9,-20.21 1340.64,-26.65"/>
</g>
<!-- Node6 -->
<g id="node6" class="node">
<title>Node6</title>
<g id="a_node6"><a xlink:title=" ">
<polygon fill="white" stroke="#bfbfbf" points="1132.5,-0.5 1132.5,-19.5 1188.5,-19.5 1188.5,-0.5 1132.5,-0.5"/>
<text text-anchor="middle" x="1160.5" y="-7.5" font-family="Helvetica,sans-Serif" font-size="10.00">sstream</text>
</a>
</g>
</g>
<!-- Node2&#45;&gt;Node6 -->
<g id="edge5" class="edge">
<title>Node2&#45;&gt;Node6</title>
<path fill="none" stroke="midnightblue" d="M1228.49,-56.32C1215.97,-47.98 1196.82,-35.21 1182.03,-25.35"/>
<polygon fill="midnightblue" stroke="midnightblue" points="1183.74,-22.29 1173.48,-19.65 1179.86,-28.11 1183.74,-22.29"/>
</g>
<!-- Node7 -->
<g id="node7" class="node">
<title>Node7</title>
<g id="a_node7"><a xlink:title=" ">
<polygon fill="white" stroke="#bfbfbf" points="1206.5,-0.5 1206.5,-19.5 1250.5,-19.5 1250.5,-0.5 1206.5,-0.5"/>
<text text-anchor="middle" x="1228.5" y="-7.5" font-family="Helvetica,sans-Serif" font-size="10.00">limits</text>
</a>
</g>
</g>
<!-- Node2&#45;&gt;Node7 -->
<g id="edge6" class="edge">
<title>Node2&#45;&gt;Node7</title>
<path fill="none" stroke="midnightblue" d="M1239.35,-56.08C1237.63,-48.93 1235.15,-38.64 1233,-29.69"/>
<polygon fill="midnightblue" stroke="midnightblue" points="1236.35,-28.65 1230.61,-19.75 1229.54,-30.29 1236.35,-28.65"/>
</g>
<!-- Node8 -->
<g id="node8" class="node">
<title>Node8</title>
<g id="a_node8"><a xlink:href="sitkConfigure_8h.html" target="_top" xlink:title=" ">
<polygon fill="white" stroke="black" points="621.5,-0.5 621.5,-19.5 711.5,-19.5 711.5,-0.5 621.5,-0.5"/>
<text text-anchor="middle" x="666.5" y="-7.5" font-family="Helvetica,sans-Serif" font-size="10.00">sitkConfigure.h</text>
</a>
</g>
</g>
<!-- Node2&#45;&gt;Node8 -->
<g id="edge7" class="edge">
<title>Node2&#45;&gt;Node8</title>
<path fill="none" stroke="midnightblue" d="M1204.22,-61.5C1105.78,-52.25 838.49,-27.15 722.01,-16.21"/>
<polygon fill="midnightblue" stroke="midnightblue" points="722.17,-12.71 711.88,-15.26 721.51,-19.68 722.17,-12.71"/>
</g>
<!-- Node10 -->
<g id="node10" class="node">
<title>Node10</title>
<g id="a_node10"><a xlink:href="sitkCommon_8h.html" target="_top" xlink:title=" ">
<polygon fill="white" stroke="black" points="1103.5,-112.5 1103.5,-131.5 1191.5,-131.5 1191.5,-112.5 1103.5,-112.5"/>
<text text-anchor="middle" x="1147.5" y="-119.5" font-family="Helvetica,sans-Serif" font-size="10.00">sitkCommon.h</text>
</a>
</g>
</g>
<!-- Node9&#45;&gt;Node10 -->
<g id="edge9" class="edge">
<title>Node9&#45;&gt;Node10</title>
<path fill="none" stroke="midnightblue" d="M1003.89,-347.36C997.83,-325.83 984.44,-268.33 999.5,-224 1009.59,-194.29 1017.72,-187.25 1042.5,-168 1061.7,-153.09 1086.59,-142.14 1107.32,-134.77"/>
<polygon fill="midnightblue" stroke="midnightblue" points="1108.47,-138.08 1116.81,-131.55 1106.22,-131.45 1108.47,-138.08"/>
</g>
<!-- Node11 -->
<g id="node11" class="node">
<title>Node11</title>
<g id="a_node11"><a xlink:href="sitkTemplateFunctions_8h.html" target="_top" xlink:title=" ">
<polygon fill="white" stroke="black" points="1255,-230 1255,-249 1390,-249 1390,-230 1255,-230"/>
<text text-anchor="middle" x="1322.5" y="-237" font-family="Helvetica,sans-Serif" font-size="10.00">sitkTemplateFunctions.h</text>
</a>
</g>
</g>
<!-- Node9&#45;&gt;Node11 -->
<g id="edge11" class="edge">
<title>Node9&#45;&gt;Node11</title>
<path fill="none" stroke="midnightblue" d="M1043.61,-354.72C1091.36,-351.79 1175.87,-342.22 1240.5,-311 1267.85,-297.79 1293.38,-273.11 1308.47,-256.75"/>
<polygon fill="midnightblue" stroke="midnightblue" points="1311.3,-258.83 1315.36,-249.05 1306.09,-254.16 1311.3,-258.83"/>
</g>
<!-- Node13 -->
<g id="node13" class="node">
<title>Node13</title>
<g id="a_node13"><a xlink:title=" ">
<polygon fill="white" stroke="#bfbfbf" points="1176,-168.5 1176,-187.5 1223,-187.5 1223,-168.5 1176,-168.5"/>
<text text-anchor="middle" x="1199.5" y="-175.5" font-family="Helvetica,sans-Serif" font-size="10.00">vector</text>
</a>
</g>
</g>
<!-- Node9&#45;&gt;Node13 -->
<g id="edge50" class="edge">
<title>Node9&#45;&gt;Node13</title>
<path fill="none" stroke="midnightblue" d="M1043.58,-350C1091.74,-339.94 1173.64,-314.59 1207.5,-255 1217.61,-237.21 1212.63,-213.27 1207.08,-197.05"/>
<polygon fill="midnightblue" stroke="midnightblue" points="1210.33,-195.75 1203.5,-187.65 1203.79,-198.24 1210.33,-195.75"/>
</g>
<!-- Node16 -->
<g id="node16" class="node">
<title>Node16</title>
<g id="a_node16"><a xlink:href="sitkDetail_8h.html" target="_top" xlink:title=" ">
<polygon fill="white" stroke="black" points="474,-291.5 474,-310.5 547,-310.5 547,-291.5 474,-291.5"/>
<text text-anchor="middle" x="510.5" y="-298.5" font-family="Helvetica,sans-Serif" font-size="10.00">sitkDetail.h</text>
</a>
</g>
</g>
<!-- Node9&#45;&gt;Node16 -->
<g id="edge20" class="edge">
<title>Node9&#45;&gt;Node16</title>
<path fill="none" stroke="midnightblue" d="M969.22,-351.94C880.2,-342.25 655.41,-317.78 557.4,-307.11"/>
<polygon fill="midnightblue" stroke="midnightblue" points="557.52,-303.6 547.2,-306 556.76,-310.56 557.52,-303.6"/>
</g>
<!-- Node27 -->
<g id="node27" class="node">
<title>Node27</title>
<g id="a_node27"><a xlink:href="sitkPixelIDTokens_8h.html" target="_top" xlink:title=" ">
<polygon fill="white" stroke="black" points="801.5,-291.5 801.5,-310.5 911.5,-310.5 911.5,-291.5 801.5,-291.5"/>
<text text-anchor="middle" x="856.5" y="-298.5" font-family="Helvetica,sans-Serif" font-size="10.00">sitkPixelIDTokens.h</text>
</a>
</g>
</g>
<!-- Node9&#45;&gt;Node27 -->
<g id="edge39" class="edge">
<title>Node9&#45;&gt;Node27</title>
<path fill="none" stroke="midnightblue" d="M982.73,-347.44C957.61,-338.4 917.79,-324.06 889.6,-313.92"/>
<polygon fill="midnightblue" stroke="midnightblue" points="890.75,-310.61 880.16,-310.52 888.38,-317.2 890.75,-310.61"/>
</g>
<!-- Node30 -->
<g id="node30" class="node">
<title>Node30</title>
<g id="a_node30"><a xlink:title=" ">
<polygon fill="white" stroke="#bfbfbf" points="883,-230 883,-249 952,-249 952,-230 883,-230"/>
<text text-anchor="middle" x="917.5" y="-237" font-family="Helvetica,sans-Serif" font-size="10.00">type_traits</text>
</a>
</g>
</g>
<!-- Node9&#45;&gt;Node30 -->
<g id="edge52" class="edge">
<title>Node9&#45;&gt;Node30</title>
<path fill="none" stroke="midnightblue" d="M998.21,-347.31C989.88,-338.43 976.85,-324.14 966.5,-311 952.73,-293.52 938.36,-272.45 928.77,-257.92"/>
<polygon fill="midnightblue" stroke="midnightblue" points="931.61,-255.88 923.21,-249.42 925.75,-259.71 931.61,-255.88"/>
</g>
<!-- Node31 -->
<g id="node31" class="node">
<title>Node31</title>
<g id="a_node31"><a xlink:href="sitkInterpolator_8h.html" target="_top" xlink:title=" ">
<polygon fill="white" stroke="black" points="1008.5,-230 1008.5,-249 1108.5,-249 1108.5,-230 1008.5,-230"/>
<text text-anchor="middle" x="1058.5" y="-237" font-family="Helvetica,sans-Serif" font-size="10.00">sitkInterpolator.h</text>
</a>
</g>
</g>
<!-- Node9&#45;&gt;Node31 -->
<g id="edge47" class="edge">
<title>Node9&#45;&gt;Node31</title>
<path fill="none" stroke="midnightblue" d="M1010.41,-347.32C1018.88,-328.51 1039.07,-283.65 1050.42,-258.46"/>
<polygon fill="midnightblue" stroke="midnightblue" points="1053.63,-259.84 1054.55,-249.28 1047.25,-256.96 1053.63,-259.84"/>
</g>
<!-- Node32 -->
<g id="node32" class="node">
<title>Node32</title>
<g id="a_node32"><a xlink:title=" ">
<polygon fill="white" stroke="#bfbfbf" points="1046.5,-291.5 1046.5,-310.5 1104.5,-310.5 1104.5,-291.5 1046.5,-291.5"/>
<text text-anchor="middle" x="1075.5" y="-298.5" font-family="Helvetica,sans-Serif" font-size="10.00">memory</text>
</a>
</g>
</g>
<!-- Node9&#45;&gt;Node32 -->
<g id="edge51" class="edge">
<title>Node9&#45;&gt;Node32</title>
<path fill="none" stroke="midnightblue" d="M1017.59,-347.32C1027.99,-339.18 1043.76,-326.84 1056.22,-317.09"/>
<polygon fill="midnightblue" stroke="midnightblue" points="1058.49,-319.75 1064.21,-310.83 1054.18,-314.24 1058.49,-319.75"/>
</g>
<!-- Node10&#45;&gt;Node2 -->
<g id="edge10" class="edge">
<title>Node10&#45;&gt;Node2</title>
<path fill="none" stroke="midnightblue" d="M1162.6,-112.32C1177.4,-103.82 1200.19,-90.73 1217.48,-80.8"/>
<polygon fill="midnightblue" stroke="midnightblue" points="1219.51,-83.67 1226.43,-75.65 1216.02,-77.6 1219.51,-83.67"/>
</g>
<!-- Node11&#45;&gt;Node2 -->
<g id="edge12" class="edge">
<title>Node11&#45;&gt;Node2</title>
<path fill="none" stroke="midnightblue" d="M1390.08,-237.15C1461.12,-233.1 1558.03,-218.52 1522.5,-168 1469.29,-92.33 1353.72,-73.08 1288.58,-68.36"/>
<polygon fill="midnightblue" stroke="midnightblue" points="1288.78,-64.86 1278.58,-67.72 1288.34,-71.85 1288.78,-64.86"/>
</g>
<!-- Node11&#45;&gt;Node10 -->
<g id="edge13" class="edge">
<title>Node11&#45;&gt;Node10</title>
<path fill="none" stroke="midnightblue" d="M1312.68,-229.85C1296.59,-215.91 1263.3,-187.99 1232.5,-168 1214.12,-156.07 1192.24,-144.54 1175.29,-136.15"/>
<polygon fill="midnightblue" stroke="midnightblue" points="1176.46,-132.82 1165.94,-131.58 1173.39,-139.11 1176.46,-132.82"/>
</g>
<!-- Node12 -->
<g id="node12" class="node">
<title>Node12</title>
<g id="a_node12"><a xlink:href="sitkExceptionObject_8h.html" target="_top" xlink:title=" ">
<polygon fill="white" stroke="black" points="1390,-168.5 1390,-187.5 1513,-187.5 1513,-168.5 1390,-168.5"/>
<text text-anchor="middle" x="1451.5" y="-175.5" font-family="Helvetica,sans-Serif" font-size="10.00">sitkExceptionObject.h</text>
</a>
</g>
</g>
<!-- Node11&#45;&gt;Node12 -->
<g id="edge14" class="edge">
<title>Node11&#45;&gt;Node12</title>
<path fill="none" stroke="midnightblue" d="M1340.98,-229.98C1362.63,-219.99 1398.71,-203.35 1423.73,-191.81"/>
<polygon fill="midnightblue" stroke="midnightblue" points="1425.44,-194.88 1433.05,-187.51 1422.51,-188.52 1425.44,-194.88"/>
</g>
<!-- Node11&#45;&gt;Node13 -->
<g id="edge17" class="edge">
<title>Node11&#45;&gt;Node13</title>
<path fill="none" stroke="midnightblue" d="M1304.88,-229.98C1284.33,-220.03 1250.14,-203.49 1226.29,-191.96"/>
<polygon fill="midnightblue" stroke="midnightblue" points="1227.62,-188.71 1217.09,-187.51 1224.57,-195.01 1227.62,-188.71"/>
</g>
<!-- Node14 -->
<g id="node14" class="node">
<title>Node14</title>
<g id="a_node14"><a xlink:title=" ">
<polygon fill="white" stroke="#bfbfbf" points="1062,-168.5 1062,-187.5 1119,-187.5 1119,-168.5 1062,-168.5"/>
<text text-anchor="middle" x="1090.5" y="-175.5" font-family="Helvetica,sans-Serif" font-size="10.00">ostream</text>
</a>
</g>
</g>
<!-- Node11&#45;&gt;Node14 -->
<g id="edge18" class="edge">
<title>Node11&#45;&gt;Node14</title>
<path fill="none" stroke="midnightblue" d="M1289.26,-229.98C1246.95,-219.12 1173.99,-200.41 1129.21,-188.93"/>
<polygon fill="midnightblue" stroke="midnightblue" points="1129.85,-185.48 1119.29,-186.38 1128.11,-192.26 1129.85,-185.48"/>
</g>
<!-- Node15 -->
<g id="node15" class="node">
<title>Node15</title>
<g id="a_node15"><a xlink:title=" ">
<polygon fill="white" stroke="#bfbfbf" points="1280,-168.5 1280,-187.5 1333,-187.5 1333,-168.5 1280,-168.5"/>
<text text-anchor="middle" x="1306.5" y="-175.5" font-family="Helvetica,sans-Serif" font-size="10.00">iterator</text>
</a>
</g>
</g>
<!-- Node11&#45;&gt;Node15 -->
<g id="edge19" class="edge">
<title>Node11&#45;&gt;Node15</title>
<path fill="none" stroke="midnightblue" d="M1320.21,-229.98C1317.93,-221.49 1314.35,-208.2 1311.43,-197.32"/>
<polygon fill="midnightblue" stroke="midnightblue" points="1314.76,-196.26 1308.79,-187.51 1308.01,-198.07 1314.76,-196.26"/>
</g>
<!-- Node12&#45;&gt;Node2 -->
<g id="edge15" class="edge">
<title>Node12&#45;&gt;Node2</title>
<path fill="none" stroke="midnightblue" d="M1435.02,-168.37C1398.53,-149.25 1310.66,-103.23 1267.01,-80.36"/>
<polygon fill="midnightblue" stroke="midnightblue" points="1268.38,-77.13 1257.9,-75.59 1265.14,-83.33 1268.38,-77.13"/>
</g>
<!-- Node12&#45;&gt;Node10 -->
<g id="edge16" class="edge">
<title>Node12&#45;&gt;Node10</title>
<path fill="none" stroke="midnightblue" d="M1403.33,-168.44C1348.53,-158.71 1259.22,-142.85 1201.94,-132.67"/>
<polygon fill="midnightblue" stroke="midnightblue" points="1202.44,-129.2 1191.98,-130.9 1201.22,-136.1 1202.44,-129.2"/>
</g>
<!-- Node17 -->
<g id="node17" class="node">
<title>Node17</title>
<g id="a_node17"><a xlink:href="sitkMemberFunctionFactoryBase_8h.html" target="_top" xlink:title=" ">
<polygon fill="white" stroke="black" points="279.5,-224.5 279.5,-254.5 431.5,-254.5 431.5,-224.5 279.5,-224.5"/>
<text text-anchor="start" x="287.5" y="-242.5" font-family="Helvetica,sans-Serif" font-size="10.00">sitkMemberFunctionFactory</text>
<text text-anchor="middle" x="355.5" y="-231.5" font-family="Helvetica,sans-Serif" font-size="10.00">Base.h</text>
</a>
</g>
</g>
<!-- Node16&#45;&gt;Node17 -->
<g id="edge21" class="edge">
<title>Node16&#45;&gt;Node17</title>
<path fill="none" stroke="midnightblue" d="M488.29,-291.48C465.73,-282.81 430.12,-269.15 401.46,-258.14"/>
<polygon fill="midnightblue" stroke="midnightblue" points="402.62,-254.84 392.03,-254.52 400.11,-261.37 402.62,-254.84"/>
</g>
<!-- Node23 -->
<g id="node23" class="node">
<title>Node23</title>
<g id="a_node23"><a xlink:title=" ">
<polygon fill="white" stroke="#bfbfbf" points="369,-168.5 369,-187.5 508,-187.5 508,-168.5 369,-168.5"/>
<text text-anchor="middle" x="438.5" y="-175.5" font-family="Helvetica,sans-Serif" font-size="10.00">Ancillary/FunctionTraits.h</text>
</a>
</g>
</g>
<!-- Node16&#45;&gt;Node23 -->
<g id="edge38" class="edge">
<title>Node16&#45;&gt;Node23</title>
<path fill="none" stroke="midnightblue" d="M505.32,-291.3C493.54,-271.5 464.55,-222.78 448.91,-196.49"/>
<polygon fill="midnightblue" stroke="midnightblue" points="451.75,-194.43 443.63,-187.62 445.74,-198.01 451.75,-194.43"/>
</g>
<!-- Node17&#45;&gt;Node2 -->
<g id="edge30" class="edge">
<title>Node17&#45;&gt;Node2</title>
<path fill="none" stroke="midnightblue" d="M431.59,-232.54C493.66,-226.08 582.95,-213.13 657.5,-188 675.59,-181.9 677.47,-174.25 695.5,-168 873.68,-106.23 1098.37,-79.89 1194.45,-70.9"/>
<polygon fill="midnightblue" stroke="midnightblue" points="1194.79,-74.38 1204.43,-69.98 1194.15,-67.41 1194.79,-74.38"/>
</g>
<!-- Node17&#45;&gt;Node8 -->
<g id="edge22" class="edge">
<title>Node17&#45;&gt;Node8</title>
<path fill="none" stroke="midnightblue" d="M279.25,-232.97C216.04,-226.61 133.3,-213.57 112.5,-188 106.89,-181.1 108.83,-176.09 112.5,-168 128.12,-133.58 142.65,-128.82 176.5,-112 322.33,-39.56 517.35,-19.05 611.31,-13.26"/>
<polygon fill="midnightblue" stroke="midnightblue" points="611.67,-16.75 621.45,-12.67 611.26,-9.76 611.67,-16.75"/>
</g>
<!-- Node18 -->
<g id="node18" class="node">
<title>Node18</title>
<g id="a_node18"><a xlink:href="sitkPixelIDTypes_8h.html" target="_top" xlink:title=" ">
<polygon fill="white" stroke="black" points="186,-112.5 186,-131.5 291,-131.5 291,-112.5 186,-112.5"/>
<text text-anchor="middle" x="238.5" y="-119.5" font-family="Helvetica,sans-Serif" font-size="10.00">sitkPixelIDTypes.h</text>
</a>
</g>
</g>
<!-- Node17&#45;&gt;Node18 -->
<g id="edge23" class="edge">
<title>Node17&#45;&gt;Node18</title>
<path fill="none" stroke="midnightblue" d="M289.6,-224.42C270.23,-216.92 251.13,-205.46 239.5,-188 230.51,-174.51 231.29,-155.7 233.71,-141.79"/>
<polygon fill="midnightblue" stroke="midnightblue" points="237.16,-142.38 235.85,-131.87 230.32,-140.91 237.16,-142.38"/>
</g>
<!-- Node19 -->
<g id="node19" class="node">
<title>Node19</title>
<g id="a_node19"><a xlink:href="sitkPixelIDTypeLists_8h.html" target="_top" xlink:title=" ">
<polygon fill="white" stroke="black" points="526.5,-168.5 526.5,-187.5 648.5,-187.5 648.5,-168.5 526.5,-168.5"/>
<text text-anchor="middle" x="587.5" y="-175.5" font-family="Helvetica,sans-Serif" font-size="10.00">sitkPixelIDTypeLists.h</text>
</a>
</g>
</g>
<!-- Node17&#45;&gt;Node19 -->
<g id="edge24" class="edge">
<title>Node17&#45;&gt;Node19</title>
<path fill="none" stroke="midnightblue" d="M410.19,-224.47C451.26,-213.94 506.73,-199.72 544.62,-190"/>
<polygon fill="midnightblue" stroke="midnightblue" points="545.52,-193.38 554.33,-187.51 543.78,-186.6 545.52,-193.38"/>
</g>
<!-- Node20 -->
<g id="node20" class="node">
<title>Node20</title>
<g id="a_node20"><a xlink:title=" ">
<polygon fill="white" stroke="#bfbfbf" points="402,-112.5 402,-131.5 513,-131.5 513,-112.5 402,-112.5"/>
<text text-anchor="middle" x="457.5" y="-119.5" font-family="Helvetica,sans-Serif" font-size="10.00">Ancillary/TypeList.h</text>
</a>
</g>
</g>
<!-- Node17&#45;&gt;Node20 -->
<g id="edge33" class="edge">
<title>Node17&#45;&gt;Node20</title>
<path fill="none" stroke="midnightblue" d="M301.16,-224.39C265.25,-212.38 228.23,-193.1 248.5,-168 266.3,-145.96 337.19,-134.2 391.53,-128.3"/>
<polygon fill="midnightblue" stroke="midnightblue" points="392.22,-131.75 401.81,-127.23 391.5,-124.79 392.22,-131.75"/>
</g>
<!-- Node22 -->
<g id="node22" class="node">
<title>Node22</title>
<g id="a_node22"><a xlink:href="sitkNonCopyable_8h.html" target="_top" xlink:title=" ">
<polygon fill="white" stroke="black" points="705,-168.5 705,-187.5 814,-187.5 814,-168.5 705,-168.5"/>
<text text-anchor="middle" x="759.5" y="-175.5" font-family="Helvetica,sans-Serif" font-size="10.00">sitkNonCopyable.h</text>
</a>
</g>
</g>
<!-- Node17&#45;&gt;Node22 -->
<g id="edge31" class="edge">
<title>Node17&#45;&gt;Node22</title>
<path fill="none" stroke="midnightblue" d="M431.96,-227.24C507.84,-216.06 622.87,-199.12 694.48,-188.58"/>
<polygon fill="midnightblue" stroke="midnightblue" points="695.33,-191.99 704.72,-187.07 694.31,-185.06 695.33,-191.99"/>
</g>
<!-- Node17&#45;&gt;Node23 -->
<g id="edge34" class="edge">
<title>Node17&#45;&gt;Node23</title>
<path fill="none" stroke="midnightblue" d="M375.17,-224.4C388.1,-215.13 404.99,-203.03 418.07,-193.65"/>
<polygon fill="midnightblue" stroke="midnightblue" points="420.33,-196.33 426.42,-187.66 416.26,-190.64 420.33,-196.33"/>
</g>
<!-- Node24 -->
<g id="node24" class="node">
<title>Node24</title>
<g id="a_node24"><a xlink:title=" ">
<polygon fill="white" stroke="#bfbfbf" points="258,-168.5 258,-187.5 351,-187.5 351,-168.5 258,-168.5"/>
<text text-anchor="middle" x="304.5" y="-175.5" font-family="Helvetica,sans-Serif" font-size="10.00">unordered_map</text>
</a>
</g>
</g>
<!-- Node17&#45;&gt;Node24 -->
<g id="edge35" class="edge">
<title>Node17&#45;&gt;Node24</title>
<path fill="none" stroke="midnightblue" d="M343.41,-224.4C335.93,-215.66 326.28,-204.41 318.47,-195.3"/>
<polygon fill="midnightblue" stroke="midnightblue" points="321.09,-192.97 311.92,-187.66 315.77,-197.53 321.09,-192.97"/>
</g>
<!-- Node25 -->
<g id="node25" class="node">
<title>Node25</title>
<g id="a_node25"><a xlink:title=" ">
<polygon fill="white" stroke="#bfbfbf" points="0,-168.5 0,-187.5 65,-187.5 65,-168.5 0,-168.5"/>
<text text-anchor="middle" x="32.5" y="-175.5" font-family="Helvetica,sans-Serif" font-size="10.00">functional</text>
</a>
</g>
</g>
<!-- Node17&#45;&gt;Node25 -->
<g id="edge36" class="edge">
<title>Node17&#45;&gt;Node25</title>
<path fill="none" stroke="midnightblue" d="M279.32,-224.74C223.88,-214.68 147.01,-200.64 79.5,-188 78.05,-187.73 76.57,-187.45 75.07,-187.17"/>
<polygon fill="midnightblue" stroke="midnightblue" points="75.59,-183.7 65.11,-185.28 74.28,-190.58 75.59,-183.7"/>
</g>
<!-- Node26 -->
<g id="node26" class="node">
<title>Node26</title>
<g id="a_node26"><a xlink:title=" ">
<polygon fill="white" stroke="#bfbfbf" points="122,-168.5 122,-187.5 163,-187.5 163,-168.5 122,-168.5"/>
<text text-anchor="middle" x="142.5" y="-175.5" font-family="Helvetica,sans-Serif" font-size="10.00">tuple</text>
</a>
</g>
</g>
<!-- Node17&#45;&gt;Node26 -->
<g id="edge37" class="edge">
<title>Node17&#45;&gt;Node26</title>
<path fill="none" stroke="midnightblue" d="M305.29,-224.47C264.27,-213.02 207.62,-197.19 173.11,-187.55"/>
<polygon fill="midnightblue" stroke="midnightblue" points="173.72,-184.09 163.15,-184.77 171.84,-190.83 173.72,-184.09"/>
</g>
<!-- Node19&#45;&gt;Node3 -->
<g id="edge25" class="edge">
<title>Node19&#45;&gt;Node3</title>
<path fill="none" stroke="midnightblue" d="M606.78,-168.35C626.27,-159.52 657.2,-145.25 683.5,-132 757.31,-94.8 842.82,-47.38 883.54,-24.52"/>
<polygon fill="midnightblue" stroke="midnightblue" points="885.45,-27.47 892.45,-19.52 882.02,-21.37 885.45,-27.47"/>
</g>
<!-- Node19&#45;&gt;Node8 -->
<g id="edge26" class="edge">
<title>Node19&#45;&gt;Node8</title>
<path fill="none" stroke="midnightblue" d="M589.3,-168.35C592.1,-155.66 598.06,-131.41 606.5,-112 620.06,-80.82 641.41,-47.41 654.64,-27.91"/>
<polygon fill="midnightblue" stroke="midnightblue" points="657.63,-29.74 660.42,-19.52 651.87,-25.77 657.63,-29.74"/>
</g>
<!-- Node19&#45;&gt;Node18 -->
<g id="edge27" class="edge">
<title>Node19&#45;&gt;Node18</title>
<path fill="none" stroke="midnightblue" d="M532.2,-168.44C469.44,-158.73 367.27,-142.92 301.49,-132.75"/>
<polygon fill="midnightblue" stroke="midnightblue" points="301.67,-129.23 291.26,-131.16 300.6,-136.15 301.67,-129.23"/>
</g>
<!-- Node19&#45;&gt;Node20 -->
<g id="edge28" class="edge">
<title>Node19&#45;&gt;Node20</title>
<path fill="none" stroke="midnightblue" d="M566.9,-168.44C545.51,-159.56 511.82,-145.56 487.48,-135.45"/>
<polygon fill="midnightblue" stroke="midnightblue" points="488.58,-132.12 478,-131.52 485.89,-138.58 488.58,-132.12"/>
</g>
<!-- Node21 -->
<g id="node21" class="node">
<title>Node21</title>
<g id="a_node21"><a xlink:title=" ">
<polygon fill="white" stroke="#bfbfbf" points="616,-112.5 616,-131.5 675,-131.5 675,-112.5 616,-112.5"/>
<text text-anchor="middle" x="645.5" y="-119.5" font-family="Helvetica,sans-Serif" font-size="10.00">complex</text>
</a>
</g>
</g>
<!-- Node19&#45;&gt;Node21 -->
<g id="edge29" class="edge">
<title>Node19&#45;&gt;Node21</title>
<path fill="none" stroke="midnightblue" d="M596.82,-168.32C605.39,-160.34 618.31,-148.31 628.69,-138.65"/>
<polygon fill="midnightblue" stroke="midnightblue" points="631.08,-141.21 636.01,-131.83 626.31,-136.09 631.08,-141.21"/>
</g>
<!-- Node22&#45;&gt;Node10 -->
<g id="edge32" class="edge">
<title>Node22&#45;&gt;Node10</title>
<path fill="none" stroke="midnightblue" d="M814.31,-169.29C817.42,-168.85 820.5,-168.42 823.5,-168 918.53,-154.72 1029.26,-139.37 1093.56,-130.46"/>
<polygon fill="midnightblue" stroke="midnightblue" points="1094.05,-133.93 1103.48,-129.09 1093.09,-126.99 1094.05,-133.93"/>
</g>
<!-- Node27&#45;&gt;Node8 -->
<g id="edge40" class="edge">
<title>Node27&#45;&gt;Node8</title>
<path fill="none" stroke="midnightblue" d="M858.42,-291.06C861.53,-276.81 867.98,-248.08 874.5,-224 878.87,-207.85 883.03,-204.55 885.5,-188 886.81,-179.21 889.56,-175.91 885.5,-168 846.33,-91.73 750.99,-44.19 699.99,-23.34"/>
<polygon fill="midnightblue" stroke="midnightblue" points="701,-19.98 690.41,-19.53 698.41,-26.48 701,-19.98"/>
</g>
<!-- Node28 -->
<g id="node28" class="node">
<title>Node28</title>
<g id="a_node28"><a xlink:href="sitkPixelIDValues_8h.html" target="_top" xlink:title=" ">
<polygon fill="white" stroke="black" points="716.5,-230 716.5,-249 826.5,-249 826.5,-230 716.5,-230"/>
<text text-anchor="middle" x="771.5" y="-237" font-family="Helvetica,sans-Serif" font-size="10.00">sitkPixelIDValues.h</text>
</a>
</g>
</g>
<!-- Node27&#45;&gt;Node28 -->
<g id="edge41" class="edge">
<title>Node27&#45;&gt;Node28</title>
<path fill="none" stroke="midnightblue" d="M844.32,-291.48C830.69,-281.93 808.37,-266.31 792.03,-254.87"/>
<polygon fill="midnightblue" stroke="midnightblue" points="793.86,-251.88 783.66,-249.01 789.84,-257.61 793.86,-251.88"/>
</g>
<!-- Node27&#45;&gt;Node30 -->
<g id="edge46" class="edge">
<title>Node27&#45;&gt;Node30</title>
<path fill="none" stroke="midnightblue" d="M865.24,-291.48C874.66,-282.28 889.86,-267.46 901.45,-256.16"/>
<polygon fill="midnightblue" stroke="midnightblue" points="904.06,-258.5 908.78,-249.01 899.17,-253.49 904.06,-258.5"/>
</g>
<!-- Node28&#45;&gt;Node10 -->
<g id="edge42" class="edge">
<title>Node28&#45;&gt;Node10</title>
<path fill="none" stroke="midnightblue" d="M792.9,-229.94C828.53,-215.87 902.44,-187.49 966.5,-168 1010.67,-154.56 1061.79,-142.13 1098.42,-133.76"/>
<polygon fill="midnightblue" stroke="midnightblue" points="1099.37,-137.13 1108.34,-131.51 1097.82,-130.3 1099.37,-137.13"/>
</g>
<!-- Node28&#45;&gt;Node14 -->
<g id="edge45" class="edge">
<title>Node28&#45;&gt;Node14</title>
<path fill="none" stroke="midnightblue" d="M817.2,-229.98C880.26,-218.21 992.83,-197.22 1051.9,-186.2"/>
<polygon fill="midnightblue" stroke="midnightblue" points="1052.75,-189.6 1061.94,-184.33 1051.46,-182.72 1052.75,-189.6"/>
</g>
<!-- Node28&#45;&gt;Node19 -->
<g id="edge43" class="edge">
<title>Node28&#45;&gt;Node19</title>
<path fill="none" stroke="midnightblue" d="M745.14,-229.98C713.16,-219.64 659.12,-202.16 623.38,-190.6"/>
<polygon fill="midnightblue" stroke="midnightblue" points="624.41,-187.26 613.81,-187.51 622.25,-193.92 624.41,-187.26"/>
</g>
<!-- Node29 -->
<g id="node29" class="node">
<title>Node29</title>
<g id="a_node29"><a xlink:title=" ">
<polygon fill="white" stroke="#bfbfbf" points="832.5,-168.5 832.5,-187.5 876.5,-187.5 876.5,-168.5 832.5,-168.5"/>
<text text-anchor="middle" x="854.5" y="-175.5" font-family="Helvetica,sans-Serif" font-size="10.00">string</text>
</a>
</g>
</g>
<!-- Node28&#45;&gt;Node29 -->
<g id="edge44" class="edge">
<title>Node28&#45;&gt;Node29</title>
<path fill="none" stroke="midnightblue" d="M783.39,-229.98C796.7,-220.43 818.5,-204.81 834.46,-193.37"/>
<polygon fill="midnightblue" stroke="midnightblue" points="836.54,-196.18 842.63,-187.51 832.46,-190.49 836.54,-196.18"/>
</g>
<!-- Node31&#45;&gt;Node10 -->
<g id="edge48" class="edge">
<title>Node31&#45;&gt;Node10</title>
<path fill="none" stroke="midnightblue" d="M1054.85,-229.9C1049.49,-215.78 1041.34,-187.31 1053.5,-168 1063.51,-152.11 1080.85,-141.71 1097.94,-134.96"/>
<polygon fill="midnightblue" stroke="midnightblue" points="1099.13,-138.25 1107.35,-131.57 1096.76,-131.66 1099.13,-138.25"/>
</g>
<!-- Node31&#45;&gt;Node14 -->
<g id="edge49" class="edge">
<title>Node31&#45;&gt;Node14</title>
<path fill="none" stroke="midnightblue" d="M1063.08,-229.98C1067.74,-221.32 1075.09,-207.65 1081.01,-196.65"/>
<polygon fill="midnightblue" stroke="midnightblue" points="1084.27,-197.97 1085.92,-187.51 1078.1,-194.66 1084.27,-197.97"/>
</g>
<!-- Node33&#45;&gt;Node28 -->
<g id="edge66" class="edge">
<title>Node33&#45;&gt;Node28</title>
<path fill="none" stroke="midnightblue" d="M946.05,-515.42C927.96,-498.71 887.74,-460.18 859.5,-423 824.42,-376.81 815.85,-364.1 792.5,-311 785.04,-294.05 779.3,-273.67 775.71,-259.2"/>
<polygon fill="midnightblue" stroke="midnightblue" points="779.11,-258.36 773.4,-249.43 772.3,-259.97 779.11,-258.36"/>
</g>
<!-- Node34 -->
<g id="node34" class="node">
<title>Node34</title>
<g id="a_node34"><a xlink:href="sitkProcessObject_8h.html" target="_top" xlink:title=" ">
<polygon fill="white" stroke="black" points="950,-459.5 950,-478.5 1063,-478.5 1063,-459.5 950,-459.5"/>
<text text-anchor="middle" x="1006.5" y="-466.5" font-family="Helvetica,sans-Serif" font-size="10.00">sitkProcessObject.h</text>
</a>
</g>
</g>
<!-- Node33&#45;&gt;Node34 -->
<g id="edge54" class="edge">
<title>Node33&#45;&gt;Node34</title>
<path fill="none" stroke="midnightblue" d="M963.92,-515.08C971.35,-507.22 982.35,-495.57 991.31,-486.08"/>
<polygon fill="midnightblue" stroke="midnightblue" points="993.91,-488.42 998.24,-478.75 988.82,-483.62 993.91,-488.42"/>
</g>
<!-- Node39 -->
<g id="node39" class="node">
<title>Node39</title>
<g id="a_node39"><a xlink:href="sitkIO_8h.html" target="_top" xlink:title=" ">
<polygon fill="white" stroke="black" points="1316.5,-459.5 1316.5,-478.5 1370.5,-478.5 1370.5,-459.5 1316.5,-459.5"/>
<text text-anchor="middle" x="1343.5" y="-466.5" font-family="Helvetica,sans-Serif" font-size="10.00">sitkIO.h</text>
</a>
</g>
</g>
<!-- Node33&#45;&gt;Node39 -->
<g id="edge67" class="edge">
<title>Node33&#45;&gt;Node39</title>
<path fill="none" stroke="midnightblue" d="M1016.98,-515.44C1098.32,-504.12 1239.18,-484.52 1306.11,-475.2"/>
<polygon fill="midnightblue" stroke="midnightblue" points="1306.77,-478.65 1316.2,-473.8 1305.81,-471.71 1306.77,-478.65"/>
</g>
<!-- Node34&#45;&gt;Node9 -->
<g id="edge61" class="edge">
<title>Node34&#45;&gt;Node9</title>
<path fill="none" stroke="midnightblue" d="M1006.5,-459.37C1006.5,-441.62 1006.5,-400.67 1006.5,-376.6"/>
<polygon fill="midnightblue" stroke="midnightblue" points="1010,-376.59 1006.5,-366.59 1003,-376.59 1010,-376.59"/>
</g>
<!-- Node34&#45;&gt;Node10 -->
<g id="edge55" class="edge">
<title>Node34&#45;&gt;Node10</title>
<path fill="none" stroke="midnightblue" d="M1063.35,-464.69C1176.38,-456.56 1418.5,-430.65 1418.5,-358 1418.5,-358 1418.5,-358 1418.5,-300 1418.5,-232.3 1401.85,-200.55 1342.5,-168 1298.69,-143.97 1242.56,-132.74 1201.78,-127.51"/>
<polygon fill="midnightblue" stroke="midnightblue" points="1202.11,-124.02 1191.76,-126.3 1201.28,-130.97 1202.11,-124.02"/>
</g>
<!-- Node34&#45;&gt;Node11 -->
<g id="edge57" class="edge">
<title>Node34&#45;&gt;Node11</title>
<path fill="none" stroke="midnightblue" d="M1063.26,-461.95C1098.12,-456.15 1142.46,-444.86 1176.5,-423 1243.9,-379.71 1294.18,-294.64 1313.66,-257.98"/>
<polygon fill="midnightblue" stroke="midnightblue" points="1316.82,-259.49 1318.32,-249.01 1310.61,-256.27 1316.82,-259.49"/>
</g>
<!-- Node34&#45;&gt;Node22 -->
<g id="edge56" class="edge">
<title>Node34&#45;&gt;Node22</title>
<path fill="none" stroke="midnightblue" d="M955.66,-459.48C925.94,-452.84 888.67,-441.54 859.5,-423 774.52,-368.99 743.7,-348.96 707.5,-255 702.55,-242.14 701.77,-236.53 707.5,-224 713.28,-211.36 724.55,-200.91 735.13,-193.27"/>
<polygon fill="midnightblue" stroke="midnightblue" points="737.35,-196 743.72,-187.53 733.46,-190.18 737.35,-196"/>
</g>
<!-- Node35 -->
<g id="node35" class="node">
<title>Node35</title>
<g id="a_node35"><a xlink:href="sitkEvent_8h.html" target="_top" xlink:title=" ">
<polygon fill="white" stroke="black" points="1127,-230 1127,-249 1198,-249 1198,-230 1127,-230"/>
<text text-anchor="middle" x="1162.5" y="-237" font-family="Helvetica,sans-Serif" font-size="10.00">sitkEvent.h</text>
</a>
</g>
</g>
<!-- Node34&#45;&gt;Node35 -->
<g id="edge58" class="edge">
<title>Node34&#45;&gt;Node35</title>
<path fill="none" stroke="midnightblue" d="M1063.37,-466.68C1096.36,-462.64 1135.61,-451.54 1157.5,-423 1194.91,-374.22 1178.51,-294.61 1168.36,-258.88"/>
<polygon fill="midnightblue" stroke="midnightblue" points="1171.7,-257.85 1165.47,-249.28 1165,-259.86 1171.7,-257.85"/>
</g>
<!-- Node36 -->
<g id="node36" class="node">
<title>Node36</title>
<g id="a_node36"><a xlink:href="sitkImageConvert_8h.html" target="_top" xlink:title=" ">
<polygon fill="white" stroke="black" points="1035,-403.5 1035,-422.5 1148,-422.5 1148,-403.5 1035,-403.5"/>
<text text-anchor="middle" x="1091.5" y="-410.5" font-family="Helvetica,sans-Serif" font-size="10.00">sitkImageConvert.h</text>
</a>
</g>
</g>
<!-- Node34&#45;&gt;Node36 -->
<g id="edge62" class="edge">
<title>Node34&#45;&gt;Node36</title>
<path fill="none" stroke="midnightblue" d="M1020.16,-459.32C1033.42,-450.9 1053.77,-437.97 1069.35,-428.07"/>
<polygon fill="midnightblue" stroke="midnightblue" points="1071.31,-430.97 1077.88,-422.65 1067.56,-425.06 1071.31,-430.97"/>
</g>
<!-- Node37 -->
<g id="node37" class="node">
<title>Node37</title>
<g id="a_node37"><a xlink:title=" ">
<polygon fill="white" stroke="#bfbfbf" points="868.5,-403.5 868.5,-422.5 928.5,-422.5 928.5,-403.5 868.5,-403.5"/>
<text text-anchor="middle" x="898.5" y="-410.5" font-family="Helvetica,sans-Serif" font-size="10.00">iostream</text>
</a>
</g>
</g>
<!-- Node34&#45;&gt;Node37 -->
<g id="edge64" class="edge">
<title>Node34&#45;&gt;Node37</title>
<path fill="none" stroke="midnightblue" d="M989.15,-459.32C971.83,-450.66 944.98,-437.24 925,-427.25"/>
<polygon fill="midnightblue" stroke="midnightblue" points="926.32,-424 915.81,-422.65 923.19,-430.26 926.32,-424"/>
</g>
<!-- Node38 -->
<g id="node38" class="node">
<title>Node38</title>
<g id="a_node38"><a xlink:title=" ">
<polygon fill="white" stroke="#bfbfbf" points="946.5,-403.5 946.5,-422.5 978.5,-422.5 978.5,-403.5 946.5,-403.5"/>
<text text-anchor="middle" x="962.5" y="-410.5" font-family="Helvetica,sans-Serif" font-size="10.00">list</text>
</a>
</g>
</g>
<!-- Node34&#45;&gt;Node38 -->
<g id="edge65" class="edge">
<title>Node34&#45;&gt;Node38</title>
<path fill="none" stroke="midnightblue" d="M999.23,-459.08C992.96,-451.38 983.71,-440.03 976.07,-430.65"/>
<polygon fill="midnightblue" stroke="midnightblue" points="978.66,-428.29 969.63,-422.75 973.23,-432.71 978.66,-428.29"/>
</g>
<!-- Node35&#45;&gt;Node10 -->
<g id="edge59" class="edge">
<title>Node35&#45;&gt;Node10</title>
<path fill="none" stroke="midnightblue" d="M1161.37,-229.82C1158.96,-211.26 1153.26,-167.34 1149.96,-141.97"/>
<polygon fill="midnightblue" stroke="midnightblue" points="1153.4,-141.25 1148.64,-131.78 1146.46,-142.15 1153.4,-141.25"/>
</g>
<!-- Node35&#45;&gt;Node14 -->
<g id="edge60" class="edge">
<title>Node35&#45;&gt;Node14</title>
<path fill="none" stroke="midnightblue" d="M1152.18,-229.98C1140.85,-220.61 1122.43,-205.38 1108.66,-194.01"/>
<polygon fill="midnightblue" stroke="midnightblue" points="1110.73,-191.18 1100.8,-187.51 1106.28,-196.58 1110.73,-191.18"/>
</g>
<!-- Node36&#45;&gt;Node9 -->
<g id="edge63" class="edge">
<title>Node36&#45;&gt;Node9</title>
<path fill="none" stroke="midnightblue" d="M1077.84,-403.32C1064.58,-394.9 1044.23,-381.97 1028.65,-372.07"/>
<polygon fill="midnightblue" stroke="midnightblue" points="1030.44,-369.06 1020.12,-366.65 1026.69,-374.97 1030.44,-369.06"/>
</g>
<!-- Node39&#45;&gt;Node2 -->
<g id="edge68" class="edge">
<title>Node39&#45;&gt;Node2</title>
<path fill="none" stroke="midnightblue" d="M1370.57,-467.57C1432.56,-465.01 1579.5,-449.31 1579.5,-358 1579.5,-358 1579.5,-358 1579.5,-177 1579.5,-116.55 1381.56,-84.2 1288.63,-72.35"/>
<polygon fill="midnightblue" stroke="midnightblue" points="1289,-68.86 1278.64,-71.1 1288.13,-75.81 1289,-68.86"/>
</g>
<!-- Node40&#45;&gt;Node16 -->
<g id="edge70" class="edge">
<title>Node40&#45;&gt;Node16</title>
<path fill="none" stroke="midnightblue" d="M510.5,-347.08C510.5,-340.01 510.5,-329.86 510.5,-320.99"/>
<polygon fill="midnightblue" stroke="midnightblue" points="514,-320.75 510.5,-310.75 507,-320.75 514,-320.75"/>
</g>
<!-- Node40&#45;&gt;Node17 -->
<g id="edge71" class="edge">
<title>Node40&#45;&gt;Node17</title>
<path fill="none" stroke="midnightblue" d="M499.57,-347.49C483.46,-334.97 452.34,-310.94 425.5,-291 411.82,-280.84 396.47,-269.73 383.65,-260.53"/>
<polygon fill="midnightblue" stroke="midnightblue" points="385.39,-257.48 375.22,-254.5 381.31,-263.17 385.39,-257.48"/>
</g>
<!-- Node40&#45;&gt;Node28 -->
<g id="edge72" class="edge">
<title>Node40&#45;&gt;Node28</title>
<path fill="none" stroke="midnightblue" d="M530.12,-347.32C575.76,-327.12 689.27,-276.89 742.75,-253.22"/>
<polygon fill="midnightblue" stroke="midnightblue" points="744.28,-256.37 752.01,-249.12 741.45,-249.97 744.28,-256.37"/>
</g>
<!-- Node41 -->
<g id="node41" class="node">
<title>Node41</title>
<g id="a_node41"><a xlink:title=" ">
<polygon fill="white" stroke="#bfbfbf" points="246,-291.5 246,-310.5 417,-310.5 417,-291.5 246,-291.5"/>
<text text-anchor="middle" x="331.5" y="-298.5" font-family="Helvetica,sans-Serif" font-size="10.00">sitkMemberFunctionFactory.hxx</text>
</a>
</g>
</g>
<!-- Node40&#45;&gt;Node41 -->
<g id="edge73" class="edge">
<title>Node40&#45;&gt;Node41</title>
<path fill="none" stroke="midnightblue" d="M482.14,-347.44C451.76,-338.28 403.39,-323.69 369.68,-313.52"/>
<polygon fill="midnightblue" stroke="midnightblue" points="370.32,-310.05 359.73,-310.52 368.29,-316.76 370.32,-310.05"/>
</g>
</g>
</svg>
