<?xml version="1.0" encoding="UTF-8" standalone="no"?>
<!DOCTYPE svg PUBLIC "-//W3C//DTD SVG 1.1//EN"
 "http://www.w3.org/Graphics/SVG/1.1/DTD/svg11.dtd">
<!-- Generated by graphviz version 2.43.0 (0)
 -->
<!-- Title: sitkExplicitITKDefaultVectorPixelAccessor.h Pages: 1 -->
<svg width="1199pt" height="341pt"
 viewBox="0.00 0.00 1199.00 341.00" xmlns="http://www.w3.org/2000/svg" xmlns:xlink="http://www.w3.org/1999/xlink">
<g id="graph0" class="graph" transform="scale(1 1) rotate(0) translate(4 337)">
<title>sitkExplicitITKDefaultVectorPixelAccessor.h</title>
<polygon fill="white" stroke="transparent" points="-4,4 -4,-337 1195,-337 1195,4 -4,4"/>
<!-- Node1 -->
<g id="node1" class="node">
<title>Node1</title>
<g id="a_node1"><a xlink:title=" ">
<polygon fill="#bfbfbf" stroke="black" points="399,-302.5 399,-332.5 552,-332.5 552,-302.5 399,-302.5"/>
<text text-anchor="start" x="407" y="-320.5" font-family="Helvetica,sans-Serif" font-size="10.00">sitkExplicitITKDefaultVector</text>
<text text-anchor="middle" x="475.5" y="-309.5" font-family="Helvetica,sans-Serif" font-size="10.00">PixelAccessor.h</text>
</a>
</g>
</g>
<!-- Node2 -->
<g id="node2" class="node">
<title>Node2</title>
<g id="a_node2"><a xlink:href="sitkExplicit_8h.html" target="_top" xlink:title=" ">
<polygon fill="white" stroke="black" points="363.5,-246.5 363.5,-265.5 443.5,-265.5 443.5,-246.5 363.5,-246.5"/>
<text text-anchor="middle" x="403.5" y="-253.5" font-family="Helvetica,sans-Serif" font-size="10.00">sitkExplicit.h</text>
</a>
</g>
</g>
<!-- Node1&#45;&gt;Node2 -->
<g id="edge1" class="edge">
<title>Node1&#45;&gt;Node2</title>
<path fill="none" stroke="midnightblue" d="M458.44,-302.4C447.44,-293.31 433.13,-281.49 421.88,-272.19"/>
<polygon fill="midnightblue" stroke="midnightblue" points="423.91,-269.33 413.98,-265.66 419.46,-274.73 423.91,-269.33"/>
</g>
<!-- Node10 -->
<g id="node10" class="node">
<title>Node10</title>
<g id="a_node10"><a target="_parent" xlink:href="https://www.itk.org/Doxygen/html/itkDefaultVectorPixelAccessor_8h.html" xlink:title=" ">
<polygon fill="white" stroke="black" points="503,-246.5 503,-265.5 674,-265.5 674,-246.5 503,-246.5"/>
<text text-anchor="middle" x="588.5" y="-253.5" font-family="Helvetica,sans-Serif" font-size="10.00">itkDefaultVectorPixelAccessor.h</text>
</a>
</g>
</g>
<!-- Node1&#45;&gt;Node10 -->
<g id="edge9" class="edge">
<title>Node1&#45;&gt;Node10</title>
<path fill="none" stroke="midnightblue" d="M502.28,-302.4C520.56,-292.77 544.65,-280.09 562.71,-270.58"/>
<polygon fill="midnightblue" stroke="midnightblue" points="564.84,-273.41 572.06,-265.66 561.58,-267.22 564.84,-273.41"/>
</g>
<!-- Node3 -->
<g id="node3" class="node">
<title>Node3</title>
<g id="a_node3"><a xlink:href="sitkMacro_8h.html" target="_top" xlink:title=" ">
<polygon fill="white" stroke="black" points="206.5,-190.5 206.5,-209.5 280.5,-209.5 280.5,-190.5 206.5,-190.5"/>
<text text-anchor="middle" x="243.5" y="-197.5" font-family="Helvetica,sans-Serif" font-size="10.00">sitkMacro.h</text>
</a>
</g>
</g>
<!-- Node2&#45;&gt;Node3 -->
<g id="edge2" class="edge">
<title>Node2&#45;&gt;Node3</title>
<path fill="none" stroke="midnightblue" d="M378.15,-246.44C351.23,-237.36 308.5,-222.94 278.41,-212.78"/>
<polygon fill="midnightblue" stroke="midnightblue" points="279.33,-209.4 268.73,-209.52 277.09,-216.03 279.33,-209.4"/>
</g>
<!-- Node4 -->
<g id="node4" class="node">
<title>Node4</title>
<g id="a_node4"><a xlink:title=" ">
<polygon fill="white" stroke="#bfbfbf" points="0,-129 0,-148 53,-148 53,-129 0,-129"/>
<text text-anchor="middle" x="26.5" y="-136" font-family="Helvetica,sans-Serif" font-size="10.00">stdint.h</text>
</a>
</g>
</g>
<!-- Node3&#45;&gt;Node4 -->
<g id="edge3" class="edge">
<title>Node3&#45;&gt;Node4</title>
<path fill="none" stroke="midnightblue" d="M206.33,-191.35C169.44,-183.38 111.48,-169.87 62.5,-154 60.36,-153.31 58.18,-152.55 55.98,-151.76"/>
<polygon fill="midnightblue" stroke="midnightblue" points="57.09,-148.43 46.5,-148.13 54.59,-154.97 57.09,-148.43"/>
</g>
<!-- Node5 -->
<g id="node5" class="node">
<title>Node5</title>
<g id="a_node5"><a xlink:title=" ">
<polygon fill="white" stroke="#bfbfbf" points="71.5,-129 71.5,-148 127.5,-148 127.5,-129 71.5,-129"/>
<text text-anchor="middle" x="99.5" y="-136" font-family="Helvetica,sans-Serif" font-size="10.00">stddef.h</text>
</a>
</g>
</g>
<!-- Node3&#45;&gt;Node5 -->
<g id="edge4" class="edge">
<title>Node3&#45;&gt;Node5</title>
<path fill="none" stroke="midnightblue" d="M222.87,-190.48C198.38,-180.36 157.35,-163.4 129.39,-151.85"/>
<polygon fill="midnightblue" stroke="midnightblue" points="130.67,-148.59 120.09,-148.01 128,-155.06 130.67,-148.59"/>
</g>
<!-- Node6 -->
<g id="node6" class="node">
<title>Node6</title>
<g id="a_node6"><a xlink:title=" ">
<polygon fill="white" stroke="#bfbfbf" points="145.5,-129 145.5,-148 197.5,-148 197.5,-129 145.5,-129"/>
<text text-anchor="middle" x="171.5" y="-136" font-family="Helvetica,sans-Serif" font-size="10.00">cassert</text>
</a>
</g>
</g>
<!-- Node3&#45;&gt;Node6 -->
<g id="edge5" class="edge">
<title>Node3&#45;&gt;Node6</title>
<path fill="none" stroke="midnightblue" d="M233.18,-190.48C221.85,-181.11 203.43,-165.88 189.66,-154.51"/>
<polygon fill="midnightblue" stroke="midnightblue" points="191.73,-151.68 181.8,-148.01 187.28,-157.08 191.73,-151.68"/>
</g>
<!-- Node7 -->
<g id="node7" class="node">
<title>Node7</title>
<g id="a_node7"><a xlink:title=" ">
<polygon fill="white" stroke="#bfbfbf" points="215.5,-129 215.5,-148 271.5,-148 271.5,-129 215.5,-129"/>
<text text-anchor="middle" x="243.5" y="-136" font-family="Helvetica,sans-Serif" font-size="10.00">sstream</text>
</a>
</g>
</g>
<!-- Node3&#45;&gt;Node7 -->
<g id="edge6" class="edge">
<title>Node3&#45;&gt;Node7</title>
<path fill="none" stroke="midnightblue" d="M243.5,-190.48C243.5,-182.08 243.5,-168.98 243.5,-158.16"/>
<polygon fill="midnightblue" stroke="midnightblue" points="247,-158.01 243.5,-148.01 240,-158.01 247,-158.01"/>
</g>
<!-- Node8 -->
<g id="node8" class="node">
<title>Node8</title>
<g id="a_node8"><a xlink:title=" ">
<polygon fill="white" stroke="#bfbfbf" points="289.5,-129 289.5,-148 333.5,-148 333.5,-129 289.5,-129"/>
<text text-anchor="middle" x="311.5" y="-136" font-family="Helvetica,sans-Serif" font-size="10.00">limits</text>
</a>
</g>
</g>
<!-- Node3&#45;&gt;Node8 -->
<g id="edge7" class="edge">
<title>Node3&#45;&gt;Node8</title>
<path fill="none" stroke="midnightblue" d="M253.24,-190.48C263.85,-181.2 281.02,-166.17 293.98,-154.83"/>
<polygon fill="midnightblue" stroke="midnightblue" points="296.55,-157.23 301.78,-148.01 291.94,-151.96 296.55,-157.23"/>
</g>
<!-- Node9 -->
<g id="node9" class="node">
<title>Node9</title>
<g id="a_node9"><a xlink:href="sitkConfigure_8h.html" target="_top" xlink:title=" ">
<polygon fill="white" stroke="black" points="351.5,-129 351.5,-148 441.5,-148 441.5,-129 351.5,-129"/>
<text text-anchor="middle" x="396.5" y="-136" font-family="Helvetica,sans-Serif" font-size="10.00">sitkConfigure.h</text>
</a>
</g>
</g>
<!-- Node3&#45;&gt;Node9 -->
<g id="edge8" class="edge">
<title>Node3&#45;&gt;Node9</title>
<path fill="none" stroke="midnightblue" d="M265.42,-190.48C291.55,-180.31 335.41,-163.26 365.13,-151.7"/>
<polygon fill="midnightblue" stroke="midnightblue" points="366.57,-154.9 374.62,-148.01 364.03,-148.37 366.57,-154.9"/>
</g>
<!-- Node11 -->
<g id="node11" class="node">
<title>Node11</title>
<g id="a_node11"><a target="_parent" xlink:href="https://www.itk.org/Doxygen/html/itkMacro_8h.html" xlink:title=" ">
<polygon fill="white" stroke="black" points="917.5,-6 917.5,-25 985.5,-25 985.5,-6 917.5,-6"/>
<text text-anchor="middle" x="951.5" y="-13" font-family="Helvetica,sans-Serif" font-size="10.00">itkMacro.h</text>
</a>
</g>
</g>
<!-- Node10&#45;&gt;Node11 -->
<g id="edge10" class="edge">
<title>Node10&#45;&gt;Node11</title>
<path fill="none" stroke="midnightblue" d="M673.86,-246.45C782.58,-233.59 961.12,-205.13 1000.5,-154 1029.51,-116.34 989.69,-60.04 966.34,-32.64"/>
<polygon fill="midnightblue" stroke="midnightblue" points="968.95,-30.31 959.72,-25.12 963.7,-34.93 968.95,-30.31"/>
</g>
<!-- Node12 -->
<g id="node12" class="node">
<title>Node12</title>
<g id="a_node12"><a target="_parent" xlink:href="https://www.itk.org/Doxygen/html/itkVariableLengthVector_8h.html" xlink:title=" ">
<polygon fill="white" stroke="black" points="638,-190.5 638,-209.5 779,-209.5 779,-190.5 638,-190.5"/>
<text text-anchor="middle" x="708.5" y="-197.5" font-family="Helvetica,sans-Serif" font-size="10.00">itkVariableLengthVector.h</text>
</a>
</g>
</g>
<!-- Node10&#45;&gt;Node12 -->
<g id="edge11" class="edge">
<title>Node10&#45;&gt;Node12</title>
<path fill="none" stroke="midnightblue" d="M607.51,-246.44C627.09,-237.64 657.81,-223.81 680.23,-213.72"/>
<polygon fill="midnightblue" stroke="midnightblue" points="681.89,-216.81 689.57,-209.52 679.02,-210.43 681.89,-216.81"/>
</g>
<!-- Node19 -->
<g id="node19" class="node">
<title>Node19</title>
<g id="a_node19"><a target="_parent" xlink:href="https://www.itk.org/Doxygen/html/itkIntTypes_8h.html" xlink:title=" ">
<polygon fill="white" stroke="black" points="468,-67.5 468,-86.5 547,-86.5 547,-67.5 468,-67.5"/>
<text text-anchor="middle" x="507.5" y="-74.5" font-family="Helvetica,sans-Serif" font-size="10.00">itkIntTypes.h</text>
</a>
</g>
</g>
<!-- Node10&#45;&gt;Node19 -->
<g id="edge32" class="edge">
<title>Node10&#45;&gt;Node19</title>
<path fill="none" stroke="midnightblue" d="M574.82,-246.49C551.81,-231.26 506.15,-196.9 488.5,-154 480.61,-134.81 488.87,-111.5 496.84,-95.79"/>
<polygon fill="midnightblue" stroke="midnightblue" points="500.09,-97.14 501.86,-86.69 493.96,-93.76 500.09,-97.14"/>
</g>
<!-- Node13 -->
<g id="node13" class="node">
<title>Node13</title>
<g id="a_node13"><a target="_parent" xlink:href="https://www.itk.org/Doxygen/html/itkNumericTraits_8h.html" xlink:title=" ">
<polygon fill="white" stroke="black" points="1055.5,-129 1055.5,-148 1161.5,-148 1161.5,-129 1055.5,-129"/>
<text text-anchor="middle" x="1108.5" y="-136" font-family="Helvetica,sans-Serif" font-size="10.00">itkNumericTraits.h</text>
</a>
</g>
</g>
<!-- Node12&#45;&gt;Node13 -->
<g id="edge12" class="edge">
<title>Node12&#45;&gt;Node13</title>
<path fill="none" stroke="midnightblue" d="M765.81,-190.48C839.93,-179.45 968.59,-160.31 1045.42,-148.88"/>
<polygon fill="midnightblue" stroke="midnightblue" points="1046.07,-152.33 1055.45,-147.39 1045.04,-145.4 1046.07,-152.33"/>
</g>
<!-- Node16 -->
<g id="node16" class="node">
<title>Node16</title>
<g id="a_node16"><a target="_parent" xlink:href="https://www.itk.org/Doxygen/html/itkMetaProgrammingLibrary_8h.html" xlink:title=" ">
<polygon fill="white" stroke="black" points="565,-67.5 565,-86.5 726,-86.5 726,-67.5 565,-67.5"/>
<text text-anchor="middle" x="645.5" y="-74.5" font-family="Helvetica,sans-Serif" font-size="10.00">itkMetaProgrammingLibrary.h</text>
</a>
</g>
</g>
<!-- Node12&#45;&gt;Node16 -->
<g id="edge19" class="edge">
<title>Node12&#45;&gt;Node16</title>
<path fill="none" stroke="midnightblue" d="M679.38,-190.44C661.86,-183.62 640.98,-172.14 630.5,-154 620.03,-135.87 627.84,-111.68 635.57,-95.51"/>
<polygon fill="midnightblue" stroke="midnightblue" points="638.7,-97.09 640.21,-86.6 632.49,-93.86 638.7,-97.09"/>
</g>
<!-- Node18 -->
<g id="node18" class="node">
<title>Node18</title>
<g id="a_node18"><a target="_parent" xlink:href="https://www.itk.org/Doxygen/html/itkIsNumber_8h.html" xlink:title=" ">
<polygon fill="white" stroke="black" points="498,-129 498,-148 583,-148 583,-129 498,-129"/>
<text text-anchor="middle" x="540.5" y="-136" font-family="Helvetica,sans-Serif" font-size="10.00">itkIsNumber.h</text>
</a>
</g>
</g>
<!-- Node12&#45;&gt;Node18 -->
<g id="edge22" class="edge">
<title>Node12&#45;&gt;Node18</title>
<path fill="none" stroke="midnightblue" d="M684.43,-190.48C655.49,-180.22 606.74,-162.96 574.1,-151.4"/>
<polygon fill="midnightblue" stroke="midnightblue" points="575.12,-148.05 564.53,-148.01 572.78,-154.65 575.12,-148.05"/>
</g>
<!-- Node20 -->
<g id="node20" class="node">
<title>Node20</title>
<g id="a_node20"><a target="_parent" xlink:href="https://www.itk.org/Doxygen/html/itkPromoteType_8h.html" xlink:title=" ">
<polygon fill="white" stroke="black" points="861.5,-67.5 861.5,-86.5 963.5,-86.5 963.5,-67.5 861.5,-67.5"/>
<text text-anchor="middle" x="912.5" y="-74.5" font-family="Helvetica,sans-Serif" font-size="10.00">itkPromoteType.h</text>
</a>
</g>
</g>
<!-- Node12&#45;&gt;Node20 -->
<g id="edge26" class="edge">
<title>Node12&#45;&gt;Node20</title>
<path fill="none" stroke="midnightblue" d="M725.1,-190.43C741.22,-181.88 766.17,-168.02 786.5,-154 804.44,-141.63 806.25,-134.92 824.5,-123 843.41,-110.65 866.14,-99.1 883.76,-90.8"/>
<polygon fill="midnightblue" stroke="midnightblue" points="885.36,-93.91 892.97,-86.54 882.42,-87.56 885.36,-93.91"/>
</g>
<!-- Node21 -->
<g id="node21" class="node">
<title>Node21</title>
<g id="a_node21"><a target="_parent" xlink:href="https://www.itk.org/Doxygen/html/itkBinaryOperationConcept_8h.html" xlink:title=" ">
<polygon fill="white" stroke="black" points="833.5,-129 833.5,-148 991.5,-148 991.5,-129 833.5,-129"/>
<text text-anchor="middle" x="912.5" y="-136" font-family="Helvetica,sans-Serif" font-size="10.00">itkBinaryOperationConcept.h</text>
</a>
</g>
</g>
<!-- Node12&#45;&gt;Node21 -->
<g id="edge28" class="edge">
<title>Node12&#45;&gt;Node21</title>
<path fill="none" stroke="midnightblue" d="M737.73,-190.48C773.4,-180.07 833.86,-162.44 873.48,-150.88"/>
<polygon fill="midnightblue" stroke="midnightblue" points="874.71,-154.17 883.33,-148.01 872.75,-147.45 874.71,-154.17"/>
</g>
<!-- Node22 -->
<g id="node22" class="node">
<title>Node22</title>
<g id="a_node22"><a target="_parent" xlink:href="https://www.itk.org/Doxygen/html/itkNumericTraitsVariableLengthVectorPixel_8h.html" xlink:title=" ">
<polygon fill="white" stroke="black" points="640,-123.5 640,-153.5 777,-153.5 777,-123.5 640,-123.5"/>
<text text-anchor="start" x="648" y="-141.5" font-family="Helvetica,sans-Serif" font-size="10.00">itkNumericTraitsVariable</text>
<text text-anchor="middle" x="708.5" y="-130.5" font-family="Helvetica,sans-Serif" font-size="10.00">LengthVectorPixel.h</text>
</a>
</g>
</g>
<!-- Node12&#45;&gt;Node22 -->
<g id="edge30" class="edge">
<title>Node12&#45;&gt;Node22</title>
<path fill="none" stroke="midnightblue" d="M703.6,-190.48C702.07,-183.47 701.49,-173.19 701.86,-163.7"/>
<polygon fill="midnightblue" stroke="midnightblue" points="705.36,-163.77 702.67,-153.52 698.38,-163.21 705.36,-163.77"/>
</g>
<!-- Node13&#45;&gt;Node11 -->
<g id="edge13" class="edge">
<title>Node13&#45;&gt;Node11</title>
<path fill="none" stroke="midnightblue" d="M1097.9,-128.93C1081.3,-115.55 1048.12,-88.96 1019.5,-67 1003.61,-54.81 985.39,-41.3 971.81,-31.32"/>
<polygon fill="midnightblue" stroke="midnightblue" points="973.76,-28.42 963.62,-25.33 969.62,-34.06 973.76,-28.42"/>
</g>
<!-- Node14 -->
<g id="node14" class="node">
<title>Node14</title>
<g id="a_node14"><a target="_parent" xlink:href="https://www.itk.org/Doxygen/html/itkFixedArray_8h.html" xlink:title=" ">
<polygon fill="white" stroke="black" points="1072,-67.5 1072,-86.5 1161,-86.5 1161,-67.5 1072,-67.5"/>
<text text-anchor="middle" x="1116.5" y="-74.5" font-family="Helvetica,sans-Serif" font-size="10.00">itkFixedArray.h</text>
</a>
</g>
</g>
<!-- Node13&#45;&gt;Node14 -->
<g id="edge14" class="edge">
<title>Node13&#45;&gt;Node14</title>
<path fill="none" stroke="midnightblue" d="M1109.65,-128.98C1110.77,-120.58 1112.54,-107.48 1113.99,-96.66"/>
<polygon fill="midnightblue" stroke="midnightblue" points="1117.49,-96.89 1115.36,-86.51 1110.55,-95.95 1117.49,-96.89"/>
</g>
<!-- Node14&#45;&gt;Node11 -->
<g id="edge15" class="edge">
<title>Node14&#45;&gt;Node11</title>
<path fill="none" stroke="midnightblue" d="M1092.86,-67.48C1064.56,-57.27 1016.97,-40.11 984.91,-28.55"/>
<polygon fill="midnightblue" stroke="midnightblue" points="985.69,-25.11 975.1,-25.01 983.32,-31.69 985.69,-25.11"/>
</g>
<!-- Node15 -->
<g id="node15" class="node">
<title>Node15</title>
<g id="a_node15"><a target="_parent" xlink:href="https://www.itk.org/Doxygen/html/itkNumericTraitsFixedArrayPixel_8h.html" xlink:title=" ">
<polygon fill="white" stroke="black" points="1042,-0.5 1042,-30.5 1191,-30.5 1191,-0.5 1042,-0.5"/>
<text text-anchor="start" x="1050" y="-18.5" font-family="Helvetica,sans-Serif" font-size="10.00">itkNumericTraitsFixedArray</text>
<text text-anchor="middle" x="1116.5" y="-7.5" font-family="Helvetica,sans-Serif" font-size="10.00">Pixel.h</text>
</a>
</g>
</g>
<!-- Node14&#45;&gt;Node15 -->
<g id="edge16" class="edge">
<title>Node14&#45;&gt;Node15</title>
<path fill="none" stroke="midnightblue" d="M1111.6,-67.48C1110.07,-60.47 1109.49,-50.19 1109.86,-40.7"/>
<polygon fill="midnightblue" stroke="midnightblue" points="1113.36,-40.77 1110.67,-30.52 1106.38,-40.21 1113.36,-40.77"/>
</g>
<!-- Node15&#45;&gt;Node13 -->
<g id="edge17" class="edge">
<title>Node15&#45;&gt;Node13</title>
<path fill="none" stroke="midnightblue" d="M1139.87,-30.68C1158.8,-44.12 1180.76,-65.42 1170.5,-87 1163.09,-102.59 1148.26,-114.94 1134.96,-123.53"/>
<polygon fill="midnightblue" stroke="midnightblue" points="1132.86,-120.71 1126.11,-128.87 1136.48,-126.7 1132.86,-120.71"/>
</g>
<!-- Node15&#45;&gt;Node14 -->
<g id="edge18" class="edge">
<title>Node15&#45;&gt;Node14</title>
<path fill="none" stroke="midnightblue" d="M1122.33,-30.52C1123.37,-38.59 1123.53,-48.81 1122.8,-57.53"/>
<polygon fill="midnightblue" stroke="midnightblue" points="1119.33,-57.09 1121.4,-67.48 1126.26,-58.06 1119.33,-57.09"/>
</g>
<!-- Node16&#45;&gt;Node11 -->
<g id="edge20" class="edge">
<title>Node16&#45;&gt;Node11</title>
<path fill="none" stroke="midnightblue" d="M689.34,-67.48C747.34,-56.2 848.99,-36.43 907.21,-25.11"/>
<polygon fill="midnightblue" stroke="midnightblue" points="908.06,-28.51 917.21,-23.17 906.72,-21.64 908.06,-28.51"/>
</g>
<!-- Node17 -->
<g id="node17" class="node">
<title>Node17</title>
<g id="a_node17"><a target="_parent" xlink:href="https://www.itk.org/Doxygen/html/itkSmartPointer_8h.html" xlink:title=" ">
<polygon fill="white" stroke="black" points="595,-6 595,-25 696,-25 696,-6 595,-6"/>
<text text-anchor="middle" x="645.5" y="-13" font-family="Helvetica,sans-Serif" font-size="10.00">itkSmartPointer.h</text>
</a>
</g>
</g>
<!-- Node16&#45;&gt;Node17 -->
<g id="edge21" class="edge">
<title>Node16&#45;&gt;Node17</title>
<path fill="none" stroke="midnightblue" d="M645.5,-67.48C645.5,-59.08 645.5,-45.98 645.5,-35.16"/>
<polygon fill="midnightblue" stroke="midnightblue" points="649,-35.01 645.5,-25.01 642,-35.01 649,-35.01"/>
</g>
<!-- Node18&#45;&gt;Node16 -->
<g id="edge23" class="edge">
<title>Node18&#45;&gt;Node16</title>
<path fill="none" stroke="midnightblue" d="M555.54,-128.98C572.78,-119.21 601.24,-103.08 621.53,-91.58"/>
<polygon fill="midnightblue" stroke="midnightblue" points="623.51,-94.48 630.48,-86.51 620.06,-88.39 623.51,-94.48"/>
</g>
<!-- Node18&#45;&gt;Node19 -->
<g id="edge24" class="edge">
<title>Node18&#45;&gt;Node19</title>
<path fill="none" stroke="midnightblue" d="M535.77,-128.98C530.92,-120.23 523.23,-106.37 517.1,-95.31"/>
<polygon fill="midnightblue" stroke="midnightblue" points="520.13,-93.56 512.22,-86.51 514.01,-96.95 520.13,-93.56"/>
</g>
<!-- Node19&#45;&gt;Node11 -->
<g id="edge25" class="edge">
<title>Node19&#45;&gt;Node11</title>
<path fill="none" stroke="midnightblue" d="M547.02,-68.4C549.89,-67.91 552.74,-67.43 555.5,-67 682.58,-47 833.57,-29.45 906.98,-21.32"/>
<polygon fill="midnightblue" stroke="midnightblue" points="907.68,-24.76 917.24,-20.19 906.92,-17.8 907.68,-24.76"/>
</g>
<!-- Node20&#45;&gt;Node11 -->
<g id="edge27" class="edge">
<title>Node20&#45;&gt;Node11</title>
<path fill="none" stroke="midnightblue" d="M918.09,-67.48C923.88,-58.64 933.09,-44.59 940.37,-33.48"/>
<polygon fill="midnightblue" stroke="midnightblue" points="943.37,-35.29 945.92,-25.01 937.51,-31.45 943.37,-35.29"/>
</g>
<!-- Node21&#45;&gt;Node20 -->
<g id="edge29" class="edge">
<title>Node21&#45;&gt;Node20</title>
<path fill="none" stroke="midnightblue" d="M912.5,-128.98C912.5,-120.58 912.5,-107.48 912.5,-96.66"/>
<polygon fill="midnightblue" stroke="midnightblue" points="916,-96.51 912.5,-86.51 909,-96.51 916,-96.51"/>
</g>
<!-- Node22&#45;&gt;Node12 -->
<g id="edge31" class="edge">
<title>Node22&#45;&gt;Node12</title>
<path fill="none" stroke="midnightblue" d="M714.33,-153.52C715.37,-161.59 715.53,-171.81 714.8,-180.53"/>
<polygon fill="midnightblue" stroke="midnightblue" points="711.33,-180.09 713.4,-190.48 718.26,-181.06 711.33,-180.09"/>
</g>
</g>
</svg>
