<?xml version="1.0" encoding="UTF-8" standalone="no"?>
<!DOCTYPE svg PUBLIC "-//W3C//DTD SVG 1.1//EN"
 "http://www.w3.org/Graphics/SVG/1.1/DTD/svg11.dtd">
<!-- Generated by graphviz version 2.43.0 (0)
 -->
<!-- Title: sitkExplicit.h Pages: 1 -->
<!--zoomable 151 -->
<svg id="main" version="1.1" xmlns="http://www.w3.org/2000/svg" xmlns:xlink="http://www.w3.org/1999/xlink" xml:space="preserve" onload="init(evt)">
<style type="text/css"><![CDATA[
.edge:hover path { stroke: red; }
.edge:hover polygon { stroke: red; fill: red; }
]]></style>
<script type="text/javascript"><![CDATA[
var edges = document.getElementsByTagName('g');
if (edges && edges.length) {
  for (var i=0;i<edges.length;i++) {
    if (edges[i].id.substr(0,4)=='edge') {
      edges[i].setAttribute('class','edge');
    }
  }
}
]]></script>
        <defs>
                <circle id="rim" cx="0" cy="0" r="7"/>
                <circle id="rim2" cx="0" cy="0" r="3.5"/>
                <g id="zoomPlus">
                        <use xlink:href="#rim" fill="#404040">
                                <set attributeName="fill" to="#808080" begin="zoomplus.mouseover" end="zoomplus.mouseout"/>
                        </use>
                        <path d="M-4,0h8M0,-4v8" fill="none" stroke="white" stroke-width="1.5" pointer-events="none"/>
                </g>
                <g id="zoomMin">
                        <use xlink:href="#rim" fill="#404040">
                                <set attributeName="fill" to="#808080" begin="zoomminus.mouseover" end="zoomminus.mouseout"/>
                        </use>
                        <path d="M-4,0h8" fill="none" stroke="white" stroke-width="1.5" pointer-events="none"/>
                </g>
                <g id="dirArrow">
                        <path fill="none" stroke="white" stroke-width="1.5" d="M0,-3.0v7 M-2.5,-0.5L0,-3.0L2.5,-0.5"/>
                </g>
               <g id="resetDef">
                       <use xlink:href="#rim2" fill="#404040">
                               <set attributeName="fill" to="#808080" begin="reset.mouseover" end="reset.mouseout"/>
                       </use>
               </g>
        </defs>

<script type="text/javascript">
var viewWidth = 2871;
var viewHeight = 151;
var sectionId = 'dynsection-1';
</script>
<script xlink:href="svgpan.js"/>
<svg id="graph" class="graph">
<g id="viewport">
<title>sitkExplicit.h</title>
<polygon fill="white" stroke="transparent" points="-4,4 -4,-147 2866.5,-147 2866.5,4 -4,4"/>
<!-- Node1 -->
<g id="node1" class="node">
<title>Node1</title>
<g id="a_node1"><a xlink:title=" ">
<polygon fill="#bfbfbf" stroke="black" points="1361,-123.5 1361,-142.5 1441,-142.5 1441,-123.5 1361,-123.5"/>
<text text-anchor="middle" x="1401" y="-130.5" font-family="Helvetica,sans-Serif" font-size="10.00">sitkExplicit.h</text>
</a>
</g>
</g>
<!-- Node2 -->
<g id="node2" class="node">
<title>Node2</title>
<g id="a_node2"><a xlink:href="sitkExplicitITKImageRegion_8h.html" target="_top" xlink:title=" ">
<polygon fill="white" stroke="black" points="0,-62 0,-81 160,-81 160,-62 0,-62"/>
<text text-anchor="middle" x="80" y="-69" font-family="Helvetica,sans-Serif" font-size="10.00">sitkExplicitITKImageRegion.h</text>
</a>
</g>
</g>
<!-- Node1&#45;&gt;Node2 -->
<g id="edge1" class="edge">
<title>Node1&#45;&gt;Node2</title>
<path fill="none" stroke="midnightblue" d="M1350.98,-132.41C1183.37,-133.31 626.39,-132.43 169,-87 154.82,-85.59 139.48,-83.35 125.59,-81.05"/>
<polygon fill="midnightblue" stroke="midnightblue" points="1351.01,-135.91 1360.99,-132.35 1350.97,-128.91 1351.01,-135.91"/>
</g>
<!-- Node4 -->
<g id="node4" class="node">
<title>Node4</title>
<g id="a_node4"><a xlink:href="sitkExplicitITKDefaultPixelAccessor_8h.html" target="_top" xlink:title=" ">
<polygon fill="white" stroke="black" points="178,-56.5 178,-86.5 324,-86.5 324,-56.5 178,-56.5"/>
<text text-anchor="start" x="186" y="-74.5" font-family="Helvetica,sans-Serif" font-size="10.00">sitkExplicitITKDefaultPixel</text>
<text text-anchor="middle" x="251" y="-63.5" font-family="Helvetica,sans-Serif" font-size="10.00">Accessor.h</text>
</a>
</g>
</g>
<!-- Node1&#45;&gt;Node4 -->
<g id="edge3" class="edge">
<title>Node1&#45;&gt;Node4</title>
<path fill="none" stroke="midnightblue" d="M1350.54,-132.25C1197.15,-132.5 723,-129.51 333,-87 330.13,-86.69 327.2,-86.33 324.25,-85.95"/>
<polygon fill="midnightblue" stroke="midnightblue" points="1350.61,-135.75 1360.6,-132.23 1350.6,-128.75 1350.61,-135.75"/>
</g>
<!-- Node5 -->
<g id="node5" class="node">
<title>Node5</title>
<g id="a_node5"><a xlink:href="sitkExplicitITKDefaultVectorPixelAccessor_8h.html" target="_top" xlink:title=" ">
<polygon fill="white" stroke="black" points="342.5,-56.5 342.5,-86.5 495.5,-86.5 495.5,-56.5 342.5,-56.5"/>
<text text-anchor="start" x="350.5" y="-74.5" font-family="Helvetica,sans-Serif" font-size="10.00">sitkExplicitITKDefaultVector</text>
<text text-anchor="middle" x="419" y="-63.5" font-family="Helvetica,sans-Serif" font-size="10.00">PixelAccessor.h</text>
</a>
</g>
</g>
<!-- Node1&#45;&gt;Node5 -->
<g id="edge5" class="edge">
<title>Node1&#45;&gt;Node5</title>
<path fill="none" stroke="midnightblue" d="M1350.46,-131.57C1213.69,-129.94 824.99,-122.3 504,-87 501.32,-86.71 498.6,-86.38 495.85,-86.03"/>
<polygon fill="midnightblue" stroke="midnightblue" points="1350.59,-135.07 1360.63,-131.68 1350.67,-128.07 1350.59,-135.07"/>
</g>
<!-- Node6 -->
<g id="node6" class="node">
<title>Node6</title>
<g id="a_node6"><a xlink:href="sitkExplicitITKImportImageContainer_8h.html" target="_top" xlink:title=" ">
<polygon fill="white" stroke="black" points="513.5,-56.5 513.5,-86.5 662.5,-86.5 662.5,-56.5 513.5,-56.5"/>
<text text-anchor="start" x="521.5" y="-74.5" font-family="Helvetica,sans-Serif" font-size="10.00">sitkExplicitITKImportImage</text>
<text text-anchor="middle" x="588" y="-63.5" font-family="Helvetica,sans-Serif" font-size="10.00">Container.h</text>
</a>
</g>
</g>
<!-- Node1&#45;&gt;Node6 -->
<g id="edge7" class="edge">
<title>Node1&#45;&gt;Node6</title>
<path fill="none" stroke="midnightblue" d="M1350.67,-130.83C1231.95,-127.64 925.31,-116.96 671,-87 668.24,-86.67 665.43,-86.32 662.6,-85.94"/>
<polygon fill="midnightblue" stroke="midnightblue" points="1350.81,-134.33 1360.9,-131.1 1350.99,-127.33 1350.81,-134.33"/>
</g>
<!-- Node7 -->
<g id="node7" class="node">
<title>Node7</title>
<g id="a_node7"><a xlink:href="sitkExplicitITKImageBase_8h.html" target="_top" xlink:title=" ">
<polygon fill="white" stroke="black" points="680,-62 680,-81 830,-81 830,-62 680,-62"/>
<text text-anchor="middle" x="755" y="-69" font-family="Helvetica,sans-Serif" font-size="10.00">sitkExplicitITKImageBase.h</text>
</a>
</g>
</g>
<!-- Node1&#45;&gt;Node7 -->
<g id="edge9" class="edge">
<title>Node1&#45;&gt;Node7</title>
<path fill="none" stroke="midnightblue" d="M1350.39,-129.5C1251.72,-124.27 1026.87,-110.69 839,-87 826.23,-85.39 812.43,-83.2 799.79,-81.01"/>
<polygon fill="midnightblue" stroke="midnightblue" points="1350.5,-133.01 1360.66,-130.03 1350.86,-126.02 1350.5,-133.01"/>
</g>
<!-- Node8 -->
<g id="node8" class="node">
<title>Node8</title>
<g id="a_node8"><a xlink:href="sitkExplicitITKImage_8h.html" target="_top" xlink:title=" ">
<polygon fill="white" stroke="black" points="848,-62 848,-81 974,-81 974,-62 848,-62"/>
<text text-anchor="middle" x="911" y="-69" font-family="Helvetica,sans-Serif" font-size="10.00">sitkExplicitITKImage.h</text>
</a>
</g>
</g>
<!-- Node1&#45;&gt;Node8 -->
<g id="edge11" class="edge">
<title>Node1&#45;&gt;Node8</title>
<path fill="none" stroke="midnightblue" d="M1350.66,-128.08C1271.94,-121.61 1115.03,-107.36 983,-87 972.29,-85.35 960.75,-83.19 950.12,-81.06"/>
<polygon fill="midnightblue" stroke="midnightblue" points="1350.53,-131.58 1360.78,-128.9 1351.1,-124.6 1350.53,-131.58"/>
</g>
<!-- Node9 -->
<g id="node9" class="node">
<title>Node9</title>
<g id="a_node9"><a xlink:href="sitkExplicitITKLabelMap_8h.html" target="_top" xlink:title=" ">
<polygon fill="white" stroke="black" points="992.5,-62 992.5,-81 1135.5,-81 1135.5,-62 992.5,-62"/>
<text text-anchor="middle" x="1064" y="-69" font-family="Helvetica,sans-Serif" font-size="10.00">sitkExplicitITKLabelMap.h</text>
</a>
</g>
</g>
<!-- Node1&#45;&gt;Node9 -->
<g id="edge13" class="edge">
<title>Node1&#45;&gt;Node9</title>
<path fill="none" stroke="midnightblue" d="M1351,-123.34C1299.19,-114.34 1215.91,-99.81 1144,-87 1133.3,-85.09 1121.8,-83.02 1110.95,-81.06"/>
<polygon fill="midnightblue" stroke="midnightblue" points="1350.47,-126.8 1360.92,-125.06 1351.67,-119.9 1350.47,-126.8"/>
</g>
<!-- Node10 -->
<g id="node10" class="node">
<title>Node10</title>
<g id="a_node10"><a xlink:href="sitkExplicitITKVectorImage_8h.html" target="_top" xlink:title=" ">
<polygon fill="white" stroke="black" points="1153.5,-62 1153.5,-81 1310.5,-81 1310.5,-62 1153.5,-62"/>
<text text-anchor="middle" x="1232" y="-69" font-family="Helvetica,sans-Serif" font-size="10.00">sitkExplicitITKVectorImage.h</text>
</a>
</g>
</g>
<!-- Node1&#45;&gt;Node10 -->
<g id="edge15" class="edge">
<title>Node1&#45;&gt;Node10</title>
<path fill="none" stroke="midnightblue" d="M1367.15,-120.08C1334.3,-108.52 1285.26,-91.25 1256.17,-81.01"/>
<polygon fill="midnightblue" stroke="midnightblue" points="1366.19,-123.46 1376.79,-123.48 1368.52,-116.85 1366.19,-123.46"/>
</g>
<!-- Node11 -->
<g id="node11" class="node">
<title>Node11</title>
<g id="a_node11"><a xlink:href="sitkExplicitITKImageConstIterator_8h.html" target="_top" xlink:title=" ">
<polygon fill="white" stroke="black" points="1328.5,-56.5 1328.5,-86.5 1473.5,-86.5 1473.5,-56.5 1328.5,-56.5"/>
<text text-anchor="start" x="1336.5" y="-74.5" font-family="Helvetica,sans-Serif" font-size="10.00">sitkExplicitITKImageConst</text>
<text text-anchor="middle" x="1401" y="-63.5" font-family="Helvetica,sans-Serif" font-size="10.00">Iterator.h</text>
</a>
</g>
</g>
<!-- Node1&#45;&gt;Node11 -->
<g id="edge17" class="edge">
<title>Node1&#45;&gt;Node11</title>
<path fill="none" stroke="midnightblue" d="M1401,-113.23C1401,-104.59 1401,-94.5 1401,-86.52"/>
<polygon fill="midnightblue" stroke="midnightblue" points="1397.5,-113.48 1401,-123.48 1404.5,-113.48 1397.5,-113.48"/>
</g>
<!-- Node12 -->
<g id="node12" class="node">
<title>Node12</title>
<g id="a_node12"><a xlink:href="sitkExplicitITKImageRegionConstIterator_8h.html" target="_top" xlink:title=" ">
<polygon fill="white" stroke="black" points="1491.5,-56.5 1491.5,-86.5 1642.5,-86.5 1642.5,-56.5 1491.5,-56.5"/>
<text text-anchor="start" x="1499.5" y="-74.5" font-family="Helvetica,sans-Serif" font-size="10.00">sitkExplicitITKImageRegion</text>
<text text-anchor="middle" x="1567" y="-63.5" font-family="Helvetica,sans-Serif" font-size="10.00">ConstIterator.h</text>
</a>
</g>
</g>
<!-- Node1&#45;&gt;Node12 -->
<g id="edge19" class="edge">
<title>Node1&#45;&gt;Node12</title>
<path fill="none" stroke="midnightblue" d="M1434.55,-119.98C1461.54,-110.3 1499.51,-96.69 1527.88,-86.52"/>
<polygon fill="midnightblue" stroke="midnightblue" points="1433.02,-116.81 1424.78,-123.48 1435.38,-123.4 1433.02,-116.81"/>
</g>
<!-- Node13 -->
<g id="node13" class="node">
<title>Node13</title>
<g id="a_node13"><a xlink:href="sitkExplicitITKImageScanlineConstIterator_8h.html" target="_top" xlink:title=" ">
<polygon fill="white" stroke="black" points="1661,-56.5 1661,-86.5 1819,-86.5 1819,-56.5 1661,-56.5"/>
<text text-anchor="start" x="1669" y="-74.5" font-family="Helvetica,sans-Serif" font-size="10.00">sitkExplicitITKImageScanline</text>
<text text-anchor="middle" x="1740" y="-63.5" font-family="Helvetica,sans-Serif" font-size="10.00">ConstIterator.h</text>
</a>
</g>
</g>
<!-- Node1&#45;&gt;Node13 -->
<g id="edge21" class="edge">
<title>Node1&#45;&gt;Node13</title>
<path fill="none" stroke="midnightblue" d="M1451.13,-123.2C1506.41,-113.5 1596.1,-97.76 1660.89,-86.38"/>
<polygon fill="midnightblue" stroke="midnightblue" points="1450.46,-119.76 1441.22,-124.94 1451.67,-126.66 1450.46,-119.76"/>
</g>
<!-- Node14 -->
<g id="node14" class="node">
<title>Node14</title>
<g id="a_node14"><a xlink:href="sitkExplicitITKImageScanlineIterator_8h.html" target="_top" xlink:title=" ">
<polygon fill="white" stroke="black" points="1837,-56.5 1837,-86.5 1995,-86.5 1995,-56.5 1837,-56.5"/>
<text text-anchor="start" x="1845" y="-74.5" font-family="Helvetica,sans-Serif" font-size="10.00">sitkExplicitITKImageScanline</text>
<text text-anchor="middle" x="1916" y="-63.5" font-family="Helvetica,sans-Serif" font-size="10.00">Iterator.h</text>
</a>
</g>
</g>
<!-- Node1&#45;&gt;Node14 -->
<g id="edge23" class="edge">
<title>Node1&#45;&gt;Node14</title>
<path fill="none" stroke="midnightblue" d="M1451.4,-127.65C1531.39,-120.52 1692.26,-105.32 1828,-87 1830.92,-86.61 1833.88,-86.19 1836.88,-85.76"/>
<polygon fill="midnightblue" stroke="midnightblue" points="1450.78,-124.19 1441.12,-128.56 1451.39,-131.16 1450.78,-124.19"/>
</g>
<!-- Node15 -->
<g id="node15" class="node">
<title>Node15</title>
<g id="a_node15"><a xlink:href="sitkExplicitITKImageSource_8h.html" target="_top" xlink:title=" ">
<polygon fill="white" stroke="black" points="2012.5,-62 2012.5,-81 2171.5,-81 2171.5,-62 2012.5,-62"/>
<text text-anchor="middle" x="2092" y="-69" font-family="Helvetica,sans-Serif" font-size="10.00">sitkExplicitITKImageSource.h</text>
</a>
</g>
</g>
<!-- Node1&#45;&gt;Node15 -->
<g id="edge25" class="edge">
<title>Node1&#45;&gt;Node15</title>
<path fill="none" stroke="midnightblue" d="M1451.53,-129.75C1555.32,-124.79 1799.93,-111.38 2004,-87 2017.38,-85.4 2031.82,-83.22 2045.07,-81.03"/>
<polygon fill="midnightblue" stroke="midnightblue" points="1451.17,-126.26 1441.34,-130.23 1451.5,-133.25 1451.17,-126.26"/>
</g>
<!-- Node16 -->
<g id="node16" class="node">
<title>Node16</title>
<g id="a_node16"><a xlink:href="sitkExplicitITKImageToImageFilter_8h.html" target="_top" xlink:title=" ">
<polygon fill="white" stroke="black" points="2189,-56.5 2189,-86.5 2347,-86.5 2347,-56.5 2189,-56.5"/>
<text text-anchor="start" x="2197" y="-74.5" font-family="Helvetica,sans-Serif" font-size="10.00">sitkExplicitITKImageToImage</text>
<text text-anchor="middle" x="2268" y="-63.5" font-family="Helvetica,sans-Serif" font-size="10.00">Filter.h</text>
</a>
</g>
</g>
<!-- Node1&#45;&gt;Node16 -->
<g id="edge27" class="edge">
<title>Node1&#45;&gt;Node16</title>
<path fill="none" stroke="midnightblue" d="M1451.67,-130.96C1576.18,-128 1906.92,-117.66 2181,-87 2183.59,-86.71 2186.21,-86.4 2188.86,-86.06"/>
<polygon fill="midnightblue" stroke="midnightblue" points="1451.23,-127.47 1441.32,-131.2 1451.39,-134.47 1451.23,-127.47"/>
</g>
<!-- Node17 -->
<g id="node17" class="node">
<title>Node17</title>
<g id="a_node17"><a xlink:href="sitkExplicitITKInPlaceImageFilter_8h.html" target="_top" xlink:title=" ">
<polygon fill="white" stroke="black" points="2365,-56.5 2365,-86.5 2517,-86.5 2517,-56.5 2365,-56.5"/>
<text text-anchor="start" x="2373" y="-74.5" font-family="Helvetica,sans-Serif" font-size="10.00">sitkExplicitITKInPlaceImage</text>
<text text-anchor="middle" x="2441" y="-63.5" font-family="Helvetica,sans-Serif" font-size="10.00">Filter.h</text>
</a>
</g>
</g>
<!-- Node1&#45;&gt;Node17 -->
<g id="edge29" class="edge">
<title>Node1&#45;&gt;Node17</title>
<path fill="none" stroke="midnightblue" d="M1451.33,-131.79C1593.74,-130.71 2011.49,-124.36 2356,-87 2358.83,-86.69 2361.7,-86.35 2364.61,-85.98"/>
<polygon fill="midnightblue" stroke="midnightblue" points="1451.14,-128.29 1441.17,-131.86 1451.19,-135.29 1451.14,-128.29"/>
</g>
<!-- Node18 -->
<g id="node18" class="node">
<title>Node18</title>
<g id="a_node18"><a xlink:href="sitkExplicitITKComposeImageFilter_8h.html" target="_top" xlink:title=" ">
<polygon fill="white" stroke="black" points="2535,-56.5 2535,-86.5 2697,-86.5 2697,-56.5 2535,-56.5"/>
<text text-anchor="start" x="2543" y="-74.5" font-family="Helvetica,sans-Serif" font-size="10.00">sitkExplicitITKComposeImage</text>
<text text-anchor="middle" x="2616" y="-63.5" font-family="Helvetica,sans-Serif" font-size="10.00">Filter.h</text>
</a>
</g>
</g>
<!-- Node1&#45;&gt;Node18 -->
<g id="edge31" class="edge">
<title>Node1&#45;&gt;Node18</title>
<path fill="none" stroke="midnightblue" d="M1451.63,-132.13C1610.42,-132.08 2112.71,-128.41 2526,-87 2528.83,-86.72 2531.72,-86.4 2534.62,-86.06"/>
<polygon fill="midnightblue" stroke="midnightblue" points="1451.23,-128.63 1441.23,-132.13 1451.23,-135.63 1451.23,-128.63"/>
</g>
<!-- Node19 -->
<g id="node19" class="node">
<title>Node19</title>
<g id="a_node19"><a xlink:href="sitkExplicitITKVectorIndexSelectionCastImageFilter_8h.html" target="_top" xlink:title=" ">
<polygon fill="white" stroke="black" points="2715.5,-56.5 2715.5,-86.5 2862.5,-86.5 2862.5,-56.5 2715.5,-56.5"/>
<text text-anchor="start" x="2723.5" y="-74.5" font-family="Helvetica,sans-Serif" font-size="10.00">sitkExplicitITKVectorIndex</text>
<text text-anchor="middle" x="2789" y="-63.5" font-family="Helvetica,sans-Serif" font-size="10.00">SelectionCastImageFilter.h</text>
</a>
</g>
</g>
<!-- Node1&#45;&gt;Node19 -->
<g id="edge33" class="edge">
<title>Node1&#45;&gt;Node19</title>
<path fill="none" stroke="midnightblue" d="M1451.04,-131.2C1659.01,-127.74 2455.85,-113.04 2706,-87 2709.06,-86.68 2712.17,-86.32 2715.31,-85.92"/>
<polygon fill="midnightblue" stroke="midnightblue" points="1450.95,-127.7 1441.01,-131.37 1451.07,-134.7 1450.95,-127.7"/>
</g>
<!-- Node3 -->
<g id="node3" class="node">
<title>Node3</title>
<g id="a_node3"><a xlink:href="sitkExplicitITK_8h.html" target="_top" xlink:title=" ">
<polygon fill="white" stroke="black" points="1353.5,-0.5 1353.5,-19.5 1448.5,-19.5 1448.5,-0.5 1353.5,-0.5"/>
<text text-anchor="middle" x="1401" y="-7.5" font-family="Helvetica,sans-Serif" font-size="10.00">sitkExplicitITK.h</text>
</a>
</g>
</g>
<!-- Node2&#45;&gt;Node3 -->
<g id="edge2" class="edge">
<title>Node2&#45;&gt;Node3</title>
<path fill="none" stroke="midnightblue" d="M135.56,-60.35C146.61,-58.64 158.15,-57.08 169,-56 628.51,-10.36 1188.54,-9.69 1353.29,-10.6"/>
<polygon fill="midnightblue" stroke="midnightblue" points="134.91,-56.91 125.59,-61.95 136.02,-63.82 134.91,-56.91"/>
</g>
<!-- Node4&#45;&gt;Node3 -->
<g id="edge4" class="edge">
<title>Node4&#45;&gt;Node3</title>
<path fill="none" stroke="midnightblue" d="M334.26,-55.97C733.41,-13.17 1204.49,-10.47 1353.46,-10.76"/>
<polygon fill="midnightblue" stroke="midnightblue" points="333.81,-52.49 324.25,-57.05 334.57,-59.45 333.81,-52.49"/>
</g>
<!-- Node5&#45;&gt;Node3 -->
<g id="edge6" class="edge">
<title>Node5&#45;&gt;Node3</title>
<path fill="none" stroke="midnightblue" d="M506.06,-55.85C835.16,-20.31 1220.31,-12.94 1353.19,-11.4"/>
<polygon fill="midnightblue" stroke="midnightblue" points="505.41,-52.4 495.85,-56.97 506.17,-59.36 505.41,-52.4"/>
</g>
<!-- Node6&#45;&gt;Node3 -->
<g id="edge8" class="edge">
<title>Node6&#45;&gt;Node3</title>
<path fill="none" stroke="midnightblue" d="M672.7,-55.88C935.13,-25.54 1238.26,-15.15 1353.44,-12.1"/>
<polygon fill="midnightblue" stroke="midnightblue" points="672.13,-52.43 662.6,-57.06 672.94,-59.38 672.13,-52.43"/>
</g>
<!-- Node7&#45;&gt;Node3 -->
<g id="edge10" class="edge">
<title>Node7&#45;&gt;Node3</title>
<path fill="none" stroke="midnightblue" d="M809.76,-60.31C819.48,-58.71 829.52,-57.2 839,-56 1028.86,-32.06 1256.49,-18.44 1353.48,-13.34"/>
<polygon fill="midnightblue" stroke="midnightblue" points="809.07,-56.87 799.79,-61.99 810.23,-63.78 809.07,-56.87"/>
</g>
<!-- Node8&#45;&gt;Node3 -->
<g id="edge12" class="edge">
<title>Node8&#45;&gt;Node3</title>
<path fill="none" stroke="midnightblue" d="M960.04,-60C967.71,-58.54 975.55,-57.15 983,-56 1116.63,-35.4 1275.75,-21.05 1353.49,-14.69"/>
<polygon fill="midnightblue" stroke="midnightblue" points="959.26,-56.59 950.12,-61.94 960.61,-63.46 959.26,-56.59"/>
</g>
<!-- Node9&#45;&gt;Node3 -->
<g id="edge14" class="edge">
<title>Node9&#45;&gt;Node3</title>
<path fill="none" stroke="midnightblue" d="M1121.01,-60.12C1128.73,-58.73 1136.56,-57.33 1144,-56 1216.91,-43.01 1301.52,-28.26 1353.15,-19.29"/>
<polygon fill="midnightblue" stroke="midnightblue" points="1120.17,-56.72 1110.95,-61.94 1121.41,-63.61 1120.17,-56.72"/>
</g>
<!-- Node10&#45;&gt;Node3 -->
<g id="edge16" class="edge">
<title>Node10&#45;&gt;Node3</title>
<path fill="none" stroke="midnightblue" d="M1265.85,-58.58C1298.7,-47.02 1347.74,-29.75 1376.83,-19.51"/>
<polygon fill="midnightblue" stroke="midnightblue" points="1264.48,-55.35 1256.21,-61.98 1266.81,-61.96 1264.48,-55.35"/>
</g>
<!-- Node11&#45;&gt;Node3 -->
<g id="edge18" class="edge">
<title>Node11&#45;&gt;Node3</title>
<path fill="none" stroke="midnightblue" d="M1401,-46.29C1401,-36.86 1401,-26.65 1401,-19.66"/>
<polygon fill="midnightblue" stroke="midnightblue" points="1397.5,-46.4 1401,-56.4 1404.5,-46.4 1397.5,-46.4"/>
</g>
<!-- Node12&#45;&gt;Node3 -->
<g id="edge20" class="edge">
<title>Node12&#45;&gt;Node3</title>
<path fill="none" stroke="midnightblue" d="M1518.02,-52.94C1487.43,-41.98 1449.4,-28.35 1425.15,-19.66"/>
<polygon fill="midnightblue" stroke="midnightblue" points="1517.07,-56.32 1527.66,-56.4 1519.43,-49.73 1517.07,-56.32"/>
</g>
<!-- Node13&#45;&gt;Node3 -->
<g id="edge22" class="edge">
<title>Node13&#45;&gt;Node3</title>
<path fill="none" stroke="midnightblue" d="M1650.74,-54.83C1586.02,-43.47 1501.01,-28.55 1448.73,-19.38"/>
<polygon fill="midnightblue" stroke="midnightblue" points="1650.49,-58.34 1660.95,-56.62 1651.7,-51.45 1650.49,-58.34"/>
</g>
<!-- Node14&#45;&gt;Node3 -->
<g id="edge24" class="edge">
<title>Node14&#45;&gt;Node3</title>
<path fill="none" stroke="midnightblue" d="M1826.58,-55.86C1683.19,-36.77 1526.03,-21.98 1448.82,-15.12"/>
<polygon fill="midnightblue" stroke="midnightblue" points="1826.5,-59.38 1836.88,-57.24 1827.43,-52.44 1826.5,-59.38"/>
</g>
<!-- Node15&#45;&gt;Node3 -->
<g id="edge26" class="edge">
<title>Node15&#45;&gt;Node3</title>
<path fill="none" stroke="midnightblue" d="M2034.95,-60.34C2024.67,-58.73 2014.03,-57.2 2004,-56 1798.13,-31.41 1551.01,-17.98 1448.82,-13.12"/>
<polygon fill="midnightblue" stroke="midnightblue" points="2034.64,-63.84 2045.07,-61.97 2035.76,-56.93 2034.64,-63.84"/>
</g>
<!-- Node16&#45;&gt;Node3 -->
<g id="edge28" class="edge">
<title>Node16&#45;&gt;Node3</title>
<path fill="none" stroke="midnightblue" d="M2178.85,-55.83C1896.86,-24.85 1569.29,-14.79 1448.63,-11.97"/>
<polygon fill="midnightblue" stroke="midnightblue" points="2178.54,-59.32 2188.86,-56.94 2179.31,-52.36 2178.54,-59.32"/>
</g>
<!-- Node17&#45;&gt;Node3 -->
<g id="edge30" class="edge">
<title>Node17&#45;&gt;Node3</title>
<path fill="none" stroke="midnightblue" d="M2354.44,-55.92C2001.48,-18.3 1587.5,-12.2 1448.86,-11.2"/>
<polygon fill="midnightblue" stroke="midnightblue" points="2354.29,-59.43 2364.61,-57.02 2355.04,-52.47 2354.29,-59.43"/>
</g>
<!-- Node18&#45;&gt;Node3 -->
<g id="edge32" class="edge">
<title>Node18&#45;&gt;Node3</title>
<path fill="none" stroke="midnightblue" d="M2524.66,-55.95C2102.14,-14.27 1602.67,-10.87 1448.57,-10.87"/>
<polygon fill="midnightblue" stroke="midnightblue" points="2524.32,-59.43 2534.62,-56.94 2525.02,-52.47 2524.32,-59.43"/>
</g>
<!-- Node19&#45;&gt;Node3 -->
<g id="edge34" class="edge">
<title>Node19&#45;&gt;Node3</title>
<path fill="none" stroke="midnightblue" d="M2705.13,-56.05C2434.6,-29.49 1650.15,-15.1 1448.62,-11.76"/>
<polygon fill="midnightblue" stroke="midnightblue" points="2705.01,-59.56 2715.31,-57.08 2705.71,-52.59 2705.01,-59.56"/>
</g>
</g>
</svg>
        <g id="navigator" transform="translate(0 0)" fill="#404254">
                <rect fill="#f2f5e9" fill-opacity="0.5" stroke="#606060" stroke-width=".5" x="0" y="0" width="60" height="60"/>
                <use id="zoomplus" xlink:href="#zoomPlus" x="17" y="9" onmousedown="handleZoom(evt,'in')"/>
                <use id="zoomminus" xlink:href="#zoomMin" x="42" y="9" onmousedown="handleZoom(evt,'out')"/>
                <use id="reset" xlink:href="#resetDef" x="30" y="36" onmousedown="handleReset()"/>
                <g id="arrowUp" xlink:href="#dirArrow" transform="translate(30 24)" onmousedown="handlePan(0,-1)">
                  <use xlink:href="#rim" fill="#404040">
                        <set attributeName="fill" to="#808080" begin="arrowUp.mouseover" end="arrowUp.mouseout"/>
                  </use>
                  <path fill="none" stroke="white" stroke-width="1.5" d="M0,-3.0v7 M-2.5,-0.5L0,-3.0L2.5,-0.5"/>
                </g>
                <g id="arrowRight" xlink:href="#dirArrow" transform="rotate(90) translate(36 -43)" onmousedown="handlePan(1,0)">
                  <use xlink:href="#rim" fill="#404040">
                        <set attributeName="fill" to="#808080" begin="arrowRight.mouseover" end="arrowRight.mouseout"/>
                  </use>
                  <path fill="none" stroke="white" stroke-width="1.5" d="M0,-3.0v7 M-2.5,-0.5L0,-3.0L2.5,-0.5"/>
                </g>
                <g id="arrowDown" xlink:href="#dirArrow" transform="rotate(180) translate(-30 -48)" onmousedown="handlePan(0,1)">
                  <use xlink:href="#rim" fill="#404040">
                        <set attributeName="fill" to="#808080" begin="arrowDown.mouseover" end="arrowDown.mouseout"/>
                  </use>
                  <path fill="none" stroke="white" stroke-width="1.5" d="M0,-3.0v7 M-2.5,-0.5L0,-3.0L2.5,-0.5"/>
                </g>
                <g id="arrowLeft" xlink:href="#dirArrow" transform="rotate(270) translate(-36 17)" onmousedown="handlePan(-1,0)">
                  <use xlink:href="#rim" fill="#404040">
                        <set attributeName="fill" to="#808080" begin="arrowLeft.mouseover" end="arrowLeft.mouseout"/>
                  </use>
                  <path fill="none" stroke="white" stroke-width="1.5" d="M0,-3.0v7 M-2.5,-0.5L0,-3.0L2.5,-0.5"/>
                </g>
        </g>
        <svg viewBox="0 0 15 15" width="100%" height="30px" preserveAspectRatio="xMaxYMin meet">
         <g id="arrow_out" transform="scale(0.3 0.3)">
          <a xlink:href="sitkExplicit_8h__dep__incl_org.svg" target="_base">
           <rect id="button" ry="5" rx="5" y="6" x="6" height="38" width="38"
                fill="#f2f5e9" fill-opacity="0.5" stroke="#606060" stroke-width="1.0"/>
           <path id="arrow"
             d="M 11.500037,31.436501 C 11.940474,20.09759 22.043105,11.32322 32.158766,21.979434 L 37.068811,17.246167 C 37.068811,17.246167 37.088388,32 37.088388,32 L 22.160133,31.978069 C 22.160133,31.978069 26.997745,27.140456 26.997745,27.140456 C 18.528582,18.264221 13.291696,25.230495 11.500037,31.436501 z"
             style="fill:#404040;"/>
          </a>
         </g>
        </svg>
</svg>
