<?xml version="1.0" encoding="UTF-8" standalone="no"?>
<!DOCTYPE svg PUBLIC "-//W3C//DTD SVG 1.1//EN"
 "http://www.w3.org/Graphics/SVG/1.1/DTD/svg11.dtd">
<!-- Generated by graphviz version 2.43.0 (0)
 -->
<!-- Title: sitkImageFileWriter.h Pages: 1 -->
<svg width="1655pt" height="543pt"
 viewBox="0.00 0.00 1654.77 543.00" xmlns="http://www.w3.org/2000/svg" xmlns:xlink="http://www.w3.org/1999/xlink">
<g id="graph0" class="graph" transform="scale(1 1) rotate(0) translate(4 539)">
<title>sitkImageFileWriter.h</title>
<polygon fill="white" stroke="transparent" points="-4,4 -4,-539 1650.77,-539 1650.77,4 -4,4"/>
<!-- Node1 -->
<g id="node1" class="node">
<title>Node1</title>
<g id="a_node1"><a xlink:title=" ">
<polygon fill="#bfbfbf" stroke="black" points="1352.5,-515.5 1352.5,-534.5 1473.5,-534.5 1473.5,-515.5 1352.5,-515.5"/>
<text text-anchor="middle" x="1413" y="-522.5" font-family="Helvetica,sans-Serif" font-size="10.00">sitkImageFileWriter.h</text>
</a>
</g>
</g>
<!-- Node2 -->
<g id="node2" class="node">
<title>Node2</title>
<g id="a_node2"><a xlink:href="sitkMacro_8h.html" target="_top" xlink:title=" ">
<polygon fill="white" stroke="black" points="986,-56.5 986,-75.5 1060,-75.5 1060,-56.5 986,-56.5"/>
<text text-anchor="middle" x="1023" y="-63.5" font-family="Helvetica,sans-Serif" font-size="10.00">sitkMacro.h</text>
</a>
</g>
</g>
<!-- Node1&#45;&gt;Node2 -->
<g id="edge1" class="edge">
<title>Node1&#45;&gt;Node2</title>
<path fill="none" stroke="midnightblue" d="M1473.66,-518.19C1528.87,-511.7 1605.03,-499.34 1627,-479 1649.09,-458.55 1646,-444.1 1646,-414 1646,-414 1646,-414 1646,-177 1646,-119.45 1588.87,-129.38 1534,-112 1448.26,-84.83 1179.71,-72.52 1070.2,-68.54"/>
<polygon fill="midnightblue" stroke="midnightblue" points="1070.23,-65.04 1060.11,-68.18 1069.98,-72.03 1070.23,-65.04"/>
</g>
<!-- Node9 -->
<g id="node9" class="node">
<title>Node9</title>
<g id="a_node9"><a xlink:href="sitkImage_8h.html" target="_top" xlink:title=" ">
<polygon fill="white" stroke="black" points="1203,-347.5 1203,-366.5 1277,-366.5 1277,-347.5 1203,-347.5"/>
<text text-anchor="middle" x="1240" y="-354.5" font-family="Helvetica,sans-Serif" font-size="10.00">sitkImage.h</text>
</a>
</g>
</g>
<!-- Node1&#45;&gt;Node9 -->
<g id="edge8" class="edge">
<title>Node1&#45;&gt;Node9</title>
<path fill="none" stroke="midnightblue" d="M1352.46,-522.75C1285.5,-517.57 1181.93,-497.24 1143,-423 1129.41,-397.08 1162,-379.72 1193,-369.51"/>
<polygon fill="midnightblue" stroke="midnightblue" points="1194.43,-372.74 1202.95,-366.45 1192.37,-366.05 1194.43,-372.74"/>
</g>
<!-- Node32 -->
<g id="node32" class="node">
<title>Node32</title>
<g id="a_node32"><a xlink:title=" ">
<polygon fill="white" stroke="#bfbfbf" points="1476,-291.5 1476,-310.5 1534,-310.5 1534,-291.5 1476,-291.5"/>
<text text-anchor="middle" x="1505" y="-298.5" font-family="Helvetica,sans-Serif" font-size="10.00">memory</text>
</a>
</g>
</g>
<!-- Node1&#45;&gt;Node32 -->
<g id="edge76" class="edge">
<title>Node1&#45;&gt;Node32</title>
<path fill="none" stroke="midnightblue" d="M1417.13,-515.44C1425.41,-498.13 1444.53,-457.67 1459,-423 1474.09,-386.85 1489.95,-343.83 1498.55,-320.06"/>
<polygon fill="midnightblue" stroke="midnightblue" points="1501.86,-321.18 1501.95,-310.58 1495.27,-318.81 1501.86,-321.18"/>
</g>
<!-- Node33 -->
<g id="node33" class="node">
<title>Node33</title>
<g id="a_node33"><a xlink:href="sitkMemberFunctionFactory_8h.html" target="_top" xlink:title=" ">
<polygon fill="white" stroke="black" points="627.5,-347.5 627.5,-366.5 786.5,-366.5 786.5,-347.5 627.5,-347.5"/>
<text text-anchor="middle" x="707" y="-354.5" font-family="Helvetica,sans-Serif" font-size="10.00">sitkMemberFunctionFactory.h</text>
</a>
</g>
</g>
<!-- Node1&#45;&gt;Node33 -->
<g id="edge53" class="edge">
<title>Node1&#45;&gt;Node33</title>
<path fill="none" stroke="midnightblue" d="M1352.48,-520.92C1242.84,-513.79 1005.32,-491.16 818,-423 783.66,-410.51 747.87,-387.43 726.52,-372.4"/>
<polygon fill="midnightblue" stroke="midnightblue" points="728.46,-369.49 718.29,-366.51 724.38,-375.18 728.46,-369.49"/>
</g>
<!-- Node35 -->
<g id="node35" class="node">
<title>Node35</title>
<g id="a_node35"><a xlink:href="sitkIO_8h.html" target="_top" xlink:title=" ">
<polygon fill="white" stroke="black" points="1564,-459.5 1564,-478.5 1618,-478.5 1618,-459.5 1564,-459.5"/>
<text text-anchor="middle" x="1591" y="-466.5" font-family="Helvetica,sans-Serif" font-size="10.00">sitkIO.h</text>
</a>
</g>
</g>
<!-- Node1&#45;&gt;Node35 -->
<g id="edge62" class="edge">
<title>Node1&#45;&gt;Node35</title>
<path fill="none" stroke="midnightblue" d="M1441.2,-515.44C1471.68,-506.2 1520.36,-491.43 1553.91,-481.25"/>
<polygon fill="midnightblue" stroke="midnightblue" points="1555.25,-484.5 1563.8,-478.25 1553.22,-477.8 1555.25,-484.5"/>
</g>
<!-- Node36 -->
<g id="node36" class="node">
<title>Node36</title>
<g id="a_node36"><a xlink:href="sitkProcessObject_8h.html" target="_top" xlink:title=" ">
<polygon fill="white" stroke="black" points="1233.5,-459.5 1233.5,-478.5 1346.5,-478.5 1346.5,-459.5 1233.5,-459.5"/>
<text text-anchor="middle" x="1290" y="-466.5" font-family="Helvetica,sans-Serif" font-size="10.00">sitkProcessObject.h</text>
</a>
</g>
</g>
<!-- Node1&#45;&gt;Node36 -->
<g id="edge64" class="edge">
<title>Node1&#45;&gt;Node36</title>
<path fill="none" stroke="midnightblue" d="M1393.51,-515.44C1373.36,-506.6 1341.68,-492.69 1318.67,-482.59"/>
<polygon fill="midnightblue" stroke="midnightblue" points="1319.96,-479.33 1309.4,-478.52 1317.15,-485.74 1319.96,-479.33"/>
</g>
<!-- Node3 -->
<g id="node3" class="node">
<title>Node3</title>
<g id="a_node3"><a xlink:title=" ">
<polygon fill="white" stroke="#bfbfbf" points="764.5,-0.5 764.5,-19.5 817.5,-19.5 817.5,-0.5 764.5,-0.5"/>
<text text-anchor="middle" x="791" y="-7.5" font-family="Helvetica,sans-Serif" font-size="10.00">stdint.h</text>
</a>
</g>
</g>
<!-- Node2&#45;&gt;Node3 -->
<g id="edge2" class="edge">
<title>Node2&#45;&gt;Node3</title>
<path fill="none" stroke="midnightblue" d="M986.24,-56.44C942.83,-46.34 871.06,-29.63 827.68,-19.54"/>
<polygon fill="midnightblue" stroke="midnightblue" points="828.36,-16.1 817.82,-17.24 826.77,-22.92 828.36,-16.1"/>
</g>
<!-- Node4 -->
<g id="node4" class="node">
<title>Node4</title>
<g id="a_node4"><a xlink:title=" ">
<polygon fill="white" stroke="#bfbfbf" points="921,-0.5 921,-19.5 977,-19.5 977,-0.5 921,-0.5"/>
<text text-anchor="middle" x="949" y="-7.5" font-family="Helvetica,sans-Serif" font-size="10.00">stddef.h</text>
</a>
</g>
</g>
<!-- Node2&#45;&gt;Node4 -->
<g id="edge3" class="edge">
<title>Node2&#45;&gt;Node4</title>
<path fill="none" stroke="midnightblue" d="M1011.11,-56.32C999.85,-48.11 982.71,-35.6 969.29,-25.81"/>
<polygon fill="midnightblue" stroke="midnightblue" points="971.25,-22.9 961.11,-19.83 967.12,-28.56 971.25,-22.9"/>
</g>
<!-- Node5 -->
<g id="node5" class="node">
<title>Node5</title>
<g id="a_node5"><a xlink:title=" ">
<polygon fill="white" stroke="#bfbfbf" points="280,-0.5 280,-19.5 332,-19.5 332,-0.5 280,-0.5"/>
<text text-anchor="middle" x="306" y="-7.5" font-family="Helvetica,sans-Serif" font-size="10.00">cassert</text>
</a>
</g>
</g>
<!-- Node2&#45;&gt;Node5 -->
<g id="edge4" class="edge">
<title>Node2&#45;&gt;Node5</title>
<path fill="none" stroke="midnightblue" d="M985.96,-62.21C862.37,-52.9 465.03,-22.98 342.4,-13.74"/>
<polygon fill="midnightblue" stroke="midnightblue" points="342.29,-10.22 332.06,-12.96 341.77,-17.2 342.29,-10.22"/>
</g>
<!-- Node6 -->
<g id="node6" class="node">
<title>Node6</title>
<g id="a_node6"><a xlink:title=" ">
<polygon fill="white" stroke="#bfbfbf" points="995,-0.5 995,-19.5 1051,-19.5 1051,-0.5 995,-0.5"/>
<text text-anchor="middle" x="1023" y="-7.5" font-family="Helvetica,sans-Serif" font-size="10.00">sstream</text>
</a>
</g>
</g>
<!-- Node2&#45;&gt;Node6 -->
<g id="edge5" class="edge">
<title>Node2&#45;&gt;Node6</title>
<path fill="none" stroke="midnightblue" d="M1023,-56.08C1023,-49.01 1023,-38.86 1023,-29.99"/>
<polygon fill="midnightblue" stroke="midnightblue" points="1026.5,-29.75 1023,-19.75 1019.5,-29.75 1026.5,-29.75"/>
</g>
<!-- Node7 -->
<g id="node7" class="node">
<title>Node7</title>
<g id="a_node7"><a xlink:title=" ">
<polygon fill="white" stroke="#bfbfbf" points="1069,-0.5 1069,-19.5 1113,-19.5 1113,-0.5 1069,-0.5"/>
<text text-anchor="middle" x="1091" y="-7.5" font-family="Helvetica,sans-Serif" font-size="10.00">limits</text>
</a>
</g>
</g>
<!-- Node2&#45;&gt;Node7 -->
<g id="edge6" class="edge">
<title>Node2&#45;&gt;Node7</title>
<path fill="none" stroke="midnightblue" d="M1033.93,-56.32C1044.17,-48.18 1059.72,-35.84 1072,-26.09"/>
<polygon fill="midnightblue" stroke="midnightblue" points="1074.22,-28.79 1079.88,-19.83 1069.87,-23.31 1074.22,-28.79"/>
</g>
<!-- Node8 -->
<g id="node8" class="node">
<title>Node8</title>
<g id="a_node8"><a xlink:href="sitkConfigure_8h.html" target="_top" xlink:title=" ">
<polygon fill="white" stroke="black" points="613,-0.5 613,-19.5 703,-19.5 703,-0.5 613,-0.5"/>
<text text-anchor="middle" x="658" y="-7.5" font-family="Helvetica,sans-Serif" font-size="10.00">sitkConfigure.h</text>
</a>
</g>
</g>
<!-- Node2&#45;&gt;Node8 -->
<g id="edge7" class="edge">
<title>Node2&#45;&gt;Node8</title>
<path fill="none" stroke="midnightblue" d="M985.99,-59.53C921.6,-50 788.64,-30.33 713.27,-19.18"/>
<polygon fill="midnightblue" stroke="midnightblue" points="713.44,-15.66 703.04,-17.66 712.42,-22.59 713.44,-15.66"/>
</g>
<!-- Node10 -->
<g id="node10" class="node">
<title>Node10</title>
<g id="a_node10"><a xlink:href="sitkCommon_8h.html" target="_top" xlink:title=" ">
<polygon fill="white" stroke="black" points="1107,-112.5 1107,-131.5 1195,-131.5 1195,-112.5 1107,-112.5"/>
<text text-anchor="middle" x="1151" y="-119.5" font-family="Helvetica,sans-Serif" font-size="10.00">sitkCommon.h</text>
</a>
</g>
</g>
<!-- Node9&#45;&gt;Node10 -->
<g id="edge9" class="edge">
<title>Node9&#45;&gt;Node10</title>
<path fill="none" stroke="midnightblue" d="M1233.52,-347.34C1221.24,-330.49 1194.63,-291.75 1181,-255 1167.32,-218.14 1174.41,-206.17 1165,-168 1162.79,-159.05 1159.82,-149.27 1157.18,-141.11"/>
<polygon fill="midnightblue" stroke="midnightblue" points="1160.47,-139.92 1153.99,-131.54 1153.83,-142.13 1160.47,-139.92"/>
</g>
<!-- Node11 -->
<g id="node11" class="node">
<title>Node11</title>
<g id="a_node11"><a xlink:href="sitkTemplateFunctions_8h.html" target="_top" xlink:title=" ">
<polygon fill="white" stroke="black" points="1436.5,-230 1436.5,-249 1571.5,-249 1571.5,-230 1436.5,-230"/>
<text text-anchor="middle" x="1504" y="-237" font-family="Helvetica,sans-Serif" font-size="10.00">sitkTemplateFunctions.h</text>
</a>
</g>
</g>
<!-- Node9&#45;&gt;Node11 -->
<g id="edge11" class="edge">
<title>Node9&#45;&gt;Node11</title>
<path fill="none" stroke="midnightblue" d="M1275.97,-347.49C1306.07,-339.76 1349.77,-327.12 1386,-311 1421.83,-295.05 1460.29,-270.52 1483.24,-255"/>
<polygon fill="midnightblue" stroke="midnightblue" points="1485.51,-257.69 1491.79,-249.15 1481.56,-251.91 1485.51,-257.69"/>
</g>
<!-- Node13 -->
<g id="node13" class="node">
<title>Node13</title>
<g id="a_node13"><a xlink:title=" ">
<polygon fill="white" stroke="#bfbfbf" points="1373.5,-168.5 1373.5,-187.5 1420.5,-187.5 1420.5,-168.5 1373.5,-168.5"/>
<text text-anchor="middle" x="1397" y="-175.5" font-family="Helvetica,sans-Serif" font-size="10.00">vector</text>
</a>
</g>
</g>
<!-- Node9&#45;&gt;Node13 -->
<g id="edge50" class="edge">
<title>Node9&#45;&gt;Node13</title>
<path fill="none" stroke="midnightblue" d="M1263.15,-347.47C1296.92,-333.7 1358.81,-303.15 1388,-255 1398.42,-237.81 1399.67,-214.4 1398.94,-198.12"/>
<polygon fill="midnightblue" stroke="midnightblue" points="1402.4,-197.43 1398.17,-187.72 1395.42,-197.95 1402.4,-197.43"/>
</g>
<!-- Node16 -->
<g id="node16" class="node">
<title>Node16</title>
<g id="a_node16"><a xlink:href="sitkDetail_8h.html" target="_top" xlink:title=" ">
<polygon fill="white" stroke="black" points="670.5,-291.5 670.5,-310.5 743.5,-310.5 743.5,-291.5 670.5,-291.5"/>
<text text-anchor="middle" x="707" y="-298.5" font-family="Helvetica,sans-Serif" font-size="10.00">sitkDetail.h</text>
</a>
</g>
</g>
<!-- Node9&#45;&gt;Node16 -->
<g id="edge20" class="edge">
<title>Node9&#45;&gt;Node16</title>
<path fill="none" stroke="midnightblue" d="M1202.94,-352.25C1108.45,-342.67 858.61,-317.36 754.06,-306.77"/>
<polygon fill="midnightblue" stroke="midnightblue" points="754.11,-303.26 743.81,-305.73 753.41,-310.22 754.11,-303.26"/>
</g>
<!-- Node27 -->
<g id="node27" class="node">
<title>Node27</title>
<g id="a_node27"><a xlink:href="sitkPixelIDTokens_8h.html" target="_top" xlink:title=" ">
<polygon fill="white" stroke="black" points="898,-291.5 898,-310.5 1008,-310.5 1008,-291.5 898,-291.5"/>
<text text-anchor="middle" x="953" y="-298.5" font-family="Helvetica,sans-Serif" font-size="10.00">sitkPixelIDTokens.h</text>
</a>
</g>
</g>
<!-- Node9&#45;&gt;Node27 -->
<g id="edge39" class="edge">
<title>Node9&#45;&gt;Node27</title>
<path fill="none" stroke="midnightblue" d="M1202.77,-349C1153.27,-339.68 1065.37,-323.14 1008.15,-312.38"/>
<polygon fill="midnightblue" stroke="midnightblue" points="1008.67,-308.91 998.19,-310.5 1007.37,-315.79 1008.67,-308.91"/>
</g>
<!-- Node30 -->
<g id="node30" class="node">
<title>Node30</title>
<g id="a_node30"><a xlink:title=" ">
<polygon fill="white" stroke="#bfbfbf" points="1026.5,-230 1026.5,-249 1095.5,-249 1095.5,-230 1026.5,-230"/>
<text text-anchor="middle" x="1061" y="-237" font-family="Helvetica,sans-Serif" font-size="10.00">type_traits</text>
</a>
</g>
</g>
<!-- Node9&#45;&gt;Node30 -->
<g id="edge52" class="edge">
<title>Node9&#45;&gt;Node30</title>
<path fill="none" stroke="midnightblue" d="M1219.19,-347.44C1200.06,-339.19 1171.23,-325.82 1148,-311 1122.04,-294.44 1094.9,-271.38 1077.98,-256.21"/>
<polygon fill="midnightblue" stroke="midnightblue" points="1079.87,-253.2 1070.12,-249.07 1075.17,-258.38 1079.87,-253.2"/>
</g>
<!-- Node31 -->
<g id="node31" class="node">
<title>Node31</title>
<g id="a_node31"><a xlink:href="sitkInterpolator_8h.html" target="_top" xlink:title=" ">
<polygon fill="white" stroke="black" points="1190,-230 1190,-249 1290,-249 1290,-230 1190,-230"/>
<text text-anchor="middle" x="1240" y="-237" font-family="Helvetica,sans-Serif" font-size="10.00">sitkInterpolator.h</text>
</a>
</g>
</g>
<!-- Node9&#45;&gt;Node31 -->
<g id="edge47" class="edge">
<title>Node9&#45;&gt;Node31</title>
<path fill="none" stroke="midnightblue" d="M1240,-347.32C1240,-328.76 1240,-284.84 1240,-259.47"/>
<polygon fill="midnightblue" stroke="midnightblue" points="1243.5,-259.28 1240,-249.28 1236.5,-259.28 1243.5,-259.28"/>
</g>
<!-- Node9&#45;&gt;Node32 -->
<g id="edge51" class="edge">
<title>Node9&#45;&gt;Node32</title>
<path fill="none" stroke="midnightblue" d="M1277.13,-348.43C1326.97,-338.28 1415.11,-320.32 1465.92,-309.96"/>
<polygon fill="midnightblue" stroke="midnightblue" points="1466.77,-313.36 1475.87,-307.94 1465.37,-306.5 1466.77,-313.36"/>
</g>
<!-- Node10&#45;&gt;Node2 -->
<g id="edge10" class="edge">
<title>Node10&#45;&gt;Node2</title>
<path fill="none" stroke="midnightblue" d="M1130.72,-112.44C1109.65,-103.56 1076.48,-89.56 1052.51,-79.45"/>
<polygon fill="midnightblue" stroke="midnightblue" points="1053.76,-76.18 1043.19,-75.52 1051.04,-82.63 1053.76,-76.18"/>
</g>
<!-- Node11&#45;&gt;Node2 -->
<g id="edge12" class="edge">
<title>Node11&#45;&gt;Node2</title>
<path fill="none" stroke="midnightblue" d="M1514.04,-229.97C1529.36,-215.95 1555.15,-187.62 1539,-168 1479.73,-96 1186.34,-74.59 1070.33,-68.88"/>
<polygon fill="midnightblue" stroke="midnightblue" points="1070.47,-65.39 1060.32,-68.41 1070.14,-72.38 1070.47,-65.39"/>
</g>
<!-- Node11&#45;&gt;Node10 -->
<g id="edge13" class="edge">
<title>Node11&#45;&gt;Node10</title>
<path fill="none" stroke="midnightblue" d="M1497.69,-229.85C1486.02,-214.57 1459.46,-183 1429,-168 1357.21,-132.65 1263.58,-124.11 1205.38,-122.55"/>
<polygon fill="midnightblue" stroke="midnightblue" points="1205.37,-119.04 1195.29,-122.33 1205.22,-126.04 1205.37,-119.04"/>
</g>
<!-- Node12 -->
<g id="node12" class="node">
<title>Node12</title>
<g id="a_node12"><a xlink:href="sitkExceptionObject_8h.html" target="_top" xlink:title=" ">
<polygon fill="white" stroke="black" points="961.5,-168.5 961.5,-187.5 1084.5,-187.5 1084.5,-168.5 961.5,-168.5"/>
<text text-anchor="middle" x="1023" y="-175.5" font-family="Helvetica,sans-Serif" font-size="10.00">sitkExceptionObject.h</text>
</a>
</g>
</g>
<!-- Node11&#45;&gt;Node12 -->
<g id="edge14" class="edge">
<title>Node11&#45;&gt;Node12</title>
<path fill="none" stroke="midnightblue" d="M1436.22,-230.01C1420.4,-228.03 1403.61,-225.94 1388,-224 1286.18,-211.36 1168.37,-196.86 1094.77,-187.81"/>
<polygon fill="midnightblue" stroke="midnightblue" points="1095.03,-184.32 1084.68,-186.57 1094.18,-191.27 1095.03,-184.32"/>
</g>
<!-- Node11&#45;&gt;Node13 -->
<g id="edge17" class="edge">
<title>Node11&#45;&gt;Node13</title>
<path fill="none" stroke="midnightblue" d="M1488.67,-229.98C1471.03,-220.17 1441.84,-203.93 1421.14,-192.42"/>
<polygon fill="midnightblue" stroke="midnightblue" points="1422.74,-189.31 1412.3,-187.51 1419.34,-195.43 1422.74,-189.31"/>
</g>
<!-- Node14 -->
<g id="node14" class="node">
<title>Node14</title>
<g id="a_node14"><a xlink:title=" ">
<polygon fill="white" stroke="#bfbfbf" points="1258.5,-168.5 1258.5,-187.5 1315.5,-187.5 1315.5,-168.5 1258.5,-168.5"/>
<text text-anchor="middle" x="1287" y="-175.5" font-family="Helvetica,sans-Serif" font-size="10.00">ostream</text>
</a>
</g>
</g>
<!-- Node11&#45;&gt;Node14 -->
<g id="edge18" class="edge">
<title>Node11&#45;&gt;Node14</title>
<path fill="none" stroke="midnightblue" d="M1472.91,-229.98C1434.04,-219.32 1367.52,-201.08 1325.48,-189.55"/>
<polygon fill="midnightblue" stroke="midnightblue" points="1326.18,-186.11 1315.61,-186.85 1324.33,-192.86 1326.18,-186.11"/>
</g>
<!-- Node15 -->
<g id="node15" class="node">
<title>Node15</title>
<g id="a_node15"><a xlink:title=" ">
<polygon fill="white" stroke="#bfbfbf" points="1477.5,-168.5 1477.5,-187.5 1530.5,-187.5 1530.5,-168.5 1477.5,-168.5"/>
<text text-anchor="middle" x="1504" y="-175.5" font-family="Helvetica,sans-Serif" font-size="10.00">iterator</text>
</a>
</g>
</g>
<!-- Node11&#45;&gt;Node15 -->
<g id="edge19" class="edge">
<title>Node11&#45;&gt;Node15</title>
<path fill="none" stroke="midnightblue" d="M1504,-229.98C1504,-221.58 1504,-208.48 1504,-197.66"/>
<polygon fill="midnightblue" stroke="midnightblue" points="1507.5,-197.51 1504,-187.51 1500.5,-197.51 1507.5,-197.51"/>
</g>
<!-- Node12&#45;&gt;Node2 -->
<g id="edge15" class="edge">
<title>Node12&#45;&gt;Node2</title>
<path fill="none" stroke="midnightblue" d="M1023,-168.37C1023,-150.62 1023,-109.67 1023,-85.6"/>
<polygon fill="midnightblue" stroke="midnightblue" points="1026.5,-85.59 1023,-75.59 1019.5,-85.59 1026.5,-85.59"/>
</g>
<!-- Node12&#45;&gt;Node10 -->
<g id="edge16" class="edge">
<title>Node12&#45;&gt;Node10</title>
<path fill="none" stroke="midnightblue" d="M1043.28,-168.44C1064.35,-159.56 1097.52,-145.56 1121.49,-135.45"/>
<polygon fill="midnightblue" stroke="midnightblue" points="1122.96,-138.63 1130.81,-131.52 1120.24,-132.18 1122.96,-138.63"/>
</g>
<!-- Node17 -->
<g id="node17" class="node">
<title>Node17</title>
<g id="a_node17"><a xlink:href="sitkMemberFunctionFactoryBase_8h.html" target="_top" xlink:title=" ">
<polygon fill="white" stroke="black" points="335,-224.5 335,-254.5 487,-254.5 487,-224.5 335,-224.5"/>
<text text-anchor="start" x="343" y="-242.5" font-family="Helvetica,sans-Serif" font-size="10.00">sitkMemberFunctionFactory</text>
<text text-anchor="middle" x="411" y="-231.5" font-family="Helvetica,sans-Serif" font-size="10.00">Base.h</text>
</a>
</g>
</g>
<!-- Node16&#45;&gt;Node17 -->
<g id="edge21" class="edge">
<title>Node16&#45;&gt;Node17</title>
<path fill="none" stroke="midnightblue" d="M670.41,-292.64C625.81,-283.68 549.18,-268.28 490.74,-256.53"/>
<polygon fill="midnightblue" stroke="midnightblue" points="491.28,-253.07 480.79,-254.53 489.9,-259.93 491.28,-253.07"/>
</g>
<!-- Node23 -->
<g id="node23" class="node">
<title>Node23</title>
<g id="a_node23"><a xlink:title=" ">
<polygon fill="white" stroke="#bfbfbf" points="397.5,-168.5 397.5,-187.5 536.5,-187.5 536.5,-168.5 397.5,-168.5"/>
<text text-anchor="middle" x="467" y="-175.5" font-family="Helvetica,sans-Serif" font-size="10.00">Ancillary/FunctionTraits.h</text>
</a>
</g>
</g>
<!-- Node16&#45;&gt;Node23 -->
<g id="edge38" class="edge">
<title>Node16&#45;&gt;Node23</title>
<path fill="none" stroke="midnightblue" d="M690.12,-291.49C648.91,-270.71 542.9,-217.27 493.31,-192.26"/>
<polygon fill="midnightblue" stroke="midnightblue" points="494.68,-189.04 484.18,-187.66 491.53,-195.29 494.68,-189.04"/>
</g>
<!-- Node17&#45;&gt;Node2 -->
<g id="edge30" class="edge">
<title>Node17&#45;&gt;Node2</title>
<path fill="none" stroke="midnightblue" d="M487.28,-230.78C543.37,-223.61 620.86,-210.53 686,-188 704.04,-181.76 706.46,-175.52 724,-168 814.02,-129.4 924.12,-95.46 982.36,-78.49"/>
<polygon fill="midnightblue" stroke="midnightblue" points="983.64,-81.76 992.27,-75.62 981.69,-75.04 983.64,-81.76"/>
</g>
<!-- Node17&#45;&gt;Node8 -->
<g id="edge22" class="edge">
<title>Node17&#45;&gt;Node8</title>
<path fill="none" stroke="midnightblue" d="M334.82,-230.19C281.46,-222.61 216.8,-209.29 200,-188 194.49,-181.02 195.72,-175.79 200,-168 239.86,-95.39 489.83,-41.52 602.75,-20.58"/>
<polygon fill="midnightblue" stroke="midnightblue" points="603.71,-23.96 612.91,-18.71 602.44,-17.07 603.71,-23.96"/>
</g>
<!-- Node18 -->
<g id="node18" class="node">
<title>Node18</title>
<g id="a_node18"><a xlink:href="sitkPixelIDTypes_8h.html" target="_top" xlink:title=" ">
<polygon fill="white" stroke="black" points="297.5,-112.5 297.5,-131.5 402.5,-131.5 402.5,-112.5 297.5,-112.5"/>
<text text-anchor="middle" x="350" y="-119.5" font-family="Helvetica,sans-Serif" font-size="10.00">sitkPixelIDTypes.h</text>
</a>
</g>
</g>
<!-- Node17&#45;&gt;Node18 -->
<g id="edge23" class="edge">
<title>Node17&#45;&gt;Node18</title>
<path fill="none" stroke="midnightblue" d="M388.26,-224.32C376.17,-215.47 362.33,-202.92 355,-188 347.9,-173.56 347.15,-155.11 347.88,-141.56"/>
<polygon fill="midnightblue" stroke="midnightblue" points="351.37,-141.78 348.73,-131.52 344.4,-141.19 351.37,-141.78"/>
</g>
<!-- Node19 -->
<g id="node19" class="node">
<title>Node19</title>
<g id="a_node19"><a xlink:href="sitkPixelIDTypeLists_8h.html" target="_top" xlink:title=" ">
<polygon fill="white" stroke="black" points="555,-168.5 555,-187.5 677,-187.5 677,-168.5 555,-168.5"/>
<text text-anchor="middle" x="616" y="-175.5" font-family="Helvetica,sans-Serif" font-size="10.00">sitkPixelIDTypeLists.h</text>
</a>
</g>
</g>
<!-- Node17&#45;&gt;Node19 -->
<g id="edge24" class="edge">
<title>Node17&#45;&gt;Node19</title>
<path fill="none" stroke="midnightblue" d="M459.32,-224.47C495.15,-214.08 543.38,-200.08 576.82,-190.37"/>
<polygon fill="midnightblue" stroke="midnightblue" points="578.06,-193.66 586.69,-187.51 576.11,-186.93 578.06,-193.66"/>
</g>
<!-- Node20 -->
<g id="node20" class="node">
<title>Node20</title>
<g id="a_node20"><a xlink:title=" ">
<polygon fill="white" stroke="#bfbfbf" points="457.5,-112.5 457.5,-131.5 568.5,-131.5 568.5,-112.5 457.5,-112.5"/>
<text text-anchor="middle" x="513" y="-119.5" font-family="Helvetica,sans-Serif" font-size="10.00">Ancillary/TypeList.h</text>
</a>
</g>
</g>
<!-- Node17&#45;&gt;Node20 -->
<g id="edge33" class="edge">
<title>Node17&#45;&gt;Node20</title>
<path fill="none" stroke="midnightblue" d="M399.52,-224.42C388.71,-209.35 375.86,-185.27 388,-168 401.75,-148.44 424.86,-137.34 447.49,-131.06"/>
<polygon fill="midnightblue" stroke="midnightblue" points="448.62,-134.39 457.48,-128.58 446.93,-127.59 448.62,-134.39"/>
</g>
<!-- Node22 -->
<g id="node22" class="node">
<title>Node22</title>
<g id="a_node22"><a xlink:href="sitkNonCopyable_8h.html" target="_top" xlink:title=" ">
<polygon fill="white" stroke="black" points="733.5,-168.5 733.5,-187.5 842.5,-187.5 842.5,-168.5 733.5,-168.5"/>
<text text-anchor="middle" x="788" y="-175.5" font-family="Helvetica,sans-Serif" font-size="10.00">sitkNonCopyable.h</text>
</a>
</g>
</g>
<!-- Node17&#45;&gt;Node22 -->
<g id="edge31" class="edge">
<title>Node17&#45;&gt;Node22</title>
<path fill="none" stroke="midnightblue" d="M487.29,-226.46C556.83,-215.48 658.41,-199.45 723.86,-189.12"/>
<polygon fill="midnightblue" stroke="midnightblue" points="724.71,-192.53 734.04,-187.52 723.62,-185.62 724.71,-192.53"/>
</g>
<!-- Node17&#45;&gt;Node23 -->
<g id="edge34" class="edge">
<title>Node17&#45;&gt;Node23</title>
<path fill="none" stroke="midnightblue" d="M424.27,-224.4C432.58,-215.58 443.3,-204.18 451.92,-195.02"/>
<polygon fill="midnightblue" stroke="midnightblue" points="454.55,-197.34 458.85,-187.66 449.45,-192.54 454.55,-197.34"/>
</g>
<!-- Node24 -->
<g id="node24" class="node">
<title>Node24</title>
<g id="a_node24"><a xlink:title=" ">
<polygon fill="white" stroke="#bfbfbf" points="209.5,-168.5 209.5,-187.5 302.5,-187.5 302.5,-168.5 209.5,-168.5"/>
<text text-anchor="middle" x="256" y="-175.5" font-family="Helvetica,sans-Serif" font-size="10.00">unordered_map</text>
</a>
</g>
</g>
<!-- Node17&#45;&gt;Node24 -->
<g id="edge35" class="edge">
<title>Node17&#45;&gt;Node24</title>
<path fill="none" stroke="midnightblue" d="M374.27,-224.4C348.03,-214.33 313.07,-200.91 287.98,-191.28"/>
<polygon fill="midnightblue" stroke="midnightblue" points="289.14,-187.97 278.55,-187.66 286.64,-194.51 289.14,-187.97"/>
</g>
<!-- Node25 -->
<g id="node25" class="node">
<title>Node25</title>
<g id="a_node25"><a xlink:title=" ">
<polygon fill="white" stroke="#bfbfbf" points="28.5,-168.5 28.5,-187.5 93.5,-187.5 93.5,-168.5 28.5,-168.5"/>
<text text-anchor="middle" x="61" y="-175.5" font-family="Helvetica,sans-Serif" font-size="10.00">functional</text>
</a>
</g>
</g>
<!-- Node17&#45;&gt;Node25 -->
<g id="edge36" class="edge">
<title>Node17&#45;&gt;Node25</title>
<path fill="none" stroke="midnightblue" d="M334.92,-227.24C274.64,-218.05 188.05,-204.24 103.65,-188.24"/>
<polygon fill="midnightblue" stroke="midnightblue" points="104.12,-184.77 93.64,-186.33 102.81,-191.64 104.12,-184.77"/>
</g>
<!-- Node26 -->
<g id="node26" class="node">
<title>Node26</title>
<g id="a_node26"><a xlink:title=" ">
<polygon fill="white" stroke="#bfbfbf" points="111.5,-168.5 111.5,-187.5 152.5,-187.5 152.5,-168.5 111.5,-168.5"/>
<text text-anchor="middle" x="132" y="-175.5" font-family="Helvetica,sans-Serif" font-size="10.00">tuple</text>
</a>
</g>
</g>
<!-- Node17&#45;&gt;Node26 -->
<g id="edge37" class="edge">
<title>Node17&#45;&gt;Node26</title>
<path fill="none" stroke="midnightblue" d="M338.74,-224.48C290.07,-214.81 224.52,-201.34 167,-188 165.55,-187.66 164.06,-187.31 162.57,-186.95"/>
<polygon fill="midnightblue" stroke="midnightblue" points="163.24,-183.51 152.69,-184.49 161.55,-190.3 163.24,-183.51"/>
</g>
<!-- Node19&#45;&gt;Node3 -->
<g id="edge25" class="edge">
<title>Node19&#45;&gt;Node3</title>
<path fill="none" stroke="midnightblue" d="M623.01,-168.24C633.41,-155.41 653.78,-130.99 673,-112 705.97,-79.42 747.86,-45.06 771.83,-25.99"/>
<polygon fill="midnightblue" stroke="midnightblue" points="774.13,-28.64 779.8,-19.69 769.79,-23.15 774.13,-28.64"/>
</g>
<!-- Node19&#45;&gt;Node8 -->
<g id="edge26" class="edge">
<title>Node19&#45;&gt;Node8</title>
<path fill="none" stroke="midnightblue" d="M617.15,-168.36C619.95,-148.33 627.77,-97.27 640,-56 642.69,-46.92 646.49,-37.13 649.91,-29.01"/>
<polygon fill="midnightblue" stroke="midnightblue" points="653.14,-30.36 653.92,-19.79 646.72,-27.57 653.14,-30.36"/>
</g>
<!-- Node19&#45;&gt;Node18 -->
<g id="edge27" class="edge">
<title>Node19&#45;&gt;Node18</title>
<path fill="none" stroke="midnightblue" d="M573.85,-168.44C527.25,-158.98 452.16,-143.74 401.95,-133.55"/>
<polygon fill="midnightblue" stroke="midnightblue" points="402.45,-130.08 391.95,-131.52 401.06,-136.94 402.45,-130.08"/>
</g>
<!-- Node19&#45;&gt;Node20 -->
<g id="edge28" class="edge">
<title>Node19&#45;&gt;Node20</title>
<path fill="none" stroke="midnightblue" d="M599.45,-168.32C583.01,-159.7 557.57,-146.36 538.53,-136.39"/>
<polygon fill="midnightblue" stroke="midnightblue" points="539.99,-133.2 529.51,-131.65 536.74,-139.4 539.99,-133.2"/>
</g>
<!-- Node21 -->
<g id="node21" class="node">
<title>Node21</title>
<g id="a_node21"><a xlink:title=" ">
<polygon fill="white" stroke="#bfbfbf" points="682.5,-112.5 682.5,-131.5 741.5,-131.5 741.5,-112.5 682.5,-112.5"/>
<text text-anchor="middle" x="712" y="-119.5" font-family="Helvetica,sans-Serif" font-size="10.00">complex</text>
</a>
</g>
</g>
<!-- Node19&#45;&gt;Node21 -->
<g id="edge29" class="edge">
<title>Node19&#45;&gt;Node21</title>
<path fill="none" stroke="midnightblue" d="M631.42,-168.32C646.54,-159.82 669.82,-146.73 687.47,-136.8"/>
<polygon fill="midnightblue" stroke="midnightblue" points="689.61,-139.61 696.61,-131.65 686.18,-133.51 689.61,-139.61"/>
</g>
<!-- Node22&#45;&gt;Node10 -->
<g id="edge32" class="edge">
<title>Node22&#45;&gt;Node10</title>
<path fill="none" stroke="midnightblue" d="M842.74,-168.86C911.41,-158.64 1028.43,-141.23 1096.83,-131.06"/>
<polygon fill="midnightblue" stroke="midnightblue" points="1097.59,-134.48 1106.96,-129.55 1096.56,-127.56 1097.59,-134.48"/>
</g>
<!-- Node27&#45;&gt;Node8 -->
<g id="edge40" class="edge">
<title>Node27&#45;&gt;Node8</title>
<path fill="none" stroke="midnightblue" d="M935.8,-291.36C921.65,-283.52 901.89,-270.78 889,-255 862.31,-222.32 876.53,-201.59 851,-168 802,-103.53 721.27,-49.29 681.55,-24.87"/>
<polygon fill="midnightblue" stroke="midnightblue" points="683.2,-21.77 672.83,-19.58 679.57,-27.76 683.2,-21.77"/>
</g>
<!-- Node28 -->
<g id="node28" class="node">
<title>Node28</title>
<g id="a_node28"><a xlink:href="sitkPixelIDValues_8h.html" target="_top" xlink:title=" ">
<polygon fill="white" stroke="black" points="898,-230 898,-249 1008,-249 1008,-230 898,-230"/>
<text text-anchor="middle" x="953" y="-237" font-family="Helvetica,sans-Serif" font-size="10.00">sitkPixelIDValues.h</text>
</a>
</g>
</g>
<!-- Node27&#45;&gt;Node28 -->
<g id="edge41" class="edge">
<title>Node27&#45;&gt;Node28</title>
<path fill="none" stroke="midnightblue" d="M953,-291.48C953,-283.08 953,-269.98 953,-259.16"/>
<polygon fill="midnightblue" stroke="midnightblue" points="956.5,-259.01 953,-249.01 949.5,-259.01 956.5,-259.01"/>
</g>
<!-- Node27&#45;&gt;Node30 -->
<g id="edge46" class="edge">
<title>Node27&#45;&gt;Node30</title>
<path fill="none" stroke="midnightblue" d="M968.47,-291.48C986.28,-281.67 1015.74,-265.43 1036.63,-253.92"/>
<polygon fill="midnightblue" stroke="midnightblue" points="1038.49,-256.9 1045.55,-249.01 1035.11,-250.77 1038.49,-256.9"/>
</g>
<!-- Node28&#45;&gt;Node10 -->
<g id="edge42" class="edge">
<title>Node28&#45;&gt;Node10</title>
<path fill="none" stroke="midnightblue" d="M992.24,-229.92C1021.73,-222.21 1062.17,-208.83 1093,-188 1111.91,-175.22 1128.69,-154.91 1139.27,-140.4"/>
<polygon fill="midnightblue" stroke="midnightblue" points="1142.4,-142.03 1145.29,-131.84 1136.67,-138 1142.4,-142.03"/>
</g>
<!-- Node28&#45;&gt;Node14 -->
<g id="edge45" class="edge">
<title>Node28&#45;&gt;Node14</title>
<path fill="none" stroke="midnightblue" d="M989.14,-229.93C998.21,-227.88 1007.94,-225.78 1017,-224 1098.97,-207.9 1195.67,-192.69 1248.23,-184.74"/>
<polygon fill="midnightblue" stroke="midnightblue" points="1248.76,-188.2 1258.13,-183.25 1247.72,-181.28 1248.76,-188.2"/>
</g>
<!-- Node28&#45;&gt;Node19 -->
<g id="edge43" class="edge">
<title>Node28&#45;&gt;Node19</title>
<path fill="none" stroke="midnightblue" d="M904.72,-229.98C843.91,-219.24 739.51,-200.81 674.31,-189.29"/>
<polygon fill="midnightblue" stroke="midnightblue" points="674.65,-185.8 664.19,-187.51 673.43,-192.69 674.65,-185.8"/>
</g>
<!-- Node29 -->
<g id="node29" class="node">
<title>Node29</title>
<g id="a_node29"><a xlink:title=" ">
<polygon fill="white" stroke="#bfbfbf" points="899,-168.5 899,-187.5 943,-187.5 943,-168.5 899,-168.5"/>
<text text-anchor="middle" x="921" y="-175.5" font-family="Helvetica,sans-Serif" font-size="10.00">string</text>
</a>
</g>
</g>
<!-- Node28&#45;&gt;Node29 -->
<g id="edge44" class="edge">
<title>Node28&#45;&gt;Node29</title>
<path fill="none" stroke="midnightblue" d="M948.42,-229.98C943.76,-221.32 936.41,-207.65 930.49,-196.65"/>
<polygon fill="midnightblue" stroke="midnightblue" points="933.4,-194.66 925.58,-187.51 927.23,-197.97 933.4,-194.66"/>
</g>
<!-- Node31&#45;&gt;Node10 -->
<g id="edge48" class="edge">
<title>Node31&#45;&gt;Node10</title>
<path fill="none" stroke="midnightblue" d="M1236.62,-229.64C1231,-215.63 1218.8,-187.93 1203,-168 1193.96,-156.6 1181.74,-145.85 1171.42,-137.72"/>
<polygon fill="midnightblue" stroke="midnightblue" points="1173.39,-134.82 1163.31,-131.55 1169.15,-140.39 1173.39,-134.82"/>
</g>
<!-- Node31&#45;&gt;Node14 -->
<g id="edge49" class="edge">
<title>Node31&#45;&gt;Node14</title>
<path fill="none" stroke="midnightblue" d="M1246.73,-229.98C1253.78,-221.05 1265.03,-206.81 1273.85,-195.64"/>
<polygon fill="midnightblue" stroke="midnightblue" points="1276.83,-197.53 1280.28,-187.51 1271.33,-193.19 1276.83,-197.53"/>
</g>
<!-- Node33&#45;&gt;Node5 -->
<g id="edge58" class="edge">
<title>Node33&#45;&gt;Node5</title>
<path fill="none" stroke="midnightblue" d="M627.27,-351.22C442.37,-339.09 0,-303.46 0,-240.5 0,-240.5 0,-240.5 0,-121 0,-64.27 188.6,-28.82 269.67,-16.2"/>
<polygon fill="midnightblue" stroke="midnightblue" points="270.55,-19.6 279.91,-14.64 269.5,-12.68 270.55,-19.6"/>
</g>
<!-- Node33&#45;&gt;Node12 -->
<g id="edge61" class="edge">
<title>Node33&#45;&gt;Node12</title>
<path fill="none" stroke="midnightblue" d="M716.56,-347.41C742.51,-324.47 817.17,-261 889,-224 917.44,-209.35 951.65,-197.95 978.39,-190.29"/>
<polygon fill="midnightblue" stroke="midnightblue" points="979.56,-193.6 988.25,-187.54 977.68,-186.86 979.56,-193.6"/>
</g>
<!-- Node33&#45;&gt;Node16 -->
<g id="edge54" class="edge">
<title>Node33&#45;&gt;Node16</title>
<path fill="none" stroke="midnightblue" d="M707,-347.08C707,-340.01 707,-329.86 707,-320.99"/>
<polygon fill="midnightblue" stroke="midnightblue" points="710.5,-320.75 707,-310.75 703.5,-320.75 710.5,-320.75"/>
</g>
<!-- Node33&#45;&gt;Node17 -->
<g id="edge55" class="edge">
<title>Node33&#45;&gt;Node17</title>
<path fill="none" stroke="midnightblue" d="M627.34,-353.74C579.56,-349.34 519.13,-338.2 472,-311 452.2,-299.57 435.67,-279.29 424.84,-263.4"/>
<polygon fill="midnightblue" stroke="midnightblue" points="427.53,-261.12 419.14,-254.66 421.67,-264.94 427.53,-261.12"/>
</g>
<!-- Node33&#45;&gt;Node27 -->
<g id="edge60" class="edge">
<title>Node33&#45;&gt;Node27</title>
<path fill="none" stroke="midnightblue" d="M745.98,-347.44C788.89,-338.02 857.95,-322.87 904.37,-312.68"/>
<polygon fill="midnightblue" stroke="midnightblue" points="905.19,-316.08 914.2,-310.52 903.69,-309.24 905.19,-316.08"/>
</g>
<!-- Node33&#45;&gt;Node28 -->
<g id="edge56" class="edge">
<title>Node33&#45;&gt;Node28</title>
<path fill="none" stroke="midnightblue" d="M725.49,-347.32C768.33,-327.2 874.61,-277.31 925.27,-253.52"/>
<polygon fill="midnightblue" stroke="midnightblue" points="927.07,-256.54 934.63,-249.12 924.09,-250.21 927.07,-256.54"/>
</g>
<!-- Node33&#45;&gt;Node33 -->
<g id="edge59" class="edge">
<title>Node33&#45;&gt;Node33</title>
<path fill="none" stroke="midnightblue" d="M748.33,-366.5C776.67,-369.33 804.5,-366.16 804.5,-357 804.5,-348.95 783,-345.53 758.56,-346.74"/>
<polygon fill="midnightblue" stroke="midnightblue" points="758.04,-343.27 748.33,-347.5 758.56,-350.25 758.04,-343.27"/>
</g>
<!-- Node34 -->
<g id="node34" class="node">
<title>Node34</title>
<g id="a_node34"><a xlink:title=" ">
<polygon fill="white" stroke="#bfbfbf" points="481.5,-291.5 481.5,-310.5 652.5,-310.5 652.5,-291.5 481.5,-291.5"/>
<text text-anchor="middle" x="567" y="-298.5" font-family="Helvetica,sans-Serif" font-size="10.00">sitkMemberFunctionFactory.hxx</text>
</a>
</g>
</g>
<!-- Node33&#45;&gt;Node34 -->
<g id="edge57" class="edge">
<title>Node33&#45;&gt;Node34</title>
<path fill="none" stroke="midnightblue" d="M684.82,-347.44C661.57,-338.48 624.85,-324.31 598.58,-314.18"/>
<polygon fill="midnightblue" stroke="midnightblue" points="599.67,-310.85 589.08,-310.52 597.15,-317.38 599.67,-310.85"/>
</g>
<!-- Node35&#45;&gt;Node2 -->
<g id="edge63" class="edge">
<title>Node35&#45;&gt;Node2</title>
<path fill="none" stroke="midnightblue" d="M1592.18,-459.46C1594.62,-440.99 1600,-395.94 1600,-358 1600,-358 1600,-358 1600,-177 1600,-110.81 1529.68,-130.07 1466,-112 1326.03,-72.29 1152.44,-66.65 1070.31,-66.44"/>
<polygon fill="midnightblue" stroke="midnightblue" points="1070.28,-62.94 1060.28,-66.44 1070.28,-69.94 1070.28,-62.94"/>
</g>
<!-- Node36&#45;&gt;Node9 -->
<g id="edge71" class="edge">
<title>Node36&#45;&gt;Node9</title>
<path fill="none" stroke="midnightblue" d="M1288.37,-459.27C1285.79,-446.48 1280.09,-422.11 1271,-403 1266.27,-393.06 1259.46,-382.88 1253.43,-374.73"/>
<polygon fill="midnightblue" stroke="midnightblue" points="1256.19,-372.58 1247.32,-366.78 1250.64,-376.85 1256.19,-372.58"/>
</g>
<!-- Node36&#45;&gt;Node10 -->
<g id="edge65" class="edge">
<title>Node36&#45;&gt;Node10</title>
<path fill="none" stroke="midnightblue" d="M1233.22,-466.3C1201.22,-462.06 1163.63,-450.89 1143,-423 1078.48,-335.78 1124.21,-191.97 1143.53,-141.33"/>
<polygon fill="midnightblue" stroke="midnightblue" points="1146.89,-142.34 1147.3,-131.75 1140.38,-139.77 1146.89,-142.34"/>
</g>
<!-- Node36&#45;&gt;Node11 -->
<g id="edge67" class="edge">
<title>Node36&#45;&gt;Node11</title>
<path fill="none" stroke="midnightblue" d="M1346.76,-462.4C1381.55,-456.77 1425.66,-445.51 1459,-423 1510.57,-388.19 1523.32,-370.03 1543,-311 1549.66,-291.03 1535.01,-270.18 1521.81,-256.38"/>
<polygon fill="midnightblue" stroke="midnightblue" points="1523.98,-253.61 1514.38,-249.14 1519.09,-258.62 1523.98,-253.61"/>
</g>
<!-- Node36&#45;&gt;Node22 -->
<g id="edge66" class="edge">
<title>Node36&#45;&gt;Node22</title>
<path fill="none" stroke="midnightblue" d="M1233.38,-466.23C1110.84,-460.86 832,-439.67 832,-358 832,-358 832,-358 832,-300 832,-261.25 811.83,-219.5 798.8,-196.58"/>
<polygon fill="midnightblue" stroke="midnightblue" points="801.66,-194.55 793.57,-187.71 795.63,-198.1 801.66,-194.55"/>
</g>
<!-- Node37 -->
<g id="node37" class="node">
<title>Node37</title>
<g id="a_node37"><a xlink:href="sitkEvent_8h.html" target="_top" xlink:title=" ">
<polygon fill="white" stroke="black" points="1308.5,-230 1308.5,-249 1379.5,-249 1379.5,-230 1308.5,-230"/>
<text text-anchor="middle" x="1344" y="-237" font-family="Helvetica,sans-Serif" font-size="10.00">sitkEvent.h</text>
</a>
</g>
</g>
<!-- Node36&#45;&gt;Node37 -->
<g id="edge68" class="edge">
<title>Node36&#45;&gt;Node37</title>
<path fill="none" stroke="midnightblue" d="M1346.78,-466.78C1379.66,-462.77 1418.66,-451.68 1440,-423 1482.32,-366.12 1401.73,-288.04 1363.05,-255.59"/>
<polygon fill="midnightblue" stroke="midnightblue" points="1365.02,-252.68 1355.07,-249.04 1360.58,-258.09 1365.02,-252.68"/>
</g>
<!-- Node38 -->
<g id="node38" class="node">
<title>Node38</title>
<g id="a_node38"><a xlink:href="sitkImageConvert_8h.html" target="_top" xlink:title=" ">
<polygon fill="white" stroke="black" points="1318.5,-403.5 1318.5,-422.5 1431.5,-422.5 1431.5,-403.5 1318.5,-403.5"/>
<text text-anchor="middle" x="1375" y="-410.5" font-family="Helvetica,sans-Serif" font-size="10.00">sitkImageConvert.h</text>
</a>
</g>
</g>
<!-- Node36&#45;&gt;Node38 -->
<g id="edge72" class="edge">
<title>Node36&#45;&gt;Node38</title>
<path fill="none" stroke="midnightblue" d="M1303.66,-459.32C1316.92,-450.9 1337.27,-437.97 1352.85,-428.07"/>
<polygon fill="midnightblue" stroke="midnightblue" points="1354.81,-430.97 1361.38,-422.65 1351.06,-425.06 1354.81,-430.97"/>
</g>
<!-- Node39 -->
<g id="node39" class="node">
<title>Node39</title>
<g id="a_node39"><a xlink:title=" ">
<polygon fill="white" stroke="#bfbfbf" points="1152,-403.5 1152,-422.5 1212,-422.5 1212,-403.5 1152,-403.5"/>
<text text-anchor="middle" x="1182" y="-410.5" font-family="Helvetica,sans-Serif" font-size="10.00">iostream</text>
</a>
</g>
</g>
<!-- Node36&#45;&gt;Node39 -->
<g id="edge74" class="edge">
<title>Node36&#45;&gt;Node39</title>
<path fill="none" stroke="midnightblue" d="M1272.65,-459.32C1255.33,-450.66 1228.48,-437.24 1208.5,-427.25"/>
<polygon fill="midnightblue" stroke="midnightblue" points="1209.82,-424 1199.31,-422.65 1206.69,-430.26 1209.82,-424"/>
</g>
<!-- Node40 -->
<g id="node40" class="node">
<title>Node40</title>
<g id="a_node40"><a xlink:title=" ">
<polygon fill="white" stroke="#bfbfbf" points="1230,-403.5 1230,-422.5 1262,-422.5 1262,-403.5 1230,-403.5"/>
<text text-anchor="middle" x="1246" y="-410.5" font-family="Helvetica,sans-Serif" font-size="10.00">list</text>
</a>
</g>
</g>
<!-- Node36&#45;&gt;Node40 -->
<g id="edge75" class="edge">
<title>Node36&#45;&gt;Node40</title>
<path fill="none" stroke="midnightblue" d="M1282.73,-459.08C1276.46,-451.38 1267.21,-440.03 1259.57,-430.65"/>
<polygon fill="midnightblue" stroke="midnightblue" points="1262.16,-428.29 1253.13,-422.75 1256.73,-432.71 1262.16,-428.29"/>
</g>
<!-- Node37&#45;&gt;Node10 -->
<g id="edge69" class="edge">
<title>Node37&#45;&gt;Node10</title>
<path fill="none" stroke="midnightblue" d="M1344.14,-229.76C1343.87,-214.91 1341.1,-184.73 1324,-168 1292.77,-137.45 1243.58,-126.89 1205.62,-123.58"/>
<polygon fill="midnightblue" stroke="midnightblue" points="1205.46,-120.05 1195.24,-122.82 1204.96,-127.04 1205.46,-120.05"/>
</g>
<!-- Node37&#45;&gt;Node14 -->
<g id="edge70" class="edge">
<title>Node37&#45;&gt;Node14</title>
<path fill="none" stroke="midnightblue" d="M1335.83,-229.98C1327.11,-220.87 1313.1,-206.24 1302.31,-194.98"/>
<polygon fill="midnightblue" stroke="midnightblue" points="1304.6,-192.31 1295.15,-187.51 1299.54,-197.15 1304.6,-192.31"/>
</g>
<!-- Node38&#45;&gt;Node9 -->
<g id="edge73" class="edge">
<title>Node38&#45;&gt;Node9</title>
<path fill="none" stroke="midnightblue" d="M1353.61,-403.44C1331.29,-394.52 1296.1,-380.44 1270.79,-370.32"/>
<polygon fill="midnightblue" stroke="midnightblue" points="1271.88,-366.98 1261.29,-366.52 1269.28,-373.48 1271.88,-366.98"/>
</g>
</g>
</svg>
