<?xml version="1.0" encoding="UTF-8" standalone="no"?>
<!DOCTYPE svg PUBLIC "-//W3C//DTD SVG 1.1//EN"
 "http://www.w3.org/Graphics/SVG/1.1/DTD/svg11.dtd">
<!-- Generated by graphviz version 2.43.0 (0)
 -->
<!-- Title: sitkPatchBasedDenoisingImageFilter.h Pages: 1 -->
<svg width="537pt" height="162pt"
 viewBox="0.00 0.00 537.00 162.00" xmlns="http://www.w3.org/2000/svg" xmlns:xlink="http://www.w3.org/1999/xlink">
<g id="graph0" class="graph" transform="scale(1 1) rotate(0) translate(4 158)">
<title>sitkPatchBasedDenoisingImageFilter.h</title>
<polygon fill="white" stroke="transparent" points="-4,4 -4,-158 533,-158 533,4 -4,4"/>
<!-- Node1 -->
<g id="node1" class="node">
<title>Node1</title>
<g id="a_node1"><a xlink:title=" ">
<polygon fill="#bfbfbf" stroke="black" points="192.5,-123.5 192.5,-153.5 362.5,-153.5 362.5,-123.5 192.5,-123.5"/>
<text text-anchor="start" x="200.5" y="-141.5" font-family="Helvetica,sans-Serif" font-size="10.00">sitkPatchBasedDenoisingImage</text>
<text text-anchor="middle" x="277.5" y="-130.5" font-family="Helvetica,sans-Serif" font-size="10.00">Filter.h</text>
</a>
</g>
</g>
<!-- Node2 -->
<g id="node2" class="node">
<title>Node2</title>
<g id="a_node2"><a xlink:href="CMakeTmp_2SimpleITKBasicFiltersGeneratedHeaders_8h.html" target="_top" xlink:title=" ">
<polygon fill="white" stroke="black" points="0,-56.5 0,-86.5 173,-86.5 173,-56.5 0,-56.5"/>
<text text-anchor="start" x="8" y="-74.5" font-family="Helvetica,sans-Serif" font-size="10.00">SimpleITKBasicFiltersGenerated</text>
<text text-anchor="middle" x="86.5" y="-63.5" font-family="Helvetica,sans-Serif" font-size="10.00">Headers.h</text>
</a>
</g>
</g>
<!-- Node1&#45;&gt;Node2 -->
<g id="edge1" class="edge">
<title>Node1&#45;&gt;Node2</title>
<path fill="none" stroke="midnightblue" d="M226.35,-120.09C195.51,-109.6 156.75,-96.41 127.86,-86.58"/>
<polygon fill="midnightblue" stroke="midnightblue" points="225.46,-123.49 236.06,-123.4 227.72,-116.86 225.46,-123.49"/>
</g>
<!-- Node3 -->
<g id="node3" class="node">
<title>Node3</title>
<g id="a_node3"><a xlink:href="include_2SimpleITKBasicFiltersGeneratedHeaders_8h.html" target="_top" xlink:title=" ">
<polygon fill="white" stroke="black" points="191,-56.5 191,-86.5 364,-86.5 364,-56.5 191,-56.5"/>
<text text-anchor="start" x="199" y="-74.5" font-family="Helvetica,sans-Serif" font-size="10.00">SimpleITKBasicFiltersGenerated</text>
<text text-anchor="middle" x="277.5" y="-63.5" font-family="Helvetica,sans-Serif" font-size="10.00">Headers.h</text>
</a>
</g>
</g>
<!-- Node1&#45;&gt;Node3 -->
<g id="edge2" class="edge">
<title>Node1&#45;&gt;Node3</title>
<path fill="none" stroke="midnightblue" d="M277.5,-113.11C277.5,-104.15 277.5,-94.32 277.5,-86.58"/>
<polygon fill="midnightblue" stroke="midnightblue" points="274,-113.4 277.5,-123.4 281,-113.4 274,-113.4"/>
</g>
<!-- Node4 -->
<g id="node4" class="node">
<title>Node4</title>
<g id="a_node4"><a xlink:href="sitkAdditionalProcedures_8h.html" target="_top" xlink:title=" ">
<polygon fill="white" stroke="black" points="382,-62 382,-81 529,-81 529,-62 382,-62"/>
<text text-anchor="middle" x="455.5" y="-69" font-family="Helvetica,sans-Serif" font-size="10.00">sitkAdditionalProcedures.h</text>
</a>
</g>
</g>
<!-- Node1&#45;&gt;Node4 -->
<g id="edge3" class="edge">
<title>Node1&#45;&gt;Node4</title>
<path fill="none" stroke="midnightblue" d="M325.57,-119.95C360.14,-107.32 405.25,-90.85 432.2,-81.01"/>
<polygon fill="midnightblue" stroke="midnightblue" points="324.32,-116.68 316.12,-123.4 326.72,-123.25 324.32,-116.68"/>
</g>
<!-- Node5 -->
<g id="node5" class="node">
<title>Node5</title>
<g id="a_node5"><a xlink:href="SimpleITK_8h.html" target="_top" xlink:title=" ">
<polygon fill="white" stroke="black" points="418,-0.5 418,-19.5 493,-19.5 493,-0.5 418,-0.5"/>
<text text-anchor="middle" x="455.5" y="-7.5" font-family="Helvetica,sans-Serif" font-size="10.00">SimpleITK.h</text>
</a>
</g>
</g>
<!-- Node4&#45;&gt;Node5 -->
<g id="edge4" class="edge">
<title>Node4&#45;&gt;Node5</title>
<path fill="none" stroke="midnightblue" d="M455.5,-51.82C455.5,-41 455.5,-27.9 455.5,-19.51"/>
<polygon fill="midnightblue" stroke="midnightblue" points="452,-51.98 455.5,-61.98 459,-51.98 452,-51.98"/>
</g>
</g>
</svg>
