<?xml version="1.0" encoding="UTF-8" standalone="no"?>
<!DOCTYPE svg PUBLIC "-//W3C//DTD SVG 1.1//EN"
 "http://www.w3.org/Graphics/SVG/1.1/DTD/svg11.dtd">
<!-- Generated by graphviz version 2.43.0 (0)
 -->
<!-- Title: sitkTransform.h Pages: 1 -->
<svg width="6919pt" height="218pt"
 viewBox="0.00 0.00 6918.50 218.00" xmlns="http://www.w3.org/2000/svg" xmlns:xlink="http://www.w3.org/1999/xlink">
<g id="graph0" class="graph" transform="scale(1 1) rotate(0) translate(4 214)">
<title>sitkTransform.h</title>
<polygon fill="white" stroke="transparent" points="-4,4 -4,-214 6914.5,-214 6914.5,4 -4,4"/>
<!-- Node1 -->
<g id="node1" class="node">
<title>Node1</title>
<g id="a_node1"><a xlink:title=" ">
<polygon fill="#bfbfbf" stroke="black" points="1404.5,-190.5 1404.5,-209.5 1496.5,-209.5 1496.5,-190.5 1404.5,-190.5"/>
<text text-anchor="middle" x="1450.5" y="-197.5" font-family="Helvetica,sans-Serif" font-size="10.00">sitkTransform.h</text>
</a>
</g>
</g>
<!-- Node2 -->
<g id="node2" class="node">
<title>Node2</title>
<g id="a_node2"><a xlink:href="SimpleITK_8h.html" target="_top" xlink:title=" ">
<polygon fill="white" stroke="black" points="1378,-0.5 1378,-19.5 1453,-19.5 1453,-0.5 1378,-0.5"/>
<text text-anchor="middle" x="1415.5" y="-7.5" font-family="Helvetica,sans-Serif" font-size="10.00">SimpleITK.h</text>
</a>
</g>
</g>
<!-- Node1&#45;&gt;Node2 -->
<g id="edge1" class="edge">
<title>Node1&#45;&gt;Node2</title>
<path fill="none" stroke="midnightblue" d="M1394.3,-197.78C1221.9,-193.75 710.73,-179.7 686.5,-154 587.74,-49.25 1215.64,-18.45 1377.91,-12.28"/>
<polygon fill="midnightblue" stroke="midnightblue" points="1394.35,-201.28 1404.43,-198.01 1394.51,-194.28 1394.35,-201.28"/>
</g>
<!-- Node3 -->
<g id="node3" class="node">
<title>Node3</title>
<g id="a_node3"><a xlink:href="sitkAdditionalProcedures_8h.html" target="_top" xlink:title=" ">
<polygon fill="white" stroke="black" points="1894,-62 1894,-81 2041,-81 2041,-62 1894,-62"/>
<text text-anchor="middle" x="1967.5" y="-69" font-family="Helvetica,sans-Serif" font-size="10.00">sitkAdditionalProcedures.h</text>
</a>
</g>
</g>
<!-- Node1&#45;&gt;Node3 -->
<g id="edge2" class="edge">
<title>Node1&#45;&gt;Node3</title>
<path fill="none" stroke="midnightblue" d="M1506.97,-199.13C1745.9,-199.42 2663.39,-197.65 2705.5,-154 2807.09,-48.7 2195.87,-103.63 2050.5,-87 2037.57,-85.52 2023.59,-83.32 2010.87,-81.07"/>
<polygon fill="midnightblue" stroke="midnightblue" points="1506.78,-195.63 1496.77,-199.12 1506.77,-202.63 1506.78,-195.63"/>
</g>
<!-- Node4 -->
<g id="node4" class="node">
<title>Node4</title>
<g id="a_node4"><a xlink:href="sitkAffineTransform_8h.html" target="_top" xlink:title=" ">
<polygon fill="white" stroke="black" points="695,-129 695,-148 816,-148 816,-129 695,-129"/>
<text text-anchor="middle" x="755.5" y="-136" font-family="Helvetica,sans-Serif" font-size="10.00">sitkAffineTransform.h</text>
</a>
</g>
</g>
<!-- Node1&#45;&gt;Node4 -->
<g id="edge4" class="edge">
<title>Node1&#45;&gt;Node4</title>
<path fill="none" stroke="midnightblue" d="M1394.23,-197.44C1284.4,-193.86 1034.01,-182.97 825.5,-154 814.56,-152.48 802.77,-150.26 792.03,-148.02"/>
<polygon fill="midnightblue" stroke="midnightblue" points="1394.3,-200.95 1404.41,-197.77 1394.53,-193.95 1394.3,-200.95"/>
</g>
<!-- Node5 -->
<g id="node5" class="node">
<title>Node5</title>
<g id="a_node5"><a xlink:href="sitkBSplineTransform_8h.html" target="_top" xlink:title=" ">
<polygon fill="white" stroke="black" points="2567,-129 2567,-148 2696,-148 2696,-129 2567,-129"/>
<text text-anchor="middle" x="2631.5" y="-136" font-family="Helvetica,sans-Serif" font-size="10.00">sitkBSplineTransform.h</text>
</a>
</g>
</g>
<!-- Node1&#45;&gt;Node5 -->
<g id="edge6" class="edge">
<title>Node1&#45;&gt;Node5</title>
<path fill="none" stroke="midnightblue" d="M1506.71,-197.87C1702.17,-193.78 2351.55,-178.6 2558.5,-154 2570.3,-152.6 2583.05,-150.33 2594.54,-148"/>
<polygon fill="midnightblue" stroke="midnightblue" points="1506.59,-194.38 1496.66,-198.08 1506.73,-201.37 1506.59,-194.38"/>
</g>
<!-- Node7 -->
<g id="node7" class="node">
<title>Node7</title>
<g id="a_node7"><a xlink:href="sitkBasicFilters_8h.html" target="_top" xlink:title=" ">
<polygon fill="white" stroke="red" points="4071.5,-129 4071.5,-148 4171.5,-148 4171.5,-129 4071.5,-129"/>
<text text-anchor="middle" x="4121.5" y="-136" font-family="Helvetica,sans-Serif" font-size="10.00">sitkBasicFilters.h</text>
</a>
</g>
</g>
<!-- Node1&#45;&gt;Node7 -->
<g id="edge10" class="edge">
<title>Node1&#45;&gt;Node7</title>
<path fill="none" stroke="midnightblue" d="M1506.74,-197.75C1857.38,-189.94 3739.41,-148.01 4071.44,-140.62"/>
<polygon fill="midnightblue" stroke="midnightblue" points="1506.5,-194.25 1496.58,-197.97 1506.65,-201.25 1506.5,-194.25"/>
</g>
<!-- Node309 -->
<g id="node37" class="node">
<title>Node309</title>
<g id="a_node37"><a xlink:href="sitkComposeScaleSkewVersor3DTransform_8h.html" target="_top" xlink:title=" ">
<polygon fill="white" stroke="black" points="834,-123.5 834,-153.5 1003,-153.5 1003,-123.5 834,-123.5"/>
<text text-anchor="start" x="842" y="-141.5" font-family="Helvetica,sans-Serif" font-size="10.00">sitkComposeScaleSkewVersor3</text>
<text text-anchor="middle" x="918.5" y="-130.5" font-family="Helvetica,sans-Serif" font-size="10.00">DTransform.h</text>
</a>
</g>
</g>
<!-- Node1&#45;&gt;Node309 -->
<g id="edge42" class="edge">
<title>Node1&#45;&gt;Node309</title>
<path fill="none" stroke="midnightblue" d="M1394.35,-194.15C1310.92,-186.73 1149.33,-171.57 1012.5,-154 1009.39,-153.6 1006.22,-153.18 1003.02,-152.74"/>
<polygon fill="midnightblue" stroke="midnightblue" points="1394.11,-197.64 1404.38,-195.04 1394.73,-190.67 1394.11,-197.64"/>
</g>
<!-- Node310 -->
<g id="node38" class="node">
<title>Node310</title>
<g id="a_node38"><a xlink:href="sitkCompositeTransform_8h.html" target="_top" xlink:title=" ">
<polygon fill="white" stroke="black" points="1021,-129 1021,-148 1166,-148 1166,-129 1021,-129"/>
<text text-anchor="middle" x="1093.5" y="-136" font-family="Helvetica,sans-Serif" font-size="10.00">sitkCompositeTransform.h</text>
</a>
</g>
</g>
<!-- Node1&#45;&gt;Node310 -->
<g id="edge44" class="edge">
<title>Node1&#45;&gt;Node310</title>
<path fill="none" stroke="midnightblue" d="M1394.24,-190.01C1338.64,-181.07 1251.15,-166.88 1175.5,-154 1164.38,-152.11 1152.43,-150.02 1141.18,-148.04"/>
<polygon fill="midnightblue" stroke="midnightblue" points="1393.82,-193.49 1404.25,-191.62 1394.93,-186.58 1393.82,-193.49"/>
</g>
<!-- Node311 -->
<g id="node39" class="node">
<title>Node311</title>
<g id="a_node39"><a xlink:href="sitkDisplacementFieldTransform_8h.html" target="_top" xlink:title=" ">
<polygon fill="white" stroke="black" points="1184,-129 1184,-148 1367,-148 1367,-129 1184,-129"/>
<text text-anchor="middle" x="1275.5" y="-136" font-family="Helvetica,sans-Serif" font-size="10.00">sitkDisplacementFieldTransform.h</text>
</a>
</g>
</g>
<!-- Node1&#45;&gt;Node311 -->
<g id="edge46" class="edge">
<title>Node1&#45;&gt;Node311</title>
<path fill="none" stroke="midnightblue" d="M1415.89,-187.23C1381.87,-175.67 1330.78,-158.3 1300.53,-148.01"/>
<polygon fill="midnightblue" stroke="midnightblue" points="1414.83,-190.57 1425.43,-190.48 1417.09,-183.94 1414.83,-190.57"/>
</g>
<!-- Node312 -->
<g id="node40" class="node">
<title>Node312</title>
<g id="a_node40"><a xlink:href="sitkEuler2DTransform_8h.html" target="_top" xlink:title=" ">
<polygon fill="white" stroke="black" points="1385,-129 1385,-148 1516,-148 1516,-129 1385,-129"/>
<text text-anchor="middle" x="1450.5" y="-136" font-family="Helvetica,sans-Serif" font-size="10.00">sitkEuler2DTransform.h</text>
</a>
</g>
</g>
<!-- Node1&#45;&gt;Node312 -->
<g id="edge48" class="edge">
<title>Node1&#45;&gt;Node312</title>
<path fill="none" stroke="midnightblue" d="M1450.5,-180.32C1450.5,-169.5 1450.5,-156.4 1450.5,-148.01"/>
<polygon fill="midnightblue" stroke="midnightblue" points="1447,-180.48 1450.5,-190.48 1454,-180.48 1447,-180.48"/>
</g>
<!-- Node313 -->
<g id="node41" class="node">
<title>Node313</title>
<g id="a_node41"><a xlink:href="sitkEuler3DTransform_8h.html" target="_top" xlink:title=" ">
<polygon fill="white" stroke="black" points="1534,-129 1534,-148 1665,-148 1665,-129 1534,-129"/>
<text text-anchor="middle" x="1599.5" y="-136" font-family="Helvetica,sans-Serif" font-size="10.00">sitkEuler3DTransform.h</text>
</a>
</g>
</g>
<!-- Node1&#45;&gt;Node313 -->
<g id="edge50" class="edge">
<title>Node1&#45;&gt;Node313</title>
<path fill="none" stroke="midnightblue" d="M1481.47,-186.63C1510.42,-175.07 1552.87,-158.12 1578.19,-148.01"/>
<polygon fill="midnightblue" stroke="midnightblue" points="1479.84,-183.52 1471.85,-190.48 1482.43,-190.02 1479.84,-183.52"/>
</g>
<!-- Node314 -->
<g id="node42" class="node">
<title>Node314</title>
<g id="a_node42"><a xlink:href="sitkImageRegistrationMethod_8h.html" target="_top" xlink:title=" ">
<polygon fill="white" stroke="black" points="1683.5,-129 1683.5,-148 1853.5,-148 1853.5,-129 1683.5,-129"/>
<text text-anchor="middle" x="1768.5" y="-136" font-family="Helvetica,sans-Serif" font-size="10.00">sitkImageRegistrationMethod.h</text>
</a>
</g>
</g>
<!-- Node1&#45;&gt;Node314 -->
<g id="edge52" class="edge">
<title>Node1&#45;&gt;Node314</title>
<path fill="none" stroke="midnightblue" d="M1505.99,-188.62C1567.58,-177.09 1665.8,-158.72 1723.02,-148.01"/>
<polygon fill="midnightblue" stroke="midnightblue" points="1505.25,-185.2 1496.06,-190.48 1506.53,-192.08 1505.25,-185.2"/>
</g>
<!-- Node315 -->
<g id="node43" class="node">
<title>Node315</title>
<g id="a_node43"><a xlink:href="sitkScaleSkewVersor3DTransform_8h.html" target="_top" xlink:title=" ">
<polygon fill="white" stroke="black" points="1871.5,-129 1871.5,-148 2059.5,-148 2059.5,-129 1871.5,-129"/>
<text text-anchor="middle" x="1965.5" y="-136" font-family="Helvetica,sans-Serif" font-size="10.00">sitkScaleSkewVersor3DTransform.h</text>
</a>
</g>
</g>
<!-- Node1&#45;&gt;Node315 -->
<g id="edge54" class="edge">
<title>Node1&#45;&gt;Node315</title>
<path fill="none" stroke="midnightblue" d="M1506.85,-193.41C1586.26,-185.39 1735.58,-169.86 1862.5,-154 1877.01,-152.19 1892.66,-150.07 1907.26,-148.02"/>
<polygon fill="midnightblue" stroke="midnightblue" points="1506.19,-189.95 1496.59,-194.44 1506.89,-196.92 1506.19,-189.95"/>
</g>
<!-- Node316 -->
<g id="node44" class="node">
<title>Node316</title>
<g id="a_node44"><a xlink:href="sitkScaleTransform_8h.html" target="_top" xlink:title=" ">
<polygon fill="white" stroke="black" points="2078,-129 2078,-148 2197,-148 2197,-129 2078,-129"/>
<text text-anchor="middle" x="2137.5" y="-136" font-family="Helvetica,sans-Serif" font-size="10.00">sitkScaleTransform.h</text>
</a>
</g>
</g>
<!-- Node1&#45;&gt;Node316 -->
<g id="edge56" class="edge">
<title>Node1&#45;&gt;Node316</title>
<path fill="none" stroke="midnightblue" d="M1506.97,-197.43C1615.99,-193.83 1862.88,-182.96 2068.5,-154 2079.29,-152.48 2090.91,-150.27 2101.49,-148.02"/>
<polygon fill="midnightblue" stroke="midnightblue" points="1506.74,-193.93 1496.85,-197.75 1506.96,-200.93 1506.74,-193.93"/>
</g>
<!-- Node317 -->
<g id="node45" class="node">
<title>Node317</title>
<g id="a_node45"><a xlink:href="sitkScaleVersor3DTransform_8h.html" target="_top" xlink:title=" ">
<polygon fill="white" stroke="black" points="2215,-129 2215,-148 2378,-148 2378,-129 2215,-129"/>
<text text-anchor="middle" x="2296.5" y="-136" font-family="Helvetica,sans-Serif" font-size="10.00">sitkScaleVersor3DTransform.h</text>
</a>
</g>
</g>
<!-- Node1&#45;&gt;Node317 -->
<g id="edge58" class="edge">
<title>Node1&#45;&gt;Node317</title>
<path fill="none" stroke="midnightblue" d="M1506.82,-197.58C1632.62,-193.98 1945.9,-182.68 2206.5,-154 2220.34,-152.48 2235.3,-150.29 2248.98,-148.07"/>
<polygon fill="midnightblue" stroke="midnightblue" points="1506.56,-194.08 1496.66,-197.86 1506.75,-201.08 1506.56,-194.08"/>
</g>
<!-- Node318 -->
<g id="node46" class="node">
<title>Node318</title>
<g id="a_node46"><a xlink:href="sitkSimilarity2DTransform_8h.html" target="_top" xlink:title=" ">
<polygon fill="white" stroke="black" points="2396,-129 2396,-148 2549,-148 2549,-129 2396,-129"/>
<text text-anchor="middle" x="2472.5" y="-136" font-family="Helvetica,sans-Serif" font-size="10.00">sitkSimilarity2DTransform.h</text>
</a>
</g>
</g>
<!-- Node1&#45;&gt;Node318 -->
<g id="edge60" class="edge">
<title>Node1&#45;&gt;Node318</title>
<path fill="none" stroke="midnightblue" d="M1507.04,-198.66C1653.14,-197.28 2055.08,-190.2 2387.5,-154 2400.89,-152.54 2415.38,-150.32 2428.53,-148.04"/>
<polygon fill="midnightblue" stroke="midnightblue" points="1506.93,-195.16 1496.97,-198.75 1507,-202.16 1506.93,-195.16"/>
</g>
<!-- Node319 -->
<g id="node47" class="node">
<title>Node319</title>
<g id="a_node47"><a xlink:href="sitkSimilarity3DTransform_8h.html" target="_top" xlink:title=" ">
<polygon fill="white" stroke="black" points="0,-129 0,-148 153,-148 153,-129 0,-129"/>
<text text-anchor="middle" x="76.5" y="-136" font-family="Helvetica,sans-Serif" font-size="10.00">sitkSimilarity3DTransform.h</text>
</a>
</g>
</g>
<!-- Node1&#45;&gt;Node319 -->
<g id="edge62" class="edge">
<title>Node1&#45;&gt;Node319</title>
<path fill="none" stroke="midnightblue" d="M1394.04,-198.02C1178.41,-194.13 406.71,-178.74 162.5,-154 148.79,-152.61 133.96,-150.38 120.54,-148.07"/>
<polygon fill="midnightblue" stroke="midnightblue" points="1394.12,-201.52 1404.18,-198.2 1394.25,-194.52 1394.12,-201.52"/>
</g>
<!-- Node320 -->
<g id="node48" class="node">
<title>Node320</title>
<g id="a_node48"><a xlink:href="sitkTranslationTransform_8h.html" target="_top" xlink:title=" ">
<polygon fill="white" stroke="black" points="171.5,-129 171.5,-148 317.5,-148 317.5,-129 171.5,-129"/>
<text text-anchor="middle" x="244.5" y="-136" font-family="Helvetica,sans-Serif" font-size="10.00">sitkTranslationTransform.h</text>
</a>
</g>
</g>
<!-- Node1&#45;&gt;Node320 -->
<g id="edge64" class="edge">
<title>Node1&#45;&gt;Node320</title>
<path fill="none" stroke="midnightblue" d="M1393.91,-199.43C1228.88,-200.09 734.04,-197.99 326.5,-154 313.42,-152.59 299.28,-150.35 286.48,-148.05"/>
<polygon fill="midnightblue" stroke="midnightblue" points="1394.31,-202.93 1404.3,-199.38 1394.28,-195.93 1394.31,-202.93"/>
</g>
<!-- Node321 -->
<g id="node49" class="node">
<title>Node321</title>
<g id="a_node49"><a xlink:href="sitkVersorRigid3DTransform_8h.html" target="_top" xlink:title=" ">
<polygon fill="white" stroke="black" points="336,-129 336,-148 497,-148 497,-129 336,-129"/>
<text text-anchor="middle" x="416.5" y="-136" font-family="Helvetica,sans-Serif" font-size="10.00">sitkVersorRigid3DTransform.h</text>
</a>
</g>
</g>
<!-- Node1&#45;&gt;Node321 -->
<g id="edge66" class="edge">
<title>Node1&#45;&gt;Node321</title>
<path fill="none" stroke="midnightblue" d="M1394.08,-198.51C1247.37,-196.77 841.97,-188.91 506.5,-154 492.33,-152.53 477,-150.3 463.08,-148.02"/>
<polygon fill="midnightblue" stroke="midnightblue" points="1394.15,-202.01 1404.19,-198.63 1394.23,-195.01 1394.15,-202.01"/>
</g>
<!-- Node322 -->
<g id="node50" class="node">
<title>Node322</title>
<g id="a_node50"><a xlink:href="sitkVersorTransform_8h.html" target="_top" xlink:title=" ">
<polygon fill="white" stroke="black" points="515,-129 515,-148 638,-148 638,-129 515,-129"/>
<text text-anchor="middle" x="576.5" y="-136" font-family="Helvetica,sans-Serif" font-size="10.00">sitkVersorTransform.h</text>
</a>
</g>
</g>
<!-- Node1&#45;&gt;Node322 -->
<g id="edge68" class="edge">
<title>Node1&#45;&gt;Node322</title>
<path fill="none" stroke="midnightblue" d="M1394.27,-198.38C1263.57,-196.38 929.4,-188.07 652.5,-154 640.5,-152.52 627.55,-150.29 615.79,-148.02"/>
<polygon fill="midnightblue" stroke="midnightblue" points="1394.38,-201.88 1404.43,-198.53 1394.48,-194.88 1394.38,-201.88"/>
</g>
<!-- Node3&#45;&gt;Node2 -->
<g id="edge3" class="edge">
<title>Node3&#45;&gt;Node2</title>
<path fill="none" stroke="midnightblue" d="M1912.42,-60.26C1903.12,-58.71 1893.55,-57.22 1884.5,-56 1724.61,-34.4 1532.67,-19.37 1453,-13.61"/>
<polygon fill="midnightblue" stroke="midnightblue" points="1911.92,-63.73 1922.37,-61.96 1913.1,-56.83 1911.92,-63.73"/>
</g>
<!-- Node4&#45;&gt;Node2 -->
<g id="edge5" class="edge">
<title>Node4&#45;&gt;Node2</title>
<path fill="none" stroke="midnightblue" d="M797.46,-126.3C862.15,-109.32 990.29,-76.85 1100.5,-56 1200.1,-37.16 1318.76,-22.21 1377.98,-15.25"/>
<polygon fill="midnightblue" stroke="midnightblue" points="796.41,-122.95 787.64,-128.88 798.2,-129.72 796.41,-122.95"/>
</g>
<!-- Node5&#45;&gt;Node2 -->
<g id="edge7" class="edge">
<title>Node5&#45;&gt;Node2</title>
<path fill="none" stroke="midnightblue" d="M2584.31,-127.02C2575.76,-125.44 2566.89,-124 2558.5,-123 2369.02,-100.34 1880.83,-149.43 1700.5,-87 1678.24,-79.29 1679.16,-65.27 1657.5,-56 1589.14,-26.75 1501.91,-16.48 1453.04,-12.89"/>
<polygon fill="midnightblue" stroke="midnightblue" points="2583.68,-130.47 2594.16,-128.93 2585.01,-123.59 2583.68,-130.47"/>
</g>
<!-- Node6 -->
<g id="node6" class="node">
<title>Node6</title>
<g id="a_node6"><a xlink:href="sitkBSplineTransformInitializerFilter_8h.html" target="_top" xlink:title=" ">
<polygon fill="white" stroke="black" points="1709.5,-56.5 1709.5,-86.5 1875.5,-86.5 1875.5,-56.5 1709.5,-56.5"/>
<text text-anchor="start" x="1717.5" y="-74.5" font-family="Helvetica,sans-Serif" font-size="10.00">sitkBSplineTransformInitializer</text>
<text text-anchor="middle" x="1792.5" y="-63.5" font-family="Helvetica,sans-Serif" font-size="10.00">Filter.h</text>
</a>
</g>
</g>
<!-- Node5&#45;&gt;Node6 -->
<g id="edge8" class="edge">
<title>Node5&#45;&gt;Node6</title>
<path fill="none" stroke="midnightblue" d="M2583.75,-127C2575.37,-125.45 2566.7,-124.03 2558.5,-123 2261.29,-85.73 2183.42,-118.11 1885.5,-87 1882.25,-86.66 1878.94,-86.29 1875.6,-85.88"/>
<polygon fill="midnightblue" stroke="midnightblue" points="2583.3,-130.48 2593.78,-128.94 2584.63,-123.61 2583.3,-130.48"/>
</g>
<!-- Node6&#45;&gt;Node2 -->
<g id="edge9" class="edge">
<title>Node6&#45;&gt;Node2</title>
<path fill="none" stroke="midnightblue" d="M1699.3,-55.79C1620.01,-43.28 1510.2,-25.95 1453.21,-16.95"/>
<polygon fill="midnightblue" stroke="midnightblue" points="1698.88,-59.27 1709.3,-57.37 1699.97,-52.35 1698.88,-59.27"/>
</g>
<!-- Node7&#45;&gt;Node3 -->
<g id="edge16" class="edge">
<title>Node7&#45;&gt;Node3</title>
<path fill="none" stroke="midnightblue" d="M4061.25,-137.24C3764.42,-135.77 2455.72,-127.11 2050.5,-87 2036.96,-85.66 2022.31,-83.38 2009.13,-81.02"/>
<polygon fill="midnightblue" stroke="midnightblue" points="4061.36,-140.74 4071.38,-137.29 4061.39,-133.74 4061.36,-140.74"/>
</g>
<!-- Node7&#45;&gt;Node6 -->
<g id="edge26" class="edge">
<title>Node7&#45;&gt;Node6</title>
<path fill="none" stroke="midnightblue" d="M4061.06,-137.22C3749.82,-135.59 2325.53,-126.1 1885.5,-87 1882.24,-86.71 1878.93,-86.38 1875.59,-86.01"/>
<polygon fill="midnightblue" stroke="midnightblue" points="4061.21,-140.72 4071.23,-137.27 4061.25,-133.72 4061.21,-140.72"/>
</g>
<!-- Node8 -->
<g id="node8" class="node">
<title>Node8</title>
<g id="a_node8"><a xlink:href="sitkAbsImageFilter_8h.html" target="_top" xlink:title=" ">
<polygon fill="white" stroke="red" points="2224.5,-62 2224.5,-81 2340.5,-81 2340.5,-62 2224.5,-62"/>
<text text-anchor="middle" x="2282.5" y="-69" font-family="Helvetica,sans-Serif" font-size="10.00">sitkAbsImageFilter.h</text>
</a>
</g>
</g>
<!-- Node7&#45;&gt;Node8 -->
<g id="edge11" class="edge">
<title>Node7&#45;&gt;Node8</title>
<path fill="none" stroke="midnightblue" d="M4061.02,-137.25C3790.8,-135.91 2692.38,-127.98 2350.5,-87 2339.35,-85.66 2327.33,-83.38 2316.54,-81.02"/>
<polygon fill="midnightblue" stroke="midnightblue" points="4061.38,-140.75 4071.4,-137.3 4061.42,-133.75 4061.38,-140.75"/>
</g>
<!-- Node11 -->
<g id="node9" class="node">
<title>Node11</title>
<g id="a_node9"><a xlink:href="sitkAbsoluteValueDifferenceImageFilter_8h.html" target="_top" xlink:title=" ">
<polygon fill="white" stroke="red" points="2359,-56.5 2359,-86.5 2514,-86.5 2514,-56.5 2359,-56.5"/>
<text text-anchor="start" x="2367" y="-74.5" font-family="Helvetica,sans-Serif" font-size="10.00">sitkAbsoluteValueDifference</text>
<text text-anchor="middle" x="2436.5" y="-63.5" font-family="Helvetica,sans-Serif" font-size="10.00">ImageFilter.h</text>
</a>
</g>
</g>
<!-- Node7&#45;&gt;Node11 -->
<g id="edge12" class="edge">
<title>Node7&#45;&gt;Node11</title>
<path fill="none" stroke="midnightblue" d="M4061.23,-136.67C3808.16,-133.04 2830.35,-117.28 2523.5,-87 2520.45,-86.7 2517.35,-86.36 2514.22,-85.98"/>
<polygon fill="midnightblue" stroke="midnightblue" points="4061.29,-140.17 4071.34,-136.82 4061.39,-133.18 4061.29,-140.17"/>
</g>
<!-- Node12 -->
<g id="node10" class="node">
<title>Node12</title>
<g id="a_node10"><a xlink:href="sitkAcosImageFilter_8h.html" target="_top" xlink:title=" ">
<polygon fill="white" stroke="red" points="2532.5,-62 2532.5,-81 2654.5,-81 2654.5,-62 2532.5,-62"/>
<text text-anchor="middle" x="2593.5" y="-69" font-family="Helvetica,sans-Serif" font-size="10.00">sitkAcosImageFilter.h</text>
</a>
</g>
</g>
<!-- Node7&#45;&gt;Node12 -->
<g id="edge13" class="edge">
<title>Node7&#45;&gt;Node12</title>
<path fill="none" stroke="midnightblue" d="M4061.11,-136.75C3822.06,-133.58 2941.57,-119.86 2664.5,-87 2653.01,-85.64 2640.6,-83.38 2629.43,-81.05"/>
<polygon fill="midnightblue" stroke="midnightblue" points="4061.3,-140.25 4071.35,-136.89 4061.39,-133.25 4061.3,-140.25"/>
</g>
<!-- Node13 -->
<g id="node11" class="node">
<title>Node13</title>
<g id="a_node11"><a xlink:href="sitkAdaptiveHistogramEqualizationImageFilter_8h.html" target="_top" xlink:title=" ">
<polygon fill="white" stroke="red" points="2673,-56.5 2673,-86.5 2862,-86.5 2862,-56.5 2673,-56.5"/>
<text text-anchor="start" x="2681" y="-74.5" font-family="Helvetica,sans-Serif" font-size="10.00">sitkAdaptiveHistogramEqualization</text>
<text text-anchor="middle" x="2767.5" y="-63.5" font-family="Helvetica,sans-Serif" font-size="10.00">ImageFilter.h</text>
</a>
</g>
</g>
<!-- Node7&#45;&gt;Node13 -->
<g id="edge14" class="edge">
<title>Node7&#45;&gt;Node13</title>
<path fill="none" stroke="midnightblue" d="M4061.28,-137.16C3880.64,-135.69 3327.74,-127.92 2871.5,-87 2868.41,-86.72 2865.28,-86.42 2862.11,-86.09"/>
<polygon fill="midnightblue" stroke="midnightblue" points="4061.34,-140.66 4071.37,-137.24 4061.4,-133.66 4061.34,-140.66"/>
</g>
<!-- Node14 -->
<g id="node12" class="node">
<title>Node14</title>
<g id="a_node12"><a xlink:href="sitkAddImageFilter_8h.html" target="_top" xlink:title=" ">
<polygon fill="white" stroke="red" points="2880,-62 2880,-81 2997,-81 2997,-62 2880,-62"/>
<text text-anchor="middle" x="2938.5" y="-69" font-family="Helvetica,sans-Serif" font-size="10.00">sitkAddImageFilter.h</text>
</a>
</g>
</g>
<!-- Node7&#45;&gt;Node14 -->
<g id="edge15" class="edge">
<title>Node7&#45;&gt;Node14</title>
<path fill="none" stroke="midnightblue" d="M4061.14,-136.08C3859.94,-131.14 3213.24,-113.54 3006.5,-87 2995.6,-85.6 2983.86,-83.36 2973.25,-81.06"/>
<polygon fill="midnightblue" stroke="midnightblue" points="4061.14,-139.58 4071.22,-136.33 4061.31,-132.58 4061.14,-139.58"/>
</g>
<!-- Node16 -->
<g id="node13" class="node">
<title>Node16</title>
<g id="a_node13"><a xlink:href="sitkAdditiveGaussianNoiseImageFilter_8h.html" target="_top" xlink:title=" ">
<polygon fill="white" stroke="red" points="3015.5,-56.5 3015.5,-86.5 3163.5,-86.5 3163.5,-56.5 3015.5,-56.5"/>
<text text-anchor="start" x="3023.5" y="-74.5" font-family="Helvetica,sans-Serif" font-size="10.00">sitkAdditiveGaussianNoise</text>
<text text-anchor="middle" x="3089.5" y="-63.5" font-family="Helvetica,sans-Serif" font-size="10.00">ImageFilter.h</text>
</a>
</g>
</g>
<!-- Node7&#45;&gt;Node16 -->
<g id="edge17" class="edge">
<title>Node7&#45;&gt;Node16</title>
<path fill="none" stroke="midnightblue" d="M4061.09,-136.75C3910.66,-134.33 3507.38,-124.58 3173.5,-87 3170.26,-86.64 3166.97,-86.23 3163.64,-85.78"/>
<polygon fill="midnightblue" stroke="midnightblue" points="4061.43,-140.25 4071.48,-136.91 4061.53,-133.25 4061.43,-140.25"/>
</g>
<!-- Node17 -->
<g id="node14" class="node">
<title>Node17</title>
<g id="a_node14"><a xlink:href="sitkAggregateLabelMapFilter_8h.html" target="_top" xlink:title=" ">
<polygon fill="white" stroke="red" points="3182,-62 3182,-81 3347,-81 3347,-62 3182,-62"/>
<text text-anchor="middle" x="3264.5" y="-69" font-family="Helvetica,sans-Serif" font-size="10.00">sitkAggregateLabelMapFilter.h</text>
</a>
</g>
</g>
<!-- Node7&#45;&gt;Node17 -->
<g id="edge18" class="edge">
<title>Node7&#45;&gt;Node17</title>
<path fill="none" stroke="midnightblue" d="M4061.13,-135.37C3931.69,-130.4 3617.95,-116.17 3356.5,-87 3342.52,-85.44 3327.42,-83.27 3313.57,-81.07"/>
<polygon fill="midnightblue" stroke="midnightblue" points="4061.11,-138.87 4071.24,-135.76 4061.38,-131.88 4061.11,-138.87"/>
</g>
<!-- Node18 -->
<g id="node15" class="node">
<title>Node18</title>
<g id="a_node15"><a xlink:href="sitkAndImageFilter_8h.html" target="_top" xlink:title=" ">
<polygon fill="white" stroke="red" points="3365,-62 3365,-81 3482,-81 3482,-62 3365,-62"/>
<text text-anchor="middle" x="3423.5" y="-69" font-family="Helvetica,sans-Serif" font-size="10.00">sitkAndImageFilter.h</text>
</a>
</g>
</g>
<!-- Node7&#45;&gt;Node18 -->
<g id="edge19" class="edge">
<title>Node7&#45;&gt;Node18</title>
<path fill="none" stroke="midnightblue" d="M4061.31,-135.28C3948.86,-130.56 3699.44,-117.37 3491.5,-87 3480.99,-85.46 3469.67,-83.27 3459.34,-81.05"/>
<polygon fill="midnightblue" stroke="midnightblue" points="4061.3,-138.79 4071.43,-135.7 4061.59,-131.79 4061.3,-138.79"/>
</g>
<!-- Node19 -->
<g id="node16" class="node">
<title>Node19</title>
<g id="a_node16"><a xlink:href="sitkAntiAliasBinaryImageFilter_8h.html" target="_top" xlink:title=" ">
<polygon fill="white" stroke="red" points="3500.5,-56.5 3500.5,-86.5 3640.5,-86.5 3640.5,-56.5 3500.5,-56.5"/>
<text text-anchor="start" x="3508.5" y="-74.5" font-family="Helvetica,sans-Serif" font-size="10.00">sitkAntiAliasBinaryImage</text>
<text text-anchor="middle" x="3570.5" y="-63.5" font-family="Helvetica,sans-Serif" font-size="10.00">Filter.h</text>
</a>
</g>
</g>
<!-- Node7&#45;&gt;Node19 -->
<g id="edge20" class="edge">
<title>Node7&#45;&gt;Node19</title>
<path fill="none" stroke="midnightblue" d="M4061.16,-132.44C3971.39,-124.6 3797.46,-108.17 3650.5,-87 3647.29,-86.54 3644,-86.04 3640.69,-85.52"/>
<polygon fill="midnightblue" stroke="midnightblue" points="4060.9,-135.93 4071.16,-133.31 4061.5,-128.96 4060.9,-135.93"/>
</g>
<!-- Node20 -->
<g id="node17" class="node">
<title>Node20</title>
<g id="a_node17"><a xlink:href="sitkApproximateSignedDistanceMapImageFilter_8h.html" target="_top" xlink:title=" ">
<polygon fill="white" stroke="red" points="3659,-56.5 3659,-86.5 3832,-86.5 3832,-56.5 3659,-56.5"/>
<text text-anchor="start" x="3667" y="-74.5" font-family="Helvetica,sans-Serif" font-size="10.00">sitkApproximateSignedDistance</text>
<text text-anchor="middle" x="3745.5" y="-63.5" font-family="Helvetica,sans-Serif" font-size="10.00">MapImageFilter.h</text>
</a>
</g>
</g>
<!-- Node7&#45;&gt;Node20 -->
<g id="edge21" class="edge">
<title>Node7&#45;&gt;Node20</title>
<path fill="none" stroke="midnightblue" d="M4061.71,-127.16C3998.23,-116.19 3897.5,-98.78 3826.83,-86.56"/>
<polygon fill="midnightblue" stroke="midnightblue" points="4061.51,-130.68 4071.96,-128.94 4062.7,-123.78 4061.51,-130.68"/>
</g>
<!-- Node21 -->
<g id="node18" class="node">
<title>Node21</title>
<g id="a_node18"><a xlink:href="sitkAsinImageFilter_8h.html" target="_top" xlink:title=" ">
<polygon fill="white" stroke="red" points="3850,-62 3850,-81 3969,-81 3969,-62 3850,-62"/>
<text text-anchor="middle" x="3909.5" y="-69" font-family="Helvetica,sans-Serif" font-size="10.00">sitkAsinImageFilter.h</text>
</a>
</g>
</g>
<!-- Node7&#45;&gt;Node21 -->
<g id="edge22" class="edge">
<title>Node7&#45;&gt;Node21</title>
<path fill="none" stroke="midnightblue" d="M4083.76,-125.93C4041.78,-113.06 3974.96,-92.57 3937.43,-81.06"/>
<polygon fill="midnightblue" stroke="midnightblue" points="4082.76,-129.28 4093.35,-128.87 4084.81,-122.59 4082.76,-129.28"/>
</g>
<!-- Node22 -->
<g id="node19" class="node">
<title>Node22</title>
<g id="a_node19"><a xlink:href="sitkAtan2ImageFilter_8h.html" target="_top" xlink:title=" ">
<polygon fill="white" stroke="red" points="3987,-62 3987,-81 4114,-81 4114,-62 3987,-62"/>
<text text-anchor="middle" x="4050.5" y="-69" font-family="Helvetica,sans-Serif" font-size="10.00">sitkAtan2ImageFilter.h</text>
</a>
</g>
</g>
<!-- Node7&#45;&gt;Node22 -->
<g id="edge23" class="edge">
<title>Node7&#45;&gt;Node22</title>
<path fill="none" stroke="midnightblue" d="M4104.41,-121.86C4090.45,-109.08 4071.24,-91.49 4059.92,-81.13"/>
<polygon fill="midnightblue" stroke="midnightblue" points="4102.19,-124.56 4111.92,-128.73 4106.91,-119.4 4102.19,-124.56"/>
</g>
<!-- Node23 -->
<g id="node20" class="node">
<title>Node23</title>
<g id="a_node20"><a xlink:href="sitkAtanImageFilter_8h.html" target="_top" xlink:title=" ">
<polygon fill="white" stroke="red" points="4132,-62 4132,-81 4253,-81 4253,-62 4132,-62"/>
<text text-anchor="middle" x="4192.5" y="-69" font-family="Helvetica,sans-Serif" font-size="10.00">sitkAtanImageFilter.h</text>
</a>
</g>
</g>
<!-- Node7&#45;&gt;Node23 -->
<g id="edge24" class="edge">
<title>Node7&#45;&gt;Node23</title>
<path fill="none" stroke="midnightblue" d="M4138.59,-121.86C4152.55,-109.08 4171.76,-91.49 4183.08,-81.13"/>
<polygon fill="midnightblue" stroke="midnightblue" points="4136.09,-119.4 4131.08,-128.73 4140.81,-124.56 4136.09,-119.4"/>
</g>
<!-- Node24 -->
<g id="node21" class="node">
<title>Node24</title>
<g id="a_node21"><a xlink:href="sitkBSplineDecompositionImageFilter_8h.html" target="_top" xlink:title=" ">
<polygon fill="white" stroke="red" points="4271,-56.5 4271,-86.5 4416,-86.5 4416,-56.5 4271,-56.5"/>
<text text-anchor="start" x="4279" y="-74.5" font-family="Helvetica,sans-Serif" font-size="10.00">sitkBSplineDecomposition</text>
<text text-anchor="middle" x="4343.5" y="-63.5" font-family="Helvetica,sans-Serif" font-size="10.00">ImageFilter.h</text>
</a>
</g>
</g>
<!-- Node7&#45;&gt;Node24 -->
<g id="edge25" class="edge">
<title>Node7&#45;&gt;Node24</title>
<path fill="none" stroke="midnightblue" d="M4160.58,-126.06C4198.22,-115.04 4255.23,-98.34 4295.59,-86.53"/>
<polygon fill="midnightblue" stroke="midnightblue" points="4159.59,-122.7 4150.98,-128.87 4161.56,-129.42 4159.59,-122.7"/>
</g>
<!-- Node25 -->
<g id="node22" class="node">
<title>Node25</title>
<g id="a_node22"><a xlink:href="sitkBilateralImageFilter_8h.html" target="_top" xlink:title=" ">
<polygon fill="white" stroke="red" points="4434.5,-62 4434.5,-81 4574.5,-81 4574.5,-62 4434.5,-62"/>
<text text-anchor="middle" x="4504.5" y="-69" font-family="Helvetica,sans-Serif" font-size="10.00">sitkBilateralImageFilter.h</text>
</a>
</g>
</g>
<!-- Node7&#45;&gt;Node25 -->
<g id="edge27" class="edge">
<title>Node7&#45;&gt;Node25</title>
<path fill="none" stroke="midnightblue" d="M4181.47,-127.85C4242.82,-117.9 4340.88,-101.79 4425.5,-87 4436.21,-85.13 4447.73,-83.05 4458.57,-81.07"/>
<polygon fill="midnightblue" stroke="midnightblue" points="4180.88,-124.39 4171.57,-129.45 4182,-131.3 4180.88,-124.39"/>
</g>
<!-- Node26 -->
<g id="node23" class="node">
<title>Node26</title>
<g id="a_node23"><a xlink:href="sitkBinShrinkImageFilter_8h.html" target="_top" xlink:title=" ">
<polygon fill="white" stroke="red" points="4593,-62 4593,-81 4738,-81 4738,-62 4593,-62"/>
<text text-anchor="middle" x="4665.5" y="-69" font-family="Helvetica,sans-Serif" font-size="10.00">sitkBinShrinkImageFilter.h</text>
</a>
</g>
</g>
<!-- Node7&#45;&gt;Node26 -->
<g id="edge28" class="edge">
<title>Node7&#45;&gt;Node26</title>
<path fill="none" stroke="midnightblue" d="M4181.64,-132.21C4269.96,-124.14 4439.82,-107.53 4583.5,-87 4595.52,-85.28 4608.48,-83.13 4620.47,-81.01"/>
<polygon fill="midnightblue" stroke="midnightblue" points="4181.19,-128.73 4171.54,-133.12 4181.82,-135.7 4181.19,-128.73"/>
</g>
<!-- Node27 -->
<g id="node24" class="node">
<title>Node27</title>
<g id="a_node24"><a xlink:href="sitkBinaryClosingByReconstructionImageFilter_8h.html" target="_top" xlink:title=" ">
<polygon fill="white" stroke="red" points="4756.5,-56.5 4756.5,-86.5 4944.5,-86.5 4944.5,-56.5 4756.5,-56.5"/>
<text text-anchor="start" x="4764.5" y="-74.5" font-family="Helvetica,sans-Serif" font-size="10.00">sitkBinaryClosingByReconstruction</text>
<text text-anchor="middle" x="4850.5" y="-63.5" font-family="Helvetica,sans-Serif" font-size="10.00">ImageFilter.h</text>
</a>
</g>
</g>
<!-- Node7&#45;&gt;Node27 -->
<g id="edge29" class="edge">
<title>Node7&#45;&gt;Node27</title>
<path fill="none" stroke="midnightblue" d="M4181.56,-133.85C4293.2,-126.79 4540.21,-109.93 4747.5,-87 4750.37,-86.68 4753.29,-86.35 4756.23,-86"/>
<polygon fill="midnightblue" stroke="midnightblue" points="4181.26,-130.36 4171.5,-134.48 4181.7,-137.34 4181.26,-130.36"/>
</g>
<!-- Node28 -->
<g id="node25" class="node">
<title>Node28</title>
<g id="a_node25"><a xlink:href="sitkBinaryContourImageFilter_8h.html" target="_top" xlink:title=" ">
<polygon fill="white" stroke="red" points="4962.5,-62 4962.5,-81 5130.5,-81 5130.5,-62 4962.5,-62"/>
<text text-anchor="middle" x="5046.5" y="-69" font-family="Helvetica,sans-Serif" font-size="10.00">sitkBinaryContourImageFilter.h</text>
</a>
</g>
</g>
<!-- Node7&#45;&gt;Node28 -->
<g id="edge30" class="edge">
<title>Node7&#45;&gt;Node28</title>
<path fill="none" stroke="midnightblue" d="M4182.13,-135.77C4319.67,-131.43 4665.7,-118.1 4953.5,-87 4967.8,-85.46 4983.25,-83.26 4997.38,-81.04"/>
<polygon fill="midnightblue" stroke="midnightblue" points="4181.7,-132.29 4171.81,-136.1 4181.92,-139.28 4181.7,-132.29"/>
</g>
<!-- Node29 -->
<g id="node26" class="node">
<title>Node29</title>
<g id="a_node26"><a xlink:href="sitkBinaryDilateImageFilter_8h.html" target="_top" xlink:title=" ">
<polygon fill="white" stroke="red" points="5148,-62 5148,-81 5307,-81 5307,-62 5148,-62"/>
<text text-anchor="middle" x="5227.5" y="-69" font-family="Helvetica,sans-Serif" font-size="10.00">sitkBinaryDilateImageFilter.h</text>
</a>
</g>
</g>
<!-- Node7&#45;&gt;Node29 -->
<g id="edge31" class="edge">
<title>Node7&#45;&gt;Node29</title>
<path fill="none" stroke="midnightblue" d="M4182.16,-136.89C4340.23,-134.8 4777.65,-125.66 5139.5,-87 5153.36,-85.52 5168.35,-83.29 5181.96,-81.02"/>
<polygon fill="midnightblue" stroke="midnightblue" points="4181.66,-133.4 4171.71,-137.03 4181.75,-140.4 4181.66,-133.4"/>
</g>
<!-- Node30 -->
<g id="node27" class="node">
<title>Node30</title>
<g id="a_node27"><a xlink:href="sitkBinaryErodeImageFilter_8h.html" target="_top" xlink:title=" ">
<polygon fill="white" stroke="red" points="5324.5,-62 5324.5,-81 5482.5,-81 5482.5,-62 5324.5,-62"/>
<text text-anchor="middle" x="5403.5" y="-69" font-family="Helvetica,sans-Serif" font-size="10.00">sitkBinaryErodeImageFilter.h</text>
</a>
</g>
</g>
<!-- Node7&#45;&gt;Node30 -->
<g id="edge32" class="edge">
<title>Node7&#45;&gt;Node30</title>
<path fill="none" stroke="midnightblue" d="M4181.82,-137.57C4357.4,-137.19 4883.15,-132.1 5316.5,-87 5330.36,-85.56 5345.36,-83.31 5358.94,-81.01"/>
<polygon fill="midnightblue" stroke="midnightblue" points="4181.75,-134.07 4171.75,-137.58 4181.76,-141.07 4181.75,-134.07"/>
</g>
<!-- Node31 -->
<g id="node28" class="node">
<title>Node31</title>
<g id="a_node28"><a xlink:href="sitkBinaryFillholeImageFilter_8h.html" target="_top" xlink:title=" ">
<polygon fill="white" stroke="red" points="5501,-62 5501,-81 5666,-81 5666,-62 5501,-62"/>
<text text-anchor="middle" x="5583.5" y="-69" font-family="Helvetica,sans-Serif" font-size="10.00">sitkBinaryFillholeImageFilter.h</text>
</a>
</g>
</g>
<!-- Node7&#45;&gt;Node31 -->
<g id="edge33" class="edge">
<title>Node7&#45;&gt;Node31</title>
<path fill="none" stroke="midnightblue" d="M4181.88,-137.84C4373.82,-138.38 4987.01,-135.88 5491.5,-87 5506.15,-85.58 5522,-83.34 5536.36,-81.04"/>
<polygon fill="midnightblue" stroke="midnightblue" points="4181.73,-134.34 4171.72,-137.81 4181.71,-141.34 4181.73,-134.34"/>
</g>
<!-- Node32 -->
<g id="node29" class="node">
<title>Node32</title>
<g id="a_node29"><a xlink:href="sitkBinaryGrindPeakImageFilter_8h.html" target="_top" xlink:title=" ">
<polygon fill="white" stroke="red" points="5684,-56.5 5684,-86.5 5831,-86.5 5831,-56.5 5684,-56.5"/>
<text text-anchor="start" x="5692" y="-74.5" font-family="Helvetica,sans-Serif" font-size="10.00">sitkBinaryGrindPeakImage</text>
<text text-anchor="middle" x="5757.5" y="-63.5" font-family="Helvetica,sans-Serif" font-size="10.00">Filter.h</text>
</a>
</g>
</g>
<!-- Node7&#45;&gt;Node32 -->
<g id="edge34" class="edge">
<title>Node7&#45;&gt;Node32</title>
<path fill="none" stroke="midnightblue" d="M4182.13,-136.69C4431.41,-133.16 5378.06,-117.97 5675.5,-87 5678.23,-86.72 5681.01,-86.39 5683.81,-86.04"/>
<polygon fill="midnightblue" stroke="midnightblue" points="4181.78,-133.19 4171.83,-136.83 4181.88,-140.19 4181.78,-133.19"/>
</g>
<!-- Node33 -->
<g id="node30" class="node">
<title>Node33</title>
<g id="a_node30"><a xlink:href="sitkBinaryImageToLabelMapFilter_8h.html" target="_top" xlink:title=" ">
<polygon fill="white" stroke="red" points="5849,-56.5 5849,-86.5 6004,-86.5 6004,-56.5 5849,-56.5"/>
<text text-anchor="start" x="5857" y="-74.5" font-family="Helvetica,sans-Serif" font-size="10.00">sitkBinaryImageToLabelMap</text>
<text text-anchor="middle" x="5926.5" y="-63.5" font-family="Helvetica,sans-Serif" font-size="10.00">Filter.h</text>
</a>
</g>
</g>
<!-- Node7&#45;&gt;Node33 -->
<g id="edge35" class="edge">
<title>Node7&#45;&gt;Node33</title>
<path fill="none" stroke="midnightblue" d="M4181.92,-136.84C4446.99,-133.78 5508.62,-119.7 5840.5,-87 5843.21,-86.73 5845.97,-86.43 5848.75,-86.1"/>
<polygon fill="midnightblue" stroke="midnightblue" points="4181.68,-133.34 4171.72,-136.96 4181.76,-140.34 4181.68,-133.34"/>
</g>
<!-- Node34 -->
<g id="node31" class="node">
<title>Node34</title>
<g id="a_node31"><a xlink:href="sitkBinaryMagnitudeImageFilter_8h.html" target="_top" xlink:title=" ">
<polygon fill="white" stroke="red" points="6022,-56.5 6022,-86.5 6171,-86.5 6171,-56.5 6022,-56.5"/>
<text text-anchor="start" x="6030" y="-74.5" font-family="Helvetica,sans-Serif" font-size="10.00">sitkBinaryMagnitudeImage</text>
<text text-anchor="middle" x="6096.5" y="-63.5" font-family="Helvetica,sans-Serif" font-size="10.00">Filter.h</text>
</a>
</g>
</g>
<!-- Node7&#45;&gt;Node34 -->
<g id="edge36" class="edge">
<title>Node7&#45;&gt;Node34</title>
<path fill="none" stroke="midnightblue" d="M4181.9,-137.08C4463.08,-134.93 5645.71,-123.84 6013.5,-87 6016.27,-86.72 6019.08,-86.41 6021.91,-86.06"/>
<polygon fill="midnightblue" stroke="midnightblue" points="4181.48,-133.58 4171.5,-137.16 4181.53,-140.58 4181.48,-133.58"/>
</g>
<!-- Node35 -->
<g id="node32" class="node">
<title>Node35</title>
<g id="a_node32"><a xlink:href="sitkBinaryMedianImageFilter_8h.html" target="_top" xlink:title=" ">
<polygon fill="white" stroke="red" points="6189.5,-62 6189.5,-81 6355.5,-81 6355.5,-62 6189.5,-62"/>
<text text-anchor="middle" x="6272.5" y="-69" font-family="Helvetica,sans-Serif" font-size="10.00">sitkBinaryMedianImageFilter.h</text>
</a>
</g>
</g>
<!-- Node7&#45;&gt;Node35 -->
<g id="edge37" class="edge">
<title>Node7&#45;&gt;Node35</title>
<path fill="none" stroke="midnightblue" d="M4181.88,-137.09C4477.86,-134.94 5777.53,-123.54 6180.5,-87 6195.32,-85.66 6211.36,-83.41 6225.85,-81.07"/>
<polygon fill="midnightblue" stroke="midnightblue" points="4181.75,-133.59 4171.77,-137.17 4181.8,-140.59 4181.75,-133.59"/>
</g>
<!-- Node36 -->
<g id="node33" class="node">
<title>Node36</title>
<g id="a_node33"><a xlink:href="sitkBinaryMinMaxCurvatureFlowImageFilter_8h.html" target="_top" xlink:title=" ">
<polygon fill="white" stroke="red" points="6374,-56.5 6374,-86.5 6527,-86.5 6527,-56.5 6374,-56.5"/>
<text text-anchor="start" x="6382" y="-74.5" font-family="Helvetica,sans-Serif" font-size="10.00">sitkBinaryMinMaxCurvature</text>
<text text-anchor="middle" x="6450.5" y="-63.5" font-family="Helvetica,sans-Serif" font-size="10.00">FlowImageFilter.h</text>
</a>
</g>
</g>
<!-- Node7&#45;&gt;Node36 -->
<g id="edge38" class="edge">
<title>Node7&#45;&gt;Node36</title>
<path fill="none" stroke="midnightblue" d="M4182.14,-137.32C4494.4,-136.22 5923.34,-128.93 6364.5,-87 6367.51,-86.71 6370.58,-86.38 6373.68,-86.02"/>
<polygon fill="midnightblue" stroke="midnightblue" points="4181.93,-133.82 4171.94,-137.36 4181.95,-140.82 4181.93,-133.82"/>
</g>
<!-- Node37 -->
<g id="node34" class="node">
<title>Node37</title>
<g id="a_node34"><a xlink:href="sitkBinaryMorphologicalClosingImageFilter_8h.html" target="_top" xlink:title=" ">
<polygon fill="white" stroke="red" points="6545,-56.5 6545,-86.5 6716,-86.5 6716,-56.5 6545,-56.5"/>
<text text-anchor="start" x="6553" y="-74.5" font-family="Helvetica,sans-Serif" font-size="10.00">sitkBinaryMorphologicalClosing</text>
<text text-anchor="middle" x="6630.5" y="-63.5" font-family="Helvetica,sans-Serif" font-size="10.00">ImageFilter.h</text>
</a>
</g>
</g>
<!-- Node7&#45;&gt;Node37 -->
<g id="edge39" class="edge">
<title>Node7&#45;&gt;Node37</title>
<path fill="none" stroke="midnightblue" d="M4181.98,-137.32C4508,-136.18 6058.89,-128.65 6536.5,-87 6539.21,-86.76 6541.97,-86.5 6544.75,-86.21"/>
<polygon fill="midnightblue" stroke="midnightblue" points="4181.79,-133.82 4171.8,-137.35 4181.81,-140.82 4181.79,-133.82"/>
</g>
<!-- Node38 -->
<g id="node35" class="node">
<title>Node38</title>
<g id="a_node35"><a xlink:href="sitkBinaryMorphologicalOpeningImageFilter_8h.html" target="_top" xlink:title=" ">
<polygon fill="white" stroke="red" points="6734.5,-56.5 6734.5,-86.5 6910.5,-86.5 6910.5,-56.5 6734.5,-56.5"/>
<text text-anchor="start" x="6742.5" y="-74.5" font-family="Helvetica,sans-Serif" font-size="10.00">sitkBinaryMorphologicalOpening</text>
<text text-anchor="middle" x="6822.5" y="-63.5" font-family="Helvetica,sans-Serif" font-size="10.00">ImageFilter.h</text>
</a>
</g>
</g>
<!-- Node7&#45;&gt;Node38 -->
<g id="edge40" class="edge">
<title>Node7&#45;&gt;Node38</title>
<path fill="none" stroke="midnightblue" d="M4181.72,-137.39C4522.07,-136.6 6207.91,-130.52 6725.5,-87 6728.38,-86.76 6731.31,-86.48 6734.27,-86.18"/>
<polygon fill="midnightblue" stroke="midnightblue" points="4181.57,-133.89 4171.58,-137.41 4181.58,-140.89 4181.57,-133.89"/>
</g>
<!-- Node39 -->
<g id="node36" class="node">
<title>Node39</title>
<g id="a_node36"><a xlink:href="sitkBinaryNotImageFilter_8h.html" target="_top" xlink:title=" ">
<polygon fill="white" stroke="red" points="2059,-62 2059,-81 2206,-81 2206,-62 2059,-62"/>
<text text-anchor="middle" x="2132.5" y="-69" font-family="Helvetica,sans-Serif" font-size="10.00">sitkBinaryNotImageFilter.h</text>
</a>
</g>
</g>
<!-- Node7&#45;&gt;Node39 -->
<g id="edge41" class="edge">
<title>Node7&#45;&gt;Node39</title>
<path fill="none" stroke="midnightblue" d="M4061.07,-137.09C3778.57,-135 2586.2,-124.09 2215.5,-87 2201.96,-85.65 2187.31,-83.36 2174.13,-81"/>
<polygon fill="midnightblue" stroke="midnightblue" points="4061.1,-140.59 4071.13,-137.16 4061.15,-133.59 4061.1,-140.59"/>
</g>
<!-- Node309&#45;&gt;Node2 -->
<g id="edge43" class="edge">
<title>Node309&#45;&gt;Node2</title>
<path fill="none" stroke="midnightblue" d="M978.33,-120.75C1039.33,-103.82 1136.78,-77.21 1221.5,-56 1275.67,-42.44 1338.7,-28.08 1377.85,-19.32"/>
<polygon fill="midnightblue" stroke="midnightblue" points="977.19,-117.43 968.49,-123.48 979.06,-124.18 977.19,-117.43"/>
</g>
<!-- Node310&#45;&gt;Node2 -->
<g id="edge45" class="edge">
<title>Node310&#45;&gt;Node2</title>
<path fill="none" stroke="midnightblue" d="M1124.69,-125.25C1189.57,-99.76 1337.68,-41.57 1393.59,-19.61"/>
<polygon fill="midnightblue" stroke="midnightblue" points="1123.41,-121.99 1115.38,-128.9 1125.97,-128.51 1123.41,-121.99"/>
</g>
<!-- Node311&#45;&gt;Node2 -->
<g id="edge47" class="edge">
<title>Node311&#45;&gt;Node2</title>
<path fill="none" stroke="midnightblue" d="M1292.63,-122.02C1322.31,-95.2 1382.36,-40.94 1405.81,-19.76"/>
<polygon fill="midnightblue" stroke="midnightblue" points="1290.2,-119.5 1285.12,-128.81 1294.89,-124.7 1290.2,-119.5"/>
</g>
<!-- Node312&#45;&gt;Node2 -->
<g id="edge49" class="edge">
<title>Node312&#45;&gt;Node2</title>
<path fill="none" stroke="midnightblue" d="M1445.33,-118.81C1437.66,-91.08 1423.56,-40.13 1417.92,-19.76"/>
<polygon fill="midnightblue" stroke="midnightblue" points="1442.05,-120.1 1448.09,-128.81 1448.8,-118.23 1442.05,-120.1"/>
</g>
<!-- Node313&#45;&gt;Node2 -->
<g id="edge51" class="edge">
<title>Node313&#45;&gt;Node2</title>
<path fill="none" stroke="midnightblue" d="M1557.68,-125.89C1532.81,-117.66 1501.53,-104.87 1477.5,-87 1451.54,-67.69 1429.96,-35.18 1420.56,-19.7"/>
<polygon fill="midnightblue" stroke="midnightblue" points="1556.63,-129.23 1567.22,-128.93 1558.75,-122.56 1556.63,-129.23"/>
</g>
<!-- Node314&#45;&gt;Node2 -->
<g id="edge53" class="edge">
<title>Node314&#45;&gt;Node2</title>
<path fill="none" stroke="midnightblue" d="M1709.5,-127.19C1640.36,-114.89 1532.95,-94.97 1515.5,-87 1495.04,-77.66 1493.39,-69.64 1475.5,-56 1458.73,-43.21 1439.15,-28.59 1427.04,-19.57"/>
<polygon fill="midnightblue" stroke="midnightblue" points="1708.95,-130.65 1719.41,-128.95 1710.17,-123.76 1708.95,-130.65"/>
</g>
<!-- Node315&#45;&gt;Node2 -->
<g id="edge55" class="edge">
<title>Node315&#45;&gt;Node2</title>
<path fill="none" stroke="midnightblue" d="M1896.76,-127.59C1885.32,-126.01 1873.58,-124.43 1862.5,-123 1725.37,-105.36 1682.66,-136.34 1553.5,-87 1531.15,-78.46 1530.14,-68.1 1509.5,-56 1484.99,-41.64 1455.19,-27.97 1435.81,-19.54"/>
<polygon fill="midnightblue" stroke="midnightblue" points="1896.32,-131.06 1906.71,-128.98 1897.29,-124.13 1896.32,-131.06"/>
</g>
<!-- Node316&#45;&gt;Node2 -->
<g id="edge57" class="edge">
<title>Node316&#45;&gt;Node2</title>
<path fill="none" stroke="midnightblue" d="M2091.58,-126.97C2083.91,-125.46 2076,-124.07 2068.5,-123 1858.01,-93.07 1792.34,-156.73 1591.5,-87 1568.21,-78.91 1567.56,-67.01 1545.5,-56 1513.45,-40 1474.33,-27.3 1447.42,-19.52"/>
<polygon fill="midnightblue" stroke="midnightblue" points="2090.99,-130.42 2101.49,-129 2092.39,-123.56 2090.99,-130.42"/>
</g>
<!-- Node317&#45;&gt;Node2 -->
<g id="edge59" class="edge">
<title>Node317&#45;&gt;Node2</title>
<path fill="none" stroke="midnightblue" d="M2238.85,-127.36C2228.12,-125.71 2216.99,-124.17 2206.5,-123 2078.82,-108.77 1751.34,-127.74 1629.5,-87 1605.77,-79.06 1605.32,-66.28 1582.5,-56 1540.06,-36.89 1487.79,-24.42 1453.16,-17.56"/>
<polygon fill="midnightblue" stroke="midnightblue" points="2238.55,-130.85 2248.98,-128.96 2239.64,-123.94 2238.55,-130.85"/>
</g>
<!-- Node318&#45;&gt;Node2 -->
<g id="edge61" class="edge">
<title>Node318&#45;&gt;Node2</title>
<path fill="none" stroke="midnightblue" d="M2418.45,-127.29C2408.2,-125.63 2397.54,-124.1 2387.5,-123 2228.26,-105.5 1819.98,-136.13 1667.5,-87 1643.33,-79.21 1642.94,-65.78 1619.5,-56 1564.1,-32.89 1495.07,-20.85 1453.19,-15.23"/>
<polygon fill="midnightblue" stroke="midnightblue" points="2418.08,-130.78 2428.52,-128.97 2419.24,-123.87 2418.08,-130.78"/>
</g>
<!-- Node319&#45;&gt;Node2 -->
<g id="edge63" class="edge">
<title>Node319&#45;&gt;Node2</title>
<path fill="none" stroke="midnightblue" d="M112.23,-125.71C170.41,-107.11 289.58,-71.48 393.5,-56 589.04,-26.88 1217.38,-14.38 1377.89,-11.61"/>
<polygon fill="midnightblue" stroke="midnightblue" points="110.87,-122.47 102.42,-128.87 113.01,-129.14 110.87,-122.47"/>
</g>
<!-- Node320&#45;&gt;Node2 -->
<g id="edge65" class="edge">
<title>Node320&#45;&gt;Node2</title>
<path fill="none" stroke="midnightblue" d="M276.18,-125.37C326.6,-106.68 428.62,-71.39 518.5,-56 687.75,-27.01 1229.73,-14.6 1377.81,-11.69"/>
<polygon fill="midnightblue" stroke="midnightblue" points="274.94,-122.09 266.8,-128.87 277.39,-128.65 274.94,-122.09"/>
</g>
<!-- Node321&#45;&gt;Node2 -->
<g id="edge67" class="edge">
<title>Node321&#45;&gt;Node2</title>
<path fill="none" stroke="midnightblue" d="M441.07,-123.85C476.87,-104.75 546.02,-70.71 609.5,-56 758.49,-21.48 1239.26,-13.11 1377.81,-11.4"/>
<polygon fill="midnightblue" stroke="midnightblue" points="439.02,-120.98 431.89,-128.82 442.35,-127.14 439.02,-120.98"/>
</g>
<!-- Node322&#45;&gt;Node2 -->
<g id="edge69" class="edge">
<title>Node322&#45;&gt;Node2</title>
<path fill="none" stroke="midnightblue" d="M586.74,-120.29C599.43,-100.77 623.01,-69.87 652.5,-56 718.47,-24.98 1233.4,-14.06 1377.9,-11.59"/>
<polygon fill="midnightblue" stroke="midnightblue" points="583.74,-118.49 581.41,-128.83 589.68,-122.2 583.74,-118.49"/>
</g>
</g>
</svg>
