<?xml version="1.0" encoding="UTF-8" standalone="no"?>
<!DOCTYPE svg PUBLIC "-//W3C//DTD SVG 1.1//EN"
 "http://www.w3.org/Graphics/SVG/1.1/DTD/svg11.dtd">
<!-- Generated by graphviz version 2.43.0 (0)
 -->
<!-- Title: sitkHashImageFilter.h Pages: 1 -->
<svg width="2022pt" height="621pt"
 viewBox="0.00 0.00 2022.21 621.00" xmlns="http://www.w3.org/2000/svg" xmlns:xlink="http://www.w3.org/1999/xlink">
<g id="graph0" class="graph" transform="scale(1 1) rotate(0) translate(4 617)">
<title>sitkHashImageFilter.h</title>
<polygon fill="white" stroke="transparent" points="-4,4 -4,-617 2018.21,-617 2018.21,4 -4,4"/>
<!-- Node1 -->
<g id="node1" class="node">
<title>Node1</title>
<g id="a_node1"><a xlink:title=" ">
<polygon fill="#bfbfbf" stroke="black" points="1224.5,-593.5 1224.5,-612.5 1347.5,-612.5 1347.5,-593.5 1224.5,-593.5"/>
<text text-anchor="middle" x="1286" y="-600.5" font-family="Helvetica,sans-Serif" font-size="10.00">sitkHashImageFilter.h</text>
</a>
</g>
</g>
<!-- Node2 -->
<g id="node2" class="node">
<title>Node2</title>
<g id="a_node2"><a xlink:href="sitkMacro_8h.html" target="_top" xlink:title=" ">
<polygon fill="white" stroke="black" points="573,-56.5 573,-75.5 647,-75.5 647,-56.5 573,-56.5"/>
<text text-anchor="middle" x="610" y="-63.5" font-family="Helvetica,sans-Serif" font-size="10.00">sitkMacro.h</text>
</a>
</g>
</g>
<!-- Node1&#45;&gt;Node2 -->
<g id="edge1" class="edge">
<title>Node1&#45;&gt;Node2</title>
<path fill="none" stroke="midnightblue" d="M1347.54,-597.27C1501.86,-584.59 1893,-547.02 1893,-492 1893,-492 1893,-492 1893,-177 1893,-158.44 2274.31,-212.06 1684,-112 1482.17,-77.79 837.55,-69.17 657.25,-67.4"/>
<polygon fill="midnightblue" stroke="midnightblue" points="657.07,-63.9 647.04,-67.3 657,-70.9 657.07,-63.9"/>
</g>
<!-- Node9 -->
<g id="node9" class="node">
<title>Node9</title>
<g id="a_node9"><a xlink:href="sitkMemberFunctionFactory_8h.html" target="_top" xlink:title=" ">
<polygon fill="white" stroke="black" points="405.5,-369.5 405.5,-388.5 564.5,-388.5 564.5,-369.5 405.5,-369.5"/>
<text text-anchor="middle" x="485" y="-376.5" font-family="Helvetica,sans-Serif" font-size="10.00">sitkMemberFunctionFactory.h</text>
</a>
</g>
</g>
<!-- Node1&#45;&gt;Node9 -->
<g id="edge8" class="edge">
<title>Node1&#45;&gt;Node9</title>
<path fill="none" stroke="midnightblue" d="M1224.22,-594.81C1101.34,-579.03 819.15,-535.34 599,-445 564.88,-431 528.33,-408.72 506.06,-394.22"/>
<polygon fill="midnightblue" stroke="midnightblue" points="507.72,-391.12 497.44,-388.53 503.86,-396.96 507.72,-391.12"/>
</g>
<!-- Node28 -->
<g id="node28" class="node">
<title>Node28</title>
<g id="a_node28"><a xlink:href="sitkImage_8h.html" target="_top" xlink:title=" ">
<polygon fill="white" stroke="black" points="1167,-369.5 1167,-388.5 1241,-388.5 1241,-369.5 1167,-369.5"/>
<text text-anchor="middle" x="1204" y="-376.5" font-family="Helvetica,sans-Serif" font-size="10.00">sitkImage.h</text>
</a>
</g>
</g>
<!-- Node1&#45;&gt;Node28 -->
<g id="edge40" class="edge">
<title>Node1&#45;&gt;Node28</title>
<path fill="none" stroke="midnightblue" d="M1283.74,-593.33C1276.82,-567.31 1254.78,-487.76 1228,-425 1224.05,-415.74 1218.87,-405.82 1214.33,-397.66"/>
<polygon fill="midnightblue" stroke="midnightblue" points="1217.24,-395.69 1209.25,-388.74 1211.16,-399.16 1217.24,-395.69"/>
</g>
<!-- Node35 -->
<g id="node35" class="node">
<title>Node35</title>
<g id="a_node35"><a xlink:href="sitkBasicFilters_8h.html" target="_top" xlink:title=" ">
<polygon fill="white" stroke="black" points="1512,-481.5 1512,-500.5 1612,-500.5 1612,-481.5 1512,-481.5"/>
<text text-anchor="middle" x="1562" y="-488.5" font-family="Helvetica,sans-Serif" font-size="10.00">sitkBasicFilters.h</text>
</a>
</g>
</g>
<!-- Node1&#45;&gt;Node35 -->
<g id="edge57" class="edge">
<title>Node1&#45;&gt;Node35</title>
<path fill="none" stroke="midnightblue" d="M1307.66,-593.37C1356.33,-573.97 1474.51,-526.87 1530.97,-504.37"/>
<polygon fill="midnightblue" stroke="midnightblue" points="1532.45,-507.55 1540.44,-500.59 1529.86,-501.04 1532.45,-507.55"/>
</g>
<!-- Node40 -->
<g id="node40" class="node">
<title>Node40</title>
<g id="a_node40"><a xlink:href="sitkImageFilter_8h.html" target="_top" xlink:title=" ">
<polygon fill="white" stroke="black" points="1097,-537.5 1097,-556.5 1195,-556.5 1195,-537.5 1097,-537.5"/>
<text text-anchor="middle" x="1146" y="-544.5" font-family="Helvetica,sans-Serif" font-size="10.00">sitkImageFilter.h</text>
</a>
</g>
</g>
<!-- Node1&#45;&gt;Node40 -->
<g id="edge71" class="edge">
<title>Node1&#45;&gt;Node40</title>
<path fill="none" stroke="midnightblue" d="M1263.82,-593.44C1240.57,-584.48 1203.85,-570.31 1177.58,-560.18"/>
<polygon fill="midnightblue" stroke="midnightblue" points="1178.67,-556.85 1168.08,-556.52 1176.15,-563.38 1178.67,-556.85"/>
</g>
<!-- Node41 -->
<g id="node41" class="node">
<title>Node41</title>
<g id="a_node41"><a xlink:href="sitkProcessObject_8h.html" target="_top" xlink:title=" ">
<polygon fill="white" stroke="black" points="1089.5,-481.5 1089.5,-500.5 1202.5,-500.5 1202.5,-481.5 1089.5,-481.5"/>
<text text-anchor="middle" x="1146" y="-488.5" font-family="Helvetica,sans-Serif" font-size="10.00">sitkProcessObject.h</text>
</a>
</g>
</g>
<!-- Node1&#45;&gt;Node41 -->
<g id="edge87" class="edge">
<title>Node1&#45;&gt;Node41</title>
<path fill="none" stroke="midnightblue" d="M1275.15,-593.34C1259.48,-580.85 1229.59,-557.07 1204,-537 1191.05,-526.85 1176.42,-515.49 1165.08,-506.73"/>
<polygon fill="midnightblue" stroke="midnightblue" points="1167.2,-503.94 1157.15,-500.59 1162.92,-509.48 1167.2,-503.94"/>
</g>
<!-- Node3 -->
<g id="node3" class="node">
<title>Node3</title>
<g id="a_node3"><a xlink:title=" ">
<polygon fill="white" stroke="#bfbfbf" points="267.5,-0.5 267.5,-19.5 320.5,-19.5 320.5,-0.5 267.5,-0.5"/>
<text text-anchor="middle" x="294" y="-7.5" font-family="Helvetica,sans-Serif" font-size="10.00">stdint.h</text>
</a>
</g>
</g>
<!-- Node2&#45;&gt;Node3 -->
<g id="edge2" class="edge">
<title>Node2&#45;&gt;Node3</title>
<path fill="none" stroke="midnightblue" d="M572.82,-58.65C511.75,-48.21 390.93,-27.56 330.38,-17.22"/>
<polygon fill="midnightblue" stroke="midnightblue" points="330.95,-13.76 320.5,-15.53 329.77,-20.66 330.95,-13.76"/>
</g>
<!-- Node4 -->
<g id="node4" class="node">
<title>Node4</title>
<g id="a_node4"><a xlink:title=" ">
<polygon fill="white" stroke="#bfbfbf" points="521,-0.5 521,-19.5 577,-19.5 577,-0.5 521,-0.5"/>
<text text-anchor="middle" x="549" y="-7.5" font-family="Helvetica,sans-Serif" font-size="10.00">stddef.h</text>
</a>
</g>
</g>
<!-- Node2&#45;&gt;Node4 -->
<g id="edge3" class="edge">
<title>Node2&#45;&gt;Node4</title>
<path fill="none" stroke="midnightblue" d="M600.2,-56.32C591.18,-48.34 577.59,-36.31 566.68,-26.65"/>
<polygon fill="midnightblue" stroke="midnightblue" points="568.79,-23.84 558.98,-19.83 564.15,-29.08 568.79,-23.84"/>
</g>
<!-- Node5 -->
<g id="node5" class="node">
<title>Node5</title>
<g id="a_node5"><a xlink:title=" ">
<polygon fill="white" stroke="#bfbfbf" points="49,-0.5 49,-19.5 101,-19.5 101,-0.5 49,-0.5"/>
<text text-anchor="middle" x="75" y="-7.5" font-family="Helvetica,sans-Serif" font-size="10.00">cassert</text>
</a>
</g>
</g>
<!-- Node2&#45;&gt;Node5 -->
<g id="edge4" class="edge">
<title>Node2&#45;&gt;Node5</title>
<path fill="none" stroke="midnightblue" d="M572.8,-61.25C474.48,-51.32 208.56,-24.48 111.28,-14.66"/>
<polygon fill="midnightblue" stroke="midnightblue" points="111.37,-11.15 101.07,-13.63 110.67,-18.12 111.37,-11.15"/>
</g>
<!-- Node6 -->
<g id="node6" class="node">
<title>Node6</title>
<g id="a_node6"><a xlink:title=" ">
<polygon fill="white" stroke="#bfbfbf" points="595,-0.5 595,-19.5 651,-19.5 651,-0.5 595,-0.5"/>
<text text-anchor="middle" x="623" y="-7.5" font-family="Helvetica,sans-Serif" font-size="10.00">sstream</text>
</a>
</g>
</g>
<!-- Node2&#45;&gt;Node6 -->
<g id="edge5" class="edge">
<title>Node2&#45;&gt;Node6</title>
<path fill="none" stroke="midnightblue" d="M612.15,-56.08C613.87,-48.93 616.35,-38.64 618.5,-29.69"/>
<polygon fill="midnightblue" stroke="midnightblue" points="621.96,-30.29 620.89,-19.75 615.15,-28.65 621.96,-30.29"/>
</g>
<!-- Node7 -->
<g id="node7" class="node">
<title>Node7</title>
<g id="a_node7"><a xlink:title=" ">
<polygon fill="white" stroke="#bfbfbf" points="669,-0.5 669,-19.5 713,-19.5 713,-0.5 669,-0.5"/>
<text text-anchor="middle" x="691" y="-7.5" font-family="Helvetica,sans-Serif" font-size="10.00">limits</text>
</a>
</g>
</g>
<!-- Node2&#45;&gt;Node7 -->
<g id="edge6" class="edge">
<title>Node2&#45;&gt;Node7</title>
<path fill="none" stroke="midnightblue" d="M623.01,-56.32C635.53,-47.98 654.68,-35.21 669.47,-25.35"/>
<polygon fill="midnightblue" stroke="midnightblue" points="671.64,-28.11 678.02,-19.65 667.76,-22.29 671.64,-28.11"/>
</g>
<!-- Node8 -->
<g id="node8" class="node">
<title>Node8</title>
<g id="a_node8"><a xlink:href="sitkConfigure_8h.html" target="_top" xlink:title=" ">
<polygon fill="white" stroke="black" points="413,-0.5 413,-19.5 503,-19.5 503,-0.5 413,-0.5"/>
<text text-anchor="middle" x="458" y="-7.5" font-family="Helvetica,sans-Serif" font-size="10.00">sitkConfigure.h</text>
</a>
</g>
</g>
<!-- Node2&#45;&gt;Node8 -->
<g id="edge7" class="edge">
<title>Node2&#45;&gt;Node8</title>
<path fill="none" stroke="midnightblue" d="M585.92,-56.44C560.46,-47.4 520.11,-33.06 491.54,-22.92"/>
<polygon fill="midnightblue" stroke="midnightblue" points="492.57,-19.57 481.97,-19.52 490.22,-26.16 492.57,-19.57"/>
</g>
<!-- Node9&#45;&gt;Node5 -->
<g id="edge36" class="edge">
<title>Node9&#45;&gt;Node5</title>
<path fill="none" stroke="midnightblue" d="M405.46,-372.78C267.86,-361.54 0,-329.01 0,-246 0,-246 0,-246 0,-121 0,-81.44 33.52,-45.62 55.74,-26.21"/>
<polygon fill="midnightblue" stroke="midnightblue" points="58.2,-28.71 63.61,-19.6 53.7,-23.35 58.2,-28.71"/>
</g>
<!-- Node9&#45;&gt;Node9 -->
<g id="edge37" class="edge">
<title>Node9&#45;&gt;Node9</title>
<path fill="none" stroke="midnightblue" d="M526.33,-388.5C554.67,-391.33 582.5,-388.16 582.5,-379 582.5,-370.95 561,-367.53 536.56,-368.74"/>
<polygon fill="midnightblue" stroke="midnightblue" points="536.04,-365.27 526.33,-369.5 536.56,-372.25 536.04,-365.27"/>
</g>
<!-- Node10 -->
<g id="node10" class="node">
<title>Node10</title>
<g id="a_node10"><a xlink:href="sitkDetail_8h.html" target="_top" xlink:title=" ">
<polygon fill="white" stroke="black" points="448.5,-308 448.5,-327 521.5,-327 521.5,-308 448.5,-308"/>
<text text-anchor="middle" x="485" y="-315" font-family="Helvetica,sans-Serif" font-size="10.00">sitkDetail.h</text>
</a>
</g>
</g>
<!-- Node9&#45;&gt;Node10 -->
<g id="edge9" class="edge">
<title>Node9&#45;&gt;Node10</title>
<path fill="none" stroke="midnightblue" d="M485,-369.48C485,-361.08 485,-347.98 485,-337.16"/>
<polygon fill="midnightblue" stroke="midnightblue" points="488.5,-337.01 485,-327.01 481.5,-337.01 488.5,-337.01"/>
</g>
<!-- Node11 -->
<g id="node11" class="node">
<title>Node11</title>
<g id="a_node11"><a xlink:href="sitkMemberFunctionFactoryBase_8h.html" target="_top" xlink:title=" ">
<polygon fill="white" stroke="black" points="350,-230 350,-260 502,-260 502,-230 350,-230"/>
<text text-anchor="start" x="358" y="-248" font-family="Helvetica,sans-Serif" font-size="10.00">sitkMemberFunctionFactory</text>
<text text-anchor="middle" x="426" y="-237" font-family="Helvetica,sans-Serif" font-size="10.00">Base.h</text>
</a>
</g>
</g>
<!-- Node9&#45;&gt;Node11 -->
<g id="edge29" class="edge">
<title>Node9&#45;&gt;Node11</title>
<path fill="none" stroke="midnightblue" d="M472.95,-369.48C462.45,-361.36 447.74,-348.15 440,-333 429.98,-313.39 426.8,-288.33 425.94,-270.14"/>
<polygon fill="midnightblue" stroke="midnightblue" points="429.44,-269.97 425.66,-260.07 422.44,-270.17 429.44,-269.97"/>
</g>
<!-- Node22 -->
<g id="node22" class="node">
<title>Node22</title>
<g id="a_node22"><a xlink:href="sitkPixelIDValues_8h.html" target="_top" xlink:title=" ">
<polygon fill="white" stroke="black" points="540,-308 540,-327 650,-327 650,-308 540,-308"/>
<text text-anchor="middle" x="595" y="-315" font-family="Helvetica,sans-Serif" font-size="10.00">sitkPixelIDValues.h</text>
</a>
</g>
</g>
<!-- Node9&#45;&gt;Node22 -->
<g id="edge30" class="edge">
<title>Node9&#45;&gt;Node22</title>
<path fill="none" stroke="midnightblue" d="M500.76,-369.48C518.98,-359.62 549.17,-343.29 570.47,-331.77"/>
<polygon fill="midnightblue" stroke="midnightblue" points="572.14,-334.85 579.27,-327.01 568.81,-328.69 572.14,-334.85"/>
</g>
<!-- Node25 -->
<g id="node25" class="node">
<title>Node25</title>
<g id="a_node25"><a xlink:title=" ">
<polygon fill="white" stroke="#bfbfbf" points="220.5,-308 220.5,-327 391.5,-327 391.5,-308 220.5,-308"/>
<text text-anchor="middle" x="306" y="-315" font-family="Helvetica,sans-Serif" font-size="10.00">sitkMemberFunctionFactory.hxx</text>
</a>
</g>
</g>
<!-- Node9&#45;&gt;Node25 -->
<g id="edge35" class="edge">
<title>Node9&#45;&gt;Node25</title>
<path fill="none" stroke="midnightblue" d="M459.35,-369.48C428.38,-359.18 376.13,-341.81 341.35,-330.25"/>
<polygon fill="midnightblue" stroke="midnightblue" points="342.19,-326.84 331.6,-327.01 339.98,-333.48 342.19,-326.84"/>
</g>
<!-- Node26 -->
<g id="node26" class="node">
<title>Node26</title>
<g id="a_node26"><a xlink:title=" ">
<polygon fill="white" stroke="#bfbfbf" points="820.5,-302.5 820.5,-332.5 1019.5,-332.5 1019.5,-302.5 820.5,-302.5"/>
<text text-anchor="start" x="828.5" y="-320.5" font-family="Helvetica,sans-Serif" font-size="10.00">/work/SimpleITK/Code</text>
<text text-anchor="middle" x="920" y="-309.5" font-family="Helvetica,sans-Serif" font-size="10.00">/Common/include/sitkPixelIDTokens.h</text>
</a>
</g>
</g>
<!-- Node9&#45;&gt;Node26 -->
<g id="edge38" class="edge">
<title>Node9&#45;&gt;Node26</title>
<path fill="none" stroke="midnightblue" d="M547.32,-369.48C615.84,-360.1 727.22,-344.87 810.4,-333.49"/>
<polygon fill="midnightblue" stroke="midnightblue" points="810.97,-336.95 820.4,-332.12 810.02,-330.01 810.97,-336.95"/>
</g>
<!-- Node27 -->
<g id="node27" class="node">
<title>Node27</title>
<g id="a_node27"><a xlink:title=" ">
<polygon fill="white" stroke="#bfbfbf" points="746.5,-224.5 746.5,-265.5 917.5,-265.5 917.5,-224.5 746.5,-224.5"/>
<text text-anchor="start" x="754.5" y="-253.5" font-family="Helvetica,sans-Serif" font-size="10.00">/work/SimpleITK/Code</text>
<text text-anchor="start" x="754.5" y="-242.5" font-family="Helvetica,sans-Serif" font-size="10.00">/Common/include/sitkException</text>
<text text-anchor="middle" x="832" y="-231.5" font-family="Helvetica,sans-Serif" font-size="10.00">Object.h</text>
</a>
</g>
</g>
<!-- Node9&#45;&gt;Node27 -->
<g id="edge39" class="edge">
<title>Node9&#45;&gt;Node27</title>
<path fill="none" stroke="midnightblue" d="M528.33,-369.48C564.02,-361.83 615.63,-349.3 659,-333 705.22,-315.63 755.35,-289.55 789.69,-270.48"/>
<polygon fill="midnightblue" stroke="midnightblue" points="791.49,-273.48 798.5,-265.54 788.07,-267.37 791.49,-273.48"/>
</g>
<!-- Node10&#45;&gt;Node11 -->
<g id="edge10" class="edge">
<title>Node10&#45;&gt;Node11</title>
<path fill="none" stroke="midnightblue" d="M477.77,-307.86C469.51,-297.99 455.69,-281.48 444.41,-267.99"/>
<polygon fill="midnightblue" stroke="midnightblue" points="446.88,-265.5 437.78,-260.08 441.51,-269.99 446.88,-265.5"/>
</g>
<!-- Node18 -->
<g id="node18" class="node">
<title>Node18</title>
<g id="a_node18"><a xlink:title=" ">
<polygon fill="white" stroke="#bfbfbf" points="626.5,-168.5 626.5,-187.5 765.5,-187.5 765.5,-168.5 626.5,-168.5"/>
<text text-anchor="middle" x="696" y="-175.5" font-family="Helvetica,sans-Serif" font-size="10.00">Ancillary/FunctionTraits.h</text>
</a>
</g>
</g>
<!-- Node10&#45;&gt;Node18 -->
<g id="edge28" class="edge">
<title>Node10&#45;&gt;Node18</title>
<path fill="none" stroke="midnightblue" d="M489.71,-308C500.17,-289.9 527.09,-247.32 561,-224 584.63,-207.75 614.59,-196.98 640.28,-190.07"/>
<polygon fill="midnightblue" stroke="midnightblue" points="641.44,-193.39 650.26,-187.52 639.71,-186.6 641.44,-193.39"/>
</g>
<!-- Node11&#45;&gt;Node2 -->
<g id="edge19" class="edge">
<title>Node11&#45;&gt;Node2</title>
<path fill="none" stroke="midnightblue" d="M480.39,-229.9C518.64,-218.93 565.34,-203.1 579,-188 604.98,-159.28 609.8,-111.75 610.34,-85.63"/>
<polygon fill="midnightblue" stroke="midnightblue" points="613.84,-85.57 610.35,-75.57 606.84,-85.56 613.84,-85.57"/>
</g>
<!-- Node11&#45;&gt;Node8 -->
<g id="edge11" class="edge">
<title>Node11&#45;&gt;Node8</title>
<path fill="none" stroke="midnightblue" d="M380.9,-229.94C345.57,-216.54 305.54,-194.49 326,-168 364.75,-117.84 425.25,-182.16 464,-132 486.95,-102.29 474.98,-55.18 465.63,-29.39"/>
<polygon fill="midnightblue" stroke="midnightblue" points="468.77,-27.8 461.89,-19.75 462.24,-30.34 468.77,-27.8"/>
</g>
<!-- Node12 -->
<g id="node12" class="node">
<title>Node12</title>
<g id="a_node12"><a xlink:href="sitkPixelIDTypes_8h.html" target="_top" xlink:title=" ">
<polygon fill="white" stroke="black" points="349.5,-112.5 349.5,-131.5 454.5,-131.5 454.5,-112.5 349.5,-112.5"/>
<text text-anchor="middle" x="402" y="-119.5" font-family="Helvetica,sans-Serif" font-size="10.00">sitkPixelIDTypes.h</text>
</a>
</g>
</g>
<!-- Node11&#45;&gt;Node12 -->
<g id="edge12" class="edge">
<title>Node11&#45;&gt;Node12</title>
<path fill="none" stroke="midnightblue" d="M351.88,-229.97C328.78,-221.73 305.77,-208.67 292,-188 274.3,-161.42 311.3,-144.18 347.07,-134.18"/>
<polygon fill="midnightblue" stroke="midnightblue" points="348.29,-137.47 357.08,-131.55 346.52,-130.7 348.29,-137.47"/>
</g>
<!-- Node13 -->
<g id="node13" class="node">
<title>Node13</title>
<g id="a_node13"><a xlink:href="sitkPixelIDTypeLists_8h.html" target="_top" xlink:title=" ">
<polygon fill="white" stroke="black" points="42,-168.5 42,-187.5 164,-187.5 164,-168.5 42,-168.5"/>
<text text-anchor="middle" x="103" y="-175.5" font-family="Helvetica,sans-Serif" font-size="10.00">sitkPixelIDTypeLists.h</text>
</a>
</g>
</g>
<!-- Node11&#45;&gt;Node13 -->
<g id="edge13" class="edge">
<title>Node11&#45;&gt;Node13</title>
<path fill="none" stroke="midnightblue" d="M356.31,-229.98C295.9,-217.82 209.83,-200.5 155.2,-189.51"/>
<polygon fill="midnightblue" stroke="midnightblue" points="155.87,-186.07 145.38,-187.53 154.49,-192.93 155.87,-186.07"/>
</g>
<!-- Node14 -->
<g id="node14" class="node">
<title>Node14</title>
<g id="a_node14"><a xlink:title=" ">
<polygon fill="white" stroke="#bfbfbf" points="220.5,-112.5 220.5,-131.5 331.5,-131.5 331.5,-112.5 220.5,-112.5"/>
<text text-anchor="middle" x="276" y="-119.5" font-family="Helvetica,sans-Serif" font-size="10.00">Ancillary/TypeList.h</text>
</a>
</g>
</g>
<!-- Node11&#45;&gt;Node14 -->
<g id="edge23" class="edge">
<title>Node11&#45;&gt;Node14</title>
<path fill="none" stroke="midnightblue" d="M349.78,-230.18C325.19,-221.95 300.14,-208.85 284,-188 273.89,-174.95 272.68,-155.79 273.52,-141.66"/>
<polygon fill="midnightblue" stroke="midnightblue" points="277.01,-141.9 274.5,-131.61 270.04,-141.22 277.01,-141.9"/>
</g>
<!-- Node16 -->
<g id="node16" class="node">
<title>Node16</title>
<g id="a_node16"><a xlink:href="sitkNonCopyable_8h.html" target="_top" xlink:title=" ">
<polygon fill="white" stroke="black" points="783.5,-168.5 783.5,-187.5 892.5,-187.5 892.5,-168.5 783.5,-168.5"/>
<text text-anchor="middle" x="838" y="-175.5" font-family="Helvetica,sans-Serif" font-size="10.00">sitkNonCopyable.h</text>
</a>
</g>
</g>
<!-- Node11&#45;&gt;Node16 -->
<g id="edge20" class="edge">
<title>Node11&#45;&gt;Node16</title>
<path fill="none" stroke="midnightblue" d="M502.05,-232C580.21,-219.67 700.57,-200.68 774.02,-189.09"/>
<polygon fill="midnightblue" stroke="midnightblue" points="774.73,-192.53 784.06,-187.51 773.64,-185.61 774.73,-192.53"/>
</g>
<!-- Node11&#45;&gt;Node18 -->
<g id="edge24" class="edge">
<title>Node11&#45;&gt;Node18</title>
<path fill="none" stroke="midnightblue" d="M484.25,-229.98C534.12,-217.97 604.91,-200.93 650.65,-189.92"/>
<polygon fill="midnightblue" stroke="midnightblue" points="651.67,-193.27 660.57,-187.53 650.03,-186.47 651.67,-193.27"/>
</g>
<!-- Node19 -->
<g id="node19" class="node">
<title>Node19</title>
<g id="a_node19"><a xlink:title=" ">
<polygon fill="white" stroke="#bfbfbf" points="334.5,-168.5 334.5,-187.5 427.5,-187.5 427.5,-168.5 334.5,-168.5"/>
<text text-anchor="middle" x="381" y="-175.5" font-family="Helvetica,sans-Serif" font-size="10.00">unordered_map</text>
</a>
</g>
</g>
<!-- Node11&#45;&gt;Node19 -->
<g id="edge25" class="edge">
<title>Node11&#45;&gt;Node19</title>
<path fill="none" stroke="midnightblue" d="M416.24,-229.9C409.36,-219.96 400.11,-206.61 392.82,-196.07"/>
<polygon fill="midnightblue" stroke="midnightblue" points="395.59,-193.92 387.02,-187.69 389.83,-197.91 395.59,-193.92"/>
</g>
<!-- Node20 -->
<g id="node20" class="node">
<title>Node20</title>
<g id="a_node20"><a xlink:title=" ">
<polygon fill="white" stroke="#bfbfbf" points="445.5,-168.5 445.5,-187.5 510.5,-187.5 510.5,-168.5 445.5,-168.5"/>
<text text-anchor="middle" x="478" y="-175.5" font-family="Helvetica,sans-Serif" font-size="10.00">functional</text>
</a>
</g>
</g>
<!-- Node11&#45;&gt;Node20 -->
<g id="edge26" class="edge">
<title>Node11&#45;&gt;Node20</title>
<path fill="none" stroke="midnightblue" d="M437.28,-229.9C445.31,-219.86 456.13,-206.34 464.6,-195.75"/>
<polygon fill="midnightblue" stroke="midnightblue" points="467.53,-197.69 471.04,-187.69 462.06,-193.32 467.53,-197.69"/>
</g>
<!-- Node21 -->
<g id="node21" class="node">
<title>Node21</title>
<g id="a_node21"><a xlink:title=" ">
<polygon fill="white" stroke="#bfbfbf" points="528.5,-168.5 528.5,-187.5 569.5,-187.5 569.5,-168.5 528.5,-168.5"/>
<text text-anchor="middle" x="549" y="-175.5" font-family="Helvetica,sans-Serif" font-size="10.00">tuple</text>
</a>
</g>
</g>
<!-- Node11&#45;&gt;Node21 -->
<g id="edge27" class="edge">
<title>Node11&#45;&gt;Node21</title>
<path fill="none" stroke="midnightblue" d="M452.69,-229.9C473.89,-218.69 503.32,-203.14 524.05,-192.19"/>
<polygon fill="midnightblue" stroke="midnightblue" points="525.7,-195.27 532.9,-187.51 522.43,-189.08 525.7,-195.27"/>
</g>
<!-- Node13&#45;&gt;Node3 -->
<g id="edge14" class="edge">
<title>Node13&#45;&gt;Node3</title>
<path fill="none" stroke="midnightblue" d="M91.46,-168.49C81.52,-160.38 67.88,-147.18 62,-132 49.8,-100.5 40.51,-82.06 62,-56 86.32,-26.51 198.12,-16.11 257.19,-12.63"/>
<polygon fill="midnightblue" stroke="midnightblue" points="257.44,-16.12 267.23,-12.08 257.05,-9.14 257.44,-16.12"/>
</g>
<!-- Node13&#45;&gt;Node8 -->
<g id="edge15" class="edge">
<title>Node13&#45;&gt;Node8</title>
<path fill="none" stroke="midnightblue" d="M98.45,-168.42C92.01,-154.95 82.34,-128.66 95,-112 132.24,-62.99 310.9,-31.45 402.93,-18.19"/>
<polygon fill="midnightblue" stroke="midnightblue" points="403.49,-21.64 412.9,-16.77 402.51,-14.71 403.49,-21.64"/>
</g>
<!-- Node13&#45;&gt;Node12 -->
<g id="edge16" class="edge">
<title>Node13&#45;&gt;Node12</title>
<path fill="none" stroke="midnightblue" d="M150.38,-168.44C203.08,-158.92 288.23,-143.55 344.66,-133.36"/>
<polygon fill="midnightblue" stroke="midnightblue" points="345.63,-136.74 354.84,-131.52 344.38,-129.85 345.63,-136.74"/>
</g>
<!-- Node13&#45;&gt;Node14 -->
<g id="edge17" class="edge">
<title>Node13&#45;&gt;Node14</title>
<path fill="none" stroke="midnightblue" d="M130.41,-168.44C159.77,-159.28 206.52,-144.69 239.1,-134.52"/>
<polygon fill="midnightblue" stroke="midnightblue" points="240.21,-137.84 248.72,-131.52 238.13,-131.16 240.21,-137.84"/>
</g>
<!-- Node15 -->
<g id="node15" class="node">
<title>Node15</title>
<g id="a_node15"><a xlink:title=" ">
<polygon fill="white" stroke="#bfbfbf" points="104.5,-112.5 104.5,-131.5 163.5,-131.5 163.5,-112.5 104.5,-112.5"/>
<text text-anchor="middle" x="134" y="-119.5" font-family="Helvetica,sans-Serif" font-size="10.00">complex</text>
</a>
</g>
</g>
<!-- Node13&#45;&gt;Node15 -->
<g id="edge18" class="edge">
<title>Node13&#45;&gt;Node15</title>
<path fill="none" stroke="midnightblue" d="M108.12,-168.08C112.41,-160.61 118.66,-149.72 123.94,-140.52"/>
<polygon fill="midnightblue" stroke="midnightblue" points="127.03,-142.17 128.98,-131.75 120.96,-138.68 127.03,-142.17"/>
</g>
<!-- Node17 -->
<g id="node17" class="node">
<title>Node17</title>
<g id="a_node17"><a xlink:href="sitkCommon_8h.html" target="_top" xlink:title=" ">
<polygon fill="white" stroke="black" points="1397,-112.5 1397,-131.5 1485,-131.5 1485,-112.5 1397,-112.5"/>
<text text-anchor="middle" x="1441" y="-119.5" font-family="Helvetica,sans-Serif" font-size="10.00">sitkCommon.h</text>
</a>
</g>
</g>
<!-- Node16&#45;&gt;Node17 -->
<g id="edge21" class="edge">
<title>Node16&#45;&gt;Node17</title>
<path fill="none" stroke="midnightblue" d="M892.59,-169.65C897.46,-169.06 902.32,-168.5 907,-168 1082.16,-149.21 1290.35,-133.6 1386.88,-126.74"/>
<polygon fill="midnightblue" stroke="midnightblue" points="1387.25,-130.22 1396.98,-126.03 1386.76,-123.24 1387.25,-130.22"/>
</g>
<!-- Node17&#45;&gt;Node2 -->
<g id="edge22" class="edge">
<title>Node17&#45;&gt;Node2</title>
<path fill="none" stroke="midnightblue" d="M1396.91,-118.13C1254.04,-108.85 804.59,-79.65 657.27,-70.07"/>
<polygon fill="midnightblue" stroke="midnightblue" points="657.4,-66.57 647.2,-69.42 656.95,-73.56 657.4,-66.57"/>
</g>
<!-- Node22&#45;&gt;Node13 -->
<g id="edge32" class="edge">
<title>Node22&#45;&gt;Node13</title>
<path fill="none" stroke="midnightblue" d="M558.5,-307.99C549.52,-305.97 539.92,-303.86 531,-302 446.85,-284.5 423.86,-288.83 341,-266 264.11,-244.81 176.77,-210 132.33,-191.49"/>
<polygon fill="midnightblue" stroke="midnightblue" points="133.59,-188.22 123.01,-187.58 130.88,-194.68 133.59,-188.22"/>
</g>
<!-- Node22&#45;&gt;Node17 -->
<g id="edge31" class="edge">
<title>Node22&#45;&gt;Node17</title>
<path fill="none" stroke="midnightblue" d="M602.16,-307.93C618.25,-289.3 659.35,-245.12 704,-224 784.86,-185.76 816.76,-215.08 902,-188 922.09,-181.62 924.65,-173.48 945,-168 1027.1,-145.9 1275.76,-131.2 1386.63,-125.57"/>
<polygon fill="midnightblue" stroke="midnightblue" points="1387.11,-129.05 1396.92,-125.05 1386.76,-122.06 1387.11,-129.05"/>
</g>
<!-- Node23 -->
<g id="node23" class="node">
<title>Node23</title>
<g id="a_node23"><a xlink:title=" ">
<polygon fill="white" stroke="#bfbfbf" points="570,-235.5 570,-254.5 614,-254.5 614,-235.5 570,-235.5"/>
<text text-anchor="middle" x="592" y="-242.5" font-family="Helvetica,sans-Serif" font-size="10.00">string</text>
</a>
</g>
</g>
<!-- Node22&#45;&gt;Node23 -->
<g id="edge33" class="edge">
<title>Node22&#45;&gt;Node23</title>
<path fill="none" stroke="midnightblue" d="M594.63,-307.86C594.18,-297.18 593.39,-278.72 592.8,-264.73"/>
<polygon fill="midnightblue" stroke="midnightblue" points="596.29,-264.56 592.37,-254.72 589.3,-264.86 596.29,-264.56"/>
</g>
<!-- Node24 -->
<g id="node24" class="node">
<title>Node24</title>
<g id="a_node24"><a xlink:title=" ">
<polygon fill="white" stroke="#bfbfbf" points="1469.5,-235.5 1469.5,-254.5 1526.5,-254.5 1526.5,-235.5 1469.5,-235.5"/>
<text text-anchor="middle" x="1498" y="-242.5" font-family="Helvetica,sans-Serif" font-size="10.00">ostream</text>
</a>
</g>
</g>
<!-- Node22&#45;&gt;Node24 -->
<g id="edge34" class="edge">
<title>Node22&#45;&gt;Node24</title>
<path fill="none" stroke="midnightblue" d="M650.29,-312.7C694.14,-309.72 756.98,-305.49 812,-302 1077.72,-285.12 1146.41,-303.63 1410,-266 1426.26,-263.68 1443.95,-259.91 1459.18,-256.26"/>
<polygon fill="midnightblue" stroke="midnightblue" points="1460.41,-259.56 1469.29,-253.77 1458.74,-252.76 1460.41,-259.56"/>
</g>
<!-- Node28&#45;&gt;Node10 -->
<g id="edge49" class="edge">
<title>Node28&#45;&gt;Node10</title>
<path fill="none" stroke="midnightblue" d="M1166.77,-378.6C1064.34,-379.6 770.08,-378 531,-333 526.83,-332.22 522.52,-331.17 518.27,-330.01"/>
<polygon fill="midnightblue" stroke="midnightblue" points="519.18,-326.63 508.6,-327.13 517.18,-333.34 519.18,-326.63"/>
</g>
<!-- Node28&#45;&gt;Node17 -->
<g id="edge41" class="edge">
<title>Node28&#45;&gt;Node17</title>
<path fill="none" stroke="midnightblue" d="M1241.19,-375.68C1277.08,-371.77 1331.36,-361.25 1369,-333 1430.83,-286.58 1439.97,-183.96 1441.03,-141.72"/>
<polygon fill="midnightblue" stroke="midnightblue" points="1444.53,-141.76 1441.15,-131.72 1437.53,-141.67 1444.53,-141.76"/>
</g>
<!-- Node28&#45;&gt;Node26 -->
<g id="edge50" class="edge">
<title>Node28&#45;&gt;Node26</title>
<path fill="none" stroke="midnightblue" d="M1166.87,-370.22C1123.98,-361.24 1052.26,-346.21 997.14,-334.66"/>
<polygon fill="midnightblue" stroke="midnightblue" points="997.56,-331.17 987.05,-332.55 996.12,-338.02 997.56,-331.17"/>
</g>
<!-- Node29 -->
<g id="node29" class="node">
<title>Node29</title>
<g id="a_node29"><a xlink:href="sitkTemplateFunctions_8h.html" target="_top" xlink:title=" ">
<polygon fill="white" stroke="black" points="1201.5,-308 1201.5,-327 1336.5,-327 1336.5,-308 1201.5,-308"/>
<text text-anchor="middle" x="1269" y="-315" font-family="Helvetica,sans-Serif" font-size="10.00">sitkTemplateFunctions.h</text>
</a>
</g>
</g>
<!-- Node28&#45;&gt;Node29 -->
<g id="edge42" class="edge">
<title>Node28&#45;&gt;Node29</title>
<path fill="none" stroke="midnightblue" d="M1213.31,-369.48C1223.45,-360.2 1239.86,-345.17 1252.25,-333.83"/>
<polygon fill="midnightblue" stroke="midnightblue" points="1254.69,-336.34 1259.7,-327.01 1249.96,-331.18 1254.69,-336.34"/>
</g>
<!-- Node30 -->
<g id="node30" class="node">
<title>Node30</title>
<g id="a_node30"><a xlink:title=" ">
<polygon fill="white" stroke="#bfbfbf" points="1353.5,-235.5 1353.5,-254.5 1400.5,-254.5 1400.5,-235.5 1353.5,-235.5"/>
<text text-anchor="middle" x="1377" y="-242.5" font-family="Helvetica,sans-Serif" font-size="10.00">vector</text>
</a>
</g>
</g>
<!-- Node28&#45;&gt;Node30 -->
<g id="edge54" class="edge">
<title>Node28&#45;&gt;Node30</title>
<path fill="none" stroke="midnightblue" d="M1241.26,-375.27C1272.96,-371.04 1317.72,-360.3 1346,-333 1364.9,-314.76 1372.31,-284.23 1375.19,-264.61"/>
<polygon fill="midnightblue" stroke="midnightblue" points="1378.69,-264.85 1376.42,-254.5 1371.74,-264.01 1378.69,-264.85"/>
</g>
<!-- Node32 -->
<g id="node32" class="node">
<title>Node32</title>
<g id="a_node32"><a xlink:href="sitkInterpolator_8h.html" target="_top" xlink:title=" ">
<polygon fill="white" stroke="black" points="1469,-308 1469,-327 1569,-327 1569,-308 1469,-308"/>
<text text-anchor="middle" x="1519" y="-315" font-family="Helvetica,sans-Serif" font-size="10.00">sitkInterpolator.h</text>
</a>
</g>
</g>
<!-- Node28&#45;&gt;Node32 -->
<g id="edge51" class="edge">
<title>Node28&#45;&gt;Node32</title>
<path fill="none" stroke="midnightblue" d="M1241.1,-371.89C1290.17,-363.69 1379.29,-348.36 1455,-333 1460.72,-331.84 1466.72,-330.56 1472.65,-329.26"/>
<polygon fill="midnightblue" stroke="midnightblue" points="1473.51,-332.66 1482.51,-327.07 1471.99,-325.82 1473.51,-332.66"/>
</g>
<!-- Node33 -->
<g id="node33" class="node">
<title>Node33</title>
<g id="a_node33"><a xlink:title=" ">
<polygon fill="white" stroke="#bfbfbf" points="1125,-308 1125,-327 1183,-327 1183,-308 1125,-308"/>
<text text-anchor="middle" x="1154" y="-315" font-family="Helvetica,sans-Serif" font-size="10.00">memory</text>
</a>
</g>
</g>
<!-- Node28&#45;&gt;Node33 -->
<g id="edge55" class="edge">
<title>Node28&#45;&gt;Node33</title>
<path fill="none" stroke="midnightblue" d="M1196.84,-369.48C1189.26,-360.46 1177.13,-346.02 1167.71,-334.81"/>
<polygon fill="midnightblue" stroke="midnightblue" points="1170.26,-332.41 1161.15,-327.01 1164.9,-336.92 1170.26,-332.41"/>
</g>
<!-- Node34 -->
<g id="node34" class="node">
<title>Node34</title>
<g id="a_node34"><a xlink:title=" ">
<polygon fill="white" stroke="#bfbfbf" points="1037.5,-308 1037.5,-327 1106.5,-327 1106.5,-308 1037.5,-308"/>
<text text-anchor="middle" x="1072" y="-315" font-family="Helvetica,sans-Serif" font-size="10.00">type_traits</text>
</a>
</g>
</g>
<!-- Node28&#45;&gt;Node34 -->
<g id="edge56" class="edge">
<title>Node28&#45;&gt;Node34</title>
<path fill="none" stroke="midnightblue" d="M1185.09,-369.48C1162.84,-359.45 1125.69,-342.7 1100.07,-331.15"/>
<polygon fill="midnightblue" stroke="midnightblue" points="1101.43,-327.93 1090.88,-327.01 1098.56,-334.31 1101.43,-327.93"/>
</g>
<!-- Node29&#45;&gt;Node2 -->
<g id="edge43" class="edge">
<title>Node29&#45;&gt;Node2</title>
<path fill="none" stroke="midnightblue" d="M1248.85,-307.92C1193.71,-284.54 1035.54,-218.08 902,-168 810.51,-133.69 701.37,-97.07 646.03,-78.8"/>
<polygon fill="midnightblue" stroke="midnightblue" points="646.93,-75.41 636.34,-75.6 644.74,-82.06 646.93,-75.41"/>
</g>
<!-- Node29&#45;&gt;Node17 -->
<g id="edge44" class="edge">
<title>Node29&#45;&gt;Node17</title>
<path fill="none" stroke="midnightblue" d="M1266.97,-307.83C1263.41,-290.49 1257.86,-250.89 1274,-224 1302.2,-176.99 1361.46,-149.06 1401.25,-134.87"/>
<polygon fill="midnightblue" stroke="midnightblue" points="1402.6,-138.11 1410.92,-131.55 1400.33,-131.49 1402.6,-138.11"/>
</g>
<!-- Node29&#45;&gt;Node24 -->
<g id="edge47" class="edge">
<title>Node29&#45;&gt;Node24</title>
<path fill="none" stroke="midnightblue" d="M1296.62,-308C1337.63,-295.37 1414.7,-271.65 1460.69,-257.49"/>
<polygon fill="midnightblue" stroke="midnightblue" points="1461.75,-260.82 1470.28,-254.53 1459.69,-254.13 1461.75,-260.82"/>
</g>
<!-- Node29&#45;&gt;Node27 -->
<g id="edge45" class="edge">
<title>Node29&#45;&gt;Node27</title>
<path fill="none" stroke="midnightblue" d="M1225.07,-307.98C1214.27,-305.95 1202.73,-303.84 1192,-302 1102.55,-286.62 1000.26,-270.89 927.64,-260.03"/>
<polygon fill="midnightblue" stroke="midnightblue" points="928,-256.55 917.59,-258.53 926.97,-263.47 928,-256.55"/>
</g>
<!-- Node29&#45;&gt;Node30 -->
<g id="edge46" class="edge">
<title>Node29&#45;&gt;Node30</title>
<path fill="none" stroke="midnightblue" d="M1282.24,-307.86C1300.38,-296.02 1333.18,-274.6 1355.03,-260.34"/>
<polygon fill="midnightblue" stroke="midnightblue" points="1357.19,-263.11 1363.65,-254.72 1353.36,-257.25 1357.19,-263.11"/>
</g>
<!-- Node31 -->
<g id="node31" class="node">
<title>Node31</title>
<g id="a_node31"><a xlink:title=" ">
<polygon fill="white" stroke="#bfbfbf" points="1282.5,-235.5 1282.5,-254.5 1335.5,-254.5 1335.5,-235.5 1282.5,-235.5"/>
<text text-anchor="middle" x="1309" y="-242.5" font-family="Helvetica,sans-Serif" font-size="10.00">iterator</text>
</a>
</g>
</g>
<!-- Node29&#45;&gt;Node31 -->
<g id="edge48" class="edge">
<title>Node29&#45;&gt;Node31</title>
<path fill="none" stroke="midnightblue" d="M1273.9,-307.86C1280.14,-296.86 1291.06,-277.61 1299.07,-263.5"/>
<polygon fill="midnightblue" stroke="midnightblue" points="1302.16,-265.14 1304.06,-254.72 1296.08,-261.69 1302.16,-265.14"/>
</g>
<!-- Node32&#45;&gt;Node17 -->
<g id="edge52" class="edge">
<title>Node32&#45;&gt;Node17</title>
<path fill="none" stroke="midnightblue" d="M1523.69,-307.77C1532.05,-290.99 1547.61,-253.3 1536,-224 1521.21,-186.69 1485.4,-155.15 1462.21,-137.68"/>
<polygon fill="midnightblue" stroke="midnightblue" points="1464.16,-134.76 1454.02,-131.69 1460.03,-140.41 1464.16,-134.76"/>
</g>
<!-- Node32&#45;&gt;Node24 -->
<g id="edge53" class="edge">
<title>Node32&#45;&gt;Node24</title>
<path fill="none" stroke="midnightblue" d="M1516.42,-307.86C1513.21,-297.07 1507.64,-278.35 1503.46,-264.32"/>
<polygon fill="midnightblue" stroke="midnightblue" points="1506.81,-263.3 1500.6,-254.72 1500.1,-265.3 1506.81,-263.3"/>
</g>
<!-- Node35&#45;&gt;Node2 -->
<g id="edge58" class="edge">
<title>Node35&#45;&gt;Node2</title>
<path fill="none" stroke="midnightblue" d="M1612.04,-481.83C1695.72,-466.74 1855,-431.28 1855,-380 1855,-380 1855,-380 1855,-177 1855,-13.98 1655.96,-130.63 1494,-112 1175.91,-75.42 790.02,-68.57 657.4,-67.29"/>
<polygon fill="midnightblue" stroke="midnightblue" points="657.23,-63.79 647.19,-67.2 657.16,-70.79 657.23,-63.79"/>
</g>
<!-- Node35&#45;&gt;Node32 -->
<g id="edge59" class="edge">
<title>Node35&#45;&gt;Node32</title>
<path fill="none" stroke="midnightblue" d="M1559.81,-481.26C1553.11,-454.54 1532.79,-373.52 1523.6,-336.86"/>
<polygon fill="midnightblue" stroke="midnightblue" points="1526.96,-335.87 1521.14,-327.02 1520.17,-337.57 1526.96,-335.87"/>
</g>
<!-- Node36 -->
<g id="node36" class="node">
<title>Node36</title>
<g id="a_node36"><a xlink:href="sitkRandomSeed_8h.html" target="_top" xlink:title=" ">
<polygon fill="white" stroke="black" points="1719,-369.5 1719,-388.5 1827,-388.5 1827,-369.5 1719,-369.5"/>
<text text-anchor="middle" x="1773" y="-376.5" font-family="Helvetica,sans-Serif" font-size="10.00">sitkRandomSeed.h</text>
</a>
</g>
</g>
<!-- Node35&#45;&gt;Node36 -->
<g id="edge60" class="edge">
<title>Node35&#45;&gt;Node36</title>
<path fill="none" stroke="midnightblue" d="M1606.72,-481.48C1636.08,-474.59 1674.53,-463.01 1705,-445 1726.62,-432.22 1746.81,-411.33 1759.48,-396.69"/>
<polygon fill="midnightblue" stroke="midnightblue" points="1762.27,-398.81 1766.03,-388.9 1756.91,-394.31 1762.27,-398.81"/>
</g>
<!-- Node37 -->
<g id="node37" class="node">
<title>Node37</title>
<g id="a_node37"><a xlink:href="sitkKernel_8h.html" target="_top" xlink:title=" ">
<polygon fill="white" stroke="black" points="1715,-308 1715,-327 1789,-327 1789,-308 1715,-308"/>
<text text-anchor="middle" x="1752" y="-315" font-family="Helvetica,sans-Serif" font-size="10.00">sitkKernel.h</text>
</a>
</g>
</g>
<!-- Node35&#45;&gt;Node37 -->
<g id="edge62" class="edge">
<title>Node35&#45;&gt;Node37</title>
<path fill="none" stroke="midnightblue" d="M1577.75,-481.34C1592.44,-472.94 1614.64,-459.37 1632,-445 1674.55,-409.77 1717.41,-360.49 1738.52,-335.09"/>
<polygon fill="midnightblue" stroke="midnightblue" points="1741.39,-337.11 1745.05,-327.16 1735.99,-332.66 1741.39,-337.11"/>
</g>
<!-- Node38 -->
<g id="node38" class="node">
<title>Node38</title>
<g id="a_node38"><a xlink:href="sitkTransform_8h.html" target="_top" xlink:title=" ">
<polygon fill="white" stroke="black" points="1357,-425.5 1357,-444.5 1449,-444.5 1449,-425.5 1357,-425.5"/>
<text text-anchor="middle" x="1403" y="-432.5" font-family="Helvetica,sans-Serif" font-size="10.00">sitkTransform.h</text>
</a>
</g>
</g>
<!-- Node35&#45;&gt;Node38 -->
<g id="edge65" class="edge">
<title>Node35&#45;&gt;Node38</title>
<path fill="none" stroke="midnightblue" d="M1536.81,-481.44C1510.06,-472.36 1467.6,-457.94 1437.69,-447.78"/>
<polygon fill="midnightblue" stroke="midnightblue" points="1438.67,-444.42 1428.08,-444.52 1436.42,-451.05 1438.67,-444.42"/>
</g>
<!-- Node39 -->
<g id="node39" class="node">
<title>Node39</title>
<g id="a_node39"><a xlink:title=" ">
<polygon fill="white" stroke="#bfbfbf" points="1585,-425.5 1585,-444.5 1623,-444.5 1623,-425.5 1585,-425.5"/>
<text text-anchor="middle" x="1604" y="-432.5" font-family="Helvetica,sans-Serif" font-size="10.00">map</text>
</a>
</g>
</g>
<!-- Node35&#45;&gt;Node39 -->
<g id="edge70" class="edge">
<title>Node35&#45;&gt;Node39</title>
<path fill="none" stroke="midnightblue" d="M1568.94,-481.08C1574.93,-473.38 1583.75,-462.03 1591.05,-452.65"/>
<polygon fill="midnightblue" stroke="midnightblue" points="1593.82,-454.79 1597.19,-444.75 1588.29,-450.5 1593.82,-454.79"/>
</g>
<!-- Node36&#45;&gt;Node17 -->
<g id="edge61" class="edge">
<title>Node36&#45;&gt;Node17</title>
<path fill="none" stroke="midnightblue" d="M1779.63,-369.27C1785.77,-360.61 1794.46,-346.67 1798,-333 1801.46,-319.66 1801.37,-315.36 1798,-302 1781.32,-235.82 1779.4,-206.44 1723,-168 1686.83,-143.35 1566.41,-131.3 1495.16,-126.19"/>
<polygon fill="midnightblue" stroke="midnightblue" points="1495.23,-122.69 1485.02,-125.49 1494.75,-129.67 1495.23,-122.69"/>
</g>
<!-- Node37&#45;&gt;Node17 -->
<g id="edge63" class="edge">
<title>Node37&#45;&gt;Node17</title>
<path fill="none" stroke="midnightblue" d="M1751.88,-307.81C1751.04,-282 1744.78,-205.3 1701,-168 1670.8,-142.27 1562.41,-130.75 1495.49,-126"/>
<polygon fill="midnightblue" stroke="midnightblue" points="1495.34,-122.48 1485.12,-125.29 1494.86,-129.47 1495.34,-122.48"/>
</g>
<!-- Node37&#45;&gt;Node24 -->
<g id="edge64" class="edge">
<title>Node37&#45;&gt;Node24</title>
<path fill="none" stroke="midnightblue" d="M1721.36,-308C1675.07,-295.15 1587.35,-270.8 1536.7,-256.74"/>
<polygon fill="midnightblue" stroke="midnightblue" points="1537.36,-253.29 1526.79,-253.99 1535.49,-260.04 1537.36,-253.29"/>
</g>
<!-- Node38&#45;&gt;Node17 -->
<g id="edge66" class="edge">
<title>Node38&#45;&gt;Node17</title>
<path fill="none" stroke="midnightblue" d="M1449.01,-431.58C1510.8,-425.57 1618.55,-404.76 1668,-333 1729.51,-243.73 1552.74,-164.63 1475.33,-135.2"/>
<polygon fill="midnightblue" stroke="midnightblue" points="1476.13,-131.76 1465.53,-131.54 1473.68,-138.32 1476.13,-131.76"/>
</g>
<!-- Node38&#45;&gt;Node27 -->
<g id="edge67" class="edge">
<title>Node38&#45;&gt;Node27</title>
<path fill="none" stroke="midnightblue" d="M1356.98,-429.53C1224.14,-416.17 847.32,-374.87 812,-333 798.32,-316.79 804.99,-293.04 814.15,-274.45"/>
<polygon fill="midnightblue" stroke="midnightblue" points="817.29,-276 818.93,-265.53 811.12,-272.7 817.29,-276"/>
</g>
<!-- Node38&#45;&gt;Node28 -->
<g id="edge68" class="edge">
<title>Node38&#45;&gt;Node28</title>
<path fill="none" stroke="midnightblue" d="M1371.47,-425.44C1337.41,-416.2 1282.99,-401.44 1245.48,-391.26"/>
<polygon fill="midnightblue" stroke="midnightblue" points="1245.95,-387.76 1235.38,-388.52 1244.12,-394.51 1245.95,-387.76"/>
</g>
<!-- Node38&#45;&gt;Node30 -->
<g id="edge69" class="edge">
<title>Node38&#45;&gt;Node30</title>
<path fill="none" stroke="midnightblue" d="M1401.82,-425.43C1397.86,-396.87 1385.08,-304.43 1379.57,-264.57"/>
<polygon fill="midnightblue" stroke="midnightblue" points="1383.03,-264.04 1378.19,-254.62 1376.09,-265 1383.03,-264.04"/>
</g>
<!-- Node40&#45;&gt;Node2 -->
<g id="edge72" class="edge">
<title>Node40&#45;&gt;Node2</title>
<path fill="none" stroke="midnightblue" d="M1096.72,-542.93C901.37,-530.46 192,-482 192,-436 192,-436 192,-436 192,-177 192,-146.9 187.97,-131.37 211,-112 237.47,-89.73 462.73,-74.94 562.63,-69.42"/>
<polygon fill="midnightblue" stroke="midnightblue" points="562.95,-72.91 572.75,-68.87 562.57,-65.92 562.95,-72.91"/>
</g>
<!-- Node40&#45;&gt;Node9 -->
<g id="edge73" class="edge">
<title>Node40&#45;&gt;Node9</title>
<path fill="none" stroke="midnightblue" d="M1096.87,-538.08C1009.07,-523.4 819.82,-489.38 664,-445 610.75,-429.84 550.57,-406.69 515.31,-392.5"/>
<polygon fill="midnightblue" stroke="midnightblue" points="516.21,-389.09 505.63,-388.58 513.58,-395.58 516.21,-389.09"/>
</g>
<!-- Node40&#45;&gt;Node35 -->
<g id="edge74" class="edge">
<title>Node40&#45;&gt;Node35</title>
<path fill="none" stroke="midnightblue" d="M1195.35,-539.59C1271.9,-529.66 1419.03,-510.56 1501.73,-499.82"/>
<polygon fill="midnightblue" stroke="midnightblue" points="1502.27,-503.28 1511.74,-498.52 1501.37,-496.34 1502.27,-503.28"/>
</g>
<!-- Node40&#45;&gt;Node41 -->
<g id="edge75" class="edge">
<title>Node40&#45;&gt;Node41</title>
<path fill="none" stroke="midnightblue" d="M1146,-537.08C1146,-530.01 1146,-519.86 1146,-510.99"/>
<polygon fill="midnightblue" stroke="midnightblue" points="1149.5,-510.75 1146,-500.75 1142.5,-510.75 1149.5,-510.75"/>
</g>
<!-- Node41&#45;&gt;Node16 -->
<g id="edge77" class="edge">
<title>Node41&#45;&gt;Node16</title>
<path fill="none" stroke="midnightblue" d="M1089.33,-488.41C975.46,-484.64 727.52,-473.24 702,-445 669.07,-408.56 674.82,-263.5 704,-224 714.17,-210.23 753.08,-198.1 786.37,-189.91"/>
<polygon fill="midnightblue" stroke="midnightblue" points="787.56,-193.22 796.48,-187.5 785.94,-186.41 787.56,-193.22"/>
</g>
<!-- Node41&#45;&gt;Node17 -->
<g id="edge76" class="edge">
<title>Node41&#45;&gt;Node17</title>
<path fill="none" stroke="midnightblue" d="M1089.26,-483.06C1049.48,-476.72 995.81,-465.17 952,-445 827.81,-387.82 648.46,-327.33 738,-224 748.7,-211.66 1223.66,-150.51 1386.72,-129.84"/>
<polygon fill="midnightblue" stroke="midnightblue" points="1387.52,-133.27 1397,-128.54 1386.64,-126.32 1387.52,-133.27"/>
</g>
<!-- Node41&#45;&gt;Node28 -->
<g id="edge82" class="edge">
<title>Node41&#45;&gt;Node28</title>
<path fill="none" stroke="midnightblue" d="M1168.46,-481.38C1183.77,-474.18 1202.86,-462.29 1212,-445 1219.63,-430.56 1216.18,-411.87 1211.68,-398.24"/>
<polygon fill="midnightblue" stroke="midnightblue" points="1214.84,-396.69 1208.04,-388.57 1208.29,-399.16 1214.84,-396.69"/>
</g>
<!-- Node41&#45;&gt;Node29 -->
<g id="edge78" class="edge">
<title>Node41&#45;&gt;Node29</title>
<path fill="none" stroke="midnightblue" d="M1171.24,-481.48C1189.2,-474.26 1212.77,-462.31 1228,-445 1255.49,-413.76 1264.59,-363.8 1267.58,-336.97"/>
<polygon fill="midnightblue" stroke="midnightblue" points="1271.06,-337.29 1268.51,-327.01 1264.09,-336.63 1271.06,-337.29"/>
</g>
<!-- Node42 -->
<g id="node42" class="node">
<title>Node42</title>
<g id="a_node42"><a xlink:href="sitkEvent_8h.html" target="_top" xlink:title=" ">
<polygon fill="white" stroke="black" points="1587.5,-308 1587.5,-327 1658.5,-327 1658.5,-308 1587.5,-308"/>
<text text-anchor="middle" x="1623" y="-315" font-family="Helvetica,sans-Serif" font-size="10.00">sitkEvent.h</text>
</a>
</g>
</g>
<!-- Node41&#45;&gt;Node42 -->
<g id="edge79" class="edge">
<title>Node41&#45;&gt;Node42</title>
<path fill="none" stroke="midnightblue" d="M1202.66,-490.32C1266.98,-488.79 1373.9,-480.42 1458,-445 1520.98,-418.47 1581.04,-362 1608.06,-334.38"/>
<polygon fill="midnightblue" stroke="midnightblue" points="1610.66,-336.73 1615.07,-327.1 1605.61,-331.88 1610.66,-336.73"/>
</g>
<!-- Node43 -->
<g id="node43" class="node">
<title>Node43</title>
<g id="a_node43"><a xlink:href="sitkImageConvert_8h.html" target="_top" xlink:title=" ">
<polygon fill="white" stroke="black" points="1089.5,-425.5 1089.5,-444.5 1202.5,-444.5 1202.5,-425.5 1089.5,-425.5"/>
<text text-anchor="middle" x="1146" y="-432.5" font-family="Helvetica,sans-Serif" font-size="10.00">sitkImageConvert.h</text>
</a>
</g>
</g>
<!-- Node41&#45;&gt;Node43 -->
<g id="edge83" class="edge">
<title>Node41&#45;&gt;Node43</title>
<path fill="none" stroke="midnightblue" d="M1146,-481.08C1146,-474.01 1146,-463.86 1146,-454.99"/>
<polygon fill="midnightblue" stroke="midnightblue" points="1149.5,-454.75 1146,-444.75 1142.5,-454.75 1149.5,-454.75"/>
</g>
<!-- Node44 -->
<g id="node44" class="node">
<title>Node44</title>
<g id="a_node44"><a xlink:title=" ">
<polygon fill="white" stroke="#bfbfbf" points="961,-425.5 961,-444.5 1021,-444.5 1021,-425.5 961,-425.5"/>
<text text-anchor="middle" x="991" y="-432.5" font-family="Helvetica,sans-Serif" font-size="10.00">iostream</text>
</a>
</g>
</g>
<!-- Node41&#45;&gt;Node44 -->
<g id="edge85" class="edge">
<title>Node41&#45;&gt;Node44</title>
<path fill="none" stroke="midnightblue" d="M1121.44,-481.44C1095.48,-472.4 1054.33,-458.06 1025.2,-447.92"/>
<polygon fill="midnightblue" stroke="midnightblue" points="1026.04,-444.5 1015.45,-444.52 1023.74,-451.11 1026.04,-444.5"/>
</g>
<!-- Node45 -->
<g id="node45" class="node">
<title>Node45</title>
<g id="a_node45"><a xlink:title=" ">
<polygon fill="white" stroke="#bfbfbf" points="1039,-425.5 1039,-444.5 1071,-444.5 1071,-425.5 1039,-425.5"/>
<text text-anchor="middle" x="1055" y="-432.5" font-family="Helvetica,sans-Serif" font-size="10.00">list</text>
</a>
</g>
</g>
<!-- Node41&#45;&gt;Node45 -->
<g id="edge86" class="edge">
<title>Node41&#45;&gt;Node45</title>
<path fill="none" stroke="midnightblue" d="M1131.38,-481.32C1117.05,-472.82 1094.99,-459.73 1078.25,-449.8"/>
<polygon fill="midnightblue" stroke="midnightblue" points="1079.97,-446.75 1069.58,-444.65 1076.4,-452.77 1079.97,-446.75"/>
</g>
<!-- Node42&#45;&gt;Node17 -->
<g id="edge80" class="edge">
<title>Node42&#45;&gt;Node17</title>
<path fill="none" stroke="midnightblue" d="M1618.75,-307.8C1606.42,-283.23 1568.38,-212.27 1520,-168 1505.54,-154.76 1486.51,-143.78 1470.75,-135.97"/>
<polygon fill="midnightblue" stroke="midnightblue" points="1471.97,-132.68 1461.43,-131.54 1468.96,-139 1471.97,-132.68"/>
</g>
<!-- Node42&#45;&gt;Node24 -->
<g id="edge81" class="edge">
<title>Node42&#45;&gt;Node24</title>
<path fill="none" stroke="midnightblue" d="M1607.67,-307.86C1586.4,-295.86 1547.69,-274.03 1522.42,-259.77"/>
<polygon fill="midnightblue" stroke="midnightblue" points="1523.88,-256.58 1513.45,-254.72 1520.44,-262.68 1523.88,-256.58"/>
</g>
<!-- Node43&#45;&gt;Node28 -->
<g id="edge84" class="edge">
<title>Node43&#45;&gt;Node28</title>
<path fill="none" stroke="midnightblue" d="M1155.32,-425.32C1163.89,-417.34 1176.81,-405.31 1187.19,-395.65"/>
<polygon fill="midnightblue" stroke="midnightblue" points="1189.58,-398.21 1194.51,-388.83 1184.81,-393.09 1189.58,-398.21"/>
</g>
</g>
</svg>
