<?xml version="1.0" encoding="UTF-8" standalone="no"?>
<!DOCTYPE svg PUBLIC "-//W3C//DTD SVG 1.1//EN"
 "http://www.w3.org/Graphics/SVG/1.1/DTD/svg11.dtd">
<!-- Generated by graphviz version 2.43.0 (0)
 -->
<!-- Title: sitkBSplineTransform.h Pages: 1 -->
<svg width="211pt" height="151pt"
 viewBox="0.00 0.00 210.50 151.00" xmlns="http://www.w3.org/2000/svg" xmlns:xlink="http://www.w3.org/1999/xlink">
<g id="graph0" class="graph" transform="scale(1 1) rotate(0) translate(4 147)">
<title>sitkBSplineTransform.h</title>
<polygon fill="white" stroke="transparent" points="-4,4 -4,-147 206.5,-147 206.5,4 -4,4"/>
<!-- Node1 -->
<g id="node1" class="node">
<title>Node1</title>
<g id="a_node1"><a xlink:title=" ">
<polygon fill="#bfbfbf" stroke="black" points="73.5,-123.5 73.5,-142.5 202.5,-142.5 202.5,-123.5 73.5,-123.5"/>
<text text-anchor="middle" x="138" y="-130.5" font-family="Helvetica,sans-Serif" font-size="10.00">sitkBSplineTransform.h</text>
</a>
</g>
</g>
<!-- Node2 -->
<g id="node2" class="node">
<title>Node2</title>
<g id="a_node2"><a xlink:href="sitkBSplineTransformInitializerFilter_8h.html" target="_top" xlink:title=" ">
<polygon fill="white" stroke="black" points="0,-56.5 0,-86.5 166,-86.5 166,-56.5 0,-56.5"/>
<text text-anchor="start" x="8" y="-74.5" font-family="Helvetica,sans-Serif" font-size="10.00">sitkBSplineTransformInitializer</text>
<text text-anchor="middle" x="83" y="-63.5" font-family="Helvetica,sans-Serif" font-size="10.00">Filter.h</text>
</a>
</g>
</g>
<!-- Node1&#45;&gt;Node2 -->
<g id="edge1" class="edge">
<title>Node1&#45;&gt;Node2</title>
<path fill="none" stroke="midnightblue" d="M123.29,-116.09C114.78,-106.88 104.16,-95.39 95.96,-86.52"/>
<polygon fill="midnightblue" stroke="midnightblue" points="120.76,-118.51 130.12,-123.48 125.9,-113.76 120.76,-118.51"/>
</g>
<!-- Node3 -->
<g id="node3" class="node">
<title>Node3</title>
<g id="a_node3"><a xlink:href="SimpleITK_8h.html" target="_top" xlink:title=" ">
<polygon fill="white" stroke="black" points="100.5,-0.5 100.5,-19.5 175.5,-19.5 175.5,-0.5 100.5,-0.5"/>
<text text-anchor="middle" x="138" y="-7.5" font-family="Helvetica,sans-Serif" font-size="10.00">SimpleITK.h</text>
</a>
</g>
</g>
<!-- Node1&#45;&gt;Node3 -->
<g id="edge3" class="edge">
<title>Node1&#45;&gt;Node3</title>
<path fill="none" stroke="midnightblue" d="M155.64,-116.15C163.14,-108.23 171.06,-98 175,-87 179.65,-74.03 179.65,-68.97 175,-56 169.75,-41.34 157.42,-28.03 148.44,-19.76"/>
<polygon fill="midnightblue" stroke="midnightblue" points="153.11,-113.73 148.44,-123.24 158.02,-118.72 153.11,-113.73"/>
</g>
<!-- Node2&#45;&gt;Node3 -->
<g id="edge2" class="edge">
<title>Node2&#45;&gt;Node3</title>
<path fill="none" stroke="midnightblue" d="M102.87,-49C112.25,-38.86 122.9,-27.33 130,-19.66"/>
<polygon fill="midnightblue" stroke="midnightblue" points="100.25,-46.68 96.03,-56.4 105.39,-51.43 100.25,-46.68"/>
</g>
</g>
</svg>
