<?xml version="1.0" encoding="UTF-8" standalone="no"?>
<!DOCTYPE svg PUBLIC "-//W3C//DTD SVG 1.1//EN"
 "http://www.w3.org/Graphics/SVG/1.1/DTD/svg11.dtd">
<!-- Generated by graphviz version 2.43.0 (0)
 -->
<!-- Title: sitkMemberFunctionFactory.h Pages: 1 -->
<svg width="7265pt" height="218pt"
 viewBox="0.00 0.00 7264.50 218.00" xmlns="http://www.w3.org/2000/svg" xmlns:xlink="http://www.w3.org/1999/xlink">
<g id="graph0" class="graph" transform="scale(1 1) rotate(0) translate(4 214)">
<title>sitkMemberFunctionFactory.h</title>
<polygon fill="white" stroke="transparent" points="-4,4 -4,-214 7260.5,-214 7260.5,4 -4,4"/>
<!-- Node1 -->
<g id="node1" class="node">
<title>Node1</title>
<g id="a_node1"><a xlink:title=" ">
<polygon fill="#bfbfbf" stroke="black" points="6399,-190.5 6399,-209.5 6558,-209.5 6558,-190.5 6399,-190.5"/>
<text text-anchor="middle" x="6478.5" y="-197.5" font-family="Helvetica,sans-Serif" font-size="10.00">sitkMemberFunctionFactory.h</text>
</a>
</g>
</g>
<!-- Node2 -->
<g id="node2" class="node">
<title>Node2</title>
<g id="a_node2"><a xlink:href="sitkImageFilter_8h.html" target="_top" xlink:title=" ">
<polygon fill="white" stroke="red" points="3047.5,-129 3047.5,-148 3145.5,-148 3145.5,-129 3047.5,-129"/>
<text text-anchor="middle" x="3096.5" y="-136" font-family="Helvetica,sans-Serif" font-size="10.00">sitkImageFilter.h</text>
</a>
</g>
</g>
<!-- Node1&#45;&gt;Node2 -->
<g id="edge1" class="edge">
<title>Node1&#45;&gt;Node2</title>
<path fill="none" stroke="midnightblue" d="M6388.36,-197.41C5893.79,-188.71 3518.58,-146.93 3145.78,-140.37"/>
<polygon fill="midnightblue" stroke="midnightblue" points="6388.59,-200.92 6398.65,-197.6 6388.71,-193.92 6388.59,-200.92"/>
</g>
<!-- Node7 -->
<g id="node7" class="node">
<title>Node7</title>
<g id="a_node7"><a xlink:href="sitkHashImageFilter_8h.html" target="_top" xlink:title=" ">
<polygon fill="white" stroke="black" points="0,-62 0,-81 123,-81 123,-62 0,-62"/>
<text text-anchor="middle" x="61.5" y="-69" font-family="Helvetica,sans-Serif" font-size="10.00">sitkHashImageFilter.h</text>
</a>
</g>
</g>
<!-- Node1&#45;&gt;Node7 -->
<g id="edge52" class="edge">
<title>Node1&#45;&gt;Node7</title>
<path fill="none" stroke="midnightblue" d="M6388.59,-198.15C5993.34,-194.36 4370.71,-178.07 3038.5,-154 1746.81,-130.66 1416.27,-231.72 132.5,-87 120.87,-85.69 108.32,-83.42 97.06,-81.06"/>
<polygon fill="midnightblue" stroke="midnightblue" points="6388.78,-201.66 6398.81,-198.25 6388.84,-194.66 6388.78,-201.66"/>
</g>
<!-- Node304 -->
<g id="node43" class="node">
<title>Node304</title>
<g id="a_node43"><a xlink:href="sitkCenteredTransformInitializerFilter_8h.html" target="_top" xlink:title=" ">
<polygon fill="white" stroke="black" points="5979,-123.5 5979,-153.5 6152,-153.5 6152,-123.5 5979,-123.5"/>
<text text-anchor="start" x="5987" y="-141.5" font-family="Helvetica,sans-Serif" font-size="10.00">sitkCenteredTransformInitializer</text>
<text text-anchor="middle" x="6065.5" y="-130.5" font-family="Helvetica,sans-Serif" font-size="10.00">Filter.h</text>
</a>
</g>
</g>
<!-- Node1&#45;&gt;Node304 -->
<g id="edge48" class="edge">
<title>Node1&#45;&gt;Node304</title>
<path fill="none" stroke="midnightblue" d="M6407.39,-189.09C6343.12,-180.09 6245.94,-166.37 6161.5,-154 6158.41,-153.55 6155.27,-153.09 6152.1,-152.62"/>
<polygon fill="midnightblue" stroke="midnightblue" points="6407.02,-192.57 6417.41,-190.49 6407.99,-185.64 6407.02,-192.57"/>
</g>
<!-- Node305 -->
<g id="node44" class="node">
<title>Node305</title>
<g id="a_node44"><a xlink:href="sitkCenteredVersorTransformInitializerFilter_8h.html" target="_top" xlink:title=" ">
<polygon fill="white" stroke="black" points="6170.5,-123.5 6170.5,-153.5 6328.5,-153.5 6328.5,-123.5 6170.5,-123.5"/>
<text text-anchor="start" x="6178.5" y="-141.5" font-family="Helvetica,sans-Serif" font-size="10.00">sitkCenteredVersorTransform</text>
<text text-anchor="middle" x="6249.5" y="-130.5" font-family="Helvetica,sans-Serif" font-size="10.00">InitializerFilter.h</text>
</a>
</g>
</g>
<!-- Node1&#45;&gt;Node305 -->
<g id="edge50" class="edge">
<title>Node1&#45;&gt;Node305</title>
<path fill="none" stroke="midnightblue" d="M6435.62,-187.86C6398.23,-178.14 6343.82,-164.01 6303.47,-153.52"/>
<polygon fill="midnightblue" stroke="midnightblue" points="6435.13,-191.35 6445.69,-190.48 6436.89,-184.57 6435.13,-191.35"/>
</g>
<!-- Node306 -->
<g id="node45" class="node">
<title>Node306</title>
<g id="a_node45"><a xlink:href="sitkImageFileReader_8h.html" target="_top" xlink:title=" ">
<polygon fill="white" stroke="black" points="6346,-129 6346,-148 6471,-148 6471,-129 6346,-129"/>
<text text-anchor="middle" x="6408.5" y="-136" font-family="Helvetica,sans-Serif" font-size="10.00">sitkImageFileReader.h</text>
</a>
</g>
</g>
<!-- Node1&#45;&gt;Node306 -->
<g id="edge53" class="edge">
<title>Node1&#45;&gt;Node306</title>
<path fill="none" stroke="midnightblue" d="M6460.82,-183.97C6447.43,-172.59 6429.52,-157.37 6418.51,-148.01"/>
<polygon fill="midnightblue" stroke="midnightblue" points="6458.58,-186.67 6468.47,-190.48 6463.12,-181.33 6458.58,-186.67"/>
</g>
<!-- Node307 -->
<g id="node46" class="node">
<title>Node307</title>
<g id="a_node46"><a xlink:href="sitkImageFileWriter_8h.html" target="_top" xlink:title=" ">
<polygon fill="white" stroke="black" points="6489,-129 6489,-148 6610,-148 6610,-129 6489,-129"/>
<text text-anchor="middle" x="6549.5" y="-136" font-family="Helvetica,sans-Serif" font-size="10.00">sitkImageFileWriter.h</text>
</a>
</g>
</g>
<!-- Node1&#45;&gt;Node307 -->
<g id="edge55" class="edge">
<title>Node1&#45;&gt;Node307</title>
<path fill="none" stroke="midnightblue" d="M6496.43,-183.97C6510.01,-172.59 6528.18,-157.37 6539.35,-148.01"/>
<polygon fill="midnightblue" stroke="midnightblue" points="6494.09,-181.37 6488.67,-190.48 6498.59,-186.73 6494.09,-181.37"/>
</g>
<!-- Node308 -->
<g id="node47" class="node">
<title>Node308</title>
<g id="a_node47"><a xlink:href="sitkImageSeriesReader_8h.html" target="_top" xlink:title=" ">
<polygon fill="white" stroke="black" points="6628.5,-129 6628.5,-148 6766.5,-148 6766.5,-129 6628.5,-129"/>
<text text-anchor="middle" x="6697.5" y="-136" font-family="Helvetica,sans-Serif" font-size="10.00">sitkImageSeriesReader.h</text>
</a>
</g>
</g>
<!-- Node1&#45;&gt;Node308 -->
<g id="edge57" class="edge">
<title>Node1&#45;&gt;Node308</title>
<path fill="none" stroke="midnightblue" d="M6519.64,-187.82C6562.18,-176.26 6627.67,-158.47 6666.18,-148.01"/>
<polygon fill="midnightblue" stroke="midnightblue" points="6518.61,-184.48 6509.88,-190.48 6520.45,-191.23 6518.61,-184.48"/>
</g>
<!-- Node309 -->
<g id="node48" class="node">
<title>Node309</title>
<g id="a_node48"><a xlink:href="sitkImageSeriesWriter_8h.html" target="_top" xlink:title=" ">
<polygon fill="white" stroke="black" points="6784.5,-129 6784.5,-148 6918.5,-148 6918.5,-129 6784.5,-129"/>
<text text-anchor="middle" x="6851.5" y="-136" font-family="Helvetica,sans-Serif" font-size="10.00">sitkImageSeriesWriter.h</text>
</a>
</g>
</g>
<!-- Node1&#45;&gt;Node309 -->
<g id="edge59" class="edge">
<title>Node1&#45;&gt;Node309</title>
<path fill="none" stroke="midnightblue" d="M6549.35,-189.04C6609.6,-180.39 6698.36,-167.2 6775.5,-154 6786.09,-152.19 6797.49,-150.09 6808.15,-148.07"/>
<polygon fill="midnightblue" stroke="midnightblue" points="6548.59,-185.61 6539.19,-190.5 6549.58,-192.54 6548.59,-185.61"/>
</g>
<!-- Node310 -->
<g id="node49" class="node">
<title>Node310</title>
<g id="a_node49"><a xlink:href="sitkImportImageFilter_8h.html" target="_top" xlink:title=" ">
<polygon fill="white" stroke="black" points="6937,-129 6937,-148 7068,-148 7068,-129 6937,-129"/>
<text text-anchor="middle" x="7002.5" y="-136" font-family="Helvetica,sans-Serif" font-size="10.00">sitkImportImageFilter.h</text>
</a>
</g>
</g>
<!-- Node1&#45;&gt;Node310 -->
<g id="edge61" class="edge">
<title>Node1&#45;&gt;Node310</title>
<path fill="none" stroke="midnightblue" d="M6568.24,-192.43C6659.09,-185.2 6803.47,-172.17 6927.5,-154 6938.78,-152.35 6950.95,-150.17 6962.13,-148"/>
<polygon fill="midnightblue" stroke="midnightblue" points="6567.95,-188.94 6558.25,-193.21 6568.5,-195.92 6567.95,-188.94"/>
</g>
<!-- Node311 -->
<g id="node50" class="node">
<title>Node311</title>
<g id="a_node50"><a xlink:href="sitkImageRegistrationMethod_8h.html" target="_top" xlink:title=" ">
<polygon fill="white" stroke="black" points="7086.5,-129 7086.5,-148 7256.5,-148 7256.5,-129 7086.5,-129"/>
<text text-anchor="middle" x="7171.5" y="-136" font-family="Helvetica,sans-Serif" font-size="10.00">sitkImageRegistrationMethod.h</text>
</a>
</g>
</g>
<!-- Node1&#45;&gt;Node311 -->
<g id="edge63" class="edge">
<title>Node1&#45;&gt;Node311</title>
<path fill="none" stroke="midnightblue" d="M6568.15,-194.45C6685.45,-188 6897.29,-174.64 7077.5,-154 7091.61,-152.38 7106.85,-150.22 7120.86,-148.05"/>
<polygon fill="midnightblue" stroke="midnightblue" points="6567.93,-190.96 6558.14,-195 6568.31,-197.95 6567.93,-190.96"/>
</g>
<!-- Node3 -->
<g id="node3" class="node">
<title>Node3</title>
<g id="a_node3"><a xlink:href="sitkBSplineTransformInitializerFilter_8h.html" target="_top" xlink:title=" ">
<polygon fill="white" stroke="black" points="141.5,-56.5 141.5,-86.5 307.5,-86.5 307.5,-56.5 141.5,-56.5"/>
<text text-anchor="start" x="149.5" y="-74.5" font-family="Helvetica,sans-Serif" font-size="10.00">sitkBSplineTransformInitializer</text>
<text text-anchor="middle" x="224.5" y="-63.5" font-family="Helvetica,sans-Serif" font-size="10.00">Filter.h</text>
</a>
</g>
</g>
<!-- Node2&#45;&gt;Node3 -->
<g id="edge2" class="edge">
<title>Node2&#45;&gt;Node3</title>
<path fill="none" stroke="midnightblue" d="M3037.14,-136.88C2659.64,-132.91 600.47,-110.29 321.5,-87 317,-86.62 312.4,-86.17 307.76,-85.66"/>
<polygon fill="midnightblue" stroke="midnightblue" points="3037.27,-140.39 3047.3,-136.99 3037.34,-133.39 3037.27,-140.39"/>
</g>
<!-- Node4 -->
<g id="node4" class="node">
<title>Node4</title>
<g id="a_node4"><a xlink:href="SimpleITK_8h.html" target="_top" xlink:title=" ">
<polygon fill="white" stroke="black" points="6537,-0.5 6537,-19.5 6612,-19.5 6612,-0.5 6537,-0.5"/>
<text text-anchor="middle" x="6574.5" y="-7.5" font-family="Helvetica,sans-Serif" font-size="10.00">SimpleITK.h</text>
</a>
</g>
</g>
<!-- Node2&#45;&gt;Node4 -->
<g id="edge14" class="edge">
<title>Node2&#45;&gt;Node4</title>
<path fill="none" stroke="midnightblue" d="M3037.2,-136.97C2639.81,-133.37 378.84,-111.79 354.5,-87 344.85,-77.17 344.79,-65.78 354.5,-56 383.54,-26.75 6022.18,-12.34 6536.97,-11.09"/>
<polygon fill="midnightblue" stroke="midnightblue" points="3037.3,-140.47 3047.33,-137.06 3037.36,-133.47 3037.3,-140.47"/>
</g>
<!-- Node5 -->
<g id="node5" class="node">
<title>Node5</title>
<g id="a_node5"><a xlink:href="sitkCastImageFilter_8h.html" target="_top" xlink:title=" ">
<polygon fill="white" stroke="black" points="363.5,-62 363.5,-81 483.5,-81 483.5,-62 363.5,-62"/>
<text text-anchor="middle" x="423.5" y="-69" font-family="Helvetica,sans-Serif" font-size="10.00">sitkCastImageFilter.h</text>
</a>
</g>
</g>
<!-- Node2&#45;&gt;Node5 -->
<g id="edge4" class="edge">
<title>Node2&#45;&gt;Node5</title>
<path fill="none" stroke="midnightblue" d="M3037.36,-137.02C2674.15,-133.98 752.68,-116.6 492.5,-87 481.07,-85.7 468.73,-83.4 457.69,-81.01"/>
<polygon fill="midnightblue" stroke="midnightblue" points="3037.37,-140.52 3047.4,-137.1 3037.43,-133.52 3037.37,-140.52"/>
</g>
<!-- Node6 -->
<g id="node6" class="node">
<title>Node6</title>
<g id="a_node6"><a xlink:href="sitkExtractImageFilter_8h.html" target="_top" xlink:title=" ">
<polygon fill="white" stroke="black" points="502,-62 502,-81 635,-81 635,-62 502,-62"/>
<text text-anchor="middle" x="568.5" y="-69" font-family="Helvetica,sans-Serif" font-size="10.00">sitkExtractImageFilter.h</text>
</a>
</g>
</g>
<!-- Node2&#45;&gt;Node6 -->
<g id="edge6" class="edge">
<title>Node2&#45;&gt;Node6</title>
<path fill="none" stroke="midnightblue" d="M3037.24,-136.88C2686.46,-133.1 888.89,-112.65 644.5,-87 632.08,-85.7 618.65,-83.43 606.59,-81.06"/>
<polygon fill="midnightblue" stroke="midnightblue" points="3037.4,-140.38 3047.44,-136.99 3037.48,-133.38 3037.4,-140.38"/>
</g>
<!-- Node2&#45;&gt;Node7 -->
<g id="edge8" class="edge">
<title>Node2&#45;&gt;Node7</title>
<path fill="none" stroke="midnightblue" d="M3037.18,-136.8C2631.85,-131.98 282.05,-103.4 132.5,-87 120.74,-85.71 108.05,-83.41 96.69,-81.02"/>
<polygon fill="midnightblue" stroke="midnightblue" points="3037.18,-140.3 3047.22,-136.92 3037.27,-133.3 3037.18,-140.3"/>
</g>
<!-- Node8 -->
<g id="node8" class="node">
<title>Node8</title>
<g id="a_node8"><a xlink:href="sitkLandmarkBasedTransformInitializerFilter_8h.html" target="_top" xlink:title=" ">
<polygon fill="white" stroke="black" points="653.5,-56.5 653.5,-86.5 815.5,-86.5 815.5,-56.5 653.5,-56.5"/>
<text text-anchor="start" x="661.5" y="-74.5" font-family="Helvetica,sans-Serif" font-size="10.00">sitkLandmarkBasedTransform</text>
<text text-anchor="middle" x="734.5" y="-63.5" font-family="Helvetica,sans-Serif" font-size="10.00">InitializerFilter.h</text>
</a>
</g>
</g>
<!-- Node2&#45;&gt;Node8 -->
<g id="edge10" class="edge">
<title>Node2&#45;&gt;Node8</title>
<path fill="none" stroke="midnightblue" d="M3037.13,-137.29C2725.11,-136 1272.49,-127.87 824.5,-87 821.66,-86.74 818.78,-86.45 815.87,-86.12"/>
<polygon fill="midnightblue" stroke="midnightblue" points="3037.3,-140.79 3047.31,-137.33 3037.33,-133.79 3037.3,-140.79"/>
</g>
<!-- Node9 -->
<g id="node9" class="node">
<title>Node9</title>
<g id="a_node9"><a xlink:href="sitkPasteImageFilter_8h.html" target="_top" xlink:title=" ">
<polygon fill="white" stroke="black" points="834,-62 834,-81 959,-81 959,-62 834,-62"/>
<text text-anchor="middle" x="896.5" y="-69" font-family="Helvetica,sans-Serif" font-size="10.00">sitkPasteImageFilter.h</text>
</a>
</g>
</g>
<!-- Node2&#45;&gt;Node9 -->
<g id="edge12" class="edge">
<title>Node2&#45;&gt;Node9</title>
<path fill="none" stroke="midnightblue" d="M3037.04,-137.5C2736.81,-137.26 1385.45,-133.57 968.5,-87 956.71,-85.68 943.99,-83.41 932.56,-81.05"/>
<polygon fill="midnightblue" stroke="midnightblue" points="3037.27,-141 3047.27,-137.5 3037.28,-134 3037.27,-141"/>
</g>
<!-- Node10 -->
<g id="node10" class="node">
<title>Node10</title>
<g id="a_node10"><a xlink:href="sitkAbsImageFilter_8h.html" target="_top" xlink:title=" ">
<polygon fill="white" stroke="red" points="977.5,-62 977.5,-81 1093.5,-81 1093.5,-62 977.5,-62"/>
<text text-anchor="middle" x="1035.5" y="-69" font-family="Helvetica,sans-Serif" font-size="10.00">sitkAbsImageFilter.h</text>
</a>
</g>
</g>
<!-- Node2&#45;&gt;Node10 -->
<g id="edge15" class="edge">
<title>Node2&#45;&gt;Node10</title>
<path fill="none" stroke="midnightblue" d="M3037.09,-137.5C2748.5,-137.27 1491.17,-133.56 1102.5,-87 1091.51,-85.68 1079.66,-83.41 1069.03,-81.05"/>
<polygon fill="midnightblue" stroke="midnightblue" points="3037.33,-141 3047.34,-137.51 3037.34,-134 3037.33,-141"/>
</g>
<!-- Node13 -->
<g id="node11" class="node">
<title>Node13</title>
<g id="a_node11"><a xlink:href="sitkAbsoluteValueDifferenceImageFilter_8h.html" target="_top" xlink:title=" ">
<polygon fill="white" stroke="red" points="1112,-56.5 1112,-86.5 1267,-86.5 1267,-56.5 1112,-56.5"/>
<text text-anchor="start" x="1120" y="-74.5" font-family="Helvetica,sans-Serif" font-size="10.00">sitkAbsoluteValueDifference</text>
<text text-anchor="middle" x="1189.5" y="-63.5" font-family="Helvetica,sans-Serif" font-size="10.00">ImageFilter.h</text>
</a>
</g>
</g>
<!-- Node2&#45;&gt;Node13 -->
<g id="edge16" class="edge">
<title>Node2&#45;&gt;Node13</title>
<path fill="none" stroke="midnightblue" d="M3037.06,-136.95C2764.21,-134.26 1629.84,-121.18 1276.5,-87 1273.45,-86.71 1270.35,-86.37 1267.22,-86"/>
<polygon fill="midnightblue" stroke="midnightblue" points="3037.12,-140.45 3047.16,-137.05 3037.19,-133.45 3037.12,-140.45"/>
</g>
<!-- Node14 -->
<g id="node12" class="node">
<title>Node14</title>
<g id="a_node12"><a xlink:href="sitkAcosImageFilter_8h.html" target="_top" xlink:title=" ">
<polygon fill="white" stroke="red" points="1285.5,-62 1285.5,-81 1407.5,-81 1407.5,-62 1285.5,-62"/>
<text text-anchor="middle" x="1346.5" y="-69" font-family="Helvetica,sans-Serif" font-size="10.00">sitkAcosImageFilter.h</text>
</a>
</g>
</g>
<!-- Node2&#45;&gt;Node14 -->
<g id="edge17" class="edge">
<title>Node2&#45;&gt;Node14</title>
<path fill="none" stroke="midnightblue" d="M3037.04,-137.1C2777.2,-135.15 1740.03,-125.08 1416.5,-87 1405.04,-85.65 1392.66,-83.37 1381.56,-81.01"/>
<polygon fill="midnightblue" stroke="midnightblue" points="3037.37,-140.6 3047.39,-137.18 3037.42,-133.6 3037.37,-140.6"/>
</g>
<!-- Node15 -->
<g id="node13" class="node">
<title>Node15</title>
<g id="a_node13"><a xlink:href="sitkAdaptiveHistogramEqualizationImageFilter_8h.html" target="_top" xlink:title=" ">
<polygon fill="white" stroke="red" points="1426,-56.5 1426,-86.5 1615,-86.5 1615,-56.5 1426,-56.5"/>
<text text-anchor="start" x="1434" y="-74.5" font-family="Helvetica,sans-Serif" font-size="10.00">sitkAdaptiveHistogramEqualization</text>
<text text-anchor="middle" x="1520.5" y="-63.5" font-family="Helvetica,sans-Serif" font-size="10.00">ImageFilter.h</text>
</a>
</g>
</g>
<!-- Node2&#45;&gt;Node15 -->
<g id="edge18" class="edge">
<title>Node2&#45;&gt;Node15</title>
<path fill="none" stroke="midnightblue" d="M3037.16,-137.71C2837.42,-137.94 2171.31,-134.82 1623.5,-87 1620.71,-86.76 1617.88,-86.49 1615.03,-86.2"/>
<polygon fill="midnightblue" stroke="midnightblue" points="3037.44,-141.21 3047.43,-137.7 3037.43,-134.21 3037.44,-141.21"/>
</g>
<!-- Node16 -->
<g id="node14" class="node">
<title>Node16</title>
<g id="a_node14"><a xlink:href="sitkAddImageFilter_8h.html" target="_top" xlink:title=" ">
<polygon fill="white" stroke="red" points="1633,-62 1633,-81 1750,-81 1750,-62 1633,-62"/>
<text text-anchor="middle" x="1691.5" y="-69" font-family="Helvetica,sans-Serif" font-size="10.00">sitkAddImageFilter.h</text>
</a>
</g>
</g>
<!-- Node2&#45;&gt;Node16 -->
<g id="edge19" class="edge">
<title>Node2&#45;&gt;Node16</title>
<path fill="none" stroke="midnightblue" d="M3037.06,-136.62C2811.98,-133.06 2012.07,-118.46 1759.5,-87 1748.48,-85.63 1736.6,-83.37 1725.9,-81.04"/>
<polygon fill="midnightblue" stroke="midnightblue" points="3037.28,-140.12 3047.33,-136.78 3037.39,-133.12 3037.28,-140.12"/>
</g>
<!-- Node18 -->
<g id="node15" class="node">
<title>Node18</title>
<g id="a_node15"><a xlink:href="sitkAdditiveGaussianNoiseImageFilter_8h.html" target="_top" xlink:title=" ">
<polygon fill="white" stroke="red" points="1768.5,-56.5 1768.5,-86.5 1916.5,-86.5 1916.5,-56.5 1768.5,-56.5"/>
<text text-anchor="start" x="1776.5" y="-74.5" font-family="Helvetica,sans-Serif" font-size="10.00">sitkAdditiveGaussianNoise</text>
<text text-anchor="middle" x="1842.5" y="-63.5" font-family="Helvetica,sans-Serif" font-size="10.00">ImageFilter.h</text>
</a>
</g>
</g>
<!-- Node2&#45;&gt;Node18 -->
<g id="edge20" class="edge">
<title>Node2&#45;&gt;Node18</title>
<path fill="none" stroke="midnightblue" d="M3037.11,-137.66C2864.76,-137.53 2349.76,-133.01 1925.5,-87 1922.59,-86.68 1919.63,-86.33 1916.64,-85.94"/>
<polygon fill="midnightblue" stroke="midnightblue" points="3037.24,-141.16 3047.24,-137.66 3037.24,-134.16 3037.24,-141.16"/>
</g>
<!-- Node19 -->
<g id="node16" class="node">
<title>Node19</title>
<g id="a_node16"><a xlink:href="sitkAggregateLabelMapFilter_8h.html" target="_top" xlink:title=" ">
<polygon fill="white" stroke="red" points="1935,-62 1935,-81 2100,-81 2100,-62 1935,-62"/>
<text text-anchor="middle" x="2017.5" y="-69" font-family="Helvetica,sans-Serif" font-size="10.00">sitkAggregateLabelMapFilter.h</text>
</a>
</g>
</g>
<!-- Node2&#45;&gt;Node19 -->
<g id="edge21" class="edge">
<title>Node2&#45;&gt;Node19</title>
<path fill="none" stroke="midnightblue" d="M3037.09,-136.68C2883.25,-134.06 2459.36,-123.81 2108.5,-87 2094.34,-85.51 2079.03,-83.31 2065.07,-81.06"/>
<polygon fill="midnightblue" stroke="midnightblue" points="3037.21,-140.18 3047.27,-136.84 3037.33,-133.18 3037.21,-140.18"/>
</g>
<!-- Node20 -->
<g id="node17" class="node">
<title>Node20</title>
<g id="a_node17"><a xlink:href="sitkAndImageFilter_8h.html" target="_top" xlink:title=" ">
<polygon fill="white" stroke="red" points="2118,-62 2118,-81 2235,-81 2235,-62 2118,-62"/>
<text text-anchor="middle" x="2176.5" y="-69" font-family="Helvetica,sans-Serif" font-size="10.00">sitkAndImageFilter.h</text>
</a>
</g>
</g>
<!-- Node2&#45;&gt;Node20 -->
<g id="edge22" class="edge">
<title>Node2&#45;&gt;Node20</title>
<path fill="none" stroke="midnightblue" d="M3037.24,-137.06C2898.18,-135.35 2540.31,-127.07 2244.5,-87 2233.73,-85.54 2222.13,-83.32 2211.62,-81.04"/>
<polygon fill="midnightblue" stroke="midnightblue" points="3037.23,-140.56 3047.26,-137.17 3037.31,-133.56 3037.23,-140.56"/>
</g>
<!-- Node21 -->
<g id="node18" class="node">
<title>Node21</title>
<g id="a_node18"><a xlink:href="sitkAntiAliasBinaryImageFilter_8h.html" target="_top" xlink:title=" ">
<polygon fill="white" stroke="red" points="2253.5,-56.5 2253.5,-86.5 2393.5,-86.5 2393.5,-56.5 2253.5,-56.5"/>
<text text-anchor="start" x="2261.5" y="-74.5" font-family="Helvetica,sans-Serif" font-size="10.00">sitkAntiAliasBinaryImage</text>
<text text-anchor="middle" x="2323.5" y="-63.5" font-family="Helvetica,sans-Serif" font-size="10.00">Filter.h</text>
</a>
</g>
</g>
<!-- Node2&#45;&gt;Node21 -->
<g id="edge23" class="edge">
<title>Node2&#45;&gt;Node21</title>
<path fill="none" stroke="midnightblue" d="M3036.99,-135.35C2916.71,-130.54 2636.25,-116.87 2402.5,-87 2399.6,-86.63 2396.64,-86.22 2393.65,-85.79"/>
<polygon fill="midnightblue" stroke="midnightblue" points="3036.96,-138.86 3047.09,-135.75 3037.24,-131.86 3036.96,-138.86"/>
</g>
<!-- Node22 -->
<g id="node19" class="node">
<title>Node22</title>
<g id="a_node19"><a xlink:href="sitkApproximateSignedDistanceMapImageFilter_8h.html" target="_top" xlink:title=" ">
<polygon fill="white" stroke="red" points="2412,-56.5 2412,-86.5 2585,-86.5 2585,-56.5 2412,-56.5"/>
<text text-anchor="start" x="2420" y="-74.5" font-family="Helvetica,sans-Serif" font-size="10.00">sitkApproximateSignedDistance</text>
<text text-anchor="middle" x="2498.5" y="-63.5" font-family="Helvetica,sans-Serif" font-size="10.00">MapImageFilter.h</text>
</a>
</g>
</g>
<!-- Node2&#45;&gt;Node22 -->
<g id="edge24" class="edge">
<title>Node2&#45;&gt;Node22</title>
<path fill="none" stroke="midnightblue" d="M3037.32,-132.55C2943.18,-124.46 2753.59,-107.24 2593.5,-87 2590.77,-86.65 2588,-86.29 2585.2,-85.92"/>
<polygon fill="midnightblue" stroke="midnightblue" points="3037.23,-136.06 3047.5,-133.42 3037.83,-129.08 3037.23,-136.06"/>
</g>
<!-- Node23 -->
<g id="node20" class="node">
<title>Node23</title>
<g id="a_node20"><a xlink:href="sitkAsinImageFilter_8h.html" target="_top" xlink:title=" ">
<polygon fill="white" stroke="red" points="2603,-62 2603,-81 2722,-81 2722,-62 2603,-62"/>
<text text-anchor="middle" x="2662.5" y="-69" font-family="Helvetica,sans-Serif" font-size="10.00">sitkAsinImageFilter.h</text>
</a>
</g>
</g>
<!-- Node2&#45;&gt;Node23 -->
<g id="edge25" class="edge">
<title>Node2&#45;&gt;Node23</title>
<path fill="none" stroke="midnightblue" d="M3037.18,-130.67C2964.61,-121.99 2838.14,-105.88 2730.5,-87 2720.63,-85.27 2710.01,-83.14 2700.17,-81.04"/>
<polygon fill="midnightblue" stroke="midnightblue" points="3037.14,-134.19 3047.48,-131.89 3037.97,-127.23 3037.14,-134.19"/>
</g>
<!-- Node24 -->
<g id="node21" class="node">
<title>Node24</title>
<g id="a_node21"><a xlink:href="sitkAtan2ImageFilter_8h.html" target="_top" xlink:title=" ">
<polygon fill="white" stroke="red" points="2740,-62 2740,-81 2867,-81 2867,-62 2740,-62"/>
<text text-anchor="middle" x="2803.5" y="-69" font-family="Helvetica,sans-Serif" font-size="10.00">sitkAtan2ImageFilter.h</text>
</a>
</g>
</g>
<!-- Node2&#45;&gt;Node24 -->
<g id="edge26" class="edge">
<title>Node2&#45;&gt;Node24</title>
<path fill="none" stroke="midnightblue" d="M3047.92,-126.72C2990.23,-113.92 2895.16,-92.83 2842.19,-81.08"/>
<polygon fill="midnightblue" stroke="midnightblue" points="3047.37,-130.19 3057.89,-128.94 3048.89,-123.35 3047.37,-130.19"/>
</g>
<!-- Node25 -->
<g id="node22" class="node">
<title>Node25</title>
<g id="a_node22"><a xlink:href="sitkAtanImageFilter_8h.html" target="_top" xlink:title=" ">
<polygon fill="white" stroke="red" points="2885,-62 2885,-81 3006,-81 3006,-62 2885,-62"/>
<text text-anchor="middle" x="2945.5" y="-69" font-family="Helvetica,sans-Serif" font-size="10.00">sitkAtanImageFilter.h</text>
</a>
</g>
</g>
<!-- Node2&#45;&gt;Node25 -->
<g id="edge27" class="edge">
<title>Node2&#45;&gt;Node25</title>
<path fill="none" stroke="midnightblue" d="M3066.95,-124.78C3037.05,-111.91 2991.62,-92.35 2965.63,-81.17"/>
<polygon fill="midnightblue" stroke="midnightblue" points="3065.88,-128.13 3076.45,-128.87 3068.65,-121.7 3065.88,-128.13"/>
</g>
<!-- Node26 -->
<g id="node23" class="node">
<title>Node26</title>
<g id="a_node23"><a xlink:href="sitkBSplineDecompositionImageFilter_8h.html" target="_top" xlink:title=" ">
<polygon fill="white" stroke="red" points="3024,-56.5 3024,-86.5 3169,-86.5 3169,-56.5 3024,-56.5"/>
<text text-anchor="start" x="3032" y="-74.5" font-family="Helvetica,sans-Serif" font-size="10.00">sitkBSplineDecomposition</text>
<text text-anchor="middle" x="3096.5" y="-63.5" font-family="Helvetica,sans-Serif" font-size="10.00">ImageFilter.h</text>
</a>
</g>
</g>
<!-- Node2&#45;&gt;Node26 -->
<g id="edge28" class="edge">
<title>Node2&#45;&gt;Node26</title>
<path fill="none" stroke="midnightblue" d="M3096.5,-118.41C3096.5,-108.22 3096.5,-95.9 3096.5,-86.59"/>
<polygon fill="midnightblue" stroke="midnightblue" points="3093,-118.73 3096.5,-128.73 3100,-118.73 3093,-118.73"/>
</g>
<!-- Node27 -->
<g id="node24" class="node">
<title>Node27</title>
<g id="a_node24"><a xlink:href="sitkBilateralImageFilter_8h.html" target="_top" xlink:title=" ">
<polygon fill="white" stroke="red" points="3187.5,-62 3187.5,-81 3327.5,-81 3327.5,-62 3187.5,-62"/>
<text text-anchor="middle" x="3257.5" y="-69" font-family="Helvetica,sans-Serif" font-size="10.00">sitkBilateralImageFilter.h</text>
</a>
</g>
</g>
<!-- Node2&#45;&gt;Node27 -->
<g id="edge29" class="edge">
<title>Node2&#45;&gt;Node27</title>
<path fill="none" stroke="midnightblue" d="M3127.2,-125.1C3159.17,-112.2 3208.39,-92.33 3236.29,-81.06"/>
<polygon fill="midnightblue" stroke="midnightblue" points="3125.84,-121.88 3117.88,-128.87 3128.46,-128.37 3125.84,-121.88"/>
</g>
<!-- Node28 -->
<g id="node25" class="node">
<title>Node28</title>
<g id="a_node25"><a xlink:href="sitkBinShrinkImageFilter_8h.html" target="_top" xlink:title=" ">
<polygon fill="white" stroke="red" points="3346,-62 3346,-81 3491,-81 3491,-62 3346,-62"/>
<text text-anchor="middle" x="3418.5" y="-69" font-family="Helvetica,sans-Serif" font-size="10.00">sitkBinShrinkImageFilter.h</text>
</a>
</g>
</g>
<!-- Node2&#45;&gt;Node28 -->
<g id="edge30" class="edge">
<title>Node2&#45;&gt;Node28</title>
<path fill="none" stroke="midnightblue" d="M3149.11,-126.88C3212.53,-114.08 3317.84,-92.82 3376.24,-81.03"/>
<polygon fill="midnightblue" stroke="midnightblue" points="3148.04,-123.53 3138.93,-128.94 3149.42,-130.39 3148.04,-123.53"/>
</g>
<!-- Node29 -->
<g id="node26" class="node">
<title>Node29</title>
<g id="a_node26"><a xlink:href="sitkBinaryClosingByReconstructionImageFilter_8h.html" target="_top" xlink:title=" ">
<polygon fill="white" stroke="red" points="3509.5,-56.5 3509.5,-86.5 3697.5,-86.5 3697.5,-56.5 3509.5,-56.5"/>
<text text-anchor="start" x="3517.5" y="-74.5" font-family="Helvetica,sans-Serif" font-size="10.00">sitkBinaryClosingByReconstruction</text>
<text text-anchor="middle" x="3603.5" y="-63.5" font-family="Helvetica,sans-Serif" font-size="10.00">ImageFilter.h</text>
</a>
</g>
</g>
<!-- Node2&#45;&gt;Node29 -->
<g id="edge31" class="edge">
<title>Node2&#45;&gt;Node29</title>
<path fill="none" stroke="midnightblue" d="M3155.73,-130.34C3234.33,-120.78 3377.41,-103.16 3499.5,-87 3502.75,-86.57 3506.06,-86.13 3509.41,-85.68"/>
<polygon fill="midnightblue" stroke="midnightblue" points="3155.04,-126.9 3145.54,-131.58 3155.89,-133.85 3155.04,-126.9"/>
</g>
<!-- Node30 -->
<g id="node27" class="node">
<title>Node30</title>
<g id="a_node27"><a xlink:href="sitkBinaryContourImageFilter_8h.html" target="_top" xlink:title=" ">
<polygon fill="white" stroke="red" points="3715.5,-62 3715.5,-81 3883.5,-81 3883.5,-62 3715.5,-62"/>
<text text-anchor="middle" x="3799.5" y="-69" font-family="Helvetica,sans-Serif" font-size="10.00">sitkBinaryContourImageFilter.h</text>
</a>
</g>
</g>
<!-- Node2&#45;&gt;Node30 -->
<g id="edge32" class="edge">
<title>Node2&#45;&gt;Node30</title>
<path fill="none" stroke="midnightblue" d="M3155.8,-134.02C3264.99,-127.28 3505.13,-111 3706.5,-87 3720.29,-85.36 3735.18,-83.21 3748.91,-81.07"/>
<polygon fill="midnightblue" stroke="midnightblue" points="3155.41,-130.53 3145.64,-134.64 3155.84,-137.52 3155.41,-130.53"/>
</g>
<!-- Node31 -->
<g id="node28" class="node">
<title>Node31</title>
<g id="a_node28"><a xlink:href="sitkBinaryDilateImageFilter_8h.html" target="_top" xlink:title=" ">
<polygon fill="white" stroke="red" points="3901,-62 3901,-81 4060,-81 4060,-62 3901,-62"/>
<text text-anchor="middle" x="3980.5" y="-69" font-family="Helvetica,sans-Serif" font-size="10.00">sitkBinaryDilateImageFilter.h</text>
</a>
</g>
</g>
<!-- Node2&#45;&gt;Node31 -->
<g id="edge33" class="edge">
<title>Node2&#45;&gt;Node31</title>
<path fill="none" stroke="midnightblue" d="M3155.89,-135.76C3288.42,-131.44 3618.22,-118.22 3892.5,-87 3906.04,-85.46 3920.67,-83.26 3934.04,-81.05"/>
<polygon fill="midnightblue" stroke="midnightblue" points="3155.45,-132.27 3145.56,-136.09 3155.67,-139.27 3155.45,-132.27"/>
</g>
<!-- Node32 -->
<g id="node29" class="node">
<title>Node32</title>
<g id="a_node29"><a xlink:href="sitkBinaryErodeImageFilter_8h.html" target="_top" xlink:title=" ">
<polygon fill="white" stroke="red" points="4077.5,-62 4077.5,-81 4235.5,-81 4235.5,-62 4077.5,-62"/>
<text text-anchor="middle" x="4156.5" y="-69" font-family="Helvetica,sans-Serif" font-size="10.00">sitkBinaryErodeImageFilter.h</text>
</a>
</g>
</g>
<!-- Node2&#45;&gt;Node32 -->
<g id="edge34" class="edge">
<title>Node2&#45;&gt;Node32</title>
<path fill="none" stroke="midnightblue" d="M3155.77,-136.72C3307.82,-134.21 3724.03,-124.21 4068.5,-87 4082.2,-85.52 4097.01,-83.32 4110.5,-81.07"/>
<polygon fill="midnightblue" stroke="midnightblue" points="3155.65,-133.22 3145.71,-136.88 3155.76,-140.22 3155.65,-133.22"/>
</g>
<!-- Node33 -->
<g id="node30" class="node">
<title>Node33</title>
<g id="a_node30"><a xlink:href="sitkBinaryFillholeImageFilter_8h.html" target="_top" xlink:title=" ">
<polygon fill="white" stroke="red" points="4254,-62 4254,-81 4419,-81 4419,-62 4254,-62"/>
<text text-anchor="middle" x="4336.5" y="-69" font-family="Helvetica,sans-Serif" font-size="10.00">sitkBinaryFillholeImageFilter.h</text>
</a>
</g>
</g>
<!-- Node2&#45;&gt;Node33 -->
<g id="edge35" class="edge">
<title>Node2&#45;&gt;Node33</title>
<path fill="none" stroke="midnightblue" d="M3155.83,-137.24C3325.83,-135.98 3829.15,-128.73 4244.5,-87 4258.98,-85.55 4274.65,-83.32 4288.88,-81.05"/>
<polygon fill="midnightblue" stroke="midnightblue" points="3155.57,-133.74 3145.59,-137.31 3155.62,-140.74 3155.57,-133.74"/>
</g>
<!-- Node34 -->
<g id="node31" class="node">
<title>Node34</title>
<g id="a_node31"><a xlink:href="sitkBinaryGrindPeakImageFilter_8h.html" target="_top" xlink:title=" ">
<polygon fill="white" stroke="red" points="4437,-56.5 4437,-86.5 4584,-86.5 4584,-56.5 4437,-56.5"/>
<text text-anchor="start" x="4445" y="-74.5" font-family="Helvetica,sans-Serif" font-size="10.00">sitkBinaryGrindPeakImage</text>
<text text-anchor="middle" x="4510.5" y="-63.5" font-family="Helvetica,sans-Serif" font-size="10.00">Filter.h</text>
</a>
</g>
</g>
<!-- Node2&#45;&gt;Node34 -->
<g id="edge36" class="edge">
<title>Node2&#45;&gt;Node34</title>
<path fill="none" stroke="midnightblue" d="M3155.8,-138.1C3343.06,-139.37 3938.31,-138.77 4427.5,-87 4430.55,-86.68 4433.67,-86.31 4436.81,-85.91"/>
<polygon fill="midnightblue" stroke="midnightblue" points="3155.64,-134.6 3145.62,-138.02 3155.59,-141.6 3155.64,-134.6"/>
</g>
<!-- Node35 -->
<g id="node32" class="node">
<title>Node35</title>
<g id="a_node32"><a xlink:href="sitkBinaryImageToLabelMapFilter_8h.html" target="_top" xlink:title=" ">
<polygon fill="white" stroke="red" points="4602,-56.5 4602,-86.5 4757,-86.5 4757,-56.5 4602,-56.5"/>
<text text-anchor="start" x="4610" y="-74.5" font-family="Helvetica,sans-Serif" font-size="10.00">sitkBinaryImageToLabelMap</text>
<text text-anchor="middle" x="4679.5" y="-63.5" font-family="Helvetica,sans-Serif" font-size="10.00">Filter.h</text>
</a>
</g>
</g>
<!-- Node2&#45;&gt;Node35 -->
<g id="edge37" class="edge">
<title>Node2&#45;&gt;Node35</title>
<path fill="none" stroke="midnightblue" d="M3156.03,-136.54C3397.73,-132.46 4306.49,-115.54 4592.5,-87 4595.55,-86.7 4598.65,-86.35 4601.78,-85.97"/>
<polygon fill="midnightblue" stroke="midnightblue" points="3155.63,-133.04 3145.69,-136.71 3155.75,-140.04 3155.63,-133.04"/>
</g>
<!-- Node36 -->
<g id="node33" class="node">
<title>Node36</title>
<g id="a_node33"><a xlink:href="sitkBinaryMagnitudeImageFilter_8h.html" target="_top" xlink:title=" ">
<polygon fill="white" stroke="red" points="4775,-56.5 4775,-86.5 4924,-86.5 4924,-56.5 4775,-56.5"/>
<text text-anchor="start" x="4783" y="-74.5" font-family="Helvetica,sans-Serif" font-size="10.00">sitkBinaryMagnitudeImage</text>
<text text-anchor="middle" x="4849.5" y="-63.5" font-family="Helvetica,sans-Serif" font-size="10.00">Filter.h</text>
</a>
</g>
</g>
<!-- Node2&#45;&gt;Node36 -->
<g id="edge38" class="edge">
<title>Node2&#45;&gt;Node36</title>
<path fill="none" stroke="midnightblue" d="M3155.97,-136.82C3414.7,-133.71 4443.68,-119.48 4765.5,-87 4768.59,-86.69 4771.74,-86.33 4774.92,-85.93"/>
<polygon fill="midnightblue" stroke="midnightblue" points="3155.62,-133.33 3145.66,-136.95 3155.7,-140.33 3155.62,-133.33"/>
</g>
<!-- Node37 -->
<g id="node34" class="node">
<title>Node37</title>
<g id="a_node34"><a xlink:href="sitkBinaryMedianImageFilter_8h.html" target="_top" xlink:title=" ">
<polygon fill="white" stroke="red" points="4942.5,-62 4942.5,-81 5108.5,-81 5108.5,-62 4942.5,-62"/>
<text text-anchor="middle" x="5025.5" y="-69" font-family="Helvetica,sans-Serif" font-size="10.00">sitkBinaryMedianImageFilter.h</text>
</a>
</g>
</g>
<!-- Node2&#45;&gt;Node37 -->
<g id="edge39" class="edge">
<title>Node2&#45;&gt;Node37</title>
<path fill="none" stroke="midnightblue" d="M3156,-136.88C3430.41,-133.88 4575.68,-119.59 4932.5,-87 4947.47,-85.63 4963.69,-83.38 4978.33,-81.04"/>
<polygon fill="midnightblue" stroke="midnightblue" points="3155.81,-133.38 3145.85,-136.99 3155.89,-140.38 3155.81,-133.38"/>
</g>
<!-- Node38 -->
<g id="node35" class="node">
<title>Node38</title>
<g id="a_node35"><a xlink:href="sitkBinaryMinMaxCurvatureFlowImageFilter_8h.html" target="_top" xlink:title=" ">
<polygon fill="white" stroke="red" points="5127,-56.5 5127,-86.5 5280,-86.5 5280,-56.5 5127,-56.5"/>
<text text-anchor="start" x="5135" y="-74.5" font-family="Helvetica,sans-Serif" font-size="10.00">sitkBinaryMinMaxCurvature</text>
<text text-anchor="middle" x="5203.5" y="-63.5" font-family="Helvetica,sans-Serif" font-size="10.00">FlowImageFilter.h</text>
</a>
</g>
</g>
<!-- Node2&#45;&gt;Node38 -->
<g id="edge40" class="edge">
<title>Node2&#45;&gt;Node38</title>
<path fill="none" stroke="midnightblue" d="M3156.2,-137.15C3447.59,-135.29 4722.36,-125.05 5117.5,-87 5120.51,-86.71 5123.58,-86.38 5126.68,-86.01"/>
<polygon fill="midnightblue" stroke="midnightblue" points="3155.83,-133.66 3145.85,-137.22 3155.87,-140.66 3155.83,-133.66"/>
</g>
<!-- Node39 -->
<g id="node36" class="node">
<title>Node39</title>
<g id="a_node36"><a xlink:href="sitkBinaryMorphologicalClosingImageFilter_8h.html" target="_top" xlink:title=" ">
<polygon fill="white" stroke="red" points="5298,-56.5 5298,-86.5 5469,-86.5 5469,-56.5 5298,-56.5"/>
<text text-anchor="start" x="5306" y="-74.5" font-family="Helvetica,sans-Serif" font-size="10.00">sitkBinaryMorphologicalClosing</text>
<text text-anchor="middle" x="5383.5" y="-63.5" font-family="Helvetica,sans-Serif" font-size="10.00">ImageFilter.h</text>
</a>
</g>
</g>
<!-- Node2&#45;&gt;Node39 -->
<g id="edge41" class="edge">
<title>Node2&#45;&gt;Node39</title>
<path fill="none" stroke="midnightblue" d="M3156.2,-137.16C3462.23,-135.28 4857.29,-124.72 5288.5,-87 5291.57,-86.73 5294.7,-86.43 5297.86,-86.09"/>
<polygon fill="midnightblue" stroke="midnightblue" points="3155.76,-133.67 3145.78,-137.23 3155.8,-140.67 3155.76,-133.67"/>
</g>
<!-- Node40 -->
<g id="node37" class="node">
<title>Node40</title>
<g id="a_node37"><a xlink:href="sitkBinaryMorphologicalOpeningImageFilter_8h.html" target="_top" xlink:title=" ">
<polygon fill="white" stroke="red" points="5487.5,-56.5 5487.5,-86.5 5663.5,-86.5 5663.5,-56.5 5487.5,-56.5"/>
<text text-anchor="start" x="5495.5" y="-74.5" font-family="Helvetica,sans-Serif" font-size="10.00">sitkBinaryMorphologicalOpening</text>
<text text-anchor="middle" x="5575.5" y="-63.5" font-family="Helvetica,sans-Serif" font-size="10.00">ImageFilter.h</text>
</a>
</g>
</g>
<!-- Node2&#45;&gt;Node40 -->
<g id="edge42" class="edge">
<title>Node2&#45;&gt;Node40</title>
<path fill="none" stroke="midnightblue" d="M3155.61,-137.26C3475.88,-135.77 5006.24,-126.7 5477.5,-87 5480.76,-86.73 5484.07,-86.41 5487.41,-86.07"/>
<polygon fill="midnightblue" stroke="midnightblue" points="3155.59,-133.75 3145.6,-137.3 3155.62,-140.75 3155.59,-133.75"/>
</g>
<!-- Node41 -->
<g id="node38" class="node">
<title>Node41</title>
<g id="a_node38"><a xlink:href="sitkBinaryNotImageFilter_8h.html" target="_top" xlink:title=" ">
<polygon fill="white" stroke="red" points="5682,-62 5682,-81 5829,-81 5829,-62 5682,-62"/>
<text text-anchor="middle" x="5755.5" y="-69" font-family="Helvetica,sans-Serif" font-size="10.00">sitkBinaryNotImageFilter.h</text>
</a>
</g>
</g>
<!-- Node2&#45;&gt;Node41 -->
<g id="edge43" class="edge">
<title>Node2&#45;&gt;Node41</title>
<path fill="none" stroke="midnightblue" d="M3156.04,-137.57C3492.73,-137.8 5161.02,-136.4 5672.5,-87 5686.04,-85.69 5700.7,-83.42 5713.87,-81.06"/>
<polygon fill="midnightblue" stroke="midnightblue" points="3155.55,-134.07 3145.55,-137.57 3155.55,-141.07 3155.55,-134.07"/>
</g>
<!-- Node42 -->
<g id="node39" class="node">
<title>Node42</title>
<g id="a_node39"><a xlink:href="sitkBinaryOpeningByReconstructionImageFilter_8h.html" target="_top" xlink:title=" ">
<polygon fill="white" stroke="red" points="5847.5,-56.5 5847.5,-86.5 6039.5,-86.5 6039.5,-56.5 5847.5,-56.5"/>
<text text-anchor="start" x="5855.5" y="-74.5" font-family="Helvetica,sans-Serif" font-size="10.00">sitkBinaryOpeningByReconstruction</text>
<text text-anchor="middle" x="5943.5" y="-63.5" font-family="Helvetica,sans-Serif" font-size="10.00">ImageFilter.h</text>
</a>
</g>
</g>
<!-- Node2&#45;&gt;Node42 -->
<g id="edge44" class="edge">
<title>Node2&#45;&gt;Node42</title>
<path fill="none" stroke="midnightblue" d="M3155.65,-137.37C3503.97,-136.45 5291.03,-129.69 5838.5,-87 5841.44,-86.77 5844.41,-86.51 5847.42,-86.23"/>
<polygon fill="midnightblue" stroke="midnightblue" points="3155.52,-133.87 3145.53,-137.39 3155.54,-140.87 3155.52,-133.87"/>
</g>
<!-- Node43 -->
<g id="node40" class="node">
<title>Node43</title>
<g id="a_node40"><a xlink:href="sitkBinaryProjectionImageFilter_8h.html" target="_top" xlink:title=" ">
<polygon fill="white" stroke="red" points="6057.5,-56.5 6057.5,-86.5 6203.5,-86.5 6203.5,-56.5 6057.5,-56.5"/>
<text text-anchor="start" x="6065.5" y="-74.5" font-family="Helvetica,sans-Serif" font-size="10.00">sitkBinaryProjectionImage</text>
<text text-anchor="middle" x="6130.5" y="-63.5" font-family="Helvetica,sans-Serif" font-size="10.00">Filter.h</text>
</a>
</g>
</g>
<!-- Node2&#45;&gt;Node43 -->
<g id="edge45" class="edge">
<title>Node2&#45;&gt;Node43</title>
<path fill="none" stroke="midnightblue" d="M3155.8,-137.76C3520.01,-139.19 5457.71,-143.93 6048.5,-87 6051.38,-86.72 6054.31,-86.4 6057.26,-86.04"/>
<polygon fill="midnightblue" stroke="midnightblue" points="3155.75,-134.26 3145.74,-137.72 3155.72,-141.26 3155.75,-134.26"/>
</g>
<!-- Node44 -->
<g id="node41" class="node">
<title>Node44</title>
<g id="a_node41"><a xlink:href="sitkBinaryPruningImageFilter_8h.html" target="_top" xlink:title=" ">
<polygon fill="white" stroke="red" points="6222,-62 6222,-81 6389,-81 6389,-62 6222,-62"/>
<text text-anchor="middle" x="6305.5" y="-69" font-family="Helvetica,sans-Serif" font-size="10.00">sitkBinaryPruningImageFilter.h</text>
</a>
</g>
</g>
<!-- Node2&#45;&gt;Node44 -->
<g id="edge46" class="edge">
<title>Node2&#45;&gt;Node44</title>
<path fill="none" stroke="midnightblue" d="M3155.76,-137.66C3531.47,-138.51 5586.47,-140.62 6212.5,-87 6227.64,-85.7 6244.06,-83.43 6258.82,-81.07"/>
<polygon fill="midnightblue" stroke="midnightblue" points="3155.65,-134.16 3145.65,-137.64 3155.64,-141.16 3155.65,-134.16"/>
</g>
<!-- Node45 -->
<g id="node42" class="node">
<title>Node45</title>
<g id="a_node42"><a xlink:href="sitkBinaryReconstructionByDilationImageFilter_8h.html" target="_top" xlink:title=" ">
<polygon fill="white" stroke="red" points="6407,-56.5 6407,-86.5 6546,-86.5 6546,-56.5 6407,-56.5"/>
<text text-anchor="start" x="6415" y="-74.5" font-family="Helvetica,sans-Serif" font-size="10.00">sitkBinaryReconstruction</text>
<text text-anchor="middle" x="6476.5" y="-63.5" font-family="Helvetica,sans-Serif" font-size="10.00">ByDilationImageFilter.h</text>
</a>
</g>
</g>
<!-- Node2&#45;&gt;Node45 -->
<g id="edge47" class="edge">
<title>Node2&#45;&gt;Node45</title>
<path fill="none" stroke="midnightblue" d="M3155.85,-137.2C3573.52,-134.97 6064.17,-120.39 6398.5,-87 6401.24,-86.73 6404.03,-86.41 6406.84,-86.05"/>
<polygon fill="midnightblue" stroke="midnightblue" points="3155.78,-133.7 3145.8,-137.25 3155.81,-140.7 3155.78,-133.7"/>
</g>
<!-- Node3&#45;&gt;Node4 -->
<g id="edge3" class="edge">
<title>Node3&#45;&gt;Node4</title>
<path fill="none" stroke="midnightblue" d="M318.11,-56.28C319.24,-56.18 320.38,-56.09 321.5,-56 980.71,-4.62 6048.31,-10.28 6536.7,-10.95"/>
<polygon fill="midnightblue" stroke="midnightblue" points="317.37,-52.83 307.75,-57.28 318.04,-59.8 317.37,-52.83"/>
</g>
<!-- Node5&#45;&gt;Node4 -->
<g id="edge5" class="edge">
<title>Node5&#45;&gt;Node4</title>
<path fill="none" stroke="midnightblue" d="M467.26,-59.93C475.59,-58.31 484.28,-56.89 492.5,-56 812.46,-21.55 6039.65,-11.9 6536.63,-11.06"/>
<polygon fill="midnightblue" stroke="midnightblue" points="466.41,-56.54 457.33,-61.99 467.83,-63.39 466.41,-56.54"/>
</g>
<!-- Node6&#45;&gt;Node4 -->
<g id="edge7" class="edge">
<title>Node6&#45;&gt;Node4</title>
<path fill="none" stroke="midnightblue" d="M615.84,-60.1C625.29,-58.41 635.17,-56.92 644.5,-56 956.6,-25.3 6047.82,-12.27 6536.83,-11.09"/>
<polygon fill="midnightblue" stroke="midnightblue" points="614.98,-56.7 605.8,-61.99 616.28,-63.58 614.98,-56.7"/>
</g>
<!-- Node7&#45;&gt;Node4 -->
<g id="edge9" class="edge">
<title>Node7&#45;&gt;Node4</title>
<path fill="none" stroke="midnightblue" d="M106.26,-59.99C114.92,-58.34 123.96,-56.89 132.5,-56 472.03,-20.49 6025.05,-11.78 6536.79,-11.05"/>
<polygon fill="midnightblue" stroke="midnightblue" points="105.43,-56.58 96.32,-61.98 106.81,-63.44 105.43,-56.58"/>
</g>
<!-- Node8&#45;&gt;Node4 -->
<g id="edge11" class="edge">
<title>Node8&#45;&gt;Node4</title>
<path fill="none" stroke="midnightblue" d="M826.1,-56C1478.9,-5.28 6073.99,-10.31 6536.92,-10.94"/>
<polygon fill="midnightblue" stroke="midnightblue" points="825.55,-52.53 815.87,-56.82 826.12,-59.51 825.55,-52.53"/>
</g>
<!-- Node9&#45;&gt;Node4 -->
<g id="edge13" class="edge">
<title>Node9&#45;&gt;Node4</title>
<path fill="none" stroke="midnightblue" d="M941.9,-59.99C950.68,-58.35 959.84,-56.9 968.5,-56 1262.94,-25.45 6061.78,-12.32 6536.73,-11.1"/>
<polygon fill="midnightblue" stroke="midnightblue" points="940.95,-56.61 931.82,-61.99 942.31,-63.48 940.95,-56.61"/>
</g>
<!-- Node304&#45;&gt;Node4 -->
<g id="edge49" class="edge">
<title>Node304&#45;&gt;Node4</title>
<path fill="none" stroke="midnightblue" d="M6162.17,-123.15C6264.53,-114.44 6490.95,-142.31 6555.5,-87 6575.33,-70.01 6576.1,-35.75 6575.25,-19.69"/>
<polygon fill="midnightblue" stroke="midnightblue" points="6161.67,-119.69 6152.08,-124.18 6162.38,-126.65 6161.67,-119.69"/>
</g>
<!-- Node305&#45;&gt;Node4 -->
<g id="edge51" class="edge">
<title>Node305&#45;&gt;Node4</title>
<path fill="none" stroke="midnightblue" d="M6338.74,-123.09C6408.37,-115.76 6553.39,-127.5 6588.5,-87 6605.2,-67.74 6589.4,-35.2 6580.14,-19.71"/>
<polygon fill="midnightblue" stroke="midnightblue" points="6338.12,-119.64 6328.64,-124.38 6339,-126.59 6338.12,-119.64"/>
</g>
<!-- Node306&#45;&gt;Node4 -->
<g id="edge54" class="edge">
<title>Node306&#45;&gt;Node4</title>
<path fill="none" stroke="midnightblue" d="M6457.94,-126.84C6521.43,-113.04 6623.84,-90.35 6626.5,-87 6635.07,-76.21 6632.23,-68.53 6626.5,-56 6619.11,-39.82 6602.7,-27.23 6590.28,-19.53"/>
<polygon fill="midnightblue" stroke="midnightblue" points="6457.13,-123.44 6448.1,-128.98 6458.62,-130.28 6457.13,-123.44"/>
</g>
<!-- Node307&#45;&gt;Node4 -->
<g id="edge56" class="edge">
<title>Node307&#45;&gt;Node4</title>
<path fill="none" stroke="midnightblue" d="M6608.26,-125.88C6629.7,-118.49 6651.78,-106.47 6664.5,-87 6672.03,-75.46 6671.74,-67.72 6664.5,-56 6652.93,-37.28 6630.94,-26.08 6611.6,-19.54"/>
<polygon fill="midnightblue" stroke="midnightblue" points="6606.98,-122.61 6598.49,-128.96 6609.08,-129.29 6606.98,-122.61"/>
</g>
<!-- Node308&#45;&gt;Node4 -->
<g id="edge58" class="edge">
<title>Node308&#45;&gt;Node4</title>
<path fill="none" stroke="midnightblue" d="M6698.31,-118.66C6698.08,-100.64 6695.02,-73.68 6680.5,-56 6663.5,-35.3 6635.25,-23.94 6612.19,-17.81"/>
<polygon fill="midnightblue" stroke="midnightblue" points="6694.8,-118.73 6698.15,-128.79 6701.8,-118.84 6694.8,-118.73"/>
</g>
<!-- Node309&#45;&gt;Node4 -->
<g id="edge60" class="edge">
<title>Node309&#45;&gt;Node4</title>
<path fill="none" stroke="midnightblue" d="M6828.49,-123.51C6799.53,-106.27 6747.96,-76.7 6701.5,-56 6668.27,-41.2 6628.55,-27.77 6602.49,-19.52"/>
<polygon fill="midnightblue" stroke="midnightblue" points="6827.02,-126.72 6837.4,-128.86 6830.63,-120.72 6827.02,-126.72"/>
</g>
<!-- Node310&#45;&gt;Node4 -->
<g id="edge62" class="edge">
<title>Node310&#45;&gt;Node4</title>
<path fill="none" stroke="midnightblue" d="M6967.01,-125.7C6917.42,-109.36 6824.48,-79.2 6744.5,-56 6697.73,-42.43 6643.25,-28.3 6608.82,-19.58"/>
<polygon fill="midnightblue" stroke="midnightblue" points="6966.03,-129.07 6976.62,-128.88 6968.22,-122.42 6966.03,-129.07"/>
</g>
<!-- Node311&#45;&gt;Node4 -->
<g id="edge64" class="edge">
<title>Node311&#45;&gt;Node4</title>
<path fill="none" stroke="midnightblue" d="M7125.04,-126.64C7055.93,-110.58 6921.92,-79.85 6807.5,-56 6738.73,-41.66 6658.21,-26.46 6612.1,-17.91"/>
<polygon fill="midnightblue" stroke="midnightblue" points="7124.62,-130.13 7135.15,-128.99 7126.21,-123.31 7124.62,-130.13"/>
</g>
</g>
</svg>
