<?xml version="1.0" encoding="UTF-8" standalone="no"?>
<!DOCTYPE svg PUBLIC "-//W3C//DTD SVG 1.1//EN"
 "http://www.w3.org/Graphics/SVG/1.1/DTD/svg11.dtd">
<!-- Generated by graphviz version 2.43.0 (0)
 -->
<!-- Title: sitkMemberFunctionFactoryBase.h Pages: 1 -->
<svg width="977pt" height="263pt"
 viewBox="0.00 0.00 977.32 263.00" xmlns="http://www.w3.org/2000/svg" xmlns:xlink="http://www.w3.org/1999/xlink">
<g id="graph0" class="graph" transform="scale(1 1) rotate(0) translate(4 259)">
<title>sitkMemberFunctionFactoryBase.h</title>
<polygon fill="white" stroke="transparent" points="-4,4 -4,-259 973.32,-259 973.32,4 -4,4"/>
<!-- Node1 -->
<g id="node1" class="node">
<title>Node1</title>
<g id="a_node1"><a xlink:title=" ">
<polygon fill="#bfbfbf" stroke="black" points="386.82,-224.5 386.82,-254.5 538.82,-254.5 538.82,-224.5 386.82,-224.5"/>
<text text-anchor="start" x="394.82" y="-242.5" font-family="Helvetica,sans-Serif" font-size="10.00">sitkMemberFunctionFactory</text>
<text text-anchor="middle" x="462.82" y="-231.5" font-family="Helvetica,sans-Serif" font-size="10.00">Base.h</text>
</a>
</g>
</g>
<!-- Node2 -->
<g id="node2" class="node">
<title>Node2</title>
<g id="a_node2"><a xlink:href="sitkConfigure_8h.html" target="_top" xlink:title=" ">
<polygon fill="white" stroke="black" points="104.82,-0.5 104.82,-19.5 194.82,-19.5 194.82,-0.5 104.82,-0.5"/>
<text text-anchor="middle" x="149.82" y="-7.5" font-family="Helvetica,sans-Serif" font-size="10.00">sitkConfigure.h</text>
</a>
</g>
</g>
<!-- Node1&#45;&gt;Node2 -->
<g id="edge1" class="edge">
<title>Node1&#45;&gt;Node2</title>
<path fill="none" stroke="midnightblue" d="M386.49,-233.37C267.09,-223.42 45.69,-196.49 6.82,-132 -23.62,-81.5 60.8,-41.83 112.64,-22.99"/>
<polygon fill="midnightblue" stroke="midnightblue" points="113.95,-26.24 122.22,-19.61 111.62,-19.64 113.95,-26.24"/>
</g>
<!-- Node3 -->
<g id="node3" class="node">
<title>Node3</title>
<g id="a_node3"><a xlink:href="sitkPixelIDTypes_8h.html" target="_top" xlink:title=" ">
<polygon fill="white" stroke="black" points="16.32,-112.5 16.32,-131.5 121.32,-131.5 121.32,-112.5 16.32,-112.5"/>
<text text-anchor="middle" x="68.82" y="-119.5" font-family="Helvetica,sans-Serif" font-size="10.00">sitkPixelIDTypes.h</text>
</a>
</g>
</g>
<!-- Node1&#45;&gt;Node3 -->
<g id="edge2" class="edge">
<title>Node1&#45;&gt;Node3</title>
<path fill="none" stroke="midnightblue" d="M386.8,-237.57C320.69,-234.19 223.7,-222.94 146.82,-188 121.64,-176.55 98.02,-154.71 83.51,-139.52"/>
<polygon fill="midnightblue" stroke="midnightblue" points="85.79,-136.84 76.43,-131.88 80.66,-141.6 85.79,-136.84"/>
</g>
<!-- Node4 -->
<g id="node4" class="node">
<title>Node4</title>
<g id="a_node4"><a xlink:href="sitkPixelIDTypeLists_8h.html" target="_top" xlink:title=" ">
<polygon fill="white" stroke="black" points="155.82,-168.5 155.82,-187.5 277.82,-187.5 277.82,-168.5 155.82,-168.5"/>
<text text-anchor="middle" x="216.82" y="-175.5" font-family="Helvetica,sans-Serif" font-size="10.00">sitkPixelIDTypeLists.h</text>
</a>
</g>
</g>
<!-- Node1&#45;&gt;Node4 -->
<g id="edge3" class="edge">
<title>Node1&#45;&gt;Node4</title>
<path fill="none" stroke="midnightblue" d="M404.83,-224.47C361.1,-213.9 301.97,-199.59 261.78,-189.87"/>
<polygon fill="midnightblue" stroke="midnightblue" points="262.53,-186.46 251.99,-187.51 260.89,-193.26 262.53,-186.46"/>
</g>
<!-- Node6 -->
<g id="node6" class="node">
<title>Node6</title>
<g id="a_node6"><a xlink:title=" ">
<polygon fill="white" stroke="#bfbfbf" points="293.32,-112.5 293.32,-131.5 404.32,-131.5 404.32,-112.5 293.32,-112.5"/>
<text text-anchor="middle" x="348.82" y="-119.5" font-family="Helvetica,sans-Serif" font-size="10.00">Ancillary/TypeList.h</text>
</a>
</g>
</g>
<!-- Node1&#45;&gt;Node6 -->
<g id="edge19" class="edge">
<title>Node1&#45;&gt;Node6</title>
<path fill="none" stroke="midnightblue" d="M446.58,-224.29C435.43,-214.37 420.44,-200.69 407.82,-188 391.96,-172.04 374.76,-152.87 363.05,-139.5"/>
<polygon fill="midnightblue" stroke="midnightblue" points="365.42,-136.89 356.22,-131.64 360.14,-141.48 365.42,-136.89"/>
</g>
<!-- Node8 -->
<g id="node8" class="node">
<title>Node8</title>
<g id="a_node8"><a xlink:href="sitkMacro_8h.html" target="_top" xlink:title=" ">
<polygon fill="white" stroke="black" points="388.82,-56.5 388.82,-75.5 462.82,-75.5 462.82,-56.5 388.82,-56.5"/>
<text text-anchor="middle" x="425.82" y="-63.5" font-family="Helvetica,sans-Serif" font-size="10.00">sitkMacro.h</text>
</a>
</g>
</g>
<!-- Node1&#45;&gt;Node8 -->
<g id="edge9" class="edge">
<title>Node1&#45;&gt;Node8</title>
<path fill="none" stroke="midnightblue" d="M455.33,-224.32C450.43,-214.41 444.3,-200.73 440.82,-188 431.17,-152.73 427.71,-109.97 426.49,-85.88"/>
<polygon fill="midnightblue" stroke="midnightblue" points="429.97,-85.51 426.05,-75.67 422.98,-85.81 429.97,-85.51"/>
</g>
<!-- Node13 -->
<g id="node13" class="node">
<title>Node13</title>
<g id="a_node13"><a xlink:href="sitkNonCopyable_8h.html" target="_top" xlink:title=" ">
<polygon fill="white" stroke="black" points="450.32,-168.5 450.32,-187.5 559.32,-187.5 559.32,-168.5 450.32,-168.5"/>
<text text-anchor="middle" x="504.82" y="-175.5" font-family="Helvetica,sans-Serif" font-size="10.00">sitkNonCopyable.h</text>
</a>
</g>
</g>
<!-- Node1&#45;&gt;Node13 -->
<g id="edge16" class="edge">
<title>Node1&#45;&gt;Node13</title>
<path fill="none" stroke="midnightblue" d="M472.78,-224.4C478.82,-215.84 486.56,-204.87 492.92,-195.86"/>
<polygon fill="midnightblue" stroke="midnightblue" points="495.8,-197.85 498.71,-187.66 490.08,-193.81 495.8,-197.85"/>
</g>
<!-- Node15 -->
<g id="node15" class="node">
<title>Node15</title>
<g id="a_node15"><a xlink:title=" ">
<polygon fill="white" stroke="#bfbfbf" points="577.32,-168.5 577.32,-187.5 716.32,-187.5 716.32,-168.5 577.32,-168.5"/>
<text text-anchor="middle" x="646.82" y="-175.5" font-family="Helvetica,sans-Serif" font-size="10.00">Ancillary/FunctionTraits.h</text>
</a>
</g>
</g>
<!-- Node1&#45;&gt;Node15 -->
<g id="edge20" class="edge">
<title>Node1&#45;&gt;Node15</title>
<path fill="none" stroke="midnightblue" d="M506.43,-224.4C538.22,-214.12 580.8,-200.35 610.7,-190.68"/>
<polygon fill="midnightblue" stroke="midnightblue" points="611.88,-193.98 620.32,-187.57 609.72,-187.32 611.88,-193.98"/>
</g>
<!-- Node16 -->
<g id="node16" class="node">
<title>Node16</title>
<g id="a_node16"><a xlink:title=" ">
<polygon fill="white" stroke="#bfbfbf" points="734.32,-168.5 734.32,-187.5 827.32,-187.5 827.32,-168.5 734.32,-168.5"/>
<text text-anchor="middle" x="780.82" y="-175.5" font-family="Helvetica,sans-Serif" font-size="10.00">unordered_map</text>
</a>
</g>
</g>
<!-- Node1&#45;&gt;Node16 -->
<g id="edge21" class="edge">
<title>Node1&#45;&gt;Node16</title>
<path fill="none" stroke="midnightblue" d="M537.78,-224.47C595.28,-213.72 673.35,-199.11 725.33,-189.38"/>
<polygon fill="midnightblue" stroke="midnightblue" points="726.17,-192.79 735.36,-187.51 724.89,-185.91 726.17,-192.79"/>
</g>
<!-- Node17 -->
<g id="node17" class="node">
<title>Node17</title>
<g id="a_node17"><a xlink:title=" ">
<polygon fill="white" stroke="#bfbfbf" points="845.32,-168.5 845.32,-187.5 910.32,-187.5 910.32,-168.5 845.32,-168.5"/>
<text text-anchor="middle" x="877.82" y="-175.5" font-family="Helvetica,sans-Serif" font-size="10.00">functional</text>
</a>
</g>
</g>
<!-- Node1&#45;&gt;Node17 -->
<g id="edge22" class="edge">
<title>Node1&#45;&gt;Node17</title>
<path fill="none" stroke="midnightblue" d="M539.03,-230.06C612.52,-221.5 727.05,-207.06 835.1,-188.19"/>
<polygon fill="midnightblue" stroke="midnightblue" points="835.96,-191.6 845.2,-186.41 834.74,-184.7 835.96,-191.6"/>
</g>
<!-- Node18 -->
<g id="node18" class="node">
<title>Node18</title>
<g id="a_node18"><a xlink:title=" ">
<polygon fill="white" stroke="#bfbfbf" points="928.32,-168.5 928.32,-187.5 969.32,-187.5 969.32,-168.5 928.32,-168.5"/>
<text text-anchor="middle" x="948.82" y="-175.5" font-family="Helvetica,sans-Serif" font-size="10.00">tuple</text>
</a>
</g>
</g>
<!-- Node1&#45;&gt;Node18 -->
<g id="edge23" class="edge">
<title>Node1&#45;&gt;Node18</title>
<path fill="none" stroke="midnightblue" d="M539.13,-234.53C628.29,-228.89 780.23,-216.18 918.13,-188.03"/>
<polygon fill="midnightblue" stroke="midnightblue" points="918.96,-191.43 928.04,-185.97 917.54,-184.58 918.96,-191.43"/>
</g>
<!-- Node4&#45;&gt;Node2 -->
<g id="edge5" class="edge">
<title>Node4&#45;&gt;Node2</title>
<path fill="none" stroke="midnightblue" d="M213.22,-168.08C202.63,-141.83 171.43,-64.55 157.13,-29.12"/>
<polygon fill="midnightblue" stroke="midnightblue" points="160.27,-27.53 153.28,-19.57 153.78,-30.15 160.27,-27.53"/>
</g>
<!-- Node4&#45;&gt;Node3 -->
<g id="edge6" class="edge">
<title>Node4&#45;&gt;Node3</title>
<path fill="none" stroke="midnightblue" d="M193.37,-168.44C168.69,-159.44 129.64,-145.19 101.85,-135.05"/>
<polygon fill="midnightblue" stroke="midnightblue" points="102.76,-131.66 92.16,-131.52 100.36,-138.23 102.76,-131.66"/>
</g>
<!-- Node5 -->
<g id="node5" class="node">
<title>Node5</title>
<g id="a_node5"><a xlink:title=" ">
<polygon fill="white" stroke="#bfbfbf" points="239.32,-0.5 239.32,-19.5 292.32,-19.5 292.32,-0.5 239.32,-0.5"/>
<text text-anchor="middle" x="265.82" y="-7.5" font-family="Helvetica,sans-Serif" font-size="10.00">stdint.h</text>
</a>
</g>
</g>
<!-- Node4&#45;&gt;Node5 -->
<g id="edge4" class="edge">
<title>Node4&#45;&gt;Node5</title>
<path fill="none" stroke="midnightblue" d="M213.28,-168.46C208.58,-155.91 201.45,-131.84 206.82,-112 215.62,-79.51 237.76,-46.75 252.27,-27.69"/>
<polygon fill="midnightblue" stroke="midnightblue" points="255.1,-29.76 258.51,-19.72 249.59,-25.44 255.1,-29.76"/>
</g>
<!-- Node4&#45;&gt;Node6 -->
<g id="edge7" class="edge">
<title>Node4&#45;&gt;Node6</title>
<path fill="none" stroke="midnightblue" d="M237.74,-168.44C259.56,-159.52 293.97,-145.44 318.71,-135.32"/>
<polygon fill="midnightblue" stroke="midnightblue" points="320.07,-138.54 328,-131.52 317.42,-132.06 320.07,-138.54"/>
</g>
<!-- Node7 -->
<g id="node7" class="node">
<title>Node7</title>
<g id="a_node7"><a xlink:title=" ">
<polygon fill="white" stroke="#bfbfbf" points="216.32,-112.5 216.32,-131.5 275.32,-131.5 275.32,-112.5 216.32,-112.5"/>
<text text-anchor="middle" x="245.82" y="-119.5" font-family="Helvetica,sans-Serif" font-size="10.00">complex</text>
</a>
</g>
</g>
<!-- Node4&#45;&gt;Node7 -->
<g id="edge8" class="edge">
<title>Node4&#45;&gt;Node7</title>
<path fill="none" stroke="midnightblue" d="M221.61,-168.08C225.58,-160.69 231.35,-149.95 236.26,-140.81"/>
<polygon fill="midnightblue" stroke="midnightblue" points="239.47,-142.22 241.12,-131.75 233.31,-138.91 239.47,-142.22"/>
</g>
<!-- Node8&#45;&gt;Node2 -->
<g id="edge15" class="edge">
<title>Node8&#45;&gt;Node2</title>
<path fill="none" stroke="midnightblue" d="M388.6,-57.72C340.95,-48.39 258.05,-32.18 203.56,-21.51"/>
<polygon fill="midnightblue" stroke="midnightblue" points="204.21,-18.08 193.73,-19.59 202.87,-24.95 204.21,-18.08"/>
</g>
<!-- Node8&#45;&gt;Node5 -->
<g id="edge10" class="edge">
<title>Node8&#45;&gt;Node5</title>
<path fill="none" stroke="midnightblue" d="M400.47,-56.44C373.55,-47.36 330.83,-32.94 300.73,-22.78"/>
<polygon fill="midnightblue" stroke="midnightblue" points="301.65,-19.4 291.06,-19.52 299.41,-26.03 301.65,-19.4"/>
</g>
<!-- Node9 -->
<g id="node9" class="node">
<title>Node9</title>
<g id="a_node9"><a xlink:title=" ">
<polygon fill="white" stroke="#bfbfbf" points="459.82,-0.5 459.82,-19.5 515.82,-19.5 515.82,-0.5 459.82,-0.5"/>
<text text-anchor="middle" x="487.82" y="-7.5" font-family="Helvetica,sans-Serif" font-size="10.00">stddef.h</text>
</a>
</g>
</g>
<!-- Node8&#45;&gt;Node9 -->
<g id="edge11" class="edge">
<title>Node8&#45;&gt;Node9</title>
<path fill="none" stroke="midnightblue" d="M435.78,-56.32C444.95,-48.34 458.76,-36.31 469.85,-26.65"/>
<polygon fill="midnightblue" stroke="midnightblue" points="472.44,-29.04 477.68,-19.83 467.84,-23.76 472.44,-29.04"/>
</g>
<!-- Node10 -->
<g id="node10" class="node">
<title>Node10</title>
<g id="a_node10"><a xlink:title=" ">
<polygon fill="white" stroke="#bfbfbf" points="533.82,-0.5 533.82,-19.5 585.82,-19.5 585.82,-0.5 533.82,-0.5"/>
<text text-anchor="middle" x="559.82" y="-7.5" font-family="Helvetica,sans-Serif" font-size="10.00">cassert</text>
</a>
</g>
</g>
<!-- Node8&#45;&gt;Node10 -->
<g id="edge12" class="edge">
<title>Node8&#45;&gt;Node10</title>
<path fill="none" stroke="midnightblue" d="M447.05,-56.44C469.21,-47.52 504.14,-33.44 529.26,-23.32"/>
<polygon fill="midnightblue" stroke="midnightblue" points="530.72,-26.5 538.69,-19.52 528.11,-20.01 530.72,-26.5"/>
</g>
<!-- Node11 -->
<g id="node11" class="node">
<title>Node11</title>
<g id="a_node11"><a xlink:title=" ">
<polygon fill="white" stroke="#bfbfbf" points="323.82,-0.5 323.82,-19.5 379.82,-19.5 379.82,-0.5 323.82,-0.5"/>
<text text-anchor="middle" x="351.82" y="-7.5" font-family="Helvetica,sans-Serif" font-size="10.00">sstream</text>
</a>
</g>
</g>
<!-- Node8&#45;&gt;Node11 -->
<g id="edge13" class="edge">
<title>Node8&#45;&gt;Node11</title>
<path fill="none" stroke="midnightblue" d="M413.93,-56.32C402.67,-48.11 385.54,-35.6 372.11,-25.81"/>
<polygon fill="midnightblue" stroke="midnightblue" points="374.07,-22.9 363.93,-19.83 369.94,-28.56 374.07,-22.9"/>
</g>
<!-- Node12 -->
<g id="node12" class="node">
<title>Node12</title>
<g id="a_node12"><a xlink:title=" ">
<polygon fill="white" stroke="#bfbfbf" points="397.82,-0.5 397.82,-19.5 441.82,-19.5 441.82,-0.5 397.82,-0.5"/>
<text text-anchor="middle" x="419.82" y="-7.5" font-family="Helvetica,sans-Serif" font-size="10.00">limits</text>
</a>
</g>
</g>
<!-- Node8&#45;&gt;Node12 -->
<g id="edge14" class="edge">
<title>Node8&#45;&gt;Node12</title>
<path fill="none" stroke="midnightblue" d="M424.83,-56.08C424.04,-48.93 422.89,-38.64 421.9,-29.69"/>
<polygon fill="midnightblue" stroke="midnightblue" points="425.38,-29.3 420.79,-19.75 418.42,-30.08 425.38,-29.3"/>
</g>
<!-- Node14 -->
<g id="node14" class="node">
<title>Node14</title>
<g id="a_node14"><a xlink:href="sitkCommon_8h.html" target="_top" xlink:title=" ">
<polygon fill="white" stroke="black" points="460.82,-112.5 460.82,-131.5 548.82,-131.5 548.82,-112.5 460.82,-112.5"/>
<text text-anchor="middle" x="504.82" y="-119.5" font-family="Helvetica,sans-Serif" font-size="10.00">sitkCommon.h</text>
</a>
</g>
</g>
<!-- Node13&#45;&gt;Node14 -->
<g id="edge17" class="edge">
<title>Node13&#45;&gt;Node14</title>
<path fill="none" stroke="midnightblue" d="M504.82,-168.08C504.82,-161.01 504.82,-150.86 504.82,-141.99"/>
<polygon fill="midnightblue" stroke="midnightblue" points="508.32,-141.75 504.82,-131.75 501.32,-141.75 508.32,-141.75"/>
</g>
<!-- Node14&#45;&gt;Node8 -->
<g id="edge18" class="edge">
<title>Node14&#45;&gt;Node8</title>
<path fill="none" stroke="midnightblue" d="M492.13,-112.32C479.92,-103.98 461.24,-91.21 446.82,-81.35"/>
<polygon fill="midnightblue" stroke="midnightblue" points="448.71,-78.41 438.48,-75.65 444.76,-84.19 448.71,-78.41"/>
</g>
</g>
</svg>
