<?xml version="1.0" encoding="UTF-8" standalone="no"?>
<!DOCTYPE svg PUBLIC "-//W3C//DTD SVG 1.1//EN"
 "http://www.w3.org/Graphics/SVG/1.1/DTD/svg11.dtd">
<!-- Generated by graphviz version 2.43.0 (0)
 -->
<!-- Title: sitkPimpleImageBase.h Pages: 1 -->
<svg width="928pt" height="308pt"
 viewBox="0.00 0.00 928.24 308.00" xmlns="http://www.w3.org/2000/svg" xmlns:xlink="http://www.w3.org/1999/xlink">
<g id="graph0" class="graph" transform="scale(1 1) rotate(0) translate(4 304)">
<title>sitkPimpleImageBase.h</title>
<polygon fill="white" stroke="transparent" points="-4,4 -4,-304 924.24,-304 924.24,4 -4,4"/>
<!-- Node1 -->
<g id="node1" class="node">
<title>Node1</title>
<g id="a_node1"><a xlink:title=" ">
<polygon fill="#bfbfbf" stroke="black" points="517.5,-280.5 517.5,-299.5 649.5,-299.5 649.5,-280.5 517.5,-280.5"/>
<text text-anchor="middle" x="583.5" y="-287.5" font-family="Helvetica,sans-Serif" font-size="10.00">sitkPimpleImageBase.h</text>
</a>
</g>
</g>
<!-- Node2 -->
<g id="node2" class="node">
<title>Node2</title>
<g id="a_node2"><a xlink:title=" ">
<polygon fill="white" stroke="#bfbfbf" points="563,-168.5 563,-187.5 610,-187.5 610,-168.5 563,-168.5"/>
<text text-anchor="middle" x="586.5" y="-175.5" font-family="Helvetica,sans-Serif" font-size="10.00">vector</text>
</a>
</g>
</g>
<!-- Node1&#45;&gt;Node2 -->
<g id="edge1" class="edge">
<title>Node1&#45;&gt;Node2</title>
<path fill="none" stroke="midnightblue" d="M583.74,-280.37C584.22,-262.62 585.34,-221.67 585.99,-197.6"/>
<polygon fill="midnightblue" stroke="midnightblue" points="589.49,-197.68 586.27,-187.59 582.49,-197.49 589.49,-197.68"/>
</g>
<!-- Node3 -->
<g id="node3" class="node">
<title>Node3</title>
<g id="a_node3"><a xlink:href="sitkPixelIDTokens_8h.html" target="_top" xlink:title=" ">
<polygon fill="white" stroke="black" points="380.5,-224.5 380.5,-243.5 490.5,-243.5 490.5,-224.5 380.5,-224.5"/>
<text text-anchor="middle" x="435.5" y="-231.5" font-family="Helvetica,sans-Serif" font-size="10.00">sitkPixelIDTokens.h</text>
</a>
</g>
</g>
<!-- Node1&#45;&gt;Node3 -->
<g id="edge2" class="edge">
<title>Node1&#45;&gt;Node3</title>
<path fill="none" stroke="midnightblue" d="M560.05,-280.44C535.37,-271.44 496.31,-257.19 468.52,-247.05"/>
<polygon fill="midnightblue" stroke="midnightblue" points="469.44,-243.66 458.84,-243.52 467.04,-250.23 469.44,-243.66"/>
</g>
<!-- Node20 -->
<g id="node20" class="node">
<title>Node20</title>
<g id="a_node20"><a xlink:href="sitkTemplateFunctions_8h.html" target="_top" xlink:title=" ">
<polygon fill="white" stroke="black" points="612,-224.5 612,-243.5 747,-243.5 747,-224.5 612,-224.5"/>
<text text-anchor="middle" x="679.5" y="-231.5" font-family="Helvetica,sans-Serif" font-size="10.00">sitkTemplateFunctions.h</text>
</a>
</g>
</g>
<!-- Node1&#45;&gt;Node20 -->
<g id="edge22" class="edge">
<title>Node1&#45;&gt;Node20</title>
<path fill="none" stroke="midnightblue" d="M598.92,-280.32C614.04,-271.82 637.32,-258.73 654.97,-248.8"/>
<polygon fill="midnightblue" stroke="midnightblue" points="657.11,-251.61 664.11,-243.65 653.68,-245.51 657.11,-251.61"/>
</g>
<!-- Node4 -->
<g id="node4" class="node">
<title>Node4</title>
<g id="a_node4"><a xlink:href="sitkConfigure_8h.html" target="_top" xlink:title=" ">
<polygon fill="white" stroke="black" points="329.5,-0.5 329.5,-19.5 419.5,-19.5 419.5,-0.5 329.5,-0.5"/>
<text text-anchor="middle" x="374.5" y="-7.5" font-family="Helvetica,sans-Serif" font-size="10.00">sitkConfigure.h</text>
</a>
</g>
</g>
<!-- Node3&#45;&gt;Node4 -->
<g id="edge3" class="edge">
<title>Node3&#45;&gt;Node4</title>
<path fill="none" stroke="midnightblue" d="M392.43,-224.49C372.1,-218.07 349.68,-206.99 337.5,-188 304.65,-136.77 342.77,-61.63 363.21,-28.17"/>
<polygon fill="midnightblue" stroke="midnightblue" points="366.28,-29.86 368.66,-19.54 360.36,-26.12 366.28,-29.86"/>
</g>
<!-- Node5 -->
<g id="node5" class="node">
<title>Node5</title>
<g id="a_node5"><a xlink:href="sitkPixelIDValues_8h.html" target="_top" xlink:title=" ">
<polygon fill="white" stroke="black" points="434.5,-168.5 434.5,-187.5 544.5,-187.5 544.5,-168.5 434.5,-168.5"/>
<text text-anchor="middle" x="489.5" y="-175.5" font-family="Helvetica,sans-Serif" font-size="10.00">sitkPixelIDValues.h</text>
</a>
</g>
</g>
<!-- Node3&#45;&gt;Node5 -->
<g id="edge4" class="edge">
<title>Node3&#45;&gt;Node5</title>
<path fill="none" stroke="midnightblue" d="M444.42,-224.08C452.28,-216.22 463.93,-204.57 473.42,-195.08"/>
<polygon fill="midnightblue" stroke="midnightblue" points="476.15,-197.3 480.75,-187.75 471.2,-192.35 476.15,-197.3"/>
</g>
<!-- Node19 -->
<g id="node19" class="node">
<title>Node19</title>
<g id="a_node19"><a xlink:title=" ">
<polygon fill="white" stroke="#bfbfbf" points="347,-168.5 347,-187.5 416,-187.5 416,-168.5 347,-168.5"/>
<text text-anchor="middle" x="381.5" y="-175.5" font-family="Helvetica,sans-Serif" font-size="10.00">type_traits</text>
</a>
</g>
</g>
<!-- Node3&#45;&gt;Node19 -->
<g id="edge21" class="edge">
<title>Node3&#45;&gt;Node19</title>
<path fill="none" stroke="midnightblue" d="M426.58,-224.08C418.72,-216.22 407.07,-204.57 397.58,-195.08"/>
<polygon fill="midnightblue" stroke="midnightblue" points="399.8,-192.35 390.25,-187.75 394.85,-197.3 399.8,-192.35"/>
</g>
<!-- Node6 -->
<g id="node6" class="node">
<title>Node6</title>
<g id="a_node6"><a xlink:href="sitkCommon_8h.html" target="_top" xlink:title=" ">
<polygon fill="white" stroke="black" points="632.5,-112.5 632.5,-131.5 720.5,-131.5 720.5,-112.5 632.5,-112.5"/>
<text text-anchor="middle" x="676.5" y="-119.5" font-family="Helvetica,sans-Serif" font-size="10.00">sitkCommon.h</text>
</a>
</g>
</g>
<!-- Node5&#45;&gt;Node6 -->
<g id="edge5" class="edge">
<title>Node5&#45;&gt;Node6</title>
<path fill="none" stroke="midnightblue" d="M519.13,-168.44C551,-159.24 601.83,-144.56 637.06,-134.39"/>
<polygon fill="midnightblue" stroke="midnightblue" points="638.37,-137.65 647.01,-131.52 636.43,-130.93 638.37,-137.65"/>
</g>
<!-- Node13 -->
<g id="node13" class="node">
<title>Node13</title>
<g id="a_node13"><a xlink:href="sitkPixelIDTypeLists_8h.html" target="_top" xlink:title=" ">
<polygon fill="white" stroke="black" points="168.5,-56.5 168.5,-75.5 290.5,-75.5 290.5,-56.5 168.5,-56.5"/>
<text text-anchor="middle" x="229.5" y="-63.5" font-family="Helvetica,sans-Serif" font-size="10.00">sitkPixelIDTypeLists.h</text>
</a>
</g>
</g>
<!-- Node5&#45;&gt;Node13 -->
<g id="edge13" class="edge">
<title>Node5&#45;&gt;Node13</title>
<path fill="none" stroke="midnightblue" d="M469.1,-168.37C423.34,-149.01 312.38,-102.06 259.06,-79.51"/>
<polygon fill="midnightblue" stroke="midnightblue" points="260.38,-76.26 249.81,-75.59 257.65,-82.71 260.38,-76.26"/>
</g>
<!-- Node17 -->
<g id="node17" class="node">
<title>Node17</title>
<g id="a_node17"><a xlink:title=" ">
<polygon fill="white" stroke="#bfbfbf" points="467.5,-112.5 467.5,-131.5 511.5,-131.5 511.5,-112.5 467.5,-112.5"/>
<text text-anchor="middle" x="489.5" y="-119.5" font-family="Helvetica,sans-Serif" font-size="10.00">string</text>
</a>
</g>
</g>
<!-- Node5&#45;&gt;Node17 -->
<g id="edge19" class="edge">
<title>Node5&#45;&gt;Node17</title>
<path fill="none" stroke="midnightblue" d="M489.5,-168.08C489.5,-161.01 489.5,-150.86 489.5,-141.99"/>
<polygon fill="midnightblue" stroke="midnightblue" points="493,-141.75 489.5,-131.75 486,-141.75 493,-141.75"/>
</g>
<!-- Node18 -->
<g id="node18" class="node">
<title>Node18</title>
<g id="a_node18"><a xlink:title=" ">
<polygon fill="white" stroke="#bfbfbf" points="544,-112.5 544,-131.5 601,-131.5 601,-112.5 544,-112.5"/>
<text text-anchor="middle" x="572.5" y="-119.5" font-family="Helvetica,sans-Serif" font-size="10.00">ostream</text>
</a>
</g>
</g>
<!-- Node5&#45;&gt;Node18 -->
<g id="edge20" class="edge">
<title>Node5&#45;&gt;Node18</title>
<path fill="none" stroke="midnightblue" d="M502.84,-168.32C515.66,-159.98 535.28,-147.21 550.44,-137.35"/>
<polygon fill="midnightblue" stroke="midnightblue" points="552.72,-140.04 559.2,-131.65 548.91,-134.17 552.72,-140.04"/>
</g>
<!-- Node7 -->
<g id="node7" class="node">
<title>Node7</title>
<g id="a_node7"><a xlink:href="sitkMacro_8h.html" target="_top" xlink:title=" ">
<polygon fill="white" stroke="black" points="639.5,-56.5 639.5,-75.5 713.5,-75.5 713.5,-56.5 639.5,-56.5"/>
<text text-anchor="middle" x="676.5" y="-63.5" font-family="Helvetica,sans-Serif" font-size="10.00">sitkMacro.h</text>
</a>
</g>
</g>
<!-- Node6&#45;&gt;Node7 -->
<g id="edge6" class="edge">
<title>Node6&#45;&gt;Node7</title>
<path fill="none" stroke="midnightblue" d="M676.5,-112.08C676.5,-105.01 676.5,-94.86 676.5,-85.99"/>
<polygon fill="midnightblue" stroke="midnightblue" points="680,-85.75 676.5,-75.75 673,-85.75 680,-85.75"/>
</g>
<!-- Node7&#45;&gt;Node4 -->
<g id="edge12" class="edge">
<title>Node7&#45;&gt;Node4</title>
<path fill="none" stroke="midnightblue" d="M639.47,-58.38C587.06,-49.01 490.86,-31.81 429.92,-20.91"/>
<polygon fill="midnightblue" stroke="midnightblue" points="430.17,-17.4 419.71,-19.08 428.94,-24.29 430.17,-17.4"/>
</g>
<!-- Node8 -->
<g id="node8" class="node">
<title>Node8</title>
<g id="a_node8"><a xlink:title=" ">
<polygon fill="white" stroke="#bfbfbf" points="470,-0.5 470,-19.5 523,-19.5 523,-0.5 470,-0.5"/>
<text text-anchor="middle" x="496.5" y="-7.5" font-family="Helvetica,sans-Serif" font-size="10.00">stdint.h</text>
</a>
</g>
</g>
<!-- Node7&#45;&gt;Node8 -->
<g id="edge7" class="edge">
<title>Node7&#45;&gt;Node8</title>
<path fill="none" stroke="midnightblue" d="M647.98,-56.44C616.89,-47.12 567.07,-32.17 533.12,-21.99"/>
<polygon fill="midnightblue" stroke="midnightblue" points="533.71,-18.51 523.13,-18.99 531.7,-25.21 533.71,-18.51"/>
</g>
<!-- Node9 -->
<g id="node9" class="node">
<title>Node9</title>
<g id="a_node9"><a xlink:title=" ">
<polygon fill="white" stroke="#bfbfbf" points="616.5,-0.5 616.5,-19.5 672.5,-19.5 672.5,-0.5 616.5,-0.5"/>
<text text-anchor="middle" x="644.5" y="-7.5" font-family="Helvetica,sans-Serif" font-size="10.00">stddef.h</text>
</a>
</g>
</g>
<!-- Node7&#45;&gt;Node9 -->
<g id="edge8" class="edge">
<title>Node7&#45;&gt;Node9</title>
<path fill="none" stroke="midnightblue" d="M671.22,-56.08C666.79,-48.61 660.34,-37.72 654.88,-28.52"/>
<polygon fill="midnightblue" stroke="midnightblue" points="657.79,-26.57 649.69,-19.75 651.77,-30.14 657.79,-26.57"/>
</g>
<!-- Node10 -->
<g id="node10" class="node">
<title>Node10</title>
<g id="a_node10"><a xlink:title=" ">
<polygon fill="white" stroke="#bfbfbf" points="690.5,-0.5 690.5,-19.5 742.5,-19.5 742.5,-0.5 690.5,-0.5"/>
<text text-anchor="middle" x="716.5" y="-7.5" font-family="Helvetica,sans-Serif" font-size="10.00">cassert</text>
</a>
</g>
</g>
<!-- Node7&#45;&gt;Node10 -->
<g id="edge9" class="edge">
<title>Node7&#45;&gt;Node10</title>
<path fill="none" stroke="midnightblue" d="M683.11,-56.08C688.76,-48.46 697.04,-37.26 703.95,-27.94"/>
<polygon fill="midnightblue" stroke="midnightblue" points="706.88,-29.87 710.02,-19.75 701.25,-25.7 706.88,-29.87"/>
</g>
<!-- Node11 -->
<g id="node11" class="node">
<title>Node11</title>
<g id="a_node11"><a xlink:title=" ">
<polygon fill="white" stroke="#bfbfbf" points="760.5,-0.5 760.5,-19.5 816.5,-19.5 816.5,-0.5 760.5,-0.5"/>
<text text-anchor="middle" x="788.5" y="-7.5" font-family="Helvetica,sans-Serif" font-size="10.00">sstream</text>
</a>
</g>
</g>
<!-- Node7&#45;&gt;Node11 -->
<g id="edge10" class="edge">
<title>Node7&#45;&gt;Node11</title>
<path fill="none" stroke="midnightblue" d="M694.49,-56.32C712.54,-47.62 740.55,-34.12 761.3,-24.11"/>
<polygon fill="midnightblue" stroke="midnightblue" points="763.06,-27.15 770.55,-19.65 760.02,-20.84 763.06,-27.15"/>
</g>
<!-- Node12 -->
<g id="node12" class="node">
<title>Node12</title>
<g id="a_node12"><a xlink:title=" ">
<polygon fill="white" stroke="#bfbfbf" points="554.5,-0.5 554.5,-19.5 598.5,-19.5 598.5,-0.5 554.5,-0.5"/>
<text text-anchor="middle" x="576.5" y="-7.5" font-family="Helvetica,sans-Serif" font-size="10.00">limits</text>
</a>
</g>
</g>
<!-- Node7&#45;&gt;Node12 -->
<g id="edge11" class="edge">
<title>Node7&#45;&gt;Node12</title>
<path fill="none" stroke="midnightblue" d="M660.43,-56.32C644.54,-47.74 619.99,-34.49 601.54,-24.52"/>
<polygon fill="midnightblue" stroke="midnightblue" points="602.99,-21.33 592.53,-19.65 599.66,-27.49 602.99,-21.33"/>
</g>
<!-- Node13&#45;&gt;Node4 -->
<g id="edge15" class="edge">
<title>Node13&#45;&gt;Node4</title>
<path fill="none" stroke="midnightblue" d="M252.48,-56.44C276.66,-47.44 314.92,-33.19 342.15,-23.05"/>
<polygon fill="midnightblue" stroke="midnightblue" points="343.48,-26.29 351.63,-19.52 341.04,-19.73 343.48,-26.29"/>
</g>
<!-- Node13&#45;&gt;Node8 -->
<g id="edge14" class="edge">
<title>Node13&#45;&gt;Node8</title>
<path fill="none" stroke="midnightblue" d="M271.81,-56.44C323.7,-45.95 410.8,-28.33 459.93,-18.4"/>
<polygon fill="midnightblue" stroke="midnightblue" points="460.7,-21.81 469.81,-16.4 459.31,-14.95 460.7,-21.81"/>
</g>
<!-- Node14 -->
<g id="node14" class="node">
<title>Node14</title>
<g id="a_node14"><a xlink:href="sitkPixelIDTypes_8h.html" target="_top" xlink:title=" ">
<polygon fill="white" stroke="black" points="0,-0.5 0,-19.5 105,-19.5 105,-0.5 0,-0.5"/>
<text text-anchor="middle" x="52.5" y="-7.5" font-family="Helvetica,sans-Serif" font-size="10.00">sitkPixelIDTypes.h</text>
</a>
</g>
</g>
<!-- Node13&#45;&gt;Node14 -->
<g id="edge16" class="edge">
<title>Node13&#45;&gt;Node14</title>
<path fill="none" stroke="midnightblue" d="M201.45,-56.44C171.42,-47.28 123.59,-32.69 90.26,-22.52"/>
<polygon fill="midnightblue" stroke="midnightblue" points="91,-19.09 80.41,-19.52 88.96,-25.78 91,-19.09"/>
</g>
<!-- Node15 -->
<g id="node15" class="node">
<title>Node15</title>
<g id="a_node15"><a xlink:title=" ">
<polygon fill="white" stroke="#bfbfbf" points="123,-0.5 123,-19.5 234,-19.5 234,-0.5 123,-0.5"/>
<text text-anchor="middle" x="178.5" y="-7.5" font-family="Helvetica,sans-Serif" font-size="10.00">Ancillary/TypeList.h</text>
</a>
</g>
</g>
<!-- Node13&#45;&gt;Node15 -->
<g id="edge17" class="edge">
<title>Node13&#45;&gt;Node15</title>
<path fill="none" stroke="midnightblue" d="M221.08,-56.08C213.65,-48.22 202.65,-36.57 193.69,-27.08"/>
<polygon fill="midnightblue" stroke="midnightblue" points="196.18,-24.62 186.76,-19.75 191.09,-29.42 196.18,-24.62"/>
</g>
<!-- Node16 -->
<g id="node16" class="node">
<title>Node16</title>
<g id="a_node16"><a xlink:title=" ">
<polygon fill="white" stroke="#bfbfbf" points="252,-0.5 252,-19.5 311,-19.5 311,-0.5 252,-0.5"/>
<text text-anchor="middle" x="281.5" y="-7.5" font-family="Helvetica,sans-Serif" font-size="10.00">complex</text>
</a>
</g>
</g>
<!-- Node13&#45;&gt;Node16 -->
<g id="edge18" class="edge">
<title>Node13&#45;&gt;Node16</title>
<path fill="none" stroke="midnightblue" d="M238.09,-56.08C245.66,-48.22 256.88,-36.57 266.01,-27.08"/>
<polygon fill="midnightblue" stroke="midnightblue" points="268.66,-29.38 273.07,-19.75 263.62,-24.53 268.66,-29.38"/>
</g>
<!-- Node20&#45;&gt;Node2 -->
<g id="edge28" class="edge">
<title>Node20&#45;&gt;Node2</title>
<path fill="none" stroke="midnightblue" d="M664.56,-224.32C649.91,-215.82 627.37,-202.73 610.26,-192.8"/>
<polygon fill="midnightblue" stroke="midnightblue" points="611.81,-189.65 601.4,-187.65 608.3,-195.7 611.81,-189.65"/>
</g>
<!-- Node20&#45;&gt;Node6 -->
<g id="edge24" class="edge">
<title>Node20&#45;&gt;Node6</title>
<path fill="none" stroke="midnightblue" d="M679.26,-224.37C678.78,-206.62 677.66,-165.67 677.01,-141.6"/>
<polygon fill="midnightblue" stroke="midnightblue" points="680.51,-141.49 676.73,-131.59 673.51,-141.68 680.51,-141.49"/>
</g>
<!-- Node20&#45;&gt;Node7 -->
<g id="edge23" class="edge">
<title>Node20&#45;&gt;Node7</title>
<path fill="none" stroke="midnightblue" d="M747.26,-228.99C807.26,-223.85 888.36,-212.48 908.5,-188 963.84,-120.73 806.11,-86.35 723.46,-73.33"/>
<polygon fill="midnightblue" stroke="midnightblue" points="723.94,-69.86 713.53,-71.81 722.89,-76.78 723.94,-69.86"/>
</g>
<!-- Node20&#45;&gt;Node18 -->
<g id="edge29" class="edge">
<title>Node20&#45;&gt;Node18</title>
<path fill="none" stroke="midnightblue" d="M671.72,-224.48C660.23,-211.95 637.99,-187.9 618.5,-168 608.8,-158.1 597.71,-147.23 588.84,-138.65"/>
<polygon fill="midnightblue" stroke="midnightblue" points="591.06,-135.93 581.43,-131.52 586.2,-140.97 591.06,-135.93"/>
</g>
<!-- Node21 -->
<g id="node21" class="node">
<title>Node21</title>
<g id="a_node21"><a xlink:href="sitkExceptionObject_8h.html" target="_top" xlink:title=" ">
<polygon fill="white" stroke="black" points="776,-168.5 776,-187.5 899,-187.5 899,-168.5 776,-168.5"/>
<text text-anchor="middle" x="837.5" y="-175.5" font-family="Helvetica,sans-Serif" font-size="10.00">sitkExceptionObject.h</text>
</a>
</g>
</g>
<!-- Node20&#45;&gt;Node21 -->
<g id="edge25" class="edge">
<title>Node20&#45;&gt;Node21</title>
<path fill="none" stroke="midnightblue" d="M704.54,-224.44C731.12,-215.36 773.31,-200.94 803.02,-190.78"/>
<polygon fill="midnightblue" stroke="midnightblue" points="804.25,-194.06 812.58,-187.52 801.99,-187.44 804.25,-194.06"/>
</g>
<!-- Node22 -->
<g id="node22" class="node">
<title>Node22</title>
<g id="a_node22"><a xlink:title=" ">
<polygon fill="white" stroke="#bfbfbf" points="705,-168.5 705,-187.5 758,-187.5 758,-168.5 705,-168.5"/>
<text text-anchor="middle" x="731.5" y="-175.5" font-family="Helvetica,sans-Serif" font-size="10.00">iterator</text>
</a>
</g>
</g>
<!-- Node20&#45;&gt;Node22 -->
<g id="edge30" class="edge">
<title>Node20&#45;&gt;Node22</title>
<path fill="none" stroke="midnightblue" d="M688.09,-224.08C695.66,-216.22 706.88,-204.57 716.01,-195.08"/>
<polygon fill="midnightblue" stroke="midnightblue" points="718.66,-197.38 723.07,-187.75 713.62,-192.53 718.66,-197.38"/>
</g>
<!-- Node21&#45;&gt;Node6 -->
<g id="edge27" class="edge">
<title>Node21&#45;&gt;Node6</title>
<path fill="none" stroke="midnightblue" d="M811.99,-168.44C784.9,-159.36 741.91,-144.94 711.63,-134.78"/>
<polygon fill="midnightblue" stroke="midnightblue" points="712.49,-131.38 701.89,-131.52 710.26,-138.01 712.49,-131.38"/>
</g>
<!-- Node21&#45;&gt;Node7 -->
<g id="edge26" class="edge">
<title>Node21&#45;&gt;Node7</title>
<path fill="none" stroke="midnightblue" d="M824.87,-168.37C797.24,-149.49 731.22,-104.38 697.34,-81.24"/>
<polygon fill="midnightblue" stroke="midnightblue" points="699.31,-78.34 689.07,-75.59 695.36,-84.12 699.31,-78.34"/>
</g>
</g>
</svg>
