<?xml version="1.0" encoding="UTF-8" standalone="no"?>
<!DOCTYPE svg PUBLIC "-//W3C//DTD SVG 1.1//EN"
 "http://www.w3.org/Graphics/SVG/1.1/DTD/svg11.dtd">
<!-- Generated by graphviz version 2.43.0 (0)
 -->
<!-- Title: sitkMemberFunctionFactory.h Pages: 1 -->
<!--zoomable 400 -->
<svg id="main" version="1.1" xmlns="http://www.w3.org/2000/svg" xmlns:xlink="http://www.w3.org/1999/xlink" xml:space="preserve" onload="init(evt)">
<style type="text/css"><![CDATA[
.edge:hover path { stroke: red; }
.edge:hover polygon { stroke: red; fill: red; }
]]></style>
<script type="text/javascript"><![CDATA[
var edges = document.getElementsByTagName('g');
if (edges && edges.length) {
  for (var i=0;i<edges.length;i++) {
    if (edges[i].id.substr(0,4)=='edge') {
      edges[i].setAttribute('class','edge');
    }
  }
}
]]></script>
        <defs>
                <circle id="rim" cx="0" cy="0" r="7"/>
                <circle id="rim2" cx="0" cy="0" r="3.5"/>
                <g id="zoomPlus">
                        <use xlink:href="#rim" fill="#404040">
                                <set attributeName="fill" to="#808080" begin="zoomplus.mouseover" end="zoomplus.mouseout"/>
                        </use>
                        <path d="M-4,0h8M0,-4v8" fill="none" stroke="white" stroke-width="1.5" pointer-events="none"/>
                </g>
                <g id="zoomMin">
                        <use xlink:href="#rim" fill="#404040">
                                <set attributeName="fill" to="#808080" begin="zoomminus.mouseover" end="zoomminus.mouseout"/>
                        </use>
                        <path d="M-4,0h8" fill="none" stroke="white" stroke-width="1.5" pointer-events="none"/>
                </g>
                <g id="dirArrow">
                        <path fill="none" stroke="white" stroke-width="1.5" d="M0,-3.0v7 M-2.5,-0.5L0,-3.0L2.5,-0.5"/>
                </g>
               <g id="resetDef">
                       <use xlink:href="#rim2" fill="#404040">
                               <set attributeName="fill" to="#808080" begin="reset.mouseover" end="reset.mouseout"/>
                       </use>
               </g>
        </defs>

<script type="text/javascript">
var viewWidth = 1701;
var viewHeight = 400;
var sectionId = 'dynsection-0';
</script>
<script xlink:href="svgpan.js"/>
<svg id="graph" class="graph">
<g id="viewport">
<title>sitkMemberFunctionFactory.h</title>
<polygon fill="white" stroke="transparent" points="-4,4 -4,-395.56 1697,-395.56 1697,4 -4,4"/>
<!-- Node1 -->
<g id="node1" class="node">
<title>Node1</title>
<g id="a_node1"><a xlink:title=" ">
<polygon fill="#bfbfbf" stroke="black" points="1008,-369.5 1008,-388.5 1167,-388.5 1167,-369.5 1008,-369.5"/>
<text text-anchor="middle" x="1087.5" y="-376.5" font-family="Helvetica,sans-Serif" font-size="10.00">sitkMemberFunctionFactory.h</text>
</a>
</g>
</g>
<!-- Node1&#45;&gt;Node1 -->
<g id="edge35" class="edge">
<title>Node1&#45;&gt;Node1</title>
<path fill="none" stroke="midnightblue" d="M1117.7,-388.52C1149.38,-394.39 1185,-391.21 1185,-379 1185,-368.07 1156.5,-364.38 1127.81,-367.93"/>
<polygon fill="midnightblue" stroke="midnightblue" points="1127.05,-364.5 1117.7,-369.48 1128.11,-371.42 1127.05,-364.5"/>
</g>
<!-- Node2 -->
<g id="node2" class="node">
<title>Node2</title>
<g id="a_node2"><a xlink:href="sitkDetail_8h.html" target="_top" xlink:title=" ">
<polygon fill="white" stroke="black" points="953,-302.5 953,-321.5 1026,-321.5 1026,-302.5 953,-302.5"/>
<text text-anchor="middle" x="989.5" y="-309.5" font-family="Helvetica,sans-Serif" font-size="10.00">sitkDetail.h</text>
</a>
</g>
</g>
<!-- Node1&#45;&gt;Node2 -->
<g id="edge1" class="edge">
<title>Node1&#45;&gt;Node2</title>
<path fill="none" stroke="midnightblue" d="M1074.28,-369.23C1058.05,-358.46 1030.28,-340.05 1010.97,-327.24"/>
<polygon fill="midnightblue" stroke="midnightblue" points="1012.78,-324.24 1002.51,-321.63 1008.91,-330.07 1012.78,-324.24"/>
</g>
<!-- Node3 -->
<g id="node3" class="node">
<title>Node3</title>
<g id="a_node3"><a xlink:href="sitkMemberFunctionFactoryBase_8h.html" target="_top" xlink:title=" ">
<polygon fill="white" stroke="black" points="599.5,-224.5 599.5,-254.5 751.5,-254.5 751.5,-224.5 599.5,-224.5"/>
<text text-anchor="start" x="607.5" y="-242.5" font-family="Helvetica,sans-Serif" font-size="10.00">sitkMemberFunctionFactory</text>
<text text-anchor="middle" x="675.5" y="-231.5" font-family="Helvetica,sans-Serif" font-size="10.00">Base.h</text>
</a>
</g>
</g>
<!-- Node1&#45;&gt;Node3 -->
<g id="edge27" class="edge">
<title>Node1&#45;&gt;Node3</title>
<path fill="none" stroke="midnightblue" d="M1059.48,-369.42C1030.6,-360.52 984.3,-346.1 944.5,-333 867.66,-307.7 779.02,-276.91 725.14,-258.01"/>
<polygon fill="midnightblue" stroke="midnightblue" points="726.09,-254.63 715.49,-254.62 723.77,-261.24 726.09,-254.63"/>
</g>
<!-- Node12 -->
<g id="node12" class="node">
<title>Node12</title>
<g id="a_node12"><a xlink:title=" ">
<polygon fill="white" stroke="#bfbfbf" points="788.5,-0.5 788.5,-19.5 840.5,-19.5 840.5,-0.5 788.5,-0.5"/>
<text text-anchor="middle" x="814.5" y="-7.5" font-family="Helvetica,sans-Serif" font-size="10.00">cassert</text>
</a>
</g>
</g>
<!-- Node1&#45;&gt;Node12 -->
<g id="edge34" class="edge">
<title>Node1&#45;&gt;Node12</title>
<path fill="none" stroke="midnightblue" d="M1087.5,-369.31C1087.5,-347.6 1087.5,-289.2 1087.5,-240.5 1087.5,-240.5 1087.5,-240.5 1087.5,-121 1087.5,-70.49 924.68,-32.39 850.53,-17.66"/>
<polygon fill="midnightblue" stroke="midnightblue" points="851.16,-14.22 840.68,-15.73 849.82,-21.09 851.16,-14.22"/>
</g>
<!-- Node21 -->
<g id="node21" class="node">
<title>Node21</title>
<g id="a_node21"><a xlink:href="sitkPixelIDValues_8h.html" target="_top" xlink:title=" ">
<polygon fill="white" stroke="black" points="92.5,-230 92.5,-249 202.5,-249 202.5,-230 92.5,-230"/>
<text text-anchor="middle" x="147.5" y="-237" font-family="Helvetica,sans-Serif" font-size="10.00">sitkPixelIDValues.h</text>
</a>
</g>
</g>
<!-- Node1&#45;&gt;Node21 -->
<g id="edge28" class="edge">
<title>Node1&#45;&gt;Node21</title>
<path fill="none" stroke="midnightblue" d="M1029.05,-369.45C862.7,-345.12 387.41,-275.59 212.84,-250.06"/>
<polygon fill="midnightblue" stroke="midnightblue" points="213.17,-246.57 202.77,-248.58 212.16,-253.5 213.17,-246.57"/>
</g>
<!-- Node24 -->
<g id="node24" class="node">
<title>Node24</title>
<g id="a_node24"><a xlink:title=" ">
<polygon fill="white" stroke="#bfbfbf" points="1116,-302.5 1116,-321.5 1287,-321.5 1287,-302.5 1116,-302.5"/>
<text text-anchor="middle" x="1201.5" y="-309.5" font-family="Helvetica,sans-Serif" font-size="10.00">sitkMemberFunctionFactory.hxx</text>
</a>
</g>
</g>
<!-- Node1&#45;&gt;Node24 -->
<g id="edge33" class="edge">
<title>Node1&#45;&gt;Node24</title>
<path fill="none" stroke="midnightblue" d="M1102.87,-369.23C1122.02,-358.32 1154.94,-339.55 1177.44,-326.72"/>
<polygon fill="midnightblue" stroke="midnightblue" points="1179.42,-329.62 1186.37,-321.63 1175.95,-323.54 1179.42,-329.62"/>
</g>
<!-- Node25 -->
<g id="node25" class="node">
<title>Node25</title>
<g id="a_node25"><a xlink:title=" ">
<polygon fill="white" stroke="#bfbfbf" points="1305,-297 1305,-327 1504,-327 1504,-297 1305,-297"/>
<text text-anchor="start" x="1313" y="-315" font-family="Helvetica,sans-Serif" font-size="10.00">/work/SimpleITK/Code</text>
<text text-anchor="middle" x="1404.5" y="-304" font-family="Helvetica,sans-Serif" font-size="10.00">/Common/include/sitkPixelIDTokens.h</text>
</a>
</g>
</g>
<!-- Node1&#45;&gt;Node25 -->
<g id="edge36" class="edge">
<title>Node1&#45;&gt;Node25</title>
<path fill="none" stroke="midnightblue" d="M1129.27,-369.44C1179.12,-359.21 1263.53,-341.91 1325.76,-329.15"/>
<polygon fill="midnightblue" stroke="midnightblue" points="1326.84,-332.5 1335.93,-327.06 1325.44,-325.64 1326.84,-332.5"/>
</g>
<!-- Node26 -->
<g id="node26" class="node">
<title>Node26</title>
<g id="a_node26"><a xlink:title=" ">
<polygon fill="white" stroke="#bfbfbf" points="1522,-291.5 1522,-332.5 1693,-332.5 1693,-291.5 1522,-291.5"/>
<text text-anchor="start" x="1530" y="-320.5" font-family="Helvetica,sans-Serif" font-size="10.00">/work/SimpleITK/Code</text>
<text text-anchor="start" x="1530" y="-309.5" font-family="Helvetica,sans-Serif" font-size="10.00">/Common/include/sitkException</text>
<text text-anchor="middle" x="1607.5" y="-298.5" font-family="Helvetica,sans-Serif" font-size="10.00">Object.h</text>
</a>
</g>
</g>
<!-- Node1&#45;&gt;Node26 -->
<g id="edge37" class="edge">
<title>Node1&#45;&gt;Node26</title>
<path fill="none" stroke="midnightblue" d="M1167.12,-372.09C1250.69,-365.32 1386.04,-352.75 1511.58,-333.23"/>
<polygon fill="midnightblue" stroke="midnightblue" points="1512.43,-336.64 1521.76,-331.63 1511.34,-329.72 1512.43,-336.64"/>
</g>
<!-- Node2&#45;&gt;Node3 -->
<g id="edge2" class="edge">
<title>Node2&#45;&gt;Node3</title>
<path fill="none" stroke="midnightblue" d="M952.87,-302.77C902.88,-291.55 812.22,-271.2 748.17,-256.82"/>
<polygon fill="midnightblue" stroke="midnightblue" points="748.66,-253.34 738.13,-254.56 747.12,-260.17 748.66,-253.34"/>
</g>
<!-- Node17 -->
<g id="node17" class="node">
<title>Node17</title>
<g id="a_node17"><a xlink:title=" ">
<polygon fill="white" stroke="#bfbfbf" points="920,-168.5 920,-187.5 1059,-187.5 1059,-168.5 920,-168.5"/>
<text text-anchor="middle" x="989.5" y="-175.5" font-family="Helvetica,sans-Serif" font-size="10.00">Ancillary/FunctionTraits.h</text>
</a>
</g>
</g>
<!-- Node2&#45;&gt;Node17 -->
<g id="edge26" class="edge">
<title>Node2&#45;&gt;Node17</title>
<path fill="none" stroke="midnightblue" d="M989.5,-302.34C989.5,-281.17 989.5,-226.45 989.5,-197.53"/>
<polygon fill="midnightblue" stroke="midnightblue" points="993,-197.52 989.5,-187.52 986,-197.52 993,-197.52"/>
</g>
<!-- Node4 -->
<g id="node4" class="node">
<title>Node4</title>
<g id="a_node4"><a xlink:href="sitkConfigure_8h.html" target="_top" xlink:title=" ">
<polygon fill="white" stroke="black" points="406.5,-0.5 406.5,-19.5 496.5,-19.5 496.5,-0.5 406.5,-0.5"/>
<text text-anchor="middle" x="451.5" y="-7.5" font-family="Helvetica,sans-Serif" font-size="10.00">sitkConfigure.h</text>
</a>
</g>
</g>
<!-- Node3&#45;&gt;Node4 -->
<g id="edge3" class="edge">
<title>Node3&#45;&gt;Node4</title>
<path fill="none" stroke="midnightblue" d="M670.12,-224.2C660.17,-199.19 636.92,-146.85 604.5,-112 567.6,-72.34 512.14,-40.77 479.1,-24.07"/>
<polygon fill="midnightblue" stroke="midnightblue" points="480.53,-20.87 470.02,-19.56 477.42,-27.14 480.53,-20.87"/>
</g>
<!-- Node5 -->
<g id="node5" class="node">
<title>Node5</title>
<g id="a_node5"><a xlink:href="sitkPixelIDTypes_8h.html" target="_top" xlink:title=" ">
<polygon fill="white" stroke="black" points="338,-112.5 338,-131.5 443,-131.5 443,-112.5 338,-112.5"/>
<text text-anchor="middle" x="390.5" y="-119.5" font-family="Helvetica,sans-Serif" font-size="10.00">sitkPixelIDTypes.h</text>
</a>
</g>
</g>
<!-- Node3&#45;&gt;Node5 -->
<g id="edge4" class="edge">
<title>Node3&#45;&gt;Node5</title>
<path fill="none" stroke="midnightblue" d="M640.84,-224.45C584.56,-201.64 474.23,-156.93 420.86,-135.3"/>
<polygon fill="midnightblue" stroke="midnightblue" points="422.16,-132.05 411.58,-131.54 419.53,-138.54 422.16,-132.05"/>
</g>
<!-- Node6 -->
<g id="node6" class="node">
<title>Node6</title>
<g id="a_node6"><a xlink:href="sitkPixelIDTypeLists_8h.html" target="_top" xlink:title=" ">
<polygon fill="white" stroke="black" points="303.5,-168.5 303.5,-187.5 425.5,-187.5 425.5,-168.5 303.5,-168.5"/>
<text text-anchor="middle" x="364.5" y="-175.5" font-family="Helvetica,sans-Serif" font-size="10.00">sitkPixelIDTypeLists.h</text>
</a>
</g>
</g>
<!-- Node3&#45;&gt;Node6 -->
<g id="edge5" class="edge">
<title>Node3&#45;&gt;Node6</title>
<path fill="none" stroke="midnightblue" d="M602.19,-224.47C546.08,-213.74 469.92,-199.17 419.09,-189.44"/>
<polygon fill="midnightblue" stroke="midnightblue" points="419.44,-185.95 408.96,-187.51 418.13,-192.82 419.44,-185.95"/>
</g>
<!-- Node8 -->
<g id="node8" class="node">
<title>Node8</title>
<g id="a_node8"><a xlink:title=" ">
<polygon fill="white" stroke="#bfbfbf" points="461,-112.5 461,-131.5 572,-131.5 572,-112.5 461,-112.5"/>
<text text-anchor="middle" x="516.5" y="-119.5" font-family="Helvetica,sans-Serif" font-size="10.00">Ancillary/TypeList.h</text>
</a>
</g>
</g>
<!-- Node3&#45;&gt;Node8 -->
<g id="edge21" class="edge">
<title>Node3&#45;&gt;Node8</title>
<path fill="none" stroke="midnightblue" d="M646.81,-224.4C628.84,-215.05 605.56,-201.96 586.5,-188 566.15,-173.09 545.26,-152.94 531.67,-139.05"/>
<polygon fill="midnightblue" stroke="midnightblue" points="534.02,-136.45 524.56,-131.68 528.98,-141.31 534.02,-136.45"/>
</g>
<!-- Node10 -->
<g id="node10" class="node">
<title>Node10</title>
<g id="a_node10"><a xlink:href="sitkMacro_8h.html" target="_top" xlink:title=" ">
<polygon fill="white" stroke="black" points="221.5,-56.5 221.5,-75.5 295.5,-75.5 295.5,-56.5 221.5,-56.5"/>
<text text-anchor="middle" x="258.5" y="-63.5" font-family="Helvetica,sans-Serif" font-size="10.00">sitkMacro.h</text>
</a>
</g>
</g>
<!-- Node3&#45;&gt;Node10 -->
<g id="edge11" class="edge">
<title>Node3&#45;&gt;Node10</title>
<path fill="none" stroke="midnightblue" d="M659.21,-224.46C648.6,-214.83 634.86,-201.41 624.5,-188 600.65,-157.11 612.88,-133.79 580.5,-112 536.58,-82.44 384.15,-72.04 305.8,-68.59"/>
<polygon fill="midnightblue" stroke="midnightblue" points="305.85,-65.09 295.71,-68.17 305.55,-72.08 305.85,-65.09"/>
</g>
<!-- Node15 -->
<g id="node15" class="node">
<title>Node15</title>
<g id="a_node15"><a xlink:href="sitkNonCopyable_8h.html" target="_top" xlink:title=" ">
<polygon fill="white" stroke="black" points="176,-168.5 176,-187.5 285,-187.5 285,-168.5 176,-168.5"/>
<text text-anchor="middle" x="230.5" y="-175.5" font-family="Helvetica,sans-Serif" font-size="10.00">sitkNonCopyable.h</text>
</a>
</g>
</g>
<!-- Node3&#45;&gt;Node15 -->
<g id="edge18" class="edge">
<title>Node3&#45;&gt;Node15</title>
<path fill="none" stroke="midnightblue" d="M599.21,-228.57C524.53,-218.81 407.23,-203.36 295.42,-188.12"/>
<polygon fill="midnightblue" stroke="midnightblue" points="295.69,-184.62 285.31,-186.74 294.74,-191.56 295.69,-184.62"/>
</g>
<!-- Node3&#45;&gt;Node17 -->
<g id="edge22" class="edge">
<title>Node3&#45;&gt;Node17</title>
<path fill="none" stroke="midnightblue" d="M749.52,-224.47C806.29,-213.72 883.38,-199.11 934.7,-189.38"/>
<polygon fill="midnightblue" stroke="midnightblue" points="935.44,-192.81 944.61,-187.51 934.13,-185.93 935.44,-192.81"/>
</g>
<!-- Node18 -->
<g id="node18" class="node">
<title>Node18</title>
<g id="a_node18"><a xlink:title=" ">
<polygon fill="white" stroke="#bfbfbf" points="667,-168.5 667,-187.5 760,-187.5 760,-168.5 667,-168.5"/>
<text text-anchor="middle" x="713.5" y="-175.5" font-family="Helvetica,sans-Serif" font-size="10.00">unordered_map</text>
</a>
</g>
</g>
<!-- Node3&#45;&gt;Node18 -->
<g id="edge23" class="edge">
<title>Node3&#45;&gt;Node18</title>
<path fill="none" stroke="midnightblue" d="M684.51,-224.4C689.91,-215.93 696.83,-205.1 702.55,-196.14"/>
<polygon fill="midnightblue" stroke="midnightblue" points="705.54,-197.97 707.97,-187.66 699.64,-194.2 705.54,-197.97"/>
</g>
<!-- Node19 -->
<g id="node19" class="node">
<title>Node19</title>
<g id="a_node19"><a xlink:title=" ">
<polygon fill="white" stroke="#bfbfbf" points="778,-168.5 778,-187.5 843,-187.5 843,-168.5 778,-168.5"/>
<text text-anchor="middle" x="810.5" y="-175.5" font-family="Helvetica,sans-Serif" font-size="10.00">functional</text>
</a>
</g>
</g>
<!-- Node3&#45;&gt;Node19 -->
<g id="edge24" class="edge">
<title>Node3&#45;&gt;Node19</title>
<path fill="none" stroke="midnightblue" d="M707.49,-224.4C729.94,-214.51 759.71,-201.38 781.48,-191.79"/>
<polygon fill="midnightblue" stroke="midnightblue" points="783.12,-194.89 790.86,-187.66 780.29,-188.49 783.12,-194.89"/>
</g>
<!-- Node20 -->
<g id="node20" class="node">
<title>Node20</title>
<g id="a_node20"><a xlink:title=" ">
<polygon fill="white" stroke="#bfbfbf" points="861,-168.5 861,-187.5 902,-187.5 902,-168.5 861,-168.5"/>
<text text-anchor="middle" x="881.5" y="-175.5" font-family="Helvetica,sans-Serif" font-size="10.00">tuple</text>
</a>
</g>
</g>
<!-- Node3&#45;&gt;Node20 -->
<g id="edge25" class="edge">
<title>Node3&#45;&gt;Node20</title>
<path fill="none" stroke="midnightblue" d="M725.24,-224.4C758.31,-214.99 802.95,-202.21 851.16,-188.07"/>
<polygon fill="midnightblue" stroke="midnightblue" points="852.24,-191.4 860.85,-185.23 850.27,-184.69 852.24,-191.4"/>
</g>
<!-- Node6&#45;&gt;Node4 -->
<g id="edge7" class="edge">
<title>Node6&#45;&gt;Node4</title>
<path fill="none" stroke="midnightblue" d="M353.78,-168.36C339.92,-156.07 318.69,-132.76 328.5,-112 348.11,-70.53 394.02,-40.37 423.87,-24.29"/>
<polygon fill="midnightblue" stroke="midnightblue" points="425.69,-27.29 432.94,-19.57 422.45,-21.08 425.69,-27.29"/>
</g>
<!-- Node6&#45;&gt;Node5 -->
<g id="edge8" class="edge">
<title>Node6&#45;&gt;Node5</title>
<path fill="none" stroke="midnightblue" d="M368.79,-168.08C372.35,-160.69 377.52,-149.95 381.92,-140.81"/>
<polygon fill="midnightblue" stroke="midnightblue" points="385.1,-142.28 386.29,-131.75 378.79,-139.24 385.1,-142.28"/>
</g>
<!-- Node7 -->
<g id="node7" class="node">
<title>Node7</title>
<g id="a_node7"><a xlink:title=" ">
<polygon fill="white" stroke="#bfbfbf" points="125,-0.5 125,-19.5 178,-19.5 178,-0.5 125,-0.5"/>
<text text-anchor="middle" x="151.5" y="-7.5" font-family="Helvetica,sans-Serif" font-size="10.00">stdint.h</text>
</a>
</g>
</g>
<!-- Node6&#45;&gt;Node7 -->
<g id="edge6" class="edge">
<title>Node6&#45;&gt;Node7</title>
<path fill="none" stroke="midnightblue" d="M322.43,-168.47C283.52,-159.9 229.24,-145.98 212.5,-132 180.11,-104.95 163.16,-56.4 155.92,-29.76"/>
<polygon fill="midnightblue" stroke="midnightblue" points="159.25,-28.64 153.39,-19.81 152.46,-30.37 159.25,-28.64"/>
</g>
<!-- Node6&#45;&gt;Node8 -->
<g id="edge9" class="edge">
<title>Node6&#45;&gt;Node8</title>
<path fill="none" stroke="midnightblue" d="M388.58,-168.44C414.04,-159.4 454.39,-145.06 482.96,-134.92"/>
<polygon fill="midnightblue" stroke="midnightblue" points="484.28,-138.16 492.53,-131.52 481.93,-131.57 484.28,-138.16"/>
</g>
<!-- Node9 -->
<g id="node9" class="node">
<title>Node9</title>
<g id="a_node9"><a xlink:title=" ">
<polygon fill="white" stroke="#bfbfbf" points="222,-112.5 222,-131.5 281,-131.5 281,-112.5 222,-112.5"/>
<text text-anchor="middle" x="251.5" y="-119.5" font-family="Helvetica,sans-Serif" font-size="10.00">complex</text>
</a>
</g>
</g>
<!-- Node6&#45;&gt;Node9 -->
<g id="edge10" class="edge">
<title>Node6&#45;&gt;Node9</title>
<path fill="none" stroke="midnightblue" d="M346.59,-168.44C328.25,-159.68 299.49,-145.94 278.41,-135.86"/>
<polygon fill="midnightblue" stroke="midnightblue" points="279.85,-132.67 269.32,-131.52 276.83,-138.99 279.85,-132.67"/>
</g>
<!-- Node10&#45;&gt;Node4 -->
<g id="edge17" class="edge">
<title>Node10&#45;&gt;Node4</title>
<path fill="none" stroke="midnightblue" d="M289.08,-56.44C322.11,-47.2 374.89,-32.44 411.27,-22.26"/>
<polygon fill="midnightblue" stroke="midnightblue" points="412.37,-25.58 421.06,-19.52 410.49,-18.84 412.37,-25.58"/>
</g>
<!-- Node10&#45;&gt;Node7 -->
<g id="edge12" class="edge">
<title>Node10&#45;&gt;Node7</title>
<path fill="none" stroke="midnightblue" d="M241.31,-56.32C224.15,-47.66 197.55,-34.24 177.75,-24.25"/>
<polygon fill="midnightblue" stroke="midnightblue" points="179.15,-21.04 168.65,-19.65 176,-27.28 179.15,-21.04"/>
</g>
<!-- Node11 -->
<g id="node11" class="node">
<title>Node11</title>
<g id="a_node11"><a xlink:title=" ">
<polygon fill="white" stroke="#bfbfbf" points="332.5,-0.5 332.5,-19.5 388.5,-19.5 388.5,-0.5 332.5,-0.5"/>
<text text-anchor="middle" x="360.5" y="-7.5" font-family="Helvetica,sans-Serif" font-size="10.00">stddef.h</text>
</a>
</g>
</g>
<!-- Node10&#45;&gt;Node11 -->
<g id="edge13" class="edge">
<title>Node10&#45;&gt;Node11</title>
<path fill="none" stroke="midnightblue" d="M274.89,-56.32C291.17,-47.7 316.37,-34.36 335.22,-24.39"/>
<polygon fill="midnightblue" stroke="midnightblue" points="336.95,-27.43 344.15,-19.65 333.68,-21.24 336.95,-27.43"/>
</g>
<!-- Node10&#45;&gt;Node12 -->
<g id="edge14" class="edge">
<title>Node10&#45;&gt;Node12</title>
<path fill="none" stroke="midnightblue" d="M295.84,-61.37C397.45,-51.51 677.96,-24.26 778.26,-14.52"/>
<polygon fill="midnightblue" stroke="midnightblue" points="778.87,-17.98 788.49,-13.53 778.19,-11.01 778.87,-17.98"/>
</g>
<!-- Node13 -->
<g id="node13" class="node">
<title>Node13</title>
<g id="a_node13"><a xlink:title=" ">
<polygon fill="white" stroke="#bfbfbf" points="196.5,-0.5 196.5,-19.5 252.5,-19.5 252.5,-0.5 196.5,-0.5"/>
<text text-anchor="middle" x="224.5" y="-7.5" font-family="Helvetica,sans-Serif" font-size="10.00">sstream</text>
</a>
</g>
</g>
<!-- Node10&#45;&gt;Node13 -->
<g id="edge15" class="edge">
<title>Node10&#45;&gt;Node13</title>
<path fill="none" stroke="midnightblue" d="M252.89,-56.08C248.13,-48.53 241.18,-37.49 235.35,-28.23"/>
<polygon fill="midnightblue" stroke="midnightblue" points="238.3,-26.35 230.01,-19.75 232.38,-30.08 238.3,-26.35"/>
</g>
<!-- Node14 -->
<g id="node14" class="node">
<title>Node14</title>
<g id="a_node14"><a xlink:title=" ">
<polygon fill="white" stroke="#bfbfbf" points="270.5,-0.5 270.5,-19.5 314.5,-19.5 314.5,-0.5 270.5,-0.5"/>
<text text-anchor="middle" x="292.5" y="-7.5" font-family="Helvetica,sans-Serif" font-size="10.00">limits</text>
</a>
</g>
</g>
<!-- Node10&#45;&gt;Node14 -->
<g id="edge16" class="edge">
<title>Node10&#45;&gt;Node14</title>
<path fill="none" stroke="midnightblue" d="M264.11,-56.08C268.87,-48.53 275.82,-37.49 281.65,-28.23"/>
<polygon fill="midnightblue" stroke="midnightblue" points="284.62,-30.08 286.99,-19.75 278.7,-26.35 284.62,-30.08"/>
</g>
<!-- Node16 -->
<g id="node16" class="node">
<title>Node16</title>
<g id="a_node16"><a xlink:href="sitkCommon_8h.html" target="_top" xlink:title=" ">
<polygon fill="white" stroke="black" points="77.5,-112.5 77.5,-131.5 165.5,-131.5 165.5,-112.5 77.5,-112.5"/>
<text text-anchor="middle" x="121.5" y="-119.5" font-family="Helvetica,sans-Serif" font-size="10.00">sitkCommon.h</text>
</a>
</g>
</g>
<!-- Node15&#45;&gt;Node16 -->
<g id="edge19" class="edge">
<title>Node15&#45;&gt;Node16</title>
<path fill="none" stroke="midnightblue" d="M212.99,-168.32C195.43,-159.62 168.17,-146.12 147.97,-136.11"/>
<polygon fill="midnightblue" stroke="midnightblue" points="149.48,-132.96 138.97,-131.65 146.38,-139.23 149.48,-132.96"/>
</g>
<!-- Node16&#45;&gt;Node10 -->
<g id="edge20" class="edge">
<title>Node16&#45;&gt;Node10</title>
<path fill="none" stroke="midnightblue" d="M143.21,-112.44C165.85,-103.52 201.57,-89.44 227.25,-79.32"/>
<polygon fill="midnightblue" stroke="midnightblue" points="228.87,-82.44 236.89,-75.52 226.31,-75.93 228.87,-82.44"/>
</g>
<!-- Node21&#45;&gt;Node6 -->
<g id="edge30" class="edge">
<title>Node21&#45;&gt;Node6</title>
<path fill="none" stroke="midnightblue" d="M178.59,-229.98C216.78,-219.5 281.67,-201.71 323.8,-190.16"/>
<polygon fill="midnightblue" stroke="midnightblue" points="324.75,-193.53 333.47,-187.51 322.9,-186.78 324.75,-193.53"/>
</g>
<!-- Node21&#45;&gt;Node16 -->
<g id="edge29" class="edge">
<title>Node21&#45;&gt;Node16</title>
<path fill="none" stroke="midnightblue" d="M145.55,-229.82C141.35,-211.17 131.39,-166.94 125.69,-141.63"/>
<polygon fill="midnightblue" stroke="midnightblue" points="129.09,-140.77 123.48,-131.78 122.26,-142.31 129.09,-140.77"/>
</g>
<!-- Node22 -->
<g id="node22" class="node">
<title>Node22</title>
<g id="a_node22"><a xlink:title=" ">
<polygon fill="white" stroke="#bfbfbf" points="75.5,-168.5 75.5,-187.5 119.5,-187.5 119.5,-168.5 75.5,-168.5"/>
<text text-anchor="middle" x="97.5" y="-175.5" font-family="Helvetica,sans-Serif" font-size="10.00">string</text>
</a>
</g>
</g>
<!-- Node21&#45;&gt;Node22 -->
<g id="edge31" class="edge">
<title>Node21&#45;&gt;Node22</title>
<path fill="none" stroke="midnightblue" d="M140.34,-229.98C132.76,-220.96 120.63,-206.52 111.21,-195.31"/>
<polygon fill="midnightblue" stroke="midnightblue" points="113.76,-192.91 104.65,-187.51 108.4,-197.42 113.76,-192.91"/>
</g>
<!-- Node23 -->
<g id="node23" class="node">
<title>Node23</title>
<g id="a_node23"><a xlink:title=" ">
<polygon fill="white" stroke="#bfbfbf" points="0,-168.5 0,-187.5 57,-187.5 57,-168.5 0,-168.5"/>
<text text-anchor="middle" x="28.5" y="-175.5" font-family="Helvetica,sans-Serif" font-size="10.00">ostream</text>
</a>
</g>
</g>
<!-- Node21&#45;&gt;Node23 -->
<g id="edge32" class="edge">
<title>Node21&#45;&gt;Node23</title>
<path fill="none" stroke="midnightblue" d="M130.45,-229.98C110.66,-220.08 77.78,-203.64 54.73,-192.12"/>
<polygon fill="midnightblue" stroke="midnightblue" points="56.03,-188.85 45.52,-187.51 52.9,-195.11 56.03,-188.85"/>
</g>
</g>
</svg>
        <g id="navigator" transform="translate(0 0)" fill="#404254">
                <rect fill="#f2f5e9" fill-opacity="0.5" stroke="#606060" stroke-width=".5" x="0" y="0" width="60" height="60"/>
                <use id="zoomplus" xlink:href="#zoomPlus" x="17" y="9" onmousedown="handleZoom(evt,'in')"/>
                <use id="zoomminus" xlink:href="#zoomMin" x="42" y="9" onmousedown="handleZoom(evt,'out')"/>
                <use id="reset" xlink:href="#resetDef" x="30" y="36" onmousedown="handleReset()"/>
                <g id="arrowUp" xlink:href="#dirArrow" transform="translate(30 24)" onmousedown="handlePan(0,-1)">
                  <use xlink:href="#rim" fill="#404040">
                        <set attributeName="fill" to="#808080" begin="arrowUp.mouseover" end="arrowUp.mouseout"/>
                  </use>
                  <path fill="none" stroke="white" stroke-width="1.5" d="M0,-3.0v7 M-2.5,-0.5L0,-3.0L2.5,-0.5"/>
                </g>
                <g id="arrowRight" xlink:href="#dirArrow" transform="rotate(90) translate(36 -43)" onmousedown="handlePan(1,0)">
                  <use xlink:href="#rim" fill="#404040">
                        <set attributeName="fill" to="#808080" begin="arrowRight.mouseover" end="arrowRight.mouseout"/>
                  </use>
                  <path fill="none" stroke="white" stroke-width="1.5" d="M0,-3.0v7 M-2.5,-0.5L0,-3.0L2.5,-0.5"/>
                </g>
                <g id="arrowDown" xlink:href="#dirArrow" transform="rotate(180) translate(-30 -48)" onmousedown="handlePan(0,1)">
                  <use xlink:href="#rim" fill="#404040">
                        <set attributeName="fill" to="#808080" begin="arrowDown.mouseover" end="arrowDown.mouseout"/>
                  </use>
                  <path fill="none" stroke="white" stroke-width="1.5" d="M0,-3.0v7 M-2.5,-0.5L0,-3.0L2.5,-0.5"/>
                </g>
                <g id="arrowLeft" xlink:href="#dirArrow" transform="rotate(270) translate(-36 17)" onmousedown="handlePan(-1,0)">
                  <use xlink:href="#rim" fill="#404040">
                        <set attributeName="fill" to="#808080" begin="arrowLeft.mouseover" end="arrowLeft.mouseout"/>
                  </use>
                  <path fill="none" stroke="white" stroke-width="1.5" d="M0,-3.0v7 M-2.5,-0.5L0,-3.0L2.5,-0.5"/>
                </g>
        </g>
        <svg viewBox="0 0 15 15" width="100%" height="30px" preserveAspectRatio="xMaxYMin meet">
         <g id="arrow_out" transform="scale(0.3 0.3)">
          <a xlink:href="sitkMemberFunctionFactory_8h__incl_org.svg" target="_base">
           <rect id="button" ry="5" rx="5" y="6" x="6" height="38" width="38"
                fill="#f2f5e9" fill-opacity="0.5" stroke="#606060" stroke-width="1.0"/>
           <path id="arrow"
             d="M 11.500037,31.436501 C 11.940474,20.09759 22.043105,11.32322 32.158766,21.979434 L 37.068811,17.246167 C 37.068811,17.246167 37.088388,32 37.088388,32 L 22.160133,31.978069 C 22.160133,31.978069 26.997745,27.140456 26.997745,27.140456 C 18.528582,18.264221 13.291696,25.230495 11.500037,31.436501 z"
             style="fill:#404040;"/>
          </a>
         </g>
        </svg>
</svg>
