<?xml version="1.0" encoding="UTF-8" standalone="no"?>
<!DOCTYPE svg PUBLIC "-//W3C//DTD SVG 1.1//EN"
 "http://www.w3.org/Graphics/SVG/1.1/DTD/svg11.dtd">
<!-- Generated by graphviz version 2.43.0 (0)
 -->
<!-- Title: sitkExplicitITKImageRegion.h Pages: 1 -->
<!--zoomable 543 -->
<svg id="main" version="1.1" xmlns="http://www.w3.org/2000/svg" xmlns:xlink="http://www.w3.org/1999/xlink" xml:space="preserve" onload="init(evt)">
<style type="text/css"><![CDATA[
.edge:hover path { stroke: red; }
.edge:hover polygon { stroke: red; fill: red; }
]]></style>
<script type="text/javascript"><![CDATA[
var edges = document.getElementsByTagName('g');
if (edges && edges.length) {
  for (var i=0;i<edges.length;i++) {
    if (edges[i].id.substr(0,4)=='edge') {
      edges[i].setAttribute('class','edge');
    }
  }
}
]]></script>
        <defs>
                <circle id="rim" cx="0" cy="0" r="7"/>
                <circle id="rim2" cx="0" cy="0" r="3.5"/>
                <g id="zoomPlus">
                        <use xlink:href="#rim" fill="#404040">
                                <set attributeName="fill" to="#808080" begin="zoomplus.mouseover" end="zoomplus.mouseout"/>
                        </use>
                        <path d="M-4,0h8M0,-4v8" fill="none" stroke="white" stroke-width="1.5" pointer-events="none"/>
                </g>
                <g id="zoomMin">
                        <use xlink:href="#rim" fill="#404040">
                                <set attributeName="fill" to="#808080" begin="zoomminus.mouseover" end="zoomminus.mouseout"/>
                        </use>
                        <path d="M-4,0h8" fill="none" stroke="white" stroke-width="1.5" pointer-events="none"/>
                </g>
                <g id="dirArrow">
                        <path fill="none" stroke="white" stroke-width="1.5" d="M0,-3.0v7 M-2.5,-0.5L0,-3.0L2.5,-0.5"/>
                </g>
               <g id="resetDef">
                       <use xlink:href="#rim2" fill="#404040">
                               <set attributeName="fill" to="#808080" begin="reset.mouseover" end="reset.mouseout"/>
                       </use>
               </g>
        </defs>

<script type="text/javascript">
var viewWidth = 1152;
var viewHeight = 543;
var sectionId = 'dynsection-0';
</script>
<script xlink:href="svgpan.js"/>
<svg id="graph" class="graph">
<g id="viewport">
<title>sitkExplicitITKImageRegion.h</title>
<polygon fill="white" stroke="transparent" points="-4,4 -4,-539 1147.5,-539 1147.5,4 -4,4"/>
<!-- Node1 -->
<g id="node1" class="node">
<title>Node1</title>
<g id="a_node1"><a xlink:title=" ">
<polygon fill="#bfbfbf" stroke="black" points="325.5,-515.5 325.5,-534.5 485.5,-534.5 485.5,-515.5 325.5,-515.5"/>
<text text-anchor="middle" x="405.5" y="-522.5" font-family="Helvetica,sans-Serif" font-size="10.00">sitkExplicitITKImageRegion.h</text>
</a>
</g>
</g>
<!-- Node2 -->
<g id="node2" class="node">
<title>Node2</title>
<g id="a_node2"><a xlink:href="sitkExplicit_8h.html" target="_top" xlink:title=" ">
<polygon fill="white" stroke="black" points="310.5,-459.5 310.5,-478.5 390.5,-478.5 390.5,-459.5 310.5,-459.5"/>
<text text-anchor="middle" x="350.5" y="-466.5" font-family="Helvetica,sans-Serif" font-size="10.00">sitkExplicit.h</text>
</a>
</g>
</g>
<!-- Node1&#45;&gt;Node2 -->
<g id="edge1" class="edge">
<title>Node1&#45;&gt;Node2</title>
<path fill="none" stroke="midnightblue" d="M396.42,-515.08C388.33,-507.14 376.3,-495.34 366.59,-485.8"/>
<polygon fill="midnightblue" stroke="midnightblue" points="369,-483.26 359.41,-478.75 364.1,-488.25 369,-483.26"/>
</g>
<!-- Node10 -->
<g id="node10" class="node">
<title>Node10</title>
<g id="a_node10"><a target="_parent" xlink:href="https://www.itk.org/Doxygen/html/itkImageRegion_8h.html" xlink:title=" ">
<polygon fill="white" stroke="black" points="511,-459.5 511,-478.5 614,-478.5 614,-459.5 511,-459.5"/>
<text text-anchor="middle" x="562.5" y="-466.5" font-family="Helvetica,sans-Serif" font-size="10.00">itkImageRegion.h</text>
</a>
</g>
</g>
<!-- Node1&#45;&gt;Node10 -->
<g id="edge9" class="edge">
<title>Node1&#45;&gt;Node10</title>
<path fill="none" stroke="midnightblue" d="M430.38,-515.44C456.79,-506.36 498.72,-491.94 528.24,-481.78"/>
<polygon fill="midnightblue" stroke="midnightblue" points="529.42,-485.08 537.74,-478.52 527.14,-478.46 529.42,-485.08"/>
</g>
<!-- Node3 -->
<g id="node3" class="node">
<title>Node3</title>
<g id="a_node3"><a xlink:href="sitkMacro_8h.html" target="_top" xlink:title=" ">
<polygon fill="white" stroke="black" points="206.5,-403.5 206.5,-422.5 280.5,-422.5 280.5,-403.5 206.5,-403.5"/>
<text text-anchor="middle" x="243.5" y="-410.5" font-family="Helvetica,sans-Serif" font-size="10.00">sitkMacro.h</text>
</a>
</g>
</g>
<!-- Node2&#45;&gt;Node3 -->
<g id="edge2" class="edge">
<title>Node2&#45;&gt;Node3</title>
<path fill="none" stroke="midnightblue" d="M333.31,-459.32C316.15,-450.66 289.55,-437.24 269.75,-427.25"/>
<polygon fill="midnightblue" stroke="midnightblue" points="271.15,-424.04 260.65,-422.65 268,-430.28 271.15,-424.04"/>
</g>
<!-- Node4 -->
<g id="node4" class="node">
<title>Node4</title>
<g id="a_node4"><a xlink:title=" ">
<polygon fill="white" stroke="#bfbfbf" points="0,-347.5 0,-366.5 53,-366.5 53,-347.5 0,-347.5"/>
<text text-anchor="middle" x="26.5" y="-354.5" font-family="Helvetica,sans-Serif" font-size="10.00">stdint.h</text>
</a>
</g>
</g>
<!-- Node3&#45;&gt;Node4 -->
<g id="edge3" class="edge">
<title>Node3&#45;&gt;Node4</title>
<path fill="none" stroke="midnightblue" d="M209.13,-403.47C174.72,-394.92 119.96,-381.32 63.12,-367.15"/>
<polygon fill="midnightblue" stroke="midnightblue" points="63.79,-363.71 53.24,-364.69 62.09,-370.5 63.79,-363.71"/>
</g>
<!-- Node5 -->
<g id="node5" class="node">
<title>Node5</title>
<g id="a_node5"><a xlink:title=" ">
<polygon fill="white" stroke="#bfbfbf" points="71.5,-347.5 71.5,-366.5 127.5,-366.5 127.5,-347.5 71.5,-347.5"/>
<text text-anchor="middle" x="99.5" y="-354.5" font-family="Helvetica,sans-Serif" font-size="10.00">stddef.h</text>
</a>
</g>
</g>
<!-- Node3&#45;&gt;Node5 -->
<g id="edge4" class="edge">
<title>Node3&#45;&gt;Node5</title>
<path fill="none" stroke="midnightblue" d="M220.68,-403.44C196.67,-394.44 158.67,-380.19 131.63,-370.05"/>
<polygon fill="midnightblue" stroke="midnightblue" points="132.8,-366.75 122.21,-366.52 130.34,-373.3 132.8,-366.75"/>
</g>
<!-- Node6 -->
<g id="node6" class="node">
<title>Node6</title>
<g id="a_node6"><a xlink:title=" ">
<polygon fill="white" stroke="#bfbfbf" points="145.5,-347.5 145.5,-366.5 197.5,-366.5 197.5,-347.5 145.5,-347.5"/>
<text text-anchor="middle" x="171.5" y="-354.5" font-family="Helvetica,sans-Serif" font-size="10.00">cassert</text>
</a>
</g>
</g>
<!-- Node3&#45;&gt;Node6 -->
<g id="edge5" class="edge">
<title>Node3&#45;&gt;Node6</title>
<path fill="none" stroke="midnightblue" d="M231.93,-403.32C221.08,-395.18 204.62,-382.84 191.62,-373.09"/>
<polygon fill="midnightblue" stroke="midnightblue" points="193.38,-370.03 183.28,-366.83 189.18,-375.63 193.38,-370.03"/>
</g>
<!-- Node7 -->
<g id="node7" class="node">
<title>Node7</title>
<g id="a_node7"><a xlink:title=" ">
<polygon fill="white" stroke="#bfbfbf" points="215.5,-347.5 215.5,-366.5 271.5,-366.5 271.5,-347.5 215.5,-347.5"/>
<text text-anchor="middle" x="243.5" y="-354.5" font-family="Helvetica,sans-Serif" font-size="10.00">sstream</text>
</a>
</g>
</g>
<!-- Node3&#45;&gt;Node7 -->
<g id="edge6" class="edge">
<title>Node3&#45;&gt;Node7</title>
<path fill="none" stroke="midnightblue" d="M243.5,-403.08C243.5,-396.01 243.5,-385.86 243.5,-376.99"/>
<polygon fill="midnightblue" stroke="midnightblue" points="247,-376.75 243.5,-366.75 240,-376.75 247,-376.75"/>
</g>
<!-- Node8 -->
<g id="node8" class="node">
<title>Node8</title>
<g id="a_node8"><a xlink:title=" ">
<polygon fill="white" stroke="#bfbfbf" points="289.5,-347.5 289.5,-366.5 333.5,-366.5 333.5,-347.5 289.5,-347.5"/>
<text text-anchor="middle" x="311.5" y="-354.5" font-family="Helvetica,sans-Serif" font-size="10.00">limits</text>
</a>
</g>
</g>
<!-- Node3&#45;&gt;Node8 -->
<g id="edge7" class="edge">
<title>Node3&#45;&gt;Node8</title>
<path fill="none" stroke="midnightblue" d="M254.43,-403.32C264.67,-395.18 280.22,-382.84 292.5,-373.09"/>
<polygon fill="midnightblue" stroke="midnightblue" points="294.72,-375.79 300.38,-366.83 290.37,-370.31 294.72,-375.79"/>
</g>
<!-- Node9 -->
<g id="node9" class="node">
<title>Node9</title>
<g id="a_node9"><a xlink:href="sitkConfigure_8h.html" target="_top" xlink:title=" ">
<polygon fill="white" stroke="black" points="351.5,-347.5 351.5,-366.5 441.5,-366.5 441.5,-347.5 351.5,-347.5"/>
<text text-anchor="middle" x="396.5" y="-354.5" font-family="Helvetica,sans-Serif" font-size="10.00">sitkConfigure.h</text>
</a>
</g>
</g>
<!-- Node3&#45;&gt;Node9 -->
<g id="edge8" class="edge">
<title>Node3&#45;&gt;Node9</title>
<path fill="none" stroke="midnightblue" d="M267.74,-403.44C293.37,-394.4 333.99,-380.06 362.74,-369.92"/>
<polygon fill="midnightblue" stroke="midnightblue" points="364.11,-373.15 372.37,-366.52 361.78,-366.54 364.11,-373.15"/>
</g>
<!-- Node11 -->
<g id="node11" class="node">
<title>Node11</title>
<g id="a_node11"><a target="_parent" xlink:href="https://www.itk.org/Doxygen/html/itkRegion_8h.html" xlink:title=" ">
<polygon fill="white" stroke="black" points="695.5,-403.5 695.5,-422.5 767.5,-422.5 767.5,-403.5 695.5,-403.5"/>
<text text-anchor="middle" x="731.5" y="-410.5" font-family="Helvetica,sans-Serif" font-size="10.00">itkRegion.h</text>
</a>
</g>
</g>
<!-- Node10&#45;&gt;Node11 -->
<g id="edge10" class="edge">
<title>Node10&#45;&gt;Node11</title>
<path fill="none" stroke="midnightblue" d="M589.28,-459.44C617.83,-450.32 663.23,-435.81 695.04,-425.65"/>
<polygon fill="midnightblue" stroke="midnightblue" points="696.39,-428.89 704.85,-422.52 694.26,-422.23 696.39,-428.89"/>
</g>
<!-- Node24 -->
<g id="node24" class="node">
<title>Node24</title>
<g id="a_node24"><a target="_parent" xlink:href="https://www.itk.org/Doxygen/html/itkSize_8h.html" xlink:title=" ">
<polygon fill="white" stroke="black" points="672,-235.5 672,-254.5 731,-254.5 731,-235.5 672,-235.5"/>
<text text-anchor="middle" x="701.5" y="-242.5" font-family="Helvetica,sans-Serif" font-size="10.00">itkSize.h</text>
</a>
</g>
</g>
<!-- Node10&#45;&gt;Node24 -->
<g id="edge30" class="edge">
<title>Node10&#45;&gt;Node24</title>
<path fill="none" stroke="midnightblue" d="M581.83,-459.48C597.14,-451.87 618.11,-439.39 631.5,-423 671.5,-374.02 690.81,-299.36 698.02,-264.78"/>
<polygon fill="midnightblue" stroke="midnightblue" points="701.51,-265.18 700.01,-254.69 694.64,-263.82 701.51,-265.18"/>
</g>
<!-- Node25 -->
<g id="node25" class="node">
<title>Node25</title>
<g id="a_node25"><a target="_parent" xlink:href="https://www.itk.org/Doxygen/html/itkContinuousIndex_8h.html" xlink:title=" ">
<polygon fill="white" stroke="black" points="502.5,-403.5 502.5,-422.5 622.5,-422.5 622.5,-403.5 502.5,-403.5"/>
<text text-anchor="middle" x="562.5" y="-410.5" font-family="Helvetica,sans-Serif" font-size="10.00">itkContinuousIndex.h</text>
</a>
</g>
</g>
<!-- Node10&#45;&gt;Node25 -->
<g id="edge33" class="edge">
<title>Node10&#45;&gt;Node25</title>
<path fill="none" stroke="midnightblue" d="M562.5,-459.08C562.5,-452.01 562.5,-441.86 562.5,-432.99"/>
<polygon fill="midnightblue" stroke="midnightblue" points="566,-432.75 562.5,-422.75 559,-432.75 566,-432.75"/>
</g>
<!-- Node31 -->
<g id="node31" class="node">
<title>Node31</title>
<g id="a_node31"><a target="_parent" xlink:href="https://www.itk.org/Doxygen/html/itkMath_8h.html" xlink:title=" ">
<polygon fill="white" stroke="black" points="438,-235.5 438,-254.5 501,-254.5 501,-235.5 438,-235.5"/>
<text text-anchor="middle" x="469.5" y="-242.5" font-family="Helvetica,sans-Serif" font-size="10.00">itkMath.h</text>
</a>
</g>
</g>
<!-- Node10&#45;&gt;Node31 -->
<g id="edge56" class="edge">
<title>Node10&#45;&gt;Node31</title>
<path fill="none" stroke="midnightblue" d="M540.09,-459.39C524.4,-452.13 504.35,-440.16 493.5,-423 461.78,-372.84 464.07,-298.77 467.25,-264.56"/>
<polygon fill="midnightblue" stroke="midnightblue" points="470.74,-264.89 468.32,-254.58 463.78,-264.15 470.74,-264.89"/>
</g>
<!-- Node12 -->
<g id="node12" class="node">
<title>Node12</title>
<g id="a_node12"><a target="_parent" xlink:href="https://www.itk.org/Doxygen/html/itkObject_8h.html" xlink:title=" ">
<polygon fill="white" stroke="black" points="909.5,-347.5 909.5,-366.5 979.5,-366.5 979.5,-347.5 909.5,-347.5"/>
<text text-anchor="middle" x="944.5" y="-354.5" font-family="Helvetica,sans-Serif" font-size="10.00">itkObject.h</text>
</a>
</g>
</g>
<!-- Node11&#45;&gt;Node12 -->
<g id="edge11" class="edge">
<title>Node11&#45;&gt;Node12</title>
<path fill="none" stroke="midnightblue" d="M765.25,-403.44C802.02,-394.12 860.95,-379.18 901.12,-369"/>
<polygon fill="midnightblue" stroke="midnightblue" points="902.07,-372.37 910.91,-366.52 900.35,-365.58 902.07,-372.37"/>
</g>
<!-- Node23 -->
<g id="node23" class="node">
<title>Node23</title>
<g id="a_node23"><a target="_parent" xlink:href="https://www.itk.org/Doxygen/html/itkCommonEnums_8h.html" xlink:title=" ">
<polygon fill="white" stroke="black" points="564.5,-179.5 564.5,-198.5 680.5,-198.5 680.5,-179.5 564.5,-179.5"/>
<text text-anchor="middle" x="622.5" y="-186.5" font-family="Helvetica,sans-Serif" font-size="10.00">itkCommonEnums.h</text>
</a>
</g>
</g>
<!-- Node11&#45;&gt;Node23 -->
<g id="edge28" class="edge">
<title>Node11&#45;&gt;Node23</title>
<path fill="none" stroke="midnightblue" d="M727.23,-403.3C711.09,-370.42 653.62,-253.39 631.38,-208.09"/>
<polygon fill="midnightblue" stroke="midnightblue" points="634.41,-206.32 626.86,-198.88 628.13,-209.4 634.41,-206.32"/>
</g>
<!-- Node13 -->
<g id="node13" class="node">
<title>Node13</title>
<g id="a_node13"><a target="_parent" xlink:href="https://www.itk.org/Doxygen/html/itkLightObject_8h.html" xlink:title=" ">
<polygon fill="white" stroke="black" points="898.5,-179.5 898.5,-198.5 992.5,-198.5 992.5,-179.5 898.5,-179.5"/>
<text text-anchor="middle" x="945.5" y="-186.5" font-family="Helvetica,sans-Serif" font-size="10.00">itkLightObject.h</text>
</a>
</g>
</g>
<!-- Node12&#45;&gt;Node13 -->
<g id="edge12" class="edge">
<title>Node12&#45;&gt;Node13</title>
<path fill="none" stroke="midnightblue" d="M972.66,-347.37C989.95,-340.47 1010.77,-328.94 1021.5,-311 1034.28,-289.62 1023.06,-279.9 1023.5,-255 1023.66,-246.11 1027.95,-242.7 1023.5,-235 1014.82,-219.98 999.01,-209.52 983.88,-202.5"/>
<polygon fill="midnightblue" stroke="midnightblue" points="985.19,-199.25 974.62,-198.56 982.45,-205.69 985.19,-199.25"/>
</g>
<!-- Node18 -->
<g id="node18" class="node">
<title>Node18</title>
<g id="a_node18"><a target="_parent" xlink:href="https://www.itk.org/Doxygen/html/itkSingletonMacro_8h.html" xlink:title=" ">
<polygon fill="white" stroke="black" points="1021.5,-67.5 1021.5,-86.5 1135.5,-86.5 1135.5,-67.5 1021.5,-67.5"/>
<text text-anchor="middle" x="1078.5" y="-74.5" font-family="Helvetica,sans-Serif" font-size="10.00">itkSingletonMacro.h</text>
</a>
</g>
</g>
<!-- Node12&#45;&gt;Node18 -->
<g id="edge27" class="edge">
<title>Node12&#45;&gt;Node18</title>
<path fill="none" stroke="midnightblue" d="M979.62,-352.49C1036.75,-344.62 1143.5,-320.02 1143.5,-246 1143.5,-246 1143.5,-246 1143.5,-188 1143.5,-157.9 1139.98,-148.81 1124.5,-123 1117.72,-111.7 1107.43,-101.27 1098.3,-93.3"/>
<polygon fill="midnightblue" stroke="midnightblue" points="1100.3,-90.41 1090.37,-86.71 1095.83,-95.79 1100.3,-90.41"/>
</g>
<!-- Node20 -->
<g id="node20" class="node">
<title>Node20</title>
<g id="a_node20"><a target="_parent" xlink:href="https://www.itk.org/Doxygen/html/itkEventObject_8h.html" xlink:title=" ">
<polygon fill="white" stroke="black" points="760.5,-291.5 760.5,-310.5 858.5,-310.5 858.5,-291.5 760.5,-291.5"/>
<text text-anchor="middle" x="809.5" y="-298.5" font-family="Helvetica,sans-Serif" font-size="10.00">itkEventObject.h</text>
</a>
</g>
</g>
<!-- Node12&#45;&gt;Node20 -->
<g id="edge22" class="edge">
<title>Node12&#45;&gt;Node20</title>
<path fill="none" stroke="midnightblue" d="M923.11,-347.44C900.79,-338.52 865.6,-324.44 840.29,-314.32"/>
<polygon fill="midnightblue" stroke="midnightblue" points="841.38,-310.98 830.79,-310.52 838.78,-317.48 841.38,-310.98"/>
</g>
<!-- Node21 -->
<g id="node21" class="node">
<title>Node21</title>
<g id="a_node21"><a target="_parent" xlink:href="https://www.itk.org/Doxygen/html/itkMetaDataDictionary_8h.html" xlink:title=" ">
<polygon fill="white" stroke="black" points="877,-291.5 877,-310.5 1012,-310.5 1012,-291.5 877,-291.5"/>
<text text-anchor="middle" x="944.5" y="-298.5" font-family="Helvetica,sans-Serif" font-size="10.00">itkMetaDataDictionary.h</text>
</a>
</g>
</g>
<!-- Node12&#45;&gt;Node21 -->
<g id="edge24" class="edge">
<title>Node12&#45;&gt;Node21</title>
<path fill="none" stroke="midnightblue" d="M944.5,-347.08C944.5,-340.01 944.5,-329.86 944.5,-320.99"/>
<polygon fill="midnightblue" stroke="midnightblue" points="948,-320.75 944.5,-310.75 941,-320.75 948,-320.75"/>
</g>
<!-- Node14 -->
<g id="node14" class="node">
<title>Node14</title>
<g id="a_node14"><a target="_parent" xlink:href="https://www.itk.org/Doxygen/html/itkMacro_8h.html" xlink:title=" ">
<polygon fill="white" stroke="black" points="678.5,-6 678.5,-25 746.5,-25 746.5,-6 678.5,-6"/>
<text text-anchor="middle" x="712.5" y="-13" font-family="Helvetica,sans-Serif" font-size="10.00">itkMacro.h</text>
</a>
</g>
</g>
<!-- Node13&#45;&gt;Node14 -->
<g id="edge13" class="edge">
<title>Node13&#45;&gt;Node14</title>
<path fill="none" stroke="midnightblue" d="M934.08,-179.44C907.55,-159.57 839.67,-108.84 782.5,-67 765.83,-54.8 746.83,-41.1 732.83,-31.05"/>
<polygon fill="midnightblue" stroke="midnightblue" points="734.59,-28.01 724.43,-25.03 730.51,-33.7 734.59,-28.01"/>
</g>
<!-- Node15 -->
<g id="node15" class="node">
<title>Node15</title>
<g id="a_node15"><a target="_parent" xlink:href="https://www.itk.org/Doxygen/html/itkSmartPointer_8h.html" xlink:title=" ">
<polygon fill="white" stroke="black" points="1014,-123.5 1014,-142.5 1115,-142.5 1115,-123.5 1014,-123.5"/>
<text text-anchor="middle" x="1064.5" y="-130.5" font-family="Helvetica,sans-Serif" font-size="10.00">itkSmartPointer.h</text>
</a>
</g>
</g>
<!-- Node13&#45;&gt;Node15 -->
<g id="edge14" class="edge">
<title>Node13&#45;&gt;Node15</title>
<path fill="none" stroke="midnightblue" d="M964.36,-179.44C983.77,-170.64 1014.23,-156.81 1036.46,-146.72"/>
<polygon fill="midnightblue" stroke="midnightblue" points="1038.07,-149.84 1045.73,-142.52 1035.18,-143.46 1038.07,-149.84"/>
</g>
<!-- Node16 -->
<g id="node16" class="node">
<title>Node16</title>
<g id="a_node16"><a target="_parent" xlink:href="https://www.itk.org/Doxygen/html/itkTimeStamp_8h.html" xlink:title=" ">
<polygon fill="white" stroke="black" points="901,-123.5 901,-142.5 996,-142.5 996,-123.5 901,-123.5"/>
<text text-anchor="middle" x="948.5" y="-130.5" font-family="Helvetica,sans-Serif" font-size="10.00">itkTimeStamp.h</text>
</a>
</g>
</g>
<!-- Node13&#45;&gt;Node16 -->
<g id="edge15" class="edge">
<title>Node13&#45;&gt;Node16</title>
<path fill="none" stroke="midnightblue" d="M946,-179.08C946.39,-172.01 946.95,-161.86 947.45,-152.99"/>
<polygon fill="midnightblue" stroke="midnightblue" points="950.95,-152.93 948.01,-142.75 943.96,-152.54 950.95,-152.93"/>
</g>
<!-- Node19 -->
<g id="node19" class="node">
<title>Node19</title>
<g id="a_node19"><a target="_parent" xlink:href="https://www.itk.org/Doxygen/html/itkIndent_8h.html" xlink:title=" ">
<polygon fill="white" stroke="black" points="775,-123.5 775,-142.5 844,-142.5 844,-123.5 775,-123.5"/>
<text text-anchor="middle" x="809.5" y="-130.5" font-family="Helvetica,sans-Serif" font-size="10.00">itkIndent.h</text>
</a>
</g>
</g>
<!-- Node13&#45;&gt;Node19 -->
<g id="edge20" class="edge">
<title>Node13&#45;&gt;Node19</title>
<path fill="none" stroke="midnightblue" d="M923.95,-179.44C901.47,-170.52 866.01,-156.44 840.52,-146.32"/>
<polygon fill="midnightblue" stroke="midnightblue" points="841.53,-142.95 830.95,-142.52 838.95,-149.46 841.53,-142.95"/>
</g>
<!-- Node16&#45;&gt;Node14 -->
<g id="edge16" class="edge">
<title>Node16&#45;&gt;Node14</title>
<path fill="none" stroke="midnightblue" d="M942.69,-123.46C932.79,-109.55 911.29,-82.06 886.5,-67 846.2,-42.53 793.43,-29.4 756.62,-22.72"/>
<polygon fill="midnightblue" stroke="midnightblue" points="757.13,-19.26 746.68,-21 755.94,-26.16 757.13,-19.26"/>
</g>
<!-- Node17 -->
<g id="node17" class="node">
<title>Node17</title>
<g id="a_node17"><a target="_parent" xlink:href="https://www.itk.org/Doxygen/html/itkIntTypes_8h.html" xlink:title=" ">
<polygon fill="white" stroke="black" points="639,-67.5 639,-86.5 718,-86.5 718,-67.5 639,-67.5"/>
<text text-anchor="middle" x="678.5" y="-74.5" font-family="Helvetica,sans-Serif" font-size="10.00">itkIntTypes.h</text>
</a>
</g>
</g>
<!-- Node16&#45;&gt;Node17 -->
<g id="edge17" class="edge">
<title>Node16&#45;&gt;Node17</title>
<path fill="none" stroke="midnightblue" d="M905.72,-123.44C857.45,-113.79 779.04,-98.11 728.12,-87.92"/>
<polygon fill="midnightblue" stroke="midnightblue" points="728.5,-84.43 718.01,-85.9 727.13,-91.29 728.5,-84.43"/>
</g>
<!-- Node16&#45;&gt;Node18 -->
<g id="edge19" class="edge">
<title>Node16&#45;&gt;Node18</title>
<path fill="none" stroke="midnightblue" d="M969.1,-123.44C990.49,-114.56 1024.18,-100.56 1048.52,-90.45"/>
<polygon fill="midnightblue" stroke="midnightblue" points="1050.11,-93.58 1058,-86.52 1047.42,-87.12 1050.11,-93.58"/>
</g>
<!-- Node17&#45;&gt;Node14 -->
<g id="edge18" class="edge">
<title>Node17&#45;&gt;Node14</title>
<path fill="none" stroke="midnightblue" d="M683.37,-67.48C688.37,-58.73 696.29,-44.87 702.61,-33.81"/>
<polygon fill="midnightblue" stroke="midnightblue" points="705.72,-35.43 707.64,-25.01 699.64,-31.96 705.72,-35.43"/>
</g>
<!-- Node19&#45;&gt;Node14 -->
<g id="edge21" class="edge">
<title>Node19&#45;&gt;Node14</title>
<path fill="none" stroke="midnightblue" d="M803.46,-123.35C794.49,-110.66 776.95,-86.41 760.5,-67 750.36,-55.03 738.17,-42.23 728.62,-32.51"/>
<polygon fill="midnightblue" stroke="midnightblue" points="730.84,-29.78 721.31,-25.16 725.88,-34.72 730.84,-29.78"/>
</g>
<!-- Node20&#45;&gt;Node19 -->
<g id="edge23" class="edge">
<title>Node20&#45;&gt;Node19</title>
<path fill="none" stroke="midnightblue" d="M809.5,-291.08C809.5,-264.95 809.5,-188.21 809.5,-152.58"/>
<polygon fill="midnightblue" stroke="midnightblue" points="813,-152.57 809.5,-142.57 806,-152.57 813,-152.57"/>
</g>
<!-- Node22 -->
<g id="node22" class="node">
<title>Node22</title>
<g id="a_node22"><a target="_parent" xlink:href="https://www.itk.org/Doxygen/html/itkMetaDataObjectBase_8h.html" xlink:title=" ">
<polygon fill="white" stroke="black" points="872.5,-235.5 872.5,-254.5 1014.5,-254.5 1014.5,-235.5 872.5,-235.5"/>
<text text-anchor="middle" x="943.5" y="-242.5" font-family="Helvetica,sans-Serif" font-size="10.00">itkMetaDataObjectBase.h</text>
</a>
</g>
</g>
<!-- Node21&#45;&gt;Node22 -->
<g id="edge25" class="edge">
<title>Node21&#45;&gt;Node22</title>
<path fill="none" stroke="midnightblue" d="M944.33,-291.08C944.2,-284.01 944.02,-273.86 943.85,-264.99"/>
<polygon fill="midnightblue" stroke="midnightblue" points="947.35,-264.68 943.66,-254.75 940.35,-264.81 947.35,-264.68"/>
</g>
<!-- Node22&#45;&gt;Node13 -->
<g id="edge26" class="edge">
<title>Node22&#45;&gt;Node13</title>
<path fill="none" stroke="midnightblue" d="M943.83,-235.08C944.09,-228.01 944.47,-217.86 944.8,-208.99"/>
<polygon fill="midnightblue" stroke="midnightblue" points="948.3,-208.87 945.18,-198.75 941.31,-208.61 948.3,-208.87"/>
</g>
<!-- Node23&#45;&gt;Node17 -->
<g id="edge29" class="edge">
<title>Node23&#45;&gt;Node17</title>
<path fill="none" stroke="midnightblue" d="M626.89,-179.37C636.05,-161.38 657.35,-119.55 669.53,-95.63"/>
<polygon fill="midnightblue" stroke="midnightblue" points="672.71,-97.09 674.13,-86.59 666.47,-93.92 672.71,-97.09"/>
</g>
<!-- Node24&#45;&gt;Node14 -->
<g id="edge32" class="edge">
<title>Node24&#45;&gt;Node14</title>
<path fill="none" stroke="midnightblue" d="M704.48,-235.16C712.83,-209.31 735.29,-131.58 726.5,-67 725.02,-56.13 721.83,-44.29 718.86,-34.81"/>
<polygon fill="midnightblue" stroke="midnightblue" points="722.18,-33.69 715.72,-25.29 715.53,-35.88 722.18,-33.69"/>
</g>
<!-- Node24&#45;&gt;Node17 -->
<g id="edge31" class="edge">
<title>Node24&#45;&gt;Node17</title>
<path fill="none" stroke="midnightblue" d="M700.26,-235.08C696.64,-208.95 686.01,-132.21 681.07,-96.58"/>
<polygon fill="midnightblue" stroke="midnightblue" points="684.53,-95.99 679.69,-86.57 677.59,-96.95 684.53,-95.99"/>
</g>
<!-- Node26 -->
<g id="node26" class="node">
<title>Node26</title>
<g id="a_node26"><a target="_parent" xlink:href="https://www.itk.org/Doxygen/html/itkPoint_8h.html" xlink:title=" ">
<polygon fill="white" stroke="black" points="305,-291.5 305,-310.5 368,-310.5 368,-291.5 305,-291.5"/>
<text text-anchor="middle" x="336.5" y="-298.5" font-family="Helvetica,sans-Serif" font-size="10.00">itkPoint.h</text>
</a>
</g>
</g>
<!-- Node25&#45;&gt;Node26 -->
<g id="edge34" class="edge">
<title>Node25&#45;&gt;Node26</title>
<path fill="none" stroke="midnightblue" d="M549.07,-403.32C528.4,-390.16 487.33,-364.83 450.5,-347 424.48,-334.4 393.96,-322.5 371.05,-314.1"/>
<polygon fill="midnightblue" stroke="midnightblue" points="372.01,-310.73 361.42,-310.61 369.63,-317.31 372.01,-310.73"/>
</g>
<!-- Node35 -->
<g id="node35" class="node">
<title>Node35</title>
<g id="a_node35"><a target="_parent" xlink:href="https://www.itk.org/Doxygen/html/itkIndex_8h.html" xlink:title=" ">
<polygon fill="white" stroke="black" points="536,-347.5 536,-366.5 601,-366.5 601,-347.5 536,-347.5"/>
<text text-anchor="middle" x="568.5" y="-354.5" font-family="Helvetica,sans-Serif" font-size="10.00">itkIndex.h</text>
</a>
</g>
</g>
<!-- Node25&#45;&gt;Node35 -->
<g id="edge52" class="edge">
<title>Node25&#45;&gt;Node35</title>
<path fill="none" stroke="midnightblue" d="M563.49,-403.08C564.29,-395.93 565.43,-385.64 566.42,-376.69"/>
<polygon fill="midnightblue" stroke="midnightblue" points="569.9,-377.08 567.53,-366.75 562.94,-376.3 569.9,-377.08"/>
</g>
<!-- Node27 -->
<g id="node27" class="node">
<title>Node27</title>
<g id="a_node27"><a target="_parent" xlink:href="https://www.itk.org/Doxygen/html/itkNumericTraits_8h.html" xlink:title=" ">
<polygon fill="white" stroke="black" points="325.5,-123.5 325.5,-142.5 431.5,-142.5 431.5,-123.5 325.5,-123.5"/>
<text text-anchor="middle" x="378.5" y="-130.5" font-family="Helvetica,sans-Serif" font-size="10.00">itkNumericTraits.h</text>
</a>
</g>
</g>
<!-- Node26&#45;&gt;Node27 -->
<g id="edge35" class="edge">
<title>Node26&#45;&gt;Node27</title>
<path fill="none" stroke="midnightblue" d="M329.82,-291.23C314.9,-270.48 281.83,-217.27 303.5,-179 311.85,-164.26 327.16,-153.82 341.79,-146.73"/>
<polygon fill="midnightblue" stroke="midnightblue" points="343.5,-149.8 351.22,-142.55 340.66,-143.4 343.5,-149.8"/>
</g>
<!-- Node30 -->
<g id="node30" class="node">
<title>Node30</title>
<g id="a_node30"><a target="_parent" xlink:href="https://www.itk.org/Doxygen/html/itkVector_8h.html" xlink:title=" ">
<polygon fill="white" stroke="black" points="188.5,-235.5 188.5,-254.5 256.5,-254.5 256.5,-235.5 188.5,-235.5"/>
<text text-anchor="middle" x="222.5" y="-242.5" font-family="Helvetica,sans-Serif" font-size="10.00">itkVector.h</text>
</a>
</g>
</g>
<!-- Node26&#45;&gt;Node30 -->
<g id="edge42" class="edge">
<title>Node26&#45;&gt;Node30</title>
<path fill="none" stroke="midnightblue" d="M318.44,-291.44C299.93,-282.68 270.92,-268.94 249.64,-258.86"/>
<polygon fill="midnightblue" stroke="midnightblue" points="251.01,-255.63 240.48,-254.52 248.02,-261.96 251.01,-255.63"/>
</g>
<!-- Node26&#45;&gt;Node31 -->
<g id="edge44" class="edge">
<title>Node26&#45;&gt;Node31</title>
<path fill="none" stroke="midnightblue" d="M357.57,-291.44C379.56,-282.52 414.23,-268.44 439.16,-258.32"/>
<polygon fill="midnightblue" stroke="midnightblue" points="440.58,-261.52 448.52,-254.52 437.94,-255.04 440.58,-261.52"/>
</g>
<!-- Node27&#45;&gt;Node14 -->
<g id="edge36" class="edge">
<title>Node27&#45;&gt;Node14</title>
<path fill="none" stroke="midnightblue" d="M393.48,-123.31C417.48,-109.68 466.37,-83.17 510.5,-67 563.38,-47.62 626.71,-33.13 668.19,-24.75"/>
<polygon fill="midnightblue" stroke="midnightblue" points="669.12,-28.13 678.24,-22.75 667.75,-21.27 669.12,-28.13"/>
</g>
<!-- Node28 -->
<g id="node28" class="node">
<title>Node28</title>
<g id="a_node28"><a target="_parent" xlink:href="https://www.itk.org/Doxygen/html/itkFixedArray_8h.html" xlink:title=" ">
<polygon fill="white" stroke="black" points="341,-67.5 341,-86.5 430,-86.5 430,-67.5 341,-67.5"/>
<text text-anchor="middle" x="385.5" y="-74.5" font-family="Helvetica,sans-Serif" font-size="10.00">itkFixedArray.h</text>
</a>
</g>
</g>
<!-- Node27&#45;&gt;Node28 -->
<g id="edge37" class="edge">
<title>Node27&#45;&gt;Node28</title>
<path fill="none" stroke="midnightblue" d="M379.66,-123.08C380.58,-115.93 381.92,-105.64 383.08,-96.69"/>
<polygon fill="midnightblue" stroke="midnightblue" points="386.55,-97.12 384.37,-86.75 379.61,-96.22 386.55,-97.12"/>
</g>
<!-- Node28&#45;&gt;Node14 -->
<g id="edge38" class="edge">
<title>Node28&#45;&gt;Node14</title>
<path fill="none" stroke="midnightblue" d="M430.28,-67.85C492.91,-56.46 605.97,-35.88 668.29,-24.54"/>
<polygon fill="midnightblue" stroke="midnightblue" points="669,-27.97 678.21,-22.74 667.75,-21.09 669,-27.97"/>
</g>
<!-- Node29 -->
<g id="node29" class="node">
<title>Node29</title>
<g id="a_node29"><a target="_parent" xlink:href="https://www.itk.org/Doxygen/html/itkNumericTraitsFixedArrayPixel_8h.html" xlink:title=" ">
<polygon fill="white" stroke="black" points="311,-0.5 311,-30.5 460,-30.5 460,-0.5 311,-0.5"/>
<text text-anchor="start" x="319" y="-18.5" font-family="Helvetica,sans-Serif" font-size="10.00">itkNumericTraitsFixedArray</text>
<text text-anchor="middle" x="385.5" y="-7.5" font-family="Helvetica,sans-Serif" font-size="10.00">Pixel.h</text>
</a>
</g>
</g>
<!-- Node28&#45;&gt;Node29 -->
<g id="edge39" class="edge">
<title>Node28&#45;&gt;Node29</title>
<path fill="none" stroke="midnightblue" d="M380.6,-67.48C379.07,-60.47 378.49,-50.19 378.86,-40.7"/>
<polygon fill="midnightblue" stroke="midnightblue" points="382.36,-40.77 379.67,-30.52 375.38,-40.21 382.36,-40.77"/>
</g>
<!-- Node29&#45;&gt;Node27 -->
<g id="edge40" class="edge">
<title>Node29&#45;&gt;Node27</title>
<path fill="none" stroke="midnightblue" d="M363.13,-30.65C351.33,-39.5 337.99,-52.05 331.5,-67 323.31,-85.86 340.21,-104.59 355.97,-117.06"/>
<polygon fill="midnightblue" stroke="midnightblue" points="354.32,-120.19 364.45,-123.31 358.47,-114.56 354.32,-120.19"/>
</g>
<!-- Node29&#45;&gt;Node28 -->
<g id="edge41" class="edge">
<title>Node29&#45;&gt;Node28</title>
<path fill="none" stroke="midnightblue" d="M391.33,-30.52C392.37,-38.59 392.53,-48.81 391.8,-57.53"/>
<polygon fill="midnightblue" stroke="midnightblue" points="388.33,-57.09 390.4,-67.48 395.26,-58.06 388.33,-57.09"/>
</g>
<!-- Node30&#45;&gt;Node28 -->
<g id="edge43" class="edge">
<title>Node30&#45;&gt;Node28</title>
<path fill="none" stroke="midnightblue" d="M227.81,-235.29C240.94,-214.23 276.77,-159.58 316.5,-123 329.67,-110.88 346.44,-99.86 360.16,-91.75"/>
<polygon fill="midnightblue" stroke="midnightblue" points="362.15,-94.65 369.08,-86.63 358.67,-88.58 362.15,-94.65"/>
</g>
<!-- Node32 -->
<g id="node32" class="node">
<title>Node32</title>
<g id="a_node32"><a target="_parent" xlink:href="https://www.itk.org/Doxygen/html/itkMathDetail_8h.html" xlink:title=" ">
<polygon fill="white" stroke="black" points="454.5,-179.5 454.5,-198.5 546.5,-198.5 546.5,-179.5 454.5,-179.5"/>
<text text-anchor="middle" x="500.5" y="-186.5" font-family="Helvetica,sans-Serif" font-size="10.00">itkMathDetail.h</text>
</a>
</g>
</g>
<!-- Node31&#45;&gt;Node32 -->
<g id="edge45" class="edge">
<title>Node31&#45;&gt;Node32</title>
<path fill="none" stroke="midnightblue" d="M474.62,-235.08C478.91,-227.61 485.16,-216.72 490.44,-207.52"/>
<polygon fill="midnightblue" stroke="midnightblue" points="493.53,-209.17 495.48,-198.75 487.46,-205.68 493.53,-209.17"/>
</g>
<!-- Node33 -->
<g id="node33" class="node">
<title>Node33</title>
<g id="a_node33"><a target="_parent" xlink:href="https://www.itk.org/Doxygen/html/itkConceptChecking_8h.html" xlink:title=" ">
<polygon fill="white" stroke="black" points="313,-179.5 313,-198.5 436,-198.5 436,-179.5 313,-179.5"/>
<text text-anchor="middle" x="374.5" y="-186.5" font-family="Helvetica,sans-Serif" font-size="10.00">itkConceptChecking.h</text>
</a>
</g>
</g>
<!-- Node31&#45;&gt;Node33 -->
<g id="edge48" class="edge">
<title>Node31&#45;&gt;Node33</title>
<path fill="none" stroke="midnightblue" d="M454.24,-235.32C439.28,-226.82 416.25,-213.73 398.77,-203.8"/>
<polygon fill="midnightblue" stroke="midnightblue" points="400.15,-200.55 389.73,-198.65 396.69,-206.64 400.15,-200.55"/>
</g>
<!-- Node32&#45;&gt;Node17 -->
<g id="edge46" class="edge">
<title>Node32&#45;&gt;Node17</title>
<path fill="none" stroke="midnightblue" d="M514.47,-179.37C545.14,-160.41 618.63,-115 655.94,-91.94"/>
<polygon fill="midnightblue" stroke="midnightblue" points="657.93,-94.83 664.6,-86.59 654.25,-88.87 657.93,-94.83"/>
</g>
<!-- Node32&#45;&gt;Node27 -->
<g id="edge47" class="edge">
<title>Node32&#45;&gt;Node27</title>
<path fill="none" stroke="midnightblue" d="M481.17,-179.44C461.18,-170.6 429.76,-156.69 406.94,-146.59"/>
<polygon fill="midnightblue" stroke="midnightblue" points="408.3,-143.36 397.74,-142.52 405.47,-149.76 408.3,-143.36"/>
</g>
<!-- Node33&#45;&gt;Node27 -->
<g id="edge51" class="edge">
<title>Node33&#45;&gt;Node27</title>
<path fill="none" stroke="midnightblue" d="M375.16,-179.08C375.68,-172.01 376.44,-161.86 377.09,-152.99"/>
<polygon fill="midnightblue" stroke="midnightblue" points="380.6,-152.98 377.85,-142.75 373.62,-152.47 380.6,-152.98"/>
</g>
<!-- Node34 -->
<g id="node34" class="node">
<title>Node34</title>
<g id="a_node34"><a target="_parent" xlink:href="https://www.itk.org/Doxygen/html/itkPixelTraits_8h.html" xlink:title=" ">
<polygon fill="white" stroke="black" points="519.5,-67.5 519.5,-86.5 607.5,-86.5 607.5,-67.5 519.5,-67.5"/>
<text text-anchor="middle" x="563.5" y="-74.5" font-family="Helvetica,sans-Serif" font-size="10.00">itkPixelTraits.h</text>
</a>
</g>
</g>
<!-- Node33&#45;&gt;Node34 -->
<g id="edge49" class="edge">
<title>Node33&#45;&gt;Node34</title>
<path fill="none" stroke="midnightblue" d="M389.33,-179.37C422.04,-160.33 500.59,-114.62 540.05,-91.65"/>
<polygon fill="midnightblue" stroke="midnightblue" points="541.86,-94.65 548.74,-86.59 538.34,-88.6 541.86,-94.65"/>
</g>
<!-- Node34&#45;&gt;Node14 -->
<g id="edge50" class="edge">
<title>Node34&#45;&gt;Node14</title>
<path fill="none" stroke="midnightblue" d="M584.85,-67.48C610.19,-57.36 652.64,-40.4 681.57,-28.85"/>
<polygon fill="midnightblue" stroke="midnightblue" points="683.2,-31.97 691.19,-25.01 680.61,-25.47 683.2,-31.97"/>
</g>
<!-- Node36 -->
<g id="node36" class="node">
<title>Node36</title>
<g id="a_node36"><a target="_parent" xlink:href="https://www.itk.org/Doxygen/html/itkOffset_8h.html" xlink:title=" ">
<polygon fill="white" stroke="black" points="533.5,-291.5 533.5,-310.5 601.5,-310.5 601.5,-291.5 533.5,-291.5"/>
<text text-anchor="middle" x="567.5" y="-298.5" font-family="Helvetica,sans-Serif" font-size="10.00">itkOffset.h</text>
</a>
</g>
</g>
<!-- Node35&#45;&gt;Node36 -->
<g id="edge53" class="edge">
<title>Node35&#45;&gt;Node36</title>
<path fill="none" stroke="midnightblue" d="M568.33,-347.08C568.2,-340.01 568.02,-329.86 567.85,-320.99"/>
<polygon fill="midnightblue" stroke="midnightblue" points="571.35,-320.68 567.66,-310.75 564.35,-320.81 571.35,-320.68"/>
</g>
<!-- Node36&#45;&gt;Node24 -->
<g id="edge54" class="edge">
<title>Node36&#45;&gt;Node24</title>
<path fill="none" stroke="midnightblue" d="M588.73,-291.44C610.88,-282.52 645.82,-268.44 670.94,-258.32"/>
<polygon fill="midnightblue" stroke="midnightblue" points="672.4,-261.5 680.37,-254.52 669.78,-255.01 672.4,-261.5"/>
</g>
<!-- Node36&#45;&gt;Node31 -->
<g id="edge55" class="edge">
<title>Node36&#45;&gt;Node31</title>
<path fill="none" stroke="midnightblue" d="M551.75,-291.32C536.18,-282.74 512.12,-269.49 494.04,-259.52"/>
<polygon fill="midnightblue" stroke="midnightblue" points="495.65,-256.42 485.21,-254.65 492.28,-262.55 495.65,-256.42"/>
</g>
</g>
</svg>
        <g id="navigator" transform="translate(0 0)" fill="#404254">
                <rect fill="#f2f5e9" fill-opacity="0.5" stroke="#606060" stroke-width=".5" x="0" y="0" width="60" height="60"/>
                <use id="zoomplus" xlink:href="#zoomPlus" x="17" y="9" onmousedown="handleZoom(evt,'in')"/>
                <use id="zoomminus" xlink:href="#zoomMin" x="42" y="9" onmousedown="handleZoom(evt,'out')"/>
                <use id="reset" xlink:href="#resetDef" x="30" y="36" onmousedown="handleReset()"/>
                <g id="arrowUp" xlink:href="#dirArrow" transform="translate(30 24)" onmousedown="handlePan(0,-1)">
                  <use xlink:href="#rim" fill="#404040">
                        <set attributeName="fill" to="#808080" begin="arrowUp.mouseover" end="arrowUp.mouseout"/>
                  </use>
                  <path fill="none" stroke="white" stroke-width="1.5" d="M0,-3.0v7 M-2.5,-0.5L0,-3.0L2.5,-0.5"/>
                </g>
                <g id="arrowRight" xlink:href="#dirArrow" transform="rotate(90) translate(36 -43)" onmousedown="handlePan(1,0)">
                  <use xlink:href="#rim" fill="#404040">
                        <set attributeName="fill" to="#808080" begin="arrowRight.mouseover" end="arrowRight.mouseout"/>
                  </use>
                  <path fill="none" stroke="white" stroke-width="1.5" d="M0,-3.0v7 M-2.5,-0.5L0,-3.0L2.5,-0.5"/>
                </g>
                <g id="arrowDown" xlink:href="#dirArrow" transform="rotate(180) translate(-30 -48)" onmousedown="handlePan(0,1)">
                  <use xlink:href="#rim" fill="#404040">
                        <set attributeName="fill" to="#808080" begin="arrowDown.mouseover" end="arrowDown.mouseout"/>
                  </use>
                  <path fill="none" stroke="white" stroke-width="1.5" d="M0,-3.0v7 M-2.5,-0.5L0,-3.0L2.5,-0.5"/>
                </g>
                <g id="arrowLeft" xlink:href="#dirArrow" transform="rotate(270) translate(-36 17)" onmousedown="handlePan(-1,0)">
                  <use xlink:href="#rim" fill="#404040">
                        <set attributeName="fill" to="#808080" begin="arrowLeft.mouseover" end="arrowLeft.mouseout"/>
                  </use>
                  <path fill="none" stroke="white" stroke-width="1.5" d="M0,-3.0v7 M-2.5,-0.5L0,-3.0L2.5,-0.5"/>
                </g>
        </g>
        <svg viewBox="0 0 15 15" width="100%" height="30px" preserveAspectRatio="xMaxYMin meet">
         <g id="arrow_out" transform="scale(0.3 0.3)">
          <a xlink:href="sitkExplicitITKImageRegion_8h__incl_org.svg" target="_base">
           <rect id="button" ry="5" rx="5" y="6" x="6" height="38" width="38"
                fill="#f2f5e9" fill-opacity="0.5" stroke="#606060" stroke-width="1.0"/>
           <path id="arrow"
             d="M 11.500037,31.436501 C 11.940474,20.09759 22.043105,11.32322 32.158766,21.979434 L 37.068811,17.246167 C 37.068811,17.246167 37.088388,32 37.088388,32 L 22.160133,31.978069 C 22.160133,31.978069 26.997745,27.140456 26.997745,27.140456 C 18.528582,18.264221 13.291696,25.230495 11.500037,31.436501 z"
             style="fill:#404040;"/>
          </a>
         </g>
        </svg>
</svg>
