<?xml version="1.0" encoding="UTF-8" standalone="no"?>
<!DOCTYPE svg PUBLIC "-//W3C//DTD SVG 1.1//EN"
 "http://www.w3.org/Graphics/SVG/1.1/DTD/svg11.dtd">
<!-- Generated by graphviz version 2.43.0 (0)
 -->
<!-- Title: sitkBSplineTransformInitializerFilter.h Pages: 1 -->
<svg width="1863pt" height="610pt"
 viewBox="0.00 0.00 1862.50 610.00" xmlns="http://www.w3.org/2000/svg" xmlns:xlink="http://www.w3.org/1999/xlink">
<g id="graph0" class="graph" transform="scale(1 1) rotate(0) translate(4 606)">
<title>sitkBSplineTransformInitializerFilter.h</title>
<polygon fill="white" stroke="transparent" points="-4,4 -4,-606 1858.5,-606 1858.5,4 -4,4"/>
<!-- Node1 -->
<g id="node1" class="node">
<title>Node1</title>
<g id="a_node1"><a xlink:title=" ">
<polygon fill="#bfbfbf" stroke="black" points="364,-571.5 364,-601.5 530,-601.5 530,-571.5 364,-571.5"/>
<text text-anchor="start" x="372" y="-589.5" font-family="Helvetica,sans-Serif" font-size="10.00">sitkBSplineTransformInitializer</text>
<text text-anchor="middle" x="447" y="-578.5" font-family="Helvetica,sans-Serif" font-size="10.00">Filter.h</text>
</a>
</g>
</g>
<!-- Node2 -->
<g id="node2" class="node">
<title>Node2</title>
<g id="a_node2"><a xlink:title=" ">
<polygon fill="white" stroke="#bfbfbf" points="458,-291.5 458,-310.5 516,-310.5 516,-291.5 458,-291.5"/>
<text text-anchor="middle" x="487" y="-298.5" font-family="Helvetica,sans-Serif" font-size="10.00">memory</text>
</a>
</g>
</g>
<!-- Node1&#45;&gt;Node2 -->
<g id="edge1" class="edge">
<title>Node1&#45;&gt;Node2</title>
<path fill="none" stroke="midnightblue" d="M451.05,-571.41C456.89,-549.79 467,-507.04 467,-470 467,-470 467,-470 467,-412 467,-379.44 475.59,-342.32 481.51,-320.59"/>
<polygon fill="midnightblue" stroke="midnightblue" points="484.94,-321.32 484.3,-310.74 478.21,-319.41 484.94,-321.32"/>
</g>
<!-- Node3 -->
<g id="node3" class="node">
<title>Node3</title>
<g id="a_node3"><a xlink:href="sitkBasicFilters_8h.html" target="_top" xlink:title=" ">
<polygon fill="white" stroke="black" points="339,-459.5 339,-478.5 439,-478.5 439,-459.5 339,-459.5"/>
<text text-anchor="middle" x="389" y="-466.5" font-family="Helvetica,sans-Serif" font-size="10.00">sitkBasicFilters.h</text>
</a>
</g>
</g>
<!-- Node1&#45;&gt;Node3 -->
<g id="edge2" class="edge">
<title>Node1&#45;&gt;Node3</title>
<path fill="none" stroke="midnightblue" d="M439.89,-571.34C429.3,-550.24 409.39,-510.6 397.86,-487.65"/>
<polygon fill="midnightblue" stroke="midnightblue" points="400.97,-486.04 393.35,-478.67 394.71,-489.18 400.97,-486.04"/>
</g>
<!-- Node38 -->
<g id="node38" class="node">
<title>Node38</title>
<g id="a_node38"><a xlink:href="sitkImageFilter_8h.html" target="_top" xlink:title=" ">
<polygon fill="white" stroke="black" points="495,-515.5 495,-534.5 593,-534.5 593,-515.5 495,-515.5"/>
<text text-anchor="middle" x="544" y="-522.5" font-family="Helvetica,sans-Serif" font-size="10.00">sitkImageFilter.h</text>
</a>
</g>
</g>
<!-- Node1&#45;&gt;Node38 -->
<g id="edge66" class="edge">
<title>Node1&#45;&gt;Node38</title>
<path fill="none" stroke="midnightblue" d="M469.99,-571.4C485.39,-561.95 505.59,-549.56 521,-540.11"/>
<polygon fill="midnightblue" stroke="midnightblue" points="523.19,-542.87 529.89,-534.66 519.53,-536.9 523.19,-542.87"/>
</g>
<!-- Node46 -->
<g id="node46" class="node">
<title>Node46</title>
<g id="a_node46"><a xlink:href="sitkBSplineTransform_8h.html" target="_top" xlink:title=" ">
<polygon fill="white" stroke="black" points="191.5,-459.5 191.5,-478.5 320.5,-478.5 320.5,-459.5 191.5,-459.5"/>
<text text-anchor="middle" x="256" y="-466.5" font-family="Helvetica,sans-Serif" font-size="10.00">sitkBSplineTransform.h</text>
</a>
</g>
</g>
<!-- Node1&#45;&gt;Node46 -->
<g id="edge86" class="edge">
<title>Node1&#45;&gt;Node46</title>
<path fill="none" stroke="midnightblue" d="M423.58,-571.34C386.82,-549.11 316,-506.28 279.31,-484.09"/>
<polygon fill="midnightblue" stroke="midnightblue" points="280.7,-480.85 270.34,-478.67 277.08,-486.84 280.7,-480.85"/>
</g>
<!-- Node4 -->
<g id="node4" class="node">
<title>Node4</title>
<g id="a_node4"><a xlink:href="sitkMacro_8h.html" target="_top" xlink:title=" ">
<polygon fill="white" stroke="black" points="666,-56.5 666,-75.5 740,-75.5 740,-56.5 666,-56.5"/>
<text text-anchor="middle" x="703" y="-63.5" font-family="Helvetica,sans-Serif" font-size="10.00">sitkMacro.h</text>
</a>
</g>
</g>
<!-- Node3&#45;&gt;Node4 -->
<g id="edge3" class="edge">
<title>Node3&#45;&gt;Node4</title>
<path fill="none" stroke="midnightblue" d="M341.8,-459.42C292.61,-450.09 219.13,-434.9 193,-423 113.46,-386.79 38,-389.39 38,-302 38,-302 38,-302 38,-177 38,-114.36 503.18,-79.55 655.41,-69.84"/>
<polygon fill="midnightblue" stroke="midnightblue" points="656.06,-73.31 665.82,-69.18 655.62,-66.32 656.06,-73.31"/>
</g>
<!-- Node11 -->
<g id="node11" class="node">
<title>Node11</title>
<g id="a_node11"><a xlink:href="sitkInterpolator_8h.html" target="_top" xlink:title=" ">
<polygon fill="white" stroke="black" points="302,-291.5 302,-310.5 402,-310.5 402,-291.5 302,-291.5"/>
<text text-anchor="middle" x="352" y="-298.5" font-family="Helvetica,sans-Serif" font-size="10.00">sitkInterpolator.h</text>
</a>
</g>
</g>
<!-- Node3&#45;&gt;Node11 -->
<g id="edge10" class="edge">
<title>Node3&#45;&gt;Node11</title>
<path fill="none" stroke="midnightblue" d="M393.23,-459.31C402.62,-438.72 422.98,-385.85 405,-347 399.08,-334.21 387.53,-323.72 376.72,-316.1"/>
<polygon fill="midnightblue" stroke="midnightblue" points="378.62,-313.16 368.33,-310.61 374.79,-319.02 378.62,-313.16"/>
</g>
<!-- Node14 -->
<g id="node14" class="node">
<title>Node14</title>
<g id="a_node14"><a xlink:href="sitkRandomSeed_8h.html" target="_top" xlink:title=" ">
<polygon fill="white" stroke="black" points="142,-347.5 142,-366.5 250,-366.5 250,-347.5 142,-347.5"/>
<text text-anchor="middle" x="196" y="-354.5" font-family="Helvetica,sans-Serif" font-size="10.00">sitkRandomSeed.h</text>
</a>
</g>
</g>
<!-- Node3&#45;&gt;Node14 -->
<g id="edge14" class="edge">
<title>Node3&#45;&gt;Node14</title>
<path fill="none" stroke="midnightblue" d="M343.19,-459.47C292.1,-449.54 215.33,-433.2 206,-423 194.81,-410.77 193.09,-391.51 193.71,-377.12"/>
<polygon fill="midnightblue" stroke="midnightblue" points="197.22,-377.11 194.56,-366.86 190.24,-376.53 197.22,-377.11"/>
</g>
<!-- Node15 -->
<g id="node15" class="node">
<title>Node15</title>
<g id="a_node15"><a xlink:href="sitkKernel_8h.html" target="_top" xlink:title=" ">
<polygon fill="white" stroke="black" points="322,-230 322,-249 396,-249 396,-230 322,-230"/>
<text text-anchor="middle" x="359" y="-237" font-family="Helvetica,sans-Serif" font-size="10.00">sitkKernel.h</text>
</a>
</g>
</g>
<!-- Node3&#45;&gt;Node15 -->
<g id="edge16" class="edge">
<title>Node3&#45;&gt;Node15</title>
<path fill="none" stroke="midnightblue" d="M387.97,-459.13C386.19,-446.18 381.74,-421.6 372,-403 346.99,-355.26 311.72,-361.54 293,-311 284.13,-287.06 309.16,-266.66 330.9,-254.06"/>
<polygon fill="midnightblue" stroke="midnightblue" points="332.8,-257.01 339.9,-249.15 329.45,-250.86 332.8,-257.01"/>
</g>
<!-- Node16 -->
<g id="node16" class="node">
<title>Node16</title>
<g id="a_node16"><a xlink:href="sitkTransform_8h.html" target="_top" xlink:title=" ">
<polygon fill="white" stroke="black" points="215,-403.5 215,-422.5 307,-422.5 307,-403.5 215,-403.5"/>
<text text-anchor="middle" x="261" y="-410.5" font-family="Helvetica,sans-Serif" font-size="10.00">sitkTransform.h</text>
</a>
</g>
</g>
<!-- Node3&#45;&gt;Node16 -->
<g id="edge19" class="edge">
<title>Node3&#45;&gt;Node16</title>
<path fill="none" stroke="midnightblue" d="M368.72,-459.44C347.65,-450.56 314.48,-436.56 290.51,-426.45"/>
<polygon fill="midnightblue" stroke="midnightblue" points="291.76,-423.18 281.19,-422.52 289.04,-429.63 291.76,-423.18"/>
</g>
<!-- Node37 -->
<g id="node37" class="node">
<title>Node37</title>
<g id="a_node37"><a xlink:title=" ">
<polygon fill="white" stroke="#bfbfbf" points="325,-403.5 325,-422.5 363,-422.5 363,-403.5 325,-403.5"/>
<text text-anchor="middle" x="344" y="-410.5" font-family="Helvetica,sans-Serif" font-size="10.00">map</text>
</a>
</g>
</g>
<!-- Node3&#45;&gt;Node37 -->
<g id="edge65" class="edge">
<title>Node3&#45;&gt;Node37</title>
<path fill="none" stroke="midnightblue" d="M381.57,-459.08C375.15,-451.38 365.69,-440.03 357.88,-430.65"/>
<polygon fill="midnightblue" stroke="midnightblue" points="360.38,-428.19 351.29,-422.75 355.01,-432.67 360.38,-428.19"/>
</g>
<!-- Node5 -->
<g id="node5" class="node">
<title>Node5</title>
<g id="a_node5"><a xlink:title=" ">
<polygon fill="white" stroke="#bfbfbf" points="1078.5,-0.5 1078.5,-19.5 1131.5,-19.5 1131.5,-0.5 1078.5,-0.5"/>
<text text-anchor="middle" x="1105" y="-7.5" font-family="Helvetica,sans-Serif" font-size="10.00">stdint.h</text>
</a>
</g>
</g>
<!-- Node4&#45;&gt;Node5 -->
<g id="edge4" class="edge">
<title>Node4&#45;&gt;Node5</title>
<path fill="none" stroke="midnightblue" d="M740.1,-60.02C816.77,-49.72 991.88,-26.19 1068.25,-15.94"/>
<polygon fill="midnightblue" stroke="midnightblue" points="1068.91,-19.38 1078.35,-14.58 1067.97,-12.44 1068.91,-19.38"/>
</g>
<!-- Node6 -->
<g id="node6" class="node">
<title>Node6</title>
<g id="a_node6"><a xlink:title=" ">
<polygon fill="white" stroke="#bfbfbf" points="709,-0.5 709,-19.5 765,-19.5 765,-0.5 709,-0.5"/>
<text text-anchor="middle" x="737" y="-7.5" font-family="Helvetica,sans-Serif" font-size="10.00">stddef.h</text>
</a>
</g>
</g>
<!-- Node4&#45;&gt;Node6 -->
<g id="edge5" class="edge">
<title>Node4&#45;&gt;Node6</title>
<path fill="none" stroke="midnightblue" d="M708.61,-56.08C713.37,-48.53 720.32,-37.49 726.15,-28.23"/>
<polygon fill="midnightblue" stroke="midnightblue" points="729.12,-30.08 731.49,-19.75 723.2,-26.35 729.12,-30.08"/>
</g>
<!-- Node7 -->
<g id="node7" class="node">
<title>Node7</title>
<g id="a_node7"><a xlink:title=" ">
<polygon fill="white" stroke="#bfbfbf" points="783,-0.5 783,-19.5 835,-19.5 835,-0.5 783,-0.5"/>
<text text-anchor="middle" x="809" y="-7.5" font-family="Helvetica,sans-Serif" font-size="10.00">cassert</text>
</a>
</g>
</g>
<!-- Node4&#45;&gt;Node7 -->
<g id="edge6" class="edge">
<title>Node4&#45;&gt;Node7</title>
<path fill="none" stroke="midnightblue" d="M720.03,-56.32C737.03,-47.66 763.38,-34.24 782.99,-24.25"/>
<polygon fill="midnightblue" stroke="midnightblue" points="784.69,-27.31 792.01,-19.65 781.51,-21.08 784.69,-27.31"/>
</g>
<!-- Node8 -->
<g id="node8" class="node">
<title>Node8</title>
<g id="a_node8"><a xlink:title=" ">
<polygon fill="white" stroke="#bfbfbf" points="573,-0.5 573,-19.5 629,-19.5 629,-0.5 573,-0.5"/>
<text text-anchor="middle" x="601" y="-7.5" font-family="Helvetica,sans-Serif" font-size="10.00">sstream</text>
</a>
</g>
</g>
<!-- Node4&#45;&gt;Node8 -->
<g id="edge7" class="edge">
<title>Node4&#45;&gt;Node8</title>
<path fill="none" stroke="midnightblue" d="M686.61,-56.32C670.33,-47.7 645.13,-34.36 626.28,-24.39"/>
<polygon fill="midnightblue" stroke="midnightblue" points="627.82,-21.24 617.35,-19.65 624.55,-27.43 627.82,-21.24"/>
</g>
<!-- Node9 -->
<g id="node9" class="node">
<title>Node9</title>
<g id="a_node9"><a xlink:title=" ">
<polygon fill="white" stroke="#bfbfbf" points="647,-0.5 647,-19.5 691,-19.5 691,-0.5 647,-0.5"/>
<text text-anchor="middle" x="669" y="-7.5" font-family="Helvetica,sans-Serif" font-size="10.00">limits</text>
</a>
</g>
</g>
<!-- Node4&#45;&gt;Node9 -->
<g id="edge8" class="edge">
<title>Node4&#45;&gt;Node9</title>
<path fill="none" stroke="midnightblue" d="M697.39,-56.08C692.63,-48.53 685.68,-37.49 679.85,-28.23"/>
<polygon fill="midnightblue" stroke="midnightblue" points="682.8,-26.35 674.51,-19.75 676.88,-30.08 682.8,-26.35"/>
</g>
<!-- Node10 -->
<g id="node10" class="node">
<title>Node10</title>
<g id="a_node10"><a xlink:href="sitkConfigure_8h.html" target="_top" xlink:title=" ">
<polygon fill="white" stroke="black" points="1212,-0.5 1212,-19.5 1302,-19.5 1302,-0.5 1212,-0.5"/>
<text text-anchor="middle" x="1257" y="-7.5" font-family="Helvetica,sans-Serif" font-size="10.00">sitkConfigure.h</text>
</a>
</g>
</g>
<!-- Node4&#45;&gt;Node10 -->
<g id="edge9" class="edge">
<title>Node4&#45;&gt;Node10</title>
<path fill="none" stroke="midnightblue" d="M740.21,-61.37C835.61,-52.07 1089.3,-27.35 1201.87,-16.37"/>
<polygon fill="midnightblue" stroke="midnightblue" points="1202.38,-19.84 1211.99,-15.39 1201.7,-12.87 1202.38,-19.84"/>
</g>
<!-- Node12 -->
<g id="node12" class="node">
<title>Node12</title>
<g id="a_node12"><a xlink:href="sitkCommon_8h.html" target="_top" xlink:title=" ">
<polygon fill="white" stroke="black" points="522,-112.5 522,-131.5 610,-131.5 610,-112.5 522,-112.5"/>
<text text-anchor="middle" x="566" y="-119.5" font-family="Helvetica,sans-Serif" font-size="10.00">sitkCommon.h</text>
</a>
</g>
</g>
<!-- Node11&#45;&gt;Node12 -->
<g id="edge11" class="edge">
<title>Node11&#45;&gt;Node12</title>
<path fill="none" stroke="midnightblue" d="M362.69,-291.19C373.49,-282.23 390.6,-267.87 405,-255 420.01,-241.59 422.75,-237.13 438,-224 475.22,-191.94 520.8,-156.93 546.3,-137.71"/>
<polygon fill="midnightblue" stroke="midnightblue" points="548.54,-140.4 554.43,-131.6 544.34,-134.8 548.54,-140.4"/>
</g>
<!-- Node13 -->
<g id="node13" class="node">
<title>Node13</title>
<g id="a_node13"><a xlink:title=" ">
<polygon fill="white" stroke="#bfbfbf" points="632.5,-168.5 632.5,-187.5 689.5,-187.5 689.5,-168.5 632.5,-168.5"/>
<text text-anchor="middle" x="661" y="-175.5" font-family="Helvetica,sans-Serif" font-size="10.00">ostream</text>
</a>
</g>
</g>
<!-- Node11&#45;&gt;Node13 -->
<g id="edge13" class="edge">
<title>Node11&#45;&gt;Node13</title>
<path fill="none" stroke="midnightblue" d="M370.17,-291.36C387.84,-282.76 415.27,-268.87 438,-255 458.42,-242.54 460.26,-233.97 482,-224 527.92,-202.94 585.18,-190.75 622.39,-184.49"/>
<polygon fill="midnightblue" stroke="midnightblue" points="623.02,-187.94 632.33,-182.88 621.9,-181.03 623.02,-187.94"/>
</g>
<!-- Node12&#45;&gt;Node4 -->
<g id="edge12" class="edge">
<title>Node12&#45;&gt;Node4</title>
<path fill="none" stroke="midnightblue" d="M587.71,-112.44C610.35,-103.52 646.07,-89.44 671.75,-79.32"/>
<polygon fill="midnightblue" stroke="midnightblue" points="673.37,-82.44 681.39,-75.52 670.81,-75.93 673.37,-82.44"/>
</g>
<!-- Node14&#45;&gt;Node12 -->
<g id="edge15" class="edge">
<title>Node14&#45;&gt;Node12</title>
<path fill="none" stroke="midnightblue" d="M190.3,-347.33C176.24,-324.72 142.98,-263.03 171,-224 210.62,-168.82 412.91,-139.6 511.65,-128.44"/>
<polygon fill="midnightblue" stroke="midnightblue" points="512.17,-131.9 521.73,-127.32 511.4,-124.95 512.17,-131.9"/>
</g>
<!-- Node15&#45;&gt;Node12 -->
<g id="edge17" class="edge">
<title>Node15&#45;&gt;Node12</title>
<path fill="none" stroke="midnightblue" d="M362.97,-229.68C370.15,-214.7 386.77,-184.33 410,-168 440.07,-146.86 479.98,-135.58 511.9,-129.6"/>
<polygon fill="midnightblue" stroke="midnightblue" points="512.72,-133.02 521.96,-127.84 511.51,-126.12 512.72,-133.02"/>
</g>
<!-- Node15&#45;&gt;Node13 -->
<g id="edge18" class="edge">
<title>Node15&#45;&gt;Node13</title>
<path fill="none" stroke="midnightblue" d="M396.03,-231.2C453.53,-219.88 563.75,-198.16 622.27,-186.63"/>
<polygon fill="midnightblue" stroke="midnightblue" points="623.1,-190.04 632.23,-184.67 621.74,-183.17 623.1,-190.04"/>
</g>
<!-- Node16&#45;&gt;Node12 -->
<g id="edge20" class="edge">
<title>Node16&#45;&gt;Node12</title>
<path fill="none" stroke="midnightblue" d="M214.74,-406.38C187.5,-400.74 154.31,-389.48 133,-367 112.3,-345.15 114,-332.1 114,-302 114,-302 114,-302 114,-238.5 114,-157.24 391.68,-132.41 511.75,-125.47"/>
<polygon fill="midnightblue" stroke="midnightblue" points="512.05,-128.96 521.84,-124.91 511.66,-121.97 512.05,-128.96"/>
</g>
<!-- Node17 -->
<g id="node17" class="node">
<title>Node17</title>
<g id="a_node17"><a xlink:href="sitkExceptionObject_8h.html" target="_top" xlink:title=" ">
<polygon fill="white" stroke="black" points="180.5,-230 180.5,-249 303.5,-249 303.5,-230 180.5,-230"/>
<text text-anchor="middle" x="242" y="-237" font-family="Helvetica,sans-Serif" font-size="10.00">sitkExceptionObject.h</text>
</a>
</g>
</g>
<!-- Node16&#45;&gt;Node17 -->
<g id="edge21" class="edge">
<title>Node16&#45;&gt;Node17</title>
<path fill="none" stroke="midnightblue" d="M261.08,-403.15C261.12,-390.62 260.9,-367.01 259,-347 256.05,-315.87 249.71,-280.04 245.67,-258.88"/>
<polygon fill="midnightblue" stroke="midnightblue" points="249.09,-258.16 243.74,-249.01 242.22,-259.5 249.09,-258.16"/>
</g>
<!-- Node18 -->
<g id="node18" class="node">
<title>Node18</title>
<g id="a_node18"><a xlink:href="sitkImage_8h.html" target="_top" xlink:title=" ">
<polygon fill="white" stroke="black" points="545,-347.5 545,-366.5 619,-366.5 619,-347.5 545,-347.5"/>
<text text-anchor="middle" x="582" y="-354.5" font-family="Helvetica,sans-Serif" font-size="10.00">sitkImage.h</text>
</a>
</g>
</g>
<!-- Node16&#45;&gt;Node18 -->
<g id="edge24" class="edge">
<title>Node16&#45;&gt;Node18</title>
<path fill="none" stroke="midnightblue" d="M307.33,-404.21C367.9,-394.02 473.43,-376.26 534.54,-365.98"/>
<polygon fill="midnightblue" stroke="midnightblue" points="535.4,-369.39 544.68,-364.28 534.24,-362.49 535.4,-369.39"/>
</g>
<!-- Node20 -->
<g id="node20" class="node">
<title>Node20</title>
<g id="a_node20"><a xlink:title=" ">
<polygon fill="white" stroke="#bfbfbf" points="490.5,-230 490.5,-249 537.5,-249 537.5,-230 490.5,-230"/>
<text text-anchor="middle" x="514" y="-237" font-family="Helvetica,sans-Serif" font-size="10.00">vector</text>
</a>
</g>
</g>
<!-- Node16&#45;&gt;Node20 -->
<g id="edge64" class="edge">
<title>Node16&#45;&gt;Node20</title>
<path fill="none" stroke="midnightblue" d="M273.86,-403.39C299.83,-385.99 360.35,-345.39 411,-311 439.42,-291.7 472.15,-269.27 492.94,-254.98"/>
<polygon fill="midnightblue" stroke="midnightblue" points="495.08,-257.76 501.34,-249.21 491.11,-251.99 495.08,-257.76"/>
</g>
<!-- Node17&#45;&gt;Node4 -->
<g id="edge22" class="edge">
<title>Node17&#45;&gt;Node4</title>
<path fill="none" stroke="midnightblue" d="M251.27,-229.94C267.51,-215.37 302.63,-185.6 337,-168 443.81,-113.31 583.79,-85.33 655.76,-73.72"/>
<polygon fill="midnightblue" stroke="midnightblue" points="656.54,-77.14 665.87,-72.13 655.45,-70.23 656.54,-77.14"/>
</g>
<!-- Node17&#45;&gt;Node12 -->
<g id="edge23" class="edge">
<title>Node17&#45;&gt;Node12</title>
<path fill="none" stroke="midnightblue" d="M256.97,-229.77C282.49,-215.21 336.39,-185.79 385,-168 426.55,-152.79 475.32,-141 511.76,-133.31"/>
<polygon fill="midnightblue" stroke="midnightblue" points="512.61,-136.7 521.69,-131.25 511.19,-129.85 512.61,-136.7"/>
</g>
<!-- Node18&#45;&gt;Node2 -->
<g id="edge62" class="edge">
<title>Node18&#45;&gt;Node2</title>
<path fill="none" stroke="midnightblue" d="M566.74,-347.32C551.78,-338.82 528.75,-325.73 511.27,-315.8"/>
<polygon fill="midnightblue" stroke="midnightblue" points="512.65,-312.55 502.23,-310.65 509.19,-318.64 512.65,-312.55"/>
</g>
<!-- Node18&#45;&gt;Node11 -->
<g id="edge60" class="edge">
<title>Node18&#45;&gt;Node11</title>
<path fill="none" stroke="midnightblue" d="M545.56,-347.44C505.6,-338.06 441.41,-322.99 398.02,-312.8"/>
<polygon fill="midnightblue" stroke="midnightblue" points="398.81,-309.39 388.27,-310.52 397.21,-316.21 398.81,-309.39"/>
</g>
<!-- Node18&#45;&gt;Node12 -->
<g id="edge25" class="edge">
<title>Node18&#45;&gt;Node12</title>
<path fill="none" stroke="midnightblue" d="M581.41,-347.43C579.1,-313.75 570.6,-189.99 567.31,-142.1"/>
<polygon fill="midnightblue" stroke="midnightblue" points="570.79,-141.63 566.61,-131.9 563.8,-142.11 570.79,-141.63"/>
</g>
<!-- Node19 -->
<g id="node19" class="node">
<title>Node19</title>
<g id="a_node19"><a xlink:href="sitkTemplateFunctions_8h.html" target="_top" xlink:title=" ">
<polygon fill="white" stroke="black" points="610.5,-291.5 610.5,-310.5 745.5,-310.5 745.5,-291.5 610.5,-291.5"/>
<text text-anchor="middle" x="678" y="-298.5" font-family="Helvetica,sans-Serif" font-size="10.00">sitkTemplateFunctions.h</text>
</a>
</g>
</g>
<!-- Node18&#45;&gt;Node19 -->
<g id="edge26" class="edge">
<title>Node18&#45;&gt;Node19</title>
<path fill="none" stroke="midnightblue" d="M597.42,-347.32C612.54,-338.82 635.82,-325.73 653.47,-315.8"/>
<polygon fill="midnightblue" stroke="midnightblue" points="655.61,-318.61 662.61,-310.65 652.18,-312.51 655.61,-318.61"/>
</g>
<!-- Node18&#45;&gt;Node20 -->
<g id="edge61" class="edge">
<title>Node18&#45;&gt;Node20</title>
<path fill="none" stroke="midnightblue" d="M576.89,-347.32C565.76,-328.42 539.17,-283.25 524.37,-258.12"/>
<polygon fill="midnightblue" stroke="midnightblue" points="527.26,-256.12 519.17,-249.28 521.23,-259.68 527.26,-256.12"/>
</g>
<!-- Node22 -->
<g id="node22" class="node">
<title>Node22</title>
<g id="a_node22"><a xlink:href="sitkDetail_8h.html" target="_top" xlink:title=" ">
<polygon fill="white" stroke="black" points="1194.5,-291.5 1194.5,-310.5 1267.5,-310.5 1267.5,-291.5 1194.5,-291.5"/>
<text text-anchor="middle" x="1231" y="-298.5" font-family="Helvetica,sans-Serif" font-size="10.00">sitkDetail.h</text>
</a>
</g>
</g>
<!-- Node18&#45;&gt;Node22 -->
<g id="edge33" class="edge">
<title>Node18&#45;&gt;Node22</title>
<path fill="none" stroke="midnightblue" d="M619.09,-353.1C707.88,-346.13 939.61,-327.78 1133,-311 1149.62,-309.56 1167.81,-307.91 1183.96,-306.42"/>
<polygon fill="midnightblue" stroke="midnightblue" points="1184.61,-309.87 1194.24,-305.46 1183.96,-302.9 1184.61,-309.87"/>
</g>
<!-- Node33 -->
<g id="node33" class="node">
<title>Node33</title>
<g id="a_node33"><a xlink:href="sitkPixelIDTokens_8h.html" target="_top" xlink:title=" ">
<polygon fill="white" stroke="black" points="1014,-291.5 1014,-310.5 1124,-310.5 1124,-291.5 1014,-291.5"/>
<text text-anchor="middle" x="1069" y="-298.5" font-family="Helvetica,sans-Serif" font-size="10.00">sitkPixelIDTokens.h</text>
</a>
</g>
</g>
<!-- Node18&#45;&gt;Node33 -->
<g id="edge52" class="edge">
<title>Node18&#45;&gt;Node33</title>
<path fill="none" stroke="midnightblue" d="M619,-351.9C701.28,-342.77 900.27,-320.71 1003.86,-309.22"/>
<polygon fill="midnightblue" stroke="midnightblue" points="1004.33,-312.69 1013.89,-308.11 1003.56,-305.73 1004.33,-312.69"/>
</g>
<!-- Node36 -->
<g id="node36" class="node">
<title>Node36</title>
<g id="a_node36"><a xlink:title=" ">
<polygon fill="white" stroke="#bfbfbf" points="945.5,-230 945.5,-249 1014.5,-249 1014.5,-230 945.5,-230"/>
<text text-anchor="middle" x="980" y="-237" font-family="Helvetica,sans-Serif" font-size="10.00">type_traits</text>
</a>
</g>
</g>
<!-- Node18&#45;&gt;Node36 -->
<g id="edge63" class="edge">
<title>Node18&#45;&gt;Node36</title>
<path fill="none" stroke="midnightblue" d="M616.93,-347.45C651.97,-338.75 707.42,-324.63 755,-311 822.36,-291.7 900.23,-266.69 944.44,-252.24"/>
<polygon fill="midnightblue" stroke="midnightblue" points="945.73,-255.5 954.14,-249.06 943.55,-248.85 945.73,-255.5"/>
</g>
<!-- Node19&#45;&gt;Node4 -->
<g id="edge27" class="edge">
<title>Node19&#45;&gt;Node4</title>
<path fill="none" stroke="midnightblue" d="M745.81,-295.96C774.09,-290.51 804.39,-278.95 822,-255 867.69,-192.85 769.7,-113.27 724.37,-81.27"/>
<polygon fill="midnightblue" stroke="midnightblue" points="726.28,-78.33 716.07,-75.52 722.3,-84.09 726.28,-78.33"/>
</g>
<!-- Node19&#45;&gt;Node12 -->
<g id="edge28" class="edge">
<title>Node19&#45;&gt;Node12</title>
<path fill="none" stroke="midnightblue" d="M672.6,-291.46C655.27,-264.08 600.84,-178.05 577.17,-140.65"/>
<polygon fill="midnightblue" stroke="midnightblue" points="579.92,-138.45 571.61,-131.87 574,-142.19 579.92,-138.45"/>
</g>
<!-- Node19&#45;&gt;Node13 -->
<g id="edge31" class="edge">
<title>Node19&#45;&gt;Node13</title>
<path fill="none" stroke="midnightblue" d="M673.93,-291.27C670.01,-282.37 664.34,-268.06 662,-255 658.55,-235.75 658.76,-213.31 659.55,-197.83"/>
<polygon fill="midnightblue" stroke="midnightblue" points="663.06,-197.73 660.21,-187.52 656.08,-197.27 663.06,-197.73"/>
</g>
<!-- Node19&#45;&gt;Node17 -->
<g id="edge29" class="edge">
<title>Node19&#45;&gt;Node17</title>
<path fill="none" stroke="midnightblue" d="M610.16,-293.25C536.7,-285.57 416.18,-271.87 313,-255 305.83,-253.83 298.28,-252.45 290.89,-251.01"/>
<polygon fill="midnightblue" stroke="midnightblue" points="291.45,-247.55 280.96,-249.03 290.08,-254.42 291.45,-247.55"/>
</g>
<!-- Node19&#45;&gt;Node20 -->
<g id="edge30" class="edge">
<title>Node19&#45;&gt;Node20</title>
<path fill="none" stroke="midnightblue" d="M654.5,-291.48C626.37,-281.27 579.07,-264.11 547.21,-252.55"/>
<polygon fill="midnightblue" stroke="midnightblue" points="548.05,-249.13 537.45,-249.01 545.66,-255.71 548.05,-249.13"/>
</g>
<!-- Node21 -->
<g id="node21" class="node">
<title>Node21</title>
<g id="a_node21"><a xlink:title=" ">
<polygon fill="white" stroke="#bfbfbf" points="670.5,-230 670.5,-249 723.5,-249 723.5,-230 670.5,-230"/>
<text text-anchor="middle" x="697" y="-237" font-family="Helvetica,sans-Serif" font-size="10.00">iterator</text>
</a>
</g>
</g>
<!-- Node19&#45;&gt;Node21 -->
<g id="edge32" class="edge">
<title>Node19&#45;&gt;Node21</title>
<path fill="none" stroke="midnightblue" d="M680.72,-291.48C683.43,-282.99 687.67,-269.7 691.15,-258.82"/>
<polygon fill="midnightblue" stroke="midnightblue" points="694.57,-259.6 694.28,-249.01 687.91,-257.47 694.57,-259.6"/>
</g>
<!-- Node23 -->
<g id="node23" class="node">
<title>Node23</title>
<g id="a_node23"><a xlink:href="sitkMemberFunctionFactoryBase_8h.html" target="_top" xlink:title=" ">
<polygon fill="white" stroke="black" points="1426,-224.5 1426,-254.5 1578,-254.5 1578,-224.5 1426,-224.5"/>
<text text-anchor="start" x="1434" y="-242.5" font-family="Helvetica,sans-Serif" font-size="10.00">sitkMemberFunctionFactory</text>
<text text-anchor="middle" x="1502" y="-231.5" font-family="Helvetica,sans-Serif" font-size="10.00">Base.h</text>
</a>
</g>
</g>
<!-- Node22&#45;&gt;Node23 -->
<g id="edge34" class="edge">
<title>Node22&#45;&gt;Node23</title>
<path fill="none" stroke="midnightblue" d="M1267.55,-291.98C1308.54,-282.98 1376.09,-268.14 1428.18,-256.71"/>
<polygon fill="midnightblue" stroke="midnightblue" points="1429.03,-260.1 1438.05,-254.54 1427.53,-253.27 1429.03,-260.1"/>
</g>
<!-- Node29 -->
<g id="node29" class="node">
<title>Node29</title>
<g id="a_node29"><a xlink:title=" ">
<polygon fill="white" stroke="#bfbfbf" points="1169.5,-168.5 1169.5,-187.5 1308.5,-187.5 1308.5,-168.5 1169.5,-168.5"/>
<text text-anchor="middle" x="1239" y="-175.5" font-family="Helvetica,sans-Serif" font-size="10.00">Ancillary/FunctionTraits.h</text>
</a>
</g>
</g>
<!-- Node22&#45;&gt;Node29 -->
<g id="edge51" class="edge">
<title>Node22&#45;&gt;Node29</title>
<path fill="none" stroke="midnightblue" d="M1231.58,-291.3C1232.86,-271.85 1235.99,-224.49 1237.75,-197.9"/>
<polygon fill="midnightblue" stroke="midnightblue" points="1241.26,-197.83 1238.43,-187.62 1234.28,-197.37 1241.26,-197.83"/>
</g>
<!-- Node23&#45;&gt;Node4 -->
<g id="edge43" class="edge">
<title>Node23&#45;&gt;Node4</title>
<path fill="none" stroke="midnightblue" d="M1455.62,-224.44C1426.57,-215.16 1388.61,-202.12 1356,-188 1338.49,-180.41 1336.09,-174.07 1318,-168 1211.86,-132.4 875.47,-88.36 750.42,-72.79"/>
<polygon fill="midnightblue" stroke="midnightblue" points="750.74,-69.3 740.39,-71.54 749.88,-76.24 750.74,-69.3"/>
</g>
<!-- Node23&#45;&gt;Node10 -->
<g id="edge35" class="edge">
<title>Node23&#45;&gt;Node10</title>
<path fill="none" stroke="midnightblue" d="M1520.54,-224.15C1549.56,-199.94 1599.66,-149.92 1572,-112 1512.4,-30.3 1385.75,-13.21 1312.49,-10.5"/>
<polygon fill="midnightblue" stroke="midnightblue" points="1312.19,-6.99 1302.09,-10.2 1311.98,-13.98 1312.19,-6.99"/>
</g>
<!-- Node24 -->
<g id="node24" class="node">
<title>Node24</title>
<g id="a_node24"><a xlink:href="sitkPixelIDTypes_8h.html" target="_top" xlink:title=" ">
<polygon fill="white" stroke="black" points="1328.5,-112.5 1328.5,-131.5 1433.5,-131.5 1433.5,-112.5 1328.5,-112.5"/>
<text text-anchor="middle" x="1381" y="-119.5" font-family="Helvetica,sans-Serif" font-size="10.00">sitkPixelIDTypes.h</text>
</a>
</g>
</g>
<!-- Node23&#45;&gt;Node24 -->
<g id="edge36" class="edge">
<title>Node23&#45;&gt;Node24</title>
<path fill="none" stroke="midnightblue" d="M1504.86,-224.26C1507.11,-208.83 1508.13,-184.24 1496,-168 1483.27,-150.95 1463.12,-140.35 1443.22,-133.77"/>
<polygon fill="midnightblue" stroke="midnightblue" points="1444.09,-130.38 1433.51,-130.86 1442.08,-137.09 1444.09,-130.38"/>
</g>
<!-- Node25 -->
<g id="node25" class="node">
<title>Node25</title>
<g id="a_node25"><a xlink:href="sitkPixelIDTypeLists_8h.html" target="_top" xlink:title=" ">
<polygon fill="white" stroke="black" points="1365,-168.5 1365,-187.5 1487,-187.5 1487,-168.5 1365,-168.5"/>
<text text-anchor="middle" x="1426" y="-175.5" font-family="Helvetica,sans-Serif" font-size="10.00">sitkPixelIDTypeLists.h</text>
</a>
</g>
</g>
<!-- Node23&#45;&gt;Node25 -->
<g id="edge37" class="edge">
<title>Node23&#45;&gt;Node25</title>
<path fill="none" stroke="midnightblue" d="M1483.99,-224.4C1472.26,-215.22 1456.98,-203.26 1445.06,-193.92"/>
<polygon fill="midnightblue" stroke="midnightblue" points="1447.09,-191.07 1437.06,-187.66 1442.78,-196.58 1447.09,-191.07"/>
</g>
<!-- Node26 -->
<g id="node26" class="node">
<title>Node26</title>
<g id="a_node26"><a xlink:title=" ">
<polygon fill="white" stroke="#bfbfbf" points="1451.5,-112.5 1451.5,-131.5 1562.5,-131.5 1562.5,-112.5 1451.5,-112.5"/>
<text text-anchor="middle" x="1507" y="-119.5" font-family="Helvetica,sans-Serif" font-size="10.00">Ancillary/TypeList.h</text>
</a>
</g>
</g>
<!-- Node23&#45;&gt;Node26 -->
<g id="edge46" class="edge">
<title>Node23&#45;&gt;Node26</title>
<path fill="none" stroke="midnightblue" d="M1512.07,-224.26C1518.3,-214.55 1525.71,-201.12 1529,-188 1533.11,-171.61 1525.91,-153.43 1518.67,-140.47"/>
<polygon fill="midnightblue" stroke="midnightblue" points="1521.52,-138.41 1513.32,-131.7 1515.54,-142.06 1521.52,-138.41"/>
</g>
<!-- Node28 -->
<g id="node28" class="node">
<title>Node28</title>
<g id="a_node28"><a xlink:href="sitkNonCopyable_8h.html" target="_top" xlink:title=" ">
<polygon fill="white" stroke="black" points="903.5,-168.5 903.5,-187.5 1012.5,-187.5 1012.5,-168.5 903.5,-168.5"/>
<text text-anchor="middle" x="958" y="-175.5" font-family="Helvetica,sans-Serif" font-size="10.00">sitkNonCopyable.h</text>
</a>
</g>
</g>
<!-- Node23&#45;&gt;Node28 -->
<g id="edge44" class="edge">
<title>Node23&#45;&gt;Node28</title>
<path fill="none" stroke="midnightblue" d="M1425.79,-230.16C1318.22,-218.4 1123.74,-197.13 1022.77,-186.08"/>
<polygon fill="midnightblue" stroke="midnightblue" points="1023.02,-182.59 1012.7,-184.98 1022.26,-189.55 1023.02,-182.59"/>
</g>
<!-- Node23&#45;&gt;Node29 -->
<g id="edge47" class="edge">
<title>Node23&#45;&gt;Node29</title>
<path fill="none" stroke="midnightblue" d="M1440.01,-224.47C1393.05,-213.85 1329.5,-199.47 1286.52,-189.75"/>
<polygon fill="midnightblue" stroke="midnightblue" points="1287.13,-186.3 1276.6,-187.51 1285.58,-193.13 1287.13,-186.3"/>
</g>
<!-- Node30 -->
<g id="node30" class="node">
<title>Node30</title>
<g id="a_node30"><a xlink:title=" ">
<polygon fill="white" stroke="#bfbfbf" points="1619.5,-168.5 1619.5,-187.5 1712.5,-187.5 1712.5,-168.5 1619.5,-168.5"/>
<text text-anchor="middle" x="1666" y="-175.5" font-family="Helvetica,sans-Serif" font-size="10.00">unordered_map</text>
</a>
</g>
</g>
<!-- Node23&#45;&gt;Node30 -->
<g id="edge48" class="edge">
<title>Node23&#45;&gt;Node30</title>
<path fill="none" stroke="midnightblue" d="M1540.87,-224.4C1568.75,-214.28 1605.94,-200.79 1632.51,-191.15"/>
<polygon fill="midnightblue" stroke="midnightblue" points="1633.93,-194.36 1642.14,-187.66 1631.54,-187.78 1633.93,-194.36"/>
</g>
<!-- Node31 -->
<g id="node31" class="node">
<title>Node31</title>
<g id="a_node31"><a xlink:title=" ">
<polygon fill="white" stroke="#bfbfbf" points="1730.5,-168.5 1730.5,-187.5 1795.5,-187.5 1795.5,-168.5 1730.5,-168.5"/>
<text text-anchor="middle" x="1763" y="-175.5" font-family="Helvetica,sans-Serif" font-size="10.00">functional</text>
</a>
</g>
</g>
<!-- Node23&#45;&gt;Node31 -->
<g id="edge49" class="edge">
<title>Node23&#45;&gt;Node31</title>
<path fill="none" stroke="midnightblue" d="M1563.52,-224.47C1611.94,-213.44 1678.13,-198.35 1720.73,-188.64"/>
<polygon fill="midnightblue" stroke="midnightblue" points="1721.52,-192.05 1730.5,-186.41 1719.97,-185.22 1721.52,-192.05"/>
</g>
<!-- Node32 -->
<g id="node32" class="node">
<title>Node32</title>
<g id="a_node32"><a xlink:title=" ">
<polygon fill="white" stroke="#bfbfbf" points="1813.5,-168.5 1813.5,-187.5 1854.5,-187.5 1854.5,-168.5 1813.5,-168.5"/>
<text text-anchor="middle" x="1834" y="-175.5" font-family="Helvetica,sans-Serif" font-size="10.00">tuple</text>
</a>
</g>
</g>
<!-- Node23&#45;&gt;Node32 -->
<g id="edge50" class="edge">
<title>Node23&#45;&gt;Node32</title>
<path fill="none" stroke="midnightblue" d="M1578.22,-228.72C1637.43,-220.45 1721.7,-207.22 1803.25,-188.18"/>
<polygon fill="midnightblue" stroke="midnightblue" points="1804.26,-191.54 1813.18,-185.83 1802.65,-184.73 1804.26,-191.54"/>
</g>
<!-- Node25&#45;&gt;Node5 -->
<g id="edge38" class="edge">
<title>Node25&#45;&gt;Node5</title>
<path fill="none" stroke="midnightblue" d="M1395.76,-168.45C1369.33,-160.49 1330.26,-147.54 1298,-132 1231.28,-99.85 1158.9,-49.99 1124.84,-25.53"/>
<polygon fill="midnightblue" stroke="midnightblue" points="1126.81,-22.64 1116.66,-19.61 1122.71,-28.31 1126.81,-22.64"/>
</g>
<!-- Node25&#45;&gt;Node10 -->
<g id="edge39" class="edge">
<title>Node25&#45;&gt;Node10</title>
<path fill="none" stroke="midnightblue" d="M1390.13,-168.47C1367.79,-161.66 1339.67,-150.18 1320,-132 1288.8,-103.16 1270.39,-55.33 1262.17,-29.28"/>
<polygon fill="midnightblue" stroke="midnightblue" points="1265.48,-28.14 1259.26,-19.57 1258.78,-30.15 1265.48,-28.14"/>
</g>
<!-- Node25&#45;&gt;Node24 -->
<g id="edge40" class="edge">
<title>Node25&#45;&gt;Node24</title>
<path fill="none" stroke="midnightblue" d="M1418.57,-168.08C1412.15,-160.38 1402.69,-149.03 1394.88,-139.65"/>
<polygon fill="midnightblue" stroke="midnightblue" points="1397.38,-137.19 1388.29,-131.75 1392.01,-141.67 1397.38,-137.19"/>
</g>
<!-- Node25&#45;&gt;Node26 -->
<g id="edge41" class="edge">
<title>Node25&#45;&gt;Node26</title>
<path fill="none" stroke="midnightblue" d="M1439.01,-168.32C1451.53,-159.98 1470.68,-147.21 1485.47,-137.35"/>
<polygon fill="midnightblue" stroke="midnightblue" points="1487.64,-140.11 1494.02,-131.65 1483.76,-134.29 1487.64,-140.11"/>
</g>
<!-- Node27 -->
<g id="node27" class="node">
<title>Node27</title>
<g id="a_node27"><a xlink:title=" ">
<polygon fill="white" stroke="#bfbfbf" points="1174.5,-112.5 1174.5,-131.5 1233.5,-131.5 1233.5,-112.5 1174.5,-112.5"/>
<text text-anchor="middle" x="1204" y="-119.5" font-family="Helvetica,sans-Serif" font-size="10.00">complex</text>
</a>
</g>
</g>
<!-- Node25&#45;&gt;Node27 -->
<g id="edge42" class="edge">
<title>Node25&#45;&gt;Node27</title>
<path fill="none" stroke="midnightblue" d="M1390.82,-168.44C1350.73,-158.69 1285.34,-142.79 1243.52,-132.61"/>
<polygon fill="midnightblue" stroke="midnightblue" points="1244.23,-129.18 1233.68,-130.22 1242.57,-135.98 1244.23,-129.18"/>
</g>
<!-- Node28&#45;&gt;Node12 -->
<g id="edge45" class="edge">
<title>Node28&#45;&gt;Node12</title>
<path fill="none" stroke="midnightblue" d="M903.49,-169.49C828.65,-159.18 694.87,-140.75 620.19,-130.46"/>
<polygon fill="midnightblue" stroke="midnightblue" points="620.44,-126.97 610.06,-129.07 619.49,-133.9 620.44,-126.97"/>
</g>
<!-- Node33&#45;&gt;Node10 -->
<g id="edge53" class="edge">
<title>Node33&#45;&gt;Node10</title>
<path fill="none" stroke="midnightblue" d="M1099.72,-291.4C1118.02,-284.6 1139.95,-273.17 1152,-255 1169.65,-228.39 1153.11,-141.21 1166,-112 1181.9,-75.97 1215.73,-44 1237.36,-26.11"/>
<polygon fill="midnightblue" stroke="midnightblue" points="1239.67,-28.74 1245.26,-19.75 1235.28,-23.29 1239.67,-28.74"/>
</g>
<!-- Node34 -->
<g id="node34" class="node">
<title>Node34</title>
<g id="a_node34"><a xlink:href="sitkPixelIDValues_8h.html" target="_top" xlink:title=" ">
<polygon fill="white" stroke="black" points="1033,-230 1033,-249 1143,-249 1143,-230 1033,-230"/>
<text text-anchor="middle" x="1088" y="-237" font-family="Helvetica,sans-Serif" font-size="10.00">sitkPixelIDValues.h</text>
</a>
</g>
</g>
<!-- Node33&#45;&gt;Node34 -->
<g id="edge54" class="edge">
<title>Node33&#45;&gt;Node34</title>
<path fill="none" stroke="midnightblue" d="M1071.72,-291.48C1074.43,-282.99 1078.67,-269.7 1082.15,-258.82"/>
<polygon fill="midnightblue" stroke="midnightblue" points="1085.57,-259.6 1085.28,-249.01 1078.91,-257.47 1085.57,-259.6"/>
</g>
<!-- Node33&#45;&gt;Node36 -->
<g id="edge59" class="edge">
<title>Node33&#45;&gt;Node36</title>
<path fill="none" stroke="midnightblue" d="M1056.25,-291.48C1041.97,-281.93 1018.6,-266.31 1001.49,-254.87"/>
<polygon fill="midnightblue" stroke="midnightblue" points="1002.99,-251.66 992.73,-249.01 999.1,-257.48 1002.99,-251.66"/>
</g>
<!-- Node34&#45;&gt;Node12 -->
<g id="edge55" class="edge">
<title>Node34&#45;&gt;Node12</title>
<path fill="none" stroke="midnightblue" d="M1082.8,-229.67C1073.09,-214.1 1050.57,-182.1 1022,-168 952.61,-133.76 725.39,-125.57 620.26,-123.62"/>
<polygon fill="midnightblue" stroke="midnightblue" points="620.23,-120.12 610.17,-123.44 620.11,-127.11 620.23,-120.12"/>
</g>
<!-- Node34&#45;&gt;Node13 -->
<g id="edge58" class="edge">
<title>Node34&#45;&gt;Node13</title>
<path fill="none" stroke="midnightblue" d="M1053.25,-229.97C1043.8,-227.83 1033.54,-225.67 1024,-224 906.73,-203.5 766.55,-188.89 699.9,-182.54"/>
<polygon fill="midnightblue" stroke="midnightblue" points="700.13,-179.05 689.85,-181.59 699.48,-186.02 700.13,-179.05"/>
</g>
<!-- Node34&#45;&gt;Node25 -->
<g id="edge56" class="edge">
<title>Node34&#45;&gt;Node25</title>
<path fill="none" stroke="midnightblue" d="M1136.43,-229.98C1197.42,-219.24 1302.13,-200.81 1367.52,-189.29"/>
<polygon fill="midnightblue" stroke="midnightblue" points="1368.42,-192.69 1377.66,-187.51 1367.21,-185.8 1368.42,-192.69"/>
</g>
<!-- Node35 -->
<g id="node35" class="node">
<title>Node35</title>
<g id="a_node35"><a xlink:title=" ">
<polygon fill="white" stroke="#bfbfbf" points="1069,-168.5 1069,-187.5 1113,-187.5 1113,-168.5 1069,-168.5"/>
<text text-anchor="middle" x="1091" y="-175.5" font-family="Helvetica,sans-Serif" font-size="10.00">string</text>
</a>
</g>
</g>
<!-- Node34&#45;&gt;Node35 -->
<g id="edge57" class="edge">
<title>Node34&#45;&gt;Node35</title>
<path fill="none" stroke="midnightblue" d="M1088.43,-229.98C1088.85,-221.58 1089.51,-208.48 1090.06,-197.66"/>
<polygon fill="midnightblue" stroke="midnightblue" points="1093.56,-197.67 1090.57,-187.51 1086.57,-197.32 1093.56,-197.67"/>
</g>
<!-- Node38&#45;&gt;Node3 -->
<g id="edge73" class="edge">
<title>Node38&#45;&gt;Node3</title>
<path fill="none" stroke="midnightblue" d="M519.44,-515.44C493.48,-506.4 452.33,-492.06 423.2,-481.92"/>
<polygon fill="midnightblue" stroke="midnightblue" points="424.04,-478.5 413.45,-478.52 421.74,-485.11 424.04,-478.5"/>
</g>
<!-- Node38&#45;&gt;Node4 -->
<g id="edge67" class="edge">
<title>Node38&#45;&gt;Node4</title>
<path fill="none" stroke="midnightblue" d="M494.76,-524.42C360.85,-524.24 0,-514.45 0,-414 0,-414 0,-414 0,-177 0,-112 68.35,-129.31 131,-112 229.45,-84.8 537.19,-72.3 655.76,-68.41"/>
<polygon fill="midnightblue" stroke="midnightblue" points="656.09,-71.9 665.97,-68.08 655.86,-64.9 656.09,-71.9"/>
</g>
<!-- Node39 -->
<g id="node39" class="node">
<title>Node39</title>
<g id="a_node39"><a xlink:href="sitkMemberFunctionFactory_8h.html" target="_top" xlink:title=" ">
<polygon fill="white" stroke="black" points="1151.5,-347.5 1151.5,-366.5 1310.5,-366.5 1310.5,-347.5 1151.5,-347.5"/>
<text text-anchor="middle" x="1231" y="-354.5" font-family="Helvetica,sans-Serif" font-size="10.00">sitkMemberFunctionFactory.h</text>
</a>
</g>
</g>
<!-- Node38&#45;&gt;Node39 -->
<g id="edge68" class="edge">
<title>Node38&#45;&gt;Node39</title>
<path fill="none" stroke="midnightblue" d="M593.28,-515.63C640.98,-507.28 715.23,-493.62 779,-479 933.21,-443.64 1114.39,-392.05 1192.25,-369.39"/>
<polygon fill="midnightblue" stroke="midnightblue" points="1193.48,-372.68 1202.1,-366.52 1191.52,-365.96 1193.48,-372.68"/>
</g>
<!-- Node41 -->
<g id="node41" class="node">
<title>Node41</title>
<g id="a_node41"><a xlink:href="sitkProcessObject_8h.html" target="_top" xlink:title=" ">
<polygon fill="white" stroke="black" points="656.5,-459.5 656.5,-478.5 769.5,-478.5 769.5,-459.5 656.5,-459.5"/>
<text text-anchor="middle" x="713" y="-466.5" font-family="Helvetica,sans-Serif" font-size="10.00">sitkProcessObject.h</text>
</a>
</g>
</g>
<!-- Node38&#45;&gt;Node41 -->
<g id="edge74" class="edge">
<title>Node38&#45;&gt;Node41</title>
<path fill="none" stroke="midnightblue" d="M570.78,-515.44C599.33,-506.32 644.73,-491.81 676.54,-481.65"/>
<polygon fill="midnightblue" stroke="midnightblue" points="677.89,-484.89 686.35,-478.52 675.76,-478.23 677.89,-484.89"/>
</g>
<!-- Node39&#45;&gt;Node22 -->
<g id="edge69" class="edge">
<title>Node39&#45;&gt;Node22</title>
<path fill="none" stroke="midnightblue" d="M1231,-347.08C1231,-340.01 1231,-329.86 1231,-320.99"/>
<polygon fill="midnightblue" stroke="midnightblue" points="1234.5,-320.75 1231,-310.75 1227.5,-320.75 1234.5,-320.75"/>
</g>
<!-- Node39&#45;&gt;Node23 -->
<g id="edge70" class="edge">
<title>Node39&#45;&gt;Node23</title>
<path fill="none" stroke="midnightblue" d="M1310.75,-348.26C1368.97,-341.24 1441.79,-329.17 1466,-311 1481.24,-299.56 1490.53,-279.84 1495.85,-264.16"/>
<polygon fill="midnightblue" stroke="midnightblue" points="1499.2,-265.15 1498.79,-254.56 1492.51,-263.1 1499.2,-265.15"/>
</g>
<!-- Node39&#45;&gt;Node34 -->
<g id="edge71" class="edge">
<title>Node39&#45;&gt;Node34</title>
<path fill="none" stroke="midnightblue" d="M1220.25,-347.32C1196.13,-327.84 1137.43,-280.42 1107,-255.84"/>
<polygon fill="midnightblue" stroke="midnightblue" points="1108.85,-252.84 1098.87,-249.28 1104.45,-258.29 1108.85,-252.84"/>
</g>
<!-- Node40 -->
<g id="node40" class="node">
<title>Node40</title>
<g id="a_node40"><a xlink:title=" ">
<polygon fill="white" stroke="#bfbfbf" points="1285.5,-291.5 1285.5,-310.5 1456.5,-310.5 1456.5,-291.5 1285.5,-291.5"/>
<text text-anchor="middle" x="1371" y="-298.5" font-family="Helvetica,sans-Serif" font-size="10.00">sitkMemberFunctionFactory.hxx</text>
</a>
</g>
</g>
<!-- Node39&#45;&gt;Node40 -->
<g id="edge72" class="edge">
<title>Node39&#45;&gt;Node40</title>
<path fill="none" stroke="midnightblue" d="M1253.18,-347.44C1276.43,-338.48 1313.15,-324.31 1339.42,-314.18"/>
<polygon fill="midnightblue" stroke="midnightblue" points="1340.85,-317.38 1348.92,-310.52 1338.33,-310.85 1340.85,-317.38"/>
</g>
<!-- Node41&#45;&gt;Node12 -->
<g id="edge75" class="edge">
<title>Node41&#45;&gt;Node12</title>
<path fill="none" stroke="midnightblue" d="M756.44,-459.47C794.32,-451.2 845.42,-437.77 860,-423 881.15,-401.58 879,-388.1 879,-358 879,-358 879,-358 879,-300 879,-182.48 709.76,-142.09 620.17,-128.94"/>
<polygon fill="midnightblue" stroke="midnightblue" points="620.57,-125.46 610.18,-127.54 619.6,-132.39 620.57,-125.46"/>
</g>
<!-- Node41&#45;&gt;Node18 -->
<g id="edge81" class="edge">
<title>Node41&#45;&gt;Node18</title>
<path fill="none" stroke="midnightblue" d="M702.72,-459.37C680.53,-440.73 627.89,-396.53 600.02,-373.13"/>
<polygon fill="midnightblue" stroke="midnightblue" points="602.14,-370.34 592.23,-366.59 597.64,-375.7 602.14,-370.34"/>
</g>
<!-- Node41&#45;&gt;Node19 -->
<g id="edge77" class="edge">
<title>Node41&#45;&gt;Node19</title>
<path fill="none" stroke="midnightblue" d="M709.98,-459.47C706.89,-450.48 702.11,-435.88 699,-423 690.36,-387.2 683.82,-344.62 680.48,-320.71"/>
<polygon fill="midnightblue" stroke="midnightblue" points="683.92,-320.02 679.1,-310.59 676.98,-320.97 683.92,-320.02"/>
</g>
<!-- Node41&#45;&gt;Node28 -->
<g id="edge76" class="edge">
<title>Node41&#45;&gt;Node28</title>
<path fill="none" stroke="midnightblue" d="M769.87,-459.69C815.52,-451.98 874.89,-439.24 893,-423 915.93,-402.44 917,-388.8 917,-358 917,-358 917,-358 917,-300 917,-261.55 935.8,-219.69 947.94,-196.67"/>
<polygon fill="midnightblue" stroke="midnightblue" points="951.08,-198.21 952.81,-187.76 944.94,-194.86 951.08,-198.21"/>
</g>
<!-- Node42 -->
<g id="node42" class="node">
<title>Node42</title>
<g id="a_node42"><a xlink:href="sitkEvent_8h.html" target="_top" xlink:title=" ">
<polygon fill="white" stroke="black" points="741.5,-230 741.5,-249 812.5,-249 812.5,-230 741.5,-230"/>
<text text-anchor="middle" x="777" y="-237" font-family="Helvetica,sans-Serif" font-size="10.00">sitkEvent.h</text>
</a>
</g>
</g>
<!-- Node41&#45;&gt;Node42 -->
<g id="edge78" class="edge">
<title>Node41&#45;&gt;Node42</title>
<path fill="none" stroke="midnightblue" d="M715.43,-459.36C724.82,-426 758.82,-305.14 771.86,-258.78"/>
<polygon fill="midnightblue" stroke="midnightblue" points="775.23,-259.72 774.57,-249.15 768.49,-257.83 775.23,-259.72"/>
</g>
<!-- Node43 -->
<g id="node43" class="node">
<title>Node43</title>
<g id="a_node43"><a xlink:href="sitkImageConvert_8h.html" target="_top" xlink:title=" ">
<polygon fill="white" stroke="black" points="495.5,-403.5 495.5,-422.5 608.5,-422.5 608.5,-403.5 495.5,-403.5"/>
<text text-anchor="middle" x="552" y="-410.5" font-family="Helvetica,sans-Serif" font-size="10.00">sitkImageConvert.h</text>
</a>
</g>
</g>
<!-- Node41&#45;&gt;Node43 -->
<g id="edge82" class="edge">
<title>Node41&#45;&gt;Node43</title>
<path fill="none" stroke="midnightblue" d="M687.49,-459.44C660.4,-450.36 617.41,-435.94 587.13,-425.78"/>
<polygon fill="midnightblue" stroke="midnightblue" points="587.99,-422.38 577.39,-422.52 585.76,-429.01 587.99,-422.38"/>
</g>
<!-- Node44 -->
<g id="node44" class="node">
<title>Node44</title>
<g id="a_node44"><a xlink:title=" ">
<polygon fill="white" stroke="#bfbfbf" points="741,-403.5 741,-422.5 801,-422.5 801,-403.5 741,-403.5"/>
<text text-anchor="middle" x="771" y="-410.5" font-family="Helvetica,sans-Serif" font-size="10.00">iostream</text>
</a>
</g>
</g>
<!-- Node41&#45;&gt;Node44 -->
<g id="edge84" class="edge">
<title>Node41&#45;&gt;Node44</title>
<path fill="none" stroke="midnightblue" d="M722.32,-459.32C730.89,-451.34 743.81,-439.31 754.19,-429.65"/>
<polygon fill="midnightblue" stroke="midnightblue" points="756.58,-432.21 761.51,-422.83 751.81,-427.09 756.58,-432.21"/>
</g>
<!-- Node45 -->
<g id="node45" class="node">
<title>Node45</title>
<g id="a_node45"><a xlink:title=" ">
<polygon fill="white" stroke="#bfbfbf" points="819,-403.5 819,-422.5 851,-422.5 851,-403.5 819,-403.5"/>
<text text-anchor="middle" x="835" y="-410.5" font-family="Helvetica,sans-Serif" font-size="10.00">list</text>
</a>
</g>
</g>
<!-- Node41&#45;&gt;Node45 -->
<g id="edge85" class="edge">
<title>Node41&#45;&gt;Node45</title>
<path fill="none" stroke="midnightblue" d="M732.33,-459.44C753.26,-450.18 786.73,-435.37 809.73,-425.19"/>
<polygon fill="midnightblue" stroke="midnightblue" points="811.15,-428.38 818.88,-421.14 808.32,-421.98 811.15,-428.38"/>
</g>
<!-- Node42&#45;&gt;Node12 -->
<g id="edge79" class="edge">
<title>Node42&#45;&gt;Node12</title>
<path fill="none" stroke="midnightblue" d="M769.68,-229.9C756.79,-215.25 728.6,-185.37 699,-168 672.71,-152.58 640.38,-141.49 614.17,-134.17"/>
<polygon fill="midnightblue" stroke="midnightblue" points="615.02,-130.78 604.46,-131.55 613.2,-137.54 615.02,-130.78"/>
</g>
<!-- Node42&#45;&gt;Node13 -->
<g id="edge80" class="edge">
<title>Node42&#45;&gt;Node13</title>
<path fill="none" stroke="midnightblue" d="M760.38,-229.98C741.08,-220.08 709.04,-203.64 686.57,-192.12"/>
<polygon fill="midnightblue" stroke="midnightblue" points="688.08,-188.96 677.59,-187.51 684.89,-195.19 688.08,-188.96"/>
</g>
<!-- Node43&#45;&gt;Node18 -->
<g id="edge83" class="edge">
<title>Node43&#45;&gt;Node18</title>
<path fill="none" stroke="midnightblue" d="M556.95,-403.08C561.1,-395.61 567.15,-384.72 572.27,-375.52"/>
<polygon fill="midnightblue" stroke="midnightblue" points="575.34,-377.19 577.14,-366.75 569.22,-373.79 575.34,-377.19"/>
</g>
<!-- Node46&#45;&gt;Node12 -->
<g id="edge87" class="edge">
<title>Node46&#45;&gt;Node12</title>
<path fill="none" stroke="midnightblue" d="M205.38,-459.43C152.14,-447.17 76,-418.98 76,-358 76,-358 76,-358 76,-238.5 76,-190.44 113.92,-187.16 158,-168 220.27,-140.94 415.9,-129.23 511.85,-125.01"/>
<polygon fill="midnightblue" stroke="midnightblue" points="512.09,-128.51 521.93,-124.58 511.79,-121.51 512.09,-128.51"/>
</g>
<!-- Node46&#45;&gt;Node16 -->
<g id="edge88" class="edge">
<title>Node46&#45;&gt;Node16</title>
<path fill="none" stroke="midnightblue" d="M256.83,-459.08C257.48,-452.01 258.42,-441.86 259.24,-432.99"/>
<polygon fill="midnightblue" stroke="midnightblue" points="262.75,-433.03 260.19,-422.75 255.78,-432.39 262.75,-433.03"/>
</g>
</g>
</svg>
