<?xml version="1.0" encoding="UTF-8" standalone="no"?>
<!DOCTYPE svg PUBLIC "-//W3C//DTD SVG 1.1//EN"
 "http://www.w3.org/Graphics/SVG/1.1/DTD/svg11.dtd">
<!-- Generated by graphviz version 2.43.0 (0)
 -->
<!-- Title: sitkLogger.h Pages: 1 -->
<svg width="493pt" height="308pt"
 viewBox="0.00 0.00 492.50 308.00" xmlns="http://www.w3.org/2000/svg" xmlns:xlink="http://www.w3.org/1999/xlink">
<g id="graph0" class="graph" transform="scale(1 1) rotate(0) translate(4 304)">
<title>sitkLogger.h</title>
<polygon fill="white" stroke="transparent" points="-4,4 -4,-304 488.5,-304 488.5,4 -4,4"/>
<!-- Node1 -->
<g id="node1" class="node">
<title>Node1</title>
<g id="a_node1"><a xlink:title=" ">
<polygon fill="#bfbfbf" stroke="black" points="272.5,-280.5 272.5,-299.5 348.5,-299.5 348.5,-280.5 272.5,-280.5"/>
<text text-anchor="middle" x="310.5" y="-287.5" font-family="Helvetica,sans-Serif" font-size="10.00">sitkLogger.h</text>
</a>
</g>
</g>
<!-- Node2 -->
<g id="node2" class="node">
<title>Node2</title>
<g id="a_node2"><a xlink:href="sitkCommon_8h.html" target="_top" xlink:title=" ">
<polygon fill="white" stroke="black" points="163.5,-112.5 163.5,-131.5 251.5,-131.5 251.5,-112.5 163.5,-112.5"/>
<text text-anchor="middle" x="207.5" y="-119.5" font-family="Helvetica,sans-Serif" font-size="10.00">sitkCommon.h</text>
</a>
</g>
</g>
<!-- Node1&#45;&gt;Node2 -->
<g id="edge1" class="edge">
<title>Node1&#45;&gt;Node2</title>
<path fill="none" stroke="midnightblue" d="M287.81,-280.35C271.07,-272.95 248.81,-260.81 234.5,-244 209.71,-214.88 206.32,-167.88 206.57,-141.86"/>
<polygon fill="midnightblue" stroke="midnightblue" points="210.07,-141.91 206.87,-131.81 203.08,-141.7 210.07,-141.91"/>
</g>
<!-- Node10 -->
<g id="node10" class="node">
<title>Node10</title>
<g id="a_node10"><a xlink:href="sitkObjectOwnedBase_8h.html" target="_top" xlink:title=" ">
<polygon fill="white" stroke="black" points="244,-224.5 244,-243.5 377,-243.5 377,-224.5 244,-224.5"/>
<text text-anchor="middle" x="310.5" y="-231.5" font-family="Helvetica,sans-Serif" font-size="10.00">sitkObjectOwnedBase.h</text>
</a>
</g>
</g>
<!-- Node1&#45;&gt;Node10 -->
<g id="edge9" class="edge">
<title>Node1&#45;&gt;Node10</title>
<path fill="none" stroke="midnightblue" d="M310.5,-280.08C310.5,-273.01 310.5,-262.86 310.5,-253.99"/>
<polygon fill="midnightblue" stroke="midnightblue" points="314,-253.75 310.5,-243.75 307,-253.75 314,-253.75"/>
</g>
<!-- Node12 -->
<g id="node12" class="node">
<title>Node12</title>
<g id="a_node12"><a xlink:title=" ">
<polygon fill="white" stroke="#bfbfbf" points="446.5,-168.5 446.5,-187.5 484.5,-187.5 484.5,-168.5 446.5,-168.5"/>
<text text-anchor="middle" x="465.5" y="-175.5" font-family="Helvetica,sans-Serif" font-size="10.00">map</text>
</a>
</g>
</g>
<!-- Node1&#45;&gt;Node12 -->
<g id="edge15" class="edge">
<title>Node1&#45;&gt;Node12</title>
<path fill="none" stroke="midnightblue" d="M326.66,-280.38C342.36,-271.79 366.66,-257.91 386.5,-244 408.83,-228.34 432.8,-208.08 448.4,-194.37"/>
<polygon fill="midnightblue" stroke="midnightblue" points="450.99,-196.76 456.15,-187.5 446.34,-191.52 450.99,-196.76"/>
</g>
<!-- Node3 -->
<g id="node3" class="node">
<title>Node3</title>
<g id="a_node3"><a xlink:href="sitkMacro_8h.html" target="_top" xlink:title=" ">
<polygon fill="white" stroke="black" points="170.5,-56.5 170.5,-75.5 244.5,-75.5 244.5,-56.5 170.5,-56.5"/>
<text text-anchor="middle" x="207.5" y="-63.5" font-family="Helvetica,sans-Serif" font-size="10.00">sitkMacro.h</text>
</a>
</g>
</g>
<!-- Node2&#45;&gt;Node3 -->
<g id="edge2" class="edge">
<title>Node2&#45;&gt;Node3</title>
<path fill="none" stroke="midnightblue" d="M207.5,-112.08C207.5,-105.01 207.5,-94.86 207.5,-85.99"/>
<polygon fill="midnightblue" stroke="midnightblue" points="211,-85.75 207.5,-75.75 204,-85.75 211,-85.75"/>
</g>
<!-- Node4 -->
<g id="node4" class="node">
<title>Node4</title>
<g id="a_node4"><a xlink:title=" ">
<polygon fill="white" stroke="#bfbfbf" points="0,-0.5 0,-19.5 53,-19.5 53,-0.5 0,-0.5"/>
<text text-anchor="middle" x="26.5" y="-7.5" font-family="Helvetica,sans-Serif" font-size="10.00">stdint.h</text>
</a>
</g>
</g>
<!-- Node3&#45;&gt;Node4 -->
<g id="edge3" class="edge">
<title>Node3&#45;&gt;Node4</title>
<path fill="none" stroke="midnightblue" d="M178.82,-56.44C147.43,-47.08 97.03,-32.04 62.88,-21.85"/>
<polygon fill="midnightblue" stroke="midnightblue" points="63.86,-18.49 53.28,-18.99 61.86,-25.2 63.86,-18.49"/>
</g>
<!-- Node5 -->
<g id="node5" class="node">
<title>Node5</title>
<g id="a_node5"><a xlink:title=" ">
<polygon fill="white" stroke="#bfbfbf" points="71.5,-0.5 71.5,-19.5 127.5,-19.5 127.5,-0.5 71.5,-0.5"/>
<text text-anchor="middle" x="99.5" y="-7.5" font-family="Helvetica,sans-Serif" font-size="10.00">stddef.h</text>
</a>
</g>
</g>
<!-- Node3&#45;&gt;Node5 -->
<g id="edge4" class="edge">
<title>Node3&#45;&gt;Node5</title>
<path fill="none" stroke="midnightblue" d="M190.15,-56.32C172.83,-47.66 145.98,-34.24 126,-24.25"/>
<polygon fill="midnightblue" stroke="midnightblue" points="127.32,-21 116.81,-19.65 124.19,-27.26 127.32,-21"/>
</g>
<!-- Node6 -->
<g id="node6" class="node">
<title>Node6</title>
<g id="a_node6"><a xlink:title=" ">
<polygon fill="white" stroke="#bfbfbf" points="145.5,-0.5 145.5,-19.5 197.5,-19.5 197.5,-0.5 145.5,-0.5"/>
<text text-anchor="middle" x="171.5" y="-7.5" font-family="Helvetica,sans-Serif" font-size="10.00">cassert</text>
</a>
</g>
</g>
<!-- Node3&#45;&gt;Node6 -->
<g id="edge5" class="edge">
<title>Node3&#45;&gt;Node6</title>
<path fill="none" stroke="midnightblue" d="M201.56,-56.08C196.52,-48.53 189.16,-37.49 182.99,-28.23"/>
<polygon fill="midnightblue" stroke="midnightblue" points="185.79,-26.13 177.33,-19.75 179.97,-30.01 185.79,-26.13"/>
</g>
<!-- Node7 -->
<g id="node7" class="node">
<title>Node7</title>
<g id="a_node7"><a xlink:title=" ">
<polygon fill="white" stroke="#bfbfbf" points="215.5,-0.5 215.5,-19.5 271.5,-19.5 271.5,-0.5 215.5,-0.5"/>
<text text-anchor="middle" x="243.5" y="-7.5" font-family="Helvetica,sans-Serif" font-size="10.00">sstream</text>
</a>
</g>
</g>
<!-- Node3&#45;&gt;Node7 -->
<g id="edge6" class="edge">
<title>Node3&#45;&gt;Node7</title>
<path fill="none" stroke="midnightblue" d="M213.44,-56.08C218.48,-48.53 225.84,-37.49 232.01,-28.23"/>
<polygon fill="midnightblue" stroke="midnightblue" points="235.03,-30.01 237.67,-19.75 229.21,-26.13 235.03,-30.01"/>
</g>
<!-- Node8 -->
<g id="node8" class="node">
<title>Node8</title>
<g id="a_node8"><a xlink:title=" ">
<polygon fill="white" stroke="#bfbfbf" points="289.5,-0.5 289.5,-19.5 333.5,-19.5 333.5,-0.5 289.5,-0.5"/>
<text text-anchor="middle" x="311.5" y="-7.5" font-family="Helvetica,sans-Serif" font-size="10.00">limits</text>
</a>
</g>
</g>
<!-- Node3&#45;&gt;Node8 -->
<g id="edge7" class="edge">
<title>Node3&#45;&gt;Node8</title>
<path fill="none" stroke="midnightblue" d="M224.21,-56.32C240.81,-47.7 266.5,-34.36 285.72,-24.39"/>
<polygon fill="midnightblue" stroke="midnightblue" points="287.57,-27.37 294.83,-19.65 284.34,-21.16 287.57,-27.37"/>
</g>
<!-- Node9 -->
<g id="node9" class="node">
<title>Node9</title>
<g id="a_node9"><a xlink:href="sitkConfigure_8h.html" target="_top" xlink:title=" ">
<polygon fill="white" stroke="black" points="351.5,-0.5 351.5,-19.5 441.5,-19.5 441.5,-0.5 351.5,-0.5"/>
<text text-anchor="middle" x="396.5" y="-7.5" font-family="Helvetica,sans-Serif" font-size="10.00">sitkConfigure.h</text>
</a>
</g>
</g>
<!-- Node3&#45;&gt;Node9 -->
<g id="edge8" class="edge">
<title>Node3&#45;&gt;Node9</title>
<path fill="none" stroke="midnightblue" d="M237.45,-56.44C269.66,-47.24 321.03,-32.56 356.64,-22.39"/>
<polygon fill="midnightblue" stroke="midnightblue" points="358.04,-25.63 366.69,-19.52 356.12,-18.9 358.04,-25.63"/>
</g>
<!-- Node10&#45;&gt;Node2 -->
<g id="edge10" class="edge">
<title>Node10&#45;&gt;Node2</title>
<path fill="none" stroke="midnightblue" d="M282.58,-224.43C264.17,-217.42 240.89,-205.73 226.5,-188 215.74,-174.75 211.08,-155.62 209.05,-141.54"/>
<polygon fill="midnightblue" stroke="midnightblue" points="212.52,-141.09 207.93,-131.55 205.57,-141.87 212.52,-141.09"/>
</g>
<!-- Node11 -->
<g id="node11" class="node">
<title>Node11</title>
<g id="a_node11"><a xlink:href="sitkNonCopyable_8h.html" target="_top" xlink:title=" ">
<polygon fill="white" stroke="black" points="236,-168.5 236,-187.5 345,-187.5 345,-168.5 236,-168.5"/>
<text text-anchor="middle" x="290.5" y="-175.5" font-family="Helvetica,sans-Serif" font-size="10.00">sitkNonCopyable.h</text>
</a>
</g>
</g>
<!-- Node10&#45;&gt;Node11 -->
<g id="edge11" class="edge">
<title>Node10&#45;&gt;Node11</title>
<path fill="none" stroke="midnightblue" d="M307.2,-224.08C304.52,-216.85 300.65,-206.41 297.31,-197.4"/>
<polygon fill="midnightblue" stroke="midnightblue" points="300.5,-195.91 293.74,-187.75 293.93,-198.34 300.5,-195.91"/>
</g>
<!-- Node10&#45;&gt;Node12 -->
<g id="edge13" class="edge">
<title>Node10&#45;&gt;Node12</title>
<path fill="none" stroke="midnightblue" d="M335.06,-224.44C362.7,-214.81 407.56,-199.19 436.79,-189"/>
<polygon fill="midnightblue" stroke="midnightblue" points="438.14,-192.24 446.43,-185.64 435.83,-185.63 438.14,-192.24"/>
</g>
<!-- Node13 -->
<g id="node13" class="node">
<title>Node13</title>
<g id="a_node13"><a xlink:title=" ">
<polygon fill="white" stroke="#bfbfbf" points="363,-168.5 363,-187.5 428,-187.5 428,-168.5 363,-168.5"/>
<text text-anchor="middle" x="395.5" y="-175.5" font-family="Helvetica,sans-Serif" font-size="10.00">functional</text>
</a>
</g>
</g>
<!-- Node10&#45;&gt;Node13 -->
<g id="edge14" class="edge">
<title>Node10&#45;&gt;Node13</title>
<path fill="none" stroke="midnightblue" d="M324.16,-224.32C337.42,-215.9 357.77,-202.97 373.35,-193.07"/>
<polygon fill="midnightblue" stroke="midnightblue" points="375.31,-195.97 381.88,-187.65 371.56,-190.06 375.31,-195.97"/>
</g>
<!-- Node11&#45;&gt;Node2 -->
<g id="edge12" class="edge">
<title>Node11&#45;&gt;Node2</title>
<path fill="none" stroke="midnightblue" d="M277.16,-168.32C264.34,-159.98 244.72,-147.21 229.56,-137.35"/>
<polygon fill="midnightblue" stroke="midnightblue" points="231.09,-134.17 220.8,-131.65 227.28,-140.04 231.09,-134.17"/>
</g>
</g>
</svg>
