<?xml version="1.0" encoding="UTF-8" standalone="no"?>
<!DOCTYPE svg PUBLIC "-//W3C//DTD SVG 1.1//EN"
 "http://www.w3.org/Graphics/SVG/1.1/DTD/svg11.dtd">
<!-- Generated by graphviz version 2.43.0 (0)
 -->
<!-- Title: sitkTransform.h Pages: 1 -->
<!--zoomable 431 -->
<svg id="main" version="1.1" xmlns="http://www.w3.org/2000/svg" xmlns:xlink="http://www.w3.org/1999/xlink" xml:space="preserve" onload="init(evt)">
<style type="text/css"><![CDATA[
.edge:hover path { stroke: red; }
.edge:hover polygon { stroke: red; fill: red; }
]]></style>
<script type="text/javascript"><![CDATA[
var edges = document.getElementsByTagName('g');
if (edges && edges.length) {
  for (var i=0;i<edges.length;i++) {
    if (edges[i].id.substr(0,4)=='edge') {
      edges[i].setAttribute('class','edge');
    }
  }
}
]]></script>
        <defs>
                <circle id="rim" cx="0" cy="0" r="7"/>
                <circle id="rim2" cx="0" cy="0" r="3.5"/>
                <g id="zoomPlus">
                        <use xlink:href="#rim" fill="#404040">
                                <set attributeName="fill" to="#808080" begin="zoomplus.mouseover" end="zoomplus.mouseout"/>
                        </use>
                        <path d="M-4,0h8M0,-4v8" fill="none" stroke="white" stroke-width="1.5" pointer-events="none"/>
                </g>
                <g id="zoomMin">
                        <use xlink:href="#rim" fill="#404040">
                                <set attributeName="fill" to="#808080" begin="zoomminus.mouseover" end="zoomminus.mouseout"/>
                        </use>
                        <path d="M-4,0h8" fill="none" stroke="white" stroke-width="1.5" pointer-events="none"/>
                </g>
                <g id="dirArrow">
                        <path fill="none" stroke="white" stroke-width="1.5" d="M0,-3.0v7 M-2.5,-0.5L0,-3.0L2.5,-0.5"/>
                </g>
               <g id="resetDef">
                       <use xlink:href="#rim2" fill="#404040">
                               <set attributeName="fill" to="#808080" begin="reset.mouseover" end="reset.mouseout"/>
                       </use>
               </g>
        </defs>

<script type="text/javascript">
var viewWidth = 1504;
var viewHeight = 431;
var sectionId = 'dynsection-0';
</script>
<script xlink:href="svgpan.js"/>
<svg id="graph" class="graph">
<g id="viewport">
<title>sitkTransform.h</title>
<polygon fill="white" stroke="transparent" points="-4,4 -4,-427 1500,-427 1500,4 -4,4"/>
<!-- Node1 -->
<g id="node1" class="node">
<title>Node1</title>
<g id="a_node1"><a xlink:title=" ">
<polygon fill="#bfbfbf" stroke="black" points="1235.5,-403.5 1235.5,-422.5 1327.5,-422.5 1327.5,-403.5 1235.5,-403.5"/>
<text text-anchor="middle" x="1281.5" y="-410.5" font-family="Helvetica,sans-Serif" font-size="10.00">sitkTransform.h</text>
</a>
</g>
</g>
<!-- Node2 -->
<g id="node2" class="node">
<title>Node2</title>
<g id="a_node2"><a xlink:href="sitkCommon_8h.html" target="_top" xlink:title=" ">
<polygon fill="white" stroke="black" points="970.5,-112.5 970.5,-131.5 1058.5,-131.5 1058.5,-112.5 970.5,-112.5"/>
<text text-anchor="middle" x="1014.5" y="-119.5" font-family="Helvetica,sans-Serif" font-size="10.00">sitkCommon.h</text>
</a>
</g>
</g>
<!-- Node1&#45;&gt;Node2 -->
<g id="edge1" class="edge">
<title>Node1&#45;&gt;Node2</title>
<path fill="none" stroke="midnightblue" d="M1235.23,-406.26C1142.8,-393.82 940.26,-361.37 894.5,-311 851.31,-263.45 868.62,-211.92 915.5,-168 931.77,-152.76 954.08,-142.01 973.41,-134.84"/>
<polygon fill="midnightblue" stroke="midnightblue" points="974.63,-138.13 982.91,-131.51 972.31,-131.52 974.63,-138.13"/>
</g>
<!-- Node10 -->
<g id="node10" class="node">
<title>Node10</title>
<g id="a_node10"><a xlink:href="sitkExceptionObject_8h.html" target="_top" xlink:title=" ">
<polygon fill="white" stroke="black" points="1308,-168.5 1308,-187.5 1431,-187.5 1431,-168.5 1308,-168.5"/>
<text text-anchor="middle" x="1369.5" y="-175.5" font-family="Helvetica,sans-Serif" font-size="10.00">sitkExceptionObject.h</text>
</a>
</g>
</g>
<!-- Node1&#45;&gt;Node10 -->
<g id="edge9" class="edge">
<title>Node1&#45;&gt;Node10</title>
<path fill="none" stroke="midnightblue" d="M1290.18,-403.48C1311.95,-381.42 1368.57,-319.62 1388.5,-255 1394.61,-235.17 1386.69,-211.98 1379.29,-196.48"/>
<polygon fill="midnightblue" stroke="midnightblue" points="1382.36,-194.79 1374.66,-187.52 1376.14,-198.01 1382.36,-194.79"/>
</g>
<!-- Node11 -->
<g id="node11" class="node">
<title>Node11</title>
<g id="a_node11"><a xlink:href="sitkImage_8h.html" target="_top" xlink:title=" ">
<polygon fill="white" stroke="black" points="1128.5,-347.5 1128.5,-366.5 1202.5,-366.5 1202.5,-347.5 1128.5,-347.5"/>
<text text-anchor="middle" x="1165.5" y="-354.5" font-family="Helvetica,sans-Serif" font-size="10.00">sitkImage.h</text>
</a>
</g>
</g>
<!-- Node1&#45;&gt;Node11 -->
<g id="edge12" class="edge">
<title>Node1&#45;&gt;Node11</title>
<path fill="none" stroke="midnightblue" d="M1263.12,-403.44C1244.28,-394.68 1214.77,-380.94 1193.12,-370.86"/>
<polygon fill="midnightblue" stroke="midnightblue" points="1194.34,-367.56 1183.79,-366.52 1191.38,-373.91 1194.34,-367.56"/>
</g>
<!-- Node13 -->
<g id="node13" class="node">
<title>Node13</title>
<g id="a_node13"><a xlink:title=" ">
<polygon fill="white" stroke="#bfbfbf" points="1449,-168.5 1449,-187.5 1496,-187.5 1496,-168.5 1449,-168.5"/>
<text text-anchor="middle" x="1472.5" y="-175.5" font-family="Helvetica,sans-Serif" font-size="10.00">vector</text>
</a>
</g>
</g>
<!-- Node1&#45;&gt;Node13 -->
<g id="edge54" class="edge">
<title>Node1&#45;&gt;Node13</title>
<path fill="none" stroke="midnightblue" d="M1296.9,-403.36C1310.65,-395.17 1330.83,-381.91 1345.5,-367 1399.3,-312.3 1444.75,-232.01 1463.41,-196.73"/>
<polygon fill="midnightblue" stroke="midnightblue" points="1466.62,-198.15 1468.14,-187.67 1460.41,-194.92 1466.62,-198.15"/>
</g>
<!-- Node3 -->
<g id="node3" class="node">
<title>Node3</title>
<g id="a_node3"><a xlink:href="sitkMacro_8h.html" target="_top" xlink:title=" ">
<polygon fill="white" stroke="black" points="972.5,-56.5 972.5,-75.5 1046.5,-75.5 1046.5,-56.5 972.5,-56.5"/>
<text text-anchor="middle" x="1009.5" y="-63.5" font-family="Helvetica,sans-Serif" font-size="10.00">sitkMacro.h</text>
</a>
</g>
</g>
<!-- Node2&#45;&gt;Node3 -->
<g id="edge2" class="edge">
<title>Node2&#45;&gt;Node3</title>
<path fill="none" stroke="midnightblue" d="M1013.67,-112.08C1013.02,-105.01 1012.08,-94.86 1011.26,-85.99"/>
<polygon fill="midnightblue" stroke="midnightblue" points="1014.72,-85.39 1010.31,-75.75 1007.75,-86.03 1014.72,-85.39"/>
</g>
<!-- Node4 -->
<g id="node4" class="node">
<title>Node4</title>
<g id="a_node4"><a xlink:title=" ">
<polygon fill="white" stroke="#bfbfbf" points="791,-0.5 791,-19.5 844,-19.5 844,-0.5 791,-0.5"/>
<text text-anchor="middle" x="817.5" y="-7.5" font-family="Helvetica,sans-Serif" font-size="10.00">stdint.h</text>
</a>
</g>
</g>
<!-- Node3&#45;&gt;Node4 -->
<g id="edge3" class="edge">
<title>Node3&#45;&gt;Node4</title>
<path fill="none" stroke="midnightblue" d="M979.08,-56.44C945.06,-46.87 889.99,-31.39 853.76,-21.2"/>
<polygon fill="midnightblue" stroke="midnightblue" points="854.64,-17.81 844.07,-18.47 852.75,-24.55 854.64,-17.81"/>
</g>
<!-- Node5 -->
<g id="node5" class="node">
<title>Node5</title>
<g id="a_node5"><a xlink:title=" ">
<polygon fill="white" stroke="#bfbfbf" points="1032.5,-0.5 1032.5,-19.5 1088.5,-19.5 1088.5,-0.5 1032.5,-0.5"/>
<text text-anchor="middle" x="1060.5" y="-7.5" font-family="Helvetica,sans-Serif" font-size="10.00">stddef.h</text>
</a>
</g>
</g>
<!-- Node3&#45;&gt;Node5 -->
<g id="edge4" class="edge">
<title>Node3&#45;&gt;Node5</title>
<path fill="none" stroke="midnightblue" d="M1017.92,-56.08C1025.35,-48.22 1036.35,-36.57 1045.31,-27.08"/>
<polygon fill="midnightblue" stroke="midnightblue" points="1047.91,-29.42 1052.24,-19.75 1042.82,-24.62 1047.91,-29.42"/>
</g>
<!-- Node6 -->
<g id="node6" class="node">
<title>Node6</title>
<g id="a_node6"><a xlink:title=" ">
<polygon fill="white" stroke="#bfbfbf" points="1106.5,-0.5 1106.5,-19.5 1158.5,-19.5 1158.5,-0.5 1106.5,-0.5"/>
<text text-anchor="middle" x="1132.5" y="-7.5" font-family="Helvetica,sans-Serif" font-size="10.00">cassert</text>
</a>
</g>
</g>
<!-- Node3&#45;&gt;Node6 -->
<g id="edge5" class="edge">
<title>Node3&#45;&gt;Node6</title>
<path fill="none" stroke="midnightblue" d="M1028.99,-56.44C1049.14,-47.6 1080.82,-33.69 1103.83,-23.59"/>
<polygon fill="midnightblue" stroke="midnightblue" points="1105.35,-26.74 1113.1,-19.52 1102.54,-20.33 1105.35,-26.74"/>
</g>
<!-- Node7 -->
<g id="node7" class="node">
<title>Node7</title>
<g id="a_node7"><a xlink:title=" ">
<polygon fill="white" stroke="#bfbfbf" points="896.5,-0.5 896.5,-19.5 952.5,-19.5 952.5,-0.5 896.5,-0.5"/>
<text text-anchor="middle" x="924.5" y="-7.5" font-family="Helvetica,sans-Serif" font-size="10.00">sstream</text>
</a>
</g>
</g>
<!-- Node3&#45;&gt;Node7 -->
<g id="edge6" class="edge">
<title>Node3&#45;&gt;Node7</title>
<path fill="none" stroke="midnightblue" d="M995.84,-56.32C982.58,-47.9 962.23,-34.97 946.65,-25.07"/>
<polygon fill="midnightblue" stroke="midnightblue" points="948.44,-22.06 938.12,-19.65 944.69,-27.97 948.44,-22.06"/>
</g>
<!-- Node8 -->
<g id="node8" class="node">
<title>Node8</title>
<g id="a_node8"><a xlink:title=" ">
<polygon fill="white" stroke="#bfbfbf" points="970.5,-0.5 970.5,-19.5 1014.5,-19.5 1014.5,-0.5 970.5,-0.5"/>
<text text-anchor="middle" x="992.5" y="-7.5" font-family="Helvetica,sans-Serif" font-size="10.00">limits</text>
</a>
</g>
</g>
<!-- Node3&#45;&gt;Node8 -->
<g id="edge7" class="edge">
<title>Node3&#45;&gt;Node8</title>
<path fill="none" stroke="midnightblue" d="M1006.69,-56.08C1004.42,-48.85 1001.13,-38.41 998.29,-29.4"/>
<polygon fill="midnightblue" stroke="midnightblue" points="1001.6,-28.24 995.25,-19.75 994.92,-30.34 1001.6,-28.24"/>
</g>
<!-- Node9 -->
<g id="node9" class="node">
<title>Node9</title>
<g id="a_node9"><a xlink:href="sitkConfigure_8h.html" target="_top" xlink:title=" ">
<polygon fill="white" stroke="black" points="574.5,-0.5 574.5,-19.5 664.5,-19.5 664.5,-0.5 574.5,-0.5"/>
<text text-anchor="middle" x="619.5" y="-7.5" font-family="Helvetica,sans-Serif" font-size="10.00">sitkConfigure.h</text>
</a>
</g>
</g>
<!-- Node3&#45;&gt;Node9 -->
<g id="edge8" class="edge">
<title>Node3&#45;&gt;Node9</title>
<path fill="none" stroke="midnightblue" d="M972.46,-59.87C903.53,-50.33 755.28,-29.8 674.58,-18.63"/>
<polygon fill="midnightblue" stroke="midnightblue" points="674.99,-15.15 664.61,-17.25 674.03,-22.08 674.99,-15.15"/>
</g>
<!-- Node10&#45;&gt;Node2 -->
<g id="edge11" class="edge">
<title>Node10&#45;&gt;Node2</title>
<path fill="none" stroke="midnightblue" d="M1313.25,-168.44C1246.25,-158.25 1135.12,-141.35 1068.93,-131.28"/>
<polygon fill="midnightblue" stroke="midnightblue" points="1069.12,-127.77 1058.71,-129.73 1068.07,-134.69 1069.12,-127.77"/>
</g>
<!-- Node10&#45;&gt;Node3 -->
<g id="edge10" class="edge">
<title>Node10&#45;&gt;Node3</title>
<path fill="none" stroke="midnightblue" d="M1353.19,-168.43C1326.52,-154.74 1271.63,-127.86 1222.5,-112 1166.73,-93.99 1100.37,-81.29 1056.71,-74.07"/>
<polygon fill="midnightblue" stroke="midnightblue" points="1057.1,-70.59 1046.67,-72.44 1055.98,-77.5 1057.1,-70.59"/>
</g>
<!-- Node11&#45;&gt;Node2 -->
<g id="edge13" class="edge">
<title>Node11&#45;&gt;Node2</title>
<path fill="none" stroke="midnightblue" d="M1128.46,-354.33C1066.01,-350.75 943.62,-340.1 913.5,-311 867.15,-266.22 890.97,-212.59 937.5,-168 951.29,-154.78 969.68,-143.85 985.02,-136.07"/>
<polygon fill="midnightblue" stroke="midnightblue" points="986.66,-139.17 994.12,-131.65 983.6,-132.88 986.66,-139.17"/>
</g>
<!-- Node12 -->
<g id="node12" class="node">
<title>Node12</title>
<g id="a_node12"><a xlink:href="sitkTemplateFunctions_8h.html" target="_top" xlink:title=" ">
<polygon fill="white" stroke="black" points="1245,-230 1245,-249 1380,-249 1380,-230 1245,-230"/>
<text text-anchor="middle" x="1312.5" y="-237" font-family="Helvetica,sans-Serif" font-size="10.00">sitkTemplateFunctions.h</text>
</a>
</g>
</g>
<!-- Node11&#45;&gt;Node12 -->
<g id="edge14" class="edge">
<title>Node11&#45;&gt;Node12</title>
<path fill="none" stroke="midnightblue" d="M1192.07,-347.44C1212.31,-340.02 1240.07,-327.82 1260.5,-311 1278.41,-296.25 1293.45,-274.04 1302.67,-258.5"/>
<polygon fill="midnightblue" stroke="midnightblue" points="1305.95,-259.82 1307.86,-249.4 1299.87,-256.35 1305.95,-259.82"/>
</g>
<!-- Node11&#45;&gt;Node13 -->
<g id="edge51" class="edge">
<title>Node11&#45;&gt;Node13</title>
<path fill="none" stroke="midnightblue" d="M1192.62,-347.47C1236.41,-332.9 1324.27,-300.34 1388.5,-255 1414.46,-236.68 1441.11,-211.21 1457.24,-194.92"/>
<polygon fill="midnightblue" stroke="midnightblue" points="1459.78,-197.32 1464.26,-187.72 1454.77,-192.43 1459.78,-197.32"/>
</g>
<!-- Node16 -->
<g id="node16" class="node">
<title>Node16</title>
<g id="a_node16"><a xlink:href="sitkDetail_8h.html" target="_top" xlink:title=" ">
<polygon fill="white" stroke="black" points="305,-291.5 305,-310.5 378,-310.5 378,-291.5 305,-291.5"/>
<text text-anchor="middle" x="341.5" y="-298.5" font-family="Helvetica,sans-Serif" font-size="10.00">sitkDetail.h</text>
</a>
</g>
</g>
<!-- Node11&#45;&gt;Node16 -->
<g id="edge21" class="edge">
<title>Node11&#45;&gt;Node16</title>
<path fill="none" stroke="midnightblue" d="M1128.49,-353.57C994.85,-344.82 537.24,-314.83 388.57,-305.08"/>
<polygon fill="midnightblue" stroke="midnightblue" points="388.61,-301.58 378.4,-304.42 388.15,-308.57 388.61,-301.58"/>
</g>
<!-- Node27 -->
<g id="node27" class="node">
<title>Node27</title>
<g id="a_node27"><a xlink:href="sitkPixelIDTokens_8h.html" target="_top" xlink:title=" ">
<polygon fill="white" stroke="black" points="922.5,-291.5 922.5,-310.5 1032.5,-310.5 1032.5,-291.5 922.5,-291.5"/>
<text text-anchor="middle" x="977.5" y="-298.5" font-family="Helvetica,sans-Serif" font-size="10.00">sitkPixelIDTokens.h</text>
</a>
</g>
</g>
<!-- Node11&#45;&gt;Node27 -->
<g id="edge40" class="edge">
<title>Node11&#45;&gt;Node27</title>
<path fill="none" stroke="midnightblue" d="M1135.71,-347.44C1103.67,-338.24 1052.57,-323.56 1017.15,-313.39"/>
<polygon fill="midnightblue" stroke="midnightblue" points="1017.73,-309.91 1007.15,-310.52 1015.79,-316.64 1017.73,-309.91"/>
</g>
<!-- Node30 -->
<g id="node30" class="node">
<title>Node30</title>
<g id="a_node30"><a xlink:title=" ">
<polygon fill="white" stroke="#bfbfbf" points="1039,-230 1039,-249 1108,-249 1108,-230 1039,-230"/>
<text text-anchor="middle" x="1073.5" y="-237" font-family="Helvetica,sans-Serif" font-size="10.00">type_traits</text>
</a>
</g>
</g>
<!-- Node11&#45;&gt;Node30 -->
<g id="edge53" class="edge">
<title>Node11&#45;&gt;Node30</title>
<path fill="none" stroke="midnightblue" d="M1158.59,-347.32C1143.33,-328.17 1106.59,-282.04 1086.75,-257.13"/>
<polygon fill="midnightblue" stroke="midnightblue" points="1089.46,-254.92 1080.5,-249.28 1083.99,-259.28 1089.46,-254.92"/>
</g>
<!-- Node31 -->
<g id="node31" class="node">
<title>Node31</title>
<g id="a_node31"><a xlink:href="sitkInterpolator_8h.html" target="_top" xlink:title=" ">
<polygon fill="white" stroke="black" points="1126.5,-230 1126.5,-249 1226.5,-249 1226.5,-230 1126.5,-230"/>
<text text-anchor="middle" x="1176.5" y="-237" font-family="Helvetica,sans-Serif" font-size="10.00">sitkInterpolator.h</text>
</a>
</g>
</g>
<!-- Node11&#45;&gt;Node31 -->
<g id="edge48" class="edge">
<title>Node11&#45;&gt;Node31</title>
<path fill="none" stroke="midnightblue" d="M1166.33,-347.32C1168.09,-328.76 1172.28,-284.84 1174.69,-259.47"/>
<polygon fill="midnightblue" stroke="midnightblue" points="1178.2,-259.57 1175.66,-249.28 1171.23,-258.91 1178.2,-259.57"/>
</g>
<!-- Node32 -->
<g id="node32" class="node">
<title>Node32</title>
<g id="a_node32"><a xlink:title=" ">
<polygon fill="white" stroke="#bfbfbf" points="1193.5,-291.5 1193.5,-310.5 1251.5,-310.5 1251.5,-291.5 1193.5,-291.5"/>
<text text-anchor="middle" x="1222.5" y="-298.5" font-family="Helvetica,sans-Serif" font-size="10.00">memory</text>
</a>
</g>
</g>
<!-- Node11&#45;&gt;Node32 -->
<g id="edge52" class="edge">
<title>Node11&#45;&gt;Node32</title>
<path fill="none" stroke="midnightblue" d="M1174.66,-347.32C1183,-339.42 1195.53,-327.55 1205.68,-317.94"/>
<polygon fill="midnightblue" stroke="midnightblue" points="1208.32,-320.25 1213.18,-310.83 1203.51,-315.17 1208.32,-320.25"/>
</g>
<!-- Node12&#45;&gt;Node2 -->
<g id="edge16" class="edge">
<title>Node12&#45;&gt;Node2</title>
<path fill="none" stroke="midnightblue" d="M1291.84,-229.93C1259.19,-216.43 1193.61,-189.56 1137.5,-168 1107.47,-156.46 1073.05,-143.93 1048.28,-135.03"/>
<polygon fill="midnightblue" stroke="midnightblue" points="1049.22,-131.65 1038.63,-131.57 1046.86,-138.24 1049.22,-131.65"/>
</g>
<!-- Node12&#45;&gt;Node3 -->
<g id="edge15" class="edge">
<title>Node12&#45;&gt;Node3</title>
<path fill="none" stroke="midnightblue" d="M1297.47,-230C1248.51,-202.28 1093.26,-114.41 1033.38,-80.51"/>
<polygon fill="midnightblue" stroke="midnightblue" points="1035.04,-77.44 1024.62,-75.56 1031.6,-83.53 1035.04,-77.44"/>
</g>
<!-- Node12&#45;&gt;Node10 -->
<g id="edge17" class="edge">
<title>Node12&#45;&gt;Node10</title>
<path fill="none" stroke="midnightblue" d="M1320.67,-229.98C1329.39,-220.87 1343.4,-206.24 1354.19,-194.98"/>
<polygon fill="midnightblue" stroke="midnightblue" points="1356.96,-197.15 1361.35,-187.51 1351.9,-192.31 1356.96,-197.15"/>
</g>
<!-- Node12&#45;&gt;Node13 -->
<g id="edge18" class="edge">
<title>Node12&#45;&gt;Node13</title>
<path fill="none" stroke="midnightblue" d="M1335.42,-229.98C1362.87,-219.77 1409.02,-202.61 1440.1,-191.05"/>
<polygon fill="midnightblue" stroke="midnightblue" points="1441.47,-194.28 1449.62,-187.51 1439.03,-187.71 1441.47,-194.28"/>
</g>
<!-- Node14 -->
<g id="node14" class="node">
<title>Node14</title>
<g id="a_node14"><a xlink:title=" ">
<polygon fill="white" stroke="#bfbfbf" points="1047,-168.5 1047,-187.5 1104,-187.5 1104,-168.5 1047,-168.5"/>
<text text-anchor="middle" x="1075.5" y="-175.5" font-family="Helvetica,sans-Serif" font-size="10.00">ostream</text>
</a>
</g>
</g>
<!-- Node12&#45;&gt;Node14 -->
<g id="edge19" class="edge">
<title>Node12&#45;&gt;Node14</title>
<path fill="none" stroke="midnightblue" d="M1278.54,-229.98C1234.99,-219.04 1159.65,-200.13 1114.01,-188.67"/>
<polygon fill="midnightblue" stroke="midnightblue" points="1114.74,-185.24 1104.19,-186.2 1113.03,-192.03 1114.74,-185.24"/>
</g>
<!-- Node15 -->
<g id="node15" class="node">
<title>Node15</title>
<g id="a_node15"><a xlink:title=" ">
<polygon fill="white" stroke="#bfbfbf" points="1237,-168.5 1237,-187.5 1290,-187.5 1290,-168.5 1237,-168.5"/>
<text text-anchor="middle" x="1263.5" y="-175.5" font-family="Helvetica,sans-Serif" font-size="10.00">iterator</text>
</a>
</g>
</g>
<!-- Node12&#45;&gt;Node15 -->
<g id="edge20" class="edge">
<title>Node12&#45;&gt;Node15</title>
<path fill="none" stroke="midnightblue" d="M1305.48,-229.98C1298.06,-220.96 1286.17,-206.52 1276.93,-195.31"/>
<polygon fill="midnightblue" stroke="midnightblue" points="1279.57,-193 1270.51,-187.51 1274.16,-197.45 1279.57,-193"/>
</g>
<!-- Node17 -->
<g id="node17" class="node">
<title>Node17</title>
<g id="a_node17"><a xlink:href="sitkMemberFunctionFactoryBase_8h.html" target="_top" xlink:title=" ">
<polygon fill="white" stroke="black" points="265.5,-224.5 265.5,-254.5 417.5,-254.5 417.5,-224.5 265.5,-224.5"/>
<text text-anchor="start" x="273.5" y="-242.5" font-family="Helvetica,sans-Serif" font-size="10.00">sitkMemberFunctionFactory</text>
<text text-anchor="middle" x="341.5" y="-231.5" font-family="Helvetica,sans-Serif" font-size="10.00">Base.h</text>
</a>
</g>
</g>
<!-- Node16&#45;&gt;Node17 -->
<g id="edge22" class="edge">
<title>Node16&#45;&gt;Node17</title>
<path fill="none" stroke="midnightblue" d="M341.5,-291.48C341.5,-284.47 341.5,-274.19 341.5,-264.7"/>
<polygon fill="midnightblue" stroke="midnightblue" points="345,-264.52 341.5,-254.52 338,-264.52 345,-264.52"/>
</g>
<!-- Node23 -->
<g id="node23" class="node">
<title>Node23</title>
<g id="a_node23"><a xlink:title=" ">
<polygon fill="white" stroke="#bfbfbf" points="0,-168.5 0,-187.5 139,-187.5 139,-168.5 0,-168.5"/>
<text text-anchor="middle" x="69.5" y="-175.5" font-family="Helvetica,sans-Serif" font-size="10.00">Ancillary/FunctionTraits.h</text>
</a>
</g>
</g>
<!-- Node16&#45;&gt;Node23 -->
<g id="edge39" class="edge">
<title>Node16&#45;&gt;Node23</title>
<path fill="none" stroke="midnightblue" d="M322.37,-291.49C275.37,-270.58 154.01,-216.6 98.27,-191.8"/>
<polygon fill="midnightblue" stroke="midnightblue" points="99.53,-188.53 88.97,-187.66 96.68,-194.92 99.53,-188.53"/>
</g>
<!-- Node17&#45;&gt;Node3 -->
<g id="edge31" class="edge">
<title>Node17&#45;&gt;Node3</title>
<path fill="none" stroke="midnightblue" d="M417.53,-233.33C482.58,-227.27 578.04,-214.46 657.5,-188 675.61,-181.97 677.91,-175.39 695.5,-168 790.02,-128.28 905.91,-94.72 967.05,-78.13"/>
<polygon fill="midnightblue" stroke="midnightblue" points="967.99,-81.5 976.74,-75.52 966.17,-74.74 967.99,-81.5"/>
</g>
<!-- Node17&#45;&gt;Node9 -->
<g id="edge23" class="edge">
<title>Node17&#45;&gt;Node9</title>
<path fill="none" stroke="midnightblue" d="M265.42,-232.07C219.73,-224.21 172.86,-206.76 186.5,-168 197.1,-137.88 204.69,-129.34 231.5,-112 336.23,-44.24 484.46,-21.85 563.97,-14.52"/>
<polygon fill="midnightblue" stroke="midnightblue" points="564.6,-17.98 574.26,-13.62 563.99,-11.01 564.6,-17.98"/>
</g>
<!-- Node18 -->
<g id="node18" class="node">
<title>Node18</title>
<g id="a_node18"><a xlink:href="sitkPixelIDTypes_8h.html" target="_top" xlink:title=" ">
<polygon fill="white" stroke="black" points="241,-112.5 241,-131.5 346,-131.5 346,-112.5 241,-112.5"/>
<text text-anchor="middle" x="293.5" y="-119.5" font-family="Helvetica,sans-Serif" font-size="10.00">sitkPixelIDTypes.h</text>
</a>
</g>
</g>
<!-- Node17&#45;&gt;Node18 -->
<g id="edge24" class="edge">
<title>Node17&#45;&gt;Node18</title>
<path fill="none" stroke="midnightblue" d="M320.2,-224.38C308.77,-215.46 295.77,-202.84 289.5,-188 283.31,-173.36 285.13,-155.19 288.02,-141.78"/>
<polygon fill="midnightblue" stroke="midnightblue" points="291.48,-142.38 290.56,-131.83 284.7,-140.66 291.48,-142.38"/>
</g>
<!-- Node19 -->
<g id="node19" class="node">
<title>Node19</title>
<g id="a_node19"><a xlink:href="sitkPixelIDTypeLists_8h.html" target="_top" xlink:title=" ">
<polygon fill="white" stroke="black" points="526.5,-168.5 526.5,-187.5 648.5,-187.5 648.5,-168.5 526.5,-168.5"/>
<text text-anchor="middle" x="587.5" y="-175.5" font-family="Helvetica,sans-Serif" font-size="10.00">sitkPixelIDTypeLists.h</text>
</a>
</g>
</g>
<!-- Node17&#45;&gt;Node19 -->
<g id="edge25" class="edge">
<title>Node17&#45;&gt;Node19</title>
<path fill="none" stroke="midnightblue" d="M399.49,-224.47C443.22,-213.9 502.35,-199.59 542.54,-189.87"/>
<polygon fill="midnightblue" stroke="midnightblue" points="543.43,-193.26 552.33,-187.51 541.79,-186.46 543.43,-193.26"/>
</g>
<!-- Node20 -->
<g id="node20" class="node">
<title>Node20</title>
<g id="a_node20"><a xlink:title=" ">
<polygon fill="white" stroke="#bfbfbf" points="420,-112.5 420,-131.5 531,-131.5 531,-112.5 420,-112.5"/>
<text text-anchor="middle" x="475.5" y="-119.5" font-family="Helvetica,sans-Serif" font-size="10.00">Ancillary/TypeList.h</text>
</a>
</g>
</g>
<!-- Node17&#45;&gt;Node20 -->
<g id="edge34" class="edge">
<title>Node17&#45;&gt;Node20</title>
<path fill="none" stroke="midnightblue" d="M331.25,-224.46C321.48,-209.19 309.97,-184.75 322.5,-168 333.77,-152.94 376.17,-141.19 413.48,-133.48"/>
<polygon fill="midnightblue" stroke="midnightblue" points="414.22,-136.9 423.34,-131.51 412.85,-130.04 414.22,-136.9"/>
</g>
<!-- Node22 -->
<g id="node22" class="node">
<title>Node22</title>
<g id="a_node22"><a xlink:href="sitkNonCopyable_8h.html" target="_top" xlink:title=" ">
<polygon fill="white" stroke="black" points="705,-168.5 705,-187.5 814,-187.5 814,-168.5 705,-168.5"/>
<text text-anchor="middle" x="759.5" y="-175.5" font-family="Helvetica,sans-Serif" font-size="10.00">sitkNonCopyable.h</text>
</a>
</g>
</g>
<!-- Node17&#45;&gt;Node22 -->
<g id="edge32" class="edge">
<title>Node17&#45;&gt;Node22</title>
<path fill="none" stroke="midnightblue" d="M417.68,-227.66C496.96,-216.37 619.77,-198.89 694.59,-188.24"/>
<polygon fill="midnightblue" stroke="midnightblue" points="695.41,-191.66 704.82,-186.78 694.42,-184.73 695.41,-191.66"/>
</g>
<!-- Node17&#45;&gt;Node23 -->
<g id="edge35" class="edge">
<title>Node17&#45;&gt;Node23</title>
<path fill="none" stroke="midnightblue" d="M277.38,-224.47C228.72,-213.83 162.82,-199.41 118.36,-189.69"/>
<polygon fill="midnightblue" stroke="midnightblue" points="118.9,-186.22 108.39,-187.51 117.41,-193.06 118.9,-186.22"/>
</g>
<!-- Node24 -->
<g id="node24" class="node">
<title>Node24</title>
<g id="a_node24"><a xlink:title=" ">
<polygon fill="white" stroke="#bfbfbf" points="332,-168.5 332,-187.5 425,-187.5 425,-168.5 332,-168.5"/>
<text text-anchor="middle" x="378.5" y="-175.5" font-family="Helvetica,sans-Serif" font-size="10.00">unordered_map</text>
</a>
</g>
</g>
<!-- Node17&#45;&gt;Node24 -->
<g id="edge36" class="edge">
<title>Node17&#45;&gt;Node24</title>
<path fill="none" stroke="midnightblue" d="M350.27,-224.4C355.48,-216.02 362.13,-205.33 367.67,-196.42"/>
<polygon fill="midnightblue" stroke="midnightblue" points="370.81,-198 373.12,-187.66 364.86,-194.3 370.81,-198"/>
</g>
<!-- Node25 -->
<g id="node25" class="node">
<title>Node25</title>
<g id="a_node25"><a xlink:title=" ">
<polygon fill="white" stroke="#bfbfbf" points="443,-168.5 443,-187.5 508,-187.5 508,-168.5 443,-168.5"/>
<text text-anchor="middle" x="475.5" y="-175.5" font-family="Helvetica,sans-Serif" font-size="10.00">functional</text>
</a>
</g>
</g>
<!-- Node17&#45;&gt;Node25 -->
<g id="edge37" class="edge">
<title>Node17&#45;&gt;Node25</title>
<path fill="none" stroke="midnightblue" d="M373.26,-224.4C395.54,-214.51 425.09,-201.38 446.69,-191.79"/>
<polygon fill="midnightblue" stroke="midnightblue" points="448.28,-194.91 456,-187.66 445.44,-188.52 448.28,-194.91"/>
</g>
<!-- Node26 -->
<g id="node26" class="node">
<title>Node26</title>
<g id="a_node26"><a xlink:title=" ">
<polygon fill="white" stroke="#bfbfbf" points="196,-168.5 196,-187.5 237,-187.5 237,-168.5 196,-168.5"/>
<text text-anchor="middle" x="216.5" y="-175.5" font-family="Helvetica,sans-Serif" font-size="10.00">tuple</text>
</a>
</g>
</g>
<!-- Node17&#45;&gt;Node26 -->
<g id="edge38" class="edge">
<title>Node17&#45;&gt;Node26</title>
<path fill="none" stroke="midnightblue" d="M311.88,-224.4C291.28,-214.59 264.02,-201.62 243.92,-192.05"/>
<polygon fill="midnightblue" stroke="midnightblue" points="245.22,-188.8 234.69,-187.66 242.21,-195.12 245.22,-188.8"/>
</g>
<!-- Node19&#45;&gt;Node4 -->
<g id="edge26" class="edge">
<title>Node19&#45;&gt;Node4</title>
<path fill="none" stroke="midnightblue" d="M610.62,-168.42C630.72,-160.44 660.2,-147.48 683.5,-132 731.35,-100.21 779.37,-51.92 802.79,-27.05"/>
<polygon fill="midnightblue" stroke="midnightblue" points="805.5,-29.27 809.75,-19.57 800.38,-24.5 805.5,-29.27"/>
</g>
<!-- Node19&#45;&gt;Node9 -->
<g id="edge27" class="edge">
<title>Node19&#45;&gt;Node9</title>
<path fill="none" stroke="midnightblue" d="M589.22,-168.08C594.26,-141.95 609.05,-65.21 615.92,-29.58"/>
<polygon fill="midnightblue" stroke="midnightblue" points="619.39,-30.05 617.85,-19.57 612.52,-28.72 619.39,-30.05"/>
</g>
<!-- Node19&#45;&gt;Node18 -->
<g id="edge28" class="edge">
<title>Node19&#45;&gt;Node18</title>
<path fill="none" stroke="midnightblue" d="M540.91,-168.44C489.09,-158.92 405.37,-143.55 349.88,-133.36"/>
<polygon fill="midnightblue" stroke="midnightblue" points="350.34,-129.88 339.87,-131.52 349.07,-136.77 350.34,-129.88"/>
</g>
<!-- Node19&#45;&gt;Node20 -->
<g id="edge29" class="edge">
<title>Node19&#45;&gt;Node20</title>
<path fill="none" stroke="midnightblue" d="M569.51,-168.32C551.46,-159.62 523.45,-146.12 502.7,-136.11"/>
<polygon fill="midnightblue" stroke="midnightblue" points="503.98,-132.84 493.45,-131.65 500.94,-139.15 503.98,-132.84"/>
</g>
<!-- Node21 -->
<g id="node21" class="node">
<title>Node21</title>
<g id="a_node21"><a xlink:title=" ">
<polygon fill="white" stroke="#bfbfbf" points="616,-112.5 616,-131.5 675,-131.5 675,-112.5 616,-112.5"/>
<text text-anchor="middle" x="645.5" y="-119.5" font-family="Helvetica,sans-Serif" font-size="10.00">complex</text>
</a>
</g>
</g>
<!-- Node19&#45;&gt;Node21 -->
<g id="edge30" class="edge">
<title>Node19&#45;&gt;Node21</title>
<path fill="none" stroke="midnightblue" d="M596.82,-168.32C605.39,-160.34 618.31,-148.31 628.69,-138.65"/>
<polygon fill="midnightblue" stroke="midnightblue" points="631.08,-141.21 636.01,-131.83 626.31,-136.09 631.08,-141.21"/>
</g>
<!-- Node22&#45;&gt;Node2 -->
<g id="edge33" class="edge">
<title>Node22&#45;&gt;Node2</title>
<path fill="none" stroke="midnightblue" d="M799.91,-168.44C844.48,-159 916.27,-143.8 964.39,-133.61"/>
<polygon fill="midnightblue" stroke="midnightblue" points="965.23,-137.01 974.28,-131.52 963.78,-130.16 965.23,-137.01"/>
</g>
<!-- Node27&#45;&gt;Node9 -->
<g id="edge41" class="edge">
<title>Node27&#45;&gt;Node9</title>
<path fill="none" stroke="midnightblue" d="M959.63,-291.37C943.59,-283.18 919.8,-269.92 901.5,-255 861.02,-221.99 860.86,-203.45 822.5,-168 760.4,-110.62 678.81,-52.03 640.75,-25.56"/>
<polygon fill="midnightblue" stroke="midnightblue" points="642.69,-22.64 632.47,-19.83 638.7,-28.4 642.69,-22.64"/>
</g>
<!-- Node28 -->
<g id="node28" class="node">
<title>Node28</title>
<g id="a_node28"><a xlink:href="sitkPixelIDValues_8h.html" target="_top" xlink:title=" ">
<polygon fill="white" stroke="black" points="910.5,-230 910.5,-249 1020.5,-249 1020.5,-230 910.5,-230"/>
<text text-anchor="middle" x="965.5" y="-237" font-family="Helvetica,sans-Serif" font-size="10.00">sitkPixelIDValues.h</text>
</a>
</g>
</g>
<!-- Node27&#45;&gt;Node28 -->
<g id="edge42" class="edge">
<title>Node27&#45;&gt;Node28</title>
<path fill="none" stroke="midnightblue" d="M975.78,-291.48C974.07,-282.99 971.39,-269.7 969.2,-258.82"/>
<polygon fill="midnightblue" stroke="midnightblue" points="972.62,-258.12 967.22,-249.01 965.76,-259.5 972.62,-258.12"/>
</g>
<!-- Node27&#45;&gt;Node30 -->
<g id="edge47" class="edge">
<title>Node27&#45;&gt;Node30</title>
<path fill="none" stroke="midnightblue" d="M991.25,-291.48C1006.87,-281.8 1032.56,-265.87 1051.08,-254.39"/>
<polygon fill="midnightblue" stroke="midnightblue" points="1053.12,-257.25 1059.77,-249.01 1049.43,-251.3 1053.12,-257.25"/>
</g>
<!-- Node28&#45;&gt;Node2 -->
<g id="edge43" class="edge">
<title>Node28&#45;&gt;Node2</title>
<path fill="none" stroke="midnightblue" d="M972.84,-229.78C980.58,-220.15 992.6,-203.9 999.5,-188 1005.92,-173.21 1009.8,-155.28 1011.99,-142.01"/>
<polygon fill="midnightblue" stroke="midnightblue" points="1015.51,-142.13 1013.51,-131.73 1008.59,-141.11 1015.51,-142.13"/>
</g>
<!-- Node28&#45;&gt;Node14 -->
<g id="edge46" class="edge">
<title>Node28&#45;&gt;Node14</title>
<path fill="none" stroke="midnightblue" d="M981.26,-229.98C999.48,-220.12 1029.67,-203.79 1050.97,-192.27"/>
<polygon fill="midnightblue" stroke="midnightblue" points="1052.64,-195.35 1059.77,-187.51 1049.31,-189.19 1052.64,-195.35"/>
</g>
<!-- Node28&#45;&gt;Node19 -->
<g id="edge44" class="edge">
<title>Node28&#45;&gt;Node19</title>
<path fill="none" stroke="midnightblue" d="M911.34,-229.98C842.71,-219.17 724.59,-200.58 651.55,-189.08"/>
<polygon fill="midnightblue" stroke="midnightblue" points="651.98,-185.61 641.56,-187.51 650.89,-192.52 651.98,-185.61"/>
</g>
<!-- Node29 -->
<g id="node29" class="node">
<title>Node29</title>
<g id="a_node29"><a xlink:title=" ">
<polygon fill="white" stroke="#bfbfbf" points="946.5,-168.5 946.5,-187.5 990.5,-187.5 990.5,-168.5 946.5,-168.5"/>
<text text-anchor="middle" x="968.5" y="-175.5" font-family="Helvetica,sans-Serif" font-size="10.00">string</text>
</a>
</g>
</g>
<!-- Node28&#45;&gt;Node29 -->
<g id="edge45" class="edge">
<title>Node28&#45;&gt;Node29</title>
<path fill="none" stroke="midnightblue" d="M965.93,-229.98C966.35,-221.58 967.01,-208.48 967.56,-197.66"/>
<polygon fill="midnightblue" stroke="midnightblue" points="971.06,-197.67 968.07,-187.51 964.07,-197.32 971.06,-197.67"/>
</g>
<!-- Node31&#45;&gt;Node2 -->
<g id="edge49" class="edge">
<title>Node31&#45;&gt;Node2</title>
<path fill="none" stroke="midnightblue" d="M1170.33,-229.64C1159.85,-215.15 1137.31,-186.17 1112.5,-168 1093.38,-154 1069.2,-142.84 1049.64,-135.13"/>
<polygon fill="midnightblue" stroke="midnightblue" points="1050.76,-131.82 1040.17,-131.53 1048.27,-138.36 1050.76,-131.82"/>
</g>
<!-- Node31&#45;&gt;Node14 -->
<g id="edge50" class="edge">
<title>Node31&#45;&gt;Node14</title>
<path fill="none" stroke="midnightblue" d="M1162.03,-229.98C1145.53,-220.25 1118.32,-204.23 1098.82,-192.74"/>
<polygon fill="midnightblue" stroke="midnightblue" points="1100.34,-189.57 1089.94,-187.51 1096.78,-195.6 1100.34,-189.57"/>
</g>
</g>
</svg>
        <g id="navigator" transform="translate(0 0)" fill="#404254">
                <rect fill="#f2f5e9" fill-opacity="0.5" stroke="#606060" stroke-width=".5" x="0" y="0" width="60" height="60"/>
                <use id="zoomplus" xlink:href="#zoomPlus" x="17" y="9" onmousedown="handleZoom(evt,'in')"/>
                <use id="zoomminus" xlink:href="#zoomMin" x="42" y="9" onmousedown="handleZoom(evt,'out')"/>
                <use id="reset" xlink:href="#resetDef" x="30" y="36" onmousedown="handleReset()"/>
                <g id="arrowUp" xlink:href="#dirArrow" transform="translate(30 24)" onmousedown="handlePan(0,-1)">
                  <use xlink:href="#rim" fill="#404040">
                        <set attributeName="fill" to="#808080" begin="arrowUp.mouseover" end="arrowUp.mouseout"/>
                  </use>
                  <path fill="none" stroke="white" stroke-width="1.5" d="M0,-3.0v7 M-2.5,-0.5L0,-3.0L2.5,-0.5"/>
                </g>
                <g id="arrowRight" xlink:href="#dirArrow" transform="rotate(90) translate(36 -43)" onmousedown="handlePan(1,0)">
                  <use xlink:href="#rim" fill="#404040">
                        <set attributeName="fill" to="#808080" begin="arrowRight.mouseover" end="arrowRight.mouseout"/>
                  </use>
                  <path fill="none" stroke="white" stroke-width="1.5" d="M0,-3.0v7 M-2.5,-0.5L0,-3.0L2.5,-0.5"/>
                </g>
                <g id="arrowDown" xlink:href="#dirArrow" transform="rotate(180) translate(-30 -48)" onmousedown="handlePan(0,1)">
                  <use xlink:href="#rim" fill="#404040">
                        <set attributeName="fill" to="#808080" begin="arrowDown.mouseover" end="arrowDown.mouseout"/>
                  </use>
                  <path fill="none" stroke="white" stroke-width="1.5" d="M0,-3.0v7 M-2.5,-0.5L0,-3.0L2.5,-0.5"/>
                </g>
                <g id="arrowLeft" xlink:href="#dirArrow" transform="rotate(270) translate(-36 17)" onmousedown="handlePan(-1,0)">
                  <use xlink:href="#rim" fill="#404040">
                        <set attributeName="fill" to="#808080" begin="arrowLeft.mouseover" end="arrowLeft.mouseout"/>
                  </use>
                  <path fill="none" stroke="white" stroke-width="1.5" d="M0,-3.0v7 M-2.5,-0.5L0,-3.0L2.5,-0.5"/>
                </g>
        </g>
        <svg viewBox="0 0 15 15" width="100%" height="30px" preserveAspectRatio="xMaxYMin meet">
         <g id="arrow_out" transform="scale(0.3 0.3)">
          <a xlink:href="sitkTransform_8h__incl_org.svg" target="_base">
           <rect id="button" ry="5" rx="5" y="6" x="6" height="38" width="38"
                fill="#f2f5e9" fill-opacity="0.5" stroke="#606060" stroke-width="1.0"/>
           <path id="arrow"
             d="M 11.500037,31.436501 C 11.940474,20.09759 22.043105,11.32322 32.158766,21.979434 L 37.068811,17.246167 C 37.068811,17.246167 37.088388,32 37.088388,32 L 22.160133,31.978069 C 22.160133,31.978069 26.997745,27.140456 26.997745,27.140456 C 18.528582,18.264221 13.291696,25.230495 11.500037,31.436501 z"
             style="fill:#404040;"/>
          </a>
         </g>
        </svg>
</svg>
