<?xml version="1.0" encoding="UTF-8" standalone="no"?>
<!DOCTYPE svg PUBLIC "-//W3C//DTD SVG 1.1//EN"
 "http://www.w3.org/Graphics/SVG/1.1/DTD/svg11.dtd">
<!-- Generated by graphviz version 2.43.0 (0)
 -->
<!-- Title: sitkImageSeriesWriter.h Pages: 1 -->
<!--zoomable 543 -->
<svg id="main" version="1.1" xmlns="http://www.w3.org/2000/svg" xmlns:xlink="http://www.w3.org/1999/xlink" xml:space="preserve" onload="init(evt)">
<style type="text/css"><![CDATA[
.edge:hover path { stroke: red; }
.edge:hover polygon { stroke: red; fill: red; }
]]></style>
<script type="text/javascript"><![CDATA[
var edges = document.getElementsByTagName('g');
if (edges && edges.length) {
  for (var i=0;i<edges.length;i++) {
    if (edges[i].id.substr(0,4)=='edge') {
      edges[i].setAttribute('class','edge');
    }
  }
}
]]></script>
        <defs>
                <circle id="rim" cx="0" cy="0" r="7"/>
                <circle id="rim2" cx="0" cy="0" r="3.5"/>
                <g id="zoomPlus">
                        <use xlink:href="#rim" fill="#404040">
                                <set attributeName="fill" to="#808080" begin="zoomplus.mouseover" end="zoomplus.mouseout"/>
                        </use>
                        <path d="M-4,0h8M0,-4v8" fill="none" stroke="white" stroke-width="1.5" pointer-events="none"/>
                </g>
                <g id="zoomMin">
                        <use xlink:href="#rim" fill="#404040">
                                <set attributeName="fill" to="#808080" begin="zoomminus.mouseover" end="zoomminus.mouseout"/>
                        </use>
                        <path d="M-4,0h8" fill="none" stroke="white" stroke-width="1.5" pointer-events="none"/>
                </g>
                <g id="dirArrow">
                        <path fill="none" stroke="white" stroke-width="1.5" d="M0,-3.0v7 M-2.5,-0.5L0,-3.0L2.5,-0.5"/>
                </g>
               <g id="resetDef">
                       <use xlink:href="#rim2" fill="#404040">
                               <set attributeName="fill" to="#808080" begin="reset.mouseover" end="reset.mouseout"/>
                       </use>
               </g>
        </defs>

<script type="text/javascript">
var viewWidth = 1638;
var viewHeight = 543;
var sectionId = 'dynsection-0';
</script>
<script xlink:href="svgpan.js"/>
<svg id="graph" class="graph">
<g id="viewport">
<title>sitkImageSeriesWriter.h</title>
<polygon fill="white" stroke="transparent" points="-4,4 -4,-539 1634,-539 1634,4 -4,4"/>
<!-- Node1 -->
<g id="node1" class="node">
<title>Node1</title>
<g id="a_node1"><a xlink:title=" ">
<polygon fill="#bfbfbf" stroke="black" points="258,-515.5 258,-534.5 392,-534.5 392,-515.5 258,-515.5"/>
<text text-anchor="middle" x="325" y="-522.5" font-family="Helvetica,sans-Serif" font-size="10.00">sitkImageSeriesWriter.h</text>
</a>
</g>
</g>
<!-- Node2 -->
<g id="node2" class="node">
<title>Node2</title>
<g id="a_node2"><a xlink:href="sitkMacro_8h.html" target="_top" xlink:title=" ">
<polygon fill="white" stroke="black" points="570,-56.5 570,-75.5 644,-75.5 644,-56.5 570,-56.5"/>
<text text-anchor="middle" x="607" y="-63.5" font-family="Helvetica,sans-Serif" font-size="10.00">sitkMacro.h</text>
</a>
</g>
</g>
<!-- Node1&#45;&gt;Node2 -->
<g id="edge1" class="edge">
<title>Node1&#45;&gt;Node2</title>
<path fill="none" stroke="midnightblue" d="M257.77,-518.62C210,-513 145.15,-501.66 92,-479 45.94,-459.37 0,-464.06 0,-414 0,-414 0,-414 0,-177 0,-136.46 27.28,-129.19 64,-112 151.33,-71.11 443.98,-66.81 559.51,-66.75"/>
<polygon fill="midnightblue" stroke="midnightblue" points="559.8,-70.25 569.8,-66.76 559.8,-63.25 559.8,-70.25"/>
</g>
<!-- Node9 -->
<g id="node9" class="node">
<title>Node9</title>
<g id="a_node9"><a xlink:href="sitkImage_8h.html" target="_top" xlink:title=" ">
<polygon fill="white" stroke="black" points="395,-347.5 395,-366.5 469,-366.5 469,-347.5 395,-347.5"/>
<text text-anchor="middle" x="432" y="-354.5" font-family="Helvetica,sans-Serif" font-size="10.00">sitkImage.h</text>
</a>
</g>
</g>
<!-- Node1&#45;&gt;Node9 -->
<g id="edge8" class="edge">
<title>Node1&#45;&gt;Node9</title>
<path fill="none" stroke="midnightblue" d="M358.32,-515.49C399.57,-502.96 468.04,-475.18 498,-423 510.1,-401.92 484.9,-383.07 462.23,-371.17"/>
<polygon fill="midnightblue" stroke="midnightblue" points="463.62,-367.95 453.1,-366.65 460.52,-374.22 463.62,-367.95"/>
</g>
<!-- Node33 -->
<g id="node33" class="node">
<title>Node33</title>
<g id="a_node33"><a xlink:href="sitkProcessObject_8h.html" target="_top" xlink:title=" ">
<polygon fill="white" stroke="black" points="268.5,-459.5 268.5,-478.5 381.5,-478.5 381.5,-459.5 268.5,-459.5"/>
<text text-anchor="middle" x="325" y="-466.5" font-family="Helvetica,sans-Serif" font-size="10.00">sitkProcessObject.h</text>
</a>
</g>
</g>
<!-- Node1&#45;&gt;Node33 -->
<g id="edge53" class="edge">
<title>Node1&#45;&gt;Node33</title>
<path fill="none" stroke="midnightblue" d="M325,-515.08C325,-508.01 325,-497.86 325,-488.99"/>
<polygon fill="midnightblue" stroke="midnightblue" points="328.5,-488.75 325,-478.75 321.5,-488.75 328.5,-488.75"/>
</g>
<!-- Node38 -->
<g id="node38" class="node">
<title>Node38</title>
<g id="a_node38"><a xlink:href="sitkIO_8h.html" target="_top" xlink:title=" ">
<polygon fill="white" stroke="black" points="101,-459.5 101,-478.5 155,-478.5 155,-459.5 101,-459.5"/>
<text text-anchor="middle" x="128" y="-466.5" font-family="Helvetica,sans-Serif" font-size="10.00">sitkIO.h</text>
</a>
</g>
</g>
<!-- Node1&#45;&gt;Node38 -->
<g id="edge65" class="edge">
<title>Node1&#45;&gt;Node38</title>
<path fill="none" stroke="midnightblue" d="M293.78,-515.44C258.88,-505.87 202.37,-490.39 165.2,-480.2"/>
<polygon fill="midnightblue" stroke="midnightblue" points="165.83,-476.74 155.26,-477.47 163.98,-483.49 165.83,-476.74"/>
</g>
<!-- Node39 -->
<g id="node39" class="node">
<title>Node39</title>
<g id="a_node39"><a xlink:href="sitkMemberFunctionFactory_8h.html" target="_top" xlink:title=" ">
<polygon fill="white" stroke="black" points="869.5,-347.5 869.5,-366.5 1028.5,-366.5 1028.5,-347.5 869.5,-347.5"/>
<text text-anchor="middle" x="949" y="-354.5" font-family="Helvetica,sans-Serif" font-size="10.00">sitkMemberFunctionFactory.h</text>
</a>
</g>
</g>
<!-- Node1&#45;&gt;Node39 -->
<g id="edge67" class="edge">
<title>Node1&#45;&gt;Node39</title>
<path fill="none" stroke="midnightblue" d="M392.15,-520.26C495.52,-512.53 698.19,-489.53 856,-423 885.17,-410.7 914.37,-388.23 932.06,-373.2"/>
<polygon fill="midnightblue" stroke="midnightblue" points="934.52,-375.7 939.77,-366.5 929.93,-370.42 934.52,-375.7"/>
</g>
<!-- Node3 -->
<g id="node3" class="node">
<title>Node3</title>
<g id="a_node3"><a xlink:title=" ">
<polygon fill="white" stroke="#bfbfbf" points="751.5,-0.5 751.5,-19.5 804.5,-19.5 804.5,-0.5 751.5,-0.5"/>
<text text-anchor="middle" x="778" y="-7.5" font-family="Helvetica,sans-Serif" font-size="10.00">stdint.h</text>
</a>
</g>
</g>
<!-- Node2&#45;&gt;Node3 -->
<g id="edge2" class="edge">
<title>Node2&#45;&gt;Node3</title>
<path fill="none" stroke="midnightblue" d="M634.1,-56.44C663.07,-47.29 709.2,-32.73 741.39,-22.56"/>
<polygon fill="midnightblue" stroke="midnightblue" points="742.83,-25.78 751.31,-19.43 740.72,-19.1 742.83,-25.78"/>
</g>
<!-- Node4 -->
<g id="node4" class="node">
<title>Node4</title>
<g id="a_node4"><a xlink:title=" ">
<polygon fill="white" stroke="#bfbfbf" points="505,-0.5 505,-19.5 561,-19.5 561,-0.5 505,-0.5"/>
<text text-anchor="middle" x="533" y="-7.5" font-family="Helvetica,sans-Serif" font-size="10.00">stddef.h</text>
</a>
</g>
</g>
<!-- Node2&#45;&gt;Node4 -->
<g id="edge3" class="edge">
<title>Node2&#45;&gt;Node4</title>
<path fill="none" stroke="midnightblue" d="M595.11,-56.32C583.85,-48.11 566.71,-35.6 553.29,-25.81"/>
<polygon fill="midnightblue" stroke="midnightblue" points="555.25,-22.9 545.11,-19.83 551.12,-28.56 555.25,-22.9"/>
</g>
<!-- Node5 -->
<g id="node5" class="node">
<title>Node5</title>
<g id="a_node5"><a xlink:title=" ">
<polygon fill="white" stroke="#bfbfbf" points="1304,-0.5 1304,-19.5 1356,-19.5 1356,-0.5 1304,-0.5"/>
<text text-anchor="middle" x="1330" y="-7.5" font-family="Helvetica,sans-Serif" font-size="10.00">cassert</text>
</a>
</g>
</g>
<!-- Node2&#45;&gt;Node5 -->
<g id="edge4" class="edge">
<title>Node2&#45;&gt;Node5</title>
<path fill="none" stroke="midnightblue" d="M644.1,-62.23C768.55,-52.93 1170.27,-22.93 1293.63,-13.72"/>
<polygon fill="midnightblue" stroke="midnightblue" points="1293.98,-17.2 1303.7,-12.96 1293.46,-10.22 1293.98,-17.2"/>
</g>
<!-- Node6 -->
<g id="node6" class="node">
<title>Node6</title>
<g id="a_node6"><a xlink:title=" ">
<polygon fill="white" stroke="#bfbfbf" points="579,-0.5 579,-19.5 635,-19.5 635,-0.5 579,-0.5"/>
<text text-anchor="middle" x="607" y="-7.5" font-family="Helvetica,sans-Serif" font-size="10.00">sstream</text>
</a>
</g>
</g>
<!-- Node2&#45;&gt;Node6 -->
<g id="edge5" class="edge">
<title>Node2&#45;&gt;Node6</title>
<path fill="none" stroke="midnightblue" d="M607,-56.08C607,-49.01 607,-38.86 607,-29.99"/>
<polygon fill="midnightblue" stroke="midnightblue" points="610.5,-29.75 607,-19.75 603.5,-29.75 610.5,-29.75"/>
</g>
<!-- Node7 -->
<g id="node7" class="node">
<title>Node7</title>
<g id="a_node7"><a xlink:title=" ">
<polygon fill="white" stroke="#bfbfbf" points="653,-0.5 653,-19.5 697,-19.5 697,-0.5 653,-0.5"/>
<text text-anchor="middle" x="675" y="-7.5" font-family="Helvetica,sans-Serif" font-size="10.00">limits</text>
</a>
</g>
</g>
<!-- Node2&#45;&gt;Node7 -->
<g id="edge6" class="edge">
<title>Node2&#45;&gt;Node7</title>
<path fill="none" stroke="midnightblue" d="M617.93,-56.32C628.17,-48.18 643.72,-35.84 656,-26.09"/>
<polygon fill="midnightblue" stroke="midnightblue" points="658.22,-28.79 663.88,-19.83 653.87,-23.31 658.22,-28.79"/>
</g>
<!-- Node8 -->
<g id="node8" class="node">
<title>Node8</title>
<g id="a_node8"><a xlink:href="sitkConfigure_8h.html" target="_top" xlink:title=" ">
<polygon fill="white" stroke="black" points="895,-0.5 895,-19.5 985,-19.5 985,-0.5 895,-0.5"/>
<text text-anchor="middle" x="940" y="-7.5" font-family="Helvetica,sans-Serif" font-size="10.00">sitkConfigure.h</text>
</a>
</g>
</g>
<!-- Node2&#45;&gt;Node8 -->
<g id="edge7" class="edge">
<title>Node2&#45;&gt;Node8</title>
<path fill="none" stroke="midnightblue" d="M644.23,-58.96C702.75,-49.47 816.59,-31.01 884.7,-19.97"/>
<polygon fill="midnightblue" stroke="midnightblue" points="885.5,-23.38 894.81,-18.33 884.38,-16.47 885.5,-23.38"/>
</g>
<!-- Node10 -->
<g id="node10" class="node">
<title>Node10</title>
<g id="a_node10"><a xlink:href="sitkCommon_8h.html" target="_top" xlink:title=" ">
<polygon fill="white" stroke="black" points="435,-112.5 435,-131.5 523,-131.5 523,-112.5 435,-112.5"/>
<text text-anchor="middle" x="479" y="-119.5" font-family="Helvetica,sans-Serif" font-size="10.00">sitkCommon.h</text>
</a>
</g>
</g>
<!-- Node9&#45;&gt;Node10 -->
<g id="edge9" class="edge">
<title>Node9&#45;&gt;Node10</title>
<path fill="none" stroke="midnightblue" d="M433.73,-347.43C440.54,-313.68 465.59,-189.47 475.21,-141.8"/>
<polygon fill="midnightblue" stroke="midnightblue" points="478.66,-142.39 477.21,-131.9 471.8,-141.01 478.66,-142.39"/>
</g>
<!-- Node11 -->
<g id="node11" class="node">
<title>Node11</title>
<g id="a_node11"><a xlink:href="sitkTemplateFunctions_8h.html" target="_top" xlink:title=" ">
<polygon fill="white" stroke="black" points="159.5,-230 159.5,-249 294.5,-249 294.5,-230 159.5,-230"/>
<text text-anchor="middle" x="227" y="-237" font-family="Helvetica,sans-Serif" font-size="10.00">sitkTemplateFunctions.h</text>
</a>
</g>
</g>
<!-- Node9&#45;&gt;Node11 -->
<g id="edge11" class="edge">
<title>Node9&#45;&gt;Node11</title>
<path fill="none" stroke="midnightblue" d="M422.24,-347.34C406.86,-333.99 375.65,-308.14 346,-291 318.85,-275.3 285.88,-261.69 261.54,-252.57"/>
<polygon fill="midnightblue" stroke="midnightblue" points="262.6,-249.23 252,-249.06 260.18,-255.8 262.6,-249.23"/>
</g>
<!-- Node13 -->
<g id="node13" class="node">
<title>Node13</title>
<g id="a_node13"><a xlink:title=" ">
<polygon fill="white" stroke="#bfbfbf" points="104.5,-168.5 104.5,-187.5 151.5,-187.5 151.5,-168.5 104.5,-168.5"/>
<text text-anchor="middle" x="128" y="-175.5" font-family="Helvetica,sans-Serif" font-size="10.00">vector</text>
</a>
</g>
</g>
<!-- Node9&#45;&gt;Node13 -->
<g id="edge50" class="edge">
<title>Node9&#45;&gt;Node13</title>
<path fill="none" stroke="midnightblue" d="M394.6,-353.84C333.81,-348.22 214.03,-327.97 151,-255 137.09,-238.89 131.59,-214.58 129.42,-197.81"/>
<polygon fill="midnightblue" stroke="midnightblue" points="132.88,-197.19 128.38,-187.6 125.91,-197.9 132.88,-197.19"/>
</g>
<!-- Node16 -->
<g id="node16" class="node">
<title>Node16</title>
<g id="a_node16"><a xlink:href="sitkDetail_8h.html" target="_top" xlink:title=" ">
<polygon fill="white" stroke="black" points="912.5,-291.5 912.5,-310.5 985.5,-310.5 985.5,-291.5 912.5,-291.5"/>
<text text-anchor="middle" x="949" y="-298.5" font-family="Helvetica,sans-Serif" font-size="10.00">sitkDetail.h</text>
</a>
</g>
</g>
<!-- Node9&#45;&gt;Node16 -->
<g id="edge20" class="edge">
<title>Node9&#45;&gt;Node16</title>
<path fill="none" stroke="midnightblue" d="M469.18,-352.12C561.4,-342.48 800.54,-317.51 902.18,-306.89"/>
<polygon fill="midnightblue" stroke="midnightblue" points="902.57,-310.37 912.16,-305.85 901.85,-303.41 902.57,-310.37"/>
</g>
<!-- Node27 -->
<g id="node27" class="node">
<title>Node27</title>
<g id="a_node27"><a xlink:href="sitkPixelIDTokens_8h.html" target="_top" xlink:title=" ">
<polygon fill="white" stroke="black" points="621,-291.5 621,-310.5 731,-310.5 731,-291.5 621,-291.5"/>
<text text-anchor="middle" x="676" y="-298.5" font-family="Helvetica,sans-Serif" font-size="10.00">sitkPixelIDTokens.h</text>
</a>
</g>
</g>
<!-- Node9&#45;&gt;Node27 -->
<g id="edge39" class="edge">
<title>Node9&#45;&gt;Node27</title>
<path fill="none" stroke="midnightblue" d="M469.06,-347.8C511.41,-338.43 580.88,-323.05 627.51,-312.73"/>
<polygon fill="midnightblue" stroke="midnightblue" points="628.37,-316.12 637.38,-310.55 626.86,-309.29 628.37,-316.12"/>
</g>
<!-- Node30 -->
<g id="node30" class="node">
<title>Node30</title>
<g id="a_node30"><a xlink:title=" ">
<polygon fill="white" stroke="#bfbfbf" points="568.5,-230 568.5,-249 637.5,-249 637.5,-230 568.5,-230"/>
<text text-anchor="middle" x="603" y="-237" font-family="Helvetica,sans-Serif" font-size="10.00">type_traits</text>
</a>
</g>
</g>
<!-- Node9&#45;&gt;Node30 -->
<g id="edge52" class="edge">
<title>Node9&#45;&gt;Node30</title>
<path fill="none" stroke="midnightblue" d="M444.85,-347.32C474.07,-327.59 545.71,-279.2 581.67,-254.91"/>
<polygon fill="midnightblue" stroke="midnightblue" points="583.67,-257.78 590,-249.28 579.75,-251.98 583.67,-257.78"/>
</g>
<!-- Node31 -->
<g id="node31" class="node">
<title>Node31</title>
<g id="a_node31"><a xlink:href="sitkInterpolator_8h.html" target="_top" xlink:title=" ">
<polygon fill="white" stroke="black" points="313,-230 313,-249 413,-249 413,-230 313,-230"/>
<text text-anchor="middle" x="363" y="-237" font-family="Helvetica,sans-Serif" font-size="10.00">sitkInterpolator.h</text>
</a>
</g>
</g>
<!-- Node9&#45;&gt;Node31 -->
<g id="edge47" class="edge">
<title>Node9&#45;&gt;Node31</title>
<path fill="none" stroke="midnightblue" d="M426.81,-347.32C415.53,-328.42 388.54,-283.25 373.53,-258.12"/>
<polygon fill="midnightblue" stroke="midnightblue" points="376.38,-256.07 368.25,-249.28 370.37,-259.66 376.38,-256.07"/>
</g>
<!-- Node32 -->
<g id="node32" class="node">
<title>Node32</title>
<g id="a_node32"><a xlink:title=" ">
<polygon fill="white" stroke="#bfbfbf" points="279,-291.5 279,-310.5 337,-310.5 337,-291.5 279,-291.5"/>
<text text-anchor="middle" x="308" y="-298.5" font-family="Helvetica,sans-Serif" font-size="10.00">memory</text>
</a>
</g>
</g>
<!-- Node9&#45;&gt;Node32 -->
<g id="edge51" class="edge">
<title>Node9&#45;&gt;Node32</title>
<path fill="none" stroke="midnightblue" d="M412.35,-347.44C392.04,-338.6 360.1,-324.69 336.9,-314.59"/>
<polygon fill="midnightblue" stroke="midnightblue" points="338.12,-311.3 327.56,-310.52 335.33,-317.72 338.12,-311.3"/>
</g>
<!-- Node10&#45;&gt;Node2 -->
<g id="edge10" class="edge">
<title>Node10&#45;&gt;Node2</title>
<path fill="none" stroke="midnightblue" d="M499.28,-112.44C520.35,-103.56 553.52,-89.56 577.49,-79.45"/>
<polygon fill="midnightblue" stroke="midnightblue" points="578.96,-82.63 586.81,-75.52 576.24,-76.18 578.96,-82.63"/>
</g>
<!-- Node11&#45;&gt;Node2 -->
<g id="edge12" class="edge">
<title>Node11&#45;&gt;Node2</title>
<path fill="none" stroke="midnightblue" d="M234.03,-229.64C245.91,-215.15 271.28,-186.17 298,-168 380.23,-112.09 495.64,-85.3 559.61,-74.03"/>
<polygon fill="midnightblue" stroke="midnightblue" points="560.53,-77.42 569.8,-72.29 559.35,-70.52 560.53,-77.42"/>
</g>
<!-- Node11&#45;&gt;Node10 -->
<g id="edge13" class="edge">
<title>Node11&#45;&gt;Node10</title>
<path fill="none" stroke="midnightblue" d="M238.3,-229.82C257.6,-215.32 298.59,-186.01 337,-168 368.1,-153.42 405.16,-141.85 433.62,-134.1"/>
<polygon fill="midnightblue" stroke="midnightblue" points="434.54,-137.47 443.31,-131.52 432.74,-130.71 434.54,-137.47"/>
</g>
<!-- Node12 -->
<g id="node12" class="node">
<title>Node12</title>
<g id="a_node12"><a xlink:href="sitkExceptionObject_8h.html" target="_top" xlink:title=" ">
<polygon fill="white" stroke="black" points="545.5,-168.5 545.5,-187.5 668.5,-187.5 668.5,-168.5 545.5,-168.5"/>
<text text-anchor="middle" x="607" y="-175.5" font-family="Helvetica,sans-Serif" font-size="10.00">sitkExceptionObject.h</text>
</a>
</g>
</g>
<!-- Node11&#45;&gt;Node12 -->
<g id="edge14" class="edge">
<title>Node11&#45;&gt;Node12</title>
<path fill="none" stroke="midnightblue" d="M270.92,-229.92C281.72,-227.9 293.27,-225.81 304,-224 382.99,-210.7 473.91,-197.48 535.39,-188.84"/>
<polygon fill="midnightblue" stroke="midnightblue" points="535.96,-192.29 545.38,-187.44 534.99,-185.36 535.96,-192.29"/>
</g>
<!-- Node11&#45;&gt;Node13 -->
<g id="edge17" class="edge">
<title>Node11&#45;&gt;Node13</title>
<path fill="none" stroke="midnightblue" d="M212.82,-229.98C196.64,-220.25 169.97,-204.23 150.86,-192.74"/>
<polygon fill="midnightblue" stroke="midnightblue" points="152.53,-189.66 142.16,-187.51 148.93,-195.66 152.53,-189.66"/>
</g>
<!-- Node14 -->
<g id="node14" class="node">
<title>Node14</title>
<g id="a_node14"><a xlink:title=" ">
<polygon fill="white" stroke="#bfbfbf" points="355.5,-168.5 355.5,-187.5 412.5,-187.5 412.5,-168.5 355.5,-168.5"/>
<text text-anchor="middle" x="384" y="-175.5" font-family="Helvetica,sans-Serif" font-size="10.00">ostream</text>
</a>
</g>
</g>
<!-- Node11&#45;&gt;Node14 -->
<g id="edge18" class="edge">
<title>Node11&#45;&gt;Node14</title>
<path fill="none" stroke="midnightblue" d="M249.49,-229.98C276.31,-219.81 321.32,-202.76 351.81,-191.2"/>
<polygon fill="midnightblue" stroke="midnightblue" points="353.44,-194.33 361.55,-187.51 350.96,-187.78 353.44,-194.33"/>
</g>
<!-- Node15 -->
<g id="node15" class="node">
<title>Node15</title>
<g id="a_node15"><a xlink:title=" ">
<polygon fill="white" stroke="#bfbfbf" points="169.5,-168.5 169.5,-187.5 222.5,-187.5 222.5,-168.5 169.5,-168.5"/>
<text text-anchor="middle" x="196" y="-175.5" font-family="Helvetica,sans-Serif" font-size="10.00">iterator</text>
</a>
</g>
</g>
<!-- Node11&#45;&gt;Node15 -->
<g id="edge19" class="edge">
<title>Node11&#45;&gt;Node15</title>
<path fill="none" stroke="midnightblue" d="M222.56,-229.98C218.05,-221.32 210.93,-207.65 205.19,-196.65"/>
<polygon fill="midnightblue" stroke="midnightblue" points="208.16,-194.76 200.43,-187.51 201.95,-197.99 208.16,-194.76"/>
</g>
<!-- Node12&#45;&gt;Node2 -->
<g id="edge15" class="edge">
<title>Node12&#45;&gt;Node2</title>
<path fill="none" stroke="midnightblue" d="M607,-168.37C607,-150.62 607,-109.67 607,-85.6"/>
<polygon fill="midnightblue" stroke="midnightblue" points="610.5,-85.59 607,-75.59 603.5,-85.59 610.5,-85.59"/>
</g>
<!-- Node12&#45;&gt;Node10 -->
<g id="edge16" class="edge">
<title>Node12&#45;&gt;Node10</title>
<path fill="none" stroke="midnightblue" d="M586.72,-168.44C565.65,-159.56 532.48,-145.56 508.51,-135.45"/>
<polygon fill="midnightblue" stroke="midnightblue" points="509.76,-132.18 499.19,-131.52 507.04,-138.63 509.76,-132.18"/>
</g>
<!-- Node17 -->
<g id="node17" class="node">
<title>Node17</title>
<g id="a_node17"><a xlink:href="sitkMemberFunctionFactoryBase_8h.html" target="_top" xlink:title=" ">
<polygon fill="white" stroke="black" points="1177,-224.5 1177,-254.5 1329,-254.5 1329,-224.5 1177,-224.5"/>
<text text-anchor="start" x="1185" y="-242.5" font-family="Helvetica,sans-Serif" font-size="10.00">sitkMemberFunctionFactory</text>
<text text-anchor="middle" x="1253" y="-231.5" font-family="Helvetica,sans-Serif" font-size="10.00">Base.h</text>
</a>
</g>
</g>
<!-- Node16&#45;&gt;Node17 -->
<g id="edge21" class="edge">
<title>Node16&#45;&gt;Node17</title>
<path fill="none" stroke="midnightblue" d="M985.67,-292.82C1031.44,-283.86 1111.07,-268.28 1171.55,-256.44"/>
<polygon fill="midnightblue" stroke="midnightblue" points="1172.32,-259.86 1181.46,-254.5 1170.98,-252.99 1172.32,-259.86"/>
</g>
<!-- Node23 -->
<g id="node23" class="node">
<title>Node23</title>
<g id="a_node23"><a xlink:title=" ">
<polygon fill="white" stroke="#bfbfbf" points="1055.5,-168.5 1055.5,-187.5 1194.5,-187.5 1194.5,-168.5 1055.5,-168.5"/>
<text text-anchor="middle" x="1125" y="-175.5" font-family="Helvetica,sans-Serif" font-size="10.00">Ancillary/FunctionTraits.h</text>
</a>
</g>
</g>
<!-- Node16&#45;&gt;Node23 -->
<g id="edge38" class="edge">
<title>Node16&#45;&gt;Node23</title>
<path fill="none" stroke="midnightblue" d="M961.38,-291.49C991.09,-271.06 1066.76,-219.04 1103.85,-193.54"/>
<polygon fill="midnightblue" stroke="midnightblue" points="1106.14,-196.21 1112.4,-187.66 1102.18,-190.44 1106.14,-196.21"/>
</g>
<!-- Node17&#45;&gt;Node2 -->
<g id="edge30" class="edge">
<title>Node17&#45;&gt;Node2</title>
<path fill="none" stroke="midnightblue" d="M1247.66,-224.3C1236.52,-196.93 1207.96,-137.35 1162,-112 1118.06,-87.76 780.21,-73.23 654.19,-68.61"/>
<polygon fill="midnightblue" stroke="midnightblue" points="654.19,-65.11 644.07,-68.25 653.94,-72.11 654.19,-65.11"/>
</g>
<!-- Node17&#45;&gt;Node8 -->
<g id="edge22" class="edge">
<title>Node17&#45;&gt;Node8</title>
<path fill="none" stroke="midnightblue" d="M1329.11,-226.7C1372.54,-218.23 1420.88,-205.28 1434,-188 1448.4,-169.04 1433.88,-127.48 1417,-112 1355.68,-55.74 1107.19,-26.32 995.2,-15.7"/>
<polygon fill="midnightblue" stroke="midnightblue" points="995.4,-12.21 985.12,-14.76 994.75,-19.18 995.4,-12.21"/>
</g>
<!-- Node18 -->
<g id="node18" class="node">
<title>Node18</title>
<g id="a_node18"><a xlink:href="sitkPixelIDTypes_8h.html" target="_top" xlink:title=" ">
<polygon fill="white" stroke="black" points="1047.5,-112.5 1047.5,-131.5 1152.5,-131.5 1152.5,-112.5 1047.5,-112.5"/>
<text text-anchor="middle" x="1100" y="-119.5" font-family="Helvetica,sans-Serif" font-size="10.00">sitkPixelIDTypes.h</text>
</a>
</g>
</g>
<!-- Node17&#45;&gt;Node18 -->
<g id="edge23" class="edge">
<title>Node17&#45;&gt;Node18</title>
<path fill="none" stroke="midnightblue" d="M1327.5,-224.38C1368.98,-213.21 1408.04,-194.96 1385,-168 1357.03,-135.27 1238.1,-126.2 1162.99,-123.78"/>
<polygon fill="midnightblue" stroke="midnightblue" points="1162.8,-120.27 1152.7,-123.48 1162.59,-127.27 1162.8,-120.27"/>
</g>
<!-- Node19 -->
<g id="node19" class="node">
<title>Node19</title>
<g id="a_node19"><a xlink:href="sitkPixelIDTypeLists_8h.html" target="_top" xlink:title=" ">
<polygon fill="white" stroke="black" points="915,-168.5 915,-187.5 1037,-187.5 1037,-168.5 915,-168.5"/>
<text text-anchor="middle" x="976" y="-175.5" font-family="Helvetica,sans-Serif" font-size="10.00">sitkPixelIDTypeLists.h</text>
</a>
</g>
</g>
<!-- Node17&#45;&gt;Node19 -->
<g id="edge24" class="edge">
<title>Node17&#45;&gt;Node19</title>
<path fill="none" stroke="midnightblue" d="M1187.71,-224.47C1138.04,-213.81 1070.75,-199.35 1025.48,-189.63"/>
<polygon fill="midnightblue" stroke="midnightblue" points="1026.11,-186.18 1015.6,-187.51 1024.64,-193.03 1026.11,-186.18"/>
</g>
<!-- Node20 -->
<g id="node20" class="node">
<title>Node20</title>
<g id="a_node20"><a xlink:title=" ">
<polygon fill="white" stroke="#bfbfbf" points="1296.5,-112.5 1296.5,-131.5 1407.5,-131.5 1407.5,-112.5 1296.5,-112.5"/>
<text text-anchor="middle" x="1352" y="-119.5" font-family="Helvetica,sans-Serif" font-size="10.00">Ancillary/TypeList.h</text>
</a>
</g>
</g>
<!-- Node17&#45;&gt;Node20 -->
<g id="edge33" class="edge">
<title>Node17&#45;&gt;Node20</title>
<path fill="none" stroke="midnightblue" d="M1329.38,-234.62C1362.13,-228.7 1397.51,-215.7 1418,-188 1432.78,-168.03 1405.68,-148.49 1381.87,-136.13"/>
<polygon fill="midnightblue" stroke="midnightblue" points="1383.19,-132.88 1372.67,-131.61 1380.1,-139.16 1383.19,-132.88"/>
</g>
<!-- Node22 -->
<g id="node22" class="node">
<title>Node22</title>
<g id="a_node22"><a xlink:href="sitkNonCopyable_8h.html" target="_top" xlink:title=" ">
<polygon fill="white" stroke="black" points="787.5,-168.5 787.5,-187.5 896.5,-187.5 896.5,-168.5 787.5,-168.5"/>
<text text-anchor="middle" x="842" y="-175.5" font-family="Helvetica,sans-Serif" font-size="10.00">sitkNonCopyable.h</text>
</a>
</g>
</g>
<!-- Node17&#45;&gt;Node22 -->
<g id="edge31" class="edge">
<title>Node17&#45;&gt;Node22</title>
<path fill="none" stroke="midnightblue" d="M1176.66,-227.45C1098.95,-216.2 979.79,-198.95 906.61,-188.35"/>
<polygon fill="midnightblue" stroke="midnightblue" points="907,-184.87 896.6,-186.9 905.99,-191.8 907,-184.87"/>
</g>
<!-- Node17&#45;&gt;Node23 -->
<g id="edge34" class="edge">
<title>Node17&#45;&gt;Node23</title>
<path fill="none" stroke="midnightblue" d="M1222.67,-224.4C1201.48,-214.55 1173.41,-201.5 1152.8,-191.92"/>
<polygon fill="midnightblue" stroke="midnightblue" points="1154.17,-188.7 1143.63,-187.66 1151.22,-195.05 1154.17,-188.7"/>
</g>
<!-- Node24 -->
<g id="node24" class="node">
<title>Node24</title>
<g id="a_node24"><a xlink:title=" ">
<polygon fill="white" stroke="#bfbfbf" points="1508.5,-168.5 1508.5,-187.5 1601.5,-187.5 1601.5,-168.5 1508.5,-168.5"/>
<text text-anchor="middle" x="1555" y="-175.5" font-family="Helvetica,sans-Serif" font-size="10.00">unordered_map</text>
</a>
</g>
</g>
<!-- Node17&#45;&gt;Node24 -->
<g id="edge35" class="edge">
<title>Node17&#45;&gt;Node24</title>
<path fill="none" stroke="midnightblue" d="M1324.19,-224.47C1378.68,-213.74 1452.63,-199.17 1501.99,-189.44"/>
<polygon fill="midnightblue" stroke="midnightblue" points="1502.69,-192.87 1511.82,-187.51 1501.34,-186.01 1502.69,-192.87"/>
</g>
<!-- Node25 -->
<g id="node25" class="node">
<title>Node25</title>
<g id="a_node25"><a xlink:title=" ">
<polygon fill="white" stroke="#bfbfbf" points="1251.5,-168.5 1251.5,-187.5 1316.5,-187.5 1316.5,-168.5 1251.5,-168.5"/>
<text text-anchor="middle" x="1284" y="-175.5" font-family="Helvetica,sans-Serif" font-size="10.00">functional</text>
</a>
</g>
</g>
<!-- Node17&#45;&gt;Node25 -->
<g id="edge36" class="edge">
<title>Node17&#45;&gt;Node25</title>
<path fill="none" stroke="midnightblue" d="M1260.35,-224.4C1264.67,-216.11 1270.17,-205.55 1274.77,-196.71"/>
<polygon fill="midnightblue" stroke="midnightblue" points="1277.97,-198.14 1279.49,-187.66 1271.76,-194.91 1277.97,-198.14"/>
</g>
<!-- Node26 -->
<g id="node26" class="node">
<title>Node26</title>
<g id="a_node26"><a xlink:title=" ">
<polygon fill="white" stroke="#bfbfbf" points="1334.5,-168.5 1334.5,-187.5 1375.5,-187.5 1375.5,-168.5 1334.5,-168.5"/>
<text text-anchor="middle" x="1355" y="-175.5" font-family="Helvetica,sans-Serif" font-size="10.00">tuple</text>
</a>
</g>
</g>
<!-- Node17&#45;&gt;Node26 -->
<g id="edge37" class="edge">
<title>Node17&#45;&gt;Node26</title>
<path fill="none" stroke="midnightblue" d="M1277.17,-224.4C1293.52,-214.86 1315.01,-202.32 1331.27,-192.84"/>
<polygon fill="midnightblue" stroke="midnightblue" points="1333.28,-195.72 1340.16,-187.66 1329.76,-189.67 1333.28,-195.72"/>
</g>
<!-- Node19&#45;&gt;Node3 -->
<g id="edge25" class="edge">
<title>Node19&#45;&gt;Node3</title>
<path fill="none" stroke="midnightblue" d="M969.54,-168.44C959.51,-155.46 939.24,-130.34 919,-112 880.34,-76.97 829.43,-43.09 800.56,-24.86"/>
<polygon fill="midnightblue" stroke="midnightblue" points="802.33,-21.84 792,-19.5 798.62,-27.77 802.33,-21.84"/>
</g>
<!-- Node19&#45;&gt;Node8 -->
<g id="edge26" class="edge">
<title>Node19&#45;&gt;Node8</title>
<path fill="none" stroke="midnightblue" d="M974.5,-168.45C970.98,-148.61 961.74,-97.93 952,-56 949.96,-47.23 947.43,-37.57 945.21,-29.46"/>
<polygon fill="midnightblue" stroke="midnightblue" points="948.52,-28.28 942.47,-19.59 941.77,-30.16 948.52,-28.28"/>
</g>
<!-- Node19&#45;&gt;Node18 -->
<g id="edge27" class="edge">
<title>Node19&#45;&gt;Node18</title>
<path fill="none" stroke="midnightblue" d="M995.65,-168.44C1015.96,-159.6 1047.9,-145.69 1071.1,-135.59"/>
<polygon fill="midnightblue" stroke="midnightblue" points="1072.67,-138.72 1080.44,-131.52 1069.88,-132.3 1072.67,-138.72"/>
</g>
<!-- Node19&#45;&gt;Node20 -->
<g id="edge28" class="edge">
<title>Node19&#45;&gt;Node20</title>
<path fill="none" stroke="midnightblue" d="M1035.58,-168.44C1103.87,-158.64 1215.46,-142.61 1286.24,-132.44"/>
<polygon fill="midnightblue" stroke="midnightblue" points="1286.98,-135.87 1296.38,-130.99 1285.98,-128.95 1286.98,-135.87"/>
</g>
<!-- Node21 -->
<g id="node21" class="node">
<title>Node21</title>
<g id="a_node21"><a xlink:title=" ">
<polygon fill="white" stroke="#bfbfbf" points="850.5,-112.5 850.5,-131.5 909.5,-131.5 909.5,-112.5 850.5,-112.5"/>
<text text-anchor="middle" x="880" y="-119.5" font-family="Helvetica,sans-Serif" font-size="10.00">complex</text>
</a>
</g>
</g>
<!-- Node19&#45;&gt;Node21 -->
<g id="edge29" class="edge">
<title>Node19&#45;&gt;Node21</title>
<path fill="none" stroke="midnightblue" d="M960.58,-168.32C945.46,-159.82 922.18,-146.73 904.53,-136.8"/>
<polygon fill="midnightblue" stroke="midnightblue" points="905.82,-133.51 895.39,-131.65 902.39,-139.61 905.82,-133.51"/>
</g>
<!-- Node22&#45;&gt;Node10 -->
<g id="edge32" class="edge">
<title>Node22&#45;&gt;Node10</title>
<path fill="none" stroke="midnightblue" d="M787.26,-168.86C718.59,-158.64 601.57,-141.23 533.17,-131.06"/>
<polygon fill="midnightblue" stroke="midnightblue" points="533.44,-127.56 523.04,-129.55 532.41,-134.48 533.44,-127.56"/>
</g>
<!-- Node27&#45;&gt;Node8 -->
<g id="edge40" class="edge">
<title>Node27&#45;&gt;Node8</title>
<path fill="none" stroke="midnightblue" d="M676.52,-291.32C678.3,-268.71 685.79,-207 716,-168 770.17,-98.08 864.09,-46.79 911.24,-24.04"/>
<polygon fill="midnightblue" stroke="midnightblue" points="913.03,-27.07 920.56,-19.62 910.03,-20.74 913.03,-27.07"/>
</g>
<!-- Node28 -->
<g id="node28" class="node">
<title>Node28</title>
<g id="a_node28"><a xlink:href="sitkPixelIDValues_8h.html" target="_top" xlink:title=" ">
<polygon fill="white" stroke="black" points="704,-230 704,-249 814,-249 814,-230 704,-230"/>
<text text-anchor="middle" x="759" y="-237" font-family="Helvetica,sans-Serif" font-size="10.00">sitkPixelIDValues.h</text>
</a>
</g>
</g>
<!-- Node27&#45;&gt;Node28 -->
<g id="edge41" class="edge">
<title>Node27&#45;&gt;Node28</title>
<path fill="none" stroke="midnightblue" d="M687.89,-291.48C701.2,-281.93 723,-266.31 738.96,-254.87"/>
<polygon fill="midnightblue" stroke="midnightblue" points="741.04,-257.68 747.13,-249.01 736.96,-251.99 741.04,-257.68"/>
</g>
<!-- Node27&#45;&gt;Node30 -->
<g id="edge46" class="edge">
<title>Node27&#45;&gt;Node30</title>
<path fill="none" stroke="midnightblue" d="M665.54,-291.48C654.05,-282.11 635.37,-266.88 621.41,-255.51"/>
<polygon fill="midnightblue" stroke="midnightblue" points="623.4,-252.61 613.44,-249.01 618.98,-258.04 623.4,-252.61"/>
</g>
<!-- Node28&#45;&gt;Node10 -->
<g id="edge42" class="edge">
<title>Node28&#45;&gt;Node10</title>
<path fill="none" stroke="midnightblue" d="M704.15,-229.96C647.92,-220.51 564.87,-204.44 537,-188 516.94,-176.16 500.02,-155.04 489.73,-140.09"/>
<polygon fill="midnightblue" stroke="midnightblue" points="492.63,-138.14 484.2,-131.72 486.79,-141.99 492.63,-138.14"/>
</g>
<!-- Node28&#45;&gt;Node14 -->
<g id="edge45" class="edge">
<title>Node28&#45;&gt;Node14</title>
<path fill="none" stroke="midnightblue" d="M705.27,-229.98C628.76,-217.84 490.24,-195.86 422.88,-185.17"/>
<polygon fill="midnightblue" stroke="midnightblue" points="423.13,-181.66 412.7,-183.55 422.03,-188.58 423.13,-181.66"/>
</g>
<!-- Node28&#45;&gt;Node19 -->
<g id="edge43" class="edge">
<title>Node28&#45;&gt;Node19</title>
<path fill="none" stroke="midnightblue" d="M790.09,-229.98C828.28,-219.5 893.17,-201.71 935.3,-190.16"/>
<polygon fill="midnightblue" stroke="midnightblue" points="936.25,-193.53 944.97,-187.51 934.4,-186.78 936.25,-193.53"/>
</g>
<!-- Node29 -->
<g id="node29" class="node">
<title>Node29</title>
<g id="a_node29"><a xlink:title=" ">
<polygon fill="white" stroke="#bfbfbf" points="725,-168.5 725,-187.5 769,-187.5 769,-168.5 725,-168.5"/>
<text text-anchor="middle" x="747" y="-175.5" font-family="Helvetica,sans-Serif" font-size="10.00">string</text>
</a>
</g>
</g>
<!-- Node28&#45;&gt;Node29 -->
<g id="edge44" class="edge">
<title>Node28&#45;&gt;Node29</title>
<path fill="none" stroke="midnightblue" d="M757.28,-229.98C755.57,-221.49 752.89,-208.2 750.7,-197.32"/>
<polygon fill="midnightblue" stroke="midnightblue" points="754.12,-196.62 748.72,-187.51 747.26,-198 754.12,-196.62"/>
</g>
<!-- Node31&#45;&gt;Node10 -->
<g id="edge48" class="edge">
<title>Node31&#45;&gt;Node10</title>
<path fill="none" stroke="midnightblue" d="M357.02,-229.83C348.02,-215.6 333.41,-186.98 347,-168 364.63,-143.36 396.56,-132.06 424.61,-126.94"/>
<polygon fill="midnightblue" stroke="midnightblue" points="425.4,-130.36 434.73,-125.32 424.3,-123.44 425.4,-130.36"/>
</g>
<!-- Node31&#45;&gt;Node14 -->
<g id="edge49" class="edge">
<title>Node31&#45;&gt;Node14</title>
<path fill="none" stroke="midnightblue" d="M366.01,-229.98C369.03,-221.4 373.79,-207.93 377.65,-196.98"/>
<polygon fill="midnightblue" stroke="midnightblue" points="380.97,-198.1 381,-187.51 374.37,-195.77 380.97,-198.1"/>
</g>
<!-- Node33&#45;&gt;Node9 -->
<g id="edge60" class="edge">
<title>Node33&#45;&gt;Node9</title>
<path fill="none" stroke="midnightblue" d="M329.23,-459.25C335.94,-446.01 349.99,-420.56 367,-403 378.83,-390.78 394.44,-379.85 407.4,-371.82"/>
<polygon fill="midnightblue" stroke="midnightblue" points="409.49,-374.65 416.27,-366.51 405.89,-368.64 409.49,-374.65"/>
</g>
<!-- Node33&#45;&gt;Node10 -->
<g id="edge54" class="edge">
<title>Node33&#45;&gt;Node10</title>
<path fill="none" stroke="midnightblue" d="M268.5,-466.94C195.03,-462.21 76,-441.65 76,-358 76,-358 76,-358 76,-238.5 76,-205.93 71.21,-189.12 96,-168 144.26,-126.88 330.75,-121.97 424.52,-122.2"/>
<polygon fill="midnightblue" stroke="midnightblue" points="424.65,-125.7 434.66,-122.25 424.68,-118.7 424.65,-125.7"/>
</g>
<!-- Node33&#45;&gt;Node11 -->
<g id="edge56" class="edge">
<title>Node33&#45;&gt;Node11</title>
<path fill="none" stroke="midnightblue" d="M268.19,-462.13C242.96,-456.38 215.52,-445.08 200,-423 164.13,-371.96 198.47,-292.94 216.95,-258.07"/>
<polygon fill="midnightblue" stroke="midnightblue" points="220.13,-259.55 221.88,-249.1 213.99,-256.18 220.13,-259.55"/>
</g>
<!-- Node33&#45;&gt;Node22 -->
<g id="edge55" class="edge">
<title>Node33&#45;&gt;Node22</title>
<path fill="none" stroke="midnightblue" d="M381.81,-467.79C516.11,-465.77 842,-451.26 842,-358 842,-358 842,-358 842,-300 842,-263.71 842,-221.31 842,-197.56"/>
<polygon fill="midnightblue" stroke="midnightblue" points="845.5,-197.51 842,-187.51 838.5,-197.51 845.5,-197.51"/>
</g>
<!-- Node34 -->
<g id="node34" class="node">
<title>Node34</title>
<g id="a_node34"><a xlink:href="sitkEvent_8h.html" target="_top" xlink:title=" ">
<polygon fill="white" stroke="black" points="469.5,-230 469.5,-249 540.5,-249 540.5,-230 469.5,-230"/>
<text text-anchor="middle" x="505" y="-237" font-family="Helvetica,sans-Serif" font-size="10.00">sitkEvent.h</text>
</a>
</g>
</g>
<!-- Node33&#45;&gt;Node34 -->
<g id="edge57" class="edge">
<title>Node33&#45;&gt;Node34</title>
<path fill="none" stroke="midnightblue" d="M381.92,-460.57C426.53,-453.47 483.41,-441.14 498,-423 536.54,-375.08 520.7,-295.03 510.76,-259.03"/>
<polygon fill="midnightblue" stroke="midnightblue" points="514.1,-257.97 507.93,-249.36 507.38,-259.94 514.1,-257.97"/>
</g>
<!-- Node35 -->
<g id="node35" class="node">
<title>Node35</title>
<g id="a_node35"><a xlink:href="sitkImageConvert_8h.html" target="_top" xlink:title=" ">
<polygon fill="white" stroke="black" points="375.5,-403.5 375.5,-422.5 488.5,-422.5 488.5,-403.5 375.5,-403.5"/>
<text text-anchor="middle" x="432" y="-410.5" font-family="Helvetica,sans-Serif" font-size="10.00">sitkImageConvert.h</text>
</a>
</g>
</g>
<!-- Node33&#45;&gt;Node35 -->
<g id="edge61" class="edge">
<title>Node33&#45;&gt;Node35</title>
<path fill="none" stroke="midnightblue" d="M342.19,-459.32C359.35,-450.66 385.95,-437.24 405.75,-427.25"/>
<polygon fill="midnightblue" stroke="midnightblue" points="407.5,-430.28 414.85,-422.65 404.35,-424.04 407.5,-430.28"/>
</g>
<!-- Node36 -->
<g id="node36" class="node">
<title>Node36</title>
<g id="a_node36"><a xlink:title=" ">
<polygon fill="white" stroke="#bfbfbf" points="209,-403.5 209,-422.5 269,-422.5 269,-403.5 209,-403.5"/>
<text text-anchor="middle" x="239" y="-410.5" font-family="Helvetica,sans-Serif" font-size="10.00">iostream</text>
</a>
</g>
</g>
<!-- Node33&#45;&gt;Node36 -->
<g id="edge63" class="edge">
<title>Node33&#45;&gt;Node36</title>
<path fill="none" stroke="midnightblue" d="M311.18,-459.32C297.77,-450.9 277.18,-437.97 261.41,-428.07"/>
<polygon fill="midnightblue" stroke="midnightblue" points="263.11,-425.01 252.78,-422.65 259.39,-430.94 263.11,-425.01"/>
</g>
<!-- Node37 -->
<g id="node37" class="node">
<title>Node37</title>
<g id="a_node37"><a xlink:title=" ">
<polygon fill="white" stroke="#bfbfbf" points="287,-403.5 287,-422.5 319,-422.5 319,-403.5 287,-403.5"/>
<text text-anchor="middle" x="303" y="-410.5" font-family="Helvetica,sans-Serif" font-size="10.00">list</text>
</a>
</g>
</g>
<!-- Node33&#45;&gt;Node37 -->
<g id="edge64" class="edge">
<title>Node33&#45;&gt;Node37</title>
<path fill="none" stroke="midnightblue" d="M321.37,-459.08C318.39,-451.77 314.07,-441.18 310.38,-432.1"/>
<polygon fill="midnightblue" stroke="midnightblue" points="313.58,-430.69 306.57,-422.75 307.1,-433.33 313.58,-430.69"/>
</g>
<!-- Node34&#45;&gt;Node10 -->
<g id="edge58" class="edge">
<title>Node34&#45;&gt;Node10</title>
<path fill="none" stroke="midnightblue" d="M503.05,-229.82C498.85,-211.17 488.89,-166.94 483.19,-141.63"/>
<polygon fill="midnightblue" stroke="midnightblue" points="486.59,-140.77 480.98,-131.78 479.76,-142.31 486.59,-140.77"/>
</g>
<!-- Node34&#45;&gt;Node14 -->
<g id="edge59" class="edge">
<title>Node34&#45;&gt;Node14</title>
<path fill="none" stroke="midnightblue" d="M487.66,-229.98C467.45,-220.03 433.81,-203.49 410.36,-191.96"/>
<polygon fill="midnightblue" stroke="midnightblue" points="411.82,-188.78 401.3,-187.51 408.73,-195.06 411.82,-188.78"/>
</g>
<!-- Node35&#45;&gt;Node9 -->
<g id="edge62" class="edge">
<title>Node35&#45;&gt;Node9</title>
<path fill="none" stroke="midnightblue" d="M432,-403.08C432,-396.01 432,-385.86 432,-376.99"/>
<polygon fill="midnightblue" stroke="midnightblue" points="435.5,-376.75 432,-366.75 428.5,-376.75 435.5,-376.75"/>
</g>
<!-- Node38&#45;&gt;Node2 -->
<g id="edge66" class="edge">
<title>Node38&#45;&gt;Node2</title>
<path fill="none" stroke="midnightblue" d="M113.54,-459.44C88.1,-443.16 38,-405.13 38,-358 38,-358 38,-358 38,-177 38,-71.1 422.77,-64.98 559.5,-66.15"/>
<polygon fill="midnightblue" stroke="midnightblue" points="559.63,-69.66 569.67,-66.26 559.7,-62.66 559.63,-69.66"/>
</g>
<!-- Node39&#45;&gt;Node5 -->
<g id="edge72" class="edge">
<title>Node39&#45;&gt;Node5</title>
<path fill="none" stroke="midnightblue" d="M1028.79,-350.71C1208.62,-337.73 1630,-300.87 1630,-240.5 1630,-240.5 1630,-240.5 1630,-121 1630,-65.39 1445.98,-29.41 1366.19,-16.43"/>
<polygon fill="midnightblue" stroke="midnightblue" points="1366.52,-12.94 1356.1,-14.82 1365.42,-19.85 1366.52,-12.94"/>
</g>
<!-- Node39&#45;&gt;Node12 -->
<g id="edge75" class="edge">
<title>Node39&#45;&gt;Node12</title>
<path fill="none" stroke="midnightblue" d="M940.28,-347.46C931.15,-338.48 916.43,-323.88 904,-311 867.32,-272.98 869.02,-249.94 823,-224 778.88,-199.14 722.73,-187.95 678.73,-182.95"/>
<polygon fill="midnightblue" stroke="midnightblue" points="679,-179.46 668.69,-181.89 678.26,-186.42 679,-179.46"/>
</g>
<!-- Node39&#45;&gt;Node16 -->
<g id="edge68" class="edge">
<title>Node39&#45;&gt;Node16</title>
<path fill="none" stroke="midnightblue" d="M949,-347.08C949,-340.01 949,-329.86 949,-320.99"/>
<polygon fill="midnightblue" stroke="midnightblue" points="952.5,-320.75 949,-310.75 945.5,-320.75 952.5,-320.75"/>
</g>
<!-- Node39&#45;&gt;Node17 -->
<g id="edge69" class="edge">
<title>Node39&#45;&gt;Node17</title>
<path fill="none" stroke="midnightblue" d="M1028.62,-352.65C1076.1,-347.83 1136.24,-336.64 1184,-311 1205.52,-299.45 1224.47,-278.89 1237.04,-262.95"/>
<polygon fill="midnightblue" stroke="midnightblue" points="1240.08,-264.73 1243.34,-254.65 1234.51,-260.5 1240.08,-264.73"/>
</g>
<!-- Node39&#45;&gt;Node27 -->
<g id="edge74" class="edge">
<title>Node39&#45;&gt;Node27</title>
<path fill="none" stroke="midnightblue" d="M905.74,-347.44C857.82,-337.96 780.52,-322.67 729,-312.48"/>
<polygon fill="midnightblue" stroke="midnightblue" points="729.54,-309.02 719.06,-310.52 728.19,-315.89 729.54,-309.02"/>
</g>
<!-- Node39&#45;&gt;Node28 -->
<g id="edge70" class="edge">
<title>Node39&#45;&gt;Node28</title>
<path fill="none" stroke="midnightblue" d="M932.68,-347.35C916.19,-338.51 890.07,-324.25 868,-311 836.89,-292.33 801.8,-269.26 780.04,-254.71"/>
<polygon fill="midnightblue" stroke="midnightblue" points="781.83,-251.69 771.58,-249.03 777.93,-257.51 781.83,-251.69"/>
</g>
<!-- Node39&#45;&gt;Node39 -->
<g id="edge73" class="edge">
<title>Node39&#45;&gt;Node39</title>
<path fill="none" stroke="midnightblue" d="M990.33,-366.5C1018.67,-369.33 1046.5,-366.16 1046.5,-357 1046.5,-348.95 1025,-345.53 1000.56,-346.74"/>
<polygon fill="midnightblue" stroke="midnightblue" points="1000.04,-343.27 990.33,-347.5 1000.56,-350.25 1000.04,-343.27"/>
</g>
<!-- Node40 -->
<g id="node40" class="node">
<title>Node40</title>
<g id="a_node40"><a xlink:title=" ">
<polygon fill="white" stroke="#bfbfbf" points="1003.5,-291.5 1003.5,-310.5 1174.5,-310.5 1174.5,-291.5 1003.5,-291.5"/>
<text text-anchor="middle" x="1089" y="-298.5" font-family="Helvetica,sans-Serif" font-size="10.00">sitkMemberFunctionFactory.hxx</text>
</a>
</g>
</g>
<!-- Node39&#45;&gt;Node40 -->
<g id="edge71" class="edge">
<title>Node39&#45;&gt;Node40</title>
<path fill="none" stroke="midnightblue" d="M971.18,-347.44C994.43,-338.48 1031.15,-324.31 1057.42,-314.18"/>
<polygon fill="midnightblue" stroke="midnightblue" points="1058.85,-317.38 1066.92,-310.52 1056.33,-310.85 1058.85,-317.38"/>
</g>
</g>
</svg>
        <g id="navigator" transform="translate(0 0)" fill="#404254">
                <rect fill="#f2f5e9" fill-opacity="0.5" stroke="#606060" stroke-width=".5" x="0" y="0" width="60" height="60"/>
                <use id="zoomplus" xlink:href="#zoomPlus" x="17" y="9" onmousedown="handleZoom(evt,'in')"/>
                <use id="zoomminus" xlink:href="#zoomMin" x="42" y="9" onmousedown="handleZoom(evt,'out')"/>
                <use id="reset" xlink:href="#resetDef" x="30" y="36" onmousedown="handleReset()"/>
                <g id="arrowUp" xlink:href="#dirArrow" transform="translate(30 24)" onmousedown="handlePan(0,-1)">
                  <use xlink:href="#rim" fill="#404040">
                        <set attributeName="fill" to="#808080" begin="arrowUp.mouseover" end="arrowUp.mouseout"/>
                  </use>
                  <path fill="none" stroke="white" stroke-width="1.5" d="M0,-3.0v7 M-2.5,-0.5L0,-3.0L2.5,-0.5"/>
                </g>
                <g id="arrowRight" xlink:href="#dirArrow" transform="rotate(90) translate(36 -43)" onmousedown="handlePan(1,0)">
                  <use xlink:href="#rim" fill="#404040">
                        <set attributeName="fill" to="#808080" begin="arrowRight.mouseover" end="arrowRight.mouseout"/>
                  </use>
                  <path fill="none" stroke="white" stroke-width="1.5" d="M0,-3.0v7 M-2.5,-0.5L0,-3.0L2.5,-0.5"/>
                </g>
                <g id="arrowDown" xlink:href="#dirArrow" transform="rotate(180) translate(-30 -48)" onmousedown="handlePan(0,1)">
                  <use xlink:href="#rim" fill="#404040">
                        <set attributeName="fill" to="#808080" begin="arrowDown.mouseover" end="arrowDown.mouseout"/>
                  </use>
                  <path fill="none" stroke="white" stroke-width="1.5" d="M0,-3.0v7 M-2.5,-0.5L0,-3.0L2.5,-0.5"/>
                </g>
                <g id="arrowLeft" xlink:href="#dirArrow" transform="rotate(270) translate(-36 17)" onmousedown="handlePan(-1,0)">
                  <use xlink:href="#rim" fill="#404040">
                        <set attributeName="fill" to="#808080" begin="arrowLeft.mouseover" end="arrowLeft.mouseout"/>
                  </use>
                  <path fill="none" stroke="white" stroke-width="1.5" d="M0,-3.0v7 M-2.5,-0.5L0,-3.0L2.5,-0.5"/>
                </g>
        </g>
        <svg viewBox="0 0 15 15" width="100%" height="30px" preserveAspectRatio="xMaxYMin meet">
         <g id="arrow_out" transform="scale(0.3 0.3)">
          <a xlink:href="sitkImageSeriesWriter_8h__incl_org.svg" target="_base">
           <rect id="button" ry="5" rx="5" y="6" x="6" height="38" width="38"
                fill="#f2f5e9" fill-opacity="0.5" stroke="#606060" stroke-width="1.0"/>
           <path id="arrow"
             d="M 11.500037,31.436501 C 11.940474,20.09759 22.043105,11.32322 32.158766,21.979434 L 37.068811,17.246167 C 37.068811,17.246167 37.088388,32 37.088388,32 L 22.160133,31.978069 C 22.160133,31.978069 26.997745,27.140456 26.997745,27.140456 C 18.528582,18.264221 13.291696,25.230495 11.500037,31.436501 z"
             style="fill:#404040;"/>
          </a>
         </g>
        </svg>
</svg>
