<?xml version="1.0" encoding="UTF-8" standalone="no"?>
<!DOCTYPE svg PUBLIC "-//W3C//DTD SVG 1.1//EN"
 "http://www.w3.org/Graphics/SVG/1.1/DTD/svg11.dtd">
<!-- Generated by graphviz version 2.43.0 (0)
 -->
<!-- Title: sitkShiftScaleImageFilter.h Pages: 1 -->
<svg width="1853pt" height="599pt"
 viewBox="0.00 0.00 1852.91 599.00" xmlns="http://www.w3.org/2000/svg" xmlns:xlink="http://www.w3.org/1999/xlink">
<g id="graph0" class="graph" transform="scale(1 1) rotate(0) translate(4 595)">
<title>sitkShiftScaleImageFilter.h</title>
<polygon fill="white" stroke="transparent" points="-4,4 -4,-595 1848.91,-595 1848.91,4 -4,4"/>
<!-- Node1 -->
<g id="node1" class="node">
<title>Node1</title>
<g id="a_node1"><a xlink:title=" ">
<polygon fill="#bfbfbf" stroke="black" points="603,-571.5 603,-590.5 749,-590.5 749,-571.5 603,-571.5"/>
<text text-anchor="middle" x="676" y="-578.5" font-family="Helvetica,sans-Serif" font-size="10.00">sitkShiftScaleImageFilter.h</text>
</a>
</g>
</g>
<!-- Node2 -->
<g id="node2" class="node">
<title>Node2</title>
<g id="a_node2"><a xlink:title=" ">
<polygon fill="white" stroke="#bfbfbf" points="545,-291.5 545,-310.5 603,-310.5 603,-291.5 545,-291.5"/>
<text text-anchor="middle" x="574" y="-298.5" font-family="Helvetica,sans-Serif" font-size="10.00">memory</text>
</a>
</g>
</g>
<!-- Node1&#45;&gt;Node2 -->
<g id="edge1" class="edge">
<title>Node1&#45;&gt;Node2</title>
<path fill="none" stroke="midnightblue" d="M658.7,-571.45C629.6,-555.72 574,-519.22 574,-470 574,-470 574,-470 574,-412 574,-379.95 574,-342.64 574,-320.75"/>
<polygon fill="midnightblue" stroke="midnightblue" points="577.5,-320.56 574,-310.56 570.5,-320.56 577.5,-320.56"/>
</g>
<!-- Node3 -->
<g id="node3" class="node">
<title>Node3</title>
<g id="a_node3"><a xlink:href="sitkImageFilter_8h.html" target="_top" xlink:title=" ">
<polygon fill="white" stroke="black" points="710,-515.5 710,-534.5 808,-534.5 808,-515.5 710,-515.5"/>
<text text-anchor="middle" x="759" y="-522.5" font-family="Helvetica,sans-Serif" font-size="10.00">sitkImageFilter.h</text>
</a>
</g>
</g>
<!-- Node1&#45;&gt;Node3 -->
<g id="edge2" class="edge">
<title>Node1&#45;&gt;Node3</title>
<path fill="none" stroke="midnightblue" d="M689.34,-571.32C702.16,-562.98 721.78,-550.21 736.94,-540.35"/>
<polygon fill="midnightblue" stroke="midnightblue" points="739.22,-543.04 745.7,-534.65 735.41,-537.17 739.22,-543.04"/>
</g>
<!-- Node28 -->
<g id="node28" class="node">
<title>Node28</title>
<g id="a_node28"><a xlink:href="sitkBasicFilters_8h.html" target="_top" xlink:title=" ">
<polygon fill="white" stroke="black" points="230,-459.5 230,-478.5 330,-478.5 330,-459.5 230,-459.5"/>
<text text-anchor="middle" x="280" y="-466.5" font-family="Helvetica,sans-Serif" font-size="10.00">sitkBasicFilters.h</text>
</a>
</g>
</g>
<!-- Node1&#45;&gt;Node28 -->
<g id="edge89" class="edge">
<title>Node1&#45;&gt;Node28</title>
<path fill="none" stroke="midnightblue" d="M645.26,-571.46C574.42,-551.78 399.71,-503.25 320.37,-481.21"/>
<polygon fill="midnightblue" stroke="midnightblue" points="321.3,-477.84 310.72,-478.53 319.42,-484.58 321.3,-477.84"/>
</g>
<!-- Node46 -->
<g id="node46" class="node">
<title>Node46</title>
<g id="a_node46"><a xlink:href="sitkDualMemberFunctionFactory_8h.html" target="_top" xlink:title=" ">
<polygon fill="white" stroke="black" points="1458,-347.5 1458,-366.5 1640,-366.5 1640,-347.5 1458,-347.5"/>
<text text-anchor="middle" x="1549" y="-354.5" font-family="Helvetica,sans-Serif" font-size="10.00">sitkDualMemberFunctionFactory.h</text>
</a>
</g>
</g>
<!-- Node1&#45;&gt;Node46 -->
<g id="edge85" class="edge">
<title>Node1&#45;&gt;Node46</title>
<path fill="none" stroke="midnightblue" d="M741.7,-571.46C844.78,-557.24 1050.26,-525.61 1220,-479 1333.49,-447.83 1463.26,-394.7 1519.95,-370.58"/>
<polygon fill="midnightblue" stroke="midnightblue" points="1521.54,-373.71 1529.35,-366.56 1518.78,-367.27 1521.54,-373.71"/>
</g>
<!-- Node4 -->
<g id="node4" class="node">
<title>Node4</title>
<g id="a_node4"><a xlink:href="sitkMacro_8h.html" target="_top" xlink:title=" ">
<polygon fill="white" stroke="black" points="830,-56.5 830,-75.5 904,-75.5 904,-56.5 830,-56.5"/>
<text text-anchor="middle" x="867" y="-63.5" font-family="Helvetica,sans-Serif" font-size="10.00">sitkMacro.h</text>
</a>
</g>
</g>
<!-- Node3&#45;&gt;Node4 -->
<g id="edge3" class="edge">
<title>Node3&#45;&gt;Node4</title>
<path fill="none" stroke="midnightblue" d="M808,-521.49C918.79,-514.48 1179,-489.94 1179,-414 1179,-414 1179,-414 1179,-177 1179,-121.48 1001.03,-87.08 913.92,-73.56"/>
<polygon fill="midnightblue" stroke="midnightblue" points="914.43,-70.1 904.02,-72.06 913.38,-77.02 914.43,-70.1"/>
</g>
<!-- Node11 -->
<g id="node11" class="node">
<title>Node11</title>
<g id="a_node11"><a xlink:href="sitkMemberFunctionFactory_8h.html" target="_top" xlink:title=" ">
<polygon fill="white" stroke="black" points="1206.5,-347.5 1206.5,-366.5 1365.5,-366.5 1365.5,-347.5 1206.5,-347.5"/>
<text text-anchor="middle" x="1286" y="-354.5" font-family="Helvetica,sans-Serif" font-size="10.00">sitkMemberFunctionFactory.h</text>
</a>
</g>
</g>
<!-- Node3&#45;&gt;Node11 -->
<g id="edge10" class="edge">
<title>Node3&#45;&gt;Node11</title>
<path fill="none" stroke="midnightblue" d="M808.29,-523.71C907.66,-522.37 1128.11,-515.25 1193,-479 1235.46,-455.28 1264.84,-403.37 1278.07,-375.89"/>
<polygon fill="midnightblue" stroke="midnightblue" points="1281.32,-377.21 1282.35,-366.66 1274.97,-374.27 1281.32,-377.21"/>
</g>
<!-- Node3&#45;&gt;Node28 -->
<g id="edge38" class="edge">
<title>Node3&#45;&gt;Node28</title>
<path fill="none" stroke="midnightblue" d="M709.99,-518.47C621.65,-508.52 436,-487.59 340.13,-476.78"/>
<polygon fill="midnightblue" stroke="midnightblue" points="340.35,-473.28 330.02,-475.64 339.56,-480.24 340.35,-473.28"/>
</g>
<!-- Node41 -->
<g id="node41" class="node">
<title>Node41</title>
<g id="a_node41"><a xlink:href="sitkProcessObject_8h.html" target="_top" xlink:title=" ">
<polygon fill="white" stroke="black" points="702.5,-459.5 702.5,-478.5 815.5,-478.5 815.5,-459.5 702.5,-459.5"/>
<text text-anchor="middle" x="759" y="-466.5" font-family="Helvetica,sans-Serif" font-size="10.00">sitkProcessObject.h</text>
</a>
</g>
</g>
<!-- Node3&#45;&gt;Node41 -->
<g id="edge73" class="edge">
<title>Node3&#45;&gt;Node41</title>
<path fill="none" stroke="midnightblue" d="M759,-515.08C759,-508.01 759,-497.86 759,-488.99"/>
<polygon fill="midnightblue" stroke="midnightblue" points="762.5,-488.75 759,-478.75 755.5,-488.75 762.5,-488.75"/>
</g>
<!-- Node5 -->
<g id="node5" class="node">
<title>Node5</title>
<g id="a_node5"><a xlink:title=" ">
<polygon fill="white" stroke="#bfbfbf" points="1171.5,-0.5 1171.5,-19.5 1224.5,-19.5 1224.5,-0.5 1171.5,-0.5"/>
<text text-anchor="middle" x="1198" y="-7.5" font-family="Helvetica,sans-Serif" font-size="10.00">stdint.h</text>
</a>
</g>
</g>
<!-- Node4&#45;&gt;Node5 -->
<g id="edge4" class="edge">
<title>Node4&#45;&gt;Node5</title>
<path fill="none" stroke="midnightblue" d="M904.01,-58.96C967.77,-48.56 1097.6,-27.38 1161.21,-17"/>
<polygon fill="midnightblue" stroke="midnightblue" points="1161.89,-20.44 1171.2,-15.37 1160.76,-13.53 1161.89,-20.44"/>
</g>
<!-- Node6 -->
<g id="node6" class="node">
<title>Node6</title>
<g id="a_node6"><a xlink:title=" ">
<polygon fill="white" stroke="#bfbfbf" points="873,-0.5 873,-19.5 929,-19.5 929,-0.5 873,-0.5"/>
<text text-anchor="middle" x="901" y="-7.5" font-family="Helvetica,sans-Serif" font-size="10.00">stddef.h</text>
</a>
</g>
</g>
<!-- Node4&#45;&gt;Node6 -->
<g id="edge5" class="edge">
<title>Node4&#45;&gt;Node6</title>
<path fill="none" stroke="midnightblue" d="M872.61,-56.08C877.37,-48.53 884.32,-37.49 890.15,-28.23"/>
<polygon fill="midnightblue" stroke="midnightblue" points="893.12,-30.08 895.49,-19.75 887.2,-26.35 893.12,-30.08"/>
</g>
<!-- Node7 -->
<g id="node7" class="node">
<title>Node7</title>
<g id="a_node7"><a xlink:title=" ">
<polygon fill="white" stroke="#bfbfbf" points="947,-0.5 947,-19.5 999,-19.5 999,-0.5 947,-0.5"/>
<text text-anchor="middle" x="973" y="-7.5" font-family="Helvetica,sans-Serif" font-size="10.00">cassert</text>
</a>
</g>
</g>
<!-- Node4&#45;&gt;Node7 -->
<g id="edge6" class="edge">
<title>Node4&#45;&gt;Node7</title>
<path fill="none" stroke="midnightblue" d="M884.03,-56.32C901.03,-47.66 927.38,-34.24 946.99,-24.25"/>
<polygon fill="midnightblue" stroke="midnightblue" points="948.69,-27.31 956.01,-19.65 945.51,-21.08 948.69,-27.31"/>
</g>
<!-- Node8 -->
<g id="node8" class="node">
<title>Node8</title>
<g id="a_node8"><a xlink:title=" ">
<polygon fill="white" stroke="#bfbfbf" points="737,-0.5 737,-19.5 793,-19.5 793,-0.5 737,-0.5"/>
<text text-anchor="middle" x="765" y="-7.5" font-family="Helvetica,sans-Serif" font-size="10.00">sstream</text>
</a>
</g>
</g>
<!-- Node4&#45;&gt;Node8 -->
<g id="edge7" class="edge">
<title>Node4&#45;&gt;Node8</title>
<path fill="none" stroke="midnightblue" d="M850.61,-56.32C834.33,-47.7 809.13,-34.36 790.28,-24.39"/>
<polygon fill="midnightblue" stroke="midnightblue" points="791.82,-21.24 781.35,-19.65 788.55,-27.43 791.82,-21.24"/>
</g>
<!-- Node9 -->
<g id="node9" class="node">
<title>Node9</title>
<g id="a_node9"><a xlink:title=" ">
<polygon fill="white" stroke="#bfbfbf" points="811,-0.5 811,-19.5 855,-19.5 855,-0.5 811,-0.5"/>
<text text-anchor="middle" x="833" y="-7.5" font-family="Helvetica,sans-Serif" font-size="10.00">limits</text>
</a>
</g>
</g>
<!-- Node4&#45;&gt;Node9 -->
<g id="edge8" class="edge">
<title>Node4&#45;&gt;Node9</title>
<path fill="none" stroke="midnightblue" d="M861.39,-56.08C856.63,-48.53 849.68,-37.49 843.85,-28.23"/>
<polygon fill="midnightblue" stroke="midnightblue" points="846.8,-26.35 838.51,-19.75 840.88,-30.08 846.8,-26.35"/>
</g>
<!-- Node10 -->
<g id="node10" class="node">
<title>Node10</title>
<g id="a_node10"><a xlink:href="sitkConfigure_8h.html" target="_top" xlink:title=" ">
<polygon fill="white" stroke="black" points="1366,-0.5 1366,-19.5 1456,-19.5 1456,-0.5 1366,-0.5"/>
<text text-anchor="middle" x="1411" y="-7.5" font-family="Helvetica,sans-Serif" font-size="10.00">sitkConfigure.h</text>
</a>
</g>
</g>
<!-- Node4&#45;&gt;Node10 -->
<g id="edge9" class="edge">
<title>Node4&#45;&gt;Node10</title>
<path fill="none" stroke="midnightblue" d="M904.39,-61.29C998.44,-51.95 1245.17,-27.46 1355.87,-16.47"/>
<polygon fill="midnightblue" stroke="midnightblue" points="1356.23,-19.95 1365.83,-15.48 1355.53,-12.99 1356.23,-19.95"/>
</g>
<!-- Node12 -->
<g id="node12" class="node">
<title>Node12</title>
<g id="a_node12"><a xlink:href="sitkDetail_8h.html" target="_top" xlink:title=" ">
<polygon fill="white" stroke="black" points="1207.5,-291.5 1207.5,-310.5 1280.5,-310.5 1280.5,-291.5 1207.5,-291.5"/>
<text text-anchor="middle" x="1244" y="-298.5" font-family="Helvetica,sans-Serif" font-size="10.00">sitkDetail.h</text>
</a>
</g>
</g>
<!-- Node11&#45;&gt;Node12 -->
<g id="edge11" class="edge">
<title>Node11&#45;&gt;Node12</title>
<path fill="none" stroke="midnightblue" d="M1279.06,-347.08C1273.07,-339.38 1264.25,-328.03 1256.95,-318.65"/>
<polygon fill="midnightblue" stroke="midnightblue" points="1259.71,-316.5 1250.81,-310.75 1254.18,-320.79 1259.71,-316.5"/>
</g>
<!-- Node13 -->
<g id="node13" class="node">
<title>Node13</title>
<g id="a_node13"><a xlink:href="sitkMemberFunctionFactoryBase_8h.html" target="_top" xlink:title=" ">
<polygon fill="white" stroke="black" points="1500,-224.5 1500,-254.5 1652,-254.5 1652,-224.5 1500,-224.5"/>
<text text-anchor="start" x="1508" y="-242.5" font-family="Helvetica,sans-Serif" font-size="10.00">sitkMemberFunctionFactory</text>
<text text-anchor="middle" x="1576" y="-231.5" font-family="Helvetica,sans-Serif" font-size="10.00">Base.h</text>
</a>
</g>
</g>
<!-- Node11&#45;&gt;Node13 -->
<g id="edge31" class="edge">
<title>Node11&#45;&gt;Node13</title>
<path fill="none" stroke="midnightblue" d="M1349.87,-347.5C1388.23,-340.83 1437.33,-329.5 1478,-311 1505.92,-298.3 1533.94,-277.08 1552.83,-261.23"/>
<polygon fill="midnightblue" stroke="midnightblue" points="1555.26,-263.76 1560.58,-254.6 1550.71,-258.44 1555.26,-263.76"/>
</g>
<!-- Node24 -->
<g id="node24" class="node">
<title>Node24</title>
<g id="a_node24"><a xlink:href="sitkPixelIDValues_8h.html" target="_top" xlink:title=" ">
<polygon fill="white" stroke="black" points="927,-230 927,-249 1037,-249 1037,-230 927,-230"/>
<text text-anchor="middle" x="982" y="-237" font-family="Helvetica,sans-Serif" font-size="10.00">sitkPixelIDValues.h</text>
</a>
</g>
</g>
<!-- Node11&#45;&gt;Node24 -->
<g id="edge32" class="edge">
<title>Node11&#45;&gt;Node24</title>
<path fill="none" stroke="midnightblue" d="M1263.15,-347.32C1209.65,-326.99 1076.13,-276.26 1014.33,-252.78"/>
<polygon fill="midnightblue" stroke="midnightblue" points="1015.29,-249.4 1004.7,-249.12 1012.8,-255.95 1015.29,-249.4"/>
</g>
<!-- Node27 -->
<g id="node27" class="node">
<title>Node27</title>
<g id="a_node27"><a xlink:title=" ">
<polygon fill="white" stroke="#bfbfbf" points="1298.5,-291.5 1298.5,-310.5 1469.5,-310.5 1469.5,-291.5 1298.5,-291.5"/>
<text text-anchor="middle" x="1384" y="-298.5" font-family="Helvetica,sans-Serif" font-size="10.00">sitkMemberFunctionFactory.hxx</text>
</a>
</g>
</g>
<!-- Node11&#45;&gt;Node27 -->
<g id="edge37" class="edge">
<title>Node11&#45;&gt;Node27</title>
<path fill="none" stroke="midnightblue" d="M1301.75,-347.32C1317.32,-338.74 1341.38,-325.49 1359.46,-315.52"/>
<polygon fill="midnightblue" stroke="midnightblue" points="1361.22,-318.55 1368.29,-310.65 1357.85,-312.42 1361.22,-318.55"/>
</g>
<!-- Node12&#45;&gt;Node13 -->
<g id="edge12" class="edge">
<title>Node12&#45;&gt;Node13</title>
<path fill="none" stroke="midnightblue" d="M1280.82,-292.56C1283.59,-292.03 1286.34,-291.5 1289,-291 1356.31,-278.35 1432.68,-264.96 1489.72,-255.14"/>
<polygon fill="midnightblue" stroke="midnightblue" points="1490.51,-258.56 1499.78,-253.42 1489.33,-251.66 1490.51,-258.56"/>
</g>
<!-- Node20 -->
<g id="node20" class="node">
<title>Node20</title>
<g id="a_node20"><a xlink:title=" ">
<polygon fill="white" stroke="#bfbfbf" points="1207.5,-168.5 1207.5,-187.5 1346.5,-187.5 1346.5,-168.5 1207.5,-168.5"/>
<text text-anchor="middle" x="1277" y="-175.5" font-family="Helvetica,sans-Serif" font-size="10.00">Ancillary/FunctionTraits.h</text>
</a>
</g>
</g>
<!-- Node12&#45;&gt;Node20 -->
<g id="edge30" class="edge">
<title>Node12&#45;&gt;Node20</title>
<path fill="none" stroke="midnightblue" d="M1246.37,-291.3C1251.7,-271.76 1264.71,-224.06 1271.94,-197.55"/>
<polygon fill="midnightblue" stroke="midnightblue" points="1275.39,-198.19 1274.65,-187.62 1268.64,-196.35 1275.39,-198.19"/>
</g>
<!-- Node13&#45;&gt;Node4 -->
<g id="edge21" class="edge">
<title>Node13&#45;&gt;Node4</title>
<path fill="none" stroke="midnightblue" d="M1513.48,-224.49C1477.89,-215.69 1432.79,-203.15 1394,-188 1375.85,-180.91 1372.92,-175.65 1355,-168 1284.93,-138.1 1267.09,-129.74 1193,-112 1095.36,-88.62 978.17,-76.14 914.27,-70.6"/>
<polygon fill="midnightblue" stroke="midnightblue" points="914.36,-67.1 904.1,-69.74 913.77,-74.07 914.36,-67.1"/>
</g>
<!-- Node13&#45;&gt;Node10 -->
<g id="edge13" class="edge">
<title>Node13&#45;&gt;Node10</title>
<path fill="none" stroke="midnightblue" d="M1652.12,-232.15C1715.4,-225.26 1798.72,-211.89 1822,-188 1845.78,-163.6 1853.09,-138.75 1832,-112 1787.02,-54.95 1569.91,-26.47 1466.28,-15.94"/>
<polygon fill="midnightblue" stroke="midnightblue" points="1466.61,-12.46 1456.31,-14.95 1465.92,-19.42 1466.61,-12.46"/>
</g>
<!-- Node14 -->
<g id="node14" class="node">
<title>Node14</title>
<g id="a_node14"><a xlink:href="sitkPixelIDTypes_8h.html" target="_top" xlink:title=" ">
<polygon fill="white" stroke="black" points="1524.5,-112.5 1524.5,-131.5 1629.5,-131.5 1629.5,-112.5 1524.5,-112.5"/>
<text text-anchor="middle" x="1577" y="-119.5" font-family="Helvetica,sans-Serif" font-size="10.00">sitkPixelIDTypes.h</text>
</a>
</g>
</g>
<!-- Node13&#45;&gt;Node14 -->
<g id="edge14" class="edge">
<title>Node13&#45;&gt;Node14</title>
<path fill="none" stroke="midnightblue" d="M1652.24,-236.99C1728.25,-232.7 1828.32,-217.83 1788,-168 1769.59,-145.25 1695.03,-133.51 1639.73,-127.81"/>
<polygon fill="midnightblue" stroke="midnightblue" points="1639.94,-124.31 1629.65,-126.81 1639.26,-131.28 1639.94,-124.31"/>
</g>
<!-- Node15 -->
<g id="node15" class="node">
<title>Node15</title>
<g id="a_node15"><a xlink:href="sitkPixelIDTypeLists_8h.html" target="_top" xlink:title=" ">
<polygon fill="white" stroke="black" points="1403,-168.5 1403,-187.5 1525,-187.5 1525,-168.5 1403,-168.5"/>
<text text-anchor="middle" x="1464" y="-175.5" font-family="Helvetica,sans-Serif" font-size="10.00">sitkPixelIDTypeLists.h</text>
</a>
</g>
</g>
<!-- Node13&#45;&gt;Node15 -->
<g id="edge15" class="edge">
<title>Node13&#45;&gt;Node15</title>
<path fill="none" stroke="midnightblue" d="M1549.46,-224.4C1531.34,-214.77 1507.46,-202.09 1489.56,-192.58"/>
<polygon fill="midnightblue" stroke="midnightblue" points="1490.77,-189.26 1480.3,-187.66 1487.49,-195.44 1490.77,-189.26"/>
</g>
<!-- Node16 -->
<g id="node16" class="node">
<title>Node16</title>
<g id="a_node16"><a xlink:title=" ">
<polygon fill="white" stroke="#bfbfbf" points="1711.5,-112.5 1711.5,-131.5 1822.5,-131.5 1822.5,-112.5 1711.5,-112.5"/>
<text text-anchor="middle" x="1767" y="-119.5" font-family="Helvetica,sans-Serif" font-size="10.00">Ancillary/TypeList.h</text>
</a>
</g>
</g>
<!-- Node13&#45;&gt;Node16 -->
<g id="edge25" class="edge">
<title>Node13&#45;&gt;Node16</title>
<path fill="none" stroke="midnightblue" d="M1652.06,-231.95C1711.37,-225.08 1786.82,-211.85 1806,-188 1818.71,-172.19 1801.98,-151.86 1786.65,-138.18"/>
<polygon fill="midnightblue" stroke="midnightblue" points="1788.83,-135.44 1778.92,-131.69 1784.33,-140.8 1788.83,-135.44"/>
</g>
<!-- Node18 -->
<g id="node18" class="node">
<title>Node18</title>
<g id="a_node18"><a xlink:href="sitkNonCopyable_8h.html" target="_top" xlink:title=" ">
<polygon fill="white" stroke="black" points="1041.5,-168.5 1041.5,-187.5 1150.5,-187.5 1150.5,-168.5 1041.5,-168.5"/>
<text text-anchor="middle" x="1096" y="-175.5" font-family="Helvetica,sans-Serif" font-size="10.00">sitkNonCopyable.h</text>
</a>
</g>
</g>
<!-- Node13&#45;&gt;Node18 -->
<g id="edge22" class="edge">
<title>Node13&#45;&gt;Node18</title>
<path fill="none" stroke="midnightblue" d="M1499.94,-229.07C1406.37,-217.47 1249.1,-197.98 1160.94,-187.05"/>
<polygon fill="midnightblue" stroke="midnightblue" points="1161.15,-183.55 1150.8,-185.79 1160.29,-190.5 1161.15,-183.55"/>
</g>
<!-- Node13&#45;&gt;Node20 -->
<g id="edge26" class="edge">
<title>Node13&#45;&gt;Node20</title>
<path fill="none" stroke="midnightblue" d="M1505.52,-224.47C1451.68,-213.76 1378.66,-199.23 1329.79,-189.51"/>
<polygon fill="midnightblue" stroke="midnightblue" points="1330.24,-186.03 1319.75,-187.51 1328.87,-192.89 1330.24,-186.03"/>
</g>
<!-- Node21 -->
<g id="node21" class="node">
<title>Node21</title>
<g id="a_node21"><a xlink:title=" ">
<polygon fill="white" stroke="#bfbfbf" points="1685.5,-168.5 1685.5,-187.5 1778.5,-187.5 1778.5,-168.5 1685.5,-168.5"/>
<text text-anchor="middle" x="1732" y="-175.5" font-family="Helvetica,sans-Serif" font-size="10.00">unordered_map</text>
</a>
</g>
</g>
<!-- Node13&#45;&gt;Node21 -->
<g id="edge27" class="edge">
<title>Node13&#45;&gt;Node21</title>
<path fill="none" stroke="midnightblue" d="M1612.97,-224.4C1639.38,-214.33 1674.56,-200.91 1699.81,-191.28"/>
<polygon fill="midnightblue" stroke="midnightblue" points="1701.2,-194.49 1709.3,-187.66 1698.71,-187.95 1701.2,-194.49"/>
</g>
<!-- Node22 -->
<g id="node22" class="node">
<title>Node22</title>
<g id="a_node22"><a xlink:title=" ">
<polygon fill="white" stroke="#bfbfbf" points="1543.5,-168.5 1543.5,-187.5 1608.5,-187.5 1608.5,-168.5 1543.5,-168.5"/>
<text text-anchor="middle" x="1576" y="-175.5" font-family="Helvetica,sans-Serif" font-size="10.00">functional</text>
</a>
</g>
</g>
<!-- Node13&#45;&gt;Node22 -->
<g id="edge28" class="edge">
<title>Node13&#45;&gt;Node22</title>
<path fill="none" stroke="midnightblue" d="M1576,-224.4C1576,-216.47 1576,-206.46 1576,-197.86"/>
<polygon fill="midnightblue" stroke="midnightblue" points="1579.5,-197.66 1576,-187.66 1572.5,-197.66 1579.5,-197.66"/>
</g>
<!-- Node23 -->
<g id="node23" class="node">
<title>Node23</title>
<g id="a_node23"><a xlink:title=" ">
<polygon fill="white" stroke="#bfbfbf" points="1626.5,-168.5 1626.5,-187.5 1667.5,-187.5 1667.5,-168.5 1626.5,-168.5"/>
<text text-anchor="middle" x="1647" y="-175.5" font-family="Helvetica,sans-Serif" font-size="10.00">tuple</text>
</a>
</g>
</g>
<!-- Node13&#45;&gt;Node23 -->
<g id="edge29" class="edge">
<title>Node13&#45;&gt;Node23</title>
<path fill="none" stroke="midnightblue" d="M1592.83,-224.4C1603.67,-215.31 1617.78,-203.49 1628.87,-194.19"/>
<polygon fill="midnightblue" stroke="midnightblue" points="1631.25,-196.76 1636.67,-187.66 1626.76,-191.4 1631.25,-196.76"/>
</g>
<!-- Node15&#45;&gt;Node5 -->
<g id="edge16" class="edge">
<title>Node15&#45;&gt;Node5</title>
<path fill="none" stroke="midnightblue" d="M1442.61,-168.44C1422.57,-160.11 1392.02,-146.59 1367,-132 1309.4,-98.42 1246.91,-50.28 1216.6,-26.09"/>
<polygon fill="midnightblue" stroke="midnightblue" points="1218.58,-23.2 1208.59,-19.67 1214.2,-28.66 1218.58,-23.2"/>
</g>
<!-- Node15&#45;&gt;Node10 -->
<g id="edge17" class="edge">
<title>Node15&#45;&gt;Node10</title>
<path fill="none" stroke="midnightblue" d="M1461.33,-168.15C1457.54,-155.63 1450.35,-132.03 1444,-112 1434.82,-83.07 1423.81,-49.61 1417.11,-29.39"/>
<polygon fill="midnightblue" stroke="midnightblue" points="1420.35,-28.02 1413.88,-19.63 1413.7,-30.22 1420.35,-28.02"/>
</g>
<!-- Node15&#45;&gt;Node14 -->
<g id="edge18" class="edge">
<title>Node15&#45;&gt;Node14</title>
<path fill="none" stroke="midnightblue" d="M1481.91,-168.44C1500.25,-159.68 1529.01,-145.94 1550.09,-135.86"/>
<polygon fill="midnightblue" stroke="midnightblue" points="1551.67,-138.99 1559.18,-131.52 1548.65,-132.67 1551.67,-138.99"/>
</g>
<!-- Node15&#45;&gt;Node16 -->
<g id="edge19" class="edge">
<title>Node15&#45;&gt;Node16</title>
<path fill="none" stroke="midnightblue" d="M1512.01,-168.44C1565.53,-158.9 1652.07,-143.48 1709.24,-133.29"/>
<polygon fill="midnightblue" stroke="midnightblue" points="1709.98,-136.72 1719.21,-131.52 1708.75,-129.83 1709.98,-136.72"/>
</g>
<!-- Node17 -->
<g id="node17" class="node">
<title>Node17</title>
<g id="a_node17"><a xlink:title=" ">
<polygon fill="white" stroke="#bfbfbf" points="1376.5,-112.5 1376.5,-131.5 1435.5,-131.5 1435.5,-112.5 1376.5,-112.5"/>
<text text-anchor="middle" x="1406" y="-119.5" font-family="Helvetica,sans-Serif" font-size="10.00">complex</text>
</a>
</g>
</g>
<!-- Node15&#45;&gt;Node17 -->
<g id="edge20" class="edge">
<title>Node15&#45;&gt;Node17</title>
<path fill="none" stroke="midnightblue" d="M1454.68,-168.32C1446.11,-160.34 1433.19,-148.31 1422.81,-138.65"/>
<polygon fill="midnightblue" stroke="midnightblue" points="1425.19,-136.09 1415.49,-131.83 1420.42,-141.21 1425.19,-136.09"/>
</g>
<!-- Node19 -->
<g id="node19" class="node">
<title>Node19</title>
<g id="a_node19"><a xlink:href="sitkCommon_8h.html" target="_top" xlink:title=" ">
<polygon fill="white" stroke="black" points="570,-112.5 570,-131.5 658,-131.5 658,-112.5 570,-112.5"/>
<text text-anchor="middle" x="614" y="-119.5" font-family="Helvetica,sans-Serif" font-size="10.00">sitkCommon.h</text>
</a>
</g>
</g>
<!-- Node18&#45;&gt;Node19 -->
<g id="edge23" class="edge">
<title>Node18&#45;&gt;Node19</title>
<path fill="none" stroke="midnightblue" d="M1041.18,-170.86C948.19,-160.44 760.64,-139.43 668.13,-129.06"/>
<polygon fill="midnightblue" stroke="midnightblue" points="668.46,-125.58 658.13,-127.94 667.68,-132.54 668.46,-125.58"/>
</g>
<!-- Node19&#45;&gt;Node4 -->
<g id="edge24" class="edge">
<title>Node19&#45;&gt;Node4</title>
<path fill="none" stroke="midnightblue" d="M654.09,-112.44C699.13,-102.83 772.18,-87.24 819.9,-77.05"/>
<polygon fill="midnightblue" stroke="midnightblue" points="820.93,-80.41 829.98,-74.9 819.47,-73.57 820.93,-80.41"/>
</g>
<!-- Node24&#45;&gt;Node15 -->
<g id="edge34" class="edge">
<title>Node24&#45;&gt;Node15</title>
<path fill="none" stroke="midnightblue" d="M1037.29,-231.67C1125.06,-220.84 1296.21,-199.71 1392.95,-187.77"/>
<polygon fill="midnightblue" stroke="midnightblue" points="1393.44,-191.24 1402.94,-186.54 1392.58,-184.29 1393.44,-191.24"/>
</g>
<!-- Node24&#45;&gt;Node19 -->
<g id="edge33" class="edge">
<title>Node24&#45;&gt;Node19</title>
<path fill="none" stroke="midnightblue" d="M965.95,-229.92C938.03,-215.3 878.39,-185.46 825,-168 772.93,-150.97 711.47,-138.71 668.36,-131.33"/>
<polygon fill="midnightblue" stroke="midnightblue" points="668.8,-127.85 658.36,-129.65 667.64,-134.76 668.8,-127.85"/>
</g>
<!-- Node25 -->
<g id="node25" class="node">
<title>Node25</title>
<g id="a_node25"><a xlink:title=" ">
<polygon fill="white" stroke="#bfbfbf" points="903,-168.5 903,-187.5 947,-187.5 947,-168.5 903,-168.5"/>
<text text-anchor="middle" x="925" y="-175.5" font-family="Helvetica,sans-Serif" font-size="10.00">string</text>
</a>
</g>
</g>
<!-- Node24&#45;&gt;Node25 -->
<g id="edge35" class="edge">
<title>Node24&#45;&gt;Node25</title>
<path fill="none" stroke="midnightblue" d="M973.83,-229.98C965.11,-220.87 951.1,-206.24 940.31,-194.98"/>
<polygon fill="midnightblue" stroke="midnightblue" points="942.6,-192.31 933.15,-187.51 937.54,-197.15 942.6,-192.31"/>
</g>
<!-- Node26 -->
<g id="node26" class="node">
<title>Node26</title>
<g id="a_node26"><a xlink:title=" ">
<polygon fill="white" stroke="#bfbfbf" points="441.5,-168.5 441.5,-187.5 498.5,-187.5 498.5,-168.5 441.5,-168.5"/>
<text text-anchor="middle" x="470" y="-175.5" font-family="Helvetica,sans-Serif" font-size="10.00">ostream</text>
</a>
</g>
</g>
<!-- Node24&#45;&gt;Node26 -->
<g id="edge36" class="edge">
<title>Node24&#45;&gt;Node26</title>
<path fill="none" stroke="midnightblue" d="M947.4,-229.98C937.62,-227.79 926.93,-225.6 917,-224 767.16,-199.83 586.83,-186.4 508.95,-181.35"/>
<polygon fill="midnightblue" stroke="midnightblue" points="508.86,-177.84 498.65,-180.7 508.41,-184.83 508.86,-177.84"/>
</g>
<!-- Node28&#45;&gt;Node4 -->
<g id="edge39" class="edge">
<title>Node28&#45;&gt;Node4</title>
<path fill="none" stroke="midnightblue" d="M232.5,-459.48C152.62,-443.79 0,-407.36 0,-358 0,-358 0,-358 0,-177 0,-93.65 638.76,-72.34 819.73,-67.98"/>
<polygon fill="midnightblue" stroke="midnightblue" points="819.83,-71.48 829.75,-67.74 819.67,-64.48 819.83,-71.48"/>
</g>
<!-- Node29 -->
<g id="node29" class="node">
<title>Node29</title>
<g id="a_node29"><a xlink:href="sitkInterpolator_8h.html" target="_top" xlink:title=" ">
<polygon fill="white" stroke="black" points="389,-291.5 389,-310.5 489,-310.5 489,-291.5 389,-291.5"/>
<text text-anchor="middle" x="439" y="-298.5" font-family="Helvetica,sans-Serif" font-size="10.00">sitkInterpolator.h</text>
</a>
</g>
</g>
<!-- Node28&#45;&gt;Node29 -->
<g id="edge40" class="edge">
<title>Node28&#45;&gt;Node29</title>
<path fill="none" stroke="midnightblue" d="M296.49,-459.45C311.24,-451.31 332.95,-438.09 349,-423 383.18,-390.86 413.61,-344.42 428.79,-319.45"/>
<polygon fill="midnightblue" stroke="midnightblue" points="431.88,-321.11 434,-310.73 425.87,-317.52 431.88,-321.11"/>
</g>
<!-- Node30 -->
<g id="node30" class="node">
<title>Node30</title>
<g id="a_node30"><a xlink:href="sitkRandomSeed_8h.html" target="_top" xlink:title=" ">
<polygon fill="white" stroke="black" points="28,-347.5 28,-366.5 136,-366.5 136,-347.5 28,-347.5"/>
<text text-anchor="middle" x="82" y="-354.5" font-family="Helvetica,sans-Serif" font-size="10.00">sitkRandomSeed.h</text>
</a>
</g>
</g>
<!-- Node28&#45;&gt;Node30 -->
<g id="edge43" class="edge">
<title>Node28&#45;&gt;Node30</title>
<path fill="none" stroke="midnightblue" d="M241.98,-459.46C215,-452.33 178.64,-440.48 150,-423 128.56,-409.91 108.34,-389.09 95.61,-374.55"/>
<polygon fill="midnightblue" stroke="midnightblue" points="98.17,-372.16 89.02,-366.82 92.84,-376.7 98.17,-372.16"/>
</g>
<!-- Node31 -->
<g id="node31" class="node">
<title>Node31</title>
<g id="a_node31"><a xlink:href="sitkKernel_8h.html" target="_top" xlink:title=" ">
<polygon fill="white" stroke="black" points="291,-230 291,-249 365,-249 365,-230 291,-230"/>
<text text-anchor="middle" x="328" y="-237" font-family="Helvetica,sans-Serif" font-size="10.00">sitkKernel.h</text>
</a>
</g>
</g>
<!-- Node28&#45;&gt;Node31 -->
<g id="edge45" class="edge">
<title>Node28&#45;&gt;Node31</title>
<path fill="none" stroke="midnightblue" d="M241.7,-459.43C209.97,-450.11 171.77,-432.45 183,-403 208.1,-337.16 273.49,-281.07 307.21,-255.42"/>
<polygon fill="midnightblue" stroke="midnightblue" points="309.52,-258.07 315.44,-249.29 305.33,-252.46 309.52,-258.07"/>
</g>
<!-- Node32 -->
<g id="node32" class="node">
<title>Node32</title>
<g id="a_node32"><a xlink:href="sitkTransform_8h.html" target="_top" xlink:title=" ">
<polygon fill="white" stroke="black" points="192,-403.5 192,-422.5 284,-422.5 284,-403.5 192,-403.5"/>
<text text-anchor="middle" x="238" y="-410.5" font-family="Helvetica,sans-Serif" font-size="10.00">sitkTransform.h</text>
</a>
</g>
</g>
<!-- Node28&#45;&gt;Node32 -->
<g id="edge48" class="edge">
<title>Node28&#45;&gt;Node32</title>
<path fill="none" stroke="midnightblue" d="M273.06,-459.08C267.07,-451.38 258.25,-440.03 250.95,-430.65"/>
<polygon fill="midnightblue" stroke="midnightblue" points="253.71,-428.5 244.81,-422.75 248.18,-432.79 253.71,-428.5"/>
</g>
<!-- Node40 -->
<g id="node40" class="node">
<title>Node40</title>
<g id="a_node40"><a xlink:title=" ">
<polygon fill="white" stroke="#bfbfbf" points="302,-403.5 302,-422.5 340,-422.5 340,-403.5 302,-403.5"/>
<text text-anchor="middle" x="321" y="-410.5" font-family="Helvetica,sans-Serif" font-size="10.00">map</text>
</a>
</g>
</g>
<!-- Node28&#45;&gt;Node40 -->
<g id="edge72" class="edge">
<title>Node28&#45;&gt;Node40</title>
<path fill="none" stroke="midnightblue" d="M286.77,-459.08C292.56,-451.46 301.06,-440.26 308.14,-430.94"/>
<polygon fill="midnightblue" stroke="midnightblue" points="311.1,-432.83 314.36,-422.75 305.52,-428.6 311.1,-432.83"/>
</g>
<!-- Node29&#45;&gt;Node19 -->
<g id="edge41" class="edge">
<title>Node29&#45;&gt;Node19</title>
<path fill="none" stroke="midnightblue" d="M447.44,-291.46C474.86,-263.73 561.75,-175.85 597.94,-139.24"/>
<polygon fill="midnightblue" stroke="midnightblue" points="600.69,-141.44 605.23,-131.87 595.71,-136.52 600.69,-141.44"/>
</g>
<!-- Node29&#45;&gt;Node26 -->
<g id="edge42" class="edge">
<title>Node29&#45;&gt;Node26</title>
<path fill="none" stroke="midnightblue" d="M444.88,-291.49C450.58,-282.76 458.94,-268.57 463,-255 468.63,-236.19 470.09,-213.68 470.32,-198.07"/>
<polygon fill="midnightblue" stroke="midnightblue" points="473.82,-197.64 470.3,-187.64 466.82,-197.65 473.82,-197.64"/>
</g>
<!-- Node30&#45;&gt;Node19 -->
<g id="edge44" class="edge">
<title>Node30&#45;&gt;Node19</title>
<path fill="none" stroke="midnightblue" d="M79.88,-347.27C73.15,-317.21 55.62,-217.18 107,-168 139.21,-137.17 435.76,-126.98 559.82,-124.05"/>
<polygon fill="midnightblue" stroke="midnightblue" points="559.95,-127.55 569.87,-123.82 559.79,-120.55 559.95,-127.55"/>
</g>
<!-- Node31&#45;&gt;Node19 -->
<g id="edge46" class="edge">
<title>Node31&#45;&gt;Node19</title>
<path fill="none" stroke="midnightblue" d="M336.55,-229.62C351.57,-214.56 384.32,-184.07 418,-168 463.17,-146.45 519.21,-134.93 559.79,-128.95"/>
<polygon fill="midnightblue" stroke="midnightblue" points="560.34,-132.41 569.75,-127.55 559.36,-125.48 560.34,-132.41"/>
</g>
<!-- Node31&#45;&gt;Node26 -->
<g id="edge47" class="edge">
<title>Node31&#45;&gt;Node26</title>
<path fill="none" stroke="midnightblue" d="M348.35,-229.98C372.39,-219.9 412.6,-203.05 440.16,-191.5"/>
<polygon fill="midnightblue" stroke="midnightblue" points="441.82,-194.6 449.69,-187.51 439.12,-188.15 441.82,-194.6"/>
</g>
<!-- Node32&#45;&gt;Node19 -->
<g id="edge49" class="edge">
<title>Node32&#45;&gt;Node19</title>
<path fill="none" stroke="midnightblue" d="M226.68,-403.2C192.13,-375.29 93.23,-286.92 140,-224 189.65,-157.21 445.61,-133.33 559.38,-125.93"/>
<polygon fill="midnightblue" stroke="midnightblue" points="559.85,-129.41 569.61,-125.28 559.41,-122.42 559.85,-129.41"/>
</g>
<!-- Node33 -->
<g id="node33" class="node">
<title>Node33</title>
<g id="a_node33"><a xlink:href="sitkExceptionObject_8h.html" target="_top" xlink:title=" ">
<polygon fill="white" stroke="black" points="149.5,-230 149.5,-249 272.5,-249 272.5,-230 149.5,-230"/>
<text text-anchor="middle" x="211" y="-237" font-family="Helvetica,sans-Serif" font-size="10.00">sitkExceptionObject.h</text>
</a>
</g>
</g>
<!-- Node32&#45;&gt;Node33 -->
<g id="edge50" class="edge">
<title>Node32&#45;&gt;Node33</title>
<path fill="none" stroke="midnightblue" d="M236.62,-403.26C232.43,-376.65 219.77,-296.21 213.97,-259.34"/>
<polygon fill="midnightblue" stroke="midnightblue" points="217.35,-258.35 212.34,-249.02 210.44,-259.44 217.35,-258.35"/>
</g>
<!-- Node34 -->
<g id="node34" class="node">
<title>Node34</title>
<g id="a_node34"><a xlink:href="sitkImage_8h.html" target="_top" xlink:title=" ">
<polygon fill="white" stroke="black" points="768,-347.5 768,-366.5 842,-366.5 842,-347.5 768,-347.5"/>
<text text-anchor="middle" x="805" y="-354.5" font-family="Helvetica,sans-Serif" font-size="10.00">sitkImage.h</text>
</a>
</g>
</g>
<!-- Node32&#45;&gt;Node34 -->
<g id="edge53" class="edge">
<title>Node32&#45;&gt;Node34</title>
<path fill="none" stroke="midnightblue" d="M284.18,-404.19C287.16,-403.76 290.12,-403.36 293,-403 463.54,-381.58 667.31,-366.92 757.75,-360.97"/>
<polygon fill="midnightblue" stroke="midnightblue" points="758.2,-364.45 767.96,-360.31 757.75,-357.46 758.2,-364.45"/>
</g>
<!-- Node36 -->
<g id="node36" class="node">
<title>Node36</title>
<g id="a_node36"><a xlink:title=" ">
<polygon fill="white" stroke="#bfbfbf" points="549.5,-230 549.5,-249 596.5,-249 596.5,-230 549.5,-230"/>
<text text-anchor="middle" x="573" y="-237" font-family="Helvetica,sans-Serif" font-size="10.00">vector</text>
</a>
</g>
</g>
<!-- Node32&#45;&gt;Node36 -->
<g id="edge71" class="edge">
<title>Node32&#45;&gt;Node36</title>
<path fill="none" stroke="midnightblue" d="M271.5,-403.46C322.94,-389.39 423.24,-358.13 498,-311 521.72,-296.04 544.55,-272.93 558.66,-257.28"/>
<polygon fill="midnightblue" stroke="midnightblue" points="561.57,-259.27 565.55,-249.45 556.31,-254.65 561.57,-259.27"/>
</g>
<!-- Node33&#45;&gt;Node4 -->
<g id="edge51" class="edge">
<title>Node33&#45;&gt;Node4</title>
<path fill="none" stroke="midnightblue" d="M222.42,-229.78C242.36,-214.96 285.31,-184.82 326,-168 498.74,-96.6 723.38,-75.35 819.74,-69.29"/>
<polygon fill="midnightblue" stroke="midnightblue" points="819.98,-72.78 829.75,-68.69 819.56,-65.79 819.98,-72.78"/>
</g>
<!-- Node33&#45;&gt;Node19 -->
<g id="edge52" class="edge">
<title>Node33&#45;&gt;Node19</title>
<path fill="none" stroke="midnightblue" d="M228.55,-229.89C259.06,-215.23 324.17,-185.34 382,-168 441.68,-150.11 512.19,-137.61 559.69,-130.4"/>
<polygon fill="midnightblue" stroke="midnightblue" points="560.38,-133.83 569.75,-128.9 559.35,-126.91 560.38,-133.83"/>
</g>
<!-- Node34&#45;&gt;Node2 -->
<g id="edge69" class="edge">
<title>Node34&#45;&gt;Node2</title>
<path fill="none" stroke="midnightblue" d="M768.4,-347.44C726,-337.53 656.43,-321.27 613.02,-311.12"/>
<polygon fill="midnightblue" stroke="midnightblue" points="613.65,-307.67 603.12,-308.81 612.06,-314.49 613.65,-307.67"/>
</g>
<!-- Node34&#45;&gt;Node12 -->
<g id="edge62" class="edge">
<title>Node34&#45;&gt;Node12</title>
<path fill="none" stroke="midnightblue" d="M842.05,-351.44C921.79,-341.63 1109.52,-318.54 1197.26,-307.75"/>
<polygon fill="midnightblue" stroke="midnightblue" points="1197.71,-311.22 1207.2,-306.53 1196.85,-304.27 1197.71,-311.22"/>
</g>
<!-- Node34&#45;&gt;Node19 -->
<g id="edge54" class="edge">
<title>Node34&#45;&gt;Node19</title>
<path fill="none" stroke="midnightblue" d="M806.54,-347.22C808.39,-334.37 810.41,-309.92 803,-291 776.57,-223.53 752.41,-213.47 696,-168 679.93,-155.05 659.62,-143.87 643.22,-135.89"/>
<polygon fill="midnightblue" stroke="midnightblue" points="644.63,-132.68 634.09,-131.58 641.64,-139.01 644.63,-132.68"/>
</g>
<!-- Node34&#45;&gt;Node29 -->
<g id="edge67" class="edge">
<title>Node34&#45;&gt;Node29</title>
<path fill="none" stroke="midnightblue" d="M767.89,-350.53C704.67,-341.2 575.53,-322.14 499.23,-310.89"/>
<polygon fill="midnightblue" stroke="midnightblue" points="499.68,-307.42 489.28,-309.42 498.66,-314.34 499.68,-307.42"/>
</g>
<!-- Node35 -->
<g id="node35" class="node">
<title>Node35</title>
<g id="a_node35"><a xlink:href="sitkTemplateFunctions_8h.html" target="_top" xlink:title=" ">
<polygon fill="white" stroke="black" points="659.5,-291.5 659.5,-310.5 794.5,-310.5 794.5,-291.5 659.5,-291.5"/>
<text text-anchor="middle" x="727" y="-298.5" font-family="Helvetica,sans-Serif" font-size="10.00">sitkTemplateFunctions.h</text>
</a>
</g>
</g>
<!-- Node34&#45;&gt;Node35 -->
<g id="edge55" class="edge">
<title>Node34&#45;&gt;Node35</title>
<path fill="none" stroke="midnightblue" d="M792.47,-347.32C780.41,-338.98 761.97,-326.21 747.73,-316.35"/>
<polygon fill="midnightblue" stroke="midnightblue" points="749.72,-313.47 739.5,-310.65 745.73,-319.22 749.72,-313.47"/>
</g>
<!-- Node34&#45;&gt;Node36 -->
<g id="edge68" class="edge">
<title>Node34&#45;&gt;Node36</title>
<path fill="none" stroke="midnightblue" d="M767.75,-350.15C735.13,-343.9 687.25,-331.93 650,-311 624.94,-296.92 601.37,-273.22 587.07,-257.23"/>
<polygon fill="midnightblue" stroke="midnightblue" points="589.33,-254.49 580.12,-249.25 584.05,-259.09 589.33,-254.49"/>
</g>
<!-- Node38 -->
<g id="node38" class="node">
<title>Node38</title>
<g id="a_node38"><a xlink:href="sitkPixelIDTokens_8h.html" target="_top" xlink:title=" ">
<polygon fill="white" stroke="black" points="889,-291.5 889,-310.5 999,-310.5 999,-291.5 889,-291.5"/>
<text text-anchor="middle" x="944" y="-298.5" font-family="Helvetica,sans-Serif" font-size="10.00">sitkPixelIDTokens.h</text>
</a>
</g>
</g>
<!-- Node34&#45;&gt;Node38 -->
<g id="edge63" class="edge">
<title>Node34&#45;&gt;Node38</title>
<path fill="none" stroke="midnightblue" d="M827.02,-347.44C850.1,-338.48 886.56,-324.31 912.64,-314.18"/>
<polygon fill="midnightblue" stroke="midnightblue" points="914.02,-317.4 922.08,-310.52 911.49,-310.88 914.02,-317.4"/>
</g>
<!-- Node39 -->
<g id="node39" class="node">
<title>Node39</title>
<g id="a_node39"><a xlink:title=" ">
<polygon fill="white" stroke="#bfbfbf" points="839.5,-230 839.5,-249 908.5,-249 908.5,-230 839.5,-230"/>
<text text-anchor="middle" x="874" y="-237" font-family="Helvetica,sans-Serif" font-size="10.00">type_traits</text>
</a>
</g>
</g>
<!-- Node34&#45;&gt;Node39 -->
<g id="edge70" class="edge">
<title>Node34&#45;&gt;Node39</title>
<path fill="none" stroke="midnightblue" d="M811.74,-347.28C818.48,-338.38 828.97,-324.07 837,-311 847.59,-293.75 858.18,-273.16 865.29,-258.7"/>
<polygon fill="midnightblue" stroke="midnightblue" points="868.59,-259.92 869.81,-249.39 862.3,-256.86 868.59,-259.92"/>
</g>
<!-- Node35&#45;&gt;Node4 -->
<g id="edge56" class="edge">
<title>Node35&#45;&gt;Node4</title>
<path fill="none" stroke="midnightblue" d="M732.15,-291.43C752.6,-257.4 828.32,-131.37 856.42,-84.61"/>
<polygon fill="midnightblue" stroke="midnightblue" points="859.5,-86.27 861.65,-75.9 853.5,-82.66 859.5,-86.27"/>
</g>
<!-- Node35&#45;&gt;Node19 -->
<g id="edge57" class="edge">
<title>Node35&#45;&gt;Node19</title>
<path fill="none" stroke="midnightblue" d="M727.32,-291.5C727.53,-276.88 726.4,-246.38 715,-224 696.14,-186.97 658.69,-155.14 635.07,-137.57"/>
<polygon fill="midnightblue" stroke="midnightblue" points="636.92,-134.58 626.76,-131.55 632.81,-140.25 636.92,-134.58"/>
</g>
<!-- Node35&#45;&gt;Node26 -->
<g id="edge60" class="edge">
<title>Node35&#45;&gt;Node26</title>
<path fill="none" stroke="midnightblue" d="M708.99,-291.38C691.82,-282.9 665.47,-269.19 644,-255 625.53,-242.79 624.47,-234.55 605,-224 574.24,-207.33 536.2,-195.33 508.35,-187.94"/>
<polygon fill="midnightblue" stroke="midnightblue" points="509.14,-184.53 498.58,-185.42 507.39,-191.31 509.14,-184.53"/>
</g>
<!-- Node35&#45;&gt;Node33 -->
<g id="edge58" class="edge">
<title>Node35&#45;&gt;Node33</title>
<path fill="none" stroke="midnightblue" d="M659.25,-293.99C553.24,-284.45 352.91,-265.8 282,-255 274.56,-253.87 266.73,-252.47 259.08,-251"/>
<polygon fill="midnightblue" stroke="midnightblue" points="259.69,-247.55 249.2,-249.04 258.32,-254.42 259.69,-247.55"/>
</g>
<!-- Node35&#45;&gt;Node36 -->
<g id="edge59" class="edge">
<title>Node35&#45;&gt;Node36</title>
<path fill="none" stroke="midnightblue" d="M704.94,-291.48C678.63,-281.31 634.49,-264.26 604.58,-252.7"/>
<polygon fill="midnightblue" stroke="midnightblue" points="605.61,-249.35 595.02,-249.01 603.09,-255.88 605.61,-249.35"/>
</g>
<!-- Node37 -->
<g id="node37" class="node">
<title>Node37</title>
<g id="a_node37"><a xlink:title=" ">
<polygon fill="white" stroke="#bfbfbf" points="653.5,-230 653.5,-249 706.5,-249 706.5,-230 653.5,-230"/>
<text text-anchor="middle" x="680" y="-237" font-family="Helvetica,sans-Serif" font-size="10.00">iterator</text>
</a>
</g>
</g>
<!-- Node35&#45;&gt;Node37 -->
<g id="edge61" class="edge">
<title>Node35&#45;&gt;Node37</title>
<path fill="none" stroke="midnightblue" d="M720.27,-291.48C713.22,-282.55 701.97,-268.31 693.15,-257.14"/>
<polygon fill="midnightblue" stroke="midnightblue" points="695.67,-254.69 686.72,-249.01 690.17,-259.03 695.67,-254.69"/>
</g>
<!-- Node38&#45;&gt;Node10 -->
<g id="edge64" class="edge">
<title>Node38&#45;&gt;Node10</title>
<path fill="none" stroke="midnightblue" d="M990.36,-291.47C1011.07,-285.1 1033.58,-274.05 1046,-255 1067.39,-222.19 1010.24,-200.56 1032,-168 1104.91,-58.88 1269.21,-25.51 1355.57,-15.37"/>
<polygon fill="midnightblue" stroke="midnightblue" points="1356.15,-18.83 1365.7,-14.25 1355.38,-11.87 1356.15,-18.83"/>
</g>
<!-- Node38&#45;&gt;Node24 -->
<g id="edge65" class="edge">
<title>Node38&#45;&gt;Node24</title>
<path fill="none" stroke="midnightblue" d="M949.44,-291.48C955.09,-282.64 964.06,-268.59 971.16,-257.48"/>
<polygon fill="midnightblue" stroke="midnightblue" points="974.13,-259.32 976.57,-249.01 968.23,-255.55 974.13,-259.32"/>
</g>
<!-- Node38&#45;&gt;Node39 -->
<g id="edge66" class="edge">
<title>Node38&#45;&gt;Node39</title>
<path fill="none" stroke="midnightblue" d="M933.97,-291.48C922.95,-282.11 905.04,-266.88 891.66,-255.51"/>
<polygon fill="midnightblue" stroke="midnightblue" points="893.9,-252.82 884.01,-249.01 889.36,-258.15 893.9,-252.82"/>
</g>
<!-- Node41&#45;&gt;Node18 -->
<g id="edge75" class="edge">
<title>Node41&#45;&gt;Node18</title>
<path fill="none" stroke="midnightblue" d="M815.65,-464.51C894.9,-458.87 1034.21,-446 1079,-423 1114.52,-404.76 1141,-397.92 1141,-358 1141,-358 1141,-358 1141,-300 1141,-261.15 1120.37,-219.43 1107.04,-196.54"/>
<polygon fill="midnightblue" stroke="midnightblue" points="1109.86,-194.44 1101.7,-187.69 1103.87,-198.06 1109.86,-194.44"/>
</g>
<!-- Node41&#45;&gt;Node19 -->
<g id="edge74" class="edge">
<title>Node41&#45;&gt;Node19</title>
<path fill="none" stroke="midnightblue" d="M815.84,-459.48C904.33,-444.6 1065,-410.36 1065,-358 1065,-358 1065,-358 1065,-300 1065,-265.18 1066.5,-252.14 1046,-224 1018.26,-185.92 1000.36,-183.88 956,-168 858.66,-133.16 737.07,-124.85 668.21,-123.12"/>
<polygon fill="midnightblue" stroke="midnightblue" points="668.11,-119.62 658.03,-122.91 667.96,-126.62 668.11,-119.62"/>
</g>
<!-- Node41&#45;&gt;Node34 -->
<g id="edge80" class="edge">
<title>Node41&#45;&gt;Node34</title>
<path fill="none" stroke="midnightblue" d="M762.61,-459.37C770.1,-441.46 787.47,-399.92 797.49,-375.95"/>
<polygon fill="midnightblue" stroke="midnightblue" points="800.78,-377.17 801.41,-366.59 794.32,-374.47 800.78,-377.17"/>
</g>
<!-- Node41&#45;&gt;Node35 -->
<g id="edge76" class="edge">
<title>Node41&#45;&gt;Node35</title>
<path fill="none" stroke="midnightblue" d="M757.28,-459.08C752.24,-432.95 737.45,-356.21 730.58,-320.58"/>
<polygon fill="midnightblue" stroke="midnightblue" points="733.98,-319.72 728.65,-310.57 727.11,-321.05 733.98,-319.72"/>
</g>
<!-- Node42 -->
<g id="node42" class="node">
<title>Node42</title>
<g id="a_node42"><a xlink:href="sitkEvent_8h.html" target="_top" xlink:title=" ">
<polygon fill="white" stroke="black" points="383.5,-230 383.5,-249 454.5,-249 454.5,-230 383.5,-230"/>
<text text-anchor="middle" x="419" y="-237" font-family="Helvetica,sans-Serif" font-size="10.00">sitkEvent.h</text>
</a>
</g>
</g>
<!-- Node41&#45;&gt;Node42 -->
<g id="edge77" class="edge">
<title>Node41&#45;&gt;Node42</title>
<path fill="none" stroke="midnightblue" d="M702.36,-464.39C614.35,-455.29 447.84,-423.33 380,-311 368.73,-292.34 385.63,-270.27 400.58,-255.86"/>
<polygon fill="midnightblue" stroke="midnightblue" points="403.01,-258.39 408.07,-249.08 398.31,-253.21 403.01,-258.39"/>
</g>
<!-- Node43 -->
<g id="node43" class="node">
<title>Node43</title>
<g id="a_node43"><a xlink:href="sitkImageConvert_8h.html" target="_top" xlink:title=" ">
<polygon fill="white" stroke="black" points="806.5,-403.5 806.5,-422.5 919.5,-422.5 919.5,-403.5 806.5,-403.5"/>
<text text-anchor="middle" x="863" y="-410.5" font-family="Helvetica,sans-Serif" font-size="10.00">sitkImageConvert.h</text>
</a>
</g>
</g>
<!-- Node41&#45;&gt;Node43 -->
<g id="edge81" class="edge">
<title>Node41&#45;&gt;Node43</title>
<path fill="none" stroke="midnightblue" d="M775.71,-459.32C792.31,-450.7 818,-437.36 837.22,-427.39"/>
<polygon fill="midnightblue" stroke="midnightblue" points="839.07,-430.37 846.33,-422.65 835.84,-424.16 839.07,-430.37"/>
</g>
<!-- Node44 -->
<g id="node44" class="node">
<title>Node44</title>
<g id="a_node44"><a xlink:title=" ">
<polygon fill="white" stroke="#bfbfbf" points="602,-403.5 602,-422.5 662,-422.5 662,-403.5 602,-403.5"/>
<text text-anchor="middle" x="632" y="-410.5" font-family="Helvetica,sans-Serif" font-size="10.00">iostream</text>
</a>
</g>
</g>
<!-- Node41&#45;&gt;Node44 -->
<g id="edge83" class="edge">
<title>Node41&#45;&gt;Node44</title>
<path fill="none" stroke="midnightblue" d="M738.88,-459.44C717.98,-450.56 685.07,-436.56 661.28,-426.45"/>
<polygon fill="midnightblue" stroke="midnightblue" points="662.6,-423.21 652.03,-422.52 659.86,-429.65 662.6,-423.21"/>
</g>
<!-- Node45 -->
<g id="node45" class="node">
<title>Node45</title>
<g id="a_node45"><a xlink:title=" ">
<polygon fill="white" stroke="#bfbfbf" points="680,-403.5 680,-422.5 712,-422.5 712,-403.5 680,-403.5"/>
<text text-anchor="middle" x="696" y="-410.5" font-family="Helvetica,sans-Serif" font-size="10.00">list</text>
</a>
</g>
</g>
<!-- Node41&#45;&gt;Node45 -->
<g id="edge84" class="edge">
<title>Node41&#45;&gt;Node45</title>
<path fill="none" stroke="midnightblue" d="M748.88,-459.32C739.47,-451.26 725.26,-439.08 713.93,-429.37"/>
<polygon fill="midnightblue" stroke="midnightblue" points="716.18,-426.68 706.31,-422.83 711.62,-432 716.18,-426.68"/>
</g>
<!-- Node42&#45;&gt;Node19 -->
<g id="edge78" class="edge">
<title>Node42&#45;&gt;Node19</title>
<path fill="none" stroke="midnightblue" d="M417.87,-229.83C416.47,-215.07 415.96,-185.03 432,-168 449.31,-149.62 512.46,-136.99 559.55,-129.89"/>
<polygon fill="midnightblue" stroke="midnightblue" points="560.24,-133.33 569.63,-128.42 559.23,-126.4 560.24,-133.33"/>
</g>
<!-- Node42&#45;&gt;Node26 -->
<g id="edge79" class="edge">
<title>Node42&#45;&gt;Node26</title>
<path fill="none" stroke="midnightblue" d="M426.31,-229.98C434.03,-220.96 446.41,-206.52 456.02,-195.31"/>
<polygon fill="midnightblue" stroke="midnightblue" points="458.86,-197.38 462.71,-187.51 453.54,-192.82 458.86,-197.38"/>
</g>
<!-- Node43&#45;&gt;Node34 -->
<g id="edge82" class="edge">
<title>Node43&#45;&gt;Node34</title>
<path fill="none" stroke="midnightblue" d="M853.68,-403.32C845.11,-395.34 832.19,-383.31 821.81,-373.65"/>
<polygon fill="midnightblue" stroke="midnightblue" points="824.19,-371.09 814.49,-366.83 819.42,-376.21 824.19,-371.09"/>
</g>
<!-- Node46&#45;&gt;Node12 -->
<g id="edge86" class="edge">
<title>Node46&#45;&gt;Node12</title>
<path fill="none" stroke="midnightblue" d="M1497.13,-347.43C1446.76,-339.02 1367.85,-325.6 1290.71,-311.29"/>
<polygon fill="midnightblue" stroke="midnightblue" points="1291.29,-307.83 1280.82,-309.45 1290.01,-314.72 1291.29,-307.83"/>
</g>
<!-- Node46&#45;&gt;Node13 -->
<g id="edge87" class="edge">
<title>Node46&#45;&gt;Node13</title>
<path fill="none" stroke="midnightblue" d="M1618.79,-347.45C1663.34,-340.4 1715.22,-328.65 1729,-311 1753.37,-279.79 1709.18,-261.88 1662.13,-251.92"/>
<polygon fill="midnightblue" stroke="midnightblue" points="1662.56,-248.44 1652.07,-249.92 1661.19,-255.3 1662.56,-248.44"/>
</g>
<!-- Node47 -->
<g id="node47" class="node">
<title>Node47</title>
<g id="a_node47"><a xlink:title=" ">
<polygon fill="white" stroke="#bfbfbf" points="1526,-291.5 1526,-310.5 1720,-310.5 1720,-291.5 1526,-291.5"/>
<text text-anchor="middle" x="1623" y="-298.5" font-family="Helvetica,sans-Serif" font-size="10.00">sitkDualMemberFunctionFactory.hxx</text>
</a>
</g>
</g>
<!-- Node46&#45;&gt;Node47 -->
<g id="edge88" class="edge">
<title>Node46&#45;&gt;Node47</title>
<path fill="none" stroke="midnightblue" d="M1560.89,-347.32C1572.15,-339.11 1589.29,-326.6 1602.71,-316.81"/>
<polygon fill="midnightblue" stroke="midnightblue" points="1604.88,-319.56 1610.89,-310.83 1600.75,-313.9 1604.88,-319.56"/>
</g>
</g>
</svg>
