<?xml version="1.0" encoding="UTF-8" standalone="no"?>
<!DOCTYPE svg PUBLIC "-//W3C//DTD SVG 1.1//EN"
 "http://www.w3.org/Graphics/SVG/1.1/DTD/svg11.dtd">
<!-- Generated by graphviz version 2.43.0 (0)
 -->
<!-- Title: sitkMemberFunctionFactory.h Pages: 1 -->
<svg width="6877pt" height="218pt"
 viewBox="0.00 0.00 6877.05 218.00" xmlns="http://www.w3.org/2000/svg" xmlns:xlink="http://www.w3.org/1999/xlink">
<g id="graph0" class="graph" transform="scale(1 1) rotate(0) translate(4 214)">
<title>sitkMemberFunctionFactory.h</title>
<polygon fill="white" stroke="transparent" points="-4,4 -4,-214 6873.05,-214 6873.05,4 -4,4"/>
<!-- Node1 -->
<g id="node1" class="node">
<title>Node1</title>
<g id="a_node1"><a xlink:title=" ">
<polygon fill="#bfbfbf" stroke="black" points="3437.05,-190.5 3437.05,-209.5 3596.05,-209.5 3596.05,-190.5 3437.05,-190.5"/>
<text text-anchor="middle" x="3516.55" y="-197.5" font-family="Helvetica,sans-Serif" font-size="10.00">sitkMemberFunctionFactory.h</text>
</a>
</g>
</g>
<!-- Node2 -->
<g id="node2" class="node">
<title>Node2</title>
<g id="a_node2"><a xlink:href="sitkCenteredTransformInitializerFilter_8h.html" target="_top" xlink:title=" ">
<polygon fill="white" stroke="black" points="6121.05,-123.5 6121.05,-153.5 6294.05,-153.5 6294.05,-123.5 6121.05,-123.5"/>
<text text-anchor="start" x="6129.05" y="-141.5" font-family="Helvetica,sans-Serif" font-size="10.00">sitkCenteredTransformInitializer</text>
<text text-anchor="middle" x="6207.55" y="-130.5" font-family="Helvetica,sans-Serif" font-size="10.00">Filter.h</text>
</a>
</g>
</g>
<!-- Node1&#45;&gt;Node2 -->
<g id="edge1" class="edge">
<title>Node1&#45;&gt;Node2</title>
<path fill="none" stroke="midnightblue" d="M3606.28,-197.64C3910.31,-192.93 4929.5,-176.4 5771.55,-154 5892.68,-150.78 6032.71,-145.92 6120.7,-142.73"/>
<polygon fill="midnightblue" stroke="midnightblue" points="3606.14,-194.14 3596.19,-197.79 3606.25,-201.14 3606.14,-194.14"/>
</g>
<!-- Node4 -->
<g id="node4" class="node">
<title>Node4</title>
<g id="a_node4"><a xlink:href="sitkCenteredVersorTransformInitializerFilter_8h.html" target="_top" xlink:title=" ">
<polygon fill="white" stroke="black" points="6483.55,-123.5 6483.55,-153.5 6641.55,-153.5 6641.55,-123.5 6483.55,-123.5"/>
<text text-anchor="start" x="6491.55" y="-141.5" font-family="Helvetica,sans-Serif" font-size="10.00">sitkCenteredVersorTransform</text>
<text text-anchor="middle" x="6562.55" y="-130.5" font-family="Helvetica,sans-Serif" font-size="10.00">InitializerFilter.h</text>
</a>
</g>
</g>
<!-- Node1&#45;&gt;Node4 -->
<g id="edge3" class="edge">
<title>Node1&#45;&gt;Node4</title>
<path fill="none" stroke="midnightblue" d="M3606.36,-198.85C3953.75,-197.99 5242.79,-192.24 6303.55,-154 6363.97,-151.82 6432.24,-147.94 6483.52,-144.74"/>
<polygon fill="midnightblue" stroke="midnightblue" points="3606.1,-195.35 3596.11,-198.87 3606.12,-202.35 3606.1,-195.35"/>
</g>
<!-- Node5 -->
<g id="node5" class="node">
<title>Node5</title>
<g id="a_node5"><a xlink:href="sitkHashImageFilter_8h.html" target="_top" xlink:title=" ">
<polygon fill="white" stroke="black" points="6627.05,-62 6627.05,-81 6750.05,-81 6750.05,-62 6627.05,-62"/>
<text text-anchor="middle" x="6688.55" y="-69" font-family="Helvetica,sans-Serif" font-size="10.00">sitkHashImageFilter.h</text>
</a>
</g>
</g>
<!-- Node1&#45;&gt;Node5 -->
<g id="edge5" class="edge">
<title>Node1&#45;&gt;Node5</title>
<path fill="none" stroke="midnightblue" d="M3606.59,-195.75C4116.44,-177.34 6618.55,-87 6618.55,-87 6629.88,-85.63 6642.11,-83.37 6653.13,-81.04"/>
<polygon fill="midnightblue" stroke="midnightblue" points="3606.21,-192.26 3596.34,-196.12 3606.46,-199.26 3606.21,-192.26"/>
</g>
<!-- Node6 -->
<g id="node6" class="node">
<title>Node6</title>
<g id="a_node6"><a xlink:href="sitkImageFileReader_8h.html" target="_top" xlink:title=" ">
<polygon fill="white" stroke="black" points="6744.05,-129 6744.05,-148 6869.05,-148 6869.05,-129 6744.05,-129"/>
<text text-anchor="middle" x="6806.55" y="-136" font-family="Helvetica,sans-Serif" font-size="10.00">sitkImageFileReader.h</text>
</a>
</g>
</g>
<!-- Node1&#45;&gt;Node6 -->
<g id="edge7" class="edge">
<title>Node1&#45;&gt;Node6</title>
<path fill="none" stroke="midnightblue" d="M3606.38,-198.66C4052.72,-196.84 6034.76,-186.99 6650.55,-154 6681.37,-152.35 6715.53,-149.31 6744.01,-146.44"/>
<polygon fill="midnightblue" stroke="midnightblue" points="3606.11,-195.16 3596.13,-198.7 3606.14,-202.16 3606.11,-195.16"/>
</g>
<!-- Node7 -->
<g id="node7" class="node">
<title>Node7</title>
<g id="a_node7"><a xlink:href="sitkImageFileWriter_8h.html" target="_top" xlink:title=" ">
<polygon fill="white" stroke="black" points="104.05,-129 104.05,-148 225.05,-148 225.05,-129 104.05,-129"/>
<text text-anchor="middle" x="164.55" y="-136" font-family="Helvetica,sans-Serif" font-size="10.00">sitkImageFileWriter.h</text>
</a>
</g>
</g>
<!-- Node1&#45;&gt;Node7 -->
<g id="edge9" class="edge">
<title>Node1&#45;&gt;Node7</title>
<path fill="none" stroke="midnightblue" d="M3426.88,-197.41C2940.95,-188.78 630.23,-147.77 225.21,-140.58"/>
<polygon fill="midnightblue" stroke="midnightblue" points="3426.93,-200.91 3436.99,-197.59 3427.06,-193.91 3426.93,-200.91"/>
</g>
<!-- Node8 -->
<g id="node8" class="node">
<title>Node8</title>
<g id="a_node8"><a xlink:href="sitkImageFilter_8h.html" target="_top" xlink:title=" ">
<polygon fill="white" stroke="red" points="3429.55,-129 3429.55,-148 3527.55,-148 3527.55,-129 3429.55,-129"/>
<text text-anchor="middle" x="3478.55" y="-136" font-family="Helvetica,sans-Serif" font-size="10.00">sitkImageFilter.h</text>
</a>
</g>
</g>
<!-- Node1&#45;&gt;Node8 -->
<g id="edge11" class="edge">
<title>Node1&#45;&gt;Node8</title>
<path fill="none" stroke="midnightblue" d="M3505.69,-182.01C3498.59,-170.89 3489.62,-156.84 3483.98,-148.01"/>
<polygon fill="midnightblue" stroke="midnightblue" points="3502.77,-183.93 3511.1,-190.48 3508.67,-180.16 3502.77,-183.93"/>
</g>
<!-- Node308 -->
<g id="node47" class="node">
<title>Node308</title>
<g id="a_node47"><a xlink:href="sitkImageRegistrationMethod_8h.html" target="_top" xlink:title=" ">
<polygon fill="white" stroke="black" points="1678.55,-129 1678.55,-148 1848.55,-148 1848.55,-129 1678.55,-129"/>
<text text-anchor="middle" x="1763.55" y="-136" font-family="Helvetica,sans-Serif" font-size="10.00">sitkImageRegistrationMethod.h</text>
</a>
</g>
</g>
<!-- Node1&#45;&gt;Node308 -->
<g id="edge53" class="edge">
<title>Node1&#45;&gt;Node308</title>
<path fill="none" stroke="midnightblue" d="M3426.92,-195.96C3124.55,-185.69 2144.49,-152.43 1848.79,-142.39"/>
<polygon fill="midnightblue" stroke="midnightblue" points="3426.84,-199.46 3436.96,-196.3 3427.08,-192.46 3426.84,-199.46"/>
</g>
<!-- Node309 -->
<g id="node48" class="node">
<title>Node309</title>
<g id="a_node48"><a xlink:href="sitkImageSeriesReader_8h.html" target="_top" xlink:title=" ">
<polygon fill="white" stroke="black" points="2583.55,-129 2583.55,-148 2721.55,-148 2721.55,-129 2583.55,-129"/>
<text text-anchor="middle" x="2652.55" y="-136" font-family="Helvetica,sans-Serif" font-size="10.00">sitkImageSeriesReader.h</text>
</a>
</g>
</g>
<!-- Node1&#45;&gt;Node309 -->
<g id="edge55" class="edge">
<title>Node1&#45;&gt;Node309</title>
<path fill="none" stroke="midnightblue" d="M3426.71,-192.81C3253.58,-180.89 2877.11,-154.97 2721.75,-144.27"/>
<polygon fill="midnightblue" stroke="midnightblue" points="3426.6,-196.31 3436.81,-193.51 3427.08,-189.33 3426.6,-196.31"/>
</g>
<!-- Node310 -->
<g id="node49" class="node">
<title>Node310</title>
<g id="a_node49"><a xlink:href="sitkImageSeriesWriter_8h.html" target="_top" xlink:title=" ">
<polygon fill="white" stroke="black" points="3098.55,-129 3098.55,-148 3232.55,-148 3232.55,-129 3098.55,-129"/>
<text text-anchor="middle" x="3165.55" y="-136" font-family="Helvetica,sans-Serif" font-size="10.00">sitkImageSeriesWriter.h</text>
</a>
</g>
</g>
<!-- Node1&#45;&gt;Node310 -->
<g id="edge57" class="edge">
<title>Node1&#45;&gt;Node310</title>
<path fill="none" stroke="midnightblue" d="M3456.13,-188.76C3388.22,-177.25 3279.17,-158.76 3215.74,-148.01"/>
<polygon fill="midnightblue" stroke="midnightblue" points="3455.81,-192.25 3466.26,-190.48 3456.98,-185.35 3455.81,-192.25"/>
</g>
<!-- Node311 -->
<g id="node50" class="node">
<title>Node311</title>
<g id="a_node50"><a xlink:href="sitkImportImageFilter_8h.html" target="_top" xlink:title=" ">
<polygon fill="white" stroke="black" points="5631.05,-129 5631.05,-148 5762.05,-148 5762.05,-129 5631.05,-129"/>
<text text-anchor="middle" x="5696.55" y="-136" font-family="Helvetica,sans-Serif" font-size="10.00">sitkImportImageFilter.h</text>
</a>
</g>
</g>
<!-- Node1&#45;&gt;Node311 -->
<g id="edge59" class="edge">
<title>Node1&#45;&gt;Node311</title>
<path fill="none" stroke="midnightblue" d="M3606.23,-196.55C3968.22,-186.67 5317.23,-149.85 5631.03,-141.29"/>
<polygon fill="midnightblue" stroke="midnightblue" points="3605.97,-193.06 3596.07,-196.83 3606.16,-200.06 3605.97,-193.06"/>
</g>
<!-- Node3 -->
<g id="node3" class="node">
<title>Node3</title>
<g id="a_node3"><a xlink:href="SimpleITK_8h.html" target="_top" xlink:title=" ">
<polygon fill="white" stroke="black" points="283.05,-0.5 283.05,-19.5 358.05,-19.5 358.05,-0.5 283.05,-0.5"/>
<text text-anchor="middle" x="320.55" y="-7.5" font-family="Helvetica,sans-Serif" font-size="10.00">SimpleITK.h</text>
</a>
</g>
</g>
<!-- Node2&#45;&gt;Node3 -->
<g id="edge2" class="edge">
<title>Node2&#45;&gt;Node3</title>
<path fill="none" stroke="midnightblue" d="M6304.57,-132.27C6462.89,-123.27 6760.85,-104.15 6776.55,-87 6785.85,-76.84 6786.25,-65.78 6776.55,-56 6746.37,-25.62 884.84,-12.22 358.28,-11.08"/>
<polygon fill="midnightblue" stroke="midnightblue" points="6304.14,-128.79 6294.35,-132.85 6304.53,-135.78 6304.14,-128.79"/>
</g>
<!-- Node4&#45;&gt;Node3 -->
<g id="edge4" class="edge">
<title>Node4&#45;&gt;Node3</title>
<path fill="none" stroke="midnightblue" d="M6651.75,-132.47C6735.86,-124.69 6842.28,-105.08 6793.55,-56 6763.29,-25.54 886.32,-12.22 358.38,-11.08"/>
<polygon fill="midnightblue" stroke="midnightblue" points="6651.27,-129 6641.62,-133.36 6651.89,-135.97 6651.27,-129"/>
</g>
<!-- Node5&#45;&gt;Node3 -->
<g id="edge6" class="edge">
<title>Node5&#45;&gt;Node3</title>
<path fill="none" stroke="midnightblue" d="M6644.42,-59.99C6635.88,-58.34 6626.97,-56.89 6618.55,-56 6286.83,-20.81 863.28,-11.82 358.19,-11.05"/>
<polygon fill="midnightblue" stroke="midnightblue" points="6643.73,-63.42 6654.22,-61.98 6645.12,-56.56 6643.73,-63.42"/>
</g>
<!-- Node6&#45;&gt;Node3 -->
<g id="edge8" class="edge">
<title>Node6&#45;&gt;Node3</title>
<path fill="none" stroke="midnightblue" d="M6815.11,-119.53C6822.57,-100.95 6829.85,-72.42 6813.55,-56 6783.19,-25.43 885.06,-12.2 358.09,-11.08"/>
<polygon fill="midnightblue" stroke="midnightblue" points="6811.81,-118.35 6811,-128.91 6818.22,-121.16 6811.81,-118.35"/>
</g>
<!-- Node7&#45;&gt;Node3 -->
<g id="edge10" class="edge">
<title>Node7&#45;&gt;Node3</title>
<path fill="none" stroke="midnightblue" d="M100.08,-126.97C44.18,-115.12 -23.16,-92.61 8.55,-56 43.66,-15.46 207.89,-10.62 282.95,-10.58"/>
<polygon fill="midnightblue" stroke="midnightblue" points="99.51,-130.42 110,-128.99 100.9,-123.56 99.51,-130.42"/>
</g>
<!-- Node8&#45;&gt;Node3 -->
<g id="edge12" class="edge">
<title>Node8&#45;&gt;Node3</title>
<path fill="none" stroke="midnightblue" d="M3418.91,-133.05C3371.01,-129.66 3301.99,-125.22 3241.55,-123 3201.26,-121.52 371.16,-112 339.55,-87 319.06,-70.8 318.62,-36.15 319.67,-19.84"/>
<polygon fill="midnightblue" stroke="midnightblue" points="3418.88,-136.55 3429.1,-133.77 3419.38,-129.57 3418.88,-136.55"/>
</g>
<!-- Node8&#45;&gt;Node5 -->
<g id="edge52" class="edge">
<title>Node8&#45;&gt;Node5</title>
<path fill="none" stroke="midnightblue" d="M3537.71,-136.87C3956.35,-132.33 6459.68,-104.57 6618.55,-87 6630.14,-85.72 6642.66,-83.42 6653.86,-81.03"/>
<polygon fill="midnightblue" stroke="midnightblue" points="3537.6,-133.37 3527.64,-136.97 3537.68,-140.37 3537.6,-133.37"/>
</g>
<!-- Node9 -->
<g id="node9" class="node">
<title>Node9</title>
<g id="a_node9"><a xlink:href="sitkAbsImageFilter_8h.html" target="_top" xlink:title=" ">
<polygon fill="white" stroke="red" points="5351.55,-62 5351.55,-81 5467.55,-81 5467.55,-62 5351.55,-62"/>
<text text-anchor="middle" x="5409.55" y="-69" font-family="Helvetica,sans-Serif" font-size="10.00">sitkAbsImageFilter.h</text>
</a>
</g>
</g>
<!-- Node8&#45;&gt;Node9 -->
<g id="edge13" class="edge">
<title>Node8&#45;&gt;Node9</title>
<path fill="none" stroke="midnightblue" d="M3538.09,-137.38C3815.27,-136.58 4981,-130.63 5342.55,-87 5353.53,-85.67 5365.38,-83.4 5376.01,-81.04"/>
<polygon fill="midnightblue" stroke="midnightblue" points="3537.83,-133.88 3527.84,-137.41 3537.85,-140.88 3537.83,-133.88"/>
</g>
<!-- Node12 -->
<g id="node10" class="node">
<title>Node12</title>
<g id="a_node10"><a xlink:href="sitkAbsoluteValueDifferenceImageFilter_8h.html" target="_top" xlink:title=" ">
<polygon fill="white" stroke="red" points="5486.05,-56.5 5486.05,-86.5 5641.05,-86.5 5641.05,-56.5 5486.05,-56.5"/>
<text text-anchor="start" x="5494.05" y="-74.5" font-family="Helvetica,sans-Serif" font-size="10.00">sitkAbsoluteValueDifference</text>
<text text-anchor="middle" x="5563.55" y="-63.5" font-family="Helvetica,sans-Serif" font-size="10.00">ImageFilter.h</text>
</a>
</g>
</g>
<!-- Node8&#45;&gt;Node12 -->
<g id="edge14" class="edge">
<title>Node8&#45;&gt;Node12</title>
<path fill="none" stroke="midnightblue" d="M3538.04,-137.12C3827.01,-135.1 5086.09,-124.29 5476.55,-87 5479.59,-86.71 5482.7,-86.37 5485.83,-86.01"/>
<polygon fill="midnightblue" stroke="midnightblue" points="3537.75,-133.62 3527.77,-137.19 3537.8,-140.62 3537.75,-133.62"/>
</g>
<!-- Node13 -->
<g id="node11" class="node">
<title>Node13</title>
<g id="a_node11"><a xlink:href="sitkAcosImageFilter_8h.html" target="_top" xlink:title=" ">
<polygon fill="white" stroke="red" points="5659.55,-62 5659.55,-81 5781.55,-81 5781.55,-62 5659.55,-62"/>
<text text-anchor="middle" x="5720.55" y="-69" font-family="Helvetica,sans-Serif" font-size="10.00">sitkAcosImageFilter.h</text>
</a>
</g>
</g>
<!-- Node8&#45;&gt;Node13 -->
<g id="edge15" class="edge">
<title>Node8&#45;&gt;Node13</title>
<path fill="none" stroke="midnightblue" d="M3538.18,-136.76C3865.41,-132.6 5435.88,-111.52 5650.55,-87 5662.01,-85.69 5674.39,-83.42 5685.5,-81.06"/>
<polygon fill="midnightblue" stroke="midnightblue" points="3537.92,-133.26 3527.97,-136.89 3538.01,-140.26 3537.92,-133.26"/>
</g>
<!-- Node14 -->
<g id="node12" class="node">
<title>Node14</title>
<g id="a_node12"><a xlink:href="sitkAdaptiveHistogramEqualizationImageFilter_8h.html" target="_top" xlink:title=" ">
<polygon fill="white" stroke="red" points="5800.05,-56.5 5800.05,-86.5 5989.05,-86.5 5989.05,-56.5 5800.05,-56.5"/>
<text text-anchor="start" x="5808.05" y="-74.5" font-family="Helvetica,sans-Serif" font-size="10.00">sitkAdaptiveHistogramEqualization</text>
<text text-anchor="middle" x="5894.55" y="-63.5" font-family="Helvetica,sans-Serif" font-size="10.00">ImageFilter.h</text>
</a>
</g>
</g>
<!-- Node8&#45;&gt;Node14 -->
<g id="edge16" class="edge">
<title>Node8&#45;&gt;Node14</title>
<path fill="none" stroke="midnightblue" d="M3537.92,-137.14C3853.18,-135.1 5333.76,-123.71 5790.55,-87 5793.64,-86.75 5796.77,-86.47 5799.94,-86.17"/>
<polygon fill="midnightblue" stroke="midnightblue" points="3537.61,-133.64 3527.64,-137.21 3537.66,-140.64 3537.61,-133.64"/>
</g>
<!-- Node15 -->
<g id="node13" class="node">
<title>Node15</title>
<g id="a_node13"><a xlink:href="sitkAddImageFilter_8h.html" target="_top" xlink:title=" ">
<polygon fill="white" stroke="red" points="6007.05,-62 6007.05,-81 6124.05,-81 6124.05,-62 6007.05,-62"/>
<text text-anchor="middle" x="6065.55" y="-69" font-family="Helvetica,sans-Serif" font-size="10.00">sitkAddImageFilter.h</text>
</a>
</g>
</g>
<!-- Node8&#45;&gt;Node15 -->
<g id="edge17" class="edge">
<title>Node8&#45;&gt;Node15</title>
<path fill="none" stroke="midnightblue" d="M3537.75,-137C3894.16,-133.89 5747.32,-116.42 5998.55,-87 6009.66,-85.7 6021.64,-83.4 6032.36,-81.01"/>
<polygon fill="midnightblue" stroke="midnightblue" points="3537.61,-133.5 3527.64,-137.09 3537.67,-140.5 3537.61,-133.5"/>
</g>
<!-- Node17 -->
<g id="node14" class="node">
<title>Node17</title>
<g id="a_node14"><a xlink:href="sitkAdditiveGaussianNoiseImageFilter_8h.html" target="_top" xlink:title=" ">
<polygon fill="white" stroke="red" points="6142.55,-56.5 6142.55,-86.5 6290.55,-86.5 6290.55,-56.5 6142.55,-56.5"/>
<text text-anchor="start" x="6150.55" y="-74.5" font-family="Helvetica,sans-Serif" font-size="10.00">sitkAdditiveGaussianNoise</text>
<text text-anchor="middle" x="6216.55" y="-63.5" font-family="Helvetica,sans-Serif" font-size="10.00">ImageFilter.h</text>
</a>
</g>
</g>
<!-- Node8&#45;&gt;Node17 -->
<g id="edge18" class="edge">
<title>Node8&#45;&gt;Node17</title>
<path fill="none" stroke="midnightblue" d="M3537.95,-136.92C3905.93,-133.25 5867.58,-112.61 6133.55,-87 6136.46,-86.72 6139.42,-86.39 6142.41,-86.03"/>
<polygon fill="midnightblue" stroke="midnightblue" points="3537.74,-133.42 3527.78,-137.02 3537.81,-140.42 3537.74,-133.42"/>
</g>
<!-- Node18 -->
<g id="node15" class="node">
<title>Node18</title>
<g id="a_node15"><a xlink:href="sitkAggregateLabelMapFilter_8h.html" target="_top" xlink:title=" ">
<polygon fill="white" stroke="red" points="6309.05,-62 6309.05,-81 6474.05,-81 6474.05,-62 6309.05,-62"/>
<text text-anchor="middle" x="6391.55" y="-69" font-family="Helvetica,sans-Serif" font-size="10.00">sitkAggregateLabelMapFilter.h</text>
</a>
</g>
</g>
<!-- Node8&#45;&gt;Node18 -->
<g id="edge19" class="edge">
<title>Node8&#45;&gt;Node18</title>
<path fill="none" stroke="midnightblue" d="M3537.97,-136.93C3919.32,-133.22 6015.82,-111.78 6299.55,-87 6314.53,-85.69 6330.76,-83.42 6345.37,-81.06"/>
<polygon fill="midnightblue" stroke="midnightblue" points="3537.68,-133.43 3527.71,-137.03 3537.75,-140.43 3537.68,-133.43"/>
</g>
<!-- Node19 -->
<g id="node16" class="node">
<title>Node19</title>
<g id="a_node16"><a xlink:href="sitkAndImageFilter_8h.html" target="_top" xlink:title=" ">
<polygon fill="white" stroke="red" points="6492.05,-62 6492.05,-81 6609.05,-81 6609.05,-62 6492.05,-62"/>
<text text-anchor="middle" x="6550.55" y="-69" font-family="Helvetica,sans-Serif" font-size="10.00">sitkAndImageFilter.h</text>
</a>
</g>
</g>
<!-- Node8&#45;&gt;Node19 -->
<g id="edge20" class="edge">
<title>Node8&#45;&gt;Node19</title>
<path fill="none" stroke="midnightblue" d="M3537.71,-136.84C3945.85,-132.21 6331.91,-104.51 6483.55,-87 6494.66,-85.72 6506.64,-83.42 6517.36,-81.03"/>
<polygon fill="midnightblue" stroke="midnightblue" points="3537.56,-133.34 3527.6,-136.95 3537.64,-140.34 3537.56,-133.34"/>
</g>
<!-- Node20 -->
<g id="node17" class="node">
<title>Node20</title>
<g id="a_node17"><a xlink:href="sitkAntiAliasBinaryImageFilter_8h.html" target="_top" xlink:title=" ">
<polygon fill="white" stroke="red" points="348.55,-56.5 348.55,-86.5 488.55,-86.5 488.55,-56.5 348.55,-56.5"/>
<text text-anchor="start" x="356.55" y="-74.5" font-family="Helvetica,sans-Serif" font-size="10.00">sitkAntiAliasBinaryImage</text>
<text text-anchor="middle" x="418.55" y="-63.5" font-family="Helvetica,sans-Serif" font-size="10.00">Filter.h</text>
</a>
</g>
</g>
<!-- Node8&#45;&gt;Node20 -->
<g id="edge21" class="edge">
<title>Node8&#45;&gt;Node20</title>
<path fill="none" stroke="midnightblue" d="M3418.91,-133.06C3371.01,-129.68 3301.99,-125.24 3241.55,-123 2632.14,-100.37 1104.49,-146.26 497.55,-87 494.63,-86.72 491.66,-86.38 488.67,-86"/>
<polygon fill="midnightblue" stroke="midnightblue" points="3418.88,-136.56 3429.1,-133.78 3419.38,-129.58 3418.88,-136.56"/>
</g>
<!-- Node21 -->
<g id="node18" class="node">
<title>Node21</title>
<g id="a_node18"><a xlink:href="sitkApproximateSignedDistanceMapImageFilter_8h.html" target="_top" xlink:title=" ">
<polygon fill="white" stroke="red" points="507.05,-56.5 507.05,-86.5 680.05,-86.5 680.05,-56.5 507.05,-56.5"/>
<text text-anchor="start" x="515.05" y="-74.5" font-family="Helvetica,sans-Serif" font-size="10.00">sitkApproximateSignedDistance</text>
<text text-anchor="middle" x="593.55" y="-63.5" font-family="Helvetica,sans-Serif" font-size="10.00">MapImageFilter.h</text>
</a>
</g>
</g>
<!-- Node8&#45;&gt;Node21 -->
<g id="edge22" class="edge">
<title>Node8&#45;&gt;Node21</title>
<path fill="none" stroke="midnightblue" d="M3418.91,-133.07C3371.01,-129.7 3301.99,-125.27 3241.55,-123 2674.56,-101.67 1253.99,-133.92 688.55,-87 685.8,-86.77 683.02,-86.51 680.21,-86.23"/>
<polygon fill="midnightblue" stroke="midnightblue" points="3418.88,-136.58 3429.1,-133.8 3419.37,-129.6 3418.88,-136.58"/>
</g>
<!-- Node22 -->
<g id="node19" class="node">
<title>Node22</title>
<g id="a_node19"><a xlink:href="sitkAsinImageFilter_8h.html" target="_top" xlink:title=" ">
<polygon fill="white" stroke="red" points="698.05,-62 698.05,-81 817.05,-81 817.05,-62 698.05,-62"/>
<text text-anchor="middle" x="757.55" y="-69" font-family="Helvetica,sans-Serif" font-size="10.00">sitkAsinImageFilter.h</text>
</a>
</g>
</g>
<!-- Node8&#45;&gt;Node22 -->
<g id="edge23" class="edge">
<title>Node8&#45;&gt;Node22</title>
<path fill="none" stroke="midnightblue" d="M3418.91,-133.09C3371.01,-129.73 3301.99,-125.3 3241.55,-123 2704.99,-102.6 1359.1,-147.28 825.55,-87 814.27,-85.73 802.11,-83.43 791.23,-81.04"/>
<polygon fill="midnightblue" stroke="midnightblue" points="3418.88,-136.59 3429.1,-133.81 3419.37,-129.61 3418.88,-136.59"/>
</g>
<!-- Node23 -->
<g id="node20" class="node">
<title>Node23</title>
<g id="a_node20"><a xlink:href="sitkAtan2ImageFilter_8h.html" target="_top" xlink:title=" ">
<polygon fill="white" stroke="red" points="835.05,-62 835.05,-81 962.05,-81 962.05,-62 835.05,-62"/>
<text text-anchor="middle" x="898.55" y="-69" font-family="Helvetica,sans-Serif" font-size="10.00">sitkAtan2ImageFilter.h</text>
</a>
</g>
</g>
<!-- Node8&#45;&gt;Node23 -->
<g id="edge24" class="edge">
<title>Node8&#45;&gt;Node23</title>
<path fill="none" stroke="midnightblue" d="M3418.91,-133.1C3371.01,-129.75 3301.99,-125.33 3241.55,-123 2737.19,-103.58 1472.37,-141.05 970.55,-87 958.63,-85.72 945.76,-83.42 934.24,-81.03"/>
<polygon fill="midnightblue" stroke="midnightblue" points="3418.88,-136.61 3429.1,-133.82 3419.37,-129.63 3418.88,-136.61"/>
</g>
<!-- Node24 -->
<g id="node21" class="node">
<title>Node24</title>
<g id="a_node21"><a xlink:href="sitkAtanImageFilter_8h.html" target="_top" xlink:title=" ">
<polygon fill="white" stroke="red" points="980.05,-62 980.05,-81 1101.05,-81 1101.05,-62 980.05,-62"/>
<text text-anchor="middle" x="1040.55" y="-69" font-family="Helvetica,sans-Serif" font-size="10.00">sitkAtanImageFilter.h</text>
</a>
</g>
</g>
<!-- Node8&#45;&gt;Node24 -->
<g id="edge25" class="edge">
<title>Node8&#45;&gt;Node24</title>
<path fill="none" stroke="midnightblue" d="M3418.91,-133.12C3371,-129.78 3301.99,-125.36 3241.55,-123 2768.06,-104.53 1580.42,-139.96 1109.55,-87 1098.11,-85.71 1085.77,-83.42 1074.73,-81.03"/>
<polygon fill="midnightblue" stroke="midnightblue" points="3418.88,-136.63 3429.1,-133.84 3419.37,-129.64 3418.88,-136.63"/>
</g>
<!-- Node25 -->
<g id="node22" class="node">
<title>Node25</title>
<g id="a_node22"><a xlink:href="sitkBSplineDecompositionImageFilter_8h.html" target="_top" xlink:title=" ">
<polygon fill="white" stroke="red" points="1119.05,-56.5 1119.05,-86.5 1264.05,-86.5 1264.05,-56.5 1119.05,-56.5"/>
<text text-anchor="start" x="1127.05" y="-74.5" font-family="Helvetica,sans-Serif" font-size="10.00">sitkBSplineDecomposition</text>
<text text-anchor="middle" x="1191.55" y="-63.5" font-family="Helvetica,sans-Serif" font-size="10.00">ImageFilter.h</text>
</a>
</g>
</g>
<!-- Node8&#45;&gt;Node25 -->
<g id="edge26" class="edge">
<title>Node8&#45;&gt;Node25</title>
<path fill="none" stroke="midnightblue" d="M3418.91,-133.14C3371,-129.81 3301.99,-125.4 3241.55,-123 2804.48,-105.64 1708.91,-129.21 1273.55,-87 1270.52,-86.71 1267.45,-86.36 1264.34,-85.98"/>
<polygon fill="midnightblue" stroke="midnightblue" points="3418.88,-136.65 3429.1,-133.86 3419.37,-129.67 3418.88,-136.65"/>
</g>
<!-- Node26 -->
<g id="node23" class="node">
<title>Node26</title>
<g id="a_node23"><a xlink:href="sitkBSplineTransformInitializerFilter_8h.html" target="_top" xlink:title=" ">
<polygon fill="white" stroke="black" points="126.55,-56.5 126.55,-86.5 292.55,-86.5 292.55,-56.5 126.55,-56.5"/>
<text text-anchor="start" x="134.55" y="-74.5" font-family="Helvetica,sans-Serif" font-size="10.00">sitkBSplineTransformInitializer</text>
<text text-anchor="middle" x="209.55" y="-63.5" font-family="Helvetica,sans-Serif" font-size="10.00">Filter.h</text>
</a>
</g>
</g>
<!-- Node8&#45;&gt;Node26 -->
<g id="edge27" class="edge">
<title>Node8&#45;&gt;Node26</title>
<path fill="none" stroke="midnightblue" d="M3418.91,-133.04C3371.01,-129.66 3301.99,-125.22 3241.55,-123 2589.71,-99.08 956.71,-139.34 306.55,-87 302.05,-86.64 297.44,-86.2 292.8,-85.69"/>
<polygon fill="midnightblue" stroke="midnightblue" points="3418.88,-136.55 3429.1,-133.77 3419.38,-129.57 3418.88,-136.55"/>
</g>
<!-- Node27 -->
<g id="node24" class="node">
<title>Node27</title>
<g id="a_node24"><a xlink:href="sitkBilateralImageFilter_8h.html" target="_top" xlink:title=" ">
<polygon fill="white" stroke="red" points="1282.55,-62 1282.55,-81 1422.55,-81 1422.55,-62 1282.55,-62"/>
<text text-anchor="middle" x="1352.55" y="-69" font-family="Helvetica,sans-Serif" font-size="10.00">sitkBilateralImageFilter.h</text>
</a>
</g>
</g>
<!-- Node8&#45;&gt;Node27 -->
<g id="edge29" class="edge">
<title>Node8&#45;&gt;Node27</title>
<path fill="none" stroke="midnightblue" d="M3418.91,-133.17C3371,-129.85 3301.98,-125.45 3241.55,-123 2839.57,-106.71 1831.81,-127.45 1431.55,-87 1418.64,-85.7 1404.69,-83.43 1392.15,-81.06"/>
<polygon fill="midnightblue" stroke="midnightblue" points="3418.88,-136.68 3429.1,-133.88 3419.37,-129.69 3418.88,-136.68"/>
</g>
<!-- Node28 -->
<g id="node25" class="node">
<title>Node28</title>
<g id="a_node25"><a xlink:href="sitkBinShrinkImageFilter_8h.html" target="_top" xlink:title=" ">
<polygon fill="white" stroke="red" points="1441.05,-62 1441.05,-81 1586.05,-81 1586.05,-62 1441.05,-62"/>
<text text-anchor="middle" x="1513.55" y="-69" font-family="Helvetica,sans-Serif" font-size="10.00">sitkBinShrinkImageFilter.h</text>
</a>
</g>
</g>
<!-- Node8&#45;&gt;Node28 -->
<g id="edge30" class="edge">
<title>Node8&#45;&gt;Node28</title>
<path fill="none" stroke="midnightblue" d="M3418.91,-133.2C3371,-129.91 3301.98,-125.51 3241.55,-123 2510.45,-92.65 2323.73,-158.92 1595.55,-87 1582.17,-85.68 1567.69,-83.4 1554.67,-81.04"/>
<polygon fill="midnightblue" stroke="midnightblue" points="3418.88,-136.71 3429.1,-133.91 3419.36,-129.72 3418.88,-136.71"/>
</g>
<!-- Node29 -->
<g id="node26" class="node">
<title>Node29</title>
<g id="a_node26"><a xlink:href="sitkBinaryClosingByReconstructionImageFilter_8h.html" target="_top" xlink:title=" ">
<polygon fill="white" stroke="red" points="1604.55,-56.5 1604.55,-86.5 1792.55,-86.5 1792.55,-56.5 1604.55,-56.5"/>
<text text-anchor="start" x="1612.55" y="-74.5" font-family="Helvetica,sans-Serif" font-size="10.00">sitkBinaryClosingByReconstruction</text>
<text text-anchor="middle" x="1698.55" y="-63.5" font-family="Helvetica,sans-Serif" font-size="10.00">ImageFilter.h</text>
</a>
</g>
</g>
<!-- Node8&#45;&gt;Node29 -->
<g id="edge31" class="edge">
<title>Node8&#45;&gt;Node29</title>
<path fill="none" stroke="midnightblue" d="M3418.9,-133.25C3371,-129.99 3301.98,-125.6 3241.55,-123 2601.94,-95.45 2439.57,-139.71 1801.55,-87 1798.67,-86.76 1795.74,-86.5 1792.8,-86.21"/>
<polygon fill="midnightblue" stroke="midnightblue" points="3418.88,-136.76 3429.1,-133.95 3419.36,-129.78 3418.88,-136.76"/>
</g>
<!-- Node30 -->
<g id="node27" class="node">
<title>Node30</title>
<g id="a_node27"><a xlink:href="sitkBinaryContourImageFilter_8h.html" target="_top" xlink:title=" ">
<polygon fill="white" stroke="red" points="1810.55,-62 1810.55,-81 1978.55,-81 1978.55,-62 1810.55,-62"/>
<text text-anchor="middle" x="1894.55" y="-69" font-family="Helvetica,sans-Serif" font-size="10.00">sitkBinaryContourImageFilter.h</text>
</a>
</g>
</g>
<!-- Node8&#45;&gt;Node30 -->
<g id="edge32" class="edge">
<title>Node8&#45;&gt;Node30</title>
<path fill="none" stroke="midnightblue" d="M3418.9,-133.31C3370.99,-130.08 3301.97,-125.71 3241.55,-123 2684.1,-97.96 2542.17,-138.54 1986.55,-87 1971.73,-85.63 1955.69,-83.37 1941.2,-81.04"/>
<polygon fill="midnightblue" stroke="midnightblue" points="3418.88,-136.82 3429.09,-134.01 3419.35,-129.84 3418.88,-136.82"/>
</g>
<!-- Node31 -->
<g id="node28" class="node">
<title>Node31</title>
<g id="a_node28"><a xlink:href="sitkBinaryDilateImageFilter_8h.html" target="_top" xlink:title=" ">
<polygon fill="white" stroke="red" points="1996.05,-62 1996.05,-81 2155.05,-81 2155.05,-62 1996.05,-62"/>
<text text-anchor="middle" x="2075.55" y="-69" font-family="Helvetica,sans-Serif" font-size="10.00">sitkBinaryDilateImageFilter.h</text>
</a>
</g>
</g>
<!-- Node8&#45;&gt;Node31 -->
<g id="edge33" class="edge">
<title>Node8&#45;&gt;Node31</title>
<path fill="none" stroke="midnightblue" d="M3419.35,-133.42C3371.42,-130.23 3302.16,-125.87 3241.55,-123 2762.7,-100.36 2640.61,-134.07 2163.55,-87 2149.37,-85.6 2134.02,-83.34 2120.17,-81.01"/>
<polygon fill="midnightblue" stroke="midnightblue" points="3419.33,-136.93 3429.55,-134.1 3419.8,-129.94 3419.33,-136.93"/>
</g>
<!-- Node32 -->
<g id="node29" class="node">
<title>Node32</title>
<g id="a_node29"><a xlink:href="sitkBinaryErodeImageFilter_8h.html" target="_top" xlink:title=" ">
<polygon fill="white" stroke="red" points="2172.55,-62 2172.55,-81 2330.55,-81 2330.55,-62 2172.55,-62"/>
<text text-anchor="middle" x="2251.55" y="-69" font-family="Helvetica,sans-Serif" font-size="10.00">sitkBinaryErodeImageFilter.h</text>
</a>
</g>
</g>
<!-- Node8&#45;&gt;Node32 -->
<g id="edge34" class="edge">
<title>Node8&#45;&gt;Node32</title>
<path fill="none" stroke="midnightblue" d="M3419.35,-133.53C3371.42,-130.4 3302.15,-126.06 3241.55,-123 2840.85,-102.75 2738.69,-127.69 2339.55,-87 2325.53,-85.57 2310.36,-83.33 2296.62,-81.02"/>
<polygon fill="midnightblue" stroke="midnightblue" points="3419.33,-137.04 3429.54,-134.2 3419.79,-130.05 3419.33,-137.04"/>
</g>
<!-- Node33 -->
<g id="node30" class="node">
<title>Node33</title>
<g id="a_node30"><a xlink:href="sitkBinaryFillholeImageFilter_8h.html" target="_top" xlink:title=" ">
<polygon fill="white" stroke="red" points="2349.05,-62 2349.05,-81 2514.05,-81 2514.05,-62 2349.05,-62"/>
<text text-anchor="middle" x="2431.55" y="-69" font-family="Helvetica,sans-Serif" font-size="10.00">sitkBinaryFillholeImageFilter.h</text>
</a>
</g>
</g>
<!-- Node8&#45;&gt;Node33 -->
<g id="edge35" class="edge">
<title>Node8&#45;&gt;Node33</title>
<path fill="none" stroke="midnightblue" d="M3419.34,-133.7C3371.4,-130.66 3302.13,-126.37 3241.55,-123 2922.08,-105.23 2840.77,-120.22 2522.55,-87 2508.39,-85.52 2493.07,-83.32 2479.12,-81.07"/>
<polygon fill="midnightblue" stroke="midnightblue" points="3419.33,-137.2 3429.53,-134.34 3419.78,-130.22 3419.33,-137.2"/>
</g>
<!-- Node34 -->
<g id="node31" class="node">
<title>Node34</title>
<g id="a_node31"><a xlink:href="sitkBinaryGrindPeakImageFilter_8h.html" target="_top" xlink:title=" ">
<polygon fill="white" stroke="red" points="2532.05,-56.5 2532.05,-86.5 2679.05,-86.5 2679.05,-56.5 2532.05,-56.5"/>
<text text-anchor="start" x="2540.05" y="-74.5" font-family="Helvetica,sans-Serif" font-size="10.00">sitkBinaryGrindPeakImage</text>
<text text-anchor="middle" x="2605.55" y="-63.5" font-family="Helvetica,sans-Serif" font-size="10.00">Filter.h</text>
</a>
</g>
</g>
<!-- Node8&#45;&gt;Node34 -->
<g id="edge36" class="edge">
<title>Node8&#45;&gt;Node34</title>
<path fill="none" stroke="midnightblue" d="M3419.36,-133.81C3238.73,-122.54 2705.69,-89.18 2687.55,-87 2684.82,-86.67 2682.04,-86.31 2679.25,-85.93"/>
<polygon fill="midnightblue" stroke="midnightblue" points="3419.28,-137.31 3429.48,-134.44 3419.71,-130.32 3419.28,-137.31"/>
</g>
<!-- Node35 -->
<g id="node32" class="node">
<title>Node35</title>
<g id="a_node32"><a xlink:href="sitkBinaryImageToLabelMapFilter_8h.html" target="_top" xlink:title=" ">
<polygon fill="white" stroke="red" points="2697.05,-56.5 2697.05,-86.5 2852.05,-86.5 2852.05,-56.5 2697.05,-56.5"/>
<text text-anchor="start" x="2705.05" y="-74.5" font-family="Helvetica,sans-Serif" font-size="10.00">sitkBinaryImageToLabelMap</text>
<text text-anchor="middle" x="2774.55" y="-63.5" font-family="Helvetica,sans-Serif" font-size="10.00">Filter.h</text>
</a>
</g>
</g>
<!-- Node8&#45;&gt;Node35 -->
<g id="edge37" class="edge">
<title>Node8&#45;&gt;Node35</title>
<path fill="none" stroke="midnightblue" d="M3419.28,-134.35C3309,-128.11 3064.92,-112.53 2860.55,-87 2857.84,-86.66 2855.09,-86.3 2852.32,-85.92"/>
<polygon fill="midnightblue" stroke="midnightblue" points="3419.35,-137.86 3429.53,-134.92 3419.74,-130.87 3419.35,-137.86"/>
</g>
<!-- Node36 -->
<g id="node33" class="node">
<title>Node36</title>
<g id="a_node33"><a xlink:href="sitkBinaryMagnitudeImageFilter_8h.html" target="_top" xlink:title=" ">
<polygon fill="white" stroke="red" points="2870.05,-56.5 2870.05,-86.5 3019.05,-86.5 3019.05,-56.5 2870.05,-56.5"/>
<text text-anchor="start" x="2878.05" y="-74.5" font-family="Helvetica,sans-Serif" font-size="10.00">sitkBinaryMagnitudeImage</text>
<text text-anchor="middle" x="2944.55" y="-63.5" font-family="Helvetica,sans-Serif" font-size="10.00">Filter.h</text>
</a>
</g>
</g>
<!-- Node8&#45;&gt;Node36 -->
<g id="edge38" class="edge">
<title>Node8&#45;&gt;Node36</title>
<path fill="none" stroke="midnightblue" d="M3419.37,-131.99C3333.2,-123.7 3168.22,-106.87 3028.55,-87 3025.47,-86.56 3022.33,-86.1 3019.17,-85.62"/>
<polygon fill="midnightblue" stroke="midnightblue" points="3419.2,-135.48 3429.48,-132.95 3419.86,-128.52 3419.2,-135.48"/>
</g>
<!-- Node37 -->
<g id="node34" class="node">
<title>Node37</title>
<g id="a_node34"><a xlink:href="sitkBinaryMedianImageFilter_8h.html" target="_top" xlink:title=" ">
<polygon fill="white" stroke="red" points="3037.55,-62 3037.55,-81 3203.55,-81 3203.55,-62 3037.55,-62"/>
<text text-anchor="middle" x="3120.55" y="-69" font-family="Helvetica,sans-Serif" font-size="10.00">sitkBinaryMedianImageFilter.h</text>
</a>
</g>
</g>
<!-- Node8&#45;&gt;Node37 -->
<g id="edge39" class="edge">
<title>Node8&#45;&gt;Node37</title>
<path fill="none" stroke="midnightblue" d="M3421.35,-127.12C3350.99,-114.34 3232.86,-92.89 3167.54,-81.03"/>
<polygon fill="midnightblue" stroke="midnightblue" points="3420.91,-130.59 3431.38,-128.94 3422.16,-123.71 3420.91,-130.59"/>
</g>
<!-- Node38 -->
<g id="node35" class="node">
<title>Node38</title>
<g id="a_node35"><a xlink:href="sitkBinaryMinMaxCurvatureFlowImageFilter_8h.html" target="_top" xlink:title=" ">
<polygon fill="white" stroke="red" points="3222.05,-56.5 3222.05,-86.5 3375.05,-86.5 3375.05,-56.5 3222.05,-56.5"/>
<text text-anchor="start" x="3230.05" y="-74.5" font-family="Helvetica,sans-Serif" font-size="10.00">sitkBinaryMinMaxCurvature</text>
<text text-anchor="middle" x="3298.55" y="-63.5" font-family="Helvetica,sans-Serif" font-size="10.00">FlowImageFilter.h</text>
</a>
</g>
</g>
<!-- Node8&#45;&gt;Node38 -->
<g id="edge40" class="edge">
<title>Node8&#45;&gt;Node38</title>
<path fill="none" stroke="midnightblue" d="M3444.89,-125.35C3414.38,-114.33 3369.42,-98.09 3337.39,-86.53"/>
<polygon fill="midnightblue" stroke="midnightblue" points="3444.05,-128.76 3454.64,-128.87 3446.43,-122.18 3444.05,-128.76"/>
</g>
<!-- Node39 -->
<g id="node36" class="node">
<title>Node39</title>
<g id="a_node36"><a xlink:href="sitkBinaryMorphologicalClosingImageFilter_8h.html" target="_top" xlink:title=" ">
<polygon fill="white" stroke="red" points="3393.05,-56.5 3393.05,-86.5 3564.05,-86.5 3564.05,-56.5 3393.05,-56.5"/>
<text text-anchor="start" x="3401.05" y="-74.5" font-family="Helvetica,sans-Serif" font-size="10.00">sitkBinaryMorphologicalClosing</text>
<text text-anchor="middle" x="3478.55" y="-63.5" font-family="Helvetica,sans-Serif" font-size="10.00">ImageFilter.h</text>
</a>
</g>
</g>
<!-- Node8&#45;&gt;Node39 -->
<g id="edge41" class="edge">
<title>Node8&#45;&gt;Node39</title>
<path fill="none" stroke="midnightblue" d="M3478.55,-118.41C3478.55,-108.22 3478.55,-95.9 3478.55,-86.59"/>
<polygon fill="midnightblue" stroke="midnightblue" points="3475.05,-118.73 3478.55,-128.73 3482.05,-118.73 3475.05,-118.73"/>
</g>
<!-- Node40 -->
<g id="node37" class="node">
<title>Node40</title>
<g id="a_node37"><a xlink:href="sitkBinaryMorphologicalOpeningImageFilter_8h.html" target="_top" xlink:title=" ">
<polygon fill="white" stroke="red" points="3582.55,-56.5 3582.55,-86.5 3758.55,-86.5 3758.55,-56.5 3582.55,-56.5"/>
<text text-anchor="start" x="3590.55" y="-74.5" font-family="Helvetica,sans-Serif" font-size="10.00">sitkBinaryMorphologicalOpening</text>
<text text-anchor="middle" x="3670.55" y="-63.5" font-family="Helvetica,sans-Serif" font-size="10.00">ImageFilter.h</text>
</a>
</g>
</g>
<!-- Node8&#45;&gt;Node40 -->
<g id="edge42" class="edge">
<title>Node8&#45;&gt;Node40</title>
<path fill="none" stroke="midnightblue" d="M3513.6,-125.63C3546.15,-114.61 3594.65,-98.19 3629.11,-86.53"/>
<polygon fill="midnightblue" stroke="midnightblue" points="3512.39,-122.35 3504.04,-128.87 3514.64,-128.98 3512.39,-122.35"/>
</g>
<!-- Node41 -->
<g id="node38" class="node">
<title>Node41</title>
<g id="a_node38"><a xlink:href="sitkBinaryNotImageFilter_8h.html" target="_top" xlink:title=" ">
<polygon fill="white" stroke="red" points="3777.05,-62 3777.05,-81 3924.05,-81 3924.05,-62 3777.05,-62"/>
<text text-anchor="middle" x="3850.55" y="-69" font-family="Helvetica,sans-Serif" font-size="10.00">sitkBinaryNotImageFilter.h</text>
</a>
</g>
</g>
<!-- Node8&#45;&gt;Node41 -->
<g id="edge43" class="edge">
<title>Node8&#45;&gt;Node41</title>
<path fill="none" stroke="midnightblue" d="M3537.53,-127.19C3610.59,-114.43 3733.7,-92.92 3801.72,-81.03"/>
<polygon fill="midnightblue" stroke="midnightblue" points="3536.81,-123.77 3527.56,-128.94 3538.01,-130.66 3536.81,-123.77"/>
</g>
<!-- Node42 -->
<g id="node39" class="node">
<title>Node42</title>
<g id="a_node39"><a xlink:href="sitkBinaryOpeningByReconstructionImageFilter_8h.html" target="_top" xlink:title=" ">
<polygon fill="white" stroke="red" points="3942.55,-56.5 3942.55,-86.5 4134.55,-86.5 4134.55,-56.5 3942.55,-56.5"/>
<text text-anchor="start" x="3950.55" y="-74.5" font-family="Helvetica,sans-Serif" font-size="10.00">sitkBinaryOpeningByReconstruction</text>
<text text-anchor="middle" x="4038.55" y="-63.5" font-family="Helvetica,sans-Serif" font-size="10.00">ImageFilter.h</text>
</a>
</g>
</g>
<!-- Node8&#45;&gt;Node42 -->
<g id="edge44" class="edge">
<title>Node8&#45;&gt;Node42</title>
<path fill="none" stroke="midnightblue" d="M3537.81,-131.39C3624.55,-122.34 3791.12,-104.54 3932.55,-87 3935.77,-86.6 3939.05,-86.19 3942.36,-85.76"/>
<polygon fill="midnightblue" stroke="midnightblue" points="3537.22,-127.93 3527.64,-132.45 3537.95,-134.89 3537.22,-127.93"/>
</g>
<!-- Node43 -->
<g id="node40" class="node">
<title>Node43</title>
<g id="a_node40"><a xlink:href="sitkBinaryProjectionImageFilter_8h.html" target="_top" xlink:title=" ">
<polygon fill="white" stroke="red" points="4152.55,-56.5 4152.55,-86.5 4298.55,-86.5 4298.55,-56.5 4152.55,-56.5"/>
<text text-anchor="start" x="4160.55" y="-74.5" font-family="Helvetica,sans-Serif" font-size="10.00">sitkBinaryProjectionImage</text>
<text text-anchor="middle" x="4225.55" y="-63.5" font-family="Helvetica,sans-Serif" font-size="10.00">Filter.h</text>
</a>
</g>
</g>
<!-- Node8&#45;&gt;Node43 -->
<g id="edge45" class="edge">
<title>Node8&#45;&gt;Node43</title>
<path fill="none" stroke="midnightblue" d="M3538.08,-134.96C3654.65,-129.56 3921.09,-115.05 4143.55,-87 4146.41,-86.64 4149.34,-86.24 4152.28,-85.83"/>
<polygon fill="midnightblue" stroke="midnightblue" points="3537.76,-131.47 3527.94,-135.43 3538.08,-138.47 3537.76,-131.47"/>
</g>
<!-- Node44 -->
<g id="node41" class="node">
<title>Node44</title>
<g id="a_node41"><a xlink:href="sitkBinaryPruningImageFilter_8h.html" target="_top" xlink:title=" ">
<polygon fill="white" stroke="red" points="4317.05,-62 4317.05,-81 4484.05,-81 4484.05,-62 4317.05,-62"/>
<text text-anchor="middle" x="4400.55" y="-69" font-family="Helvetica,sans-Serif" font-size="10.00">sitkBinaryPruningImageFilter.h</text>
</a>
</g>
</g>
<!-- Node8&#45;&gt;Node44 -->
<g id="edge46" class="edge">
<title>Node8&#45;&gt;Node44</title>
<path fill="none" stroke="midnightblue" d="M3537.96,-135.79C3674.32,-131.46 4020.08,-118.1 4307.55,-87 4321.84,-85.45 4337.3,-83.26 4351.43,-81.04"/>
<polygon fill="midnightblue" stroke="midnightblue" points="3537.62,-132.3 3527.74,-136.11 3537.84,-139.3 3537.62,-132.3"/>
</g>
<!-- Node45 -->
<g id="node42" class="node">
<title>Node45</title>
<g id="a_node42"><a xlink:href="sitkBinaryReconstructionByDilationImageFilter_8h.html" target="_top" xlink:title=" ">
<polygon fill="white" stroke="red" points="4502.05,-56.5 4502.05,-86.5 4641.05,-86.5 4641.05,-56.5 4502.05,-56.5"/>
<text text-anchor="start" x="4510.05" y="-74.5" font-family="Helvetica,sans-Serif" font-size="10.00">sitkBinaryReconstruction</text>
<text text-anchor="middle" x="4571.55" y="-63.5" font-family="Helvetica,sans-Serif" font-size="10.00">ByDilationImageFilter.h</text>
</a>
</g>
</g>
<!-- Node8&#45;&gt;Node45 -->
<g id="edge47" class="edge">
<title>Node8&#45;&gt;Node45</title>
<path fill="none" stroke="midnightblue" d="M3538.17,-137.27C3695,-136.07 4131.85,-128.9 4492.55,-87 4495.59,-86.65 4498.7,-86.25 4501.83,-85.81"/>
<polygon fill="midnightblue" stroke="midnightblue" points="3537.78,-133.77 3527.8,-137.34 3537.83,-140.77 3537.78,-133.77"/>
</g>
<!-- Node46 -->
<g id="node43" class="node">
<title>Node46</title>
<g id="a_node43"><a xlink:href="sitkBinaryReconstructionByErosionImageFilter_8h.html" target="_top" xlink:title=" ">
<polygon fill="white" stroke="red" points="4659.05,-56.5 4659.05,-86.5 4798.05,-86.5 4798.05,-56.5 4659.05,-56.5"/>
<text text-anchor="start" x="4667.05" y="-74.5" font-family="Helvetica,sans-Serif" font-size="10.00">sitkBinaryReconstruction</text>
<text text-anchor="middle" x="4728.55" y="-63.5" font-family="Helvetica,sans-Serif" font-size="10.00">ByErosionImageFilter.h</text>
</a>
</g>
</g>
<!-- Node8&#45;&gt;Node46 -->
<g id="edge48" class="edge">
<title>Node8&#45;&gt;Node46</title>
<path fill="none" stroke="midnightblue" d="M3537.95,-137.83C3710.36,-138.18 4225.49,-134.83 4649.55,-87 4652.59,-86.66 4655.7,-86.26 4658.84,-85.84"/>
<polygon fill="midnightblue" stroke="midnightblue" points="3537.83,-134.33 3527.82,-137.81 3537.81,-141.33 3537.83,-134.33"/>
</g>
<!-- Node47 -->
<g id="node44" class="node">
<title>Node47</title>
<g id="a_node44"><a xlink:href="sitkBinaryThinningImageFilter_8h.html" target="_top" xlink:title=" ">
<polygon fill="white" stroke="red" points="4816.55,-62 4816.55,-81 4988.55,-81 4988.55,-62 4816.55,-62"/>
<text text-anchor="middle" x="4902.55" y="-69" font-family="Helvetica,sans-Serif" font-size="10.00">sitkBinaryThinningImageFilter.h</text>
</a>
</g>
</g>
<!-- Node8&#45;&gt;Node47 -->
<g id="edge49" class="edge">
<title>Node8&#45;&gt;Node47</title>
<path fill="none" stroke="midnightblue" d="M3537.99,-137.61C3725.04,-137.43 4318.18,-133.02 4806.55,-87 4821.82,-85.56 4838.36,-83.31 4853.35,-81.01"/>
<polygon fill="midnightblue" stroke="midnightblue" points="3537.81,-134.11 3527.82,-137.61 3537.82,-141.11 3537.81,-134.11"/>
</g>
<!-- Node48 -->
<g id="node45" class="node">
<title>Node48</title>
<g id="a_node45"><a xlink:href="sitkBinaryThresholdImageFilter_8h.html" target="_top" xlink:title=" ">
<polygon fill="white" stroke="red" points="5007.05,-56.5 5007.05,-86.5 5152.05,-86.5 5152.05,-56.5 5007.05,-56.5"/>
<text text-anchor="start" x="5015.05" y="-74.5" font-family="Helvetica,sans-Serif" font-size="10.00">sitkBinaryThresholdImage</text>
<text text-anchor="middle" x="5079.55" y="-63.5" font-family="Helvetica,sans-Serif" font-size="10.00">Filter.h</text>
</a>
</g>
</g>
<!-- Node8&#45;&gt;Node48 -->
<g id="edge50" class="edge">
<title>Node8&#45;&gt;Node48</title>
<path fill="none" stroke="midnightblue" d="M3537.82,-136.65C3781.48,-133 4706.81,-117.38 4997.55,-87 5000.57,-86.68 5003.64,-86.32 5006.74,-85.93"/>
<polygon fill="midnightblue" stroke="midnightblue" points="3537.69,-133.16 3527.74,-136.8 3537.79,-140.15 3537.69,-133.16"/>
</g>
<!-- Node49 -->
<g id="node46" class="node">
<title>Node49</title>
<g id="a_node46"><a xlink:href="sitkBinaryThresholdProjectionImageFilter_8h.html" target="_top" xlink:title=" ">
<polygon fill="white" stroke="red" points="5170.05,-56.5 5170.05,-86.5 5333.05,-86.5 5333.05,-56.5 5170.05,-56.5"/>
<text text-anchor="start" x="5178.05" y="-74.5" font-family="Helvetica,sans-Serif" font-size="10.00">sitkBinaryThresholdProjection</text>
<text text-anchor="middle" x="5251.55" y="-63.5" font-family="Helvetica,sans-Serif" font-size="10.00">ImageFilter.h</text>
</a>
</g>
</g>
<!-- Node8&#45;&gt;Node49 -->
<g id="edge51" class="edge">
<title>Node8&#45;&gt;Node49</title>
<path fill="none" stroke="midnightblue" d="M3538.08,-136.75C3798.22,-133.32 4836.67,-117.91 5161.55,-87 5164.22,-86.75 5166.94,-86.46 5169.69,-86.15"/>
<polygon fill="midnightblue" stroke="midnightblue" points="3537.67,-133.26 3527.71,-136.89 3537.76,-140.26 3537.67,-133.26"/>
</g>
<!-- Node26&#45;&gt;Node3 -->
<g id="edge28" class="edge">
<title>Node26&#45;&gt;Node3</title>
<path fill="none" stroke="midnightblue" d="M244.71,-51.65C264.72,-40.93 288.82,-28.01 304.39,-19.66"/>
<polygon fill="midnightblue" stroke="midnightblue" points="243.01,-48.59 235.85,-56.4 246.32,-54.76 243.01,-48.59"/>
</g>
<!-- Node308&#45;&gt;Node3 -->
<g id="edge54" class="edge">
<title>Node308&#45;&gt;Node3</title>
<path fill="none" stroke="midnightblue" d="M1668.49,-136.48C1312.23,-132.43 74.99,-116.3 46.55,-87 -23.69,-14.66 192.57,-9.38 282.87,-10.19"/>
<polygon fill="midnightblue" stroke="midnightblue" points="1668.48,-139.98 1678.52,-136.59 1668.56,-132.98 1668.48,-139.98"/>
</g>
<!-- Node309&#45;&gt;Node3 -->
<g id="edge56" class="edge">
<title>Node309&#45;&gt;Node3</title>
<path fill="none" stroke="midnightblue" d="M2573.05,-136.03C2140.28,-128.02 87.34,-89.85 84.55,-87 24.27,-25.53 202.22,-13.72 282.96,-11.49"/>
<polygon fill="midnightblue" stroke="midnightblue" points="2573.21,-139.53 2583.28,-136.22 2573.34,-132.53 2573.21,-139.53"/>
</g>
<!-- Node310&#45;&gt;Node3 -->
<g id="edge58" class="edge">
<title>Node310&#45;&gt;Node3</title>
<path fill="none" stroke="midnightblue" d="M3088.44,-134.47C3001.5,-131.17 2855.89,-125.95 2730.55,-123 2694.26,-122.15 143.03,-112.84 117.55,-87 65.95,-34.69 211.14,-17.96 282.96,-12.97"/>
<polygon fill="midnightblue" stroke="midnightblue" points="3088.36,-137.97 3098.49,-134.86 3088.63,-130.98 3088.36,-137.97"/>
</g>
<!-- Node311&#45;&gt;Node3 -->
<g id="edge60" class="edge">
<title>Node311&#45;&gt;Node3</title>
<path fill="none" stroke="midnightblue" d="M5772.55,-134.58C6014.43,-125.2 6751.02,-95.94 6759.55,-87 6769.05,-77.03 6769.25,-65.78 6759.55,-56 6729.45,-25.7 883.35,-12.23 358.18,-11.08"/>
<polygon fill="midnightblue" stroke="midnightblue" points="5772.3,-131.09 5762.44,-134.97 5772.57,-138.08 5772.3,-131.09"/>
</g>
</g>
</svg>
