<?xml version="1.0" encoding="UTF-8" standalone="no"?>
<!DOCTYPE svg PUBLIC "-//W3C//DTD SVG 1.1//EN"
 "http://www.w3.org/Graphics/SVG/1.1/DTD/svg11.dtd">
<!-- Generated by graphviz version 2.43.0 (0)
 -->
<!-- Title: sitkProcessObject.h Pages: 1 -->
<svg width="1622pt" height="487pt"
 viewBox="0.00 0.00 1621.50 487.00" xmlns="http://www.w3.org/2000/svg" xmlns:xlink="http://www.w3.org/1999/xlink">
<g id="graph0" class="graph" transform="scale(1 1) rotate(0) translate(4 483)">
<title>sitkProcessObject.h</title>
<polygon fill="white" stroke="transparent" points="-4,4 -4,-483 1617.5,-483 1617.5,4 -4,4"/>
<!-- Node1 -->
<g id="node1" class="node">
<title>Node1</title>
<g id="a_node1"><a xlink:title=" ">
<polygon fill="#bfbfbf" stroke="black" points="624.5,-459.5 624.5,-478.5 737.5,-478.5 737.5,-459.5 624.5,-459.5"/>
<text text-anchor="middle" x="681" y="-466.5" font-family="Helvetica,sans-Serif" font-size="10.00">sitkProcessObject.h</text>
</a>
</g>
</g>
<!-- Node2 -->
<g id="node2" class="node">
<title>Node2</title>
<g id="a_node2"><a xlink:href="sitkCommon_8h.html" target="_top" xlink:title=" ">
<polygon fill="white" stroke="black" points="373,-112.5 373,-131.5 461,-131.5 461,-112.5 373,-112.5"/>
<text text-anchor="middle" x="417" y="-119.5" font-family="Helvetica,sans-Serif" font-size="10.00">sitkCommon.h</text>
</a>
</g>
</g>
<!-- Node1&#45;&gt;Node2 -->
<g id="edge1" class="edge">
<title>Node1&#45;&gt;Node2</title>
<path fill="none" stroke="midnightblue" d="M624.4,-464.8C460.99,-454.82 0,-421.06 0,-358 0,-358 0,-358 0,-300 0,-144.23 249.62,-123.54 362.6,-122.16"/>
<polygon fill="midnightblue" stroke="midnightblue" points="362.8,-125.66 372.77,-122.08 362.74,-118.66 362.8,-125.66"/>
</g>
<!-- Node10 -->
<g id="node10" class="node">
<title>Node10</title>
<g id="a_node10"><a xlink:href="sitkNonCopyable_8h.html" target="_top" xlink:title=" ">
<polygon fill="white" stroke="black" points="940.5,-168.5 940.5,-187.5 1049.5,-187.5 1049.5,-168.5 940.5,-168.5"/>
<text text-anchor="middle" x="995" y="-175.5" font-family="Helvetica,sans-Serif" font-size="10.00">sitkNonCopyable.h</text>
</a>
</g>
</g>
<!-- Node1&#45;&gt;Node10 -->
<g id="edge9" class="edge">
<title>Node1&#45;&gt;Node10</title>
<path fill="none" stroke="midnightblue" d="M687.81,-459.46C701.28,-441.69 730,-398.98 730,-358 730,-358 730,-358 730,-300 730,-252.44 873,-209.46 948.91,-190"/>
<polygon fill="midnightblue" stroke="midnightblue" points="949.87,-193.36 958.71,-187.52 948.16,-186.58 949.87,-193.36"/>
</g>
<!-- Node11 -->
<g id="node11" class="node">
<title>Node11</title>
<g id="a_node11"><a xlink:href="sitkTemplateFunctions_8h.html" target="_top" xlink:title=" ">
<polygon fill="white" stroke="black" points="566.5,-230 566.5,-249 701.5,-249 701.5,-230 566.5,-230"/>
<text text-anchor="middle" x="634" y="-237" font-family="Helvetica,sans-Serif" font-size="10.00">sitkTemplateFunctions.h</text>
</a>
</g>
</g>
<!-- Node1&#45;&gt;Node11 -->
<g id="edge11" class="edge">
<title>Node1&#45;&gt;Node11</title>
<path fill="none" stroke="midnightblue" d="M679.91,-459.44C676.56,-433.72 665.65,-354.94 650,-291 647.36,-280.23 643.66,-268.39 640.48,-258.89"/>
<polygon fill="midnightblue" stroke="midnightblue" points="643.76,-257.66 637.2,-249.34 637.13,-259.93 643.76,-257.66"/>
</g>
<!-- Node16 -->
<g id="node16" class="node">
<title>Node16</title>
<g id="a_node16"><a xlink:href="sitkEvent_8h.html" target="_top" xlink:title=" ">
<polygon fill="white" stroke="black" points="66.5,-230 66.5,-249 137.5,-249 137.5,-230 66.5,-230"/>
<text text-anchor="middle" x="102" y="-237" font-family="Helvetica,sans-Serif" font-size="10.00">sitkEvent.h</text>
</a>
</g>
</g>
<!-- Node1&#45;&gt;Node16 -->
<g id="edge20" class="edge">
<title>Node1&#45;&gt;Node16</title>
<path fill="none" stroke="midnightblue" d="M629.27,-459.46C588.8,-452.02 531.47,-439.78 483,-423 373.29,-385.02 351.65,-361.27 247,-311 205.52,-291.07 157.51,-267.66 128.47,-253.46"/>
<polygon fill="midnightblue" stroke="midnightblue" points="129.9,-250.27 119.38,-249.02 126.83,-256.56 129.9,-250.27"/>
</g>
<!-- Node17 -->
<g id="node17" class="node">
<title>Node17</title>
<g id="a_node17"><a xlink:href="sitkImage_8h.html" target="_top" xlink:title=" ">
<polygon fill="white" stroke="black" points="505,-347.5 505,-366.5 579,-366.5 579,-347.5 505,-347.5"/>
<text text-anchor="middle" x="542" y="-354.5" font-family="Helvetica,sans-Serif" font-size="10.00">sitkImage.h</text>
</a>
</g>
</g>
<!-- Node1&#45;&gt;Node17 -->
<g id="edge23" class="edge">
<title>Node1&#45;&gt;Node17</title>
<path fill="none" stroke="midnightblue" d="M673.42,-459.37C661.67,-446.3 638.03,-421.06 615,-403 599.91,-391.17 581.53,-379.85 566.99,-371.53"/>
<polygon fill="midnightblue" stroke="midnightblue" points="568.49,-368.36 558.06,-366.51 565.06,-374.46 568.49,-368.36"/>
</g>
<!-- Node34 -->
<g id="node34" class="node">
<title>Node34</title>
<g id="a_node34"><a xlink:href="sitkImageConvert_8h.html" target="_top" xlink:title=" ">
<polygon fill="white" stroke="black" points="492.5,-403.5 492.5,-422.5 605.5,-422.5 605.5,-403.5 492.5,-403.5"/>
<text text-anchor="middle" x="549" y="-410.5" font-family="Helvetica,sans-Serif" font-size="10.00">sitkImageConvert.h</text>
</a>
</g>
</g>
<!-- Node1&#45;&gt;Node34 -->
<g id="edge58" class="edge">
<title>Node1&#45;&gt;Node34</title>
<path fill="none" stroke="midnightblue" d="M660.08,-459.44C638.26,-450.52 603.85,-436.44 579.11,-426.32"/>
<polygon fill="midnightblue" stroke="midnightblue" points="580.4,-423.06 569.82,-422.52 577.75,-429.54 580.4,-423.06"/>
</g>
<!-- Node35 -->
<g id="node35" class="node">
<title>Node35</title>
<g id="a_node35"><a xlink:title=" ">
<polygon fill="white" stroke="#bfbfbf" points="758,-403.5 758,-422.5 818,-422.5 818,-403.5 758,-403.5"/>
<text text-anchor="middle" x="788" y="-410.5" font-family="Helvetica,sans-Serif" font-size="10.00">iostream</text>
</a>
</g>
</g>
<!-- Node1&#45;&gt;Node35 -->
<g id="edge60" class="edge">
<title>Node1&#45;&gt;Node35</title>
<path fill="none" stroke="midnightblue" d="M698.19,-459.32C715.35,-450.66 741.95,-437.24 761.75,-427.25"/>
<polygon fill="midnightblue" stroke="midnightblue" points="763.5,-430.28 770.85,-422.65 760.35,-424.04 763.5,-430.28"/>
</g>
<!-- Node36 -->
<g id="node36" class="node">
<title>Node36</title>
<g id="a_node36"><a xlink:title=" ">
<polygon fill="white" stroke="#bfbfbf" points="836,-403.5 836,-422.5 868,-422.5 868,-403.5 836,-403.5"/>
<text text-anchor="middle" x="852" y="-410.5" font-family="Helvetica,sans-Serif" font-size="10.00">list</text>
</a>
</g>
</g>
<!-- Node1&#45;&gt;Node36 -->
<g id="edge61" class="edge">
<title>Node1&#45;&gt;Node36</title>
<path fill="none" stroke="midnightblue" d="M710.21,-459.43C737.82,-451.24 780.59,-438.31 826.14,-423.18"/>
<polygon fill="midnightblue" stroke="midnightblue" points="827.52,-426.41 835.9,-419.92 825.31,-419.77 827.52,-426.41"/>
</g>
<!-- Node3 -->
<g id="node3" class="node">
<title>Node3</title>
<g id="a_node3"><a xlink:href="sitkMacro_8h.html" target="_top" xlink:title=" ">
<polygon fill="white" stroke="black" points="949,-56.5 949,-75.5 1023,-75.5 1023,-56.5 949,-56.5"/>
<text text-anchor="middle" x="986" y="-63.5" font-family="Helvetica,sans-Serif" font-size="10.00">sitkMacro.h</text>
</a>
</g>
</g>
<!-- Node2&#45;&gt;Node3 -->
<g id="edge2" class="edge">
<title>Node2&#45;&gt;Node3</title>
<path fill="none" stroke="midnightblue" d="M461.18,-116.81C566.28,-106.83 830.49,-81.76 938.69,-71.49"/>
<polygon fill="midnightblue" stroke="midnightblue" points="939.03,-74.97 948.66,-70.54 938.37,-68 939.03,-74.97"/>
</g>
<!-- Node4 -->
<g id="node4" class="node">
<title>Node4</title>
<g id="a_node4"><a xlink:title=" ">
<polygon fill="white" stroke="#bfbfbf" points="787.5,-0.5 787.5,-19.5 840.5,-19.5 840.5,-0.5 787.5,-0.5"/>
<text text-anchor="middle" x="814" y="-7.5" font-family="Helvetica,sans-Serif" font-size="10.00">stdint.h</text>
</a>
</g>
</g>
<!-- Node3&#45;&gt;Node4 -->
<g id="edge3" class="edge">
<title>Node3&#45;&gt;Node4</title>
<path fill="none" stroke="midnightblue" d="M958.75,-56.44C929.39,-47.23 882.53,-32.52 850.12,-22.34"/>
<polygon fill="midnightblue" stroke="midnightblue" points="851.15,-19 840.56,-19.34 849.05,-25.67 851.15,-19"/>
</g>
<!-- Node5 -->
<g id="node5" class="node">
<title>Node5</title>
<g id="a_node5"><a xlink:title=" ">
<polygon fill="white" stroke="#bfbfbf" points="1016,-0.5 1016,-19.5 1072,-19.5 1072,-0.5 1016,-0.5"/>
<text text-anchor="middle" x="1044" y="-7.5" font-family="Helvetica,sans-Serif" font-size="10.00">stddef.h</text>
</a>
</g>
</g>
<!-- Node3&#45;&gt;Node5 -->
<g id="edge4" class="edge">
<title>Node3&#45;&gt;Node5</title>
<path fill="none" stroke="midnightblue" d="M995.32,-56.32C1003.89,-48.34 1016.81,-36.31 1027.19,-26.65"/>
<polygon fill="midnightblue" stroke="midnightblue" points="1029.58,-29.21 1034.51,-19.83 1024.81,-24.09 1029.58,-29.21"/>
</g>
<!-- Node6 -->
<g id="node6" class="node">
<title>Node6</title>
<g id="a_node6"><a xlink:title=" ">
<polygon fill="white" stroke="#bfbfbf" points="1090,-0.5 1090,-19.5 1142,-19.5 1142,-0.5 1090,-0.5"/>
<text text-anchor="middle" x="1116" y="-7.5" font-family="Helvetica,sans-Serif" font-size="10.00">cassert</text>
</a>
</g>
</g>
<!-- Node3&#45;&gt;Node6 -->
<g id="edge5" class="edge">
<title>Node3&#45;&gt;Node6</title>
<path fill="none" stroke="midnightblue" d="M1006.6,-56.44C1027.99,-47.56 1061.68,-33.56 1086.02,-23.45"/>
<polygon fill="midnightblue" stroke="midnightblue" points="1087.61,-26.58 1095.5,-19.52 1084.92,-20.12 1087.61,-26.58"/>
</g>
<!-- Node7 -->
<g id="node7" class="node">
<title>Node7</title>
<g id="a_node7"><a xlink:title=" ">
<polygon fill="white" stroke="#bfbfbf" points="880,-0.5 880,-19.5 936,-19.5 936,-0.5 880,-0.5"/>
<text text-anchor="middle" x="908" y="-7.5" font-family="Helvetica,sans-Serif" font-size="10.00">sstream</text>
</a>
</g>
</g>
<!-- Node3&#45;&gt;Node7 -->
<g id="edge6" class="edge">
<title>Node3&#45;&gt;Node7</title>
<path fill="none" stroke="midnightblue" d="M973.47,-56.32C961.41,-47.98 942.97,-35.21 928.73,-25.35"/>
<polygon fill="midnightblue" stroke="midnightblue" points="930.72,-22.47 920.5,-19.65 926.73,-28.22 930.72,-22.47"/>
</g>
<!-- Node8 -->
<g id="node8" class="node">
<title>Node8</title>
<g id="a_node8"><a xlink:title=" ">
<polygon fill="white" stroke="#bfbfbf" points="954,-0.5 954,-19.5 998,-19.5 998,-0.5 954,-0.5"/>
<text text-anchor="middle" x="976" y="-7.5" font-family="Helvetica,sans-Serif" font-size="10.00">limits</text>
</a>
</g>
</g>
<!-- Node3&#45;&gt;Node8 -->
<g id="edge7" class="edge">
<title>Node3&#45;&gt;Node8</title>
<path fill="none" stroke="midnightblue" d="M984.35,-56.08C983.02,-48.93 981.12,-38.64 979.46,-29.69"/>
<polygon fill="midnightblue" stroke="midnightblue" points="982.88,-28.95 977.62,-19.75 976,-30.22 982.88,-28.95"/>
</g>
<!-- Node9 -->
<g id="node9" class="node">
<title>Node9</title>
<g id="a_node9"><a xlink:href="sitkConfigure_8h.html" target="_top" xlink:title=" ">
<polygon fill="white" stroke="black" points="637,-0.5 637,-19.5 727,-19.5 727,-0.5 637,-0.5"/>
<text text-anchor="middle" x="682" y="-7.5" font-family="Helvetica,sans-Serif" font-size="10.00">sitkConfigure.h</text>
</a>
</g>
</g>
<!-- Node3&#45;&gt;Node9 -->
<g id="edge8" class="edge">
<title>Node3&#45;&gt;Node9</title>
<path fill="none" stroke="midnightblue" d="M948.72,-58.38C895.78,-48.97 798.45,-31.69 737.15,-20.8"/>
<polygon fill="midnightblue" stroke="midnightblue" points="737.71,-17.34 727.26,-19.04 736.49,-24.23 737.71,-17.34"/>
</g>
<!-- Node10&#45;&gt;Node2 -->
<g id="edge10" class="edge">
<title>Node10&#45;&gt;Node2</title>
<path fill="none" stroke="midnightblue" d="M940.36,-171.9C829.95,-161.58 581.43,-138.36 471.3,-128.07"/>
<polygon fill="midnightblue" stroke="midnightblue" points="471.37,-124.56 461.09,-127.12 470.72,-131.53 471.37,-124.56"/>
</g>
<!-- Node11&#45;&gt;Node2 -->
<g id="edge13" class="edge">
<title>Node11&#45;&gt;Node2</title>
<path fill="none" stroke="midnightblue" d="M628.68,-229.7C619.18,-214.75 597.86,-184.43 572,-168 541.48,-148.61 502.35,-137.33 471.04,-130.92"/>
<polygon fill="midnightblue" stroke="midnightblue" points="471.65,-127.47 461.17,-129 470.32,-134.34 471.65,-127.47"/>
</g>
<!-- Node11&#45;&gt;Node3 -->
<g id="edge12" class="edge">
<title>Node11&#45;&gt;Node3</title>
<path fill="none" stroke="midnightblue" d="M682.4,-229.97C754.86,-217.08 884.06,-193.53 893,-188 934.16,-162.54 963.93,-111.81 977.61,-84.83"/>
<polygon fill="midnightblue" stroke="midnightblue" points="980.8,-86.28 982.05,-75.76 974.51,-83.2 980.8,-86.28"/>
</g>
<!-- Node12 -->
<g id="node12" class="node">
<title>Node12</title>
<g id="a_node12"><a xlink:href="sitkExceptionObject_8h.html" target="_top" xlink:title=" ">
<polygon fill="white" stroke="black" points="620.5,-168.5 620.5,-187.5 743.5,-187.5 743.5,-168.5 620.5,-168.5"/>
<text text-anchor="middle" x="682" y="-175.5" font-family="Helvetica,sans-Serif" font-size="10.00">sitkExceptionObject.h</text>
</a>
</g>
</g>
<!-- Node11&#45;&gt;Node12 -->
<g id="edge14" class="edge">
<title>Node11&#45;&gt;Node12</title>
<path fill="none" stroke="midnightblue" d="M640.88,-229.98C648.15,-220.96 659.8,-206.52 668.84,-195.31"/>
<polygon fill="midnightblue" stroke="midnightblue" points="671.58,-197.49 675.14,-187.51 666.13,-193.09 671.58,-197.49"/>
</g>
<!-- Node13 -->
<g id="node13" class="node">
<title>Node13</title>
<g id="a_node13"><a xlink:title=" ">
<polygon fill="white" stroke="#bfbfbf" points="445.5,-168.5 445.5,-187.5 492.5,-187.5 492.5,-168.5 445.5,-168.5"/>
<text text-anchor="middle" x="469" y="-175.5" font-family="Helvetica,sans-Serif" font-size="10.00">vector</text>
</a>
</g>
</g>
<!-- Node11&#45;&gt;Node13 -->
<g id="edge17" class="edge">
<title>Node11&#45;&gt;Node13</title>
<path fill="none" stroke="midnightblue" d="M610.36,-229.98C582.06,-219.77 534.47,-202.61 502.41,-191.05"/>
<polygon fill="midnightblue" stroke="midnightblue" points="503.19,-187.61 492.6,-187.51 500.82,-194.19 503.19,-187.61"/>
</g>
<!-- Node14 -->
<g id="node14" class="node">
<title>Node14</title>
<g id="a_node14"><a xlink:title=" ">
<polygon fill="white" stroke="#bfbfbf" points="231.5,-168.5 231.5,-187.5 288.5,-187.5 288.5,-168.5 231.5,-168.5"/>
<text text-anchor="middle" x="260" y="-175.5" font-family="Helvetica,sans-Serif" font-size="10.00">ostream</text>
</a>
</g>
</g>
<!-- Node11&#45;&gt;Node14 -->
<g id="edge18" class="edge">
<title>Node11&#45;&gt;Node14</title>
<path fill="none" stroke="midnightblue" d="M566.46,-230.03C500.61,-221.4 397.44,-206.85 298.45,-187.94"/>
<polygon fill="midnightblue" stroke="midnightblue" points="299.06,-184.49 288.58,-186.04 297.74,-191.37 299.06,-184.49"/>
</g>
<!-- Node15 -->
<g id="node15" class="node">
<title>Node15</title>
<g id="a_node15"><a xlink:title=" ">
<polygon fill="white" stroke="#bfbfbf" points="510.5,-168.5 510.5,-187.5 563.5,-187.5 563.5,-168.5 510.5,-168.5"/>
<text text-anchor="middle" x="537" y="-175.5" font-family="Helvetica,sans-Serif" font-size="10.00">iterator</text>
</a>
</g>
</g>
<!-- Node11&#45;&gt;Node15 -->
<g id="edge19" class="edge">
<title>Node11&#45;&gt;Node15</title>
<path fill="none" stroke="midnightblue" d="M620.1,-229.98C604.33,-220.3 578.36,-204.37 559.65,-192.89"/>
<polygon fill="midnightblue" stroke="midnightblue" points="561.23,-189.75 550.87,-187.51 557.57,-195.72 561.23,-189.75"/>
</g>
<!-- Node12&#45;&gt;Node2 -->
<g id="edge16" class="edge">
<title>Node12&#45;&gt;Node2</title>
<path fill="none" stroke="midnightblue" d="M640.01,-168.44C593.59,-158.98 518.77,-143.74 468.76,-133.55"/>
<polygon fill="midnightblue" stroke="midnightblue" points="469.29,-130.08 458.79,-131.52 467.89,-136.94 469.29,-130.08"/>
</g>
<!-- Node12&#45;&gt;Node3 -->
<g id="edge15" class="edge">
<title>Node12&#45;&gt;Node3</title>
<path fill="none" stroke="midnightblue" d="M685.7,-168.16C692.18,-153.83 707.04,-125.74 729,-112 763.19,-90.61 874.18,-77.2 938.57,-71.02"/>
<polygon fill="midnightblue" stroke="midnightblue" points="939.24,-74.48 948.87,-70.06 938.59,-67.51 939.24,-74.48"/>
</g>
<!-- Node16&#45;&gt;Node2 -->
<g id="edge21" class="edge">
<title>Node16&#45;&gt;Node2</title>
<path fill="none" stroke="midnightblue" d="M111.96,-229.87C129.77,-214.91 168.8,-184.21 207,-168 257.53,-146.57 319.38,-134.9 362.83,-128.86"/>
<polygon fill="midnightblue" stroke="midnightblue" points="363.46,-132.31 372.91,-127.51 362.53,-125.37 363.46,-132.31"/>
</g>
<!-- Node16&#45;&gt;Node14 -->
<g id="edge22" class="edge">
<title>Node16&#45;&gt;Node14</title>
<path fill="none" stroke="midnightblue" d="M124.64,-229.98C151.74,-219.77 197.31,-202.61 228,-191.05"/>
<polygon fill="midnightblue" stroke="midnightblue" points="229.28,-194.31 237.4,-187.51 226.81,-187.76 229.28,-194.31"/>
</g>
<!-- Node17&#45;&gt;Node2 -->
<g id="edge24" class="edge">
<title>Node17&#45;&gt;Node2</title>
<path fill="none" stroke="midnightblue" d="M539.4,-347.24C532.47,-324.96 511.91,-264.94 480,-224 464.47,-204.07 449.95,-209.07 436,-188 426.77,-174.06 421.93,-155.55 419.46,-141.85"/>
<polygon fill="midnightblue" stroke="midnightblue" points="422.87,-141.03 417.88,-131.68 415.95,-142.1 422.87,-141.03"/>
</g>
<!-- Node17&#45;&gt;Node11 -->
<g id="edge25" class="edge">
<title>Node17&#45;&gt;Node11</title>
<path fill="none" stroke="midnightblue" d="M579.4,-347.5C598.92,-340.98 621.15,-329.78 633,-311 642.68,-295.66 641.49,-274.45 638.77,-259.31"/>
<polygon fill="midnightblue" stroke="midnightblue" points="642.09,-258.14 636.54,-249.11 635.25,-259.63 642.09,-258.14"/>
</g>
<!-- Node17&#45;&gt;Node13 -->
<g id="edge55" class="edge">
<title>Node17&#45;&gt;Node13</title>
<path fill="none" stroke="midnightblue" d="M541.84,-347.4C541.08,-325.46 536.91,-266.21 514,-224 507.79,-212.55 497.75,-202.1 488.73,-194.16"/>
<polygon fill="midnightblue" stroke="midnightblue" points="490.8,-191.33 480.87,-187.62 486.32,-196.71 490.8,-191.33"/>
</g>
<!-- Node18 -->
<g id="node18" class="node">
<title>Node18</title>
<g id="a_node18"><a xlink:href="sitkDetail_8h.html" target="_top" xlink:title=" ">
<polygon fill="white" stroke="black" points="1154.5,-291.5 1154.5,-310.5 1227.5,-310.5 1227.5,-291.5 1154.5,-291.5"/>
<text text-anchor="middle" x="1191" y="-298.5" font-family="Helvetica,sans-Serif" font-size="10.00">sitkDetail.h</text>
</a>
</g>
</g>
<!-- Node17&#45;&gt;Node18 -->
<g id="edge26" class="edge">
<title>Node17&#45;&gt;Node18</title>
<path fill="none" stroke="midnightblue" d="M579.22,-352.9C690.58,-343.64 1021.02,-316.14 1144.11,-305.9"/>
<polygon fill="midnightblue" stroke="midnightblue" points="1144.65,-309.37 1154.33,-305.05 1144.07,-302.39 1144.65,-309.37"/>
</g>
<!-- Node28 -->
<g id="node28" class="node">
<title>Node28</title>
<g id="a_node28"><a xlink:href="sitkPixelIDTokens_8h.html" target="_top" xlink:title=" ">
<polygon fill="white" stroke="black" points="287,-291.5 287,-310.5 397,-310.5 397,-291.5 287,-291.5"/>
<text text-anchor="middle" x="342" y="-298.5" font-family="Helvetica,sans-Serif" font-size="10.00">sitkPixelIDTokens.h</text>
</a>
</g>
</g>
<!-- Node17&#45;&gt;Node28 -->
<g id="edge44" class="edge">
<title>Node17&#45;&gt;Node28</title>
<path fill="none" stroke="midnightblue" d="M510.31,-347.44C475.93,-338.16 420.92,-323.31 383.21,-313.13"/>
<polygon fill="midnightblue" stroke="midnightblue" points="384.11,-309.74 373.54,-310.52 382.28,-316.5 384.11,-309.74"/>
</g>
<!-- Node31 -->
<g id="node31" class="node">
<title>Node31</title>
<g id="a_node31"><a xlink:title=" ">
<polygon fill="white" stroke="#bfbfbf" points="402.5,-230 402.5,-249 471.5,-249 471.5,-230 402.5,-230"/>
<text text-anchor="middle" x="437" y="-237" font-family="Helvetica,sans-Serif" font-size="10.00">type_traits</text>
</a>
</g>
</g>
<!-- Node17&#45;&gt;Node31 -->
<g id="edge57" class="edge">
<title>Node17&#45;&gt;Node31</title>
<path fill="none" stroke="midnightblue" d="M529.12,-347.28C517.16,-338.83 499.27,-325.23 486,-311 470.65,-294.55 456.37,-272.99 447.23,-258.06"/>
<polygon fill="midnightblue" stroke="midnightblue" points="450.15,-256.12 442.01,-249.33 444.14,-259.71 450.15,-256.12"/>
</g>
<!-- Node32 -->
<g id="node32" class="node">
<title>Node32</title>
<g id="a_node32"><a xlink:href="sitkInterpolator_8h.html" target="_top" xlink:title=" ">
<polygon fill="white" stroke="black" points="156,-230 156,-249 256,-249 256,-230 156,-230"/>
<text text-anchor="middle" x="206" y="-237" font-family="Helvetica,sans-Serif" font-size="10.00">sitkInterpolator.h</text>
</a>
</g>
</g>
<!-- Node17&#45;&gt;Node32 -->
<g id="edge52" class="edge">
<title>Node17&#45;&gt;Node32</title>
<path fill="none" stroke="midnightblue" d="M504.84,-356.5C451.67,-355.76 352.13,-348.83 278,-311 253.02,-298.25 231.09,-273.82 218.19,-257.34"/>
<polygon fill="midnightblue" stroke="midnightblue" points="220.8,-255 211.99,-249.13 215.22,-259.22 220.8,-255"/>
</g>
<!-- Node33 -->
<g id="node33" class="node">
<title>Node33</title>
<g id="a_node33"><a xlink:title=" ">
<polygon fill="white" stroke="#bfbfbf" points="566,-291.5 566,-310.5 624,-310.5 624,-291.5 566,-291.5"/>
<text text-anchor="middle" x="595" y="-298.5" font-family="Helvetica,sans-Serif" font-size="10.00">memory</text>
</a>
</g>
</g>
<!-- Node17&#45;&gt;Node33 -->
<g id="edge56" class="edge">
<title>Node17&#45;&gt;Node33</title>
<path fill="none" stroke="midnightblue" d="M550.75,-347.08C558.47,-339.22 569.9,-327.57 579.22,-318.08"/>
<polygon fill="midnightblue" stroke="midnightblue" points="581.9,-320.34 586.41,-310.75 576.91,-315.44 581.9,-320.34"/>
</g>
<!-- Node19 -->
<g id="node19" class="node">
<title>Node19</title>
<g id="a_node19"><a xlink:href="sitkMemberFunctionFactoryBase_8h.html" target="_top" xlink:title=" ">
<polygon fill="white" stroke="black" points="1115,-224.5 1115,-254.5 1267,-254.5 1267,-224.5 1115,-224.5"/>
<text text-anchor="start" x="1123" y="-242.5" font-family="Helvetica,sans-Serif" font-size="10.00">sitkMemberFunctionFactory</text>
<text text-anchor="middle" x="1191" y="-231.5" font-family="Helvetica,sans-Serif" font-size="10.00">Base.h</text>
</a>
</g>
</g>
<!-- Node18&#45;&gt;Node19 -->
<g id="edge27" class="edge">
<title>Node18&#45;&gt;Node19</title>
<path fill="none" stroke="midnightblue" d="M1191,-291.48C1191,-284.47 1191,-274.19 1191,-264.7"/>
<polygon fill="midnightblue" stroke="midnightblue" points="1194.5,-264.52 1191,-254.52 1187.5,-264.52 1194.5,-264.52"/>
</g>
<!-- Node24 -->
<g id="node24" class="node">
<title>Node24</title>
<g id="a_node24"><a xlink:title=" ">
<polygon fill="white" stroke="#bfbfbf" points="1474.5,-168.5 1474.5,-187.5 1613.5,-187.5 1613.5,-168.5 1474.5,-168.5"/>
<text text-anchor="middle" x="1544" y="-175.5" font-family="Helvetica,sans-Serif" font-size="10.00">Ancillary/FunctionTraits.h</text>
</a>
</g>
</g>
<!-- Node18&#45;&gt;Node24 -->
<g id="edge43" class="edge">
<title>Node18&#45;&gt;Node24</title>
<path fill="none" stroke="midnightblue" d="M1215.82,-291.49C1277.45,-270.37 1437.59,-215.47 1508.88,-191.04"/>
<polygon fill="midnightblue" stroke="midnightblue" points="1510.41,-194.21 1518.73,-187.66 1508.14,-187.59 1510.41,-194.21"/>
</g>
<!-- Node19&#45;&gt;Node3 -->
<g id="edge36" class="edge">
<title>Node19&#45;&gt;Node3</title>
<path fill="none" stroke="midnightblue" d="M1186.42,-224.39C1176.57,-194.81 1152.82,-127.74 1135,-112 1106.86,-87.14 1065.37,-76.01 1033.31,-71.03"/>
<polygon fill="midnightblue" stroke="midnightblue" points="1033.65,-67.54 1023.26,-69.62 1032.68,-74.47 1033.65,-67.54"/>
</g>
<!-- Node19&#45;&gt;Node9 -->
<g id="edge28" class="edge">
<title>Node19&#45;&gt;Node9</title>
<path fill="none" stroke="midnightblue" d="M1174,-224.35C1154.94,-208.99 1122.68,-184.45 1092,-168 1056.92,-149.19 806.04,-56.52 714.94,-23.07"/>
<polygon fill="midnightblue" stroke="midnightblue" points="715.99,-19.72 705.39,-19.56 713.57,-26.29 715.99,-19.72"/>
</g>
<!-- Node19&#45;&gt;Node10 -->
<g id="edge37" class="edge">
<title>Node19&#45;&gt;Node10</title>
<path fill="none" stroke="midnightblue" d="M1144.55,-224.4C1110.54,-214.07 1064.94,-200.23 1033.07,-190.56"/>
<polygon fill="midnightblue" stroke="midnightblue" points="1033.82,-187.13 1023.23,-187.57 1031.79,-193.82 1033.82,-187.13"/>
</g>
<!-- Node20 -->
<g id="node20" class="node">
<title>Node20</title>
<g id="a_node20"><a xlink:href="sitkPixelIDTypes_8h.html" target="_top" xlink:title=" ">
<polygon fill="white" stroke="black" points="814.5,-112.5 814.5,-131.5 919.5,-131.5 919.5,-112.5 814.5,-112.5"/>
<text text-anchor="middle" x="867" y="-119.5" font-family="Helvetica,sans-Serif" font-size="10.00">sitkPixelIDTypes.h</text>
</a>
</g>
</g>
<!-- Node19&#45;&gt;Node20 -->
<g id="edge29" class="edge">
<title>Node19&#45;&gt;Node20</title>
<path fill="none" stroke="midnightblue" d="M1166.38,-224.36C1134.45,-206.19 1080.33,-176.04 1059,-168 1017.09,-152.21 967.88,-140.8 929.77,-133.43"/>
<polygon fill="midnightblue" stroke="midnightblue" points="930.31,-129.97 919.84,-131.55 929.01,-136.85 930.31,-129.97"/>
</g>
<!-- Node21 -->
<g id="node21" class="node">
<title>Node21</title>
<g id="a_node21"><a xlink:href="sitkPixelIDTypeLists_8h.html" target="_top" xlink:title=" ">
<polygon fill="white" stroke="black" points="762,-168.5 762,-187.5 884,-187.5 884,-168.5 762,-168.5"/>
<text text-anchor="middle" x="823" y="-175.5" font-family="Helvetica,sans-Serif" font-size="10.00">sitkPixelIDTypeLists.h</text>
</a>
</g>
</g>
<!-- Node19&#45;&gt;Node21 -->
<g id="edge30" class="edge">
<title>Node19&#45;&gt;Node21</title>
<path fill="none" stroke="midnightblue" d="M1114.75,-226.17C1047.05,-215.22 949.29,-199.42 885.94,-189.18"/>
<polygon fill="midnightblue" stroke="midnightblue" points="886.13,-185.66 875.7,-187.52 885.01,-192.57 886.13,-185.66"/>
</g>
<!-- Node22 -->
<g id="node22" class="node">
<title>Node22</title>
<g id="a_node22"><a xlink:title=" ">
<polygon fill="white" stroke="#bfbfbf" points="1014.5,-112.5 1014.5,-131.5 1125.5,-131.5 1125.5,-112.5 1014.5,-112.5"/>
<text text-anchor="middle" x="1070" y="-119.5" font-family="Helvetica,sans-Serif" font-size="10.00">Ancillary/TypeList.h</text>
</a>
</g>
</g>
<!-- Node19&#45;&gt;Node22 -->
<g id="edge38" class="edge">
<title>Node19&#45;&gt;Node22</title>
<path fill="none" stroke="midnightblue" d="M1267.02,-238.51C1353.11,-235.95 1475.51,-223 1427,-168 1408.09,-146.56 1233.75,-132.78 1135.88,-126.66"/>
<polygon fill="midnightblue" stroke="midnightblue" points="1135.99,-123.16 1125.79,-126.04 1135.56,-130.15 1135.99,-123.16"/>
</g>
<!-- Node19&#45;&gt;Node24 -->
<g id="edge39" class="edge">
<title>Node19&#45;&gt;Node24</title>
<path fill="none" stroke="midnightblue" d="M1267.16,-225.66C1331.92,-214.75 1423.67,-199.28 1483.5,-189.2"/>
<polygon fill="midnightblue" stroke="midnightblue" points="1484.27,-192.62 1493.55,-187.5 1483.11,-185.71 1484.27,-192.62"/>
</g>
<!-- Node25 -->
<g id="node25" class="node">
<title>Node25</title>
<g id="a_node25"><a xlink:title=" ">
<polygon fill="white" stroke="#bfbfbf" points="1182.5,-168.5 1182.5,-187.5 1275.5,-187.5 1275.5,-168.5 1182.5,-168.5"/>
<text text-anchor="middle" x="1229" y="-175.5" font-family="Helvetica,sans-Serif" font-size="10.00">unordered_map</text>
</a>
</g>
</g>
<!-- Node19&#45;&gt;Node25 -->
<g id="edge40" class="edge">
<title>Node19&#45;&gt;Node25</title>
<path fill="none" stroke="midnightblue" d="M1200.01,-224.4C1205.41,-215.93 1212.33,-205.1 1218.05,-196.14"/>
<polygon fill="midnightblue" stroke="midnightblue" points="1221.04,-197.97 1223.47,-187.66 1215.14,-194.2 1221.04,-197.97"/>
</g>
<!-- Node26 -->
<g id="node26" class="node">
<title>Node26</title>
<g id="a_node26"><a xlink:title=" ">
<polygon fill="white" stroke="#bfbfbf" points="1293.5,-168.5 1293.5,-187.5 1358.5,-187.5 1358.5,-168.5 1293.5,-168.5"/>
<text text-anchor="middle" x="1326" y="-175.5" font-family="Helvetica,sans-Serif" font-size="10.00">functional</text>
</a>
</g>
</g>
<!-- Node19&#45;&gt;Node26 -->
<g id="edge41" class="edge">
<title>Node19&#45;&gt;Node26</title>
<path fill="none" stroke="midnightblue" d="M1222.99,-224.4C1245.44,-214.51 1275.21,-201.38 1296.98,-191.79"/>
<polygon fill="midnightblue" stroke="midnightblue" points="1298.62,-194.89 1306.36,-187.66 1295.79,-188.49 1298.62,-194.89"/>
</g>
<!-- Node27 -->
<g id="node27" class="node">
<title>Node27</title>
<g id="a_node27"><a xlink:title=" ">
<polygon fill="white" stroke="#bfbfbf" points="1376.5,-168.5 1376.5,-187.5 1417.5,-187.5 1417.5,-168.5 1376.5,-168.5"/>
<text text-anchor="middle" x="1397" y="-175.5" font-family="Helvetica,sans-Serif" font-size="10.00">tuple</text>
</a>
</g>
</g>
<!-- Node19&#45;&gt;Node27 -->
<g id="edge42" class="edge">
<title>Node19&#45;&gt;Node27</title>
<path fill="none" stroke="midnightblue" d="M1241.44,-224.44C1274.62,-215.12 1319.23,-202.44 1366.6,-188.38"/>
<polygon fill="midnightblue" stroke="midnightblue" points="1367.84,-191.66 1376.42,-185.45 1365.84,-184.95 1367.84,-191.66"/>
</g>
<!-- Node21&#45;&gt;Node4 -->
<g id="edge31" class="edge">
<title>Node21&#45;&gt;Node4</title>
<path fill="none" stroke="midnightblue" d="M782.85,-168.43C763.03,-161.95 740.86,-150.83 729,-132 703.98,-92.29 758.04,-47.59 791,-25.28"/>
<polygon fill="midnightblue" stroke="midnightblue" points="793.21,-28.01 799.65,-19.6 789.37,-22.16 793.21,-28.01"/>
</g>
<!-- Node21&#45;&gt;Node9 -->
<g id="edge32" class="edge">
<title>Node21&#45;&gt;Node9</title>
<path fill="none" stroke="midnightblue" d="M782.39,-168.49C760.52,-161.94 734.68,-150.74 718,-132 692.1,-102.91 684.81,-55.9 682.77,-29.87"/>
<polygon fill="midnightblue" stroke="midnightblue" points="686.26,-29.59 682.17,-19.82 679.28,-30.01 686.26,-29.59"/>
</g>
<!-- Node21&#45;&gt;Node20 -->
<g id="edge33" class="edge">
<title>Node21&#45;&gt;Node20</title>
<path fill="none" stroke="midnightblue" d="M830.27,-168.08C836.54,-160.38 845.79,-149.03 853.43,-139.65"/>
<polygon fill="midnightblue" stroke="midnightblue" points="856.27,-141.71 859.87,-131.75 850.84,-137.29 856.27,-141.71"/>
</g>
<!-- Node21&#45;&gt;Node22 -->
<g id="edge34" class="edge">
<title>Node21&#45;&gt;Node22</title>
<path fill="none" stroke="midnightblue" d="M862.14,-168.44C905.23,-159.02 974.56,-143.87 1021.17,-133.68"/>
<polygon fill="midnightblue" stroke="midnightblue" points="1022.02,-137.07 1031.05,-131.52 1020.53,-130.23 1022.02,-137.07"/>
</g>
<!-- Node23 -->
<g id="node23" class="node">
<title>Node23</title>
<g id="a_node23"><a xlink:title=" ">
<polygon fill="white" stroke="#bfbfbf" points="737.5,-112.5 737.5,-131.5 796.5,-131.5 796.5,-112.5 737.5,-112.5"/>
<text text-anchor="middle" x="767" y="-119.5" font-family="Helvetica,sans-Serif" font-size="10.00">complex</text>
</a>
</g>
</g>
<!-- Node21&#45;&gt;Node23 -->
<g id="edge35" class="edge">
<title>Node21&#45;&gt;Node23</title>
<path fill="none" stroke="midnightblue" d="M814,-168.32C805.81,-160.42 793.49,-148.55 783.53,-138.94"/>
<polygon fill="midnightblue" stroke="midnightblue" points="785.79,-136.26 776.16,-131.83 780.93,-141.29 785.79,-136.26"/>
</g>
<!-- Node28&#45;&gt;Node9 -->
<g id="edge45" class="edge">
<title>Node28&#45;&gt;Node9</title>
<path fill="none" stroke="midnightblue" d="M286.98,-298.35C213.77,-295.01 89.75,-284.97 57,-255 31.32,-231.49 38,-213.82 38,-179 38,-179 38,-179 38,-121 38,-61.51 470.55,-25.65 626.66,-14.64"/>
<polygon fill="midnightblue" stroke="midnightblue" points="627.24,-18.11 636.97,-13.92 626.75,-11.13 627.24,-18.11"/>
</g>
<!-- Node29 -->
<g id="node29" class="node">
<title>Node29</title>
<g id="a_node29"><a xlink:href="sitkPixelIDValues_8h.html" target="_top" xlink:title=" ">
<polygon fill="white" stroke="black" points="274,-230 274,-249 384,-249 384,-230 274,-230"/>
<text text-anchor="middle" x="329" y="-237" font-family="Helvetica,sans-Serif" font-size="10.00">sitkPixelIDValues.h</text>
</a>
</g>
</g>
<!-- Node28&#45;&gt;Node29 -->
<g id="edge46" class="edge">
<title>Node28&#45;&gt;Node29</title>
<path fill="none" stroke="midnightblue" d="M340.14,-291.48C338.28,-282.99 335.38,-269.7 333,-258.82"/>
<polygon fill="midnightblue" stroke="midnightblue" points="336.41,-258.03 330.86,-249.01 329.57,-259.53 336.41,-258.03"/>
</g>
<!-- Node28&#45;&gt;Node31 -->
<g id="edge51" class="edge">
<title>Node28&#45;&gt;Node31</title>
<path fill="none" stroke="midnightblue" d="M355.61,-291.48C371.06,-281.8 396.49,-265.87 414.82,-254.39"/>
<polygon fill="midnightblue" stroke="midnightblue" points="416.8,-257.28 423.41,-249.01 413.08,-251.35 416.8,-257.28"/>
</g>
<!-- Node29&#45;&gt;Node2 -->
<g id="edge47" class="edge">
<title>Node29&#45;&gt;Node2</title>
<path fill="none" stroke="midnightblue" d="M335.61,-229.82C350.14,-210.76 385.04,-164.95 404.08,-139.96"/>
<polygon fill="midnightblue" stroke="midnightblue" points="407.03,-141.86 410.31,-131.78 401.46,-137.62 407.03,-141.86"/>
</g>
<!-- Node29&#45;&gt;Node14 -->
<g id="edge50" class="edge">
<title>Node29&#45;&gt;Node14</title>
<path fill="none" stroke="midnightblue" d="M319.11,-229.98C308.35,-220.7 290.93,-205.67 277.78,-194.33"/>
<polygon fill="midnightblue" stroke="midnightblue" points="279.73,-191.39 269.87,-187.51 275.16,-196.69 279.73,-191.39"/>
</g>
<!-- Node29&#45;&gt;Node21 -->
<g id="edge48" class="edge">
<title>Node29&#45;&gt;Node21</title>
<path fill="none" stroke="midnightblue" d="M363.06,-229.97C372.69,-227.78 383.22,-225.59 393,-224 548.46,-198.72 591.49,-205.94 751.71,-188.11"/>
<polygon fill="midnightblue" stroke="midnightblue" points="752.38,-191.55 761.93,-186.95 751.6,-184.6 752.38,-191.55"/>
</g>
<!-- Node30 -->
<g id="node30" class="node">
<title>Node30</title>
<g id="a_node30"><a xlink:title=" ">
<polygon fill="white" stroke="#bfbfbf" points="307,-168.5 307,-187.5 351,-187.5 351,-168.5 307,-168.5"/>
<text text-anchor="middle" x="329" y="-175.5" font-family="Helvetica,sans-Serif" font-size="10.00">string</text>
</a>
</g>
</g>
<!-- Node29&#45;&gt;Node30 -->
<g id="edge49" class="edge">
<title>Node29&#45;&gt;Node30</title>
<path fill="none" stroke="midnightblue" d="M329,-229.98C329,-221.58 329,-208.48 329,-197.66"/>
<polygon fill="midnightblue" stroke="midnightblue" points="332.5,-197.51 329,-187.51 325.5,-197.51 332.5,-197.51"/>
</g>
<!-- Node32&#45;&gt;Node2 -->
<g id="edge53" class="edge">
<title>Node32&#45;&gt;Node2</title>
<path fill="none" stroke="midnightblue" d="M205.26,-229.76C204.52,-214.9 205.35,-184.71 222,-168 241.5,-148.43 312.03,-135.81 362.67,-129.05"/>
<polygon fill="midnightblue" stroke="midnightblue" points="363.35,-132.49 372.82,-127.74 362.46,-125.55 363.35,-132.49"/>
</g>
<!-- Node32&#45;&gt;Node14 -->
<g id="edge54" class="edge">
<title>Node32&#45;&gt;Node14</title>
<path fill="none" stroke="midnightblue" d="M213.74,-229.98C222,-220.87 235.28,-206.24 245.49,-194.98"/>
<polygon fill="midnightblue" stroke="midnightblue" points="248.15,-197.27 252.28,-187.51 242.97,-192.56 248.15,-197.27"/>
</g>
<!-- Node34&#45;&gt;Node17 -->
<g id="edge59" class="edge">
<title>Node34&#45;&gt;Node17</title>
<path fill="none" stroke="midnightblue" d="M547.84,-403.08C546.92,-395.93 545.58,-385.64 544.42,-376.69"/>
<polygon fill="midnightblue" stroke="midnightblue" points="547.89,-376.22 543.13,-366.75 540.95,-377.12 547.89,-376.22"/>
</g>
</g>
</svg>
