<?xml version="1.0" encoding="UTF-8" standalone="no"?>
<!DOCTYPE svg PUBLIC "-//W3C//DTD SVG 1.1//EN"
 "http://www.w3.org/Graphics/SVG/1.1/DTD/svg11.dtd">
<!-- Generated by graphviz version 2.43.0 (0)
 -->
<!-- Title: sitkKernel.h Pages: 1 -->
<!--zoomable 151 -->
<svg id="main" version="1.1" xmlns="http://www.w3.org/2000/svg" xmlns:xlink="http://www.w3.org/1999/xlink" xml:space="preserve" onload="init(evt)">
<style type="text/css"><![CDATA[
.edge:hover path { stroke: red; }
.edge:hover polygon { stroke: red; fill: red; }
]]></style>
<script type="text/javascript"><![CDATA[
var edges = document.getElementsByTagName('g');
if (edges && edges.length) {
  for (var i=0;i<edges.length;i++) {
    if (edges[i].id.substr(0,4)=='edge') {
      edges[i].setAttribute('class','edge');
    }
  }
}
]]></script>
        <defs>
                <circle id="rim" cx="0" cy="0" r="7"/>
                <circle id="rim2" cx="0" cy="0" r="3.5"/>
                <g id="zoomPlus">
                        <use xlink:href="#rim" fill="#404040">
                                <set attributeName="fill" to="#808080" begin="zoomplus.mouseover" end="zoomplus.mouseout"/>
                        </use>
                        <path d="M-4,0h8M0,-4v8" fill="none" stroke="white" stroke-width="1.5" pointer-events="none"/>
                </g>
                <g id="zoomMin">
                        <use xlink:href="#rim" fill="#404040">
                                <set attributeName="fill" to="#808080" begin="zoomminus.mouseover" end="zoomminus.mouseout"/>
                        </use>
                        <path d="M-4,0h8" fill="none" stroke="white" stroke-width="1.5" pointer-events="none"/>
                </g>
                <g id="dirArrow">
                        <path fill="none" stroke="white" stroke-width="1.5" d="M0,-3.0v7 M-2.5,-0.5L0,-3.0L2.5,-0.5"/>
                </g>
               <g id="resetDef">
                       <use xlink:href="#rim2" fill="#404040">
                               <set attributeName="fill" to="#808080" begin="reset.mouseover" end="reset.mouseout"/>
                       </use>
               </g>
        </defs>

<script type="text/javascript">
var viewWidth = 8014;
var viewHeight = 151;
var sectionId = 'dynsection-1';
</script>
<script xlink:href="svgpan.js"/>
<svg id="graph" class="graph">
<g id="viewport">
<title>sitkKernel.h</title>
<polygon fill="white" stroke="transparent" points="-4,4 -4,-147 8010,-147 8010,4 -4,4"/>
<!-- Node1 -->
<g id="node1" class="node">
<title>Node1</title>
<g id="a_node1"><a xlink:title=" ">
<polygon fill="#bfbfbf" stroke="black" points="3906,-123.5 3906,-142.5 3980,-142.5 3980,-123.5 3906,-123.5"/>
<text text-anchor="middle" x="3943" y="-130.5" font-family="Helvetica,sans-Serif" font-size="10.00">sitkKernel.h</text>
</a>
</g>
</g>
<!-- Node2 -->
<g id="node2" class="node">
<title>Node2</title>
<g id="a_node2"><a xlink:href="sitkBasicFilters_8h.html" target="_top" xlink:title=" ">
<polygon fill="white" stroke="red" points="3832,-67.5 3832,-86.5 3932,-86.5 3932,-67.5 3832,-67.5"/>
<text text-anchor="middle" x="3882" y="-74.5" font-family="Helvetica,sans-Serif" font-size="10.00">sitkBasicFilters.h</text>
</a>
</g>
</g>
<!-- Node1&#45;&gt;Node2 -->
<g id="edge1" class="edge">
<title>Node1&#45;&gt;Node2</title>
<path fill="none" stroke="midnightblue" d="M3925.53,-116.54C3914.66,-106.91 3901.06,-94.87 3891.98,-86.83"/>
<polygon fill="midnightblue" stroke="midnightblue" points="3923.39,-119.32 3933.2,-123.32 3928.03,-114.07 3923.39,-119.32"/>
</g>
<!-- Node307 -->
<g id="node50" class="node">
<title>Node307</title>
<g id="a_node50"><a xlink:href="sitkCreateKernel_8h.html" target="_top" xlink:title=" ">
<polygon fill="white" stroke="black" points="3950.5,-67.5 3950.5,-86.5 4057.5,-86.5 4057.5,-67.5 3950.5,-67.5"/>
<text text-anchor="middle" x="4004" y="-74.5" font-family="Helvetica,sans-Serif" font-size="10.00">sitkCreateKernel.h</text>
</a>
</g>
</g>
<!-- Node1&#45;&gt;Node307 -->
<g id="edge49" class="edge">
<title>Node1&#45;&gt;Node307</title>
<path fill="none" stroke="midnightblue" d="M3960.47,-116.54C3971.34,-106.91 3984.94,-94.87 3994.02,-86.83"/>
<polygon fill="midnightblue" stroke="midnightblue" points="3957.97,-114.07 3952.8,-123.32 3962.61,-119.32 3957.97,-114.07"/>
</g>
<!-- Node3 -->
<g id="node3" class="node">
<title>Node3</title>
<g id="a_node3"><a xlink:href="sitkAbsImageFilter_8h.html" target="_top" xlink:title=" ">
<polygon fill="white" stroke="red" points="0,-6 0,-25 116,-25 116,-6 0,-6"/>
<text text-anchor="middle" x="58" y="-13" font-family="Helvetica,sans-Serif" font-size="10.00">sitkAbsImageFilter.h</text>
</a>
</g>
</g>
<!-- Node2&#45;&gt;Node3 -->
<g id="edge2" class="edge">
<title>Node2&#45;&gt;Node3</title>
<path fill="none" stroke="midnightblue" d="M3821.4,-76.01C3367.51,-75.99 506.75,-74.15 125,-31 113.88,-29.74 101.9,-27.45 91.18,-25.06"/>
<polygon fill="midnightblue" stroke="midnightblue" points="3821.67,-79.51 3831.67,-76.01 3821.67,-72.51 3821.67,-79.51"/>
</g>
<!-- Node6 -->
<g id="node4" class="node">
<title>Node6</title>
<g id="a_node4"><a xlink:href="sitkAbsoluteValueDifferenceImageFilter_8h.html" target="_top" xlink:title=" ">
<polygon fill="white" stroke="red" points="134.5,-0.5 134.5,-30.5 289.5,-30.5 289.5,-0.5 134.5,-0.5"/>
<text text-anchor="start" x="142.5" y="-18.5" font-family="Helvetica,sans-Serif" font-size="10.00">sitkAbsoluteValueDifference</text>
<text text-anchor="middle" x="212" y="-7.5" font-family="Helvetica,sans-Serif" font-size="10.00">ImageFilter.h</text>
</a>
</g>
</g>
<!-- Node2&#45;&gt;Node6 -->
<g id="edge3" class="edge">
<title>Node2&#45;&gt;Node6</title>
<path fill="none" stroke="midnightblue" d="M3821.48,-75.8C3380.09,-74.25 663.18,-63.44 299,-31 295.95,-30.73 292.84,-30.41 289.71,-30.06"/>
<polygon fill="midnightblue" stroke="midnightblue" points="3821.77,-79.3 3831.79,-75.83 3821.8,-72.3 3821.77,-79.3"/>
</g>
<!-- Node7 -->
<g id="node5" class="node">
<title>Node7</title>
<g id="a_node5"><a xlink:href="sitkAcosImageFilter_8h.html" target="_top" xlink:title=" ">
<polygon fill="white" stroke="red" points="308,-6 308,-25 430,-25 430,-6 308,-6"/>
<text text-anchor="middle" x="369" y="-13" font-family="Helvetica,sans-Serif" font-size="10.00">sitkAcosImageFilter.h</text>
</a>
</g>
</g>
<!-- Node2&#45;&gt;Node7 -->
<g id="edge4" class="edge">
<title>Node2&#45;&gt;Node7</title>
<path fill="none" stroke="midnightblue" d="M3821.81,-75.91C3391.33,-75.15 787.71,-69.04 439,-31 427.4,-29.73 414.88,-27.44 403.68,-25.05"/>
<polygon fill="midnightblue" stroke="midnightblue" points="3821.86,-79.41 3831.86,-75.92 3821.87,-72.41 3821.86,-79.41"/>
</g>
<!-- Node8 -->
<g id="node6" class="node">
<title>Node8</title>
<g id="a_node6"><a xlink:href="sitkAdaptiveHistogramEqualizationImageFilter_8h.html" target="_top" xlink:title=" ">
<polygon fill="white" stroke="red" points="448.5,-0.5 448.5,-30.5 637.5,-30.5 637.5,-0.5 448.5,-0.5"/>
<text text-anchor="start" x="456.5" y="-18.5" font-family="Helvetica,sans-Serif" font-size="10.00">sitkAdaptiveHistogramEqualization</text>
<text text-anchor="middle" x="543" y="-7.5" font-family="Helvetica,sans-Serif" font-size="10.00">ImageFilter.h</text>
</a>
</g>
</g>
<!-- Node2&#45;&gt;Node8 -->
<g id="edge5" class="edge">
<title>Node2&#45;&gt;Node8</title>
<path fill="none" stroke="midnightblue" d="M3821.69,-76.2C3434.82,-77.33 1297.25,-81.17 646,-31 643.21,-30.79 640.38,-30.54 637.52,-30.28"/>
<polygon fill="midnightblue" stroke="midnightblue" points="3821.84,-79.7 3831.83,-76.17 3821.82,-72.7 3821.84,-79.7"/>
</g>
<!-- Node9 -->
<g id="node7" class="node">
<title>Node9</title>
<g id="a_node7"><a xlink:href="sitkAddImageFilter_8h.html" target="_top" xlink:title=" ">
<polygon fill="white" stroke="red" points="655.5,-6 655.5,-25 772.5,-25 772.5,-6 655.5,-6"/>
<text text-anchor="middle" x="714" y="-13" font-family="Helvetica,sans-Serif" font-size="10.00">sitkAddImageFilter.h</text>
</a>
</g>
</g>
<!-- Node2&#45;&gt;Node9 -->
<g id="edge6" class="edge">
<title>Node2&#45;&gt;Node9</title>
<path fill="none" stroke="midnightblue" d="M3821.84,-75.85C3416.74,-74.72 1093.34,-66.7 781,-31 769.89,-29.73 757.9,-27.44 747.18,-25.04"/>
<polygon fill="midnightblue" stroke="midnightblue" points="3821.88,-79.35 3831.89,-75.87 3821.9,-72.35 3821.88,-79.35"/>
</g>
<!-- Node11 -->
<g id="node8" class="node">
<title>Node11</title>
<g id="a_node8"><a xlink:href="sitkAdditionalProcedures_8h.html" target="_top" xlink:title=" ">
<polygon fill="white" stroke="red" points="790.5,-6 790.5,-25 937.5,-25 937.5,-6 790.5,-6"/>
<text text-anchor="middle" x="864" y="-13" font-family="Helvetica,sans-Serif" font-size="10.00">sitkAdditionalProcedures.h</text>
</a>
</g>
</g>
<!-- Node2&#45;&gt;Node11 -->
<g id="edge7" class="edge">
<title>Node2&#45;&gt;Node11</title>
<path fill="none" stroke="midnightblue" d="M3821.7,-75.65C3429.02,-73.28 1242.37,-58.89 947,-31 933.31,-29.71 918.48,-27.41 905.2,-25.02"/>
<polygon fill="midnightblue" stroke="midnightblue" points="3821.7,-79.15 3831.72,-75.71 3821.74,-72.15 3821.7,-79.15"/>
</g>
<!-- Node13 -->
<g id="node9" class="node">
<title>Node13</title>
<g id="a_node9"><a xlink:href="sitkAdditiveGaussianNoiseImageFilter_8h.html" target="_top" xlink:title=" ">
<polygon fill="white" stroke="red" points="956,-0.5 956,-30.5 1104,-30.5 1104,-0.5 956,-0.5"/>
<text text-anchor="start" x="964" y="-18.5" font-family="Helvetica,sans-Serif" font-size="10.00">sitkAdditiveGaussianNoise</text>
<text text-anchor="middle" x="1030" y="-7.5" font-family="Helvetica,sans-Serif" font-size="10.00">ImageFilter.h</text>
</a>
</g>
</g>
<!-- Node2&#45;&gt;Node13 -->
<g id="edge8" class="edge">
<title>Node2&#45;&gt;Node13</title>
<path fill="none" stroke="midnightblue" d="M3821.56,-75.59C3441.65,-72.92 1390.78,-57.36 1113,-31 1110.09,-30.72 1107.12,-30.4 1104.13,-30.04"/>
<polygon fill="midnightblue" stroke="midnightblue" points="3821.76,-79.09 3831.79,-75.66 3821.81,-72.09 3821.76,-79.09"/>
</g>
<!-- Node14 -->
<g id="node10" class="node">
<title>Node14</title>
<g id="a_node10"><a xlink:href="sitkAggregateLabelMapFilter_8h.html" target="_top" xlink:title=" ">
<polygon fill="white" stroke="red" points="1122.5,-6 1122.5,-25 1287.5,-25 1287.5,-6 1122.5,-6"/>
<text text-anchor="middle" x="1205" y="-13" font-family="Helvetica,sans-Serif" font-size="10.00">sitkAggregateLabelMapFilter.h</text>
</a>
</g>
</g>
<!-- Node2&#45;&gt;Node14 -->
<g id="edge9" class="edge">
<title>Node2&#45;&gt;Node14</title>
<path fill="none" stroke="midnightblue" d="M3821.64,-76.1C3482.36,-76.51 1809.55,-76.16 1296,-31 1281.18,-29.7 1265.12,-27.43 1250.67,-25.06"/>
<polygon fill="midnightblue" stroke="midnightblue" points="3821.76,-79.6 3831.76,-76.09 3821.75,-72.6 3821.76,-79.6"/>
</g>
<!-- Node15 -->
<g id="node11" class="node">
<title>Node15</title>
<g id="a_node11"><a xlink:href="sitkAndImageFilter_8h.html" target="_top" xlink:title=" ">
<polygon fill="white" stroke="red" points="1305.5,-6 1305.5,-25 1422.5,-25 1422.5,-6 1305.5,-6"/>
<text text-anchor="middle" x="1364" y="-13" font-family="Helvetica,sans-Serif" font-size="10.00">sitkAndImageFilter.h</text>
</a>
</g>
</g>
<!-- Node2&#45;&gt;Node15 -->
<g id="edge10" class="edge">
<title>Node2&#45;&gt;Node15</title>
<path fill="none" stroke="midnightblue" d="M3821.91,-75.59C3469.27,-73.07 1675.72,-58.96 1432,-31 1420.73,-29.71 1408.56,-27.41 1397.69,-25.02"/>
<polygon fill="midnightblue" stroke="midnightblue" points="3821.9,-79.09 3831.92,-75.66 3821.95,-72.09 3821.9,-79.09"/>
</g>
<!-- Node16 -->
<g id="node12" class="node">
<title>Node16</title>
<g id="a_node12"><a xlink:href="sitkAntiAliasBinaryImageFilter_8h.html" target="_top" xlink:title=" ">
<polygon fill="white" stroke="red" points="1441,-0.5 1441,-30.5 1581,-30.5 1581,-0.5 1441,-0.5"/>
<text text-anchor="start" x="1449" y="-18.5" font-family="Helvetica,sans-Serif" font-size="10.00">sitkAntiAliasBinaryImage</text>
<text text-anchor="middle" x="1511" y="-7.5" font-family="Helvetica,sans-Serif" font-size="10.00">Filter.h</text>
</a>
</g>
</g>
<!-- Node2&#45;&gt;Node16 -->
<g id="edge11" class="edge">
<title>Node2&#45;&gt;Node16</title>
<path fill="none" stroke="midnightblue" d="M3821.57,-76.14C3505.65,-76.66 2041.24,-76.54 1590,-31 1587.09,-30.71 1584.12,-30.36 1581.13,-29.98"/>
<polygon fill="midnightblue" stroke="midnightblue" points="3821.9,-79.64 3831.89,-76.12 3821.88,-72.64 3821.9,-79.64"/>
</g>
<!-- Node17 -->
<g id="node13" class="node">
<title>Node17</title>
<g id="a_node13"><a xlink:href="sitkApproximateSignedDistanceMapImageFilter_8h.html" target="_top" xlink:title=" ">
<polygon fill="white" stroke="red" points="1599.5,-0.5 1599.5,-30.5 1772.5,-30.5 1772.5,-0.5 1599.5,-0.5"/>
<text text-anchor="start" x="1607.5" y="-18.5" font-family="Helvetica,sans-Serif" font-size="10.00">sitkApproximateSignedDistance</text>
<text text-anchor="middle" x="1686" y="-7.5" font-family="Helvetica,sans-Serif" font-size="10.00">MapImageFilter.h</text>
</a>
</g>
</g>
<!-- Node2&#45;&gt;Node17 -->
<g id="edge12" class="edge">
<title>Node2&#45;&gt;Node17</title>
<path fill="none" stroke="midnightblue" d="M3821.38,-75.77C3521.3,-74.45 2192.75,-66.68 1781,-31 1778.26,-30.76 1775.47,-30.5 1772.67,-30.2"/>
<polygon fill="midnightblue" stroke="midnightblue" points="3821.61,-79.27 3831.62,-75.81 3821.64,-72.27 3821.61,-79.27"/>
</g>
<!-- Node18 -->
<g id="node14" class="node">
<title>Node18</title>
<g id="a_node14"><a xlink:href="sitkAsinImageFilter_8h.html" target="_top" xlink:title=" ">
<polygon fill="white" stroke="red" points="1790.5,-6 1790.5,-25 1909.5,-25 1909.5,-6 1790.5,-6"/>
<text text-anchor="middle" x="1850" y="-13" font-family="Helvetica,sans-Serif" font-size="10.00">sitkAsinImageFilter.h</text>
</a>
</g>
</g>
<!-- Node2&#45;&gt;Node18 -->
<g id="edge13" class="edge">
<title>Node2&#45;&gt;Node18</title>
<path fill="none" stroke="midnightblue" d="M3821.61,-76.14C3533.86,-76.57 2300.09,-75.72 1918,-31 1906.85,-29.7 1894.83,-27.42 1884.04,-25.06"/>
<polygon fill="midnightblue" stroke="midnightblue" points="3821.84,-79.64 3831.84,-76.12 3821.83,-72.64 3821.84,-79.64"/>
</g>
<!-- Node19 -->
<g id="node15" class="node">
<title>Node19</title>
<g id="a_node15"><a xlink:href="sitkAtan2ImageFilter_8h.html" target="_top" xlink:title=" ">
<polygon fill="white" stroke="red" points="1927.5,-6 1927.5,-25 2054.5,-25 2054.5,-6 1927.5,-6"/>
<text text-anchor="middle" x="1991" y="-13" font-family="Helvetica,sans-Serif" font-size="10.00">sitkAtan2ImageFilter.h</text>
</a>
</g>
</g>
<!-- Node2&#45;&gt;Node19 -->
<g id="edge14" class="edge">
<title>Node2&#45;&gt;Node19</title>
<path fill="none" stroke="midnightblue" d="M3821.67,-75.92C3547.25,-75.33 2415.17,-70.51 2063,-31 2051.22,-29.68 2038.49,-27.4 2027.06,-25.04"/>
<polygon fill="midnightblue" stroke="midnightblue" points="3821.82,-79.42 3831.82,-75.94 3821.83,-72.42 3821.82,-79.42"/>
</g>
<!-- Node20 -->
<g id="node16" class="node">
<title>Node20</title>
<g id="a_node16"><a xlink:href="sitkAtanImageFilter_8h.html" target="_top" xlink:title=" ">
<polygon fill="white" stroke="red" points="2072.5,-6 2072.5,-25 2193.5,-25 2193.5,-6 2072.5,-6"/>
<text text-anchor="middle" x="2133" y="-13" font-family="Helvetica,sans-Serif" font-size="10.00">sitkAtanImageFilter.h</text>
</a>
</g>
</g>
<!-- Node2&#45;&gt;Node20 -->
<g id="edge15" class="edge">
<title>Node2&#45;&gt;Node20</title>
<path fill="none" stroke="midnightblue" d="M3821.63,-75.84C3560.28,-74.93 2525.13,-68.97 2202,-31 2190.69,-29.67 2178.5,-27.39 2167.55,-25.03"/>
<polygon fill="midnightblue" stroke="midnightblue" points="3821.67,-79.34 3831.68,-75.88 3821.7,-72.34 3821.67,-79.34"/>
</g>
<!-- Node21 -->
<g id="node17" class="node">
<title>Node21</title>
<g id="a_node17"><a xlink:href="sitkBSplineDecompositionImageFilter_8h.html" target="_top" xlink:title=" ">
<polygon fill="white" stroke="red" points="2211.5,-0.5 2211.5,-30.5 2356.5,-30.5 2356.5,-0.5 2211.5,-0.5"/>
<text text-anchor="start" x="2219.5" y="-18.5" font-family="Helvetica,sans-Serif" font-size="10.00">sitkBSplineDecomposition</text>
<text text-anchor="middle" x="2284" y="-7.5" font-family="Helvetica,sans-Serif" font-size="10.00">ImageFilter.h</text>
</a>
</g>
</g>
<!-- Node2&#45;&gt;Node21 -->
<g id="edge16" class="edge">
<title>Node2&#45;&gt;Node21</title>
<path fill="none" stroke="midnightblue" d="M3821.63,-75.38C3576.59,-72.69 2655.69,-60.75 2366,-31 2362.98,-30.69 2359.9,-30.33 2356.8,-29.94"/>
<polygon fill="midnightblue" stroke="midnightblue" points="3821.73,-78.88 3831.76,-75.49 3821.8,-71.88 3821.73,-78.88"/>
</g>
<!-- Node22 -->
<g id="node18" class="node">
<title>Node22</title>
<g id="a_node18"><a xlink:href="sitkBSplineTransformInitializerFilter_8h.html" target="_top" xlink:title=" ">
<polygon fill="white" stroke="red" points="2375,-0.5 2375,-30.5 2541,-30.5 2541,-0.5 2375,-0.5"/>
<text text-anchor="start" x="2383" y="-18.5" font-family="Helvetica,sans-Serif" font-size="10.00">sitkBSplineTransformInitializer</text>
<text text-anchor="middle" x="2458" y="-7.5" font-family="Helvetica,sans-Serif" font-size="10.00">Filter.h</text>
</a>
</g>
</g>
<!-- Node2&#45;&gt;Node22 -->
<g id="edge17" class="edge">
<title>Node2&#45;&gt;Node22</title>
<path fill="none" stroke="midnightblue" d="M3821.72,-76.59C3633.35,-77.86 3039.15,-77.63 2550,-31 2547.1,-30.72 2544.16,-30.41 2541.19,-30.08"/>
<polygon fill="midnightblue" stroke="midnightblue" points="3821.99,-80.09 3831.96,-76.51 3821.94,-73.09 3821.99,-80.09"/>
</g>
<!-- Node23 -->
<g id="node19" class="node">
<title>Node23</title>
<g id="a_node19"><a xlink:href="sitkBilateralImageFilter_8h.html" target="_top" xlink:title=" ">
<polygon fill="white" stroke="red" points="2559,-6 2559,-25 2699,-25 2699,-6 2559,-6"/>
<text text-anchor="middle" x="2629" y="-13" font-family="Helvetica,sans-Serif" font-size="10.00">sitkBilateralImageFilter.h</text>
</a>
</g>
</g>
<!-- Node2&#45;&gt;Node23 -->
<g id="edge18" class="edge">
<title>Node2&#45;&gt;Node23</title>
<path fill="none" stroke="midnightblue" d="M3821.66,-74.83C3613.64,-70.62 2927.19,-55.19 2708,-31 2695.39,-29.61 2681.76,-27.37 2669.43,-25.07"/>
<polygon fill="midnightblue" stroke="midnightblue" points="3821.71,-78.33 3831.78,-75.03 3821.85,-71.33 3821.71,-78.33"/>
</g>
<!-- Node24 -->
<g id="node20" class="node">
<title>Node24</title>
<g id="a_node20"><a xlink:href="sitkBinShrinkImageFilter_8h.html" target="_top" xlink:title=" ">
<polygon fill="white" stroke="red" points="2717.5,-6 2717.5,-25 2862.5,-25 2862.5,-6 2717.5,-6"/>
<text text-anchor="middle" x="2790" y="-13" font-family="Helvetica,sans-Serif" font-size="10.00">sitkBinShrinkImageFilter.h</text>
</a>
</g>
</g>
<!-- Node2&#45;&gt;Node24 -->
<g id="edge19" class="edge">
<title>Node2&#45;&gt;Node24</title>
<path fill="none" stroke="midnightblue" d="M3821.52,-76.05C3664.39,-75.59 3230.57,-70.52 2872,-31 2858.92,-29.56 2844.78,-27.31 2831.99,-25.01"/>
<polygon fill="midnightblue" stroke="midnightblue" points="3821.9,-79.55 3831.9,-76.08 3821.91,-72.55 3821.9,-79.55"/>
</g>
<!-- Node25 -->
<g id="node21" class="node">
<title>Node25</title>
<g id="a_node21"><a xlink:href="sitkBinaryClosingByReconstructionImageFilter_8h.html" target="_top" xlink:title=" ">
<polygon fill="white" stroke="red" points="2881,-0.5 2881,-30.5 3069,-30.5 3069,-0.5 2881,-0.5"/>
<text text-anchor="start" x="2889" y="-18.5" font-family="Helvetica,sans-Serif" font-size="10.00">sitkBinaryClosingByReconstruction</text>
<text text-anchor="middle" x="2975" y="-7.5" font-family="Helvetica,sans-Serif" font-size="10.00">ImageFilter.h</text>
</a>
</g>
</g>
<!-- Node2&#45;&gt;Node25 -->
<g id="edge20" class="edge">
<title>Node2&#45;&gt;Node25</title>
<path fill="none" stroke="midnightblue" d="M3821.48,-74.35C3687.34,-70.31 3354.96,-58.2 3078,-31 3075.12,-30.72 3072.21,-30.41 3069.26,-30.09"/>
<polygon fill="midnightblue" stroke="midnightblue" points="3821.46,-77.85 3831.56,-74.65 3821.67,-70.85 3821.46,-77.85"/>
</g>
<!-- Node26 -->
<g id="node22" class="node">
<title>Node26</title>
<g id="a_node22"><a xlink:href="sitkBinaryContourImageFilter_8h.html" target="_top" xlink:title=" ">
<polygon fill="white" stroke="red" points="3087,-6 3087,-25 3255,-25 3255,-6 3087,-6"/>
<text text-anchor="middle" x="3171" y="-13" font-family="Helvetica,sans-Serif" font-size="10.00">sitkBinaryContourImageFilter.h</text>
</a>
</g>
</g>
<!-- Node2&#45;&gt;Node26 -->
<g id="edge21" class="edge">
<title>Node2&#45;&gt;Node26</title>
<path fill="none" stroke="midnightblue" d="M3821.73,-73.3C3710.87,-67.95 3467.23,-54.48 3263,-31 3249.02,-29.39 3233.92,-27.2 3220.07,-25.01"/>
<polygon fill="midnightblue" stroke="midnightblue" points="3821.56,-76.79 3831.72,-73.77 3821.9,-69.8 3821.56,-76.79"/>
</g>
<!-- Node27 -->
<g id="node23" class="node">
<title>Node27</title>
<g id="a_node23"><a xlink:href="sitkBinaryDilateImageFilter_8h.html" target="_top" xlink:title=" ">
<polygon fill="white" stroke="red" points="3272.5,-6 3272.5,-25 3431.5,-25 3431.5,-6 3272.5,-6"/>
<text text-anchor="middle" x="3352" y="-13" font-family="Helvetica,sans-Serif" font-size="10.00">sitkBinaryDilateImageFilter.h</text>
</a>
</g>
</g>
<!-- Node2&#45;&gt;Node27 -->
<g id="edge22" class="edge">
<title>Node2&#45;&gt;Node27</title>
<path fill="none" stroke="midnightblue" d="M3821.83,-71.06C3736.65,-63.8 3576.11,-49.12 3440,-31 3427.11,-29.28 3413.2,-27.13 3400.33,-25.02"/>
<polygon fill="midnightblue" stroke="midnightblue" points="3821.58,-74.55 3831.84,-71.91 3822.17,-67.58 3821.58,-74.55"/>
</g>
<!-- Node28 -->
<g id="node24" class="node">
<title>Node28</title>
<g id="a_node24"><a xlink:href="sitkBinaryErodeImageFilter_8h.html" target="_top" xlink:title=" ">
<polygon fill="white" stroke="red" points="3449,-6 3449,-25 3607,-25 3607,-6 3449,-6"/>
<text text-anchor="middle" x="3528" y="-13" font-family="Helvetica,sans-Serif" font-size="10.00">sitkBinaryErodeImageFilter.h</text>
</a>
</g>
</g>
<!-- Node2&#45;&gt;Node28 -->
<g id="edge23" class="edge">
<title>Node2&#45;&gt;Node28</title>
<path fill="none" stroke="midnightblue" d="M3821.46,-65.82C3753.03,-54.32 3642.85,-35.8 3578.74,-25.03"/>
<polygon fill="midnightblue" stroke="midnightblue" points="3821.21,-69.33 3831.66,-67.54 3822.37,-62.43 3821.21,-69.33"/>
</g>
<!-- Node29 -->
<g id="node25" class="node">
<title>Node29</title>
<g id="a_node25"><a xlink:href="sitkBinaryFillholeImageFilter_8h.html" target="_top" xlink:title=" ">
<polygon fill="white" stroke="red" points="3625.5,-6 3625.5,-25 3790.5,-25 3790.5,-6 3625.5,-6"/>
<text text-anchor="middle" x="3708" y="-13" font-family="Helvetica,sans-Serif" font-size="10.00">sitkBinaryFillholeImageFilter.h</text>
</a>
</g>
</g>
<!-- Node2&#45;&gt;Node29 -->
<g id="edge24" class="edge">
<title>Node2&#45;&gt;Node29</title>
<path fill="none" stroke="midnightblue" d="M3847.59,-64.23C3813.76,-52.67 3762.97,-35.3 3732.88,-25.01"/>
<polygon fill="midnightblue" stroke="midnightblue" points="3846.48,-67.55 3857.07,-67.48 3848.74,-60.93 3846.48,-67.55"/>
</g>
<!-- Node30 -->
<g id="node26" class="node">
<title>Node30</title>
<g id="a_node26"><a xlink:href="sitkBinaryGrindPeakImageFilter_8h.html" target="_top" xlink:title=" ">
<polygon fill="white" stroke="red" points="3808.5,-0.5 3808.5,-30.5 3955.5,-30.5 3955.5,-0.5 3808.5,-0.5"/>
<text text-anchor="start" x="3816.5" y="-18.5" font-family="Helvetica,sans-Serif" font-size="10.00">sitkBinaryGrindPeakImage</text>
<text text-anchor="middle" x="3882" y="-7.5" font-family="Helvetica,sans-Serif" font-size="10.00">Filter.h</text>
</a>
</g>
</g>
<!-- Node2&#45;&gt;Node30 -->
<g id="edge25" class="edge">
<title>Node2&#45;&gt;Node30</title>
<path fill="none" stroke="midnightblue" d="M3882,-57.23C3882,-48.59 3882,-38.5 3882,-30.52"/>
<polygon fill="midnightblue" stroke="midnightblue" points="3878.5,-57.48 3882,-67.48 3885.5,-57.48 3878.5,-57.48"/>
</g>
<!-- Node31 -->
<g id="node27" class="node">
<title>Node31</title>
<g id="a_node27"><a xlink:href="sitkBinaryImageToLabelMapFilter_8h.html" target="_top" xlink:title=" ">
<polygon fill="white" stroke="red" points="3973.5,-0.5 3973.5,-30.5 4128.5,-30.5 4128.5,-0.5 3973.5,-0.5"/>
<text text-anchor="start" x="3981.5" y="-18.5" font-family="Helvetica,sans-Serif" font-size="10.00">sitkBinaryImageToLabelMap</text>
<text text-anchor="middle" x="4051" y="-7.5" font-family="Helvetica,sans-Serif" font-size="10.00">Filter.h</text>
</a>
</g>
</g>
<!-- Node2&#45;&gt;Node31 -->
<g id="edge26" class="edge">
<title>Node2&#45;&gt;Node31</title>
<path fill="none" stroke="midnightblue" d="M3915.79,-64.1C3943.29,-54.42 3982.16,-40.74 4011.17,-30.52"/>
<polygon fill="midnightblue" stroke="midnightblue" points="3914.48,-60.85 3906.21,-67.48 3916.81,-67.46 3914.48,-60.85"/>
</g>
<!-- Node32 -->
<g id="node28" class="node">
<title>Node32</title>
<g id="a_node28"><a xlink:href="sitkBinaryMagnitudeImageFilter_8h.html" target="_top" xlink:title=" ">
<polygon fill="white" stroke="red" points="4146.5,-0.5 4146.5,-30.5 4295.5,-30.5 4295.5,-0.5 4146.5,-0.5"/>
<text text-anchor="start" x="4154.5" y="-18.5" font-family="Helvetica,sans-Serif" font-size="10.00">sitkBinaryMagnitudeImage</text>
<text text-anchor="middle" x="4221" y="-7.5" font-family="Helvetica,sans-Serif" font-size="10.00">Filter.h</text>
</a>
</g>
</g>
<!-- Node2&#45;&gt;Node32 -->
<g id="edge27" class="edge">
<title>Node2&#45;&gt;Node32</title>
<path fill="none" stroke="midnightblue" d="M3940.5,-65.73C3997.48,-55.73 4084.32,-40.49 4146.28,-29.62"/>
<polygon fill="midnightblue" stroke="midnightblue" points="3939.81,-62.3 3930.57,-67.48 3941.02,-69.19 3939.81,-62.3"/>
</g>
<!-- Node33 -->
<g id="node29" class="node">
<title>Node33</title>
<g id="a_node29"><a xlink:href="sitkBinaryMedianImageFilter_8h.html" target="_top" xlink:title=" ">
<polygon fill="white" stroke="red" points="4314,-6 4314,-25 4480,-25 4480,-6 4314,-6"/>
<text text-anchor="middle" x="4397" y="-13" font-family="Helvetica,sans-Serif" font-size="10.00">sitkBinaryMedianImageFilter.h</text>
</a>
</g>
</g>
<!-- Node2&#45;&gt;Node33 -->
<g id="edge28" class="edge">
<title>Node2&#45;&gt;Node33</title>
<path fill="none" stroke="midnightblue" d="M3941.7,-67.04C3941.8,-67.03 3941.9,-67.01 3942,-67 4102.88,-46.97 4144.19,-51.63 4305,-31 4318.47,-29.27 4333.01,-27.12 4346.46,-25"/>
<polygon fill="midnightblue" stroke="midnightblue" points="3941.53,-63.53 3932.06,-68.3 3942.43,-70.47 3941.53,-63.53"/>
</g>
<!-- Node34 -->
<g id="node30" class="node">
<title>Node34</title>
<g id="a_node30"><a xlink:href="sitkBinaryMinMaxCurvatureFlowImageFilter_8h.html" target="_top" xlink:title=" ">
<polygon fill="white" stroke="red" points="4498.5,-0.5 4498.5,-30.5 4651.5,-30.5 4651.5,-0.5 4498.5,-0.5"/>
<text text-anchor="start" x="4506.5" y="-18.5" font-family="Helvetica,sans-Serif" font-size="10.00">sitkBinaryMinMaxCurvature</text>
<text text-anchor="middle" x="4575" y="-7.5" font-family="Helvetica,sans-Serif" font-size="10.00">FlowImageFilter.h</text>
</a>
</g>
</g>
<!-- Node2&#45;&gt;Node34 -->
<g id="edge29" class="edge">
<title>Node2&#45;&gt;Node34</title>
<path fill="none" stroke="midnightblue" d="M3941.7,-67.03C3941.8,-67.02 3941.9,-67.01 3942,-67 4184.24,-40.91 4247.01,-59.29 4489,-31 4492.01,-30.65 4495.07,-30.26 4498.16,-29.85"/>
<polygon fill="midnightblue" stroke="midnightblue" points="3941.57,-63.52 3932.05,-68.17 3942.39,-70.47 3941.57,-63.52"/>
</g>
<!-- Node35 -->
<g id="node31" class="node">
<title>Node35</title>
<g id="a_node31"><a xlink:href="sitkBinaryMorphologicalClosingImageFilter_8h.html" target="_top" xlink:title=" ">
<polygon fill="white" stroke="red" points="4669.5,-0.5 4669.5,-30.5 4840.5,-30.5 4840.5,-0.5 4669.5,-0.5"/>
<text text-anchor="start" x="4677.5" y="-18.5" font-family="Helvetica,sans-Serif" font-size="10.00">sitkBinaryMorphologicalClosing</text>
<text text-anchor="middle" x="4755" y="-7.5" font-family="Helvetica,sans-Serif" font-size="10.00">ImageFilter.h</text>
</a>
</g>
</g>
<!-- Node2&#45;&gt;Node35 -->
<g id="edge30" class="edge">
<title>Node2&#45;&gt;Node35</title>
<path fill="none" stroke="midnightblue" d="M3941.7,-67.03C3941.8,-67.02 3941.9,-67.01 3942,-67 4260.37,-35.23 4342.69,-63.43 4661,-31 4663.79,-30.72 4666.63,-30.4 4669.49,-30.07"/>
<polygon fill="midnightblue" stroke="midnightblue" points="3941.59,-63.52 3932.04,-68.12 3942.37,-70.48 3941.59,-63.52"/>
</g>
<!-- Node36 -->
<g id="node32" class="node">
<title>Node36</title>
<g id="a_node32"><a xlink:href="sitkBinaryMorphologicalOpeningImageFilter_8h.html" target="_top" xlink:title=" ">
<polygon fill="white" stroke="red" points="4859,-0.5 4859,-30.5 5035,-30.5 5035,-0.5 4859,-0.5"/>
<text text-anchor="start" x="4867" y="-18.5" font-family="Helvetica,sans-Serif" font-size="10.00">sitkBinaryMorphologicalOpening</text>
<text text-anchor="middle" x="4947" y="-7.5" font-family="Helvetica,sans-Serif" font-size="10.00">ImageFilter.h</text>
</a>
</g>
</g>
<!-- Node2&#45;&gt;Node36 -->
<g id="edge31" class="edge">
<title>Node2&#45;&gt;Node36</title>
<path fill="none" stroke="midnightblue" d="M3941.69,-67.03C3941.8,-67.02 3941.9,-67.01 3942,-67 4344.08,-28.99 4447.91,-68.91 4850,-31 4852.88,-30.73 4855.81,-30.43 4858.76,-30.11"/>
<polygon fill="midnightblue" stroke="midnightblue" points="3941.6,-63.52 3932.04,-68.08 3942.36,-70.48 3941.6,-63.52"/>
</g>
<!-- Node37 -->
<g id="node33" class="node">
<title>Node37</title>
<g id="a_node33"><a xlink:href="sitkBinaryNotImageFilter_8h.html" target="_top" xlink:title=" ">
<polygon fill="white" stroke="red" points="5053.5,-6 5053.5,-25 5200.5,-25 5200.5,-6 5053.5,-6"/>
<text text-anchor="middle" x="5127" y="-13" font-family="Helvetica,sans-Serif" font-size="10.00">sitkBinaryNotImageFilter.h</text>
</a>
</g>
</g>
<!-- Node2&#45;&gt;Node37 -->
<g id="edge32" class="edge">
<title>Node2&#45;&gt;Node37</title>
<path fill="none" stroke="midnightblue" d="M3941.69,-67.03C3941.8,-67.02 3941.9,-67.01 3942,-67 4430.02,-22.58 4556.55,-81.29 5044,-31 5057.39,-29.62 5071.87,-27.36 5084.94,-25.03"/>
<polygon fill="midnightblue" stroke="midnightblue" points="3941.61,-63.52 3932.04,-68.05 3942.35,-70.48 3941.61,-63.52"/>
</g>
<!-- Node38 -->
<g id="node34" class="node">
<title>Node38</title>
<g id="a_node34"><a xlink:href="sitkBinaryOpeningByReconstructionImageFilter_8h.html" target="_top" xlink:title=" ">
<polygon fill="white" stroke="red" points="5219,-0.5 5219,-30.5 5411,-30.5 5411,-0.5 5219,-0.5"/>
<text text-anchor="start" x="5227" y="-18.5" font-family="Helvetica,sans-Serif" font-size="10.00">sitkBinaryOpeningByReconstruction</text>
<text text-anchor="middle" x="5315" y="-7.5" font-family="Helvetica,sans-Serif" font-size="10.00">ImageFilter.h</text>
</a>
</g>
</g>
<!-- Node2&#45;&gt;Node38 -->
<g id="edge33" class="edge">
<title>Node2&#45;&gt;Node38</title>
<path fill="none" stroke="midnightblue" d="M3941.69,-67.03C3941.8,-67.02 3941.9,-67.01 3942,-67 4503.57,-17.09 4648.15,-77.63 5210,-31 5212.93,-30.76 5215.91,-30.49 5218.92,-30.2"/>
<polygon fill="midnightblue" stroke="midnightblue" points="3941.62,-63.52 3932.04,-68.03 3942.35,-70.48 3941.62,-63.52"/>
</g>
<!-- Node39 -->
<g id="node35" class="node">
<title>Node39</title>
<g id="a_node35"><a xlink:href="sitkBinaryProjectionImageFilter_8h.html" target="_top" xlink:title=" ">
<polygon fill="white" stroke="red" points="5429,-0.5 5429,-30.5 5575,-30.5 5575,-0.5 5429,-0.5"/>
<text text-anchor="start" x="5437" y="-18.5" font-family="Helvetica,sans-Serif" font-size="10.00">sitkBinaryProjectionImage</text>
<text text-anchor="middle" x="5502" y="-7.5" font-family="Helvetica,sans-Serif" font-size="10.00">Filter.h</text>
</a>
</g>
</g>
<!-- Node2&#45;&gt;Node39 -->
<g id="edge34" class="edge">
<title>Node2&#45;&gt;Node39</title>
<path fill="none" stroke="midnightblue" d="M3941.69,-67.03C3941.8,-67.02 3941.9,-67.01 3942,-67 4596.62,-10.15 4766.18,-96.39 5420,-31 5422.88,-30.71 5425.81,-30.38 5428.76,-30.01"/>
<polygon fill="midnightblue" stroke="midnightblue" points="3941.63,-63.52 3932.03,-68.02 3942.34,-70.48 3941.63,-63.52"/>
</g>
<!-- Node40 -->
<g id="node36" class="node">
<title>Node40</title>
<g id="a_node36"><a xlink:href="sitkBinaryPruningImageFilter_8h.html" target="_top" xlink:title=" ">
<polygon fill="white" stroke="red" points="5593.5,-6 5593.5,-25 5760.5,-25 5760.5,-6 5593.5,-6"/>
<text text-anchor="middle" x="5677" y="-13" font-family="Helvetica,sans-Serif" font-size="10.00">sitkBinaryPruningImageFilter.h</text>
</a>
</g>
</g>
<!-- Node2&#45;&gt;Node40 -->
<g id="edge35" class="edge">
<title>Node2&#45;&gt;Node40</title>
<path fill="none" stroke="midnightblue" d="M3941.69,-67.03C3941.8,-67.02 3941.9,-67.01 3942,-67 4669.29,-4.73 4856.89,-95.37 5584,-31 5599.14,-29.66 5615.55,-27.38 5630.31,-25.02"/>
<polygon fill="midnightblue" stroke="midnightblue" points="3941.63,-63.51 3932.03,-68.01 3942.34,-70.48 3941.63,-63.51"/>
</g>
<!-- Node41 -->
<g id="node37" class="node">
<title>Node41</title>
<g id="a_node37"><a xlink:href="sitkBinaryReconstructionByDilationImageFilter_8h.html" target="_top" xlink:title=" ">
<polygon fill="white" stroke="red" points="5778.5,-0.5 5778.5,-30.5 5917.5,-30.5 5917.5,-0.5 5778.5,-0.5"/>
<text text-anchor="start" x="5786.5" y="-18.5" font-family="Helvetica,sans-Serif" font-size="10.00">sitkBinaryReconstruction</text>
<text text-anchor="middle" x="5848" y="-7.5" font-family="Helvetica,sans-Serif" font-size="10.00">ByDilationImageFilter.h</text>
</a>
</g>
</g>
<!-- Node2&#45;&gt;Node41 -->
<g id="edge36" class="edge">
<title>Node2&#45;&gt;Node41</title>
<path fill="none" stroke="midnightblue" d="M3941.69,-67.03C3941.8,-67.02 3941.9,-67.01 3942,-67 4751.72,1.41 4961.6,-113.54 5770,-31 5772.74,-30.72 5775.53,-30.4 5778.34,-30.03"/>
<polygon fill="midnightblue" stroke="midnightblue" points="3941.63,-63.51 3932.03,-68 3942.33,-70.48 3941.63,-63.51"/>
</g>
<!-- Node42 -->
<g id="node38" class="node">
<title>Node42</title>
<g id="a_node38"><a xlink:href="sitkBinaryReconstructionByErosionImageFilter_8h.html" target="_top" xlink:title=" ">
<polygon fill="white" stroke="red" points="5935.5,-0.5 5935.5,-30.5 6074.5,-30.5 6074.5,-0.5 5935.5,-0.5"/>
<text text-anchor="start" x="5943.5" y="-18.5" font-family="Helvetica,sans-Serif" font-size="10.00">sitkBinaryReconstruction</text>
<text text-anchor="middle" x="6005" y="-7.5" font-family="Helvetica,sans-Serif" font-size="10.00">ByErosionImageFilter.h</text>
</a>
</g>
</g>
<!-- Node2&#45;&gt;Node42 -->
<g id="edge37" class="edge">
<title>Node2&#45;&gt;Node42</title>
<path fill="none" stroke="midnightblue" d="M3941.69,-67.03C3941.8,-67.02 3941.9,-67.01 3942,-67 4821.29,6.6 5049.13,-119.94 5927,-31 5929.74,-30.72 5932.53,-30.4 5935.34,-30.04"/>
<polygon fill="midnightblue" stroke="midnightblue" points="3941.63,-63.51 3932.03,-68 3942.33,-70.48 3941.63,-63.51"/>
</g>
<!-- Node43 -->
<g id="node39" class="node">
<title>Node43</title>
<g id="a_node39"><a xlink:href="sitkBinaryThinningImageFilter_8h.html" target="_top" xlink:title=" ">
<polygon fill="white" stroke="red" points="6093,-6 6093,-25 6265,-25 6265,-6 6093,-6"/>
<text text-anchor="middle" x="6179" y="-13" font-family="Helvetica,sans-Serif" font-size="10.00">sitkBinaryThinningImageFilter.h</text>
</a>
</g>
</g>
<!-- Node2&#45;&gt;Node43 -->
<g id="edge38" class="edge">
<title>Node2&#45;&gt;Node43</title>
<path fill="none" stroke="midnightblue" d="M3941.69,-67.03C3941.8,-67.02 3941.9,-67.01 3942,-67 4890.87,11.79 5135.23,-111.01 6084,-31 6099.46,-29.7 6116.23,-27.43 6131.31,-25.06"/>
<polygon fill="midnightblue" stroke="midnightblue" points="3941.64,-63.51 3932.03,-67.99 3942.33,-70.48 3941.64,-63.51"/>
</g>
<!-- Node44 -->
<g id="node40" class="node">
<title>Node44</title>
<g id="a_node40"><a xlink:href="sitkBinaryThresholdImageFilter_8h.html" target="_top" xlink:title=" ">
<polygon fill="white" stroke="red" points="6283.5,-0.5 6283.5,-30.5 6428.5,-30.5 6428.5,-0.5 6283.5,-0.5"/>
<text text-anchor="start" x="6291.5" y="-18.5" font-family="Helvetica,sans-Serif" font-size="10.00">sitkBinaryThresholdImage</text>
<text text-anchor="middle" x="6356" y="-7.5" font-family="Helvetica,sans-Serif" font-size="10.00">Filter.h</text>
</a>
</g>
</g>
<!-- Node2&#45;&gt;Node44 -->
<g id="edge39" class="edge">
<title>Node2&#45;&gt;Node44</title>
<path fill="none" stroke="midnightblue" d="M3941.69,-67.03C3941.8,-67.02 3941.9,-67.01 3942,-67 4975.07,18.07 5242.13,-129.56 6274,-31 6277.02,-30.71 6280.1,-30.37 6283.2,-29.99"/>
<polygon fill="midnightblue" stroke="midnightblue" points="3941.64,-63.51 3932.03,-67.98 3942.33,-70.48 3941.64,-63.51"/>
</g>
<!-- Node45 -->
<g id="node41" class="node">
<title>Node45</title>
<g id="a_node41"><a xlink:href="sitkBinaryThresholdProjectionImageFilter_8h.html" target="_top" xlink:title=" ">
<polygon fill="white" stroke="red" points="6446.5,-0.5 6446.5,-30.5 6609.5,-30.5 6609.5,-0.5 6446.5,-0.5"/>
<text text-anchor="start" x="6454.5" y="-18.5" font-family="Helvetica,sans-Serif" font-size="10.00">sitkBinaryThresholdProjection</text>
<text text-anchor="middle" x="6528" y="-7.5" font-family="Helvetica,sans-Serif" font-size="10.00">ImageFilter.h</text>
</a>
</g>
</g>
<!-- Node2&#45;&gt;Node45 -->
<g id="edge40" class="edge">
<title>Node2&#45;&gt;Node45</title>
<path fill="none" stroke="midnightblue" d="M3941.69,-67.03C3941.8,-67.02 3941.9,-67.01 3942,-67 5047.75,23.49 5332.76,-127.49 6438,-31 6440.68,-30.77 6443.4,-30.5 6446.15,-30.2"/>
<polygon fill="midnightblue" stroke="midnightblue" points="3941.64,-63.51 3932.03,-67.98 3942.33,-70.48 3941.64,-63.51"/>
</g>
<!-- Node46 -->
<g id="node42" class="node">
<title>Node46</title>
<g id="a_node42"><a xlink:href="sitkBinomialBlurImageFilter_8h.html" target="_top" xlink:title=" ">
<polygon fill="white" stroke="red" points="6627.5,-6 6627.5,-25 6788.5,-25 6788.5,-6 6627.5,-6"/>
<text text-anchor="middle" x="6708" y="-13" font-family="Helvetica,sans-Serif" font-size="10.00">sitkBinomialBlurImageFilter.h</text>
</a>
</g>
</g>
<!-- Node2&#45;&gt;Node46 -->
<g id="edge41" class="edge">
<title>Node2&#45;&gt;Node46</title>
<path fill="none" stroke="midnightblue" d="M3941.69,-67.03C3941.8,-67.02 3941.9,-67.01 3942,-67 5127.97,29.48 5433.66,-134.95 6619,-31 6633.66,-29.71 6649.55,-27.42 6663.8,-25.03"/>
<polygon fill="midnightblue" stroke="midnightblue" points="3941.64,-63.51 3932.03,-67.98 3942.33,-70.48 3941.64,-63.51"/>
</g>
<!-- Node47 -->
<g id="node43" class="node">
<title>Node47</title>
<g id="a_node43"><a xlink:href="sitkBitwiseNotImageFilter_8h.html" target="_top" xlink:title=" ">
<polygon fill="white" stroke="red" points="6807,-6 6807,-25 6959,-25 6959,-6 6807,-6"/>
<text text-anchor="middle" x="6883" y="-13" font-family="Helvetica,sans-Serif" font-size="10.00">sitkBitwiseNotImageFilter.h</text>
</a>
</g>
</g>
<!-- Node2&#45;&gt;Node47 -->
<g id="edge42" class="edge">
<title>Node2&#45;&gt;Node47</title>
<path fill="none" stroke="midnightblue" d="M3941.69,-67.02C3941.8,-67.02 3941.9,-67.01 3942,-67 4574.65,-15.8 6165.9,-88.54 6798,-31 6812.01,-29.72 6827.2,-27.43 6840.8,-25.04"/>
<polygon fill="midnightblue" stroke="midnightblue" points="3941.64,-63.51 3932.03,-67.97 3942.33,-70.48 3941.64,-63.51"/>
</g>
<!-- Node48 -->
<g id="node44" class="node">
<title>Node48</title>
<g id="a_node44"><a xlink:href="sitkBlackTopHatImageFilter_8h.html" target="_top" xlink:title=" ">
<polygon fill="white" stroke="red" points="6977.5,-6 6977.5,-25 7136.5,-25 7136.5,-6 6977.5,-6"/>
<text text-anchor="middle" x="7057" y="-13" font-family="Helvetica,sans-Serif" font-size="10.00">sitkBlackTopHatImageFilter.h</text>
</a>
</g>
</g>
<!-- Node2&#45;&gt;Node48 -->
<g id="edge43" class="edge">
<title>Node2&#45;&gt;Node48</title>
<path fill="none" stroke="midnightblue" d="M3941.69,-67.02C3941.8,-67.02 3941.9,-67.01 3942,-67 4612.32,-12.99 6298.03,-89.23 6968,-31 6982.66,-29.73 6998.55,-27.43 7012.8,-25.04"/>
<polygon fill="midnightblue" stroke="midnightblue" points="3941.64,-63.51 3932.03,-67.97 3942.32,-70.48 3941.64,-63.51"/>
</g>
<!-- Node49 -->
<g id="node45" class="node">
<title>Node49</title>
<g id="a_node45"><a xlink:href="sitkBoundedReciprocalImageFilter_8h.html" target="_top" xlink:title=" ">
<polygon fill="white" stroke="red" points="7154.5,-0.5 7154.5,-30.5 7313.5,-30.5 7313.5,-0.5 7154.5,-0.5"/>
<text text-anchor="start" x="7162.5" y="-18.5" font-family="Helvetica,sans-Serif" font-size="10.00">sitkBoundedReciprocalImage</text>
<text text-anchor="middle" x="7234" y="-7.5" font-family="Helvetica,sans-Serif" font-size="10.00">Filter.h</text>
</a>
</g>
</g>
<!-- Node2&#45;&gt;Node49 -->
<g id="edge44" class="edge">
<title>Node2&#45;&gt;Node49</title>
<path fill="none" stroke="midnightblue" d="M3941.69,-67.02C3941.8,-67.02 3941.9,-67.01 3942,-67 4651.76,-10.05 6436.66,-93.06 7146,-31 7148.78,-30.76 7151.6,-30.48 7154.44,-30.17"/>
<polygon fill="midnightblue" stroke="midnightblue" points="3941.64,-63.51 3932.03,-67.97 3942.32,-70.48 3941.64,-63.51"/>
</g>
<!-- Node50 -->
<g id="node46" class="node">
<title>Node50</title>
<g id="a_node46"><a xlink:href="sitkBoxMeanImageFilter_8h.html" target="_top" xlink:title=" ">
<polygon fill="white" stroke="red" points="7332,-6 7332,-25 7476,-25 7476,-6 7332,-6"/>
<text text-anchor="middle" x="7404" y="-13" font-family="Helvetica,sans-Serif" font-size="10.00">sitkBoxMeanImageFilter.h</text>
</a>
</g>
</g>
<!-- Node2&#45;&gt;Node50 -->
<g id="edge45" class="edge">
<title>Node2&#45;&gt;Node50</title>
<path fill="none" stroke="midnightblue" d="M3941.69,-67.02C3941.8,-67.02 3941.9,-67.01 3942,-67 4690.99,-7.13 6574.93,-101.44 7323,-31 7336.37,-29.74 7350.84,-27.45 7363.8,-25.06"/>
<polygon fill="midnightblue" stroke="midnightblue" points="3941.64,-63.51 3932.03,-67.97 3942.32,-70.48 3941.64,-63.51"/>
</g>
<!-- Node51 -->
<g id="node47" class="node">
<title>Node51</title>
<g id="a_node47"><a xlink:href="sitkBoxSigmaImageFilter_8h.html" target="_top" xlink:title=" ">
<polygon fill="white" stroke="red" points="7494,-6 7494,-25 7642,-25 7642,-6 7494,-6"/>
<text text-anchor="middle" x="7568" y="-13" font-family="Helvetica,sans-Serif" font-size="10.00">sitkBoxSigmaImageFilter.h</text>
</a>
</g>
</g>
<!-- Node2&#45;&gt;Node51 -->
<g id="edge46" class="edge">
<title>Node2&#45;&gt;Node51</title>
<path fill="none" stroke="midnightblue" d="M3941.69,-67.02C3941.8,-67.02 3941.9,-67.01 3942,-67 4726.89,-4.45 6700.92,-102.99 7485,-31 7498.69,-29.74 7513.52,-27.45 7526.8,-25.06"/>
<polygon fill="midnightblue" stroke="midnightblue" points="3941.64,-63.51 3932.03,-67.97 3942.32,-70.48 3941.64,-63.51"/>
</g>
<!-- Node52 -->
<g id="node48" class="node">
<title>Node52</title>
<g id="a_node48"><a xlink:href="sitkCannyEdgeDetectionImageFilter_8h.html" target="_top" xlink:title=" ">
<polygon fill="white" stroke="red" points="7660.5,-0.5 7660.5,-30.5 7827.5,-30.5 7827.5,-0.5 7660.5,-0.5"/>
<text text-anchor="start" x="7668.5" y="-18.5" font-family="Helvetica,sans-Serif" font-size="10.00">sitkCannyEdgeDetectionImage</text>
<text text-anchor="middle" x="7744" y="-7.5" font-family="Helvetica,sans-Serif" font-size="10.00">Filter.h</text>
</a>
</g>
</g>
<!-- Node2&#45;&gt;Node52 -->
<g id="edge47" class="edge">
<title>Node2&#45;&gt;Node52</title>
<path fill="none" stroke="midnightblue" d="M3941.69,-67.02C3941.8,-67.02 3941.9,-67.01 3942,-67 4763.67,-1.71 6829.52,-98.67 7651,-31 7654.09,-30.75 7657.24,-30.45 7660.42,-30.12"/>
<polygon fill="midnightblue" stroke="midnightblue" points="3941.64,-63.51 3932.03,-67.96 3942.32,-70.48 3941.64,-63.51"/>
</g>
<!-- Node53 -->
<g id="node49" class="node">
<title>Node53</title>
<g id="a_node49"><a xlink:href="sitkCannySegmentationLevelSetImageFilter_8h.html" target="_top" xlink:title=" ">
<polygon fill="white" stroke="red" points="7846,-0.5 7846,-30.5 8006,-30.5 8006,-0.5 7846,-0.5"/>
<text text-anchor="start" x="7854" y="-18.5" font-family="Helvetica,sans-Serif" font-size="10.00">sitkCannySegmentationLevel</text>
<text text-anchor="middle" x="7926" y="-7.5" font-family="Helvetica,sans-Serif" font-size="10.00">SetImageFilter.h</text>
</a>
</g>
</g>
<!-- Node2&#45;&gt;Node53 -->
<g id="edge48" class="edge">
<title>Node2&#45;&gt;Node53</title>
<path fill="none" stroke="midnightblue" d="M3941.69,-67.02C3941.8,-67.02 3941.9,-67.01 3942,-67 4804.89,1.37 6974.56,-104.81 7837,-31 7839.81,-30.76 7842.66,-30.48 7845.54,-30.17"/>
<polygon fill="midnightblue" stroke="midnightblue" points="3941.65,-63.51 3932.03,-67.96 3942.32,-70.48 3941.65,-63.51"/>
</g>
</g>
</svg>
        <g id="navigator" transform="translate(0 0)" fill="#404254">
                <rect fill="#f2f5e9" fill-opacity="0.5" stroke="#606060" stroke-width=".5" x="0" y="0" width="60" height="60"/>
                <use id="zoomplus" xlink:href="#zoomPlus" x="17" y="9" onmousedown="handleZoom(evt,'in')"/>
                <use id="zoomminus" xlink:href="#zoomMin" x="42" y="9" onmousedown="handleZoom(evt,'out')"/>
                <use id="reset" xlink:href="#resetDef" x="30" y="36" onmousedown="handleReset()"/>
                <g id="arrowUp" xlink:href="#dirArrow" transform="translate(30 24)" onmousedown="handlePan(0,-1)">
                  <use xlink:href="#rim" fill="#404040">
                        <set attributeName="fill" to="#808080" begin="arrowUp.mouseover" end="arrowUp.mouseout"/>
                  </use>
                  <path fill="none" stroke="white" stroke-width="1.5" d="M0,-3.0v7 M-2.5,-0.5L0,-3.0L2.5,-0.5"/>
                </g>
                <g id="arrowRight" xlink:href="#dirArrow" transform="rotate(90) translate(36 -43)" onmousedown="handlePan(1,0)">
                  <use xlink:href="#rim" fill="#404040">
                        <set attributeName="fill" to="#808080" begin="arrowRight.mouseover" end="arrowRight.mouseout"/>
                  </use>
                  <path fill="none" stroke="white" stroke-width="1.5" d="M0,-3.0v7 M-2.5,-0.5L0,-3.0L2.5,-0.5"/>
                </g>
                <g id="arrowDown" xlink:href="#dirArrow" transform="rotate(180) translate(-30 -48)" onmousedown="handlePan(0,1)">
                  <use xlink:href="#rim" fill="#404040">
                        <set attributeName="fill" to="#808080" begin="arrowDown.mouseover" end="arrowDown.mouseout"/>
                  </use>
                  <path fill="none" stroke="white" stroke-width="1.5" d="M0,-3.0v7 M-2.5,-0.5L0,-3.0L2.5,-0.5"/>
                </g>
                <g id="arrowLeft" xlink:href="#dirArrow" transform="rotate(270) translate(-36 17)" onmousedown="handlePan(-1,0)">
                  <use xlink:href="#rim" fill="#404040">
                        <set attributeName="fill" to="#808080" begin="arrowLeft.mouseover" end="arrowLeft.mouseout"/>
                  </use>
                  <path fill="none" stroke="white" stroke-width="1.5" d="M0,-3.0v7 M-2.5,-0.5L0,-3.0L2.5,-0.5"/>
                </g>
        </g>
        <svg viewBox="0 0 15 15" width="100%" height="30px" preserveAspectRatio="xMaxYMin meet">
         <g id="arrow_out" transform="scale(0.3 0.3)">
          <a xlink:href="sitkKernel_8h__dep__incl_org.svg" target="_base">
           <rect id="button" ry="5" rx="5" y="6" x="6" height="38" width="38"
                fill="#f2f5e9" fill-opacity="0.5" stroke="#606060" stroke-width="1.0"/>
           <path id="arrow"
             d="M 11.500037,31.436501 C 11.940474,20.09759 22.043105,11.32322 32.158766,21.979434 L 37.068811,17.246167 C 37.068811,17.246167 37.088388,32 37.088388,32 L 22.160133,31.978069 C 22.160133,31.978069 26.997745,27.140456 26.997745,27.140456 C 18.528582,18.264221 13.291696,25.230495 11.500037,31.436501 z"
             style="fill:#404040;"/>
          </a>
         </g>
        </svg>
</svg>
