<?xml version="1.0" encoding="UTF-8" standalone="no"?>
<!DOCTYPE svg PUBLIC "-//W3C//DTD SVG 1.1//EN"
 "http://www.w3.org/Graphics/SVG/1.1/DTD/svg11.dtd">
<!-- Generated by graphviz version 2.43.0 (0)
 -->
<!-- Title: sitkBitwiseNotImageFilter.h Pages: 1 -->
<svg width="1875pt" height="599pt"
 viewBox="0.00 0.00 1875.00 599.00" xmlns="http://www.w3.org/2000/svg" xmlns:xlink="http://www.w3.org/1999/xlink">
<g id="graph0" class="graph" transform="scale(1 1) rotate(0) translate(4 595)">
<title>sitkBitwiseNotImageFilter.h</title>
<polygon fill="white" stroke="transparent" points="-4,4 -4,-595 1871,-595 1871,4 -4,4"/>
<!-- Node1 -->
<g id="node1" class="node">
<title>Node1</title>
<g id="a_node1"><a xlink:title=" ">
<polygon fill="#bfbfbf" stroke="black" points="125,-571.5 125,-590.5 277,-590.5 277,-571.5 125,-571.5"/>
<text text-anchor="middle" x="201" y="-578.5" font-family="Helvetica,sans-Serif" font-size="10.00">sitkBitwiseNotImageFilter.h</text>
</a>
</g>
</g>
<!-- Node2 -->
<g id="node2" class="node">
<title>Node2</title>
<g id="a_node2"><a xlink:title=" ">
<polygon fill="white" stroke="#bfbfbf" points="273,-291.5 273,-310.5 331,-310.5 331,-291.5 273,-291.5"/>
<text text-anchor="middle" x="302" y="-298.5" font-family="Helvetica,sans-Serif" font-size="10.00">memory</text>
</a>
</g>
</g>
<!-- Node1&#45;&gt;Node2 -->
<g id="edge1" class="edge">
<title>Node1&#45;&gt;Node2</title>
<path fill="none" stroke="midnightblue" d="M217.75,-571.49C231.1,-563.8 249.13,-551.22 259,-535 301.61,-464.98 303.94,-362.8 302.88,-320.94"/>
<polygon fill="midnightblue" stroke="midnightblue" points="306.37,-320.68 302.52,-310.81 299.38,-320.93 306.37,-320.68"/>
</g>
<!-- Node3 -->
<g id="node3" class="node">
<title>Node3</title>
<g id="a_node3"><a xlink:href="sitkBasicFilters_8h.html" target="_top" xlink:title=" ">
<polygon fill="white" stroke="black" points="132,-459.5 132,-478.5 232,-478.5 232,-459.5 132,-459.5"/>
<text text-anchor="middle" x="182" y="-466.5" font-family="Helvetica,sans-Serif" font-size="10.00">sitkBasicFilters.h</text>
</a>
</g>
</g>
<!-- Node1&#45;&gt;Node3 -->
<g id="edge2" class="edge">
<title>Node1&#45;&gt;Node3</title>
<path fill="none" stroke="midnightblue" d="M182.61,-571.47C168.9,-564 151.19,-551.71 143,-535 134.39,-517.41 148.96,-498.31 162.68,-485.4"/>
<polygon fill="midnightblue" stroke="midnightblue" points="165.26,-487.79 170.47,-478.57 160.65,-482.52 165.26,-487.79"/>
</g>
<!-- Node38 -->
<g id="node38" class="node">
<title>Node38</title>
<g id="a_node38"><a xlink:href="sitkImageFilter_8h.html" target="_top" xlink:title=" ">
<polygon fill="white" stroke="black" points="152,-515.5 152,-534.5 250,-534.5 250,-515.5 152,-515.5"/>
<text text-anchor="middle" x="201" y="-522.5" font-family="Helvetica,sans-Serif" font-size="10.00">sitkImageFilter.h</text>
</a>
</g>
</g>
<!-- Node1&#45;&gt;Node38 -->
<g id="edge66" class="edge">
<title>Node1&#45;&gt;Node38</title>
<path fill="none" stroke="midnightblue" d="M201,-571.08C201,-564.01 201,-553.86 201,-544.99"/>
<polygon fill="midnightblue" stroke="midnightblue" points="204.5,-544.75 201,-534.75 197.5,-544.75 204.5,-544.75"/>
</g>
<!-- Node4 -->
<g id="node4" class="node">
<title>Node4</title>
<g id="a_node4"><a xlink:href="sitkMacro_8h.html" target="_top" xlink:title=" ">
<polygon fill="white" stroke="black" points="590,-56.5 590,-75.5 664,-75.5 664,-56.5 590,-56.5"/>
<text text-anchor="middle" x="627" y="-63.5" font-family="Helvetica,sans-Serif" font-size="10.00">sitkMacro.h</text>
</a>
</g>
</g>
<!-- Node3&#45;&gt;Node4 -->
<g id="edge3" class="edge">
<title>Node3&#45;&gt;Node4</title>
<path fill="none" stroke="midnightblue" d="M150.75,-459.42C108.4,-445.66 38,-414.31 38,-358 38,-358 38,-358 38,-177 38,-98.18 126.45,-130.77 203,-112 337,-79.14 500.63,-70.27 579.71,-67.88"/>
<polygon fill="midnightblue" stroke="midnightblue" points="579.95,-71.38 589.84,-67.6 579.75,-64.38 579.95,-71.38"/>
</g>
<!-- Node11 -->
<g id="node11" class="node">
<title>Node11</title>
<g id="a_node11"><a xlink:href="sitkInterpolator_8h.html" target="_top" xlink:title=" ">
<polygon fill="white" stroke="black" points="387,-291.5 387,-310.5 487,-310.5 487,-291.5 387,-291.5"/>
<text text-anchor="middle" x="437" y="-298.5" font-family="Helvetica,sans-Serif" font-size="10.00">sitkInterpolator.h</text>
</a>
</g>
</g>
<!-- Node3&#45;&gt;Node11 -->
<g id="edge10" class="edge">
<title>Node3&#45;&gt;Node11</title>
<path fill="none" stroke="midnightblue" d="M195.35,-459.31C236.83,-432.3 363.78,-349.67 415.11,-316.25"/>
<polygon fill="midnightblue" stroke="midnightblue" points="417.31,-318.99 423.78,-310.61 413.49,-313.13 417.31,-318.99"/>
</g>
<!-- Node14 -->
<g id="node14" class="node">
<title>Node14</title>
<g id="a_node14"><a xlink:href="sitkRandomSeed_8h.html" target="_top" xlink:title=" ">
<polygon fill="white" stroke="black" points="66,-347.5 66,-366.5 174,-366.5 174,-347.5 66,-347.5"/>
<text text-anchor="middle" x="120" y="-354.5" font-family="Helvetica,sans-Serif" font-size="10.00">sitkRandomSeed.h</text>
</a>
</g>
</g>
<!-- Node3&#45;&gt;Node14 -->
<g id="edge14" class="edge">
<title>Node3&#45;&gt;Node14</title>
<path fill="none" stroke="midnightblue" d="M177.13,-459.37C166.95,-441.3 143.21,-399.18 129.76,-375.31"/>
<polygon fill="midnightblue" stroke="midnightblue" points="132.8,-373.58 124.84,-366.59 126.7,-377.02 132.8,-373.58"/>
</g>
<!-- Node15 -->
<g id="node15" class="node">
<title>Node15</title>
<g id="a_node15"><a xlink:href="sitkKernel_8h.html" target="_top" xlink:title=" ">
<polygon fill="white" stroke="black" points="160,-230 160,-249 234,-249 234,-230 160,-230"/>
<text text-anchor="middle" x="197" y="-237" font-family="Helvetica,sans-Serif" font-size="10.00">sitkKernel.h</text>
</a>
</g>
</g>
<!-- Node3&#45;&gt;Node15 -->
<g id="edge16" class="edge">
<title>Node3&#45;&gt;Node15</title>
<path fill="none" stroke="midnightblue" d="M182.57,-459.36C184.76,-426.14 192.67,-306.16 195.76,-259.37"/>
<polygon fill="midnightblue" stroke="midnightblue" points="199.26,-259.36 196.43,-249.15 192.28,-258.9 199.26,-259.36"/>
</g>
<!-- Node16 -->
<g id="node16" class="node">
<title>Node16</title>
<g id="a_node16"><a xlink:href="sitkTransform_8h.html" target="_top" xlink:title=" ">
<polygon fill="white" stroke="black" points="469,-403.5 469,-422.5 561,-422.5 561,-403.5 469,-403.5"/>
<text text-anchor="middle" x="515" y="-410.5" font-family="Helvetica,sans-Serif" font-size="10.00">sitkTransform.h</text>
</a>
</g>
</g>
<!-- Node3&#45;&gt;Node16 -->
<g id="edge19" class="edge">
<title>Node3&#45;&gt;Node16</title>
<path fill="none" stroke="midnightblue" d="M232.21,-459.86C293.06,-449.99 395.27,-433.42 458.72,-423.13"/>
<polygon fill="midnightblue" stroke="midnightblue" points="459.63,-426.52 468.94,-421.47 458.51,-419.61 459.63,-426.52"/>
</g>
<!-- Node37 -->
<g id="node37" class="node">
<title>Node37</title>
<g id="a_node37"><a xlink:title=" ">
<polygon fill="white" stroke="#bfbfbf" points="98,-403.5 98,-422.5 136,-422.5 136,-403.5 98,-403.5"/>
<text text-anchor="middle" x="117" y="-410.5" font-family="Helvetica,sans-Serif" font-size="10.00">map</text>
</a>
</g>
</g>
<!-- Node3&#45;&gt;Node37 -->
<g id="edge65" class="edge">
<title>Node3&#45;&gt;Node37</title>
<path fill="none" stroke="midnightblue" d="M171.56,-459.32C161.85,-451.26 147.18,-439.08 135.5,-429.37"/>
<polygon fill="midnightblue" stroke="midnightblue" points="137.56,-426.53 127.63,-422.83 133.09,-431.92 137.56,-426.53"/>
</g>
<!-- Node5 -->
<g id="node5" class="node">
<title>Node5</title>
<g id="a_node5"><a xlink:title=" ">
<polygon fill="white" stroke="#bfbfbf" points="908.5,-0.5 908.5,-19.5 961.5,-19.5 961.5,-0.5 908.5,-0.5"/>
<text text-anchor="middle" x="935" y="-7.5" font-family="Helvetica,sans-Serif" font-size="10.00">stdint.h</text>
</a>
</g>
</g>
<!-- Node4&#45;&gt;Node5 -->
<g id="edge4" class="edge">
<title>Node4&#45;&gt;Node5</title>
<path fill="none" stroke="midnightblue" d="M664.15,-58.49C723.47,-48.09 838.9,-27.85 898.07,-17.47"/>
<polygon fill="midnightblue" stroke="midnightblue" points="898.85,-20.89 908.1,-15.72 897.64,-14 898.85,-20.89"/>
</g>
<!-- Node6 -->
<g id="node6" class="node">
<title>Node6</title>
<g id="a_node6"><a xlink:title=" ">
<polygon fill="white" stroke="#bfbfbf" points="525,-0.5 525,-19.5 581,-19.5 581,-0.5 525,-0.5"/>
<text text-anchor="middle" x="553" y="-7.5" font-family="Helvetica,sans-Serif" font-size="10.00">stddef.h</text>
</a>
</g>
</g>
<!-- Node4&#45;&gt;Node6 -->
<g id="edge5" class="edge">
<title>Node4&#45;&gt;Node6</title>
<path fill="none" stroke="midnightblue" d="M615.11,-56.32C603.85,-48.11 586.71,-35.6 573.29,-25.81"/>
<polygon fill="midnightblue" stroke="midnightblue" points="575.25,-22.9 565.11,-19.83 571.12,-28.56 575.25,-22.9"/>
</g>
<!-- Node7 -->
<g id="node7" class="node">
<title>Node7</title>
<g id="a_node7"><a xlink:title=" ">
<polygon fill="white" stroke="#bfbfbf" points="1591,-0.5 1591,-19.5 1643,-19.5 1643,-0.5 1591,-0.5"/>
<text text-anchor="middle" x="1617" y="-7.5" font-family="Helvetica,sans-Serif" font-size="10.00">cassert</text>
</a>
</g>
</g>
<!-- Node4&#45;&gt;Node7 -->
<g id="edge6" class="edge">
<title>Node4&#45;&gt;Node7</title>
<path fill="none" stroke="midnightblue" d="M664,-62.98C820.15,-54.46 1424.31,-21.51 1580.15,-13.01"/>
<polygon fill="midnightblue" stroke="midnightblue" points="1580.79,-16.48 1590.59,-12.44 1580.41,-9.49 1580.79,-16.48"/>
</g>
<!-- Node8 -->
<g id="node8" class="node">
<title>Node8</title>
<g id="a_node8"><a xlink:title=" ">
<polygon fill="white" stroke="#bfbfbf" points="599,-0.5 599,-19.5 655,-19.5 655,-0.5 599,-0.5"/>
<text text-anchor="middle" x="627" y="-7.5" font-family="Helvetica,sans-Serif" font-size="10.00">sstream</text>
</a>
</g>
</g>
<!-- Node4&#45;&gt;Node8 -->
<g id="edge7" class="edge">
<title>Node4&#45;&gt;Node8</title>
<path fill="none" stroke="midnightblue" d="M627,-56.08C627,-49.01 627,-38.86 627,-29.99"/>
<polygon fill="midnightblue" stroke="midnightblue" points="630.5,-29.75 627,-19.75 623.5,-29.75 630.5,-29.75"/>
</g>
<!-- Node9 -->
<g id="node9" class="node">
<title>Node9</title>
<g id="a_node9"><a xlink:title=" ">
<polygon fill="white" stroke="#bfbfbf" points="673,-0.5 673,-19.5 717,-19.5 717,-0.5 673,-0.5"/>
<text text-anchor="middle" x="695" y="-7.5" font-family="Helvetica,sans-Serif" font-size="10.00">limits</text>
</a>
</g>
</g>
<!-- Node4&#45;&gt;Node9 -->
<g id="edge8" class="edge">
<title>Node4&#45;&gt;Node9</title>
<path fill="none" stroke="midnightblue" d="M637.93,-56.32C648.17,-48.18 663.72,-35.84 676,-26.09"/>
<polygon fill="midnightblue" stroke="midnightblue" points="678.22,-28.79 683.88,-19.83 673.87,-23.31 678.22,-28.79"/>
</g>
<!-- Node10 -->
<g id="node10" class="node">
<title>Node10</title>
<g id="a_node10"><a xlink:href="sitkConfigure_8h.html" target="_top" xlink:title=" ">
<polygon fill="white" stroke="black" points="1232,-0.5 1232,-19.5 1322,-19.5 1322,-0.5 1232,-0.5"/>
<text text-anchor="middle" x="1277" y="-7.5" font-family="Helvetica,sans-Serif" font-size="10.00">sitkConfigure.h</text>
</a>
</g>
</g>
<!-- Node4&#45;&gt;Node10 -->
<g id="edge9" class="edge">
<title>Node4&#45;&gt;Node10</title>
<path fill="none" stroke="midnightblue" d="M664.28,-61.9C773.41,-52.84 1092.61,-26.32 1221.78,-15.59"/>
<polygon fill="midnightblue" stroke="midnightblue" points="1222.18,-19.07 1231.85,-14.75 1221.6,-12.09 1222.18,-19.07"/>
</g>
<!-- Node12 -->
<g id="node12" class="node">
<title>Node12</title>
<g id="a_node12"><a xlink:href="sitkCommon_8h.html" target="_top" xlink:title=" ">
<polygon fill="white" stroke="black" points="583,-112.5 583,-131.5 671,-131.5 671,-112.5 583,-112.5"/>
<text text-anchor="middle" x="627" y="-119.5" font-family="Helvetica,sans-Serif" font-size="10.00">sitkCommon.h</text>
</a>
</g>
</g>
<!-- Node11&#45;&gt;Node12 -->
<g id="edge11" class="edge">
<title>Node11&#45;&gt;Node12</title>
<path fill="none" stroke="midnightblue" d="M441.09,-291.27C448.4,-276.31 464.83,-245.31 485,-224 520.47,-186.53 571.7,-154.16 601.95,-136.72"/>
<polygon fill="midnightblue" stroke="midnightblue" points="604.02,-139.58 610.99,-131.6 600.56,-133.49 604.02,-139.58"/>
</g>
<!-- Node13 -->
<g id="node13" class="node">
<title>Node13</title>
<g id="a_node13"><a xlink:title=" ">
<polygon fill="white" stroke="#bfbfbf" points="359.5,-168.5 359.5,-187.5 416.5,-187.5 416.5,-168.5 359.5,-168.5"/>
<text text-anchor="middle" x="388" y="-175.5" font-family="Helvetica,sans-Serif" font-size="10.00">ostream</text>
</a>
</g>
</g>
<!-- Node11&#45;&gt;Node13 -->
<g id="edge13" class="edge">
<title>Node11&#45;&gt;Node13</title>
<path fill="none" stroke="midnightblue" d="M432.03,-291.21C427.09,-282.27 419.48,-267.92 414,-255 405.85,-235.78 398.34,-213.06 393.51,-197.5"/>
<polygon fill="midnightblue" stroke="midnightblue" points="396.76,-196.13 390.5,-187.58 390.06,-198.17 396.76,-196.13"/>
</g>
<!-- Node12&#45;&gt;Node4 -->
<g id="edge12" class="edge">
<title>Node12&#45;&gt;Node4</title>
<path fill="none" stroke="midnightblue" d="M627,-112.08C627,-105.01 627,-94.86 627,-85.99"/>
<polygon fill="midnightblue" stroke="midnightblue" points="630.5,-85.75 627,-75.75 623.5,-85.75 630.5,-85.75"/>
</g>
<!-- Node14&#45;&gt;Node12 -->
<g id="edge15" class="edge">
<title>Node14&#45;&gt;Node12</title>
<path fill="none" stroke="midnightblue" d="M120.1,-347.21C120.74,-324.83 124.95,-264.62 151,-224 172.88,-189.87 185.44,-183.26 223,-168 285.14,-142.75 477.72,-130.19 572.78,-125.39"/>
<polygon fill="midnightblue" stroke="midnightblue" points="572.96,-128.89 582.78,-124.9 572.62,-121.9 572.96,-128.89"/>
</g>
<!-- Node15&#45;&gt;Node12 -->
<g id="edge17" class="edge">
<title>Node15&#45;&gt;Node12</title>
<path fill="none" stroke="midnightblue" d="M200.49,-229.76C207.15,-214.33 223.26,-182.54 248,-168 301.77,-136.4 481.39,-126.94 572.71,-124.15"/>
<polygon fill="midnightblue" stroke="midnightblue" points="572.96,-127.64 582.86,-123.85 572.76,-120.64 572.96,-127.64"/>
</g>
<!-- Node15&#45;&gt;Node13 -->
<g id="edge18" class="edge">
<title>Node15&#45;&gt;Node13</title>
<path fill="none" stroke="midnightblue" d="M224.37,-229.98C257.55,-219.64 313.65,-202.16 350.76,-190.6"/>
<polygon fill="midnightblue" stroke="midnightblue" points="352.18,-193.82 360.69,-187.51 350.1,-187.14 352.18,-193.82"/>
</g>
<!-- Node16&#45;&gt;Node12 -->
<g id="edge20" class="edge">
<title>Node16&#45;&gt;Node12</title>
<path fill="none" stroke="midnightblue" d="M502.86,-403.25C474.63,-382.98 402.25,-331.46 340,-291 314.25,-274.26 296.04,-281.79 281,-255 274.26,-242.99 275.96,-236.82 281,-224 293.41,-192.39 302.99,-183.9 333,-168 373.5,-146.55 499.2,-133.21 572.47,-127.05"/>
<polygon fill="midnightblue" stroke="midnightblue" points="573.2,-130.5 582.88,-126.19 572.63,-123.52 573.2,-130.5"/>
</g>
<!-- Node17 -->
<g id="node17" class="node">
<title>Node17</title>
<g id="a_node17"><a xlink:href="sitkExceptionObject_8h.html" target="_top" xlink:title=" ">
<polygon fill="white" stroke="black" points="565.5,-230 565.5,-249 688.5,-249 688.5,-230 565.5,-230"/>
<text text-anchor="middle" x="627" y="-237" font-family="Helvetica,sans-Serif" font-size="10.00">sitkExceptionObject.h</text>
</a>
</g>
</g>
<!-- Node16&#45;&gt;Node17 -->
<g id="edge21" class="edge">
<title>Node16&#45;&gt;Node17</title>
<path fill="none" stroke="midnightblue" d="M513.94,-403.44C511.77,-382.23 508.99,-326.44 534,-291 546.78,-272.89 568.16,-260.64 587.2,-252.74"/>
<polygon fill="midnightblue" stroke="midnightblue" points="588.54,-255.98 596.6,-249.1 586.01,-249.45 588.54,-255.98"/>
</g>
<!-- Node18 -->
<g id="node18" class="node">
<title>Node18</title>
<g id="a_node18"><a xlink:href="sitkImage_8h.html" target="_top" xlink:title=" ">
<polygon fill="white" stroke="black" points="746,-347.5 746,-366.5 820,-366.5 820,-347.5 746,-347.5"/>
<text text-anchor="middle" x="783" y="-354.5" font-family="Helvetica,sans-Serif" font-size="10.00">sitkImage.h</text>
</a>
</g>
</g>
<!-- Node16&#45;&gt;Node18 -->
<g id="edge24" class="edge">
<title>Node16&#45;&gt;Node18</title>
<path fill="none" stroke="midnightblue" d="M557.47,-403.44C606.07,-393.65 685.45,-377.66 735.91,-367.49"/>
<polygon fill="midnightblue" stroke="midnightblue" points="736.8,-370.88 745.91,-365.47 735.42,-364.02 736.8,-370.88"/>
</g>
<!-- Node20 -->
<g id="node20" class="node">
<title>Node20</title>
<g id="a_node20"><a xlink:title=" ">
<polygon fill="white" stroke="#bfbfbf" points="745.5,-230 745.5,-249 792.5,-249 792.5,-230 745.5,-230"/>
<text text-anchor="middle" x="769" y="-237" font-family="Helvetica,sans-Serif" font-size="10.00">vector</text>
</a>
</g>
</g>
<!-- Node16&#45;&gt;Node20 -->
<g id="edge64" class="edge">
<title>Node16&#45;&gt;Node20</title>
<path fill="none" stroke="midnightblue" d="M532.11,-403.39C563.92,-387.08 633.88,-349.82 688,-311 711.73,-293.97 736.76,-271.38 752.6,-256.41"/>
<polygon fill="midnightblue" stroke="midnightblue" points="755.18,-258.79 760,-249.35 750.35,-253.72 755.18,-258.79"/>
</g>
<!-- Node17&#45;&gt;Node4 -->
<g id="edge22" class="edge">
<title>Node17&#45;&gt;Node4</title>
<path fill="none" stroke="midnightblue" d="M620.98,-229.92C609.14,-212.48 583.22,-171.2 574,-132 571.97,-123.35 570.27,-120.07 574,-112 579.92,-99.21 591.47,-88.72 602.28,-81.1"/>
<polygon fill="midnightblue" stroke="midnightblue" points="604.21,-84.02 610.67,-75.61 600.38,-78.16 604.21,-84.02"/>
</g>
<!-- Node17&#45;&gt;Node12 -->
<g id="edge23" class="edge">
<title>Node17&#45;&gt;Node12</title>
<path fill="none" stroke="midnightblue" d="M627,-229.82C627,-211.26 627,-167.34 627,-141.97"/>
<polygon fill="midnightblue" stroke="midnightblue" points="630.5,-141.78 627,-131.78 623.5,-141.78 630.5,-141.78"/>
</g>
<!-- Node18&#45;&gt;Node2 -->
<g id="edge62" class="edge">
<title>Node18&#45;&gt;Node2</title>
<path fill="none" stroke="midnightblue" d="M745.86,-351.96C674.54,-344.19 513.47,-326.55 378,-311 366.06,-309.63 353.06,-308.1 341.25,-306.7"/>
<polygon fill="midnightblue" stroke="midnightblue" points="341.57,-303.22 331.23,-305.51 340.74,-310.17 341.57,-303.22"/>
</g>
<!-- Node18&#45;&gt;Node11 -->
<g id="edge60" class="edge">
<title>Node18&#45;&gt;Node11</title>
<path fill="none" stroke="midnightblue" d="M745.97,-350.22C686.49,-340.94 569.06,-322.61 497.34,-311.42"/>
<polygon fill="midnightblue" stroke="midnightblue" points="497.52,-307.9 487.1,-309.82 496.44,-314.82 497.52,-307.9"/>
</g>
<!-- Node18&#45;&gt;Node12 -->
<g id="edge25" class="edge">
<title>Node18&#45;&gt;Node12</title>
<path fill="none" stroke="midnightblue" d="M787.79,-347.26C799.27,-325.02 825.73,-265.1 802,-224 773.99,-175.49 712.82,-148.2 670.77,-134.53"/>
<polygon fill="midnightblue" stroke="midnightblue" points="671.64,-131.13 661.05,-131.5 669.56,-137.82 671.64,-131.13"/>
</g>
<!-- Node19 -->
<g id="node19" class="node">
<title>Node19</title>
<g id="a_node19"><a xlink:href="sitkTemplateFunctions_8h.html" target="_top" xlink:title=" ">
<polygon fill="white" stroke="black" points="543.5,-291.5 543.5,-310.5 678.5,-310.5 678.5,-291.5 543.5,-291.5"/>
<text text-anchor="middle" x="611" y="-298.5" font-family="Helvetica,sans-Serif" font-size="10.00">sitkTemplateFunctions.h</text>
</a>
</g>
</g>
<!-- Node18&#45;&gt;Node19 -->
<g id="edge26" class="edge">
<title>Node18&#45;&gt;Node19</title>
<path fill="none" stroke="midnightblue" d="M755.75,-347.44C726.56,-338.28 680.08,-323.69 647.69,-313.52"/>
<polygon fill="midnightblue" stroke="midnightblue" points="648.72,-310.17 638.13,-310.52 646.62,-316.85 648.72,-310.17"/>
</g>
<!-- Node18&#45;&gt;Node20 -->
<g id="edge61" class="edge">
<title>Node18&#45;&gt;Node20</title>
<path fill="none" stroke="midnightblue" d="M781.95,-347.32C779.7,-328.76 774.37,-284.84 771.3,-259.47"/>
<polygon fill="midnightblue" stroke="midnightblue" points="774.74,-258.79 770.06,-249.28 767.79,-259.63 774.74,-258.79"/>
</g>
<!-- Node22 -->
<g id="node22" class="node">
<title>Node22</title>
<g id="a_node22"><a xlink:href="sitkDetail_8h.html" target="_top" xlink:title=" ">
<polygon fill="white" stroke="black" points="1169.5,-291.5 1169.5,-310.5 1242.5,-310.5 1242.5,-291.5 1169.5,-291.5"/>
<text text-anchor="middle" x="1206" y="-298.5" font-family="Helvetica,sans-Serif" font-size="10.00">sitkDetail.h</text>
</a>
</g>
</g>
<!-- Node18&#45;&gt;Node22 -->
<g id="edge33" class="edge">
<title>Node18&#45;&gt;Node22</title>
<path fill="none" stroke="midnightblue" d="M820.17,-351.26C897.29,-341.41 1074.56,-318.78 1159.27,-307.97"/>
<polygon fill="midnightblue" stroke="midnightblue" points="1159.89,-311.41 1169.37,-306.68 1159.01,-304.47 1159.89,-311.41"/>
</g>
<!-- Node33 -->
<g id="node33" class="node">
<title>Node33</title>
<g id="a_node33"><a xlink:href="sitkPixelIDTokens_8h.html" target="_top" xlink:title=" ">
<polygon fill="white" stroke="black" points="965,-291.5 965,-310.5 1075,-310.5 1075,-291.5 965,-291.5"/>
<text text-anchor="middle" x="1020" y="-298.5" font-family="Helvetica,sans-Serif" font-size="10.00">sitkPixelIDTokens.h</text>
</a>
</g>
</g>
<!-- Node18&#45;&gt;Node33 -->
<g id="edge52" class="edge">
<title>Node18&#45;&gt;Node33</title>
<path fill="none" stroke="midnightblue" d="M820.03,-347.56C861.18,-338.19 927.74,-323.02 972.65,-312.79"/>
<polygon fill="midnightblue" stroke="midnightblue" points="973.47,-316.19 982.45,-310.56 971.92,-309.37 973.47,-316.19"/>
</g>
<!-- Node36 -->
<g id="node36" class="node">
<title>Node36</title>
<g id="a_node36"><a xlink:title=" ">
<polygon fill="white" stroke="#bfbfbf" points="887.5,-230 887.5,-249 956.5,-249 956.5,-230 887.5,-230"/>
<text text-anchor="middle" x="922" y="-237" font-family="Helvetica,sans-Serif" font-size="10.00">type_traits</text>
</a>
</g>
</g>
<!-- Node18&#45;&gt;Node36 -->
<g id="edge63" class="edge">
<title>Node18&#45;&gt;Node36</title>
<path fill="none" stroke="midnightblue" d="M793.45,-347.32C816.89,-327.84 873.95,-280.42 903.53,-255.84"/>
<polygon fill="midnightblue" stroke="midnightblue" points="905.98,-258.36 911.43,-249.28 901.5,-252.98 905.98,-258.36"/>
</g>
<!-- Node19&#45;&gt;Node4 -->
<g id="edge27" class="edge">
<title>Node19&#45;&gt;Node4</title>
<path fill="none" stroke="midnightblue" d="M543.3,-294.55C416.99,-284.22 157.52,-262.19 151,-255 24.2,-115.19 435.62,-77.96 579.32,-69.33"/>
<polygon fill="midnightblue" stroke="midnightblue" points="579.81,-72.81 589.59,-68.74 579.41,-65.82 579.81,-72.81"/>
</g>
<!-- Node19&#45;&gt;Node12 -->
<g id="edge28" class="edge">
<title>Node19&#45;&gt;Node12</title>
<path fill="none" stroke="midnightblue" d="M646.01,-291.45C664.93,-284.84 686.68,-273.59 698,-255 723.12,-213.73 674.45,-162.89 645.82,-138.07"/>
<polygon fill="midnightblue" stroke="midnightblue" points="647.92,-135.27 638.01,-131.51 643.42,-140.63 647.92,-135.27"/>
</g>
<!-- Node19&#45;&gt;Node13 -->
<g id="edge31" class="edge">
<title>Node19&#45;&gt;Node13</title>
<path fill="none" stroke="midnightblue" d="M578.19,-291.44C552.01,-283.88 514.9,-271.48 485,-255 454.13,-237.98 422.82,-211.39 404.42,-194.59"/>
<polygon fill="midnightblue" stroke="midnightblue" points="406.63,-191.87 396.92,-187.64 401.87,-197 406.63,-191.87"/>
</g>
<!-- Node19&#45;&gt;Node17 -->
<g id="edge29" class="edge">
<title>Node19&#45;&gt;Node17</title>
<path fill="none" stroke="midnightblue" d="M613.29,-291.48C615.57,-282.99 619.15,-269.7 622.07,-258.82"/>
<polygon fill="midnightblue" stroke="midnightblue" points="625.49,-259.57 624.71,-249.01 618.74,-257.76 625.49,-259.57"/>
</g>
<!-- Node19&#45;&gt;Node20 -->
<g id="edge30" class="edge">
<title>Node19&#45;&gt;Node20</title>
<path fill="none" stroke="midnightblue" d="M634.02,-291.41C658.19,-282.39 697.29,-267.75 731,-255 732.88,-254.29 734.82,-253.55 736.77,-252.81"/>
<polygon fill="midnightblue" stroke="midnightblue" points="738.4,-255.94 746.5,-249.11 735.91,-249.39 738.4,-255.94"/>
</g>
<!-- Node21 -->
<g id="node21" class="node">
<title>Node21</title>
<g id="a_node21"><a xlink:title=" ">
<polygon fill="white" stroke="#bfbfbf" points="494.5,-230 494.5,-249 547.5,-249 547.5,-230 494.5,-230"/>
<text text-anchor="middle" x="521" y="-237" font-family="Helvetica,sans-Serif" font-size="10.00">iterator</text>
</a>
</g>
</g>
<!-- Node19&#45;&gt;Node21 -->
<g id="edge32" class="edge">
<title>Node19&#45;&gt;Node21</title>
<path fill="none" stroke="midnightblue" d="M598.11,-291.48C583.54,-281.84 559.6,-266.02 542.25,-254.55"/>
<polygon fill="midnightblue" stroke="midnightblue" points="544.14,-251.6 533.87,-249.01 540.28,-257.44 544.14,-251.6"/>
</g>
<!-- Node23 -->
<g id="node23" class="node">
<title>Node23</title>
<g id="a_node23"><a xlink:href="sitkMemberFunctionFactoryBase_8h.html" target="_top" xlink:title=" ">
<polygon fill="white" stroke="black" points="1409,-224.5 1409,-254.5 1561,-254.5 1561,-224.5 1409,-224.5"/>
<text text-anchor="start" x="1417" y="-242.5" font-family="Helvetica,sans-Serif" font-size="10.00">sitkMemberFunctionFactory</text>
<text text-anchor="middle" x="1485" y="-231.5" font-family="Helvetica,sans-Serif" font-size="10.00">Base.h</text>
</a>
</g>
</g>
<!-- Node22&#45;&gt;Node23 -->
<g id="edge34" class="edge">
<title>Node22&#45;&gt;Node23</title>
<path fill="none" stroke="midnightblue" d="M1242.76,-292.16C1284.97,-283.16 1355.33,-268.15 1409.38,-256.63"/>
<polygon fill="midnightblue" stroke="midnightblue" points="1410.22,-260.03 1419.27,-254.52 1408.76,-253.18 1410.22,-260.03"/>
</g>
<!-- Node29 -->
<g id="node29" class="node">
<title>Node29</title>
<g id="a_node29"><a xlink:title=" ">
<polygon fill="white" stroke="#bfbfbf" points="1152.5,-168.5 1152.5,-187.5 1291.5,-187.5 1291.5,-168.5 1152.5,-168.5"/>
<text text-anchor="middle" x="1222" y="-175.5" font-family="Helvetica,sans-Serif" font-size="10.00">Ancillary/FunctionTraits.h</text>
</a>
</g>
</g>
<!-- Node22&#45;&gt;Node29 -->
<g id="edge51" class="edge">
<title>Node22&#45;&gt;Node29</title>
<path fill="none" stroke="midnightblue" d="M1207.15,-291.3C1209.73,-271.76 1216.04,-224.06 1219.55,-197.55"/>
<polygon fill="midnightblue" stroke="midnightblue" points="1223.02,-198 1220.86,-187.62 1216.08,-197.08 1223.02,-198"/>
</g>
<!-- Node23&#45;&gt;Node4 -->
<g id="edge43" class="edge">
<title>Node23&#45;&gt;Node4</title>
<path fill="none" stroke="midnightblue" d="M1438.62,-224.44C1409.57,-215.16 1371.61,-202.12 1339,-188 1321.49,-180.41 1319.14,-173.94 1301,-168 1074.16,-93.68 786.27,-73.77 674.43,-68.67"/>
<polygon fill="midnightblue" stroke="midnightblue" points="674.3,-65.16 664.16,-68.22 674,-72.16 674.3,-65.16"/>
</g>
<!-- Node23&#45;&gt;Node10 -->
<g id="edge35" class="edge">
<title>Node23&#45;&gt;Node10</title>
<path fill="none" stroke="midnightblue" d="M1561.13,-236.65C1641.2,-232.91 1759.48,-221.67 1788,-188 1793.75,-181.22 1789.85,-176.69 1788,-168 1782.32,-141.34 1784.23,-129.09 1763,-112 1696.93,-58.8 1445.1,-27.7 1332.26,-16.16"/>
<polygon fill="midnightblue" stroke="midnightblue" points="1332.41,-12.66 1322.11,-15.14 1331.71,-19.63 1332.41,-12.66"/>
</g>
<!-- Node24 -->
<g id="node24" class="node">
<title>Node24</title>
<g id="a_node24"><a xlink:href="sitkPixelIDTypes_8h.html" target="_top" xlink:title=" ">
<polygon fill="white" stroke="black" points="1471.5,-112.5 1471.5,-131.5 1576.5,-131.5 1576.5,-112.5 1471.5,-112.5"/>
<text text-anchor="middle" x="1524" y="-119.5" font-family="Helvetica,sans-Serif" font-size="10.00">sitkPixelIDTypes.h</text>
</a>
</g>
</g>
<!-- Node23&#45;&gt;Node24 -->
<g id="edge36" class="edge">
<title>Node23&#45;&gt;Node24</title>
<path fill="none" stroke="midnightblue" d="M1507.37,-224.35C1519.17,-215.5 1532.51,-202.95 1539,-188 1545.61,-172.76 1540.11,-154.19 1533.99,-140.81"/>
<polygon fill="midnightblue" stroke="midnightblue" points="1537.02,-139.06 1529.38,-131.73 1530.78,-142.23 1537.02,-139.06"/>
</g>
<!-- Node25 -->
<g id="node25" class="node">
<title>Node25</title>
<g id="a_node25"><a xlink:href="sitkPixelIDTypeLists_8h.html" target="_top" xlink:title=" ">
<polygon fill="white" stroke="black" points="1348,-168.5 1348,-187.5 1470,-187.5 1470,-168.5 1348,-168.5"/>
<text text-anchor="middle" x="1409" y="-175.5" font-family="Helvetica,sans-Serif" font-size="10.00">sitkPixelIDTypeLists.h</text>
</a>
</g>
</g>
<!-- Node23&#45;&gt;Node25 -->
<g id="edge37" class="edge">
<title>Node23&#45;&gt;Node25</title>
<path fill="none" stroke="midnightblue" d="M1466.99,-224.4C1455.26,-215.22 1439.98,-203.26 1428.06,-193.92"/>
<polygon fill="midnightblue" stroke="midnightblue" points="1430.09,-191.07 1420.06,-187.66 1425.78,-196.58 1430.09,-191.07"/>
</g>
<!-- Node26 -->
<g id="node26" class="node">
<title>Node26</title>
<g id="a_node26"><a xlink:title=" ">
<polygon fill="white" stroke="#bfbfbf" points="1642.5,-112.5 1642.5,-131.5 1753.5,-131.5 1753.5,-112.5 1642.5,-112.5"/>
<text text-anchor="middle" x="1698" y="-119.5" font-family="Helvetica,sans-Serif" font-size="10.00">Ancillary/TypeList.h</text>
</a>
</g>
</g>
<!-- Node23&#45;&gt;Node26 -->
<g id="edge46" class="edge">
<title>Node23&#45;&gt;Node26</title>
<path fill="none" stroke="midnightblue" d="M1561.31,-235.81C1637.06,-231.35 1745.57,-219.48 1772,-188 1789.21,-167.5 1757.7,-147.76 1730.62,-135.53"/>
<polygon fill="midnightblue" stroke="midnightblue" points="1731.88,-132.26 1721.32,-131.52 1729.12,-138.69 1731.88,-132.26"/>
</g>
<!-- Node28 -->
<g id="node28" class="node">
<title>Node28</title>
<g id="a_node28"><a xlink:href="sitkNonCopyable_8h.html" target="_top" xlink:title=" ">
<polygon fill="white" stroke="black" points="1025.5,-168.5 1025.5,-187.5 1134.5,-187.5 1134.5,-168.5 1025.5,-168.5"/>
<text text-anchor="middle" x="1080" y="-175.5" font-family="Helvetica,sans-Serif" font-size="10.00">sitkNonCopyable.h</text>
</a>
</g>
</g>
<!-- Node23&#45;&gt;Node28 -->
<g id="edge44" class="edge">
<title>Node23&#45;&gt;Node28</title>
<path fill="none" stroke="midnightblue" d="M1408.82,-227.31C1332.71,-216.13 1216.96,-199.12 1145.03,-188.55"/>
<polygon fill="midnightblue" stroke="midnightblue" points="1145.15,-185.03 1134.75,-187.04 1144.14,-191.96 1145.15,-185.03"/>
</g>
<!-- Node23&#45;&gt;Node29 -->
<g id="edge47" class="edge">
<title>Node23&#45;&gt;Node29</title>
<path fill="none" stroke="midnightblue" d="M1423.01,-224.47C1376.05,-213.85 1312.5,-199.47 1269.52,-189.75"/>
<polygon fill="midnightblue" stroke="midnightblue" points="1270.13,-186.3 1259.6,-187.51 1268.58,-193.13 1270.13,-186.3"/>
</g>
<!-- Node30 -->
<g id="node30" class="node">
<title>Node30</title>
<g id="a_node30"><a xlink:title=" ">
<polygon fill="white" stroke="#bfbfbf" points="1586.5,-168.5 1586.5,-187.5 1679.5,-187.5 1679.5,-168.5 1586.5,-168.5"/>
<text text-anchor="middle" x="1633" y="-175.5" font-family="Helvetica,sans-Serif" font-size="10.00">unordered_map</text>
</a>
</g>
</g>
<!-- Node23&#45;&gt;Node30 -->
<g id="edge48" class="edge">
<title>Node23&#45;&gt;Node30</title>
<path fill="none" stroke="midnightblue" d="M1520.07,-224.4C1545.02,-214.37 1578.21,-201.03 1602.14,-191.4"/>
<polygon fill="midnightblue" stroke="midnightblue" points="1603.49,-194.64 1611.46,-187.66 1600.88,-188.14 1603.49,-194.64"/>
</g>
<!-- Node31 -->
<g id="node31" class="node">
<title>Node31</title>
<g id="a_node31"><a xlink:title=" ">
<polygon fill="white" stroke="#bfbfbf" points="1697.5,-168.5 1697.5,-187.5 1762.5,-187.5 1762.5,-168.5 1697.5,-168.5"/>
<text text-anchor="middle" x="1730" y="-175.5" font-family="Helvetica,sans-Serif" font-size="10.00">functional</text>
</a>
</g>
</g>
<!-- Node23&#45;&gt;Node31 -->
<g id="edge49" class="edge">
<title>Node23&#45;&gt;Node31</title>
<path fill="none" stroke="midnightblue" d="M1542.75,-224.47C1587.22,-213.67 1647.67,-198.99 1687.72,-189.27"/>
<polygon fill="midnightblue" stroke="midnightblue" points="1688.54,-192.67 1697.43,-186.91 1686.89,-185.87 1688.54,-192.67"/>
</g>
<!-- Node32 -->
<g id="node32" class="node">
<title>Node32</title>
<g id="a_node32"><a xlink:title=" ">
<polygon fill="white" stroke="#bfbfbf" points="1488.5,-168.5 1488.5,-187.5 1529.5,-187.5 1529.5,-168.5 1488.5,-168.5"/>
<text text-anchor="middle" x="1509" y="-175.5" font-family="Helvetica,sans-Serif" font-size="10.00">tuple</text>
</a>
</g>
</g>
<!-- Node23&#45;&gt;Node32 -->
<g id="edge50" class="edge">
<title>Node23&#45;&gt;Node32</title>
<path fill="none" stroke="midnightblue" d="M1490.69,-224.4C1494,-216.2 1498.2,-205.78 1501.74,-196.99"/>
<polygon fill="midnightblue" stroke="midnightblue" points="1505.01,-198.24 1505.51,-187.66 1498.52,-195.62 1505.01,-198.24"/>
</g>
<!-- Node25&#45;&gt;Node5 -->
<g id="edge38" class="edge">
<title>Node25&#45;&gt;Node5</title>
<path fill="none" stroke="midnightblue" d="M1384.51,-168.42C1305.85,-140.88 1059.45,-54.58 968.85,-22.86"/>
<polygon fill="midnightblue" stroke="midnightblue" points="969.93,-19.53 959.34,-19.52 967.62,-26.13 969.93,-19.53"/>
</g>
<!-- Node25&#45;&gt;Node10 -->
<g id="edge39" class="edge">
<title>Node25&#45;&gt;Node10</title>
<path fill="none" stroke="midnightblue" d="M1408.02,-168.38C1406.2,-155.31 1401.42,-130.1 1390,-112 1366.39,-74.58 1325.03,-42.74 1299.44,-25.29"/>
<polygon fill="midnightblue" stroke="midnightblue" points="1301.36,-22.37 1291.1,-19.74 1297.48,-28.19 1301.36,-22.37"/>
</g>
<!-- Node25&#45;&gt;Node24 -->
<g id="edge40" class="edge">
<title>Node25&#45;&gt;Node24</title>
<path fill="none" stroke="midnightblue" d="M1427.22,-168.44C1445.9,-159.68 1475.16,-145.94 1496.62,-135.86"/>
<polygon fill="midnightblue" stroke="midnightblue" points="1498.3,-138.93 1505.86,-131.52 1495.32,-132.6 1498.3,-138.93"/>
</g>
<!-- Node25&#45;&gt;Node26 -->
<g id="edge41" class="edge">
<title>Node25&#45;&gt;Node26</title>
<path fill="none" stroke="midnightblue" d="M1454.79,-168.44C1505.74,-158.92 1588.03,-143.55 1642.57,-133.36"/>
<polygon fill="midnightblue" stroke="midnightblue" points="1643.23,-136.79 1652.42,-131.52 1641.95,-129.91 1643.23,-136.79"/>
</g>
<!-- Node27 -->
<g id="node27" class="node">
<title>Node27</title>
<g id="a_node27"><a xlink:title=" ">
<polygon fill="white" stroke="#bfbfbf" points="1321.5,-112.5 1321.5,-131.5 1380.5,-131.5 1380.5,-112.5 1321.5,-112.5"/>
<text text-anchor="middle" x="1351" y="-119.5" font-family="Helvetica,sans-Serif" font-size="10.00">complex</text>
</a>
</g>
</g>
<!-- Node25&#45;&gt;Node27 -->
<g id="edge42" class="edge">
<title>Node25&#45;&gt;Node27</title>
<path fill="none" stroke="midnightblue" d="M1399.68,-168.32C1391.11,-160.34 1378.19,-148.31 1367.81,-138.65"/>
<polygon fill="midnightblue" stroke="midnightblue" points="1370.19,-136.09 1360.49,-131.83 1365.42,-141.21 1370.19,-136.09"/>
</g>
<!-- Node28&#45;&gt;Node12 -->
<g id="edge45" class="edge">
<title>Node28&#45;&gt;Node12</title>
<path fill="none" stroke="midnightblue" d="M1025.36,-170.49C938.1,-160.08 768.28,-139.84 681.26,-129.47"/>
<polygon fill="midnightblue" stroke="midnightblue" points="681.67,-125.99 671.32,-128.28 680.84,-132.94 681.67,-125.99"/>
</g>
<!-- Node33&#45;&gt;Node10 -->
<g id="edge53" class="edge">
<title>Node33&#45;&gt;Node10</title>
<path fill="none" stroke="midnightblue" d="M1046.93,-291.36C1063.72,-284.41 1083.98,-272.82 1094,-255 1100.75,-242.99 1101.4,-235.62 1094,-224 1073.72,-192.13 1037.28,-219.87 1017,-188 1012.23,-180.5 1012.63,-175.74 1017,-168 1063.64,-85.35 1173.21,-41.31 1234.17,-22.45"/>
<polygon fill="midnightblue" stroke="midnightblue" points="1235.32,-25.76 1243.88,-19.53 1233.3,-19.05 1235.32,-25.76"/>
</g>
<!-- Node34 -->
<g id="node34" class="node">
<title>Node34</title>
<g id="a_node34"><a xlink:href="sitkPixelIDValues_8h.html" target="_top" xlink:title=" ">
<polygon fill="white" stroke="black" points="975,-230 975,-249 1085,-249 1085,-230 975,-230"/>
<text text-anchor="middle" x="1030" y="-237" font-family="Helvetica,sans-Serif" font-size="10.00">sitkPixelIDValues.h</text>
</a>
</g>
</g>
<!-- Node33&#45;&gt;Node34 -->
<g id="edge54" class="edge">
<title>Node33&#45;&gt;Node34</title>
<path fill="none" stroke="midnightblue" d="M1021.43,-291.48C1022.84,-283.08 1025.05,-269.98 1026.86,-259.16"/>
<polygon fill="midnightblue" stroke="midnightblue" points="1030.36,-259.45 1028.57,-249.01 1023.46,-258.29 1030.36,-259.45"/>
</g>
<!-- Node33&#45;&gt;Node36 -->
<g id="edge59" class="edge">
<title>Node33&#45;&gt;Node36</title>
<path fill="none" stroke="midnightblue" d="M1005.96,-291.48C989.95,-281.75 963.55,-265.73 944.63,-254.24"/>
<polygon fill="midnightblue" stroke="midnightblue" points="946.38,-251.21 936.01,-249.01 942.75,-257.19 946.38,-251.21"/>
</g>
<!-- Node34&#45;&gt;Node12 -->
<g id="edge55" class="edge">
<title>Node34&#45;&gt;Node12</title>
<path fill="none" stroke="midnightblue" d="M1010.18,-229.85C987.4,-219.88 948.92,-202.94 916,-188 896.81,-179.29 893.08,-174.39 873,-168 808.75,-147.55 731.92,-135.35 681.42,-128.92"/>
<polygon fill="midnightblue" stroke="midnightblue" points="681.73,-125.43 671.37,-127.67 680.86,-132.38 681.73,-125.43"/>
</g>
<!-- Node34&#45;&gt;Node13 -->
<g id="edge58" class="edge">
<title>Node34&#45;&gt;Node13</title>
<path fill="none" stroke="midnightblue" d="M996.63,-229.98C986.82,-227.73 976.03,-225.52 966,-224 764.53,-193.5 520.24,-183.1 426.85,-180.08"/>
<polygon fill="midnightblue" stroke="midnightblue" points="426.84,-176.58 416.73,-179.76 426.62,-183.57 426.84,-176.58"/>
</g>
<!-- Node34&#45;&gt;Node25 -->
<g id="edge56" class="edge">
<title>Node34&#45;&gt;Node25</title>
<path fill="none" stroke="midnightblue" d="M1084.3,-229.98C1153.11,-219.17 1271.55,-200.58 1344.78,-189.08"/>
<polygon fill="midnightblue" stroke="midnightblue" points="1345.46,-192.52 1354.8,-187.51 1344.38,-185.6 1345.46,-192.52"/>
</g>
<!-- Node35 -->
<g id="node35" class="node">
<title>Node35</title>
<g id="a_node35"><a xlink:title=" ">
<polygon fill="white" stroke="#bfbfbf" points="925,-168.5 925,-187.5 969,-187.5 969,-168.5 925,-168.5"/>
<text text-anchor="middle" x="947" y="-175.5" font-family="Helvetica,sans-Serif" font-size="10.00">string</text>
</a>
</g>
</g>
<!-- Node34&#45;&gt;Node35 -->
<g id="edge57" class="edge">
<title>Node34&#45;&gt;Node35</title>
<path fill="none" stroke="midnightblue" d="M1018.11,-229.98C1004.8,-220.43 983,-204.81 967.04,-193.37"/>
<polygon fill="midnightblue" stroke="midnightblue" points="969.04,-190.49 958.87,-187.51 964.96,-196.18 969.04,-190.49"/>
</g>
<!-- Node38&#45;&gt;Node3 -->
<g id="edge77" class="edge">
<title>Node38&#45;&gt;Node3</title>
<path fill="none" stroke="midnightblue" d="M197.86,-515.08C195.32,-507.85 191.64,-497.41 188.47,-488.4"/>
<polygon fill="midnightblue" stroke="midnightblue" points="191.7,-487.02 185.08,-478.75 185.1,-489.35 191.7,-487.02"/>
</g>
<!-- Node38&#45;&gt;Node4 -->
<g id="edge67" class="edge">
<title>Node38&#45;&gt;Node4</title>
<path fill="none" stroke="midnightblue" d="M151.83,-518.59C92.32,-509.01 0,-483.02 0,-414 0,-414 0,-414 0,-177 0,-138.87 21.99,-129.24 56,-112 102.15,-88.6 450.74,-73.5 579.45,-68.68"/>
<polygon fill="midnightblue" stroke="midnightblue" points="579.9,-72.16 589.77,-68.29 579.64,-65.17 579.9,-72.16"/>
</g>
<!-- Node39 -->
<g id="node39" class="node">
<title>Node39</title>
<g id="a_node39"><a xlink:href="sitkMemberFunctionFactory_8h.html" target="_top" xlink:title=" ">
<polygon fill="white" stroke="black" points="1093.5,-347.5 1093.5,-366.5 1252.5,-366.5 1252.5,-347.5 1093.5,-347.5"/>
<text text-anchor="middle" x="1173" y="-354.5" font-family="Helvetica,sans-Serif" font-size="10.00">sitkMemberFunctionFactory.h</text>
</a>
</g>
</g>
<!-- Node38&#45;&gt;Node39 -->
<g id="edge68" class="edge">
<title>Node38&#45;&gt;Node39</title>
<path fill="none" stroke="midnightblue" d="M250.4,-524.13C357.11,-523.62 616.78,-518.06 830,-479 915.34,-463.37 935.29,-452.17 1017,-423 1062.38,-406.8 1113.74,-384.64 1144.73,-370.83"/>
<polygon fill="midnightblue" stroke="midnightblue" points="1146.34,-373.94 1154.04,-366.65 1143.48,-367.55 1146.34,-373.94"/>
</g>
<!-- Node41 -->
<g id="node41" class="node">
<title>Node41</title>
<g id="a_node41"><a xlink:href="sitkProcessObject_8h.html" target="_top" xlink:title=" ">
<polygon fill="white" stroke="black" points="707.5,-459.5 707.5,-478.5 820.5,-478.5 820.5,-459.5 707.5,-459.5"/>
<text text-anchor="middle" x="764" y="-466.5" font-family="Helvetica,sans-Serif" font-size="10.00">sitkProcessObject.h</text>
</a>
</g>
</g>
<!-- Node38&#45;&gt;Node41 -->
<g id="edge78" class="edge">
<title>Node38&#45;&gt;Node41</title>
<path fill="none" stroke="midnightblue" d="M250.47,-519.26C351.79,-509.54 582.98,-487.36 697.37,-476.39"/>
<polygon fill="midnightblue" stroke="midnightblue" points="697.78,-479.87 707.4,-475.43 697.11,-472.9 697.78,-479.87"/>
</g>
<!-- Node39&#45;&gt;Node7 -->
<g id="edge73" class="edge">
<title>Node39&#45;&gt;Node7</title>
<path fill="none" stroke="midnightblue" d="M1252.61,-350.98C1434.9,-338.43 1867,-302.18 1867,-240.5 1867,-240.5 1867,-240.5 1867,-121 1867,-28.76 1722.67,-13.19 1653.34,-11.03"/>
<polygon fill="midnightblue" stroke="midnightblue" points="1653.36,-7.53 1643.28,-10.79 1653.2,-14.52 1653.36,-7.53"/>
</g>
<!-- Node39&#45;&gt;Node17 -->
<g id="edge76" class="edge">
<title>Node39&#45;&gt;Node17</title>
<path fill="none" stroke="midnightblue" d="M1131.38,-347.45C1087.69,-338.46 1016.99,-323.86 956,-311 856.71,-290.07 740.69,-265.08 676.35,-251.18"/>
<polygon fill="midnightblue" stroke="midnightblue" points="677,-247.74 666.48,-249.05 675.52,-254.58 677,-247.74"/>
</g>
<!-- Node39&#45;&gt;Node22 -->
<g id="edge69" class="edge">
<title>Node39&#45;&gt;Node22</title>
<path fill="none" stroke="midnightblue" d="M1178.45,-347.08C1183.01,-339.61 1189.67,-328.72 1195.29,-319.52"/>
<polygon fill="midnightblue" stroke="midnightblue" points="1198.42,-321.11 1200.65,-310.75 1192.45,-317.46 1198.42,-321.11"/>
</g>
<!-- Node39&#45;&gt;Node23 -->
<g id="edge70" class="edge">
<title>Node39&#45;&gt;Node23</title>
<path fill="none" stroke="midnightblue" d="M1252.68,-349.85C1320.25,-343.34 1410.85,-331.17 1441,-311 1457.62,-299.88 1469.15,-280.13 1476.22,-264.35"/>
<polygon fill="midnightblue" stroke="midnightblue" points="1479.63,-265.27 1480.23,-254.7 1473.16,-262.59 1479.63,-265.27"/>
</g>
<!-- Node39&#45;&gt;Node33 -->
<g id="edge75" class="edge">
<title>Node39&#45;&gt;Node33</title>
<path fill="none" stroke="midnightblue" d="M1148.76,-347.44C1123.13,-338.4 1082.51,-324.06 1053.76,-313.92"/>
<polygon fill="midnightblue" stroke="midnightblue" points="1054.72,-310.54 1044.13,-310.52 1052.39,-317.15 1054.72,-310.54"/>
</g>
<!-- Node39&#45;&gt;Node34 -->
<g id="edge71" class="edge">
<title>Node39&#45;&gt;Node34</title>
<path fill="none" stroke="midnightblue" d="M1162.25,-347.32C1138.13,-327.84 1079.43,-280.42 1049,-255.84"/>
<polygon fill="midnightblue" stroke="midnightblue" points="1050.85,-252.84 1040.87,-249.28 1046.45,-258.29 1050.85,-252.84"/>
</g>
<!-- Node39&#45;&gt;Node39 -->
<g id="edge74" class="edge">
<title>Node39&#45;&gt;Node39</title>
<path fill="none" stroke="midnightblue" d="M1214.33,-366.5C1242.67,-369.33 1270.5,-366.16 1270.5,-357 1270.5,-348.95 1249,-345.53 1224.56,-346.74"/>
<polygon fill="midnightblue" stroke="midnightblue" points="1224.04,-343.27 1214.33,-347.5 1224.56,-350.25 1224.04,-343.27"/>
</g>
<!-- Node40 -->
<g id="node40" class="node">
<title>Node40</title>
<g id="a_node40"><a xlink:title=" ">
<polygon fill="white" stroke="#bfbfbf" points="1260.5,-291.5 1260.5,-310.5 1431.5,-310.5 1431.5,-291.5 1260.5,-291.5"/>
<text text-anchor="middle" x="1346" y="-298.5" font-family="Helvetica,sans-Serif" font-size="10.00">sitkMemberFunctionFactory.hxx</text>
</a>
</g>
</g>
<!-- Node39&#45;&gt;Node40 -->
<g id="edge72" class="edge">
<title>Node39&#45;&gt;Node40</title>
<path fill="none" stroke="midnightblue" d="M1200.41,-347.44C1229.77,-338.28 1276.52,-323.69 1309.1,-313.52"/>
<polygon fill="midnightblue" stroke="midnightblue" points="1310.21,-316.84 1318.72,-310.52 1308.13,-310.16 1310.21,-316.84"/>
</g>
<!-- Node41&#45;&gt;Node12 -->
<g id="edge79" class="edge">
<title>Node41&#45;&gt;Node12</title>
<path fill="none" stroke="midnightblue" d="M813.71,-459.46C876.92,-448.37 978.58,-429.64 984,-423 989.62,-416.11 987.18,-411.3 984,-403 958.89,-337.46 832.12,-205.82 773,-168 745.22,-150.23 709.98,-139.1 681.08,-132.36"/>
<polygon fill="midnightblue" stroke="midnightblue" points="681.67,-128.91 671.15,-130.16 680.15,-135.74 681.67,-128.91"/>
</g>
<!-- Node41&#45;&gt;Node18 -->
<g id="edge85" class="edge">
<title>Node41&#45;&gt;Node18</title>
<path fill="none" stroke="midnightblue" d="M786.46,-459.38C801.77,-452.18 820.86,-440.29 830,-423 839.81,-404.44 821.77,-385.2 805.28,-372.52"/>
<polygon fill="midnightblue" stroke="midnightblue" points="807.12,-369.53 796.96,-366.52 803.02,-375.21 807.12,-369.53"/>
</g>
<!-- Node41&#45;&gt;Node19 -->
<g id="edge81" class="edge">
<title>Node41&#45;&gt;Node19</title>
<path fill="none" stroke="midnightblue" d="M715.51,-459.47C692.24,-453.06 665.65,-441.99 648,-423 621.3,-394.26 613.84,-346.74 611.78,-320.62"/>
<polygon fill="midnightblue" stroke="midnightblue" points="615.27,-320.34 611.17,-310.57 608.28,-320.76 615.27,-320.34"/>
</g>
<!-- Node41&#45;&gt;Node28 -->
<g id="edge80" class="edge">
<title>Node41&#45;&gt;Node28</title>
<path fill="none" stroke="midnightblue" d="M782.28,-459.45C848.45,-428.43 1072.2,-323.05 1084,-311 1112.23,-282.16 1121.69,-262.62 1110,-224 1106.88,-213.7 1100.55,-203.61 1094.5,-195.6"/>
<polygon fill="midnightblue" stroke="midnightblue" points="1097.22,-193.4 1088.21,-187.82 1091.77,-197.8 1097.22,-193.4"/>
</g>
<!-- Node42 -->
<g id="node42" class="node">
<title>Node42</title>
<g id="a_node42"><a xlink:href="sitkEvent_8h.html" target="_top" xlink:title=" ">
<polygon fill="white" stroke="black" points="290.5,-230 290.5,-249 361.5,-249 361.5,-230 290.5,-230"/>
<text text-anchor="middle" x="326" y="-237" font-family="Helvetica,sans-Serif" font-size="10.00">sitkEvent.h</text>
</a>
</g>
</g>
<!-- Node41&#45;&gt;Node42 -->
<g id="edge82" class="edge">
<title>Node41&#45;&gt;Node42</title>
<path fill="none" stroke="midnightblue" d="M707.32,-465.88C645.12,-462.12 543.07,-451.74 460,-423 365.18,-390.2 314.36,-397.78 264,-311 251.2,-288.95 277.2,-267.52 299.36,-254.19"/>
<polygon fill="midnightblue" stroke="midnightblue" points="301.23,-257.15 308.18,-249.16 297.76,-251.07 301.23,-257.15"/>
</g>
<!-- Node43 -->
<g id="node43" class="node">
<title>Node43</title>
<g id="a_node43"><a xlink:href="sitkImageConvert_8h.html" target="_top" xlink:title=" ">
<polygon fill="white" stroke="black" points="707.5,-403.5 707.5,-422.5 820.5,-422.5 820.5,-403.5 707.5,-403.5"/>
<text text-anchor="middle" x="764" y="-410.5" font-family="Helvetica,sans-Serif" font-size="10.00">sitkImageConvert.h</text>
</a>
</g>
</g>
<!-- Node41&#45;&gt;Node43 -->
<g id="edge86" class="edge">
<title>Node41&#45;&gt;Node43</title>
<path fill="none" stroke="midnightblue" d="M764,-459.08C764,-452.01 764,-441.86 764,-432.99"/>
<polygon fill="midnightblue" stroke="midnightblue" points="767.5,-432.75 764,-422.75 760.5,-432.75 767.5,-432.75"/>
</g>
<!-- Node44 -->
<g id="node44" class="node">
<title>Node44</title>
<g id="a_node44"><a xlink:title=" ">
<polygon fill="white" stroke="#bfbfbf" points="915,-403.5 915,-422.5 975,-422.5 975,-403.5 915,-403.5"/>
<text text-anchor="middle" x="945" y="-410.5" font-family="Helvetica,sans-Serif" font-size="10.00">iostream</text>
</a>
</g>
</g>
<!-- Node41&#45;&gt;Node44 -->
<g id="edge88" class="edge">
<title>Node41&#45;&gt;Node44</title>
<path fill="none" stroke="midnightblue" d="M792.68,-459.44C823.53,-450.24 872.73,-435.56 906.83,-425.39"/>
<polygon fill="midnightblue" stroke="midnightblue" points="907.87,-428.73 916.45,-422.52 905.87,-422.02 907.87,-428.73"/>
</g>
<!-- Node45 -->
<g id="node45" class="node">
<title>Node45</title>
<g id="a_node45"><a xlink:title=" ">
<polygon fill="white" stroke="#bfbfbf" points="657,-403.5 657,-422.5 689,-422.5 689,-403.5 657,-403.5"/>
<text text-anchor="middle" x="673" y="-410.5" font-family="Helvetica,sans-Serif" font-size="10.00">list</text>
</a>
</g>
</g>
<!-- Node41&#45;&gt;Node45 -->
<g id="edge89" class="edge">
<title>Node41&#45;&gt;Node45</title>
<path fill="none" stroke="midnightblue" d="M749.38,-459.32C735.05,-450.82 712.99,-437.73 696.25,-427.8"/>
<polygon fill="midnightblue" stroke="midnightblue" points="697.97,-424.75 687.58,-422.65 694.4,-430.77 697.97,-424.75"/>
</g>
<!-- Node42&#45;&gt;Node12 -->
<g id="edge83" class="edge">
<title>Node42&#45;&gt;Node12</title>
<path fill="none" stroke="midnightblue" d="M326.25,-229.54C327.2,-214.36 331.44,-183.69 350,-168 382.8,-140.27 501.83,-129.39 572.74,-125.3"/>
<polygon fill="midnightblue" stroke="midnightblue" points="573.05,-128.79 582.84,-124.75 572.66,-121.8 573.05,-128.79"/>
</g>
<!-- Node42&#45;&gt;Node13 -->
<g id="edge84" class="edge">
<title>Node42&#45;&gt;Node13</title>
<path fill="none" stroke="midnightblue" d="M334.88,-229.98C344.46,-220.78 359.91,-205.96 371.69,-194.66"/>
<polygon fill="midnightblue" stroke="midnightblue" points="374.34,-196.96 379.13,-187.51 369.49,-191.91 374.34,-196.96"/>
</g>
<!-- Node43&#45;&gt;Node18 -->
<g id="edge87" class="edge">
<title>Node43&#45;&gt;Node18</title>
<path fill="none" stroke="midnightblue" d="M767.14,-403.08C769.68,-395.85 773.36,-385.41 776.53,-376.4"/>
<polygon fill="midnightblue" stroke="midnightblue" points="779.9,-377.35 779.92,-366.75 773.3,-375.02 779.9,-377.35"/>
</g>
</g>
</svg>
