<?xml version="1.0" encoding="UTF-8" standalone="no"?>
<!DOCTYPE svg PUBLIC "-//W3C//DTD SVG 1.1//EN"
 "http://www.w3.org/Graphics/SVG/1.1/DTD/svg11.dtd">
<!-- Generated by graphviz version 2.43.0 (0)
 -->
<!-- Title: sitkDetail.h Pages: 1 -->
<!--zoomable 319 -->
<svg id="main" version="1.1" xmlns="http://www.w3.org/2000/svg" xmlns:xlink="http://www.w3.org/1999/xlink" xml:space="preserve" onload="init(evt)">
<style type="text/css"><![CDATA[
.edge:hover path { stroke: red; }
.edge:hover polygon { stroke: red; fill: red; }
]]></style>
<script type="text/javascript"><![CDATA[
var edges = document.getElementsByTagName('g');
if (edges && edges.length) {
  for (var i=0;i<edges.length;i++) {
    if (edges[i].id.substr(0,4)=='edge') {
      edges[i].setAttribute('class','edge');
    }
  }
}
]]></script>
        <defs>
                <circle id="rim" cx="0" cy="0" r="7"/>
                <circle id="rim2" cx="0" cy="0" r="3.5"/>
                <g id="zoomPlus">
                        <use xlink:href="#rim" fill="#404040">
                                <set attributeName="fill" to="#808080" begin="zoomplus.mouseover" end="zoomplus.mouseout"/>
                        </use>
                        <path d="M-4,0h8M0,-4v8" fill="none" stroke="white" stroke-width="1.5" pointer-events="none"/>
                </g>
                <g id="zoomMin">
                        <use xlink:href="#rim" fill="#404040">
                                <set attributeName="fill" to="#808080" begin="zoomminus.mouseover" end="zoomminus.mouseout"/>
                        </use>
                        <path d="M-4,0h8" fill="none" stroke="white" stroke-width="1.5" pointer-events="none"/>
                </g>
                <g id="dirArrow">
                        <path fill="none" stroke="white" stroke-width="1.5" d="M0,-3.0v7 M-2.5,-0.5L0,-3.0L2.5,-0.5"/>
                </g>
               <g id="resetDef">
                       <use xlink:href="#rim2" fill="#404040">
                               <set attributeName="fill" to="#808080" begin="reset.mouseover" end="reset.mouseout"/>
                       </use>
               </g>
        </defs>

<script type="text/javascript">
var viewWidth = 821;
var viewHeight = 319;
var sectionId = 'dynsection-0';
</script>
<script xlink:href="svgpan.js"/>
<svg id="graph" class="graph">
<g id="viewport">
<title>sitkDetail.h</title>
<polygon fill="white" stroke="transparent" points="-4,4 -4,-315 817,-315 817,4 -4,4"/>
<!-- Node1 -->
<g id="node1" class="node">
<title>Node1</title>
<g id="a_node1"><a xlink:title=" ">
<polygon fill="#bfbfbf" stroke="black" points="434,-291.5 434,-310.5 507,-310.5 507,-291.5 434,-291.5"/>
<text text-anchor="middle" x="470.5" y="-298.5" font-family="Helvetica,sans-Serif" font-size="10.00">sitkDetail.h</text>
</a>
</g>
</g>
<!-- Node2 -->
<g id="node2" class="node">
<title>Node2</title>
<g id="a_node2"><a xlink:href="sitkMemberFunctionFactoryBase_8h.html" target="_top" xlink:title=" ">
<polygon fill="white" stroke="black" points="342.5,-224.5 342.5,-254.5 494.5,-254.5 494.5,-224.5 342.5,-224.5"/>
<text text-anchor="start" x="350.5" y="-242.5" font-family="Helvetica,sans-Serif" font-size="10.00">sitkMemberFunctionFactory</text>
<text text-anchor="middle" x="418.5" y="-231.5" font-family="Helvetica,sans-Serif" font-size="10.00">Base.h</text>
</a>
</g>
</g>
<!-- Node1&#45;&gt;Node2 -->
<g id="edge1" class="edge">
<title>Node1&#45;&gt;Node2</title>
<path fill="none" stroke="midnightblue" d="M463.05,-291.48C456.4,-283.87 446.38,-272.4 437.52,-262.26"/>
<polygon fill="midnightblue" stroke="midnightblue" points="439.97,-259.75 430.76,-254.52 434.7,-264.36 439.97,-259.75"/>
</g>
<!-- Node16 -->
<g id="node16" class="node">
<title>Node16</title>
<g id="a_node16"><a xlink:title=" ">
<polygon fill="white" stroke="#bfbfbf" points="674,-168.5 674,-187.5 813,-187.5 813,-168.5 674,-168.5"/>
<text text-anchor="middle" x="743.5" y="-175.5" font-family="Helvetica,sans-Serif" font-size="10.00">Ancillary/FunctionTraits.h</text>
</a>
</g>
</g>
<!-- Node1&#45;&gt;Node16 -->
<g id="edge25" class="edge">
<title>Node1&#45;&gt;Node16</title>
<path fill="none" stroke="midnightblue" d="M489.7,-291.49C536.87,-270.58 658.68,-216.6 714.62,-191.8"/>
<polygon fill="midnightblue" stroke="midnightblue" points="716.23,-194.91 723.96,-187.66 713.4,-188.51 716.23,-194.91"/>
</g>
<!-- Node3 -->
<g id="node3" class="node">
<title>Node3</title>
<g id="a_node3"><a xlink:href="sitkConfigure_8h.html" target="_top" xlink:title=" ">
<polygon fill="white" stroke="black" points="432.5,-0.5 432.5,-19.5 522.5,-19.5 522.5,-0.5 432.5,-0.5"/>
<text text-anchor="middle" x="477.5" y="-7.5" font-family="Helvetica,sans-Serif" font-size="10.00">sitkConfigure.h</text>
</a>
</g>
</g>
<!-- Node2&#45;&gt;Node3 -->
<g id="edge2" class="edge">
<title>Node2&#45;&gt;Node3</title>
<path fill="none" stroke="midnightblue" d="M494.73,-234.21C532.2,-228.4 575.61,-215.61 605.5,-188 624.91,-170.07 620.99,-158.04 625.5,-132 635.34,-75.21 563.73,-39.79 516.65,-22.88"/>
<polygon fill="midnightblue" stroke="midnightblue" points="517.6,-19.51 507.01,-19.55 515.32,-26.12 517.6,-19.51"/>
</g>
<!-- Node4 -->
<g id="node4" class="node">
<title>Node4</title>
<g id="a_node4"><a xlink:href="sitkPixelIDTypes_8h.html" target="_top" xlink:title=" ">
<polygon fill="white" stroke="black" points="185,-112.5 185,-131.5 290,-131.5 290,-112.5 185,-112.5"/>
<text text-anchor="middle" x="237.5" y="-119.5" font-family="Helvetica,sans-Serif" font-size="10.00">sitkPixelIDTypes.h</text>
</a>
</g>
</g>
<!-- Node2&#45;&gt;Node4 -->
<g id="edge3" class="edge">
<title>Node2&#45;&gt;Node4</title>
<path fill="none" stroke="midnightblue" d="M342.37,-231.42C284.91,-224.32 212.92,-211.04 194.5,-188 181.48,-171.71 199.72,-151.47 216.31,-137.95"/>
<polygon fill="midnightblue" stroke="midnightblue" points="218.85,-140.41 224.65,-131.54 214.59,-134.85 218.85,-140.41"/>
</g>
<!-- Node5 -->
<g id="node5" class="node">
<title>Node5</title>
<g id="a_node5"><a xlink:href="sitkPixelIDTypeLists_8h.html" target="_top" xlink:title=" ">
<polygon fill="white" stroke="black" points="457.5,-168.5 457.5,-187.5 579.5,-187.5 579.5,-168.5 457.5,-168.5"/>
<text text-anchor="middle" x="518.5" y="-175.5" font-family="Helvetica,sans-Serif" font-size="10.00">sitkPixelIDTypeLists.h</text>
</a>
</g>
</g>
<!-- Node2&#45;&gt;Node5 -->
<g id="edge4" class="edge">
<title>Node2&#45;&gt;Node5</title>
<path fill="none" stroke="midnightblue" d="M442.2,-224.4C458.23,-214.86 479.3,-202.32 495.24,-192.84"/>
<polygon fill="midnightblue" stroke="midnightblue" points="497.14,-195.78 503.95,-187.66 493.57,-189.76 497.14,-195.78"/>
</g>
<!-- Node7 -->
<g id="node7" class="node">
<title>Node7</title>
<g id="a_node7"><a xlink:title=" ">
<polygon fill="white" stroke="#bfbfbf" points="506,-112.5 506,-131.5 617,-131.5 617,-112.5 506,-112.5"/>
<text text-anchor="middle" x="561.5" y="-119.5" font-family="Helvetica,sans-Serif" font-size="10.00">Ancillary/TypeList.h</text>
</a>
</g>
</g>
<!-- Node2&#45;&gt;Node7 -->
<g id="edge20" class="edge">
<title>Node2&#45;&gt;Node7</title>
<path fill="none" stroke="midnightblue" d="M494.66,-225.09C534.22,-216.42 576.72,-203.79 588.5,-188 599.51,-173.24 588.2,-153.33 577.03,-139.45"/>
<polygon fill="midnightblue" stroke="midnightblue" points="579.49,-136.95 570.3,-131.69 574.21,-141.53 579.49,-136.95"/>
</g>
<!-- Node9 -->
<g id="node9" class="node">
<title>Node9</title>
<g id="a_node9"><a xlink:href="sitkMacro_8h.html" target="_top" xlink:title=" ">
<polygon fill="white" stroke="black" points="123.5,-56.5 123.5,-75.5 197.5,-75.5 197.5,-56.5 123.5,-56.5"/>
<text text-anchor="middle" x="160.5" y="-63.5" font-family="Helvetica,sans-Serif" font-size="10.00">sitkMacro.h</text>
</a>
</g>
</g>
<!-- Node2&#45;&gt;Node9 -->
<g id="edge10" class="edge">
<title>Node2&#45;&gt;Node9</title>
<path fill="none" stroke="midnightblue" d="M342.45,-230.84C283.47,-223.33 208.22,-209.78 186.5,-188 159.41,-160.83 157.46,-112.69 158.76,-86.05"/>
<polygon fill="midnightblue" stroke="midnightblue" points="162.27,-86 159.48,-75.78 155.29,-85.51 162.27,-86"/>
</g>
<!-- Node14 -->
<g id="node14" class="node">
<title>Node14</title>
<g id="a_node14"><a xlink:href="sitkNonCopyable_8h.html" target="_top" xlink:title=" ">
<polygon fill="white" stroke="black" points="0,-168.5 0,-187.5 109,-187.5 109,-168.5 0,-168.5"/>
<text text-anchor="middle" x="54.5" y="-175.5" font-family="Helvetica,sans-Serif" font-size="10.00">sitkNonCopyable.h</text>
</a>
</g>
</g>
<!-- Node2&#45;&gt;Node14 -->
<g id="edge17" class="edge">
<title>Node2&#45;&gt;Node14</title>
<path fill="none" stroke="midnightblue" d="M342.19,-226.03C275.25,-215.08 179.11,-199.37 116.73,-189.17"/>
<polygon fill="midnightblue" stroke="midnightblue" points="117.07,-185.68 106.64,-187.52 115.94,-192.59 117.07,-185.68"/>
</g>
<!-- Node2&#45;&gt;Node16 -->
<g id="edge21" class="edge">
<title>Node2&#45;&gt;Node16</title>
<path fill="none" stroke="midnightblue" d="M494.7,-224.55C553.57,-213.77 633.73,-199.1 686.97,-189.35"/>
<polygon fill="midnightblue" stroke="midnightblue" points="687.71,-192.77 696.92,-187.53 686.45,-185.89 687.71,-192.77"/>
</g>
<!-- Node17 -->
<g id="node17" class="node">
<title>Node17</title>
<g id="a_node17"><a xlink:title=" ">
<polygon fill="white" stroke="#bfbfbf" points="204,-168.5 204,-187.5 297,-187.5 297,-168.5 204,-168.5"/>
<text text-anchor="middle" x="250.5" y="-175.5" font-family="Helvetica,sans-Serif" font-size="10.00">unordered_map</text>
</a>
</g>
</g>
<!-- Node2&#45;&gt;Node17 -->
<g id="edge22" class="edge">
<title>Node2&#45;&gt;Node17</title>
<path fill="none" stroke="midnightblue" d="M378.69,-224.4C350,-214.24 311.69,-200.67 284.44,-191.02"/>
<polygon fill="midnightblue" stroke="midnightblue" points="285.54,-187.7 274.95,-187.66 283.2,-194.3 285.54,-187.7"/>
</g>
<!-- Node18 -->
<g id="node18" class="node">
<title>Node18</title>
<g id="a_node18"><a xlink:title=" ">
<polygon fill="white" stroke="#bfbfbf" points="315,-168.5 315,-187.5 380,-187.5 380,-168.5 315,-168.5"/>
<text text-anchor="middle" x="347.5" y="-175.5" font-family="Helvetica,sans-Serif" font-size="10.00">functional</text>
</a>
</g>
</g>
<!-- Node2&#45;&gt;Node18 -->
<g id="edge23" class="edge">
<title>Node2&#45;&gt;Node18</title>
<path fill="none" stroke="midnightblue" d="M401.67,-224.4C390.83,-215.31 376.72,-203.49 365.63,-194.19"/>
<polygon fill="midnightblue" stroke="midnightblue" points="367.74,-191.4 357.83,-187.66 363.25,-196.76 367.74,-191.4"/>
</g>
<!-- Node19 -->
<g id="node19" class="node">
<title>Node19</title>
<g id="a_node19"><a xlink:title=" ">
<polygon fill="white" stroke="#bfbfbf" points="398,-168.5 398,-187.5 439,-187.5 439,-168.5 398,-168.5"/>
<text text-anchor="middle" x="418.5" y="-175.5" font-family="Helvetica,sans-Serif" font-size="10.00">tuple</text>
</a>
</g>
</g>
<!-- Node2&#45;&gt;Node19 -->
<g id="edge24" class="edge">
<title>Node2&#45;&gt;Node19</title>
<path fill="none" stroke="midnightblue" d="M418.5,-224.4C418.5,-216.47 418.5,-206.46 418.5,-197.86"/>
<polygon fill="midnightblue" stroke="midnightblue" points="422,-197.66 418.5,-187.66 415,-197.66 422,-197.66"/>
</g>
<!-- Node5&#45;&gt;Node3 -->
<g id="edge6" class="edge">
<title>Node5&#45;&gt;Node3</title>
<path fill="none" stroke="midnightblue" d="M513.3,-168.36C508.23,-159.53 500.68,-145.27 496.5,-132 485.46,-96.97 480.67,-54.12 478.72,-29.96"/>
<polygon fill="midnightblue" stroke="midnightblue" points="482.19,-29.43 477.98,-19.71 475.21,-29.94 482.19,-29.43"/>
</g>
<!-- Node5&#45;&gt;Node4 -->
<g id="edge7" class="edge">
<title>Node5&#45;&gt;Node4</title>
<path fill="none" stroke="midnightblue" d="M473.97,-168.44C424.54,-158.94 344.75,-143.61 291.72,-133.42"/>
<polygon fill="midnightblue" stroke="midnightblue" points="292.3,-129.97 281.82,-131.52 290.98,-136.84 292.3,-129.97"/>
</g>
<!-- Node6 -->
<g id="node6" class="node">
<title>Node6</title>
<g id="a_node6"><a xlink:title=" ">
<polygon fill="white" stroke="#bfbfbf" points="317,-0.5 317,-19.5 370,-19.5 370,-0.5 317,-0.5"/>
<text text-anchor="middle" x="343.5" y="-7.5" font-family="Helvetica,sans-Serif" font-size="10.00">stdint.h</text>
</a>
</g>
</g>
<!-- Node5&#45;&gt;Node6 -->
<g id="edge5" class="edge">
<title>Node5&#45;&gt;Node6</title>
<path fill="none" stroke="midnightblue" d="M457.15,-169.83C430.45,-163.76 400.71,-152.59 380.5,-132 353.02,-104.01 345.87,-56.19 344.06,-29.83"/>
<polygon fill="midnightblue" stroke="midnightblue" points="347.55,-29.48 343.56,-19.67 340.56,-29.83 347.55,-29.48"/>
</g>
<!-- Node5&#45;&gt;Node7 -->
<g id="edge8" class="edge">
<title>Node5&#45;&gt;Node7</title>
<path fill="none" stroke="midnightblue" d="M525.6,-168.08C531.74,-160.38 540.77,-149.03 548.24,-139.65"/>
<polygon fill="midnightblue" stroke="midnightblue" points="551.04,-141.75 554.53,-131.75 545.56,-137.39 551.04,-141.75"/>
</g>
<!-- Node8 -->
<g id="node8" class="node">
<title>Node8</title>
<g id="a_node8"><a xlink:title=" ">
<polygon fill="white" stroke="#bfbfbf" points="390,-112.5 390,-131.5 449,-131.5 449,-112.5 390,-112.5"/>
<text text-anchor="middle" x="419.5" y="-119.5" font-family="Helvetica,sans-Serif" font-size="10.00">complex</text>
</a>
</g>
</g>
<!-- Node5&#45;&gt;Node8 -->
<g id="edge9" class="edge">
<title>Node5&#45;&gt;Node8</title>
<path fill="none" stroke="midnightblue" d="M502.59,-168.32C486.86,-159.74 462.56,-146.49 444.29,-136.52"/>
<polygon fill="midnightblue" stroke="midnightblue" points="445.82,-133.37 435.37,-131.65 442.47,-139.52 445.82,-133.37"/>
</g>
<!-- Node9&#45;&gt;Node3 -->
<g id="edge16" class="edge">
<title>Node9&#45;&gt;Node3</title>
<path fill="none" stroke="midnightblue" d="M197.8,-58.65C253.34,-49.19 358.12,-31.34 422.48,-20.37"/>
<polygon fill="midnightblue" stroke="midnightblue" points="423.18,-23.8 432.45,-18.67 422,-16.9 423.18,-23.8"/>
</g>
<!-- Node9&#45;&gt;Node6 -->
<g id="edge11" class="edge">
<title>Node9&#45;&gt;Node6</title>
<path fill="none" stroke="midnightblue" d="M189.5,-56.44C221.33,-47.05 272.49,-31.95 307.02,-21.77"/>
<polygon fill="midnightblue" stroke="midnightblue" points="308.12,-25.09 316.72,-18.9 306.14,-18.37 308.12,-25.09"/>
</g>
<!-- Node10 -->
<g id="node10" class="node">
<title>Node10</title>
<g id="a_node10"><a xlink:title=" ">
<polygon fill="white" stroke="#bfbfbf" points="166.5,-0.5 166.5,-19.5 222.5,-19.5 222.5,-0.5 166.5,-0.5"/>
<text text-anchor="middle" x="194.5" y="-7.5" font-family="Helvetica,sans-Serif" font-size="10.00">stddef.h</text>
</a>
</g>
</g>
<!-- Node9&#45;&gt;Node10 -->
<g id="edge12" class="edge">
<title>Node9&#45;&gt;Node10</title>
<path fill="none" stroke="midnightblue" d="M166.11,-56.08C170.87,-48.53 177.82,-37.49 183.65,-28.23"/>
<polygon fill="midnightblue" stroke="midnightblue" points="186.62,-30.08 188.99,-19.75 180.7,-26.35 186.62,-30.08"/>
</g>
<!-- Node11 -->
<g id="node11" class="node">
<title>Node11</title>
<g id="a_node11"><a xlink:title=" ">
<polygon fill="white" stroke="#bfbfbf" points="240.5,-0.5 240.5,-19.5 292.5,-19.5 292.5,-0.5 240.5,-0.5"/>
<text text-anchor="middle" x="266.5" y="-7.5" font-family="Helvetica,sans-Serif" font-size="10.00">cassert</text>
</a>
</g>
</g>
<!-- Node9&#45;&gt;Node11 -->
<g id="edge13" class="edge">
<title>Node9&#45;&gt;Node11</title>
<path fill="none" stroke="midnightblue" d="M177.53,-56.32C194.53,-47.66 220.88,-34.24 240.49,-24.25"/>
<polygon fill="midnightblue" stroke="midnightblue" points="242.19,-27.31 249.51,-19.65 239.01,-21.08 242.19,-27.31"/>
</g>
<!-- Node12 -->
<g id="node12" class="node">
<title>Node12</title>
<g id="a_node12"><a xlink:title=" ">
<polygon fill="white" stroke="#bfbfbf" points="30.5,-0.5 30.5,-19.5 86.5,-19.5 86.5,-0.5 30.5,-0.5"/>
<text text-anchor="middle" x="58.5" y="-7.5" font-family="Helvetica,sans-Serif" font-size="10.00">sstream</text>
</a>
</g>
</g>
<!-- Node9&#45;&gt;Node12 -->
<g id="edge14" class="edge">
<title>Node9&#45;&gt;Node12</title>
<path fill="none" stroke="midnightblue" d="M144.11,-56.32C127.83,-47.7 102.63,-34.36 83.78,-24.39"/>
<polygon fill="midnightblue" stroke="midnightblue" points="85.32,-21.24 74.85,-19.65 82.05,-27.43 85.32,-21.24"/>
</g>
<!-- Node13 -->
<g id="node13" class="node">
<title>Node13</title>
<g id="a_node13"><a xlink:title=" ">
<polygon fill="white" stroke="#bfbfbf" points="104.5,-0.5 104.5,-19.5 148.5,-19.5 148.5,-0.5 104.5,-0.5"/>
<text text-anchor="middle" x="126.5" y="-7.5" font-family="Helvetica,sans-Serif" font-size="10.00">limits</text>
</a>
</g>
</g>
<!-- Node9&#45;&gt;Node13 -->
<g id="edge15" class="edge">
<title>Node9&#45;&gt;Node13</title>
<path fill="none" stroke="midnightblue" d="M154.89,-56.08C150.13,-48.53 143.18,-37.49 137.35,-28.23"/>
<polygon fill="midnightblue" stroke="midnightblue" points="140.3,-26.35 132.01,-19.75 134.38,-30.08 140.3,-26.35"/>
</g>
<!-- Node15 -->
<g id="node15" class="node">
<title>Node15</title>
<g id="a_node15"><a xlink:href="sitkCommon_8h.html" target="_top" xlink:title=" ">
<polygon fill="white" stroke="black" points="16.5,-112.5 16.5,-131.5 104.5,-131.5 104.5,-112.5 16.5,-112.5"/>
<text text-anchor="middle" x="60.5" y="-119.5" font-family="Helvetica,sans-Serif" font-size="10.00">sitkCommon.h</text>
</a>
</g>
</g>
<!-- Node14&#45;&gt;Node15 -->
<g id="edge18" class="edge">
<title>Node14&#45;&gt;Node15</title>
<path fill="none" stroke="midnightblue" d="M55.49,-168.08C56.29,-160.93 57.43,-150.64 58.42,-141.69"/>
<polygon fill="midnightblue" stroke="midnightblue" points="61.9,-142.08 59.53,-131.75 54.94,-141.3 61.9,-142.08"/>
</g>
<!-- Node15&#45;&gt;Node9 -->
<g id="edge19" class="edge">
<title>Node15&#45;&gt;Node9</title>
<path fill="none" stroke="midnightblue" d="M76.57,-112.32C92.46,-103.74 117.01,-90.49 135.46,-80.52"/>
<polygon fill="midnightblue" stroke="midnightblue" points="137.34,-83.49 144.47,-75.65 134.01,-77.33 137.34,-83.49"/>
</g>
</g>
</svg>
        <g id="navigator" transform="translate(0 0)" fill="#404254">
                <rect fill="#f2f5e9" fill-opacity="0.5" stroke="#606060" stroke-width=".5" x="0" y="0" width="60" height="60"/>
                <use id="zoomplus" xlink:href="#zoomPlus" x="17" y="9" onmousedown="handleZoom(evt,'in')"/>
                <use id="zoomminus" xlink:href="#zoomMin" x="42" y="9" onmousedown="handleZoom(evt,'out')"/>
                <use id="reset" xlink:href="#resetDef" x="30" y="36" onmousedown="handleReset()"/>
                <g id="arrowUp" xlink:href="#dirArrow" transform="translate(30 24)" onmousedown="handlePan(0,-1)">
                  <use xlink:href="#rim" fill="#404040">
                        <set attributeName="fill" to="#808080" begin="arrowUp.mouseover" end="arrowUp.mouseout"/>
                  </use>
                  <path fill="none" stroke="white" stroke-width="1.5" d="M0,-3.0v7 M-2.5,-0.5L0,-3.0L2.5,-0.5"/>
                </g>
                <g id="arrowRight" xlink:href="#dirArrow" transform="rotate(90) translate(36 -43)" onmousedown="handlePan(1,0)">
                  <use xlink:href="#rim" fill="#404040">
                        <set attributeName="fill" to="#808080" begin="arrowRight.mouseover" end="arrowRight.mouseout"/>
                  </use>
                  <path fill="none" stroke="white" stroke-width="1.5" d="M0,-3.0v7 M-2.5,-0.5L0,-3.0L2.5,-0.5"/>
                </g>
                <g id="arrowDown" xlink:href="#dirArrow" transform="rotate(180) translate(-30 -48)" onmousedown="handlePan(0,1)">
                  <use xlink:href="#rim" fill="#404040">
                        <set attributeName="fill" to="#808080" begin="arrowDown.mouseover" end="arrowDown.mouseout"/>
                  </use>
                  <path fill="none" stroke="white" stroke-width="1.5" d="M0,-3.0v7 M-2.5,-0.5L0,-3.0L2.5,-0.5"/>
                </g>
                <g id="arrowLeft" xlink:href="#dirArrow" transform="rotate(270) translate(-36 17)" onmousedown="handlePan(-1,0)">
                  <use xlink:href="#rim" fill="#404040">
                        <set attributeName="fill" to="#808080" begin="arrowLeft.mouseover" end="arrowLeft.mouseout"/>
                  </use>
                  <path fill="none" stroke="white" stroke-width="1.5" d="M0,-3.0v7 M-2.5,-0.5L0,-3.0L2.5,-0.5"/>
                </g>
        </g>
        <svg viewBox="0 0 15 15" width="100%" height="30px" preserveAspectRatio="xMaxYMin meet">
         <g id="arrow_out" transform="scale(0.3 0.3)">
          <a xlink:href="sitkDetail_8h__incl_org.svg" target="_base">
           <rect id="button" ry="5" rx="5" y="6" x="6" height="38" width="38"
                fill="#f2f5e9" fill-opacity="0.5" stroke="#606060" stroke-width="1.0"/>
           <path id="arrow"
             d="M 11.500037,31.436501 C 11.940474,20.09759 22.043105,11.32322 32.158766,21.979434 L 37.068811,17.246167 C 37.068811,17.246167 37.088388,32 37.088388,32 L 22.160133,31.978069 C 22.160133,31.978069 26.997745,27.140456 26.997745,27.140456 C 18.528582,18.264221 13.291696,25.230495 11.500037,31.436501 z"
             style="fill:#404040;"/>
          </a>
         </g>
        </svg>
</svg>
