<?xml version="1.0" encoding="UTF-8" standalone="no"?>
<!DOCTYPE svg PUBLIC "-//W3C//DTD SVG 1.1//EN"
 "http://www.w3.org/Graphics/SVG/1.1/DTD/svg11.dtd">
<!-- Generated by graphviz version 2.43.0 (0)
 -->
<!-- Title: itk::simple::DisplacementFieldTransform::MyVisitor Pages: 1 -->
<!--zoomable 191 -->
<svg id="main" version="1.1" xmlns="http://www.w3.org/2000/svg" xmlns:xlink="http://www.w3.org/1999/xlink" xml:space="preserve" onload="init(evt)">
<style type="text/css"><![CDATA[
.edge:hover path { stroke: red; }
.edge:hover polygon { stroke: red; fill: red; }
]]></style>
<script type="text/javascript"><![CDATA[
var edges = document.getElementsByTagName('g');
if (edges && edges.length) {
  for (var i=0;i<edges.length;i++) {
    if (edges[i].id.substr(0,4)=='edge') {
      edges[i].setAttribute('class','edge');
    }
  }
}
]]></script>
        <defs>
                <circle id="rim" cx="0" cy="0" r="7"/>
                <circle id="rim2" cx="0" cy="0" r="3.5"/>
                <g id="zoomPlus">
                        <use xlink:href="#rim" fill="#404040">
                                <set attributeName="fill" to="#808080" begin="zoomplus.mouseover" end="zoomplus.mouseout"/>
                        </use>
                        <path d="M-4,0h8M0,-4v8" fill="none" stroke="white" stroke-width="1.5" pointer-events="none"/>
                </g>
                <g id="zoomMin">
                        <use xlink:href="#rim" fill="#404040">
                                <set attributeName="fill" to="#808080" begin="zoomminus.mouseover" end="zoomminus.mouseout"/>
                        </use>
                        <path d="M-4,0h8" fill="none" stroke="white" stroke-width="1.5" pointer-events="none"/>
                </g>
                <g id="dirArrow">
                        <path fill="none" stroke="white" stroke-width="1.5" d="M0,-3.0v7 M-2.5,-0.5L0,-3.0L2.5,-0.5"/>
                </g>
               <g id="resetDef">
                       <use xlink:href="#rim2" fill="#404040">
                               <set attributeName="fill" to="#808080" begin="reset.mouseover" end="reset.mouseout"/>
                       </use>
               </g>
        </defs>

<script type="text/javascript">
var viewWidth = 1556;
var viewHeight = 191;
var sectionId = 'dynsection-0';
</script>
<script xlink:href="svgpan.js"/>
<svg id="graph" class="graph">
<g id="viewport">
<title>itk::simple::DisplacementFieldTransform::MyVisitor</title>
<polygon fill="white" stroke="transparent" points="-4,4 -4,-186.5 1552,-186.5 1552,4 -4,4"/>
<!-- Node1 -->
<g id="node1" class="node">
<title>Node1</title>
<g id="a_node1"><a xlink:title=" ">
<polygon fill="#bfbfbf" stroke="black" points="1406,-82.5 1406,-112.5 1548,-112.5 1548,-82.5 1406,-82.5"/>
<text text-anchor="start" x="1414" y="-100.5" font-family="Helvetica,sans-Serif" font-size="10.00">itk::simple::Displacement</text>
<text text-anchor="middle" x="1477" y="-89.5" font-family="Helvetica,sans-Serif" font-size="10.00">FieldTransform::MyVisitor</text>
</a>
</g>
</g>
<!-- Node2 -->
<g id="node2" class="node">
<title>Node2</title>
<g id="a_node2"><a xlink:href="classitk_1_1simple_1_1DisplacementFieldTransform.html" target="_top" xlink:title="A dense deformable transform over a bounded spatial domain for 2D or 3D coordinates space.">
<polygon fill="white" stroke="black" points="1170.5,-107.5 1170.5,-137.5 1312.5,-137.5 1312.5,-107.5 1170.5,-107.5"/>
<text text-anchor="start" x="1178.5" y="-125.5" font-family="Helvetica,sans-Serif" font-size="10.00">itk::simple::Displacement</text>
<text text-anchor="middle" x="1241.5" y="-114.5" font-family="Helvetica,sans-Serif" font-size="10.00">FieldTransform</text>
</a>
</g>
</g>
<!-- Node2&#45;&gt;Node1 -->
<g id="edge1" class="edge">
<title>Node2&#45;&gt;Node1</title>
<path fill="none" stroke="#9a32cd" stroke-dasharray="5,2" d="M1322.77,-113.91C1349.83,-111.01 1379.79,-107.8 1405.99,-105"/>
<polygon fill="#9a32cd" stroke="#9a32cd" points="1322.13,-110.45 1312.56,-115 1322.87,-117.41 1322.13,-110.45"/>
<text text-anchor="middle" x="1362" y="-114.5" font-family="Helvetica,sans-Serif" font-size="10.00"> that</text>
</g>
<!-- Node3 -->
<g id="node3" class="node">
<title>Node3</title>
<g id="a_node3"><a xlink:href="classitk_1_1simple_1_1Transform.html" target="_top" xlink:title="A simplified wrapper around a variety of ITK transforms.">
<polygon fill="white" stroke="black" points="1005,-113 1005,-132 1128,-132 1128,-113 1005,-113"/>
<text text-anchor="middle" x="1066.5" y="-120" font-family="Helvetica,sans-Serif" font-size="10.00">itk::simple::Transform</text>
</a>
</g>
</g>
<!-- Node3&#45;&gt;Node2 -->
<g id="edge2" class="edge">
<title>Node3&#45;&gt;Node2</title>
<path fill="none" stroke="midnightblue" d="M1138.06,-122.5C1148.68,-122.5 1159.63,-122.5 1170.24,-122.5"/>
<polygon fill="midnightblue" stroke="midnightblue" points="1138.01,-119 1128.01,-122.5 1138.01,-126 1138.01,-119"/>
</g>
<!-- Node4 -->
<g id="node4" class="node">
<title>Node4</title>
<g id="a_node4"><a xlink:href="https://www.itk.org/Doxygen/html/classitk_1_1TransformBaseTemplate.html" xlink:title=" ">
<polygon fill="white" stroke="black" points="1165,-58.5 1165,-88.5 1318,-88.5 1318,-58.5 1165,-58.5"/>
<text text-anchor="start" x="1173" y="-76.5" font-family="Helvetica,sans-Serif" font-size="10.00">itk::TransformBaseTemplate</text>
<text text-anchor="middle" x="1241.5" y="-65.5" font-family="Helvetica,sans-Serif" font-size="10.00">&lt; TParametersValueType &gt;</text>
</a>
</g>
</g>
<!-- Node4&#45;&gt;Node1 -->
<g id="edge3" class="edge">
<title>Node4&#45;&gt;Node1</title>
<path fill="none" stroke="#9a32cd" stroke-dasharray="5,2" d="M1328.25,-79.81C1347.9,-81.47 1368.69,-83.39 1388,-85.5 1393.82,-86.14 1399.86,-86.85 1405.91,-87.6"/>
<polygon fill="#9a32cd" stroke="#9a32cd" points="1328.35,-76.3 1318.09,-78.97 1327.77,-83.28 1328.35,-76.3"/>
<text text-anchor="middle" x="1362" y="-88.5" font-family="Helvetica,sans-Serif" font-size="10.00"> transform</text>
</g>
<!-- Node5 -->
<g id="node5" class="node">
<title>Node5</title>
<g id="a_node5"><a xlink:href="https://www.itk.org/Doxygen/html/classitk_1_1Object.html" xlink:title=" ">
<polygon fill="white" stroke="black" points="1033,-64 1033,-83 1100,-83 1100,-64 1033,-64"/>
<text text-anchor="middle" x="1066.5" y="-71" font-family="Helvetica,sans-Serif" font-size="10.00">itk::Object</text>
</a>
</g>
</g>
<!-- Node5&#45;&gt;Node4 -->
<g id="edge4" class="edge">
<title>Node5&#45;&gt;Node4</title>
<path fill="none" stroke="midnightblue" d="M1110.39,-73.5C1126.82,-73.5 1146.09,-73.5 1164.69,-73.5"/>
<polygon fill="midnightblue" stroke="midnightblue" points="1110.04,-70 1100.04,-73.5 1110.04,-77 1110.04,-70"/>
</g>
<!-- Node6 -->
<g id="node6" class="node">
<title>Node6</title>
<g id="a_node6"><a xlink:href="https://www.itk.org/Doxygen/html/classitk_1_1LightObject.html" xlink:title=" ">
<polygon fill="white" stroke="black" points="739.5,-91 739.5,-110 830.5,-110 830.5,-91 739.5,-91"/>
<text text-anchor="middle" x="785" y="-98" font-family="Helvetica,sans-Serif" font-size="10.00">itk::LightObject</text>
</a>
</g>
</g>
<!-- Node6&#45;&gt;Node5 -->
<g id="edge5" class="edge">
<title>Node6&#45;&gt;Node5</title>
<path fill="none" stroke="midnightblue" d="M840.9,-95.2C898.07,-89.67 985.74,-81.21 1032.85,-76.65"/>
<polygon fill="midnightblue" stroke="midnightblue" points="840.21,-91.75 830.6,-96.19 840.89,-98.71 840.21,-91.75"/>
</g>
<!-- Node7 -->
<g id="node7" class="node">
<title>Node7</title>
<g id="a_node7"><a xlink:title=" ">
<polygon fill="white" stroke="#bfbfbf" points="457,-90 457,-109 564,-109 564,-90 457,-90"/>
<text text-anchor="middle" x="510.5" y="-97" font-family="Helvetica,sans-Serif" font-size="10.00">std::atomic&lt; int &gt;</text>
</a>
</g>
</g>
<!-- Node7&#45;&gt;Node6 -->
<g id="edge6" class="edge">
<title>Node7&#45;&gt;Node6</title>
<path fill="none" stroke="#9a32cd" stroke-dasharray="5,2" d="M574.18,-99.73C624.64,-99.92 694.33,-100.17 739.29,-100.34"/>
<polygon fill="#9a32cd" stroke="#9a32cd" points="574.05,-96.23 564.04,-99.69 574.03,-103.23 574.05,-96.23"/>
<text text-anchor="middle" x="651.5" y="-102.5" font-family="Helvetica,sans-Serif" font-size="10.00"> m_ReferenceCount</text>
</g>
<!-- Node8 -->
<g id="node8" class="node">
<title>Node8</title>
<g id="a_node8"><a xlink:title="STL class.">
<polygon fill="white" stroke="#bfbfbf" points="123,-87 123,-106 223,-106 223,-87 123,-87"/>
<text text-anchor="middle" x="173" y="-94" font-family="Helvetica,sans-Serif" font-size="10.00">std::atomic&lt; T &gt;</text>
</a>
</g>
</g>
<!-- Node8&#45;&gt;Node7 -->
<g id="edge7" class="edge">
<title>Node8&#45;&gt;Node7</title>
<path fill="none" stroke="orange" stroke-dasharray="5,2" d="M233.38,-97.03C296.77,-97.6 396.25,-98.49 456.9,-99.03"/>
<polygon fill="orange" stroke="orange" points="233.17,-93.53 223.14,-96.94 233.11,-100.53 233.17,-93.53"/>
<text text-anchor="middle" x="334" y="-101.5" font-family="Helvetica,sans-Serif" font-size="10.00"> &lt; int &gt;</text>
</g>
<!-- Node17 -->
<g id="node17" class="node">
<title>Node17</title>
<g id="a_node17"><a xlink:href="https://www.itk.org/Doxygen/html/classitk_1_1TimeStamp.html" xlink:title=" ">
<polygon fill="white" stroke="black" points="605.5,-52 605.5,-71 697.5,-71 697.5,-52 605.5,-52"/>
<text text-anchor="middle" x="651.5" y="-59" font-family="Helvetica,sans-Serif" font-size="10.00">itk::TimeStamp</text>
</a>
</g>
</g>
<!-- Node8&#45;&gt;Node17 -->
<g id="edge19" class="edge">
<title>Node8&#45;&gt;Node17</title>
<path fill="none" stroke="#9a32cd" stroke-dasharray="5,2" d="M226.31,-85.14C234.22,-83.73 242.3,-82.45 250,-81.5 378.18,-65.74 530.88,-62.32 605.27,-61.63"/>
<polygon fill="#9a32cd" stroke="#9a32cd" points="225.62,-81.71 216.43,-87 226.91,-88.59 225.62,-81.71"/>
<text text-anchor="middle" x="334" y="-84.5" font-family="Helvetica,sans-Serif" font-size="10.00"> m_GlobalTimeStamp</text>
</g>
<!-- Node9 -->
<g id="node9" class="node">
<title>Node9</title>
<g id="a_node9"><a xlink:title=" ">
<polygon fill="white" stroke="#bfbfbf" points="0,-126 0,-145 29,-145 29,-126 0,-126"/>
<text text-anchor="middle" x="14.5" y="-133" font-family="Helvetica,sans-Serif" font-size="10.00">T</text>
</a>
</g>
</g>
<!-- Node9&#45;&gt;Node8 -->
<g id="edge8" class="edge">
<title>Node9&#45;&gt;Node8</title>
<path fill="none" stroke="#9a32cd" stroke-dasharray="5,2" d="M38.44,-122.9C41.27,-121.63 44.17,-120.46 47,-119.5 71.35,-111.27 99.43,-105.77 122.79,-102.21"/>
<polygon fill="#9a32cd" stroke="#9a32cd" points="36.66,-119.88 29.24,-127.44 39.75,-126.16 36.66,-119.88"/>
<text text-anchor="middle" x="71.5" y="-122.5" font-family="Helvetica,sans-Serif" font-size="10.00"> ptr</text>
</g>
<!-- Node14 -->
<g id="node14" class="node">
<title>Node14</title>
<g id="a_node14"><a xlink:title="STL class.">
<polygon fill="white" stroke="#bfbfbf" points="122.5,-125 122.5,-144 223.5,-144 223.5,-125 122.5,-125"/>
<text text-anchor="middle" x="173" y="-132" font-family="Helvetica,sans-Serif" font-size="10.00">std::map&lt; K, T &gt;</text>
</a>
</g>
</g>
<!-- Node9&#45;&gt;Node14 -->
<g id="edge15" class="edge">
<title>Node9&#45;&gt;Node14</title>
<path fill="none" stroke="#9a32cd" stroke-dasharray="5,2" d="M39.19,-135.35C61.16,-135.21 94.54,-134.99 122.35,-134.82"/>
<polygon fill="#9a32cd" stroke="#9a32cd" points="39.09,-131.85 29.11,-135.41 39.14,-138.85 39.09,-131.85"/>
<text text-anchor="middle" x="71.5" y="-137.5" font-family="Helvetica,sans-Serif" font-size="10.00"> elements</text>
</g>
<!-- Node16 -->
<g id="node16" class="node">
<title>Node16</title>
<g id="a_node16"><a xlink:title="STL class.">
<polygon fill="white" stroke="#bfbfbf" points="114,-163 114,-182 232,-182 232,-163 114,-163"/>
<text text-anchor="middle" x="173" y="-170" font-family="Helvetica,sans-Serif" font-size="10.00">std::shared_ptr&lt; T &gt;</text>
</a>
</g>
</g>
<!-- Node9&#45;&gt;Node16 -->
<g id="edge17" class="edge">
<title>Node9&#45;&gt;Node16</title>
<path fill="none" stroke="#9a32cd" stroke-dasharray="5,2" d="M38.37,-146.41C41.23,-147.56 44.16,-148.62 47,-149.5 68.4,-156.12 92.48,-161.11 113.75,-164.71"/>
<polygon fill="#9a32cd" stroke="#9a32cd" points="39.6,-143.13 29.03,-142.36 36.81,-149.55 39.6,-143.13"/>
<text text-anchor="middle" x="71.5" y="-163.5" font-family="Helvetica,sans-Serif" font-size="10.00"> ptr</text>
</g>
<!-- Node10 -->
<g id="node10" class="node">
<title>Node10</title>
<g id="a_node10"><a xlink:title="STL class.">
<polygon fill="white" stroke="#bfbfbf" points="752.5,-6 752.5,-25 817.5,-25 817.5,-6 752.5,-6"/>
<text text-anchor="middle" x="785" y="-13" font-family="Helvetica,sans-Serif" font-size="10.00">std::string</text>
</a>
</g>
</g>
<!-- Node10&#45;&gt;Node5 -->
<g id="edge9" class="edge">
<title>Node10&#45;&gt;Node5</title>
<path fill="none" stroke="#9a32cd" stroke-dasharray="5,2" d="M827.81,-15.81C869,-17.05 933.37,-21.53 987,-36.5 1009.64,-42.82 1033.84,-55.18 1049.29,-63.87"/>
<polygon fill="#9a32cd" stroke="#9a32cd" points="827.68,-12.3 817.6,-15.55 827.51,-19.3 827.68,-12.3"/>
<text text-anchor="middle" x="928.5" y="-39.5" font-family="Helvetica,sans-Serif" font-size="10.00"> m_ObjectName</text>
</g>
<!-- Node11 -->
<g id="node11" class="node">
<title>Node11</title>
<g id="a_node11"><a xlink:title="STL class.">
<polygon fill="white" stroke="#bfbfbf" points="458.5,-0.5 458.5,-30.5 562.5,-30.5 562.5,-0.5 458.5,-0.5"/>
<text text-anchor="start" x="466.5" y="-18.5" font-family="Helvetica,sans-Serif" font-size="10.00">std::basic_string&lt;</text>
<text text-anchor="middle" x="510.5" y="-7.5" font-family="Helvetica,sans-Serif" font-size="10.00"> char &gt;</text>
</a>
</g>
</g>
<!-- Node11&#45;&gt;Node10 -->
<g id="edge10" class="edge">
<title>Node11&#45;&gt;Node10</title>
<path fill="none" stroke="midnightblue" d="M572.85,-15.5C628.49,-15.5 708.3,-15.5 752.14,-15.5"/>
<polygon fill="midnightblue" stroke="midnightblue" points="572.76,-12 562.76,-15.5 572.76,-19 572.76,-12"/>
</g>
<!-- Node12 -->
<g id="node12" class="node">
<title>Node12</title>
<g id="a_node12"><a xlink:href="https://www.itk.org/Doxygen/html/classitk_1_1MetaDataDictionary.html" xlink:title=" ">
<polygon fill="white" stroke="black" points="718,-131 718,-150 852,-150 852,-131 718,-131"/>
<text text-anchor="middle" x="785" y="-138" font-family="Helvetica,sans-Serif" font-size="10.00">itk::MetaDataDictionary</text>
</a>
</g>
</g>
<!-- Node12&#45;&gt;Node5 -->
<g id="edge11" class="edge">
<title>Node12&#45;&gt;Node5</title>
<path fill="none" stroke="#9a32cd" stroke-dasharray="5,2" d="M855.17,-129.11C894.18,-122.1 943.64,-112.21 987,-100.5 1005.23,-95.58 1025.35,-88.62 1040.67,-83"/>
<polygon fill="#9a32cd" stroke="#9a32cd" points="854.21,-125.73 844.97,-130.92 855.43,-132.62 854.21,-125.73"/>
<text text-anchor="middle" x="928.5" y="-128.5" font-family="Helvetica,sans-Serif" font-size="10.00"> m_MetaDataDictionary</text>
</g>
<!-- Node13 -->
<g id="node13" class="node">
<title>Node13</title>
<g id="a_node13"><a xlink:title=" ">
<polygon fill="white" stroke="#bfbfbf" points="436,-128.5 436,-158.5 585,-158.5 585,-128.5 436,-128.5"/>
<text text-anchor="start" x="444" y="-146.5" font-family="Helvetica,sans-Serif" font-size="10.00">std::shared_ptr&lt; MetaData</text>
<text text-anchor="middle" x="510.5" y="-135.5" font-family="Helvetica,sans-Serif" font-size="10.00">DictionaryMapType &gt;</text>
</a>
</g>
</g>
<!-- Node13&#45;&gt;Node12 -->
<g id="edge12" class="edge">
<title>Node13&#45;&gt;Node12</title>
<path fill="none" stroke="#9a32cd" stroke-dasharray="5,2" d="M595.34,-142.58C634.65,-142.14 680.82,-141.64 717.65,-141.23"/>
<polygon fill="#9a32cd" stroke="#9a32cd" points="595.2,-139.08 585.24,-142.69 595.28,-146.08 595.2,-139.08"/>
<text text-anchor="middle" x="651.5" y="-144.5" font-family="Helvetica,sans-Serif" font-size="10.00"> m_Dictionary</text>
</g>
<!-- Node14&#45;&gt;Node13 -->
<g id="edge13" class="edge">
<title>Node14&#45;&gt;Node13</title>
<path fill="none" stroke="#9a32cd" stroke-dasharray="5,2" d="M233.74,-134.84C283.15,-135.28 355.15,-136.27 418,-138.5 423.72,-138.7 429.65,-138.95 435.6,-139.22"/>
<polygon fill="#9a32cd" stroke="#9a32cd" points="233.58,-131.34 223.55,-134.76 233.52,-138.34 233.58,-131.34"/>
<text text-anchor="middle" x="334" y="-141.5" font-family="Helvetica,sans-Serif" font-size="10.00"> ptr</text>
</g>
<!-- Node15 -->
<g id="node15" class="node">
<title>Node15</title>
<g id="a_node15"><a xlink:title=" ">
<polygon fill="white" stroke="#bfbfbf" points="0,-58 0,-77 29,-77 29,-58 0,-58"/>
<text text-anchor="middle" x="14.5" y="-65" font-family="Helvetica,sans-Serif" font-size="10.00">K</text>
</a>
</g>
</g>
<!-- Node15&#45;&gt;Node14 -->
<g id="edge14" class="edge">
<title>Node15&#45;&gt;Node14</title>
<path fill="none" stroke="#9a32cd" stroke-dasharray="5,2" d="M39.39,-70.56C56.39,-73.65 79.12,-79.74 96,-91.5 106.94,-99.12 103.16,-107.73 114,-115.5 119.34,-119.33 125.49,-122.42 131.76,-124.9"/>
<polygon fill="#9a32cd" stroke="#9a32cd" points="39.59,-67.04 29.17,-68.92 38.49,-73.96 39.59,-67.04"/>
<text text-anchor="middle" x="71.5" y="-94.5" font-family="Helvetica,sans-Serif" font-size="10.00"> keys</text>
</g>
<!-- Node16&#45;&gt;Node13 -->
<g id="edge16" class="edge">
<title>Node16&#45;&gt;Node13</title>
<path fill="none" stroke="orange" stroke-dasharray="5,2" d="M242.27,-166.6C298.5,-161.74 378.06,-154.86 435.74,-149.88"/>
<polygon fill="orange" stroke="orange" points="241.72,-163.13 232.06,-167.48 242.32,-170.11 241.72,-163.13"/>
<text text-anchor="middle" x="334" y="-167.5" font-family="Helvetica,sans-Serif" font-size="10.00"> &lt; MetaDataDictionaryMapType &gt;</text>
</g>
<!-- Node17&#45;&gt;Node5 -->
<g id="edge18" class="edge">
<title>Node17&#45;&gt;Node5</title>
<path fill="none" stroke="#9a32cd" stroke-dasharray="5,2" d="M708.13,-63.12C795.52,-65.66 962.24,-70.5 1032.73,-72.55"/>
<polygon fill="#9a32cd" stroke="#9a32cd" points="707.98,-59.61 697.88,-62.82 707.77,-66.61 707.98,-59.61"/>
<text text-anchor="middle" x="785" y="-69.5" font-family="Helvetica,sans-Serif" font-size="10.00"> m_MTime</text>
</g>
</g>
</svg>
        <g id="navigator" transform="translate(0 0)" fill="#404254">
                <rect fill="#f2f5e9" fill-opacity="0.5" stroke="#606060" stroke-width=".5" x="0" y="0" width="60" height="60"/>
                <use id="zoomplus" xlink:href="#zoomPlus" x="17" y="9" onmousedown="handleZoom(evt,'in')"/>
                <use id="zoomminus" xlink:href="#zoomMin" x="42" y="9" onmousedown="handleZoom(evt,'out')"/>
                <use id="reset" xlink:href="#resetDef" x="30" y="36" onmousedown="handleReset()"/>
                <g id="arrowUp" xlink:href="#dirArrow" transform="translate(30 24)" onmousedown="handlePan(0,-1)">
                  <use xlink:href="#rim" fill="#404040">
                        <set attributeName="fill" to="#808080" begin="arrowUp.mouseover" end="arrowUp.mouseout"/>
                  </use>
                  <path fill="none" stroke="white" stroke-width="1.5" d="M0,-3.0v7 M-2.5,-0.5L0,-3.0L2.5,-0.5"/>
                </g>
                <g id="arrowRight" xlink:href="#dirArrow" transform="rotate(90) translate(36 -43)" onmousedown="handlePan(1,0)">
                  <use xlink:href="#rim" fill="#404040">
                        <set attributeName="fill" to="#808080" begin="arrowRight.mouseover" end="arrowRight.mouseout"/>
                  </use>
                  <path fill="none" stroke="white" stroke-width="1.5" d="M0,-3.0v7 M-2.5,-0.5L0,-3.0L2.5,-0.5"/>
                </g>
                <g id="arrowDown" xlink:href="#dirArrow" transform="rotate(180) translate(-30 -48)" onmousedown="handlePan(0,1)">
                  <use xlink:href="#rim" fill="#404040">
                        <set attributeName="fill" to="#808080" begin="arrowDown.mouseover" end="arrowDown.mouseout"/>
                  </use>
                  <path fill="none" stroke="white" stroke-width="1.5" d="M0,-3.0v7 M-2.5,-0.5L0,-3.0L2.5,-0.5"/>
                </g>
                <g id="arrowLeft" xlink:href="#dirArrow" transform="rotate(270) translate(-36 17)" onmousedown="handlePan(-1,0)">
                  <use xlink:href="#rim" fill="#404040">
                        <set attributeName="fill" to="#808080" begin="arrowLeft.mouseover" end="arrowLeft.mouseout"/>
                  </use>
                  <path fill="none" stroke="white" stroke-width="1.5" d="M0,-3.0v7 M-2.5,-0.5L0,-3.0L2.5,-0.5"/>
                </g>
        </g>
        <svg viewBox="0 0 15 15" width="100%" height="30px" preserveAspectRatio="xMaxYMin meet">
         <g id="arrow_out" transform="scale(0.3 0.3)">
          <a xlink:href="structitk_1_1simple_1_1DisplacementFieldTransform_1_1MyVisitor__coll__graph_org.svg" target="_base">
           <rect id="button" ry="5" rx="5" y="6" x="6" height="38" width="38"
                fill="#f2f5e9" fill-opacity="0.5" stroke="#606060" stroke-width="1.0"/>
           <path id="arrow"
             d="M 11.500037,31.436501 C 11.940474,20.09759 22.043105,11.32322 32.158766,21.979434 L 37.068811,17.246167 C 37.068811,17.246167 37.088388,32 37.088388,32 L 22.160133,31.978069 C 22.160133,31.978069 26.997745,27.140456 26.997745,27.140456 C 18.528582,18.264221 13.291696,25.230495 11.500037,31.436501 z"
             style="fill:#404040;"/>
          </a>
         </g>
        </svg>
</svg>
