<?xml version="1.0" encoding="UTF-8" standalone="no"?>
<!DOCTYPE svg PUBLIC "-//W3C//DTD SVG 1.1//EN"
 "http://www.w3.org/Graphics/SVG/1.1/DTD/svg11.dtd">
<!-- Generated by graphviz version 2.43.0 (0)
 -->
<!-- Title: itk::simple::Transform::TransformTryCastVisitor Pages: 1 -->
<!--zoomable 191 -->
<svg id="main" version="1.1" xmlns="http://www.w3.org/2000/svg" xmlns:xlink="http://www.w3.org/1999/xlink" xml:space="preserve" onload="init(evt)">
<style type="text/css"><![CDATA[
.edge:hover path { stroke: red; }
.edge:hover polygon { stroke: red; fill: red; }
]]></style>
<script type="text/javascript"><![CDATA[
var edges = document.getElementsByTagName('g');
if (edges && edges.length) {
  for (var i=0;i<edges.length;i++) {
    if (edges[i].id.substr(0,4)=='edge') {
      edges[i].setAttribute('class','edge');
    }
  }
}
]]></script>
        <defs>
                <circle id="rim" cx="0" cy="0" r="7"/>
                <circle id="rim2" cx="0" cy="0" r="3.5"/>
                <g id="zoomPlus">
                        <use xlink:href="#rim" fill="#404040">
                                <set attributeName="fill" to="#808080" begin="zoomplus.mouseover" end="zoomplus.mouseout"/>
                        </use>
                        <path d="M-4,0h8M0,-4v8" fill="none" stroke="white" stroke-width="1.5" pointer-events="none"/>
                </g>
                <g id="zoomMin">
                        <use xlink:href="#rim" fill="#404040">
                                <set attributeName="fill" to="#808080" begin="zoomminus.mouseover" end="zoomminus.mouseout"/>
                        </use>
                        <path d="M-4,0h8" fill="none" stroke="white" stroke-width="1.5" pointer-events="none"/>
                </g>
                <g id="dirArrow">
                        <path fill="none" stroke="white" stroke-width="1.5" d="M0,-3.0v7 M-2.5,-0.5L0,-3.0L2.5,-0.5"/>
                </g>
               <g id="resetDef">
                       <use xlink:href="#rim2" fill="#404040">
                               <set attributeName="fill" to="#808080" begin="reset.mouseover" end="reset.mouseout"/>
                       </use>
               </g>
        </defs>

<script type="text/javascript">
var viewWidth = 1497;
var viewHeight = 191;
var sectionId = 'dynsection-0';
</script>
<script xlink:href="svgpan.js"/>
<svg id="graph" class="graph">
<g id="viewport">
<title>itk::simple::Transform::TransformTryCastVisitor</title>
<polygon fill="white" stroke="transparent" points="-4,4 -4,-186.5 1493,-186.5 1493,4 -4,4"/>
<!-- Node1 -->
<g id="node1" class="node">
<title>Node1</title>
<g id="a_node1"><a xlink:title=" ">
<polygon fill="#bfbfbf" stroke="black" points="1350,-31.5 1350,-61.5 1489,-61.5 1489,-31.5 1350,-31.5"/>
<text text-anchor="start" x="1358" y="-49.5" font-family="Helvetica,sans-Serif" font-size="10.00">itk::simple::Transform</text>
<text text-anchor="middle" x="1419.5" y="-38.5" font-family="Helvetica,sans-Serif" font-size="10.00">::TransformTryCastVisitor</text>
</a>
</g>
</g>
<!-- Node2 -->
<g id="node2" class="node">
<title>Node2</title>
<g id="a_node2"><a xlink:href="https://www.itk.org/Doxygen/html/classitk_1_1TransformBaseTemplate.html" xlink:title=" ">
<polygon fill="white" stroke="black" points="1109,-58.5 1109,-88.5 1262,-88.5 1262,-58.5 1109,-58.5"/>
<text text-anchor="start" x="1117" y="-76.5" font-family="Helvetica,sans-Serif" font-size="10.00">itk::TransformBaseTemplate</text>
<text text-anchor="middle" x="1185.5" y="-65.5" font-family="Helvetica,sans-Serif" font-size="10.00">&lt; TParametersValueType &gt;</text>
</a>
</g>
</g>
<!-- Node2&#45;&gt;Node1 -->
<g id="edge1" class="edge">
<title>Node2&#45;&gt;Node1</title>
<path fill="none" stroke="#9a32cd" stroke-dasharray="5,2" d="M1272.18,-63.53C1297.7,-60.56 1325.33,-57.34 1349.63,-54.52"/>
<polygon fill="#9a32cd" stroke="#9a32cd" points="1271.67,-60.06 1262.14,-64.7 1272.48,-67.02 1271.67,-60.06"/>
<text text-anchor="middle" x="1306" y="-65.5" font-family="Helvetica,sans-Serif" font-size="10.00"> transform</text>
</g>
<!-- Node3 -->
<g id="node3" class="node">
<title>Node3</title>
<g id="a_node3"><a xlink:href="https://www.itk.org/Doxygen/html/classitk_1_1Object.html" xlink:title=" ">
<polygon fill="white" stroke="black" points="1005,-64 1005,-83 1072,-83 1072,-64 1005,-64"/>
<text text-anchor="middle" x="1038.5" y="-71" font-family="Helvetica,sans-Serif" font-size="10.00">itk::Object</text>
</a>
</g>
</g>
<!-- Node3&#45;&gt;Node2 -->
<g id="edge2" class="edge">
<title>Node3&#45;&gt;Node2</title>
<path fill="none" stroke="midnightblue" d="M1082.29,-73.5C1090.68,-73.5 1099.72,-73.5 1108.82,-73.5"/>
<polygon fill="midnightblue" stroke="midnightblue" points="1082.04,-70 1072.04,-73.5 1082.04,-77 1082.04,-70"/>
</g>
<!-- Node4 -->
<g id="node4" class="node">
<title>Node4</title>
<g id="a_node4"><a xlink:href="https://www.itk.org/Doxygen/html/classitk_1_1LightObject.html" xlink:title=" ">
<polygon fill="white" stroke="black" points="739.5,-91 739.5,-110 830.5,-110 830.5,-91 739.5,-91"/>
<text text-anchor="middle" x="785" y="-98" font-family="Helvetica,sans-Serif" font-size="10.00">itk::LightObject</text>
</a>
</g>
</g>
<!-- Node4&#45;&gt;Node3 -->
<g id="edge3" class="edge">
<title>Node4&#45;&gt;Node3</title>
<path fill="none" stroke="midnightblue" d="M840.69,-94.63C890.77,-89.25 963.25,-81.47 1004.84,-77.01"/>
<polygon fill="midnightblue" stroke="midnightblue" points="840.24,-91.16 830.67,-95.7 840.99,-98.12 840.24,-91.16"/>
</g>
<!-- Node5 -->
<g id="node5" class="node">
<title>Node5</title>
<g id="a_node5"><a xlink:title=" ">
<polygon fill="white" stroke="#bfbfbf" points="457,-90 457,-109 564,-109 564,-90 457,-90"/>
<text text-anchor="middle" x="510.5" y="-97" font-family="Helvetica,sans-Serif" font-size="10.00">std::atomic&lt; int &gt;</text>
</a>
</g>
</g>
<!-- Node5&#45;&gt;Node4 -->
<g id="edge4" class="edge">
<title>Node5&#45;&gt;Node4</title>
<path fill="none" stroke="#9a32cd" stroke-dasharray="5,2" d="M574.18,-99.73C624.64,-99.92 694.33,-100.17 739.29,-100.34"/>
<polygon fill="#9a32cd" stroke="#9a32cd" points="574.05,-96.23 564.04,-99.69 574.03,-103.23 574.05,-96.23"/>
<text text-anchor="middle" x="651.5" y="-102.5" font-family="Helvetica,sans-Serif" font-size="10.00"> m_ReferenceCount</text>
</g>
<!-- Node6 -->
<g id="node6" class="node">
<title>Node6</title>
<g id="a_node6"><a xlink:title="STL class.">
<polygon fill="white" stroke="#bfbfbf" points="123,-87 123,-106 223,-106 223,-87 123,-87"/>
<text text-anchor="middle" x="173" y="-94" font-family="Helvetica,sans-Serif" font-size="10.00">std::atomic&lt; T &gt;</text>
</a>
</g>
</g>
<!-- Node6&#45;&gt;Node5 -->
<g id="edge5" class="edge">
<title>Node6&#45;&gt;Node5</title>
<path fill="none" stroke="orange" stroke-dasharray="5,2" d="M233.38,-97.03C296.77,-97.6 396.25,-98.49 456.9,-99.03"/>
<polygon fill="orange" stroke="orange" points="233.17,-93.53 223.14,-96.94 233.11,-100.53 233.17,-93.53"/>
<text text-anchor="middle" x="334" y="-101.5" font-family="Helvetica,sans-Serif" font-size="10.00"> &lt; int &gt;</text>
</g>
<!-- Node15 -->
<g id="node15" class="node">
<title>Node15</title>
<g id="a_node15"><a xlink:href="https://www.itk.org/Doxygen/html/classitk_1_1TimeStamp.html" xlink:title=" ">
<polygon fill="white" stroke="black" points="605.5,-52 605.5,-71 697.5,-71 697.5,-52 605.5,-52"/>
<text text-anchor="middle" x="651.5" y="-59" font-family="Helvetica,sans-Serif" font-size="10.00">itk::TimeStamp</text>
</a>
</g>
</g>
<!-- Node6&#45;&gt;Node15 -->
<g id="edge17" class="edge">
<title>Node6&#45;&gt;Node15</title>
<path fill="none" stroke="#9a32cd" stroke-dasharray="5,2" d="M226.31,-85.14C234.22,-83.73 242.3,-82.45 250,-81.5 378.18,-65.74 530.88,-62.32 605.27,-61.63"/>
<polygon fill="#9a32cd" stroke="#9a32cd" points="225.62,-81.71 216.43,-87 226.91,-88.59 225.62,-81.71"/>
<text text-anchor="middle" x="334" y="-84.5" font-family="Helvetica,sans-Serif" font-size="10.00"> m_GlobalTimeStamp</text>
</g>
<!-- Node7 -->
<g id="node7" class="node">
<title>Node7</title>
<g id="a_node7"><a xlink:title=" ">
<polygon fill="white" stroke="#bfbfbf" points="0,-126 0,-145 29,-145 29,-126 0,-126"/>
<text text-anchor="middle" x="14.5" y="-133" font-family="Helvetica,sans-Serif" font-size="10.00">T</text>
</a>
</g>
</g>
<!-- Node7&#45;&gt;Node6 -->
<g id="edge6" class="edge">
<title>Node7&#45;&gt;Node6</title>
<path fill="none" stroke="#9a32cd" stroke-dasharray="5,2" d="M38.44,-122.9C41.27,-121.63 44.17,-120.46 47,-119.5 71.35,-111.27 99.43,-105.77 122.79,-102.21"/>
<polygon fill="#9a32cd" stroke="#9a32cd" points="36.66,-119.88 29.24,-127.44 39.75,-126.16 36.66,-119.88"/>
<text text-anchor="middle" x="71.5" y="-122.5" font-family="Helvetica,sans-Serif" font-size="10.00"> ptr</text>
</g>
<!-- Node12 -->
<g id="node12" class="node">
<title>Node12</title>
<g id="a_node12"><a xlink:title="STL class.">
<polygon fill="white" stroke="#bfbfbf" points="122.5,-125 122.5,-144 223.5,-144 223.5,-125 122.5,-125"/>
<text text-anchor="middle" x="173" y="-132" font-family="Helvetica,sans-Serif" font-size="10.00">std::map&lt; K, T &gt;</text>
</a>
</g>
</g>
<!-- Node7&#45;&gt;Node12 -->
<g id="edge13" class="edge">
<title>Node7&#45;&gt;Node12</title>
<path fill="none" stroke="#9a32cd" stroke-dasharray="5,2" d="M39.19,-135.35C61.16,-135.21 94.54,-134.99 122.35,-134.82"/>
<polygon fill="#9a32cd" stroke="#9a32cd" points="39.09,-131.85 29.11,-135.41 39.14,-138.85 39.09,-131.85"/>
<text text-anchor="middle" x="71.5" y="-137.5" font-family="Helvetica,sans-Serif" font-size="10.00"> elements</text>
</g>
<!-- Node14 -->
<g id="node14" class="node">
<title>Node14</title>
<g id="a_node14"><a xlink:title="STL class.">
<polygon fill="white" stroke="#bfbfbf" points="114,-163 114,-182 232,-182 232,-163 114,-163"/>
<text text-anchor="middle" x="173" y="-170" font-family="Helvetica,sans-Serif" font-size="10.00">std::shared_ptr&lt; T &gt;</text>
</a>
</g>
</g>
<!-- Node7&#45;&gt;Node14 -->
<g id="edge15" class="edge">
<title>Node7&#45;&gt;Node14</title>
<path fill="none" stroke="#9a32cd" stroke-dasharray="5,2" d="M38.37,-146.41C41.23,-147.56 44.16,-148.62 47,-149.5 68.4,-156.12 92.48,-161.11 113.75,-164.71"/>
<polygon fill="#9a32cd" stroke="#9a32cd" points="39.6,-143.13 29.03,-142.36 36.81,-149.55 39.6,-143.13"/>
<text text-anchor="middle" x="71.5" y="-163.5" font-family="Helvetica,sans-Serif" font-size="10.00"> ptr</text>
</g>
<!-- Node8 -->
<g id="node8" class="node">
<title>Node8</title>
<g id="a_node8"><a xlink:title="STL class.">
<polygon fill="white" stroke="#bfbfbf" points="752.5,-6 752.5,-25 817.5,-25 817.5,-6 752.5,-6"/>
<text text-anchor="middle" x="785" y="-13" font-family="Helvetica,sans-Serif" font-size="10.00">std::string</text>
</a>
</g>
</g>
<!-- Node8&#45;&gt;Node3 -->
<g id="edge7" class="edge">
<title>Node8&#45;&gt;Node3</title>
<path fill="none" stroke="#9a32cd" stroke-dasharray="5,2" d="M827.91,-13.62C869.63,-13.16 934.79,-16.36 987,-36.5 1002.82,-42.6 1018.11,-55.01 1027.64,-63.77"/>
<polygon fill="#9a32cd" stroke="#9a32cd" points="827.76,-10.12 817.83,-13.8 827.89,-17.12 827.76,-10.12"/>
<text text-anchor="middle" x="928.5" y="-39.5" font-family="Helvetica,sans-Serif" font-size="10.00"> m_ObjectName</text>
</g>
<!-- Node9 -->
<g id="node9" class="node">
<title>Node9</title>
<g id="a_node9"><a xlink:title="STL class.">
<polygon fill="white" stroke="#bfbfbf" points="458.5,-0.5 458.5,-30.5 562.5,-30.5 562.5,-0.5 458.5,-0.5"/>
<text text-anchor="start" x="466.5" y="-18.5" font-family="Helvetica,sans-Serif" font-size="10.00">std::basic_string&lt;</text>
<text text-anchor="middle" x="510.5" y="-7.5" font-family="Helvetica,sans-Serif" font-size="10.00"> char &gt;</text>
</a>
</g>
</g>
<!-- Node9&#45;&gt;Node8 -->
<g id="edge8" class="edge">
<title>Node9&#45;&gt;Node8</title>
<path fill="none" stroke="midnightblue" d="M572.85,-15.5C628.49,-15.5 708.3,-15.5 752.14,-15.5"/>
<polygon fill="midnightblue" stroke="midnightblue" points="572.76,-12 562.76,-15.5 572.76,-19 572.76,-12"/>
</g>
<!-- Node10 -->
<g id="node10" class="node">
<title>Node10</title>
<g id="a_node10"><a xlink:href="https://www.itk.org/Doxygen/html/classitk_1_1MetaDataDictionary.html" xlink:title=" ">
<polygon fill="white" stroke="black" points="718,-131 718,-150 852,-150 852,-131 718,-131"/>
<text text-anchor="middle" x="785" y="-138" font-family="Helvetica,sans-Serif" font-size="10.00">itk::MetaDataDictionary</text>
</a>
</g>
</g>
<!-- Node10&#45;&gt;Node3 -->
<g id="edge9" class="edge">
<title>Node10&#45;&gt;Node3</title>
<path fill="none" stroke="#9a32cd" stroke-dasharray="5,2" d="M862.31,-129.25C900.39,-122.47 946.79,-112.4 987,-98.5 998.65,-94.47 1011.07,-88.35 1020.67,-83.18"/>
<polygon fill="#9a32cd" stroke="#9a32cd" points="861.56,-125.83 852.31,-131 862.76,-132.73 861.56,-125.83"/>
<text text-anchor="middle" x="928.5" y="-129.5" font-family="Helvetica,sans-Serif" font-size="10.00"> m_MetaDataDictionary</text>
</g>
<!-- Node11 -->
<g id="node11" class="node">
<title>Node11</title>
<g id="a_node11"><a xlink:title=" ">
<polygon fill="white" stroke="#bfbfbf" points="436,-128.5 436,-158.5 585,-158.5 585,-128.5 436,-128.5"/>
<text text-anchor="start" x="444" y="-146.5" font-family="Helvetica,sans-Serif" font-size="10.00">std::shared_ptr&lt; MetaData</text>
<text text-anchor="middle" x="510.5" y="-135.5" font-family="Helvetica,sans-Serif" font-size="10.00">DictionaryMapType &gt;</text>
</a>
</g>
</g>
<!-- Node11&#45;&gt;Node10 -->
<g id="edge10" class="edge">
<title>Node11&#45;&gt;Node10</title>
<path fill="none" stroke="#9a32cd" stroke-dasharray="5,2" d="M595.34,-142.58C634.65,-142.14 680.82,-141.64 717.65,-141.23"/>
<polygon fill="#9a32cd" stroke="#9a32cd" points="595.2,-139.08 585.24,-142.69 595.28,-146.08 595.2,-139.08"/>
<text text-anchor="middle" x="651.5" y="-144.5" font-family="Helvetica,sans-Serif" font-size="10.00"> m_Dictionary</text>
</g>
<!-- Node12&#45;&gt;Node11 -->
<g id="edge11" class="edge">
<title>Node12&#45;&gt;Node11</title>
<path fill="none" stroke="#9a32cd" stroke-dasharray="5,2" d="M233.74,-134.84C283.15,-135.28 355.15,-136.27 418,-138.5 423.72,-138.7 429.65,-138.95 435.6,-139.22"/>
<polygon fill="#9a32cd" stroke="#9a32cd" points="233.58,-131.34 223.55,-134.76 233.52,-138.34 233.58,-131.34"/>
<text text-anchor="middle" x="334" y="-141.5" font-family="Helvetica,sans-Serif" font-size="10.00"> ptr</text>
</g>
<!-- Node13 -->
<g id="node13" class="node">
<title>Node13</title>
<g id="a_node13"><a xlink:title=" ">
<polygon fill="white" stroke="#bfbfbf" points="0,-58 0,-77 29,-77 29,-58 0,-58"/>
<text text-anchor="middle" x="14.5" y="-65" font-family="Helvetica,sans-Serif" font-size="10.00">K</text>
</a>
</g>
</g>
<!-- Node13&#45;&gt;Node12 -->
<g id="edge12" class="edge">
<title>Node13&#45;&gt;Node12</title>
<path fill="none" stroke="#9a32cd" stroke-dasharray="5,2" d="M39.39,-70.56C56.39,-73.65 79.12,-79.74 96,-91.5 106.94,-99.12 103.16,-107.73 114,-115.5 119.34,-119.33 125.49,-122.42 131.76,-124.9"/>
<polygon fill="#9a32cd" stroke="#9a32cd" points="39.59,-67.04 29.17,-68.92 38.49,-73.96 39.59,-67.04"/>
<text text-anchor="middle" x="71.5" y="-94.5" font-family="Helvetica,sans-Serif" font-size="10.00"> keys</text>
</g>
<!-- Node14&#45;&gt;Node11 -->
<g id="edge14" class="edge">
<title>Node14&#45;&gt;Node11</title>
<path fill="none" stroke="orange" stroke-dasharray="5,2" d="M242.27,-166.6C298.5,-161.74 378.06,-154.86 435.74,-149.88"/>
<polygon fill="orange" stroke="orange" points="241.72,-163.13 232.06,-167.48 242.32,-170.11 241.72,-163.13"/>
<text text-anchor="middle" x="334" y="-167.5" font-family="Helvetica,sans-Serif" font-size="10.00"> &lt; MetaDataDictionaryMapType &gt;</text>
</g>
<!-- Node15&#45;&gt;Node3 -->
<g id="edge16" class="edge">
<title>Node15&#45;&gt;Node3</title>
<path fill="none" stroke="#9a32cd" stroke-dasharray="5,2" d="M707.87,-63.23C789.37,-65.77 939.09,-70.43 1004.95,-72.49"/>
<polygon fill="#9a32cd" stroke="#9a32cd" points="707.9,-59.73 697.8,-62.91 707.68,-66.72 707.9,-59.73"/>
<text text-anchor="middle" x="785" y="-70.5" font-family="Helvetica,sans-Serif" font-size="10.00"> m_MTime</text>
</g>
<!-- Node16 -->
<g id="node16" class="node">
<title>Node16</title>
<g id="a_node16"><a xlink:href="classitk_1_1simple_1_1Transform.html" target="_top" xlink:title="A simplified wrapper around a variety of ITK transforms.">
<polygon fill="white" stroke="black" points="1124,-20 1124,-39 1247,-39 1247,-20 1124,-20"/>
<text text-anchor="middle" x="1185.5" y="-27" font-family="Helvetica,sans-Serif" font-size="10.00">itk::simple::Transform</text>
</a>
</g>
</g>
<!-- Node16&#45;&gt;Node1 -->
<g id="edge18" class="edge">
<title>Node16&#45;&gt;Node1</title>
<path fill="none" stroke="#9a32cd" stroke-dasharray="5,2" d="M1257.11,-31.2C1280.93,-32.1 1307.64,-33.45 1332,-35.5 1337.73,-35.98 1343.67,-36.56 1349.62,-37.2"/>
<polygon fill="#9a32cd" stroke="#9a32cd" points="1257.22,-27.7 1247.1,-30.84 1256.97,-34.7 1257.22,-27.7"/>
<text text-anchor="middle" x="1306" y="-38.5" font-family="Helvetica,sans-Serif" font-size="10.00"> that</text>
</g>
</g>
</svg>
        <g id="navigator" transform="translate(0 0)" fill="#404254">
                <rect fill="#f2f5e9" fill-opacity="0.5" stroke="#606060" stroke-width=".5" x="0" y="0" width="60" height="60"/>
                <use id="zoomplus" xlink:href="#zoomPlus" x="17" y="9" onmousedown="handleZoom(evt,'in')"/>
                <use id="zoomminus" xlink:href="#zoomMin" x="42" y="9" onmousedown="handleZoom(evt,'out')"/>
                <use id="reset" xlink:href="#resetDef" x="30" y="36" onmousedown="handleReset()"/>
                <g id="arrowUp" xlink:href="#dirArrow" transform="translate(30 24)" onmousedown="handlePan(0,-1)">
                  <use xlink:href="#rim" fill="#404040">
                        <set attributeName="fill" to="#808080" begin="arrowUp.mouseover" end="arrowUp.mouseout"/>
                  </use>
                  <path fill="none" stroke="white" stroke-width="1.5" d="M0,-3.0v7 M-2.5,-0.5L0,-3.0L2.5,-0.5"/>
                </g>
                <g id="arrowRight" xlink:href="#dirArrow" transform="rotate(90) translate(36 -43)" onmousedown="handlePan(1,0)">
                  <use xlink:href="#rim" fill="#404040">
                        <set attributeName="fill" to="#808080" begin="arrowRight.mouseover" end="arrowRight.mouseout"/>
                  </use>
                  <path fill="none" stroke="white" stroke-width="1.5" d="M0,-3.0v7 M-2.5,-0.5L0,-3.0L2.5,-0.5"/>
                </g>
                <g id="arrowDown" xlink:href="#dirArrow" transform="rotate(180) translate(-30 -48)" onmousedown="handlePan(0,1)">
                  <use xlink:href="#rim" fill="#404040">
                        <set attributeName="fill" to="#808080" begin="arrowDown.mouseover" end="arrowDown.mouseout"/>
                  </use>
                  <path fill="none" stroke="white" stroke-width="1.5" d="M0,-3.0v7 M-2.5,-0.5L0,-3.0L2.5,-0.5"/>
                </g>
                <g id="arrowLeft" xlink:href="#dirArrow" transform="rotate(270) translate(-36 17)" onmousedown="handlePan(-1,0)">
                  <use xlink:href="#rim" fill="#404040">
                        <set attributeName="fill" to="#808080" begin="arrowLeft.mouseover" end="arrowLeft.mouseout"/>
                  </use>
                  <path fill="none" stroke="white" stroke-width="1.5" d="M0,-3.0v7 M-2.5,-0.5L0,-3.0L2.5,-0.5"/>
                </g>
        </g>
        <svg viewBox="0 0 15 15" width="100%" height="30px" preserveAspectRatio="xMaxYMin meet">
         <g id="arrow_out" transform="scale(0.3 0.3)">
          <a xlink:href="structitk_1_1simple_1_1Transform_1_1TransformTryCastVisitor__coll__graph_org.svg" target="_base">
           <rect id="button" ry="5" rx="5" y="6" x="6" height="38" width="38"
                fill="#f2f5e9" fill-opacity="0.5" stroke="#606060" stroke-width="1.0"/>
           <path id="arrow"
             d="M 11.500037,31.436501 C 11.940474,20.09759 22.043105,11.32322 32.158766,21.979434 L 37.068811,17.246167 C 37.068811,17.246167 37.088388,32 37.088388,32 L 22.160133,31.978069 C 22.160133,31.978069 26.997745,27.140456 26.997745,27.140456 C 18.528582,18.264221 13.291696,25.230495 11.500037,31.436501 z"
             style="fill:#404040;"/>
          </a>
         </g>
        </svg>
</svg>
