<?xml version="1.0" encoding="UTF-8" standalone="no"?>
<!DOCTYPE svg PUBLIC "-//W3C//DTD SVG 1.1//EN"
 "http://www.w3.org/Graphics/SVG/1.1/DTD/svg11.dtd">
<!-- Generated by graphviz version 2.43.0 (0)
 -->
<!-- Title: itk::simple::ScaleTransform::MyVisitor Pages: 1 -->
<svg width="489pt" height="386pt"
 viewBox="0.00 0.00 489.00 386.00" xmlns="http://www.w3.org/2000/svg" xmlns:xlink="http://www.w3.org/1999/xlink">
<g id="graph0" class="graph" transform="scale(1 1) rotate(0) translate(4 382)">
<title>itk::simple::ScaleTransform::MyVisitor</title>
<polygon fill="white" stroke="transparent" points="-4,4 -4,-382 485,-382 485,4 -4,4"/>
<!-- Node1 -->
<g id="node1" class="node">
<title>Node1</title>
<g id="a_node1"><a xlink:title=" ">
<polygon fill="#bfbfbf" stroke="black" points="247,-0.5 247,-30.5 396,-30.5 396,-0.5 247,-0.5"/>
<text text-anchor="start" x="255" y="-18.5" font-family="Helvetica,sans-Serif" font-size="10.00">itk::simple::ScaleTransform</text>
<text text-anchor="middle" x="321.5" y="-7.5" font-family="Helvetica,sans-Serif" font-size="10.00">::MyVisitor</text>
</a>
</g>
</g>
<!-- Node2 -->
<g id="node2" class="node">
<title>Node2</title>
<g id="a_node2"><a target="_parent" xlink:href="https://www.itk.org/Doxygen/html/classitk_1_1TransformBaseTemplate.html" xlink:title=" ">
<polygon fill="white" stroke="black" points="161,-78.5 161,-108.5 314,-108.5 314,-78.5 161,-78.5"/>
<text text-anchor="start" x="169" y="-96.5" font-family="Helvetica,sans-Serif" font-size="10.00">itk::TransformBaseTemplate</text>
<text text-anchor="middle" x="237.5" y="-85.5" font-family="Helvetica,sans-Serif" font-size="10.00">&lt; TParametersValueType &gt;</text>
</a>
</g>
</g>
<!-- Node2&#45;&gt;Node1 -->
<g id="edge1" class="edge">
<title>Node2&#45;&gt;Node1</title>
<path fill="none" stroke="#9a32cd" stroke-dasharray="5,2" d="M260.83,-71.39C275.15,-58.43 293.12,-42.18 305.77,-30.73"/>
<polygon fill="#9a32cd" stroke="#9a32cd" points="258.37,-68.9 253.3,-78.2 263.06,-74.09 258.37,-68.9"/>
<text text-anchor="middle" x="311.5" y="-52" font-family="Helvetica,sans-Serif" font-size="10.00"> transform</text>
</g>
<!-- Node3 -->
<g id="node3" class="node">
<title>Node3</title>
<g id="a_node3"><a target="_parent" xlink:href="https://www.itk.org/Doxygen/html/classitk_1_1Object.html" xlink:title=" ">
<polygon fill="white" stroke="black" points="204,-146.5 204,-165.5 271,-165.5 271,-146.5 204,-146.5"/>
<text text-anchor="middle" x="237.5" y="-153.5" font-family="Helvetica,sans-Serif" font-size="10.00">itk::Object</text>
</a>
</g>
</g>
<!-- Node3&#45;&gt;Node2 -->
<g id="edge2" class="edge">
<title>Node3&#45;&gt;Node2</title>
<path fill="none" stroke="midnightblue" d="M237.5,-136.22C237.5,-127.36 237.5,-116.96 237.5,-108.76"/>
<polygon fill="midnightblue" stroke="midnightblue" points="234,-136.33 237.5,-146.33 241,-136.33 234,-136.33"/>
</g>
<!-- Node4 -->
<g id="node4" class="node">
<title>Node4</title>
<g id="a_node4"><a target="_parent" xlink:href="https://www.itk.org/Doxygen/html/classitk_1_1LightObject.html" xlink:title=" ">
<polygon fill="white" stroke="black" points="0,-213.5 0,-232.5 91,-232.5 91,-213.5 0,-213.5"/>
<text text-anchor="middle" x="45.5" y="-220.5" font-family="Helvetica,sans-Serif" font-size="10.00">itk::LightObject</text>
</a>
</g>
</g>
<!-- Node4&#45;&gt;Node3 -->
<g id="edge3" class="edge">
<title>Node4&#45;&gt;Node3</title>
<path fill="none" stroke="midnightblue" d="M80.65,-210.1C118.71,-197.21 178.5,-176.97 212.2,-165.56"/>
<polygon fill="midnightblue" stroke="midnightblue" points="79.35,-206.85 71,-213.37 81.59,-213.48 79.35,-206.85"/>
</g>
<!-- Node5 -->
<g id="node5" class="node">
<title>Node5</title>
<g id="a_node5"><a target="_parent" xlink:href="https://www.itk.org/Doxygen/html/classitk_1_1TimeStamp.html" xlink:title=" ">
<polygon fill="white" stroke="black" points="109.5,-213.5 109.5,-232.5 201.5,-232.5 201.5,-213.5 109.5,-213.5"/>
<text text-anchor="middle" x="155.5" y="-220.5" font-family="Helvetica,sans-Serif" font-size="10.00">itk::TimeStamp</text>
</a>
</g>
</g>
<!-- Node5&#45;&gt;Node3 -->
<g id="edge4" class="edge">
<title>Node5&#45;&gt;Node3</title>
<path fill="none" stroke="#9a32cd" stroke-dasharray="5,2" d="M174.78,-206.71C190.94,-193.91 213.42,-176.09 226.62,-165.63"/>
<polygon fill="#9a32cd" stroke="#9a32cd" points="172.22,-204.28 166.56,-213.23 176.57,-209.76 172.22,-204.28"/>
<text text-anchor="middle" x="227.5" y="-187" font-family="Helvetica,sans-Serif" font-size="10.00"> m_MTime</text>
</g>
<!-- Node6 -->
<g id="node6" class="node">
<title>Node6</title>
<g id="a_node6"><a xlink:title=" ">
<polygon fill="white" stroke="#bfbfbf" points="105.5,-286 105.5,-305 205.5,-305 205.5,-286 105.5,-286"/>
<text text-anchor="middle" x="155.5" y="-293" font-family="Helvetica,sans-Serif" font-size="10.00">std::atomic&lt; T &gt;</text>
</a>
</g>
</g>
<!-- Node6&#45;&gt;Node5 -->
<g id="edge5" class="edge">
<title>Node6&#45;&gt;Node5</title>
<path fill="none" stroke="#9a32cd" stroke-dasharray="5,2" d="M155.5,-275.44C155.5,-261.53 155.5,-243.32 155.5,-232.72"/>
<polygon fill="#9a32cd" stroke="#9a32cd" points="152,-275.86 155.5,-285.86 159,-275.86 152,-275.86"/>
<text text-anchor="middle" x="208.5" y="-254" font-family="Helvetica,sans-Serif" font-size="10.00"> m_GlobalTimeStamp</text>
</g>
<!-- Node7 -->
<g id="node7" class="node">
<title>Node7</title>
<g id="a_node7"><a xlink:title=" ">
<polygon fill="white" stroke="#bfbfbf" points="141,-358.5 141,-377.5 170,-377.5 170,-358.5 141,-358.5"/>
<text text-anchor="middle" x="155.5" y="-365.5" font-family="Helvetica,sans-Serif" font-size="10.00">T</text>
</a>
</g>
</g>
<!-- Node7&#45;&gt;Node6 -->
<g id="edge6" class="edge">
<title>Node7&#45;&gt;Node6</title>
<path fill="none" stroke="#9a32cd" stroke-dasharray="5,2" d="M155.5,-347.94C155.5,-334.03 155.5,-315.82 155.5,-305.22"/>
<polygon fill="#9a32cd" stroke="#9a32cd" points="152,-348.36 155.5,-358.36 159,-348.36 152,-348.36"/>
<text text-anchor="middle" x="164" y="-332" font-family="Helvetica,sans-Serif" font-size="10.00"> ptr</text>
</g>
<!-- Node8 -->
<g id="node8" class="node">
<title>Node8</title>
<g id="a_node8"><a target="_parent" xlink:href="https://www.itk.org/Doxygen/html/classitk_1_1MetaDataDictionary.html" xlink:title=" ">
<polygon fill="white" stroke="black" points="219.5,-213.5 219.5,-232.5 353.5,-232.5 353.5,-213.5 219.5,-213.5"/>
<text text-anchor="middle" x="286.5" y="-220.5" font-family="Helvetica,sans-Serif" font-size="10.00">itk::MetaDataDictionary</text>
</a>
</g>
</g>
<!-- Node8&#45;&gt;Node3 -->
<g id="edge7" class="edge">
<title>Node8&#45;&gt;Node3</title>
<path fill="none" stroke="#9a32cd" stroke-dasharray="5,2" d="M273.61,-204.9C264.09,-192.27 251.52,-175.6 244,-165.63"/>
<polygon fill="#9a32cd" stroke="#9a32cd" points="271.08,-207.36 279.89,-213.23 276.67,-203.14 271.08,-207.36"/>
<text text-anchor="middle" x="324" y="-187" font-family="Helvetica,sans-Serif" font-size="10.00"> m_MetaDataDictionary</text>
</g>
<!-- Node9 -->
<g id="node9" class="node">
<title>Node9</title>
<g id="a_node9"><a xlink:title=" ">
<polygon fill="white" stroke="#bfbfbf" points="383,-213.5 383,-232.5 448,-232.5 448,-213.5 383,-213.5"/>
<text text-anchor="middle" x="415.5" y="-220.5" font-family="Helvetica,sans-Serif" font-size="10.00">std::string</text>
</a>
</g>
</g>
<!-- Node9&#45;&gt;Node3 -->
<g id="edge8" class="edge">
<title>Node9&#45;&gt;Node3</title>
<path fill="none" stroke="#9a32cd" stroke-dasharray="5,2" d="M406.07,-204.43C401.19,-197 394.56,-188.93 386.5,-184 367.61,-172.44 309.03,-164.4 271.2,-160.26"/>
<polygon fill="#9a32cd" stroke="#9a32cd" points="403.17,-206.41 411.28,-213.23 409.19,-202.84 403.17,-206.41"/>
<text text-anchor="middle" x="438" y="-187" font-family="Helvetica,sans-Serif" font-size="10.00"> m_ObjectName</text>
</g>
<!-- Node10 -->
<g id="node10" class="node">
<title>Node10</title>
<g id="a_node10"><a xlink:title=" ">
<polygon fill="white" stroke="#bfbfbf" points="363.5,-280.5 363.5,-310.5 467.5,-310.5 467.5,-280.5 363.5,-280.5"/>
<text text-anchor="start" x="371.5" y="-298.5" font-family="Helvetica,sans-Serif" font-size="10.00">std::basic_string&lt;</text>
<text text-anchor="middle" x="415.5" y="-287.5" font-family="Helvetica,sans-Serif" font-size="10.00"> Char &gt;</text>
</a>
</g>
</g>
<!-- Node10&#45;&gt;Node9 -->
<g id="edge9" class="edge">
<title>Node10&#45;&gt;Node9</title>
<path fill="none" stroke="midnightblue" d="M415.5,-270.09C415.5,-257.21 415.5,-242.2 415.5,-232.89"/>
<polygon fill="midnightblue" stroke="midnightblue" points="412,-270.23 415.5,-280.23 419,-270.23 412,-270.23"/>
</g>
<!-- Node11 -->
<g id="node11" class="node">
<title>Node11</title>
<g id="a_node11"><a xlink:href="classitk_1_1simple_1_1ScaleTransform.html" target="_top" xlink:title="A 2D or 3D anisotropic scale of coordinate space around a fixed center.">
<polygon fill="white" stroke="black" points="332,-84 332,-103 481,-103 481,-84 332,-84"/>
<text text-anchor="middle" x="406.5" y="-91" font-family="Helvetica,sans-Serif" font-size="10.00">itk::simple::ScaleTransform</text>
</a>
</g>
</g>
<!-- Node11&#45;&gt;Node1 -->
<g id="edge10" class="edge">
<title>Node11&#45;&gt;Node1</title>
<path fill="none" stroke="#9a32cd" stroke-dasharray="5,2" d="M389.06,-76.9C373.81,-63.27 351.88,-43.66 337.18,-30.52"/>
<polygon fill="#9a32cd" stroke="#9a32cd" points="386.96,-79.73 396.75,-83.78 391.63,-74.51 386.96,-79.73"/>
<text text-anchor="middle" x="381" y="-52" font-family="Helvetica,sans-Serif" font-size="10.00"> that</text>
</g>
<!-- Node12 -->
<g id="node12" class="node">
<title>Node12</title>
<g id="a_node12"><a xlink:href="classitk_1_1simple_1_1Transform.html" target="_top" xlink:title="A simplified wrapper around a variety of ITK transforms.">
<polygon fill="white" stroke="black" points="345,-146.5 345,-165.5 468,-165.5 468,-146.5 345,-146.5"/>
<text text-anchor="middle" x="406.5" y="-153.5" font-family="Helvetica,sans-Serif" font-size="10.00">itk::simple::Transform</text>
</a>
</g>
</g>
<!-- Node12&#45;&gt;Node11 -->
<g id="edge11" class="edge">
<title>Node12&#45;&gt;Node11</title>
<path fill="none" stroke="midnightblue" d="M406.5,-136C406.5,-125 406.5,-111.68 406.5,-103.15"/>
<polygon fill="midnightblue" stroke="midnightblue" points="403,-136.33 406.5,-146.33 410,-136.33 403,-136.33"/>
</g>
</g>
</svg>
