<?xml version="1.0" encoding="UTF-8" standalone="no"?>
<!DOCTYPE svg PUBLIC "-//W3C//DTD SVG 1.1//EN"
 "http://www.w3.org/Graphics/SVG/1.1/DTD/svg11.dtd">
<!-- Generated by graphviz version 2.43.0 (0)
 -->
<!-- Title: itk::simple::IsLabel&lt; itk::LabelMap&lt; itk::LabelObject&lt; TLabelType, VImageDimension &gt; &gt; &gt; Pages: 1 -->
<svg width="689pt" height="90pt"
 viewBox="0.00 0.00 689.00 89.50" xmlns="http://www.w3.org/2000/svg" xmlns:xlink="http://www.w3.org/1999/xlink">
<g id="graph0" class="graph" transform="scale(1 1) rotate(0) translate(4 85.5)">
<title>itk::simple::IsLabel&lt; itk::LabelMap&lt; itk::LabelObject&lt; TLabelType, VImageDimension &gt; &gt; &gt;</title>
<polygon fill="white" stroke="transparent" points="-4,4 -4,-85.5 685,-85.5 685,4 -4,4"/>
<!-- Node1 -->
<g id="node1" class="node">
<title>Node1</title>
<g id="a_node1"><a xlink:title=" ">
<polygon fill="#bfbfbf" stroke="black" points="532,-11.5 532,-63.5 681,-63.5 681,-11.5 532,-11.5"/>
<text text-anchor="start" x="540" y="-51.5" font-family="Helvetica,sans-Serif" font-size="10.00">itk::simple::IsLabel</text>
<text text-anchor="start" x="540" y="-40.5" font-family="Helvetica,sans-Serif" font-size="10.00">&lt; itk::LabelMap&lt; itk</text>
<text text-anchor="start" x="540" y="-29.5" font-family="Helvetica,sans-Serif" font-size="10.00">::LabelObject&lt; TLabelType,</text>
<text text-anchor="middle" x="606.5" y="-18.5" font-family="Helvetica,sans-Serif" font-size="10.00"> VImageDimension &gt; &gt; &gt;</text>
</a>
</g>
</g>
<!-- Node2 -->
<g id="node2" class="node">
<title>Node2</title>
<g id="a_node2"><a xlink:href="structitk_1_1simple_1_1IsLabel.html" target="_top" xlink:title=" ">
<polygon fill="white" stroke="black" points="346,-0.5 346,-74.5 495,-74.5 495,-0.5 346,-0.5"/>
<text text-anchor="start" x="354" y="-62.5" font-family="Helvetica,sans-Serif" font-size="10.00">itk::simple::IsLabel</text>
<text text-anchor="start" x="354" y="-51.5" font-family="Helvetica,sans-Serif" font-size="10.00">&lt; ImageTypeToPixelID</text>
<text text-anchor="start" x="354" y="-40.5" font-family="Helvetica,sans-Serif" font-size="10.00">&lt; itk::LabelMap&lt; itk::</text>
<text text-anchor="start" x="354" y="-29.5" font-family="Helvetica,sans-Serif" font-size="10.00">LabelObject&lt; TLabelType,</text>
<text text-anchor="start" x="354" y="-18.5" font-family="Helvetica,sans-Serif" font-size="10.00"> VImageDimension &gt; &gt; &gt;::</text>
<text text-anchor="middle" x="420.5" y="-7.5" font-family="Helvetica,sans-Serif" font-size="10.00">PixelIDType &gt;</text>
</a>
</g>
</g>
<!-- Node2&#45;&gt;Node1 -->
<g id="edge1" class="edge">
<title>Node2&#45;&gt;Node1</title>
<path fill="none" stroke="midnightblue" d="M505.03,-37.5C513.96,-37.5 523,-37.5 531.8,-37.5"/>
<polygon fill="midnightblue" stroke="midnightblue" points="505.01,-34 495.01,-37.5 505.01,-41 505.01,-34"/>
</g>
<!-- Node3 -->
<g id="node3" class="node">
<title>Node3</title>
<g id="a_node3"><a xlink:href="structitk_1_1simple_1_1IsLabel.html" target="_top" xlink:title=" ">
<polygon fill="white" stroke="black" points="0,-22.5 0,-52.5 109,-52.5 109,-22.5 0,-22.5"/>
<text text-anchor="start" x="8" y="-40.5" font-family="Helvetica,sans-Serif" font-size="10.00">itk::simple::IsLabel</text>
<text text-anchor="middle" x="54.5" y="-29.5" font-family="Helvetica,sans-Serif" font-size="10.00">&lt; TPixelIDType &gt;</text>
</a>
</g>
</g>
<!-- Node3&#45;&gt;Node2 -->
<g id="edge2" class="edge">
<title>Node3&#45;&gt;Node2</title>
<path fill="none" stroke="orange" stroke-dasharray="5,2" d="M119.44,-37.5C182.65,-37.5 279.28,-37.5 345.71,-37.5"/>
<polygon fill="orange" stroke="orange" points="119.21,-34 109.21,-37.5 119.21,-41 119.21,-34"/>
<text text-anchor="start" x="127" y="-73.5" font-family="Helvetica,sans-Serif" font-size="10.00"> &lt; ImageTypeToPixelID</text>
<text text-anchor="start" x="127" y="-62.5" font-family="Helvetica,sans-Serif" font-size="10.00">&lt; itk::LabelMap&lt; itk</text>
<text text-anchor="start" x="127" y="-51.5" font-family="Helvetica,sans-Serif" font-size="10.00">::LabelObject&lt; TLabelType,</text>
<text text-anchor="middle" x="227.5" y="-40.5" font-family="Helvetica,sans-Serif" font-size="10.00"> VImageDimension &gt; &gt; &gt;::PixelIDType &gt;</text>
</g>
</g>
</svg>
