<?xml version="1.0" encoding="UTF-8" standalone="no"?>
<!DOCTYPE svg PUBLIC "-//W3C//DTD SVG 1.1//EN"
 "http://www.w3.org/Graphics/SVG/1.1/DTD/svg11.dtd">
<!-- Generated by graphviz version 2.43.0 (0)
 -->
<!-- Title: itk::simple::ProcessObject::EventCommand Pages: 1 -->
<svg width="251pt" height="298pt"
 viewBox="0.00 0.00 251.00 298.00" xmlns="http://www.w3.org/2000/svg" xmlns:xlink="http://www.w3.org/1999/xlink">
<g id="graph0" class="graph" transform="scale(1 1) rotate(0) translate(4 294)">
<title>itk::simple::ProcessObject::EventCommand</title>
<polygon fill="white" stroke="transparent" points="-4,4 -4,-294 247,-294 247,4 -4,4"/>
<!-- Node1 -->
<g id="node1" class="node">
<title>Node1</title>
<g id="a_node1"><a xlink:title=" ">
<polygon fill="#bfbfbf" stroke="black" points="14.5,-0.5 14.5,-30.5 157.5,-30.5 157.5,-0.5 14.5,-0.5"/>
<text text-anchor="start" x="22.5" y="-18.5" font-family="Helvetica,sans-Serif" font-size="10.00">itk::simple::ProcessObject</text>
<text text-anchor="middle" x="86" y="-7.5" font-family="Helvetica,sans-Serif" font-size="10.00">::EventCommand</text>
</a>
</g>
</g>
<!-- Node2 -->
<g id="node2" class="node">
<title>Node2</title>
<g id="a_node2"><a xlink:href="classitk_1_1simple_1_1Command.html" target="_top" xlink:title="An implementation of the Command design pattern for callback.">
<polygon fill="white" stroke="black" points="23.5,-78.5 23.5,-97.5 148.5,-97.5 148.5,-78.5 23.5,-78.5"/>
<text text-anchor="middle" x="86" y="-85.5" font-family="Helvetica,sans-Serif" font-size="10.00">itk::simple::Command</text>
</a>
</g>
</g>
<!-- Node2&#45;&gt;Node1 -->
<g id="edge1" class="edge">
<title>Node2&#45;&gt;Node1</title>
<path fill="none" stroke="#9a32cd" stroke-dasharray="5,2" d="M86,-68.24C86,-56.41 86,-41.38 86,-30.58"/>
<polygon fill="#9a32cd" stroke="#9a32cd" points="82.5,-68.36 86,-78.36 89.5,-68.36 82.5,-68.36"/>
<text text-anchor="middle" x="120.5" y="-52" font-family="Helvetica,sans-Serif" font-size="10.00"> m_Command</text>
</g>
<!-- Node3 -->
<g id="node3" class="node">
<title>Node3</title>
<g id="a_node3"><a xlink:href="classitk_1_1simple_1_1ObjectOwnedBase.html" target="_top" xlink:title="An abstract base class to connect this object with the lifetime of another.">
<polygon fill="white" stroke="black" points="4,-135.5 4,-154.5 168,-154.5 168,-135.5 4,-135.5"/>
<text text-anchor="middle" x="86" y="-142.5" font-family="Helvetica,sans-Serif" font-size="10.00">itk::simple::ObjectOwnedBase</text>
</a>
</g>
</g>
<!-- Node3&#45;&gt;Node2 -->
<g id="edge2" class="edge">
<title>Node3&#45;&gt;Node2</title>
<path fill="none" stroke="midnightblue" d="M86,-125.12C86,-115.82 86,-105.06 86,-97.71"/>
<polygon fill="midnightblue" stroke="midnightblue" points="82.5,-125.41 86,-135.41 89.5,-125.41 82.5,-125.41"/>
</g>
<!-- Node4 -->
<g id="node4" class="node">
<title>Node4</title>
<g id="a_node4"><a xlink:href="classitk_1_1simple_1_1NonCopyable.html" target="_top" xlink:title="An inheritable class to disable copying of a class.">
<polygon fill="white" stroke="black" points="0,-202.5 0,-221.5 140,-221.5 140,-202.5 0,-202.5"/>
<text text-anchor="middle" x="70" y="-209.5" font-family="Helvetica,sans-Serif" font-size="10.00">itk::simple::NonCopyable</text>
</a>
</g>
</g>
<!-- Node4&#45;&gt;Node3 -->
<g id="edge3" class="edge">
<title>Node4&#45;&gt;Node3</title>
<path fill="none" stroke="midnightblue" d="M74.57,-192.41C77.63,-179.99 81.52,-164.22 83.88,-154.63"/>
<polygon fill="midnightblue" stroke="midnightblue" points="71.15,-191.69 72.16,-202.23 77.95,-193.36 71.15,-191.69"/>
</g>
<!-- Node5 -->
<g id="node5" class="node">
<title>Node5</title>
<g id="a_node5"><a xlink:title=" ">
<polygon fill="white" stroke="#bfbfbf" points="158.5,-202.5 158.5,-221.5 223.5,-221.5 223.5,-202.5 158.5,-202.5"/>
<text text-anchor="middle" x="191" y="-209.5" font-family="Helvetica,sans-Serif" font-size="10.00">std::string</text>
</a>
</g>
</g>
<!-- Node5&#45;&gt;Node3 -->
<g id="edge4" class="edge">
<title>Node5&#45;&gt;Node3</title>
<path fill="none" stroke="#9a32cd" stroke-dasharray="5,2" d="M168.29,-196.94C147.5,-184.07 117.38,-165.43 99.94,-154.63"/>
<polygon fill="#9a32cd" stroke="#9a32cd" points="166.49,-199.95 176.84,-202.23 170.18,-193.99 166.49,-199.95"/>
<text text-anchor="middle" x="168" y="-176" font-family="Helvetica,sans-Serif" font-size="10.00"> m_Name</text>
</g>
<!-- Node6 -->
<g id="node6" class="node">
<title>Node6</title>
<g id="a_node6"><a xlink:title=" ">
<polygon fill="white" stroke="#bfbfbf" points="139,-259.5 139,-289.5 243,-289.5 243,-259.5 139,-259.5"/>
<text text-anchor="start" x="147" y="-277.5" font-family="Helvetica,sans-Serif" font-size="10.00">std::basic_string&lt;</text>
<text text-anchor="middle" x="191" y="-266.5" font-family="Helvetica,sans-Serif" font-size="10.00"> Char &gt;</text>
</a>
</g>
</g>
<!-- Node6&#45;&gt;Node5 -->
<g id="edge5" class="edge">
<title>Node6&#45;&gt;Node5</title>
<path fill="none" stroke="midnightblue" d="M191,-249.35C191,-239.51 191,-228.78 191,-221.54"/>
<polygon fill="midnightblue" stroke="midnightblue" points="187.5,-249.47 191,-259.47 194.5,-249.47 187.5,-249.47"/>
</g>
</g>
</svg>
