<?xml version="1.0" encoding="UTF-8" standalone="no"?>
<!DOCTYPE svg PUBLIC "-//W3C//DTD SVG 1.1//EN"
 "http://www.w3.org/Graphics/SVG/1.1/DTD/svg11.dtd">
<!-- Generated by graphviz version 2.43.0 (0)
 -->
<!-- Title: itk::simple::IsInstantiated&lt; itk::VectorImage&lt; TPixelType, VImageDimension &gt;, 0 &gt; Pages: 1 -->
<svg width="830pt" height="84pt"
 viewBox="0.00 0.00 830.00 84.00" xmlns="http://www.w3.org/2000/svg" xmlns:xlink="http://www.w3.org/1999/xlink">
<g id="graph0" class="graph" transform="scale(1 1) rotate(0) translate(4 80)">
<title>itk::simple::IsInstantiated&lt; itk::VectorImage&lt; TPixelType, VImageDimension &gt;, 0 &gt;</title>
<polygon fill="white" stroke="transparent" points="-4,4 -4,-80 826,-80 826,4 -4,4"/>
<!-- Node1 -->
<g id="node1" class="node">
<title>Node1</title>
<g id="a_node1"><a xlink:title=" ">
<polygon fill="#bfbfbf" stroke="black" points="648,-11.5 648,-52.5 822,-52.5 822,-11.5 648,-11.5"/>
<text text-anchor="start" x="656" y="-40.5" font-family="Helvetica,sans-Serif" font-size="10.00">itk::simple::IsInstantiated</text>
<text text-anchor="start" x="656" y="-29.5" font-family="Helvetica,sans-Serif" font-size="10.00">&lt; itk::VectorImage&lt; TPixelType,</text>
<text text-anchor="middle" x="735" y="-18.5" font-family="Helvetica,sans-Serif" font-size="10.00"> VImageDimension &gt;, 0 &gt;</text>
</a>
</g>
</g>
<!-- Node2 -->
<g id="node2" class="node">
<title>Node2</title>
<g id="a_node2"><a xlink:href="structitk_1_1simple_1_1IsInstantiated.html" target="_top" xlink:title=" ">
<polygon fill="white" stroke="black" points="414,-0.5 414,-63.5 611,-63.5 611,-0.5 414,-0.5"/>
<text text-anchor="start" x="422" y="-51.5" font-family="Helvetica,sans-Serif" font-size="10.00">itk::simple::IsInstantiated</text>
<text text-anchor="start" x="422" y="-40.5" font-family="Helvetica,sans-Serif" font-size="10.00">&lt; ImageTypeToPixelID&lt; itk</text>
<text text-anchor="start" x="422" y="-29.5" font-family="Helvetica,sans-Serif" font-size="10.00">::VectorImage&lt; TPixelType,</text>
<text text-anchor="start" x="422" y="-18.5" font-family="Helvetica,sans-Serif" font-size="10.00"> VImageDimension &gt; &gt;::PixelIDType,</text>
<text text-anchor="middle" x="512.5" y="-7.5" font-family="Helvetica,sans-Serif" font-size="10.00"> VImageDimension &gt;</text>
</a>
</g>
</g>
<!-- Node2&#45;&gt;Node1 -->
<g id="edge1" class="edge">
<title>Node2&#45;&gt;Node1</title>
<path fill="none" stroke="midnightblue" d="M621.23,-32C630.15,-32 639.09,-32 647.83,-32"/>
<polygon fill="midnightblue" stroke="midnightblue" points="621.18,-28.5 611.18,-32 621.18,-35.5 621.18,-28.5"/>
</g>
<!-- Node3 -->
<g id="node3" class="node">
<title>Node3</title>
<g id="a_node3"><a xlink:href="structitk_1_1simple_1_1IsInstantiated.html" target="_top" xlink:title=" ">
<polygon fill="white" stroke="black" points="0,-17 0,-47 197,-47 197,-17 0,-17"/>
<text text-anchor="start" x="8" y="-35" font-family="Helvetica,sans-Serif" font-size="10.00">itk::simple::IsInstantiated</text>
<text text-anchor="middle" x="98.5" y="-24" font-family="Helvetica,sans-Serif" font-size="10.00">&lt; TPixelIDType, VImageDimension &gt;</text>
</a>
</g>
</g>
<!-- Node3&#45;&gt;Node2 -->
<g id="edge2" class="edge">
<title>Node3&#45;&gt;Node2</title>
<path fill="none" stroke="orange" stroke-dasharray="5,2" d="M207.26,-32C271.24,-32 351.73,-32 413.85,-32"/>
<polygon fill="orange" stroke="orange" points="207.14,-28.5 197.14,-32 207.14,-35.5 207.14,-28.5"/>
<text text-anchor="start" x="215" y="-68" font-family="Helvetica,sans-Serif" font-size="10.00"> &lt; ImageTypeToPixelID</text>
<text text-anchor="start" x="215" y="-57" font-family="Helvetica,sans-Serif" font-size="10.00">&lt; itk::VectorImage&lt; TPixelType,</text>
<text text-anchor="start" x="215" y="-46" font-family="Helvetica,sans-Serif" font-size="10.00"> VImageDimension &gt; &gt;::PixelIDType,</text>
<text text-anchor="middle" x="305.5" y="-35" font-family="Helvetica,sans-Serif" font-size="10.00"> VImageDimension &gt;</text>
</g>
</g>
</svg>
