<?xml version="1.0" encoding="UTF-8" standalone="no"?>
<!DOCTYPE svg PUBLIC "-//W3C//DTD SVG 1.1//EN"
 "http://www.w3.org/Graphics/SVG/1.1/DTD/svg11.dtd">
<!-- Generated by graphviz version 2.43.0 (0)
 -->
<!-- Title: itk::simple::IsBasic&lt; itk::Image&lt; TPixelType, VImageDimension &gt; &gt; Pages: 1 -->
<svg width="729pt" height="68pt"
 viewBox="0.00 0.00 729.00 67.50" xmlns="http://www.w3.org/2000/svg" xmlns:xlink="http://www.w3.org/1999/xlink">
<g id="graph0" class="graph" transform="scale(1 1) rotate(0) translate(4 63.5)">
<title>itk::simple::IsBasic&lt; itk::Image&lt; TPixelType, VImageDimension &gt; &gt;</title>
<polygon fill="white" stroke="transparent" points="-4,4 -4,-63.5 725,-63.5 725,4 -4,4"/>
<!-- Node1 -->
<g id="node1" class="node">
<title>Node1</title>
<g id="a_node1"><a xlink:title=" ">
<polygon fill="#bfbfbf" stroke="black" points="578,-6 578,-47 721,-47 721,-6 578,-6"/>
<text text-anchor="start" x="586" y="-35" font-family="Helvetica,sans-Serif" font-size="10.00">itk::simple::IsBasic</text>
<text text-anchor="start" x="586" y="-24" font-family="Helvetica,sans-Serif" font-size="10.00">&lt; itk::Image&lt; TPixelType,</text>
<text text-anchor="middle" x="649.5" y="-13" font-family="Helvetica,sans-Serif" font-size="10.00"> VImageDimension &gt; &gt;</text>
</a>
</g>
</g>
<!-- Node2 -->
<g id="node2" class="node">
<title>Node2</title>
<g id="a_node2"><a xlink:href="structitk_1_1simple_1_1IsBasic.html" target="_top" xlink:title=" ">
<polygon fill="white" stroke="black" points="335,-0.5 335,-52.5 541,-52.5 541,-0.5 335,-0.5"/>
<text text-anchor="start" x="343" y="-40.5" font-family="Helvetica,sans-Serif" font-size="10.00">itk::simple::IsBasic</text>
<text text-anchor="start" x="343" y="-29.5" font-family="Helvetica,sans-Serif" font-size="10.00">&lt; ImageTypeToPixelID</text>
<text text-anchor="start" x="343" y="-18.5" font-family="Helvetica,sans-Serif" font-size="10.00">&lt; itk::Image&lt; TPixelType,</text>
<text text-anchor="middle" x="438" y="-7.5" font-family="Helvetica,sans-Serif" font-size="10.00"> VImageDimension &gt; &gt;::PixelIDType &gt;</text>
</a>
</g>
</g>
<!-- Node2&#45;&gt;Node1 -->
<g id="edge1" class="edge">
<title>Node2&#45;&gt;Node1</title>
<path fill="none" stroke="midnightblue" d="M551.43,-26.5C560.39,-26.5 569.28,-26.5 577.82,-26.5"/>
<polygon fill="midnightblue" stroke="midnightblue" points="551.3,-23 541.3,-26.5 551.3,-30 551.3,-23"/>
</g>
<!-- Node3 -->
<g id="node3" class="node">
<title>Node3</title>
<g id="a_node3"><a xlink:href="structitk_1_1simple_1_1IsBasic.html" target="_top" xlink:title=" ">
<polygon fill="white" stroke="black" points="0,-11.5 0,-41.5 109,-41.5 109,-11.5 0,-11.5"/>
<text text-anchor="start" x="8" y="-29.5" font-family="Helvetica,sans-Serif" font-size="10.00">itk::simple::IsBasic</text>
<text text-anchor="middle" x="54.5" y="-18.5" font-family="Helvetica,sans-Serif" font-size="10.00">&lt; TPixelIDType &gt;</text>
</a>
</g>
</g>
<!-- Node3&#45;&gt;Node2 -->
<g id="edge2" class="edge">
<title>Node3&#45;&gt;Node2</title>
<path fill="none" stroke="orange" stroke-dasharray="5,2" d="M119.6,-26.5C178.31,-26.5 266.22,-26.5 334.65,-26.5"/>
<polygon fill="orange" stroke="orange" points="119.35,-23 109.35,-26.5 119.35,-30 119.35,-23"/>
<text text-anchor="start" x="127" y="-51.5" font-family="Helvetica,sans-Serif" font-size="10.00"> &lt; ImageTypeToPixelID</text>
<text text-anchor="start" x="127" y="-40.5" font-family="Helvetica,sans-Serif" font-size="10.00">&lt; itk::Image&lt; TPixelType,</text>
<text text-anchor="middle" x="222" y="-29.5" font-family="Helvetica,sans-Serif" font-size="10.00"> VImageDimension &gt; &gt;::PixelIDType &gt;</text>
</g>
</g>
</svg>
