<?xml version="1.0" encoding="UTF-8" standalone="no"?>
<!DOCTYPE svg PUBLIC "-//W3C//DTD SVG 1.1//EN"
 "http://www.w3.org/Graphics/SVG/1.1/DTD/svg11.dtd">
<!-- Generated by graphviz version 2.43.0 (0)
 -->
<!-- Title: itk::simple::IsInstantiated&lt; TPixelIDType, VImageDimension &gt; Pages: 1 -->
<svg width="915pt" height="240pt"
 viewBox="0.00 0.00 915.00 240.00" xmlns="http://www.w3.org/2000/svg" xmlns:xlink="http://www.w3.org/1999/xlink">
<g id="graph0" class="graph" transform="scale(1 1) rotate(0) translate(4 236)">
<title>itk::simple::IsInstantiated&lt; TPixelIDType, VImageDimension &gt;</title>
<polygon fill="white" stroke="transparent" points="-4,4 -4,-236 911,-236 911,4 -4,4"/>
<!-- Node1 -->
<g id="node1" class="node">
<title>Node1</title>
<g id="a_node1"><a xlink:title=" ">
<polygon fill="#bfbfbf" stroke="black" points="0,-99 0,-129 197,-129 197,-99 0,-99"/>
<text text-anchor="start" x="8" y="-117" font-family="Helvetica,sans-Serif" font-size="10.00">itk::simple::IsInstantiated</text>
<text text-anchor="middle" x="98.5" y="-106" font-family="Helvetica,sans-Serif" font-size="10.00">&lt; TPixelIDType, VImageDimension &gt;</text>
</a>
</g>
</g>
<!-- Node2 -->
<g id="node2" class="node">
<title>Node2</title>
<g id="a_node2"><a xlink:href="structitk_1_1simple_1_1IsInstantiated.html" target="_top" xlink:title=" ">
<polygon fill="white" stroke="black" points="430,-165 430,-217 642,-217 642,-165 430,-165"/>
<text text-anchor="start" x="438" y="-205" font-family="Helvetica,sans-Serif" font-size="10.00">itk::simple::IsInstantiated</text>
<text text-anchor="start" x="438" y="-194" font-family="Helvetica,sans-Serif" font-size="10.00">&lt; ImageTypeToPixelID&lt; itk</text>
<text text-anchor="start" x="438" y="-183" font-family="Helvetica,sans-Serif" font-size="10.00">::Image&lt; TPixelType, VImageDimension</text>
<text text-anchor="middle" x="536" y="-172" font-family="Helvetica,sans-Serif" font-size="10.00"> &gt; &gt;::PixelIDType, VImageDimension &gt;</text>
</a>
</g>
</g>
<!-- Node1&#45;&gt;Node2 -->
<g id="edge1" class="edge">
<title>Node1&#45;&gt;Node2</title>
<path fill="none" stroke="orange" stroke-dasharray="5,2" d="M138.35,-133.62C160.3,-143.81 188.56,-155.47 215,-162 285.4,-179.39 366.82,-186.59 429.91,-189.48"/>
<polygon fill="orange" stroke="orange" points="139.58,-130.34 129.05,-129.22 136.59,-136.66 139.58,-130.34"/>
<text text-anchor="start" x="221" y="-224" font-family="Helvetica,sans-Serif" font-size="10.00"> &lt; ImageTypeToPixelID</text>
<text text-anchor="start" x="221" y="-213" font-family="Helvetica,sans-Serif" font-size="10.00">&lt; itk::Image&lt; TPixelType,</text>
<text text-anchor="start" x="221" y="-202" font-family="Helvetica,sans-Serif" font-size="10.00"> VImageDimension &gt; &gt;::PixelIDType,</text>
<text text-anchor="middle" x="311.5" y="-191" font-family="Helvetica,sans-Serif" font-size="10.00"> VImageDimension &gt;</text>
</g>
<!-- Node4 -->
<g id="node4" class="node">
<title>Node4</title>
<g id="a_node4"><a xlink:href="structitk_1_1simple_1_1IsInstantiated.html" target="_top" xlink:title=" ">
<polygon fill="white" stroke="black" points="437.5,-82.5 437.5,-145.5 634.5,-145.5 634.5,-82.5 437.5,-82.5"/>
<text text-anchor="start" x="445.5" y="-133.5" font-family="Helvetica,sans-Serif" font-size="10.00">itk::simple::IsInstantiated</text>
<text text-anchor="start" x="445.5" y="-122.5" font-family="Helvetica,sans-Serif" font-size="10.00">&lt; ImageTypeToPixelID&lt; itk</text>
<text text-anchor="start" x="445.5" y="-111.5" font-family="Helvetica,sans-Serif" font-size="10.00">::VectorImage&lt; TPixelType,</text>
<text text-anchor="start" x="445.5" y="-100.5" font-family="Helvetica,sans-Serif" font-size="10.00"> VImageDimension &gt; &gt;::PixelIDType,</text>
<text text-anchor="middle" x="536" y="-89.5" font-family="Helvetica,sans-Serif" font-size="10.00"> VImageDimension &gt;</text>
</a>
</g>
</g>
<!-- Node1&#45;&gt;Node4 -->
<g id="edge3" class="edge">
<title>Node1&#45;&gt;Node4</title>
<path fill="none" stroke="orange" stroke-dasharray="5,2" d="M207.46,-114C277.85,-114 368.96,-114 437.22,-114"/>
<polygon fill="orange" stroke="orange" points="207.23,-110.5 197.23,-114 207.23,-117.5 207.23,-110.5"/>
<text text-anchor="start" x="221" y="-150" font-family="Helvetica,sans-Serif" font-size="10.00"> &lt; ImageTypeToPixelID</text>
<text text-anchor="start" x="221" y="-139" font-family="Helvetica,sans-Serif" font-size="10.00">&lt; itk::VectorImage&lt; TPixelType,</text>
<text text-anchor="start" x="221" y="-128" font-family="Helvetica,sans-Serif" font-size="10.00"> VImageDimension &gt; &gt;::PixelIDType,</text>
<text text-anchor="middle" x="311.5" y="-117" font-family="Helvetica,sans-Serif" font-size="10.00"> VImageDimension &gt;</text>
</g>
<!-- Node6 -->
<g id="node6" class="node">
<title>Node6</title>
<g id="a_node6"><a xlink:href="structitk_1_1simple_1_1IsInstantiated.html" target="_top" xlink:title=" ">
<polygon fill="white" stroke="black" points="426,-0.5 426,-63.5 646,-63.5 646,-0.5 426,-0.5"/>
<text text-anchor="start" x="434" y="-51.5" font-family="Helvetica,sans-Serif" font-size="10.00">itk::simple::IsInstantiated</text>
<text text-anchor="start" x="434" y="-40.5" font-family="Helvetica,sans-Serif" font-size="10.00">&lt; ImageTypeToPixelID&lt; itk</text>
<text text-anchor="start" x="434" y="-29.5" font-family="Helvetica,sans-Serif" font-size="10.00">::LabelMap&lt; itk::LabelObject</text>
<text text-anchor="start" x="434" y="-18.5" font-family="Helvetica,sans-Serif" font-size="10.00">&lt; TLabelType, VImageDimension</text>
<text text-anchor="middle" x="536" y="-7.5" font-family="Helvetica,sans-Serif" font-size="10.00"> &gt; &gt; &gt;::PixelIDType, VImageDimension &gt;</text>
</a>
</g>
</g>
<!-- Node1&#45;&gt;Node6 -->
<g id="edge5" class="edge">
<title>Node1&#45;&gt;Node6</title>
<path fill="none" stroke="orange" stroke-dasharray="5,2" d="M131,-93.52C153.45,-80.05 184.88,-63.4 215,-55 283.41,-35.92 363.05,-30.14 425.77,-29.15"/>
<polygon fill="orange" stroke="orange" points="128.95,-90.67 122.25,-98.88 132.61,-96.64 128.95,-90.67"/>
<text text-anchor="start" x="215" y="-102" font-family="Helvetica,sans-Serif" font-size="10.00"> &lt; ImageTypeToPixelID</text>
<text text-anchor="start" x="215" y="-91" font-family="Helvetica,sans-Serif" font-size="10.00">&lt; itk::LabelMap&lt; itk</text>
<text text-anchor="start" x="215" y="-80" font-family="Helvetica,sans-Serif" font-size="10.00">::LabelObject&lt; TLabelType,</text>
<text text-anchor="start" x="215" y="-69" font-family="Helvetica,sans-Serif" font-size="10.00"> VImageDimension &gt; &gt; &gt;::PixelIDType,</text>
<text text-anchor="middle" x="311.5" y="-58" font-family="Helvetica,sans-Serif" font-size="10.00"> VImageDimension &gt;</text>
</g>
<!-- Node3 -->
<g id="node3" class="node">
<title>Node3</title>
<g id="a_node3"><a xlink:href="structitk_1_1simple_1_1IsInstantiated_3_01itk_1_1Image_3_01TPixelType_00_01VImageDimension_01_4_00_010_01_4.html" target="_top" xlink:title=" ">
<polygon fill="white" stroke="black" points="723,-170.5 723,-211.5 867,-211.5 867,-170.5 723,-170.5"/>
<text text-anchor="start" x="731" y="-199.5" font-family="Helvetica,sans-Serif" font-size="10.00">itk::simple::IsInstantiated</text>
<text text-anchor="start" x="731" y="-188.5" font-family="Helvetica,sans-Serif" font-size="10.00">&lt; itk::Image&lt; TPixelType,</text>
<text text-anchor="middle" x="795" y="-177.5" font-family="Helvetica,sans-Serif" font-size="10.00"> VImageDimension &gt;, 0 &gt;</text>
</a>
</g>
</g>
<!-- Node2&#45;&gt;Node3 -->
<g id="edge2" class="edge">
<title>Node2&#45;&gt;Node3</title>
<path fill="none" stroke="midnightblue" d="M652.47,-191C676.36,-191 700.86,-191 722.62,-191"/>
<polygon fill="midnightblue" stroke="midnightblue" points="652.27,-187.5 642.27,-191 652.27,-194.5 652.27,-187.5"/>
</g>
<!-- Node5 -->
<g id="node5" class="node">
<title>Node5</title>
<g id="a_node5"><a xlink:href="structitk_1_1simple_1_1IsInstantiated_3_01itk_1_1VectorImage_3_01TPixelType_00_01VImageDimension_01_4_00_010_01_4.html" target="_top" xlink:title=" ">
<polygon fill="white" stroke="black" points="708,-93.5 708,-134.5 882,-134.5 882,-93.5 708,-93.5"/>
<text text-anchor="start" x="716" y="-122.5" font-family="Helvetica,sans-Serif" font-size="10.00">itk::simple::IsInstantiated</text>
<text text-anchor="start" x="716" y="-111.5" font-family="Helvetica,sans-Serif" font-size="10.00">&lt; itk::VectorImage&lt; TPixelType,</text>
<text text-anchor="middle" x="795" y="-100.5" font-family="Helvetica,sans-Serif" font-size="10.00"> VImageDimension &gt;, 0 &gt;</text>
</a>
</g>
</g>
<!-- Node4&#45;&gt;Node5 -->
<g id="edge4" class="edge">
<title>Node4&#45;&gt;Node5</title>
<path fill="none" stroke="midnightblue" d="M644.79,-114C665.85,-114 687.67,-114 707.91,-114"/>
<polygon fill="midnightblue" stroke="midnightblue" points="644.53,-110.5 634.53,-114 644.53,-117.5 644.53,-110.5"/>
</g>
<!-- Node7 -->
<g id="node7" class="node">
<title>Node7</title>
<g id="a_node7"><a xlink:href="structitk_1_1simple_1_1IsInstantiated_3_01itk_1_1LabelMap_3_01itk_1_1LabelObject_3_01TLabelType_8c9763b073bdea276b13f9d4c521053d.html" target="_top" xlink:title=" ">
<polygon fill="white" stroke="black" points="683,-11.5 683,-52.5 907,-52.5 907,-11.5 683,-11.5"/>
<text text-anchor="start" x="691" y="-40.5" font-family="Helvetica,sans-Serif" font-size="10.00">itk::simple::IsInstantiated</text>
<text text-anchor="start" x="691" y="-29.5" font-family="Helvetica,sans-Serif" font-size="10.00">&lt; itk::LabelMap&lt; itk::LabelObject</text>
<text text-anchor="middle" x="795" y="-18.5" font-family="Helvetica,sans-Serif" font-size="10.00">&lt; TLabelType, VImageDimension &gt; &gt;, 0 &gt;</text>
</a>
</g>
</g>
<!-- Node6&#45;&gt;Node7 -->
<g id="edge6" class="edge">
<title>Node6&#45;&gt;Node7</title>
<path fill="none" stroke="midnightblue" d="M656.55,-32C665.26,-32 674.03,-32 682.68,-32"/>
<polygon fill="midnightblue" stroke="midnightblue" points="656.36,-28.5 646.36,-32 656.36,-35.5 656.36,-28.5"/>
</g>
</g>
</svg>
