<?xml version="1.0" encoding="UTF-8" standalone="no"?>
<!DOCTYPE svg PUBLIC "-//W3C//DTD SVG 1.1//EN"
 "http://www.w3.org/Graphics/SVG/1.1/DTD/svg11.dtd">
<!-- Generated by graphviz version 2.43.0 (0)
 -->
<!-- Title: itk::simple::DisplacementFieldTransform::MyVisitor Pages: 1 -->
<svg width="1166pt" height="148pt"
 viewBox="0.00 0.00 1166.00 147.50" xmlns="http://www.w3.org/2000/svg" xmlns:xlink="http://www.w3.org/1999/xlink">
<g id="graph0" class="graph" transform="scale(1 1) rotate(0) translate(4 143.5)">
<title>itk::simple::DisplacementFieldTransform::MyVisitor</title>
<polygon fill="white" stroke="transparent" points="-4,4 -4,-143.5 1162,-143.5 1162,4 -4,4"/>
<!-- Node1 -->
<g id="node1" class="node">
<title>Node1</title>
<g id="a_node1"><a xlink:title=" ">
<polygon fill="#bfbfbf" stroke="black" points="1016,-31.5 1016,-61.5 1158,-61.5 1158,-31.5 1016,-31.5"/>
<text text-anchor="start" x="1024" y="-49.5" font-family="Helvetica,sans-Serif" font-size="10.00">itk::simple::Displacement</text>
<text text-anchor="middle" x="1087" y="-38.5" font-family="Helvetica,sans-Serif" font-size="10.00">FieldTransform::MyVisitor</text>
</a>
</g>
</g>
<!-- Node2 -->
<g id="node2" class="node">
<title>Node2</title>
<g id="a_node2"><a target="_parent" xlink:href="https://www.itk.org/Doxygen/html/classitk_1_1TransformBaseTemplate.html" xlink:title=" ">
<polygon fill="white" stroke="black" points="775,-56.5 775,-86.5 928,-86.5 928,-56.5 775,-56.5"/>
<text text-anchor="start" x="783" y="-74.5" font-family="Helvetica,sans-Serif" font-size="10.00">itk::TransformBaseTemplate</text>
<text text-anchor="middle" x="851.5" y="-63.5" font-family="Helvetica,sans-Serif" font-size="10.00">&lt; TParametersValueType &gt;</text>
</a>
</g>
</g>
<!-- Node2&#45;&gt;Node1 -->
<g id="edge1" class="edge">
<title>Node2&#45;&gt;Node1</title>
<path fill="none" stroke="#9a32cd" stroke-dasharray="5,2" d="M938.33,-62.31C963.79,-59.58 991.36,-56.63 1015.71,-54.03"/>
<polygon fill="#9a32cd" stroke="#9a32cd" points="937.88,-58.84 928.31,-63.38 938.63,-65.8 937.88,-58.84"/>
<text text-anchor="middle" x="972" y="-63.5" font-family="Helvetica,sans-Serif" font-size="10.00"> transform</text>
</g>
<!-- Node3 -->
<g id="node3" class="node">
<title>Node3</title>
<g id="a_node3"><a target="_parent" xlink:href="https://www.itk.org/Doxygen/html/classitk_1_1Object.html" xlink:title=" ">
<polygon fill="white" stroke="black" points="643,-62 643,-81 710,-81 710,-62 643,-62"/>
<text text-anchor="middle" x="676.5" y="-69" font-family="Helvetica,sans-Serif" font-size="10.00">itk::Object</text>
</a>
</g>
</g>
<!-- Node3&#45;&gt;Node2 -->
<g id="edge2" class="edge">
<title>Node3&#45;&gt;Node2</title>
<path fill="none" stroke="midnightblue" d="M720.39,-71.5C736.82,-71.5 756.09,-71.5 774.69,-71.5"/>
<polygon fill="midnightblue" stroke="midnightblue" points="720.04,-68 710.04,-71.5 720.04,-75 720.04,-68"/>
</g>
<!-- Node4 -->
<g id="node4" class="node">
<title>Node4</title>
<g id="a_node4"><a target="_parent" xlink:href="https://www.itk.org/Doxygen/html/classitk_1_1LightObject.html" xlink:title=" ">
<polygon fill="white" stroke="black" points="349.5,-120 349.5,-139 440.5,-139 440.5,-120 349.5,-120"/>
<text text-anchor="middle" x="395" y="-127" font-family="Helvetica,sans-Serif" font-size="10.00">itk::LightObject</text>
</a>
</g>
</g>
<!-- Node4&#45;&gt;Node3 -->
<g id="edge3" class="edge">
<title>Node4&#45;&gt;Node3</title>
<path fill="none" stroke="midnightblue" d="M450.8,-124.23C491.53,-119.62 548.25,-111.71 597,-99.5 616.09,-94.72 637.05,-87.12 652.51,-81.04"/>
<polygon fill="midnightblue" stroke="midnightblue" points="450.35,-120.76 440.8,-125.34 451.12,-127.72 450.35,-120.76"/>
</g>
<!-- Node5 -->
<g id="node5" class="node">
<title>Node5</title>
<g id="a_node5"><a target="_parent" xlink:href="https://www.itk.org/Doxygen/html/classitk_1_1TimeStamp.html" xlink:title=" ">
<polygon fill="white" stroke="black" points="349,-82 349,-101 441,-101 441,-82 349,-82"/>
<text text-anchor="middle" x="395" y="-89" font-family="Helvetica,sans-Serif" font-size="10.00">itk::TimeStamp</text>
</a>
</g>
</g>
<!-- Node5&#45;&gt;Node3 -->
<g id="edge4" class="edge">
<title>Node5&#45;&gt;Node3</title>
<path fill="none" stroke="#9a32cd" stroke-dasharray="5,2" d="M451.51,-87.53C508.59,-83.44 595.59,-77.22 642.6,-73.85"/>
<polygon fill="#9a32cd" stroke="#9a32cd" points="450.94,-84.06 441.22,-88.26 451.44,-91.04 450.94,-84.06"/>
<text text-anchor="middle" x="538.5" y="-87.5" font-family="Helvetica,sans-Serif" font-size="10.00"> m_MTime</text>
</g>
<!-- Node6 -->
<g id="node6" class="node">
<title>Node6</title>
<g id="a_node6"><a xlink:title=" ">
<polygon fill="white" stroke="#bfbfbf" points="84,-82 84,-101 184,-101 184,-82 84,-82"/>
<text text-anchor="middle" x="134" y="-89" font-family="Helvetica,sans-Serif" font-size="10.00">std::atomic&lt; T &gt;</text>
</a>
</g>
</g>
<!-- Node6&#45;&gt;Node5 -->
<g id="edge5" class="edge">
<title>Node6&#45;&gt;Node5</title>
<path fill="none" stroke="#9a32cd" stroke-dasharray="5,2" d="M194.05,-91.5C241,-91.5 305.71,-91.5 348.65,-91.5"/>
<polygon fill="#9a32cd" stroke="#9a32cd" points="194.02,-88 184.02,-91.5 194.02,-95 194.02,-88"/>
<text text-anchor="middle" x="257" y="-94.5" font-family="Helvetica,sans-Serif" font-size="10.00"> m_GlobalTimeStamp</text>
</g>
<!-- Node7 -->
<g id="node7" class="node">
<title>Node7</title>
<g id="a_node7"><a xlink:title=" ">
<polygon fill="white" stroke="#bfbfbf" points="0,-82 0,-101 29,-101 29,-82 0,-82"/>
<text text-anchor="middle" x="14.5" y="-89" font-family="Helvetica,sans-Serif" font-size="10.00">T</text>
</a>
</g>
</g>
<!-- Node7&#45;&gt;Node6 -->
<g id="edge6" class="edge">
<title>Node7&#45;&gt;Node6</title>
<path fill="none" stroke="#9a32cd" stroke-dasharray="5,2" d="M39.7,-91.5C52.49,-91.5 68.67,-91.5 83.95,-91.5"/>
<polygon fill="#9a32cd" stroke="#9a32cd" points="39.44,-88 29.44,-91.5 39.44,-95 39.44,-88"/>
<text text-anchor="middle" x="55.5" y="-94.5" font-family="Helvetica,sans-Serif" font-size="10.00"> ptr</text>
</g>
<!-- Node8 -->
<g id="node8" class="node">
<title>Node8</title>
<g id="a_node8"><a target="_parent" xlink:href="https://www.itk.org/Doxygen/html/classitk_1_1MetaDataDictionary.html" xlink:title=" ">
<polygon fill="white" stroke="black" points="328,-44 328,-63 462,-63 462,-44 328,-44"/>
<text text-anchor="middle" x="395" y="-51" font-family="Helvetica,sans-Serif" font-size="10.00">itk::MetaDataDictionary</text>
</a>
</g>
</g>
<!-- Node8&#45;&gt;Node3 -->
<g id="edge7" class="edge">
<title>Node8&#45;&gt;Node3</title>
<path fill="none" stroke="#9a32cd" stroke-dasharray="5,2" d="M472.62,-51.52C510.19,-51.35 556.06,-52.32 597,-56.5 612.18,-58.05 628.81,-61.04 642.84,-63.94"/>
<polygon fill="#9a32cd" stroke="#9a32cd" points="472.23,-48.03 462.25,-51.6 472.28,-55.03 472.23,-48.03"/>
<text text-anchor="middle" x="538.5" y="-59.5" font-family="Helvetica,sans-Serif" font-size="10.00"> m_MetaDataDictionary</text>
</g>
<!-- Node9 -->
<g id="node9" class="node">
<title>Node9</title>
<g id="a_node9"><a xlink:title=" ">
<polygon fill="white" stroke="#bfbfbf" points="362.5,-6 362.5,-25 427.5,-25 427.5,-6 362.5,-6"/>
<text text-anchor="middle" x="395" y="-13" font-family="Helvetica,sans-Serif" font-size="10.00">std::string</text>
</a>
</g>
</g>
<!-- Node9&#45;&gt;Node3 -->
<g id="edge8" class="edge">
<title>Node9&#45;&gt;Node3</title>
<path fill="none" stroke="#9a32cd" stroke-dasharray="5,2" d="M437.74,-16.05C478.88,-17.48 543.22,-22.09 597,-36.5 619.05,-42.41 642.79,-53.76 658.31,-61.93"/>
<polygon fill="#9a32cd" stroke="#9a32cd" points="437.64,-12.55 427.54,-15.75 437.43,-19.54 437.64,-12.55"/>
<text text-anchor="middle" x="538.5" y="-39.5" font-family="Helvetica,sans-Serif" font-size="10.00"> m_ObjectName</text>
</g>
<!-- Node10 -->
<g id="node10" class="node">
<title>Node10</title>
<g id="a_node10"><a xlink:title=" ">
<polygon fill="white" stroke="#bfbfbf" points="82,-0.5 82,-30.5 186,-30.5 186,-0.5 82,-0.5"/>
<text text-anchor="start" x="90" y="-18.5" font-family="Helvetica,sans-Serif" font-size="10.00">std::basic_string&lt;</text>
<text text-anchor="middle" x="134" y="-7.5" font-family="Helvetica,sans-Serif" font-size="10.00"> Char &gt;</text>
</a>
</g>
</g>
<!-- Node10&#45;&gt;Node9 -->
<g id="edge9" class="edge">
<title>Node10&#45;&gt;Node9</title>
<path fill="none" stroke="midnightblue" d="M196.32,-15.5C248.51,-15.5 321.37,-15.5 362.49,-15.5"/>
<polygon fill="midnightblue" stroke="midnightblue" points="196.17,-12 186.17,-15.5 196.17,-19 196.17,-12"/>
</g>
<!-- Node11 -->
<g id="node11" class="node">
<title>Node11</title>
<g id="a_node11"><a xlink:href="classitk_1_1simple_1_1DisplacementFieldTransform.html" target="_top" xlink:title="A dense deformable transform over a bounded spatial domain for 2D or 3D coordinates space.">
<polygon fill="white" stroke="black" points="780.5,-7.5 780.5,-37.5 922.5,-37.5 922.5,-7.5 780.5,-7.5"/>
<text text-anchor="start" x="788.5" y="-25.5" font-family="Helvetica,sans-Serif" font-size="10.00">itk::simple::Displacement</text>
<text text-anchor="middle" x="851.5" y="-14.5" font-family="Helvetica,sans-Serif" font-size="10.00">FieldTransform</text>
</a>
</g>
</g>
<!-- Node11&#45;&gt;Node1 -->
<g id="edge10" class="edge">
<title>Node11&#45;&gt;Node1</title>
<path fill="none" stroke="#9a32cd" stroke-dasharray="5,2" d="M932.49,-28.33C953.8,-30.09 976.79,-32.18 998,-34.5 1003.82,-35.14 1009.86,-35.85 1015.91,-36.6"/>
<polygon fill="#9a32cd" stroke="#9a32cd" points="932.76,-24.84 922.51,-27.51 932.19,-31.81 932.76,-24.84"/>
<text text-anchor="middle" x="972" y="-37.5" font-family="Helvetica,sans-Serif" font-size="10.00"> that</text>
</g>
<!-- Node12 -->
<g id="node12" class="node">
<title>Node12</title>
<g id="a_node12"><a xlink:href="classitk_1_1simple_1_1Transform.html" target="_top" xlink:title="A simplified wrapper around a variety of ITK transforms.">
<polygon fill="white" stroke="black" points="615,-13 615,-32 738,-32 738,-13 615,-13"/>
<text text-anchor="middle" x="676.5" y="-20" font-family="Helvetica,sans-Serif" font-size="10.00">itk::simple::Transform</text>
</a>
</g>
</g>
<!-- Node12&#45;&gt;Node11 -->
<g id="edge11" class="edge">
<title>Node12&#45;&gt;Node11</title>
<path fill="none" stroke="midnightblue" d="M748.06,-22.5C758.68,-22.5 769.63,-22.5 780.24,-22.5"/>
<polygon fill="midnightblue" stroke="midnightblue" points="748.01,-19 738.01,-22.5 748.01,-26 748.01,-19"/>
</g>
</g>
</svg>
